<svg width="48" height="48" viewBox="0 0 48 48" fill="none" xmlns="http://www.w3.org/2000/svg">
<path d="M8.63451 6.46118C7.93709 6.46118 7.26823 6.73823 6.77508 7.23138C6.28193 7.72454 6.00488 8.39339 6.00488 9.09082V38.7367C5.98271 39.0963 6.03441 39.4567 6.15679 39.7956C6.27917 40.1345 6.46963 40.4448 6.71646 40.7073C6.96328 40.9698 7.26123 41.179 7.59196 41.322C7.92269 41.4649 8.27919 41.5387 8.63951 41.5387C8.99983 41.5387 9.35633 41.4649 9.68706 41.322C10.0178 41.179 10.3157 40.9698 10.5626 40.7073C10.8094 40.4448 10.9999 40.1345 11.1222 39.7956C11.2446 39.4567 11.2963 39.0963 11.2741 38.7367V9.09082C11.2715 8.39248 10.9922 7.72364 10.4975 7.23077C10.0027 6.73791 9.33286 6.46118 8.63451 6.46118Z" fill="black"/>
<path d="M39.3702 24.4487H14.5437C13.0914 24.4487 11.9141 25.626 11.9141 27.0783V33.9974C11.9141 35.4497 13.0914 36.627 14.5437 36.627H39.3702C40.8226 36.627 41.9999 35.4497 41.9999 33.9974V27.0783C41.9999 25.626 40.8226 24.4487 39.3702 24.4487Z" fill="black"/>
<path d="M32.7312 11.2105H14.5437C13.0914 11.2105 11.9141 12.3878 11.9141 13.8402V20.7592C11.9141 22.2115 13.0914 23.3888 14.5437 23.3888H32.7312C34.1835 23.3888 35.3608 22.2115 35.3608 20.7592V13.8402C35.3608 12.3878 34.1835 11.2105 32.7312 11.2105Z" fill="black"/>
</svg>
