<svg width="48" height="48" viewBox="0 0 48 48" fill="none" xmlns="http://www.w3.org/2000/svg">
<path d="M40.62 40.9161C40.2513 40.9161 39.8978 40.7696 39.6371 40.5089C39.3764 40.2483 39.23 39.8947 39.23 39.5261V8.35607C39.2595 8.00906 39.4182 7.68578 39.6747 7.45018C39.9311 7.21459 40.2667 7.08386 40.615 7.08386C40.9632 7.08386 41.2988 7.21459 41.5553 7.45018C41.8118 7.68578 41.9705 8.00906 42 8.35607V39.5261C42.0013 39.7081 41.9666 39.8887 41.8978 40.0572C41.8291 40.2258 41.7276 40.3791 41.5993 40.5084C41.4711 40.6376 41.3185 40.7401 41.1504 40.8101C40.9823 40.8801 40.802 40.9161 40.62 40.9161Z" fill="black"/>
<path fill-rule="evenodd" clip-rule="evenodd" d="M34.4 36.846H8.31002C8.0063 36.8473 7.70532 36.7885 7.42446 36.6728C7.1436 36.5572 6.88842 36.3871 6.67365 36.1723C6.45889 35.9576 6.28878 35.7024 6.17316 35.4215C6.05754 35.1407 5.9987 34.8397 6.00002 34.536V27.276C6.00002 26.9731 6.05984 26.6732 6.17605 26.3935C6.29226 26.1138 6.46257 25.8598 6.67721 25.6461C6.89184 25.4324 7.14657 25.2632 7.42678 25.1482C7.70698 25.0332 8.00714 24.9747 8.31002 24.976H34.4C35.0127 24.976 35.6002 25.2193 36.0334 25.6526C36.4666 26.0858 36.71 26.6733 36.71 27.286V34.546C36.7074 35.1569 36.4628 35.7419 36.0299 36.1729C35.597 36.604 35.0109 36.846 34.4 36.846ZM8.77002 34.076H33.94V27.736H8.77002V34.076Z" fill="black"/>
<path fill-rule="evenodd" clip-rule="evenodd" d="M15.2901 22.976H34.4001C34.7073 22.9747 35.0112 22.9125 35.2942 22.7928C35.5771 22.6731 35.8335 22.4984 36.0484 22.2789C36.2633 22.0593 36.4325 21.7993 36.5461 21.5138C36.6596 21.2284 36.7154 20.9232 36.7101 20.616V13.356C36.7101 12.7434 36.4667 12.1558 36.0335 11.7226C35.6003 11.2894 35.0128 11.046 34.4001 11.046H15.3101C14.6992 11.046 14.1131 11.288 13.6802 11.7191C13.2473 12.1501 13.0027 12.7351 13.0001 13.346V20.616C12.9948 20.9215 13.0499 21.2251 13.1623 21.5092C13.2746 21.7934 13.442 22.0525 13.6548 22.2718C13.8675 22.4911 14.1215 22.6662 14.4022 22.787C14.6828 22.9079 14.9846 22.9721 15.2901 22.976ZM33.9401 20.156H15.7501V13.816H33.9401V20.156Z" fill="black"/>
</svg>
