<svg width="48" height="48" viewBox="0 0 48 48" fill="none" xmlns="http://www.w3.org/2000/svg">
<path d="M37.5 6H10.5C9.30734 6.00264 8.16428 6.4776 7.32094 7.32094C6.4776 8.16428 6.00264 9.30734 6 10.5V37.5C6.00264 38.6927 6.4776 39.8357 7.32094 40.6791C8.16428 41.5224 9.30734 41.9974 10.5 42H37.5C38.6927 41.9974 39.8357 41.5224 40.6791 40.6791C41.5224 39.8357 41.9974 38.6927 42 37.5V10.5C41.9974 9.30734 41.5224 8.16428 40.6791 7.32094C39.8357 6.4776 38.6927 6.00264 37.5 6V6ZM23.1 34.8C23.1 35.2774 22.9104 35.7352 22.5728 36.0728C22.2352 36.4104 21.7774 36.6 21.3 36.6C20.8226 36.6 20.3648 36.4104 20.0272 36.0728C19.6896 35.7352 19.5 35.2774 19.5 34.8V28.89C19.5 28.4126 19.6896 27.9548 20.0272 27.6172C20.3648 27.2796 20.8226 27.09 21.3 27.09C21.7774 27.09 22.2352 27.2796 22.5728 27.6172C22.9104 27.9548 23.1 28.4126 23.1 28.89V34.8ZM28.5 34.8C28.5 35.2774 28.3104 35.7352 27.9728 36.0728C27.6352 36.4104 27.1774 36.6 26.7 36.6C26.2226 36.6 25.7648 36.4104 25.4272 36.0728C25.0896 35.7352 24.9 35.2774 24.9 34.8V30.91C24.9 30.4326 25.0896 29.9748 25.4272 29.6372C25.7648 29.2996 26.2226 29.11 26.7 29.11C27.1774 29.11 27.6352 29.2996 27.9728 29.6372C28.3104 29.9748 28.5 30.4326 28.5 30.91V34.8Z" fill="black"/>
</svg>
