<svg width="48" height="48" viewBox="0 0 48 48" fill="none" xmlns="http://www.w3.org/2000/svg">
<path d="M7.38001 40.9161C7.19794 40.9161 7.01767 40.8801 6.84958 40.8101C6.6815 40.7401 6.52892 40.6376 6.40065 40.5084C6.27237 40.3791 6.17093 40.2258 6.10217 40.0572C6.03341 39.8887 5.99869 39.7081 6.00001 39.5261V8.35607C6.02952 8.00906 6.18822 7.68578 6.44469 7.45018C6.70117 7.21459 7.03675 7.08386 7.38501 7.08386C7.73327 7.08386 8.06884 7.21459 8.32532 7.45018C8.5818 7.68578 8.74049 8.00906 8.77001 8.35607V39.5261C8.77001 39.7086 8.73405 39.8894 8.6642 40.058C8.59434 40.2266 8.49196 40.3799 8.36288 40.5089C8.23381 40.638 8.08058 40.7404 7.91194 40.8103C7.74329 40.8801 7.56254 40.9161 7.38001 40.9161Z" fill="black"/>
<path fill-rule="evenodd" clip-rule="evenodd" d="M39.69 36.846H13.6C12.9874 36.846 12.3998 36.6026 11.9666 36.1694C11.5334 35.7362 11.29 35.1486 11.29 34.536V27.276C11.2927 26.6651 11.5372 26.0801 11.9701 25.649C12.403 25.218 12.9891 24.976 13.6 24.976H39.69C39.9929 24.9747 40.293 25.0332 40.5732 25.1482C40.8535 25.2632 41.1082 25.4324 41.3228 25.6461C41.5375 25.8598 41.7078 26.1138 41.824 26.3935C41.9402 26.6732 42 26.9731 42 27.276V34.536C42.0013 34.8397 41.9425 35.1407 41.8269 35.4215C41.7112 35.7024 41.5411 35.9576 41.3264 36.1723C41.1116 36.3871 40.8564 36.5572 40.5756 36.6728C40.2947 36.7885 39.9937 36.8473 39.69 36.846ZM14.06 34.076H39.23V27.736H14.06V34.076Z" fill="black"/>
<path fill-rule="evenodd" clip-rule="evenodd" d="M13.6 22.976H32.71C33.0155 22.9721 33.3173 22.9079 33.5979 22.787C33.8786 22.6662 34.1326 22.4911 34.3454 22.2718C34.5581 22.0525 34.7255 21.7934 34.8378 21.5092C34.9502 21.2251 35.0053 20.9215 35 20.616V13.346C34.9974 12.7386 34.7556 12.1566 34.327 11.7261C33.8984 11.2956 33.3175 11.0513 32.71 11.046H13.6C12.9874 11.046 12.3998 11.2894 11.9666 11.7226C11.5334 12.1558 11.29 12.7434 11.29 13.356V20.666C11.2926 21.2779 11.5369 21.8639 11.9695 22.2965C12.4021 22.7292 12.9882 22.9734 13.6 22.976ZM32.25 20.156H14.06V13.816H32.25V20.156Z" fill="black"/>
</svg>
