<svg width="48" height="48" viewBox="0 0 48 48" fill="none" xmlns="http://www.w3.org/2000/svg">
<path d="M37.5 6H10.5C9.30734 6.00264 8.16428 6.4776 7.32094 7.32094C6.4776 8.16428 6.00264 9.30734 6 10.5V37.5C6.00264 38.6927 6.4776 39.8357 7.32094 40.6791C8.16428 41.5224 9.30734 41.9974 10.5 42H37.5C38.6927 41.9974 39.8357 41.5224 40.6791 40.6791C41.5224 39.8357 41.9974 38.6927 42 37.5V10.5C41.9974 9.30734 41.5224 8.16428 40.6791 7.32094C39.8357 6.4776 38.6927 6.00264 37.5 6V6ZM31.2 34.8C31.2 35.2774 31.0104 35.7352 30.6728 36.0728C30.3352 36.4104 29.8774 36.6 29.4 36.6C28.9226 36.6 28.4648 36.4104 28.1272 36.0728C27.7896 35.7352 27.6 35.2774 27.6 34.8V28.89C27.6 28.4126 27.7896 27.9548 28.1272 27.6172C28.4648 27.2796 28.9226 27.09 29.4 27.09C29.8774 27.09 30.3352 27.2796 30.6728 27.6172C31.0104 27.9548 31.2 28.4126 31.2 28.89V34.8ZM36.6 34.8C36.6 35.2774 36.4104 35.7352 36.0728 36.0728C35.7352 36.4104 35.2774 36.6 34.8 36.6C34.3226 36.6 33.8648 36.4104 33.5272 36.0728C33.1896 35.7352 33 35.2774 33 34.8V30.91C33 30.4326 33.1896 29.9748 33.5272 29.6372C33.8648 29.2996 34.3226 29.11 34.8 29.11C35.2774 29.11 35.7352 29.2996 36.0728 29.6372C36.4104 29.9748 36.6 30.4326 36.6 30.91V34.8Z" fill="black"/>
</svg>
