<svg width="48" height="48" viewBox="0 0 48 48" fill="none" xmlns="http://www.w3.org/2000/svg">
<path d="M12.9199 28.42C12.7353 28.4201 12.5525 28.3831 12.3824 28.3112C12.2123 28.2394 12.0584 28.1342 11.9297 28.0018C11.801 27.8693 11.7002 27.7125 11.6333 27.5404C11.5663 27.3683 11.5346 27.1845 11.5399 27V21C11.5236 20.8082 11.5473 20.6151 11.6095 20.433C11.6717 20.2509 11.771 20.0836 11.9012 19.9419C12.0314 19.8001 12.1897 19.687 12.3659 19.6096C12.5421 19.5322 12.7324 19.4922 12.9249 19.4922C13.1174 19.4922 13.3077 19.5322 13.484 19.6096C13.6602 19.687 13.8184 19.8001 13.9486 19.9419C14.0788 20.0836 14.1781 20.2509 14.2403 20.433C14.3025 20.6151 14.3262 20.8082 14.3099 21V27C14.3139 27.185 14.2809 27.369 14.2128 27.5411C14.1448 27.7132 14.043 27.87 13.9136 28.0023C13.7841 28.1346 13.6295 28.2397 13.4589 28.3114C13.2882 28.3831 13.105 28.42 12.9199 28.42Z" fill="black"/>
<path d="M17.4841 26.9758C17.7429 27.2346 18.094 27.38 18.46 27.38C18.8269 27.38 19.1789 27.2349 19.4393 26.9764C19.6997 26.7179 19.8473 26.3669 19.85 26V22C19.8663 21.8082 19.8426 21.6151 19.7804 21.433C19.7182 21.2509 19.6188 21.0836 19.4886 20.9419C19.3584 20.8001 19.2002 20.687 19.024 20.6096C18.8478 20.5322 18.6574 20.4922 18.465 20.4922C18.2725 20.4922 18.0821 20.5322 17.9059 20.6096C17.7297 20.687 17.5715 20.8001 17.4413 20.9419C17.3111 21.0836 17.2117 21.2509 17.1495 21.433C17.0873 21.6151 17.0636 21.8082 17.08 22V26C17.08 26.366 17.2253 26.717 17.4841 26.9758Z" fill="black"/>
<path fill-rule="evenodd" clip-rule="evenodd" d="M37.85 42H10.15C9.04935 42 7.99378 41.5628 7.21551 40.7845C6.43723 40.0062 6 38.9506 6 37.85V10.15C6 9.04935 6.43723 7.99378 7.21551 7.21551C7.99378 6.43723 9.04935 6 10.15 6H37.85C38.9506 6 40.0062 6.43723 40.7845 7.21551C41.5628 7.99378 42 9.04935 42 10.15V37.85C42 38.9506 41.5628 40.0062 40.7845 40.7845C40.0062 41.5628 38.9506 42 37.85 42ZM10.15 8.77C9.96878 8.77 9.78933 8.80569 9.6219 8.87505C9.45447 8.9444 9.30234 9.04605 9.17419 9.17419C9.04605 9.30234 8.9444 9.45447 8.87505 9.6219C8.80569 9.78933 8.77 9.96878 8.77 10.15V37.85C8.77 38.216 8.91539 38.567 9.17419 38.8258C9.30234 38.9539 9.45447 39.0556 9.6219 39.125C9.78933 39.1943 9.96878 39.23 10.15 39.23H37.85C38.216 39.23 38.567 39.0846 38.8258 38.8258C39.0846 38.567 39.23 38.216 39.23 37.85V10.15C39.23 9.96878 39.1943 9.78933 39.125 9.6219C39.0556 9.45447 38.9539 9.30234 38.8258 9.17419C38.6977 9.04605 38.5455 8.9444 38.3781 8.87505C38.2107 8.80569 38.0312 8.77 37.85 8.77H10.15Z" fill="black"/>
</svg>
