<svg width="48" height="48" viewBox="0 0 48 48" fill="none" xmlns="http://www.w3.org/2000/svg">
<path d="M12.92 20.3699C12.5558 20.3699 12.2063 20.2259 11.9478 19.9693C11.6892 19.7126 11.5427 19.3642 11.54 18.9999V12.9199C11.5696 12.5729 11.7282 12.2496 11.9847 12.014C12.2412 11.7784 12.5768 11.6477 12.925 11.6477C13.2733 11.6477 13.6089 11.7784 13.8653 12.014C14.1218 12.2496 14.2805 12.5729 14.31 12.9199V18.9999C14.3087 19.1811 14.2717 19.3603 14.2012 19.5273C14.1306 19.6942 14.0279 19.8456 13.8988 19.9728C13.7697 20.1 13.6168 20.2006 13.4489 20.2687C13.281 20.3368 13.1013 20.3712 12.92 20.3699Z" fill="black"/>
<path d="M17.4843 17.8857C17.7431 18.1445 18.0941 18.2899 18.4601 18.2899C18.6421 18.2912 18.8227 18.2565 18.9913 18.1877C19.1598 18.119 19.3132 18.0175 19.4424 17.8893C19.5716 17.761 19.6741 17.6084 19.7441 17.4403C19.8141 17.2722 19.8501 17.092 19.8501 16.9099V12.9099C19.8206 12.5629 19.6619 12.2396 19.4054 12.004C19.1489 11.7684 18.8133 11.6377 18.4651 11.6377C18.1168 11.6377 17.7812 11.7684 17.5248 12.004C17.2683 12.2396 17.1096 12.5629 17.0801 12.9099V16.9099C17.0801 17.2759 17.2255 17.6269 17.4843 17.8857Z" fill="black"/>
<path fill-rule="evenodd" clip-rule="evenodd" d="M37.85 42H10.15C9.04935 42 7.99378 41.5628 7.21551 40.7845C6.43723 40.0062 6 38.9506 6 37.85V10.15C6 9.04935 6.43723 7.99378 7.21551 7.21551C7.99378 6.43723 9.04935 6 10.15 6H37.85C38.9506 6 40.0062 6.43723 40.7845 7.21551C41.5628 7.99378 42 9.04935 42 10.15V37.85C42 38.9506 41.5628 40.0062 40.7845 40.7845C40.0062 41.5628 38.9506 42 37.85 42ZM10.15 8.77C9.96878 8.77 9.78933 8.80569 9.6219 8.87505C9.45447 8.9444 9.30234 9.04605 9.17419 9.17419C9.04605 9.30234 8.9444 9.45447 8.87505 9.6219C8.80569 9.78933 8.77 9.96878 8.77 10.15V37.85C8.77 38.216 8.91539 38.567 9.17419 38.8258C9.30234 38.9539 9.45447 39.0556 9.6219 39.125C9.78933 39.1943 9.96878 39.23 10.15 39.23H37.85C38.216 39.23 38.567 39.0846 38.8258 38.8258C39.0846 38.567 39.23 38.216 39.23 37.85V10.15C39.23 9.96878 39.1943 9.78933 39.125 9.6219C39.0556 9.45447 38.9539 9.30234 38.8258 9.17419C38.6977 9.04605 38.5455 8.9444 38.3781 8.87505C38.2107 8.80569 38.0312 8.77 37.85 8.77H10.15Z" fill="black"/>
</svg>
