<svg width="48" height="48" viewBox="0 0 48 48" fill="none" xmlns="http://www.w3.org/2000/svg">
<path d="M29.54 28.42C29.3549 28.42 29.1717 28.3831 29.0011 28.3114C28.8304 28.2397 28.6759 28.1346 28.5464 28.0023C28.4169 27.87 28.3152 27.7132 28.2471 27.5411C28.179 27.369 28.146 27.185 28.15 27V21C28.1337 20.8082 28.1574 20.6151 28.2196 20.433C28.2818 20.2509 28.3811 20.0836 28.5113 19.9419C28.6415 19.8001 28.7998 19.687 28.976 19.6096C29.1522 19.5322 29.3426 19.4922 29.535 19.4922C29.7275 19.4922 29.9179 19.5322 30.0941 19.6096C30.2703 19.687 30.4285 19.8001 30.5587 19.9419C30.6889 20.0836 30.7882 20.2509 30.8504 20.433C30.9126 20.6151 30.9363 20.8082 30.92 21V27C30.9254 27.1845 30.8936 27.3683 30.8267 27.5404C30.7597 27.7125 30.6589 27.8693 30.5302 28.0018C30.4016 28.1342 30.2476 28.2394 30.0775 28.3112C29.9074 28.3831 29.7247 28.4201 29.54 28.42Z" fill="black"/>
<path d="M34.1007 26.9764C34.3611 27.2349 34.7131 27.38 35.0801 27.38C35.4461 27.38 35.7971 27.2346 36.0559 26.9758C36.3147 26.717 36.4601 26.366 36.4601 26V22C36.4764 21.8082 36.4527 21.6151 36.3905 21.433C36.3283 21.2509 36.2289 21.0836 36.0987 20.9419C35.9685 20.8001 35.8103 20.687 35.6341 20.6096C35.4579 20.5322 35.2675 20.4922 35.0751 20.4922C34.8826 20.4922 34.6922 20.5322 34.516 20.6096C34.3398 20.687 34.1816 20.8001 34.0514 20.9419C33.9212 21.0836 33.8218 21.2509 33.7596 21.433C33.6974 21.6151 33.6737 21.8082 33.6901 22V26C33.6927 26.3669 33.8403 26.7179 34.1007 26.9764Z" fill="black"/>
<path fill-rule="evenodd" clip-rule="evenodd" d="M37.85 42H10.15C9.04935 42 7.99378 41.5628 7.21551 40.7845C6.43723 40.0062 6 38.9506 6 37.85V10.15C6 9.04935 6.43723 7.99378 7.21551 7.21551C7.99378 6.43723 9.04935 6 10.15 6H37.85C38.9506 6 40.0062 6.43723 40.7845 7.21551C41.5628 7.99378 42 9.04935 42 10.15V37.85C42 38.9506 41.5628 40.0062 40.7845 40.7845C40.0062 41.5628 38.9506 42 37.85 42ZM10.15 8.77C9.96878 8.77 9.78933 8.80569 9.6219 8.87505C9.45447 8.9444 9.30234 9.04605 9.17419 9.17419C9.04605 9.30234 8.9444 9.45447 8.87505 9.6219C8.80569 9.78933 8.77 9.96878 8.77 10.15V37.85C8.77 38.216 8.91539 38.567 9.17419 38.8258C9.30234 38.9539 9.45447 39.0556 9.6219 39.125C9.78933 39.1943 9.96878 39.23 10.15 39.23H37.85C38.216 39.23 38.567 39.0846 38.8258 38.8258C39.0846 38.567 39.23 38.216 39.23 37.85V10.15C39.23 9.96878 39.1943 9.78933 39.125 9.6219C39.0556 9.45447 38.9539 9.30234 38.8258 9.17419C38.6977 9.04605 38.5455 8.9444 38.3781 8.87505C38.2107 8.80569 38.0312 8.77 37.85 8.77H10.15Z" fill="black"/>
</svg>
