<svg width="48" height="48" viewBox="0 0 48 48" fill="none" xmlns="http://www.w3.org/2000/svg">
<path d="M37.0695 10.7691H26.6119V8.44967C26.5706 7.78632 26.278 7.16366 25.7937 6.70852C25.3093 6.25338 24.6697 6 24.0051 6C23.3404 6 22.7008 6.25338 22.2164 6.70852C21.7321 7.16366 21.4395 7.78632 21.3982 8.44967V10.7691H10.9305C10.2395 10.7718 9.57776 11.0481 9.09011 11.5377C8.60246 12.0272 8.32867 12.69 8.32867 13.381V20.7326C8.33133 21.4218 8.6063 22.0821 9.09366 22.5694C9.58102 23.0568 10.2413 23.3318 10.9305 23.3344H21.4385V24.6656H14.3794C13.6884 24.6656 13.0256 24.9394 12.5361 25.427C12.0465 25.9147 11.7702 26.5764 11.7675 27.2674V34.619C11.7675 35.3117 12.0427 35.9761 12.5325 36.4659C13.0223 36.9557 13.6867 37.2309 14.3794 37.2309H21.4385V39.5503C21.4798 40.2137 21.7724 40.8363 22.2568 41.2915C22.7411 41.7466 23.3808 42 24.0454 42C24.71 42 25.3497 41.7466 25.834 41.2915C26.3183 40.8363 26.611 40.2137 26.6522 39.5503V37.2309H33.6307C34.3217 37.2282 34.9835 36.9519 35.4711 36.4623C35.9587 35.9728 36.2325 35.31 36.2325 34.619V27.2674C36.2299 26.5782 35.9549 25.9179 35.4675 25.4306C34.9802 24.9432 34.32 24.6682 33.6307 24.6656H26.6119V23.3344H37.0695C37.7588 23.3318 38.419 23.0568 38.9064 22.5694C39.3937 22.0821 39.6687 21.4218 39.6714 20.7326V13.381C39.6714 12.69 39.3976 12.0272 38.9099 11.5377C38.4223 11.0481 37.7605 10.7718 37.0695 10.7691Z" fill="black"/>
</svg>
