<svg width="48" height="48" viewBox="0 0 48 48" fill="none" xmlns="http://www.w3.org/2000/svg">
<path d="M40.6827 22.6047H37.6714V13.6811C37.6714 13.0679 37.4285 12.4796 36.9958 12.0451C36.5631 11.6105 35.9759 11.3651 35.3627 11.3624H27.5031C26.8881 11.3624 26.2984 11.6067 25.8635 12.0415C25.4287 12.4764 25.1844 13.0662 25.1844 13.6811V22.5746H22.8154V9.97718C22.8154 9.36221 22.5712 8.77244 22.1363 8.33759C21.7015 7.90274 21.1117 7.65845 20.4967 7.65845H12.597C11.9837 7.6611 11.3965 7.90657 10.9639 8.34113C10.5312 8.77569 10.2883 9.36395 10.2883 9.97718V22.6047H7.27693C6.92861 22.6344 6.6041 22.7937 6.36762 23.0511C6.13113 23.3086 5.99991 23.6454 5.99991 23.995C5.99991 24.3445 6.13113 24.6814 6.36762 24.9388C6.6041 25.1963 6.92861 25.3556 7.27693 25.3852H10.2883V38.0228C10.2883 38.636 10.5312 39.2243 10.9639 39.6589C11.3965 40.0934 11.9837 40.3389 12.597 40.3415H20.4967C21.1117 40.3415 21.7015 40.0972 22.1363 39.6624C22.5712 39.2275 22.8154 38.6378 22.8154 38.0228V25.3852H25.1844V34.2887C25.1844 34.5928 25.2444 34.8938 25.3611 35.1746C25.4777 35.4553 25.6487 35.7103 25.8641 35.9248C26.0796 36.1393 26.3353 36.3092 26.6165 36.4246C26.8978 36.54 27.1991 36.5988 27.5031 36.5974H35.4029C36.0152 36.5974 36.6024 36.3542 37.0353 35.9212C37.4683 35.4883 37.7115 34.901 37.7115 34.2887V25.3852H40.7229C41.0712 25.3556 41.3957 25.1963 41.6322 24.9388C41.8687 24.6814 41.9999 24.3445 41.9999 23.995C41.9999 23.6454 41.8687 23.3086 41.6322 23.0511C41.3957 22.7937 41.0712 22.6344 40.7229 22.6047H40.6827ZM20.035 37.5611H13.0687V10.459H20.035V37.5611ZM34.9311 33.827H28.015V14.173H34.9813L34.9311 33.827Z" fill="black"/>
</svg>
