<svg width="48" height="48" viewBox="0 0 48 48" fill="none" xmlns="http://www.w3.org/2000/svg">
<path d="M37.5 6H10.5C9.30734 6.00264 8.16428 6.4776 7.32094 7.32094C6.4776 8.16428 6.00264 9.30734 6 10.5V37.5C6.00264 38.6927 6.4776 39.8357 7.32094 40.6791C8.16428 41.5224 9.30734 41.9974 10.5 42H37.5C38.6927 41.9974 39.8357 41.5224 40.6791 40.6791C41.5224 39.8357 41.9974 38.6927 42 37.5V10.5C41.9974 9.30734 41.5224 8.16428 40.6791 7.32094C39.8357 6.4776 38.6927 6.00264 37.5 6V6ZM31.2 19.11C31.2 19.5874 31.0104 20.0452 30.6728 20.3828C30.3352 20.7204 29.8774 20.91 29.4 20.91C28.9226 20.91 28.4648 20.7204 28.1272 20.3828C27.7896 20.0452 27.6 19.5874 27.6 19.11V13.2C27.6 12.7226 27.7896 12.2648 28.1272 11.9272C28.4648 11.5896 28.9226 11.4 29.4 11.4C29.8774 11.4 30.3352 11.5896 30.6728 11.9272C31.0104 12.2648 31.2 12.7226 31.2 13.2V19.11ZM36.6 17.11C36.6 17.5874 36.4104 18.0452 36.0728 18.3828C35.7352 18.7204 35.2774 18.91 34.8 18.91C34.3226 18.91 33.8648 18.7204 33.5272 18.3828C33.1896 18.0452 33 17.5874 33 17.11V13.2C33 12.7226 33.1896 12.2648 33.5272 11.9272C33.8648 11.5896 34.3226 11.4 34.8 11.4C35.2774 11.4 35.7352 11.5896 36.0728 11.9272C36.4104 12.2648 36.6 12.7226 36.6 13.2V17.11Z" fill="black"/>
</svg>
