<svg width="48" height="48" viewBox="0 0 48 48" fill="none" xmlns="http://www.w3.org/2000/svg">
<path d="M37.5 6H10.5C9.30734 6.00264 8.16428 6.4776 7.32094 7.32094C6.4776 8.16428 6.00264 9.30734 6 10.5V37.5C6.00264 38.6927 6.4776 39.8357 7.32094 40.6791C8.16428 41.5224 9.30734 41.9974 10.5 42H37.5C38.6927 41.9974 39.8357 41.5224 40.6791 40.6791C41.5224 39.8357 41.9974 38.6927 42 37.5V10.5C41.9974 9.30734 41.5224 8.16428 40.6791 7.32094C39.8357 6.4776 38.6927 6.00264 37.5 6V6ZM15 34.8C15 35.0364 14.9534 35.2704 14.863 35.4888C14.7725 35.7072 14.6399 35.9056 14.4728 36.0728C14.3056 36.2399 14.1072 36.3725 13.8888 36.463C13.6704 36.5534 13.4364 36.6 13.2 36.6C12.9636 36.6 12.7296 36.5534 12.5112 36.463C12.2928 36.3725 12.0944 36.2399 11.9272 36.0728C11.7601 35.9056 11.6275 35.7072 11.537 35.4888C11.4466 35.2704 11.4 35.0364 11.4 34.8V28.89C11.4 28.4126 11.5896 27.9548 11.9272 27.6172C12.2648 27.2796 12.7226 27.09 13.2 27.09C13.6774 27.09 14.1352 27.2796 14.4728 27.6172C14.8104 27.9548 15 28.4126 15 28.89V34.8ZM20.4 34.8C20.4 35.2774 20.2104 35.7352 19.8728 36.0728C19.5352 36.4104 19.0774 36.6 18.6 36.6C18.1226 36.6 17.6648 36.4104 17.3272 36.0728C16.9896 35.7352 16.8 35.2774 16.8 34.8V30.91C16.8 30.6736 16.8466 30.4396 16.937 30.2212C17.0275 30.0028 17.1601 29.8044 17.3272 29.6372C17.4944 29.4701 17.6928 29.3375 17.9112 29.247C18.1296 29.1566 18.3636 29.11 18.6 29.11C18.8364 29.11 19.0704 29.1566 19.2888 29.247C19.5072 29.3375 19.7056 29.4701 19.8728 29.6372C20.0399 29.8044 20.1725 30.0028 20.263 30.2212C20.3534 30.4396 20.4 30.6736 20.4 30.91V34.8Z" fill="black"/>
</svg>
