<svg width="48" height="48" viewBox="0 0 48 48" fill="none" xmlns="http://www.w3.org/2000/svg">
<path d="M39.42 21.46H37.12V14.46C37.12 13.7731 36.8471 13.1143 36.3614 12.6286C35.8757 12.1428 35.2169 11.87 34.53 11.87H27.24C26.5548 11.8726 25.8986 12.1466 25.4151 12.6321C24.9315 13.1175 24.66 13.7748 24.66 14.46V21.46H23.34V11.04C23.3374 10.3565 23.0647 9.70181 22.5814 9.21854C22.0982 8.73526 21.4434 8.46259 20.76 8.45996H13.47C12.7848 8.45996 12.1276 8.73146 11.6421 9.21502C11.1567 9.69857 10.8826 10.3548 10.88 11.04V21.46H8.58C7.89574 21.46 7.23951 21.7318 6.75566 22.2156C6.27182 22.6995 6 23.3557 6 24.04C6 24.7242 6.27182 25.3805 6.75566 25.8643C7.23951 26.3481 7.89574 26.62 8.58 26.62H10.88V36.96C10.8826 37.6451 11.1567 38.3013 11.6421 38.7849C12.1276 39.2685 12.7848 39.54 13.47 39.54H20.76C21.4434 39.5373 22.0982 39.2647 22.5814 38.7814C23.0647 38.2981 23.3374 37.6434 23.34 36.96V26.58H24.66V33.51C24.6626 34.1934 24.9353 34.8481 25.4186 35.3314C25.9018 35.8147 26.5566 36.0873 27.24 36.09H34.53C35.2152 36.09 35.8724 35.8185 36.3579 35.3349C36.8433 34.8513 37.1174 34.1951 37.12 33.51V26.58H39.42C40.1043 26.58 40.7605 26.3081 41.2443 25.8243C41.7282 25.3405 42 24.6842 42 24C42 23.3157 41.7282 22.6595 41.2443 22.1756C40.7605 21.6918 40.1043 21.42 39.42 21.42V21.46Z" fill="black"/>
</svg>
