<svg width="48" height="48" viewBox="0 0 48 48" fill="none" xmlns="http://www.w3.org/2000/svg">
<path d="M21.2301 20.3699C20.8658 20.3699 20.5163 20.2259 20.2578 19.9693C19.9993 19.7126 19.8527 19.3642 19.8501 18.9999V12.9199C19.8796 12.5729 20.0383 12.2496 20.2948 12.014C20.5513 11.7784 20.8868 11.6477 21.2351 11.6477C21.5834 11.6477 21.9189 11.7784 22.1754 12.014C22.4319 12.2496 22.5906 12.5729 22.6201 12.9199V18.9999C22.6188 19.1811 22.5818 19.3603 22.5112 19.5273C22.4407 19.6942 22.3379 19.8456 22.2088 19.9728C22.0798 20.1 21.9269 20.2006 21.759 20.2687C21.591 20.3368 21.4113 20.3712 21.2301 20.3699Z" fill="black"/>
<path d="M26.2387 18.1877C26.4073 18.2565 26.5878 18.2912 26.7699 18.2899C27.1359 18.2899 27.4869 18.1445 27.7457 17.8857C28.0045 17.6269 28.1499 17.2759 28.1499 16.9099V12.9099C28.1204 12.5629 27.9617 12.2396 27.7052 12.004C27.4487 11.7684 27.1131 11.6377 26.7649 11.6377C26.4166 11.6377 26.0811 11.7684 25.8246 12.004C25.5681 12.2396 25.4094 12.5629 25.3799 12.9099V16.9099C25.3799 17.092 25.4159 17.2722 25.4859 17.4403C25.5559 17.6084 25.6584 17.761 25.7876 17.8893C25.9168 18.0175 26.0701 18.119 26.2387 18.1877Z" fill="black"/>
<path fill-rule="evenodd" clip-rule="evenodd" d="M37.85 42H10.15C9.04935 42 7.99378 41.5628 7.21551 40.7845C6.43723 40.0062 6 38.9506 6 37.85V10.15C6 9.04935 6.43723 7.99378 7.21551 7.21551C7.99378 6.43723 9.04935 6 10.15 6H37.85C38.9506 6 40.0062 6.43723 40.7845 7.21551C41.5628 7.99378 42 9.04935 42 10.15V37.85C42 38.9506 41.5628 40.0062 40.7845 40.7845C40.0062 41.5628 38.9506 42 37.85 42ZM10.15 8.77C9.96878 8.77 9.78933 8.80569 9.6219 8.87505C9.45447 8.9444 9.30234 9.04605 9.17419 9.17419C9.04605 9.30234 8.9444 9.45447 8.87505 9.6219C8.80569 9.78933 8.77 9.96878 8.77 10.15V37.85C8.77 38.216 8.91539 38.567 9.17419 38.8258C9.30234 38.9539 9.45447 39.0556 9.6219 39.125C9.78933 39.1943 9.96878 39.23 10.15 39.23H37.85C38.216 39.23 38.567 39.0846 38.8258 38.8258C39.0846 38.567 39.23 38.216 39.23 37.85V10.15C39.23 9.96878 39.1943 9.78933 39.125 9.6219C39.0556 9.45447 38.9539 9.30234 38.8258 9.17419C38.6977 9.04605 38.5455 8.9444 38.3781 8.87505C38.2107 8.80569 38.0312 8.77 37.85 8.77H10.15Z" fill="black"/>
</svg>
