<svg width="48" height="48" viewBox="0 0 48 48" fill="none" xmlns="http://www.w3.org/2000/svg">
<path d="M29.5399 20.3699C29.3587 20.3712 29.179 20.3368 29.011 20.2687C28.8431 20.2006 28.6902 20.1 28.5612 19.9728C28.4321 19.8456 28.3293 19.6942 28.2588 19.5273C28.1882 19.3603 28.1512 19.1811 28.1499 18.9999V12.9199C28.1794 12.5729 28.3381 12.2496 28.5946 12.014C28.8511 11.7784 29.1866 11.6477 29.5349 11.6477C29.8832 11.6477 30.2187 11.7784 30.4752 12.014C30.7317 12.2496 30.8904 12.5729 30.9199 12.9199V18.9999C30.9173 19.3642 30.7707 19.7126 30.5122 19.9693C30.2537 20.2259 29.9042 20.3699 29.5399 20.3699Z" fill="black"/>
<path d="M34.5488 18.1877C34.7174 18.2565 34.8979 18.2912 35.0799 18.2899C35.4459 18.2899 35.7969 18.1445 36.0557 17.8857C36.3145 17.6269 36.4599 17.2759 36.4599 16.9099V12.9099C36.4304 12.5629 36.2717 12.2396 36.0153 12.004C35.7588 11.7684 35.4232 11.6377 35.0749 11.6377C34.7267 11.6377 34.3911 11.7684 34.1346 12.004C33.8782 12.2396 33.7195 12.5629 33.6899 12.9099V16.9099C33.6899 17.092 33.726 17.2722 33.7959 17.4403C33.8659 17.6084 33.9685 17.761 34.0977 17.8893C34.2269 18.0175 34.3802 18.119 34.5488 18.1877Z" fill="black"/>
<path fill-rule="evenodd" clip-rule="evenodd" d="M37.85 42H10.15C9.04935 42 7.99378 41.5628 7.21551 40.7845C6.43723 40.0062 6 38.9506 6 37.85V10.15C6 9.04935 6.43723 7.99378 7.21551 7.21551C7.99378 6.43723 9.04935 6 10.15 6H37.85C38.9506 6 40.0062 6.43723 40.7845 7.21551C41.5628 7.99378 42 9.04935 42 10.15V37.85C42 38.9506 41.5628 40.0062 40.7845 40.7845C40.0062 41.5628 38.9506 42 37.85 42ZM10.15 8.77C9.96878 8.77 9.78933 8.80569 9.6219 8.87505C9.45447 8.9444 9.30234 9.04605 9.17419 9.17419C9.04605 9.30234 8.9444 9.45447 8.87505 9.6219C8.80569 9.78933 8.77 9.96878 8.77 10.15V37.85C8.77 38.216 8.91539 38.567 9.17419 38.8258C9.30234 38.9539 9.45447 39.0556 9.6219 39.125C9.78933 39.1943 9.96878 39.23 10.15 39.23H37.85C38.216 39.23 38.567 39.0846 38.8258 38.8258C39.0846 38.567 39.23 38.216 39.23 37.85V10.15C39.23 9.96878 39.1943 9.78933 39.125 9.6219C39.0556 9.45447 38.9539 9.30234 38.8258 9.17419C38.6977 9.04605 38.5455 8.9444 38.3781 8.87505C38.2107 8.80569 38.0312 8.77 37.85 8.77H10.15Z" fill="black"/>
</svg>
