<svg width="48" height="48" viewBox="0 0 48 48" fill="none" xmlns="http://www.w3.org/2000/svg">
<path d="M29.5399 36.46C29.3578 36.4613 29.1773 36.4266 29.0087 36.3578C28.8401 36.2891 28.6868 36.1876 28.5576 36.0593C28.4284 35.9311 28.3259 35.7785 28.2559 35.6104C28.1859 35.4423 28.1499 35.2621 28.1499 35.08V29C28.1794 28.653 28.3381 28.3297 28.5946 28.0941C28.8511 27.8585 29.1866 27.7278 29.5349 27.7278C29.8832 27.7278 30.2187 27.8585 30.4752 28.0941C30.7317 28.3297 30.8904 28.653 30.9199 29V35.07C30.9212 35.2521 30.8865 35.4326 30.8177 35.6012C30.749 35.7698 30.6475 35.9231 30.5193 36.0523C30.391 36.1815 30.2384 36.284 30.0703 36.354C29.9022 36.424 29.722 36.46 29.5399 36.46Z" fill="black"/>
<path d="M34.5488 36.3579C34.7174 36.4267 34.8979 36.4614 35.0799 36.4601C35.4459 36.4601 35.7969 36.3147 36.0557 36.0559C36.3145 35.7971 36.4599 35.4461 36.4599 35.0801V31.0801C36.4304 30.7331 36.2717 30.4098 36.0153 30.1742C35.7588 29.9386 35.4232 29.8079 35.0749 29.8079C34.7267 29.8079 34.3911 29.9386 34.1346 30.1742C33.8782 30.4098 33.7195 30.7331 33.6899 31.0801V35.0801C33.6899 35.2621 33.726 35.4424 33.7959 35.6105C33.8659 35.7786 33.9685 35.9312 34.0977 36.0594C34.2269 36.1877 34.3802 36.2891 34.5488 36.3579Z" fill="black"/>
<path fill-rule="evenodd" clip-rule="evenodd" d="M37.85 42H10.15C9.04935 42 7.99378 41.5628 7.21551 40.7845C6.43723 40.0062 6 38.9506 6 37.85V10.15C6 9.04935 6.43723 7.99378 7.21551 7.21551C7.99378 6.43723 9.04935 6 10.15 6H37.85C38.9506 6 40.0062 6.43723 40.7845 7.21551C41.5628 7.99378 42 9.04935 42 10.15V37.85C42 38.9506 41.5628 40.0062 40.7845 40.7845C40.0062 41.5628 38.9506 42 37.85 42ZM10.15 8.77C9.96878 8.77 9.78933 8.80569 9.6219 8.87505C9.45447 8.9444 9.30234 9.04605 9.17419 9.17419C9.04605 9.30234 8.9444 9.45447 8.87505 9.6219C8.80569 9.78933 8.77 9.96878 8.77 10.15V37.85C8.77 38.216 8.91539 38.567 9.17419 38.8258C9.30234 38.9539 9.45447 39.0556 9.6219 39.125C9.78933 39.1943 9.96878 39.23 10.15 39.23H37.85C38.216 39.23 38.567 39.0846 38.8258 38.8258C39.0846 38.567 39.23 38.216 39.23 37.85V10.15C39.23 9.96878 39.1943 9.78933 39.125 9.6219C39.0556 9.45447 38.9539 9.30234 38.8258 9.17419C38.6977 9.04605 38.5455 8.9444 38.3781 8.87505C38.2107 8.80569 38.0312 8.77 37.85 8.77H10.15Z" fill="black"/>
</svg>
