<svg width="48" height="48" viewBox="0 0 48 48" fill="none" xmlns="http://www.w3.org/2000/svg">
<path d="M37.5 6H10.5C9.30734 6.00264 8.16428 6.4776 7.32094 7.32094C6.4776 8.16428 6.00264 9.30734 6 10.5V37.5C6.00264 38.6927 6.4776 39.8357 7.32094 40.6791C8.16428 41.5224 9.30734 41.9974 10.5 42H37.5C38.6927 41.9974 39.8357 41.5224 40.6791 40.6791C41.5224 39.8357 41.9974 38.6927 42 37.5V10.5C41.9974 9.30734 41.5224 8.16428 40.6791 7.32094C39.8357 6.4776 38.6927 6.00264 37.5 6V6ZM31.2 27C31.2 27.4774 31.0104 27.9352 30.6728 28.2728C30.3352 28.6104 29.8774 28.8 29.4 28.8C28.9226 28.8 28.4648 28.6104 28.1272 28.2728C27.7896 27.9352 27.6 27.4774 27.6 27V21C27.6 20.5226 27.7896 20.0648 28.1272 19.7272C28.4648 19.3896 28.9226 19.2 29.4 19.2C29.8774 19.2 30.3352 19.3896 30.6728 19.7272C31.0104 20.0648 31.2 20.5226 31.2 21V27ZM36.6 26C36.6 26.4774 36.4104 26.9352 36.0728 27.2728C35.7352 27.6104 35.2774 27.8 34.8 27.8C34.3226 27.8 33.8648 27.6104 33.5272 27.2728C33.1896 26.9352 33 26.4774 33 26V22.06C33 21.5826 33.1896 21.1248 33.5272 20.7872C33.8648 20.4496 34.3226 20.26 34.8 20.26C35.2774 20.26 35.7352 20.4496 36.0728 20.7872C36.4104 21.1248 36.6 21.5826 36.6 22.06V26Z" fill="black"/>
</svg>
