<svg width="48" height="48" viewBox="0 0 48 48" fill="none" xmlns="http://www.w3.org/2000/svg">
<path d="M37.5 6H10.5C9.30734 6.00264 8.16428 6.4776 7.32094 7.32094C6.4776 8.16428 6.00264 9.30734 6 10.5V37.5C6.00264 38.6927 6.4776 39.8357 7.32094 40.6791C8.16428 41.5224 9.30734 41.9974 10.5 42H37.5C38.6927 41.9974 39.8357 41.5224 40.6791 40.6791C41.5224 39.8357 41.9974 38.6927 42 37.5V10.5C41.9974 9.30734 41.5224 8.16428 40.6791 7.32094C39.8357 6.4776 38.6927 6.00264 37.5 6V6ZM23.1 19.11C23.1 19.5874 22.9104 20.0452 22.5728 20.3828C22.2352 20.7204 21.7774 20.91 21.3 20.91C20.8226 20.91 20.3648 20.7204 20.0272 20.3828C19.6896 20.0452 19.5 19.5874 19.5 19.11V13.2C19.5 12.7226 19.6896 12.2648 20.0272 11.9272C20.3648 11.5896 20.8226 11.4 21.3 11.4C21.7774 11.4 22.2352 11.5896 22.5728 11.9272C22.9104 12.2648 23.1 12.7226 23.1 13.2V19.11ZM28.5 17.11C28.5 17.5874 28.3104 18.0452 27.9728 18.3828C27.6352 18.7204 27.1774 18.91 26.7 18.91C26.2226 18.91 25.7648 18.7204 25.4272 18.3828C25.0896 18.0452 24.9 17.5874 24.9 17.11V13.2C24.9 12.7226 25.0896 12.2648 25.4272 11.9272C25.7648 11.5896 26.2226 11.4 26.7 11.4C27.1774 11.4 27.6352 11.5896 27.9728 11.9272C28.3104 12.2648 28.5 12.7226 28.5 13.2V17.11Z" fill="black"/>
</svg>
