<svg width="48" height="48" viewBox="0 0 48 48" fill="none" xmlns="http://www.w3.org/2000/svg">
<path d="M12.92 36.46C12.554 36.46 12.203 36.3146 11.9442 36.0558C11.6854 35.797 11.54 35.446 11.54 35.08V29C11.5696 28.653 11.7282 28.3297 11.9847 28.0941C12.2412 27.8585 12.5768 27.7278 12.925 27.7278C13.2733 27.7278 13.6089 27.8585 13.8653 28.0941C14.1218 28.3297 14.2805 28.653 14.31 29V35.07C14.3114 35.2529 14.2763 35.4342 14.2069 35.6035C14.1376 35.7727 14.0352 35.9265 13.9059 36.0558C13.7765 36.1852 13.6228 36.2875 13.4535 36.3569C13.2843 36.4263 13.1029 36.4613 12.92 36.46Z" fill="black"/>
<path d="M17.4843 36.0559C17.7431 36.3147 18.0941 36.4601 18.4601 36.4601C18.6421 36.4614 18.8227 36.4267 18.9913 36.3579C19.1598 36.2891 19.3132 36.1877 19.4424 36.0594C19.5716 35.9312 19.6741 35.7786 19.7441 35.6105C19.8141 35.4424 19.8501 35.2621 19.8501 35.0801V31.0801C19.8206 30.7331 19.6619 30.4098 19.4054 30.1742C19.1489 29.9386 18.8133 29.8079 18.4651 29.8079C18.1168 29.8079 17.7812 29.9386 17.5248 30.1742C17.2683 30.4098 17.1096 30.7331 17.0801 31.0801V35.0801C17.0801 35.4461 17.2255 35.7971 17.4843 36.0559Z" fill="black"/>
<path fill-rule="evenodd" clip-rule="evenodd" d="M37.85 42H10.15C9.04935 42 7.99378 41.5628 7.21551 40.7845C6.43723 40.0062 6 38.9506 6 37.85V10.15C6 9.04935 6.43723 7.99378 7.21551 7.21551C7.99378 6.43723 9.04935 6 10.15 6H37.85C38.9506 6 40.0062 6.43723 40.7845 7.21551C41.5628 7.99378 42 9.04935 42 10.15V37.85C42 38.9506 41.5628 40.0062 40.7845 40.7845C40.0062 41.5628 38.9506 42 37.85 42ZM10.15 8.77C9.96878 8.77 9.78933 8.80569 9.6219 8.87505C9.45447 8.9444 9.30234 9.04605 9.17419 9.17419C9.04605 9.30234 8.9444 9.45447 8.87505 9.6219C8.80569 9.78933 8.77 9.96878 8.77 10.15V37.85C8.77 38.216 8.91539 38.567 9.17419 38.8258C9.30234 38.9539 9.45447 39.0556 9.6219 39.125C9.78933 39.1943 9.96878 39.23 10.15 39.23H37.85C38.216 39.23 38.567 39.0846 38.8258 38.8258C39.0846 38.567 39.23 38.216 39.23 37.85V10.15C39.23 9.96878 39.1943 9.78933 39.125 9.6219C39.0556 9.45447 38.9539 9.30234 38.8258 9.17419C38.6977 9.04605 38.5455 8.9444 38.3781 8.87505C38.2107 8.80569 38.0312 8.77 37.85 8.77H10.15Z" fill="black"/>
</svg>
