<svg width="48" height="48" viewBox="0 0 48 48" fill="none" xmlns="http://www.w3.org/2000/svg">
<path d="M21.2301 36.46C20.8641 36.46 20.5131 36.3146 20.2543 36.0558C19.9955 35.797 19.8501 35.446 19.8501 35.08V29C19.8796 28.653 20.0383 28.3297 20.2948 28.0941C20.5513 27.8585 20.8868 27.7278 21.2351 27.7278C21.5834 27.7278 21.9189 27.8585 22.1754 28.0941C22.4319 28.3297 22.5906 28.653 22.6201 29V35.07C22.6214 35.2529 22.5864 35.4342 22.517 35.6035C22.4476 35.7727 22.3453 35.9265 22.2159 36.0558C22.0866 36.1852 21.9328 36.2875 21.7636 36.3569C21.5944 36.4263 21.413 36.4613 21.2301 36.46Z" fill="black"/>
<path d="M26.2387 36.3579C26.4073 36.4267 26.5878 36.4614 26.7699 36.4601C27.1359 36.4601 27.4869 36.3147 27.7457 36.0559C28.0045 35.7971 28.1499 35.4461 28.1499 35.0801V31.0801C28.1204 30.7331 27.9617 30.4098 27.7052 30.1742C27.4487 29.9386 27.1131 29.8079 26.7649 29.8079C26.4166 29.8079 26.0811 29.9386 25.8246 30.1742C25.5681 30.4098 25.4094 30.7331 25.3799 31.0801V35.0801C25.3799 35.2621 25.4159 35.4424 25.4859 35.6105C25.5559 35.7786 25.6584 35.9312 25.7876 36.0594C25.9168 36.1877 26.0701 36.2891 26.2387 36.3579Z" fill="black"/>
<path fill-rule="evenodd" clip-rule="evenodd" d="M37.85 42H10.15C9.04935 42 7.99378 41.5628 7.21551 40.7845C6.43723 40.0062 6 38.9506 6 37.85V10.15C6 9.04935 6.43723 7.99378 7.21551 7.21551C7.99378 6.43723 9.04935 6 10.15 6H37.85C38.9506 6 40.0062 6.43723 40.7845 7.21551C41.5628 7.99378 42 9.04935 42 10.15V37.85C42 38.9506 41.5628 40.0062 40.7845 40.7845C40.0062 41.5628 38.9506 42 37.85 42ZM10.15 8.77C9.96878 8.77 9.78933 8.80569 9.6219 8.87505C9.45447 8.9444 9.30234 9.04605 9.17419 9.17419C9.04605 9.30234 8.9444 9.45447 8.87505 9.6219C8.80569 9.78933 8.77 9.96878 8.77 10.15V37.85C8.77 38.216 8.91539 38.567 9.17419 38.8258C9.30234 38.9539 9.45447 39.0556 9.6219 39.125C9.78933 39.1943 9.96878 39.23 10.15 39.23H37.85C38.216 39.23 38.567 39.0846 38.8258 38.8258C39.0846 38.567 39.23 38.216 39.23 37.85V10.15C39.23 9.96878 39.1943 9.78933 39.125 9.6219C39.0556 9.45447 38.9539 9.30234 38.8258 9.17419C38.6977 9.04605 38.5455 8.9444 38.3781 8.87505C38.2107 8.80569 38.0312 8.77 37.85 8.77H10.15Z" fill="black"/>
</svg>
