<svg width="48" height="48" viewBox="0 0 48 48" fill="none" xmlns="http://www.w3.org/2000/svg">
<path d="M39.3654 6.46118C38.667 6.46118 37.9971 6.73791 37.5024 7.23077C37.0076 7.72364 36.7284 8.39248 36.7257 9.09082V38.7367C36.7036 39.0963 36.7553 39.4567 36.8776 39.7956C37 40.1345 37.1905 40.4448 37.4373 40.7073C37.6841 40.9698 37.9821 41.179 38.3128 41.322C38.6435 41.4649 39 41.5387 39.3604 41.5387C39.7207 41.5387 40.0772 41.4649 40.4079 41.322C40.7386 41.179 41.0366 40.9698 41.2834 40.7073C41.5302 40.4448 41.7207 40.1345 41.8431 39.7956C41.9655 39.4567 42.0172 39.0963 41.995 38.7367V9.09082C41.995 8.74549 41.927 8.40354 41.7948 8.0845C41.6627 7.76546 41.469 7.47557 41.2248 7.23138C40.9806 6.9872 40.6907 6.7935 40.3717 6.66135C40.0526 6.5292 39.7107 6.46118 39.3654 6.46118Z" fill="black"/>
<path d="M33.4562 24.4487H8.62963C7.17733 24.4487 6 25.626 6 27.0783V33.9974C6 35.4497 7.17733 36.627 8.62963 36.627H33.4562C34.9085 36.627 36.0858 35.4497 36.0858 33.9974V27.0783C36.0858 25.626 34.9085 24.4487 33.4562 24.4487Z" fill="black"/>
<path d="M33.4562 11.2105H15.2687C13.8164 11.2105 12.6391 12.3878 12.6391 13.8402V20.7592C12.6391 22.2115 13.8164 23.3888 15.2687 23.3888H33.4562C34.9085 23.3888 36.0858 22.2115 36.0858 20.7592V13.8402C36.0858 12.3878 34.9085 11.2105 33.4562 11.2105Z" fill="black"/>
</svg>
