<svg width="48" height="48" viewBox="0 0 48 48" fill="none" xmlns="http://www.w3.org/2000/svg">
<path d="M38.0228 10.2882H25.3852V7.2769C25.3556 6.92858 25.1963 6.60407 24.9388 6.36759C24.6814 6.1311 24.3445 5.99988 23.995 5.99988C23.6454 5.99988 23.3086 6.1311 23.0511 6.36759C22.7937 6.60407 22.6344 6.92858 22.6047 7.2769V10.2882H9.97718C9.67315 10.2869 9.37186 10.3457 9.0906 10.4611C8.80933 10.5765 8.55364 10.7464 8.33819 10.9609C8.12275 11.1754 7.95179 11.4303 7.83514 11.7111C7.71849 11.9919 7.65844 12.2929 7.65845 12.5969V20.4967C7.65845 21.1116 7.90274 21.7014 8.33759 22.1363C8.77244 22.5711 9.36221 22.8154 9.97718 22.8154H22.6047V25.1843H13.6811C13.0662 25.1843 12.4764 25.4286 12.0415 25.8635C11.6067 26.2983 11.3624 26.8881 11.3624 27.5031V35.4028C11.3651 36.016 11.6105 36.6032 12.0451 37.0359C12.4796 37.4686 13.0679 37.7115 13.6811 37.7115H22.5746V40.7229C22.6042 41.0712 22.7635 41.3957 23.021 41.6322C23.2784 41.8686 23.6153 41.9999 23.9649 41.9999C24.3144 41.9999 24.6513 41.8686 24.9087 41.6322C25.1662 41.3957 25.3255 41.0712 25.3551 40.7229V37.7115H34.2586C34.5618 37.7115 34.862 37.6518 35.1421 37.5358C35.4222 37.4198 35.6767 37.2497 35.8911 37.0353C36.1055 36.8209 36.2756 36.5664 36.3916 36.2863C36.5076 36.0062 36.5673 35.706 36.5673 35.4028V27.5031C36.5686 27.199 36.5099 26.8977 36.3945 26.6165C36.279 26.3352 36.1092 26.0795 35.8947 25.8641C35.6802 25.6486 35.4252 25.4777 35.1445 25.361C34.8637 25.2444 34.5627 25.1843 34.2586 25.1843H25.3852V22.8154H38.0228C38.637 22.8128 39.2252 22.5676 39.6595 22.1334C40.0938 21.6991 40.3389 21.1108 40.3415 20.4967V12.5969C40.3389 11.9837 40.0934 11.3965 39.6589 10.9638C39.2243 10.5311 38.636 10.2882 38.0228 10.2882ZM33.827 34.931H14.173V28.015H33.827V34.931ZM37.5611 20.0349H10.459V13.0687H37.5611V20.0349Z" fill="black"/>
</svg>
