<svg width="48" height="48" viewBox="0 0 48 48" fill="none" xmlns="http://www.w3.org/2000/svg">
<path d="M21.23 28.42C21.0453 28.4201 20.8626 28.3831 20.6925 28.3112C20.5224 28.2394 20.3684 28.1342 20.2397 28.0018C20.1111 27.8693 20.0103 27.7125 19.9433 27.5404C19.8764 27.3683 19.8446 27.1845 19.85 27V21C19.8337 20.8082 19.8574 20.6151 19.9196 20.433C19.9817 20.2509 20.0811 20.0836 20.2113 19.9419C20.3415 19.8001 20.4997 19.687 20.6759 19.6096C20.8521 19.5322 21.0425 19.4922 21.235 19.4922C21.4274 19.4922 21.6178 19.5322 21.794 19.6096C21.9702 19.687 22.1284 19.8001 22.2586 19.9419C22.3888 20.0836 22.4882 20.2509 22.5504 20.433C22.6126 20.6151 22.6363 20.8082 22.62 21V27C22.624 27.185 22.591 27.369 22.5229 27.5411C22.4548 27.7132 22.3531 27.87 22.2236 28.0023C22.0941 28.1346 21.9396 28.2397 21.7689 28.3114C21.5983 28.3831 21.4151 28.42 21.23 28.42Z" fill="black"/>
<path d="M25.7906 26.9764C26.051 27.2349 26.4031 27.38 26.77 27.38C27.136 27.38 27.487 27.2346 27.7458 26.9758C28.0046 26.717 28.15 26.366 28.15 26V22C28.1663 21.8082 28.1426 21.6151 28.0804 21.433C28.0182 21.2509 27.9189 21.0836 27.7887 20.9419C27.6585 20.8001 27.5003 20.687 27.324 20.6096C27.1478 20.5322 26.9575 20.4922 26.765 20.4922C26.5725 20.4922 26.3822 20.5322 26.206 20.6096C26.0297 20.687 25.8715 20.8001 25.7413 20.9419C25.6111 21.0836 25.5118 21.2509 25.4496 21.433C25.3874 21.6151 25.3637 21.8082 25.38 22V26C25.3826 26.3669 25.5303 26.7179 25.7906 26.9764Z" fill="black"/>
<path fill-rule="evenodd" clip-rule="evenodd" d="M37.85 42H10.15C9.04935 42 7.99378 41.5628 7.21551 40.7845C6.43723 40.0062 6 38.9506 6 37.85V10.15C6 9.04935 6.43723 7.99378 7.21551 7.21551C7.99378 6.43723 9.04935 6 10.15 6H37.85C38.9506 6 40.0062 6.43723 40.7845 7.21551C41.5628 7.99378 42 9.04935 42 10.15V37.85C42 38.9506 41.5628 40.0062 40.7845 40.7845C40.0062 41.5628 38.9506 42 37.85 42ZM10.15 8.77C9.96878 8.77 9.78933 8.80569 9.6219 8.87505C9.45447 8.9444 9.30234 9.04605 9.17419 9.17419C9.04605 9.30234 8.9444 9.45447 8.87505 9.6219C8.80569 9.78933 8.77 9.96878 8.77 10.15V37.85C8.77 38.216 8.91539 38.567 9.17419 38.8258C9.30234 38.9539 9.45447 39.0556 9.6219 39.125C9.78933 39.1943 9.96878 39.23 10.15 39.23H37.85C38.216 39.23 38.567 39.0846 38.8258 38.8258C39.0846 38.567 39.23 38.216 39.23 37.85V10.15C39.23 9.96878 39.1943 9.78933 39.125 9.6219C39.0556 9.45447 38.9539 9.30234 38.8258 9.17419C38.6977 9.04605 38.5455 8.9444 38.3781 8.87505C38.2107 8.80569 38.0312 8.77 37.85 8.77H10.15Z" fill="black"/>
</svg>
