<svg width="48" height="48" viewBox="0 0 48 48" fill="none" xmlns="http://www.w3.org/2000/svg">
<path d="M37.5 6H10.5C9.30734 6.00264 8.16428 6.4776 7.32094 7.32094C6.4776 8.16428 6.00264 9.30734 6 10.5V37.5C6.00264 38.6927 6.4776 39.8357 7.32094 40.6791C8.16428 41.5224 9.30734 41.9974 10.5 42H37.5C38.6927 41.9974 39.8357 41.5224 40.6791 40.6791C41.5224 39.8357 41.9974 38.6927 42 37.5V10.5C41.9974 9.30734 41.5224 8.16428 40.6791 7.32094C39.8357 6.4776 38.6927 6.00264 37.5 6V6ZM15 19.11C15 19.3464 14.9534 19.5804 14.863 19.7988C14.7725 20.0172 14.6399 20.2156 14.4728 20.3828C14.3056 20.5499 14.1072 20.6825 13.8888 20.773C13.6704 20.8634 13.4364 20.91 13.2 20.91C12.9636 20.91 12.7296 20.8634 12.5112 20.773C12.2928 20.6825 12.0944 20.5499 11.9272 20.3828C11.7601 20.2156 11.6275 20.0172 11.537 19.7988C11.4466 19.5804 11.4 19.3464 11.4 19.11V13.2C11.4 12.7226 11.5896 12.2648 11.9272 11.9272C12.2648 11.5896 12.7226 11.4 13.2 11.4C13.6774 11.4 14.1352 11.5896 14.4728 11.9272C14.8104 12.2648 15 12.7226 15 13.2V19.11ZM20.4 17.11C20.4 17.5874 20.2104 18.0452 19.8728 18.3828C19.5352 18.7204 19.0774 18.91 18.6 18.91C18.1226 18.91 17.6648 18.7204 17.3272 18.3828C16.9896 18.0452 16.8 17.5874 16.8 17.11V13.2C16.8 12.7226 16.9896 12.2648 17.3272 11.9272C17.6648 11.5896 18.1226 11.4 18.6 11.4C19.0774 11.4 19.5352 11.5896 19.8728 11.9272C20.2104 12.2648 20.4 12.7226 20.4 13.2V17.11Z" fill="black"/>
</svg>
