<svg width="48" height="48" viewBox="0 0 48 48" fill="none" xmlns="http://www.w3.org/2000/svg">
<path d="M37.5 6H10.5C9.30734 6.00264 8.16428 6.4776 7.32094 7.32094C6.4776 8.16428 6.00264 9.30734 6 10.5V37.5C6.00264 38.6927 6.4776 39.8357 7.32094 40.6791C8.16428 41.5224 9.30734 41.9974 10.5 42H37.5C38.6927 41.9974 39.8357 41.5224 40.6791 40.6791C41.5224 39.8357 41.9974 38.6927 42 37.5V10.5C41.9974 9.30734 41.5224 8.16428 40.6791 7.32094C39.8357 6.4776 38.6927 6.00264 37.5 6V6ZM15 27C15 27.4774 14.8104 27.9352 14.4728 28.2728C14.1352 28.6104 13.6774 28.8 13.2 28.8C12.7226 28.8 12.2648 28.6104 11.9272 28.2728C11.5896 27.9352 11.4 27.4774 11.4 27V21C11.4 20.5226 11.5896 20.0648 11.9272 19.7272C12.2648 19.3896 12.7226 19.2 13.2 19.2C13.6774 19.2 14.1352 19.3896 14.4728 19.7272C14.8104 20.0648 15 20.5226 15 21V27ZM20.4 26C20.4 26.4774 20.2104 26.9352 19.8728 27.2728C19.5352 27.6104 19.0774 27.8 18.6 27.8C18.1226 27.8 17.6648 27.6104 17.3272 27.2728C16.9896 26.9352 16.8 26.4774 16.8 26V22.06C16.8 21.5826 16.9896 21.1248 17.3272 20.7872C17.6648 20.4496 18.1226 20.26 18.6 20.26C19.0774 20.26 19.5352 20.4496 19.8728 20.7872C20.2104 21.1248 20.4 21.5826 20.4 22.06V26Z" fill="black"/>
</svg>
