<svg width="48" height="48" viewBox="0 0 48 48" fill="none" xmlns="http://www.w3.org/2000/svg">
<path d="M38.6606 6.00488H9.01473C8.34404 6.04621 7.71436 6.34178 7.25405 6.83133C6.79375 7.32088 6.53748 7.96755 6.53748 8.63951C6.53748 9.31148 6.79375 9.95815 7.25405 10.4477C7.71436 10.9372 8.34404 11.2328 9.01473 11.2741H38.6606C39.0202 11.2963 39.3806 11.2446 39.7195 11.1222C40.0584 10.9999 40.3687 10.8094 40.6312 10.5626C40.8937 10.3157 41.1029 10.0178 41.2459 9.68706C41.3889 9.35633 41.4626 8.99983 41.4626 8.63951C41.4626 8.27919 41.3889 7.92269 41.2459 7.59196C41.1029 7.26123 40.8937 6.96328 40.6312 6.71646C40.3687 6.46963 40.0584 6.27917 39.7195 6.15679C39.3806 6.03441 39.0202 5.98271 38.6606 6.00488Z" fill="black"/>
<path d="M20.6831 11.9141H13.7641C12.3118 11.9141 11.1344 13.0914 11.1344 14.5437V39.3702C11.1344 40.8226 12.3118 41.9999 13.7641 41.9999H20.6831C22.1354 41.9999 23.3127 40.8226 23.3127 39.3702V14.5437C23.3127 13.0914 22.1354 11.9141 20.6831 11.9141Z" fill="black"/>
<path d="M33.9213 11.9141H27.0022C25.5499 11.9141 24.3726 13.0914 24.3726 14.5437V32.7312C24.3726 34.1835 25.5499 35.3608 27.0022 35.3608H33.9213C35.3736 35.3608 36.5509 34.1835 36.5509 32.7312V14.5437C36.5509 13.0914 35.3736 11.9141 33.9213 11.9141Z" fill="black"/>
</svg>
