<svg width="48" height="48" viewBox="0 0 48 48" fill="none" xmlns="http://www.w3.org/2000/svg">
<path fill-rule="evenodd" clip-rule="evenodd" d="M20.5577 36.7058H13.2987C12.9954 36.7058 12.6951 36.646 12.4149 36.53C12.1347 36.4139 11.88 36.2438 11.6656 36.0293C11.4511 35.8148 11.281 35.5602 11.1649 35.28C11.0488 34.9998 10.9891 34.6994 10.9891 34.3961V8.31C10.9891 7.69744 11.2324 7.10997 11.6656 6.67683C12.0987 6.24368 12.6862 6.00035 13.2987 6.00035H20.5577C20.8648 5.99505 21.1699 6.0508 21.4553 6.16437C21.7407 6.27795 22.0008 6.44708 22.2203 6.66194C22.4398 6.87681 22.6145 7.13314 22.7341 7.41606C22.8538 7.69897 22.916 8.00283 22.9173 8.31V34.3961C22.916 34.7033 22.8538 35.0072 22.7341 35.2901C22.6145 35.573 22.4398 35.8293 22.2203 36.0442C22.0008 36.2591 21.7407 36.4282 21.4553 36.5418C21.1699 36.6553 20.8648 36.7111 20.5577 36.7058ZM13.7587 33.9362H20.0977V8.76993H13.7587V33.9362Z" fill="black"/>
<path d="M39.4649 41.995H8.29954C7.95258 41.9655 7.62934 41.8068 7.39379 41.5504C7.15823 41.2939 7.02752 40.9584 7.02752 40.6102C7.02752 40.262 7.15823 39.9265 7.39379 39.67C7.62934 39.4136 7.95258 39.2549 8.29954 39.2254H39.4649C39.6567 39.2091 39.8497 39.2328 40.0318 39.295C40.2139 39.3572 40.3811 39.4565 40.5229 39.5867C40.6646 39.7169 40.7777 39.8751 40.8551 40.0512C40.9325 40.2274 40.9725 40.4178 40.9725 40.6102C40.9725 40.8026 40.9325 40.993 40.8551 41.1692C40.7777 41.3454 40.6646 41.5036 40.5229 41.6337C40.3811 41.7639 40.2139 41.8632 40.0318 41.9254C39.8497 41.9876 39.6567 42.0113 39.4649 41.995Z" fill="black"/>
<path fill-rule="evenodd" clip-rule="evenodd" d="M27.2166 36.7057H34.4755C34.7788 36.7057 35.0792 36.6459 35.3594 36.5299C35.6396 36.4138 35.8942 36.2437 36.1087 36.0292C36.3232 35.8147 36.4933 35.5601 36.6094 35.2799C36.7255 34.9997 36.7852 34.6993 36.7852 34.396V15.3089C36.7852 14.6963 36.5419 14.1088 36.1087 13.6757C35.6756 13.2425 35.0881 12.9992 34.4755 12.9992H27.2166C26.6092 13.0018 26.0273 13.2436 25.5969 13.6721C25.1665 14.1007 24.9222 14.6815 24.917 15.2889V34.396C24.9169 35.0069 25.1589 35.5928 25.5899 36.0257C26.0209 36.4585 26.6058 36.703 27.2166 36.7057ZM34.0156 33.9361H27.6765V15.7488H34.0156V33.9361Z" fill="black"/>
</svg>
