<svg width="48" height="48" viewBox="0 0 48 48" fill="none" xmlns="http://www.w3.org/2000/svg">
<path d="M38.6606 36.7257H9.01474C8.34405 36.7671 7.71437 37.0626 7.25406 37.5522C6.79376 38.0417 6.53749 38.6884 6.53749 39.3604C6.53749 40.0323 6.79376 40.679 7.25406 41.1685C7.71437 41.6581 8.34405 41.9537 9.01474 41.995H38.6606C39.0203 42.0172 39.3806 41.9655 39.7195 41.8431C40.0584 41.7207 40.3687 41.5302 40.6312 41.2834C40.8937 41.0366 41.1029 40.7386 41.2459 40.4079C41.3889 40.0772 41.4626 39.7207 41.4626 39.3604C41.4626 39 41.3889 38.6435 41.2459 38.3128C41.1029 37.9821 40.8937 37.6841 40.6312 37.4373C40.3687 37.1905 40.0584 37 39.7195 36.8776C39.3806 36.7553 39.0203 36.7036 38.6606 36.7257Z" fill="black"/>
<path d="M20.6831 6H13.7641C12.3118 6 11.1344 7.17733 11.1344 8.62963V33.4562C11.1344 34.9085 12.3118 36.0858 13.7641 36.0858H20.6831C22.1354 36.0858 23.3128 34.9085 23.3128 33.4562V8.62963C23.3128 7.17733 22.1354 6 20.6831 6Z" fill="black"/>
<path d="M33.9213 12.6391H27.0022C25.5499 12.6391 24.3726 13.8164 24.3726 15.2687V33.4562C24.3726 34.9085 25.5499 36.0858 27.0022 36.0858H33.9213C35.3736 36.0858 36.5509 34.9085 36.5509 33.4562V15.2687C36.5509 13.8164 35.3736 12.6391 33.9213 12.6391Z" fill="black"/>
</svg>
