<svg width="48" height="48" viewBox="0 0 48 48" fill="none" xmlns="http://www.w3.org/2000/svg">
<path d="M39.4649 8.77459H8.29955C7.95259 8.74508 7.62935 8.58641 7.3938 8.32997C7.15824 8.07353 7.02753 7.738 7.02753 7.3898C7.02753 7.04159 7.15824 6.70606 7.3938 6.44962C7.62935 6.19318 7.95259 6.03451 8.29955 6.005H39.4649C39.6567 5.98869 39.8497 6.01238 40.0318 6.07457C40.214 6.13676 40.3812 6.23609 40.5229 6.36627C40.6646 6.49645 40.7778 6.65464 40.8552 6.83083C40.9326 7.00702 40.9725 7.19736 40.9725 7.3898C40.9725 7.58223 40.9326 7.77257 40.8552 7.94876C40.7778 8.12495 40.6646 8.28314 40.5229 8.41332C40.3812 8.5435 40.214 8.64283 40.0318 8.70502C39.8497 8.76721 39.6567 8.7909 39.4649 8.77459Z" fill="black"/>
<path fill-rule="evenodd" clip-rule="evenodd" d="M20.5577 41.9995H13.2988C12.9951 42.0008 12.6942 41.9419 12.4133 41.8263C12.1325 41.7107 11.8774 41.5407 11.6627 41.3259C11.4479 41.1112 11.2778 40.856 11.1622 40.5752C11.0466 40.2944 10.9878 39.9935 10.9891 39.6898V13.6037C10.9891 12.9911 11.2325 12.4036 11.6656 11.9705C12.0988 11.5373 12.6862 11.294 13.2988 11.294H20.5577C20.8648 11.2887 21.17 11.3445 21.4554 11.458C21.7408 11.5716 22.0008 11.7407 22.2203 11.9556C22.4398 12.1705 22.6145 12.4268 22.7341 12.7097C22.8538 12.9926 22.9161 13.2965 22.9174 13.6037V39.6898C22.9174 39.9974 22.8561 40.3018 22.7369 40.5854C22.6177 40.8689 22.4431 41.1258 22.2233 41.3409C22.0035 41.556 21.743 41.7251 21.4569 41.8382C21.1709 41.9513 20.8652 42.0061 20.5577 41.9995ZM13.7587 39.2299H20.0978V14.0636H13.7587V39.2299Z" fill="black"/>
<path fill-rule="evenodd" clip-rule="evenodd" d="M27.2166 35.0006H34.4756C35.0847 35.0007 35.6691 34.7601 36.1017 34.3312C36.5343 33.9024 36.78 33.3201 36.7852 32.711V13.6038C36.7852 12.9912 36.5419 12.4038 36.1087 11.9706C35.6756 11.5375 35.0881 11.2941 34.4756 11.2941H27.2166C26.6058 11.2968 26.0209 11.5413 25.5899 11.9741C25.1589 12.407 24.917 12.993 24.917 13.6038V32.711C24.9222 33.3183 25.1665 33.8992 25.5969 34.3277C26.0274 34.7563 26.6093 34.998 27.2166 35.0006ZM34.0156 32.231H27.6766V14.0637H34.0156V32.231Z" fill="black"/>
</svg>
