<svg width="48" height="48" viewBox="0 0 48 48" fill="none" xmlns="http://www.w3.org/2000/svg">
<path d="M37.5 6H10.5C9.30734 6.00264 8.16428 6.4776 7.32094 7.32094C6.4776 8.16428 6.00264 9.30734 6 10.5V37.5C6.00264 38.6927 6.4776 39.8357 7.32094 40.6791C8.16428 41.5224 9.30734 41.9974 10.5 42H37.5C38.6927 41.9974 39.8357 41.5224 40.6791 40.6791C41.5224 39.8357 41.9974 38.6927 42 37.5V10.5C41.9974 9.30734 41.5224 8.16428 40.6791 7.32094C39.8357 6.4776 38.6927 6.00264 37.5 6V6ZM23.1 27C23.1 27.4774 22.9104 27.9352 22.5728 28.2728C22.2352 28.6104 21.7774 28.8 21.3 28.8C20.8226 28.8 20.3648 28.6104 20.0272 28.2728C19.6896 27.9352 19.5 27.4774 19.5 27V21C19.5 20.5226 19.6896 20.0648 20.0272 19.7272C20.3648 19.3896 20.8226 19.2 21.3 19.2C21.7774 19.2 22.2352 19.3896 22.5728 19.7272C22.9104 20.0648 23.1 20.5226 23.1 21V27ZM28.5 26C28.5 26.4774 28.3104 26.9352 27.9728 27.2728C27.6352 27.6104 27.1774 27.8 26.7 27.8C26.2226 27.8 25.7648 27.6104 25.4272 27.2728C25.0896 26.9352 24.9 26.4774 24.9 26V22.06C24.9 21.5826 25.0896 21.1248 25.4272 20.7872C25.7648 20.4496 26.2226 20.26 26.7 20.26C27.1774 20.26 27.6352 20.4496 27.9728 20.7872C28.3104 21.1248 28.5 21.5826 28.5 22.06V26Z" fill="black"/>
</svg>
