<svg width="48" height="48" viewBox="0 0 48 48" fill="none" xmlns="http://www.w3.org/2000/svg">
<path fill-rule="evenodd" clip-rule="evenodd" d="M28.69 31.09H40.69C41.1231 31.0655 41.5429 30.9313 41.91 30.7V42H6V23.68H7.66L8 22.79H9L9.36 23.68H22.86V22.79L23.58 23.68H27.22V23.05C27.6511 23.4475 28.2137 23.6718 28.8 23.68H31.21L31.57 22.79H32.52L32.88 23.68H36.44V22.68L37.08 23.68H39.52V18H37.08V19L36.41 18H34V19.75L33.24 18H29C28.3432 17.994 27.7056 18.2207 27.2 18.64V18H14.2L13.79 19.3L13.33 18H10.44V19.76L9.67 18H7.35L6 21.17V6H41.91V25.43H20.24L19.58 26.27L18.94 25.43H13V31.09H18.9L19.55 30.23L20.19 31.09H23.77V29.78H24.58C24.9271 29.799 25.2729 29.723 25.58 29.56V31.09H28V30.19L28.69 31.09ZM8.49 19.71L7.9 21.19H9.09L8.49 19.71ZM9.49 22.11H7.52L7.19 23H6L7.81 18.76H9.2L11 23H9.8L9.49 22.11ZM16.43 22.96H15.36V19.84L14.24 23H13.32L12.19 19.84V23H11.14V18.72H12.82L13.82 21.45L14.82 18.71H16.48L16.43 22.96ZM20.6 19.67H18.2V20.39H20.53V21.29H18.2V22H20.58V23H17.14V18.72H20.58L20.6 19.67ZM23.49 20.56C23.6113 20.5628 23.7291 20.5186 23.8185 20.4366C23.908 20.3546 23.9623 20.2411 23.97 20.12C23.9598 19.9954 23.9024 19.8793 23.8094 19.7956C23.7165 19.712 23.595 19.667 23.47 19.67H22.27V20.56H23.49ZM25 20.1C25.0041 20.4225 24.8873 20.7348 24.6726 20.9754C24.4579 21.2161 24.1609 21.3675 23.84 21.4L25.25 23H24L22.73 21.49H22.29V23H21.19V18.72H23.54C23.7278 18.7091 23.9159 18.7367 24.0927 18.8012C24.2695 18.8656 24.4312 18.9655 24.5679 19.0948C24.7047 19.224 24.8136 19.3799 24.8879 19.5527C24.9622 19.7256 25.0003 19.9118 25 20.1ZM25.45 23V18.72H26.52V23H25.45ZM27 20.86C26.9696 20.5758 27.0023 20.2885 27.0958 20.0184C27.1893 19.7483 27.3414 19.5023 27.5411 19.2978C27.7407 19.0934 27.9831 18.9355 28.2509 18.8357C28.5187 18.7358 28.8052 18.6963 29.09 18.72H30.3V19.72H29.09C28.946 19.7186 28.8034 19.7483 28.672 19.807C28.5405 19.8658 28.4233 19.9523 28.3284 20.0605C28.2334 20.1688 28.163 20.2962 28.1218 20.4342C28.0807 20.5722 28.0698 20.7174 28.09 20.86C28.0654 21.0171 28.0786 21.1778 28.1285 21.3288C28.1784 21.4798 28.2636 21.6167 28.377 21.7281C28.4904 21.8396 28.6288 21.9224 28.7806 21.9697C28.9324 22.017 29.0934 22.0274 29.25 22H29.52L29.08 22.93H28.85C28.5879 22.9303 28.3286 22.8751 28.0893 22.7682C27.85 22.6612 27.6359 22.5049 27.4613 22.3095C27.2866 22.114 27.1552 21.8838 27.0757 21.634C26.9962 21.3842 26.9704 21.1205 27 20.86ZM32 19.71L31.4 21.19H32.59L32 19.71ZM30.74 23H29.56L31.38 18.76H32.75L34.57 23H33.36L33 22.11H31.08L30.74 23ZM37.5 23L35.74 20.27V23H34.74V18.72H36L37.71 21.38V18.72H38.8V23H37.5ZM17.14 27.08H14.76V27.8H17.08V28.69H14.76V29.44H17.14V30.36H13.69V26.13H17.14V27.08ZM34.01 27.08H31.63V27.8H34V28.69H31.63V29.44H34V30.36H30.57V26.13H34L34.01 27.08ZM20.61 26.13H21.89L20.19 28.25L21.87 30.36H20.54L19.54 29.06L18.54 30.36H17.27L19 28.27L17.28 26.13H18.61L19.61 27.45L20.61 26.13ZM24.77 27.58C24.7716 27.5126 24.7591 27.4456 24.7331 27.3834C24.7071 27.3212 24.6684 27.2652 24.6193 27.219C24.5703 27.1728 24.512 27.1374 24.4484 27.1152C24.3848 27.0929 24.3172 27.0844 24.25 27.09H23.08V28.09H24.25C24.3189 28.0959 24.3883 28.0869 24.4534 28.0635C24.5185 28.0401 24.5778 28.0029 24.6272 27.9544C24.6765 27.906 24.7149 27.8475 24.7395 27.7828C24.7642 27.7182 24.7746 27.649 24.77 27.58ZM22 26.13H24.33C24.5249 26.113 24.7212 26.1374 24.9061 26.2016C25.0909 26.2657 25.2602 26.3681 25.4027 26.5022C25.5452 26.6362 25.6579 26.7988 25.7332 26.9794C25.8086 27.16 25.845 27.3544 25.84 27.55C25.8403 27.758 25.7962 27.9636 25.7107 28.1532C25.6251 28.3427 25.5 28.5118 25.3438 28.6491C25.1875 28.7864 25.0038 28.8887 24.8048 28.9492C24.6058 29.0098 24.3962 29.0271 24.19 29H23.08V30.33H22V26.13ZM28.58 28C28.644 28.0096 28.7094 28.0053 28.7716 27.9874C28.8338 27.9694 28.8914 27.9383 28.9405 27.896C28.9896 27.8538 29.0289 27.8014 29.0559 27.7426C29.0829 27.6837 29.0969 27.6198 29.0969 27.555C29.0969 27.4902 29.0829 27.4263 29.0559 27.3674C29.0289 27.3086 28.9896 27.2562 28.9405 27.214C28.8914 27.1717 28.8338 27.1406 28.7716 27.1226C28.7094 27.1047 28.644 27.1004 28.58 27.11H27.38V28H28.58ZM30.13 27.53C30.1276 27.8427 30.0116 28.1438 29.8038 28.3775C29.5959 28.6111 29.3103 28.7612 29 28.8L30.39 30.36H29.07L27.8 28.86H27.36V30.36H26.3V26.13H28.65C28.8389 26.1148 29.029 26.1389 29.2081 26.2009C29.3872 26.2629 29.5516 26.3614 29.6907 26.4902C29.8298 26.619 29.9406 26.7752 30.0163 26.949C30.0919 27.1228 30.1306 27.3104 30.13 27.5V27.53ZM36.61 29.47C36.93 29.47 37.06 29.3 37.06 29.12C37.06 28.94 36.93 28.76 36.61 28.76H35.66C35.4882 28.7767 35.3148 28.7554 35.1521 28.6978C34.9894 28.6401 34.8413 28.5475 34.7183 28.4264C34.5953 28.3053 34.5003 28.1587 34.4402 27.9969C34.38 27.8351 34.356 27.6621 34.37 27.49C34.37 26.81 34.79 26.16 36.02 26.16H38.08L37.63 27.11H35.86C35.52 27.11 35.41 27.29 35.41 27.46C35.4099 27.5103 35.4201 27.5601 35.4399 27.6064C35.4598 27.6526 35.4888 27.6943 35.5253 27.729C35.5618 27.7636 35.605 27.7904 35.6523 27.8078C35.6995 27.8252 35.7498 27.8327 35.8 27.83H36.8C36.9668 27.8053 37.137 27.8172 37.2987 27.8649C37.4604 27.9127 37.6098 27.9951 37.7364 28.1065C37.863 28.2179 37.9638 28.3555 38.0318 28.5098C38.0998 28.6641 38.1333 28.8314 38.13 29C38.1425 29.1827 38.115 29.3659 38.0495 29.5368C37.984 29.7078 37.882 29.8624 37.7507 29.99C37.6193 30.1175 37.4618 30.2149 37.289 30.2754C37.1161 30.3358 36.9322 30.3579 36.75 30.34H34.5V29.42L36.61 29.47ZM39.73 27.11C39.39 27.11 39.29 27.29 39.29 27.46C39.2885 27.5098 39.2974 27.5594 39.3162 27.6057C39.3349 27.6519 39.363 27.6937 39.3987 27.7285C39.4344 27.7633 39.477 27.7903 39.5237 27.8077C39.5704 27.8252 39.6202 27.8328 39.67 27.83H40.67C40.8368 27.8053 41.007 27.8172 41.1687 27.8649C41.3304 27.9127 41.4798 27.9951 41.6064 28.1065C41.733 28.2179 41.8338 28.3555 41.9018 28.5098C41.9698 28.6641 42.0033 28.8314 42 29C42.0125 29.1827 41.985 29.3659 41.9195 29.5368C41.854 29.7078 41.752 29.8624 41.6207 29.99C41.4893 30.1175 41.3318 30.2149 41.159 30.2754C40.9861 30.3358 40.8022 30.3579 40.62 30.34H38.37V29.42H40.49C40.8 29.42 40.93 29.25 40.93 29.07C40.93 28.89 40.8 28.71 40.49 28.71H39.49C39.3182 28.7267 39.1448 28.7054 38.9821 28.6478C38.8194 28.5901 38.6713 28.4975 38.5483 28.3764C38.4253 28.2553 38.3303 28.1087 38.2702 27.9469C38.21 27.7851 38.186 27.6121 38.2 27.44C38.2 26.76 38.62 26.11 39.86 26.11H42L41.56 27.06L39.73 27.11Z" fill="black"/>
</svg>
