<svg width="48" height="48" viewBox="0 0 48 48" fill="none" xmlns="http://www.w3.org/2000/svg">
<path fill-rule="evenodd" clip-rule="evenodd" d="M27.24 20.94H28.41V16.13H27.24V20.94ZM34.24 16.94L35 18.88H33.45L34.24 16.94ZM31.31 16.1C29.7 16.13 29 17 29 18.58C29 20.16 29.71 20.94 31.29 20.94H32.6L33 19.88H35.38L35.84 20.94H38.18V17.34L40.34 20.94H42V16.15H40.85V19.49L38.85 16.15H37.07V20.69L35.14 16.15H33.42L31.78 19.93H31.27C30.35 19.93 30.15 19.37 30.15 18.55C30.15 16.9 31.24 17.16 32.45 17.18V16.18L31.31 16.1ZM31 17.91C31 17.91 30.9 18.06 30.9 18.44C30.8846 18.6322 30.919 18.8251 31 19C31.0796 19.0116 31.1604 19.0116 31.24 19L31.74 17.83H31.53C31.16 17.84 31.06 17.89 31 17.91ZM35 25.41V24.41H31.12V29.22H34.95V28.22H32.27V27.22H34.9V26.22H32.28V25.35L35 25.41ZM37.93 28.2H35.64V29.2H37.87C38.87 29.2 39.69 28.81 39.69 27.67C39.69 25.36 36.69 26.89 36.69 25.84C36.69 25.45 37.03 25.4 37.33 25.4H39.44V24.4H37.14C36.9356 24.3728 36.7277 24.3898 36.5304 24.4499C36.3332 24.5099 36.1511 24.6117 35.9966 24.7482C35.842 24.8847 35.7186 25.0529 35.6346 25.2412C35.5507 25.4296 35.5082 25.6338 35.51 25.84C35.51 28.13 38.51 26.71 38.51 27.74C38.48 28.13 38.16 28.2 37.88 28.2H37.93ZM43.97 25.44V24.44H41.64C41.437 24.4147 41.231 24.4324 41.0354 24.4919C40.8397 24.5513 40.6586 24.6512 40.504 24.7851C40.3494 24.919 40.2246 25.0838 40.1378 25.269C40.051 25.4542 40.004 25.6555 40 25.86C40 28.15 43 26.75 43 27.76C43 28.11 42.7 28.2 42.42 28.2H40.15V29.2H42.37C42.6608 29.2312 42.9549 29.191 43.2267 29.083C43.4985 28.975 43.7399 28.8023 43.93 28.58V26.82C43.2 25.87 41.21 26.73 41.21 25.89C41.2 25.48 41.52 25.44 41.83 25.44H43.97ZM39.36 29.91V29.6C38.62 29.99 39.09 29.91 28.49 29.91C28.49 28.16 28.49 28.25 28.49 28.16H27.84C27.84 29.4 27.84 28.63 27.84 29.91H25C25 29.07 25 28.85 25 27.91C24.2592 28.2631 23.4375 28.4115 22.62 28.34C22.62 29.34 22.62 28.91 22.62 29.93H19.26C18.9 29.54 19.07 29.72 18.19 28.72C17.97 28.97 17.3 29.72 17.07 29.93H11.38V23.53H17.15L18.22 24.72L19.31 23.53H23.31C23.8936 23.5076 24.4729 23.6386 24.99 23.91V23.53C28.76 23.53 29.46 23.43 30.25 23.88V23.53H35.68V23.89C36.47 23.41 37.04 23.53 40.18 23.53V23.87C40.9 23.46 41.33 23.51 43.95 23.53V11.33C43.95 10.452 43.6033 9.60952 42.9853 8.98588C42.3673 8.36224 41.528 8.00791 40.65 8H7.33C6.44683 8 5.59983 8.35084 4.97533 8.97533C4.35084 9.59983 4 10.4468 4 11.33V19C4.65 17.43 5.37 15.76 5.6 15.21H8.36C8.66 15.91 8.47 15.47 8.98 16.68V15.21H12.18L13.18 17.29L14 15.21H22C25 15.21 25.72 15.21 26.47 15.58V15.21H29.24V15.86C29.8525 15.4016 30.6059 15.1716 31.37 15.21H33.29C33.29 15.21 33.42 15.21 33.45 15.21H35.69C35.99 15.89 35.87 15.63 36.31 16.64V15.23H39.31L40.09 16.51V15.23H42.86V21.62H39.94C39.56 20.99 39.84 21.47 39.02 20.1V21.62H35.36L34.9 20.56H33.58L33.14 21.62H31.28C30.5424 21.6573 29.8145 21.4382 29.22 21V21.62H24.6C24.6 20.62 24.6 19.9 24.6 19.9C24.3737 19.8829 24.1463 19.8829 23.92 19.9V21.64H14.52V20.85L14.16 21.64H12.16L11.8 20.85V21.64H8.08L7.64 20.58H6.3L5.86 21.64H4V35.76C4.00265 36.6441 4.35571 37.4911 4.98179 38.1153C5.60788 38.7395 6.45591 39.09 7.34 39.09H40.67C41.5532 39.09 42.4002 38.7392 43.0247 38.1147C43.6492 37.4902 44 36.6432 44 35.76V29.49C43.12 30.06 41.73 29.91 39.31 29.91H39.36ZM6.23 18.91L7 17L7.8 18.91H6.23ZM16.52 20.97V16.13H14.55L13.18 19.4L11.68 16.13H9.8V20.69L7.85 16.13H6.14L4.08 20.94H5.33L5.77 19.88H8.16L8.61 20.94H11V17.18L12.67 20.94H13.67L15.3 17.18V20.94L16.52 20.97ZM28.52 26.53H27V25.41H28.46C28.81 25.41 29.2 25.48 29.2 25.93C29.2 26.38 28.85 26.5 28.46 26.5L28.52 26.53ZM30.52 25.75C30.52 24.61 29.52 24.45 28.64 24.45H25.87V29.26H27V27.48H28.22C28.99 27.48 29.22 27.61 29.22 28.43V29.23H30.38V28.23C30.38 27.62 30.26 27.23 29.62 26.96C29.8687 26.8585 30.0829 26.6877 30.2372 26.4678C30.3914 26.248 30.4792 25.9884 30.49 25.72L30.52 25.75ZM21.17 17.15V16.15H17.32V20.96H21.17V20H18.47V19H21.1V18H18.47V17.15H21.17ZM23.36 26.64H21.89V25.41H23.39C23.77 25.41 24.09 25.57 24.09 26C24.09 26.43 23.77 26.64 23.36 26.64ZM20.74 28.79L19 26.84L20.75 24.94L20.74 28.79ZM16.17 28.22H13.36V27.22H15.88V26.22H13.36V25.35H16.25L17.49 26.76L16.17 28.22ZM23.38 24.42H19.72L18.26 26L16.84 24.42H12.22V29.23H16.76L18.24 27.64L19.65 29.23H21.89V27.61C23.21 27.61 25.32 27.93 25.32 26C25.32 24.8 24.46 24.42 23.38 24.42ZM24.54 18.21H23.1V17.15H24.56C24.91 17.15 25.3 17.22 25.3 17.66C25.3 18.1 24.93 18.21 24.54 18.21ZM26.54 17.43C26.54 16.29 25.54 16.15 24.64 16.15L22 16.13V20.94H23.1V19.2H24.35C25.63 19.2 25.35 19.91 25.35 20.94H26.5V20C26.5 19.36 26.4 18.95 25.74 18.72C25.9948 18.6162 26.2118 18.437 26.3619 18.2065C26.512 17.9759 26.5881 17.705 26.58 17.43H26.54Z" fill="black"/>
</svg>
