<svg width="48" height="48" viewBox="0 0 48 48" fill="none" xmlns="http://www.w3.org/2000/svg">
<path fill-rule="evenodd" clip-rule="evenodd" d="M11.32 18.12C11.08 18.4176 10.7748 18.6563 10.4281 18.8175C10.0814 18.9787 9.70229 19.0583 9.32 19.05C9.29917 18.687 9.35029 18.3234 9.47042 17.9801C9.59055 17.6369 9.77732 17.3208 10.02 17.05C10.2646 16.7532 10.5655 16.5077 10.9052 16.3275C11.245 16.1473 11.6171 16.036 12 16C12.0536 16.7677 11.8102 17.5267 11.32 18.12ZM12 19.19C12.478 19.2077 12.9454 19.3361 13.3653 19.5652C13.7853 19.7942 14.1463 20.1177 14.42 20.51C13.9943 20.7736 13.6414 21.1395 13.3934 21.5744C13.1453 22.0094 13.0101 22.4994 13 23C12.9977 23.5714 13.1621 24.1311 13.4729 24.6106C13.7837 25.0902 14.2275 25.4687 14.75 25.7C14.5362 26.3631 14.2298 26.9926 13.84 27.57C13.29 28.38 12.72 29.18 11.84 29.2C10.96 29.22 10.67 28.68 9.67 28.68C8.67 28.68 8.34 29.18 7.51 29.21C6.68 29.24 5.97 28.35 5.42 27.54C4.25 25.9 3.39 22.91 4.56 20.9C4.82886 20.4098 5.22145 19.9986 5.69868 19.7074C6.17591 19.4161 6.72112 19.255 7.28 19.24C8.14 19.24 8.94 19.81 9.46 19.81C9.98 19.81 10.9 19.13 12 19.19ZM20.17 23.36H22.34C22.6761 23.4073 23.0185 23.3787 23.342 23.2762C23.6655 23.1737 23.962 23 24.2095 22.7678C24.457 22.5356 24.6494 22.2509 24.7723 21.9346C24.8953 21.6183 24.9457 21.2784 24.92 20.94C24.9455 20.6026 24.8951 20.2637 24.7728 19.9482C24.6504 19.6327 24.459 19.3486 24.2126 19.1166C23.9662 18.8846 23.6711 18.7106 23.3489 18.6074C23.0266 18.5042 22.6853 18.4743 22.35 18.52H20.16L20.17 23.36ZM22.84 16.93C23.3721 16.9043 23.9037 16.9901 24.4006 17.182C24.8976 17.374 25.3489 17.6677 25.7256 18.0444C26.1023 18.4211 26.396 18.8724 26.5879 19.3694C26.7799 19.8663 26.8657 20.3979 26.84 20.93C26.8588 21.4663 26.7658 22.0007 26.5669 22.4991C26.3681 22.9976 26.0678 23.4493 25.685 23.8254C25.3023 24.2016 24.8455 24.494 24.3436 24.6842C23.8418 24.8744 23.3059 24.9581 22.77 24.93H20.16V29.09H18.27V16.93H22.84ZM33.06 25.8V25.12L31 25.25C29.82 25.33 29.21 25.77 29.21 26.54C29.21 27.31 29.85 27.76 30.85 27.76C31.1243 27.779 31.3997 27.7431 31.66 27.6544C31.9204 27.5657 32.1604 27.4261 32.3662 27.2436C32.5719 27.0611 32.7392 26.8395 32.8584 26.5916C32.9775 26.3438 33.046 26.0747 33.06 25.8ZM27.31 26.59C27.31 25 28.51 24.13 30.7 24L33.06 23.85V23.18C33.06 22.18 32.41 21.65 31.25 21.65C30.8523 21.6063 30.4522 21.7077 30.1233 21.9355C29.7944 22.1633 29.5588 22.5023 29.46 22.89H27.75C27.8 21.31 29.29 20.16 31.3 20.16C33.31 20.16 34.87 21.29 34.87 23.05V29.11H33.12V27.65C32.8377 28.1425 32.4251 28.5476 31.9277 28.8211C31.4302 29.0945 30.8671 29.2256 30.3 29.2C28.54 29.2 27.31 28.16 27.31 26.59ZM36.48 32.37V30.91C36.6632 30.9208 36.8468 30.9208 37.03 30.91C37.4058 30.9375 37.7783 30.8235 38.0744 30.5903C38.3704 30.3572 38.5686 30.0218 38.63 29.65L38.8 29.11L35.6 20.27H37.6L39.83 27.47H39.88L42.1 20.27H44L40.68 29.58C39.92 31.72 39.05 32.42 37.21 32.42C36.9658 32.419 36.722 32.4023 36.48 32.37Z" fill="black"/>
</svg>
