<svg width="48" height="48" viewBox="0 0 48 48" fill="none" xmlns="http://www.w3.org/2000/svg">
<path fill-rule="evenodd" clip-rule="evenodd" d="M39.83 20.49H38.34L36.61 26.09L34.88 20.49H33.31L35.8 27.39L35.67 27.81C35.6255 28.1033 35.4721 28.3691 35.2405 28.5544C35.0089 28.7397 34.7159 28.831 34.42 28.81H33.99V29.95C34.1797 29.9658 34.3703 29.9658 34.56 29.95C35.99 29.95 36.67 29.41 37.26 27.75L39.83 20.49ZM32.74 22.65C32.74 21.28 31.64 20.4 29.96 20.4C28.28 20.4 27.24 21.3 27.2 22.52H28.53C28.5993 22.2122 28.779 21.9404 29.0352 21.7561C29.2913 21.5718 29.6061 21.4878 29.92 21.52C30.82 21.52 31.32 21.93 31.32 22.71V23.23L29.49 23.34C27.78 23.45 26.85 24.15 26.85 25.34C26.8591 25.6278 26.9279 25.9105 27.052 26.1704C27.1761 26.4302 27.3528 26.6614 27.5708 26.8494C27.7889 27.0374 28.0437 27.1781 28.3189 27.2626C28.5942 27.347 28.884 27.3734 29.17 27.34C29.6063 27.3543 30.0384 27.2503 30.4204 27.0391C30.8024 26.8278 31.1202 26.5171 31.34 26.14V27.27H32.7V22.65H32.74ZM26.49 21C26.5041 20.5874 26.4329 20.1763 26.2808 19.7925C26.1288 19.4087 25.8991 19.0604 25.6062 18.7694C25.3134 18.4784 24.9636 18.251 24.5788 18.1014C24.194 17.9518 23.7825 17.8832 23.37 17.9H19.81V27.37H21.28V24.13H23.28C23.7024 24.1601 24.1265 24.1004 24.5242 23.9548C24.9219 23.8093 25.2843 23.5812 25.5875 23.2855C25.8908 22.9898 26.128 22.6333 26.2835 22.2394C26.439 21.8455 26.5094 21.4231 26.49 21ZM17.08 24.71C16.6752 24.5297 16.3309 24.2368 16.088 23.8663C15.8451 23.4957 15.7139 23.0631 15.71 22.62C15.7074 22.2193 15.8082 21.8248 16.0027 21.4744C16.1971 21.1241 16.4786 20.8298 16.82 20.62C16.6047 20.3199 16.3231 20.0735 15.997 19.9001C15.6709 19.7266 15.3092 19.6308 14.94 19.62C14.09 19.57 13.37 20.1 12.94 20.1C12.51 20.1 11.94 19.64 11.25 19.66C10.8144 19.679 10.3915 19.813 10.0244 20.0483C9.65732 20.2837 9.35908 20.612 9.16 21C8.25 22.57 8.92 24.89 9.81 26.17C10.24 26.8 10.81 27.49 11.44 27.46C12.07 27.43 12.34 27 13.12 27C13.9 27 14.12 27.41 14.81 27.41C15.5 27.41 15.95 26.78 16.39 26.14C16.686 25.7017 16.9183 25.2236 17.08 24.72V24.71ZM12.87 19.54C13.1647 19.5463 13.457 19.4846 13.724 19.3597C13.9911 19.2349 14.2258 19.0502 14.41 18.82C14.7979 18.3617 14.9885 17.7684 14.94 17.17C14.3436 17.2349 13.7971 17.5333 13.42 18C13.0483 18.4252 12.8517 18.9755 12.87 19.54ZM44 11.33V35.78C44 36.6632 43.6492 37.5102 43.0247 38.1347C42.4002 38.7592 41.5532 39.11 40.67 39.11H7.33C6.44683 39.11 5.59983 38.7592 4.97533 38.1347C4.35084 37.5102 4 36.6632 4 35.78V11.33C4 10.4468 4.35084 9.59983 4.97533 8.97533C5.59983 8.35084 6.44683 8 7.33 8H40.67C41.5532 8 42.4002 8.35084 43.0247 8.97533C43.6492 9.59983 44 10.4468 44 11.33ZM28.28 25.33C28.28 25.91 28.78 26.28 29.57 26.28C29.7858 26.3005 30.0035 26.277 30.2099 26.2109C30.4164 26.1447 30.6072 26.0373 30.7709 25.8952C30.9345 25.753 31.0676 25.5791 31.162 25.384C31.2564 25.1888 31.3101 24.9765 31.32 24.76V24.23L29.69 24.33C28.76 24.42 28.28 24.76 28.28 25.36V25.33ZM25 21C25.0184 21.2625 24.9783 21.5259 24.8826 21.7711C24.787 22.0162 24.6382 22.2372 24.4469 22.4179C24.2556 22.5987 24.0266 22.7348 23.7765 22.8164C23.5263 22.898 23.2611 22.9232 23 22.89H21.28V19.13H23C23.2596 19.0954 23.5237 19.1189 23.7732 19.1987C24.0227 19.2785 24.2513 19.4127 24.4426 19.5916C24.634 19.7705 24.7832 19.9896 24.8796 20.2332C24.976 20.4767 25.0171 20.7386 25 21Z" fill="black"/>
</svg>
