<svg width="48" height="48" viewBox="0 0 48 48" fill="none" xmlns="http://www.w3.org/2000/svg">
<path fill-rule="evenodd" clip-rule="evenodd" d="M38.69 34.05C38.1638 35.2732 37.5138 36.4393 36.75 37.53C36.0327 38.6184 35.1976 39.6245 34.26 40.53C33.411 41.4035 32.266 41.9278 31.05 42C30.0301 41.9559 29.0283 41.7148 28.1 41.29C27.0916 40.8536 26.0085 40.6159 24.91 40.59C23.7819 40.6112 22.6684 40.8488 21.63 41.29C20.7326 41.6821 19.7762 41.9221 18.8 42C18.184 41.9903 17.5763 41.8569 17.0129 41.6078C16.4494 41.3587 15.9418 40.999 15.52 40.55C14.5446 39.6056 13.673 38.5597 12.92 37.43C11.7486 35.7592 10.8194 33.9311 10.16 32C9.40894 29.8867 9.01686 27.6627 9 25.42C8.93913 23.2383 9.48247 21.0823 10.57 19.19C11.3545 17.8191 12.4812 16.6752 13.84 15.87C15.1825 15.066 16.7152 14.6345 18.28 14.62C19.4604 14.6905 20.6202 14.961 21.71 15.42C22.5784 15.8029 23.4926 16.0718 24.43 16.22C25.4595 15.9828 26.4641 15.6479 27.43 15.22C28.7302 14.6921 30.1278 14.4467 31.53 14.5C32.8665 14.5328 34.1773 14.8738 35.3603 15.4965C36.5433 16.1193 37.5665 17.0068 38.35 18.09C37.1125 18.755 36.0836 19.7501 35.3775 20.9646C34.6714 22.1791 34.3157 23.5656 34.35 24.97C34.3378 26.0476 34.5544 27.1155 34.9853 28.1032C35.4163 29.0909 36.0518 29.976 36.85 30.7C37.5722 31.395 38.4163 31.9509 39.34 32.34C39.12 33 38.91 33.52 38.69 34.05ZM31.74 6.72C31.6969 8.57306 30.9867 10.3484 29.74 11.72C28.16 13.57 26.25 14.64 24.17 14.47C24.17 14.25 24.17 14.02 24.17 13.79C24.2327 11.8944 24.9744 10.0845 26.26 8.69C26.974 7.90846 27.8334 7.27332 28.79 6.82C29.6959 6.35606 30.6852 6.07729 31.7 6C31.7283 6.23894 31.7416 6.4794 31.74 6.72Z" fill="black"/>
</svg>
