<svg width="48" height="48" viewBox="0 0 48 48" fill="none" xmlns="http://www.w3.org/2000/svg">
<path d="M20.71 28.5V22L18.06 28.5H17.06L14.45 22V28.5H13.19V19.67H14.74L17.53 26.67H17.58L20.38 19.67H22V28.5H20.71ZM28.77 28.5H27.51V27.39H27.46C27.294 27.7741 27.0118 28.0965 26.653 28.3117C26.2943 28.527 25.877 28.6243 25.46 28.59C25.1476 28.606 24.8356 28.553 24.546 28.4347C24.2564 28.3165 23.9964 28.136 23.7845 27.9059C23.5726 27.6758 23.414 27.4019 23.3198 27.1037C23.2257 26.8054 23.1985 26.49 23.24 26.18V22H24.54V25.9C24.54 26.9 25.02 27.4 25.89 27.4C26.105 27.4051 26.3186 27.3633 26.5158 27.2774C26.713 27.1915 26.8891 27.0637 27.0319 26.9029C27.1747 26.742 27.2807 26.5519 27.3425 26.3459C27.4044 26.1399 27.4206 25.9229 27.39 25.71V22H28.69L28.74 28.46L28.77 28.5ZM32.33 21.94C32.6245 21.8996 32.9242 21.9201 33.2104 22.0002C33.4967 22.0804 33.7634 22.2186 33.9941 22.4061C34.2247 22.5936 34.4144 22.8265 34.5513 23.0904C34.6882 23.3543 34.7695 23.6434 34.79 23.94H33.59C33.5524 23.6417 33.3995 23.37 33.1639 23.183C32.9284 22.9961 32.6291 22.9089 32.33 22.94C31.61 22.94 31.13 23.28 31.13 23.81C31.13 24.34 31.42 24.49 32.13 24.63L33.13 24.87C34.44 25.16 34.92 25.69 34.92 26.61C34.92 27.76 33.86 28.61 32.36 28.61C30.86 28.61 29.81 27.84 29.71 26.61H31C31.022 26.7648 31.0745 26.9136 31.1545 27.0479C31.2344 27.1822 31.3403 27.2992 31.4659 27.3923C31.5915 27.4853 31.7343 27.5525 31.8861 27.5898C32.0379 27.6272 32.1956 27.6341 32.35 27.61C33.12 27.61 33.61 27.27 33.61 26.74C33.61 26.21 33.37 26.07 32.69 25.92L31.69 25.68C30.48 25.39 29.9 24.82 29.9 23.85C29.9 22.88 30.84 21.94 32.33 21.94ZM35.85 20.35C35.85 20.1458 35.9311 19.9499 36.0755 19.8055C36.2199 19.6611 36.4158 19.58 36.62 19.58C36.8242 19.58 37.0201 19.6611 37.1645 19.8055C37.3089 19.9499 37.39 20.1458 37.39 20.35C37.39 20.5542 37.3089 20.7501 37.1645 20.8945C37.0201 21.0389 36.8242 21.12 36.62 21.12C36.4158 21.12 36.2199 21.0389 36.0755 20.8945C35.9311 20.7501 35.85 20.5542 35.85 20.35ZM36 22H37.3V28.5H36V22ZM42.8 24.22C42.7368 23.8617 42.5438 23.5392 42.2579 23.3141C41.972 23.0891 41.6132 22.9773 41.25 23C40.25 23 39.56 23.87 39.56 25.22C39.56 26.57 40.24 27.44 41.25 27.44C41.6054 27.4593 41.9553 27.3464 42.2323 27.1229C42.5092 26.8995 42.6937 26.5814 42.75 26.23H44C43.9315 26.8977 43.6066 27.5127 43.0936 27.9454C42.5806 28.3782 41.9197 28.595 41.25 28.55C39.42 28.55 38.25 27.29 38.25 25.22C38.25 23.15 39.41 21.89 41.25 21.89C41.9197 21.845 42.5806 22.0618 43.0936 22.4946C43.6066 22.9273 43.9315 23.5423 44 24.21H42.75L42.8 24.22ZM9.19 20.54C9.02338 20.752 8.81079 20.9233 8.56826 21.0411C8.32574 21.1589 8.05962 21.2201 7.79 21.22C7.76433 20.9505 7.79363 20.6786 7.87614 20.4208C7.95865 20.1629 8.09264 19.9245 8.27 19.72C8.43966 19.5083 8.65202 19.3348 8.89325 19.2108C9.13448 19.0867 9.39915 19.0149 9.67 19C9.70777 19.5552 9.53656 20.1045 9.19 20.54ZM9.67 21.31C10.0199 21.3209 10.3617 21.4178 10.6652 21.5922C10.9686 21.7666 11.2245 22.0132 11.41 22.31C11.1092 22.5129 10.8614 22.785 10.6874 23.1034C10.5134 23.4218 10.4183 23.7773 10.41 24.14C10.4182 24.5359 10.5392 24.9213 10.7589 25.2507C10.9785 25.5802 11.2877 25.8402 11.65 26C11.5091 26.4951 11.2897 26.9644 11 27.39C10.64 28 10.2 28.55 9.58 28.55C8.96 28.55 8.76 28.16 8 28.16C7.24 28.16 7 28.55 6.46 28.55C5.92 28.55 5.38 27.92 5 27.34C4.18 26.14 3.55 24 4.42 22.52C4.60656 22.1661 4.88331 21.8679 5.22224 21.6554C5.56116 21.4429 5.95021 21.3237 6.35 21.31C6.97 21.31 7.55 21.75 7.89 21.75C8.23 21.75 8.89 21.27 9.67 21.31Z" fill="black"/>
</svg>
