<svg width="48" height="48" viewBox="0 0 48 48" fill="none" xmlns="http://www.w3.org/2000/svg">
<path d="M24 44C20.0444 44 16.1776 42.827 12.8886 40.6294C9.59962 38.4318 7.03617 35.3082 5.52242 31.6537C4.00867 27.9992 3.6126 23.9778 4.3843 20.0982C5.15601 16.2186 7.06082 12.6549 9.85787 9.85787C12.6549 7.06082 16.2186 5.15601 20.0982 4.3843C23.9778 3.6126 27.9992 4.00867 31.6537 5.52242C35.3082 7.03617 38.4318 9.59962 40.6294 12.8886C42.827 16.1776 44 20.0444 44 24C44 29.3043 41.8929 34.3914 38.1421 38.1421C34.3914 41.8929 29.3043 44 24 44ZM24 9.22001C21.0768 9.22001 18.2192 10.0868 15.7887 11.7109C13.3581 13.3349 11.4637 15.6433 10.3451 18.3439C9.22641 21.0446 8.93371 24.0164 9.504 26.8834C10.0743 29.7505 11.4819 32.384 13.549 34.451C15.616 36.5181 18.2495 37.9257 21.1166 38.496C23.9836 39.0663 26.9554 38.7736 29.6561 37.6549C32.3568 36.5363 34.6651 34.6419 36.2891 32.2113C37.9132 29.7808 38.78 26.9232 38.78 24C38.7747 20.0817 37.2158 16.3255 34.4452 13.5548C31.6746 10.7842 27.9183 9.2253 24 9.22001Z" fill="black"/>
<path d="M32.44 19.79L26.29 13.64C25.6825 13.033 24.8588 12.6921 24 12.6921C23.1412 12.6921 22.3175 13.033 21.71 13.64L15.57 19.78C15.1261 20.2768 14.8889 20.9246 14.9071 21.5906C14.9254 22.2566 15.1976 22.8904 15.6681 23.3622C16.1386 23.8339 16.7717 24.1079 17.4376 24.128C18.1036 24.148 18.752 23.9126 19.25 23.47L21.39 21.33V32.7C21.39 33.3922 21.665 34.0561 22.1545 34.5456C22.6439 35.035 23.3078 35.31 24 35.31C24.6922 35.31 25.3561 35.035 25.8456 34.5456C26.335 34.0561 26.61 33.3922 26.61 32.7V21.34L28.75 23.48C29.2407 23.9667 29.9039 24.2398 30.595 24.2398C31.2861 24.2398 31.9493 23.9667 32.44 23.48C32.9243 22.988 33.1957 22.3254 33.1957 21.635C33.1957 20.9447 32.9243 20.282 32.44 19.79Z" fill="black"/>
</svg>
