<svg width="48" height="48" viewBox="0 0 48 48" fill="none" xmlns="http://www.w3.org/2000/svg">
<path d="M24 4C20.0444 4 16.1776 5.17298 12.8886 7.37061C9.59962 9.56824 7.03617 12.6918 5.52242 16.3463C4.00867 20.0009 3.6126 24.0222 4.3843 27.9018C5.15601 31.7814 7.06082 35.3451 9.85787 38.1421C12.6549 40.9392 16.2186 42.844 20.0982 43.6157C23.9778 44.3874 27.9992 43.9913 31.6537 42.4776C35.3082 40.9638 38.4318 38.4004 40.6294 35.1114C42.827 31.8224 44 27.9556 44 24C44 18.6957 41.8929 13.6086 38.1421 9.85786C34.3914 6.10714 29.3043 4 24 4ZM34.35 26.29L28.21 32.43C27.7132 32.874 27.0654 33.1111 26.3994 33.0929C25.7334 33.0746 25.0996 32.8024 24.6278 32.3319C24.1561 31.8614 23.8821 31.2283 23.8621 30.5624C23.842 29.8964 24.0774 29.248 24.52 28.75L26.66 26.61H15.3C14.6078 26.61 13.9439 26.335 13.4545 25.8455C12.965 25.3561 12.69 24.6922 12.69 24C12.69 23.3078 12.965 22.6439 13.4545 22.1545C13.9439 21.665 14.6078 21.39 15.3 21.39H26.66L24.52 19.25C24.0502 18.7567 23.7919 18.0993 23.8002 17.4182C23.8085 16.737 24.0828 16.0861 24.5645 15.6045C25.0461 15.1228 25.697 14.8485 26.3782 14.8402C27.0593 14.8319 27.7167 15.0902 28.21 15.56L34.35 21.71C34.6518 22.0102 34.8912 22.367 35.0546 22.76C35.218 23.153 35.3021 23.5744 35.3021 24C35.3021 24.4256 35.218 24.847 35.0546 25.24C34.8912 25.633 34.6518 25.9898 34.35 26.29Z" fill="black"/>
</svg>
