<svg width="48" height="48" viewBox="0 0 48 48" fill="none" xmlns="http://www.w3.org/2000/svg">
<path d="M41.3994 21.3685H12.3951L21.1264 12.6373C21.3688 12.3943 21.5609 12.1059 21.6917 11.7887C21.8226 11.4715 21.8898 11.1316 21.8893 10.7884C21.8888 10.4453 21.8208 10.1056 21.689 9.78871C21.5573 9.47184 21.3644 9.18403 21.1214 8.94171C20.8785 8.69938 20.5901 8.50729 20.2729 8.3764C19.9557 8.2455 19.6158 8.17837 19.2726 8.17884C18.9295 8.1793 18.5898 8.24735 18.2729 8.3791C17.956 8.51085 17.6682 8.70373 17.4259 8.94671L5.13407 21.2385C4.47924 21.8918 4.07856 22.757 4.0039 23.6789C4.0039 23.7789 4.0039 23.8789 4.0039 23.9789C3.99845 24.0722 3.99845 24.1657 4.0039 24.259C4.05867 25.1857 4.44988 26.0606 5.10407 26.7193L17.4259 39.0112C17.666 39.2633 17.9541 39.4648 18.2733 39.6039C18.5924 39.743 18.9362 39.8168 19.2843 39.8211C19.6325 39.8253 19.9779 39.7599 20.3004 39.6286C20.6229 39.4973 20.9158 39.3029 21.162 39.0567C21.4082 38.8105 21.6026 38.5176 21.7339 38.1951C21.8652 37.8727 21.9306 37.5272 21.9264 37.1791C21.9221 36.8309 21.8483 36.4872 21.7092 36.168C21.5701 35.8488 21.3685 35.5607 21.1164 35.3206L12.3851 26.5893H41.3894C42.0817 26.5893 42.7457 26.3143 43.2352 25.8248C43.7248 25.3352 43.9998 24.6712 43.9998 23.9789C43.9998 23.2866 43.7248 22.6227 43.2352 22.1331C42.7457 21.6436 42.0817 21.3685 41.3894 21.3685H41.3994Z" fill="black"/>
</svg>
