<svg width="48" height="48" viewBox="0 0 48 48" fill="none" xmlns="http://www.w3.org/2000/svg">
<path d="M36.0401 30.0852H17.7444L21.975 25.8546C22.4187 25.3553 22.6547 24.7053 22.6346 24.0377C22.6145 23.37 22.3398 22.7354 21.8669 22.2637C21.3939 21.792 20.7585 21.5191 20.0908 21.5008C19.4232 21.4825 18.7738 21.7203 18.2757 22.1654L10.4963 29.9348C9.90051 30.5439 9.51426 31.3269 9.39351 32.1704C9.37819 32.3471 9.37819 32.5249 9.39351 32.7017C9.39191 33.2209 9.49294 33.7353 9.69079 34.2153C9.88864 34.6953 10.1794 35.1314 10.5464 35.4987L18.3258 43.2781C18.8204 43.7491 19.4794 44.0081 20.1623 43.9997C20.8451 43.9914 21.4976 43.7165 21.9805 43.2336C22.4634 42.7507 22.7384 42.0982 22.7467 41.4153C22.755 40.7325 22.4961 40.0734 22.0251 39.5789L17.6943 35.3182H36.0401C36.7341 35.3182 37.3996 35.0426 37.8903 34.5519C38.381 34.0612 38.6567 33.3956 38.6567 32.7017C38.6567 32.0077 38.381 31.3422 37.8903 30.8515C37.3996 30.3608 36.7341 30.0852 36.0401 30.0852Z" fill="black"/>
<path d="M11.9599 17.9348H30.2557L26.0251 22.1654C25.7594 22.4027 25.5451 22.6919 25.3951 23.0151C25.2452 23.3382 25.1628 23.6886 25.153 24.0448C25.1433 24.4009 25.2063 24.7553 25.3384 25.0862C25.4704 25.417 25.6687 25.7175 25.9209 25.9691C26.1732 26.2206 26.4742 26.4181 26.8054 26.5492C27.1367 26.6803 27.4912 26.7425 27.8473 26.7317C28.2034 26.721 28.5536 26.6377 28.8763 26.4869C29.1991 26.336 29.4877 26.1209 29.7243 25.8546L37.5038 18.0852C38.0995 17.476 38.4858 16.693 38.6065 15.8496C38.6219 15.6728 38.6219 15.495 38.6065 15.3182C38.6081 14.7991 38.5071 14.2847 38.3093 13.8047C38.1114 13.3247 37.8206 12.8885 37.4537 12.5212L29.7243 4.72174C29.2298 4.25078 28.5708 3.99181 27.8879 4.00013C27.2051 4.00846 26.5525 4.28342 26.0697 4.76631C25.5868 5.24919 25.3118 5.90173 25.3035 6.58458C25.2952 7.26743 25.5541 7.92648 26.0251 8.42099L30.3058 12.7017H11.9599C11.266 12.7017 10.6004 12.9774 10.1098 13.4681C9.61905 13.9588 9.34338 14.6243 9.34338 15.3182C9.34338 16.0122 9.61905 16.6777 10.1098 17.1684C10.6004 17.6591 11.266 17.9348 11.9599 17.9348Z" fill="black"/>
</svg>
