<svg width="48" height="48" viewBox="0 0 48 48" fill="none" xmlns="http://www.w3.org/2000/svg">
<path d="M16.0022 8.76655H10.7037L20.451 18.4644C20.7162 18.7227 20.8677 19.0756 20.8724 19.4455C20.8771 19.8155 20.7345 20.1721 20.476 20.437C20.2175 20.7019 19.8642 20.8533 19.4939 20.858C19.1237 20.8627 18.7667 20.7202 18.5015 20.462L8.77423 10.7441V15.9875C8.79054 16.1791 8.76685 16.3719 8.70467 16.5538C8.64249 16.7357 8.54317 16.9028 8.41301 17.0443C8.28285 17.1859 8.12467 17.2989 7.94851 17.3762C7.77234 17.4535 7.58203 17.4935 7.38962 17.4935C7.1972 17.4935 7.00689 17.4535 6.83072 17.3762C6.65456 17.2989 6.49639 17.1859 6.36622 17.0443C6.23606 16.9028 6.13674 16.7357 6.07456 16.5538C6.01238 16.3719 5.98869 16.1791 6.005 15.9875V8.30713C6.00481 8.0067 6.06386 7.70919 6.17879 7.43157C6.29372 7.15395 6.46227 6.90167 6.67481 6.68915C6.88791 6.47035 7.14286 6.2966 7.42452 6.17821C7.70618 6.05982 8.00879 5.99922 8.31436 6.00001H16.0022C16.3691 6 16.721 6.14489 16.9813 6.40308C17.2416 6.66128 17.3892 7.01183 17.3919 7.37829C17.3919 7.5606 17.3559 7.74112 17.2861 7.90955C17.2162 8.07799 17.1139 8.23103 16.9848 8.35994C16.8558 8.48885 16.7026 8.59111 16.534 8.66088C16.3654 8.73065 16.1847 8.76655 16.0022 8.76655Z" fill="black"/>
<path d="M41.9254 31.4512C41.9876 31.6331 42.0113 31.8259 41.995 32.0175L41.975 39.7079C41.9755 40.3048 41.7422 40.8783 41.3252 41.3059C41.1121 41.5247 40.8571 41.6984 40.5755 41.8168C40.2938 41.9352 39.9912 41.9958 39.6856 41.995H32.0477C31.856 42.0113 31.663 41.9876 31.4809 41.9255C31.2988 41.8634 31.1316 41.7642 30.9899 41.6341C30.8482 41.5041 30.7351 41.3461 30.6577 41.1701C30.5803 40.9941 30.5404 40.804 30.5404 40.6117C30.5404 40.4195 30.5803 40.2294 30.6577 40.0534C30.7351 39.8774 30.8482 39.7194 30.9899 39.5893C31.1316 39.4593 31.2988 39.3601 31.4809 39.298C31.663 39.2358 31.856 39.2122 32.0477 39.2285H37.2963L27.549 29.4906C27.4177 29.3627 27.3129 29.2103 27.2406 29.0419C27.1683 28.8736 27.1299 28.6927 27.1276 28.5095C27.1253 28.3264 27.1591 28.1445 27.2271 27.9744C27.2951 27.8043 27.396 27.6492 27.524 27.5181C27.652 27.3869 27.8046 27.2822 27.9731 27.21C28.1416 27.1378 28.3227 27.0994 28.5061 27.0971C28.6894 27.0948 28.8714 27.1285 29.0417 27.1965C29.212 27.2644 29.3672 27.3652 29.4985 27.4931L39.2258 37.211V32.0175C39.2095 31.8259 39.2332 31.6331 39.2953 31.4512C39.3575 31.2693 39.4568 31.1022 39.587 30.9607C39.7172 30.8191 39.8753 30.7061 40.0515 30.6288C40.2277 30.5515 40.418 30.5116 40.6104 30.5116C40.8028 30.5116 40.9931 30.5515 41.1693 30.6288C41.3454 30.7061 41.5036 30.8191 41.6338 30.9607C41.7639 31.1022 41.8633 31.2693 41.9254 31.4512Z" fill="black"/>
</svg>
