<svg width="48" height="48" viewBox="0 0 48 48" fill="none" xmlns="http://www.w3.org/2000/svg">
<path d="M24.5475 26.87C24.7187 26.9412 24.8741 27.0455 25.0048 27.177C25.138 27.313 25.2422 27.4746 25.3111 27.6521C25.38 27.8295 25.4122 28.0191 25.4056 28.2094C25.3991 28.3996 25.354 28.5865 25.2731 28.7588C25.1922 28.9311 25.0772 29.0852 24.935 29.2118L16.6563 37.4904C16.2046 37.9373 15.613 38.2155 14.9807 38.2784C14.8879 38.2887 14.7942 38.2887 14.7014 38.2784C14.3313 38.281 13.9643 38.2101 13.6219 38.0697C13.2794 37.9293 12.9683 37.7222 12.7065 37.4605L4.4279 29.1819C4.2927 29.0533 4.18505 28.8986 4.11149 28.7271C4.03793 28.5556 4 28.371 4 28.1844C4 27.9979 4.03793 27.8132 4.11149 27.6418C4.18505 27.4703 4.2927 27.3156 4.4279 27.187C4.55647 27.0518 4.71119 26.9442 4.88265 26.8706C5.05412 26.797 5.23875 26.7591 5.42532 26.7591C5.6119 26.7591 5.79653 26.797 5.96799 26.8706C6.13946 26.9442 6.29417 27.0518 6.42275 27.187L13.3549 34.169V11.2282C13.3385 11.0356 13.3624 10.8416 13.4249 10.6587C13.4874 10.4758 13.5872 10.3078 13.718 10.1655C13.8488 10.0231 14.0078 9.90948 14.1848 9.83174C14.3617 9.75401 14.553 9.71387 14.7463 9.71387C14.9396 9.71387 15.1308 9.75401 15.3078 9.83174C15.4848 9.90948 15.6437 10.0231 15.7745 10.1655C15.9053 10.3078 16.0051 10.4758 16.0676 10.6587C16.1302 10.8416 16.154 11.0356 16.1377 11.2282V34.0293L23.01 27.177C23.1407 27.0455 23.2961 26.9412 23.4672 26.87C23.6384 26.7988 23.822 26.7621 24.0074 26.7621C24.1928 26.7621 24.3763 26.7988 24.5475 26.87Z" fill="black"/>
<path d="M35.2683 10.6497L43.547 18.9284L43.5868 18.9084C43.7178 19.0394 43.8217 19.1949 43.8926 19.366C43.9635 19.5372 44 19.7206 44 19.9059C44 20.0911 43.9635 20.2745 43.8926 20.4457C43.8217 20.6168 43.7178 20.7723 43.5868 20.9033C43.4559 21.0343 43.3004 21.1382 43.1292 21.2091C42.9581 21.2799 42.7747 21.3164 42.5894 21.3164C42.4042 21.3164 42.2208 21.2799 42.0496 21.2091C41.8785 21.1382 41.723 21.0343 41.592 20.9033L34.6599 13.9213V36.8621C34.6303 37.2108 34.4709 37.5357 34.2133 37.7724C33.9556 38.0092 33.6184 38.1406 33.2685 38.1406C32.9185 38.1406 32.5814 38.0092 32.3237 37.7724C32.066 37.5357 31.9066 37.2108 31.8771 36.8621V14.0709L25.0048 20.9232C24.7403 21.1878 24.3815 21.3364 24.0074 21.3364C23.6333 21.3364 23.2745 21.1878 23.0099 20.9232C22.7454 20.6587 22.5968 20.2999 22.5968 19.9258C22.5968 19.5517 22.7454 19.1929 23.0099 18.9284L31.3085 10.6198C31.7639 10.1781 32.3536 9.90086 32.9842 9.83184C33.0803 9.8213 33.1773 9.8213 33.2735 9.83184C33.6434 9.83028 34.0101 9.90172 34.3524 10.0421C34.6947 10.1824 35.0059 10.3889 35.2683 10.6497Z" fill="black"/>
</svg>
