<svg width="48" height="48" viewBox="0 0 48 48" fill="none" xmlns="http://www.w3.org/2000/svg">
<path d="M42.4866 22.6268H8.19459L19.8778 10.9436C20.0129 10.8151 20.1205 10.6605 20.194 10.4891C20.2675 10.3177 20.3055 10.1332 20.3055 9.94673C20.3055 9.76026 20.2675 9.57574 20.194 9.40437C20.1205 9.233 20.0129 9.07837 19.8778 8.94987C19.7493 8.81475 19.5947 8.70716 19.4233 8.63364C19.2519 8.56013 19.0674 8.52222 18.8809 8.52222C18.6945 8.52222 18.5099 8.56013 18.3386 8.63364C18.1672 8.70716 18.0126 8.81475 17.8841 8.94987L4.80527 22.0785C4.35498 22.5246 4.07317 23.1129 4.00778 23.7433C3.99749 23.836 3.99749 23.9297 4.00778 24.0224C3.99796 24.1152 3.99796 24.2087 4.00778 24.3015C4.06258 24.9279 4.33816 25.5143 4.78533 25.9563L17.9638 39.065C18.2282 39.3294 18.5868 39.478 18.9607 39.478C19.3346 39.478 19.6932 39.3294 19.9576 39.065C20.2219 38.8007 20.3705 38.4421 20.3705 38.0682C20.3705 37.6943 20.2219 37.3357 19.9576 37.0713L8.14475 25.408H42.4866C42.6791 25.4244 42.8729 25.4005 43.0558 25.338C43.2386 25.2756 43.4064 25.1758 43.5487 25.0451C43.691 24.9144 43.8046 24.7555 43.8822 24.5786C43.9599 24.4017 44.0001 24.2106 44.0001 24.0174C44.0001 23.8242 43.9599 23.6331 43.8822 23.4562C43.8046 23.2793 43.691 23.1205 43.5487 22.9898C43.4064 22.859 43.2386 22.7593 43.0558 22.6968C42.8729 22.6343 42.6791 22.6105 42.4866 22.6268Z" fill="black"/>
</svg>
