<svg width="48" height="48" viewBox="0 0 48 48" fill="none" xmlns="http://www.w3.org/2000/svg">
<path d="M24 44C20.0444 44 16.1776 42.827 12.8886 40.6294C9.59961 38.4318 7.03616 35.3082 5.52241 31.6537C4.00866 27.9992 3.61259 23.9778 4.3843 20.0982C5.156 16.2186 7.06082 12.6549 9.85787 9.85787C12.6549 7.06082 16.2186 5.15601 20.0982 4.3843C23.9778 3.6126 27.9991 4.00867 31.6537 5.52242C35.3082 7.03617 38.4318 9.59962 40.6294 12.8886C42.827 16.1776 44 20.0444 44 24C44 29.3043 41.8929 34.3914 38.1421 38.1421C34.3914 41.8929 29.3043 44 24 44ZM24 9.22001C21.0768 9.22001 18.2192 10.0868 15.7887 11.7109C13.3581 13.3349 11.4637 15.6433 10.3451 18.3439C9.2264 21.0446 8.93371 24.0164 9.50399 26.8834C10.0743 29.7505 11.4819 32.384 13.549 34.451C15.616 36.5181 18.2495 37.9257 21.1166 38.496C23.9836 39.0663 26.9554 38.7736 29.6561 37.6549C32.3568 36.5363 34.6651 34.6419 36.2891 32.2113C37.9132 29.7808 38.78 26.9232 38.78 24C38.7747 20.0817 37.2158 16.3255 34.4452 13.5548C31.6746 10.7842 27.9183 9.2253 24 9.22001Z" fill="black"/>
<path d="M32.44 24.52C31.9506 24.0309 31.2869 23.7561 30.595 23.7561C29.9031 23.7561 29.2394 24.0309 28.75 24.52L26.61 26.66V15.3C26.61 14.6078 26.335 13.9439 25.8456 13.4545C25.3561 12.965 24.6922 12.69 24 12.69C23.3078 12.69 22.6439 12.965 22.1545 13.4545C21.665 13.9439 21.39 14.6078 21.39 15.3V26.66L19.25 24.52C18.752 24.0774 18.1036 23.842 17.4376 23.8621C16.7717 23.8821 16.1386 24.1561 15.6681 24.6278C15.1976 25.0996 14.9254 25.7334 14.9071 26.3994C14.8889 27.0654 15.126 27.7132 15.57 28.21L21.7 34.35C22.3174 34.9485 23.1402 35.2884 24 35.3C24.426 35.3036 24.8483 35.2214 25.2417 35.0582C25.6352 34.8949 25.9917 34.6541 26.29 34.35L32.44 28.21C32.9243 27.718 33.1957 27.0554 33.1957 26.365C33.1957 25.6747 32.9243 25.012 32.44 24.52Z" fill="black"/>
</svg>
