<svg width="48" height="48" viewBox="0 0 48 48" fill="none" xmlns="http://www.w3.org/2000/svg">
<path d="M39.0117 26.8857C38.5222 26.3964 37.8584 26.1216 37.1663 26.1216C36.4742 26.1216 35.8104 26.3964 35.3208 26.8857L26.5887 35.6179V6.61065C26.5887 5.91826 26.3136 5.25423 25.824 4.76464C25.3344 4.27505 24.6704 4 23.978 4C23.2856 4 22.6216 4.27505 22.132 4.76464C21.6424 5.25423 21.3674 5.91826 21.3674 6.61065V35.6179L12.6352 26.8857C12.1418 26.4158 11.4842 26.1574 10.8029 26.1657C10.1216 26.174 9.47053 26.4484 8.98873 26.9301C8.50693 27.4119 8.23259 28.063 8.22428 28.7443C8.21598 29.4256 8.47436 30.0832 8.94427 30.5766L21.2373 42.8597C21.5946 43.2234 22.0213 43.5117 22.4921 43.7076C22.9628 43.9035 23.4681 44.0029 23.978 43.9999C24.4826 43.9972 24.9817 43.8951 25.4468 43.6995C25.9119 43.5038 26.3339 43.2185 26.6887 42.8597L39.0117 30.5766C39.501 30.0871 39.7758 29.4233 39.7758 28.7311C39.7758 28.039 39.501 27.3752 39.0117 26.8857Z" fill="black"/>
</svg>
