<svg width="48" height="48" viewBox="0 0 48 48" fill="none" xmlns="http://www.w3.org/2000/svg">
<path d="M43.9893 23.9999C44.0046 23.847 44.0046 23.6929 43.9893 23.5399C43.8951 22.6783 43.5108 21.8743 42.8993 21.2599L30.5693 8.96994C30.076 8.50015 29.4186 8.24183 28.7374 8.25013C28.0563 8.25844 27.4054 8.53271 26.9237 9.01439C26.442 9.49607 26.1678 10.147 26.1595 10.8281C26.1512 11.5093 26.4095 12.1667 26.8793 12.6599L35.6093 21.3899H6.60927C5.91705 21.3899 5.25319 21.6649 4.76372 22.1544C4.27425 22.6439 3.99927 23.3077 3.99927 23.9999C3.99927 24.6922 4.27425 25.356 4.76372 25.8455C5.25319 26.335 5.91705 26.6099 6.60927 26.6099H35.6093L26.8793 35.3399C26.4095 35.8332 26.1512 36.4906 26.1595 37.1718C26.1678 37.8529 26.442 38.5038 26.9237 38.9855C27.4054 39.4672 28.0563 39.7414 28.7374 39.7497C29.4186 39.7581 30.076 39.4997 30.5693 39.0299L42.8493 26.7399C43.4873 26.1348 43.8911 25.3238 43.9893 24.4499C44.004 24.3003 44.004 24.1496 43.9893 23.9999Z" fill="black"/>
</svg>
