<svg width="48" height="48" viewBox="0 0 48 48" fill="none" xmlns="http://www.w3.org/2000/svg">
<path d="M10.6039 16.7002C10.1616 16.2441 9.88393 15.6536 9.8148 15.0221C9.80425 14.9258 9.80425 14.8286 9.8148 14.7324C9.81324 14.3619 9.88478 13.9947 10.0253 13.6519C10.1659 13.3091 10.3727 12.9973 10.6339 12.7346L18.9048 4.41376C19.1697 4.14883 19.529 4 19.9037 4C20.2783 4 20.6377 4.14883 20.9026 4.41376C21.1675 4.67868 21.3163 5.038 21.3163 5.41266C21.3163 5.78731 21.1675 6.14663 20.9026 6.41155L13.9103 13.3539H36.8849C37.2341 13.3835 37.5595 13.5431 37.7966 13.8012C38.0337 14.0592 38.1653 14.3969 38.1653 14.7474C38.1653 15.0978 38.0337 15.4355 37.7966 15.6935C37.5595 15.9516 37.2341 16.1112 36.8849 16.1408H14.0401L20.9226 23.0132C21.1875 23.2782 21.3363 23.6375 21.3363 24.0121C21.3363 24.3868 21.1875 24.7461 20.9226 25.011C20.6576 25.276 20.2983 25.4248 19.9237 25.4248C19.549 25.4248 19.1897 25.276 18.9248 25.011L10.6039 16.7002Z" fill="black"/>
<path d="M37.4543 31.3339C37.8998 31.7838 38.1782 32.3723 38.2434 33.0021C38.274 33.0996 38.2941 33.2 38.3033 33.3018C38.3054 33.6723 38.2341 34.0397 38.0936 34.3826C37.953 34.7255 37.7459 35.0371 37.4842 35.2996L29.1934 43.5904C29.0623 43.7215 28.9065 43.8252 28.735 43.8955C28.5635 43.9658 28.3798 44.0013 28.1945 44C27.9191 44 27.6498 43.9187 27.4204 43.7663C27.191 43.6139 27.0117 43.3971 26.905 43.1432C26.7983 42.8893 26.769 42.6095 26.8207 42.339C26.8724 42.0685 27.0028 41.8193 27.1956 41.6226L34.1879 34.6802H11.2132C11.0203 34.6966 10.8261 34.6727 10.6429 34.6101C10.4597 34.5475 10.2915 34.4475 10.1489 34.3165C10.0064 34.1856 9.89256 34.0264 9.81471 33.8491C9.73685 33.6719 9.69666 33.4804 9.69666 33.2868C9.69666 33.0932 9.73685 32.9017 9.81471 32.7244C9.89256 32.5472 10.0064 32.388 10.1489 32.257C10.2915 32.126 10.4597 32.0261 10.6429 31.9635C10.8261 31.9009 11.0203 31.877 11.2132 31.8933H34.018L27.1656 25.0109C27.0344 24.8797 26.9304 24.724 26.8594 24.5526C26.7884 24.3812 26.7518 24.1975 26.7518 24.012C26.7518 23.8265 26.7884 23.6428 26.8594 23.4714C26.9304 23.3 27.0344 23.1443 27.1656 23.0131C27.2968 22.8819 27.4525 22.7779 27.6239 22.7069C27.7953 22.6359 27.979 22.5994 28.1645 22.5994C28.35 22.5994 28.5337 22.6359 28.7051 22.7069C28.8765 22.7779 29.0322 22.8819 29.1634 23.0131L37.4543 31.3339Z" fill="black"/>
</svg>
