<svg width="48" height="48" viewBox="0 0 48 48" fill="none" xmlns="http://www.w3.org/2000/svg">
<path d="M22.1563 26.0183L17.9278 30.2468V11.9602C17.9278 11.6168 17.8602 11.2767 17.7287 10.9594C17.5973 10.6421 17.4047 10.3538 17.1618 10.111C16.919 9.86811 16.6307 9.67547 16.3134 9.54404C15.9961 9.41262 15.656 9.34497 15.3126 9.34497C14.9691 9.34497 14.6291 9.41262 14.3118 9.54404C13.9945 9.67547 13.7062 9.86811 13.4633 10.111C13.2205 10.3538 13.0278 10.6421 12.8964 10.9594C12.765 11.2767 12.6973 11.6168 12.6973 11.9602V30.2969L8.41879 26.0183C7.92452 25.5476 7.26581 25.2887 6.5833 25.2971C5.90079 25.3054 5.24858 25.5802 4.76594 26.0629C4.2833 26.5455 4.00847 27.1977 4.00015 27.8802C3.99183 28.5627 4.25067 29.2214 4.7214 29.7157L12.4969 37.4913C12.8625 37.8573 13.2968 38.1475 13.7748 38.3453C14.2528 38.543 14.7652 38.6444 15.2825 38.6436C15.4592 38.6589 15.6369 38.6589 15.8136 38.6436C16.6566 38.5229 17.4392 38.1368 18.0481 37.5414L25.8136 29.7658C26.0797 29.5293 26.2948 29.2408 26.4455 28.9182C26.5963 28.5956 26.6796 28.2457 26.6903 27.8897C26.701 27.5338 26.6389 27.1794 26.5079 26.8484C26.3768 26.5173 26.1795 26.2164 25.928 25.9643C25.6766 25.7122 25.3763 25.514 25.0455 25.3821C24.7148 25.2501 24.3606 25.187 24.0047 25.1968C23.6487 25.2065 23.2985 25.2889 22.9755 25.4388C22.6525 25.5886 22.3635 25.8029 22.1262 26.0684L22.1563 26.0183Z" fill="black"/>
<path d="M43.2785 18.2728L35.503 10.4973C34.7548 9.76049 33.7474 9.34673 32.6974 9.34497C32.5192 9.34626 32.3415 9.36303 32.1663 9.39507C31.3233 9.51576 30.5406 9.90182 29.9318 10.4973L22.1563 18.2728C21.6662 18.7632 21.3908 19.4282 21.3908 20.1215C21.3908 20.8149 21.6662 21.4798 22.1563 21.9702C22.6463 22.4573 23.3091 22.7307 24 22.7307C24.6908 22.7307 25.3537 22.4573 25.8436 21.9702L30.0721 17.7518V36.0283C30.0721 36.7219 30.3476 37.3871 30.8381 37.8776C31.3285 38.368 31.9937 38.6436 32.6873 38.6436C33.3809 38.6436 34.0461 38.368 34.5366 37.8776C35.027 37.3871 35.3026 36.7219 35.3026 36.0283V17.6917L39.5811 21.9702C40.0754 22.441 40.7341 22.6998 41.4166 22.6915C42.0991 22.6831 42.7513 22.4083 43.234 21.9257C43.7166 21.443 43.9914 20.7908 43.9998 20.1083C44.0081 19.4258 43.7492 18.7671 43.2785 18.2728Z" fill="black"/>
</svg>
