<svg width="48" height="48" viewBox="0 0 48 48" fill="none" xmlns="http://www.w3.org/2000/svg">
<path d="M24 44C20.0444 44 16.1776 42.827 12.8886 40.6294C9.59962 38.4318 7.03617 35.3082 5.52242 31.6537C4.00867 27.9992 3.6126 23.9778 4.3843 20.0982C5.15601 16.2186 7.06082 12.6549 9.85787 9.85787C12.6549 7.06082 16.2186 5.15601 20.0982 4.3843C23.9778 3.6126 27.9992 4.00867 31.6537 5.52242C35.3082 7.03617 38.4318 9.59962 40.6294 12.8886C42.827 16.1776 44 20.0444 44 24C44 29.3043 41.8929 34.3914 38.1421 38.1421C34.3914 41.8929 29.3043 44 24 44ZM24 9.22001C21.0768 9.22001 18.2192 10.0868 15.7887 11.7109C13.3581 13.3349 11.4637 15.6433 10.3451 18.3439C9.22641 21.0446 8.93371 24.0164 9.504 26.8834C10.0743 29.7505 11.4819 32.384 13.549 34.451C15.616 36.5181 18.2495 37.9257 21.1166 38.496C23.9836 39.0663 26.9554 38.7736 29.6561 37.6549C32.3568 36.5363 34.6651 34.6419 36.2891 32.2113C37.9132 29.7808 38.78 26.9232 38.78 24C38.7747 20.0817 37.2158 16.3255 34.4452 13.5548C31.6746 10.7842 27.9183 9.2253 24 9.22001Z" fill="black"/>
<path d="M32.7 21.39H21.34L23.48 19.25C23.9498 18.7567 24.2081 18.0993 24.1998 17.4182C24.1915 16.737 23.9172 16.0861 23.4356 15.6045C22.9539 15.1228 22.303 14.8485 21.6218 14.8402C20.9407 14.8319 20.2833 15.0902 19.79 15.56L13.65 21.71C13.345 22.0076 13.1035 22.364 12.9402 22.7576C12.777 23.1512 12.6952 23.5739 12.7 24C12.7051 24.4292 12.7963 24.853 12.968 25.2463C13.1398 25.6396 13.3887 25.9945 13.7 26.29L19.84 32.43C20.3368 32.874 20.9846 33.1111 21.6506 33.0929C22.3166 33.0746 22.9504 32.8024 23.4222 32.3319C23.8939 31.8614 24.1679 31.2283 24.188 30.5624C24.208 29.8964 23.9726 29.248 23.53 28.75L21.39 26.61H32.7C33.3922 26.61 34.0561 26.335 34.5456 25.8456C35.035 25.3561 35.31 24.6922 35.31 24C35.31 23.3078 35.035 22.6439 34.5456 22.1545C34.0561 21.665 33.3922 21.39 32.7 21.39Z" fill="black"/>
</svg>
