<svg width="48" height="48" viewBox="0 0 48 48" fill="none" xmlns="http://www.w3.org/2000/svg">
<path d="M40.5619 6.17638C40.8398 6.29132 41.0923 6.45989 41.3051 6.67247C41.5241 6.88559 41.6981 7.14058 41.8166 7.42228C41.9351 7.70397 41.9958 8.00662 41.995 8.31224V16.0012C42.0113 16.1929 41.9876 16.386 41.9254 16.5681C41.8632 16.7502 41.7639 16.9174 41.6337 17.0591C41.5035 17.2008 41.3454 17.314 41.1692 17.3914C40.993 17.4688 40.8026 17.5088 40.6102 17.5088C40.4178 17.5088 40.2274 17.4688 40.0512 17.3914C39.875 17.314 39.7168 17.2008 39.5867 17.0591C39.4565 16.9174 39.3571 16.7502 39.295 16.5681C39.2328 16.386 39.2091 16.1929 39.2254 16.0012V10.7019L29.5167 20.5005C29.3854 20.6308 29.2292 20.7334 29.0574 20.8021C28.8857 20.8708 28.7018 20.9043 28.5169 20.9005C28.3318 20.9048 28.1478 20.8716 27.976 20.8029C27.8041 20.7342 27.648 20.6313 27.517 20.5005C27.3828 20.3709 27.276 20.2156 27.203 20.0438C27.1301 19.872 27.0925 19.6873 27.0925 19.5007C27.0925 19.3141 27.1301 19.1293 27.203 18.9576C27.276 18.7858 27.3828 18.6304 27.517 18.5008L37.2457 8.77217H32.0464C31.8546 8.78848 31.6616 8.76479 31.4795 8.7026C31.2974 8.64041 31.1302 8.54108 30.9884 8.4109C30.8467 8.28072 30.7336 8.12252 30.6562 7.94634C30.5788 7.77015 30.5388 7.5798 30.5388 7.38737C30.5388 7.19493 30.5788 7.00458 30.6562 6.8284C30.7336 6.65221 30.8467 6.49401 30.9884 6.36383C31.1302 6.23365 31.2974 6.13432 31.4795 6.07213C31.6616 6.00994 31.8546 5.98625 32.0464 6.00256H39.6853C39.9861 6.00237 40.2839 6.06143 40.5619 6.17638Z" fill="black"/>
<path d="M8.76962 37.2982L18.5183 27.5495H18.4783C18.7368 27.2843 19.0901 27.1327 19.4605 27.128C19.8308 27.1233 20.1878 27.266 20.453 27.5245C20.7182 27.7831 20.8698 28.1364 20.8745 28.5067C20.8792 28.877 20.7365 29.2341 20.478 29.4992L10.7493 39.2279H15.9986C16.1904 39.2116 16.3834 39.2353 16.5655 39.2975C16.7476 39.3596 16.9148 39.459 17.0566 39.5892C17.1983 39.7193 17.3114 39.8775 17.3888 40.0537C17.4662 40.2299 17.5062 40.4203 17.5062 40.6127C17.5062 40.8051 17.4662 40.9955 17.3888 41.1717C17.3114 41.3479 17.1983 41.506 17.0566 41.6362C16.9148 41.7664 16.7476 41.8657 16.5655 41.9279C16.3834 41.9901 16.1904 42.0138 15.9986 41.9975H8.30969C8.00885 41.9982 7.71084 41.9394 7.43284 41.8244C7.15484 41.7095 6.90235 41.5406 6.68991 41.3276C6.47087 41.1145 6.29692 40.8595 6.17841 40.5778C6.05989 40.2961 5.99922 39.9934 6.00001 39.6878V32.0489C6 31.682 6.14505 31.33 6.40353 31.0697C6.66201 30.8093 7.01295 30.6617 7.37982 30.6591C7.56233 30.6591 7.74305 30.695 7.91167 30.7649C8.08029 30.8347 8.2335 30.9371 8.36256 31.0661C8.49161 31.1952 8.59399 31.3484 8.66383 31.517C8.73367 31.6856 8.76962 31.8664 8.76962 32.0489V37.2982Z" fill="black"/>
</svg>
