<svg width="48" height="48" viewBox="0 0 48 48" fill="none" xmlns="http://www.w3.org/2000/svg">
<path d="M24 4C20.0444 4 16.1776 5.17298 12.8886 7.37061C9.59962 9.56824 7.03617 12.6918 5.52242 16.3463C4.00867 20.0009 3.6126 24.0222 4.3843 27.9018C5.15601 31.7814 7.06082 35.3451 9.85787 38.1421C12.6549 40.9392 16.2186 42.844 20.0982 43.6157C23.9778 44.3874 27.9992 43.9913 31.6537 42.4776C35.3082 40.9638 38.4318 38.4004 40.6294 35.1114C42.827 31.8224 44 27.9556 44 24C44 18.6957 41.8929 13.6086 38.1421 9.85786C34.3914 6.10714 29.3043 4 24 4ZM32.44 23.48C31.9493 23.9667 31.2861 24.2398 30.595 24.2398C29.9039 24.2398 29.2407 23.9667 28.75 23.48L26.61 21.34V32.7C26.61 33.3922 26.335 34.0561 25.8456 34.5455C25.3561 35.035 24.6922 35.31 24 35.31C23.3078 35.31 22.6439 35.035 22.1545 34.5455C21.665 34.0561 21.39 33.3922 21.39 32.7V21.34L19.25 23.48C18.752 23.9226 18.1036 24.158 17.4376 24.138C16.7717 24.1179 16.1386 23.8439 15.6681 23.3722C15.1976 22.9004 14.9254 22.2666 14.9071 21.6006C14.8889 20.9346 15.1261 20.2868 15.57 19.79L21.71 13.65C22.3175 13.043 23.1412 12.7021 24 12.7021C24.8588 12.7021 25.6825 13.043 26.29 13.65L32.44 19.8C32.9213 20.2915 33.1908 20.9521 33.1908 21.64C33.1908 22.3279 32.9213 22.9885 32.44 23.48Z" fill="black"/>
</svg>
