<svg width="48" height="48" viewBox="0 0 48 48" fill="none" xmlns="http://www.w3.org/2000/svg">
<path d="M43.1502 26.8991C43.3221 26.9729 43.4773 27.0808 43.6062 27.2164C43.7337 27.3467 43.8342 27.501 43.9017 27.6703C43.9693 27.8397 44.0026 28.0207 43.9998 28.203C43.9971 28.3853 43.9582 28.5652 43.8855 28.7324C43.8128 28.8996 43.7077 29.0507 43.5762 29.177L35.2737 37.4796C35.0112 37.7421 34.6992 37.9497 34.3557 38.0905C34.0123 38.2314 33.6443 38.3025 33.2731 38.2998C33.18 38.3097 33.0861 38.3097 32.993 38.2998C32.3592 38.2352 31.7665 37.9564 31.3125 37.5096L23.0099 29.207C22.7446 28.9417 22.5956 28.5819 22.5956 28.2067C22.5956 27.8315 22.7446 27.4717 23.0099 27.2064C23.2752 26.9411 23.635 26.7921 24.0102 26.7921C24.3854 26.7921 24.7452 26.9411 25.0105 27.2064L31.8626 34.1085V11.2115C31.8463 11.0183 31.8702 10.8238 31.9329 10.6404C31.9956 10.4569 32.0957 10.2885 32.2268 10.1457C32.358 10.003 32.5174 9.88899 32.6949 9.81103C32.8724 9.73307 33.0642 9.69281 33.2581 9.69281C33.4519 9.69281 33.6437 9.73307 33.8212 9.81103C33.9987 9.88899 34.1581 10.003 34.2893 10.1457C34.4205 10.2885 34.5206 10.4569 34.5833 10.6404C34.6459 10.8238 34.6699 11.0183 34.6535 11.2115V34.1386L41.6056 27.2164C41.7346 27.0808 41.8897 26.9729 42.0617 26.8991C42.2337 26.8253 42.4188 26.7873 42.6059 26.7873C42.7931 26.7873 42.9782 26.8253 43.1502 26.8991Z" fill="black"/>
<path d="M24.0104 21.3288C23.6352 21.3288 23.2754 21.1798 23.0101 20.9145L16.208 14.0224V36.9194C16.1783 37.2691 16.0185 37.5949 15.7601 37.8324C15.5016 38.0698 15.1635 38.2016 14.8125 38.2016C14.4616 38.2016 14.1234 38.0698 13.865 37.8324C13.6066 37.5949 13.4467 37.2691 13.4171 36.9194V14.0023L6.41496 20.9345C6.14966 21.1998 5.78984 21.3488 5.41465 21.3488C5.03946 21.3488 4.67964 21.1998 4.41434 20.9345C4.14904 20.6692 4 20.3094 4 19.9342C4 19.559 4.14904 19.1992 4.41434 18.9339L12.7169 10.6313C12.9797 10.3693 13.2918 10.1619 13.6352 10.0211C13.9786 9.88033 14.3464 9.80894 14.7175 9.81106C14.814 9.80123 14.9112 9.80123 15.0076 9.81106C15.6478 9.88481 16.244 10.1741 16.6981 10.6313L25.0107 18.9139C25.276 19.1792 25.425 19.539 25.425 19.9142C25.425 20.2894 25.276 20.6492 25.0107 20.9145C24.7454 21.1798 24.3856 21.3288 24.0104 21.3288Z" fill="black"/>
</svg>
