<svg width="48" height="48" viewBox="0 0 48 48" fill="none" xmlns="http://www.w3.org/2000/svg">
<path d="M24.0017 22.7374C24.3443 22.74 24.684 22.6739 25.0007 22.5431C25.3174 22.4123 25.6047 22.2194 25.8456 21.9758C26.3357 21.4853 26.6111 20.8203 26.6111 20.1269C26.6111 19.4335 26.3357 18.7685 25.8456 18.278L18.0794 10.5018C17.476 9.90603 16.6951 9.52265 15.8547 9.40955C15.6771 9.36975 15.4956 9.34959 15.3136 9.34943C14.26 9.34856 13.2484 9.76255 12.4977 10.5018L4.72151 18.278C4.25073 18.7724 3.99187 19.4311 4.00019 20.1137C4.00852 20.7963 4.28337 21.4485 4.76605 21.9312C5.24873 22.4139 5.901 22.6888 6.58357 22.6971C7.26613 22.7054 7.92491 22.4465 8.41922 21.9758L12.6981 17.6968V36.0351C12.6981 36.7287 12.9737 37.394 13.4642 37.8845C13.9547 38.375 14.6199 38.6505 15.3136 38.6505C16.0073 38.6505 16.6725 38.375 17.163 37.8845C17.6535 37.394 17.9291 36.7287 17.9291 36.0351V17.7469L22.1579 21.9758C22.3995 22.2185 22.6869 22.4108 23.0034 22.5416C23.3199 22.6723 23.6593 22.7389 24.0017 22.7374Z" fill="black"/>
<path d="M43.2819 26.0242C42.7915 25.534 42.1265 25.2587 41.4331 25.2587C40.7397 25.2587 40.0747 25.534 39.5842 26.0242L35.3053 30.3031V11.9649C35.3053 11.6214 35.2376 11.2813 35.1062 10.964C34.9748 10.6467 34.7821 10.3583 34.5392 10.1155C34.2964 9.87261 34.0081 9.67996 33.6907 9.54852C33.3734 9.41708 33.0333 9.34943 32.6898 9.34943C32.3464 9.34943 32.0063 9.41708 31.689 9.54852C31.3716 9.67996 31.0833 9.87261 30.8404 10.1155C30.5976 10.3583 30.4049 10.6467 30.2735 10.964C30.142 11.2813 30.0744 11.6214 30.0744 11.9649V30.253L25.8456 26.0242C25.3465 25.5807 24.6968 25.3448 24.0294 25.3649C23.362 25.385 22.7276 25.6595 22.2562 26.1322C21.7847 26.605 21.5119 27.2401 21.4936 27.9075C21.4753 28.575 21.713 29.2241 22.1579 29.7219L29.9241 37.4981C30.5292 38.0989 31.3137 38.486 32.1587 38.6004C32.3354 38.6157 32.5131 38.6157 32.6898 38.6004C33.2072 38.6013 33.7196 38.4999 34.1977 38.3021C34.6758 38.1044 35.1101 37.8141 35.4757 37.448L43.2519 29.6718C43.7263 29.185 43.9943 28.5338 43.9999 27.854C44.0055 27.1743 43.7483 26.5187 43.2819 26.0242Z" fill="black"/>
</svg>
