<svg width="48" height="48" viewBox="0 0 48 48" fill="none" xmlns="http://www.w3.org/2000/svg">
<path d="M40.9903 7C40.8893 6.90252 40.7788 6.81542 40.6604 6.74C40.0646 6.26253 39.3244 6.00162 38.561 6H31.4629C30.7815 6 30.128 6.27077 29.6462 6.75274C29.1643 7.2347 28.8936 7.88839 28.8936 8.57C28.8936 9.25161 29.1643 9.9053 29.6462 10.3873C30.128 10.8692 30.7815 11.14 31.4629 11.14H33.1925L26.3544 18C25.9133 18.4902 25.6776 19.1311 25.6958 19.7903C25.7141 20.4495 25.9849 21.0765 26.4524 21.5415C26.9198 22.0065 27.5481 22.2739 28.2072 22.2886C28.8663 22.3032 29.5058 22.0638 29.9933 21.62L36.8614 14.75V16.53C36.8614 17.2116 37.1321 17.8653 37.614 18.3473C38.0958 18.8292 38.7493 19.1 39.4307 19.1C40.1121 19.1 40.7656 18.8292 41.2475 18.3473C41.7293 17.8653 42 17.2116 42 16.53V9.43C41.9999 8.97841 41.9107 8.53129 41.7374 8.11429C41.5641 7.69728 41.3102 7.31861 40.9903 7Z" fill="black"/>
<path d="M17.9967 26.38L11.1386 33.24V31.47C11.1386 30.7884 10.8679 30.1347 10.3861 29.6527C9.90422 29.1708 9.25071 28.9 8.5693 28.9C7.88788 28.9 7.23437 29.1708 6.75254 29.6527C6.2707 30.1347 6.00001 30.7884 6.00001 31.47V38.57C5.9988 39.0209 6.08647 39.4676 6.25801 39.8846C6.42955 40.3015 6.6816 40.6806 6.99973 41C7.08187 41.0754 7.16869 41.1455 7.25966 41.21C7.86808 41.7192 8.63578 41.9987 9.42906 42H16.5271C17.2085 42 17.862 41.7292 18.3438 41.2473C18.8257 40.7653 19.0964 40.1116 19.0964 39.43C19.0964 38.7484 18.8257 38.0947 18.3438 37.6127C17.862 37.1308 17.2085 36.86 16.5271 36.86H14.7976L21.6357 30C22.0767 29.5098 22.3124 28.8689 22.2942 28.2097C22.2759 27.5505 22.0051 26.9235 21.5376 26.4585C21.0702 25.9935 20.4419 25.7261 19.7828 25.7114C19.1238 25.6968 18.4843 25.9362 17.9967 26.38Z" fill="black"/>
</svg>
