<svg width="48" height="48" viewBox="0 0 48 48" fill="none" xmlns="http://www.w3.org/2000/svg">
<path d="M24 4C20.0444 4 16.1776 5.17298 12.8886 7.37061C9.59961 9.56824 7.03616 12.6918 5.5224 16.3463C4.00865 20.0009 3.61258 24.0222 4.38429 27.9018C5.15599 31.7814 7.06081 35.3451 9.85786 38.1421C12.6549 40.9392 16.2186 42.844 20.0982 43.6157C23.9778 44.3874 27.9991 43.9913 31.6537 42.4776C35.3082 40.9638 38.4318 38.4004 40.6294 35.1114C42.827 31.8224 44 27.9556 44 24C44 18.6957 41.8929 13.6086 38.1421 9.85786C34.3914 6.10714 29.3043 4 24 4ZM32.44 28.21L26.29 34.35C25.9917 34.6541 25.6352 34.8949 25.2417 35.0582C24.8483 35.2214 24.4259 35.3036 24 35.3C23.1402 35.2884 22.3174 34.9485 21.7 34.35L15.57 28.21C15.126 27.7132 14.8889 27.0654 14.9071 26.3994C14.9254 25.7334 15.1976 25.0996 15.6681 24.6278C16.1386 24.1561 16.7717 23.8821 17.4376 23.862C18.1036 23.842 18.752 24.0774 19.25 24.52L21.39 26.66V15.3C21.39 14.6078 21.665 13.9439 22.1544 13.4545C22.6439 12.965 23.3078 12.69 24 12.69C24.6922 12.69 25.3561 12.965 25.8455 13.4545C26.335 13.9439 26.61 14.6078 26.61 15.3V26.66L28.75 24.52C29.2433 24.0502 29.9007 23.7919 30.5818 23.8002C31.263 23.8085 31.9139 24.0828 32.3955 24.5645C32.8772 25.0461 33.1515 25.697 33.1598 26.3782C33.1681 27.0593 32.9098 27.7167 32.44 28.21Z" fill="black"/>
</svg>
