<svg width="48" height="48" viewBox="0 0 48 48" fill="none" xmlns="http://www.w3.org/2000/svg">
<path d="M24 44C20.0444 44 16.1776 42.827 12.8886 40.6294C9.59962 38.4318 7.03617 35.3082 5.52242 31.6537C4.00867 27.9992 3.6126 23.9778 4.3843 20.0982C5.15601 16.2186 7.06082 12.6549 9.85787 9.85787C12.6549 7.06082 16.2186 5.15601 20.0982 4.3843C23.9778 3.6126 27.9992 4.00867 31.6537 5.52242C35.3082 7.03617 38.4318 9.59962 40.6294 12.8886C42.827 16.1776 44 20.0444 44 24C44 29.3043 41.8929 34.3914 38.1421 38.1421C34.3914 41.8929 29.3043 44 24 44ZM24 9.22001C21.0768 9.22001 18.2192 10.0868 15.7887 11.7109C13.3581 13.3349 11.4637 15.6433 10.3451 18.3439C9.22641 21.0446 8.93371 24.0164 9.504 26.8834C10.0743 29.7505 11.4819 32.384 13.549 34.451C15.616 36.5181 18.2495 37.9257 21.1166 38.496C23.9836 39.0663 26.9554 38.7736 29.6561 37.6549C32.3568 36.5363 34.6651 34.6419 36.2891 32.2113C37.9132 29.7808 38.78 26.9232 38.78 24C38.7747 20.0817 37.2158 16.3255 34.4452 13.5548C31.6746 10.7842 27.9183 9.2253 24 9.22001Z" fill="black"/>
<path d="M34.35 21.71L28.21 15.56C27.7167 15.0902 27.0593 14.8319 26.3782 14.8402C25.697 14.8485 25.0461 15.1228 24.5645 15.6045C24.0828 16.0861 23.8085 16.737 23.8002 17.4182C23.7919 18.0993 24.0502 18.7567 24.52 19.25L26.66 21.39H15.3C14.6078 21.39 13.9439 21.665 13.4545 22.1545C12.965 22.6439 12.69 23.3078 12.69 24C12.69 24.6922 12.965 25.3561 13.4545 25.8456C13.9439 26.335 14.6078 26.61 15.3 26.61H26.66L24.52 28.75C24.255 28.9868 24.0412 29.2752 23.8916 29.5976C23.742 29.92 23.6599 30.2695 23.6501 30.6247C23.6404 30.98 23.7033 31.3334 23.835 31.6635C23.9667 31.9936 24.1645 32.2933 24.4161 32.5442C24.6677 32.7952 24.968 32.9921 25.2984 33.1229C25.6288 33.2537 25.9825 33.3157 26.3377 33.305C26.6929 33.2943 27.0422 33.2112 27.3641 33.0607C27.6861 32.9103 27.9739 32.6956 28.21 32.43L34.35 26.29C34.6518 25.9899 34.8912 25.633 35.0546 25.24C35.218 24.847 35.3021 24.4256 35.3021 24C35.3021 23.5744 35.218 23.153 35.0546 22.76C34.8912 22.367 34.6518 22.0102 34.35 21.71Z" fill="black"/>
</svg>
