<svg width="48" height="48" viewBox="0 0 48 48" fill="none" xmlns="http://www.w3.org/2000/svg">
<path d="M24 44C20.0444 44 16.1776 42.827 12.8886 40.6294C9.59962 38.4318 7.03617 35.3082 5.52242 31.6537C4.00867 27.9992 3.6126 23.9778 4.3843 20.0982C5.15601 16.2186 7.06082 12.6549 9.85787 9.85787C12.6549 7.06082 16.2186 5.15601 20.0982 4.3843C23.9778 3.6126 27.9992 4.00867 31.6537 5.52242C35.3082 7.03617 38.4318 9.59962 40.6294 12.8886C42.827 16.1776 44 20.0444 44 24C44 29.3043 41.8929 34.3914 38.1421 38.1421C34.3914 41.8929 29.3043 44 24 44ZM24 6.79001C20.5962 6.79001 17.2688 7.79936 14.4386 9.69042C11.6085 11.5815 9.40263 14.2693 8.10004 17.414C6.79746 20.5587 6.45664 24.0191 7.12069 27.3575C7.78475 30.6959 9.42384 33.7625 11.8307 36.1693C14.2376 38.5762 17.3041 40.2153 20.6425 40.8793C23.9809 41.5434 27.4413 41.2026 30.586 39.9C33.7307 38.5974 36.4185 36.3915 38.3096 33.5614C40.2007 30.7312 41.21 27.4038 41.21 24C41.2047 19.4373 39.3898 15.0629 36.1635 11.8365C32.9371 8.61019 28.5628 6.7953 24 6.79001Z" fill="black"/>
<path d="M32 20.48L25.47 13.91C25.165 13.6156 24.7781 13.4204 24.36 13.35C24.1246 13.2833 23.8754 13.2833 23.64 13.35C23.222 13.4204 22.835 13.6156 22.53 13.91L16 20.48C15.8687 20.6113 15.7645 20.7672 15.6934 20.9388C15.6224 21.1104 15.5858 21.2943 15.5858 21.48C15.5858 21.6657 15.6224 21.8496 15.6934 22.0212C15.7645 22.1928 15.8687 22.3487 16 22.48C16.1313 22.6113 16.2872 22.7155 16.4588 22.7866C16.6304 22.8576 16.8143 22.8942 17 22.8942C17.1857 22.8942 17.3696 22.8576 17.5412 22.7866C17.7128 22.7155 17.8687 22.6113 18 22.48L22.66 17.82V33.3C22.66 33.6713 22.8075 34.0274 23.0701 34.29C23.3326 34.5525 23.6887 34.7 24.06 34.7C24.4313 34.7 24.7874 34.5525 25.05 34.29C25.3125 34.0274 25.46 33.6713 25.46 33.3V17.79L30.12 22.45C30.2505 22.5821 30.4064 22.6865 30.5782 22.757C30.75 22.8274 30.9343 22.8625 31.12 22.86C31.3059 22.8636 31.4905 22.8291 31.6625 22.7586C31.8345 22.6881 31.9902 22.5831 32.12 22.45C32.3642 22.1724 32.4887 21.8094 32.4662 21.4403C32.4437 21.0712 32.2761 20.726 32 20.48Z" fill="black"/>
</svg>
