<svg width="48" height="48" viewBox="0 0 48 48" fill="none" xmlns="http://www.w3.org/2000/svg">
<path d="M38.5846 32.1281C38.464 31.2859 38.0783 30.504 37.4835 29.8958L29.7157 22.1381C29.2184 21.6937 28.57 21.4563 27.9033 21.4745C27.2366 21.4928 26.6022 21.7653 26.1299 22.2363C25.6577 22.7072 25.3835 23.3409 25.3634 24.0076C25.3433 24.6742 25.579 25.3232 26.022 25.8217L30.2462 30.046H11.978C11.2851 30.046 10.6206 30.3212 10.1306 30.8112C9.64063 31.3011 9.36538 31.9657 9.36538 32.6586C9.36538 33.3515 9.64063 34.016 10.1306 34.506C10.6206 34.9959 11.2851 35.2712 11.978 35.2712H30.2963L26.022 39.5455C25.6583 39.9114 25.411 40.3769 25.3115 40.8831C25.2119 41.3894 25.2644 41.9138 25.4625 42.3902C25.6606 42.8667 25.9953 43.2738 26.4244 43.5602C26.8536 43.8467 27.3579 43.9997 27.8739 43.9999C28.216 44.0014 28.5549 43.9349 28.8711 43.8043C29.1873 43.6737 29.4744 43.4816 29.7157 43.2392L37.4835 35.4714C37.8499 35.1047 38.1402 34.6692 38.3378 34.1899C38.5353 33.7106 38.6362 33.197 38.6346 32.6786C38.6345 32.494 38.6178 32.3097 38.5846 32.1281Z" fill="black"/>
<path d="M9.41543 15.8318C9.53599 16.6739 9.92167 17.4558 10.5165 18.064L18.2843 25.8217C18.7816 26.2661 19.43 26.5035 20.0967 26.4853C20.7634 26.467 21.3978 26.1945 21.8701 25.7236C22.3423 25.2526 22.6165 24.6189 22.6366 23.9523C22.6567 23.2856 22.421 22.6366 21.978 22.1381L17.7538 17.9138H36.022C36.7149 17.9138 37.3794 17.6386 37.8694 17.1486C38.3594 16.6587 38.6346 15.9941 38.6346 15.3012C38.6346 14.6083 38.3594 13.9438 37.8694 13.4538C37.3794 12.9639 36.7149 12.6886 36.022 12.6886H17.7037L21.978 8.41435C22.4482 7.92058 22.7068 7.26252 22.6985 6.5807C22.6902 5.89887 22.4156 5.24731 21.9335 4.76516C21.4513 4.283 20.7998 4.00845 20.1179 4.00013C19.4361 3.99182 18.7781 4.2504 18.2843 4.72066L10.5165 12.4884C10.1501 12.8551 9.85976 13.2906 9.66221 13.7699C9.46465 14.2492 9.36378 14.7628 9.36538 15.2812C9.36548 15.4659 9.38224 15.6501 9.41543 15.8318Z" fill="black"/>
</svg>
