<svg width="48" height="48" viewBox="0 0 48 48" fill="none" xmlns="http://www.w3.org/2000/svg">
<path d="M24 44C20.0444 44 16.1776 42.827 12.8886 40.6294C9.59962 38.4318 7.03617 35.3082 5.52242 31.6537C4.00867 27.9992 3.6126 23.9778 4.3843 20.0982C5.15601 16.2186 7.06082 12.6549 9.85787 9.85787C12.6549 7.06082 16.2186 5.15601 20.0982 4.3843C23.9778 3.6126 27.9992 4.00867 31.6537 5.52242C35.3082 7.03617 38.4318 9.59962 40.6294 12.8886C42.827 16.1776 44 20.0444 44 24C44 29.3043 41.8929 34.3914 38.1421 38.1421C34.3914 41.8929 29.3043 44 24 44ZM24 6.79001C20.5962 6.79001 17.2688 7.79936 14.4386 9.69042C11.6085 11.5815 9.40263 14.2693 8.10004 17.414C6.79746 20.5587 6.45664 24.0191 7.12069 27.3575C7.78475 30.6959 9.42384 33.7625 11.8307 36.1693C14.2376 38.5762 17.3041 40.2153 20.6425 40.8793C23.9809 41.5434 27.4413 41.2026 30.586 39.9C33.7307 38.5974 36.4185 36.3915 38.3096 33.5614C40.2007 30.7312 41.21 27.4038 41.21 24C41.2047 19.4373 39.3898 15.0629 36.1635 11.8365C32.9371 8.61019 28.5628 6.7953 24 6.79001Z" fill="black"/>
<path d="M34.7 24C34.7049 23.9334 34.7049 23.8666 34.7 23.8C34.6513 23.3225 34.4435 22.8752 34.11 22.53L27.52 16C27.3887 15.8687 27.2328 15.7645 27.0612 15.6934C26.8896 15.6224 26.7057 15.5858 26.52 15.5858C26.3343 15.5858 26.1504 15.6224 25.9788 15.6934C25.8072 15.7645 25.6513 15.8687 25.52 16C25.3887 16.1313 25.2845 16.2872 25.2134 16.4588C25.1424 16.6304 25.1058 16.8143 25.1058 17C25.1058 17.1857 25.1424 17.3696 25.2134 17.5412C25.2845 17.7128 25.3887 17.8687 25.52 18L30.18 22.66H14.7C14.3287 22.66 13.9726 22.8075 13.7101 23.0701C13.4475 23.3326 13.3 23.6887 13.3 24.06C13.3 24.4313 13.4475 24.7874 13.7101 25.05C13.9726 25.3125 14.3287 25.46 14.7 25.46H30.21L25.55 30.12C25.4187 30.2513 25.3145 30.4072 25.2434 30.5788C25.1724 30.7504 25.1358 30.9343 25.1358 31.12C25.1358 31.3057 25.1724 31.4896 25.2434 31.6612C25.3145 31.8328 25.4187 31.9887 25.55 32.12C25.6813 32.2513 25.8372 32.3555 26.0088 32.4266C26.1804 32.4976 26.3643 32.5342 26.55 32.5342C26.7357 32.5342 26.9196 32.4976 27.0912 32.4266C27.2628 32.3555 27.4187 32.2513 27.55 32.12L34.12 25.55C34.4655 25.2091 34.6752 24.7541 34.71 24.27C34.7166 24.1799 34.7132 24.0894 34.7 24Z" fill="black"/>
</svg>
