<svg width="48" height="48" viewBox="0 0 48 48" fill="none" xmlns="http://www.w3.org/2000/svg">
<path d="M24 44C20.0444 44 16.1776 42.827 12.8886 40.6294C9.59962 38.4318 7.03617 35.3082 5.52242 31.6537C4.00867 27.9992 3.6126 23.9778 4.3843 20.0982C5.15601 16.2186 7.06082 12.6549 9.85787 9.85787C12.6549 7.06082 16.2186 5.15601 20.0982 4.3843C23.9778 3.6126 27.9992 4.00867 31.6537 5.52242C35.3082 7.03617 38.4318 9.59962 40.6294 12.8886C42.827 16.1776 44 20.0444 44 24C44 29.3043 41.8929 34.3914 38.1421 38.1421C34.3914 41.8929 29.3043 44 24 44ZM24 6.79001C20.5962 6.79001 17.2688 7.79936 14.4386 9.69042C11.6085 11.5815 9.40263 14.2693 8.10004 17.414C6.79746 20.5587 6.45664 24.0191 7.12069 27.3575C7.78475 30.6959 9.42384 33.7625 11.8307 36.1693C14.2376 38.5762 17.3041 40.2153 20.6425 40.8793C23.9809 41.5434 27.4413 41.2026 30.586 39.9C33.7307 38.5974 36.4185 36.3915 38.3096 33.5614C40.2007 30.7312 41.21 27.4038 41.21 24C41.2047 19.4373 39.3898 15.0629 36.1635 11.8365C32.9371 8.61019 28.5628 6.7953 24 6.79001Z" fill="black"/>
<path d="M33.3 22.6H17.79L22.45 17.94C22.5813 17.8087 22.6855 17.6528 22.7566 17.4812C22.8276 17.3096 22.8642 17.1257 22.8642 16.94C22.8642 16.7543 22.8276 16.5704 22.7566 16.3988C22.6855 16.2272 22.5813 16.0713 22.45 15.94C22.3187 15.8087 22.1628 15.7045 21.9912 15.6334C21.8196 15.5624 21.6357 15.5258 21.45 15.5258C21.2643 15.5258 21.0804 15.5624 20.9088 15.6334C20.7372 15.7045 20.5813 15.8087 20.45 15.94L13.91 22.53C13.5204 22.92 13.3016 23.4487 13.3016 24C13.3016 24.5513 13.5204 25.08 13.91 25.47L20.48 32C20.6112 32.1312 20.7672 32.235 20.9389 32.3054C21.1105 32.3758 21.2945 32.4113 21.48 32.41C21.6657 32.4125 21.85 32.3774 22.0218 32.307C22.1936 32.2365 22.3495 32.1321 22.48 32C22.6143 31.8704 22.7211 31.715 22.794 31.5432C22.867 31.3714 22.9046 31.1867 22.9046 31C22.9046 30.8134 22.867 30.6286 22.794 30.4568C22.7211 30.285 22.6143 30.1297 22.48 30L17.79 25.4H33.3C33.6713 25.4 34.0274 25.2525 34.29 24.99C34.5525 24.7274 34.7 24.3713 34.7 24C34.7 23.6287 34.5525 23.2726 34.29 23.0101C34.0274 22.7475 33.6713 22.6 33.3 22.6Z" fill="black"/>
</svg>
