<svg width="48" height="48" viewBox="0 0 48 48" fill="none" xmlns="http://www.w3.org/2000/svg">
<path d="M34.108 16.1301H11.2348V16.2101C11.0418 16.2264 10.8475 16.2025 10.6642 16.1399C10.481 16.0773 10.3127 15.9773 10.1701 15.8462C10.0275 15.7152 9.91363 15.556 9.83575 15.3786C9.75787 15.2013 9.71765 15.0098 9.71765 14.8161C9.71765 14.6224 9.75787 14.4308 9.83575 14.2535C9.91363 14.0762 10.0275 13.917 10.1701 13.7859C10.3127 13.6549 10.481 13.5549 10.6642 13.4923C10.8475 13.4296 11.0418 13.4058 11.2348 13.4221H34.108L27.1931 6.42722C27.0576 6.29841 26.9498 6.14341 26.8761 5.97163C26.8024 5.79985 26.7644 5.61488 26.7644 5.42796C26.7644 5.24103 26.8024 5.05607 26.8761 4.88428C26.9498 4.7125 27.0576 4.5575 27.1931 4.42869C27.3219 4.29324 27.4769 4.18539 27.6487 4.1117C27.8205 4.038 28.0054 4 28.1923 4C28.3793 4 28.5642 4.038 28.736 4.1117C28.9078 4.18539 29.0628 4.29324 29.1916 4.42869L37.4556 12.7326C37.7169 12.9955 37.9238 13.3073 38.0644 13.6503C38.205 13.9932 38.2765 14.3605 38.275 14.7311C38.2848 14.8242 38.2848 14.9179 38.275 15.0109C38.223 15.6473 37.9551 16.2467 37.5155 16.7097L29.2216 25.0036C28.9566 25.2687 28.5971 25.4175 28.2223 25.4175C27.8475 25.4175 27.4881 25.2687 27.2231 25.0036C26.958 24.7386 26.8091 24.3792 26.8091 24.0044C26.8091 23.6296 26.958 23.2701 27.2231 23.0051L34.108 16.1301Z" fill="black"/>
<path d="M14.0427 31.8787H36.916C37.2653 31.9083 37.5908 32.068 37.828 32.3261C38.0652 32.5843 38.1968 32.9221 38.1968 33.2726C38.1968 33.6232 38.0652 33.961 37.828 34.2192C37.5908 34.4773 37.2653 34.637 36.916 34.6666H14.0127L20.9476 41.5816C21.0806 41.7118 21.1862 41.8673 21.2583 42.0389C21.3304 42.2105 21.3675 42.3947 21.3675 42.5808C21.3675 42.767 21.3304 42.9512 21.2583 43.1228C21.1862 43.2944 21.0806 43.4499 20.9476 43.5801C20.8174 43.713 20.6619 43.8187 20.4903 43.8908C20.3187 43.9629 20.1345 44 19.9484 44C19.7623 44 19.578 43.9629 19.4064 43.8908C19.2348 43.8187 19.0794 43.713 18.9491 43.5801L10.6552 35.2862C10.3934 35.0236 10.1863 34.7119 10.0456 34.3689C9.90498 34.0258 9.83366 33.6584 9.83577 33.2876C9.82596 33.1913 9.82596 33.0942 9.83577 32.9979C9.9018 32.3573 10.1837 31.7583 10.6352 31.2991L18.9291 23.0052C19.1941 22.7401 19.5536 22.5913 19.9284 22.5913C20.3032 22.5913 20.6626 22.7401 20.9277 23.0052C21.1927 23.2702 21.3416 23.6296 21.3416 24.0044C21.3416 24.3792 21.1927 24.7387 20.9277 25.0037L14.0427 31.8787Z" fill="black"/>
</svg>
