<svg width="48" height="48" viewBox="0 0 48 48" fill="none" xmlns="http://www.w3.org/2000/svg">
<path d="M24 4C20.0444 4 16.1776 5.17298 12.8886 7.37061C9.59962 9.56824 7.03617 12.6918 5.52242 16.3463C4.00867 20.0009 3.6126 24.0222 4.3843 27.9018C5.15601 31.7814 7.06082 35.3451 9.85787 38.1421C12.6549 40.9392 16.2186 42.844 20.0982 43.6157C23.9778 44.3874 27.9992 43.9913 31.6537 42.4776C35.3082 40.9638 38.4318 38.4004 40.6294 35.1114C42.827 31.8224 44 27.9556 44 24C44 18.6957 41.8929 13.6086 38.1421 9.85786C34.3914 6.10714 29.3043 4 24 4ZM32.7 26.61H21.34L23.48 28.75C23.745 28.9868 23.9588 29.2752 24.1084 29.5976C24.258 29.9199 24.3402 30.2695 24.3499 30.6247C24.3596 30.9799 24.2967 31.3334 24.165 31.6635C24.0333 31.9936 23.8355 32.2933 23.5839 32.5442C23.3323 32.7952 23.0321 32.9921 22.7016 33.1229C22.3712 33.2537 22.0176 33.3157 21.6623 33.305C21.3071 33.2943 20.9578 33.2112 20.6359 33.0607C20.3139 32.9102 20.0261 32.6956 19.79 32.43L13.65 26.29C13.3477 25.9903 13.1081 25.6336 12.945 25.2404C12.7819 24.8473 12.6986 24.4256 12.7 24C12.7017 23.5703 12.7912 23.1454 12.9632 22.7516C13.1352 22.3578 13.3859 22.0033 13.7 21.71L19.84 15.56C20.3333 15.0902 20.9907 14.8319 21.6718 14.8402C22.353 14.8485 23.0039 15.1228 23.4856 15.6045C23.9672 16.0861 24.2415 16.737 24.2498 17.4182C24.2581 18.0993 23.9998 18.7567 23.53 19.25L21.39 21.39H32.7C33.3922 21.39 34.0561 21.665 34.5456 22.1545C35.035 22.6439 35.31 23.3078 35.31 24C35.31 24.6922 35.035 25.3561 34.5456 25.8455C34.0561 26.335 33.3922 26.61 32.7 26.61Z" fill="black"/>
</svg>
