<svg width="48" height="48" viewBox="0 0 48 48" fill="none" xmlns="http://www.w3.org/2000/svg">
<path d="M39.0645 17.9587L25.9532 4.80761C25.5348 4.39452 24.9914 4.13158 24.4078 4.05982C24.2808 4.02537 24.1504 4.0053 24.0189 4C23.8873 4.00372 23.7567 4.02381 23.6301 4.05982C23.0436 4.13164 22.497 4.39441 22.0747 4.80761L8.97339 17.9587C8.83824 18.0873 8.73063 18.2419 8.6571 18.4133C8.58357 18.5847 8.54565 18.7693 8.54565 18.9558C8.54565 19.1423 8.58357 19.3269 8.6571 19.4983C8.73063 19.6697 8.83824 19.8243 8.97339 19.9529C9.10192 20.088 9.25658 20.1956 9.42798 20.2691C9.59938 20.3427 9.78394 20.3806 9.97044 20.3806C10.157 20.3806 10.3415 20.3427 10.5129 20.2691C10.6843 20.1956 10.839 20.088 10.9675 19.9529L22.623 8.13777V42.4863C22.6067 42.6788 22.6306 42.8727 22.6931 43.0555C22.7556 43.2384 22.8553 43.4063 22.9861 43.5486C23.1168 43.6909 23.2757 43.8045 23.4526 43.8822C23.6296 43.9599 23.8207 44 24.0139 44C24.2072 44 24.3983 43.9599 24.5753 43.8822C24.7522 43.8045 24.9111 43.6909 25.0418 43.5486C25.1725 43.4063 25.2723 43.2384 25.3348 43.0555C25.3973 42.8727 25.4211 42.6788 25.4048 42.4863V8.18762L37.0903 19.8731C37.2203 20.0057 37.3754 20.1111 37.5466 20.1831C37.7178 20.255 37.9016 20.2921 38.0873 20.2921C38.2731 20.2921 38.4569 20.255 38.6281 20.1831C38.7993 20.1111 38.9544 20.0057 39.0844 19.8731C39.3257 19.6116 39.458 19.2678 39.4543 18.912C39.4506 18.5561 39.3112 18.2152 39.0645 17.9587Z" fill="black"/>
</svg>
