<svg width="48" height="48" viewBox="0 0 48 48" fill="none" xmlns="http://www.w3.org/2000/svg">
<path d="M24 44C20.0444 44 16.1776 42.827 12.8886 40.6294C9.59961 38.4318 7.03616 35.3082 5.52241 31.6537C4.00866 27.9992 3.61259 23.9778 4.3843 20.0982C5.156 16.2186 7.06082 12.6549 9.85787 9.85787C12.6549 7.06082 16.2186 5.15601 20.0982 4.3843C23.9778 3.6126 27.9991 4.00867 31.6537 5.52242C35.3082 7.03617 38.4318 9.59962 40.6294 12.8886C42.827 16.1776 44 20.0444 44 24C44 29.3043 41.8929 34.3914 38.1421 38.1421C34.3914 41.8929 29.3043 44 24 44ZM24 6.79001C20.5962 6.79001 17.2688 7.79936 14.4386 9.69042C11.6085 11.5815 9.40262 14.2693 8.10003 17.414C6.79745 20.5587 6.45663 24.0191 7.12069 27.3575C7.78474 30.6959 9.42383 33.7625 11.8307 36.1693C14.2376 38.5762 17.3041 40.2153 20.6425 40.8793C23.9809 41.5434 27.4413 41.2026 30.586 39.9C33.7307 38.5974 36.4185 36.3915 38.3096 33.5614C40.2007 30.7312 41.21 27.4038 41.21 24C41.2047 19.4373 39.3898 15.0629 36.1635 11.8365C32.9371 8.61019 28.5628 6.7953 24 6.79001Z" fill="black"/>
<path d="M32 25.55C31.8704 25.4157 31.715 25.3089 31.5432 25.236C31.3714 25.1631 31.1867 25.1255 31 25.1255C30.8134 25.1255 30.6286 25.1631 30.4568 25.236C30.285 25.3089 30.1296 25.4157 30 25.55L25.4 30.22V14.7C25.4 14.3287 25.2525 13.9726 24.99 13.7101C24.7274 13.4475 24.3713 13.3 24 13.3C23.6287 13.3 23.2726 13.4475 23.0101 13.7101C22.7475 13.9726 22.6 14.3287 22.6 14.7V30.21L17.94 25.55C17.8087 25.4187 17.6528 25.3145 17.4812 25.2434C17.3096 25.1724 17.1257 25.1358 16.94 25.1358C16.7543 25.1358 16.5704 25.1724 16.3988 25.2434C16.2272 25.3145 16.0713 25.4187 15.94 25.55C15.8087 25.6813 15.7045 25.8372 15.6334 26.0088C15.5624 26.1804 15.5258 26.3643 15.5258 26.55C15.5258 26.7357 15.5624 26.9196 15.6334 27.0912C15.7045 27.2628 15.8087 27.4187 15.94 27.55L22.51 34.12C22.8637 34.4646 23.3275 34.6735 23.82 34.71H24.16C24.6465 34.6731 25.1039 34.4639 25.45 34.12L32 27.52C32.2595 27.2579 32.4051 26.9039 32.4051 26.535C32.4051 26.1661 32.2595 25.8121 32 25.55Z" fill="black"/>
</svg>
