<svg width="48" height="48" viewBox="0 0 48 48" fill="none" xmlns="http://www.w3.org/2000/svg">
<path d="M42 31.47C42 30.7884 41.7292 30.1347 41.2473 29.6527C40.7653 29.1708 40.1116 28.9 39.43 28.9C38.7484 28.9 38.0947 29.1708 37.6127 29.6527C37.1308 30.1347 36.86 30.7884 36.86 31.47V33.2L30 26.36C29.7656 26.1024 29.4813 25.8952 29.1643 25.7508C28.8474 25.6065 28.5044 25.5281 28.1562 25.5203C27.808 25.5126 27.4618 25.5758 27.1388 25.7059C26.8157 25.8361 26.5225 26.0305 26.2769 26.2775C26.0313 26.5244 25.8385 26.8187 25.7101 27.1425C25.5818 27.4662 25.5205 27.8127 25.5302 28.1608C25.5398 28.509 25.6201 28.8515 25.7662 29.1677C25.9123 29.4839 26.1211 29.767 26.38 30L33.25 36.87H31.47C30.7884 36.87 30.1347 37.1408 29.6527 37.6227C29.1708 38.1047 28.9 38.7584 28.9 39.44C28.9 40.1216 29.1708 40.7753 29.6527 41.2573C30.1347 41.7392 30.7884 42.01 31.47 42.01H38.57C39.0216 42.0099 39.4687 41.9206 39.8857 41.7473C40.3027 41.574 40.6814 41.32 41 41C41.1107 40.8858 41.2111 40.762 41.3 40.63C41.7387 40.0547 41.9807 39.3535 41.99 38.63L42 31.47Z" fill="black"/>
<path d="M14.75 11.14H16.53C17.2116 11.14 17.8653 10.8692 18.3473 10.3873C18.8292 9.90531 19.1 9.25162 19.1 8.57001C19.1 7.88841 18.8292 7.23472 18.3473 6.75275C17.8653 6.27078 17.2116 6.00001 16.53 6.00001H9.43C8.97911 5.9988 8.53241 6.08649 8.11544 6.25808C7.69848 6.42967 7.31943 6.68179 7 7.00001C6.8989 7.10672 6.80534 7.22032 6.72 7.34001C6.25459 7.9374 6.00127 8.67272 6 9.43001V16.53C6 17.2116 6.27077 17.8653 6.75274 18.3473C7.2347 18.8292 7.88839 19.1 8.57 19.1C9.25161 19.1 9.9053 18.8292 10.3873 18.3473C10.8692 17.8653 11.14 17.2116 11.14 16.53V14.8L18 21.64C18.2344 21.8976 18.5187 22.1049 18.8357 22.2492C19.1526 22.3936 19.4956 22.472 19.8438 22.4797C20.192 22.4874 20.5382 22.4243 20.8612 22.2941C21.1843 22.164 21.4775 21.9695 21.7231 21.7226C21.9687 21.4756 22.1615 21.1813 22.2899 20.8576C22.4182 20.5338 22.4795 20.1873 22.4698 19.8392C22.4602 19.491 22.3799 19.1485 22.2338 18.8323C22.0877 18.5162 21.8789 18.233 21.62 18L14.75 11.14Z" fill="black"/>
</svg>
