<svg width="48" height="48" viewBox="0 0 48 48" fill="none" xmlns="http://www.w3.org/2000/svg">
<path d="M38.9887 17.4234L26.6956 5.14029C26.0546 4.48376 25.1992 4.07914 24.285 4C24.175 4 24.075 4 23.9549 4C23.8349 4 23.7449 4 23.6348 4C22.7216 4.07045 21.8634 4.46409 21.2142 5.11028L8.92117 17.4234C8.45126 17.9168 8.19288 18.5743 8.20118 19.2556C8.20949 19.9369 8.48383 20.588 8.96563 21.0698C9.44743 21.5516 10.0985 21.826 10.7798 21.8343C11.4611 21.8426 12.1187 21.5842 12.6121 21.1143L21.3443 12.3821V41.3893C21.3443 42.0817 21.6193 42.7458 22.1089 43.2354C22.5985 43.7249 23.2625 44 23.9549 44C24.6473 44 25.3113 43.7249 25.8009 43.2354C26.2905 42.7458 26.5656 42.0817 26.5656 41.3893V12.3821L35.2978 21.1143C35.5379 21.3664 35.826 21.568 36.1452 21.7071C36.4644 21.8462 36.8082 21.92 37.1564 21.9243C37.5046 21.9285 37.8501 21.8631 38.1726 21.7318C38.4951 21.6005 38.788 21.406 39.0342 21.1598C39.2805 20.9136 39.4749 20.6207 39.6062 20.2982C39.7375 19.9757 39.8029 19.6302 39.7987 19.282C39.7944 18.9338 39.7206 18.59 39.5815 18.2708C39.4424 17.9516 39.2408 17.6635 38.9887 17.4234Z" fill="black"/>
</svg>
