<svg width="48" height="48" viewBox="0 0 48 48" fill="none" xmlns="http://www.w3.org/2000/svg">
<path d="M43.1922 22.0532L30.091 8.95191C29.9625 8.81676 29.8078 8.70915 29.6364 8.63562C29.465 8.56209 29.2804 8.52417 29.0939 8.52417C28.9074 8.52417 28.7229 8.56209 28.5515 8.63562C28.3801 8.70915 28.2254 8.81676 28.0969 8.95191C27.9617 9.08043 27.8541 9.23509 27.7806 9.40649C27.7071 9.57789 27.6692 9.76245 27.6692 9.94896C27.6692 10.1355 27.7071 10.32 27.7806 10.4914C27.8541 10.6628 27.9617 10.8175 28.0969 10.946L39.8621 22.6015H5.51368C5.32112 22.5852 5.12728 22.6091 4.94442 22.6715C4.76156 22.734 4.59367 22.8338 4.45137 22.9646C4.30908 23.0953 4.19548 23.2542 4.11777 23.4311C4.04006 23.608 3.99994 23.7992 3.99994 23.9924C3.99994 24.1857 4.04006 24.3768 4.11777 24.5537C4.19548 24.7307 4.30908 24.8895 4.45137 25.0203C4.59367 25.151 4.76156 25.2508 4.94442 25.3133C5.12728 25.3758 5.32112 25.3996 5.51368 25.3833H39.8122L28.1268 37.0688C27.8624 37.3332 27.7138 37.6918 27.7138 38.0658C27.7138 38.4398 27.8624 38.7984 28.1268 39.0629C28.3912 39.3273 28.7499 39.4758 29.1238 39.4758C29.4978 39.4758 29.8565 39.3273 30.1209 39.0629L43.1922 25.9317C43.4482 25.6777 43.6513 25.3756 43.7899 25.0428C43.9286 24.71 43.9999 24.353 43.9999 23.9924C43.9999 23.6319 43.9286 23.2749 43.7899 22.9421C43.6513 22.6092 43.4482 22.3071 43.1922 22.0532Z" fill="black"/>
</svg>
