<svg width="48" height="48" viewBox="0 0 48 48" fill="none" xmlns="http://www.w3.org/2000/svg">
<path d="M39.0724 28.1268C38.9432 27.9929 38.7883 27.8864 38.617 27.8137C38.4457 27.741 38.2615 27.7035 38.0754 27.7035C37.8893 27.7035 37.7051 27.741 37.5338 27.8137C37.3625 27.8864 37.2076 27.9929 37.0783 28.1268L25.4128 39.8621V5.51368C25.4291 5.32112 25.4053 5.12728 25.3428 4.94442C25.2803 4.76156 25.1805 4.59367 25.0498 4.45137C24.9191 4.30908 24.7602 4.19548 24.5833 4.11777C24.4063 4.04006 24.2152 3.99994 24.0219 3.99994C23.8287 3.99994 23.6376 4.04006 23.4606 4.11777C23.2837 4.19548 23.1248 4.30908 22.9941 4.45137C22.8633 4.59367 22.7636 4.76156 22.7011 4.94442C22.6386 5.12728 22.6147 5.32112 22.6311 5.51368V39.8122L10.9456 28.1268C10.8171 27.9916 10.6624 27.884 10.491 27.8105C10.3196 27.737 10.1351 27.6991 9.94857 27.6991C9.76206 27.6991 9.5775 27.737 9.4061 27.8105C9.2347 27.884 9.08004 27.9916 8.95152 28.1268C8.81637 28.2553 8.70876 28.41 8.63523 28.5814C8.5617 28.7528 8.52378 28.9373 8.52378 29.1238C8.52378 29.3104 8.5617 29.4949 8.63523 29.6663C8.70876 29.8377 8.81637 29.9924 8.95152 30.1209L22.0827 43.1922C22.3366 43.4482 22.6387 43.6513 22.9716 43.7899C23.3044 43.9286 23.6614 43.9999 24.0219 43.9999C24.3825 43.9999 24.7395 43.9286 25.0723 43.7899C25.4052 43.6513 25.7073 43.4482 25.9612 43.1922L39.0724 30.091C39.3312 29.8296 39.4764 29.4767 39.4764 29.1089C39.4764 28.7411 39.3312 28.3882 39.0724 28.1268Z" fill="black"/>
</svg>
