<svg width="48" height="48" viewBox="0 0 48 48" fill="none" xmlns="http://www.w3.org/2000/svg">
<path d="M15.255 22.4226C15.1255 22.5227 15.0225 22.6531 14.9552 22.8023L6.13012 40.4424C6.06102 40.5643 6.01829 40.6993 6.00471 40.8386C5.99113 40.978 6.007 41.1187 6.05129 41.2516C6.09558 41.3845 6.1673 41.5066 6.2618 41.6099C6.35631 41.7133 6.47148 41.7957 6.59986 41.8517C6.74511 41.9261 6.90639 41.9638 7.0696 41.9616H19.3527C19.5506 41.9699 19.7465 41.9193 19.9155 41.8161C20.0846 41.7129 20.2192 41.5617 20.3022 41.3819C22.9507 35.905 21.3016 27.5897 16.6942 22.6124C16.6145 22.5024 16.5132 22.4098 16.3965 22.3402C16.2798 22.2706 16.1502 22.2256 16.0155 22.2078C15.8808 22.19 15.7439 22.1999 15.6131 22.2368C15.4824 22.2738 15.3605 22.3369 15.255 22.4226Z" fill="black"/>
<path d="M24.9496 6.57145C24.8667 6.40513 24.7391 6.26522 24.581 6.16742C24.423 6.06963 24.2409 6.01782 24.0551 6.01782C23.8692 6.01782 23.6871 6.06963 23.5291 6.16742C23.3711 6.26522 23.2435 6.40513 23.1606 6.57145C20.9581 9.95541 19.6746 13.8544 19.4363 17.885C19.198 21.9155 20.013 25.9386 21.8013 29.5585L27.728 41.4019C27.8104 41.5801 27.9434 41.7301 28.1104 41.8332C28.2775 41.9363 28.4713 41.9879 28.6675 41.9816H41.0006C41.2656 41.9816 41.5198 41.8763 41.7073 41.6888C41.8947 41.5014 42 41.2472 42 40.9821C41.9993 40.8193 41.9617 40.6587 41.8901 40.5124L24.9496 6.57145Z" fill="black"/>
</svg>
