<svg width="48" height="48" viewBox="0 0 48 48" fill="none" xmlns="http://www.w3.org/2000/svg">
<path d="M5.2763 23.7437L4.01683 26.1927C3.9989 26.2273 3.99513 26.2675 4.00632 26.3048C4.01752 26.3421 4.0428 26.3736 4.07681 26.3926H5.83607C5.86958 26.4022 5.9053 26.4005 5.93778 26.3878C5.97025 26.3752 5.99772 26.3523 6.01599 26.3227C6.17989 25.8927 6.22088 25.4256 6.13437 24.9737C6.04787 24.5217 5.83729 24.1028 5.5262 23.7637C5.51651 23.7395 5.50026 23.7185 5.47928 23.7031C5.4583 23.6876 5.43342 23.6783 5.40745 23.6763C5.38147 23.6742 5.35543 23.6794 5.33226 23.6913C5.30909 23.7032 5.28971 23.7214 5.2763 23.7437Z" fill="black"/>
<path d="M6.59575 21.5846C6.58234 21.5503 6.55592 21.5226 6.52223 21.5077C6.48854 21.4927 6.4503 21.4916 6.41582 21.5047C6.38795 21.5199 6.36662 21.5448 6.35585 21.5746C6.05654 22.0353 5.88172 22.5656 5.84843 23.114C5.81515 23.6623 5.92454 24.2099 6.16593 24.7033L7.01557 26.3227C7.02603 26.348 7.04423 26.3694 7.06757 26.3837C7.09091 26.3981 7.11819 26.4047 7.14552 26.4026H8.77483C8.81292 26.4027 8.84962 26.3883 8.87747 26.3623C8.90532 26.3363 8.92223 26.3007 8.92477 26.2627C8.9291 26.2396 8.9291 26.2158 8.92477 26.1927L6.59575 21.5846Z" fill="black"/>
<path d="M27.6669 23.9536C27.0771 23.8237 26.9372 23.6938 26.9372 23.5038C26.9372 23.3139 27.1471 23.174 27.5369 23.174C28.0083 23.1864 28.4717 23.2988 28.8964 23.5038V22.5842C28.4796 22.3939 28.0249 22.3016 27.5669 22.3143C26.5174 22.3143 26.0076 22.7641 26.0076 23.5038L29.1263 25.2131C29.0963 24.5034 28.7164 24.1736 27.6669 23.9536Z" fill="black"/>
<path d="M27.337 24.7833C27.9767 24.9232 28.1167 25.0232 28.1167 25.2431C28.1167 25.463 27.9767 25.583 27.5269 25.583C26.9944 25.5652 26.4737 25.4213 26.0076 25.1631V26.1627C26.475 26.3986 26.9935 26.5153 27.5169 26.5026C28.6465 26.5026 29.0963 26.0028 29.0963 25.2531L26.0076 23.5038C26.0076 24.1036 26.2575 24.5734 27.337 24.7833Z" fill="black"/>
<path d="M43.1404 22.3743V24.9732L42.8105 24.2235L41.8409 22.3743H40.4815V26.4026H41.3411V23.3339L41.701 24.1436L42.9205 26.4026H44V22.3743H43.1404Z" fill="black"/>
<path d="M35.0238 22.3743H34.0842V26.4026H35.0238V22.3743Z" fill="black"/>
<path d="M31.5652 23.9536C30.9855 23.8237 30.8455 23.6938 30.8455 23.5038C30.8455 23.3139 31.0555 23.174 31.4453 23.174C31.9167 23.1864 32.3801 23.2988 32.8047 23.5038V22.5842C32.388 22.3939 31.9332 22.3016 31.4753 22.3143C30.4757 22.3143 29.8859 22.7641 29.8859 23.5038C29.8859 24.2435 30.1658 24.5734 31.2454 24.7833C31.8851 24.9232 32.025 25.0232 32.025 25.2431C32.025 25.463 31.8851 25.583 31.4353 25.583C30.8862 25.5704 30.348 25.4264 29.866 25.1631V26.1627C30.3495 26.4035 30.8854 26.5203 31.4253 26.5026C32.5548 26.5026 33.0046 25.9628 33.0046 25.2131C33.0046 24.4634 32.6248 24.1736 31.5652 23.9536Z" fill="black"/>
<path d="M19.6303 22.3743H18.6907V26.4026H20.6198L20.9197 25.533H19.6303V22.3743Z" fill="black"/>
<path d="M14.8823 23.2439H15.9218V26.4026H16.8614V23.2439H17.981V22.3743H14.8823V23.2439Z" fill="black"/>
<path d="M12.2734 22.3743L10.864 26.3726H11.9335L12.1334 25.6929C12.6254 25.8428 13.1508 25.8428 13.6428 25.6929L13.8427 26.3726H14.9122L13.5028 22.3743H12.2734ZM12.8831 25.0032C12.7102 25.001 12.5385 24.9741 12.3733 24.9232L12.8831 23.164L13.4029 24.9232C13.2344 24.9749 13.0593 25.0019 12.8831 25.0032Z" fill="black"/>
<path d="M22.709 22.3743L21.2996 26.3726H22.3791L22.569 25.6929C23.061 25.8428 23.5864 25.8428 24.0784 25.6929L24.2783 26.3726H25.3479L23.9484 22.3743H22.709ZM23.3287 25.0032C23.1525 25.0019 22.9774 24.9749 22.8089 24.9232L23.3287 23.164L23.8385 24.9232C23.6735 24.975 23.5017 25.0019 23.3287 25.0032Z" fill="black"/>
<path d="M37.1629 22.3743L35.7635 26.3726H36.833L37.0329 25.6929C37.5215 25.8426 38.0437 25.8426 38.5323 25.6929L38.7322 26.3726H39.8118L38.4024 22.3743H37.1629ZM37.7826 25.0032C37.6097 25.0019 37.4379 24.975 37.2728 24.9232L37.7826 23.164L38.3024 24.9232C38.1339 24.9749 37.9588 25.0019 37.7826 25.0032Z" fill="black"/>
</svg>
