<svg width="48" height="48" viewBox="0 0 48 48" fill="none" xmlns="http://www.w3.org/2000/svg">
<path fill-rule="evenodd" clip-rule="evenodd" d="M38.8198 41.6202C39.163 41.8684 39.5762 42.0013 39.9998 41.9998C40.3102 42.0038 40.6175 41.939 40.8998 41.81C41.2342 41.6417 41.5146 41.383 41.7091 41.0633C41.9035 40.7436 42.0043 40.3759 41.9998 40.0018V8.03343C42.0065 7.65726 41.9067 7.28685 41.712 6.96482C41.5172 6.6428 41.2354 6.38225 40.899 6.21316C40.5626 6.04407 40.1852 5.97331 39.8103 6.00902C39.4354 6.04473 39.0782 6.18547 38.7798 6.41503L16.2098 22.3493C15.9435 22.5386 15.7265 22.7889 15.5767 23.0791C15.4269 23.3693 15.3488 23.6911 15.3488 24.0176C15.3488 24.3441 15.4269 24.6659 15.5767 24.9561C15.7265 25.2464 15.9435 25.4966 16.2098 25.686L38.8198 41.6202ZM39.2298 38.5532L18.6498 24.0176L39.2298 9.482V38.5532Z" fill="black"/>
<path fill-rule="evenodd" clip-rule="evenodd" d="M7.70988 41.9998H10.7099C11.1732 41.9972 11.6168 41.8121 11.9444 41.4848C12.272 41.1575 12.4573 40.7144 12.4599 40.2515V7.78364C12.4575 7.32757 12.2778 6.89029 11.9587 6.56409C11.6397 6.2379 11.2062 6.04832 10.7499 6.03537H7.74988C7.28656 6.03799 6.84296 6.22302 6.51534 6.55032C6.18772 6.87762 6.0025 7.32077 5.99988 7.78364V40.2515C6.00229 40.7076 6.18199 41.1449 6.50104 41.4711C6.8201 41.7973 7.25354 41.9868 7.70988 41.9998ZM9.68988 39.2325H8.76988V8.80263H9.68988V39.2325Z" fill="black"/>
</svg>
