<svg width="48" height="48" viewBox="0 0 48 48" fill="none" xmlns="http://www.w3.org/2000/svg">
<path d="M33.8897 43.9999C33.3889 43.9997 32.8969 43.8674 32.4635 43.6165C32.0301 43.3656 31.6705 43.0048 31.4209 42.5706L11.6309 8.30781C11.2518 7.6451 11.1515 6.85895 11.3521 6.1223C11.5527 5.38565 12.0376 4.75885 12.7003 4.37978C13.363 4.00071 14.1492 3.90043 14.8858 4.10099C15.6225 4.30155 16.2493 4.78653 16.6284 5.44924L36.3584 39.712C36.6123 40.1456 36.747 40.6385 36.7488 41.1409C36.7506 41.6433 36.6195 42.1373 36.3689 42.5726C36.1182 43.008 35.7568 43.3694 35.3214 43.62C34.886 43.8707 34.3921 44.0017 33.8897 43.9999Z" fill="black"/>
</svg>
