<svg width="48" height="48" viewBox="0 0 48 48" fill="none" xmlns="http://www.w3.org/2000/svg">
<path d="M40.68 6.26987C40.2826 6.06405 39.8361 5.97193 39.3897 6.00368C38.9432 6.03544 38.5142 6.18982 38.15 6.44981L16.15 21.9944C15.8366 22.2245 15.5824 22.5258 15.4085 22.8734C15.2346 23.2211 15.146 23.6051 15.15 23.9938C15.1435 24.3828 15.2311 24.7677 15.4052 25.1158C15.5792 25.4639 15.8347 25.7648 16.15 25.9931L38.15 41.5477C38.5612 41.8418 39.0544 41.9992 39.56 41.9975C39.9493 41.996 40.3328 41.9036 40.68 41.7276C41.0781 41.5195 41.4116 41.2064 41.6443 40.8222C41.877 40.438 42 39.9975 42 39.5484V8.43913C41.9982 7.99172 41.8743 7.55327 41.6417 7.17103C41.4091 6.78878 41.0766 6.47721 40.68 6.26987Z" fill="black"/>
<path d="M11.04 5.99997H8.16C6.96706 5.99997 6 6.9667 6 8.15922V39.8283C6 41.0208 6.96706 41.9876 8.16 41.9876H11.04C12.2329 41.9876 13.2 41.0208 13.2 39.8283V8.15922C13.2 6.9667 12.2329 5.99997 11.04 5.99997Z" fill="black"/>
</svg>
