<svg width="48" height="48" viewBox="0 0 48 48" fill="none" xmlns="http://www.w3.org/2000/svg">
<path d="M33.5949 41.9991C33.352 41.999 33.1134 41.9352 32.9029 41.8141C32.6923 41.6931 32.5172 41.519 32.3949 41.3092L13.2149 8.07915C13.1219 7.92265 13.0611 7.74921 13.036 7.56895C13.0108 7.38868 13.0218 7.20522 13.0684 7.02926C13.1149 6.8533 13.1961 6.68839 13.3071 6.54414C13.4181 6.3999 13.5567 6.27922 13.7149 6.18915C13.8717 6.09756 14.0451 6.03784 14.2251 6.0134C14.4051 5.98896 14.5881 6.0003 14.7637 6.04675C14.9393 6.0932 15.104 6.17386 15.2483 6.2841C15.3927 6.39433 15.5138 6.53198 15.6049 6.68915L34.7949 39.9191C34.9763 40.2378 35.0245 40.6152 34.929 40.9692C34.8335 41.3232 34.602 41.6251 34.2849 41.8092C34.0765 41.9343 33.8379 42 33.5949 41.9991Z" fill="black"/>
</svg>
