<svg width="48" height="48" viewBox="0 0 48 48" fill="none" xmlns="http://www.w3.org/2000/svg">
<path d="M41.2699 18.2839H35.2699L31.6999 8.34391C31.4359 7.68715 30.9272 7.15858 30.281 6.8697C29.6348 6.58082 28.9017 6.5542 28.2363 6.79547C27.5708 7.03674 27.0251 7.52702 26.7142 8.16292C26.4033 8.79881 26.3516 9.53059 26.5699 10.2039L29.5099 18.2839H18.5099L21.4499 10.2039C21.6965 9.52098 21.6618 8.76804 21.3533 8.11072C21.0448 7.45341 20.4878 6.94557 19.8049 6.69891C19.1219 6.45226 18.369 6.48701 17.7117 6.7955C17.0544 7.104 16.5465 7.66098 16.2999 8.34391L12.6799 18.2839H6.72987C6.00583 18.2839 5.31144 18.5715 4.79947 19.0835C4.2875 19.5955 3.99987 20.2899 3.99987 21.0139V22.8339C3.99456 23.4786 4.21755 24.1043 4.62936 24.6003C5.04117 25.0963 5.61523 25.4306 6.24987 25.5439L8.24987 36.9339C8.46502 38.2019 9.12247 39.3527 10.1055 40.182C11.0886 41.0113 12.3337 41.4655 13.6199 41.4639H34.4199C35.706 41.4655 36.9511 41.0113 37.9342 40.182C38.9173 39.3527 39.5747 38.2019 39.7899 36.9339L41.7899 25.5439C42.4172 25.4222 42.9819 25.0844 43.3857 24.5892C43.7895 24.094 44.0069 23.4729 43.9999 22.8339V21.0139C43.9999 20.2899 43.7122 19.5955 43.2003 19.0835C42.6883 18.5715 41.9939 18.2839 41.2699 18.2839ZM21.2699 35.3539C21.2884 35.6036 21.2553 35.8544 21.1724 36.0907C21.0896 36.327 20.959 36.5436 20.7886 36.7271C20.6183 36.9106 20.4119 37.0569 20.1824 37.157C19.9529 37.2571 19.7052 37.3087 19.4549 37.3087C19.2045 37.3087 18.9568 37.2571 18.7273 37.157C18.4979 37.0569 18.2915 36.9106 18.1211 36.7271C17.9508 36.5436 17.8201 36.327 17.7373 36.0907C17.6545 35.8544 17.6213 35.6036 17.6399 35.3539V27.4439C17.6213 27.1942 17.6545 26.9434 17.7373 26.7071C17.8201 26.4709 17.9508 26.2542 18.1211 26.0707C18.2915 25.8873 18.4979 25.7409 18.7273 25.6408C18.9568 25.5408 19.2045 25.4891 19.4549 25.4891C19.7052 25.4891 19.9529 25.5408 20.1824 25.6408C20.4119 25.7409 20.6183 25.8873 20.7886 26.0707C20.959 26.2542 21.0896 26.4709 21.1724 26.7071C21.2553 26.9434 21.2884 27.1942 21.2699 27.4439V35.3539ZM25.8199 35.3539C25.8199 35.8366 25.6281 36.2995 25.2868 36.6409C24.9455 36.9822 24.4826 37.1739 23.9999 37.1739C23.5172 37.1739 23.0543 36.9822 22.7129 36.6409C22.3716 36.2995 22.1799 35.8366 22.1799 35.3539V27.4439C22.1799 26.9612 22.3716 26.4983 22.7129 26.157C23.0543 25.8157 23.5172 25.6239 23.9999 25.6239C24.4826 25.6239 24.9455 25.8157 25.2868 26.157C25.6281 26.4983 25.8199 26.9612 25.8199 27.4439V35.3539ZM30.3599 35.3539C30.3784 35.6036 30.3453 35.8544 30.2624 36.0907C30.1796 36.327 30.049 36.5436 29.8786 36.7271C29.7083 36.9106 29.5019 37.0569 29.2724 37.157C29.0429 37.2571 28.7952 37.3087 28.5449 37.3087C28.2945 37.3087 28.0468 37.2571 27.8173 37.157C27.5879 37.0569 27.3815 36.9106 27.2111 36.7271C27.0408 36.5436 26.9101 36.327 26.8273 36.0907C26.7445 35.8544 26.7113 35.6036 26.7299 35.3539V27.4439C26.7113 27.1942 26.7445 26.9434 26.8273 26.7071C26.9101 26.4709 27.0408 26.2542 27.2111 26.0707C27.3815 25.8873 27.5879 25.7409 27.8173 25.6408C28.0468 25.5408 28.2945 25.4891 28.5449 25.4891C28.7952 25.4891 29.0429 25.5408 29.2724 25.6408C29.5019 25.7409 29.7083 25.8873 29.8786 26.0707C30.049 26.2542 30.1796 26.4709 30.2624 26.7071C30.3453 26.9434 30.3784 27.1942 30.3599 27.4439V35.3539Z" fill="black"/>
</svg>
