<svg width="48" height="48" viewBox="0 0 48 48" fill="none" xmlns="http://www.w3.org/2000/svg">
<path d="M20.3335 36.1475C20.0731 36.4098 19.7195 36.5585 19.35 36.5611C18.9891 36.5482 18.6472 36.3964 18.3956 36.1374C18.1441 35.8784 18.0023 35.5322 18 35.1711V27.0811C17.9571 26.8773 17.9602 26.6664 18.0092 26.4639C18.0581 26.2614 18.1516 26.0724 18.2829 25.9107C18.4141 25.7489 18.5798 25.6185 18.7679 25.5289C18.956 25.4393 19.1617 25.3928 19.37 25.3928C19.5783 25.3928 19.784 25.4393 19.972 25.5289C20.1601 25.6185 20.3258 25.7489 20.4571 25.9107C20.5883 26.0724 20.6818 26.2614 20.7308 26.4639C20.7797 26.6664 20.7829 26.8773 20.74 27.0811V35.1611C20.74 35.5307 20.5939 35.8853 20.3335 36.1475Z" fill="black"/>
<path d="M24.0001 36.561C24.3714 36.561 24.7275 36.4135 24.99 36.151C25.2526 35.8884 25.4001 35.5323 25.4001 35.161V27.081C25.4001 26.7097 25.2526 26.3536 24.99 26.0911C24.7275 25.8285 24.3714 25.681 24.0001 25.681C23.6288 25.681 23.2727 25.8285 23.0101 26.0911C22.7476 26.3536 22.6001 26.7097 22.6001 27.081V35.171C22.6027 35.5406 22.7514 35.8941 23.0137 36.1545C23.2759 36.4149 23.6305 36.5611 24.0001 36.561Z" fill="black"/>
<path d="M29.6398 36.151C29.3773 36.4136 29.0212 36.5611 28.6499 36.5611C28.282 36.5585 27.93 36.4112 27.6699 36.1511C27.4098 35.891 27.2625 35.5389 27.2599 35.1711V27.0811C27.2435 26.888 27.2674 26.6936 27.3301 26.5102C27.3928 26.3268 27.4929 26.1584 27.624 26.0156C27.7551 25.8729 27.9145 25.759 28.0919 25.6811C28.2694 25.6031 28.4611 25.5629 28.6549 25.5629C28.8487 25.5629 29.0404 25.6031 29.2179 25.6811C29.3953 25.759 29.5546 25.8729 29.6858 26.0156C29.8169 26.1584 29.917 26.3268 29.9797 26.5102C30.0423 26.6936 30.0662 26.888 30.0499 27.0811V35.1611C30.0499 35.5324 29.9024 35.8885 29.6398 36.151Z" fill="black"/>
<path fill-rule="evenodd" clip-rule="evenodd" d="M34.26 18.1611H41.67C42.288 18.1611 42.8806 18.4066 43.3176 18.8436C43.7545 19.2805 44 19.8732 44 20.4911V22.3511C44.0001 22.9579 43.7626 23.5405 43.3383 23.9742C42.9139 24.4079 42.3366 24.6581 41.73 24.6711L39.66 36.6711C39.46 37.8547 38.8489 38.9297 37.9343 39.7071C37.0198 40.4845 35.8603 40.9144 34.66 40.9211H13.3C12.0997 40.9144 10.9402 40.4845 10.0257 39.7071C9.1111 38.9297 8.50003 37.8547 8.3 36.6711L6.23 24.6711C5.63043 24.6479 5.0632 24.3932 4.64739 23.9606C4.23158 23.528 3.99955 22.9511 4 22.3511V20.4911C4 19.8732 4.24548 19.2805 4.68244 18.8436C5.1194 18.4066 5.71205 18.1611 6.33 18.1611H13.74L17.44 8.00113C17.5015 7.82896 17.5964 7.67061 17.7192 7.53517C17.842 7.39973 17.9904 7.28984 18.1557 7.21182C18.3211 7.13379 18.5002 7.08914 18.6828 7.08045C18.8654 7.07175 19.048 7.09917 19.22 7.16113C19.3985 7.22332 19.5625 7.321 19.7022 7.44828C19.8419 7.57557 19.9544 7.72983 20.0329 7.90176C20.1114 8.07369 20.1543 8.25973 20.1589 8.44867C20.1636 8.63761 20.1299 8.82554 20.06 9.00113L16.71 18.2111H31.29L27.94 9.00113C27.8743 8.82909 27.8432 8.64581 27.8484 8.46175C27.8535 8.27769 27.8949 8.09644 27.9701 7.92837C28.0454 7.7603 28.1529 7.60868 28.2867 7.48219C28.4206 7.35569 28.578 7.25679 28.75 7.19113C28.922 7.12547 29.1053 7.09433 29.2894 7.0995C29.4734 7.10467 29.6547 7.14605 29.8228 7.22126C29.9908 7.29648 30.1424 7.40406 30.2689 7.53787C30.3954 7.67168 30.4943 7.8291 30.56 8.00113L34.26 18.1611ZM36.211 37.5813C36.6303 37.226 36.91 36.7334 37 36.1911L38.93 24.6811H9.05L11.05 36.1911C11.14 36.7334 11.4197 37.226 11.839 37.5813C12.2584 37.9366 12.7903 38.1314 13.34 38.1311H34.71C35.2597 38.1314 35.7916 37.9366 36.211 37.5813ZM6.79 21.8811H41.21V20.9511H6.79V21.8811Z" fill="black"/>
</svg>
