<svg width="48" height="48" viewBox="0 0 48 48" fill="none" xmlns="http://www.w3.org/2000/svg">
<path fill-rule="evenodd" clip-rule="evenodd" d="M16.8199 40.02C17.0766 40.1855 17.3746 40.2756 17.6799 40.28C17.8848 40.2814 18.0879 40.2414 18.2769 40.1623C18.4659 40.0833 18.637 39.9668 18.7799 39.82L36.9999 21.72C37.2538 21.4852 37.4315 21.1797 37.5101 20.8429C37.5887 20.5061 37.5645 20.1535 37.4408 19.8306C37.317 19.5077 37.0992 19.2293 36.8157 19.0313C36.5321 18.8333 36.1957 18.7249 35.8499 18.72H26.9999L33.1899 10.52C33.3831 10.2653 33.5006 9.96139 33.5289 9.64301C33.5572 9.32463 33.4952 9.00472 33.3499 8.71999C33.2149 8.42411 32.9983 8.17288 32.7255 7.99576C32.4528 7.81863 32.1351 7.72297 31.8099 7.71999H18.8099C18.4695 7.71833 18.1363 7.81832 17.853 8.00717C17.5698 8.19601 17.3493 8.4651 17.2199 8.77999L10.5799 24.64C10.4719 24.9035 10.4302 25.1894 10.4585 25.4728C10.4868 25.7562 10.5842 26.0283 10.7421 26.2652C10.9001 26.5021 11.1138 26.6967 11.3645 26.8318C11.6152 26.9669 11.8952 27.0384 12.1799 27.04H20.7099L16.2299 38.13C16.0924 38.4644 16.0761 38.8363 16.1838 39.1815C16.2916 39.5266 16.5166 39.8232 16.8199 40.02ZM22.5299 24.28H13.7699L19.5199 10.51H29.6899L23.2499 19.03C23.0748 19.2619 22.968 19.5381 22.9414 19.8274C22.9149 20.1168 22.9697 20.4078 23.0996 20.6677C23.2295 20.9275 23.4295 21.146 23.6769 21.2983C23.9243 21.4507 24.2094 21.5309 24.4999 21.53H33.2599L21.0799 33.63L23.9999 26.39C24.0917 26.1532 24.1239 25.8974 24.0937 25.6452C24.0634 25.3931 23.9717 25.1522 23.8265 24.9438C23.6813 24.7354 23.4871 24.5658 23.261 24.4501C23.0349 24.3343 22.7839 24.2759 22.5299 24.28Z" fill="black"/>
<path d="M18.1799 29.58H6.78993V18.42H11.6799L12.8399 15.63H5.83993C5.3501 15.6353 4.88213 15.8336 4.53762 16.1818C4.19312 16.5301 3.9999 17.0001 3.99993 17.49V30.49C3.99993 30.9833 4.1959 31.4564 4.54471 31.8052C4.89353 32.154 5.36663 32.35 5.85993 32.35H17.0499L18.1799 29.58Z" fill="black"/>
<path d="M42.33 20.51V17.51C42.33 17.0167 42.134 16.5436 41.7852 16.1948C41.4364 15.846 40.9633 15.65 40.47 15.65H31.07L29.77 17.36H35.82C36.2678 17.3601 36.7104 17.4566 37.1176 17.643C37.5248 17.8293 37.8871 18.1012 38.18 18.44H39.54V21.82C39.5451 22.2066 39.7002 22.576 39.9726 22.8503C40.2451 23.1246 40.6134 23.2823 41 23.29H41.1899V24.72H41C40.6074 24.72 40.231 24.876 39.9534 25.1535C39.6759 25.4311 39.52 25.8075 39.52 26.2V29.59H31.08L28.27 32.38H40.47C40.9633 32.38 41.4364 32.1841 41.7852 31.8352C42.134 31.4864 42.33 31.0133 42.33 30.52V27.52C42.7922 27.4703 43.2194 27.2502 43.5281 26.9026C43.8369 26.555 44.0051 26.1049 44 25.64V22.36C43.9999 21.8997 43.8291 21.4557 43.5206 21.114C43.2121 20.7722 42.7879 20.5571 42.33 20.51Z" fill="black"/>
</svg>
