<svg width="48" height="48" viewBox="0 0 48 48" fill="none" xmlns="http://www.w3.org/2000/svg">
<path d="M42.43 19.83V17.89C42.43 17.0944 42.1139 16.3313 41.5513 15.7687C40.9887 15.2061 40.2256 14.89 39.43 14.89H6.99995C6.20832 14.9029 5.45272 15.2231 4.89288 15.7829C4.33303 16.3428 4.01283 17.0984 3.99995 17.89L3.99995 30.11C3.99995 30.9057 4.31602 31.6687 4.87863 32.2313C5.44124 32.7939 6.2043 33.11 6.99995 33.11H39.39C40.1856 33.11 40.9487 32.7939 41.5113 32.2313C42.0739 31.6687 42.39 30.9057 42.39 30.11V28.21C42.8757 27.956 43.2826 27.5738 43.5665 27.1049C43.8503 26.6359 44.0002 26.0982 44 25.55V22.49C44.0041 21.9459 43.8601 21.411 43.5836 20.9424C43.307 20.4739 42.9083 20.0893 42.43 19.83ZM37.22 26.07V27.89H23.22V20.11H37.22V21.97C37.2256 22.3642 37.3181 22.7524 37.491 23.1067C37.6638 23.4611 37.9127 23.7729 38.22 24.02C37.9138 24.268 37.6656 24.5801 37.4929 24.9342C37.3201 25.2884 37.227 25.676 37.22 26.07Z" fill="black"/>
</svg>
