<svg width="48" height="48" viewBox="0 0 48 48" fill="none" xmlns="http://www.w3.org/2000/svg">
<path d="M39.3899 33.1299H6.99986C6.20421 33.1299 5.44115 32.8138 4.87854 32.2512C4.31593 31.6886 3.99986 30.9255 3.99986 30.1299V17.8699C4.01273 17.0782 4.33294 16.3226 4.89278 15.7628C5.45262 15.203 6.20822 14.8827 6.99986 14.8699H39.3899C40.1855 14.8699 40.9486 15.1859 41.5112 15.7486C42.0738 16.3112 42.3899 17.0742 42.3899 17.8699V19.7699C42.8817 20.027 43.2926 20.4154 43.5768 20.8921C43.8611 21.3688 44.0075 21.9149 43.9999 22.4699V25.5299C44.004 26.0739 43.86 26.6089 43.5835 27.0775C43.3069 27.546 42.9082 27.9305 42.4299 28.1899V30.0899C42.4352 30.4906 42.3603 30.8883 42.2094 31.2596C42.0585 31.6308 41.8348 31.9681 41.5514 32.2515C41.2681 32.5348 40.9308 32.7586 40.5595 32.9094C40.1883 33.0603 39.7906 33.1353 39.3899 33.1299ZM9.21986 27.8699H37.2199V26.0499C37.234 25.6644 37.3306 25.2865 37.5031 24.9415C37.6756 24.5965 37.92 24.2925 38.2199 24.0499C37.9126 23.8028 37.6637 23.4909 37.4909 23.1366C37.318 22.7822 37.2255 22.3941 37.2199 21.9999V20.0899H9.21986V27.8699Z" fill="black"/>
</svg>
