<svg width="48" height="48" viewBox="0 0 48 48" fill="none" xmlns="http://www.w3.org/2000/svg">
<path d="M17.4199 29.245H12.4199C11.7723 29.2343 11.1371 29.0666 10.5686 28.7561C10.0002 28.4457 9.51569 28.0019 9.15667 27.4629C8.79765 26.9239 8.57488 26.3058 8.5075 25.6616C8.44013 25.0175 8.53018 24.3666 8.76989 23.765L12.2999 15.375H6.29989C5.99928 15.371 5.70087 15.4268 5.42199 15.5391C5.1431 15.6514 4.88931 15.818 4.67533 16.0291C4.46136 16.2403 4.29146 16.4919 4.17551 16.7693C4.05956 17.0467 3.99987 17.3443 3.99989 17.645V30.375C3.99989 30.977 4.23905 31.5544 4.66476 31.9801C5.09047 32.4058 5.66785 32.645 6.26989 32.645H16.0499L17.4199 29.245Z" fill="black"/>
<path d="M42.3599 20.225V17.645C42.3599 17.3469 42.3012 17.0517 42.1871 16.7763C42.073 16.5009 41.9058 16.2506 41.695 16.0398C41.4842 15.8291 41.234 15.6619 40.9586 15.5478C40.6832 15.4337 40.388 15.375 40.0899 15.375H32.3899L31.4699 16.645H35.5499C36.3259 16.6633 37.0798 16.9071 37.7197 17.3465C38.3596 17.786 38.8578 18.4021 39.1536 19.1198C39.4493 19.8374 39.5299 20.6257 39.3854 21.3884C39.2409 22.151 38.8777 22.8552 38.3399 23.415L28.9999 32.645H40.0899C40.6919 32.645 41.2693 32.4058 41.695 31.9801C42.1207 31.5544 42.3599 30.977 42.3599 30.375V27.795C42.8269 27.6585 43.238 27.3762 43.533 26.9893C43.8281 26.6025 43.9917 26.1314 43.9999 25.645V22.445C44.0068 21.9465 43.8502 21.4596 43.554 21.0586C43.2578 20.6577 42.8384 20.3649 42.3599 20.225Z" fill="black"/>
<path d="M37.5399 19.745C37.3778 19.3486 37.1006 19.01 36.7441 18.7729C36.3875 18.5358 35.9681 18.4111 35.5399 18.415H27.8199L33.3599 11.075C33.6 10.7572 33.7466 10.3787 33.7833 9.98215C33.82 9.58557 33.7453 9.18661 33.5676 8.83018C33.3899 8.47374 33.1163 8.17397 32.7775 7.96458C32.4387 7.7552 32.0482 7.64451 31.6499 7.64498H18.9299C18.5035 7.643 18.086 7.7673 17.7301 8.0022C17.3741 8.23711 17.0957 8.5721 16.9299 8.96498L10.4699 24.465C10.3337 24.7881 10.2798 25.1399 10.3129 25.4889C10.3461 25.838 10.4653 26.1733 10.6599 26.465C10.8505 26.7661 11.1129 27.0152 11.4236 27.1897C11.7343 27.3643 12.0836 27.4589 12.4399 27.465H20.1099L15.9999 37.645C15.8331 38.0681 15.8155 38.5355 15.95 38.97C16.0846 39.4045 16.3632 39.7801 16.7399 40.035C17.0647 40.2448 17.4433 40.3559 17.8299 40.355C18.3532 40.3554 18.8558 40.1508 19.2299 39.785L37.0599 22.075C37.3626 21.7784 37.57 21.3983 37.6555 20.9832C37.741 20.5682 37.7007 20.137 37.5399 19.745Z" fill="black"/>
</svg>
