<svg width="48" height="48" viewBox="0 0 48 48" fill="none" xmlns="http://www.w3.org/2000/svg">
<path d="M8.18988 19.8199H38.1399V28.1899H8.18988V19.8199Z" fill="black"/>
<path fill-rule="evenodd" clip-rule="evenodd" d="M5.86005 32.37H40.47C40.7169 32.37 40.9612 32.3209 41.1888 32.2256C41.4165 32.1303 41.6229 31.9906 41.796 31.8147C41.9691 31.6388 42.1055 31.4302 42.1972 31.201C42.2889 30.9719 42.334 30.7268 42.33 30.48V27.48C42.788 27.433 43.2122 27.2178 43.5207 26.8761C43.8292 26.5343 44 26.0904 44 25.63V22.36C44.0027 21.8968 43.8334 21.4492 43.5248 21.1037C43.2163 20.7582 42.7906 20.5395 42.33 20.49V17.49C42.33 16.9967 42.1341 16.5236 41.7853 16.1748C41.4364 15.826 40.9633 15.63 40.47 15.63H5.86005C5.6141 15.63 5.37058 15.6788 5.1436 15.7735C4.91663 15.8682 4.71069 16.007 4.53771 16.1818C4.36472 16.3567 4.22814 16.5641 4.13585 16.7921C4.04356 17.0201 3.9974 17.2641 4.00005 17.51V30.51C4.00005 31.0033 4.19601 31.4764 4.54483 31.8252C4.89365 32.174 5.36674 32.37 5.86005 32.37ZM39.54 29.63H6.79005V18.42H39.52V21.81C39.52 22.2025 39.676 22.579 39.9535 22.8565C40.2311 23.1341 40.6075 23.29 41 23.29H41.19V24.71H41C40.6101 24.7179 40.2388 24.8783 39.9658 25.1569C39.6928 25.4355 39.54 25.81 39.54 26.2V29.63Z" fill="black"/>
</svg>
