<svg width="48" height="48" viewBox="0 0 48 48" fill="none" xmlns="http://www.w3.org/2000/svg">
<path d="M40.4699 32.37H5.85993C5.36663 32.37 4.89353 32.174 4.54471 31.8252C4.1959 31.4764 3.99993 31.0033 3.99993 30.51V17.51C3.99729 17.2641 4.04345 17.02 4.13573 16.7921C4.22802 16.5641 4.36461 16.3567 4.53759 16.1818C4.71057 16.007 4.91651 15.8682 5.14349 15.7735C5.37047 15.6788 5.61398 15.63 5.85993 15.63H40.4699C40.9632 15.63 41.4363 15.826 41.7851 16.1748C42.134 16.5236 42.3299 16.9967 42.3299 17.49V20.49C42.7905 20.5395 43.2162 20.7582 43.5247 21.1037C43.8333 21.4492 44.0026 21.8968 43.9999 22.36V25.63C43.9999 26.0904 43.8291 26.5343 43.5206 26.8761C43.2121 27.2178 42.7879 27.433 42.3299 27.48V30.48C42.3339 30.7268 42.2887 30.9719 42.1971 31.201C42.1054 31.4302 41.969 31.6388 41.7959 31.8147C41.6228 31.9906 41.4164 32.1303 41.1887 32.2256C40.9611 32.321 40.7167 32.37 40.4699 32.37ZM6.78993 29.63H39.5399V26.2C39.5399 25.81 39.6927 25.4355 39.9657 25.1569C40.2387 24.8783 40.61 24.7179 40.9999 24.71H41.1899V23.29H40.9999C40.6074 23.29 40.231 23.1341 39.9534 22.8565C39.6759 22.579 39.5199 22.2025 39.5199 21.81V18.42H6.78993V29.63Z" fill="black"/>
</svg>
