<svg width="48" height="48" viewBox="0 0 48 48" fill="none" xmlns="http://www.w3.org/2000/svg">
<path fill-rule="evenodd" clip-rule="evenodd" d="M19.77 21.93C19.3302 22.2339 18.8043 22.3882 18.27 22.37H14.81V18.75H18C18.2915 18.7476 18.5826 18.771 18.87 18.82C19.1351 18.8608 19.3897 18.9525 19.62 19.09C19.8435 19.2171 20.0271 19.4041 20.15 19.63C20.2881 19.9056 20.3535 20.212 20.34 20.52C20.3668 20.7837 20.3288 21.0499 20.2295 21.2956C20.1302 21.5412 19.9725 21.759 19.77 21.93ZM20.3 25.21C20.5456 25.4177 20.7375 25.6816 20.8593 25.9793C20.9812 26.277 21.0294 26.5997 21 26.92C21.0157 27.2646 20.947 27.6079 20.8 27.92C20.669 28.1677 20.4803 28.3804 20.25 28.54C20.0041 28.7017 19.7289 28.8138 19.44 28.87C19.1282 28.9394 18.8094 28.973 18.49 28.97H14.81V24.7H18.52C19.1536 24.6671 19.78 24.8466 20.3 25.21ZM36.58 26.74C36.6433 25.9008 36.5724 25.0569 36.37 24.24C36.1773 23.4721 35.8378 22.7488 35.37 22.11C34.9103 21.4842 34.3111 20.974 33.62 20.62C32.8473 20.2352 31.993 20.0431 31.13 20.06C30.3237 20.0539 29.5245 20.2103 28.78 20.52C28.0933 20.8102 27.4731 21.2375 26.9573 21.7757C26.4415 22.3139 26.0409 22.9517 25.78 23.65C25.2402 25.1839 25.2402 26.8561 25.78 28.39C26.029 29.0843 26.4169 29.7206 26.92 30.26C27.4256 30.7932 28.044 31.2066 28.73 31.47C29.4959 31.7627 30.3101 31.9086 31.13 31.9C32.2813 31.9251 33.4147 31.6122 34.39 31C35.3737 30.2998 36.0813 29.2773 36.39 28.11H33.67C33.5149 28.5249 33.2265 28.8767 32.85 29.11C32.2995 29.45 31.6578 29.6122 31.0119 29.5746C30.366 29.537 29.7473 29.3015 29.24 28.9C28.7223 28.2983 28.4509 27.5233 28.48 26.73L36.58 26.74ZM23.93 29.14C24.2379 28.519 24.3923 27.8331 24.38 27.14C24.4057 26.2612 24.1614 25.3957 23.68 24.66C23.1642 23.9396 22.4093 23.4258 21.55 23.21C22.1787 22.9321 22.7235 22.4942 23.13 21.94C23.5101 21.3446 23.6954 20.6455 23.66 19.94C23.6777 19.3151 23.5582 18.6938 23.31 18.12C23.0836 17.6473 22.7392 17.2409 22.31 16.94C21.8315 16.63 21.2989 16.4129 20.74 16.3C20.0821 16.164 19.4118 16.097 18.74 16.1H11.4V31.6H18.91C19.5853 31.6027 20.2579 31.5152 20.91 31.34C21.5405 31.1826 22.1369 30.9115 22.67 30.54C23.1939 30.1786 23.6256 29.699 23.93 29.14ZM27.85 18.67H34.13V17.14H27.85V18.67ZM40 6C40.5304 6 41.0391 6.21071 41.4142 6.58579C41.7893 6.96086 42 7.46957 42 8V40C42 40.5304 41.7893 41.0391 41.4142 41.4142C41.0391 41.7893 40.5304 42 40 42H8C7.46957 42 6.96086 41.7893 6.58579 41.4142C6.21071 41.0391 6 40.5304 6 40V8C6 7.46957 6.21071 6.96086 6.58579 6.58579C6.96086 6.21071 7.46957 6 8 6H40ZM31 22.39C31.3194 22.368 31.6399 22.4126 31.9412 22.5211C32.2425 22.6295 32.5179 22.7994 32.75 23.02C33.1668 23.5207 33.4152 24.1401 33.46 24.79H28.46C28.4833 24.5395 28.5302 24.2917 28.6 24.05C28.6854 23.7611 28.8283 23.4924 29.02 23.26C29.2615 22.968 29.5684 22.737 29.916 22.5858C30.2635 22.4346 30.6417 22.3676 31.02 22.39H31Z" fill="black"/>
</svg>
