<svg width="48" height="48" viewBox="0 0 48 48" fill="none" xmlns="http://www.w3.org/2000/svg">
<path fill-rule="evenodd" clip-rule="evenodd" d="M15.1846 31.8627C15.6946 31.8698 16.2037 31.8195 16.7025 31.7129C17.158 31.6235 17.5919 31.4472 17.9807 31.1936C18.3576 30.9452 18.661 30.6004 18.8595 30.195C19.0968 29.6968 19.2099 29.1486 19.1891 28.5972C19.2387 28.0937 19.1676 27.5856 18.9818 27.115C18.796 26.6443 18.5008 26.2248 18.1205 25.8909C17.2966 25.3184 16.3066 25.0341 15.3044 25.0821H9.41254V31.8427L15.1846 31.8627ZM14.885 21.4071C15.7309 21.4405 16.5648 21.1987 17.2617 20.7181C17.5902 20.4495 17.847 20.1037 18.009 19.7116C18.1711 19.3195 18.2334 18.8933 18.1904 18.4712C18.2065 17.9844 18.1037 17.5011 17.8909 17.0631C17.6919 16.7078 17.4025 16.4115 17.052 16.2043C16.6845 15.9917 16.2821 15.8463 15.8636 15.7749C15.4054 15.6941 14.9409 15.654 14.4756 15.655H9.41254V21.4071H14.885ZM15.584 11.4808C16.6605 11.4696 17.7352 11.5734 18.7896 11.7904C19.6745 11.9619 20.5184 12.3009 21.2762 12.789C21.9653 13.2669 22.5164 13.9178 22.874 14.6764C23.2756 15.5839 23.4668 16.5706 23.4332 17.5624C23.4734 18.6555 23.1809 19.7349 22.5944 20.6582C21.9504 21.534 21.0854 22.2232 20.0878 22.6554C21.4492 22.9917 22.6461 23.8026 23.4632 24.9422C24.2388 26.1262 24.6262 27.5224 24.5716 28.9367C24.5991 30.0534 24.3558 31.1601 23.8626 32.1623C23.3969 33.0441 22.7297 33.8037 21.9153 34.3792C21.0684 34.9712 20.1209 35.4043 19.1192 35.6575C18.0733 35.9347 16.9955 36.0723 15.9136 36.0669H4V11.4808H15.584ZM37.9532 22.4657C37.5857 22.1177 37.1504 21.8494 36.6744 21.6776C36.1984 21.5057 35.692 21.4341 35.187 21.467C34.5153 21.4426 33.8475 21.5796 33.2397 21.8665C32.7632 22.1116 32.3419 22.4514 32.0014 22.8651C31.7022 23.2363 31.4813 23.6644 31.3523 24.1234C31.2353 24.5038 31.1583 24.8954 31.1226 25.2918H39.1116C39.0476 24.2478 38.6404 23.2542 37.9532 22.4657ZM32.3309 31.8128C32.7618 32.1919 33.2631 32.4822 33.8064 32.6673C34.3496 32.8524 34.9239 32.9285 35.4966 32.8913C36.3758 32.8887 37.2331 32.6168 37.9532 32.1124C38.5542 31.7484 39.0151 31.1926 39.2614 30.5345H43.5655C43.0842 32.3935 41.9589 34.0213 40.3898 35.1282C38.8488 36.0853 37.0603 36.5681 35.2469 36.5163C33.9503 36.5343 32.6621 36.3038 31.4522 35.8372C30.3676 35.4154 29.3866 34.7649 28.5761 33.9299C27.78 33.0617 27.1654 32.0431 26.7686 30.934C26.3296 29.7177 26.1131 28.4322 26.1295 27.1392C26.1377 25.882 26.3746 24.6367 26.8285 23.4643C27.2334 22.3506 27.8637 21.3324 28.6798 20.4733C29.496 19.6142 30.4805 18.9326 31.572 18.4712C32.7479 17.9794 34.0124 17.7346 35.2869 17.7522C36.6704 17.7123 38.0424 18.0141 39.2814 18.6309C40.3804 19.1855 41.3319 19.9933 42.0575 20.9877C42.7988 21.9977 43.3318 23.1451 43.6254 24.363C43.9505 25.668 44.0651 27.0165 43.9649 28.3575H31.0727C31.0312 29.6105 31.4625 30.8332 32.281 31.7828L32.3309 31.8128ZM30.0741 15.5552V13.1285H40.0603V15.5552H30.0741Z" fill="black"/>
</svg>
