<svg width="48" height="48" viewBox="0 0 48 48" fill="none" xmlns="http://www.w3.org/2000/svg">
<path d="M37.8743 33.1073L37.6338 32.8067C36.5014 31.4138 34.7777 29.3193 34.7777 22.9959C34.7777 17.3741 31.601 12.5739 26.9211 10.9705V9.1667C26.9427 8.7661 26.8838 8.36524 26.7481 7.98773C26.6123 7.61022 26.4024 7.26371 26.1306 6.9686C25.8588 6.67349 25.5308 6.43576 25.1657 6.26941C24.8006 6.10306 24.406 6.01146 24.0049 6C23.1977 6.03389 22.4367 6.38604 21.8883 6.97946C21.34 7.57287 21.0489 8.35927 21.0788 9.1667V10.9204C16.4089 12.5739 13.2221 17.3741 13.2221 23.036C13.2221 29.3594 11.5085 31.4538 10.3661 32.8468L10.1256 33.1474C9.58507 33.8208 9.29153 34.659 9.29383 35.5224C9.27096 35.9838 9.33997 36.445 9.49684 36.8795C9.65371 37.3139 9.89533 37.7129 10.2077 38.0532C10.52 38.3935 10.8968 38.6683 11.3162 38.8618C11.7357 39.0553 12.1893 39.1635 12.6509 39.1802H19.9664C20.2628 40.0058 20.8069 40.7197 21.5244 41.2244C22.2419 41.7291 23.0977 42 23.9749 42C24.8521 42 25.7079 41.7291 26.4254 41.2244C27.1428 40.7197 27.6869 40.0058 27.9834 39.1802H35.3489C35.8105 39.1635 36.2642 39.0553 36.6836 38.8618C37.1031 38.6683 37.4799 38.3935 37.7922 38.0532C38.1045 37.7129 38.3461 37.3139 38.503 36.8795C38.6599 36.445 38.7289 35.9838 38.706 35.5224C38.7218 34.6446 38.4273 33.7893 37.8743 33.1073ZM24.0049 39.3004C23.8016 39.3022 23.6002 39.2612 23.4137 39.1802H24.5962C24.4097 39.2612 24.2083 39.3022 24.0049 39.3004ZM35.3489 36.4043H12.6509C12.3102 36.4043 12.0697 35.9333 12.0697 35.5124C12.0689 35.2691 12.1501 35.0325 12.3002 34.841L12.5207 34.5604C13.8234 32.9771 15.998 30.3114 15.998 23.036C15.998 18.286 18.7939 14.2976 22.7924 13.3355L23.8546 13.0148V9.1667C23.8531 9.02552 23.899 8.88792 23.9849 8.77587C24.0429 8.82177 24.0882 8.88184 24.1162 8.95029C24.1443 9.01874 24.1543 9.09327 24.1452 9.1667V13.0148L25.2075 13.2654C29.216 14.2675 32.0019 18.2158 32.0019 22.9659C32.0019 30.2814 34.1865 32.9871 35.4892 34.5303L35.7097 34.8109C35.8636 34.9965 35.9454 35.2313 35.9402 35.4723C35.9302 35.9333 35.6897 36.4043 35.3489 36.4043Z" fill="black"/>
</svg>
