<svg width="48" height="48" viewBox="0 0 48 48" fill="none" xmlns="http://www.w3.org/2000/svg">
<path d="M29.7092 12.233C28.9625 11.694 28.1493 11.2538 27.2898 10.9233V9.53368C27.3059 9.08592 27.2335 8.63939 27.0768 8.21963C26.9201 7.79987 26.6823 7.4151 26.3768 7.08734C26.0713 6.75958 25.7042 6.49525 25.2965 6.30946C24.8888 6.12367 24.4485 6.02008 24.0007 6.0046C23.5529 6.02008 23.1126 6.12367 22.7049 6.30946C22.2971 6.49525 21.9301 6.75958 21.6246 7.08734C21.3191 7.4151 21.0812 7.79987 20.9246 8.21963C20.7679 8.63939 20.6955 9.08592 20.7115 9.53368V10.9233C16.1427 12.6929 13.0735 17.4516 13.0735 23.0002C13.2043 25.453 12.7664 27.9028 11.7939 30.1583L29.7092 12.233Z" fill="black"/>
<path d="M37.6072 32.2378C36.5374 30.9981 34.9278 28.9986 34.9278 23.0002C34.9252 21.8451 34.7876 20.6943 34.518 19.5711L14.8931 39.176H19.7518C20.1034 40.0126 20.6941 40.7269 21.45 41.2291C22.2058 41.7314 23.0932 41.9993 24.0007 41.9993C24.9082 41.9993 25.7955 41.7314 26.5514 41.2291C27.3072 40.7269 27.898 40.0126 28.2496 39.176H34.9978C35.5055 39.1606 36.0051 39.0445 36.4677 38.8346C36.9302 38.6247 37.3465 38.3251 37.6925 37.9532C38.0384 37.5812 38.307 37.1443 38.4829 36.6678C38.6587 36.1912 38.7383 35.6845 38.7169 35.177C38.7259 34.2188 38.4047 33.2868 37.8071 32.5377L37.6072 32.2378Z" fill="black"/>
<path d="M8.57469 41.9953C8.06573 41.9963 7.56791 41.8462 7.14438 41.564C6.72085 41.2817 6.39068 40.8801 6.19576 40.4099C6.00085 39.9397 5.94996 39.4223 6.04955 38.9232C6.14914 38.424 6.39473 37.9657 6.75516 37.6064L37.6072 6.75441C38.0897 6.27184 38.7442 6.00073 39.4267 6.00073C40.1091 6.00073 40.7636 6.27184 41.2462 6.75441C41.7288 7.23697 41.9999 7.89148 41.9999 8.57393C41.9999 9.25639 41.7288 9.91089 41.2462 10.3935L10.3942 41.2454C10.1551 41.4839 9.8713 41.6728 9.55909 41.8015C9.24688 41.9301 8.91237 41.996 8.57469 41.9953Z" fill="black"/>
</svg>
