<svg width="48" height="48" viewBox="0 0 48 48" fill="none" xmlns="http://www.w3.org/2000/svg">
<path d="M6.89274 41.8977C7.064 41.9681 7.24776 42.0029 7.43283 41.9998C7.61448 41.9996 7.79428 41.9633 7.96185 41.893C8.12943 41.8227 8.28145 41.7197 8.40913 41.5901L41.5634 8.43634C41.701 8.30908 41.8109 8.15458 41.8861 7.98261C41.9612 7.81063 42 7.6249 42 7.43713C42 7.24936 41.9612 7.06363 41.8861 6.89165C41.8109 6.71967 41.701 6.56518 41.5634 6.43792C41.4365 6.29985 41.2825 6.18966 41.111 6.11428C40.9396 6.03891 40.7544 6 40.5672 6C40.38 6 40.1948 6.03891 40.0233 6.11428C39.8519 6.18966 39.6978 6.29985 39.5709 6.43792L6.43661 39.5917C6.29895 39.719 6.18909 39.8735 6.11394 40.0455C6.0388 40.2174 6 40.4032 6 40.5909C6 40.7787 6.0388 40.9644 6.11394 41.1364C6.18909 41.3084 6.29895 41.4629 6.43661 41.5901C6.56629 41.7226 6.72148 41.8272 6.89274 41.8977Z" fill="black"/>
<path d="M15.4723 28.6404C15.8619 26.7914 16.0457 24.9046 16.0203 23.0149C16.0203 18.2786 18.7897 14.3018 22.7647 13.3425L23.8406 13.0228V9.1858C23.8374 9.04125 23.891 8.90123 23.99 8.79611C24.0456 8.84362 24.0891 8.90378 24.1168 8.97157C24.1446 9.03935 24.1557 9.11281 24.1494 9.1858V13.0228L25.2054 13.2726C26.5587 13.617 27.8007 14.3053 28.8117 15.271L30.8042 13.2726C29.6999 12.2171 28.3862 11.4067 26.9488 10.8945V9.1858C26.9634 8.78308 26.8983 8.38144 26.7571 8.00414C26.6159 7.62684 26.4016 7.28137 26.1264 6.98772C25.8512 6.69407 25.5207 6.45807 25.154 6.29339C24.7873 6.1287 24.3917 6.0386 23.99 6.0283C23.1875 6.06209 22.431 6.41322 21.8859 7.00491C21.3407 7.59661 21.0514 8.38072 21.0811 9.1858V10.9344C16.4387 12.5831 13.2806 17.3693 13.2806 23.0149C13.2806 29.2944 11.581 31.3913 10.4551 32.7803L10.4414 32.7971L10.1924 33.0969C9.81725 33.5722 9.56105 34.1307 9.44519 34.7256L15.4723 28.6404Z" fill="black"/>
<path fill-rule="evenodd" clip-rule="evenodd" d="M37.5388 32.7572L37.5251 32.7403C36.3993 31.3513 34.6996 29.2545 34.6996 22.9749C34.7117 21.2839 34.418 19.6047 33.8329 18.0188L31.6212 20.2371C31.8473 21.1456 31.961 22.0785 31.96 23.0149C31.96 30.3091 34.1317 33.007 35.4268 34.5458L35.646 34.8255C35.799 35.0106 35.8803 35.2447 35.8751 35.485C35.8751 35.9147 35.636 36.3843 35.2973 36.3843H15.602L12.8425 39.1122H20.0053C20.2954 39.9399 20.8346 40.6568 21.5484 41.164C22.2622 41.6712 23.1154 41.9436 23.9902 41.9436C24.865 41.9436 25.7181 41.6712 26.4319 41.164C27.1457 40.6568 27.6849 39.9399 27.9751 39.1122H35.2575C35.7159 39.0942 36.1663 38.9854 36.5826 38.7921C36.999 38.5987 37.373 38.3246 37.6833 37.9856C37.9935 37.6465 38.2337 37.2493 38.3902 36.8167C38.5466 36.3841 38.6162 35.9247 38.5948 35.465C38.6014 34.5912 38.3096 33.7414 37.7679 33.0569L37.5388 32.7572ZM23.9902 39.2321C23.7881 39.2338 23.5878 39.1929 23.4024 39.1122H24.578C24.3926 39.1929 24.1923 39.2338 23.9902 39.2321Z" fill="black"/>
</svg>
