<svg width="48" height="48" viewBox="0 0 48 48" fill="none" xmlns="http://www.w3.org/2000/svg">
<path d="M37.8501 32.5379L37.6101 32.2479C36.5501 30.9979 34.9301 28.9979 34.9301 22.9979C34.9301 17.4679 31.8601 12.7079 27.2901 10.9379V9.52792C27.3061 9.08005 27.2337 8.6334 27.077 8.21353C26.9203 7.79366 26.6824 7.40879 26.3768 7.08095C26.0713 6.7531 25.7041 6.4887 25.2963 6.30286C24.8884 6.11703 24.448 6.01341 24.0001 5.99792C23.5522 6.01341 23.1118 6.11703 22.7039 6.30286C22.2961 6.4887 21.9289 6.7531 21.6234 7.08095C21.3178 7.40879 21.0799 7.79366 20.9232 8.21353C20.7665 8.6334 20.6941 9.08005 20.7101 9.52792V10.9179C16.1401 12.6879 13.0701 17.4479 13.0701 22.9979C13.0701 28.9979 11.4501 30.9979 10.3901 32.2679L10.1501 32.5579C9.55528 33.3011 9.23399 34.2261 9.2401 35.1779C9.2187 35.6856 9.29825 36.1924 9.47414 36.669C9.65003 37.1457 9.91876 37.5827 10.2648 37.9548C10.6108 38.3268 11.0272 38.6265 11.4899 38.8365C11.9525 39.0464 12.4523 39.1625 12.9601 39.1779H19.7501C20.1018 40.0148 20.6927 40.7292 21.4487 41.2316C22.2048 41.734 23.0924 42.002 24.0001 42.002C24.9079 42.002 25.7954 41.734 26.5515 41.2316C27.3075 40.7292 27.8984 40.0148 28.2501 39.1779H35.0401C35.5479 39.1625 36.0477 39.0464 36.5104 38.8365C36.973 38.6265 37.3894 38.3268 37.7354 37.9548C38.0814 37.5827 38.3502 37.1457 38.5261 36.669C38.702 36.1924 38.7815 35.6856 38.7601 35.1779C38.7692 34.2195 38.4478 33.2872 37.8501 32.5379Z" fill="black"/>
</svg>
