<svg width="48" height="48" viewBox="0 0 48 48" fill="none" xmlns="http://www.w3.org/2000/svg">
<path d="M15.25 23.94C15.5152 23.8933 15.7528 23.7475 15.9144 23.532C16.076 23.3166 16.1495 23.0477 16.12 22.78C16.12 21.94 15.61 21.41 14.54 21.41H12.54V26.63H14.69C15.86 26.63 16.42 26.06 16.42 25.22C16.4308 25.0583 16.4088 24.8961 16.3553 24.7432C16.3017 24.5902 16.2178 24.4497 16.1084 24.3301C15.9991 24.2105 15.8667 24.1142 15.7191 24.0472C15.5716 23.9802 15.412 23.9437 15.25 23.94ZM13.25 22.1H14.47C15.12 22.1 15.47 22.35 15.47 22.85C15.47 23.35 15.19 23.66 14.47 23.66H13.23L13.25 22.1ZM14.71 25.91H13.23V24.29H14.68C15.39 24.29 15.68 24.59 15.68 25.15C15.68 25.71 15.38 25.91 14.69 25.91H14.71Z" fill="black"/>
<path d="M17.57 21.14C17.5591 21.1347 17.5471 21.1319 17.535 21.1319C17.5229 21.1319 17.5109 21.1347 17.5 21.14C17.4422 21.1438 17.3857 21.159 17.3337 21.1847C17.2818 21.2104 17.2354 21.2461 17.1973 21.2898C17.1592 21.3335 17.1301 21.3842 17.1117 21.4392C17.0933 21.4941 17.0859 21.5522 17.09 21.61C17.0926 21.7365 17.1439 21.8571 17.2334 21.9466C17.3229 22.0361 17.4435 22.0874 17.57 22.09C17.6884 22.0776 17.7981 22.0216 17.8775 21.9329C17.957 21.8442 18.0006 21.7291 18 21.61C18.0053 21.6009 18.008 21.5905 18.008 21.58C18.008 21.5695 18.0053 21.5591 18 21.55C17.9949 21.4395 17.9473 21.3352 17.8672 21.2588C17.7871 21.1824 17.6807 21.1399 17.57 21.14Z" fill="black"/>
<path d="M17.9 22.66H17.22V26.63H17.9V22.66Z" fill="black"/>
<path d="M19.88 25.37V23.29H20.88V22.66H19.88V21.82H19.21V22.66H18.57V23.29H19.21V25.39C19.1939 25.5595 19.2159 25.7304 19.2745 25.8902C19.333 26.0501 19.4267 26.1948 19.5485 26.3137C19.6703 26.4326 19.8172 26.5228 19.9784 26.5775C20.1396 26.6322 20.311 26.6502 20.48 26.63C20.6361 26.6312 20.7914 26.6076 20.94 26.56V25.91C20.797 25.9247 20.653 25.9247 20.51 25.91C20.4322 25.9214 20.3528 25.9161 20.2773 25.8942C20.2017 25.8724 20.1318 25.8346 20.072 25.7834C20.0123 25.7323 19.9643 25.6689 19.9312 25.5976C19.898 25.5262 19.8806 25.4486 19.88 25.37Z" fill="black"/>
<path d="M23.83 22.58C23.5538 22.5657 23.2795 22.633 23.0412 22.7735C22.8029 22.914 22.6113 23.1214 22.49 23.37V21H21.81V26.63H22.49V25.93C22.5944 26.1737 22.7714 26.3794 22.9968 26.519C23.2223 26.6585 23.4853 26.7252 23.75 26.71C24.86 26.71 25.42 25.71 25.42 24.64C25.42 23.57 24.89 22.58 23.83 22.58ZM23.58 26.07C22.99 26.07 22.49 25.68 22.49 24.8V24.48C22.4696 24.3177 22.4847 24.153 22.5343 23.9971C22.5838 23.8413 22.6666 23.698 22.7769 23.5773C22.8872 23.4565 23.0223 23.3611 23.1731 23.2977C23.3238 23.2343 23.4866 23.2044 23.65 23.21C24.36 23.21 24.74 23.69 24.74 24.64C24.74 25.59 24.35 26.07 23.58 26.07Z" fill="black"/>
<path d="M28.82 24.87C28.82 25.67 28.38 26.09 27.75 26.09C27.12 26.09 26.82 25.77 26.82 25.09V22.66H26.13V25C26.13 26.1 26.66 26.73 27.57 26.73C27.8255 26.736 28.0777 26.6709 28.2984 26.5421C28.5191 26.4132 28.6997 26.2255 28.82 26V26.65H29.51V22.65H28.82V24.87Z" fill="black"/>
<path d="M32.43 26.06C32.2393 26.0749 32.0476 26.0484 31.868 25.9824C31.6885 25.9165 31.5253 25.8126 31.3895 25.6778C31.2538 25.543 31.1487 25.3805 31.0815 25.2014C31.0143 25.0223 30.9865 24.8308 31 24.64C30.9825 24.4452 31.0085 24.249 31.0762 24.0655C31.1438 23.882 31.2514 23.7158 31.3911 23.579C31.5308 23.4421 31.6992 23.338 31.884 23.2742C32.0689 23.2104 32.2656 23.1885 32.46 23.21C32.7702 23.2073 33.0773 23.2722 33.36 23.4V22.77C33.062 22.6341 32.7375 22.5658 32.41 22.57C32.129 22.5357 31.8439 22.565 31.5758 22.6556C31.3076 22.7463 31.0633 22.896 30.8607 23.0937C30.6582 23.2915 30.5026 23.5322 30.4056 23.7981C30.3085 24.064 30.2725 24.3483 30.3 24.63C30.2703 24.9096 30.3034 25.1922 30.3967 25.4574C30.4901 25.7226 30.6415 25.9636 30.8398 26.1628C31.0381 26.3621 31.2784 26.5146 31.5431 26.6093C31.8078 26.7039 32.0903 26.7383 32.37 26.71C32.7137 26.7276 33.0567 26.6625 33.37 26.52V25.91C33.0692 26.0197 32.75 26.0707 32.43 26.06Z" fill="black"/>
<path d="M37.4 22.66H36.51L34.8 24.52V21H34.12V26.63H34.8V24.77L36.55 26.63H37.48L35.53 24.61L37.4 22.66Z" fill="black"/>
<path d="M39.48 22.58C39.2158 22.5708 38.9528 22.619 38.709 22.7212C38.4653 22.8234 38.2465 22.9772 38.0679 23.172C37.8892 23.3668 37.7549 23.598 37.6741 23.8497C37.5933 24.1014 37.5681 24.3676 37.6 24.63C37.5722 24.9153 37.609 25.2032 37.7077 25.4723C37.8063 25.7414 37.9642 25.9849 38.1698 26.1846C38.3753 26.3844 38.6232 26.5354 38.895 26.6263C39.1668 26.7173 39.4556 26.7459 39.74 26.71C40.1725 26.7237 40.6028 26.6418 41 26.47V25.84C40.6118 25.9792 40.2024 26.0502 39.79 26.05C38.86 26.05 38.42 25.62 38.32 24.94H41.22V24.63C41.19 23.43 40.7 22.58 39.48 22.58ZM38.29 24.36C38.36 23.67 38.72 23.2 39.44 23.2C40.16 23.2 40.44 23.62 40.5 24.36H38.29Z" fill="black"/>
<path d="M43.57 26C43.4882 26.0105 43.4051 26.0027 43.3267 25.9774C43.2482 25.952 43.1763 25.9096 43.1161 25.8533C43.056 25.7969 43.009 25.728 42.9785 25.6513C42.9481 25.5747 42.9349 25.4923 42.94 25.41V23.29H44V22.66H42.94V21.82H42.28V22.66H41.63V23.29H42.28V25.39C42.2641 25.5585 42.286 25.7285 42.344 25.8875C42.402 26.0465 42.4947 26.1907 42.6154 26.3094C42.736 26.4281 42.8816 26.5185 43.0415 26.574C43.2015 26.6294 43.3717 26.6486 43.54 26.63C43.6961 26.6319 43.8515 26.6083 44 26.56V25.91C43.8604 25.9557 43.7162 25.9859 43.57 26Z" fill="black"/>
<path d="M9.48 21.57H4.18C4.13394 21.5699 4.08961 21.5875 4.05613 21.6191C4.02265 21.6508 4.00256 21.694 4 21.74L4.77 26.42C4.77856 26.4683 4.80113 26.513 4.83492 26.5486C4.8687 26.5841 4.9122 26.609 4.96 26.62H8.68C8.72297 26.6206 8.76473 26.6058 8.79775 26.5783C8.83076 26.5508 8.85284 26.5124 8.86 26.47L9.16 24.62L9.63 21.77C9.63577 21.7237 9.62337 21.677 9.59539 21.6397C9.56741 21.6024 9.52604 21.5774 9.48 21.57ZM7.41 24.92H6.23L5.92 23.27H7.69L7.41 24.92Z" fill="black"/>
</svg>
