<svg width="48" height="48" viewBox="0 0 48 48" fill="none" xmlns="http://www.w3.org/2000/svg">
<path d="M40.9818 7.84013C40.9156 7.82998 40.8482 7.82998 40.782 7.84013L7.17306 7.84013C7.0213 7.83749 6.87052 7.86493 6.72942 7.92088C6.58832 7.97682 6.4597 8.06017 6.35099 8.16609C6.24228 8.27202 6.15562 8.39843 6.09603 8.53802C6.03644 8.67762 6.00509 8.82764 6.0038 8.97942C5.99882 9.04595 5.99882 9.11276 6.0038 9.17929L10.9007 38.8807C10.9518 39.1982 11.1005 39.492 11.3262 39.7212C11.5518 39.9505 11.8432 40.1038 12.1599 40.1599C12.2529 40.1702 12.3468 40.1702 12.4398 40.1599H35.925C36.2061 40.1644 36.479 40.0649 36.6912 39.8804C36.9034 39.6959 37.0398 39.4395 37.0743 39.1605L41.9812 9.17929C42.0096 9.02502 42.0059 8.86654 41.9702 8.71379C41.9345 8.56104 41.8677 8.4173 41.7738 8.29158C41.68 8.16586 41.5612 8.06087 41.425 7.98319C41.2887 7.90551 41.1378 7.8568 40.9818 7.84013ZM27.7801 29.3067H20.2848L18.2861 18.7133H29.589L27.7801 29.3067Z" fill="black"/>
</svg>
