<svg width="48" height="48" viewBox="0 0 48 48" fill="none" xmlns="http://www.w3.org/2000/svg">
<path d="M40.311 12.0409C39.5367 11.2627 38.5547 10.7244 37.4825 10.4905C37.3056 9.69737 36.9625 8.9509 36.4758 8.30041C35.9892 7.64992 35.3702 7.11023 34.6596 6.717C33.9491 6.32378 33.1633 6.08598 32.3541 6.01934C31.5449 5.9527 30.7308 6.05873 29.9656 6.33041C29.2004 6.6021 28.5015 7.03326 27.9152 7.59538C27.3289 8.1575 26.8684 8.83779 26.5643 9.59126C26.2602 10.3447 26.1194 11.1542 26.1512 11.9662C26.1829 12.7782 26.3865 13.5742 26.7485 14.3016L14.3254 26.7354C13.1068 26.1187 11.7084 25.9573 10.3816 26.2802C9.05473 26.603 7.88647 27.389 7.08678 28.4968C6.28708 29.6045 5.90839 30.9614 6.01879 32.3236C6.12918 33.6858 6.72142 34.9639 7.68904 35.9282C8.46534 36.709 9.45135 37.2476 10.5275 37.4787C10.7529 38.5526 11.288 39.5368 12.0666 40.3095C13.0301 41.278 14.3071 41.8707 15.6681 41.9812C17.0291 42.0917 18.3849 41.7127 19.4917 40.9123C20.5985 40.1119 21.3837 38.9426 21.7063 37.6147C22.0289 36.2867 21.8676 34.8871 21.2515 33.6675L33.6746 21.2337C34.8932 21.8504 36.2916 22.0118 37.6184 21.6889C38.9453 21.3661 40.1135 20.5801 40.9132 19.4724C41.7129 18.3646 42.0916 17.0077 41.9812 15.6455C41.8708 14.2833 41.2786 13.0052 40.311 12.0409Z" fill="black"/>
</svg>
