<svg width="48" height="48" viewBox="0 0 48 48" fill="none" xmlns="http://www.w3.org/2000/svg">
<path d="M15.941 42C14.6507 42.0017 13.4022 41.5425 12.4203 40.7052C11.4384 39.8679 10.7877 38.7074 10.5854 37.4328C9.59678 37.2794 8.67 36.8552 7.90782 36.2071C7.14563 35.559 6.57783 34.7124 6.26738 33.7612C5.95693 32.81 5.91597 31.7914 6.14903 30.8183C6.3821 29.8453 6.88009 28.9558 7.58777 28.2486C8.43761 27.4068 9.54046 26.8678 10.7266 26.7143C11.9127 26.5608 13.1164 26.8014 14.1525 27.3991L27.4018 14.1674C26.9989 13.4788 26.7528 12.7098 26.681 11.9152C26.6092 11.1206 26.7134 10.32 26.9863 9.57028C27.2591 8.82058 27.6939 8.14029 28.2597 7.57784C28.8254 7.0154 29.5082 6.58465 30.2594 6.31626C31.0106 6.04787 31.8117 5.94846 32.6057 6.02509C33.3997 6.10173 34.167 6.35253 34.8531 6.75963C35.5391 7.16674 36.1269 7.72013 36.5747 8.3804C37.0225 9.04066 37.3192 9.79156 37.4437 10.5796C38.7154 10.7861 39.8721 11.4384 40.7069 12.4198C41.5417 13.4012 42 14.6477 42 15.9363C41.9983 16.8885 41.7461 17.8235 41.2688 18.6475C40.7914 19.4714 40.1057 20.1551 39.2805 20.6301C38.4553 21.105 37.5197 21.3544 36.5677 21.3533C35.6156 21.3521 34.6806 21.1003 33.8566 20.6233L20.6273 33.8451C21.1067 34.6695 21.3604 35.6057 21.3628 36.5594C21.3653 37.5131 21.1164 38.4507 20.6412 39.2775C20.1661 40.1044 19.4814 40.7914 18.6563 41.2694C17.8311 41.7473 16.8946 41.9993 15.941 42ZM13.523 34.5047L13.3132 36.2536C13.2592 36.699 13.3194 37.1509 13.4879 37.5667C13.6564 37.9826 13.9278 38.3488 14.2766 38.6309C14.6254 38.9131 15.0402 39.102 15.482 39.1799C15.9238 39.2579 16.3782 39.2222 16.8024 39.0764C17.2267 38.9306 17.607 38.6793 17.9075 38.3462C18.2081 38.0131 18.4191 37.6091 18.5208 37.172C18.6225 36.735 18.6115 36.2793 18.4888 35.8477C18.3661 35.4161 18.1358 35.0227 17.8195 34.7046L16.8203 33.7052L33.7067 16.8157L34.7059 17.8151C35.2094 18.3121 35.8897 18.5886 36.597 18.5839C37.3044 18.5793 37.981 18.2937 38.4779 17.7901C38.9747 17.2865 39.2512 16.6061 39.2466 15.8986C39.2419 15.1911 38.9564 14.5144 38.4529 14.0175C38.1706 13.7292 37.8247 13.5113 37.4429 13.3811C37.0611 13.2509 36.6541 13.2121 36.2546 13.2679L34.5061 13.5178L34.7159 11.7589C34.7729 11.3626 34.7386 10.9585 34.6156 10.5774C34.4927 10.1964 34.2843 9.84847 34.0065 9.56025C33.5083 9.05665 32.8304 8.77163 32.1221 8.76788C31.4138 8.76413 30.733 9.04197 30.2295 9.54026C29.726 10.0386 29.441 10.7165 29.4373 11.4249C29.4335 12.1334 29.7113 12.8143 30.2095 13.3179L31.2087 14.3173L14.3024 31.1867L13.3032 30.1874C12.7979 29.7065 12.1271 29.4383 11.4297 29.4383C10.7322 29.4383 10.0615 29.7065 9.55618 30.1874C9.16361 30.577 8.90286 31.0798 8.81054 31.6252C8.71823 32.1706 8.79897 32.7312 9.04144 33.2284C9.28391 33.7255 9.67594 34.1343 10.1625 34.3972C10.6491 34.6602 11.2058 34.7642 11.7544 34.6946L13.523 34.5047Z" fill="black"/>
</svg>
