<svg width="48" height="48" viewBox="0 0 48 48" fill="none" xmlns="http://www.w3.org/2000/svg">
<path d="M40.62 8.37048C34.5614 8.4365 28.7036 10.5512 24 14.3705C19.2964 10.5512 13.4386 8.4365 7.38 8.37048L6 8.37048V33.1905H7.38C13.1426 33.3022 18.6783 35.4569 23 39.2705C23.2701 39.5021 23.6142 39.6295 23.97 39.6295C24.3258 39.6295 24.6699 39.5021 24.94 39.2705C29.2704 35.4518 34.8173 33.2969 40.59 33.1905H42V8.37048H40.62ZM22.62 35.3705C18.5488 32.478 13.7536 30.7745 8.77 30.4505V11.1805C13.8638 11.5849 18.7049 13.5668 22.62 16.8505V35.3705ZM39.23 30.4305C34.2445 30.7604 29.449 32.4709 25.38 35.3705V16.8505C29.2975 13.5708 34.1373 11.5895 39.23 11.1805V30.4305Z" fill="black"/>
</svg>
