<svg width="48" height="48" viewBox="0 0 48 48" fill="none" xmlns="http://www.w3.org/2000/svg">
<path d="M19.1725 18.0794H28.7925C29.1421 18.0498 29.4678 17.89 29.7052 17.6317C29.9425 17.3733 30.0743 17.0353 30.0743 16.6844C30.0743 16.3336 29.9425 15.9955 29.7052 15.7372C29.4678 15.4789 29.1421 15.319 28.7925 15.2894H19.1725C18.9794 15.2731 18.7849 15.297 18.6015 15.3596C18.4181 15.4223 18.2498 15.5224 18.107 15.6535C17.9643 15.7847 17.8504 15.944 17.7725 16.1215C17.6945 16.2989 17.6543 16.4906 17.6543 16.6844C17.6543 16.8782 17.6945 17.0699 17.7725 17.2474C17.8504 17.4248 17.9643 17.5842 18.107 17.7153C18.2498 17.8465 18.4181 17.9465 18.6015 18.0092C18.7849 18.0719 18.9794 18.0958 19.1725 18.0794Z" fill="black"/>
<path d="M28.7925 23.5494H19.1725C18.9794 23.5658 18.7849 23.5418 18.6015 23.4792C18.4181 23.4165 18.2498 23.3164 18.107 23.1853C17.9643 23.0542 17.8504 22.8948 17.7725 22.7174C17.6945 22.5399 17.6543 22.3482 17.6543 22.1544C17.6543 21.9606 17.6945 21.7689 17.7725 21.5914C17.8504 21.414 17.9643 21.2546 18.107 21.1235C18.2498 20.9924 18.4181 20.8923 18.6015 20.8296C18.7849 20.7669 18.9794 20.743 19.1725 20.7594H28.7925C29.1421 20.789 29.4678 20.9488 29.7052 21.2072C29.9425 21.4655 30.0743 21.8036 30.0743 22.1544C30.0743 22.5052 29.9425 22.8433 29.7052 23.1016C29.4678 23.36 29.1421 23.5198 28.7925 23.5494Z" fill="black"/>
<path fill-rule="evenodd" clip-rule="evenodd" d="M37.4723 37.2795V5.85951C37.4723 5.36965 37.2791 4.89956 36.9346 4.55131C36.5901 4.20307 36.1221 4.00478 35.6323 3.99951H14.3623C13.3314 4.00215 12.3435 4.41284 11.6146 5.14178C10.8856 5.87073 10.475 6.85863 10.4723 7.88951V39.9395C10.462 40.0326 10.462 40.1265 10.4723 40.2195C10.5403 41.2376 10.99 42.1925 11.7316 42.8933C12.4732 43.5941 13.452 43.9892 14.4723 43.9995H36.0923C36.4368 44.0127 36.7739 43.8974 37.0381 43.676C37.3023 43.4546 37.4749 43.1429 37.5222 42.8015C37.5696 42.46 37.4884 42.1131 37.2944 41.8282C37.1003 41.5433 36.8074 41.3406 36.4723 41.2595V38.6195C36.7635 38.5379 37.0195 38.3621 37.2004 38.1198C37.3813 37.8774 37.4769 37.5819 37.4723 37.2795ZM33.6423 41.2095H14.5323C14.3567 41.2251 14.1798 41.204 14.0129 41.1476C13.8459 41.0911 13.6925 41.0005 13.5624 40.8815C13.4324 40.7625 13.3285 40.6178 13.2575 40.4564C13.1864 40.2951 13.1497 40.1208 13.1497 39.9445C13.1497 39.7682 13.1864 39.5939 13.2575 39.4326C13.3285 39.2713 13.4324 39.1265 13.5624 39.0075C13.6925 38.8885 13.8459 38.7979 14.0129 38.7415C14.1798 38.685 14.3567 38.6639 14.5323 38.6795H33.6623L33.6423 41.2095ZM34.6423 35.8895H14.5323C14.1 35.8951 13.6713 35.9694 13.2623 36.1095V7.88951C13.2623 7.59777 13.3782 7.31798 13.5845 7.11169C13.7908 6.9054 14.0706 6.78951 14.3623 6.78951H34.7023L34.6423 35.8895Z" fill="black"/>
</svg>
