<svg width="48" height="48" viewBox="0 0 48 48" fill="none" xmlns="http://www.w3.org/2000/svg">
<path d="M37.6557 37V6.26999C37.6557 5.96849 37.5957 5.67 37.4791 5.39196C37.3625 5.11391 37.1918 4.86186 36.9767 4.65054C36.7617 4.43922 36.5067 4.27286 36.2266 4.16116C35.9466 4.04947 35.6471 3.99467 35.3457 3.99999H14.6057C13.4758 3.99999 12.3923 4.44881 11.5934 5.24771C10.7945 6.04662 10.3457 7.13016 10.3457 8.25999L10.3457 39.58C10.326 39.7193 10.326 39.8607 10.3457 40C10.4476 41.092 10.9528 42.1068 11.7627 42.8464C12.5725 43.586 13.6289 43.9973 14.7257 44H35.8457C36.2567 44.003 36.6565 43.866 36.9793 43.6116C37.3021 43.3571 37.5287 43.0004 37.6218 42.6C37.7149 42.1997 37.669 41.7796 37.4916 41.4088C37.3142 41.038 37.0158 40.7387 36.6457 40.56V38.56C36.9393 38.4156 37.1883 38.1942 37.3662 37.9195C37.544 37.6448 37.6441 37.327 37.6557 37ZM19.3457 15H28.7457C29.2284 15 29.6913 15.1917 30.0326 15.5331C30.3739 15.8744 30.5657 16.3373 30.5657 16.82C30.5657 17.3027 30.3739 17.7656 30.0326 18.1069C29.6913 18.4482 29.2284 18.64 28.7457 18.64H19.3457C18.863 18.64 18.4 18.4482 18.0587 18.1069C17.7174 17.7656 17.5257 17.3027 17.5257 16.82C17.5257 16.3373 17.7174 15.8744 18.0587 15.5331C18.4 15.1917 18.863 15 19.3457 15ZM19.3457 20.35H28.7457C29.2284 20.35 29.6913 20.5417 30.0326 20.8831C30.3739 21.2244 30.5657 21.6873 30.5657 22.17C30.5657 22.6527 30.3739 23.1156 30.0326 23.4569C29.6913 23.7982 29.2284 23.99 28.7457 23.99H19.3457C18.863 23.99 18.4 23.7982 18.0587 23.4569C17.7174 23.1156 17.5257 22.6527 17.5257 22.17C17.5257 21.6873 17.7174 21.2244 18.0587 20.8831C18.4 20.5417 18.863 20.35 19.3457 20.35ZM33.0557 40.35H14.7657C14.5588 40.35 14.3604 40.2678 14.2141 40.1215C14.0678 39.9753 13.9857 39.7769 13.9857 39.57C13.9857 39.3631 14.0678 39.1647 14.2141 39.0184C14.3604 38.8722 14.5588 38.79 14.7657 38.79H33.0157L33.0557 40.35Z" fill="black"/>
</svg>
