<svg width="48" height="48" viewBox="0 0 48 48" fill="none" xmlns="http://www.w3.org/2000/svg">
<path d="M25.91 38.99L38.09 32.57V26.71L25.91 33.13V38.99Z" fill="black"/>
<path d="M9.9 32.57L22.09 38.99V33.14L9.9 26.71V32.57Z" fill="black"/>
<path d="M42 22.5L37.78 16.16L37.72 16.1C37.6848 16.0284 37.6412 15.9613 37.59 15.9L37.47 15.79L37.33 15.67L37.19 15.57C37.1711 15.5479 37.147 15.5308 37.12 15.52L24.89 9.11001H24.77L24.55 9.01001H23.45L23.24 9.10001H23.11L10.92 15.54H10.85L10.69 15.64L10.49 15.9C10.4635 15.8964 10.4365 15.8964 10.41 15.9C10.3613 15.9487 10.3177 16.0023 10.28 16.06L10.22 16.12L6 22.5L21.58 30.71L24 27.08L26.42 30.71L42 22.5ZM15.9 17.22L24 12.95L32.1 17.22L24 21.49L15.9 17.22Z" fill="black"/>
</svg>
