<svg width="48" height="48" viewBox="0 0 48 48" fill="none" xmlns="http://www.w3.org/2000/svg">
<path d="M37.91 15.6723C37.8151 15.5385 37.6965 15.4232 37.56 15.3323L37.43 15.2423H37.38L24.69 8.50228L24.58 8.45228C24.5318 8.42802 24.4816 8.40794 24.43 8.39228C24.3768 8.38665 24.3232 8.38665 24.27 8.39228H24.15H23.85H23.73C23.6768 8.38753 23.6232 8.38753 23.57 8.39228C23.5184 8.40794 23.4682 8.42802 23.42 8.45228L23.31 8.50228L10.63 15.1823L10.44 15.3323C10.322 15.4237 10.2176 15.5314 10.13 15.6523L6 21.8023L9.84 23.8023V32.1323L24 39.6123L38.16 32.1523V23.8223L42 21.8223L37.91 15.6723ZM11.82 18.4323L21.82 23.7223L20.3 25.9923L10.3 20.7023L11.82 18.4323ZM22.51 35.4323L12.81 30.3323V25.3323L21.32 29.8123L22.51 28.0223V35.4323ZM14.51 16.4323L24 11.4323L33.49 16.4323L24 21.4323L14.51 16.4323ZM35.19 30.3323L25.49 35.4423V28.0823L26.68 29.8723L35.19 25.3923V30.3323ZM27.67 25.9623L26.15 23.6923L36.15 18.4023L37.67 20.6723L27.67 25.9623Z" fill="black"/>
</svg>
