<svg width="48" height="48" viewBox="0 0 48 48" fill="none" xmlns="http://www.w3.org/2000/svg">
<path d="M42 42H31.71C31.0284 42 30.3747 41.7292 29.8927 41.2473C29.4108 40.7653 29.14 40.1116 29.14 39.43C29.14 38.7484 29.4108 38.0947 29.8927 37.6127C30.3747 37.1308 31.0284 36.86 31.71 36.86H36.86V11.14H31.71C31.0284 11.14 30.3747 10.8692 29.8927 10.3873C29.4108 9.9053 29.14 9.25161 29.14 8.57C29.14 7.88839 29.4108 7.2347 29.8927 6.75274C30.3747 6.27077 31.0284 6 31.71 6H42V42Z" fill="black"/>
<path d="M16.29 42H6V6H16.29C16.9716 6 17.6253 6.27077 18.1073 6.75274C18.5892 7.2347 18.86 7.88839 18.86 8.57C18.86 9.25161 18.5892 9.9053 18.1073 10.3873C17.6253 10.8692 16.9716 11.14 16.29 11.14H11.14V36.86H16.29C16.9716 36.86 17.6253 37.1308 18.1073 37.6127C18.5892 38.0947 18.86 38.7484 18.86 39.43C18.86 40.1116 18.5892 40.7653 18.1073 41.2473C17.6253 41.7292 16.9716 42 16.29 42Z" fill="black"/>
</svg>
