<svg width="48" height="48" viewBox="0 0 48 48" fill="none" xmlns="http://www.w3.org/2000/svg">
<path d="M5.99997 41.995H15.69C15.8817 42.0113 16.0748 41.9876 16.257 41.9254C16.4391 41.8633 16.6063 41.7639 16.7481 41.6338C16.8898 41.5036 17.003 41.3454 17.0804 41.1693C17.1578 40.9931 17.1978 40.8028 17.1978 40.6104C17.1978 40.418 17.1578 40.2277 17.0804 40.0515C17.003 39.8753 16.8898 39.7172 16.7481 39.587C16.6063 39.4568 16.4391 39.3575 16.257 39.2953C16.0748 39.2332 15.8817 39.2095 15.69 39.2258H8.76997V8.77423H15.69C15.8817 8.79053 16.0748 8.76685 16.257 8.70467C16.4391 8.64249 16.6063 8.54317 16.7481 8.41301C16.8898 8.28284 17.003 8.12467 17.0804 7.94851C17.1578 7.77234 17.1978 7.58203 17.1978 7.38961C17.1978 7.1972 17.1578 7.00689 17.0804 6.83072C17.003 6.65456 16.8898 6.49638 16.7481 6.36622C16.6063 6.23606 16.4391 6.13674 16.257 6.07456C16.0748 6.01238 15.8817 5.98869 15.69 6.005H5.99997V41.995Z" fill="black"/>
<path d="M32.31 41.995H42V6.005H32.31C32.1182 5.98869 31.9252 6.01238 31.743 6.07456C31.5609 6.13674 31.3936 6.23606 31.2519 6.36622C31.1102 6.49638 30.997 6.65456 30.9196 6.83072C30.8422 7.00689 30.8022 7.1972 30.8022 7.38961C30.8022 7.58203 30.8422 7.77234 30.9196 7.94851C30.997 8.12467 31.1102 8.28284 31.2519 8.41301C31.3936 8.54317 31.5609 8.64249 31.743 8.70467C31.9252 8.76685 32.1182 8.79053 32.31 8.77423H39.23V39.2258H32.31C32.1182 39.2095 31.9252 39.2332 31.743 39.2953C31.5609 39.3575 31.3936 39.4568 31.2519 39.587C31.1102 39.7172 30.997 39.8753 30.9196 40.0515C30.8422 40.2277 30.8022 40.418 30.8022 40.6104C30.8022 40.8028 30.8422 40.9931 30.9196 41.1693C30.997 41.3454 31.1102 41.5036 31.2519 41.6338C31.3936 41.7639 31.5609 41.8633 31.743 41.9254C31.9252 41.9876 32.1182 42.0113 32.31 41.995Z" fill="black"/>
</svg>
