<svg width="48" height="48" viewBox="0 0 48 48" fill="none" xmlns="http://www.w3.org/2000/svg">
<path d="M24.02 34.4605C29.7861 34.4605 34.4605 29.7861 34.4605 24.02C34.4605 18.2539 29.7861 13.5796 24.02 13.5796C18.2539 13.5796 13.5796 18.2539 13.5796 24.02C13.5796 29.7861 18.2539 34.4605 24.02 34.4605Z" fill="black"/>
<path d="M21.4074 37.033V41.3874C21.4074 42.0803 21.6827 42.7448 22.1726 43.2348C22.6626 43.7247 23.3271 44 24.02 44C24.7129 44 25.3775 43.7247 25.8674 43.2348C26.3574 42.7448 26.6326 42.0803 26.6326 41.3874V37.033C26.6326 36.3401 26.3574 35.6756 25.8674 35.1856C25.3775 34.6957 24.7129 34.4204 24.02 34.4204C23.3271 34.4204 22.6626 34.6957 22.1726 35.1856C21.6827 35.6756 21.4074 36.3401 21.4074 37.033Z" fill="black"/>
<path d="M26.6326 11.007V6.61261C26.6326 5.9197 26.3574 5.25518 25.8674 4.76522C25.3775 4.27526 24.7129 4 24.02 4C23.3271 4 22.6626 4.27526 22.1726 4.76522C21.6827 5.25518 21.4074 5.9197 21.4074 6.61261V11.007C21.4074 11.6999 21.6827 12.3644 22.1726 12.8544C22.6626 13.3444 23.3271 13.6196 24.02 13.6196C24.7129 13.6196 25.3775 13.3444 25.8674 12.8544C26.3574 12.3644 26.6326 11.6999 26.6326 11.007Z" fill="black"/>
<path d="M35.1011 31.4074C34.6073 30.9371 33.9493 30.6786 33.2674 30.6869C32.5856 30.6952 31.9341 30.9697 31.4519 31.4519C30.9697 31.9341 30.6952 32.5856 30.6869 33.2674C30.6786 33.9493 30.9371 34.6073 31.4074 35.1011L34.4805 38.1742C34.7208 38.4265 35.0092 38.6282 35.3286 38.7674C35.648 38.9066 35.9921 38.9805 36.3405 38.9848C36.6889 38.989 37.0347 38.9235 37.3574 38.7922C37.6802 38.6608 37.9734 38.4662 38.2198 38.2198C38.4662 37.9734 38.6608 37.6802 38.7922 37.3574C38.9235 37.0347 38.989 36.6889 38.9848 36.3405C38.9805 35.9921 38.9066 35.648 38.7674 35.3286C38.6282 35.0092 38.4265 34.7208 38.1742 34.4805L35.1011 31.4074Z" fill="black"/>
<path d="M12.9389 16.6326C13.4327 17.1029 14.0908 17.3615 14.7726 17.3532C15.4544 17.3448 16.106 17.0703 16.5881 16.5881C17.0703 16.106 17.3448 15.4544 17.3532 14.7726C17.3615 14.0908 17.1029 13.4327 16.6326 12.9389L13.5596 9.86587C13.0658 9.39561 12.4077 9.13702 11.7259 9.14534C11.0441 9.15365 10.3925 9.4282 9.91036 9.91036C9.4282 10.3925 9.15365 11.0441 9.14534 11.7259C9.13702 12.4077 9.39561 13.0658 9.86587 13.5596L12.9389 16.6326Z" fill="black"/>
<path d="M41.4274 21.4074H37.033C36.3401 21.4074 35.6756 21.6827 35.1856 22.1726C34.6957 22.6626 34.4204 23.3271 34.4204 24.02C34.4204 24.7129 34.6957 25.3775 35.1856 25.8674C35.6756 26.3574 36.3401 26.6326 37.033 26.6326H41.3874C42.0803 26.6326 42.7448 26.3574 43.2348 25.8674C43.7247 25.3775 44 24.7129 44 24.02C44 23.3271 43.7247 22.6626 43.2348 22.1726C42.7448 21.6827 42.0803 21.4074 41.3874 21.4074H41.4274Z" fill="black"/>
<path d="M11.007 21.4074H6.61261C5.9197 21.4074 5.25518 21.6827 4.76522 22.1726C4.27526 22.6626 4 23.3271 4 24.02C4 24.7129 4.27526 25.3775 4.76522 25.8674C5.25518 26.3574 5.9197 26.6326 6.61261 26.6326H11.007C11.6999 26.6326 12.3644 26.3574 12.8544 25.8674C13.3444 25.3775 13.6196 24.7129 13.6196 24.02C13.6196 23.3271 13.3444 22.6626 12.8544 22.1726C12.3644 21.6827 11.6999 21.4074 11.007 21.4074Z" fill="black"/>
<path d="M33.2492 17.4034C33.5935 17.4033 33.9343 17.3351 34.2521 17.2028C34.5699 17.0705 34.8584 16.8768 35.1011 16.6326L38.1742 13.5596C38.4265 13.3192 38.6282 13.0309 38.7674 12.7114C38.9066 12.392 38.9805 12.0479 38.9848 11.6995C38.989 11.3511 38.9235 11.0053 38.7922 10.6826C38.6608 10.3599 38.4662 10.0667 38.2198 9.82027C37.9734 9.57388 37.6802 9.37926 37.3574 9.24788C37.0347 9.11649 36.6889 9.051 36.3405 9.05525C35.9921 9.0595 35.648 9.1334 35.3286 9.27262C35.0092 9.41183 34.7208 9.61354 34.4805 9.86587L31.4074 12.9389C31.0457 13.3056 30.7999 13.7706 30.7007 14.2761C30.6016 14.7815 30.6535 15.305 30.8499 15.7811C31.0463 16.2572 31.3786 16.665 31.8053 16.9535C32.232 17.242 32.7342 17.3985 33.2492 17.4034Z" fill="black"/>
<path d="M12.9389 31.4074L9.86587 34.4805C9.61354 34.7208 9.41183 35.0092 9.27262 35.3286C9.1334 35.648 9.0595 35.9921 9.05525 36.3405C9.051 36.6889 9.11649 37.0347 9.24788 37.3574C9.37926 37.6802 9.57388 37.9734 9.82027 38.2198C10.0667 38.4662 10.3599 38.6608 10.6826 38.7922C11.0053 38.9235 11.3511 38.989 11.6995 38.9848C12.0479 38.9805 12.392 38.9066 12.7114 38.7674C13.0309 38.6282 13.3192 38.4265 13.5596 38.1742L16.6326 35.1011C17.1029 34.6073 17.3615 33.9493 17.3532 33.2674C17.3448 32.5856 17.0703 31.9341 16.5881 31.4519C16.106 30.9697 15.4544 30.6952 14.7726 30.6869C14.0908 30.6786 13.4327 30.9371 12.9389 31.4074Z" fill="black"/>
</svg>
