<svg width="48" height="48" viewBox="0 0 48 48" fill="none" xmlns="http://www.w3.org/2000/svg">
<path d="M23.0236 11.0927C23.2858 11.3531 23.6404 11.4992 24.01 11.4992C24.1925 11.4992 24.3733 11.4632 24.5419 11.3934C24.7106 11.3235 24.8638 11.2211 24.9929 11.0921C25.1219 10.963 25.2243 10.8097 25.2942 10.6411C25.364 10.4725 25.4 10.2917 25.4 10.1092V8.24917C25.4163 8.05605 25.3924 7.86163 25.3298 7.67823C25.2671 7.49483 25.167 7.32644 25.0359 7.18372C24.9047 7.04101 24.7454 6.92707 24.568 6.84914C24.3905 6.7712 24.1988 6.73096 24.005 6.73096C23.8112 6.73096 23.6195 6.7712 23.442 6.84914C23.2646 6.92707 23.1052 7.04101 22.9741 7.18372C22.8429 7.32644 22.7429 7.49483 22.6802 7.67823C22.6175 7.86163 22.5936 8.05605 22.61 8.24917V10.1092C22.6126 10.4787 22.7613 10.8323 23.0236 11.0927Z" fill="black"/>
<path fill-rule="evenodd" clip-rule="evenodd" d="M24.0101 34.7591C21.8938 34.7591 19.8251 34.1316 18.0655 32.9559C16.3059 31.7801 14.9344 30.109 14.1246 28.1538C13.3147 26.1987 13.1028 24.0473 13.5157 21.9717C13.9285 19.8961 14.9476 17.9895 16.444 16.4931C17.9404 14.9967 19.847 13.9776 21.9226 13.5647C23.9982 13.1519 26.1496 13.3638 28.1048 14.1736C30.0599 14.9835 31.7311 16.3549 32.9068 18.1145C34.0825 19.8741 34.7101 21.9429 34.7101 24.0591C34.7074 26.8961 33.5793 29.6162 31.5732 31.6223C29.5671 33.6283 26.8471 34.7565 24.0101 34.7591ZM24.0101 16.1491C22.4456 16.1491 20.9163 16.613 19.6155 17.4822C18.3147 18.3514 17.3009 19.5867 16.7022 21.0321C16.1035 22.4775 15.9468 24.0679 16.2521 25.6023C16.5573 27.1367 17.3106 28.5461 18.4168 29.6524C19.5231 30.7586 20.9325 31.5119 22.4669 31.8171C24.0013 32.1224 25.5917 31.9657 27.0371 31.367C28.4825 30.7683 29.7178 29.7545 30.587 28.4537C31.4562 27.1529 31.9201 25.6236 31.9201 24.0591C31.9174 21.9621 31.0832 19.9517 29.6004 18.4688C28.1175 16.986 26.1071 16.1518 24.0101 16.1491Z" fill="black"/>
<path d="M24.0101 41.2691C23.6388 41.2691 23.2827 41.1216 23.0202 40.859C22.7576 40.5965 22.6101 40.2404 22.6101 39.8691V38.0091C22.6397 37.6595 22.7995 37.3338 23.0579 37.0964C23.3162 36.859 23.6543 36.7273 24.0051 36.7273C24.3559 36.7273 24.694 36.859 24.9523 37.0964C25.2107 37.3338 25.3705 37.6595 25.4001 38.0091V39.8491C25.4028 40.0338 25.3688 40.2172 25.3003 40.3887C25.2317 40.5602 25.1299 40.7164 25.0007 40.8484C24.8715 40.9804 24.7175 41.0856 24.5474 41.1577C24.3774 41.2299 24.1948 41.2678 24.0101 41.2691Z" fill="black"/>
<path d="M35.1902 36.6391C34.8158 36.6396 34.4564 36.4922 34.1902 36.2291L32.8802 34.9091C32.7471 34.7788 32.6414 34.6232 32.5693 34.4515C32.4971 34.2797 32.46 34.0954 32.46 33.9091C32.46 33.7228 32.4971 33.5385 32.5693 33.3668C32.6414 33.195 32.7471 33.0395 32.8802 32.9091C33.0091 32.7736 33.1642 32.6656 33.3361 32.5919C33.508 32.5181 33.6931 32.4801 33.8802 32.4801C34.0672 32.4801 34.2523 32.5181 34.4242 32.5919C34.5961 32.6656 34.7513 32.7736 34.8802 32.9091L36.2002 34.2191C36.3966 34.4155 36.5302 34.6659 36.5839 34.9384C36.6376 35.2109 36.609 35.4933 36.5018 35.7495C36.3946 36.0058 36.2136 36.2243 35.9818 36.3774C35.75 36.5305 35.4779 36.6111 35.2002 36.6091L35.1902 36.6391Z" fill="black"/>
<path d="M13.5988 15.4845C13.7705 15.5549 13.9544 15.5905 14.14 15.5891H14.1304C14.4059 15.5891 14.6754 15.5077 14.9049 15.3552C15.1346 15.2026 15.314 14.9857 15.4209 14.7315C15.5277 14.4773 15.557 14.1972 15.5053 13.9264C15.4535 13.6556 15.323 13.4061 15.13 13.2092L13.8 11.8491C13.5347 11.5839 13.175 11.4349 12.8 11.4349C12.4249 11.4349 12.0652 11.5839 11.8 11.8491C11.5347 12.1144 11.3857 12.4741 11.3857 12.8491C11.3857 13.2242 11.5347 13.5839 11.8 13.8491L13.14 15.1791C13.2712 15.3103 13.4271 15.4142 13.5988 15.4845Z" fill="black"/>
<path d="M39.8 25.4492H37.96C37.6104 25.4195 37.2847 25.2598 37.0473 25.0014C36.8099 24.7431 36.6782 24.405 36.6782 24.0542C36.6782 23.7033 36.8099 23.3653 37.0473 23.1069C37.2847 22.8486 37.6104 22.6888 37.96 22.6592H39.8C39.9931 22.6428 40.1875 22.6667 40.3709 22.7294C40.5544 22.7921 40.7227 22.8921 40.8655 23.0233C41.0082 23.1544 41.1221 23.3137 41.2 23.4912C41.278 23.6687 41.3182 23.8604 41.3182 24.0542C41.3182 24.248 41.278 24.4397 41.2 24.6171C41.1221 24.7946 41.0082 24.9539 40.8655 25.0851C40.7227 25.2162 40.5544 25.3163 40.3709 25.379C40.1875 25.4416 39.9931 25.4655 39.8 25.4492Z" fill="black"/>
<path d="M8.2001 25.4492H10.0601C10.4097 25.4195 10.7354 25.2598 10.9728 25.0014C11.2102 24.7431 11.3419 24.405 11.3419 24.0542C11.3419 23.7033 11.2102 23.3653 10.9728 23.1069C10.7354 22.8486 10.4097 22.6888 10.0601 22.6592H8.2001C8.00698 22.6428 7.81256 22.6667 7.62916 22.7294C7.44576 22.7921 7.27737 22.8921 7.13465 23.0233C6.99194 23.1544 6.878 23.3137 6.80006 23.4912C6.72213 23.6687 6.68188 23.8604 6.68188 24.0542C6.68188 24.248 6.72213 24.4397 6.80006 24.6171C6.878 24.7946 6.99194 24.9539 7.13465 25.0851C7.27737 25.2162 7.44576 25.3163 7.62916 25.379C7.81256 25.4416 8.00698 25.4655 8.2001 25.4492Z" fill="black"/>
<path d="M33.8799 15.5891C33.6944 15.5905 33.5104 15.5549 33.3388 15.4845C33.1671 15.4142 33.0111 15.3103 32.8799 15.1791C32.7444 15.0502 32.6365 14.8951 32.5627 14.7232C32.489 14.5513 32.4509 14.3662 32.4509 14.1791C32.4509 13.9921 32.489 13.807 32.5627 13.6351C32.6365 13.4632 32.7444 13.3081 32.8799 13.1791L34.1999 11.8491C34.4651 11.5839 34.8249 11.4349 35.1999 11.4349C35.575 11.4349 35.9347 11.5839 36.1999 11.8491C36.4651 12.1144 36.6141 12.4741 36.6141 12.8491C36.6141 13.2242 36.4651 13.5839 36.1999 13.8491L34.8599 15.1791C34.5998 15.4393 34.2478 15.5865 33.8799 15.5891Z" fill="black"/>
<path d="M12.0184 36.4074C12.2502 36.5605 12.5223 36.6411 12.8 36.6391C12.9856 36.6405 13.1695 36.6049 13.3412 36.5345C13.5129 36.4641 13.6688 36.3603 13.8 36.2291L15.12 34.9391C15.2531 34.8088 15.3588 34.6532 15.4309 34.4815C15.5031 34.3098 15.5402 34.1254 15.5402 33.9391C15.5402 33.7529 15.5031 33.5685 15.4309 33.3968C15.3588 33.2251 15.2531 33.0695 15.12 32.9391C14.9911 32.8036 14.836 32.6957 14.6641 32.6219C14.4922 32.5482 14.3071 32.5101 14.12 32.5101C13.933 32.5101 13.7479 32.5482 13.576 32.6219C13.4041 32.6957 13.2489 32.8036 13.12 32.9391L11.8 34.2491C11.6036 34.4455 11.47 34.6959 11.4163 34.9684C11.3626 35.241 11.3912 35.5233 11.4984 35.7795C11.6056 36.0358 11.7866 36.2543 12.0184 36.4074Z" fill="black"/>
</svg>
