<svg width="48" height="48" viewBox="0 0 48 48" fill="none" xmlns="http://www.w3.org/2000/svg">
<path d="M24.0001 34.4405C29.7662 34.4405 34.4405 29.7662 34.4405 24.0001C34.4405 18.234 29.7662 13.5596 24.0001 13.5596C18.234 13.5596 13.5596 18.234 13.5596 24.0001C13.5596 29.7662 18.234 34.4405 24.0001 34.4405Z" fill="black"/>
<path d="M21.3874 37.0531V38.7949C21.3874 39.4878 21.6627 40.1523 22.1527 40.6423C22.6426 41.1322 23.3071 41.4075 24.0001 41.4075C24.693 41.4075 25.3575 41.1322 25.8475 40.6423C26.3374 40.1523 26.6127 39.4878 26.6127 38.7949V37.0531C26.6127 36.3602 26.3374 35.6957 25.8475 35.2057C25.3575 34.7158 24.693 34.4405 24.0001 34.4405C23.3071 34.4405 22.6426 34.7158 22.1527 35.2057C21.6627 35.6957 21.3874 36.3602 21.3874 37.0531Z" fill="black"/>
<path d="M26.6127 10.947V9.20526C26.6127 8.51236 26.3374 7.84783 25.8475 7.35787C25.3575 6.86791 24.693 6.59265 24.0001 6.59265C23.3071 6.59265 22.6426 6.86791 22.1527 7.35787C21.6627 7.84783 21.3874 8.51236 21.3874 9.20526V10.947C21.3874 11.6399 21.6627 12.3044 22.1527 12.7944C22.6426 13.2844 23.3071 13.5596 24.0001 13.5596C24.693 13.5596 25.3575 13.2844 25.8475 12.7944C26.3374 12.3044 26.6127 11.6399 26.6127 10.947Z" fill="black"/>
<path d="M35.0811 31.3874C34.5874 30.9172 33.9293 30.6586 33.2475 30.6669C32.5657 30.6752 31.9141 30.9498 31.4319 31.4319C30.9498 31.9141 30.6752 32.5657 30.6669 33.2475C30.6586 33.9293 30.9172 34.5874 31.3874 35.0811L32.6187 36.3124C33.1124 36.7826 33.7705 37.0412 34.4523 37.0329C35.1342 37.0246 35.7857 36.75 36.2679 36.2679C36.75 35.7857 37.0246 35.1342 37.0329 34.4523C37.0412 33.7705 36.7826 33.1124 36.3124 32.6187L35.0811 31.3874Z" fill="black"/>
<path d="M12.919 16.6027C13.4188 17.0304 14.0616 17.2538 14.719 17.2283C15.3763 17.2028 15.9999 16.9302 16.4651 16.4651C16.9302 15.9999 17.2028 15.3763 17.2283 14.719C17.2538 14.0616 17.0304 13.4188 16.6027 12.919L15.3814 11.6978C15.1451 11.4319 14.857 11.217 14.5347 11.0664C14.2124 10.9158 13.8628 10.8326 13.5072 10.8219C13.1517 10.8112 12.7977 10.8732 12.4669 11.0042C12.1361 11.1351 11.8356 11.3322 11.5837 11.5834C11.3319 11.8346 11.1339 12.1346 11.0021 12.465C10.8702 12.7954 10.8073 13.1493 10.817 13.5049C10.8267 13.8605 10.909 14.2103 11.0587 14.533C11.2084 14.8557 11.4225 15.1444 11.6877 15.3814L12.919 16.6027Z" fill="black"/>
<path d="M38.7949 21.3874H37.0531C36.3602 21.3874 35.6957 21.6627 35.2057 22.1527C34.7158 22.6426 34.4405 23.3071 34.4405 24.0001C34.4405 24.693 34.7158 25.3575 35.2057 25.8475C35.6957 26.3374 36.3602 26.6127 37.0531 26.6127H38.7949C39.4878 26.6127 40.1523 26.3374 40.6423 25.8475C41.1322 25.3575 41.4075 24.693 41.4075 24.0001C41.4075 23.3071 41.1322 22.6426 40.6423 22.1527C40.1523 21.6627 39.4878 21.3874 38.7949 21.3874Z" fill="black"/>
<path d="M10.947 21.3874H9.20526C8.51236 21.3874 7.84783 21.6627 7.35787 22.1527C6.86791 22.6426 6.59265 23.3071 6.59265 24.0001C6.59265 24.693 6.86791 25.3575 7.35787 25.8475C7.84783 26.3374 8.51236 26.6127 9.20526 26.6127H10.947C11.6399 26.6127 12.3044 26.3374 12.7944 25.8475C13.2844 25.3575 13.5596 24.693 13.5596 24.0001C13.5596 23.3071 13.2844 22.6426 12.7944 22.1527C12.3044 21.6627 11.6399 21.3874 10.947 21.3874Z" fill="black"/>
<path d="M33.2293 17.3834C33.5742 17.382 33.9155 17.3122 34.2333 17.1782C34.5511 17.0442 34.8393 16.8486 35.0811 16.6027L36.3124 15.3714C36.7554 14.8729 36.9911 14.2239 36.971 13.5572C36.9509 12.8906 36.6767 12.2569 36.2044 11.7859C35.7322 11.315 35.0978 11.0425 34.4311 11.0242C33.7644 11.006 33.116 11.2433 32.6187 11.6877L31.3874 12.919C31.0257 13.2856 30.7799 13.7507 30.6808 14.2561C30.5816 14.7616 30.6335 15.285 30.8299 15.7611C31.0264 16.2373 31.3587 16.645 31.7854 16.9335C32.212 17.222 32.7142 17.3785 33.2293 17.3834Z" fill="black"/>
<path d="M12.919 31.3874L11.6877 32.6187C11.324 32.9846 11.0768 33.4501 10.9772 33.9563C10.8776 34.4626 10.9302 34.987 11.1282 35.4634C11.3263 35.9399 11.661 36.347 12.0901 36.6335C12.5193 36.9199 13.0236 37.0729 13.5396 37.0731C13.8817 37.0746 14.2207 37.0082 14.5369 36.8776C14.853 36.747 15.1401 36.5548 15.3814 36.3124L16.6027 35.0811C17.0729 34.5874 17.3315 33.9293 17.3232 33.2475C17.3149 32.5657 17.0403 31.9141 16.5582 31.4319C16.076 30.9498 15.4244 30.6752 14.7426 30.6669C14.0608 30.6586 13.4027 30.9172 12.909 31.3874H12.919Z" fill="black"/>
</svg>
