<svg width="48" height="48" viewBox="0 0 48 48" fill="none" xmlns="http://www.w3.org/2000/svg">
<path d="M23.0137 11.0335C23.2759 11.2939 23.6305 11.44 24.0001 11.44C24.3697 11.44 24.7243 11.2939 24.9865 11.0335C25.2488 10.7731 25.3975 10.4196 25.4001 10.05V5.4C25.4001 5.0287 25.2526 4.6726 24.99 4.41005C24.7275 4.1475 24.3714 4 24.0001 4C23.6288 4 23.2727 4.1475 23.0101 4.41005C22.7476 4.6726 22.6001 5.0287 22.6001 5.4V10.05C22.6027 10.4196 22.7514 10.7731 23.0137 11.0335Z" fill="black"/>
<path fill-rule="evenodd" clip-rule="evenodd" d="M24.0001 34.7001C21.8838 34.7001 19.8151 34.0725 18.0555 32.8968C16.2958 31.721 14.9244 30.0499 14.1145 28.0948C13.3047 26.1396 13.0928 23.9882 13.5057 21.9126C13.9185 19.837 14.9376 17.9304 16.434 16.434C17.9304 14.9376 19.837 13.9185 21.9126 13.5057C23.9882 13.0928 26.1396 13.3047 28.0948 14.1145C30.0499 14.9244 31.721 16.2958 32.8968 18.0555C34.0725 19.8151 34.7001 21.8838 34.7001 24.0001C34.6974 26.8371 33.5692 29.5571 31.5632 31.5632C29.5571 33.5692 26.8371 34.6974 24.0001 34.7001ZM24.0001 16.0901C22.4356 16.0901 20.9063 16.554 19.6055 17.4231C18.3047 18.2923 17.2909 19.5277 16.6922 20.973C16.0935 22.4184 15.9368 24.0088 16.242 25.5432C16.5473 27.0776 17.3006 28.487 18.4068 29.5933C19.5131 30.6995 20.9225 31.4529 22.4569 31.7581C23.9913 32.0633 25.5817 31.9066 27.0271 31.3079C28.4724 30.7093 29.7078 29.6954 30.577 28.3946C31.4461 27.0938 31.9101 25.5645 31.9101 24.0001C31.9074 21.903 31.0732 19.8926 29.5903 18.4098C28.1075 16.9269 26.0971 16.0927 24.0001 16.0901Z" fill="black"/>
<path d="M24.0001 44C23.6288 44 23.2727 43.8525 23.0101 43.5899C22.7476 43.3274 22.6001 42.9713 22.6001 42.6V38C22.6001 37.6287 22.7476 37.2726 23.0101 37.01C23.2727 36.7475 23.6288 36.6 24.0001 36.6C24.3714 36.6 24.7275 36.7475 24.99 37.01C25.2526 37.2726 25.4001 37.6287 25.4001 38V42.6C25.4001 42.7838 25.3639 42.9659 25.2935 43.1357C25.2232 43.3056 25.12 43.4599 24.99 43.5899C24.86 43.7199 24.7057 43.8231 24.5359 43.8934C24.366 43.9638 24.1839 44 24.0001 44Z" fill="black"/>
<path d="M37.1599 38.55C36.9744 38.5514 36.7904 38.5158 36.6188 38.4454C36.4471 38.375 36.2911 38.2712 36.1599 38.14L32.8699 34.85C32.7369 34.7197 32.6312 34.5641 32.559 34.3924C32.4869 34.2207 32.4497 34.0363 32.4497 33.85C32.4497 33.6638 32.4869 33.4794 32.559 33.3077C32.6312 33.136 32.7369 32.9804 32.8699 32.85C32.9988 32.7145 33.1539 32.6065 33.3258 32.5328C33.4977 32.459 33.6829 32.421 33.8699 32.421C34.057 32.421 34.2421 32.459 34.414 32.5328C34.5859 32.6065 34.741 32.7145 34.8699 32.85L38.1599 36.14C38.3529 36.3369 38.4835 36.5864 38.5352 36.8572C38.587 37.1281 38.5576 37.4081 38.4508 37.6623C38.344 37.9165 38.1645 38.1335 37.9349 38.2861C37.7052 38.4387 37.4356 38.5201 37.1599 38.52V38.55Z" fill="black"/>
<path d="M13.5889 15.4254C13.7605 15.4958 13.9445 15.5313 14.13 15.53C14.3189 15.534 14.5066 15.4998 14.6819 15.4293C14.8572 15.3588 15.0165 15.2536 15.15 15.12C15.2856 14.9911 15.3935 14.836 15.4672 14.6641C15.541 14.4921 15.579 14.307 15.579 14.12C15.579 13.9329 15.541 13.7478 15.4672 13.5759C15.3935 13.404 15.2856 13.2489 15.15 13.12L11.86 9.82998C11.5948 9.56477 11.2351 9.41577 10.86 9.41577C10.4849 9.41577 10.1252 9.56477 9.86001 9.82998C9.5948 10.0952 9.4458 10.4549 9.4458 10.83C9.4458 11.2051 9.5948 11.5648 9.86001 11.83L13.13 15.12C13.2612 15.2512 13.4172 15.355 13.5889 15.4254Z" fill="black"/>
<path d="M42.6001 25.4H38.0001C37.6288 25.4 37.2727 25.2525 37.0102 24.9899C36.7476 24.7274 36.6001 24.3713 36.6001 24C36.6001 23.6287 36.7476 23.2726 37.0102 23.01C37.2727 22.7475 37.6288 22.6 38.0001 22.6H42.6001C42.9714 22.6 43.3275 22.7475 43.59 23.01C43.8526 23.2726 44.0001 23.6287 44.0001 24C44.0001 24.3713 43.8526 24.7274 43.59 24.9899C43.3275 25.2525 42.9714 25.4 42.6001 25.4Z" fill="black"/>
<path d="M5.4 25.4H10.05C10.4213 25.4 10.7774 25.2525 11.0399 24.9899C11.3025 24.7274 11.45 24.3713 11.45 24C11.45 23.6287 11.3025 23.2726 11.0399 23.01C10.7774 22.7475 10.4213 22.6 10.05 22.6H5.4C5.0287 22.6 4.6726 22.7475 4.41005 23.01C4.1475 23.2726 4 23.6287 4 24C4 24.3713 4.1475 24.7274 4.41005 24.9899C4.6726 25.2525 5.0287 25.4 5.4 25.4Z" fill="black"/>
<path d="M33.8699 15.53C33.6844 15.5313 33.5004 15.4958 33.3288 15.4254C33.1571 15.355 33.0011 15.2512 32.8699 15.12C32.7344 14.9911 32.6264 14.836 32.5527 14.6641C32.4789 14.4921 32.4409 14.307 32.4409 14.12C32.4409 13.9329 32.4789 13.7478 32.5527 13.5759C32.6264 13.404 32.7344 13.2489 32.8699 13.12L36.1599 9.82998C36.4251 9.56477 36.7848 9.41577 37.1599 9.41577C37.535 9.41577 37.8947 9.56477 38.1599 9.82998C38.4251 10.0952 38.5741 10.4549 38.5741 10.83C38.5741 11.2051 38.4251 11.5648 38.1599 11.83L34.8699 15.12C34.7387 15.2512 34.5827 15.355 34.4111 15.4254C34.2394 15.4958 34.0555 15.5313 33.8699 15.53Z" fill="black"/>
<path d="M10.3087 38.4454C10.4804 38.5158 10.6644 38.5513 10.8499 38.55C11.2177 38.5474 11.5698 38.4001 11.8299 38.14L15.1399 34.85C15.4051 34.5848 15.5541 34.2251 15.5541 33.85C15.5541 33.4749 15.4051 33.1152 15.1399 32.85C14.8747 32.5848 14.515 32.4358 14.1399 32.4358C13.7648 32.4358 13.4051 32.5848 13.1399 32.85L9.8499 36.14C9.71435 36.2689 9.60642 36.424 9.53267 36.5959C9.45893 36.7678 9.4209 36.9529 9.4209 37.14C9.4209 37.3271 9.45893 37.5122 9.53267 37.6841C9.60642 37.856 9.71435 38.0111 9.8499 38.14C9.9811 38.2712 10.1371 38.375 10.3087 38.4454Z" fill="black"/>
</svg>
