<svg width="48" height="48" viewBox="0 0 48 48" fill="none" xmlns="http://www.w3.org/2000/svg">
<path d="M7.98011 11.91C8.18445 11.91 8.35011 11.7443 8.35011 11.54C8.35011 11.3356 8.18445 11.17 7.98011 11.17C7.77576 11.17 7.61011 11.3356 7.61011 11.54C7.61011 11.7443 7.77576 11.91 7.98011 11.91Z" fill="black"/>
<path d="M9.83009 11.54C9.83009 11.7443 9.66443 11.91 9.46009 11.91C9.25574 11.91 9.09009 11.7443 9.09009 11.54C9.09009 11.3356 9.25574 11.17 9.46009 11.17C9.66443 11.17 9.83009 11.3356 9.83009 11.54Z" fill="black"/>
<path d="M10.9301 11.91C11.1344 11.91 11.3001 11.7443 11.3001 11.54C11.3001 11.3356 11.1344 11.17 10.9301 11.17C10.7257 11.17 10.5601 11.3356 10.5601 11.54C10.5601 11.7443 10.7257 11.91 10.9301 11.91Z" fill="black"/>
<path d="M19.35 27.8201H28.65C28.8431 27.8364 29.0375 27.8125 29.2209 27.7498C29.4043 27.6872 29.5727 27.5871 29.7155 27.456C29.8582 27.3248 29.9721 27.1655 30.05 26.988C30.128 26.8106 30.1682 26.6189 30.1682 26.4251C30.1682 26.2312 30.128 26.0395 30.05 25.8621C29.9721 25.6846 29.8582 25.5253 29.7155 25.3942C29.5727 25.263 29.4043 25.163 29.2209 25.1003C29.0375 25.0376 28.8431 25.0137 28.65 25.0301H19.35C19.1569 25.0137 18.9625 25.0376 18.7791 25.1003C18.5957 25.163 18.4273 25.263 18.2846 25.3942C18.1418 25.5253 18.0279 25.6846 17.95 25.8621C17.872 26.0395 17.8318 26.2312 17.8318 26.4251C17.8318 26.6189 17.872 26.8106 17.95 26.988C18.0279 27.1655 18.1418 27.3248 18.2846 27.456C18.4273 27.5871 18.5957 27.6872 18.7791 27.7498C18.9625 27.8125 19.1569 27.8364 19.35 27.8201Z" fill="black"/>
<path fill-rule="evenodd" clip-rule="evenodd" d="M41.3 7.72H6.7C5.98392 7.72 5.29716 8.00447 4.79081 8.51081C4.28446 9.01716 4 9.70392 4 10.42V37.58C4 37.9346 4.06984 38.2857 4.20553 38.6132C4.34121 38.9408 4.54009 39.2385 4.79081 39.4892C5.04153 39.7399 5.33918 39.9388 5.66675 40.0745C5.99433 40.2102 6.34543 40.28 6.7 40.28H41.3C42.0161 40.28 42.7028 39.9955 43.2092 39.4892C43.7155 38.9828 44 38.2961 44 37.58V10.42C44 9.70392 43.7155 9.01716 43.2092 8.51081C42.7028 8.00447 42.0161 7.72 41.3 7.72ZM41.21 10.51V12.57H6.79V10.51H41.21ZM6.79 37.51V15.36H41.21V37.49L6.79 37.51Z" fill="black"/>
</svg>
