<svg width="48" height="48" viewBox="0 0 48 48" fill="none" xmlns="http://www.w3.org/2000/svg">
<path d="M7.98011 11.91C8.18445 11.91 8.35011 11.7443 8.35011 11.54C8.35011 11.3356 8.18445 11.17 7.98011 11.17C7.77576 11.17 7.61011 11.3356 7.61011 11.54C7.61011 11.7443 7.77576 11.91 7.98011 11.91Z" fill="black"/>
<path d="M9.46009 11.91C9.66443 11.91 9.83009 11.7443 9.83009 11.54C9.83009 11.3356 9.66443 11.17 9.46009 11.17C9.25574 11.17 9.09009 11.3356 9.09009 11.54C9.09009 11.7443 9.25574 11.91 9.46009 11.91Z" fill="black"/>
<path d="M11.3001 11.54C11.3001 11.7443 11.1344 11.91 10.9301 11.91C10.7257 11.91 10.5601 11.7443 10.5601 11.54C10.5601 11.3356 10.7257 11.17 10.9301 11.17C11.1344 11.17 11.3001 11.3356 11.3001 11.54Z" fill="black"/>
<path d="M25.4 25.03H28.65C28.8431 25.0137 29.0375 25.0376 29.2209 25.1002C29.4043 25.1629 29.5727 25.263 29.7155 25.3941C29.8582 25.5253 29.9721 25.6846 30.05 25.8621C30.128 26.0395 30.1682 26.2312 30.1682 26.425C30.1682 26.6188 30.128 26.8105 30.05 26.988C29.9721 27.1655 29.8582 27.3248 29.7155 27.4559C29.5727 27.5871 29.4043 27.6871 29.2209 27.7498C29.0375 27.8125 28.8431 27.8364 28.65 27.82H25.4V31.07C25.4 31.4413 25.2525 31.7974 24.99 32.06C24.7274 32.3225 24.3713 32.47 24 32.47C23.6287 32.47 23.2726 32.3225 23.0101 32.06C22.7475 31.7974 22.6 31.4413 22.6 31.07V27.82H19.35C19.1569 27.8364 18.9625 27.8125 18.7791 27.7498C18.5957 27.6871 18.4273 27.5871 18.2846 27.4559C18.1418 27.3248 18.0279 27.1655 17.95 26.988C17.872 26.8105 17.8318 26.6188 17.8318 26.425C17.8318 26.2312 17.872 26.0395 17.95 25.8621C18.0279 25.6846 18.1418 25.5253 18.2846 25.3941C18.4273 25.263 18.5957 25.1629 18.7791 25.1002C18.9625 25.0376 19.1569 25.0137 19.35 25.03H22.6V21.77C22.6 21.3987 22.7475 21.0426 23.0101 20.7801C23.2726 20.5175 23.6287 20.37 24 20.37C24.3713 20.37 24.7274 20.5175 24.99 20.7801C25.2525 21.0426 25.4 21.3987 25.4 21.77V25.03Z" fill="black"/>
<path fill-rule="evenodd" clip-rule="evenodd" d="M41.3 7.72H6.7C5.98392 7.72 5.29716 8.00447 4.79081 8.51081C4.28446 9.01716 4 9.70392 4 10.42V37.58C4 37.9346 4.06984 38.2857 4.20553 38.6132C4.34121 38.9408 4.54009 39.2385 4.79081 39.4892C5.04153 39.7399 5.33918 39.9388 5.66675 40.0745C5.99433 40.2102 6.34543 40.28 6.7 40.28H41.3C42.0161 40.28 42.7028 39.9955 43.2092 39.4892C43.7155 38.9828 44 38.2961 44 37.58V10.42C44 9.70392 43.7155 9.01716 43.2092 8.51081C42.7028 8.00447 42.0161 7.72 41.3 7.72ZM41.21 10.51V12.57H6.79V10.51H41.21ZM6.79 37.51V15.36H41.21V37.49L6.79 37.51Z" fill="black"/>
</svg>
