<svg width="48" height="48" viewBox="0 0 48 48" fill="none" xmlns="http://www.w3.org/2000/svg">
<path d="M39.3201 9H11.7001C11.173 9.0013 10.6579 9.15742 10.2188 9.44899C9.77964 9.74055 9.43585 10.1547 9.2301 10.64H36.3001C37.3452 10.6364 38.3502 11.042 39.1001 11.77H39.2301V11.9C39.9581 12.6499 40.3637 13.6549 40.3601 14.7V35.7C40.8407 35.4963 41.2517 35.1571 41.5429 34.7239C41.8341 34.2906 41.993 33.782 42.0001 33.26V11.68C42.0001 10.9692 41.7177 10.2876 41.2151 9.78495C40.7126 9.28236 40.0309 9 39.3201 9Z" fill="black"/>
<path d="M9.78005 15.3699C9.78005 15.5356 9.64574 15.6699 9.48005 15.6699C9.31437 15.6699 9.18005 15.5356 9.18005 15.3699C9.18005 15.2043 9.31437 15.0699 9.48005 15.0699C9.64574 15.0699 9.78005 15.2043 9.78005 15.3699Z" fill="black"/>
<path d="M10.68 15.6699C10.8457 15.6699 10.98 15.5356 10.98 15.3699C10.98 15.2043 10.8457 15.0699 10.68 15.0699C10.5143 15.0699 10.38 15.2043 10.38 15.3699C10.38 15.5356 10.5143 15.6699 10.68 15.6699Z" fill="black"/>
<path d="M12.1802 15.3699C12.1802 15.5356 12.0459 15.6699 11.8802 15.6699C11.7145 15.6699 11.5802 15.5356 11.5802 15.3699C11.5802 15.2043 11.7145 15.0699 11.8802 15.0699C12.0459 15.0699 12.1802 15.2043 12.1802 15.3699Z" fill="black"/>
<path fill-rule="evenodd" clip-rule="evenodd" d="M36.3002 12H8.68018C8.32654 11.9999 7.97641 12.0699 7.64994 12.2059C7.32348 12.3418 7.02715 12.541 6.77802 12.792C6.5289 13.0429 6.33191 13.3408 6.19841 13.6682C6.06491 13.9957 5.99754 14.3463 6.00018 14.7V36.28C5.99487 36.6352 6.06028 36.988 6.19258 37.3178C6.32489 37.6476 6.52146 37.9478 6.77085 38.2009C7.02024 38.454 7.31747 38.655 7.64526 38.7922C7.97305 38.9294 8.32484 39 8.68018 39H36.3002C36.6572 39.0027 37.0111 38.934 37.3413 38.798C37.6714 38.662 37.971 38.4615 38.2225 38.2081C38.474 37.9547 38.6724 37.6536 38.8059 37.3225C38.9395 36.9914 39.0055 36.6369 39.0002 36.28V14.7C39.0028 14.3446 38.9348 13.9923 38.8001 13.6636C38.6653 13.3348 38.4665 13.0361 38.2153 12.7848C37.964 12.5336 37.6653 12.3348 37.3366 12.2001C37.0078 12.0653 36.6555 11.9973 36.3002 12ZM36.2102 14.77V16H8.77018V14.79L36.2102 14.77ZM8.77018 36.19V18.73H36.2102V36.19H8.77018Z" fill="black"/>
</svg>
