<svg width="48" height="48" viewBox="0 0 48 48" fill="none" xmlns="http://www.w3.org/2000/svg">
<path d="M7.98011 11.91C8.18445 11.91 8.35011 11.7443 8.35011 11.54C8.35011 11.3356 8.18445 11.17 7.98011 11.17C7.77576 11.17 7.61011 11.3356 7.61011 11.54C7.61011 11.7443 7.77576 11.91 7.98011 11.91Z" fill="black"/>
<path d="M9.83009 11.54C9.83009 11.7443 9.66443 11.91 9.46009 11.91C9.25574 11.91 9.09009 11.7443 9.09009 11.54C9.09009 11.3356 9.25574 11.17 9.46009 11.17C9.66443 11.17 9.83009 11.3356 9.83009 11.54Z" fill="black"/>
<path d="M10.9301 11.91C11.1344 11.91 11.3001 11.7443 11.3001 11.54C11.3001 11.3356 11.1344 11.17 10.9301 11.17C10.7257 11.17 10.5601 11.3356 10.5601 11.54C10.5601 11.7443 10.7257 11.91 10.9301 11.91Z" fill="black"/>
<path d="M29.64 22.72L26 26.42L29.66 30.09C29.853 30.2869 29.9836 30.5364 30.0353 30.8073C30.0871 31.0781 30.0577 31.3581 29.9509 31.6123C29.8441 31.8665 29.6646 32.0835 29.435 32.2361C29.2053 32.3887 28.9357 32.4701 28.66 32.47C28.2857 32.4705 27.9263 32.3232 27.66 32.06L24 28.4L20.33 32.06C20.0637 32.3232 19.7043 32.4705 19.33 32.47C19.0543 32.4701 18.7847 32.3887 18.555 32.2361C18.3254 32.0835 18.1459 31.8665 18.0391 31.6123C17.9323 31.3581 17.9029 31.0781 17.9547 30.8073C18.0064 30.5364 18.137 30.2869 18.33 30.09L22 26.42L18.34 22.79C18.0748 22.5248 17.9258 22.1651 17.9258 21.79C17.9258 21.415 18.0748 21.0552 18.34 20.79C18.6052 20.5248 18.9649 20.3758 19.34 20.3758C19.7151 20.3758 20.0748 20.5248 20.34 20.79L24 24.45L27.64 20.72C27.9052 20.4548 28.2649 20.3058 28.64 20.3058C29.0151 20.3058 29.3748 20.4548 29.64 20.72C29.9052 20.9852 30.0542 21.345 30.0542 21.72C30.0542 22.0951 29.9052 22.4548 29.64 22.72Z" fill="black"/>
<path fill-rule="evenodd" clip-rule="evenodd" d="M41.3 7.72H6.7C5.98392 7.72 5.29716 8.00447 4.79081 8.51081C4.28446 9.01716 4 9.70392 4 10.42V37.58C4 37.9346 4.06984 38.2857 4.20553 38.6132C4.34121 38.9408 4.54009 39.2385 4.79081 39.4892C5.04153 39.7399 5.33918 39.9388 5.66675 40.0745C5.99433 40.2102 6.34543 40.28 6.7 40.28H41.3C42.0161 40.28 42.7028 39.9955 43.2092 39.4892C43.7155 38.9828 44 38.2961 44 37.58V10.42C44 9.70392 43.7155 9.01716 43.2092 8.51081C42.7028 8.00447 42.0161 7.72 41.3 7.72ZM41.21 10.51V12.57H6.79V10.51H41.21ZM6.79 37.51V15.36H41.21V37.49L6.79 37.51Z" fill="black"/>
</svg>
