<svg width="48" height="48" viewBox="0 0 48 48" fill="none" xmlns="http://www.w3.org/2000/svg">
<path d="M8.35011 11.54C8.35011 11.7443 8.18445 11.91 7.98011 11.91C7.77576 11.91 7.61011 11.7443 7.61011 11.54C7.61011 11.3356 7.77576 11.17 7.98011 11.17C8.18445 11.17 8.35011 11.3356 8.35011 11.54Z" fill="black"/>
<path d="M9.46009 11.91C9.66443 11.91 9.83009 11.7443 9.83009 11.54C9.83009 11.3356 9.66443 11.17 9.46009 11.17C9.25574 11.17 9.09009 11.3356 9.09009 11.54C9.09009 11.7443 9.25574 11.91 9.46009 11.91Z" fill="black"/>
<path d="M11.3001 11.54C11.3001 11.7443 11.1344 11.91 10.9301 11.91C10.7257 11.91 10.5601 11.7443 10.5601 11.54C10.5601 11.3356 10.7257 11.17 10.9301 11.17C11.1344 11.17 11.3001 11.3356 11.3001 11.54Z" fill="black"/>
<path fill-rule="evenodd" clip-rule="evenodd" d="M6.7 7.72H41.3C42.0161 7.72 42.7028 8.00447 43.2092 8.51081C43.7155 9.01716 44 9.70392 44 10.42V37.58C44 38.2961 43.7155 38.9828 43.2092 39.4892C42.7028 39.9955 42.0161 40.28 41.3 40.28H6.7C6.34543 40.28 5.99433 40.2102 5.66675 40.0745C5.33918 39.9388 5.04153 39.7399 4.79081 39.4892C4.54009 39.2385 4.34121 38.9408 4.20553 38.6132C4.06984 38.2857 4 37.9346 4 37.58V10.42C4 9.70392 4.28446 9.01716 4.79081 8.51081C5.29716 8.00447 5.98392 7.72 6.7 7.72ZM41.21 12.57V10.51H6.79V12.57H41.21ZM6.79 15.36V37.51L41.21 37.49V15.36H6.79Z" fill="black"/>
</svg>
