<svg width="48" height="48" viewBox="0 0 48 48" fill="none" xmlns="http://www.w3.org/2000/svg">
<path d="M37.65 8.76C38.5879 8.75975 39.5061 9.02924 40.2951 9.53633C41.0841 10.0434 41.7106 10.7667 42.1 11.62H44V10.4C43.9974 9.58129 43.671 8.79687 43.092 8.21795C42.5131 7.63903 41.7287 7.31263 40.91 7.31H10.36C9.8377 7.31056 9.32412 7.44394 8.86755 7.69759C8.41098 7.95124 8.02641 8.31683 7.75 8.76H37.65Z" fill="black"/>
<path d="M42.55 15.31V36.94C42.996 36.6618 43.3635 36.2741 43.6173 35.8137C43.8711 35.3533 44.0028 34.8357 44 34.31V15.31H42.55Z" fill="black"/>
<path d="M4 18.52V37.6C4.00264 38.4187 4.32904 39.2031 4.90795 39.782C5.48687 40.361 6.27129 40.6874 7.09 40.69H37.65C38.4687 40.6874 39.2531 40.361 39.832 39.782C40.411 39.2031 40.7374 38.4187 40.74 37.6V18.52H4Z" fill="black"/>
<path d="M40.74 14.89V13.66C40.7374 12.8413 40.411 12.0569 39.832 11.478C39.2531 10.899 38.4687 10.5726 37.65 10.57H7.09C6.27129 10.5726 5.48687 10.899 4.90795 11.478C4.32904 12.0569 4.00264 12.8413 4 13.66V14.89H40.74ZM10.74 13.4C10.7829 13.3987 10.8255 13.4059 10.8655 13.4214C10.9055 13.4369 10.942 13.4603 10.9728 13.4901C11.0035 13.52 11.028 13.5557 11.0447 13.5952C11.0614 13.6347 11.07 13.6771 11.07 13.72C11.07 13.8075 11.0352 13.8915 10.9733 13.9533C10.9115 14.0152 10.8275 14.05 10.74 14.05C10.6971 14.05 10.6547 14.0414 10.6152 14.0247C10.5757 14.008 10.54 13.9835 10.5101 13.9528C10.4803 13.922 10.4569 13.8855 10.4414 13.8455C10.4259 13.8055 10.4187 13.7629 10.42 13.72C10.42 13.6351 10.4537 13.5537 10.5137 13.4937C10.5737 13.4337 10.6551 13.4 10.74 13.4ZM9.43 13.4C9.47286 13.3987 9.51555 13.4059 9.55553 13.4214C9.59552 13.4369 9.63198 13.4603 9.66277 13.4901C9.69355 13.52 9.71802 13.5557 9.73472 13.5952C9.75142 13.6347 9.76002 13.6771 9.76 13.72C9.76 13.8075 9.72523 13.8915 9.66335 13.9533C9.60146 14.0152 9.51752 14.05 9.43 14.05C9.38712 14.05 9.34468 14.0414 9.30519 14.0247C9.2657 14.008 9.22996 13.9835 9.20012 13.9528C9.17027 13.922 9.14691 13.8855 9.13143 13.8455C9.11595 13.8055 9.10866 13.7629 9.11 13.72C9.11 13.6351 9.14371 13.5537 9.20373 13.4937C9.26374 13.4337 9.34513 13.4 9.43 13.4ZM8.12 13.4C8.20487 13.4 8.28626 13.4337 8.34627 13.4937C8.40629 13.5537 8.44 13.6351 8.44 13.72C8.44134 13.7629 8.43405 13.8055 8.41857 13.8455C8.40309 13.8855 8.37973 13.922 8.34988 13.9528C8.32004 13.9835 8.2843 14.008 8.24481 14.0247C8.20532 14.0414 8.16288 14.05 8.12 14.05C8.03248 14.05 7.94854 14.0152 7.88665 13.9533C7.82477 13.8915 7.79 13.8075 7.79 13.72C7.78998 13.6771 7.79858 13.6347 7.81528 13.5952C7.83198 13.5557 7.85645 13.52 7.88723 13.4901C7.91802 13.4603 7.95448 13.4369 7.99447 13.4214C8.03445 13.4059 8.07714 13.3987 8.12 13.4Z" fill="black"/>
</svg>
