<svg width="48" height="48" viewBox="0 0 48 48" fill="none" xmlns="http://www.w3.org/2000/svg">
<path d="M44 12.375V10.725C43.9974 9.9063 43.671 9.12188 43.092 8.54296C42.5131 7.96405 41.7287 7.63765 40.91 7.63501H7.09C6.27129 7.63765 5.48687 7.96405 4.90795 8.54296C4.32904 9.12188 4.00264 9.9063 4 10.725V12.375H44ZM11.23 10.555C11.3012 10.555 11.3708 10.5761 11.43 10.6157C11.4892 10.6552 11.5353 10.7115 11.5626 10.7772C11.5898 10.843 11.597 10.9154 11.5831 10.9852C11.5692 11.0551 11.5349 11.1192 11.4846 11.1696C11.4342 11.2199 11.3701 11.2542 11.3002 11.2681C11.2304 11.282 11.158 11.2749 11.0922 11.2476C11.0265 11.2204 10.9702 11.1742 10.9307 11.115C10.8911 11.0558 10.87 10.9862 10.87 10.915C10.87 10.8195 10.9079 10.728 10.9754 10.6605C11.043 10.5929 11.1345 10.555 11.23 10.555ZM9.79 10.555C9.8612 10.555 9.9308 10.5761 9.99001 10.6157C10.0492 10.6552 10.0953 10.7115 10.1226 10.7772C10.1498 10.843 10.157 10.9154 10.1431 10.9852C10.1292 11.0551 10.0949 11.1192 10.0446 11.1696C9.99421 11.2199 9.93007 11.2542 9.86023 11.2681C9.7904 11.282 9.71802 11.2749 9.65223 11.2476C9.58645 11.2204 9.53023 11.1742 9.49067 11.115C9.45111 11.0558 9.43 10.9862 9.43 10.915C9.43 10.8195 9.46793 10.728 9.53544 10.6605C9.60295 10.5929 9.69452 10.555 9.79 10.555ZM8.34 10.555C8.41192 10.551 8.48338 10.5687 8.54516 10.6057C8.60693 10.6428 8.65617 10.6975 8.68651 10.7628C8.71685 10.8281 8.72689 10.9011 8.71534 10.9722C8.70379 11.0433 8.67118 11.1093 8.62172 11.1616C8.57227 11.214 8.50824 11.2503 8.43792 11.2659C8.36759 11.2815 8.29421 11.2756 8.22726 11.2491C8.1603 11.2225 8.10285 11.1765 8.06234 11.1169C8.02183 11.0574 8.00011 10.987 8 10.915C7.99986 10.8229 8.03503 10.7342 8.09827 10.6673C8.16152 10.6003 8.24803 10.5601 8.34 10.555Z" fill="black"/>
<path d="M4 16.005V37.275C4.00264 38.0937 4.32904 38.8781 4.90795 39.4571C5.48687 40.036 6.27129 40.3624 7.09 40.365H40.91C41.7287 40.3624 42.5131 40.036 43.092 39.4571C43.671 38.8781 43.9974 38.0937 44 37.275V16.005H4ZM29.83 29.635C30.1701 29.9762 30.3611 30.4383 30.3611 30.92C30.3611 31.4018 30.1701 31.8639 29.83 32.205C29.6634 32.3758 29.4643 32.5115 29.2445 32.6043C29.0247 32.697 28.7886 32.7448 28.55 32.745C28.3099 32.7451 28.0722 32.6973 27.8507 32.6046C27.6293 32.5119 27.4285 32.3761 27.26 32.205L24 28.935L20.74 32.195C20.5715 32.3661 20.3707 32.5019 20.1493 32.5946C19.9278 32.6873 19.6901 32.7351 19.45 32.735C19.2114 32.7348 18.9753 32.687 18.7555 32.5942C18.5357 32.5015 18.3366 32.3658 18.17 32.195C17.8299 31.8538 17.6389 31.3918 17.6389 30.91C17.6389 30.4283 17.8299 29.9662 18.17 29.625L21.43 26.365L18.17 23.105C17.9857 22.9399 17.8371 22.739 17.7331 22.5145C17.6291 22.29 17.5719 22.0467 17.5652 21.7994C17.5584 21.5521 17.6021 21.306 17.6936 21.0761C17.7852 20.8463 17.9226 20.6375 18.0975 20.4625C18.2725 20.2876 18.4812 20.1502 18.7111 20.0586C18.9409 19.9671 19.187 19.9234 19.4344 19.9302C19.6817 19.9369 19.925 19.9941 20.1495 20.0981C20.374 20.2021 20.5749 20.3507 20.74 20.535L24 23.795L27.26 20.535C27.4251 20.3507 27.626 20.2021 27.8505 20.0981C28.075 19.9941 28.3183 19.9369 28.5656 19.9302C28.813 19.9234 29.0591 19.9671 29.2889 20.0586C29.5188 20.1502 29.7275 20.2876 29.9025 20.4625C30.0774 20.6375 30.2148 20.8463 30.3064 21.0761C30.3979 21.306 30.4416 21.5521 30.4348 21.7994C30.4281 22.0467 30.3709 22.29 30.2669 22.5145C30.1629 22.739 30.0143 22.9399 29.83 23.105L26.57 26.365L29.83 29.635Z" fill="black"/>
</svg>
