<svg width="48" height="48" viewBox="0 0 48 48" fill="none" xmlns="http://www.w3.org/2000/svg">
<path d="M6.83777 41.8977C7.00969 41.9682 7.19414 42.003 7.37991 41.9999C7.56225 41.9997 7.74274 41.9634 7.91094 41.893C8.07915 41.8226 8.23175 41.7196 8.35991 41.5899L41.6399 8.40994C41.7781 8.28258 41.8884 8.12797 41.9638 7.95585C42.0392 7.78374 42.0782 7.59786 42.0782 7.40994C42.0782 7.22202 42.0392 7.03615 41.9638 6.86403C41.8884 6.69192 41.7781 6.5373 41.6399 6.40994C41.5126 6.27177 41.3579 6.16149 41.1858 6.08605C41.0137 6.01062 40.8278 5.97168 40.6399 5.97168C40.452 5.97168 40.2661 6.01062 40.094 6.08605C39.9219 6.16149 39.7673 6.27177 39.6399 6.40994L6.37991 39.5899C6.24174 39.7173 6.13146 39.8719 6.05603 40.044C5.98059 40.2161 5.94165 40.402 5.94165 40.5899C5.94165 40.7779 5.98059 40.9637 6.05603 41.1359C6.13146 41.308 6.24174 41.4626 6.37991 41.5899C6.51008 41.7225 6.66586 41.8272 6.83777 41.8977Z" fill="black"/>
<path d="M12 31.79L14.11 29.68C9.62 27.78 6.82 24.68 6.82 21.42C6.79 15.92 14.67 11.27 24 11.27C26.5171 11.2681 29.0218 11.6216 31.44 12.32L33.7 10.06C30.5788 8.99041 27.2993 8.45621 24 8.48001C12.79 8.48001 4 14.16 4 21.42C4 25.6 7 29.38 12 31.79Z" fill="black"/>
<path d="M39.2599 13L37.2599 15C39.7299 16.76 41.2599 19 41.2599 21.41C41.2599 26.91 33.3799 31.56 24.0499 31.56C23.0005 31.5574 21.952 31.494 20.9099 31.37L12.9299 39.31C16.7899 38.72 19.6499 36.94 21.0499 34.22C22.0499 34.31 23.0499 34.36 23.9999 34.36C35.2099 34.36 43.9999 28.68 43.9999 21.42C43.9999 18.16 42.2199 15.23 39.2599 13Z" fill="black"/>
</svg>
