<svg width="48" height="48" viewBox="0 0 48 48" fill="none" xmlns="http://www.w3.org/2000/svg">
<path d="M25.44 24.2L25.52 14.08H22.48L22.56 24.2H25.44Z" fill="black"/>
<path d="M23.1054 24.8513C23.3702 24.6744 23.6815 24.58 23.9999 24.58C24.4269 24.58 24.8364 24.7496 25.1383 25.0515C25.4403 25.3534 25.6099 25.763 25.6099 26.19C25.6099 26.5084 25.5155 26.8197 25.3386 27.0844C25.1616 27.3492 24.9102 27.5555 24.616 27.6774C24.3218 27.7993 23.9981 27.8311 23.6858 27.769C23.3735 27.7069 23.0866 27.5536 22.8615 27.3284C22.6363 27.1032 22.483 26.8164 22.4208 26.5041C22.3587 26.1917 22.3906 25.868 22.5124 25.5738C22.6343 25.2796 22.8407 25.0282 23.1054 24.8513Z" fill="black"/>
<path fill-rule="evenodd" clip-rule="evenodd" d="M10.83 39C10.4547 38.9896 10.093 38.8574 9.79942 38.6233C9.50587 38.3892 9.29643 38.066 9.20272 37.7025C9.10901 37.3389 9.13611 36.9547 9.27993 36.6079C9.42376 36.2611 9.6765 35.9705 10 35.78C11.6186 34.9662 12.9613 33.6931 13.86 32.12C7.74 29.82 4 25.63 4 20.94C4 13.68 12.79 8 24 8C35.21 8 44 13.68 44 20.94C44 28.2 35.21 33.88 24 33.88C23 33.88 22 33.83 21.05 33.74C19.42 36.92 15.79 38.83 10.9 39H10.83ZM24 10.79C14.67 10.79 6.79 15.44 6.79 20.94C6.79 24.65 10.44 28.18 16.1 29.94L17.38 30.33L17 31.63C16.6104 33.0691 15.8798 34.3931 14.87 35.49C15.7748 35.2162 16.6054 34.7398 17.2985 34.097C17.9916 33.4541 18.529 32.6617 18.87 31.78L19.25 30.71L20.37 30.86C21.5774 31.0122 22.7931 31.0891 24.01 31.09C33.34 31.09 41.22 26.44 41.22 20.94C41.22 15.44 33.33 10.79 24 10.79Z" fill="black"/>
</svg>
