<svg width="48" height="48" viewBox="0 0 48 48" fill="none" xmlns="http://www.w3.org/2000/svg">
<path d="M24 8.40002C12.78 8.40002 4 14.15 4 21.5C4 26.15 7.57 30.31 13.44 32.66C12.5995 33.9047 11.4573 34.9162 10.12 35.6C9.71351 35.8309 9.3938 36.1886 9.20977 36.6183C9.02573 37.0481 8.98748 37.5263 9.10086 37.9798C9.21425 38.4333 9.47303 38.8373 9.83765 39.1299C10.2023 39.4224 10.6527 39.5876 11.12 39.6H11.22C16.03 39.4 19.64 37.54 21.38 34.45C22.24 34.52 23.12 34.56 24 34.56C35.22 34.56 44 28.81 44 21.46C44 14.11 35.22 8.40002 24 8.40002Z" fill="black"/>
</svg>
