<svg width="48" height="48" viewBox="0 0 48 48" fill="none" xmlns="http://www.w3.org/2000/svg">
<path d="M20.9001 26.73C21.2693 27.091 21.7638 27.2953 22.2801 27.3L22.4401 27.27C22.7175 27.2513 22.9879 27.1749 23.2341 27.0457C23.4804 26.9166 23.697 26.7376 23.8701 26.52L30.7201 17.81C30.9364 17.5172 31.0301 17.1517 30.9815 16.791C30.9328 16.4302 30.7456 16.1026 30.4594 15.8776C30.1733 15.6526 29.8108 15.5479 29.4487 15.5857C29.0867 15.6235 28.7536 15.8008 28.5201 16.08L22.2501 24.08L19.4401 21.3C19.3088 21.1687 19.1529 21.0645 18.9813 20.9934C18.8097 20.9224 18.6258 20.8858 18.4401 20.8858C18.2544 20.8858 18.0705 20.9224 17.8989 20.9934C17.7273 21.0645 17.5714 21.1687 17.4401 21.3C17.3088 21.4313 17.2046 21.5872 17.1335 21.7588C17.0625 21.9304 17.0259 22.1143 17.0259 22.3C17.0259 22.4857 17.0625 22.6696 17.1335 22.8412C17.2046 23.0128 17.3088 23.1687 17.4401 23.3L20.9001 26.73Z" fill="black"/>
<path fill-rule="evenodd" clip-rule="evenodd" d="M9.79942 39.1233C10.093 39.3574 10.4547 39.4896 10.83 39.5H10.9C15.79 39.33 19.42 37.42 21.05 34.24C22 34.33 23 34.38 24 34.38C35.21 34.38 44 28.7 44 21.44C44 14.18 35.21 8.5 24 8.5C12.79 8.5 4 14.18 4 21.44C4 26.13 7.74 30.32 13.86 32.62C12.9613 34.1931 11.6186 35.4662 10 36.28C9.6765 36.4705 9.42376 36.7611 9.27993 37.1079C9.13611 37.4547 9.10901 37.8389 9.20272 38.2025C9.29643 38.566 9.50587 38.8892 9.79942 39.1233ZM6.79 21.44C6.79 15.94 14.67 11.29 24 11.29C33.33 11.29 41.22 15.94 41.22 21.44C41.22 26.94 33.34 31.59 24.01 31.59C22.7931 31.5891 21.5774 31.5122 20.37 31.36L19.25 31.21L18.87 32.28C18.529 33.1617 17.9916 33.9541 17.2985 34.597C16.6054 35.2398 15.7748 35.7162 14.87 35.99C15.8798 34.8931 16.6104 33.5691 17 32.13L17.38 30.83L16.1 30.44C10.44 28.68 6.79 25.15 6.79 21.44Z" fill="black"/>
</svg>
