<svg width="48" height="48" viewBox="0 0 48 48" fill="none" xmlns="http://www.w3.org/2000/svg">
<path fill-rule="evenodd" clip-rule="evenodd" d="M8.3438 35.0381C8.63466 35.2627 8.99253 35.3831 9.36 35.38H9.47C13.06 35.23 15.76 33.85 17.06 31.54C17.7 31.62 18.35 31.62 19 31.62C27.43 31.62 34 27.31 34 21.81C34 16.31 27.43 12 19 12C10.57 12 4 16.31 4 21.81C4 25.28 6.62 28.39 11 30.16C10.3824 31.0597 9.55081 31.7917 8.58 32.29C8.25508 32.4617 7.99723 32.7375 7.84781 33.0732C7.69838 33.409 7.66605 33.7851 7.75599 34.1414C7.84593 34.4978 8.05294 34.8135 8.3438 35.0381ZM6.83 21.79C6.83 18.01 12.4 14.79 19 14.79C25.55 14.79 31.17 18.02 31.17 21.81C31.17 25.6 25.59 28.81 19 28.81C18.1275 28.8121 17.2557 28.7587 16.39 28.65L15.27 28.5L14.9 29.57C14.6562 30.2564 14.2142 30.855 13.63 31.29C13.9155 30.7826 14.1372 30.2418 14.29 29.68L14.63 28.39L13.35 27.99C9.39 26.79 6.83 24.33 6.83 21.79Z" fill="black"/>
<path d="M29.0001 12C37.4301 12 44.0001 16.31 44.0001 21.81C44.0001 25.28 41.3501 28.39 37.0001 30.16C37.6118 31.0486 38.4325 31.7732 39.3901 32.27C39.7143 32.4413 39.9716 32.7162 40.1212 33.0509C40.2708 33.3856 40.3039 33.7608 40.2152 34.1166C40.1266 34.4723 39.9213 34.7881 39.6322 35.0134C39.343 35.2388 38.9867 35.3608 38.6201 35.36H38.5501C34.9501 35.21 32.2501 33.83 30.9501 31.52C30.3101 31.6 29.6501 31.6 29.0101 31.6C28.3701 31.6 27.7501 31.57 27.1301 31.52C28.9107 30.8492 30.5541 29.8597 31.9801 28.6L32.7401 28.5L33.1101 29.57C33.3539 30.2564 33.7959 30.855 34.3801 31.29C34.0937 30.7842 33.8752 30.2429 33.7301 29.68L33.3801 28.39L34.6601 27.99C38.6201 26.79 41.1801 24.33 41.1801 21.79C41.1801 18.58 37.2101 15.8 32.0001 15C30.5633 13.7397 28.9099 12.7504 27.1201 12.08C27.7401 12 28.3601 12 29.0001 12Z" fill="black"/>
</svg>
