<svg width="48" height="48" viewBox="0 0 48 48" fill="none" xmlns="http://www.w3.org/2000/svg">
<path d="M10.83 39.5C10.4547 39.4896 10.093 39.3574 9.79942 39.1233C9.50587 38.8892 9.29643 38.566 9.20272 38.2025C9.10901 37.8389 9.13611 37.4547 9.27993 37.1079C9.42376 36.7611 9.6765 36.4705 10 36.28C11.6186 35.4662 12.9613 34.1931 13.86 32.62C7.74 30.32 4 26.13 4 21.44C4 14.18 12.79 8.5 24 8.5C35.21 8.5 44 14.18 44 21.44C44 28.7 35.21 34.38 24 34.38C23 34.38 22 34.33 21.05 34.24C19.42 37.42 15.79 39.33 10.9 39.5H10.83ZM24 11.29C14.67 11.29 6.79 15.94 6.79 21.44C6.79 25.15 10.44 28.68 16.1 30.44L17.38 30.83L17 32.13C16.6104 33.5691 15.8798 34.8931 14.87 35.99C15.7748 35.7162 16.6054 35.2398 17.2985 34.597C17.9916 33.9541 18.529 33.1617 18.87 32.28L19.25 31.21L20.37 31.36C21.5774 31.5122 22.7931 31.5891 24.01 31.59C33.34 31.59 41.22 26.94 41.22 21.44C41.22 15.94 33.33 11.29 24 11.29Z" fill="black"/>
</svg>
