<svg width="48" height="48" viewBox="0 0 48 48" fill="none" xmlns="http://www.w3.org/2000/svg">
<path d="M24 8C12.78 8 4 13.75 4 21.1C4 25.75 7.57 29.91 13.44 32.26C12.5995 33.5047 11.4573 34.5162 10.12 35.2C9.71351 35.4309 9.3938 35.7886 9.20977 36.2183C9.02573 36.6481 8.98748 37.1262 9.10086 37.5798C9.21425 38.0333 9.47303 38.4373 9.83765 38.7298C10.2023 39.0224 10.6527 39.1876 11.12 39.2H11.22C16.03 39 19.64 37.14 21.38 34.05C22.24 34.12 23.12 34.16 24 34.16C35.22 34.16 44 28.41 44 21.06C44 13.71 35.22 8 24 8ZM30.88 17.86L24.19 26.38C23.9822 26.642 23.7218 26.8575 23.4255 27.0125C23.1292 27.1675 22.8037 27.2587 22.47 27.28H22.32C22.0098 27.2814 21.7024 27.2212 21.4157 27.1027C21.129 26.9842 20.8687 26.81 20.65 26.59L17.27 23.24C17.0851 23.0756 16.9357 22.8753 16.8309 22.6512C16.726 22.4271 16.668 22.184 16.6603 21.9368C16.6525 21.6895 16.6953 21.4433 16.7859 21.2131C16.8766 20.9829 17.0132 20.7736 17.1874 20.598C17.3617 20.4224 17.5699 20.2842 17.7994 20.1917C18.0288 20.0993 18.2747 20.0546 18.5221 20.0604C18.7694 20.0662 19.0129 20.1224 19.2378 20.2255C19.4627 20.3286 19.6642 20.4764 19.83 20.66L22.2 23L28 15.61C28.31 15.2692 28.7377 15.0587 29.1969 15.0209C29.656 14.9831 30.1124 15.1208 30.474 15.4063C30.8356 15.6917 31.0755 16.1037 31.1453 16.5591C31.215 17.0145 31.1095 17.4794 30.85 17.86H30.88Z" fill="black"/>
</svg>
