<svg width="48" height="48" viewBox="0 0 48 48" fill="none" xmlns="http://www.w3.org/2000/svg">
<path d="M24 8C12.78 8 4 13.75 4 21.1C4 25.75 7.57 29.91 13.44 32.26C12.5995 33.5047 11.4573 34.5162 10.12 35.2C9.71351 35.4309 9.3938 35.7886 9.20977 36.2183C9.02573 36.6481 8.98748 37.1262 9.10086 37.5798C9.21425 38.0333 9.47303 38.4373 9.83765 38.7298C10.2023 39.0224 10.6527 39.1876 11.12 39.2H11.22C16.03 39 19.64 37.14 21.38 34.05C22.24 34.12 23.12 34.16 24 34.16C35.22 34.16 44 28.41 44 21.06C44 13.71 35.22 8 24 8ZM29.14 18.59L26.33 21.39V25.26C26.33 25.4333 26.2955 25.6048 26.2283 25.7645C26.1611 25.9242 26.0626 26.0689 25.9387 26.19C25.8148 26.3111 25.6679 26.4063 25.5067 26.4698C25.3455 26.5333 25.1732 26.564 25 26.56H19.8C19.457 26.5574 19.1289 26.4192 18.8872 26.1757C18.6456 25.9322 18.51 25.6031 18.51 25.26V20.07C18.51 19.7279 18.6459 19.3998 18.8878 19.1578C19.1298 18.9159 19.4579 18.78 19.8 18.78H23.7L26.51 16C26.7084 15.804 26.9761 15.694 27.255 15.694C27.5339 15.694 27.8016 15.804 28 16L29.12 17.11C29.3134 17.3066 29.4235 17.5702 29.4272 17.846C29.4309 18.1217 29.328 18.3883 29.14 18.59Z" fill="black"/>
<path d="M22.9 23.53C22.7135 23.5812 22.5169 23.5832 22.3294 23.5359C22.1419 23.4886 21.9699 23.3936 21.83 23.26C21.6928 23.1226 21.596 22.9501 21.5502 22.7614C21.5043 22.5727 21.5112 22.3751 21.57 22.19L22.05 20.61H20.35V24.76H24.5V23L22.9 23.53Z" fill="black"/>
</svg>
