<svg width="48" height="48" viewBox="0 0 48 48" fill="none" xmlns="http://www.w3.org/2000/svg">
<path d="M22.0101 20.94C22.0101 21.6745 21.4146 22.27 20.6801 22.27C19.9456 22.27 19.3501 21.6745 19.3501 20.94C19.3501 20.2054 19.9456 19.61 20.6801 19.61C21.4146 19.61 22.0101 20.2054 22.0101 20.94Z" fill="black"/>
<path d="M23.9999 22.27C24.7345 22.27 25.3299 21.6745 25.3299 20.94C25.3299 20.2054 24.7345 19.61 23.9999 19.61C23.2654 19.61 22.6699 20.2054 22.6699 20.94C22.6699 21.6745 23.2654 22.27 23.9999 22.27Z" fill="black"/>
<path d="M28.65 20.94C28.65 21.6745 28.0545 22.27 27.32 22.27C26.5855 22.27 25.99 21.6745 25.99 20.94C25.99 20.2054 26.5855 19.61 27.32 19.61C28.0545 19.61 28.65 20.2054 28.65 20.94Z" fill="black"/>
<path fill-rule="evenodd" clip-rule="evenodd" d="M9.79942 38.6233C10.093 38.8574 10.4547 38.9896 10.83 39H10.9C15.79 38.83 19.42 36.92 21.05 33.74C22 33.83 23 33.88 24 33.88C35.21 33.88 44 28.2 44 20.94C44 13.68 35.21 8 24 8C12.79 8 4 13.68 4 20.94C4 25.63 7.74 29.82 13.86 32.12C12.9613 33.6931 11.6186 34.9662 10 35.78C9.6765 35.9705 9.42376 36.2611 9.27993 36.6079C9.13611 36.9547 9.10901 37.3389 9.20272 37.7025C9.29643 38.066 9.50587 38.3892 9.79942 38.6233ZM6.79 20.94C6.79 15.44 14.67 10.79 24 10.79C33.33 10.79 41.22 15.44 41.22 20.94C41.22 26.44 33.34 31.09 24.01 31.09C22.7931 31.0891 21.5774 31.0122 20.37 30.86L19.25 30.71L18.87 31.78C18.529 32.6617 17.9916 33.4541 17.2985 34.097C16.6054 34.7398 15.7748 35.2162 14.87 35.49C15.8798 34.3931 16.6104 33.0691 17 31.63L17.38 30.33L16.1 29.94C10.44 28.18 6.79 24.65 6.79 20.94Z" fill="black"/>
</svg>
