<svg width="48" height="48" viewBox="0 0 48 48" fill="none" xmlns="http://www.w3.org/2000/svg">
<path d="M19.35 22.34H24C24.3713 22.34 24.7274 22.1925 24.9899 21.93C25.2525 21.6674 25.4 21.3113 25.4 20.94C25.4 20.5687 25.2525 20.2126 24.9899 19.9501C24.7274 19.6875 24.3713 19.54 24 19.54H19.35C18.9786 19.54 18.6226 19.6875 18.36 19.9501C18.0975 20.2126 17.95 20.5687 17.95 20.94C17.95 21.3113 18.0975 21.6674 18.36 21.93C18.6226 22.1925 18.9786 22.34 19.35 22.34Z" fill="black"/>
<path d="M25.59 25.34H19.35C19.1569 25.3564 18.9625 25.3325 18.7791 25.2698C18.5957 25.2071 18.4273 25.1071 18.2846 24.9759C18.1418 24.8448 18.0279 24.6855 17.95 24.508C17.872 24.3306 17.8318 24.1389 17.8318 23.945C17.8318 23.7512 17.872 23.5595 17.95 23.3821C18.0279 23.2046 18.1418 23.0453 18.2846 22.9141C18.4273 22.783 18.5957 22.6829 18.7791 22.6203C18.9625 22.5576 19.1569 22.5337 19.35 22.55H25.59C25.9396 22.5797 26.2653 22.7395 26.5027 22.9978C26.7401 23.2562 26.8718 23.5942 26.8718 23.945C26.8718 24.2959 26.7401 24.6339 26.5027 24.8923C26.2653 25.1506 25.9396 25.3104 25.59 25.34Z" fill="black"/>
<path d="M19.35 19.33H28.65C28.8431 19.3464 29.0375 19.3225 29.2209 19.2598C29.4043 19.1971 29.5727 19.0971 29.7155 18.9659C29.8582 18.8348 29.9721 18.6755 30.05 18.498C30.128 18.3206 30.1682 18.1288 30.1682 17.935C30.1682 17.7412 30.128 17.5495 30.05 17.3721C29.9721 17.1946 29.8582 17.0353 29.7155 16.9041C29.5727 16.773 29.4043 16.6729 29.2209 16.6103C29.0375 16.5476 28.8431 16.5237 28.65 16.54H19.35C19.1569 16.5237 18.9625 16.5476 18.7791 16.6103C18.5957 16.6729 18.4273 16.773 18.2846 16.9041C18.1418 17.0353 18.0279 17.1946 17.95 17.3721C17.872 17.5495 17.8318 17.7412 17.8318 17.935C17.8318 18.1288 17.872 18.3206 17.95 18.498C18.0279 18.6755 18.1418 18.8348 18.2846 18.9659C18.4273 19.0971 18.5957 19.1971 18.7791 19.2598C18.9625 19.3225 19.1569 19.3464 19.35 19.33Z" fill="black"/>
<path fill-rule="evenodd" clip-rule="evenodd" d="M9.79942 38.6233C10.093 38.8574 10.4547 38.9896 10.83 39H10.9C15.79 38.83 19.42 36.92 21.05 33.74C22 33.83 23 33.88 24 33.88C35.21 33.88 44 28.2 44 20.94C44 13.68 35.21 8 24 8C12.79 8 4 13.68 4 20.94C4 25.63 7.74 29.82 13.86 32.12C12.9613 33.6931 11.6186 34.9662 10 35.78C9.6765 35.9705 9.42376 36.2611 9.27993 36.6079C9.13611 36.9547 9.10901 37.3389 9.20272 37.7025C9.29643 38.066 9.50587 38.3892 9.79942 38.6233ZM6.79 20.94C6.79 15.44 14.67 10.79 24 10.79C33.33 10.79 41.22 15.44 41.22 20.94C41.22 26.44 33.34 31.09 24.01 31.09C22.7931 31.0891 21.5774 31.0122 20.37 30.86L19.25 30.71L18.87 31.78C18.529 32.6617 17.9916 33.4541 17.2985 34.097C16.6054 34.7398 15.7748 35.2162 14.87 35.49C15.8798 34.3931 16.6104 33.0691 17 31.63L17.38 30.33L16.1 29.94C10.44 28.18 6.79 24.65 6.79 20.94Z" fill="black"/>
</svg>
