<svg width="48" height="48" viewBox="0 0 48 48" fill="none" xmlns="http://www.w3.org/2000/svg">
<path d="M21.8899 26C21.5156 26.0005 21.1562 25.8531 20.8899 25.59L17.52 22.22C17.1987 21.8912 17.0188 21.4497 17.0188 20.99C17.0188 20.5303 17.1987 20.0888 17.52 19.76L20.9 16.34C21.0313 16.2087 21.1872 16.1045 21.3588 16.0334C21.5303 15.9624 21.7142 15.9258 21.9 15.9258C22.0857 15.9258 22.2696 15.9624 22.4411 16.0334C22.6127 16.1045 22.7686 16.2087 22.9 16.34C23.0313 16.4713 23.1354 16.6272 23.2065 16.7988C23.2776 16.9704 23.3142 17.1543 23.3142 17.34C23.3142 17.5257 23.2776 17.7096 23.2065 17.8812C23.1354 18.0528 23.0313 18.2087 22.9 18.34L20.27 20.97L22.9 23.6C23.033 23.7303 23.1387 23.8859 23.2108 24.0576C23.283 24.2294 23.3202 24.4137 23.3202 24.6C23.3202 24.7862 23.283 24.9706 23.2108 25.1423C23.1387 25.3141 23.033 25.4696 22.9 25.6C22.6296 25.8619 22.2663 26.0058 21.8899 26Z" fill="black"/>
<path d="M25.1099 25.59C25.3762 25.8531 25.7356 26.0005 26.1099 26C26.2973 25.9935 26.4815 25.9495 26.6516 25.8705C26.8216 25.7914 26.9741 25.6791 27.0999 25.54L30.4799 22.17C30.6456 22.011 30.7771 21.82 30.8665 21.6085C30.9559 21.3971 31.0013 21.1696 30.9999 20.94C31.0009 20.709 30.9554 20.4801 30.8661 20.2671C30.7768 20.054 30.6454 19.8612 30.4799 19.7L27.1099 16.33C26.8447 16.0648 26.485 15.9158 26.1099 15.9158C25.7348 15.9158 25.3751 16.0648 25.1099 16.33C24.8447 16.5952 24.6957 16.9549 24.6957 17.33C24.6957 17.7051 24.8447 18.0648 25.1099 18.33L27.7399 20.96L25.1099 23.59C24.9769 23.7203 24.8712 23.8759 24.799 24.0476C24.7269 24.2193 24.6897 24.4037 24.6897 24.59C24.6897 24.7762 24.7269 24.9606 24.799 25.1323C24.8712 25.304 24.9769 25.4596 25.1099 25.59Z" fill="black"/>
<path fill-rule="evenodd" clip-rule="evenodd" d="M10.83 39C10.4547 38.9896 10.093 38.8574 9.79942 38.6233C9.50587 38.3892 9.29643 38.066 9.20272 37.7025C9.10901 37.3389 9.13611 36.9547 9.27993 36.6079C9.42376 36.2611 9.6765 35.9705 10 35.78C11.6186 34.9662 12.9613 33.6931 13.86 32.12C7.74 29.82 4 25.63 4 20.94C4 13.68 12.79 8 24 8C35.21 8 44 13.68 44 20.94C44 28.2 35.21 33.88 24 33.88C23 33.88 22 33.83 21.05 33.74C19.42 36.92 15.79 38.83 10.9 39H10.83ZM24 10.79C14.67 10.79 6.79 15.44 6.79 20.94C6.79 24.65 10.44 28.18 16.1 29.94L17.38 30.33L17 31.63C16.6104 33.0691 15.8798 34.3931 14.87 35.49C15.7748 35.2162 16.6054 34.7398 17.2985 34.097C17.9916 33.4541 18.529 32.6617 18.87 31.78L19.25 30.71L20.37 30.86C21.5774 31.0122 22.7931 31.0891 24.01 31.09C33.34 31.09 41.22 26.44 41.22 20.94C41.22 15.44 33.33 10.79 24 10.79Z" fill="black"/>
</svg>
