<svg width="48" height="48" viewBox="0 0 48 48" fill="none" xmlns="http://www.w3.org/2000/svg">
<path d="M24 8C12.78 8 4 13.75 4 21.1C4 25.75 7.57 29.91 13.44 32.26C12.5995 33.5047 11.4573 34.5162 10.12 35.2C9.71351 35.4309 9.3938 35.7886 9.20977 36.2183C9.02573 36.6481 8.98748 37.1262 9.10086 37.5798C9.21425 38.0333 9.47303 38.4373 9.83765 38.7298C10.2023 39.0224 10.6527 39.1876 11.12 39.2H11.22C16.03 39 19.64 37.14 21.38 34.05C22.24 34.12 23.12 34.16 24 34.16C35.22 34.16 44 28.41 44 21.06C44 13.71 35.22 8 24 8ZM28.55 22.92H25.82V25.65C25.82 26.1327 25.6283 26.5956 25.2869 26.9369C24.9456 27.2782 24.4827 27.47 24 27.47C23.5173 27.47 23.0544 27.2782 22.7131 26.9369C22.3717 26.5956 22.18 26.1327 22.18 25.65V22.92H19.45C18.9673 22.92 18.5044 22.7283 18.1631 22.3869C17.8217 22.0456 17.63 21.5827 17.63 21.1C17.63 20.6173 17.8217 20.1544 18.1631 19.8131C18.5044 19.4717 18.9673 19.28 19.45 19.28H22.18V16.56C22.18 16.0773 22.3717 15.6144 22.7131 15.2731C23.0544 14.9317 23.5173 14.74 24 14.74C24.4827 14.74 24.9456 14.9317 25.2869 15.2731C25.6283 15.6144 25.82 16.0773 25.82 16.56V19.28H28.55C29.0327 19.28 29.4956 19.4717 29.8369 19.8131C30.1783 20.1544 30.37 20.6173 30.37 21.1C30.37 21.5827 30.1783 22.0456 29.8369 22.3869C29.4956 22.7283 29.0327 22.92 28.55 22.92Z" fill="black"/>
</svg>
