<svg width="48" height="48" viewBox="0 0 48 48" fill="none" xmlns="http://www.w3.org/2000/svg">
<path d="M10.9983 31.47L32.7928 9.67004C29.9437 8.78904 26.9771 8.3473 23.995 8.36004C12.7878 8.36004 4 14.12 4 21.47C4 25.43 6.59935 29 10.9983 31.47Z" fill="black"/>
<path d="M39.991 13.53L14.3174 39.22C15.7645 38.9776 17.143 38.4283 18.3604 37.609C19.5778 36.7897 20.6059 35.7195 21.3757 34.47C22.2454 34.54 23.1252 34.58 24.005 34.58C35.2222 34.58 44 28.82 44 21.47C43.9494 19.9345 43.5645 18.4286 42.8721 17.0572C42.1797 15.6859 41.1964 14.4821 39.991 13.53Z" fill="black"/>
<path d="M8.35891 42C7.89678 41.9974 7.44568 41.8585 7.06206 41.6008C6.67845 41.343 6.37936 40.9778 6.20222 40.5508C6.02508 40.1239 5.97776 39.6542 6.06618 39.2005C6.1546 38.7467 6.37484 38.3292 6.69932 38L37.9915 6.69004C38.4303 6.25111 39.0255 6.00452 39.6461 6.00452C40.2667 6.00452 40.8619 6.25111 41.3007 6.69004C41.7395 7.12897 41.986 7.72429 41.986 8.34504C41.986 8.96579 41.7395 9.56111 41.3007 10L9.9985 41.3C9.56575 41.7407 8.97638 41.9923 8.35891 42Z" fill="black"/>
</svg>
