<svg width="48" height="48" viewBox="0 0 48 48" fill="none" xmlns="http://www.w3.org/2000/svg">
<path d="M24 8C12.78 8 4 13.75 4 21.1C4 25.75 7.57 29.91 13.44 32.26C12.5995 33.5047 11.4573 34.5162 10.12 35.2C9.71351 35.4309 9.3938 35.7886 9.20977 36.2183C9.02573 36.6481 8.98748 37.1262 9.10086 37.5798C9.21425 38.0333 9.47303 38.4373 9.83765 38.7298C10.2023 39.0224 10.6527 39.1876 11.12 39.2H11.22C16.03 39 19.64 37.14 21.38 34.05C22.24 34.12 23.12 34.16 24 34.16C35.22 34.16 44 28.41 44 21.06C44 13.71 35.22 8 24 8ZM22.31 23.35C22.5636 23.6063 22.7353 23.9321 22.8034 24.2861C22.8716 24.6401 22.833 25.0064 22.6927 25.3385C22.5524 25.6706 22.3166 25.9535 22.0152 26.1514C21.7138 26.3493 21.3605 26.4532 21 26.45C20.5171 26.4495 20.0538 26.2591 19.71 25.92L16.42 22.63C16.0157 22.2234 15.7888 21.6734 15.7888 21.1C15.7888 20.5266 16.0157 19.9766 16.42 19.57L19.71 16.28C20.0566 15.9694 20.5091 15.8035 20.9744 15.8162C21.4396 15.829 21.8823 16.0195 22.2114 16.3486C22.5405 16.6777 22.731 17.1204 22.7438 17.5856C22.7565 18.0509 22.5906 18.5034 22.28 18.85L20.07 21.1L22.31 23.35ZM31.55 22.63L28.26 25.92C27.9162 26.2591 27.4529 26.4495 26.97 26.45C26.612 26.4473 26.2628 26.3391 25.9661 26.1389C25.6693 25.9388 25.4382 25.6555 25.3015 25.3247C25.1649 24.9938 25.1289 24.63 25.198 24.2787C25.2671 23.9275 25.4382 23.6045 25.69 23.35L27.93 21.1L25.69 18.85C25.3794 18.5034 25.2135 18.0509 25.2262 17.5856C25.239 17.1204 25.4295 16.6777 25.7586 16.3486C26.0877 16.0195 26.5304 15.829 26.9956 15.8162C27.4609 15.8035 27.9134 15.9694 28.26 16.28L31.55 19.57C31.9543 19.9766 32.1812 20.5266 32.1812 21.1C32.1812 21.6734 31.9543 22.2234 31.55 22.63Z" fill="black"/>
</svg>
