<svg width="48" height="48" viewBox="0 0 48 48" fill="none" xmlns="http://www.w3.org/2000/svg">
<path d="M24 8C12.78 8 4 13.75 4 21.1C4 25.75 7.57 29.91 13.44 32.26C12.5995 33.5047 11.4573 34.5162 10.12 35.2C9.71351 35.4309 9.3938 35.7886 9.20977 36.2183C9.02573 36.6481 8.98748 37.1262 9.10086 37.5798C9.21425 38.0333 9.47303 38.4373 9.83765 38.7298C10.2023 39.0224 10.6527 39.1876 11.12 39.2H11.22C16.03 39 19.64 37.14 21.38 34.05C22.24 34.12 23.12 34.16 24 34.16C35.22 34.16 44 28.41 44 21.06C44 13.71 35.22 8 24 8ZM26 13L25.91 23.81H22.14L22.05 13H26ZM24 29.17C23.6044 29.17 23.2178 29.0527 22.8889 28.8329C22.56 28.6132 22.3036 28.3008 22.1522 27.9354C22.0009 27.5699 21.9613 27.1678 22.0384 26.7798C22.1156 26.3919 22.3061 26.0355 22.5858 25.7558C22.8655 25.4761 23.2219 25.2856 23.6098 25.2084C23.9978 25.1313 24.3999 25.1709 24.7654 25.3222C25.1308 25.4736 25.4432 25.73 25.6629 26.0589C25.8827 26.3878 26 26.7744 26 27.17C26 27.7004 25.7893 28.2091 25.4142 28.5842C25.0391 28.9593 24.5304 29.17 24 29.17Z" fill="black"/>
</svg>
