<svg width="48" height="48" viewBox="0 0 48 48" fill="none" xmlns="http://www.w3.org/2000/svg">
<path d="M24 8C12.78 8 4 13.75 4 21.1C4 25.75 7.57 29.91 13.44 32.26C12.5995 33.5047 11.4573 34.5162 10.12 35.2C9.71351 35.4309 9.3938 35.7886 9.20977 36.2183C9.02573 36.6481 8.98748 37.1262 9.10086 37.5798C9.21425 38.0333 9.47303 38.4373 9.83765 38.7298C10.2023 39.0224 10.6527 39.1876 11.12 39.2H11.22C16.03 39 19.64 37.14 21.38 34.05C22.24 34.12 23.12 34.16 24 34.16C35.22 34.16 44 28.41 44 21.06C44 13.71 35.22 8 24 8ZM25.55 27.67H19.45C18.9919 27.636 18.5636 27.43 18.2511 27.0934C17.9385 26.7567 17.7648 26.3144 17.7648 25.855C17.7648 25.3956 17.9385 24.9533 18.2511 24.6166C18.5636 24.28 18.9919 24.074 19.45 24.04H25.55C25.7997 24.0215 26.0505 24.0546 26.2868 24.1374C26.523 24.2202 26.7397 24.3509 26.9232 24.5213C27.1066 24.6916 27.253 24.898 27.3531 25.1275C27.4532 25.357 27.5048 25.6046 27.5048 25.855C27.5048 26.1054 27.4532 26.353 27.3531 26.5825C27.253 26.812 27.1066 27.0184 26.9232 27.1887C26.7397 27.3591 26.523 27.4898 26.2868 27.5726C26.0505 27.6554 25.7997 27.6885 25.55 27.67ZM17.64 21.1C17.64 20.619 17.8304 20.1576 18.1695 19.8166C18.5087 19.4756 18.969 19.2826 19.45 19.28H24C24.4827 19.28 24.9456 19.4717 25.2869 19.8131C25.6283 20.1544 25.82 20.6173 25.82 21.1C25.82 21.5827 25.6283 22.0456 25.2869 22.3869C24.9456 22.7283 24.4827 22.92 24 22.92H19.45C19.2115 22.92 18.9753 22.8729 18.755 22.7813C18.5348 22.6897 18.3348 22.5555 18.1666 22.3863C17.9984 22.2172 17.8653 22.0165 17.7749 21.7957C17.6845 21.575 17.6387 21.3385 17.64 21.1ZM28.55 18.17H19.45C18.9673 18.17 18.5044 17.9783 18.1631 17.6369C17.8217 17.2956 17.63 16.8327 17.63 16.35C17.63 15.8673 17.8217 15.4044 18.1631 15.0631C18.5044 14.7217 18.9673 14.53 19.45 14.53H28.55C29.0327 14.53 29.4956 14.7217 29.8369 15.0631C30.1783 15.4044 30.37 15.8673 30.37 16.35C30.37 16.8327 30.1783 17.2956 29.8369 17.6369C29.4956 17.9783 29.0327 18.17 28.55 18.17Z" fill="black"/>
</svg>
