<svg width="48" height="48" viewBox="0 0 48 48" fill="none" xmlns="http://www.w3.org/2000/svg">
<path d="M44 22C44 16.41 37.38 12 28.93 12H28.21C32.9 14.11 36 17.77 36 22C36 26.23 32.94 29.94 28.25 32C28.49 32 28.72 32 28.97 32C29.52 32 30.07 32 30.61 31.94C32.01 34.18 34.72 35.52 38.27 35.67H38.35C38.8094 35.6737 39.2569 35.5237 39.6213 35.2438C39.9857 34.9639 40.246 34.5703 40.361 34.1254C40.4759 33.6806 40.4389 33.2101 40.2557 32.7887C40.0725 32.3674 39.7537 32.0194 39.35 31.8C38.6273 31.425 37.9825 30.916 37.45 30.3C41.51 28.56 44 25.48 44 22Z" fill="black"/>
<path d="M34.14 22C34.14 16.37 27.52 12 19.07 12C10.62 12 4 16.41 4 22C4 25.44 6.49 28.52 10.62 30.35C10.0937 30.9657 9.45156 31.472 8.73 31.84C8.32092 32.0567 7.99677 32.4049 7.80983 32.8285C7.62289 33.252 7.58405 33.7261 7.6996 34.1744C7.81514 34.6227 8.07831 35.019 8.44668 35.2994C8.81504 35.5798 9.26712 35.728 9.73 35.72H9.82C13.32 35.61 16 34.27 17.43 32C17.97 32 18.52 32.06 19.07 32.06C27.52 32.09 34.14 27.67 34.14 22Z" fill="black"/>
</svg>
