<svg width="48" height="48" viewBox="0 0 48 48" fill="none" xmlns="http://www.w3.org/2000/svg">
<path d="M24.0001 27C23.6288 27 23.2727 26.8525 23.0101 26.59C22.7476 26.3274 22.6001 25.9713 22.6001 25.6V22.34H19.35C18.9786 22.34 18.6226 22.1925 18.36 21.93C18.0975 21.6674 17.95 21.3113 17.95 20.94C17.95 20.5687 18.0975 20.2126 18.36 19.9501C18.6226 19.6875 18.9786 19.54 19.35 19.54H22.6001V16.29C22.6001 15.9187 22.7476 15.5626 23.0101 15.3001C23.2727 15.0375 23.6288 14.89 24.0001 14.89C24.3714 14.89 24.7275 15.0375 24.99 15.3001C25.2526 15.5626 25.4001 15.9187 25.4001 16.29V19.54H28.65C29.0213 19.54 29.3773 19.6875 29.6399 19.9501C29.9025 20.2126 30.0499 20.5687 30.0499 20.94C30.0499 21.3113 29.9025 21.6674 29.6399 21.93C29.3773 22.1925 29.0213 22.34 28.65 22.34H25.4001V25.59C25.4014 25.7747 25.3662 25.9578 25.2964 26.1288C25.2266 26.2999 25.1237 26.4554 24.9936 26.5864C24.8635 26.7175 24.7087 26.8215 24.5382 26.8925C24.3677 26.9635 24.1848 27 24.0001 27Z" fill="black"/>
<path fill-rule="evenodd" clip-rule="evenodd" d="M10.83 39C10.4547 38.9896 10.093 38.8574 9.79942 38.6233C9.50587 38.3892 9.29643 38.066 9.20272 37.7025C9.10901 37.3389 9.13611 36.9547 9.27993 36.6079C9.42376 36.2611 9.6765 35.9705 10 35.78C11.6186 34.9662 12.9613 33.6931 13.86 32.12C7.74 29.82 4 25.63 4 20.94C4 13.68 12.79 8 24 8C35.21 8 44 13.68 44 20.94C44 28.2 35.21 33.88 24 33.88C23 33.88 22 33.83 21.05 33.74C19.42 36.92 15.79 38.83 10.9 39H10.83ZM24 10.79C14.67 10.79 6.79 15.44 6.79 20.94C6.79 24.65 10.44 28.18 16.1 29.94L17.38 30.33L17 31.63C16.6104 33.0691 15.8798 34.3931 14.87 35.49C15.7748 35.2162 16.6054 34.7398 17.2985 34.097C17.9916 33.4541 18.529 32.6617 18.87 31.78L19.25 30.71L20.37 30.86C21.5774 31.0122 22.7931 31.0891 24.01 31.09C33.34 31.09 41.22 26.44 41.22 20.94C41.22 15.44 33.33 10.79 24 10.79Z" fill="black"/>
</svg>
