<svg width="48" height="48" viewBox="0 0 48 48" fill="none" xmlns="http://www.w3.org/2000/svg">
<path d="M19.35 22.34H28.65C29.0213 22.34 29.3773 22.1925 29.6399 21.93C29.9025 21.6674 30.0499 21.3113 30.0499 20.94C30.0499 20.5687 29.9025 20.2126 29.6399 19.9501C29.3773 19.6875 29.0213 19.54 28.65 19.54H19.35C18.9786 19.54 18.6226 19.6875 18.36 19.9501C18.0975 20.2126 17.95 20.5687 17.95 20.94C17.95 21.3113 18.0975 21.6674 18.36 21.93C18.6226 22.1925 18.9786 22.34 19.35 22.34Z" fill="black"/>
<path fill-rule="evenodd" clip-rule="evenodd" d="M9.79942 38.6233C10.093 38.8574 10.4547 38.9896 10.83 39H10.9C15.79 38.83 19.42 36.92 21.05 33.74C22 33.83 23 33.88 24 33.88C35.21 33.88 44 28.2 44 20.94C44 13.68 35.21 8 24 8C12.79 8 4 13.68 4 20.94C4 25.63 7.74 29.82 13.86 32.12C12.9613 33.6931 11.6186 34.9662 10 35.78C9.6765 35.9705 9.42376 36.2611 9.27993 36.6079C9.13611 36.9547 9.10901 37.3389 9.20272 37.7025C9.29643 38.066 9.50587 38.3892 9.79942 38.6233ZM6.79 20.94C6.79 15.44 14.67 10.79 24 10.79C33.33 10.79 41.22 15.44 41.22 20.94C41.22 26.44 33.34 31.09 24.01 31.09C22.7931 31.0891 21.5774 31.0122 20.37 30.86L19.25 30.71L18.87 31.78C18.529 32.6617 17.9916 33.4541 17.2985 34.097C16.6054 34.7398 15.7748 35.2162 14.87 35.49C15.8798 34.3931 16.6104 33.0691 17 31.63L17.38 30.33L16.1 29.94C10.44 28.18 6.79 24.65 6.79 20.94Z" fill="black"/>
</svg>
