<svg width="48" height="48" viewBox="0 0 48 48" fill="none" xmlns="http://www.w3.org/2000/svg">
<path d="M24 8C12.78 8 4 13.75 4 21.1C4 25.75 7.57 29.91 13.44 32.26C12.5995 33.5047 11.4573 34.5162 10.12 35.2C9.71351 35.4309 9.3938 35.7886 9.20977 36.2183C9.02573 36.6481 8.98748 37.1262 9.10086 37.5798C9.21425 38.0333 9.47303 38.4373 9.83765 38.7298C10.2023 39.0224 10.6527 39.1876 11.12 39.2H11.22C16.03 39 19.64 37.14 21.38 34.05C22.24 34.12 23.12 34.16 24 34.16C35.22 34.16 44 28.41 44 21.06C44 13.71 35.22 8 24 8ZM19.45 22.92C19.09 22.92 18.7382 22.8133 18.4389 22.6133C18.1396 22.4133 17.9063 22.129 17.7685 21.7965C17.6308 21.4639 17.5947 21.098 17.665 20.7449C17.7352 20.3919 17.9085 20.0676 18.1631 19.8131C18.4176 19.5585 18.7419 19.3852 19.0949 19.315C19.448 19.2447 19.8139 19.2808 20.1465 19.4185C20.479 19.5563 20.7633 19.7896 20.9633 20.0889C21.1633 20.3882 21.27 20.74 21.27 21.1C21.27 21.5827 21.0783 22.0456 20.7369 22.3869C20.3956 22.7283 19.9327 22.92 19.45 22.92ZM24 22.92C23.64 22.92 23.2882 22.8133 22.9889 22.6133C22.6896 22.4133 22.4563 22.129 22.3185 21.7965C22.1808 21.4639 22.1447 21.098 22.215 20.7449C22.2852 20.3919 22.4585 20.0676 22.7131 19.8131C22.9676 19.5585 23.2919 19.3852 23.6449 19.315C23.998 19.2447 24.3639 19.2808 24.6965 19.4185C25.029 19.5563 25.3133 19.7896 25.5133 20.0889C25.7133 20.3882 25.82 20.74 25.82 21.1C25.8174 21.5819 25.6248 22.0433 25.284 22.384C24.9433 22.7248 24.4819 22.9174 24 22.92ZM28.55 22.92C28.1896 22.922 27.8368 22.8169 27.5362 22.6181C27.2355 22.4194 27.0007 22.1358 26.8614 21.8034C26.7221 21.4711 26.6847 21.1048 26.7538 20.7511C26.8229 20.3974 26.9954 20.0722 27.2495 19.8166C27.5037 19.5611 27.8279 19.3868 28.1812 19.3157C28.5346 19.2447 28.901 19.2802 29.2342 19.4176C29.5673 19.5551 29.8521 19.7883 30.0526 20.0878C30.253 20.3873 30.36 20.7396 30.36 21.1C30.36 21.581 30.1696 22.0424 29.8305 22.3834C29.4913 22.7244 29.031 22.9174 28.55 22.92Z" fill="black"/>
</svg>
