<svg width="48" height="48" viewBox="0 0 48 48" fill="none" xmlns="http://www.w3.org/2000/svg">
<path d="M26.3 24C25.9478 24.3517 25.5154 24.6125 25.04 24.76L23.42 25.25C23.1383 25.3371 22.8449 25.381 22.55 25.38C22.0916 25.3699 21.6416 25.255 21.2346 25.0439C20.8275 24.8329 20.4743 24.5313 20.202 24.1624C19.9297 23.7936 19.7455 23.3672 19.6637 22.916C19.5819 22.4649 19.6046 22.001 19.73 21.56L20.23 19.95C20.3666 19.4414 20.6318 18.9765 21 18.6L21.5 18.09H19.74C19.2748 18.1055 18.8337 18.3006 18.5093 18.6343C18.1849 18.9681 18.0023 19.4145 18 19.88V25.2C17.9997 25.6671 18.1811 26.1161 18.5058 26.452C18.8305 26.7879 19.2731 26.9844 19.74 27H25.06C25.5347 27 25.99 26.8114 26.3257 26.4757C26.6614 26.14 26.85 25.6847 26.85 25.21V23.4L26.3 24Z" fill="black"/>
<path d="M28.45 15.3499L29.59 16.4899C29.7358 16.6334 29.8518 16.8042 29.9312 16.9926C30.0107 17.1811 30.0521 17.3834 30.053 17.5879C30.0539 17.7924 30.0144 17.995 29.9367 18.1842C29.8589 18.3733 29.7445 18.5452 29.6 18.6899L25.33 22.9699C25.1357 23.1519 24.9035 23.2885 24.65 23.3699L23.02 23.8699C22.8737 23.9127 22.7224 23.9362 22.57 23.9399C22.3652 23.9408 22.1623 23.9005 21.9734 23.8215C21.7844 23.7425 21.6133 23.6263 21.47 23.4799C21.2695 23.2798 21.1272 23.0289 21.0585 22.7541C20.9898 22.4792 20.9973 22.1909 21.08 21.9199L21.57 20.2999C21.6543 20.0351 21.8019 19.7949 22 19.5999L26.24 15.3499C26.385 15.2045 26.5572 15.0891 26.7468 15.0104C26.9364 14.9316 27.1397 14.8911 27.345 14.8911C27.5503 14.8911 27.7536 14.9316 27.9433 15.0104C28.1329 15.0891 28.3051 15.2045 28.45 15.3499Z" fill="black"/>
<path fill-rule="evenodd" clip-rule="evenodd" d="M10.83 39C10.4547 38.9896 10.093 38.8574 9.79942 38.6233C9.50587 38.3892 9.29643 38.066 9.20272 37.7025C9.10901 37.3389 9.13611 36.9547 9.27993 36.6079C9.42376 36.2611 9.6765 35.9705 10 35.78C11.6186 34.9662 12.9613 33.6931 13.86 32.12C7.74 29.82 4 25.63 4 20.94C4 13.68 12.79 8 24 8C35.21 8 44 13.68 44 20.94C44 28.2 35.21 33.88 24 33.88C23 33.88 22 33.83 21.05 33.74C19.42 36.92 15.79 38.83 10.9 39H10.83ZM24 10.79C14.67 10.79 6.79 15.44 6.79 20.94C6.79 24.65 10.44 28.18 16.1 29.94L17.38 30.33L17 31.63C16.6104 33.0691 15.8798 34.3931 14.87 35.49C15.7748 35.2162 16.6054 34.7398 17.2985 34.097C17.9916 33.4541 18.529 32.6617 18.87 31.78L19.25 30.71L20.37 30.86C21.5774 31.0122 22.7931 31.0891 24.01 31.09C33.34 31.09 41.22 26.44 41.22 20.94C41.22 15.44 33.33 10.79 24 10.79Z" fill="black"/>
</svg>
