<svg width="48" height="48" viewBox="0 0 48 48" fill="none" xmlns="http://www.w3.org/2000/svg">
<path d="M24.4923 4C20.3324 4.00529 16.3444 5.66014 13.4029 8.60162C10.4614 11.5431 8.80656 15.5311 8.80127 19.691C8.81079 21.6168 9.18001 23.5239 9.88995 25.3142L12.0074 23.7161C11.1866 21.1691 11.1621 18.4323 11.9373 15.871C12.7125 13.3097 14.2505 11.0457 16.3459 9.38129C18.4413 7.71687 20.9946 6.73114 23.6649 6.55567C26.3351 6.38019 28.9954 7.02333 31.2906 8.39923C33.5859 9.77513 35.4069 11.8183 36.5105 14.2562C37.6143 16.694 37.9482 19.4105 37.4677 22.043C36.9873 24.6756 35.7153 27.099 33.8217 28.9898C31.928 30.8806 29.5027 32.1489 26.8694 32.6253L26.5498 35.2421C30.4918 34.7124 34.0855 32.7054 36.6041 29.627C39.1227 26.5486 40.3783 22.6287 40.117 18.6598C39.8556 14.691 38.0967 10.9695 35.1961 8.24806C32.2956 5.52658 28.4697 4.0082 24.4923 4Z" fill="black"/>
<path d="M27.7483 25.6837L27.4087 28.4803C29.0281 27.9449 30.4681 26.9726 31.5698 25.6707C32.6716 24.3688 33.3924 22.7878 33.6526 21.1023C33.9128 19.4167 33.7024 17.6919 33.0446 16.1184C32.3867 14.5448 31.307 13.1835 29.9245 12.1847C28.542 11.1858 26.9105 10.5883 25.21 10.4579C23.5094 10.3275 21.8059 10.6694 20.2873 11.4458C18.7687 12.2223 17.4941 13.4031 16.6041 14.858C15.7141 16.3129 15.2432 17.9854 15.2435 19.691C15.2478 20.1826 15.2879 20.6733 15.3633 21.1592L17.6905 19.4013C17.7425 18.2119 18.1053 17.0569 18.7427 16.0514C19.3802 15.0459 20.2701 14.225 21.3237 13.6706C22.3773 13.1162 23.5578 12.8476 24.7475 12.8916C25.9372 12.9356 27.0947 13.2906 28.1044 13.9214C29.1142 14.5521 29.941 15.4364 30.5025 16.4863C31.0639 17.5361 31.3404 18.7148 31.3044 19.9048C31.2684 21.0948 30.9211 22.2546 30.2971 23.2686C29.6732 24.2825 28.7944 25.1152 27.7483 25.6837Z" fill="black"/>
<path d="M25.1914 18.0829C24.7662 17.8369 24.2778 17.7218 23.7875 17.752C23.2971 17.7822 22.8266 17.9564 22.4348 18.2527L8.89116 28.4903C8.50092 28.7712 8.1997 29.1585 8.02341 29.6058C7.84712 30.0532 7.80321 30.5418 7.8969 31.0134C7.99059 31.4851 8.21794 31.9198 8.55184 32.2658C8.88574 32.6118 9.3121 32.8545 9.78009 32.9649L12.7765 33.724L9.38057 39.6168C8.99307 40.2885 8.88797 41.0865 9.08835 41.8355C9.28872 42.5846 9.7782 43.2235 10.4493 43.612C11.1215 43.9968 11.9186 44.1004 12.6669 43.9003C13.4152 43.7001 14.0541 43.2124 14.4444 42.5433L17.8403 36.6504L20.0177 38.8977C20.2495 39.1377 20.5273 39.3286 20.8344 39.459C21.1416 39.5894 21.4718 39.6567 21.8055 39.6568C22.0772 39.6584 22.3473 39.6145 22.6045 39.5269C23.0533 39.3784 23.4504 39.105 23.7494 38.7388C24.0483 38.3726 24.2367 37.9289 24.2925 37.4595L26.39 20.6099C26.4652 20.1172 26.3913 19.6132 26.1777 19.1629C25.9641 18.7125 25.6206 18.3364 25.1914 18.0829Z" fill="black"/>
</svg>
