<svg width="48" height="48" viewBox="0 0 48 48" fill="none" xmlns="http://www.w3.org/2000/svg">
<path d="M41.9763 15.2336C41.5655 15.6906 41.0652 16.0583 40.5063 16.3136C40.1432 17.1326 39.5489 17.8277 38.7963 18.3136C40.1332 21.7184 40.2569 25.4797 39.1465 28.9649C38.0361 32.4502 35.7594 35.4467 32.6993 37.4506C29.6392 39.4545 25.9824 40.3436 22.3439 39.9682C18.7053 39.5928 15.3071 37.9758 12.7206 35.3894C10.1341 32.8029 8.51717 29.4046 8.14177 25.7661C7.76637 22.1275 8.65538 18.4707 10.6593 15.4106C12.6632 12.3505 15.6597 10.0738 19.145 8.96346C22.6302 7.85308 26.3915 7.97673 29.7963 9.31363C30.2822 8.56105 30.9773 7.96673 31.7963 7.60363C32.0059 7.01509 32.3363 6.4769 32.7663 6.02363C28.5131 3.94953 23.6623 3.45063 19.076 4.61562C14.4897 5.7806 10.465 8.534 7.71726 12.3864C4.96951 16.2389 3.67671 20.9408 4.06862 25.6565C4.46053 30.3722 6.51178 34.7962 9.85777 38.1422C13.2038 41.4882 17.6278 43.5394 22.3435 43.9313C27.0592 44.3232 31.7611 43.0304 35.6135 40.2827C39.4659 37.5349 42.2193 33.5102 43.3843 28.9239C44.5493 24.3376 44.0504 19.4868 41.9763 15.2336Z" fill="black"/>
<path d="M19.4263 21.9536C19.1328 22.6044 18.9795 23.3097 18.9763 24.0236C18.9763 25.3497 19.5031 26.6215 20.4408 27.5592C21.3784 28.4968 22.6502 29.0236 23.9763 29.0236C24.6902 29.0205 25.3955 28.8671 26.0463 28.5736H23.9763C22.7696 28.5736 21.6122 28.0943 20.759 27.241C19.9057 26.3877 19.4263 25.2304 19.4263 24.0236V21.9536Z" fill="black"/>
<path d="M25.9763 15.6236L28.8263 12.7836C27.305 12.1238 25.6645 11.7835 24.0063 11.7836C21.5866 11.7777 19.2195 12.4897 17.2046 13.8295C15.1896 15.1693 13.6174 17.0767 12.6868 19.3103C11.7563 21.5439 11.5092 24.0034 11.9769 26.3775C12.4446 28.7516 13.606 30.9336 15.3142 32.6473C17.0224 34.3611 19.2006 35.5297 21.5732 36.0052C23.9457 36.4806 26.406 36.2416 28.6426 35.3184C30.8793 34.3951 32.7918 32.8292 34.1382 30.8186C35.4846 28.8081 36.2043 26.4433 36.2063 24.0236C36.2065 22.3654 35.8661 20.7249 35.2063 19.2036L32.3763 22.0236C32.5353 22.6784 32.6158 23.3498 32.6163 24.0236C32.6163 25.7325 32.1096 27.4029 31.1602 28.8238C30.2108 30.2446 28.8614 31.352 27.2827 32.006C25.7039 32.6599 23.9667 32.831 22.2907 32.4976C20.6147 32.1642 19.0752 31.3414 17.8669 30.133C16.6586 28.9247 15.8357 27.3852 15.5023 25.7092C15.1689 24.0332 15.34 22.296 15.994 20.7172C16.6479 19.1385 17.7553 17.7891 19.1762 16.8397C20.597 15.8904 22.2675 15.3836 23.9763 15.3836C24.6501 15.3841 25.3215 15.4646 25.9763 15.6236Z" fill="black"/>
<path d="M30.8263 11.6736V13.3236L25.2763 18.8636L24.9763 18.7236L24.7163 18.6436L24.4663 18.5736C24.1164 18.5036 23.7562 18.5036 23.4063 18.5736L23.1563 18.6436L22.9763 18.7236C22.8799 18.7676 22.7863 18.8177 22.6963 18.8736L22.5063 18.9736C22.2054 19.1745 21.9472 19.4328 21.7463 19.7336C21.7463 19.7936 21.6763 19.8636 21.6363 19.9336C21.5837 20.0204 21.5369 20.1106 21.4963 20.2036C21.4605 20.2907 21.4337 20.3811 21.4163 20.4736C21.3838 20.5507 21.3603 20.6312 21.3463 20.7136C21.3061 20.8874 21.2859 21.0653 21.2863 21.2436V24.0236C21.2862 24.7408 21.5683 25.4292 22.0717 25.94C22.5751 26.4509 23.2592 26.7431 23.9763 26.7536H26.7563C26.9347 26.754 27.1125 26.7339 27.2863 26.6936C27.3689 26.6804 27.4495 26.6569 27.5263 26.6236L27.7963 26.5436C27.8927 26.4996 27.9862 26.4495 28.0763 26.3936L28.2663 26.2936C28.5672 26.0928 28.8254 25.8345 29.0263 25.5336C29.0635 25.4724 29.0969 25.409 29.1263 25.3436C29.1838 25.2407 29.2339 25.1337 29.2763 25.0236C29.2763 24.9336 29.3263 24.8436 29.3563 24.7536C29.3863 24.6636 29.4063 24.6036 29.4263 24.5136C29.4963 24.1638 29.4963 23.8035 29.4263 23.4536C29.409 23.372 29.3856 23.2918 29.3563 23.2136C29.3563 23.1236 29.3063 23.0336 29.2763 22.9436C29.2356 22.8539 29.1889 22.767 29.1363 22.6836L34.6763 17.1336H36.3263C36.9641 17.126 37.5789 16.8945 38.0633 16.4796C38.5476 16.0646 38.8708 15.4927 38.9763 14.8636C39.5465 14.775 40.0738 14.5073 40.4819 14.0992C40.89 13.6912 41.1577 13.1639 41.2463 12.5936C41.801 12.5203 42.3197 12.2776 42.7315 11.8987C43.1432 11.5199 43.4282 11.0232 43.5474 10.4765C43.6665 9.92972 43.6142 9.35953 43.3975 8.84363C43.1807 8.32773 42.8102 7.89122 42.3363 7.59363C42.2184 7.10892 41.9694 6.66597 41.6167 6.31323C41.264 5.96049 40.821 5.71155 40.3363 5.59363C40.0387 5.11975 39.6022 4.74918 39.0863 4.53245C38.5704 4.31573 38.0002 4.26339 37.4535 4.38258C36.9067 4.50177 36.4101 4.78668 36.0312 5.19847C35.6523 5.61026 35.4096 6.12889 35.3363 6.68363C34.7687 6.78966 34.2496 7.07357 33.854 7.49425C33.4585 7.91494 33.2071 8.45058 33.1363 9.02363C32.5 9.12059 31.9186 9.44009 31.4957 9.9253C31.0727 10.4105 30.8355 11.03 30.8263 11.6736Z" fill="black"/>
</svg>
