<svg width="48" height="48" viewBox="0 0 48 48" fill="none" xmlns="http://www.w3.org/2000/svg">
<path d="M17.2606 7.75517C19.3761 6.60536 21.7466 6.00532 24.1544 6.01013C27.9737 5.86695 31.6936 7.24688 34.4955 9.84634C37.2974 12.4458 38.952 16.0519 39.0952 19.8712C39.2383 23.6906 37.8584 27.4104 35.259 30.2124C32.6595 33.0143 29.0534 34.6688 25.2341 34.812L25.574 32.0028C27.7966 31.7296 29.8932 30.8209 31.6123 29.3857C33.3313 27.9505 34.5996 26.0497 35.2652 23.9115C35.9308 21.7733 35.9652 19.4885 35.3645 17.3312C34.7637 15.1739 33.5532 13.2358 31.8783 11.7494C30.2034 10.263 28.1351 9.2914 25.9217 8.95128C23.7083 8.61116 21.4438 8.91693 19.3998 9.83189C17.3559 10.7469 15.6194 12.2321 14.3986 14.1095C13.1779 15.9869 12.5248 18.1767 12.5176 20.4161C12.5201 21.8533 12.7914 23.2774 13.3174 24.6149L11.0381 26.3344C10.0418 24.1424 9.61203 21.7352 9.78826 19.3339C9.96448 16.9326 10.741 14.6139 12.0466 12.5908C13.3522 10.5677 15.1451 8.90499 17.2606 7.75517Z" fill="black"/>
<path d="M19.369 11.1607C20.849 10.3994 22.49 10.0044 24.1543 10.009C26.752 10.0524 29.24 11.064 31.131 12.8457C33.0219 14.6274 34.1795 17.0509 34.3772 19.6415C34.5748 22.232 33.7982 24.8031 32.1994 26.851C30.6007 28.899 28.295 30.2763 25.7339 30.7132L26.0938 27.814C27.4812 27.4513 28.739 26.7068 29.7245 25.6651C30.71 24.6233 31.3837 23.3261 31.6689 21.9207C31.9541 20.5153 31.8396 19.0581 31.3382 17.7146C30.8368 16.3711 29.9687 15.1951 28.8325 14.3202C27.6963 13.4452 26.3375 12.9065 24.9105 12.7651C23.4834 12.6236 22.0453 12.8852 20.7595 13.5201C19.4737 14.155 18.3916 15.1378 17.6363 16.3567C16.881 17.5757 16.4826 18.9821 16.4865 20.4161C16.4881 20.9713 16.5518 21.5246 16.6764 22.0657L14.3171 23.8551C13.765 22.2851 13.5978 20.6055 13.8297 18.9574C14.0616 17.3094 14.6858 15.7411 15.6497 14.3843C16.6136 13.0276 17.8891 11.9221 19.369 11.1607Z" fill="black"/>
<path d="M24.1543 14.1479C22.4919 14.1479 20.8975 14.8083 19.722 15.9838C18.5465 17.1593 17.8861 18.7536 17.8861 20.4161V21.1259L21.0752 18.7166C21.451 18.0409 22.0406 17.5092 22.7513 17.2049C23.4621 16.9007 24.2538 16.8411 25.0021 17.0356C25.7504 17.2301 26.4129 17.6677 26.8855 18.2796C27.3581 18.8914 27.6142 19.6429 27.6133 20.4161C27.6116 21.2934 27.2755 22.1371 26.6736 22.7754L26.2837 26.3044C27.6661 25.7999 28.8269 24.8252 29.5628 23.5509C30.2988 22.2766 30.5629 20.784 30.309 19.3346C30.0551 17.8851 29.2994 16.5711 28.1741 15.6229C27.0489 14.6746 25.6258 14.1524 24.1543 14.1479Z" fill="black"/>
<path fill-rule="evenodd" clip-rule="evenodd" d="M23.5149 19.0362C23.8881 19.0131 24.2599 19.1001 24.5841 19.2864C24.9167 19.4665 25.1882 19.7412 25.3644 20.0758C25.5406 20.4104 25.6135 20.7898 25.5738 21.1659L23.5744 37.1614C23.5295 37.5192 23.3848 37.8572 23.1567 38.1366C22.9286 38.4159 22.6264 38.6254 22.2848 38.7409C21.9407 38.8625 21.5689 38.8819 21.2141 38.7968C20.8592 38.7116 20.5367 38.5256 20.2853 38.2611L17.1262 35.002L13.4672 41.3102C13.345 41.52 13.1699 41.694 12.9594 41.8151C12.7489 41.9361 12.5104 41.9998 12.2676 42C12.0248 41.9994 11.7866 41.9338 11.5778 41.8101C11.2608 41.626 11.0293 41.3242 10.9338 40.9703C10.8383 40.6164 10.8865 40.2391 11.0679 39.9206L14.7269 33.5924L10.3281 32.4827C9.98077 32.3933 9.66561 32.2078 9.41877 31.9476C9.17193 31.6873 9.00339 31.3628 8.93244 31.0112C8.86149 30.6596 8.89102 30.2951 9.01763 29.9595C9.14424 29.6239 9.36281 29.3308 9.64832 29.1136L22.4847 19.4164C22.7835 19.1915 23.1417 19.0593 23.5149 19.0362ZM17.5561 31.453L21.0151 35.002L22.5247 22.8554L12.7474 30.2433L17.5561 31.453Z" fill="black"/>
</svg>
