<svg width="48" height="48" viewBox="0 0 48 48" fill="none" xmlns="http://www.w3.org/2000/svg">
<path d="M39.0069 19.5701C39.191 19.2638 39.316 18.9258 39.3756 18.5735C40.0461 18.4777 40.6589 18.1412 41.0996 17.6269C43.6356 21.8073 44.5523 26.7719 43.6765 31.5823C42.8007 36.3927 40.1931 40.7157 36.3465 43.7341C32.4999 46.7525 27.6808 48.2573 22.8001 47.964C17.9194 47.6706 13.3153 45.5995 9.85788 42.1421C6.40048 38.6847 4.32938 34.0806 4.03605 29.1999C3.74271 24.3192 5.24746 19.5001 8.26587 15.6535C11.2843 11.8069 15.6072 9.19928 20.4177 8.32349C25.2281 7.4477 30.1927 8.36444 34.3731 10.9004C33.8499 11.3285 33.4966 11.9292 33.3766 12.5945C33.0243 12.6541 32.6863 12.7791 32.3801 12.9632C28.7548 10.9437 24.5212 10.304 20.461 11.1619C16.4008 12.0199 12.788 14.3178 10.2896 17.6313C7.79122 20.9448 6.57583 25.0503 6.86783 29.1899C7.15983 33.3295 8.9395 37.2237 11.8783 40.1537C14.8171 43.0836 18.7167 44.8516 22.8571 45.1311C26.9976 45.4106 31.0994 44.1829 34.4054 41.6745C37.7113 39.1661 39.9983 35.5465 40.844 31.4837C41.6898 27.4209 41.0373 23.1893 39.0069 19.5701Z" fill="black"/>
<path d="M33.9247 22.0115L35.001 20.9352H36.4758C38.1665 23.9452 38.7104 27.4655 38.0069 30.8454C37.3034 34.2253 35.4 37.2362 32.6488 39.3216C29.8975 41.4071 26.4842 42.4259 23.04 42.19C19.5958 41.954 16.3534 40.4791 13.9122 38.038C11.4711 35.5968 9.99618 32.3544 9.76021 28.9102C9.52424 25.4659 10.5431 22.0527 12.6285 19.3014C14.714 16.5501 17.7249 14.6468 21.1048 13.9433C24.4846 13.2398 28.0049 13.7837 31.0149 15.4744V16.999L29.9487 18.0753C28.1675 16.9932 26.1234 16.421 24.0394 16.4211C21.7669 16.4211 19.5455 17.0949 17.656 18.3574C15.7665 19.6199 14.2938 21.4144 13.4242 23.5139C12.5546 25.6134 12.327 27.9236 12.7704 30.1524C13.2137 32.3812 14.308 34.4284 15.9149 36.0353C17.5217 37.6422 19.569 38.7365 21.7978 39.1798C24.0266 39.6231 26.3368 39.3956 28.4363 38.526C30.5358 37.6563 32.3302 36.1837 33.5928 34.2942C34.8553 32.4047 35.5291 30.1833 35.5291 27.9108C35.5424 25.8348 34.9876 23.7948 33.9247 22.0115Z" fill="black"/>
<path d="M29.4107 26.4759C29.4725 26.7152 29.5191 26.9582 29.5502 27.2034C29.5532 27.2565 29.5532 27.3097 29.5502 27.3628C29.5816 27.5439 29.5982 27.7272 29.6 27.9109C29.5987 28.0947 29.582 28.278 29.5502 28.459C29.5532 28.5121 29.5532 28.5653 29.5502 28.6184C29.419 29.6505 29.001 30.6251 28.3435 31.4314C27.6861 32.2377 26.8157 32.8434 25.8311 33.1796C24.8466 33.5158 23.7875 33.5691 22.7742 33.3334C21.7609 33.0977 20.834 32.5825 20.099 31.8462C19.3639 31.11 18.8501 30.1823 18.6161 29.1686C18.382 28.1549 18.437 27.0959 18.7748 26.1119C19.1126 25.128 19.7197 24.2585 20.527 23.6023C21.3344 22.9462 22.3096 22.5297 23.3419 22.4002L23.4914 22.3504C23.6691 22.319 23.8491 22.3023 24.0295 22.3006H24.0395C24.21 22.3023 24.3801 22.319 24.5477 22.3504L24.6972 22.4002C24.9457 22.4312 25.1919 22.4778 25.4346 22.5397L27.587 20.3873C25.8074 19.5363 23.7843 19.342 21.8752 19.8387C19.9662 20.3354 18.2943 21.4911 17.155 23.1015C16.0158 24.7118 15.4826 26.6731 15.6498 28.6386C15.817 30.6041 16.6737 32.4472 18.0685 33.842C19.4633 35.2368 21.3064 36.0936 23.2719 36.2607C25.2374 36.4279 27.1987 35.8947 28.8091 34.7555C30.4194 33.6162 31.5751 31.9443 32.0718 30.0353C32.5685 28.1263 32.3742 26.1031 31.5233 24.3235L29.4107 26.4759Z" fill="black"/>
<path d="M41.4325 11.4525C41.4938 11.676 41.4958 11.9116 41.4384 12.1361V12.186C41.8058 12.2084 42.1492 12.3759 42.3931 12.6515C42.637 12.9272 42.7614 13.2884 42.7389 13.6558C42.7164 14.0232 42.549 14.3666 42.2733 14.6104C41.9976 14.8543 41.6364 14.9787 41.269 14.9563H39.9835C40.146 15.1542 40.2505 15.3933 40.2853 15.6471C40.3201 15.9008 40.2838 16.1592 40.1806 16.3936C40.0773 16.628 39.9111 16.8291 39.7004 16.9747C39.4897 17.1203 39.2428 17.2046 38.987 17.2183H37.6218C37.8581 17.4691 37.9899 17.8005 37.9905 18.1451C37.9986 18.5134 37.8606 18.87 37.6067 19.137C37.3528 19.404 37.0036 19.5597 36.6353 19.5701H34.3832L27.4076 26.5457L27.5072 26.6553L27.8361 26.9742C27.9648 27.1059 28.0664 27.2616 28.135 27.4326C28.1986 27.5946 28.2323 27.7668 28.2347 27.9408C28.2323 28.1148 28.1986 28.287 28.135 28.449C28.0659 28.6195 27.9632 28.7743 27.8331 28.9044C27.703 29.0345 27.5482 29.1372 27.3777 29.2063C27.2157 29.2699 27.0435 29.3037 26.8695 29.306H24.0394C23.6834 29.2856 23.3487 29.1297 23.104 28.8702C22.8594 28.6108 22.7234 28.2675 22.724 27.9109V25.0609C22.7263 24.8868 22.7601 24.7147 22.8236 24.5526C22.8928 24.3822 22.9955 24.2273 23.1255 24.0972C23.2556 23.9671 23.4105 23.8645 23.581 23.7953C23.9009 23.6677 24.2576 23.6677 24.5775 23.7953C24.7484 23.8639 24.9042 23.9655 25.0359 24.0943L25.3249 24.4331L25.4345 24.5526L32.4101 17.5771V15.3549C32.4101 14.9848 32.557 14.63 32.8187 14.3684C33.0803 14.1067 33.4352 13.9597 33.8052 13.9597C34.1405 13.9411 34.4707 14.0477 34.7319 14.2587V12.9632C34.7382 12.6983 34.8203 12.4406 34.9686 12.221C35.1168 12.0013 35.325 11.8287 35.5684 11.7238C35.8118 11.6189 36.0802 11.586 36.3417 11.6291C36.6032 11.6721 36.8469 11.7893 37.0438 11.9667V10.6812C37.0214 10.3139 37.1458 9.95262 37.3896 9.67696C37.6335 9.40131 37.9769 9.23383 38.3443 9.21137C38.7116 9.1889 39.0729 9.3133 39.3485 9.55718C39.6242 9.80106 39.7917 10.1445 39.8141 10.5118C40.0387 10.4544 40.2743 10.4565 40.4978 10.5178C40.7213 10.5791 40.925 10.6975 41.0889 10.8614C41.2528 11.0252 41.3712 11.229 41.4325 11.4525Z" fill="black"/>
</svg>
