<svg width="48" height="48" viewBox="0 0 48 48" fill="none" xmlns="http://www.w3.org/2000/svg">
<path fill-rule="evenodd" clip-rule="evenodd" d="M19.3498 30.9594C20.7262 31.8791 22.3445 32.37 23.9999 32.37C25.0991 32.37 26.1875 32.1535 27.2029 31.7329C28.2184 31.3123 29.1411 30.6957 29.9184 29.9185C30.6956 29.1413 31.3121 28.2186 31.7328 27.2031C32.1534 26.1876 32.3699 25.0992 32.3699 24C32.3699 22.3446 31.879 20.7263 30.9593 19.3499C30.0396 17.9734 28.7324 16.9006 27.2029 16.2671C25.6735 15.6336 23.9906 15.4679 22.367 15.7908C20.7434 16.1138 19.252 16.911 18.0814 18.0815C16.9108 19.2521 16.1137 20.7435 15.7907 22.3671C15.4678 23.9907 15.6335 25.6737 16.267 27.2031C16.9005 28.7325 17.9733 30.0397 19.3498 30.9594ZM20.8998 19.3604C21.8174 18.7473 22.8963 18.42 23.9999 18.42C25.4798 18.42 26.8991 19.0079 27.9455 20.0544C28.992 21.1008 29.5799 22.5201 29.5799 24C29.5799 25.1036 29.2526 26.1825 28.6395 27.1001C28.0263 28.0177 27.1549 28.7329 26.1353 29.1553C25.1156 29.5776 23.9937 29.6881 22.9113 29.4728C21.8289 29.2575 20.8346 28.726 20.0542 27.9457C19.2739 27.1653 18.7424 26.171 18.5271 25.0886C18.3118 24.0062 18.4223 22.8842 18.8446 21.8646C19.267 20.845 19.9822 19.9735 20.8998 19.3604Z" fill="black"/>
<path fill-rule="evenodd" clip-rule="evenodd" d="M23.9999 38.3201C21.1677 38.3201 18.3991 37.4802 16.0442 35.9067C13.6893 34.3332 11.8538 32.0967 10.77 29.4801C9.68614 26.8634 9.40255 23.9842 9.95509 21.2064C10.5076 18.4286 11.8715 15.877 13.8742 13.8743C15.8769 11.8716 18.4284 10.5078 21.2062 9.95521C23.9841 9.40267 26.8633 9.68626 29.48 10.7701C32.0966 11.854 34.3331 13.6894 35.9066 16.0443C37.4801 18.3992 38.3199 21.1678 38.3199 24.0001C38.3173 27.7971 36.8077 31.438 34.1228 34.1229C31.4378 36.8078 27.797 38.3174 23.9999 38.3201ZM23.9999 12.4701C21.7195 12.4701 19.4903 13.1463 17.5942 14.4132C15.6981 15.6801 14.2203 17.4809 13.3476 19.5877C12.4749 21.6946 12.2466 24.0128 12.6915 26.2495C13.1364 28.4861 14.2345 30.5405 15.847 32.153C17.4595 33.7655 19.5139 34.8636 21.7505 35.3085C23.9871 35.7534 26.3054 35.5251 28.4123 34.6524C30.5191 33.7797 32.3199 32.3019 33.5868 30.4058C34.8537 28.5097 35.5299 26.2805 35.5299 24.0001C35.5273 20.9429 34.3117 18.0118 32.15 15.85C29.9882 13.6883 27.0571 12.4727 23.9999 12.4701Z" fill="black"/>
<path fill-rule="evenodd" clip-rule="evenodd" d="M24 44C20.0444 44 16.1776 42.827 12.8886 40.6294C9.59962 38.4318 7.03617 35.3082 5.52242 31.6537C4.00867 27.9992 3.6126 23.9778 4.3843 20.0982C5.15601 16.2186 7.06082 12.6549 9.85787 9.85787C12.6549 7.06082 16.2186 5.15601 20.0982 4.3843C23.9778 3.6126 27.9992 4.00867 31.6537 5.52242C35.3082 7.03617 38.4318 9.59962 40.6294 12.8886C42.827 16.1776 44 20.0444 44 24C44 29.3043 41.8929 34.3914 38.1421 38.1421C34.3914 41.8929 29.3043 44 24 44ZM24 6.79001C20.5962 6.79001 17.2688 7.79936 14.4386 9.69042C11.6085 11.5815 9.40263 14.2693 8.10004 17.414C6.79746 20.5587 6.45664 24.0191 7.12069 27.3575C7.78475 30.6959 9.42384 33.7625 11.8307 36.1693C14.2376 38.5762 17.3041 40.2153 20.6425 40.8793C23.9809 41.5434 27.4413 41.2026 30.586 39.9C33.7307 38.5974 36.4185 36.3915 38.3096 33.5614C40.2007 30.7312 41.21 27.4038 41.21 24C41.2047 19.4373 39.3898 15.0629 36.1635 11.8365C32.9371 8.61019 28.5628 6.7953 24 6.79001Z" fill="black"/>
</svg>
