<svg width="48" height="48" viewBox="0 0 48 48" fill="none" xmlns="http://www.w3.org/2000/svg">
<path d="M24 29C26.7614 29 29 26.7614 29 24C29 21.2386 26.7614 19 24 19C21.2386 19 19 21.2386 19 24C19 26.7614 21.2386 29 24 29Z" fill="black"/>
<path d="M24 11.77C21.5811 11.77 19.2166 12.4873 17.2054 13.8311C15.1942 15.175 13.6266 17.085 12.701 19.3198C11.7753 21.5545 11.5331 24.0136 12.005 26.386C12.4769 28.7583 13.6417 30.9375 15.3521 32.6479C17.0625 34.3583 19.2417 35.5231 21.614 35.995C23.9864 36.4669 26.4455 36.2247 28.6802 35.299C30.915 34.3734 32.825 32.8058 34.1689 30.7946C35.5127 28.7834 36.23 26.4189 36.23 24C36.2274 20.7572 34.938 17.648 32.645 15.355C30.352 13.062 27.2428 11.7726 24 11.77ZM24 32.64C22.2912 32.64 20.6207 32.1333 19.1999 31.1839C17.779 30.2345 16.6716 28.8851 16.0177 27.3064C15.3637 25.7276 15.1926 23.9904 15.526 22.3144C15.8594 20.6384 16.6823 19.0989 17.8906 17.8906C19.0989 16.6823 20.6384 15.8594 22.3144 15.526C23.9904 15.1926 25.7276 15.3637 27.3064 16.0177C28.8851 16.6716 30.2345 17.779 31.1839 19.1999C32.1333 20.6207 32.64 22.2912 32.64 24C32.6347 26.2898 31.7227 28.4844 30.1036 30.1036C28.4844 31.7227 26.2898 32.6347 24 32.64Z" fill="black"/>
<path d="M24 4C20.0444 4 16.1776 5.17298 12.8886 7.37061C9.59961 9.56824 7.03616 12.6918 5.52241 16.3463C4.00866 20.0009 3.61259 24.0222 4.38429 27.9018C5.156 31.7814 7.06081 35.3451 9.85786 38.1421C12.6549 40.9392 16.2186 42.844 20.0982 43.6157C23.9778 44.3874 27.9991 43.9913 31.6537 42.4776C35.3082 40.9638 38.4318 38.4004 40.6294 35.1114C42.827 31.8224 44 27.9556 44 24C44 18.6957 41.8929 13.6086 38.1421 9.85786C34.3914 6.10714 29.3043 4 24 4ZM24 39.87C20.8612 39.87 17.7929 38.9392 15.1831 37.1954C12.5733 35.4516 10.5392 32.9731 9.33803 30.0732C8.13687 27.1733 7.82259 23.9824 8.43494 20.9039C9.04728 17.8254 10.5588 14.9977 12.7782 12.7782C14.9977 10.5588 17.8254 9.04729 20.9039 8.43494C23.9824 7.82259 27.1733 8.13687 30.0732 9.33803C32.9731 10.5392 35.4516 12.5733 37.1954 15.1831C38.9392 17.7929 39.87 20.8612 39.87 24C39.8647 28.2074 38.191 32.2409 35.2159 35.2159C32.2409 38.191 28.2074 39.8647 24 39.87Z" fill="black"/>
</svg>
