<svg width="48" height="48" viewBox="0 0 48 48" fill="none" xmlns="http://www.w3.org/2000/svg">
<path d="M42.4907 10.5892H5.50929C5.31731 10.6055 5.12403 10.5817 4.94171 10.5194C4.75939 10.4571 4.59199 10.3576 4.45011 10.2273C4.30823 10.0969 4.19496 9.93852 4.11749 9.76211C4.04001 9.58569 4 9.39512 4 9.20244C4 9.00977 4.04001 8.81919 4.11749 8.64278C4.19496 8.46637 4.30823 8.30797 4.45011 8.1776C4.59199 8.04724 4.75939 7.94775 4.94171 7.88545C5.12403 7.82314 5.31731 7.79937 5.50929 7.81564H42.4907C42.6827 7.79937 42.876 7.82314 43.0583 7.88545C43.2406 7.94775 43.408 8.04724 43.5499 8.1776C43.6918 8.30797 43.805 8.46637 43.8825 8.64278C43.96 8.81919 44 9.00977 44 9.20244C44 9.39512 43.96 9.58569 43.8825 9.76211C43.805 9.93852 43.6918 10.0969 43.5499 10.2273C43.408 10.3576 43.2406 10.4571 43.0583 10.5194C42.876 10.5817 42.6827 10.6055 42.4907 10.5892Z" fill="black"/>
<path d="M42.4907 25.3818H5.50929C5.31731 25.3981 5.12403 25.3743 4.94171 25.312C4.75939 25.2497 4.59199 25.1502 4.45011 25.0198C4.30823 24.8895 4.19496 24.7311 4.11749 24.5547C4.04001 24.3783 4 24.1877 4 23.995C4 23.8023 4.04001 23.6118 4.11749 23.4353C4.19496 23.2589 4.30823 23.1005 4.45011 22.9702C4.59199 22.8398 4.75939 22.7403 4.94171 22.678C5.12403 22.6157 5.31731 22.5919 5.50929 22.6082H42.4907C42.6827 22.5919 42.876 22.6157 43.0583 22.678C43.2406 22.7403 43.408 22.8398 43.5499 22.9702C43.6918 23.1005 43.805 23.2589 43.8825 23.4353C43.96 23.6118 44 23.8023 44 23.995C44 24.1877 43.96 24.3783 43.8825 24.5547C43.805 24.7311 43.6918 24.8895 43.5499 25.0198C43.408 25.1502 43.2406 25.2497 43.0583 25.312C42.876 25.3743 42.6827 25.3981 42.4907 25.3818Z" fill="black"/>
<path d="M5.50929 40.1843H42.4907C42.6827 40.2006 42.876 40.1768 43.0583 40.1145C43.2406 40.0522 43.408 39.9527 43.5499 39.8224C43.6918 39.692 43.805 39.5336 43.8825 39.3572C43.96 39.1808 44 38.9902 44 38.7975C44 38.6049 43.96 38.4143 43.8825 38.2379C43.805 38.0615 43.6918 37.9031 43.5499 37.7727C43.408 37.6423 43.2406 37.5428 43.0583 37.4805C42.876 37.4182 42.6827 37.3945 42.4907 37.4107H5.50929C5.31731 37.3945 5.12403 37.4182 4.94171 37.4805C4.75939 37.5428 4.59199 37.6423 4.45011 37.7727C4.30823 37.9031 4.19496 38.0615 4.11749 38.2379C4.04001 38.4143 4 38.6049 4 38.7975C4 38.9902 4.04001 39.1808 4.11749 39.3572C4.19496 39.5336 4.30823 39.692 4.45011 39.8224C4.59199 39.9527 4.75939 40.0522 4.94171 40.1145C5.12403 40.1768 5.31731 40.2006 5.50929 40.1843Z" fill="black"/>
</svg>
