<svg width="48" height="48" viewBox="0 0 48 48" fill="none" xmlns="http://www.w3.org/2000/svg">
<path d="M24 10.51H5.50929C5.31731 10.5263 5.12403 10.5024 4.94171 10.4397C4.75939 10.3771 4.59199 10.277 4.45011 10.1459C4.30823 10.0147 4.19496 9.85539 4.11749 9.67794C4.04001 9.50048 4 9.30878 4 9.11497C4 8.92115 4.04001 8.72945 4.11749 8.55199C4.19496 8.37454 4.30823 8.2152 4.45011 8.08407C4.59199 7.95293 4.75939 7.85286 4.94171 7.79019C5.12403 7.72751 5.31731 7.7036 5.50929 7.71997H24C24.192 7.7036 24.3853 7.72751 24.5676 7.79019C24.7499 7.85286 24.9173 7.95293 25.0592 8.08407C25.2011 8.2152 25.3143 8.37454 25.3918 8.55199C25.4693 8.72945 25.5093 8.92115 25.5093 9.11497C25.5093 9.30878 25.4693 9.50048 25.3918 9.67794C25.3143 9.85539 25.2011 10.0147 25.0592 10.1459C24.9173 10.277 24.7499 10.3771 24.5676 10.4397C24.3853 10.5024 24.192 10.5263 24 10.51Z" fill="black"/>
<path d="M5.50929 25.39C5.31731 25.4063 5.12403 25.3824 4.94171 25.3197C4.75939 25.2571 4.59199 25.157 4.45011 25.0259C4.30823 24.8947 4.19496 24.7354 4.11749 24.5579C4.04001 24.3805 4 24.1888 4 23.995C4 23.8012 4.04001 23.6095 4.11749 23.432C4.19496 23.2545 4.30823 23.0952 4.45011 22.9641C4.59199 22.8329 4.75939 22.7329 4.94171 22.6702C5.12403 22.6075 5.31731 22.5836 5.50929 22.6H42.4907C42.6827 22.5836 42.876 22.6075 43.0583 22.6702C43.2406 22.7329 43.408 22.8329 43.5499 22.9641C43.6918 23.0952 43.805 23.2545 43.8825 23.432C43.96 23.6095 44 23.8012 44 23.995C44 24.1888 43.96 24.3805 43.8825 24.5579C43.805 24.7354 43.6918 24.8947 43.5499 25.0259C43.408 25.157 43.2406 25.2571 43.0583 25.3197C42.876 25.3824 42.6827 25.4063 42.4907 25.39H5.50929Z" fill="black"/>
<path d="M23.9999 40.28H42.4906C42.6825 40.2964 42.8758 40.2724 43.0581 40.2098C43.2405 40.1471 43.4079 40.047 43.5497 39.9159C43.6916 39.7848 43.8049 39.6254 43.8824 39.448C43.9598 39.2705 43.9999 39.0788 43.9999 38.885C43.9999 38.6912 43.9598 38.4995 43.8824 38.322C43.8049 38.1446 43.6916 37.9852 43.5497 37.8541C43.4079 37.723 43.2405 37.6229 43.0581 37.5602C42.8758 37.4975 42.6825 37.4736 42.4906 37.49H23.9999C23.8079 37.4736 23.6146 37.4975 23.4323 37.5602C23.2499 37.6229 23.0825 37.723 22.9407 37.8541C22.7988 37.9852 22.6855 38.1446 22.608 38.322C22.5306 38.4995 22.4906 38.6912 22.4906 38.885C22.4906 39.0788 22.5306 39.2705 22.608 39.448C22.6855 39.6254 22.7988 39.7848 22.9407 39.9159C23.0825 40.047 23.2499 40.1471 23.4323 40.2098C23.6146 40.2724 23.8079 40.2964 23.9999 40.28Z" fill="black"/>
</svg>
