<svg width="48" height="48" viewBox="0 0 48 48" fill="none" xmlns="http://www.w3.org/2000/svg">
<path d="M23.9196 12.7629H6.59951C5.91007 12.7629 5.24888 12.489 4.76138 12.0015C4.27388 11.514 4 10.8528 4 10.1633C4 9.47392 4.27388 8.81272 4.76138 8.32522C5.24888 7.83772 5.91007 7.56384 6.59951 7.56384H23.9196C24.609 7.56384 25.2702 7.83772 25.7577 8.32522C26.2452 8.81272 26.5191 9.47392 26.5191 10.1633C26.5191 10.8528 26.2452 11.514 25.7577 12.0015C25.2702 12.489 24.609 12.7629 23.9196 12.7629Z" fill="black"/>
<path d="M41.2397 26.6169H6.59951C5.91007 26.6169 5.24888 26.3431 4.76138 25.8556C4.27388 25.368 4 24.7069 4 24.0174C4 23.328 4.27388 22.6668 4.76138 22.1793C5.24888 21.6918 5.91007 21.4179 6.59951 21.4179H41.2397C41.9291 21.4179 42.5903 21.6918 43.0778 22.1793C43.5653 22.6668 43.8392 23.328 43.8392 24.0174C43.8392 24.7069 43.5653 25.368 43.0778 25.8556C42.5903 26.3431 41.9291 26.6169 41.2397 26.6169Z" fill="black"/>
<path d="M41.2397 40.4312H23.9196C23.5653 40.4531 23.2104 40.4023 22.8765 40.2819C22.5427 40.1614 22.237 39.9739 21.9784 39.7308C21.7198 39.4877 21.5137 39.1942 21.3728 38.8685C21.2319 38.5427 21.1593 38.1916 21.1593 37.8366C21.1593 37.4817 21.2319 37.1306 21.3728 36.8048C21.5137 36.479 21.7198 36.1856 21.9784 35.9425C22.237 35.6994 22.5427 35.5119 22.8765 35.3914C23.2104 35.271 23.5653 35.2202 23.9196 35.2421H41.2397C41.5939 35.2202 41.9489 35.271 42.2827 35.3914C42.6166 35.5119 42.9222 35.6994 43.1809 35.9425C43.4395 36.1856 43.6456 36.479 43.7864 36.8048C43.9273 37.1306 44 37.4817 44 37.8366C44 38.1916 43.9273 38.5427 43.7864 38.8685C43.6456 39.1942 43.4395 39.4877 43.1809 39.7308C42.9222 39.9739 42.6166 40.1614 42.2827 40.2819C41.9489 40.4023 41.5939 40.4531 41.2397 40.4312Z" fill="black"/>
</svg>
