<svg width="48" height="48" viewBox="0 0 48 48" fill="none" xmlns="http://www.w3.org/2000/svg">
<path d="M41.2508 12.8078H6.7494C6.06273 12.8078 5.40419 12.5351 4.91864 12.0495C4.43309 11.564 4.16031 10.9054 4.16031 10.2187C4.16031 9.53206 4.43309 8.87352 4.91864 8.38797C5.40419 7.90242 6.06273 7.62964 6.7494 7.62964H41.2508C41.9375 7.62964 42.5961 7.90242 43.0816 8.38797C43.5672 8.87352 43.8399 9.53206 43.8399 10.2187C43.8399 10.9054 43.5672 11.564 43.0816 12.0495C42.5961 12.5351 41.9375 12.8078 41.2508 12.8078Z" fill="black"/>
<path d="M41.2508 26.6064H6.7494C6.06273 26.6064 5.40419 26.3336 4.91864 25.8481C4.43309 25.3625 4.16031 24.704 4.16031 24.0173C4.16031 23.3307 4.43309 22.6721 4.91864 22.1866C5.40419 21.701 6.06273 21.4282 6.7494 21.4282H41.2508C41.9375 21.4282 42.5961 21.701 43.0816 22.1866C43.5672 22.6721 43.8399 23.3307 43.8399 24.0173C43.8399 24.704 43.5672 25.3625 43.0816 25.8481C42.5961 26.3336 41.9375 26.6064 41.2508 26.6064Z" fill="black"/>
<path d="M41.2508 40.3653H6.7494C6.39658 40.3872 6.04302 40.3366 5.71051 40.2166C5.37799 40.0966 5.07357 39.9099 4.81599 39.6678C4.55841 39.4256 4.35314 39.1334 4.21283 38.8089C4.07251 38.4844 4.00012 38.1347 4.00012 37.7812C4.00012 37.4277 4.07251 37.0779 4.21283 36.7535C4.35314 36.429 4.55841 36.1368 4.81599 35.8946C5.07357 35.6525 5.37799 35.4657 5.71051 35.3458C6.04302 35.2258 6.39658 35.1752 6.7494 35.1971H41.2508C41.6037 35.1752 41.9572 35.2258 42.2897 35.3458C42.6223 35.4657 42.9267 35.6525 43.1843 35.8946C43.4418 36.1368 43.6471 36.429 43.7874 36.7535C43.9277 37.0779 44.0001 37.4277 44.0001 37.7812C44.0001 38.1347 43.9277 38.4844 43.7874 38.8089C43.6471 39.1334 43.4418 39.4256 43.1843 39.6678C42.9267 39.9099 42.6223 40.0966 42.2897 40.2166C41.9572 40.3366 41.6037 40.3872 41.2508 40.3653Z" fill="black"/>
</svg>
