<svg width="48" height="48" viewBox="0 0 48 48" fill="none" xmlns="http://www.w3.org/2000/svg">
<path d="M7.63501 16.38V41.45C7.6428 41.7928 7.71805 42.1307 7.85646 42.4444C7.99488 42.758 8.19374 43.0414 8.44169 43.2782C8.68964 43.515 8.98182 43.7006 9.30154 43.8245C9.62125 43.9483 9.96224 44.008 10.305 44H37.695C38.0378 44.008 38.3788 43.9483 38.6985 43.8245C39.0182 43.7006 39.3104 43.515 39.5583 43.2782C39.8063 43.0414 40.0051 42.758 40.1436 42.4444C40.282 42.1307 40.3572 41.7928 40.365 41.45V16.38H7.63501ZM17.515 37.08C17.5163 37.1281 17.508 37.176 17.4905 37.2208C17.473 37.2657 17.4467 37.3066 17.4132 37.3411C17.3796 37.3755 17.3395 37.403 17.2951 37.4217C17.2508 37.4404 17.2031 37.45 17.155 37.45H15.285C15.2369 37.45 15.1892 37.4404 15.1449 37.4217C15.1006 37.403 15.0604 37.3755 15.0268 37.3411C14.9933 37.3066 14.967 37.2657 14.9495 37.2208C14.932 37.176 14.9237 37.1281 14.925 37.08V35.22C14.925 35.1236 14.9626 35.031 15.0298 34.9618C15.0971 34.8927 15.1886 34.8526 15.285 34.85H17.155C17.2514 34.8526 17.343 34.8927 17.4102 34.9618C17.4774 35.031 17.515 35.1236 17.515 35.22V37.08ZM17.515 31.9C17.515 31.9955 17.4771 32.0871 17.4096 32.1546C17.3421 32.2221 17.2505 32.26 17.155 32.26H15.285C15.1895 32.26 15.098 32.2221 15.0305 32.1546C14.9629 32.0871 14.925 31.9955 14.925 31.9V30C14.925 29.9045 14.9629 29.813 15.0305 29.7454C15.098 29.6779 15.1895 29.64 15.285 29.64H17.155C17.2505 29.64 17.3421 29.6779 17.4096 29.7454C17.4771 29.813 17.515 29.9045 17.515 30V31.9ZM17.515 26.71C17.515 26.8064 17.4774 26.8991 17.4102 26.9682C17.343 27.0373 17.2514 27.0774 17.155 27.08H15.285C15.1886 27.0774 15.0971 27.0373 15.0298 26.9682C14.9626 26.8991 14.925 26.8064 14.925 26.71V24.85C14.925 24.7536 14.9626 24.661 15.0298 24.5918C15.0971 24.5227 15.1886 24.4826 15.285 24.48H17.155C17.2514 24.4826 17.343 24.5227 17.4102 24.5918C17.4774 24.661 17.515 24.7536 17.515 24.85V26.71ZM17.515 21.53C17.515 21.6255 17.4771 21.7171 17.4096 21.7846C17.3421 21.8521 17.2505 21.89 17.155 21.89H15.285C15.1895 21.89 15.098 21.8521 15.0305 21.7846C14.9629 21.7171 14.925 21.6255 14.925 21.53V19.66C14.925 19.5645 14.9629 19.473 15.0305 19.4054C15.098 19.3379 15.1895 19.3 15.285 19.3H17.155C17.2505 19.3 17.3421 19.3379 17.4096 19.4054C17.4771 19.473 17.515 19.5645 17.515 19.66V21.53ZM22.705 37.08C22.705 37.1781 22.666 37.2722 22.5966 37.3416C22.5273 37.411 22.4331 37.45 22.335 37.45H20.475C20.3769 37.45 20.2828 37.411 20.2134 37.3416C20.144 37.2722 20.105 37.1781 20.105 37.08V35.22C20.1075 35.1227 20.1473 35.03 20.2162 34.9612C20.285 34.8923 20.3777 34.8525 20.475 34.85H22.335C22.4323 34.8525 22.525 34.8923 22.5938 34.9612C22.6627 35.03 22.7025 35.1227 22.705 35.22V37.08ZM22.705 31.9C22.7024 31.9964 22.6623 32.088 22.5932 32.1552C22.5241 32.2224 22.4314 32.26 22.335 32.26H20.475C20.3786 32.26 20.286 32.2224 20.2169 32.1552C20.1477 32.088 20.1076 31.9964 20.105 31.9V30C20.1076 29.9036 20.1477 29.8121 20.2169 29.7448C20.286 29.6776 20.3786 29.64 20.475 29.64H22.335C22.4314 29.64 22.5241 29.6776 22.5932 29.7448C22.6623 29.8121 22.7024 29.9036 22.705 30V31.9ZM22.705 26.71C22.7025 26.8073 22.6627 26.9 22.5938 26.9688C22.525 27.0377 22.4323 27.0775 22.335 27.08H20.475C20.3777 27.0775 20.285 27.0377 20.2162 26.9688C20.1473 26.9 20.1075 26.8073 20.105 26.71V24.85C20.1075 24.7527 20.1473 24.66 20.2162 24.5912C20.285 24.5223 20.3777 24.4825 20.475 24.48H22.335C22.4323 24.4825 22.525 24.5223 22.5938 24.5912C22.6627 24.66 22.7025 24.7527 22.705 24.85V26.71ZM22.705 21.53C22.7024 21.6264 22.6623 21.718 22.5932 21.7852C22.5241 21.8524 22.4314 21.89 22.335 21.89H20.475C20.3786 21.89 20.286 21.8524 20.2169 21.7852C20.1477 21.718 20.1076 21.6264 20.105 21.53V19.66C20.1076 19.5636 20.1477 19.4721 20.2169 19.4048C20.286 19.3376 20.3786 19.3 20.475 19.3H22.335C22.4314 19.3 22.5241 19.3376 22.5932 19.4048C22.6623 19.4721 22.7024 19.5636 22.705 19.66V21.53ZM27.885 37.08C27.8863 37.1281 27.878 37.176 27.8605 37.2208C27.843 37.2657 27.8167 37.3066 27.7832 37.3411C27.7496 37.3755 27.7095 37.403 27.6651 37.4217C27.6208 37.4404 27.5731 37.45 27.525 37.45H25.635C25.5869 37.45 25.5392 37.4404 25.4949 37.4217C25.4506 37.403 25.4104 37.3755 25.3769 37.3411C25.3433 37.3066 25.317 37.2657 25.2995 37.2208C25.282 37.176 25.2737 37.1281 25.275 37.08V35.22C25.275 35.1236 25.3126 35.031 25.3798 34.9618C25.4471 34.8927 25.5386 34.8526 25.635 34.85H27.505C27.6014 34.8526 27.693 34.8927 27.7602 34.9618C27.8274 35.031 27.865 35.1236 27.865 35.22L27.885 37.08ZM27.885 31.9C27.885 31.9955 27.8471 32.0871 27.7796 32.1546C27.7121 32.2221 27.6205 32.26 27.525 32.26H25.635C25.5395 32.26 25.448 32.2221 25.3805 32.1546C25.3129 32.0871 25.275 31.9955 25.275 31.9V30C25.275 29.9045 25.3129 29.813 25.3805 29.7454C25.448 29.6779 25.5395 29.64 25.635 29.64H27.505C27.6005 29.64 27.6921 29.6779 27.7596 29.7454C27.8271 29.813 27.865 29.9045 27.865 30L27.885 31.9ZM27.885 26.71C27.885 26.8064 27.8474 26.8991 27.7802 26.9682C27.713 27.0373 27.6214 27.0774 27.525 27.08H25.635C25.5386 27.0774 25.4471 27.0373 25.3798 26.9682C25.3126 26.8991 25.275 26.8064 25.275 26.71V24.85C25.275 24.7536 25.3126 24.661 25.3798 24.5918C25.4471 24.5227 25.5386 24.4826 25.635 24.48H27.505C27.6014 24.4826 27.693 24.5227 27.7602 24.5918C27.8274 24.661 27.865 24.7536 27.865 24.85L27.885 26.71ZM27.885 21.53C27.885 21.6255 27.8471 21.7171 27.7796 21.7846C27.7121 21.8521 27.6205 21.89 27.525 21.89H25.635C25.5395 21.89 25.448 21.8521 25.3805 21.7846C25.3129 21.7171 25.275 21.6255 25.275 21.53V19.66C25.275 19.5645 25.3129 19.473 25.3805 19.4054C25.448 19.3379 25.5395 19.3 25.635 19.3H27.505C27.6005 19.3 27.6921 19.3379 27.7596 19.4054C27.8271 19.473 27.865 19.5645 27.865 19.66L27.885 21.53ZM33.075 37.08C33.0763 37.1281 33.068 37.176 33.0505 37.2208C33.033 37.2657 33.0067 37.3066 32.9732 37.3411C32.9396 37.3755 32.8995 37.403 32.8551 37.4217C32.8108 37.4404 32.7631 37.45 32.715 37.45H30.845C30.7969 37.45 30.7492 37.4404 30.7049 37.4217C30.6606 37.403 30.6204 37.3755 30.5868 37.3411C30.5533 37.3066 30.527 37.2657 30.5095 37.2208C30.492 37.176 30.4837 37.1281 30.485 37.08V19.66C30.485 19.5645 30.5229 19.473 30.5905 19.4054C30.658 19.3379 30.7495 19.3 30.845 19.3H32.715C32.8105 19.3 32.9021 19.3379 32.9696 19.4054C33.0371 19.473 33.075 19.5645 33.075 19.66V37.08Z" fill="black"/>
<path d="M40.365 12.74V6.55C40.3572 6.20723 40.282 5.86934 40.1436 5.55566C40.0051 5.24197 39.8063 4.95863 39.5583 4.72182C39.3104 4.48501 39.0182 4.29938 38.6985 4.17553C38.3788 4.05168 38.0378 3.99203 37.695 4H10.305C9.96224 3.99203 9.62125 4.05168 9.30154 4.17553C8.98182 4.29938 8.68964 4.48501 8.44169 4.72182C8.19374 4.95863 7.99488 5.24197 7.85646 5.55566C7.71805 5.86934 7.6428 6.20723 7.63501 6.55V12.74H40.365Z" fill="black"/>
</svg>
