<svg width="48" height="48" viewBox="0 0 48 48" fill="none" xmlns="http://www.w3.org/2000/svg">
<path d="M15.09 35.1103H17C17.2043 35.1103 17.37 35.2759 17.37 35.4803V37.3903C17.37 37.5946 17.2043 37.7603 17 37.7603H15.09C14.8856 37.7603 14.72 37.5946 14.72 37.3903V35.4803C14.72 35.2759 14.8856 35.1103 15.09 35.1103Z" fill="black"/>
<path d="M17 29.8004H15.09C14.8856 29.8004 14.72 29.966 14.72 30.1704V32.0804C14.72 32.2847 14.8856 32.4504 15.09 32.4504H17C17.2043 32.4504 17.37 32.2847 17.37 32.0804V30.1704C17.37 29.966 17.2043 29.8004 17 29.8004Z" fill="black"/>
<path d="M15.09 24.4903H17C17.2043 24.4903 17.37 24.656 17.37 24.8603V26.7703C17.37 26.9746 17.2043 27.1403 17 27.1403H15.09C14.8856 27.1403 14.72 26.9746 14.72 26.7703V24.8603C14.72 24.656 14.8856 24.4903 15.09 24.4903Z" fill="black"/>
<path d="M17 19.1902H15.09C14.8856 19.1902 14.72 19.3559 14.72 19.5602V21.4702C14.72 21.6746 14.8856 21.8402 15.09 21.8402H17C17.2043 21.8402 17.37 21.6746 17.37 21.4702V19.5602C17.37 19.3559 17.2043 19.1902 17 19.1902Z" fill="black"/>
<path d="M20.4 35.1103H22.31C22.5144 35.1103 22.68 35.2759 22.68 35.4803V37.3903C22.68 37.5946 22.5144 37.7603 22.31 37.7603H20.4C20.1957 37.7603 20.03 37.5946 20.03 37.3903V35.4803C20.03 35.2759 20.1957 35.1103 20.4 35.1103Z" fill="black"/>
<path d="M22.31 29.8004H20.4C20.1957 29.8004 20.03 29.966 20.03 30.1704V32.0804C20.03 32.2847 20.1957 32.4504 20.4 32.4504H22.31C22.5144 32.4504 22.68 32.2847 22.68 32.0804V30.1704C22.68 29.966 22.5144 29.8004 22.31 29.8004Z" fill="black"/>
<path d="M20.4 24.4903H22.31C22.5144 24.4903 22.68 24.656 22.68 24.8603V26.7703C22.68 26.9746 22.5144 27.1403 22.31 27.1403H20.4C20.1957 27.1403 20.03 26.9746 20.03 26.7703V24.8603C20.03 24.656 20.1957 24.4903 20.4 24.4903Z" fill="black"/>
<path d="M22.31 19.1902H20.4C20.1957 19.1902 20.03 19.3559 20.03 19.5602V21.4702C20.03 21.6746 20.1957 21.8402 20.4 21.8402H22.31C22.5144 21.8402 22.68 21.6746 22.68 21.4702V19.5602C22.68 19.3559 22.5144 19.1902 22.31 19.1902Z" fill="black"/>
<path d="M25.7101 35.1103H27.6201C27.8244 35.1103 27.9901 35.2759 27.9901 35.4803V37.3903C27.9901 37.5946 27.8244 37.7603 27.6201 37.7603H25.7101C25.5057 37.7603 25.3401 37.5946 25.3401 37.3903V35.4803C25.3401 35.2759 25.5057 35.1103 25.7101 35.1103Z" fill="black"/>
<path d="M27.6201 29.8004H25.7101C25.5057 29.8004 25.3401 29.966 25.3401 30.1704V32.0804C25.3401 32.2847 25.5057 32.4504 25.7101 32.4504H27.6201C27.8244 32.4504 27.9901 32.2847 27.9901 32.0804V30.1704C27.9901 29.966 27.8244 29.8004 27.6201 29.8004Z" fill="black"/>
<path d="M25.7101 24.4903H27.6201C27.8244 24.4903 27.9901 24.656 27.9901 24.8603V26.7703C27.9901 26.9746 27.8244 27.1403 27.6201 27.1403H25.7101C25.5057 27.1403 25.3401 26.9746 25.3401 26.7703V24.8603C25.3401 24.656 25.5057 24.4903 25.7101 24.4903Z" fill="black"/>
<path d="M27.6201 19.1902H25.7101C25.5057 19.1902 25.3401 19.3559 25.3401 19.5602V21.4702C25.3401 21.6746 25.5057 21.8402 25.7101 21.8402H27.6201C27.8244 21.8402 27.9901 21.6746 27.9901 21.4702V19.5602C27.9901 19.3559 27.8244 19.1902 27.6201 19.1902Z" fill="black"/>
<path d="M31.0099 19.1902H32.9199C33.1242 19.1902 33.2899 19.3559 33.2899 19.5602V37.3902C33.2899 37.5946 33.1242 37.7602 32.9199 37.7602H31.0099C30.8055 37.7602 30.6399 37.5946 30.6399 37.3902V19.5602C30.6399 19.3559 30.8055 19.1902 31.0099 19.1902Z" fill="black"/>
<path fill-rule="evenodd" clip-rule="evenodd" d="M10.02 4.00033H38.02C38.6011 3.98952 39.163 4.20805 39.5841 4.60859C40.0053 5.00912 40.2517 5.55943 40.27 6.14033V41.8603C40.2517 42.4448 40.0025 42.9981 39.577 43.3992C39.1516 43.8004 38.5845 44.0165 38 44.0003H9.99998C9.41547 44.0165 8.84839 43.8004 8.42292 43.3992C7.99745 42.9981 7.74828 42.4448 7.72998 41.8603V6.14033C7.73901 5.84919 7.8055 5.56271 7.92564 5.29736C8.04577 5.03201 8.21717 4.79302 8.42999 4.59415C8.64281 4.39527 8.89284 4.24042 9.16571 4.13852C9.43858 4.03661 9.7289 3.98964 10.02 4.00033ZM10.5 41.2103H37.5V15.7403H10.5V41.2103ZM10.5 13.0003H37.5V6.79033H10.5V13.0003Z" fill="black"/>
</svg>
