<svg width="48" height="48" viewBox="0 0 48 48" fill="none" xmlns="http://www.w3.org/2000/svg">
<path d="M25.3801 26.43H30.9201C31.1118 26.4137 31.3049 26.4374 31.487 26.4996C31.6692 26.5618 31.8364 26.6611 31.9782 26.7913C32.1199 26.9215 32.2331 27.0798 32.3105 27.256C32.3879 27.4322 32.4278 27.6226 32.4278 27.815C32.4278 28.0075 32.3879 28.1979 32.3105 28.3741C32.2331 28.5503 32.1199 28.7085 31.9782 28.8387C31.8364 28.9689 31.6692 29.0682 31.487 29.1304C31.3049 29.1926 31.1118 29.2163 30.9201 29.2H25.3801V34.74C25.3801 35.106 25.2347 35.457 24.9759 35.7158C24.7171 35.9746 24.3661 36.12 24.0001 36.12C23.6341 36.12 23.2831 35.9746 23.0243 35.7158C22.7655 35.457 22.6201 35.106 22.6201 34.74V29.2H17.0801C16.8883 29.2163 16.6952 29.1926 16.5131 29.1304C16.3309 29.0682 16.1637 28.9689 16.022 28.8387C15.8802 28.7085 15.7671 28.5503 15.6896 28.3741C15.6122 28.1979 15.5723 28.0075 15.5723 27.815C15.5723 27.6226 15.6122 27.4322 15.6896 27.256C15.7671 27.0798 15.8802 26.9215 16.022 26.7913C16.1637 26.6611 16.3309 26.5618 16.5131 26.4996C16.6952 26.4374 16.8883 26.4137 17.0801 26.43H22.6201V20.9C22.6201 20.534 22.7655 20.183 23.0243 19.9242C23.2831 19.6654 23.6341 19.52 24.0001 19.52C24.3661 19.52 24.7171 19.6654 24.9759 19.9242C25.2347 20.183 25.3801 20.534 25.3801 20.9V26.43Z" fill="black"/>
<path fill-rule="evenodd" clip-rule="evenodd" d="M39.3 7.91999H39.79C40.0811 7.91998 40.3693 7.97748 40.6381 8.08916C40.9069 8.20085 41.1509 8.36453 41.3563 8.57081C41.5616 8.77709 41.7242 9.0219 41.8347 9.29118C41.9451 9.56047 42.0013 9.84892 42 10.14V40.2C41.9974 40.6766 41.8069 41.1329 41.4699 41.4699C41.1329 41.8069 40.6766 41.9974 40.2 42H7.80002C7.32344 41.9974 6.86713 41.8069 6.53013 41.4699C6.19313 41.1329 6.00265 40.6766 6.00002 40.2V10.14C5.9987 9.84808 6.05522 9.55881 6.16631 9.28886C6.27741 9.01892 6.44088 8.77367 6.64729 8.56726C6.8537 8.36085 7.09896 8.19737 7.3689 8.08628C7.63884 7.97518 7.92812 7.91866 8.22002 7.91999H8.65002C8.76182 7.38205 9.05554 6.89906 9.48174 6.55233C9.90794 6.2056 10.4406 6.0163 10.99 6.0163C11.5395 6.0163 12.0721 6.2056 12.4983 6.55233C12.9245 6.89906 13.2182 7.38205 13.33 7.91999H17.33C17.4367 7.37914 17.7279 6.8921 18.1537 6.54204C18.5796 6.19198 19.1138 6.00061 19.665 6.00061C20.2163 6.00061 20.7505 6.19198 21.1763 6.54204C21.6022 6.8921 21.8933 7.37914 22 7.91999H25.95C26.0567 7.37914 26.3479 6.8921 26.7737 6.54204C27.1996 6.19198 27.7338 6.00061 28.285 6.00061C28.8363 6.00061 29.3705 6.19198 29.7963 6.54204C30.2222 6.8921 30.5133 7.37914 30.62 7.91999H34.62C34.7318 7.38205 35.0255 6.89906 35.4517 6.55233C35.8779 6.2056 36.4106 6.0163 36.96 6.0163C37.5094 6.0163 38.0421 6.2056 38.4683 6.55233C38.8945 6.89906 39.1882 7.38205 39.3 7.91999ZM12.5373 12.0804C12.1025 12.4312 11.5586 12.6185 11 12.61C10.4958 12.6007 10.0077 12.4309 9.60663 12.1252C9.20558 11.8194 8.9125 11.3937 8.77002 10.91V13.64H39.27V10.91C39.1255 11.4002 38.8265 11.8306 38.4174 12.137C38.0083 12.4434 37.5111 12.6093 37 12.61C36.4587 12.5956 35.9383 12.3978 35.524 12.049C35.1098 11.7001 34.8263 11.221 34.72 10.69H30.72C30.6133 11.2308 30.3222 11.7179 29.8963 12.0679C29.4705 12.418 28.9363 12.6094 28.385 12.6094C27.8338 12.6094 27.2996 12.418 26.8737 12.0679C26.4479 11.7179 26.1567 11.2308 26.05 10.69H22.05C21.9433 11.2308 21.6522 11.7179 21.2263 12.0679C20.8005 12.418 20.2663 12.6094 19.715 12.6094C19.1638 12.6094 18.6296 12.418 18.2037 12.0679C17.7779 11.7179 17.4867 11.2308 17.38 10.69H13.38C13.2702 11.2377 12.9721 11.7297 12.5373 12.0804ZM8.77002 16.41V39.23H39.23V16.41H8.77002Z" fill="black"/>
</svg>
