<svg width="48" height="48" viewBox="0 0 48 48" fill="none" xmlns="http://www.w3.org/2000/svg">
<path d="M39.79 7.91999H39.3C39.1882 7.38205 38.8945 6.89906 38.4683 6.55233C38.0421 6.2056 37.5094 6.0163 36.96 6.0163C36.4106 6.0163 35.8779 6.2056 35.4517 6.55233C35.0255 6.89906 34.7318 7.38205 34.62 7.91999H30.62C30.5133 7.37914 30.2222 6.8921 29.7963 6.54204C29.3704 6.19198 28.8363 6.00061 28.285 6.00061C27.7337 6.00061 27.1996 6.19198 26.7737 6.54204C26.3478 6.8921 26.0567 7.37914 25.95 7.91999H22C21.8933 7.37914 21.6022 6.8921 21.1763 6.54204C20.7504 6.19198 20.2163 6.00061 19.665 6.00061C19.1137 6.00061 18.5796 6.19198 18.1537 6.54204C17.7278 6.8921 17.4367 7.37914 17.33 7.91999H13.33C13.2182 7.38205 12.9245 6.89906 12.4983 6.55233C12.0721 6.2056 11.5394 6.0163 10.99 6.0163C10.4406 6.0163 9.90792 6.2056 9.48172 6.55233C9.05552 6.89906 8.7618 7.38205 8.65 7.91999H8.22C7.92809 7.91866 7.63882 7.97518 7.36888 8.08628C7.09894 8.19737 6.85368 8.36085 6.64727 8.56726C6.44086 8.77367 6.27739 9.01892 6.16629 9.28886C6.05519 9.55881 5.99868 9.84808 6 10.14V40.2C6.00263 40.6766 6.19311 41.1329 6.53011 41.4699C6.86711 41.8069 7.32342 41.9974 7.8 42H40.2C40.6766 41.9974 41.1329 41.8069 41.4699 41.4699C41.8069 41.1329 41.9974 40.6766 42 40.2V10.14C42.0013 9.84892 41.9451 9.56047 41.8347 9.29118C41.7242 9.0219 41.5616 8.77709 41.3563 8.57081C41.1509 8.36453 40.9068 8.20085 40.638 8.08916C40.3693 7.97748 40.0811 7.91998 39.79 7.91999ZM11 12.61C11.5586 12.6185 12.1025 12.4312 12.5372 12.0804C12.972 11.7297 13.2702 11.2377 13.38 10.69H17.38C17.4867 11.2308 17.7778 11.7179 18.2037 12.0679C18.6296 12.418 19.1637 12.6094 19.715 12.6094C20.2663 12.6094 20.8004 12.418 21.2263 12.0679C21.6522 11.7179 21.9433 11.2308 22.05 10.69H26.05C26.1567 11.2308 26.4478 11.7179 26.8737 12.0679C27.2996 12.418 27.8337 12.6094 28.385 12.6094C28.9363 12.6094 29.4704 12.418 29.8963 12.0679C30.3222 11.7179 30.6133 11.2308 30.72 10.69H34.72C34.8263 11.221 35.1098 11.7001 35.524 12.049C35.9382 12.3978 36.4587 12.5956 37 12.61C37.5111 12.6093 38.0083 12.4434 38.4173 12.137C38.8264 11.8306 39.1255 11.4002 39.27 10.91V13.64H8.77V10.91C8.91248 11.3937 9.20556 11.8194 9.60661 12.1252C10.0077 12.4309 10.4958 12.6007 11 12.61ZM8.77 39.23V16.41H39.23V39.23H8.77Z" fill="black"/>
</svg>
