<svg width="48" height="48" viewBox="0 0 48 48" fill="none" xmlns="http://www.w3.org/2000/svg">
<path d="M12.1799 34.97H9.90991C9.77184 34.97 9.65991 35.0819 9.65991 35.22V37.49C9.65991 37.628 9.77184 37.74 9.90991 37.74H12.1799C12.318 37.74 12.4299 37.628 12.4299 37.49V35.22C12.4299 35.0819 12.318 34.97 12.1799 34.97Z" fill="black"/>
<path d="M16.3899 34.97H18.6599C18.798 34.97 18.9099 35.0819 18.9099 35.22V37.49C18.9099 37.628 18.798 37.74 18.6599 37.74H16.3899C16.2518 37.74 16.1399 37.628 16.1399 37.49V35.22C16.1399 35.0819 16.2518 34.97 16.3899 34.97Z" fill="black"/>
<path d="M25.1401 34.97H22.8701C22.732 34.97 22.6201 35.0819 22.6201 35.22V37.49C22.6201 37.628 22.732 37.74 22.8701 37.74H25.1401C25.2782 37.74 25.3901 37.628 25.3901 37.49V35.22C25.3901 35.0819 25.2782 34.97 25.1401 34.97Z" fill="black"/>
<path d="M29.3501 34.97H31.6201C31.7582 34.97 31.8701 35.0819 31.8701 35.22V37.49C31.8701 37.628 31.7582 37.74 31.6201 37.74H29.3501C29.212 37.74 29.1001 37.628 29.1001 37.49V35.22C29.1001 35.0819 29.212 34.97 29.3501 34.97Z" fill="black"/>
<path d="M38.1001 34.97H35.8301C35.692 34.97 35.5801 35.0819 35.5801 35.22V37.49C35.5801 37.628 35.692 37.74 35.8301 37.74H38.1001C38.2381 37.74 38.3501 37.628 38.3501 37.49V35.22C38.3501 35.0819 38.2381 34.97 38.1001 34.97Z" fill="black"/>
<path d="M9.90991 17.9H12.1799C12.318 17.9 12.4299 18.012 12.4299 18.15V20.42C12.4299 20.5581 12.318 20.67 12.1799 20.67H9.90991C9.77184 20.67 9.65991 20.5581 9.65991 20.42V18.15C9.65991 18.012 9.77184 17.9 9.90991 17.9Z" fill="black"/>
<path d="M18.6599 17.9H16.3899C16.2518 17.9 16.1399 18.012 16.1399 18.15V20.42C16.1399 20.5581 16.2518 20.67 16.3899 20.67H18.6599C18.798 20.67 18.9099 20.5581 18.9099 20.42V18.15C18.9099 18.012 18.798 17.9 18.6599 17.9Z" fill="black"/>
<path d="M22.8701 17.9H25.1401C25.2782 17.9 25.3901 18.012 25.3901 18.15V20.42C25.3901 20.5581 25.2782 20.67 25.1401 20.67H22.8701C22.732 20.67 22.6201 20.5581 22.6201 20.42V18.15C22.6201 18.012 22.732 17.9 22.8701 17.9Z" fill="black"/>
<path d="M31.6201 17.9H29.3501C29.212 17.9 29.1001 18.012 29.1001 18.15V20.42C29.1001 20.5581 29.212 20.67 29.3501 20.67H31.6201C31.7582 20.67 31.8701 20.5581 31.8701 20.42V18.15C31.8701 18.012 31.7582 17.9 31.6201 17.9Z" fill="black"/>
<path d="M35.8301 17.9H38.1001C38.2381 17.9 38.3501 18.012 38.3501 18.15V20.42C38.3501 20.5581 38.2381 20.67 38.1001 20.67H35.8301C35.692 20.67 35.5801 20.5581 35.5801 20.42V18.15C35.5801 18.012 35.692 17.9 35.8301 17.9Z" fill="black"/>
<path d="M12.1799 23.59H9.90991C9.77184 23.59 9.65991 23.7019 9.65991 23.84V26.11C9.65991 26.248 9.77184 26.36 9.90991 26.36H12.1799C12.318 26.36 12.4299 26.248 12.4299 26.11V23.84C12.4299 23.7019 12.318 23.59 12.1799 23.59Z" fill="black"/>
<path d="M16.3899 23.59H18.6599C18.798 23.59 18.9099 23.7019 18.9099 23.84V26.11C18.9099 26.248 18.798 26.36 18.6599 26.36H16.3899C16.2518 26.36 16.1399 26.248 16.1399 26.11V23.84C16.1399 23.7019 16.2518 23.59 16.3899 23.59Z" fill="black"/>
<path d="M25.1401 23.59H22.8701C22.732 23.59 22.6201 23.7019 22.6201 23.84V26.11C22.6201 26.248 22.732 26.36 22.8701 26.36H25.1401C25.2782 26.36 25.3901 26.248 25.3901 26.11V23.84C25.3901 23.7019 25.2782 23.59 25.1401 23.59Z" fill="black"/>
<path d="M29.3501 23.59H31.6201C31.7582 23.59 31.8701 23.7019 31.8701 23.84V26.11C31.8701 26.248 31.7582 26.36 31.6201 26.36H29.3501C29.212 26.36 29.1001 26.248 29.1001 26.11V23.84C29.1001 23.7019 29.212 23.59 29.3501 23.59Z" fill="black"/>
<path d="M38.1001 23.59H35.8301C35.692 23.59 35.5801 23.7019 35.5801 23.84V26.11C35.5801 26.248 35.692 26.36 35.8301 26.36H38.1001C38.2381 26.36 38.3501 26.248 38.3501 26.11V23.84C38.3501 23.7019 38.2381 23.59 38.1001 23.59Z" fill="black"/>
<path d="M9.90991 29.28H12.1799C12.318 29.28 12.4299 29.392 12.4299 29.53V31.8C12.4299 31.9381 12.318 32.05 12.1799 32.05H9.90991C9.77184 32.05 9.65991 31.9381 9.65991 31.8V29.53C9.65991 29.392 9.77184 29.28 9.90991 29.28Z" fill="black"/>
<path d="M18.6599 29.28H16.3899C16.2518 29.28 16.1399 29.392 16.1399 29.53V31.8C16.1399 31.9381 16.2518 32.05 16.3899 32.05H18.6599C18.798 32.05 18.9099 31.9381 18.9099 31.8V29.53C18.9099 29.392 18.798 29.28 18.6599 29.28Z" fill="black"/>
<path d="M22.8701 29.28H25.1401C25.2782 29.28 25.3901 29.392 25.3901 29.53V31.8C25.3901 31.9381 25.2782 32.05 25.1401 32.05H22.8701C22.732 32.05 22.6201 31.9381 22.6201 31.8V29.53C22.6201 29.392 22.732 29.28 22.8701 29.28Z" fill="black"/>
<path d="M31.6201 29.28H29.3501C29.212 29.28 29.1001 29.392 29.1001 29.53V31.8C29.1001 31.9381 29.212 32.05 29.3501 32.05H31.6201C31.7582 32.05 31.8701 31.9381 31.8701 31.8V29.53C31.8701 29.392 31.7582 29.28 31.6201 29.28Z" fill="black"/>
<path d="M35.8301 29.28H38.1001C38.2381 29.28 38.3501 29.392 38.3501 29.53V31.8C38.3501 31.9381 38.2381 32.05 38.1001 32.05H35.8301C35.692 32.05 35.5801 31.9381 35.5801 31.8V29.53C35.5801 29.392 35.692 29.28 35.8301 29.28Z" fill="black"/>
<path fill-rule="evenodd" clip-rule="evenodd" d="M39.79 7.91999H39.3C39.1882 7.38205 38.8945 6.89906 38.4683 6.55233C38.0421 6.2056 37.5094 6.0163 36.96 6.0163C36.4106 6.0163 35.8779 6.2056 35.4517 6.55233C35.0255 6.89906 34.7318 7.38205 34.62 7.91999H30.62C30.5133 7.37914 30.2222 6.8921 29.7963 6.54204C29.3705 6.19198 28.8363 6.00061 28.285 6.00061C27.7338 6.00061 27.1996 6.19198 26.7737 6.54204C26.3479 6.8921 26.0567 7.37914 25.95 7.91999H22C21.8933 7.37914 21.6022 6.8921 21.1763 6.54204C20.7505 6.19198 20.2163 6.00061 19.665 6.00061C19.1138 6.00061 18.5796 6.19198 18.1537 6.54204C17.7279 6.8921 17.4367 7.37914 17.33 7.91999H13.33C13.2182 7.38205 12.9245 6.89906 12.4983 6.55233C12.0721 6.2056 11.5395 6.0163 10.99 6.0163C10.4406 6.0163 9.90794 6.2056 9.48174 6.55233C9.05554 6.89906 8.76182 7.38205 8.65002 7.91999H8.22002C7.92812 7.91866 7.63884 7.97518 7.3689 8.08628C7.09896 8.19737 6.8537 8.36085 6.64729 8.56726C6.44088 8.77367 6.27741 9.01892 6.16631 9.28886C6.05522 9.55881 5.9987 9.84808 6.00002 10.14V40.2C6.00265 40.6766 6.19313 41.1329 6.53013 41.4699C6.86713 41.8069 7.32344 41.9974 7.80002 42H40.2C40.6766 41.9974 41.1329 41.8069 41.4699 41.4699C41.8069 41.1329 41.9974 40.6766 42 40.2V10.14C42.0013 9.84892 41.9451 9.56047 41.8347 9.29118C41.7242 9.0219 41.5616 8.77709 41.3563 8.57081C41.1509 8.36453 40.9069 8.20085 40.6381 8.08916C40.3693 7.97748 40.0811 7.91998 39.79 7.91999ZM39.23 39.23H8.77002V16.41H39.23V39.23ZM39.23 13.64H8.77002V10.91C8.9125 11.3937 9.20558 11.8194 9.60663 12.1252C10.0077 12.4309 10.4958 12.6007 11 12.61C11.5586 12.6185 12.1025 12.4312 12.5373 12.0804C12.9721 11.7297 13.2702 11.2377 13.38 10.69H17.38C17.4867 11.2308 17.7779 11.7179 18.2037 12.0679C18.6296 12.418 19.1638 12.6094 19.715 12.6094C20.2663 12.6094 20.8005 12.418 21.2263 12.0679C21.6522 11.7179 21.9433 11.2308 22.05 10.69H26.05C26.1567 11.2308 26.4479 11.7179 26.8737 12.0679C27.2996 12.418 27.8338 12.6094 28.385 12.6094C28.9363 12.6094 29.4705 12.418 29.8963 12.0679C30.3222 11.7179 30.6133 11.2308 30.72 10.69H34.72C34.8263 11.221 35.1098 11.7001 35.524 12.049C35.9383 12.3978 36.4587 12.5956 37 12.61C37.5111 12.6093 38.0083 12.4434 38.4174 12.137C38.8265 11.8306 39.1255 11.4002 39.27 10.91L39.23 13.64Z" fill="black"/>
</svg>
