<svg width="48" height="48" viewBox="0 0 48 48" fill="none" xmlns="http://www.w3.org/2000/svg">
<path d="M42.0002 13.4728V10.4752C42.0002 9.78358 41.7252 9.12024 41.2357 8.63117C40.7463 8.14209 40.0824 7.86733 39.3902 7.86733H39.2402C39.0559 7.32299 38.7055 6.85008 38.2382 6.51511C37.7709 6.18015 37.2103 6 36.6352 6C36.0601 6 35.4995 6.18015 35.0322 6.51511C34.5649 6.85008 34.2144 7.32299 34.0302 7.86733H30.8202C30.6333 7.32418 30.2813 6.8529 29.8134 6.51927C29.3455 6.18564 28.785 6.00631 28.2102 6.00631C27.6353 6.00631 27.0749 6.18564 26.607 6.51927C26.1391 6.8529 25.7871 7.32418 25.6002 7.86733H22.4002C22.2133 7.32418 21.8613 6.8529 21.3934 6.51927C20.9255 6.18564 20.365 6.00631 19.7902 6.00631C19.2154 6.00631 18.6549 6.18564 18.187 6.51927C17.7191 6.8529 17.3671 7.32418 17.1802 7.86733H14.0002C13.8133 7.32418 13.4613 6.8529 12.9934 6.51927C12.5255 6.18564 11.965 6.00631 11.3902 6.00631C10.8154 6.00631 10.2549 6.18564 9.78697 6.51927C9.31907 6.8529 8.96709 7.32418 8.78017 7.86733H8.61017C8.26488 7.8673 7.92302 7.93574 7.60439 8.06867C7.28576 8.2016 6.99669 8.39638 6.75394 8.64173C6.51118 8.88708 6.31956 9.17813 6.19017 9.498C6.06078 9.81788 5.9962 10.1602 6.00017 10.5052V13.5028L42.0002 13.4728Z" fill="black"/>
<path d="M6.00017 17.07V39.8018C6.0028 40.384 6.23543 40.9416 6.64744 41.3532C7.05945 41.7649 7.61751 41.9974 8.20017 42H39.7902C40.3746 42 40.9352 41.7687 41.3494 41.3568C41.7635 40.9448 41.9975 40.3857 42.0002 39.8018V17.07H6.00017ZM30.7502 29.53H17.2502C16.7728 29.53 16.3149 29.3405 15.9774 29.0032C15.6398 28.6659 15.4502 28.2084 15.4502 27.7314C15.4502 27.2544 15.6398 26.7969 15.9774 26.4596C16.3149 26.1224 16.7728 25.9329 17.2502 25.9329H30.7502C31.2276 25.9329 31.6854 26.1224 32.023 26.4596C32.3605 26.7969 32.5502 27.2544 32.5502 27.7314C32.5502 28.2084 32.3605 28.6659 32.023 29.0032C31.6854 29.3405 31.2276 29.53 30.7502 29.53Z" fill="black"/>
</svg>
