<svg width="48" height="48" viewBox="0 0 48 48" fill="none" xmlns="http://www.w3.org/2000/svg">
<path d="M42 13.4728V10.4752C42 9.78358 41.725 9.12024 41.2355 8.63117C40.7461 8.14209 40.0822 7.86733 39.39 7.86733H39.24C39.0557 7.32299 38.7053 6.85008 38.238 6.51511C37.7707 6.18015 37.2101 6 36.635 6C36.0599 6 35.4993 6.18015 35.032 6.51511C34.5647 6.85008 34.2143 7.32299 34.03 7.86733H30.82C30.6331 7.32418 30.2811 6.8529 29.8132 6.51927C29.3453 6.18564 28.7848 6.00631 28.21 6.00631C27.6352 6.00631 27.0747 6.18564 26.6068 6.51927C26.1389 6.8529 25.7869 7.32418 25.6 7.86733H22.4C22.2131 7.32418 21.8611 6.8529 21.3932 6.51927C20.9253 6.18564 20.3648 6.00631 19.79 6.00631C19.2152 6.00631 18.6547 6.18564 18.1868 6.51927C17.7189 6.8529 17.3669 7.32418 17.18 7.86733H14C13.8131 7.32418 13.4611 6.8529 12.9932 6.51927C12.5253 6.18564 11.9648 6.00631 11.39 6.00631C10.8152 6.00631 10.2547 6.18564 9.78679 6.51927C9.31889 6.8529 8.96691 7.32418 8.77999 7.86733H8.60999C8.2647 7.8673 7.92284 7.93574 7.60421 8.06867C7.28558 8.2016 6.99651 8.39638 6.75375 8.64173C6.511 8.88708 6.31937 9.17813 6.18999 9.498C6.0606 9.81788 5.99602 10.1602 5.99999 10.5052V13.5028L42 13.4728Z" fill="black"/>
<path d="M5.99999 17.07V39.8018C6.00262 40.384 6.23525 40.9416 6.64726 41.3532C7.05927 41.7649 7.61732 41.9974 8.19999 42H39.79C40.3744 42 40.935 41.7687 41.3492 41.3568C41.7633 40.9448 41.9973 40.3857 42 39.8018V17.07H5.99999ZM30.75 29.53H25.8V34.476C25.8 34.953 25.6103 35.4105 25.2728 35.7478C24.9352 36.0851 24.4774 36.2746 24 36.2746C23.5226 36.2746 23.0648 36.0851 22.7272 35.7478C22.3896 35.4105 22.2 34.953 22.2 34.476V29.53H17.25C16.7726 29.53 16.3148 29.3405 15.9772 29.0032C15.6396 28.6659 15.45 28.2084 15.45 27.7314C15.45 27.2544 15.6396 26.7969 15.9772 26.4596C16.3148 26.1224 16.7726 25.9329 17.25 25.9329H22.2V21.0168C22.2 20.5398 22.3896 20.0823 22.7272 19.745C23.0648 19.4077 23.5226 19.2182 24 19.2182C24.4774 19.2182 24.9352 19.4077 25.2728 19.745C25.6103 20.0823 25.8 20.5398 25.8 21.0168V26.0128H30.75C31.2274 26.0128 31.6852 26.2023 32.0228 26.5396C32.3603 26.8769 32.55 27.3343 32.55 27.8114C32.55 28.2884 32.3603 28.7458 32.0228 29.0831C31.6852 29.4204 31.2274 29.6099 30.75 29.6099V29.53Z" fill="black"/>
</svg>
