<svg width="48" height="48" viewBox="0 0 48 48" fill="none" xmlns="http://www.w3.org/2000/svg">
<path d="M42.0002 13.4728V10.4752C42.0002 9.78358 41.7252 9.12024 41.2357 8.63117C40.7463 8.14209 40.0824 7.86733 39.3902 7.86733H39.2402C39.0559 7.32299 38.7055 6.85008 38.2382 6.51511C37.7709 6.18015 37.2103 6 36.6352 6C36.0601 6 35.4995 6.18015 35.0322 6.51511C34.5649 6.85008 34.2144 7.32299 34.0302 7.86733H30.8202C30.6333 7.32418 30.2813 6.8529 29.8134 6.51927C29.3455 6.18564 28.785 6.00631 28.2102 6.00631C27.6353 6.00631 27.0749 6.18564 26.607 6.51927C26.1391 6.8529 25.7871 7.32418 25.6002 7.86733H22.4002C22.2133 7.32418 21.8613 6.8529 21.3934 6.51927C20.9255 6.18564 20.365 6.00631 19.7902 6.00631C19.2154 6.00631 18.6549 6.18564 18.187 6.51927C17.7191 6.8529 17.3671 7.32418 17.1802 7.86733H14.0002C13.8133 7.32418 13.4613 6.8529 12.9934 6.51927C12.5255 6.18564 11.965 6.00631 11.3902 6.00631C10.8154 6.00631 10.2549 6.18564 9.78697 6.51927C9.31907 6.8529 8.96709 7.32418 8.78017 7.86733H8.61017C8.26488 7.8673 7.92302 7.93574 7.60439 8.06867C7.28576 8.2016 6.99669 8.39638 6.75394 8.64173C6.51118 8.88708 6.31956 9.17813 6.19017 9.498C6.06078 9.81788 5.9962 10.1602 6.00017 10.5052V13.5028L42.0002 13.4728Z" fill="black"/>
<path d="M6.00017 17.07V39.8018C6.0028 40.384 6.23543 40.9416 6.64744 41.3532C7.05945 41.7649 7.61751 41.9974 8.20017 42H39.7902C40.3746 42 40.9352 41.7687 41.3494 41.3568C41.7635 40.9448 41.9975 40.3857 42.0002 39.8018V17.07H6.00017ZM12.7102 37.1739C12.7102 37.2322 12.687 37.2881 12.6457 37.3293C12.6045 37.3705 12.5485 37.3937 12.4902 37.3937H10.2402C10.2096 37.3965 10.1789 37.3928 10.1498 37.3831C10.1208 37.3733 10.0941 37.3575 10.0715 37.3368C10.0489 37.3161 10.0309 37.2909 10.0186 37.2629C10.0063 37.2348 10 37.2045 10.0002 37.1739V34.9257C10.0002 34.8955 10.0061 34.8656 10.0177 34.8377C10.0292 34.8098 10.0462 34.7845 10.0675 34.7632C10.0889 34.7418 10.1142 34.7249 10.1422 34.7133C10.1701 34.7018 10.2 34.6958 10.2302 34.6958H12.4902C12.5199 34.6958 12.5494 34.7018 12.5767 34.7135C12.6041 34.7251 12.6288 34.7422 12.6494 34.7637C12.6699 34.7852 12.6859 34.8106 12.6964 34.8385C12.7068 34.8663 12.7115 34.896 12.7102 34.9257V37.1739ZM12.7102 31.6283C12.7115 31.658 12.7068 31.6877 12.6964 31.7155C12.6859 31.7433 12.6699 31.7688 12.6494 31.7902C12.6288 31.8117 12.6041 31.8288 12.5767 31.8405C12.5494 31.8521 12.5199 31.8582 12.4902 31.8581H10.2402C10.2091 31.8595 10.1781 31.8545 10.1491 31.8436C10.12 31.8326 10.0935 31.8159 10.071 31.7944C10.0486 31.773 10.0308 31.7472 10.0186 31.7186C10.0064 31.6901 10.0001 31.6593 10.0002 31.6283V29.3801C10.0001 29.3504 10.0061 29.3209 10.0178 29.2936C10.0295 29.2663 10.0466 29.2416 10.0681 29.221C10.0896 29.2005 10.1151 29.1845 10.1429 29.1741C10.1708 29.1636 10.2005 29.1589 10.2302 29.1603H12.4902C12.5485 29.1603 12.6045 29.1834 12.6457 29.2247C12.687 29.2659 12.7102 29.3218 12.7102 29.3801V31.6283ZM12.7102 26.0927C12.7102 26.151 12.687 26.2069 12.6457 26.2482C12.6045 26.2894 12.5485 26.3126 12.4902 26.3126H10.2402C10.2096 26.3153 10.1789 26.3117 10.1498 26.3019C10.1208 26.2921 10.0941 26.2764 10.0715 26.2557C10.0489 26.235 10.0309 26.2098 10.0186 26.1817C10.0063 26.1537 10 26.1234 10.0002 26.0927V23.8445C10.0002 23.8144 10.0061 23.7845 10.0177 23.7566C10.0292 23.7287 10.0462 23.7034 10.0675 23.682C10.0889 23.6607 10.1142 23.6438 10.1422 23.6322C10.1701 23.6207 10.2 23.6147 10.2302 23.6147H12.4902C12.5199 23.6147 12.5494 23.6207 12.5767 23.6324C12.6041 23.644 12.6288 23.6611 12.6494 23.6826C12.6699 23.7041 12.6859 23.7295 12.6964 23.7573C12.7068 23.7852 12.7115 23.8148 12.7102 23.8445V26.0927ZM12.7102 20.5472C12.7115 20.5769 12.7068 20.6065 12.6964 20.6344C12.6859 20.6622 12.6699 20.6876 12.6494 20.7091C12.6288 20.7306 12.6041 20.7477 12.5767 20.7594C12.5494 20.771 12.5199 20.777 12.4902 20.777H10.2402C10.2091 20.7783 10.1781 20.7734 10.1491 20.7624C10.12 20.7515 10.0935 20.7348 10.071 20.7133C10.0486 20.6918 10.0308 20.666 10.0186 20.6375C10.0064 20.6089 10.0001 20.5782 10.0002 20.5472V18.299C10.0001 18.2692 10.0061 18.2398 10.0178 18.2125C10.0295 18.1851 10.0466 18.1604 10.0681 18.1399C10.0896 18.1193 10.1151 18.1034 10.1429 18.0929C10.1708 18.0825 10.2005 18.0778 10.2302 18.0792H12.4902C12.5485 18.0792 12.6045 18.1023 12.6457 18.1435C12.687 18.1848 12.7102 18.2407 12.7102 18.299V20.5472ZM19.0002 37.1739C19.0002 37.2322 18.977 37.2881 18.9357 37.3293C18.8945 37.3705 18.8385 37.3937 18.7802 37.3937H16.5602C16.5305 37.395 16.5008 37.3904 16.4729 37.3799C16.4451 37.3695 16.4196 37.3535 16.3981 37.3329C16.3766 37.3124 16.3595 37.2877 16.3478 37.2604C16.3361 37.233 16.3301 37.2036 16.3302 37.1739V34.9257C16.3302 34.8647 16.3544 34.8063 16.3975 34.7632C16.4407 34.7201 16.4992 34.6958 16.5602 34.6958H18.8102C18.8399 34.6958 18.8694 34.7018 18.8967 34.7135C18.9241 34.7251 18.9488 34.7422 18.9694 34.7637C18.9899 34.7852 19.0059 34.8106 19.0164 34.8385C19.0268 34.8663 19.0315 34.896 19.0302 34.9257L19.0002 37.1739ZM19.0002 31.6283C19.0015 31.658 18.9968 31.6877 18.9864 31.7155C18.9759 31.7433 18.9599 31.7688 18.9394 31.7902C18.9188 31.8117 18.8941 31.8288 18.8667 31.8405C18.8394 31.8521 18.8099 31.8582 18.7802 31.8581H16.5602C16.53 31.8581 16.5001 31.8522 16.4722 31.8406C16.4443 31.8291 16.4189 31.8121 16.3975 31.7908C16.3762 31.7695 16.3592 31.7441 16.3477 31.7162C16.3361 31.6884 16.3302 31.6585 16.3302 31.6283V29.3801C16.3301 29.3504 16.3361 29.3209 16.3478 29.2936C16.3595 29.2663 16.3766 29.2416 16.3981 29.221C16.4196 29.2005 16.4451 29.1845 16.4729 29.1741C16.5008 29.1636 16.5305 29.1589 16.5602 29.1603H18.8102C18.8685 29.1603 18.9245 29.1834 18.9657 29.2247C19.007 29.2659 19.0302 29.3218 19.0302 29.3801L19.0002 31.6283ZM19.0002 26.0927C19.0002 26.151 18.977 26.2069 18.9357 26.2482C18.8945 26.2894 18.8385 26.3126 18.7802 26.3126H16.5602C16.5305 26.3139 16.5008 26.3092 16.4729 26.2988C16.4451 26.2883 16.4196 26.2724 16.3981 26.2518C16.3766 26.2313 16.3595 26.2066 16.3478 26.1792C16.3361 26.1519 16.3301 26.1225 16.3302 26.0927V23.8445C16.3302 23.7836 16.3544 23.7251 16.3975 23.682C16.4407 23.6389 16.4992 23.6147 16.5602 23.6147H18.8102C18.8399 23.6147 18.8694 23.6207 18.8967 23.6324C18.9241 23.644 18.9488 23.6611 18.9694 23.6826C18.9899 23.7041 19.0059 23.7295 19.0164 23.7573C19.0268 23.7852 19.0315 23.8148 19.0302 23.8445L19.0002 26.0927ZM19.0002 20.5472C19.0015 20.5769 18.9968 20.6065 18.9864 20.6344C18.9759 20.6622 18.9599 20.6876 18.9394 20.7091C18.9188 20.7306 18.8941 20.7477 18.8667 20.7594C18.8394 20.771 18.8099 20.777 18.7802 20.777H16.5602C16.4992 20.777 16.4407 20.7528 16.3975 20.7097C16.3544 20.6666 16.3302 20.6081 16.3302 20.5472V18.299C16.3301 18.2692 16.3361 18.2398 16.3478 18.2125C16.3595 18.1851 16.3766 18.1604 16.3981 18.1399C16.4196 18.1193 16.4451 18.1034 16.4729 18.0929C16.5008 18.0825 16.5305 18.0778 16.5602 18.0792H18.8102C18.8685 18.0792 18.9245 18.1023 18.9657 18.1435C19.007 18.1848 19.0302 18.2407 19.0302 18.299L19.0002 20.5472ZM25.3202 37.1739C25.3202 37.2036 25.3142 37.233 25.3025 37.2604C25.2908 37.2877 25.2737 37.3124 25.2522 37.3329C25.2307 37.3535 25.2053 37.3695 25.1774 37.3799C25.1496 37.3904 25.1199 37.395 25.0902 37.3937H22.8702C22.8118 37.3937 22.7559 37.3705 22.7146 37.3293C22.6733 37.2881 22.6502 37.2322 22.6502 37.1739V34.9257C22.6488 34.896 22.6535 34.8663 22.664 34.8385C22.6744 34.8106 22.6904 34.7852 22.711 34.7637C22.7315 34.7422 22.7562 34.7251 22.7836 34.7135C22.811 34.7018 22.8404 34.6958 22.8702 34.6958H25.1202C25.1812 34.6958 25.2397 34.7201 25.2828 34.7632C25.3259 34.8063 25.3502 34.8647 25.3502 34.9257L25.3202 37.1739ZM25.3202 31.6283C25.3202 31.6585 25.3142 31.6884 25.3027 31.7162C25.2911 31.7441 25.2742 31.7695 25.2528 31.7908C25.2314 31.8121 25.2061 31.8291 25.1782 31.8406C25.1503 31.8522 25.1204 31.8581 25.0902 31.8581H22.8702C22.8404 31.8582 22.811 31.8521 22.7836 31.8405C22.7562 31.8288 22.7315 31.8117 22.711 31.7902C22.6904 31.7688 22.6744 31.7433 22.664 31.7155C22.6535 31.6877 22.6488 31.658 22.6502 31.6283V29.3801C22.6502 29.3218 22.6733 29.2659 22.7146 29.2247C22.7559 29.1834 22.8118 29.1603 22.8702 29.1603H25.1202C25.1499 29.1589 25.1796 29.1636 25.2074 29.1741C25.2353 29.1845 25.2607 29.2005 25.2822 29.221C25.3037 29.2416 25.3208 29.2663 25.3325 29.2936C25.3442 29.3209 25.3502 29.3504 25.3502 29.3801L25.3202 31.6283ZM25.3202 26.0927C25.3202 26.1225 25.3142 26.1519 25.3025 26.1792C25.2908 26.2066 25.2737 26.2313 25.2522 26.2518C25.2307 26.2724 25.2053 26.2883 25.1774 26.2988C25.1496 26.3092 25.1199 26.3139 25.0902 26.3126H22.8702C22.8118 26.3126 22.7559 26.2894 22.7146 26.2482C22.6733 26.2069 22.6502 26.151 22.6502 26.0927V23.8445C22.6488 23.8148 22.6535 23.7852 22.664 23.7573C22.6744 23.7295 22.6904 23.7041 22.711 23.6826C22.7315 23.6611 22.7562 23.644 22.7836 23.6324C22.811 23.6207 22.8404 23.6147 22.8702 23.6147H25.1202C25.1812 23.6147 25.2397 23.6389 25.2828 23.682C25.3259 23.7251 25.3502 23.7836 25.3502 23.8445L25.3202 26.0927ZM25.3202 20.5472C25.3202 20.6081 25.2959 20.6666 25.2528 20.7097C25.2097 20.7528 25.1512 20.777 25.0902 20.777H22.8702C22.8404 20.777 22.811 20.771 22.7836 20.7594C22.7562 20.7477 22.7315 20.7306 22.711 20.7091C22.6904 20.6876 22.6744 20.6622 22.664 20.6344C22.6535 20.6065 22.6488 20.5769 22.6502 20.5472V18.299C22.6502 18.2407 22.6733 18.1848 22.7146 18.1435C22.7559 18.1023 22.8118 18.0792 22.8702 18.0792H25.1202C25.1499 18.0778 25.1796 18.0825 25.2074 18.0929C25.2353 18.1034 25.2607 18.1193 25.2822 18.1399C25.3037 18.1604 25.3208 18.1851 25.3325 18.2125C25.3442 18.2398 25.3502 18.2692 25.3502 18.299L25.3202 20.5472ZM31.6402 37.1739C31.6402 37.2036 31.6342 37.233 31.6225 37.2604C31.6108 37.2877 31.5937 37.3124 31.5722 37.3329C31.5507 37.3535 31.5253 37.3695 31.4974 37.3799C31.4696 37.3904 31.4399 37.395 31.4102 37.3937H29.1902C29.1318 37.3937 29.0759 37.3705 29.0346 37.3293C28.9934 37.2881 28.9702 37.2322 28.9702 37.1739V34.9257C28.9688 34.896 28.9735 34.8663 28.984 34.8385C28.9944 34.8106 29.0104 34.7852 29.031 34.7637C29.0515 34.7422 29.0762 34.7251 29.1036 34.7135C29.131 34.7018 29.1604 34.6958 29.1902 34.6958H31.4402C31.5012 34.6958 31.5597 34.7201 31.6028 34.7632C31.6459 34.8063 31.6702 34.8647 31.6702 34.9257L31.6402 37.1739ZM31.6402 31.6283C31.6402 31.6585 31.6342 31.6884 31.6227 31.7162C31.6111 31.7441 31.5942 31.7695 31.5728 31.7908C31.5514 31.8121 31.5261 31.8291 31.4982 31.8406C31.4703 31.8522 31.4404 31.8581 31.4102 31.8581H29.1902C29.1604 31.8582 29.131 31.8521 29.1036 31.8405C29.0762 31.8288 29.0515 31.8117 29.031 31.7902C29.0104 31.7688 28.9944 31.7433 28.984 31.7155C28.9735 31.6877 28.9688 31.658 28.9702 31.6283V29.3801C28.9702 29.3218 28.9934 29.2659 29.0346 29.2247C29.0759 29.1834 29.1318 29.1603 29.1902 29.1603H31.4402C31.4699 29.1589 31.4996 29.1636 31.5274 29.1741C31.5553 29.1845 31.5807 29.2005 31.6022 29.221C31.6237 29.2416 31.6408 29.2663 31.6525 29.2936C31.6642 29.3209 31.6702 29.3504 31.6702 29.3801L31.6402 31.6283ZM31.6402 26.0927C31.6402 26.1225 31.6342 26.1519 31.6225 26.1792C31.6108 26.2066 31.5937 26.2313 31.5722 26.2518C31.5507 26.2724 31.5253 26.2883 31.4974 26.2988C31.4696 26.3092 31.4399 26.3139 31.4102 26.3126H29.1902C29.1318 26.3126 29.0759 26.2894 29.0346 26.2482C28.9934 26.2069 28.9702 26.151 28.9702 26.0927V23.8445C28.9688 23.8148 28.9735 23.7852 28.984 23.7573C28.9944 23.7295 29.0104 23.7041 29.031 23.6826C29.0515 23.6611 29.0762 23.644 29.1036 23.6324C29.131 23.6207 29.1604 23.6147 29.1902 23.6147H31.4402C31.5012 23.6147 31.5597 23.6389 31.6028 23.682C31.6459 23.7251 31.6702 23.7836 31.6702 23.8445L31.6402 26.0927ZM31.6402 20.5472C31.6402 20.6081 31.6159 20.6666 31.5728 20.7097C31.5297 20.7528 31.4712 20.777 31.4102 20.777H29.1902C29.1604 20.777 29.131 20.771 29.1036 20.7594C29.0762 20.7477 29.0515 20.7306 29.031 20.7091C29.0104 20.6876 28.9944 20.6622 28.984 20.6344C28.9735 20.6065 28.9688 20.5769 28.9702 20.5472V18.299C28.9702 18.2407 28.9934 18.1848 29.0346 18.1435C29.0759 18.1023 29.1318 18.0792 29.1902 18.0792H31.4402C31.4699 18.0778 31.4996 18.0825 31.5274 18.0929C31.5553 18.1034 31.5807 18.1193 31.6022 18.1399C31.6237 18.1604 31.6408 18.1851 31.6525 18.2125C31.6642 18.2398 31.6702 18.2692 31.6702 18.299L31.6402 20.5472ZM38.0002 37.1739C37.9976 37.2331 37.9722 37.289 37.9294 37.3299C37.8865 37.3709 37.8295 37.3937 37.7702 37.3937H35.5102C35.4518 37.3937 35.3959 37.3705 35.3546 37.3293C35.3134 37.2881 35.2902 37.2322 35.2902 37.1739V34.9257C35.2888 34.896 35.2935 34.8663 35.304 34.8385C35.3144 34.8106 35.3304 34.7852 35.351 34.7637C35.3715 34.7422 35.3962 34.7251 35.4236 34.7135C35.451 34.7018 35.4804 34.6958 35.5102 34.6958H37.7602C37.8212 34.6958 37.8797 34.7201 37.9228 34.7632C37.9659 34.8063 37.9902 34.8647 37.9902 34.9257L38.0002 37.1739ZM38.0002 31.6283C38.0002 31.6585 37.9942 31.6884 37.9827 31.7162C37.9711 31.7441 37.9542 31.7695 37.9328 31.7908C37.9114 31.8121 37.8861 31.8291 37.8582 31.8406C37.8303 31.8522 37.8004 31.8581 37.7702 31.8581H35.5102C35.4804 31.8582 35.451 31.8521 35.4236 31.8405C35.3962 31.8288 35.3715 31.8117 35.351 31.7902C35.3304 31.7688 35.3144 31.7433 35.304 31.7155C35.2935 31.6877 35.2888 31.658 35.2902 31.6283V29.3801C35.2902 29.3218 35.3134 29.2659 35.3546 29.2247C35.3959 29.1834 35.4518 29.1603 35.5102 29.1603H37.7602C37.8195 29.1602 37.8765 29.1831 37.9194 29.224C37.9622 29.265 37.9876 29.3209 37.9902 29.3801L38.0002 31.6283ZM38.0002 26.0927C37.9976 26.1519 37.9722 26.2079 37.9294 26.2488C37.8865 26.2898 37.8295 26.3126 37.7702 26.3126H35.5102C35.4518 26.3126 35.3959 26.2894 35.3546 26.2482C35.3134 26.2069 35.2902 26.151 35.2902 26.0927V23.8445C35.2888 23.8148 35.2935 23.7852 35.304 23.7573C35.3144 23.7295 35.3304 23.7041 35.351 23.6826C35.3715 23.6611 35.3962 23.644 35.4236 23.6324C35.451 23.6207 35.4804 23.6147 35.5102 23.6147H37.7602C37.8212 23.6147 37.8797 23.6389 37.9228 23.682C37.9659 23.7251 37.9902 23.7836 37.9902 23.8445L38.0002 26.0927ZM38.0002 20.5472C38.0002 20.6081 37.9759 20.6666 37.9328 20.7097C37.8897 20.7528 37.8312 20.777 37.7702 20.777H35.5102C35.4804 20.777 35.451 20.771 35.4236 20.7594C35.3962 20.7477 35.3715 20.7306 35.351 20.7091C35.3304 20.6876 35.3144 20.6622 35.304 20.6344C35.2935 20.6065 35.2888 20.5769 35.2902 20.5472V18.299C35.2902 18.2407 35.3134 18.1848 35.3546 18.1435C35.3959 18.1023 35.4518 18.0792 35.5102 18.0792H37.7602C37.8195 18.0791 37.8765 18.1019 37.9194 18.1429C37.9622 18.1839 37.9876 18.2398 37.9902 18.299L38.0002 20.5472Z" fill="black"/>
</svg>
