<svg width="48" height="48" viewBox="0 0 48 48" fill="none" xmlns="http://www.w3.org/2000/svg">
<path d="M41.1 13H31.81V11C31.8104 10.2214 31.5081 9.47309 30.967 8.91327C30.4258 8.35345 29.6882 8.02595 28.91 8H19.09C18.3118 8.02595 17.5742 8.35345 17.033 8.91327C16.4919 9.47309 16.1896 10.2214 16.19 11V13H6.90001C6.5122 13.0052 6.12925 13.0871 5.77322 13.2409C5.41719 13.3948 5.09512 13.6175 4.82556 13.8964C4.556 14.1752 4.34428 14.5047 4.2026 14.8657C4.06091 15.2267 3.99206 15.6122 4.00001 16V37.75C3.99957 38.5286 4.30188 39.2769 4.84304 39.8367C5.3842 40.3966 6.12182 40.724 6.90001 40.75H41.1C41.8782 40.724 42.6158 40.3966 43.157 39.8367C43.6981 39.2769 44.0004 38.5286 44 37.75V16C44.008 15.6122 43.9391 15.2267 43.7974 14.8657C43.6557 14.5047 43.444 14.1752 43.1744 13.8964C42.9049 13.6175 42.5828 13.3948 42.2268 13.2409C41.8708 13.0871 41.4878 13.0052 41.1 13ZM27.7 28.84C27.3512 29.5964 26.7502 30.208 26 30.57C25.2063 30.9976 24.2962 31.1584 23.4041 31.0288C22.5119 30.8991 21.6852 30.4859 21.046 29.8501C20.4069 29.2143 19.9893 28.3898 19.8549 27.4983C19.7206 26.6069 19.8766 25.6959 20.3 24.9C20.6516 24.1455 21.2517 23.5347 22 23.17C22.7939 22.7502 23.7013 22.5953 24.5895 22.7279C25.4777 22.8605 26.3003 23.2736 26.937 23.907C27.5737 24.5403 27.9912 25.3607 28.1285 26.2482C28.2657 27.1357 28.1156 28.0439 27.7 28.84Z" fill="black"/>
</svg>
