<svg width="48" height="48" viewBox="0 0 48 48" fill="none" xmlns="http://www.w3.org/2000/svg">
<path fill-rule="evenodd" clip-rule="evenodd" d="M21.8346 32.0662C22.5212 32.3494 23.2573 32.4935 24.0001 32.49C24.9205 32.4922 25.8297 32.2872 26.6601 31.89C27.733 31.3909 28.5965 30.5309 29.1001 29.46C29.6426 28.3883 29.8327 27.1726 29.6433 25.9865C29.4538 24.8003 28.8945 23.7043 28.0451 22.8549C27.1958 22.0055 26.0998 21.4462 24.9136 21.2568C23.7274 21.0673 22.5117 21.2574 21.4401 21.8C20.3671 22.2991 19.5036 23.1591 19.0001 24.23C18.4585 25.2989 18.2637 26.5101 18.443 27.6949C18.6222 28.8797 19.1665 29.9791 20.0001 30.84C20.5244 31.3661 21.1479 31.7829 21.8346 32.0662ZM22.5801 24.33C23.024 24.1186 23.5084 24.006 24.0001 24C24.7599 23.997 25.4899 24.2955 26.0301 24.83C26.4624 25.2813 26.7429 25.8564 26.8326 26.4749C26.9222 27.0934 26.8165 27.7245 26.5301 28.28C26.3062 28.7626 25.9206 29.1517 25.4401 29.38C24.8846 29.6664 24.2535 29.7722 23.635 29.6825C23.0165 29.5929 22.4414 29.3123 21.9901 28.88C21.5577 28.4287 21.2772 27.8536 21.1875 27.2351C21.0979 26.6166 21.2036 25.9855 21.4901 25.43C21.7139 24.9474 22.0995 24.5583 22.5801 24.33Z" fill="black"/>
<path fill-rule="evenodd" clip-rule="evenodd" d="M6.50008 40.56H41.5001C42.1702 40.5495 42.8091 40.2745 43.2774 39.7949C43.7457 39.3154 44.0054 38.6702 44.0001 38V15.71C44.0054 15.3764 43.9449 15.0451 43.8221 14.7349C43.6993 14.4247 43.5167 14.1417 43.2845 13.9021C43.0523 13.6626 42.7753 13.4711 42.4691 13.3386C42.1629 13.2061 41.8336 13.1352 41.5001 13.13H31.5001V10.58C31.5054 10.2464 31.4449 9.91509 31.3221 9.60489C31.1993 9.2947 31.0167 9.01173 30.7845 8.77214C30.5524 8.53256 30.2753 8.34106 29.9691 8.20857C29.6629 8.07608 29.3336 8.00521 29.0001 8H19.0001C18.6665 8.00521 18.3372 8.07608 18.0311 8.20857C17.7249 8.34106 17.4478 8.53256 17.2156 8.77214C16.9835 9.01173 16.8008 9.2947 16.678 9.60489C16.5553 9.91509 16.4948 10.2464 16.5001 10.58V13.13H6.50008C6.16651 13.1352 5.83723 13.2061 5.53105 13.3386C5.22488 13.4711 4.9478 13.6626 4.71565 13.9021C4.48349 14.1417 4.30081 14.4247 4.17803 14.7349C4.05525 15.0451 3.99478 15.3764 4.00008 15.71V38C3.99472 38.6702 4.25449 39.3154 4.72277 39.7949C5.19106 40.2745 5.82991 40.5495 6.50008 40.56ZM41.2101 37.77H6.79008L6.77008 15.92H16.7701C17.1036 15.9148 17.4329 15.8439 17.7391 15.7114C18.0453 15.5789 18.3223 15.3874 18.5545 15.1479C18.7867 14.9083 18.9693 14.6253 19.0921 14.3151C19.2149 14.0049 19.2754 13.6736 19.2701 13.34V10.79H28.7101V13.34C28.7048 13.6736 28.7652 14.0049 28.888 14.3151C29.0108 14.6253 29.1935 14.9083 29.4256 15.1479C29.6578 15.3874 29.9349 15.5789 30.2411 15.7114C30.5472 15.8439 30.8765 15.9148 31.2101 15.92H41.2101V37.77Z" fill="black"/>
</svg>
