<svg width="48" height="48" viewBox="0 0 48 48" fill="none" xmlns="http://www.w3.org/2000/svg">
<path d="M39.0412 21.568L12.1795 4.45421C11.732 4.17532 11.2188 4.01924 10.6917 4.00167C10.1647 3.9841 9.64227 4.10566 9.17711 4.35413C8.71568 4.59789 8.3288 4.96194 8.05746 5.4077C7.78612 5.85347 7.64044 6.36434 7.63586 6.88618V41.1138C7.63752 41.6326 7.77869 42.1414 8.04457 42.5869C8.31045 43.0324 8.69126 43.3981 9.14708 43.6459C9.61224 43.8943 10.1346 44.0159 10.6617 43.9983C11.1888 43.9808 11.7019 43.8247 12.1495 43.5458L39.0112 26.432C39.425 26.1752 39.7664 25.817 40.0031 25.3915C40.2398 24.9659 40.3641 24.487 40.3641 24C40.3641 23.513 40.2398 23.0341 40.0031 22.6085C39.7664 22.183 39.425 21.8248 39.0112 21.568H39.0412Z" fill="black"/>
</svg>
