<svg width="48" height="48" viewBox="0 0 48 48" fill="none" xmlns="http://www.w3.org/2000/svg">
<path d="M24 40.56C23.5806 40.5592 23.1682 40.4524 22.801 40.2496C22.4339 40.0468 22.124 39.7546 21.9 39.4L4.39995 11.93C4.15188 11.5391 4.01356 11.0887 3.99948 10.626C3.98541 10.1632 4.0961 9.70523 4.31995 9.3C4.53419 8.90844 4.84935 8.58137 5.2327 8.35276C5.61606 8.12416 6.05362 8.00235 6.49995 8H41.5C41.9463 8.00235 42.3839 8.12416 42.7672 8.35276C43.1506 8.58137 43.4657 8.90844 43.68 9.3C43.9007 9.70618 44.0097 10.1637 43.9956 10.6258C43.9816 11.0879 43.845 11.538 43.6 11.93L26.1 39.4C25.8759 39.7546 25.566 40.0468 25.1989 40.2496C24.8318 40.4524 24.4194 40.5592 24 40.56ZM6.99995 10.79L24 37.5L41 10.79H6.99995Z" fill="black"/>
</svg>
