<svg width="48" height="48" viewBox="0 0 48 48" fill="none" xmlns="http://www.w3.org/2000/svg">
<path d="M21.918 12.7653C21.5355 12.5534 21.1028 12.4489 20.6657 12.463C20.2287 12.4771 19.8036 12.6092 19.4355 12.8454L5.0911 21.9846C4.7564 22.2005 4.48116 22.4969 4.29057 22.8466C4.09998 23.1964 4.00012 23.5883 4.00012 23.9866C4.00012 24.3849 4.09998 24.7769 4.29057 25.1266C4.48116 25.4763 4.7564 25.7727 5.0911 25.9886L19.4355 35.1278C19.8043 35.362 20.2292 35.4929 20.6658 35.507C21.1025 35.5211 21.5349 35.4178 21.918 35.2079C22.2957 35.0017 22.6111 34.6978 22.8313 34.328C23.0514 33.9582 23.1681 33.5361 23.1693 33.1058V14.8674C23.1681 14.4371 23.0514 14.015 22.8313 13.6452C22.6111 13.2754 22.2957 12.9715 21.918 12.7653Z" fill="black"/>
<path d="M42.9091 21.9846L28.5647 12.8454C28.1967 12.6092 27.7716 12.4771 27.3345 12.463C26.8974 12.4489 26.4647 12.5534 26.0822 12.7653C25.7045 12.9715 25.3891 13.2754 25.169 13.6452C24.9489 14.015 24.8321 14.4371 24.831 14.8674V33.1358C24.8321 33.5662 24.9489 33.9883 25.169 34.3581C25.3891 34.7279 25.7045 35.0317 26.0822 35.2379C26.4654 35.4478 26.8978 35.5511 27.3344 35.537C27.771 35.5229 28.1959 35.392 28.5647 35.1579L42.9091 26.0187C43.2438 25.8028 43.5191 25.5064 43.7097 25.1566C43.9003 24.8069 44.0001 24.4149 44.0001 24.0166C44.0001 23.6183 43.9003 23.2264 43.7097 22.8767C43.5191 22.5269 43.2438 22.2305 42.9091 22.0146V21.9846Z" fill="black"/>
</svg>
