<svg width="48" height="48" viewBox="0 0 48 48" fill="none" xmlns="http://www.w3.org/2000/svg">
<path d="M38 44C37.5089 43.996 37.0282 43.8577 36.61 43.6L9.16003 26.1C8.80467 25.8767 8.51178 25.567 8.30877 25.1997C8.10576 24.8324 7.99927 24.4196 7.99927 24C7.99927 23.5803 8.10576 23.1675 8.30877 22.8003C8.51178 22.433 8.80467 22.1232 9.16003 21.9L36.62 4.39998C37.0136 4.15403 37.4654 4.01703 37.9292 4.00297C38.3931 3.98892 38.8523 4.09831 39.26 4.31998C39.6516 4.53422 39.9787 4.84938 40.2073 5.23273C40.4359 5.61608 40.5577 6.05364 40.56 6.49998V41.5C40.5577 41.9463 40.4359 42.3839 40.2073 42.7672C39.9787 43.1506 39.6516 43.4657 39.26 43.68C38.8733 43.89 38.4401 44 38 44ZM11.06 24L37.77 41V6.99998L11.06 24Z" fill="black"/>
</svg>
