<svg width="48" height="48" viewBox="0 0 48 48" fill="none" xmlns="http://www.w3.org/2000/svg">
<path fill-rule="evenodd" clip-rule="evenodd" d="M14.6679 22.6691H33.3475C33.7013 22.6657 34.048 22.5685 34.352 22.3875C34.6561 22.2065 34.9067 21.948 35.0783 21.6385C35.2583 21.3207 35.3478 20.9597 35.3372 20.5946C35.3267 20.2296 35.2164 19.8743 35.0183 19.5675L25.6735 4.89996C25.4913 4.62338 25.2432 4.39637 24.9516 4.2393C24.6599 4.08223 24.3339 4 24.0027 4C23.6714 4 23.3454 4.08223 23.0538 4.2393C22.7621 4.39637 22.5141 4.62338 22.3318 4.89996L12.997 19.5975C12.7974 19.9034 12.6854 20.2582 12.673 20.6233C12.6607 20.9883 12.7485 21.3498 12.927 21.6686C13.1033 21.9739 13.3571 22.2273 13.6629 22.403C13.9686 22.5787 14.3153 22.6705 14.6679 22.6691ZM31.8967 19.8776H16.0986L24.0027 7.47128L31.8967 19.8776Z" fill="black"/>
<path fill-rule="evenodd" clip-rule="evenodd" d="M23.0505 43.7517C23.3423 43.9124 23.6695 43.9978 24.0027 44C24.3358 43.9978 24.6631 43.9124 24.9548 43.7517C25.2466 43.5909 25.4936 43.3599 25.6735 43.0795L35.0183 28.412C35.2164 28.1051 35.3267 27.7499 35.3372 27.3848C35.3478 27.0198 35.2583 26.6588 35.0783 26.3409C34.9029 26.037 34.6506 25.7846 34.3468 25.609C34.043 25.4334 33.6984 25.3408 33.3474 25.3404H14.6579C14.3053 25.339 13.9585 25.4308 13.6528 25.6065C13.3471 25.7822 13.0933 26.0356 12.917 26.3409C12.7385 26.6597 12.6507 27.0212 12.663 27.3862C12.6754 27.7513 12.7874 28.1061 12.987 28.412L22.3318 43.0795C22.5117 43.3599 22.7587 43.5909 23.0505 43.7517ZM24.0027 40.4982L16.0986 28.1018H31.8967L24.0027 40.4982Z" fill="black"/>
</svg>
