<svg width="48" height="48" viewBox="0 0 48 48" fill="none" xmlns="http://www.w3.org/2000/svg">
<path d="M43.6343 9.1544C43.3867 8.69882 43.0211 8.31821 42.5759 8.05247C42.1307 7.78673 41.6221 7.64564 41.1036 7.64398H6.89403C6.37551 7.64564 5.86699 7.78673 5.42174 8.05247C4.97649 8.31821 4.61092 8.69882 4.36332 9.1544C4.10889 9.61746 3.98391 10.1405 4.00151 10.6686C4.01911 11.1966 4.17865 11.7102 4.46335 12.1552L21.5681 39.0128C21.8266 39.424 22.1851 39.763 22.6102 39.9979C23.0353 40.2328 23.5131 40.3561 23.9988 40.3561C24.4845 40.3561 24.9623 40.2328 25.3874 39.9979C25.8125 39.763 26.1711 39.424 26.4295 39.0128L43.5343 12.1953C43.8205 11.7433 43.9807 11.2231 43.9983 10.6884C44.0158 10.1538 43.8902 9.62417 43.6343 9.1544Z" fill="black"/>
</svg>
