<svg width="48" height="48" viewBox="0 0 48 48" fill="none" xmlns="http://www.w3.org/2000/svg">
<path d="M43.5343 35.8198L26.4295 8.97225C26.1711 8.56101 25.8125 8.22206 25.3874 7.98713C24.9623 7.7522 24.4845 7.62897 23.9988 7.62897C23.5131 7.62897 23.0353 7.7522 22.6102 7.98713C22.1851 8.22206 21.8266 8.56101 21.5681 8.97225L4.46335 35.8298C4.17865 36.2749 4.01911 36.7884 4.00151 37.3165C3.98391 37.8445 4.10889 38.3676 4.36332 38.8306C4.60694 39.2918 4.9708 39.6785 5.41634 39.9497C5.86187 40.2209 6.37247 40.3665 6.89403 40.371H41.1036C41.6221 40.3694 42.1307 40.2283 42.5759 39.9626C43.0211 39.6968 43.3867 39.3162 43.6343 38.8606C43.8902 38.3909 44.0158 37.8612 43.9983 37.3266C43.9807 36.7919 43.8205 36.2717 43.5343 35.8198Z" fill="black"/>
</svg>
