<svg width="48" height="48" viewBox="0 0 48 48" fill="none" xmlns="http://www.w3.org/2000/svg">
<path fill-rule="evenodd" clip-rule="evenodd" d="M19.588 35.023C19.914 35.2294 20.2927 35.3371 20.6785 35.3332C21.0214 35.3352 21.359 35.249 21.659 35.083C21.9629 34.9076 22.2153 34.6553 22.3909 34.3515C22.5665 34.0477 22.6592 33.7031 22.6595 33.3521V14.6626C22.6609 14.31 22.5691 13.9633 22.3934 13.6576C22.2177 13.3519 21.9644 13.098 21.659 12.9217C21.3403 12.7432 20.9788 12.6554 20.6137 12.6678C20.2486 12.6801 19.8939 12.7922 19.588 12.9918L4.92047 22.3365C4.64009 22.5164 4.40905 22.7634 4.24832 23.0552C4.08758 23.347 4.00223 23.6743 4 24.0074C4.00223 24.3405 4.08758 24.6678 4.24832 24.9596C4.40905 25.2513 4.64009 25.4984 4.92047 25.6782L19.588 35.023ZM19.8981 31.9014L7.50179 24.0074L19.8981 16.1033V31.9014Z" fill="black"/>
<path fill-rule="evenodd" clip-rule="evenodd" d="M26.3415 35.083C26.6474 35.2524 26.9924 35.3386 27.342 35.3332C27.7278 35.3371 28.1065 35.2294 28.4326 35.023L43.1 25.6782C43.3766 25.496 43.6036 25.2479 43.7607 24.9563C43.9178 24.6647 44 24.3386 44 24.0074C44 23.6762 43.9178 23.3501 43.7607 23.0585C43.6036 22.7669 43.3766 22.5188 43.1 22.3365L28.4125 13.0018C28.1066 12.8022 27.7519 12.6901 27.3868 12.6778C27.0217 12.6654 26.6602 12.7533 26.3415 12.9317C26.0361 13.108 25.7828 13.3619 25.6071 13.6676C25.4314 13.9733 25.3396 14.32 25.341 14.6726V33.3522C25.3413 33.7031 25.434 34.0477 25.6096 34.3515C25.7852 34.6553 26.0376 34.9076 26.3415 35.083ZM28.1224 31.9014V16.1034L40.5287 24.0074L28.1224 31.9014Z" fill="black"/>
</svg>
