<svg width="48" height="48" viewBox="0 0 48 48" fill="none" xmlns="http://www.w3.org/2000/svg">
<path d="M10.55 44C10.1133 43.9984 9.68378 43.8884 9.3 43.68C8.90844 43.4658 8.58137 43.1506 8.35276 42.7673C8.12416 42.3839 8.00235 41.9464 8 41.5V6.50001C8.00235 6.05368 8.12416 5.61612 8.35276 5.23276C8.58137 4.84941 8.90844 4.53425 9.3 4.32001C9.70523 4.09616 10.1632 3.98547 10.626 3.99955C11.0887 4.01362 11.5391 4.15195 11.93 4.40001L39.4 21.9C39.7554 22.1233 40.0482 22.433 40.2513 22.8003C40.4543 23.1676 40.5608 23.5804 40.5608 24C40.5608 24.4197 40.4543 24.8325 40.2513 25.1997C40.0482 25.567 39.7554 25.8768 39.4 26.1L11.93 43.6C11.516 43.8588 11.0382 43.9974 10.55 44ZM10.79 7.00001V41L37.5 24L10.79 7.00001Z" fill="black"/>
</svg>
