<svg width="48" height="48" viewBox="0 0 48 48" fill="none" xmlns="http://www.w3.org/2000/svg">
<path d="M35.1588 19.4354L26.0196 5.09098C25.8037 4.75627 25.5073 4.48104 25.1575 4.29045C24.8078 4.09986 24.4159 4 24.0176 4C23.6193 4 23.2273 4.09986 22.8776 4.29045C22.5278 4.48104 22.2315 4.75627 22.0155 5.09098L12.8463 19.4354C12.6102 19.8034 12.478 20.2285 12.4639 20.6656C12.4498 21.1027 12.5543 21.5354 12.7662 21.9179C12.9716 22.2963 13.2753 22.6123 13.6453 22.8325C14.0153 23.0528 14.4378 23.1691 14.8684 23.1692H33.1367C33.5671 23.168 33.9892 23.0512 34.359 22.8311C34.7288 22.611 35.0326 22.2956 35.2388 21.9179C35.4477 21.5344 35.5504 21.1022 35.5363 20.6658C35.5222 20.2293 35.3919 19.8046 35.1588 19.4354Z" fill="black"/>
<path d="M35.2388 26.0821C35.0326 25.7044 34.7288 25.389 34.359 25.1689C33.9892 24.9487 33.5671 24.832 33.1367 24.8308H14.8684C14.438 24.832 14.0159 24.9487 13.6461 25.1689C13.2763 25.389 12.9724 25.7044 12.7662 26.0821C12.5543 26.4646 12.4498 26.8973 12.4639 27.3344C12.478 27.7715 12.6102 28.1966 12.8463 28.5646L21.9855 42.909C22.2014 43.2437 22.4978 43.519 22.8475 43.7095C23.1973 43.9001 23.5892 44 23.9875 44C24.3858 44 24.7778 43.9001 25.1275 43.7095C25.4773 43.519 25.7736 43.2437 25.9895 42.909L35.1287 28.5646C35.3665 28.1981 35.5021 27.7748 35.5215 27.3383C35.5408 26.9019 35.4433 26.4682 35.2388 26.0821Z" fill="black"/>
</svg>
