<svg width="48" height="48" viewBox="0 0 48 48" fill="none" xmlns="http://www.w3.org/2000/svg">
<path d="M38.8849 4.36355C38.4217 4.10905 37.8985 3.98403 37.3703 4.00163C36.8421 4.01924 36.3284 4.17882 35.8832 4.46361L8.98784 21.5734C8.57648 21.8319 8.23743 22.1905 8.00243 22.6158C7.76743 23.041 7.64417 23.5189 7.64417 24.0048C7.64417 24.4906 7.76743 24.9685 8.00243 25.3937C8.23743 25.819 8.57648 26.1776 8.98784 26.4361L35.8432 43.5459C36.2906 43.8247 36.8037 43.9808 37.3306 43.9983C37.8575 44.0159 38.3798 43.8944 38.8449 43.646C39.3006 43.3983 39.6813 43.0326 39.9471 42.5872C40.2129 42.1418 40.3541 41.6332 40.3557 41.1145V6.89499C40.358 6.38033 40.2229 5.87438 39.9644 5.42937C39.7058 4.98436 39.3332 4.61643 38.8849 4.36355Z" fill="black"/>
</svg>
