<svg width="48" height="48" viewBox="0 0 48 48" fill="none" xmlns="http://www.w3.org/2000/svg">
<path d="M41.5 40.56H6.50005C6.05248 40.5578 5.61381 40.4349 5.23018 40.2044C4.84655 39.9738 4.53214 39.6441 4.32005 39.25C4.09926 38.8438 3.99032 38.3863 4.00438 37.9242C4.01844 37.4621 4.15498 37.012 4.40005 36.62L21.9 9.16003C22.1233 8.80467 22.433 8.51178 22.8003 8.30877C23.1676 8.10576 23.5804 7.99927 24 7.99927C24.4197 7.99927 24.8325 8.10576 25.1998 8.30877C25.5671 8.51178 25.8768 8.80467 26.1 9.16003L43.6 36.62C43.848 37.0128 43.9862 37.4648 44.0002 37.9291C44.0143 38.3934 43.9037 38.853 43.68 39.26C43.4658 39.6516 43.1507 39.9787 42.7673 40.2073C42.3839 40.4359 41.9464 40.5577 41.5 40.56ZM7.00005 37.77H41L24 11.06L7.00005 37.77Z" fill="black"/>
</svg>
