<svg width="48" height="48" viewBox="0 0 48 48" fill="none" xmlns="http://www.w3.org/2000/svg">
<path d="M40.7306 29.9148L43.9645 14.0636C44.0229 13.739 44.0086 13.4056 43.9226 13.0872C43.8365 12.7689 43.6809 12.4736 43.467 12.2227C43.2642 11.9725 43.0078 11.7711 42.7168 11.6333C42.4257 11.4955 42.1074 11.4249 41.7853 11.4267H13.5258L13.3168 10.2027C13.1989 9.4883 12.831 8.83898 12.2787 8.3706C11.7265 7.90221 11.0259 7.64521 10.3018 7.64545H6.81907C6.45717 7.62327 6.09455 7.6754 5.75355 7.79864C5.41256 7.92187 5.10039 8.11361 4.83628 8.36203C4.57217 8.61045 4.3617 8.9103 4.21784 9.24312C4.07397 9.57594 3.99976 9.93469 3.99976 10.2973C3.99976 10.6599 4.07397 11.0186 4.21784 11.3514C4.3617 11.6842 4.57217 11.9841 4.83628 12.2325C5.10039 12.4809 5.41256 12.6727 5.75355 12.7959C6.09455 12.9191 6.45717 12.9713 6.81907 12.9491H8.41116L12.2123 34.9299C12.2123 35.0592 12.2819 35.1886 12.3217 35.308C12.1378 35.7529 12.0431 36.2296 12.0431 36.711C12.0266 37.6058 12.3455 38.4743 12.9372 39.1457C13.5288 39.8171 14.3504 40.2427 15.2401 40.3388C16.1298 40.4349 17.0233 40.1945 17.7446 39.6649C18.466 39.1353 18.963 38.3549 19.1379 37.4772H34.7801C34.9502 38.3378 35.431 39.1057 36.1309 39.6346C36.8307 40.1635 37.7007 40.4164 38.5751 40.345C39.4494 40.2737 40.2669 39.8832 40.8718 39.2479C41.4767 38.6125 41.8266 37.7769 41.855 36.9001C42.1686 36.6524 42.4214 36.3362 42.5939 35.9757C42.7664 35.6152 42.854 35.22 42.8501 34.8204C42.8501 34.472 42.7813 34.127 42.6476 33.8052C42.514 33.4834 42.3181 33.1912 42.0713 32.9453C41.8245 32.6994 41.5315 32.5046 41.2092 32.3722C40.8869 32.2398 40.5417 32.1723 40.1933 32.1736H17.098L17.0084 31.6661H38.6012C39.1031 31.6626 39.5885 31.4866 39.9762 31.1678C40.3639 30.849 40.6302 30.4066 40.7306 29.9148ZM30.4119 23.3176H28.163V25.5565C28.1813 25.7995 28.1492 26.0438 28.0687 26.2739C27.9882 26.504 27.8611 26.715 27.6953 26.8937C27.5295 27.0724 27.3286 27.215 27.1052 27.3125C26.8817 27.41 26.6406 27.4603 26.3968 27.4603C26.153 27.4603 25.9119 27.41 25.6884 27.3125C25.465 27.215 25.2641 27.0724 25.0983 26.8937C24.9325 26.715 24.8054 26.504 24.7249 26.2739C24.6444 26.0438 24.6123 25.7995 24.6306 25.5565V23.3176H22.3818C21.912 23.3176 21.4615 23.131 21.1293 22.7988C20.7972 22.4666 20.6105 22.0161 20.6105 21.5464C20.6105 21.0766 20.7972 20.6261 21.1293 20.294C21.4615 19.9618 21.912 19.7752 22.3818 19.7752H24.6306V17.5363C24.6123 17.2932 24.6444 17.049 24.7249 16.8189C24.8054 16.5888 24.9325 16.3777 25.0983 16.199C25.2641 16.0203 25.465 15.8777 25.6884 15.7803C25.9119 15.6828 26.153 15.6324 26.3968 15.6324C26.6406 15.6324 26.8817 15.6828 27.1052 15.7803C27.3286 15.8777 27.5295 16.0203 27.6953 16.199C27.8611 16.3777 27.9882 16.5888 28.0687 16.8189C28.1492 17.049 28.1813 17.2932 28.163 17.5363V19.7752H30.4119C30.8816 19.7752 31.3321 19.9618 31.6643 20.294C31.9964 20.6261 32.1831 21.0766 32.1831 21.5464C32.1831 22.0161 31.9964 22.4666 31.6643 22.7988C31.3321 23.131 30.8816 23.3176 30.4119 23.3176Z" fill="black"/>
</svg>
