<svg width="48" height="48" viewBox="0 0 48 48" fill="none" xmlns="http://www.w3.org/2000/svg">
<path d="M40.7306 29.9148L43.9645 14.0636C44.0229 13.739 44.0086 13.4056 43.9226 13.0872C43.8365 12.7689 43.6809 12.4736 43.467 12.2227C43.2642 11.9725 43.0078 11.7711 42.7168 11.6333C42.4257 11.4955 42.1074 11.4249 41.7853 11.4267H13.5258L13.3168 10.2027C13.1989 9.4883 12.831 8.83898 12.2787 8.3706C11.7265 7.90221 11.0259 7.64521 10.3018 7.64545H6.81907C6.45717 7.62327 6.09455 7.6754 5.75355 7.79864C5.41256 7.92187 5.10039 8.11361 4.83628 8.36203C4.57217 8.61045 4.3617 8.9103 4.21784 9.24312C4.07397 9.57594 3.99976 9.93469 3.99976 10.2973C3.99976 10.6599 4.07397 11.0186 4.21784 11.3514C4.3617 11.6842 4.57217 11.9841 4.83628 12.2325C5.10039 12.4809 5.41256 12.6727 5.75355 12.7959C6.09455 12.9191 6.45717 12.9713 6.81907 12.9491H8.41116L12.2123 34.9299C12.2123 35.0592 12.2819 35.1886 12.3217 35.308C12.1378 35.7529 12.0431 36.2296 12.0431 36.711C12.0266 37.6058 12.3455 38.4743 12.9372 39.1457C13.5288 39.8171 14.3504 40.2427 15.2401 40.3388C16.1298 40.4349 17.0233 40.1945 17.7446 39.6649C18.466 39.1353 18.963 38.3549 19.1379 37.4772H34.7801C34.9502 38.3378 35.431 39.1057 36.1309 39.6346C36.8307 40.1635 37.7007 40.4164 38.5751 40.345C39.4494 40.2737 40.2669 39.8832 40.8718 39.2479C41.4767 38.6125 41.8266 37.7769 41.855 36.9001C42.1686 36.6524 42.4214 36.3362 42.5939 35.9757C42.7664 35.6152 42.854 35.22 42.8501 34.8204C42.8501 34.472 42.7813 34.127 42.6476 33.8052C42.514 33.4834 42.3181 33.1912 42.0713 32.9453C41.8245 32.6994 41.5315 32.5046 41.2092 32.3722C40.8869 32.2398 40.5417 32.1723 40.1933 32.1736H17.098L17.0084 31.6661H38.6012C39.1031 31.6626 39.5885 31.4866 39.9762 31.1678C40.3639 30.849 40.6302 30.4066 40.7306 29.9148ZM31.0288 24.0042L27.9043 27.1286C27.6023 27.4328 27.2125 27.6347 26.7898 27.7058C26.6673 27.716 26.5442 27.716 26.4217 27.7058C26.3025 27.7156 26.1827 27.7156 26.0635 27.7058C25.6408 27.6347 25.251 27.4328 24.949 27.1286L21.8245 24.0042C21.4933 23.673 21.3073 23.2238 21.3073 22.7554C21.3073 22.5235 21.3529 22.2938 21.4417 22.0795C21.5304 21.8653 21.6605 21.6706 21.8245 21.5066C21.9885 21.3426 22.1832 21.2125 22.3975 21.1237C22.6117 21.035 22.8414 20.9893 23.0733 20.9893C23.5417 20.9893 23.9909 21.1754 24.3221 21.5066L24.6604 21.8349V17.1283C24.6422 16.8852 24.6743 16.641 24.7548 16.4109C24.8353 16.1808 24.9624 15.9698 25.1282 15.7911C25.294 15.6123 25.4949 15.4698 25.7183 15.3723C25.9417 15.2748 26.1829 15.2245 26.4267 15.2245C26.6704 15.2245 26.9116 15.2748 27.135 15.3723C27.3584 15.4698 27.5593 15.6123 27.7251 15.7911C27.8909 15.9698 28.018 16.1808 28.0985 16.4109C28.179 16.641 28.2111 16.8852 28.1929 17.1283V21.8349L28.5312 21.5066C28.6942 21.3408 28.8886 21.2091 29.103 21.1193C29.3174 21.0294 29.5475 20.9831 29.78 20.9831C30.0125 20.9831 30.2426 21.0294 30.457 21.1193C30.6714 21.2091 30.8658 21.3408 31.0288 21.5066C31.3587 21.8384 31.5439 22.2874 31.5439 22.7554C31.5439 23.2233 31.3587 23.6723 31.0288 24.0042Z" fill="black"/>
</svg>
