<svg width="48" height="48" viewBox="0 0 48 48" fill="none" xmlns="http://www.w3.org/2000/svg">
<path d="M40.7306 29.9148L43.9645 14.0636C44.0229 13.739 44.0086 13.4056 43.9226 13.0872C43.8365 12.7689 43.6809 12.4736 43.467 12.2227C43.2642 11.9725 43.0078 11.7711 42.7168 11.6333C42.4257 11.4955 42.1074 11.4249 41.7854 11.4267H13.5258L13.3168 10.2027C13.1989 9.4883 12.831 8.83898 12.2788 8.3706C11.7265 7.90221 11.0259 7.64521 10.3018 7.64545H6.81908C6.45718 7.62327 6.09456 7.6754 5.75356 7.79864C5.41256 7.92187 5.1004 8.11361 4.83629 8.36203C4.57218 8.61045 4.36171 8.9103 4.21784 9.24312C4.07398 9.57594 3.99976 9.93469 3.99976 10.2973C3.99976 10.6599 4.07398 11.0186 4.21784 11.3514C4.36171 11.6842 4.57218 11.9841 4.83629 12.2325C5.1004 12.4809 5.41256 12.6727 5.75356 12.7959C6.09456 12.9191 6.45718 12.9713 6.81908 12.9491H8.41117L12.2123 34.9299C12.2123 35.0592 12.2819 35.1886 12.3217 35.308C12.1378 35.7529 12.0431 36.2296 12.0431 36.711C12.0266 37.6058 12.3455 38.4743 12.9372 39.1457C13.5288 39.8171 14.3504 40.2427 15.2401 40.3388C16.1298 40.4349 17.0233 40.1945 17.7446 39.6649C18.466 39.1353 18.963 38.3549 19.1379 37.4772H34.7802C34.9502 38.3378 35.431 39.1057 36.1309 39.6346C36.8307 40.1635 37.7007 40.4164 38.5751 40.345C39.4494 40.2737 40.2669 39.8832 40.8718 39.2479C41.4767 38.6125 41.8267 37.7769 41.855 36.9001C42.1686 36.6524 42.4214 36.3362 42.5939 35.9757C42.7664 35.6152 42.854 35.22 42.8501 34.8204C42.8501 34.472 42.7813 34.127 42.6476 33.8052C42.514 33.4834 42.3181 33.1912 42.0713 32.9453C41.8245 32.6994 41.5315 32.5046 41.2092 32.3722C40.8869 32.2398 40.5417 32.1723 40.1933 32.1736H17.098L17.0085 31.6661H38.6012C39.1031 31.6626 39.5886 31.4866 39.9762 31.1678C40.3639 30.849 40.6302 30.4066 40.7306 29.9148Z" fill="black"/>
</svg>
