<svg width="48" height="48" viewBox="0 0 48 48" fill="none" xmlns="http://www.w3.org/2000/svg">
<path d="M40.7316 29.9149L43.9656 14.0534C44.0231 13.7304 44.0084 13.3987 43.9223 13.0821C43.8363 12.7655 43.6811 12.4719 43.468 12.2225C43.2648 11.9728 43.0083 11.7718 42.7173 11.634C42.4263 11.4963 42.1083 11.4254 41.7863 11.4264H13.5361L13.3172 10.1826C13.1932 9.47262 12.823 8.82909 12.2716 8.36503C11.7201 7.90097 11.0228 7.64608 10.3021 7.64513H6.81937C6.45746 7.62295 6.09484 7.67508 5.75383 7.79832C5.41283 7.92156 5.10066 8.11329 4.83654 8.36172C4.57242 8.61014 4.36195 8.91 4.21809 9.24283C4.07422 9.57566 4 9.93441 4 10.297C4 10.6596 4.07422 11.0184 4.21809 11.3512C4.36195 11.684 4.57242 11.9839 4.83654 12.2323C5.10066 12.4807 5.41283 12.6725 5.75383 12.7957C6.09484 12.9189 6.45746 12.9711 6.81937 12.9489H8.41149L12.2226 34.9202C12.244 35.0523 12.2773 35.1822 12.3221 35.3082C12.1382 35.7531 12.0435 36.2299 12.0435 36.7113C12.027 37.6061 12.3459 38.4746 12.9376 39.146C13.5293 39.8174 14.3508 40.2431 15.2406 40.3391C16.1303 40.4352 17.0238 40.1948 17.7452 39.6652C18.4665 39.1356 18.9636 38.3552 19.1384 37.4775H34.781C34.9511 38.3381 35.4319 39.106 36.1318 39.6349C36.8316 40.1638 37.7017 40.4167 38.576 40.3454C39.4503 40.2741 40.2679 39.8835 40.8728 39.2482C41.4777 38.6128 41.8276 37.7771 41.856 36.9004C42.1696 36.6527 42.4224 36.3365 42.5949 35.976C42.7674 35.6155 42.855 35.2203 42.8511 34.8207C42.8511 34.4722 42.7823 34.1272 42.6486 33.8054C42.515 33.4836 42.3191 33.1914 42.0723 32.9455C41.8255 32.6996 41.5325 32.5048 41.2102 32.3724C40.8879 32.2399 40.5427 32.1724 40.1942 32.1737H17.0985L17.009 31.6663H38.6021C39.104 31.6627 39.5895 31.4868 39.9772 31.1679C40.3648 30.8491 40.6312 30.4067 40.7316 29.9149ZM32.4227 19.3373L28.6712 23.0887C28.9025 22.9973 29.1489 22.95 29.3976 22.9494C29.8718 22.945 30.335 23.0919 30.72 23.3689C31.1049 23.6458 31.3915 24.0382 31.5381 24.4892C31.6847 24.9401 31.6836 25.4261 31.5351 25.8764C31.3866 26.3267 31.0983 26.718 30.7122 26.9932C30.3261 27.2685 29.8623 27.4135 29.3881 27.407C28.914 27.4006 28.4542 27.2432 28.0757 26.9575C27.6972 26.6719 27.4196 26.273 27.2834 25.8189C27.1471 25.3647 27.1592 24.8789 27.3179 24.4321L23.5765 28.1835C23.4124 28.3488 23.217 28.4797 23.0017 28.5685C22.7864 28.6574 22.5555 28.7024 22.3227 28.7009C22.0913 28.7022 21.862 28.657 21.6483 28.5681C21.4347 28.4793 21.241 28.3485 21.0788 28.1835C20.9127 28.0196 20.7809 27.8244 20.6909 27.6092C20.6009 27.394 20.5545 27.163 20.5545 26.9297C20.5545 26.6964 20.6009 26.4654 20.6909 26.2502C20.7809 26.035 20.9127 25.8398 21.0788 25.6759L24.8203 21.9344C24.4853 22.0653 24.1232 22.1116 23.766 22.0692C23.4088 22.0268 23.0676 21.8971 22.7725 21.6915C22.4774 21.4859 22.2374 21.2108 22.0739 20.8904C21.9104 20.57 21.8284 20.2143 21.8351 19.8547C21.8351 19.2688 22.0678 18.7069 22.4821 18.2927C22.8964 17.8784 23.4583 17.6456 24.0441 17.6456C24.63 17.6456 25.1919 17.8784 25.6062 18.2927C26.0205 18.7069 26.2532 19.2688 26.2532 19.8547C26.2515 20.1024 26.2078 20.348 26.1238 20.5811L29.8653 16.8396C30.0266 16.6633 30.2219 16.5214 30.4394 16.4225C30.6569 16.3236 30.8923 16.2697 31.1312 16.2641C31.3701 16.2585 31.6076 16.3014 31.8295 16.39C32.0515 16.4787 32.2531 16.6113 32.4225 16.7799C32.5918 16.9486 32.7252 17.1497 32.8147 17.3713C32.9043 17.5929 32.948 17.8302 32.9434 18.0692C32.9388 18.3081 32.8858 18.5436 32.7878 18.7615C32.6898 18.9795 32.5486 19.1753 32.3729 19.3373H32.4227Z" fill="black"/>
</svg>
