<svg width="48" height="48" viewBox="0 0 48 48" fill="none" xmlns="http://www.w3.org/2000/svg">
<path d="M40.5866 30.5014L43.9635 13.8857C44.0174 13.6179 44.0114 13.3415 43.946 13.0763C43.8805 12.8111 43.7573 12.5636 43.585 12.3516C43.4089 12.1447 43.1886 11.9799 42.9403 11.8696C42.6921 11.7592 42.4221 11.7061 42.1505 11.7141H11.3696L10.9513 9.24367C10.8785 8.82055 10.6588 8.43668 10.3308 8.15969C10.0028 7.8827 9.58752 7.73036 9.1582 7.72953H5.5123C5.31992 7.71323 5.12626 7.73705 4.94356 7.79948C4.76087 7.86191 4.59313 7.9616 4.45096 8.09223C4.3088 8.22286 4.1953 8.38158 4.11766 8.55835C4.04003 8.73512 3.99994 8.92608 3.99994 9.11915C3.99994 9.31222 4.04003 9.50318 4.11766 9.67995C4.1953 9.85672 4.3088 10.0154 4.45096 10.1461C4.59313 10.2767 4.76087 10.3764 4.94356 10.4388C5.12626 10.5013 5.31992 10.5251 5.5123 10.5088H8.35132L12.4754 34.3565C12.1555 34.6767 11.9027 35.0575 11.7317 35.4765C11.5606 35.8956 11.4748 36.3445 11.4792 36.7971C11.4546 37.2446 11.5215 37.6925 11.6758 38.1134C11.8301 38.5342 12.0686 38.9192 12.3768 39.2448C12.6849 39.5703 13.0562 39.8296 13.4679 40.0069C13.8797 40.1841 14.3232 40.2755 14.7715 40.2755C15.2197 40.2755 15.6633 40.1841 16.075 40.0069C16.4868 39.8296 16.858 39.5703 17.1662 39.2448C17.4743 38.9192 17.7128 38.5342 17.8671 38.1134C18.0215 37.6925 18.0884 37.2446 18.0637 36.7971C18.0639 36.5963 18.0439 36.3961 18.004 36.1994H35.2472C35.2073 36.3961 35.1873 36.5963 35.1875 36.7971C35.1628 37.2446 35.2297 37.6925 35.3841 38.1134C35.5384 38.5342 35.7769 38.9192 36.085 39.2448C36.3932 39.5703 36.7645 39.8296 37.1762 40.0069C37.5879 40.1841 38.0315 40.2755 38.4797 40.2755C38.928 40.2755 39.3715 40.1841 39.7833 40.0069C40.195 39.8296 40.5663 39.5703 40.8744 39.2448C41.1826 38.9192 41.4211 38.5342 41.5754 38.1134C41.7297 37.6925 41.7966 37.2446 41.772 36.7971C41.7708 36.4205 41.7068 36.0468 41.5827 35.6913C41.7879 35.4452 41.9007 35.1352 41.9015 34.8147C41.9015 34.4449 41.7546 34.0901 41.493 33.8286C41.2315 33.5671 40.8768 33.4201 40.5069 33.4201H15.1351L14.886 31.9757H38.7935C39.2166 31.9747 39.6264 31.8273 39.9532 31.5586C40.28 31.2899 40.5038 30.9164 40.5866 30.5014ZM15.2546 36.7971C15.2393 36.8951 15.1962 36.9867 15.1305 37.0609C15.0647 37.1352 14.9789 37.1889 14.8834 37.2159C14.788 37.2428 14.6868 37.2418 14.5919 37.2129C14.497 37.184 14.4123 37.1284 14.3481 37.0528C14.2838 36.9772 14.2427 36.8848 14.2294 36.7865C14.2162 36.6882 14.2315 36.5881 14.2734 36.4982C14.3154 36.4083 14.3823 36.3324 14.4662 36.2794C14.55 36.2264 14.6474 36.1986 14.7466 36.1994C14.8929 36.2121 15.0283 36.2819 15.1234 36.3938C15.2185 36.5057 15.2656 36.6506 15.2546 36.7971ZM38.4847 37.3848C38.3639 37.4031 38.2404 37.384 38.1308 37.33C38.0212 37.2759 37.9308 37.1896 37.8718 37.0826C37.8128 36.9757 37.7879 36.8532 37.8006 36.7317C37.8134 36.6101 37.863 36.4954 37.9429 36.403C38.0228 36.3106 38.1291 36.2448 38.2475 36.2147C38.3659 36.1845 38.4907 36.1914 38.6051 36.2343C38.7195 36.2772 38.818 36.3542 38.8873 36.4548C38.9566 36.5554 38.9934 36.6749 38.9928 36.7971C39.0011 36.9418 38.9527 37.0842 38.8579 37.1939C38.763 37.3036 38.6292 37.3721 38.4847 37.3848ZM14.4079 29.1865L11.8578 14.4734H40.9751L37.9866 29.1865H14.4079Z" fill="black"/>
<path d="M21.7594 27.9314C21.5743 27.935 21.3904 27.9006 21.219 27.8304C21.0477 27.7601 20.8926 27.6555 20.7633 27.5229C20.6283 27.3945 20.5208 27.24 20.4473 27.0688C20.3738 26.8975 20.3359 26.7131 20.3359 26.5268C20.3359 26.3405 20.3738 26.1561 20.4473 25.9848C20.5208 25.8136 20.6283 25.6591 20.7633 25.5307L30.0175 16.2964C30.2817 16.0322 30.64 15.8838 31.0136 15.8838C31.3873 15.8838 31.7456 16.0322 32.0098 16.2964C32.274 16.5606 32.4224 16.9189 32.4224 17.2925C32.4224 17.6662 32.274 18.0245 32.0098 18.2887L22.7456 27.5528C22.6153 27.6792 22.4607 27.7779 22.2913 27.843C22.1218 27.908 21.9409 27.9381 21.7594 27.9314Z" fill="black"/>
<path d="M23.6123 17.2826C23.2458 17.2826 22.8876 17.3912 22.5829 17.5948C22.2782 17.7984 22.0407 18.0878 21.9005 18.4263C21.7602 18.7649 21.7235 19.1375 21.795 19.4969C21.8665 19.8563 22.043 20.1864 22.3021 20.4455C22.5612 20.7047 22.8914 20.8811 23.2508 20.9526C23.6102 21.0241 23.9828 20.9874 24.3213 20.8472C24.6599 20.707 24.9492 20.4695 25.1528 20.1648C25.3564 19.8601 25.4651 19.5019 25.4651 19.1354C25.4651 18.644 25.2699 18.1727 24.9224 17.8252C24.5749 17.4778 24.1037 17.2826 23.6123 17.2826Z" fill="black"/>
<path d="M29.1708 22.8411C28.8026 22.8391 28.4423 22.9469 28.1356 23.1506C27.829 23.3544 27.59 23.6448 27.4492 23.985C27.3083 24.3251 27.272 24.6995 27.3448 25.0604C27.4176 25.4212 27.5963 25.7522 27.858 26.0111C28.1198 26.27 28.4527 26.4451 28.8143 26.514C29.1759 26.5829 29.5499 26.5425 29.8885 26.3979C30.2271 26.2534 30.5149 26.0113 30.7153 25.7024C30.9157 25.3936 31.0196 25.0321 31.0136 24.664C31.0058 24.1795 30.8085 23.7174 30.464 23.3766C30.1196 23.0359 29.6553 22.8436 29.1708 22.8411Z" fill="black"/>
</svg>
