<svg width="48" height="48" viewBox="0 0 48 48" fill="none" xmlns="http://www.w3.org/2000/svg">
<path d="M40.7308 29.9148L43.9648 14.0636C44.0232 13.739 44.0088 13.4056 43.9228 13.0872C43.8368 12.7689 43.6812 12.4736 43.4672 12.2227C43.2645 11.9725 43.0081 11.7711 42.717 11.6333C42.4259 11.4955 42.1076 11.4249 41.7856 11.4267H13.526L13.317 10.2027C13.1991 9.4883 12.8312 8.83898 12.279 8.3706C11.7268 7.90221 11.0261 7.64521 10.302 7.64545H6.81932C6.45741 7.62327 6.0948 7.6754 5.7538 7.79864C5.4128 7.92187 5.10063 8.11361 4.83652 8.36203C4.57241 8.61045 4.36195 8.9103 4.21808 9.24312C4.07422 9.57594 4 9.93469 4 10.2973C4 10.6599 4.07422 11.0186 4.21808 11.3514C4.36195 11.6842 4.57241 11.9841 4.83652 12.2325C5.10063 12.4809 5.4128 12.6727 5.7538 12.7959C6.0948 12.9191 6.45741 12.9713 6.81932 12.9491H8.41141L12.2125 34.9299C12.2125 35.0592 12.2822 35.1886 12.322 35.308C12.138 35.7529 12.0434 36.2296 12.0434 36.711C12.0268 37.6058 12.3457 38.4743 12.9374 39.1457C13.5291 39.8171 14.3506 40.2427 15.2403 40.3388C16.1301 40.4349 17.0235 40.1945 17.7449 39.6649C18.4662 39.1353 18.9633 38.3549 19.1381 37.4772H34.7804C34.9505 38.3378 35.4313 39.1057 36.1311 39.6346C36.831 40.1635 37.701 40.4164 38.5753 40.345C39.4496 40.2737 40.2671 39.8832 40.872 39.2479C41.4769 38.6125 41.8269 37.7769 41.8552 36.9001C42.1689 36.6524 42.4216 36.3362 42.5941 35.9757C42.7666 35.6152 42.8542 35.22 42.8503 34.8204C42.8503 34.472 42.7815 34.127 42.6479 33.8052C42.5142 33.4834 42.3184 33.1912 42.0715 32.9453C41.8247 32.6994 41.5317 32.5046 41.2095 32.3722C40.8872 32.2398 40.5419 32.1723 40.1935 32.1736H17.0982L17.0087 31.6661H38.6014C39.1033 31.6626 39.5888 31.4866 39.9765 31.1678C40.3641 30.849 40.6305 30.4066 40.7308 29.9148ZM30.7803 23.3176H21.974C21.5043 23.3176 21.0538 23.131 20.7216 22.7988C20.3894 22.4666 20.2028 22.0161 20.2028 21.5464C20.2028 21.0766 20.3894 20.6261 20.7216 20.294C21.0538 19.9618 21.5043 19.7752 21.974 19.7752H30.8201C31.2898 19.7752 31.7403 19.9618 32.0725 20.294C32.4047 20.6261 32.5913 21.0766 32.5913 21.5464C32.5913 22.0161 32.4047 22.4666 32.0725 22.7988C31.7403 23.131 31.2898 23.3176 30.8201 23.3176H30.7803Z" fill="black"/>
</svg>
