<svg width="48" height="48" viewBox="0 0 48 48" fill="none" xmlns="http://www.w3.org/2000/svg">
<path d="M40.5866 30.5014L43.9635 13.8857C44.0174 13.6179 44.0114 13.3415 43.946 13.0763C43.8806 12.8111 43.7573 12.5636 43.585 12.3516C43.409 12.1447 43.1886 11.9799 42.9404 11.8696C42.6921 11.7592 42.4221 11.7061 42.1506 11.7141H11.3697L10.9513 9.24367C10.8785 8.82055 10.6588 8.43668 10.3308 8.15969C10.0028 7.8827 9.58753 7.73036 9.15821 7.72953H5.51232C5.31994 7.71323 5.12627 7.73705 4.94358 7.79948C4.76088 7.86191 4.59314 7.9616 4.45098 8.09223C4.30881 8.22286 4.19532 8.38158 4.11768 8.55835C4.04004 8.73512 3.99995 8.92608 3.99995 9.11915C3.99995 9.31222 4.04004 9.50318 4.11768 9.67995C4.19532 9.85672 4.30881 10.0154 4.45098 10.1461C4.59314 10.2767 4.76088 10.3764 4.94358 10.4388C5.12627 10.5013 5.31994 10.5251 5.51232 10.5088H8.35133L12.4754 34.3565C12.1555 34.6767 11.9027 35.0575 11.7317 35.4765C11.5607 35.8956 11.4748 36.3445 11.4792 36.7971C11.4546 37.2446 11.5215 37.6925 11.6758 38.1134C11.8301 38.5342 12.0687 38.9192 12.3768 39.2448C12.6849 39.5703 13.0562 39.8296 13.4679 40.0069C13.8797 40.1841 14.3232 40.2755 14.7715 40.2755C15.2197 40.2755 15.6633 40.1841 16.075 40.0069C16.4868 39.8296 16.8581 39.5703 17.1662 39.2448C17.4743 38.9192 17.7128 38.5342 17.8672 38.1134C18.0215 37.6925 18.0884 37.2446 18.0638 36.7971C18.064 36.5963 18.0439 36.3961 18.004 36.1994H35.2473C35.2073 36.3961 35.1873 36.5963 35.1875 36.7971C35.1629 37.2446 35.2298 37.6925 35.3841 38.1134C35.5384 38.5342 35.7769 38.9192 36.0851 39.2448C36.3932 39.5703 36.7645 39.8296 37.1762 40.0069C37.588 40.1841 38.0315 40.2755 38.4798 40.2755C38.928 40.2755 39.3716 40.1841 39.7833 40.0069C40.195 39.8296 40.5663 39.5703 40.8745 39.2448C41.1826 38.9192 41.4211 38.5342 41.5754 38.1134C41.7298 37.6925 41.7966 37.2446 41.772 36.7971C41.7708 36.4205 41.7069 36.0468 41.5828 35.6913C41.7879 35.4452 41.9007 35.1352 41.9015 34.8147C41.9015 34.4449 41.7546 34.0901 41.493 33.8286C41.2315 33.5671 40.8768 33.4201 40.5069 33.4201H15.1351L14.886 31.9757H38.7935C39.2167 31.9747 39.6264 31.8273 39.9532 31.5586C40.28 31.2899 40.5038 30.9164 40.5866 30.5014ZM15.2546 36.7971C15.2394 36.8951 15.1963 36.9867 15.1305 37.0609C15.0647 37.1352 14.9789 37.1889 14.8835 37.2159C14.788 37.2428 14.6868 37.2418 14.5919 37.2129C14.497 37.184 14.4124 37.1284 14.3481 37.0528C14.2839 36.9772 14.2427 36.8848 14.2294 36.7865C14.2162 36.6882 14.2315 36.5881 14.2734 36.4982C14.3154 36.4083 14.3823 36.3324 14.4662 36.2794C14.5501 36.2264 14.6474 36.1986 14.7466 36.1994C14.8929 36.2121 15.0283 36.2819 15.1234 36.3938C15.2185 36.5057 15.2657 36.6506 15.2546 36.7971ZM38.4847 37.3848C38.3639 37.4031 38.2404 37.384 38.1308 37.33C38.0212 37.2759 37.9308 37.1896 37.8718 37.0826C37.8128 36.9757 37.7879 36.8532 37.8007 36.7317C37.8134 36.6101 37.863 36.4954 37.9429 36.403C38.0228 36.3106 38.1291 36.2448 38.2475 36.2147C38.3659 36.1845 38.4907 36.1914 38.6051 36.2343C38.7195 36.2772 38.818 36.3542 38.8873 36.4548C38.9566 36.5554 38.9934 36.6749 38.9928 36.7971C39.0011 36.9418 38.9527 37.0842 38.8579 37.1939C38.763 37.3036 38.6292 37.3721 38.4847 37.3848ZM14.4079 29.1865L11.8578 14.4734H40.9751L37.9867 29.1865H14.4079Z" fill="black"/>
<path d="M30.5156 22.1139C30.3872 21.9788 30.2326 21.8713 30.0614 21.7979C29.8902 21.7244 29.7058 21.6865 29.5194 21.6865C29.3331 21.6865 29.1487 21.7244 28.9775 21.7979C28.8062 21.8713 28.6517 21.9788 28.5233 22.1139L27.3777 23.2495V17.2029C27.394 17.0105 27.3702 16.8168 27.3078 16.6341C27.2453 16.4514 27.1456 16.2837 27.015 16.1415C26.8844 15.9994 26.7257 15.8859 26.5489 15.8082C26.3721 15.7306 26.1812 15.6905 25.9881 15.6905C25.795 15.6905 25.6041 15.7306 25.4273 15.8082C25.2505 15.8859 25.0918 15.9994 24.9612 16.1415C24.8305 16.2837 24.7309 16.4514 24.6684 16.6341C24.606 16.8168 24.5822 17.0105 24.5985 17.2029V23.2495L23.4629 22.1139C23.1987 21.8497 22.8403 21.7013 22.4667 21.7013C22.0931 21.7013 21.7348 21.8497 21.4706 22.1139C21.2064 22.3781 21.058 22.7364 21.058 23.11C21.058 23.4836 21.2064 23.842 21.4706 24.1062L24.7479 27.3835C25.0011 27.6368 25.3297 27.8011 25.6843 27.8517C25.777 27.862 25.8705 27.862 25.9632 27.8517C26.0559 27.8615 26.1494 27.8615 26.2421 27.8517C26.5967 27.8011 26.9253 27.6368 27.1785 27.3835L30.4558 24.1062C30.5948 23.9819 30.707 23.8306 30.7856 23.6615C30.8643 23.4925 30.9077 23.3092 30.9133 23.1228C30.9189 22.9365 30.8865 22.7509 30.8181 22.5775C30.7498 22.404 30.6468 22.2463 30.5156 22.1139Z" fill="black"/>
</svg>
