<svg width="48" height="48" viewBox="0 0 48 48" fill="none" xmlns="http://www.w3.org/2000/svg">
<path d="M40.5866 30.5014L43.9635 13.8857C44.0174 13.6179 44.0114 13.3415 43.946 13.0763C43.8805 12.8111 43.7573 12.5636 43.585 12.3516C43.4089 12.1447 43.1886 11.9799 42.9403 11.8696C42.6921 11.7592 42.4221 11.7061 42.1505 11.7141H11.3696L10.9513 9.24367C10.8785 8.82055 10.6588 8.43668 10.3308 8.15969C10.0028 7.8827 9.58752 7.73036 9.1582 7.72953H5.5123C5.31992 7.71323 5.12626 7.73705 4.94356 7.79948C4.76087 7.86191 4.59313 7.9616 4.45096 8.09223C4.3088 8.22286 4.1953 8.38158 4.11766 8.55835C4.04003 8.73512 3.99994 8.92608 3.99994 9.11915C3.99994 9.31222 4.04003 9.50318 4.11766 9.67995C4.1953 9.85672 4.3088 10.0154 4.45096 10.1461C4.59313 10.2767 4.76087 10.3764 4.94356 10.4388C5.12626 10.5013 5.31992 10.5251 5.5123 10.5088H8.35132L12.4754 34.3565C12.1555 34.6767 11.9027 35.0575 11.7317 35.4765C11.5606 35.8956 11.4748 36.3445 11.4792 36.7971C11.4546 37.2446 11.5215 37.6925 11.6758 38.1134C11.8301 38.5342 12.0686 38.9192 12.3768 39.2448C12.6849 39.5703 13.0562 39.8296 13.4679 40.0069C13.8797 40.1841 14.3232 40.2755 14.7715 40.2755C15.2197 40.2755 15.6633 40.1841 16.075 40.0069C16.4868 39.8296 16.858 39.5703 17.1662 39.2448C17.4743 38.9192 17.7128 38.5342 17.8671 38.1134C18.0215 37.6925 18.0884 37.2446 18.0637 36.7971C18.0639 36.5963 18.0439 36.3961 18.004 36.1994H35.2472C35.2073 36.3961 35.1873 36.5963 35.1875 36.7971C35.1628 37.2446 35.2297 37.6925 35.3841 38.1134C35.5384 38.5342 35.7769 38.9192 36.085 39.2448C36.3932 39.5703 36.7645 39.8296 37.1762 40.0069C37.5879 40.1841 38.0315 40.2755 38.4797 40.2755C38.928 40.2755 39.3715 40.1841 39.7833 40.0069C40.195 39.8296 40.5663 39.5703 40.8744 39.2448C41.1826 38.9192 41.4211 38.5342 41.5754 38.1134C41.7297 37.6925 41.7966 37.2446 41.772 36.7971C41.7708 36.4205 41.7068 36.0468 41.5827 35.6913C41.7879 35.4452 41.9007 35.1352 41.9015 34.8147C41.9015 34.4449 41.7546 34.0901 41.493 33.8286C41.2315 33.5671 40.8768 33.4201 40.5069 33.4201H15.1351L14.886 31.9757H38.7935C39.2166 31.9747 39.6264 31.8273 39.9532 31.5586C40.28 31.2899 40.5038 30.9164 40.5866 30.5014ZM15.2546 36.7971C15.2393 36.8951 15.1962 36.9867 15.1305 37.0609C15.0647 37.1352 14.9789 37.1889 14.8834 37.2159C14.788 37.2428 14.6868 37.2418 14.5919 37.2129C14.497 37.184 14.4123 37.1284 14.3481 37.0528C14.2838 36.9772 14.2427 36.8848 14.2294 36.7865C14.2162 36.6882 14.2315 36.5881 14.2734 36.4982C14.3154 36.4083 14.3823 36.3324 14.4662 36.2794C14.55 36.2264 14.6474 36.1986 14.7466 36.1994C14.8929 36.2121 15.0283 36.2819 15.1234 36.3938C15.2185 36.5057 15.2656 36.6506 15.2546 36.7971ZM38.4847 37.3848C38.3639 37.4031 38.2404 37.384 38.1308 37.33C38.0212 37.2759 37.9308 37.1896 37.8718 37.0826C37.8128 36.9757 37.7879 36.8532 37.8006 36.7317C37.8134 36.6101 37.863 36.4954 37.9429 36.403C38.0228 36.3106 38.1291 36.2448 38.2475 36.2147C38.3659 36.1845 38.4907 36.1914 38.6051 36.2343C38.7195 36.2772 38.818 36.3542 38.8873 36.4548C38.9566 36.5554 38.9934 36.6749 38.9928 36.7971C39.0011 36.9418 38.9527 37.0842 38.8579 37.1939C38.763 37.3036 38.6292 37.3721 38.4847 37.3848ZM14.4079 29.1865L11.8578 14.4734H40.9751L37.9866 29.1865H14.4079Z" fill="black"/>
<path d="M30.2267 20.4403H27.4076V17.6213C27.3781 17.273 27.2189 16.9486 26.9615 16.7121C26.7042 16.4756 26.3674 16.3444 26.018 16.3444C25.6685 16.3444 25.3317 16.4756 25.0744 16.7121C24.817 16.9486 24.6578 17.273 24.6283 17.6213V20.4403H21.8092C21.461 20.4699 21.1365 20.629 20.9001 20.8864C20.6636 21.1437 20.5324 21.4805 20.5324 21.83C20.5324 22.1795 20.6636 22.5162 20.9001 22.7736C21.1365 23.0309 21.461 23.1901 21.8092 23.2196H24.6283V26.0387C24.612 26.2311 24.6359 26.4247 24.6983 26.6074C24.7607 26.7901 24.8604 26.9579 24.991 27.1C25.1217 27.2422 25.2804 27.3557 25.4572 27.4333C25.6339 27.511 25.8249 27.5511 26.018 27.5511C26.211 27.5511 26.402 27.511 26.5788 27.4333C26.7555 27.3557 26.9143 27.2422 27.0449 27.1C27.1755 26.9579 27.2752 26.7901 27.3376 26.6074C27.4001 26.4247 27.4239 26.2311 27.4076 26.0387V23.2196H30.2267C30.4191 23.2359 30.6127 23.2121 30.7954 23.1496C30.9781 23.0872 31.1458 22.9875 31.288 22.8569C31.4302 22.7263 31.5437 22.5675 31.6213 22.3908C31.699 22.214 31.739 22.023 31.739 21.83C31.739 21.6369 31.699 21.4459 31.6213 21.2692C31.5437 21.0924 31.4302 20.9337 31.288 20.803C31.1458 20.6724 30.9781 20.5727 30.7954 20.5103C30.6127 20.4479 30.4191 20.424 30.2267 20.4403Z" fill="black"/>
</svg>
