<svg width="48" height="48" viewBox="0 0 48 48" fill="none" xmlns="http://www.w3.org/2000/svg">
<path d="M40.5866 30.5014L43.9635 13.8857C44.0174 13.6179 44.0114 13.3415 43.946 13.0762C43.8806 12.811 43.7573 12.5636 43.585 12.3516C43.409 12.1446 43.1886 11.9799 42.9404 11.8695C42.6921 11.7592 42.4221 11.706 42.1506 11.7141H11.3697L10.9513 9.24362C10.8785 8.8205 10.6588 8.43662 10.3308 8.15963C10.0028 7.88264 9.58753 7.73031 9.15821 7.72948H5.51232C5.31994 7.71317 5.12627 7.73699 4.94358 7.79943C4.76088 7.86186 4.59314 7.96155 4.45098 8.09217C4.30881 8.2228 4.19532 8.38153 4.11768 8.5583C4.04004 8.73507 3.99995 8.92603 3.99995 9.1191C3.99995 9.31217 4.04004 9.50313 4.11768 9.6799C4.19532 9.85667 4.30881 10.0154 4.45098 10.146C4.59314 10.2767 4.76088 10.3763 4.94358 10.4388C5.12627 10.5012 5.31994 10.525 5.51232 10.5087H8.35133L12.4754 34.3564C12.1555 34.6767 11.9027 35.0574 11.7317 35.4765C11.5607 35.8955 11.4748 36.3444 11.4792 36.797C11.4546 37.2446 11.5215 37.6925 11.6758 38.1133C11.8301 38.5342 12.0687 38.9192 12.3768 39.2447C12.6849 39.5703 13.0562 39.8296 13.4679 40.0068C13.8797 40.184 14.3232 40.2754 14.7715 40.2754C15.2197 40.2754 15.6633 40.184 16.075 40.0068C16.4868 39.8296 16.8581 39.5703 17.1662 39.2447C17.4743 38.9192 17.7128 38.5342 17.8672 38.1133C18.0215 37.6925 18.0884 37.2446 18.0638 36.797C18.064 36.5963 18.0439 36.396 18.004 36.1993H35.2473C35.2073 36.396 35.1873 36.5963 35.1875 36.797C35.1629 37.2446 35.2298 37.6925 35.3841 38.1133C35.5384 38.5342 35.7769 38.9192 36.0851 39.2447C36.3932 39.5703 36.7645 39.8296 37.1762 40.0068C37.588 40.184 38.0315 40.2754 38.4798 40.2754C38.928 40.2754 39.3716 40.184 39.7833 40.0068C40.195 39.8296 40.5663 39.5703 40.8745 39.2447C41.1826 38.9192 41.4211 38.5342 41.5754 38.1133C41.7298 37.6925 41.7966 37.2446 41.772 36.797C41.7708 36.4205 41.7069 36.0468 41.5828 35.6913C41.7879 35.4452 41.9007 35.1351 41.9015 34.8147C41.9015 34.4448 41.7546 34.0901 41.493 33.8285C41.2315 33.567 40.8768 33.4201 40.5069 33.4201H15.1351L14.886 31.9757H38.7935C39.2167 31.9746 39.6264 31.8273 39.9532 31.5585C40.28 31.2898 40.5038 30.9163 40.5866 30.5014ZM15.2546 36.797C15.2394 36.895 15.1963 36.9866 15.1305 37.0609C15.0647 37.1351 14.9789 37.1889 14.8835 37.2158C14.788 37.2428 14.6868 37.2417 14.5919 37.2128C14.497 37.1839 14.4124 37.1284 14.3481 37.0528C14.2839 36.9772 14.2427 36.8847 14.2294 36.7864C14.2162 36.6881 14.2315 36.5881 14.2734 36.4982C14.3154 36.4083 14.3823 36.3323 14.4662 36.2793C14.5501 36.2264 14.6474 36.1986 14.7466 36.1993C14.8929 36.212 15.0283 36.2819 15.1234 36.3938C15.2185 36.5057 15.2657 36.6506 15.2546 36.797ZM38.4847 37.3847C38.3639 37.4031 38.2404 37.3839 38.1308 37.3299C38.0212 37.2759 37.9308 37.1896 37.8718 37.0826C37.8128 36.9756 37.7879 36.8531 37.8007 36.7316C37.8134 36.6101 37.863 36.4954 37.9429 36.4029C38.0228 36.3105 38.1291 36.2448 38.2475 36.2146C38.3659 36.1845 38.4907 36.1913 38.6051 36.2342C38.7195 36.2772 38.818 36.3541 38.8873 36.4548C38.9566 36.5554 38.9934 36.6748 38.9928 36.797C39.0011 36.9418 38.9527 37.0841 38.8579 37.1938C38.763 37.3036 38.6292 37.372 38.4847 37.3847ZM14.4079 29.1865L11.8578 14.4734H40.9751L37.9867 29.1865H14.4079Z" fill="black"/>
<path d="M30.655 23.2195H21.3909C21.1985 23.2358 21.0048 23.212 20.8221 23.1496C20.6394 23.0872 20.4717 22.9875 20.3295 22.8568C20.1874 22.7262 20.0739 22.5675 19.9962 22.3907C19.9186 22.214 19.8785 22.023 19.8785 21.8299C19.8785 21.6369 19.9186 21.4459 19.9962 21.2691C20.0739 21.0923 20.1874 20.9336 20.3295 20.803C20.4717 20.6724 20.6394 20.5727 20.8221 20.5102C21.0048 20.4478 21.1985 20.424 21.3909 20.4403H30.655C31.0033 20.4698 31.3277 20.629 31.5642 20.8863C31.8007 21.1437 31.9319 21.4804 31.9319 21.8299C31.9319 22.1794 31.8007 22.5162 31.5642 22.7735C31.3277 23.0308 31.0033 23.19 30.655 23.2195Z" fill="black"/>
</svg>
