<svg width="48" height="48" viewBox="0 0 48 48" fill="none" xmlns="http://www.w3.org/2000/svg">
<path d="M39.21 16.965V29.835L44 29.005L41.33 13.585L21.8 16.965H39.21Z" fill="black"/>
<path d="M4 18.775V34.415H37.4V18.775H4ZM15.56 28.085C15.8348 28.3274 16.0291 28.6478 16.117 29.0036C16.2048 29.3593 16.182 29.7334 16.0515 30.0758C15.9211 30.4182 15.6892 30.7127 15.387 30.9198C15.0847 31.127 14.7264 31.2369 14.36 31.235C13.9165 31.2374 13.4882 31.0733 13.16 30.775L12.32 30.035C12.0865 29.8262 11.8999 29.5703 11.7723 29.2842C11.6448 28.9981 11.5793 28.6882 11.58 28.375V24.815C11.5805 24.502 11.6466 24.1925 11.7741 23.9066C11.9015 23.6207 12.0875 23.3646 12.32 23.155L13.16 22.415C13.3366 22.2574 13.5426 22.1362 13.7661 22.0582C13.9895 21.9802 14.2262 21.947 14.4625 21.9604C14.6989 21.9739 14.9302 22.0338 15.1434 22.1366C15.3566 22.2395 15.5474 22.3834 15.705 22.56C15.8626 22.7366 15.9838 22.9426 16.0618 23.1661C16.1398 23.3896 16.1731 23.6262 16.1596 23.8625C16.1461 24.0989 16.0862 24.3302 15.9834 24.5434C15.8805 24.7566 15.7366 24.9474 15.56 25.105L15.19 25.435V27.755L15.56 28.085ZM23.56 30.085C22.9644 30.4656 22.2662 30.6541 21.56 30.625C21.1275 30.6271 20.6989 30.5421 20.3 30.375C19.9307 30.2195 19.592 29.9994 19.3 29.725C19.0288 29.4563 18.8026 29.1456 18.63 28.805C18.5397 28.6127 18.4596 28.4157 18.39 28.215H17.37L18 26.585H18.27H17.41L18.01 24.955H18.51C18.599 24.6947 18.7128 24.4435 18.85 24.205C19.0474 23.8619 19.3009 23.5543 19.6 23.295C19.8934 23.0422 20.233 22.8487 20.6 22.725C21.2453 22.511 21.9366 22.4764 22.6 22.625C22.8721 22.6753 23.1351 22.7663 23.38 22.895L23.83 23.125L23.16 24.765L22.61 24.435C22.3245 24.2934 22.0085 24.2247 21.69 24.235C21.3251 24.2134 20.9662 24.3355 20.69 24.575C20.5722 24.6865 20.4711 24.8145 20.39 24.955H23.19L22.66 26.585H20H22.67L22.14 28.215H20.36C20.4379 28.3461 20.5396 28.4614 20.66 28.555C20.7919 28.6773 20.9489 28.7694 21.12 28.825C21.475 28.9351 21.855 28.9351 22.21 28.825C22.3647 28.7732 22.5124 28.7027 22.65 28.615L23.16 28.255L24 29.845L23.56 30.085ZM29.83 28.335C29.8303 28.6506 29.7636 28.9626 29.6343 29.2505C29.505 29.5384 29.3161 29.7956 29.08 30.005L28.26 30.735C27.9297 31.03 27.5028 31.1936 27.06 31.195C26.8052 31.1968 26.553 31.1442 26.3202 31.0408C26.0874 30.9373 25.8794 30.7853 25.71 30.595C25.551 30.4187 25.4285 30.2128 25.3495 29.9889C25.2704 29.7651 25.2364 29.5279 25.2495 29.2909C25.2625 29.0539 25.3222 28.8218 25.4253 28.608C25.5284 28.3941 25.6727 28.2028 25.85 28.045L26.22 27.715V25.435L25.85 25.105C25.5298 24.7764 25.3464 24.3385 25.3368 23.8798C25.3272 23.421 25.4921 22.9758 25.7983 22.6341C26.1044 22.2924 26.5289 22.0797 26.9859 22.039C27.4429 21.9983 27.8983 22.1327 28.26 22.415L29.09 23.155C29.3225 23.3646 29.5085 23.6207 29.6359 23.9066C29.7634 24.1925 29.8295 24.502 29.83 24.815V28.335Z" fill="black"/>
</svg>
