<svg width="48" height="48" viewBox="0 0 48 48" fill="none" xmlns="http://www.w3.org/2000/svg">
<path d="M35.42 17.68L39.16 17.03L40.79 26.45L38.7 26.81V29.63L44 28.71L41.42 13.82L19.15 17.68H35.42Z" fill="black"/>
<path d="M37.31 34.18H4V19.06H37.31V34.18ZM6.78 31.4H34.54V21.82H6.78V31.4Z" fill="black"/>
<path d="M15.08 24.75C15.227 24.6318 15.3484 24.4849 15.4369 24.3183C15.5253 24.1516 15.5789 23.9688 15.5943 23.7808C15.6098 23.5928 15.5869 23.4036 15.5269 23.2247C15.4669 23.0459 15.3711 22.8811 15.2454 22.7405C15.1197 22.5998 14.9667 22.4862 14.7957 22.4066C14.6247 22.327 14.4393 22.283 14.2507 22.2773C14.0621 22.2717 13.8744 22.3045 13.6989 22.3737C13.5235 22.4429 13.3639 22.5471 13.23 22.68L12.37 23.44C12.1789 23.6151 12.0267 23.8285 11.9234 24.0662C11.82 24.304 11.7677 24.5608 11.77 24.82V28.46C11.7699 28.7169 11.8243 28.9709 11.9294 29.2053C12.0345 29.4397 12.1881 29.6492 12.38 29.82L13.23 30.58C13.4832 30.8058 13.8107 30.9304 14.15 30.93C14.3395 30.9272 14.5264 30.8849 14.6986 30.8057C14.8708 30.7265 15.0246 30.6121 15.15 30.47C15.2774 30.3331 15.3759 30.1719 15.4396 29.9961C15.5032 29.8202 15.5307 29.6333 15.5205 29.4466C15.5102 29.2599 15.4624 29.0771 15.3798 28.9093C15.2972 28.7415 15.1817 28.5921 15.04 28.47L14.51 27.99V25.23L15.08 24.75Z" fill="black"/>
<path d="M28.94 23.44L28.08 22.68C27.8025 22.4569 27.4499 22.3488 27.095 22.378C26.7401 22.4072 26.4099 22.5715 26.1726 22.837C25.9353 23.1025 25.809 23.449 25.8197 23.805C25.8303 24.1609 25.9772 24.4992 26.23 24.75L26.77 25.23V28.01L26.23 28.49C26.0222 28.6783 25.8762 28.9251 25.8112 29.1979C25.7462 29.4707 25.7653 29.7568 25.8659 30.0186C25.9665 30.2804 26.1439 30.5056 26.3749 30.6647C26.6059 30.8238 26.8795 30.9093 27.16 30.91C27.5 30.9143 27.8288 30.7892 28.08 30.56L28.94 29.79C29.1293 29.6198 29.2806 29.4116 29.384 29.179C29.4874 28.9464 29.5405 28.6946 29.54 28.44V24.82C29.5423 24.5608 29.49 24.304 29.3867 24.0662C29.2833 23.8285 29.1311 23.6151 28.94 23.44Z" fill="black"/>
<path d="M22.78 28.95C22.6249 29.0609 22.4526 29.1453 22.27 29.2C21.8558 29.3243 21.4142 29.3243 21 29.2C20.8016 29.1326 20.6183 29.0273 20.46 28.89C20.2971 28.7467 20.1586 28.5778 20.05 28.39C20.004 28.3062 19.9639 28.2193 19.93 28.13H21.93L22.32 26.92H19.73C19.7255 26.8501 19.7255 26.7799 19.73 26.71C19.7248 26.6134 19.7248 26.5166 19.73 26.42H22.49L22.89 25.21H20C20.1121 24.9082 20.2897 24.635 20.52 24.41C20.8429 24.1283 21.2618 23.9815 21.69 24C22.0592 23.9887 22.4248 24.0749 22.75 24.25L23.08 24.45L23.59 23.21L23.31 23.07C23.0662 22.9513 22.807 22.8672 22.54 22.82C21.8928 22.6776 21.2192 22.7122 20.59 22.92C20.2419 23.0379 19.9194 23.2212 19.64 23.46C19.3593 23.7111 19.1197 24.0046 18.93 24.33C18.7694 24.611 18.6419 24.9097 18.55 25.22H18L17.56 26.43H18.34C18.34 26.53 18.34 26.63 18.34 26.73V26.93H18L17.56 28.14H18.5C18.5679 28.3923 18.6618 28.637 18.78 28.87C18.9435 29.1991 19.1635 29.497 19.43 29.75C19.9953 30.3054 20.7575 30.6146 21.55 30.61C22.2149 30.6313 22.8706 30.45 23.43 30.09L23.67 29.92L23.08 28.78L22.78 28.95Z" fill="black"/>
</svg>
