<svg width="48" height="48" viewBox="0 0 48 48" fill="none" xmlns="http://www.w3.org/2000/svg">
<path d="M41.39 30.0049H38.56V14.8649C38.5574 14.3114 38.3363 13.7813 37.9449 13.39C37.5536 12.9986 37.0235 12.7775 36.47 12.7749H32.1C31.5448 12.7749 31.0121 12.9948 30.6186 13.3864C30.2251 13.7781 30.0026 14.3097 30 14.8649V30.0049H28.27V24.2049C28.27 23.9318 28.2162 23.6613 28.1117 23.4089C28.0071 23.1566 27.8539 22.9273 27.6608 22.7341C27.4676 22.541 27.2383 22.3878 26.986 22.2832C26.7336 22.1787 26.4632 22.1249 26.19 22.1249H21.81C21.2583 22.1249 20.7293 22.344 20.3392 22.7341C19.9491 23.1242 19.73 23.6533 19.73 24.2049V30.0049H18V20.5349C17.9987 20.2604 17.9433 19.9889 17.8371 19.7359C17.7308 19.4828 17.5758 19.2531 17.3808 19.06C17.1858 18.8668 16.9546 18.714 16.7006 18.6102C16.4465 18.5063 16.1745 18.4536 15.9 18.4549H11.53C10.9774 18.4549 10.4473 18.6737 10.0557 19.0635C9.66401 19.4533 9.44264 19.9823 9.44 20.5349V30.0049H6.61C5.91778 30.0049 5.25392 30.2799 4.76445 30.7694C4.27498 31.2588 4 31.9227 4 32.6149C4 33.3071 4.27498 33.971 4.76445 34.4605C5.25392 34.9499 5.91778 35.2249 6.61 35.2249H41.39C42.0822 35.2249 42.7461 34.9499 43.2355 34.4605C43.725 33.971 44 33.3071 44 32.6149C44 31.9227 43.725 31.2588 43.2355 30.7694C42.7461 30.2799 42.0822 30.0049 41.39 30.0049Z" fill="black"/>
</svg>
