<svg width="48" height="48" viewBox="0 0 48 48" fill="none" xmlns="http://www.w3.org/2000/svg">
<path d="M42.4907 32.2338H39.0212V14.7471C39.0212 14.2805 38.8358 13.8329 38.5058 13.5029C38.1758 13.1729 37.7282 12.9875 37.2616 12.9875L32.6091 12.9875C32.3785 12.9875 32.1501 13.0331 31.9372 13.1217C31.7243 13.2102 31.5309 13.34 31.3683 13.5035C31.2057 13.667 31.0771 13.8611 30.9897 14.0745C30.9024 14.288 30.8581 14.5165 30.8594 14.7471V32.2338H28.0858V24.6884C28.0858 24.2217 27.9004 23.7742 27.5704 23.4442C27.2404 23.1142 26.7929 22.9288 26.3262 22.9288H21.6737C21.207 22.9288 20.7595 23.1142 20.4295 23.4442C20.0995 23.7742 19.9141 24.2217 19.9141 24.6884V32.2338H17.1405V20.7815C17.1405 20.3165 16.9565 19.8705 16.6286 19.5408C16.3008 19.2111 15.8558 19.0245 15.3908 19.0219H10.7383C10.2717 19.0219 9.8241 19.2073 9.49411 19.5373C9.16412 19.8672 8.97874 20.3148 8.97874 20.7815V32.2338H5.50924C5.31726 32.2175 5.12398 32.2413 4.94166 32.3036C4.75933 32.3659 4.59193 32.4654 4.45006 32.5957C4.30818 32.7261 4.19491 32.8845 4.11743 33.0609C4.03995 33.2373 3.99995 33.4279 3.99995 33.6206C3.99995 33.8133 4.03995 34.0038 4.11743 34.1803C4.19491 34.3567 4.30818 34.5151 4.45006 34.6454C4.59193 34.7758 4.75933 34.8753 4.94166 34.9376C5.12398 34.9999 5.31726 35.0237 5.50924 35.0074H42.4907C42.6826 35.0237 42.8759 34.9999 43.0582 34.9376C43.2406 34.8753 43.408 34.7758 43.5498 34.6454C43.6917 34.5151 43.805 34.3567 43.8825 34.1803C43.9599 34.0038 43.9999 33.8133 43.9999 33.6206C43.9999 33.4279 43.9599 33.2373 43.8825 33.0609C43.805 32.8845 43.6917 32.7261 43.5498 32.5957C43.408 32.4654 43.2406 32.3659 43.0582 32.3036C42.8759 32.2413 42.6826 32.2175 42.4907 32.2338ZM33.633 15.7612H36.2476V32.2338H33.633V15.7612ZM22.6976 25.7024H25.3221V32.2338H22.6877L22.6976 25.7024ZM11.7623 21.7955H14.3768V32.2338H11.7523L11.7623 21.7955Z" fill="black"/>
</svg>
