<svg width="48" height="48" viewBox="0 0 48 48" fill="none" xmlns="http://www.w3.org/2000/svg">
<path d="M24 44C20.0444 44 16.1776 42.827 12.8886 40.6294C9.59962 38.4318 7.03617 35.3082 5.52242 31.6537C4.00867 27.9992 3.6126 23.9778 4.3843 20.0982C5.15601 16.2186 7.06082 12.6549 9.85787 9.85787C12.6549 7.06082 16.2186 5.15601 20.0982 4.3843C23.9778 3.6126 27.9992 4.00867 31.6537 5.52242C35.3082 7.03617 38.4318 9.59962 40.6294 12.8886C42.827 16.1776 44 20.0444 44 24C44 29.3043 41.8929 34.3914 38.1421 38.1421C34.3914 41.8929 29.3043 44 24 44ZM24 6.79001C20.5962 6.79001 17.2688 7.79936 14.4386 9.69042C11.6085 11.5815 9.40263 14.2693 8.10004 17.414C6.79746 20.5587 6.45664 24.0191 7.12069 27.3575C7.78475 30.6959 9.42384 33.7625 11.8307 36.1693C14.2376 38.5762 17.3041 40.2153 20.6425 40.8793C23.9809 41.5434 27.4413 41.2026 30.586 39.9C33.7307 38.5974 36.4185 36.3915 38.3096 33.5614C40.2007 30.7312 41.21 27.4038 41.21 24C41.2047 19.4373 39.3898 15.0629 36.1635 11.8365C32.9371 8.61019 28.5628 6.7953 24 6.79001Z" fill="black"/>
<path d="M21.85 31C21.5745 31.0004 21.3016 30.9457 21.0475 30.8393C20.7933 30.7328 20.563 30.5767 20.37 30.38L16 26.07C15.8687 25.9387 15.7645 25.7828 15.6934 25.6112C15.6224 25.4396 15.5858 25.2557 15.5858 25.07C15.5858 24.8843 15.6224 24.7004 15.6934 24.5288C15.7645 24.3572 15.8687 24.2013 16 24.07C16.1313 23.9387 16.2872 23.8345 16.4588 23.7634C16.6304 23.6924 16.8143 23.6558 17 23.6558C17.1857 23.6558 17.3696 23.6924 17.5412 23.7634C17.7128 23.8345 17.8687 23.9387 18 24.07L21.78 27.83L29.87 17.54C29.9829 17.3962 30.1231 17.2761 30.2825 17.1864C30.4418 17.0968 30.6173 17.0394 30.7988 17.0176C30.9804 16.9958 31.1644 17.0099 31.3405 17.0593C31.5166 17.1086 31.6812 17.1921 31.825 17.305C31.9688 17.4179 32.089 17.5581 32.1786 17.7175C32.2682 17.8768 32.3256 18.0523 32.3474 18.2338C32.3692 18.4154 32.3551 18.5994 32.3058 18.7755C32.2565 18.9516 32.1729 19.1162 32.06 19.26L23.51 30.17C23.3318 30.4077 23.1049 30.6047 22.8445 30.7479C22.5841 30.891 22.2962 30.9769 22 31H21.85Z" fill="black"/>
</svg>
