<svg width="48" height="48" viewBox="0 0 48 48" fill="none" xmlns="http://www.w3.org/2000/svg">
<path d="M19.5107 39.9873C18.3658 39.9857 17.2676 39.5335 16.4536 38.7284L4.72437 27.0991C4.25356 26.6076 3.99359 25.9515 3.99999 25.2709C4.0064 24.5903 4.27866 23.9391 4.75864 23.4566C5.23861 22.974 5.88825 22.6982 6.56881 22.6881C7.24937 22.678 7.90691 22.9344 8.40098 23.4025L19.3909 34.3924L39.2625 9.11572C39.4665 8.82695 39.7271 8.58268 40.0285 8.39776C40.3298 8.21285 40.6657 8.09115 41.0155 8.04006C41.3654 7.98897 41.722 8.00957 42.0636 8.10059C42.4052 8.19161 42.7248 8.35116 43.0029 8.56954C43.2809 8.78792 43.5117 9.06057 43.6811 9.37091C43.8505 9.68124 43.955 10.0228 43.9883 10.3748C44.0216 10.7268 43.9829 11.0819 43.8747 11.4185C43.7665 11.755 43.591 12.0661 43.3588 12.3328L22.9376 38.3288C22.5574 38.8083 22.0809 39.2028 21.5389 39.4868C20.9968 39.7707 20.4012 39.9378 19.7905 39.9773L19.5107 39.9873Z" fill="black"/>
</svg>
