<svg width="48" height="48" viewBox="0 0 48 48" fill="none" xmlns="http://www.w3.org/2000/svg">
<path d="M24 4C20.0444 4 16.1776 5.17298 12.8886 7.37061C9.59962 9.56824 7.03617 12.6918 5.52242 16.3463C4.00867 20.0009 3.6126 24.0222 4.3843 27.9018C5.15601 31.7814 7.06082 35.3451 9.85787 38.1421C12.6549 40.9392 16.2186 42.844 20.0982 43.6157C23.9778 44.3874 27.9992 43.9913 31.6537 42.4776C35.3082 40.9638 38.4318 38.4004 40.6294 35.1114C42.827 31.8224 44 27.9556 44 24C44 18.6957 41.8929 13.6086 38.1421 9.85786C34.3914 6.10714 29.3043 4 24 4V4ZM32.57 20.4L24.57 30.58C24.2823 30.9419 23.9218 31.2392 23.5118 31.4529C23.1018 31.6665 22.6514 31.7916 22.19 31.82H22C21.1353 31.8182 20.3058 31.4771 19.69 30.87L15.69 26.87C15.2188 26.378 14.9586 25.7213 14.965 25.04C14.9714 24.3588 15.2439 23.7071 15.7243 23.2241C16.2047 22.741 16.855 22.465 17.5362 22.4549C18.2173 22.4448 18.8755 22.7014 19.37 23.17L21.86 25.65L28.52 17.18C28.7302 16.9053 28.9928 16.6751 29.2927 16.5028C29.5926 16.3305 29.9238 16.2195 30.2669 16.1763C30.6101 16.1331 30.9584 16.1585 31.2917 16.2511C31.6249 16.3437 31.9364 16.5016 32.2081 16.7157C32.4798 16.9297 32.7062 17.1956 32.8743 17.4979C33.0423 17.8002 33.1486 18.1329 33.1869 18.4767C33.2252 18.8204 33.1948 19.1683 33.0975 19.5002C33.0002 19.8321 32.8379 20.1414 32.62 20.41L32.57 20.4Z" fill="black"/>
</svg>
