<svg width="48" height="48" viewBox="0 0 48 48" fill="none" xmlns="http://www.w3.org/2000/svg">
<path d="M24 44C20.0444 44 16.1776 42.827 12.8886 40.6294C9.59962 38.4318 7.03617 35.3082 5.52242 31.6537C4.00867 27.9992 3.6126 23.9778 4.3843 20.0982C5.15601 16.2186 7.06082 12.6549 9.85787 9.85787C12.6549 7.06082 16.2186 5.15601 20.0982 4.3843C23.9778 3.6126 27.9992 4.00867 31.6537 5.52242C35.3082 7.03617 38.4318 9.59962 40.6294 12.8886C42.827 16.1776 44 20.0444 44 24C44 29.3043 41.8929 34.3914 38.1421 38.1421C34.3914 41.8929 29.3043 44 24 44ZM24 9.22001C21.0768 9.22001 18.2192 10.0868 15.7887 11.7109C13.3581 13.3349 11.4637 15.6433 10.3451 18.3439C9.22641 21.0446 8.93371 24.0164 9.504 26.8834C10.0743 29.7505 11.4819 32.384 13.549 34.451C15.616 36.5181 18.2495 37.9257 21.1166 38.496C23.9836 39.0663 26.9554 38.7736 29.6561 37.6549C32.3568 36.5363 34.6651 34.6419 36.2891 32.2113C37.9132 29.7808 38.78 26.9232 38.78 24C38.7747 20.0817 37.2158 16.3255 34.4452 13.5548C31.6746 10.7842 27.9183 9.2253 24 9.22001Z" fill="black"/>
<path d="M22 31.83C21.1353 31.8282 20.3058 31.4871 19.69 30.88L15.69 26.88C15.2188 26.388 14.9586 25.7313 14.965 25.0501C14.9714 24.3688 15.2439 23.7171 15.7243 23.2341C16.2047 22.751 16.855 22.475 17.5362 22.4649C18.2173 22.4548 18.8755 22.7114 19.37 23.18L21.86 25.66L28.52 17.19C28.7302 16.9153 28.9928 16.6851 29.2927 16.5128C29.5926 16.3405 29.9238 16.2295 30.2669 16.1863C30.6101 16.1431 30.9584 16.1686 31.2917 16.2611C31.6249 16.3537 31.9364 16.5116 32.2081 16.7257C32.4798 16.9397 32.7062 17.2056 32.8743 17.5079C33.0423 17.8102 33.1486 18.1429 33.1869 18.4867C33.2252 18.8304 33.1948 19.1783 33.0975 19.5102C33.0002 19.8421 32.8379 20.1514 32.62 20.42L24.62 30.6C24.3323 30.9619 23.9718 31.2593 23.5618 31.4729C23.1518 31.6865 22.7014 31.8116 22.24 31.84L22 31.83Z" fill="black"/>
</svg>
