<svg width="48" height="48" viewBox="0 0 48 48" fill="none" xmlns="http://www.w3.org/2000/svg">
<path d="M19.2873 39.647C18.4396 39.637 17.6286 39.2997 17.0239 38.7055L4.41472 26.2266C4.2832 26.0951 4.17887 25.9389 4.10769 25.7671C4.03651 25.5952 3.99988 25.4111 3.99988 25.2251C3.99988 25.0391 4.03651 24.8549 4.10769 24.683C4.17887 24.5112 4.2832 24.3551 4.41472 24.2235C4.54624 24.092 4.70238 23.9877 4.87422 23.9165C5.04607 23.8453 5.23024 23.8087 5.41624 23.8087C5.60224 23.8087 5.78642 23.8453 5.95826 23.9165C6.1301 23.9877 6.28624 24.092 6.41777 24.2235L18.9668 36.7225C19.0619 36.8105 19.1879 36.8573 19.3174 36.8527C19.3842 36.8512 19.4498 36.8341 19.5089 36.8028C19.568 36.7715 19.619 36.7269 19.6579 36.6725L41.5712 8.8001C41.8111 8.54217 42.1394 8.38403 42.4907 8.35712C42.8419 8.33022 43.1904 8.43653 43.4669 8.65491C43.7433 8.87329 43.9274 9.18773 43.9826 9.53567C44.0377 9.88362 43.9599 10.2396 43.7645 10.5327L21.8512 38.4051C21.567 38.767 21.2095 39.0647 20.8022 39.2787C20.3948 39.4927 19.9469 39.6182 19.4876 39.647H19.2873Z" fill="black"/>
</svg>
