<svg width="48" height="48" viewBox="0 0 48 48" fill="none" xmlns="http://www.w3.org/2000/svg">
<path d="M37.305 19.4699C37.1188 19.4694 36.9346 19.432 36.763 19.3599C36.5913 19.2879 36.4357 19.1825 36.305 19.0499L24.195 6.87994C24.17 6.84485 24.137 6.81625 24.0987 6.79651C24.0605 6.77677 24.018 6.76647 23.975 6.76647C23.9319 6.76647 23.8895 6.77677 23.8512 6.79651C23.8129 6.81625 23.7799 6.84485 23.755 6.87994L11.695 19.0499C11.4298 19.3152 11.07 19.4642 10.695 19.4642C10.3199 19.4642 9.96019 19.3152 9.69498 19.0499C9.42976 18.7847 9.28076 18.425 9.28076 18.0499C9.28076 17.6749 9.42976 17.3152 9.69498 17.0499L21.775 4.91994C22.0621 4.62806 22.4046 4.39636 22.7823 4.23839C23.1601 4.08043 23.5655 3.99936 23.975 3.99994C24.3858 4.00025 24.7925 4.08168 25.1717 4.23956C25.551 4.39743 25.8953 4.62865 26.185 4.91994L38.245 17.0899C38.438 17.2868 38.5685 17.5364 38.6203 17.8072C38.672 18.078 38.6427 18.3581 38.5359 18.6123C38.4291 18.8664 38.2496 19.0834 38.0199 19.236C37.7903 19.3886 37.5207 19.47 37.245 19.4699H37.305Z" fill="black"/>
<path d="M23.975 44C23.5654 44.0017 23.1596 43.9212 22.7817 43.7631C22.4038 43.6051 22.0614 43.3728 21.775 43.08L9.70498 30.91C9.43977 30.6448 9.29077 30.2851 9.29077 29.91C9.29077 29.5349 9.43977 29.1752 9.70499 28.91C9.9702 28.6448 10.3299 28.4958 10.705 28.4958C11.0801 28.4958 11.4398 28.6448 11.705 28.91L23.755 41.12C23.814 41.1771 23.8928 41.2094 23.975 41.21C24.0572 41.2094 24.1359 41.1771 24.195 41.12L36.305 29C36.5702 28.7348 36.9299 28.5858 37.305 28.5858C37.6801 28.5858 38.0398 28.7348 38.305 29C38.5702 29.2652 38.7192 29.6249 38.7192 30C38.7192 30.3751 38.5702 30.7348 38.305 31L26.185 43.08C25.896 43.3722 25.5518 43.604 25.1724 43.7619C24.793 43.9199 24.3859 44.0008 23.975 44Z" fill="black"/>
</svg>
