<svg width="48" height="48" viewBox="0 0 48 48" fill="none" xmlns="http://www.w3.org/2000/svg">
<path d="M24.0001 35.1736C23.4022 35.1772 22.8096 35.0613 22.2571 34.8327C21.7046 34.6041 21.2033 34.2674 20.7828 33.8423L4.66575 17.574C4.20396 17.0181 3.96769 16.309 4.00371 15.5872C4.03972 14.8654 4.34539 14.1834 4.86022 13.6761C5.37505 13.1689 6.06154 12.8734 6.78382 12.8482C7.5061 12.8229 8.21154 13.0697 8.76056 13.5397L24.0001 28.9003L39.2397 13.5195C39.7887 13.0495 40.4942 12.8027 41.2164 12.828C41.9387 12.8533 42.6252 13.1487 43.14 13.656C43.6549 14.1632 43.9605 14.8452 43.9965 15.567C44.0326 16.2888 43.7963 16.9979 43.3345 17.5538L27.2175 33.8423C26.7969 34.2674 26.2957 34.6041 25.7432 34.8327C25.1907 35.0613 24.598 35.1772 24.0001 35.1736Z" fill="black"/>
</svg>
