<svg width="48" height="48" viewBox="0 0 48 48" fill="none" xmlns="http://www.w3.org/2000/svg">
<path d="M18.07 38.6621C17.885 38.6658 17.7012 38.6324 17.5294 38.5637C17.3576 38.4949 17.2014 38.3924 17.07 38.2621L4.92 26.2021C4.62871 25.9124 4.39749 25.5681 4.23962 25.1888C4.08174 24.8096 4.00031 24.4029 4 23.9921C3.99942 23.5826 4.08049 23.1772 4.23845 22.7994C4.39642 22.4217 4.62812 22.0792 4.92 21.7921L17.09 9.72207C17.3552 9.45686 17.7149 9.30786 18.09 9.30786C18.4651 9.30786 18.8248 9.45686 19.09 9.72207C19.3552 9.98729 19.5042 10.347 19.5042 10.7221C19.5042 11.0971 19.3552 11.4569 19.09 11.7221L6.88 23.7721C6.85098 23.8009 6.82794 23.8352 6.81222 23.8729C6.7965 23.9107 6.78841 23.9512 6.78841 23.9921C6.78841 24.033 6.7965 24.0735 6.81222 24.1112C6.82794 24.149 6.85098 24.1833 6.88 24.2121L19.05 36.3221C19.248 36.5171 19.3829 36.767 19.4375 37.0395C19.492 37.312 19.4636 37.5945 19.356 37.8507C19.2484 38.1069 19.0664 38.325 18.8336 38.4767C18.6008 38.6285 18.3279 38.707 18.05 38.7021L18.07 38.6621Z" fill="black"/>
<path d="M29.93 38.6621C29.7444 38.6634 29.5605 38.6278 29.3888 38.5575C29.2171 38.4871 29.0612 38.3833 28.93 38.2521C28.7944 38.1232 28.6865 37.968 28.6128 37.7961C28.539 37.6242 28.501 37.4391 28.501 37.2521C28.501 37.065 28.539 36.8799 28.6128 36.708C28.6865 36.5361 28.7944 36.381 28.93 36.2521L41.12 24.2121C41.149 24.1833 41.172 24.149 41.1878 24.1112C41.2035 24.0735 41.2116 24.033 41.2116 23.9921C41.2116 23.9512 41.2035 23.9107 41.1878 23.8729C41.172 23.8352 41.149 23.8009 41.12 23.7721L29 11.7121C28.7348 11.4468 28.5858 11.0871 28.5858 10.7121C28.5858 10.337 28.7348 9.97728 29 9.71207C29.2652 9.44685 29.6249 9.29785 30 9.29785C30.375 9.29785 30.7348 9.44685 31 9.71207L43.08 21.7921C43.3719 22.0792 43.6036 22.4217 43.7615 22.7994C43.9195 23.1772 44.0006 23.5826 44 23.9921C43.9997 24.4029 43.9182 24.8096 43.7604 25.1888C43.6025 25.5681 43.3713 25.9124 43.08 26.2021L30.91 38.2621C30.781 38.39 30.628 38.4911 30.4599 38.5598C30.2917 38.6284 30.1116 38.6632 29.93 38.6621Z" fill="black"/>
</svg>
