<svg width="48" height="48" viewBox="0 0 48 48" fill="none" xmlns="http://www.w3.org/2000/svg">
<path d="M23.9761 33.43C23.5846 33.433 23.1965 33.3576 22.8346 33.2084C22.4726 33.0591 22.1442 32.839 21.8685 32.561L6.39608 16.9387C6.13778 16.6738 5.99531 16.3171 5.99999 15.9472C6.00467 15.5772 6.15613 15.2243 6.42105 14.966C6.68596 14.7077 7.04264 14.5652 7.4126 14.5699C7.78256 14.5746 8.13552 14.726 8.39381 14.9909L23.8263 30.5633C23.867 30.6012 23.9205 30.6223 23.9761 30.6223C24.0317 30.6223 24.0853 30.6012 24.126 30.5633L39.5884 14.9909C39.8533 14.726 40.2126 14.5772 40.5873 14.5772C40.9619 14.5772 41.3212 14.726 41.5861 14.9909C41.8511 15.2558 41.9999 15.6152 41.9999 15.9898C41.9999 16.3644 41.8511 16.7238 41.5861 16.9887L26.0837 32.561C25.8081 32.839 25.4796 33.0591 25.1177 33.2084C24.7558 33.3576 24.3676 33.433 23.9761 33.43Z" fill="black"/>
</svg>
