<svg width="48" height="48" viewBox="0 0 48 48" fill="none" xmlns="http://www.w3.org/2000/svg">
<path d="M32.0327 41.9981C31.8476 42.003 31.6634 41.9701 31.4914 41.9013C31.3195 41.8325 31.1634 41.7294 31.0327 41.5981L15.4327 26.1081C14.877 25.5465 14.5653 24.7882 14.5653 23.9981C14.5653 23.208 14.877 22.4498 15.4327 21.8881L31.0627 6.39811C31.3279 6.13953 31.685 5.99689 32.0554 6.00158C32.4258 6.00627 32.7791 6.1579 33.0377 6.42311C33.2963 6.68833 33.439 7.04541 33.4343 7.41579C33.4296 7.78617 33.2779 8.13953 33.0127 8.39811L17.3827 23.8481C17.3628 23.8676 17.3472 23.891 17.3369 23.9168C17.3266 23.9426 17.3217 23.9703 17.3227 23.9981C17.323 24.0539 17.3444 24.1075 17.3827 24.1481L33.0127 39.6281C33.2072 39.8237 33.3391 40.0727 33.3916 40.3434C33.4441 40.6142 33.4149 40.8944 33.3077 41.1486C33.2005 41.4027 33.0201 41.6191 32.7895 41.7704C32.5589 41.9217 32.2885 42.001 32.0127 41.9981H32.0327Z" fill="black"/>
</svg>
