<svg width="48" height="48" viewBox="0 0 48 48" fill="none" xmlns="http://www.w3.org/2000/svg">
<path d="M15.958 41.9999C15.6826 42.0028 15.4125 41.9236 15.1822 41.7725C14.9519 41.6214 14.7717 41.4052 14.6646 41.1514C14.5575 40.8976 14.5284 40.6177 14.5808 40.3473C14.6333 40.0769 14.765 39.8282 14.9592 39.6328L30.5601 24.1719C30.5813 24.1531 30.5983 24.1301 30.61 24.1042C30.6217 24.0784 30.6277 24.0504 30.6277 24.022C30.6277 23.9937 30.6217 23.9657 30.61 23.9399C30.5983 23.914 30.5813 23.891 30.5601 23.8722L14.9892 8.41125C14.7243 8.14636 14.5755 7.78709 14.5755 7.41248C14.5755 7.03786 14.7243 6.6786 14.9892 6.4137C15.2541 6.14881 15.6134 6 15.988 6C16.3626 6 16.7219 6.14881 16.9868 6.4137L32.5576 21.9146C32.8385 22.1891 33.0616 22.5169 33.214 22.8788C33.3664 23.2407 33.4449 23.6294 33.4449 24.022C33.4449 24.4147 33.3664 24.8034 33.214 25.1653C33.0616 25.5272 32.8385 25.855 32.5576 26.1294L16.9368 41.6004C16.8083 41.7286 16.6556 41.8299 16.4876 41.8985C16.3195 41.9671 16.1395 42.0016 15.958 41.9999Z" fill="black"/>
</svg>
