<svg width="48" height="48" viewBox="0 0 48 48" fill="none" xmlns="http://www.w3.org/2000/svg">
<path d="M18.4635 39.0433C18.1219 39.0448 17.7835 38.9784 17.4678 38.848C17.1521 38.7177 16.8655 38.5258 16.6246 38.2838L5.25147 27.0506C4.85503 26.6584 4.5403 26.1914 4.32551 25.6768C4.11072 25.1622 4.00012 24.61 4.00012 24.0524C4.00012 23.4947 4.11072 22.9426 4.32551 22.428C4.5403 21.9133 4.85503 21.4464 5.25147 21.0542L16.6246 9.82099C16.862 9.55686 17.1508 9.34399 17.4734 9.19541C17.7959 9.04684 18.1454 8.9657 18.5004 8.95697C18.8555 8.94823 19.2085 9.01208 19.538 9.14461C19.8675 9.27714 20.1664 9.47555 20.4165 9.72769C20.6666 9.97983 20.8626 10.2804 20.9924 10.6109C21.1223 10.9415 21.1833 11.295 21.1716 11.65C21.16 12.0049 21.076 12.3538 20.9248 12.6751C20.7736 12.9964 20.5584 13.2835 20.2924 13.5188L9.64881 24.0524L20.2924 34.626C20.6444 34.9915 20.8821 35.4518 20.9765 35.9504C21.0708 36.449 21.0177 36.9643 20.8236 37.4332C20.6294 37.902 20.3028 38.3041 19.8836 38.5901C19.4644 38.8761 18.9708 39.0336 18.4635 39.0433Z" fill="black"/>
<path d="M29.5368 39.0433C29.0213 39.0411 28.518 38.8862 28.0905 38.5982C27.6629 38.3102 27.3303 37.902 27.1346 37.4251C26.939 36.9482 26.889 36.424 26.991 35.9187C27.093 35.4134 27.3425 34.9496 27.7079 34.586L38.3514 24.0524L27.7079 13.5188C27.4418 13.2835 27.2266 12.9964 27.0754 12.6751C26.9242 12.3538 26.8402 12.0049 26.8286 11.65C26.817 11.295 26.878 10.9415 27.0078 10.6109C27.1376 10.2804 27.3336 9.97983 27.5837 9.72769C27.8338 9.47555 28.1327 9.27714 28.4622 9.14461C28.7917 9.01208 29.1448 8.94823 29.4998 8.95697C29.8548 8.9657 30.2043 9.04684 30.5269 9.19541C30.8494 9.34399 31.1383 9.55686 31.3757 9.82099L42.7488 21.0542C43.1452 21.4464 43.4599 21.9133 43.6747 22.428C43.8895 22.9426 44.0001 23.4947 44.0001 24.0524C44.0001 24.61 43.8895 25.1622 43.6747 25.6768C43.4599 26.1914 43.1452 26.6584 42.7488 27.0506L31.3757 38.3237C31.1315 38.5586 30.8434 38.7431 30.5278 38.8665C30.2123 38.99 29.8755 39.0501 29.5368 39.0433Z" fill="black"/>
</svg>
