<svg width="48" height="48" viewBox="0 0 48 48" fill="none" xmlns="http://www.w3.org/2000/svg">
<path d="M40.5974 33.3997C40.4122 33.401 40.2285 33.3655 40.0571 33.2952C39.8856 33.2249 39.7299 33.1213 39.5989 32.9903L24.1508 17.3825C24.1102 17.3446 24.0566 17.3235 24.001 17.3235C23.9455 17.3235 23.8919 17.3446 23.8513 17.3825L8.39324 32.9903C8.13503 33.2551 7.78218 33.4065 7.41232 33.4112C7.04246 33.4159 6.68589 33.2735 6.42105 33.0152C6.15621 32.757 6.00479 32.4042 6.00011 32.0343C5.99543 31.6645 6.13787 31.3079 6.39608 31.043L21.894 15.4352C22.461 14.892 23.2159 14.5888 24.001 14.5888C24.7862 14.5888 25.5411 14.892 26.1081 15.4352L41.5761 31.043C41.7101 31.1725 41.8168 31.3276 41.8896 31.4992C41.9625 31.6708 42 31.8552 42 32.0416C42 32.228 41.9625 32.4125 41.8896 32.584C41.8168 32.7556 41.7101 32.9107 41.5761 33.0402C41.3079 33.2808 40.9576 33.4095 40.5974 33.3997Z" fill="black"/>
</svg>
