<svg width="48" height="48" viewBox="0 0 48 48" fill="none" xmlns="http://www.w3.org/2000/svg">
<path d="M15.821 43.9999C15.258 43.9971 14.7086 43.8274 14.242 43.5124C13.7754 43.1974 13.4127 42.7512 13.1995 42.2302C12.9864 41.7091 12.9325 41.1366 13.0446 40.5849C13.1568 40.0332 13.4299 39.5272 13.8294 39.1306L29.0049 24.0846L13.8195 9.03861C13.5161 8.78665 13.2684 8.47445 13.0921 8.12177C12.9157 7.7691 12.8144 7.38364 12.7948 6.9898C12.7751 6.59597 12.8375 6.20234 12.9779 5.83386C13.1183 5.46538 13.3337 5.13007 13.6105 4.84917C13.8872 4.56828 14.2193 4.34791 14.5856 4.20204C14.952 4.05616 15.3446 3.98796 15.7387 4.00174C16.1328 4.01552 16.5197 4.111 16.875 4.28211C17.2302 4.45323 17.5461 4.69626 17.8025 4.9958L33.8841 20.9081C34.3038 21.3238 34.637 21.8186 34.8643 22.3638C35.0917 22.909 35.2088 23.4939 35.2088 24.0846C35.2088 24.6753 35.0917 25.2602 34.8643 25.8054C34.637 26.3506 34.3038 26.8454 33.8841 27.2611L17.8324 43.1934C17.2938 43.7159 16.5713 44.0056 15.821 43.9999Z" fill="black"/>
</svg>
