<svg width="48" height="48" viewBox="0 0 48 48" fill="none" xmlns="http://www.w3.org/2000/svg">
<path d="M32.3427 44C31.5901 43.9951 30.8692 43.6959 30.3342 43.1665L14.1454 27.0982C13.7221 26.6789 13.3861 26.1799 13.1568 25.63C12.9275 25.0802 12.8094 24.4903 12.8094 23.8945C12.8094 23.2988 12.9275 22.7089 13.1568 22.159C13.3861 21.6092 13.7221 21.1102 14.1454 20.6909L30.3242 4.66278C30.8777 4.20297 31.5838 3.96771 32.3025 4.00357C33.0212 4.03943 33.7003 4.34379 34.2054 4.85643C34.7104 5.36906 35.0047 6.05261 35.0298 6.77181C35.055 7.49101 34.8092 8.19344 34.3412 8.74011L19.0563 23.9146L34.3714 39.0891C34.8964 39.6258 35.1904 40.3468 35.1904 41.0977C35.1904 41.8485 34.8964 42.5695 34.3714 43.1062C34.1111 43.3844 33.7971 43.607 33.4485 43.7606C33.0998 43.9142 32.7237 43.9957 32.3427 44Z" fill="black"/>
</svg>
