<svg width="48" height="48" viewBox="0 0 48 48" fill="none" xmlns="http://www.w3.org/2000/svg">
<path d="M36.4101 21.0701C36.0662 21.07 35.7257 21.0019 35.4083 20.8697C35.0908 20.7376 34.8025 20.544 34.5601 20.3001L23.9801 9.6401L13.4401 20.3001C13.2007 20.5528 12.9132 20.755 12.5944 20.8949C12.2757 21.0348 11.9322 21.1095 11.5842 21.1147C11.2362 21.1198 10.8906 21.0553 10.5679 20.9249C10.2451 20.7946 9.95175 20.6009 9.70496 20.3555C9.45816 20.11 9.26296 19.8177 9.13084 19.4957C8.99872 19.1736 8.93234 18.8285 8.93561 18.4804C8.93889 18.1323 9.01175 17.7884 9.14991 17.469C9.28806 17.1495 9.48873 16.8609 9.7401 16.6201L20.9801 5.2401C21.3729 4.84471 21.8404 4.53144 22.3555 4.31855C22.8705 4.10566 23.4228 3.99741 23.9801 4.0001C24.5377 3.99516 25.0907 4.10239 25.606 4.3154C26.1214 4.52842 26.5887 4.84289 26.9801 5.2401L38.2601 16.6201C38.6235 16.9857 38.8705 17.4507 38.97 17.9564C39.0694 18.4622 39.0169 18.9861 38.819 19.462C38.6212 19.938 38.2868 20.3447 37.8581 20.6309C37.4294 20.9171 36.9255 21.0699 36.4101 21.0701Z" fill="black"/>
<path d="M23.9801 44.0001C23.4228 44.0028 22.8705 43.8945 22.3555 43.6817C21.8404 43.4688 21.3729 43.1555 20.9801 42.7601L9.7401 31.3801C9.4758 31.1426 9.2628 30.8536 9.11414 30.5308C8.96548 30.2081 8.88429 29.8583 8.87555 29.5031C8.8668 29.1479 8.9307 28.7946 9.0633 28.4649C9.19591 28.1352 9.39445 27.8361 9.64673 27.5859C9.89902 27.3356 10.1998 27.1395 10.5305 27.0096C10.8612 26.8797 11.215 26.8187 11.5702 26.8303C11.9254 26.8419 12.2744 26.926 12.5959 27.0773C12.9175 27.2285 13.2047 27.4439 13.4401 27.7101L23.9801 38.3601L34.5601 27.7101C34.7955 27.4439 35.0827 27.2285 35.4043 27.0773C35.7258 26.926 36.0748 26.8419 36.43 26.8303C36.7852 26.8187 37.1389 26.8797 37.4697 27.0096C37.8004 27.1395 38.1012 27.3356 38.3535 27.5859C38.6057 27.8361 38.8043 28.1352 38.9369 28.4649C39.0695 28.7946 39.1334 29.1479 39.1246 29.5031C39.1159 29.8583 39.0347 30.2081 38.8861 30.5308C38.7374 30.8536 38.5244 31.1426 38.2601 31.3801L26.9801 42.7601C26.5873 43.1555 26.1198 43.4688 25.6047 43.6817C25.0897 43.8945 24.5374 44.0028 23.9801 44.0001Z" fill="black"/>
</svg>
