<svg width="48" height="48" viewBox="0 0 48 48" fill="none" xmlns="http://www.w3.org/2000/svg">
<path d="M6.81495 35.0211C6.25658 35.0171 5.71182 34.8483 5.24901 34.5359C4.7862 34.2235 4.42595 33.7813 4.21345 33.265C4.00095 32.7486 3.94566 32.181 4.05453 31.6333C4.16339 31.0856 4.43155 30.5823 4.82538 30.1864L20.742 14.1405C21.1573 13.7212 21.6515 13.3884 22.1962 13.1613C22.7409 12.9341 23.3252 12.8172 23.9153 12.8172C24.5055 12.8172 25.0898 12.9341 25.6345 13.1613C26.1791 13.3884 26.6734 13.7212 27.0887 14.1405L43.0053 30.1765C43.3046 30.4327 43.5473 30.7482 43.7183 31.1031C43.8892 31.458 43.9846 31.8446 43.9984 32.2383C44.0121 32.632 43.944 33.0243 43.7983 33.3902C43.6525 33.7562 43.4324 34.088 43.1518 34.3644C42.8712 34.6409 42.5362 34.8561 42.1681 34.9964C41.7999 35.1366 41.4067 35.1989 41.0133 35.1793C40.6198 35.1597 40.2347 35.0585 39.8824 34.8823C39.5301 34.7061 39.2182 34.4587 38.9665 34.1556L23.8656 19.015L8.83437 34.1855C8.56913 34.4506 8.25428 34.6608 7.90778 34.8042C7.56128 34.9475 7.18994 35.0213 6.81495 35.0211Z" fill="black"/>
</svg>
