<svg width="48" height="48" viewBox="0 0 48 48" fill="none" xmlns="http://www.w3.org/2000/svg">
<path fill-rule="evenodd" clip-rule="evenodd" d="M4 35.27V40.73H9.45C9.45131 40.0135 9.31132 39.3037 9.03802 38.6413C8.76472 37.9789 8.36348 37.3769 7.85727 36.8698C7.35106 36.3627 6.74981 35.9603 6.08794 35.6858C5.42606 35.4113 4.71655 35.27 4 35.27ZM4 28V31.64C5.19372 31.64 6.37574 31.8751 7.47859 32.3319C8.58144 32.7888 9.58352 33.4583 10.4276 34.3024C11.2717 35.1465 11.9412 36.1486 12.3981 37.2514C12.8549 38.3543 13.09 39.5363 13.09 40.73H16.73C16.7313 39.0579 16.4029 37.402 15.7637 35.8569C15.1244 34.3118 14.1868 32.9079 13.0044 31.7256C11.8221 30.5432 10.4182 29.6056 8.87312 28.9663C7.32805 28.3271 5.6721 27.9987 4 28ZM4 20.73V24.36C6.14927 24.36 8.27747 24.7835 10.263 25.6063C12.2486 26.4291 14.0525 27.635 15.5718 29.1553C17.0911 30.6755 18.296 32.4802 19.1175 34.4662C19.9391 36.4523 20.3613 38.5807 20.36 40.73H24C24 35.4257 21.8929 30.3386 18.1421 26.5879C14.3914 22.8371 9.30433 20.73 4 20.73ZM40.36 8H7.64C6.67542 8.00264 5.75111 8.38699 5.06905 9.06905C4.38699 9.75111 4.00264 10.6754 4 11.64V17.09H7.64V11.64H40.36V37.09H27.64V40.73H40.36C41.3246 40.7274 42.2489 40.343 42.931 39.661C43.613 38.9789 43.9974 38.0546 44 37.09V11.64C43.9974 10.6754 43.613 9.75111 42.931 9.06905C42.2489 8.38699 41.3246 8.00264 40.36 8Z" fill="black"/>
</svg>
