<svg width="48" height="48" viewBox="0 0 48 48" fill="none" xmlns="http://www.w3.org/2000/svg">
<path fill-rule="evenodd" clip-rule="evenodd" d="M14.8011 27.8206L7.28615 12.9895C5.44824 15.7851 4.34145 18.9975 4.06725 22.332C3.79305 25.6665 4.36021 29.0165 5.71675 32.0749C7.07329 35.1332 9.17579 37.8021 11.8315 39.8369C14.4872 41.8717 17.6112 43.2072 20.9171 43.7211L26.0137 33.6671C23.7642 34.0326 21.4568 33.6608 19.436 32.6071C17.4152 31.5534 15.7893 29.8743 14.8011 27.8206ZM42.6526 16.8272L31.4001 17.4068C32.8452 19.1785 33.6778 21.3705 33.7733 23.6549C33.8688 25.9393 33.222 28.1932 31.9297 30.0792L22.9357 43.9709C26.2693 44.1509 29.5949 43.493 32.6089 42.0571C35.6229 40.6213 38.2292 38.4532 40.1899 35.751C42.1506 33.0488 43.4032 29.8984 43.8334 26.5876C44.2636 23.2767 43.8576 19.9108 42.6526 16.7972V16.8272ZM17.2795 23.9829C17.2795 25.3151 17.6745 26.6175 18.4146 27.7252C19.1547 28.8329 20.2067 29.6963 21.4374 30.2061C22.6682 30.7159 24.0225 30.8493 25.329 30.5894C26.6356 30.3295 27.8357 29.688 28.7777 28.7459C29.7197 27.8039 30.3612 26.6037 30.6211 25.297C30.881 23.9904 30.7476 22.636 30.2378 21.4051C29.728 20.1743 28.8647 19.1223 27.757 18.3821C26.6494 17.642 25.3472 17.2469 24.015 17.2469C23.1301 17.2456 22.2537 17.4189 21.4359 17.757C20.6181 18.095 19.875 18.5912 19.2493 19.2169C18.6236 19.8427 18.1275 20.5858 17.7895 21.4036C17.4515 22.2214 17.2782 23.0979 17.2795 23.9829ZM14.6313 20.8847L8.46537 11.4204C10.565 8.8235 13.2819 6.79413 16.3678 5.51766C19.4536 4.24119 22.8101 3.75831 26.1306 4.11315C29.4511 4.46798 32.6298 5.64921 35.3763 7.54894C38.1228 9.44866 40.3495 12.0063 41.8531 14.9883L25.3041 14.1088C23.031 13.9279 20.7607 14.491 18.8355 15.7132C16.9103 16.9354 15.4347 18.7505 14.6313 20.8847Z" fill="black"/>
</svg>
