<svg width="48" height="48" viewBox="0 0 48 48" fill="none" xmlns="http://www.w3.org/2000/svg">
<path d="M14.2675 24.14C14.2593 23.9403 14.292 23.741 14.3634 23.5544C14.4349 23.3678 14.5436 23.1977 14.683 23.0545C14.8225 22.9113 14.9896 22.7981 15.1743 22.7217C15.359 22.6454 15.5573 22.6075 15.7571 22.6103C16.0228 22.6039 16.2841 22.679 16.5057 22.8256C16.7274 22.9721 16.8988 23.1831 16.9968 23.4301L16.5069 23.6601C16.4525 23.4961 16.3457 23.3545 16.2031 23.257C16.0604 23.1594 15.8897 23.1114 15.7171 23.1202C15.4715 23.1474 15.2446 23.2646 15.0803 23.4492C14.916 23.6339 14.8259 23.8728 14.8274 24.12C14.8259 24.3671 14.916 24.6061 15.0803 24.7907C15.2446 24.9753 15.4715 25.0925 15.7171 25.1197C15.8956 25.1269 16.0721 25.0802 16.2237 24.9857C16.3752 24.8912 16.4948 24.7532 16.5669 24.5898L17.0468 24.7898C16.9405 25.0391 16.7616 25.2507 16.5333 25.3969C16.3051 25.5431 16.0381 25.6172 15.7671 25.6096C15.3753 25.6071 14.9998 25.4524 14.72 25.1782C14.4401 24.9039 14.2779 24.5316 14.2675 24.14ZM17.9966 23.1202C18.0968 22.9682 18.2334 22.8438 18.3941 22.7582C18.5548 22.6726 18.7343 22.6287 18.9163 22.6303C19.0703 22.6243 19.2236 22.6523 19.3655 22.7122C19.5074 22.7721 19.6344 22.8625 19.7375 22.977C19.8405 23.0915 19.9171 23.2273 19.9618 23.3747C20.0065 23.5221 20.0182 23.6776 19.9961 23.83V25.5996H19.4562V23.91C19.4562 23.3202 19.1563 23.1202 18.7464 23.1202C18.5315 23.1406 18.3331 23.2438 18.1931 23.4081C18.0531 23.5723 17.9826 23.7846 17.9966 24V25.5996H17.4567V21.4106H17.9966V23.1202ZM20.5559 25.5996V22.7103H21.0658V23.1702C21.1462 23.0145 21.2661 22.8827 21.4135 22.7879C21.5609 22.6932 21.7306 22.6388 21.9056 22.6303C22.0463 22.6278 22.186 22.6551 22.3155 22.7103L22.1155 23.2202C22.0258 23.1873 21.9311 23.1704 21.8356 23.1702C21.7309 23.1753 21.6283 23.2011 21.5338 23.2463C21.4392 23.2914 21.3546 23.3549 21.2848 23.433C21.215 23.5112 21.1615 23.6025 21.1273 23.7015C21.0931 23.8006 21.079 23.9054 21.0858 24.01V25.5996H20.5559ZM25.3147 24.14C25.3147 24.5377 25.1567 24.9191 24.8755 25.2003C24.5943 25.4816 24.2128 25.6396 23.8151 25.6396C23.4174 25.6396 23.0359 25.4816 22.7547 25.2003C22.4735 24.9191 22.3155 24.5377 22.3155 24.14C22.3155 23.7422 22.4735 23.3608 22.7547 23.0796C23.0359 22.7983 23.4174 22.6403 23.8151 22.6403C24.2128 22.6403 24.5943 22.7983 24.8755 23.0796C25.1567 23.3608 25.3147 23.7422 25.3147 24.14ZM24.7749 24.14C24.827 23.9893 24.8423 23.8284 24.8197 23.6707C24.797 23.5129 24.7369 23.3629 24.6445 23.2331C24.552 23.1032 24.4299 22.9974 24.2882 22.9244C24.1465 22.8513 23.9895 22.8132 23.8301 22.8132C23.6707 22.8132 23.5136 22.8513 23.372 22.9244C23.2303 22.9974 23.1082 23.1032 23.0157 23.2331C22.9233 23.3629 22.8632 23.5129 22.8405 23.6707C22.8178 23.8284 22.8332 23.9893 22.8853 24.14C22.8332 24.2906 22.8178 24.4515 22.8405 24.6092C22.8632 24.767 22.9233 24.917 23.0157 25.0469C23.1082 25.1767 23.2303 25.2825 23.372 25.3556C23.5136 25.4286 23.6707 25.4667 23.8301 25.4667C23.9895 25.4667 24.1465 25.4286 24.2882 25.3556C24.4299 25.2825 24.552 25.1767 24.6445 25.0469C24.7369 24.917 24.797 24.767 24.8197 24.6092C24.8423 24.4515 24.827 24.2906 24.7749 24.14ZM26.2845 22.7103V23.1202C26.3799 22.9706 26.5114 22.8473 26.6668 22.7617C26.8223 22.6761 26.9968 22.631 27.1742 22.6303C27.3669 22.6152 27.5595 22.6611 27.7246 22.7616C27.8897 22.8621 28.019 23.0121 28.094 23.1902C28.1986 23.019 28.3456 22.8775 28.5206 22.7795C28.6957 22.6814 28.8931 22.6301 29.0938 22.6303C29.7836 22.6303 30.0935 23.1202 30.0935 23.83V25.5996H29.5337V23.91C29.5337 23.3202 29.3037 23.1202 28.8938 23.1202C28.6789 23.143 28.4814 23.2487 28.3432 23.4149C28.2051 23.581 28.1372 23.7945 28.154 24.01V25.5996H27.6141V23.91C27.6141 23.3202 27.3842 23.1202 26.9743 23.1202C26.7594 23.143 26.5619 23.2487 26.4237 23.4149C26.2855 23.581 26.2177 23.7945 26.2345 24.01V25.5996H25.6946V22.7103H26.2845ZM30.5334 24.14C30.5212 23.9468 30.5482 23.7532 30.6125 23.5706C30.6769 23.3881 30.7774 23.2204 30.9081 23.0776C31.0388 22.9349 31.1969 22.8199 31.373 22.7396C31.5491 22.6593 31.7396 22.6153 31.933 22.6103C32.1296 22.6065 32.3247 22.6444 32.5056 22.7216C32.6864 22.7988 32.8488 22.9134 32.982 23.058C33.1153 23.2026 33.2163 23.3738 33.2785 23.5603C33.3406 23.7468 33.3625 23.9444 33.3427 24.14V24.2399H30.9933C30.9822 24.3673 30.9977 24.4955 31.0389 24.6165C31.0802 24.7375 31.1461 24.8486 31.2327 24.9426C31.3192 25.0367 31.4244 25.1117 31.5416 25.1629C31.6587 25.214 31.7852 25.2402 31.9131 25.2397C32.0791 25.249 32.2439 25.207 32.3852 25.1193C32.5265 25.0317 32.6374 24.9027 32.7029 24.7498L33.1927 24.9597C33.0841 25.1846 32.9134 25.3737 32.7009 25.5048C32.4883 25.6359 32.2427 25.7035 31.993 25.6996C31.7918 25.6999 31.5926 25.6591 31.4077 25.5798C31.2228 25.5005 31.0559 25.3843 30.9175 25.2383C30.779 25.0923 30.6717 24.9196 30.6022 24.7308C30.5327 24.5419 30.5025 24.3409 30.5134 24.14H30.5334ZM31.933 23.1402C31.738 23.1436 31.55 23.214 31.4007 23.3396C31.2515 23.4653 31.1499 23.6384 31.1133 23.83H32.7728C32.7656 23.7251 32.7369 23.6227 32.6885 23.5293C32.6401 23.4359 32.5731 23.3534 32.4916 23.2868C32.4101 23.2203 32.3158 23.1712 32.2146 23.1426C32.1134 23.1139 32.0073 23.1063 31.9031 23.1202L31.933 23.1402ZM33.6426 24.14C33.6344 23.9403 33.6671 23.741 33.7385 23.5544C33.81 23.3678 33.9187 23.1977 34.0582 23.0545C34.1976 22.9113 34.3647 22.7981 34.5494 22.7217C34.7341 22.6454 34.9324 22.6075 35.1322 22.6103C35.3996 22.6018 35.6631 22.6759 35.8867 22.8226C36.1104 22.9693 36.2833 23.1815 36.3819 23.4301L35.892 23.6301C35.8335 23.4687 35.7258 23.3299 35.5841 23.233C35.4424 23.1361 35.2738 23.0862 35.1022 23.0902C34.8566 23.1174 34.6297 23.2346 34.4654 23.4192C34.3011 23.6039 34.211 23.8428 34.2125 24.09C34.1982 24.3456 34.2825 24.597 34.448 24.7923C34.6136 24.9876 34.8477 25.1119 35.1022 25.1397C35.2807 25.1468 35.4571 25.0988 35.6073 25.0023C35.7576 24.9057 35.8744 24.7652 35.942 24.5998L36.4319 24.8098C36.3252 25.0581 36.1459 25.2683 35.9175 25.4128C35.6891 25.5574 35.4223 25.6294 35.1522 25.6196C34.9507 25.6252 34.7502 25.5894 34.5632 25.5143C34.3762 25.4391 34.2066 25.3263 34.065 25.1829C33.9234 25.0394 33.8128 24.8683 33.7402 24.6803C33.6675 24.4923 33.6343 24.2914 33.6426 24.09V24.14ZM36.7118 24.7298C36.7118 24.09 37.3017 23.7301 37.9615 23.7301C38.2301 23.7142 38.4976 23.7768 38.7313 23.91V23.81C38.7301 23.7155 38.7098 23.6222 38.6716 23.5358C38.6333 23.4493 38.578 23.3715 38.5088 23.307C38.4397 23.2426 38.3582 23.1928 38.2693 23.1607C38.1804 23.1286 38.0859 23.1148 37.9915 23.1202C37.8486 23.111 37.7062 23.1452 37.5831 23.2183C37.46 23.2915 37.3619 23.4002 37.3017 23.5301L36.8118 23.3202C36.9149 23.0988 37.083 22.9141 37.2938 22.7909C37.5046 22.6676 37.748 22.6116 37.9915 22.6303C38.1589 22.6159 38.3275 22.6374 38.4859 22.6934C38.6443 22.7494 38.789 22.8386 38.9101 22.9551C39.0313 23.0715 39.1262 23.2125 39.1885 23.3685C39.2507 23.5246 39.2789 23.6922 39.2712 23.86V25.5996H38.7613V25.1897C38.6521 25.3511 38.502 25.4806 38.3264 25.5649C38.1507 25.6492 37.9558 25.6853 37.7616 25.6696C37.6294 25.6791 37.4967 25.6622 37.3711 25.6199C37.2456 25.5777 37.1297 25.5109 37.0301 25.4235C36.9306 25.336 36.8494 25.2297 36.7913 25.1106C36.7333 24.9915 36.6995 24.8621 36.6918 24.7298H36.7118ZM38.7113 24.3399C38.4948 24.2101 38.2433 24.1507 37.9915 24.1699C37.4317 24.1699 37.2017 24.4699 37.2017 24.7298C37.2017 24.9897 37.5016 25.1897 37.7916 25.1897C37.9071 25.1937 38.0223 25.1749 38.1306 25.1343C38.2389 25.0938 38.3381 25.0323 38.4226 24.9534C38.5071 24.8744 38.5752 24.7796 38.623 24.6744C38.6709 24.5691 38.6975 24.4555 38.7013 24.3399H38.7113ZM39.5811 24.8598L40.061 24.6498C40.1184 24.8079 40.2231 24.9445 40.3608 25.0411C40.4985 25.1377 40.6626 25.1895 40.8308 25.1897C41.1607 25.1897 41.3907 25.0397 41.3907 24.7798C41.3907 24.5199 41.3207 24.4699 41.0108 24.3999L40.4209 24.2699C40.171 24.1899 39.6611 23.99 39.6611 23.4801C39.6611 22.9702 40.191 22.6303 40.7808 22.6303C41.0105 22.6167 41.2389 22.6735 41.4354 22.7932C41.632 22.9129 41.7873 23.0898 41.8805 23.3002L41.4207 23.5001C41.3641 23.3737 41.2686 23.2686 41.1481 23.2003C41.0276 23.1319 40.8884 23.1039 40.7508 23.1202C40.4509 23.1202 40.191 23.2502 40.191 23.4801C40.191 23.7101 40.3509 23.76 40.5809 23.81L41.1407 23.94C41.3522 23.9594 41.5492 24.0556 41.6947 24.2103C41.8402 24.365 41.9241 24.5675 41.9305 24.7798C41.9305 25.2897 41.4706 25.6696 40.8108 25.6696C40.5468 25.6806 40.286 25.6084 40.0653 25.463C39.8447 25.3177 39.6753 25.1067 39.5811 24.8598ZM42.6503 24.6998V23.1902H42.1305V22.7103H42.6503V21.8405H43.1802V22.7103H43.87V23.1902H43.1802V24.6498C43.1802 24.9797 43.3102 25.1097 43.5701 25.1097C43.6566 25.1193 43.7439 25.1019 43.82 25.0597L44 25.5196C43.8632 25.5738 43.7172 25.6009 43.5701 25.5996C43.4469 25.6174 43.3213 25.6066 43.203 25.568C43.0847 25.5294 42.9768 25.464 42.8879 25.377C42.7989 25.29 42.7312 25.1836 42.69 25.0662C42.6488 24.9487 42.6352 24.8234 42.6503 24.6998ZM11.7381 22.4804H8.99883C9.25557 22.6431 9.46771 22.8673 9.61608 23.1326C9.76445 23.3979 9.84437 23.696 9.84862 24C9.86325 24.1362 9.86325 24.2736 9.84862 24.4099C9.81067 24.6228 9.72524 24.8244 9.59868 24.9997L7.85912 27.999H7.99909C9.05968 27.999 10.0768 27.5777 10.8268 26.8277C11.5768 26.0777 11.9981 25.0606 11.9981 24C12.0065 23.464 11.9009 22.9324 11.6882 22.4404L11.7381 22.4804ZM7.99909 25.8495C7.50015 25.8419 7.02358 25.6412 6.66942 25.2897C6.54344 25.1667 6.43268 25.0291 6.33951 24.8798L4.60994 21.8905C4.21813 22.5249 4.00724 23.2544 4.0001 24C3.99328 24.984 4.34951 25.9359 5.00062 26.6737C5.65172 27.4115 6.552 27.8834 7.52921 27.999L8.90886 25.6196C8.63382 25.7816 8.31809 25.8614 7.99909 25.8495ZM7.99909 20.001C7.37317 20.0041 6.75672 20.154 6.19933 20.4388C5.64194 20.7236 5.15918 21.1352 4.7899 21.6406L6.16955 24C6.16955 24 6.16955 24.07 6.16955 24.1V24C6.17389 23.5691 6.33103 23.1537 6.61297 22.8278C6.89491 22.502 7.28337 22.2867 7.70916 22.2204C7.85889 22.1798 8.01408 22.1629 8.16904 22.1705H11.5682C11.231 21.515 10.7192 20.9656 10.0894 20.5827C9.45953 20.1999 8.73615 19.9986 7.99909 20.001ZM9.49871 24C9.49871 24.3871 9.34493 24.7584 9.07119 25.0321C8.79746 25.3058 8.42619 25.4596 8.03908 25.4596C7.65196 25.4596 7.2807 25.3058 7.00696 25.0321C6.73323 24.7584 6.57945 24.3871 6.57945 24C6.59424 23.6282 6.74855 23.2756 7.01165 23.0126C7.27474 22.7495 7.62731 22.5951 7.99909 22.5803C8.19112 22.5737 8.38256 22.6053 8.56228 22.6732C8.742 22.7412 8.90641 22.8443 9.04596 22.9764C9.1855 23.1085 9.29738 23.267 9.37511 23.4427C9.45283 23.6185 9.49485 23.8079 9.49871 24Z" fill="black"/>
</svg>
