<svg width="48" height="48" viewBox="0 0 48 48" fill="none" xmlns="http://www.w3.org/2000/svg">
<path d="M40.73 10.67V9.58C40.734 9.24261 40.6709 8.90779 40.5446 8.59494C40.4182 8.28209 40.231 7.99743 39.9938 7.75745C39.7566 7.51748 39.4742 7.32696 39.1628 7.19694C38.8515 7.06692 38.5174 6.99998 38.18 7H28.49V6.62C28.49 5.92513 28.214 5.25873 27.7226 4.76738C27.2313 4.27603 26.5649 4 25.87 4H22.87C22.1751 4 21.5087 4.27603 21.0174 4.76738C20.526 5.25873 20.25 5.92513 20.25 6.62V7H10.55C10.2126 6.99998 9.87852 7.06692 9.56717 7.19694C9.25582 7.32696 8.97337 7.51748 8.73618 7.75745C8.499 7.99743 8.31179 8.28209 8.18542 8.59494C8.05905 8.90779 7.99602 9.24261 7.99999 9.58V10.67H40.73Z" fill="black"/>
<path d="M7.99999 14.31V41.45C7.99999 42.1263 8.26865 42.7749 8.74687 43.2531C9.22509 43.7313 9.87369 44 10.55 44H38.18C38.8563 44 39.5049 43.7313 39.9831 43.2531C40.4613 42.7749 40.73 42.1263 40.73 41.45V14.31H7.99999Z" fill="black"/>
</svg>
