<svg width="48" height="48" viewBox="0 0 48 48" fill="none" xmlns="http://www.w3.org/2000/svg">
<path d="M38.42 7.11H28V6.21C28.0001 5.62903 27.7713 5.07141 27.3633 4.65781C26.9554 4.2442 26.4009 4.00789 25.82 4H22.74C22.1539 4 21.5917 4.23284 21.1773 4.64729C20.7628 5.06175 20.53 5.62387 20.53 6.21V7.11H10.14C9.57244 7.11 9.02812 7.33546 8.62679 7.73679C8.22546 8.13812 8 8.68244 8 9.25V41.86C8 42.4276 8.22546 42.9719 8.62679 43.3732C9.02812 43.7745 9.57244 44 10.14 44H38.42C38.9876 44 39.5319 43.7745 39.9332 43.3732C40.3345 42.9719 40.56 42.4276 40.56 41.86V9.25C40.56 8.68244 40.3345 8.13812 39.9332 7.73679C39.5319 7.33546 38.9876 7.11 38.42 7.11ZM23.32 6.79H25.24V7.11H23.32V6.79ZM37.77 41.21H10.77V13.62H37.77V41.21ZM37.77 10.83H10.77V9.9H37.77V10.83Z" fill="black"/>
<path d="M22 34.76C21.4317 34.7603 20.8859 34.5377 20.48 34.14L15.85 29.56C15.5848 29.2948 15.4358 28.9351 15.4358 28.56C15.4358 28.1849 15.5848 27.8252 15.85 27.56C16.1152 27.2948 16.4749 27.1458 16.85 27.1458C17.2251 27.1458 17.5848 27.2948 17.85 27.56L21.96 31.64L30.62 20.6C30.8575 20.338 31.1854 20.1756 31.5378 20.1454C31.8902 20.1153 32.2409 20.2196 32.5195 20.4374C32.7981 20.6552 32.9839 20.9704 33.0397 21.3197C33.0954 21.6689 33.0169 22.0263 32.82 22.32L23.69 33.94C23.4986 34.1771 23.2604 34.3723 22.9903 34.5134C22.7202 34.6544 22.424 34.7384 22.12 34.76H22Z" fill="black"/>
</svg>
