<svg width="48" height="48" viewBox="0 0 48 48" fill="none" xmlns="http://www.w3.org/2000/svg">
<path d="M40.73 10.67V9.58C40.734 9.24261 40.6709 8.90779 40.5446 8.59494C40.4182 8.28209 40.231 7.99743 39.9938 7.75745C39.7566 7.51748 39.4742 7.32696 39.1628 7.19694C38.8515 7.06692 38.5174 6.99998 38.18 7H28.49V6.62C28.49 5.92513 28.214 5.25873 27.7226 4.76738C27.2313 4.27603 26.5649 4 25.87 4H22.87C22.1751 4 21.5087 4.27603 21.0174 4.76738C20.526 5.25873 20.25 5.92513 20.25 6.62V7H10.55C10.2126 6.99998 9.87852 7.06692 9.56717 7.19694C9.25582 7.32696 8.97337 7.51748 8.73618 7.75745C8.499 7.99743 8.31179 8.28209 8.18542 8.59494C8.05905 8.90779 7.99602 9.24261 7.99999 9.58V10.67H40.73Z" fill="black"/>
<path d="M7.99999 14.31V41.45C7.99999 42.1263 8.26865 42.7749 8.74687 43.2531C9.22509 43.7313 9.87369 44 10.55 44H38.18C38.8563 44 39.5049 43.7313 39.9831 43.2531C40.4613 42.7749 40.73 42.1263 40.73 41.45V14.31H7.99999ZM33.07 22.64L24.14 34C23.9176 34.288 23.637 34.5259 23.3165 34.6982C22.9961 34.8705 22.6429 34.9733 22.28 35H22.13C21.7944 35.0018 21.4618 34.9374 21.1512 34.8104C20.8406 34.6834 20.5582 34.4964 20.32 34.26L15.81 29.76C15.4665 29.4205 15.272 28.9585 15.2692 28.4756C15.2664 27.9927 15.4555 27.5285 15.795 27.185C16.1345 26.8415 16.5965 26.647 17.0794 26.6442C17.5623 26.6414 18.0265 26.8305 18.37 27.17L22 30.8L30.18 20.4C30.3207 20.195 30.5019 20.021 30.7125 19.8887C30.923 19.7565 31.1584 19.6688 31.4042 19.631C31.65 19.5932 31.9009 19.6062 32.1414 19.6692C32.3819 19.7322 32.607 19.8437 32.8028 19.9971C32.9985 20.1504 33.1608 20.3422 33.2796 20.5606C33.3983 20.7791 33.4711 21.0196 33.4933 21.2672C33.5155 21.5149 33.4868 21.7644 33.4088 22.0005C33.3308 22.2366 33.2053 22.4543 33.04 22.64H33.07Z" fill="black"/>
</svg>
