<svg width="48" height="48" viewBox="0 0 48 48" fill="none" xmlns="http://www.w3.org/2000/svg">
<path d="M7.99999 14.31V41.45C7.99999 42.1263 8.26865 42.7749 8.74687 43.2531C9.22509 43.7313 9.87369 44 10.55 44H38.18C38.8563 44 39.5049 43.7313 39.9831 43.2531C40.4613 42.7749 40.73 42.1263 40.73 41.45V14.31H7.99999ZM31.86 34.68H16.86C16.3773 34.68 15.9144 34.4883 15.5731 34.1469C15.2317 33.8056 15.04 33.3427 15.04 32.86C15.04 32.3773 15.2317 31.9144 15.5731 31.5731C15.9144 31.2318 16.3773 31.04 16.86 31.04H31.86C32.3427 31.04 32.8056 31.2318 33.1469 31.5731C33.4882 31.9144 33.68 32.3773 33.68 32.86C33.68 33.3427 33.4882 33.8056 33.1469 34.1469C32.8056 34.4883 32.3427 34.68 31.86 34.68ZM31.86 29.16H16.86C16.3773 29.16 15.9144 28.9683 15.5731 28.6269C15.2317 28.2856 15.04 27.8227 15.04 27.34C15.04 26.8573 15.2317 26.3944 15.5731 26.0531C15.9144 25.7118 16.3773 25.52 16.86 25.52H31.86C32.3427 25.52 32.8056 25.7118 33.1469 26.0531C33.4882 26.3944 33.68 26.8573 33.68 27.34C33.68 27.8227 33.4882 28.2856 33.1469 28.6269C32.8056 28.9683 32.3427 29.16 31.86 29.16ZM31.86 23.63H16.86C16.4019 23.596 15.9736 23.39 15.6611 23.0534C15.3485 22.7167 15.1748 22.2744 15.1748 21.815C15.1748 21.3556 15.3485 20.9133 15.6611 20.5766C15.9736 20.24 16.4019 20.034 16.86 20H31.86C32.1097 19.9815 32.3605 20.0146 32.5968 20.0974C32.833 20.1802 33.0497 20.3109 33.2332 20.4813C33.4166 20.6516 33.563 20.858 33.6631 21.0875C33.7632 21.317 33.8148 21.5646 33.8148 21.815C33.8148 22.0654 33.7632 22.313 33.6631 22.5425C33.563 22.772 33.4166 22.9784 33.2332 23.1487C33.0497 23.3191 32.833 23.4498 32.5968 23.5326C32.3605 23.6154 32.1097 23.6485 31.86 23.63Z" fill="black"/>
<path d="M40.73 10.67V9.58C40.734 9.24261 40.6709 8.90779 40.5446 8.59494C40.4182 8.28209 40.231 7.99743 39.9938 7.75745C39.7566 7.51748 39.4742 7.32696 39.1628 7.19694C38.8515 7.06692 38.5174 6.99998 38.18 7H28.49V6.62C28.49 5.92513 28.214 5.25873 27.7226 4.76738C27.2313 4.27603 26.5649 4 25.87 4H22.87C22.1751 4 21.5087 4.27603 21.0174 4.76738C20.526 5.25873 20.25 5.92513 20.25 6.62V7H10.55C10.2126 6.99998 9.87852 7.06692 9.56717 7.19694C9.25582 7.32696 8.97337 7.51748 8.73618 7.75745C8.499 7.99743 8.31179 8.28209 8.18542 8.59494C8.05905 8.90779 7.99602 9.24261 7.99999 9.58V10.67H40.73Z" fill="black"/>
</svg>
