<svg width="48" height="48" viewBox="0 0 48 48" fill="none" xmlns="http://www.w3.org/2000/svg">
<path d="M38.42 7.11H28V6.21C28.0001 5.62903 27.7713 5.07141 27.3633 4.65781C26.9554 4.2442 26.4009 4.00789 25.82 4H22.74C22.1539 4 21.5917 4.23284 21.1773 4.64729C20.7628 5.06175 20.53 5.62387 20.53 6.21V7.11H10.14C9.57244 7.11 9.02812 7.33546 8.62679 7.73679C8.22546 8.13812 8 8.68244 8 9.25V41.86C8 42.4276 8.22546 42.9719 8.62679 43.3732C9.02812 43.7745 9.57244 44 10.14 44H38.42C38.9876 44 39.5319 43.7745 39.9332 43.3732C40.3345 42.9719 40.56 42.4276 40.56 41.86V9.25C40.56 8.68244 40.3345 8.13812 39.9332 7.73679C39.5319 7.33546 38.9876 7.11 38.42 7.11ZM23.32 6.79H25.24V7.11H23.32V6.79ZM37.77 41.21H10.77V13.62H37.77V41.21ZM37.77 10.83H10.77V9.9H37.77V10.83Z" fill="black"/>
</svg>
