<svg width="48" height="48" viewBox="0 0 48 48" fill="none" xmlns="http://www.w3.org/2000/svg">
<path d="M38.42 7.11H28V6.21C28.0001 5.62903 27.7713 5.07141 27.3633 4.65781C26.9554 4.2442 26.4009 4.00789 25.82 4H22.74C22.1539 4 21.5917 4.23284 21.1773 4.64729C20.7628 5.06175 20.53 5.62387 20.53 6.21V7.11H10.14C9.57244 7.11 9.02812 7.33546 8.62679 7.73679C8.22546 8.13812 8 8.68244 8 9.25V41.86C8 42.4276 8.22546 42.9719 8.62679 43.3732C9.02812 43.7745 9.57244 44 10.14 44H38.42C38.9876 44 39.5319 43.7745 39.9332 43.3732C40.3345 42.9719 40.56 42.4276 40.56 41.86V9.25C40.56 8.68244 40.3345 8.13812 39.9332 7.73679C39.5319 7.33546 38.9876 7.11 38.42 7.11ZM23.32 6.79H25.24V7.11H23.32V6.79ZM37.77 41.21H10.77V13.62H37.77V41.21ZM37.77 10.83H10.77V9.9H37.77V10.83Z" fill="black"/>
<path d="M32 23.16H16.6C16.2504 23.1304 15.9247 22.9706 15.6873 22.7122C15.4499 22.4539 15.3182 22.1158 15.3182 21.765C15.3182 21.4142 15.4499 21.0761 15.6873 20.8178C15.9247 20.5594 16.2504 20.3996 16.6 20.37H32C32.1931 20.3536 32.3875 20.3775 32.5709 20.4402C32.7543 20.5029 32.9227 20.603 33.0654 20.7341C33.2082 20.8652 33.3221 21.0246 33.4 21.202C33.478 21.3795 33.5182 21.5712 33.5182 21.765C33.5182 21.9588 33.478 22.1505 33.4 22.328C33.3221 22.5054 33.2082 22.6648 33.0654 22.7959C32.9227 22.927 32.7543 23.0271 32.5709 23.0898C32.3875 23.1525 32.1931 23.1764 32 23.16Z" fill="black"/>
<path d="M32 28.81H16.6C16.2274 28.81 15.87 28.662 15.6065 28.3985C15.343 28.135 15.195 27.7776 15.195 27.405C15.195 27.0324 15.343 26.675 15.6065 26.4115C15.87 26.148 16.2274 26 16.6 26H32C32.1931 25.9836 32.3875 26.0075 32.5709 26.0702C32.7543 26.1329 32.9227 26.233 33.0654 26.3641C33.2082 26.4952 33.3221 26.6546 33.4 26.832C33.478 27.0095 33.5182 27.2012 33.5182 27.395C33.5182 27.5888 33.478 27.7805 33.4 27.958C33.3221 28.1354 33.2082 28.2948 33.0654 28.4259C32.9227 28.557 32.7543 28.6571 32.5709 28.7198C32.3875 28.7825 32.1931 28.8064 32 28.79V28.81Z" fill="black"/>
<path d="M32 34.46H16.6C16.2504 34.4304 15.9247 34.2706 15.6873 34.0122C15.4499 33.7539 15.3182 33.4158 15.3182 33.065C15.3182 32.7142 15.4499 32.3761 15.6873 32.1178C15.9247 31.8594 16.2504 31.6996 16.6 31.67H32C32.1931 31.6536 32.3875 31.6775 32.5709 31.7402C32.7543 31.8029 32.9227 31.903 33.0654 32.0341C33.2082 32.1652 33.3221 32.3246 33.4 32.502C33.478 32.6795 33.5182 32.8712 33.5182 33.065C33.5182 33.2588 33.478 33.4505 33.4 33.628C33.3221 33.8054 33.2082 33.9648 33.0654 34.0959C32.9227 34.227 32.7543 34.3271 32.5709 34.3898C32.3875 34.4525 32.1931 34.4764 32 34.46Z" fill="black"/>
</svg>
