<svg width="48" height="48" viewBox="0 0 48 48" fill="none" xmlns="http://www.w3.org/2000/svg">
<path d="M24 4C20.0444 4 16.1776 5.17298 12.8886 7.37061C9.59962 9.56824 7.03617 12.6918 5.52242 16.3463C4.00867 20.0009 3.6126 24.0222 4.3843 27.9018C5.15601 31.7814 7.06082 35.3451 9.85787 38.1421C12.6549 40.9392 16.2186 42.844 20.0982 43.6157C23.9778 44.3874 27.9992 43.9913 31.6537 42.4776C35.3082 40.9638 38.4318 38.4004 40.6294 35.1114C42.827 31.8224 44 27.9556 44 24C44 18.6957 41.8929 13.6086 38.1421 9.85786C34.3914 6.10714 29.3043 4 24 4V4ZM33.46 21.63L24.23 26.87L16.91 24.12C16.5711 24.0141 16.2574 23.8402 15.9881 23.6089C15.7187 23.3776 15.4994 23.0938 15.3435 22.7748C15.1876 22.4558 15.0984 22.1084 15.0814 21.7538C15.0644 21.3991 15.12 21.0448 15.2446 20.7124C15.3693 20.3799 15.5604 20.0764 15.8064 19.8204C16.0524 19.5644 16.3481 19.3613 16.6753 19.2235C17.0024 19.0856 17.3543 19.016 17.7093 19.0189C18.0644 19.0217 18.4151 19.097 18.74 19.24L23.74 21.13L30.85 17.13C31.45 16.817 32.1481 16.7492 32.7971 16.941C33.4461 17.1329 33.9952 17.5693 34.3286 18.1582C34.662 18.7472 34.7536 19.4426 34.5841 20.0978C34.4146 20.7529 33.9972 21.3167 33.42 21.67L33.46 21.63Z" fill="black"/>
</svg>
