<svg width="48" height="48" viewBox="0 0 48 48" fill="none" xmlns="http://www.w3.org/2000/svg">
<path d="M24 44C20.0444 44 16.1776 42.827 12.8886 40.6294C9.59962 38.4318 7.03617 35.3082 5.52242 31.6537C4.00867 27.9992 3.6126 23.9778 4.3843 20.0982C5.15601 16.2186 7.06082 12.6549 9.85787 9.85787C12.6549 7.06082 16.2186 5.15601 20.0982 4.3843C23.9778 3.6126 27.9992 4.00867 31.6537 5.52242C35.3082 7.03617 38.4318 9.59962 40.6294 12.8886C42.827 16.1776 44 20.0444 44 24C44 29.3043 41.8929 34.3914 38.1421 38.1421C34.3914 41.8929 29.3043 44 24 44ZM24 6.79001C20.5962 6.79001 17.2688 7.79936 14.4386 9.69042C11.6085 11.5815 9.40263 14.2693 8.10004 17.414C6.79746 20.5587 6.45664 24.0191 7.12069 27.3575C7.78475 30.6959 9.42384 33.7625 11.8307 36.1693C14.2376 38.5762 17.3041 40.2153 20.6425 40.8793C23.9809 41.5434 27.4413 41.2026 30.586 39.9C33.7307 38.5974 36.4185 36.3915 38.3096 33.5614C40.2007 30.7312 41.21 27.4038 41.21 24C41.2047 19.4373 39.3898 15.0629 36.1635 11.8365C32.9371 8.61019 28.5628 6.7953 24 6.79001Z" fill="black"/>
<path d="M24.13 25.54L16.91 22.82C16.734 22.758 16.5725 22.6609 16.4351 22.5346C16.2977 22.4083 16.1873 22.2555 16.1107 22.0854C16.034 21.9153 15.9927 21.7314 15.9891 21.5448C15.9856 21.3583 16.0199 21.1729 16.09 21C16.2203 20.6528 16.4829 20.3715 16.8204 20.2177C17.1579 20.064 17.5426 20.0504 17.89 20.18L23.89 22.43L32.06 17.79C32.3822 17.6083 32.7635 17.5621 33.1198 17.6615C33.4761 17.7609 33.7783 17.9978 33.96 18.32C34.1417 18.6422 34.1879 19.0235 34.0885 19.3798C33.9891 19.7361 33.7522 20.0383 33.43 20.22L24.13 25.54Z" fill="black"/>
</svg>
