<svg width="48" height="48" viewBox="0 0 48 48" fill="none" xmlns="http://www.w3.org/2000/svg">
<path d="M24 44C20.0444 44 16.1776 42.827 12.8886 40.6294C9.59962 38.4318 7.03617 35.3082 5.52242 31.6537C4.00867 27.9992 3.6126 23.9778 4.3843 20.0982C5.15601 16.2186 7.06082 12.6549 9.85787 9.85787C12.6549 7.06082 16.2186 5.15601 20.0982 4.3843C23.9778 3.6126 27.9992 4.00867 31.6537 5.52242C35.3082 7.03617 38.4318 9.59962 40.6294 12.8886C42.827 16.1776 44 20.0444 44 24C44 29.3043 41.8929 34.3914 38.1421 38.1421C34.3914 41.8929 29.3043 44 24 44ZM24 9.22001C21.0768 9.22001 18.2192 10.0868 15.7887 11.7109C13.3581 13.3349 11.4637 15.6433 10.3451 18.3439C9.22641 21.0446 8.93371 24.0164 9.504 26.8834C10.0743 29.7505 11.4819 32.384 13.549 34.451C15.616 36.5181 18.2495 37.9257 21.1166 38.496C23.9836 39.0663 26.9554 38.7736 29.6561 37.6549C32.3568 36.5363 34.6651 34.6419 36.2891 32.2113C37.9132 29.7808 38.78 26.9232 38.78 24C38.7747 20.0817 37.2158 16.3255 34.4452 13.5548C31.6746 10.7842 27.9183 9.2253 24 9.22001Z" fill="black"/>
<path d="M24.23 26.87L16.91 24.12C16.5711 24.0141 16.2574 23.8402 15.9881 23.6089C15.7187 23.3776 15.4994 23.0938 15.3435 22.7748C15.1876 22.4558 15.0984 22.1084 15.0814 21.7538C15.0644 21.3992 15.12 21.0448 15.2446 20.7124C15.3693 20.3799 15.5605 20.0764 15.8064 19.8204C16.0524 19.5644 16.3481 19.3613 16.6753 19.2235C17.0024 19.0857 17.3543 19.016 17.7093 19.0189C18.0644 19.0217 18.4151 19.097 18.74 19.24L23.74 21.13L30.85 17.13C31.45 16.817 32.1481 16.7492 32.7971 16.9411C33.4461 17.1329 33.9952 17.5693 34.3286 18.1582C34.662 18.7472 34.7536 19.4426 34.5841 20.0978C34.4146 20.753 33.9972 21.3167 33.42 21.67L24.23 26.87Z" fill="black"/>
</svg>
