<svg width="48" height="48" viewBox="0 0 48 48" fill="none" xmlns="http://www.w3.org/2000/svg">
<path d="M27.6353 23.9961L41.2424 10.389C41.725 9.90643 41.9961 9.25189 41.9961 8.56941C41.9961 7.88692 41.725 7.23239 41.2424 6.7498C40.7598 6.26721 40.1053 5.99609 39.4228 5.99609C38.7403 5.99609 38.0858 6.26721 37.6032 6.7498L23.9961 20.3569L10.389 6.7498C9.90643 6.26721 9.25189 5.99609 8.56941 5.99609C7.88692 5.99609 7.23239 6.26721 6.7498 6.7498C6.26721 7.23239 5.99609 7.88692 5.99609 8.56941C5.99609 9.25189 6.26721 9.90643 6.7498 10.389L20.3569 23.9961L6.7498 37.6032C6.26721 38.0858 5.99609 38.7403 5.99609 39.4228C5.99609 40.1053 6.26721 40.7598 6.7498 41.2424C7.23239 41.725 7.88692 41.9961 8.56941 41.9961C9.25189 41.9961 9.90643 41.725 10.389 41.2424L23.9961 27.6353L37.6032 41.2424C38.0858 41.725 38.7403 41.9961 39.4228 41.9961C40.1053 41.9961 40.7598 41.725 41.2424 41.2424C41.725 40.7598 41.9961 40.1053 41.9961 39.4228C41.9961 38.7403 41.725 38.0858 41.2424 37.6032L27.6353 23.9961Z" fill="black"/>
</svg>
