<svg width="48" height="48" viewBox="0 0 48 48" fill="none" xmlns="http://www.w3.org/2000/svg">
<path d="M24 44C20.0444 44 16.1776 42.827 12.8886 40.6294C9.59962 38.4318 7.03617 35.3082 5.52242 31.6537C4.00867 27.9992 3.6126 23.9778 4.3843 20.0982C5.15601 16.2186 7.06082 12.6549 9.85787 9.85787C12.6549 7.06082 16.2186 5.15601 20.0982 4.3843C23.9778 3.6126 27.9992 4.00867 31.6537 5.52242C35.3082 7.03617 38.4318 9.59962 40.6294 12.8886C42.827 16.1776 44 20.0444 44 24C44 29.3043 41.8929 34.3914 38.1421 38.1421C34.3914 41.8929 29.3043 44 24 44ZM24 6.79001C20.5962 6.79001 17.2688 7.79936 14.4386 9.69042C11.6085 11.5815 9.40263 14.2693 8.10004 17.414C6.79746 20.5587 6.45664 24.0191 7.12069 27.3575C7.78475 30.6959 9.42384 33.7625 11.8307 36.1693C14.2376 38.5762 17.3041 40.2153 20.6425 40.8793C23.9809 41.5434 27.4413 41.2026 30.586 39.9C33.7307 38.5974 36.4185 36.3915 38.3096 33.5614C40.2007 30.7312 41.21 27.4038 41.21 24C41.2047 19.4373 39.3898 15.0629 36.1635 11.8365C32.9371 8.61019 28.5628 6.7953 24 6.79001Z" fill="black"/>
<path d="M26 24L32 18C32.1313 17.8687 32.2355 17.7128 32.3066 17.5412C32.3776 17.3696 32.4142 17.1857 32.4142 17C32.4142 16.8143 32.3776 16.6304 32.3066 16.4588C32.2355 16.2872 32.1313 16.1313 32 16C31.8687 15.8687 31.7128 15.7645 31.5412 15.6934C31.3696 15.6224 31.1857 15.5858 31 15.5858C30.8143 15.5858 30.6304 15.6224 30.4588 15.6934C30.2872 15.7645 30.1313 15.8687 30 16L24 22L18 16C17.8687 15.8687 17.7128 15.7645 17.5412 15.6934C17.3696 15.6224 17.1857 15.5858 17 15.5858C16.8143 15.5858 16.6304 15.6224 16.4588 15.6934C16.2872 15.7645 16.1313 15.8687 16 16C15.8687 16.1313 15.7645 16.2872 15.6934 16.4588C15.6224 16.6304 15.5858 16.8143 15.5858 17C15.5858 17.1857 15.6224 17.3696 15.6934 17.5412C15.7645 17.7128 15.8687 17.8687 16 18L22 24L16 30C15.8645 30.1289 15.7565 30.284 15.6828 30.4559C15.609 30.6278 15.571 30.813 15.571 31C15.571 31.1871 15.609 31.3722 15.6828 31.5441C15.7565 31.716 15.8645 31.8711 16 32C16.1297 32.1343 16.285 32.2411 16.4568 32.314C16.6286 32.387 16.8134 32.4246 17 32.4246C17.1867 32.4246 17.3714 32.387 17.5432 32.314C17.715 32.2411 17.8704 32.1343 18 32L24 26L30 32C30.1297 32.1343 30.285 32.2411 30.4568 32.314C30.6286 32.387 30.8134 32.4246 31 32.4246C31.1867 32.4246 31.3714 32.387 31.5432 32.314C31.715 32.2411 31.8704 32.1343 32 32C32.1356 31.8711 32.2435 31.716 32.3172 31.5441C32.391 31.3722 32.429 31.1871 32.429 31C32.429 30.813 32.391 30.6278 32.3172 30.4559C32.2435 30.284 32.1356 30.1289 32 30L26 24Z" fill="black"/>
</svg>
