<svg width="48" height="48" viewBox="0 0 48 48" fill="none" xmlns="http://www.w3.org/2000/svg">
<path d="M25.9692 23.9751L41.5132 8.38122C41.6431 8.25485 41.7464 8.10371 41.8169 7.93674C41.8875 7.76977 41.9238 7.59035 41.9238 7.40909C41.9238 7.22784 41.8875 7.04842 41.8169 6.88144C41.7464 6.71447 41.6431 6.56334 41.5132 6.43697C41.3862 6.2992 41.232 6.18925 41.0604 6.11404C40.8888 6.03883 40.7035 6 40.5161 6C40.3288 6 40.1434 6.03883 39.9718 6.11404C39.8002 6.18925 39.6461 6.2992 39.5191 6.43697L23.9751 21.981L8.38122 6.43697C8.25485 6.30702 8.10371 6.20373 7.93674 6.1332C7.76977 6.06267 7.59035 6.02633 7.40909 6.02633C7.22784 6.02633 7.04842 6.06267 6.88144 6.1332C6.71447 6.20373 6.56334 6.30702 6.43697 6.43697C6.2992 6.56395 6.18925 6.71811 6.11404 6.88972C6.03883 7.06133 6 7.24666 6 7.43402C6 7.62138 6.03883 7.80671 6.11404 7.97832C6.18925 8.14993 6.2992 8.30408 6.43697 8.43107L21.981 23.9751L6.43697 39.5689C6.2992 39.6959 6.18925 39.8501 6.11404 40.0217C6.03883 40.1933 6 40.3786 6 40.566C6 40.7533 6.03883 40.9387 6.11404 41.1103C6.18925 41.2819 6.2992 41.436 6.43697 41.563C6.56395 41.7008 6.71811 41.8108 6.88972 41.886C7.06133 41.9612 7.24666 42 7.43402 42C7.62138 42 7.80671 41.9612 7.97832 41.886C8.14993 41.8108 8.30408 41.7008 8.43107 41.563L23.9751 25.9692L39.5689 41.5132C39.6959 41.6509 39.8501 41.7609 40.0217 41.8361C40.1933 41.9113 40.3786 41.9501 40.566 41.9501C40.7533 41.9501 40.9387 41.9113 41.1103 41.8361C41.2819 41.7609 41.436 41.6509 41.563 41.5132C41.7008 41.3862 41.8108 41.232 41.886 41.0604C41.9612 40.8888 42 40.7035 42 40.5161C42 40.3288 41.9612 40.1434 41.886 39.9718C41.8108 39.8002 41.7008 39.6461 41.563 39.5191L25.9692 23.9751Z" fill="black"/>
</svg>
