<svg width="48" height="48" viewBox="0 0 48 48" fill="none" xmlns="http://www.w3.org/2000/svg">
<path d="M24 4C20.0444 4 16.1776 5.17298 12.8886 7.37061C9.59962 9.56824 7.03617 12.6918 5.52242 16.3463C4.00867 20.0009 3.6126 24.0222 4.3843 27.9018C5.15601 31.7814 7.06082 35.3451 9.85787 38.1421C12.6549 40.9392 16.2186 42.844 20.0982 43.6157C23.9778 44.3874 27.9992 43.9913 31.6537 42.4776C35.3082 40.9638 38.4318 38.4004 40.6294 35.1114C42.827 31.8224 44 27.9556 44 24C44 18.6957 41.8929 13.6086 38.1421 9.85786C34.3914 6.10714 29.3043 4 24 4ZM24 38.78C21.0768 38.78 18.2192 37.9132 15.7887 36.2891C13.3581 34.6651 11.4637 32.3568 10.3451 29.6561C9.22641 26.9554 8.93371 23.9836 9.504 21.1166C10.0743 18.2495 11.4819 15.616 13.549 13.549C15.616 11.4819 18.2495 10.0743 21.1166 9.50399C23.9836 8.9337 26.9554 9.2264 29.6561 10.3451C32.3568 11.4637 34.6651 13.3581 36.2891 15.7887C37.9132 18.2192 38.78 21.0768 38.78 24C38.7747 27.9183 37.2158 31.6746 34.4452 34.4452C31.6746 37.2158 27.9183 38.7747 24 38.78Z" fill="black"/>
<path d="M32.37 15.63C31.8806 15.1409 31.217 14.8661 30.525 14.8661C29.8331 14.8661 29.1694 15.1409 28.68 15.63L24 20.31L19.32 15.63C18.8267 15.1602 18.1693 14.9019 17.4882 14.9102C16.807 14.9185 16.1561 15.1928 15.6745 15.6745C15.1928 16.1561 14.9185 16.807 14.9102 17.4882C14.9019 18.1693 15.1602 18.8267 15.63 19.32L20.31 24L15.63 28.68C15.2666 29.0456 15.0196 29.5106 14.9202 30.0163C14.8207 30.5221 14.8732 31.046 15.0711 31.5219C15.2689 31.9979 15.6033 32.4046 16.032 32.6908C16.4607 32.977 16.9646 33.1298 17.48 33.13C17.8218 33.1315 18.1604 33.0651 18.4763 32.9346C18.7921 32.8042 19.0789 32.6122 19.32 32.37L24 27.69L28.68 32.37C29.1707 32.8567 29.8339 33.1298 30.525 33.1298C31.2162 33.1298 31.8793 32.8567 32.37 32.37C32.8591 31.8806 33.1339 31.2169 33.1339 30.525C33.1339 29.8331 32.8591 29.1694 32.37 28.68L27.69 24L32.37 19.32C32.8591 18.8306 33.1339 18.1669 33.1339 17.475C33.1339 16.7831 32.8591 16.1194 32.37 15.63Z" fill="black"/>
</svg>
