<svg width="48" height="48" viewBox="0 0 48 48" fill="none" xmlns="http://www.w3.org/2000/svg">
<path d="M35.37 18C35.3139 17.9609 35.2719 17.9048 35.25 17.84C34.5356 15.5978 33.1367 13.6357 31.2498 12.2295C29.3629 10.8233 27.0828 10.0436 24.73 10C22.7264 10.0389 20.7703 10.6165 19.067 11.6723C17.3637 12.728 15.9762 14.2229 15.05 16C8.93999 16.09 3.99999 21.52 3.99999 28.18C3.98683 30.7416 4.73897 33.2487 6.15999 35.38C6.55132 35.9864 7.08674 36.4864 7.71841 36.8353C8.35009 37.1843 9.05836 37.3715 9.77999 37.38L39 37.47C39.9 37.4624 40.7764 37.1808 41.5124 36.6627C42.2484 36.1447 42.8092 35.4147 43.12 34.57C43.7039 33.0615 44.0023 31.4576 44 29.84C44 24.17 40.45 19.28 35.37 18Z" fill="black"/>
</svg>
