<svg width="48" height="48" viewBox="0 0 48 48" fill="none" xmlns="http://www.w3.org/2000/svg">
<path d="M39.37 37.18L9.47 37.07C8.80843 37.0633 8.15885 36.8927 7.57944 36.5733C7.00003 36.2539 6.50888 35.7958 6.15 35.24C4.74101 33.1408 3.99225 30.6682 4 28.14C4 21.5 9 16.14 15.07 16.14C15.07 16.14 15.13 16.14 15.16 16.06C16.0653 14.2852 17.4356 12.7895 19.1246 11.7328C20.8136 10.676 22.758 10.0978 24.75 10.06C27.0476 10.0992 29.2759 10.8531 31.1253 12.2169C32.9748 13.5806 34.3535 15.4866 35.07 17.67C35.1049 17.776 35.1636 17.8725 35.2416 17.9523C35.3196 18.032 35.4148 18.0928 35.52 18.13C40.52 19.43 44 24.25 44 29.84C44.0039 31.4364 43.7123 33.0197 43.14 34.51C42.8587 35.2863 42.3468 35.958 41.673 36.4352C40.9992 36.9125 40.1956 37.1723 39.37 37.18ZM24.75 12.79C23.2613 12.828 21.8111 13.2707 20.5549 14.0705C19.2988 14.8703 18.2842 15.9972 17.62 17.33C17.3783 17.7963 17.0142 18.1879 16.5666 18.4627C16.1191 18.7376 15.6052 18.8853 15.08 18.89C10.51 18.89 6.79 23.04 6.79 28.14C6.77452 30.1146 7.35287 32.0482 8.45 33.69C8.55588 33.8625 8.70237 34.0064 8.87668 34.1093C9.05099 34.2121 9.24782 34.2707 9.45 34.28L39.35 34.39C39.6112 34.3792 39.863 34.2892 40.0719 34.132C40.2809 33.9749 40.4371 33.758 40.52 33.51C40.972 32.3393 41.2026 31.0949 41.2 29.84C41.2 25.52 38.57 21.84 34.8 20.84C34.2556 20.6932 33.7557 20.4149 33.3442 20.0295C32.9326 19.6442 32.6221 19.1636 32.44 18.63C31.9249 16.9776 30.9073 15.527 29.5289 14.4803C28.1505 13.4335 26.48 12.8426 24.75 12.79Z" fill="black"/>
<path d="M28.47 27.31H19.53C19.3369 27.2936 19.1425 27.3175 18.9591 27.3802C18.7757 27.4429 18.6073 27.543 18.4646 27.6741C18.3218 27.8052 18.2079 27.9646 18.13 28.142C18.052 28.3195 18.0118 28.5112 18.0118 28.705C18.0118 28.8988 18.052 29.0905 18.13 29.268C18.2079 29.4454 18.3218 29.6048 18.4646 29.7359C18.6073 29.867 18.7757 29.9671 18.9591 30.0298C19.1425 30.0925 19.3369 30.1164 19.53 30.1H28.47C28.6631 30.1164 28.8575 30.0925 29.0409 30.0298C29.2243 29.9671 29.3927 29.867 29.5354 29.7359C29.6782 29.6048 29.7921 29.4454 29.87 29.268C29.948 29.0905 29.9882 28.8988 29.9882 28.705C29.9882 28.5112 29.948 28.3195 29.87 28.142C29.7921 27.9646 29.6782 27.8052 29.5354 27.6741C29.3927 27.543 29.2243 27.4429 29.0409 27.3802C28.8575 27.3175 28.6631 27.2936 28.47 27.31Z" fill="black"/>
<path d="M22.82 26.68C23.1327 26.9896 23.555 27.1633 23.995 27.1633C24.435 27.1633 24.8573 26.9896 25.17 26.68L27.75 24.1C28.0152 23.8348 28.1642 23.4751 28.1642 23.1C28.1642 22.7249 28.0152 22.3652 27.75 22.1C27.4848 21.8348 27.1251 21.6858 26.75 21.6858C26.3749 21.6858 26.0152 21.8348 25.75 22.1L25.37 22.49V18.49C25.37 18.1187 25.2225 17.7626 24.9599 17.5C24.6974 17.2375 24.3413 17.09 23.97 17.09C23.5987 17.09 23.2426 17.2375 22.9801 17.5C22.7175 17.7626 22.57 18.1187 22.57 18.49V22.49L22.19 22.1C21.9248 21.8348 21.5651 21.6858 21.19 21.6858C20.8149 21.6858 20.4552 21.8348 20.19 22.1C19.9248 22.3652 19.7758 22.7249 19.7758 23.1C19.7758 23.4751 19.9248 23.8348 20.19 24.1L22.82 26.68Z" fill="black"/>
</svg>
