<svg width="48" height="48" viewBox="0 0 48 48" fill="none" xmlns="http://www.w3.org/2000/svg">
<path d="M35.37 18C35.3139 17.9609 35.2719 17.9048 35.25 17.84C34.5356 15.5978 33.1367 13.6357 31.2498 12.2295C29.3629 10.8233 27.0828 10.0436 24.73 10C22.7264 10.0389 20.7703 10.6165 19.067 11.6723C17.3637 12.728 15.9762 14.2229 15.05 16C8.93999 16.09 3.99999 21.52 3.99999 28.18C3.98683 30.7416 4.73897 33.2487 6.15999 35.38C6.55132 35.9864 7.08674 36.4864 7.71841 36.8353C8.35009 37.1843 9.05836 37.3715 9.77999 37.38L39 37.47C39.9 37.4624 40.7764 37.1808 41.5124 36.6627C42.2484 36.1447 42.8092 35.4147 43.12 34.57C43.7039 33.0615 44.0023 31.4576 44 29.84C44 24.17 40.45 19.28 35.37 18ZM20 21.08C20.2804 20.8013 20.6443 20.6221 21.0362 20.5697C21.428 20.5174 21.8262 20.5947 22.17 20.79V17.79C22.17 17.3073 22.3617 16.8444 22.7031 16.5031C23.0444 16.1617 23.5073 15.97 23.99 15.97C24.4727 15.97 24.9356 16.1617 25.2769 16.5031C25.6182 16.8444 25.81 17.3073 25.81 17.79V20.79C26.1918 20.5537 26.6477 20.4677 27.0893 20.5488C27.531 20.6299 27.9267 20.8722 28.1996 21.2286C28.4726 21.5851 28.6033 22.0303 28.5664 22.4778C28.5296 22.9253 28.3277 23.343 28 23.65L25.48 26.17C25.1737 26.4829 24.7732 26.6867 24.34 26.75C24.2302 26.7599 24.1198 26.7599 24.01 26.75C23.9035 26.7599 23.7964 26.7599 23.69 26.75C23.258 26.6894 22.8577 26.4892 22.55 26.18L20 23.65C19.6599 23.3088 19.4689 22.8467 19.4689 22.365C19.4689 21.8833 19.6599 21.4212 20 21.08ZM28.36 31.47H19.63C19.1473 31.47 18.6844 31.2782 18.3431 30.9369C18.0017 30.5956 17.81 30.1327 17.81 29.65C17.81 29.1673 18.0017 28.7044 18.3431 28.3631C18.6844 28.0217 19.1473 27.83 19.63 27.83H28.37C28.8527 27.83 29.3156 28.0217 29.6569 28.3631C29.9982 28.7044 30.19 29.1673 30.19 29.65C30.19 30.1327 29.9982 30.5956 29.6569 30.9369C29.3156 31.2782 28.8527 31.47 28.37 31.47H28.36Z" fill="black"/>
</svg>
