<svg width="48" height="48" viewBox="0 0 48 48" fill="none" xmlns="http://www.w3.org/2000/svg">
<path d="M39.37 37.18L9.47 37.07C8.80843 37.0633 8.15885 36.8927 7.57944 36.5733C7.00003 36.2539 6.50888 35.7958 6.15 35.24C4.74101 33.1408 3.99225 30.6682 4 28.14C4 21.5 9 16.14 15.07 16.14C15.07 16.14 15.13 16.14 15.16 16.06C16.0653 14.2852 17.4356 12.7895 19.1246 11.7328C20.8136 10.676 22.758 10.0978 24.75 10.06C27.0476 10.0992 29.2759 10.8531 31.1253 12.2169C32.9748 13.5806 34.3535 15.4866 35.07 17.67C35.1049 17.776 35.1636 17.8725 35.2416 17.9523C35.3196 18.032 35.4148 18.0928 35.52 18.13C40.52 19.43 44 24.25 44 29.84C44.0039 31.4364 43.7123 33.0197 43.14 34.51C42.8587 35.2863 42.3468 35.958 41.673 36.4352C40.9992 36.9125 40.1956 37.1723 39.37 37.18ZM24.75 12.79C23.2613 12.828 21.8111 13.2707 20.5549 14.0705C19.2988 14.8703 18.2842 15.9972 17.62 17.33C17.3783 17.7963 17.0142 18.1879 16.5666 18.4627C16.1191 18.7376 15.6052 18.8853 15.08 18.89C10.51 18.89 6.79 23.04 6.79 28.14C6.77452 30.1146 7.35287 32.0482 8.45 33.69C8.55588 33.8625 8.70237 34.0064 8.87668 34.1093C9.05099 34.2121 9.24782 34.2707 9.45 34.28L39.35 34.39C39.6112 34.3792 39.863 34.2892 40.0719 34.132C40.2809 33.9749 40.4371 33.758 40.52 33.51C40.972 32.3393 41.2026 31.0949 41.2 29.84C41.2 25.52 38.57 21.84 34.8 20.84C34.2556 20.6932 33.7557 20.4149 33.3442 20.0295C32.9326 19.6442 32.6221 19.1636 32.44 18.63C31.9249 16.9776 30.9073 15.527 29.5289 14.4803C28.1505 13.4335 26.48 12.8426 24.75 12.79Z" fill="black"/>
</svg>
