<svg width="48" height="48" viewBox="0 0 48 48" fill="none" xmlns="http://www.w3.org/2000/svg">
<path d="M14.5636 34.9312C14.3788 34.9349 14.1951 34.9015 14.0234 34.8328C13.8518 34.7642 13.6957 34.6617 13.5645 34.5315L4.68257 25.6296C4.46629 25.4151 4.29462 25.1598 4.17747 24.8786C4.06032 24.5974 4 24.2958 4 23.9911C4 23.6865 4.06032 23.3848 4.17747 23.1036C4.29462 22.8224 4.46629 22.5671 4.68257 22.3526L13.5845 13.4507C13.8495 13.1857 14.2088 13.0369 14.5836 13.0369C14.9583 13.0369 15.3177 13.1857 15.5827 13.4507C15.8476 13.7157 15.9965 14.0751 15.9965 14.4498C15.9965 14.8245 15.8476 15.1839 15.5827 15.4489L7.00046 24.0211L15.5627 32.5833C15.7605 32.7781 15.8953 33.0278 15.9498 33.3C16.0043 33.5723 15.9759 33.8546 15.8684 34.1106C15.7608 34.3665 15.579 34.5844 15.3465 34.736C15.1139 34.8876 14.8412 34.966 14.5636 34.9611V34.9312Z" fill="black"/>
<path d="M33.4064 34.9312C33.1288 34.9361 32.8562 34.8576 32.6236 34.706C32.391 34.5544 32.2092 34.3365 32.1016 34.0806C31.9941 33.8246 31.9657 33.5423 32.0202 33.2701C32.0747 32.9978 32.2096 32.7482 32.4074 32.5533L40.9696 24.0211L32.4173 15.4289C32.2861 15.2977 32.1821 15.1419 32.1111 14.9705C32.0401 14.7991 32.0035 14.6154 32.0035 14.4298C32.0035 14.2443 32.0401 14.0605 32.1111 13.8891C32.1821 13.7177 32.2861 13.5619 32.4173 13.4307C32.5485 13.2995 32.7043 13.1954 32.8757 13.1244C33.0472 13.0534 33.2309 13.0169 33.4164 13.0169C33.602 13.0169 33.7857 13.0534 33.9571 13.1244C34.1286 13.1954 34.2843 13.2995 34.4155 13.4307L43.3174 22.3326C43.5337 22.5472 43.7054 22.8024 43.8225 23.0836C43.9397 23.3648 44 23.6665 44 23.9711C44 24.2758 43.9397 24.5774 43.8225 24.8586C43.7054 25.1398 43.5337 25.3951 43.3174 25.6096L34.4155 34.5115C34.2848 34.6466 34.1279 34.7534 33.9543 34.8256C33.7808 34.8978 33.5944 34.9337 33.4064 34.9312Z" fill="black"/>
<path d="M19.0495 38.9475C18.8855 38.9467 18.7231 38.9163 18.5699 38.8576C18.398 38.7962 18.24 38.7014 18.105 38.5785C17.97 38.4556 17.8608 38.3071 17.7837 38.1417C17.7065 37.9762 17.663 37.7971 17.6556 37.6148C17.6483 37.4324 17.6772 37.2503 17.7407 37.0792L27.6117 9.95388C27.6773 9.782 27.7761 9.62473 27.9025 9.49104C28.0289 9.35736 28.1804 9.24987 28.3483 9.17472C28.5162 9.09958 28.6973 9.05824 28.8812 9.05307C29.0651 9.04791 29.2482 9.07901 29.4201 9.14461C29.5919 9.21022 29.7492 9.30903 29.8829 9.43541C30.0166 9.56179 30.1241 9.71327 30.1992 9.88119C30.2744 10.0491 30.3157 10.2302 30.3209 10.4141C30.326 10.598 30.2949 10.7811 30.2293 10.953L20.3583 38.0084C20.2648 38.2815 20.0886 38.5188 19.854 38.6871C19.6194 38.8554 19.3382 38.9464 19.0495 38.9475Z" fill="black"/>
</svg>
