<svg width="48" height="48" viewBox="0 0 48 48" fill="none" xmlns="http://www.w3.org/2000/svg">
<path d="M17.0044 31.0862L9.94891 24.0007L17.0044 16.9152C17.4211 16.4167 17.6366 15.7806 17.609 15.1315C17.5813 14.4824 17.3124 13.867 16.8549 13.4057C16.3974 12.9445 15.7842 12.6705 15.1353 12.6376C14.4865 12.6046 13.8487 12.815 13.3468 13.2275L5.01204 21.5523C4.36394 22.2023 4 23.0828 4 24.0007C4 24.9186 4.36394 25.7991 5.01204 26.4492L13.3368 34.7739C13.8369 35.1996 14.4793 35.4209 15.1355 35.3937C15.7918 35.3665 16.4136 35.0927 16.8768 34.627C17.3399 34.1613 17.6104 33.538 17.634 32.8816C17.6577 32.2252 17.4329 31.5841 17.0044 31.0862Z" fill="black"/>
<path d="M42.988 21.5523L34.6532 13.2275C34.4204 12.949 34.1321 12.7221 33.8065 12.5614C33.481 12.4007 33.1256 12.3097 32.7629 12.2942C32.4002 12.2787 32.0382 12.3392 31.7002 12.4716C31.3622 12.6041 31.0556 12.8056 30.7999 13.0633C30.5443 13.3211 30.3452 13.6294 30.2155 13.9684C30.0859 14.3075 30.0284 14.6699 30.0468 15.0325C30.0652 15.3951 30.1591 15.7498 30.3225 16.074C30.4859 16.3982 30.7151 16.6847 30.9956 16.9152L38.0811 24.0007L30.9956 31.0862C30.7436 31.3261 30.5423 31.614 30.4033 31.9329C30.2643 32.2519 30.1905 32.5954 30.1863 32.9432C30.182 33.2911 30.2474 33.6363 30.3786 33.9585C30.5098 34.2807 30.7041 34.5734 30.95 34.8194C31.196 35.0654 31.4887 35.2597 31.811 35.3909C32.1332 35.522 32.4784 35.5874 32.8262 35.5832C33.1741 35.5789 33.5176 35.5051 33.8365 35.3662C34.1554 35.2272 34.4433 35.0258 34.6832 34.7739L42.988 26.4492C43.6361 25.7991 44 24.9186 44 24.0007C44 23.0828 43.6361 22.2023 42.988 21.5523Z" fill="black"/>
<path d="M29.5065 8.87031C29.1852 8.75122 28.8433 8.69714 28.5009 8.71119C28.1585 8.72525 27.8223 8.80717 27.5117 8.95221C27.2012 9.09724 26.9226 9.30249 26.692 9.55606C26.4615 9.80962 26.2836 10.1065 26.1686 10.4293L16.9345 35.7932C16.6995 36.4427 16.7317 37.1587 17.0239 37.7845C17.3162 38.4102 17.8447 38.8945 18.4935 39.1311C18.778 39.2372 19.0793 39.2913 19.3829 39.291C19.9184 39.2917 20.4411 39.127 20.8793 38.8193C21.3176 38.5116 21.6501 38.076 21.8314 37.5721L31.0655 12.2082C31.1832 11.8867 31.2363 11.5452 31.2215 11.2031C31.2068 10.8611 31.1247 10.5254 30.9798 10.2152C30.8349 9.90503 30.6302 9.62654 30.3774 9.39574C30.1245 9.16494 29.8286 8.98637 29.5065 8.87031Z" fill="black"/>
</svg>
