<svg width="48" height="48" viewBox="0 0 48 48" fill="none" xmlns="http://www.w3.org/2000/svg">
<path fill-rule="evenodd" clip-rule="evenodd" d="M6.52879 22.197C6.04104 22.197 5.57326 22.3907 5.22837 22.7356C4.88347 23.0805 4.68971 23.5483 4.68971 24.0361C4.68971 24.5238 4.88347 24.9916 5.22837 25.3365C5.57326 25.6814 6.04104 25.8751 6.52879 25.8751C6.96219 25.8665 7.37912 25.7075 7.7082 25.4254L8.14798 25.9351C7.84091 26.2001 7.47416 26.3868 7.07915 26.479C6.68414 26.5712 6.27265 26.5663 5.87996 26.4646C5.48728 26.363 5.1251 26.1676 4.82447 25.8953C4.52384 25.623 4.29373 25.2818 4.15386 24.901C4.01399 24.5203 3.96853 24.1113 4.02139 23.7091C4.07424 23.3069 4.22382 22.9236 4.45731 22.5919C4.69081 22.2602 5.00125 21.9901 5.36203 21.8046C5.72281 21.6192 6.12317 21.5241 6.52879 21.5273C7.11953 21.5263 7.69214 21.7313 8.14798 22.107L7.7082 22.6268C7.37851 22.3481 6.96047 22.1958 6.52879 22.197ZM20.4418 25.7252C20.8898 25.7252 21.3194 25.5472 21.6362 25.2305C21.953 24.9137 22.131 24.484 22.131 24.0361C22.131 23.5881 21.953 23.1584 21.6362 22.8416C21.3194 22.5249 20.8898 22.3469 20.4418 22.3469H19.4423V25.7252H20.4418ZM20.4418 21.6672C20.7529 21.6672 21.0609 21.7285 21.3483 21.8476C21.6357 21.9666 21.8969 22.1411 22.1168 22.3611C22.3368 22.581 22.5113 22.8422 22.6303 23.1295C22.7494 23.4169 22.8106 23.725 22.8106 24.0361C22.8106 24.3471 22.7494 24.6552 22.6303 24.9426C22.5113 25.23 22.3368 25.4911 22.1168 25.7111C21.8969 25.931 21.6357 26.1055 21.3483 26.2246C21.0609 26.3436 20.7529 26.4049 20.4418 26.4049H19.0925C19.0024 26.4049 18.9159 26.3691 18.8522 26.3053C18.7885 26.2416 18.7527 26.1552 18.7527 26.065V22.0071C18.7527 21.9169 18.7885 21.8305 18.8522 21.7668C18.9159 21.703 19.0024 21.6672 19.0925 21.6672H20.4418ZM24.6397 22.0071C24.6395 21.9598 24.6492 21.913 24.6681 21.8697C24.687 21.8264 24.7148 21.7875 24.7496 21.7555C24.7844 21.7235 24.8255 21.6992 24.8702 21.684C24.915 21.6688 24.9624 21.6631 25.0095 21.6672H27.8281V22.3469H25.3194V23.6962H26.8986V24.4259H25.3194V25.7252H27.7981V26.4249H25.0095C24.9194 26.4249 24.833 26.3891 24.7692 26.3253C24.7055 26.2616 24.6697 26.1752 24.6697 26.085L24.6397 22.0071ZM34.8746 22.0071C34.8746 21.9169 34.9104 21.8305 34.9741 21.7668C35.0378 21.703 35.1243 21.6672 35.2144 21.6672H38.003V22.3469H35.5542V23.6962H37.1334V24.4259H35.5542V25.7252H38.003V26.4249H35.2144C35.1243 26.4249 35.0378 26.3891 34.9741 26.3253C34.9104 26.2616 34.8746 26.1752 34.8746 26.085V22.0071ZM31.6562 23.6962C31.7517 23.7079 31.8486 23.6991 31.9404 23.6705C32.0323 23.6419 32.117 23.5942 32.189 23.5304C32.261 23.4666 32.3187 23.3883 32.3582 23.3006C32.3977 23.2129 32.4181 23.1178 32.4181 23.0216C32.4181 22.9254 32.3977 22.8303 32.3582 22.7425C32.3187 22.6548 32.261 22.5765 32.189 22.5127C32.117 22.4489 32.0323 22.4012 31.9404 22.3726C31.8486 22.344 31.7517 22.3353 31.6562 22.3469H30.5368V23.6962H31.6562ZM31.6562 21.6972C31.8438 21.6811 32.0328 21.7041 32.211 21.7649C32.3893 21.8256 32.553 21.9227 32.6917 22.05C32.8305 22.1774 32.9413 22.3321 33.017 22.5046C33.0928 22.677 33.132 22.8632 33.132 23.0515C33.132 23.2399 33.0928 23.4261 33.017 23.5985C32.9413 23.7709 32.8305 23.9257 32.6917 24.0531C32.553 24.1804 32.3893 24.2775 32.211 24.3382C32.0328 24.399 31.8438 24.422 31.6562 24.4059H30.5368V26.4249H29.8571V22.0071C29.8571 21.9169 29.8929 21.8305 29.9566 21.7668C30.0204 21.703 30.1068 21.6672 30.1969 21.6672L31.6562 21.6972ZM43.3203 21.6972H44V26.095C43.999 26.1641 43.9776 26.2313 43.9385 26.2882C43.8993 26.3452 43.8442 26.3892 43.7801 26.4149H43.6602C43.6107 26.415 43.5619 26.4043 43.517 26.3836C43.4721 26.3629 43.4323 26.3326 43.4003 26.2949L40.6217 22.9366V26.4249H39.942V22.0071C39.943 21.938 39.9644 21.8708 40.0036 21.8139C40.0427 21.7569 40.0978 21.7129 40.1619 21.6872C40.2278 21.6625 40.2997 21.6589 40.3677 21.6768C40.4358 21.6947 40.4966 21.7333 40.5417 21.7872L43.3203 25.1355V21.6972ZM14.8846 23.6962L16.014 22.9366L13.5353 21.3174V22.7667L14.8846 23.6962ZM15.4343 24.066L16.2139 24.5858V23.5863L15.4343 24.066ZM13.5353 25.3054V26.7547L16.014 25.1355L14.8846 24.4259L13.5353 25.3054ZM11.5363 24.4059L10.4468 25.1355L12.9156 26.7547V25.3054L11.5363 24.4059ZM11.0165 24.0361L10.2369 23.5163V24.5158L11.0165 24.0361ZM12.9156 22.7667V21.3174L10.4868 22.9366L11.5763 23.6662L12.9156 22.7667ZM13.2254 24.7657L14.3249 24.0361L13.2254 23.3064L12.126 24.0361L13.2254 24.7657ZM16.8336 22.8866V25.3254H16.7836L13.4853 27.5243C13.4348 27.5574 13.3758 27.575 13.3154 27.575C13.255 27.575 13.196 27.5574 13.1455 27.5243L9.75717 25.4254V22.7467L13.0155 20.4778C13.0655 20.4435 13.1248 20.425 13.1855 20.425C13.2461 20.425 13.3054 20.4435 13.3554 20.4778L16.6537 22.6767H16.7037V22.8067L16.8336 22.8866Z" fill="black"/>
</svg>
