<svg width="48" height="48" viewBox="0 0 48 48" fill="none" xmlns="http://www.w3.org/2000/svg">
<path fill-rule="evenodd" clip-rule="evenodd" d="M32.1076 22.1277L25.4137 17.6418V10.4384L37.5226 18.511L32.1076 22.1277ZM34.8551 23.986L38.7215 21.3984V26.5737L34.8551 23.986ZM25.3737 30.3302L32.0676 25.8443L37.4826 29.461L25.4137 37.5336L25.3737 30.3302ZM15.5827 25.8443L22.2766 30.3302V37.5336L10.2076 29.461L15.5827 25.8443ZM12.8752 23.986L8.96876 26.5737V21.3984L12.8752 23.986ZM22.3565 17.6418L15.6626 22.1277L10.2076 18.511L22.3165 10.4384L22.3565 17.6418ZM23.9051 27.6327L18.4001 23.986L23.8651 20.3294L29.3301 23.986L23.9051 27.6327ZM41.8886 18.2313C41.8942 18.1882 41.8942 18.1445 41.8886 18.1014V18.0215C41.8927 17.985 41.8927 17.9481 41.8886 17.9116V17.8317C41.868 17.8005 41.8513 17.7669 41.8387 17.7318V17.6618L41.7787 17.5719L41.7188 17.502L41.6488 17.4121L41.5789 17.3521L41.499 17.2822L41.429 17.2322L24.7243 6.26226C24.4704 6.09131 24.1712 6 23.8651 6C23.559 6 23.2598 6.09131 23.0059 6.26226L6.57096 17.2222L6.50102 17.2722L6.4211 17.3421L6.35116 17.4021L6.28122 17.492L6.22128 17.5619L6.16133 17.6518V17.7218L6.11138 17.8217V17.9016C6.10725 17.9381 6.10725 17.975 6.11138 18.0115V18.0914C6.10584 18.1345 6.10584 18.1782 6.11138 18.2213C6.11138 18.2213 6.11138 18.2213 6.11138 18.2813C6.11138 18.3412 6.11138 18.4211 6.11138 18.4911V29.481C6.11138 29.5509 6.11138 29.6209 6.11138 29.6908C6.11138 29.7607 6.11138 29.6908 6.11138 29.7508C6.10584 29.7939 6.10584 29.8375 6.11138 29.8806V29.9606C6.10725 29.9971 6.10725 30.0339 6.11138 30.0705V30.1504C6.13195 30.1816 6.14872 30.2151 6.16133 30.2503V30.3202L6.22128 30.4102L6.28122 30.4801L6.35116 30.56C6.36636 30.5879 6.39124 30.6092 6.4211 30.62L6.50102 30.6999L6.57096 30.7498L23.0059 41.7398C23.2603 41.9095 23.5593 42 23.8651 42C24.1709 42 24.4699 41.9095 24.7243 41.7398L41.1593 30.7498L41.2292 30.6999L41.3091 30.62C41.339 30.6092 41.3639 30.5879 41.3791 30.56L41.449 30.4801L41.509 30.4102L41.5689 30.3202V30.2503C41.5815 30.2151 41.5983 30.1816 41.6189 30.1504V30.0705C41.623 30.0339 41.623 29.9971 41.6189 29.9606V29.8806C41.6244 29.8375 41.6244 29.7939 41.6189 29.7508C41.6189 29.7508 41.6189 29.7508 41.6189 29.6908C41.6189 29.6309 41.6189 29.5509 41.6189 29.481V18.4911C41.6189 18.4211 41.6189 18.3512 41.6189 18.2813C41.6189 18.2113 41.8487 18.2613 41.8487 18.2413L41.8886 18.2313Z" fill="black"/>
</svg>
