<svg width="48" height="48" viewBox="0 0 48 48" fill="none" xmlns="http://www.w3.org/2000/svg">
<path fill-rule="evenodd" clip-rule="evenodd" d="M24 40.72C27.3069 40.72 30.5395 39.7394 33.2891 37.9022C36.0387 36.065 38.1818 33.4536 39.4473 30.3985C40.7128 27.3433 41.0439 23.9815 40.3987 20.7381C39.7536 17.4947 38.1612 14.5155 35.8228 12.1772C33.4845 9.83884 30.5053 8.24642 27.2619 7.60127C24.0185 6.95613 20.6567 7.28724 17.6015 8.55273C14.5464 9.81823 11.935 11.9613 10.0978 14.7109C8.26061 17.4605 7.28 20.6931 7.28 24C7.28529 28.4328 9.04856 32.6825 12.183 35.817C15.3175 38.9514 19.5672 40.7147 24 40.72ZM24 4C27.9556 4 31.8224 5.17298 35.1114 7.37061C38.4004 9.56824 40.9638 12.6918 42.4776 16.3463C43.9913 20.0009 44.3874 24.0222 43.6157 27.9018C42.844 31.7814 40.9392 35.3451 38.1421 38.1421C35.3451 40.9392 31.7814 42.844 27.9018 43.6157C24.0222 44.3874 20.0009 43.9913 16.3463 42.4776C12.6918 40.9638 9.56824 38.4004 7.37061 35.1114C5.17298 31.8224 4 27.9556 4 24C4 18.6957 6.10714 13.6086 9.85786 9.85786C13.6086 6.10714 18.6957 4 24 4ZM34.24 25.78V22.22L31.58 24L34.24 25.78ZM25.06 33.32L33.39 27.77L29.67 25.28L25.06 28.36V33.32ZM24 26.51L27.76 24L24 21.49L20.24 24L24 26.51ZM22.94 33.32V28.32L18.33 25.24L14.61 27.73L22.94 33.32ZM13.76 22.22V25.78L16.42 24L13.76 22.22ZM22.94 14.68L14.61 20.23L18.33 22.72L22.94 19.64V14.68ZM25.06 14.68V19.68L29.67 22.76L33.39 20.27L25.06 14.68ZM36.36 20.09C36.36 20.14 36.36 20.19 36.36 20.23V27.77C36.36 27.77 36.36 27.86 36.36 27.91C36.36 27.91 36.36 27.97 36.36 28C36.3653 28.0162 36.3653 28.0338 36.36 28.05C36.36 28.05 36.36 28.11 36.36 28.13V28.25L36.31 28.32V28.38L36 28.6H35.95L24.65 36.14C24.4755 36.2569 24.2701 36.3194 24.06 36.3194C23.8499 36.3194 23.6445 36.2569 23.47 36.14L12.11 28.65L12 28.6V28.55L11.95 28.49V28.3C11.95 28.3 11.95 28.25 11.95 28.22C11.9447 28.2038 11.9447 28.1862 11.95 28.17C11.95 28.17 11.95 28.11 11.95 28.08C11.95 28.03 11.95 27.98 11.95 27.94V20.23C11.95 20.23 11.95 20.14 11.95 20.09C11.95 20.09 11.95 20.03 11.95 20C11.9447 19.9838 11.9447 19.9662 11.95 19.95C11.95 19.95 11.95 19.89 11.95 19.87V19.63L12 19.57H12.11L23.41 12.03C23.5845 11.9131 23.7899 11.8506 24 11.8506C24.2101 11.8506 24.4155 11.9131 24.59 12.03L35.89 19.57H36V19.63L36.05 19.7V19.87C36.05 19.87 36.05 19.92 36.05 19.95C36.0553 19.9662 36.0553 19.9838 36.05 20C36.05 20 36.05 20.06 36.05 20.09C36.05 20.1311 36.0663 20.1705 36.0954 20.1996C36.1245 20.2287 36.1639 20.245 36.205 20.245C36.2461 20.245 36.2855 20.2287 36.3146 20.1996C36.3437 20.1705 36.36 20.1311 36.36 20.09Z" fill="black"/>
</svg>
