<svg width="48" height="48" viewBox="0 0 48 48" fill="none" xmlns="http://www.w3.org/2000/svg">
<path d="M34.8209 18.1037C34.8226 17.194 34.5875 16.2996 34.1386 15.5083C33.6897 14.7171 33.0425 14.0564 32.2608 13.5912C31.479 13.126 30.5896 12.8724 29.6801 12.8553C28.7706 12.8382 27.8723 13.0582 27.0736 13.4937C26.2749 13.9292 25.6033 14.5651 25.125 15.3389C24.6467 16.1127 24.3781 16.9977 24.3457 17.9068C24.3132 18.8159 24.518 19.7178 24.94 20.5237C25.3619 21.3296 25.9864 22.0118 26.752 22.5031C26.412 24.0129 25.1822 24.8328 22.6126 26.2226C22.1426 26.4725 21.6127 26.7425 21.1428 27.0425V13.7143C22.119 13.12 22.8741 12.2227 23.2929 11.1593C23.7118 10.096 23.7714 8.92479 23.4628 7.82436C23.1541 6.72393 22.4941 5.7546 21.5834 5.06414C20.6726 4.37368 19.5611 3.99997 18.4182 3.99997C17.2753 3.99997 16.1637 4.37368 15.253 5.06414C14.3422 5.7546 13.6822 6.72393 13.3736 7.82436C13.0649 8.92479 13.1246 10.096 13.5434 11.1593C13.9623 12.2227 14.7173 13.12 15.6935 13.7143V34.3114C14.7273 34.9033 13.9794 35.793 13.5625 36.8466C13.1456 37.9002 13.0822 39.0608 13.3818 40.1536C13.6814 41.2463 14.3279 42.2122 15.224 42.9058C16.12 43.5994 17.2171 43.9832 18.3501 43.9994C19.4831 44.0156 20.5907 43.6634 21.5062 42.9957C22.4217 42.3281 23.0956 41.3811 23.4264 40.2973C23.7572 39.2136 23.727 38.0517 23.3404 36.9866C22.9538 35.9214 22.2317 35.0107 21.2828 34.3914C21.6327 33.0916 22.8026 32.3217 25.1822 31.0119C27.9818 29.5021 31.7513 27.4724 32.2412 22.5931C33.0226 22.1316 33.671 21.4754 34.1231 20.6886C34.5752 19.9018 34.8156 19.0112 34.8209 18.1037Z" fill="black"/>
</svg>
