<svg width="48" height="48" viewBox="0 0 48 48" fill="none" xmlns="http://www.w3.org/2000/svg">
<path d="M34.6075 18.0175C34.6101 17.1159 34.363 16.2311 33.8936 15.4612C33.4243 14.6914 32.7509 14.0665 31.9482 13.6559C31.1454 13.2453 30.2447 13.065 29.3457 13.1349C28.4468 13.2048 27.5848 13.5222 26.8552 14.052C26.1256 14.5818 25.5569 15.3032 25.2122 16.1364C24.8675 16.9695 24.7601 17.8819 24.9021 18.7723C25.0441 19.6627 25.4299 20.4964 26.0166 21.181C26.6034 21.8656 27.3682 22.3744 28.2264 22.651C27.807 24.9678 25.9896 26.0662 23.2335 27.5441C21.9774 28.1742 20.7866 28.9268 19.6784 29.791V13.5838C20.8056 13.249 21.7745 12.5196 22.4079 11.529C23.0413 10.5384 23.2968 9.35284 23.1276 8.18928C22.9585 7.02572 22.3761 5.96197 21.4869 5.19267C20.5977 4.42338 19.4612 4 18.2854 4C17.1096 4 15.9731 4.42338 15.0839 5.19267C14.1948 5.96197 13.6123 7.02572 13.4432 8.18928C13.274 9.35284 13.5295 10.5384 14.1629 11.529C14.7963 12.5196 15.7652 13.249 16.8924 13.5838V34.4345C15.7748 34.782 14.8187 35.5186 14.1977 36.5107C13.5767 37.5028 13.3319 38.6846 13.5077 39.8417C13.6835 40.9988 14.2682 42.0546 15.1557 42.8176C16.0433 43.5805 17.1749 44 18.3453 44C19.5157 44 20.6474 43.5805 21.5349 42.8176C22.4225 42.0546 23.0072 40.9988 23.183 39.8417C23.3587 38.6846 23.1139 37.5028 22.4929 36.5107C21.8719 35.5186 20.9159 34.782 19.7983 34.4345C20.2377 32.3474 21.9652 31.2989 24.5516 29.9008C27.138 28.5028 30.4733 26.7053 31.0025 22.6211C32.0197 22.3455 32.9204 21.7482 33.5702 20.9185C34.2199 20.0888 34.5838 19.0711 34.6075 18.0175ZM16.2133 8.92031C16.2133 8.50316 16.3372 8.09539 16.5691 7.74868C16.8011 7.40196 17.1308 7.13191 17.5164 6.97273C17.9019 6.81355 18.3261 6.77241 18.7351 6.85452C19.1441 6.93664 19.5195 7.13831 19.8138 7.43398C20.1081 7.72965 20.308 8.10603 20.3881 8.51541C20.4683 8.92479 20.4251 9.34875 20.2641 9.73359C20.1031 10.1184 19.8315 10.4468 19.4837 10.6771C19.1359 10.9074 18.7275 11.0293 18.3104 11.0274C18.0341 11.0274 17.7606 10.9728 17.5056 10.8668C17.2505 10.7608 17.0189 10.6054 16.824 10.4096C16.6291 10.2138 16.4749 9.98147 16.3701 9.72589C16.2653 9.47031 16.212 9.19654 16.2133 8.92031ZM18.3104 41.195C17.8932 41.1949 17.4854 41.0711 17.1387 40.8391C16.792 40.6072 16.522 40.2775 16.3628 39.8919C16.2036 39.5063 16.1625 39.0822 16.2446 38.6732C16.3267 38.2642 16.5284 37.8887 16.824 37.5945C17.1197 37.3002 17.4961 37.1003 17.9055 37.0201C18.3148 36.94 18.7388 36.9831 19.1236 37.1441C19.5085 37.3052 19.8369 37.5768 20.0672 37.9246C20.2975 38.2724 20.4194 38.6807 20.4174 39.0979C20.4174 39.3741 20.3628 39.6476 20.2568 39.9027C20.1508 40.1578 19.9955 40.3894 19.7997 40.5843C19.6039 40.7791 19.3715 40.9334 19.1159 41.0382C18.8604 41.143 18.5866 41.1963 18.3104 41.195ZM29.7243 20.0746C29.3051 20.0765 28.8948 19.9533 28.546 19.7207C28.1972 19.4881 27.9257 19.1567 27.7662 18.7689C27.6068 18.3812 27.5666 17.9547 27.6509 17.544C27.7352 17.1333 27.9401 16.7571 28.2394 16.4635C28.5387 16.1699 28.9188 15.9722 29.331 15.8958C29.7433 15.8195 30.1689 15.8678 30.5536 16.0347C30.9382 16.2015 31.2643 16.4794 31.4901 16.8326C31.716 17.1858 31.8313 17.5984 31.8214 18.0175C31.8084 18.5659 31.582 19.0876 31.1904 19.4718C30.7988 19.8559 30.2729 20.0722 29.7243 20.0746Z" fill="black"/>
</svg>
