<svg width="48" height="48" viewBox="0 0 48 48" fill="none" xmlns="http://www.w3.org/2000/svg">
<path d="M21.22 42C20.9741 41.9974 20.7292 41.9672 20.49 41.91H20.29L17.29 41.01C16.6193 40.8027 16.0338 40.3838 15.621 39.816C15.2082 39.2481 14.9903 38.5619 15 37.86L14.75 35.86C14.7304 35.739 14.666 35.6297 14.5698 35.5538C14.4735 35.4779 14.3523 35.4409 14.23 35.45L12.23 35.63C11.5444 35.7801 10.8285 35.7022 10.1912 35.4079C9.55401 35.1137 9.03037 34.6193 8.70004 34L7.25004 31.24C6.92081 30.6303 6.7984 29.9301 6.90118 29.2449C7.00397 28.5596 7.32641 27.9263 7.82004 27.44L9.08004 25.85C9.14923 25.7508 9.17934 25.6296 9.16458 25.5096C9.14981 25.3897 9.09121 25.2794 9.00004 25.2L7.46004 23.9C6.88774 23.5159 6.45052 22.9618 6.21009 22.3158C5.96966 21.6699 5.93816 20.9648 6.12004 20.3L7.03004 17.3C7.22837 16.6348 7.63635 16.0514 8.19319 15.637C8.75002 15.2225 9.42588 14.9991 10.12 15L12.12 14.75C12.2392 14.7281 12.346 14.6628 12.4199 14.5668C12.4938 14.4708 12.5294 14.3508 12.52 14.23L12.34 12.23C12.1924 11.541 12.2748 10.8226 12.5747 10.185C12.8745 9.54737 13.3752 9.02569 14 8.69997L16.72 7.24997C17.3302 6.92236 18.0299 6.80086 18.7147 6.90359C19.3996 7.00631 20.0329 7.32777 20.52 7.81997L22.12 9.07997C22.1697 9.1199 22.2269 9.14953 22.2881 9.16714C22.3494 9.18475 22.4135 9.18998 22.4768 9.18254C22.5401 9.17509 22.6013 9.15511 22.6568 9.12377C22.7123 9.09242 22.761 9.05034 22.8 8.99997L24.1 7.43997C24.4895 6.87158 25.0467 6.4389 25.6938 6.20228C26.3409 5.96565 27.0458 5.93688 27.71 6.11997L30.71 7.02997C31.3742 7.232 31.9556 7.64262 32.3681 8.20099C32.7805 8.75937 33.0021 9.43577 33 10.13L33.25 12.13C33.2675 12.252 33.3312 12.3627 33.428 12.439C33.5248 12.5153 33.6473 12.5515 33.77 12.54L35.77 12.36C36.4584 12.2048 37.1787 12.2815 37.8189 12.5781C38.4591 12.8747 38.9833 13.3746 39.31 14L40.77 16.72C41.0984 17.3316 41.2204 18.033 41.1177 18.7196C41.0149 19.4062 40.6931 20.0412 40.2 20.53L38.93 22.12C38.8615 22.2175 38.8317 22.3371 38.8465 22.4554C38.8613 22.5737 38.9196 22.6823 39.01 22.76L40.55 24.04C41.1401 24.431 41.5864 25.004 41.821 25.6718C42.0557 26.3396 42.0658 27.0658 41.85 27.74L40.95 30.74C40.7546 31.3979 40.3503 31.9743 39.7982 32.382C39.2461 32.7897 38.5763 33.0067 37.89 33L35.89 33.25C35.7764 33.2587 35.6697 33.3085 35.59 33.39L35.53 33.47C35.4843 33.5447 35.4666 33.6333 35.48 33.72L35.66 35.72C35.7933 36.3921 35.7114 37.0891 35.426 37.712C35.1405 38.3349 34.6661 38.8521 34.07 39.19L31.28 40.68C30.6694 41.0096 29.9686 41.1332 29.2821 41.0323C28.5956 40.9314 27.96 40.6114 27.47 40.12L25.88 38.85C25.7802 38.7829 25.6595 38.754 25.5401 38.7687C25.4207 38.7834 25.3106 38.8407 25.23 38.93L23.94 40.47C23.6521 40.9334 23.2519 41.3166 22.7764 41.584C22.3009 41.8515 21.7656 41.9946 21.22 42ZM21 39.2H21.19C21.2707 39.1983 21.3496 39.1764 21.4195 39.1362C21.4894 39.096 21.5481 39.0388 21.59 38.97L21.71 38.79L23.1 37.2C23.6407 36.5637 24.4056 36.1599 25.236 36.0724C26.0664 35.9849 26.8986 36.2204 27.56 36.73L29.39 38.2C29.4557 38.2779 29.5459 38.3312 29.6458 38.3511C29.7457 38.3711 29.8494 38.3566 29.94 38.31L32.71 36.83C32.7957 36.7719 32.8617 36.6891 32.8992 36.5927C32.9367 36.4962 32.944 36.3907 32.92 36.29V36.1L32.7 34C32.6335 33.2342 32.8388 32.4694 33.28 31.84L33.47 31.63C33.7328 31.3185 34.0545 31.0619 34.4165 30.8749C34.7786 30.6879 35.174 30.5741 35.58 30.54L37.76 30.27H37.87C37.9541 30.2731 38.0371 30.251 38.1084 30.2064C38.1798 30.1619 38.2361 30.0969 38.27 30.02L39.2 27C39.2473 26.893 39.253 26.7723 39.2161 26.6613C39.1791 26.5503 39.1021 26.4572 39 26.4L38.81 26.26L37.19 24.91C36.5494 24.3703 36.1419 23.6042 36.0525 22.7714C35.963 21.9385 36.1986 21.1033 36.71 20.44L38.18 18.61C38.2571 18.5459 38.31 18.4575 38.33 18.3593C38.3501 18.2611 38.3359 18.1591 38.29 18.07L36.85 15.3C36.7962 15.2102 36.7134 15.1414 36.6152 15.105C36.517 15.0687 36.4094 15.0669 36.31 15.1H36.12L34 15.31C33.1653 15.3686 32.3394 15.1079 31.6896 14.5806C31.0399 14.0533 30.6146 13.2989 30.5 12.47L30.23 10.26V10.14C30.2303 10.0423 30.2007 9.94696 30.1453 9.86655C30.0899 9.78615 30.0113 9.72455 29.92 9.68997L26.92 8.77997C26.8163 8.76044 26.7091 8.77294 26.6126 8.81581C26.5162 8.85868 26.435 8.92989 26.38 9.01997L26.27 9.16997L24.92 10.79C24.3776 11.4263 23.612 11.8307 22.7806 11.92C21.9492 12.0092 21.1152 11.7766 20.45 11.27L18.62 9.79997C18.5557 9.72041 18.4661 9.66516 18.3661 9.64335C18.2661 9.62153 18.1617 9.63445 18.07 9.67997L15.31 11.16C15.221 11.2148 15.1523 11.2972 15.1144 11.3947C15.0765 11.4922 15.0714 11.5994 15.1 11.7V11.89L15.32 14C15.3835 14.8358 15.1246 15.6642 14.5964 16.3151C14.0683 16.9659 13.311 17.3899 12.48 17.5L10.26 17.77H10.14C10.0423 17.7627 9.94502 17.7883 9.8635 17.8427C9.78199 17.897 9.72094 17.977 9.69004 18.07L8.78004 21.07C8.76051 21.1737 8.77301 21.2809 8.81588 21.3774C8.85875 21.4738 8.92995 21.555 9.02004 21.61L9.17004 21.72L10.79 23.08C11.4278 23.6193 11.8335 24.3834 11.9229 25.2139C12.0122 26.0443 11.7785 26.8773 11.27 27.54L9.79004 29.38C9.71444 29.4451 9.66262 29.5334 9.64271 29.6312C9.62279 29.7289 9.63593 29.8305 9.68004 29.92L11.16 32.69C11.2154 32.7811 11.2995 32.8512 11.3991 32.8892C11.4986 32.9272 11.6081 32.931 11.71 32.9H11.89L14 32.68C14.8342 32.6192 15.6601 32.8793 16.3088 33.4072C16.9575 33.9351 17.3801 34.6909 17.49 35.52L17.77 37.73V37.85C17.7733 37.9481 17.8054 38.0431 17.8623 38.1231C17.9192 38.2032 17.9984 38.2647 18.09 38.3L21 39.2Z" fill="black"/>
<path d="M24.05 32.91C22.6617 32.9104 21.2924 32.5872 20.0509 31.9659C18.8093 31.3446 17.7298 30.4424 16.8979 29.331C16.066 28.2195 15.5047 26.9294 15.2585 25.5631C15.0124 24.1967 15.0883 22.7919 15.48 21.46C15.7847 20.3029 16.3189 19.2189 17.0507 18.2723C17.7825 17.3257 18.697 16.5358 19.74 15.9496C20.7831 15.3633 21.9332 14.9926 23.1223 14.8595C24.3114 14.7265 25.5151 14.8337 26.6619 15.1748C27.8087 15.516 28.8753 16.0841 29.7982 16.8455C30.7212 17.6069 31.4818 18.546 32.0347 19.6071C32.5877 20.6681 32.9218 21.8295 33.0172 23.0222C33.1126 24.2148 32.9673 25.4145 32.59 26.55C32.2627 27.6768 31.7126 28.7265 30.9723 29.6369C30.232 30.5473 29.3165 31.2998 28.28 31.85C26.9793 32.5474 25.526 32.9116 24.05 32.91ZM18.13 22.24C17.6778 23.8086 17.8572 25.4919 18.63 26.93C19.4125 28.3674 20.7331 29.4357 22.3023 29.9006C23.8714 30.3655 25.5608 30.1891 27 29.41C28.4334 28.6314 29.4994 27.3162 29.9643 25.7527C30.4292 24.1892 30.2551 22.5052 29.48 21.07C28.8984 19.9998 28.0131 19.1257 26.9356 18.5578C25.8581 17.9899 24.6366 17.7536 23.4251 17.8788C22.2135 18.0039 21.0661 18.4848 20.1274 19.2609C19.1887 20.037 18.5007 21.0735 18.15 22.24H18.13Z" fill="black"/>
</svg>
