<svg width="48" height="48" viewBox="0 0 48 48" fill="none" xmlns="http://www.w3.org/2000/svg">
<path d="M42.194 23.6889L40.5394 22.3104L41.8942 20.6094C42.498 20.0058 42.8912 19.2232 43.0152 18.378C43.1393 17.5327 42.9876 16.67 42.5827 15.918L41.0058 12.983C40.6094 12.214 39.9728 11.5958 39.1929 11.2225C38.4131 10.8492 37.5327 10.7413 36.686 10.9152L34.465 11.0931L34.1984 8.9475C34.1997 8.09187 33.9278 7.25823 33.4223 6.56824C32.9169 5.87825 32.2044 5.36804 31.3889 5.11206L28.1351 4.14487C27.3169 3.92057 26.4492 3.95747 25.6529 4.25042C24.8567 4.54337 24.1716 5.07776 23.6931 5.7791L22.2939 7.44668L20.6504 6.09038C20.0442 5.49078 19.2621 5.10141 18.4187 4.97937C17.5753 4.85732 16.7151 5.00903 15.9641 5.41223L12.9769 6.97975C12.2054 7.37344 11.5844 8.0098 11.2092 8.79107C10.8341 9.57234 10.7255 10.4553 10.9002 11.3043L11.0779 13.5278L8.93466 13.7946C8.07827 13.7862 7.24221 14.0557 6.55158 14.5628C5.86095 15.0698 5.3529 15.787 5.10345 16.6072L4.14842 19.8646C3.92156 20.6825 3.95589 21.551 4.24662 22.3484C4.53736 23.1458 5.06992 23.8322 5.76975 24.3115L7.4466 25.7011L6.09179 27.402C5.48858 28.0084 5.09604 28.7928 4.97207 29.6395C4.8481 30.4863 4.99927 31.3505 5.40328 32.1046L6.96908 35.0284C7.36519 35.7982 8.00128 36.4177 8.78086 36.7929C9.56044 37.1681 10.441 37.2785 11.2889 37.1073L13.5099 36.9184L13.7764 39.064C13.7728 39.9215 14.0436 40.7576 14.5492 41.4499C15.0548 42.1421 15.7686 42.654 16.586 42.9105L19.8175 43.8888H20.0729C20.3679 43.9584 20.6695 43.9956 20.9724 44C21.6324 43.9949 22.2811 43.8281 22.8618 43.5141C23.4426 43.2002 23.9377 42.7487 24.3039 42.199L25.692 40.5426L27.3911 41.8989C27.9963 42.5 28.7786 42.8904 29.6224 43.0125C30.4662 43.1347 31.3269 42.982 32.0774 42.577L35.0868 40.9761C35.8147 40.5583 36.3943 39.9235 36.7446 39.1603C37.095 38.397 37.1987 37.5433 37.0413 36.7182L36.8747 34.5726L39.018 34.3058C39.8877 34.3111 40.735 34.0298 41.4293 33.5055C42.1236 32.9812 42.6264 32.2428 42.8603 31.4042L43.8153 28.2469C44.0772 27.414 44.0605 26.5184 43.7679 25.6958C43.4753 24.8732 42.9228 24.1686 42.194 23.6889ZM27.913 31.193C26.4893 31.9549 24.872 32.2776 23.2653 32.1204C21.6585 31.9633 20.1343 31.3333 18.8848 30.3099C17.6352 29.2866 16.7164 27.9157 16.2442 26.3702C15.772 24.8247 15.7676 23.1738 16.2315 21.6258C16.6954 20.0778 17.6068 18.702 18.8508 17.6719C20.0949 16.6419 21.6157 16.0037 23.2216 15.8379C24.8275 15.6721 26.4464 15.9861 27.8743 16.7403C29.3021 17.4945 30.4748 18.6552 31.2445 20.0758C32.2731 21.9928 32.4999 24.2399 31.8754 26.3241C31.2508 28.4084 29.8258 30.1594 27.913 31.193Z" fill="black"/>
</svg>
