<svg width="48" height="48" viewBox="0 0 48 48" fill="none" xmlns="http://www.w3.org/2000/svg">
<path d="M41.1175 31.2185L41.0175 31.1184L41.1175 30.9884C41.4239 30.6688 41.6209 30.2603 41.6803 29.8216C41.7396 29.3829 41.6582 28.9367 41.4477 28.5473L40.8774 27.4868C40.6748 27.0838 40.3466 26.7576 39.9424 26.5574C39.5382 26.3571 39.0799 26.2935 38.6365 26.3763H38.4564V26.2063C38.4528 25.7576 38.3064 25.3218 38.0383 24.962C37.7703 24.6022 37.3946 24.3372 36.9657 24.2054L35.7452 23.8352C35.3238 23.7196 34.8771 23.7362 34.4655 23.883C34.0539 24.0297 33.6974 24.2994 33.4442 24.6556L33.3342 24.7957L33.2041 24.6856C32.8846 24.3793 32.476 24.1822 32.0374 24.1229C31.5987 24.0636 31.1525 24.145 30.763 24.3555L29.6926 24.9257C29.2925 25.1312 28.9694 25.4602 28.7712 25.8639C28.5729 26.2676 28.5101 26.7245 28.5921 27.1667V27.3468H28.422C28.0544 27.3568 27.6958 27.4627 27.3817 27.654C27.0676 27.8452 26.8089 28.1152 26.6312 28.4372L26.7713 27.977C26.9312 27.4894 26.9279 26.9629 26.7618 26.4773C26.5957 25.9917 26.276 25.5735 25.8509 25.2859L25.3007 24.8257L25.7509 24.2554C26.1015 23.8946 26.3283 23.4317 26.3984 22.9335C26.4685 22.4353 26.3784 21.9278 26.141 21.4842L25.3307 20.1136C25.0948 19.6605 24.7194 19.2953 24.26 19.072C23.8006 18.8486 23.2816 18.7789 22.7796 18.8731L22.0392 18.9431L21.9492 18.2128C21.9413 17.7109 21.7743 17.2245 21.4722 16.8235C21.1702 16.4226 20.7487 16.1279 20.2685 15.9818L18.6178 15.4816C18.1397 15.3477 17.632 15.3653 17.1644 15.5319C16.6967 15.6986 16.2923 16.006 16.0066 16.412L15.5264 16.9823L15.0062 16.5221C14.6447 16.1593 14.1755 15.9232 13.6688 15.8493C13.1621 15.7754 12.645 15.8675 12.195 16.1119L10.7243 16.9022C10.2699 17.1339 9.90308 17.507 9.6793 17.9654C9.45552 18.4238 9.3869 18.9425 9.48377 19.4433L9.5538 20.1836L8.82348 20.2737C8.31864 20.2814 7.82955 20.4507 7.42802 20.7568C7.02649 21.0629 6.73366 21.4897 6.59251 21.9744L6.0923 23.6251C5.95637 24.1011 5.97088 24.6075 6.13385 25.0749C6.29682 25.5424 6.60029 25.948 7.00269 26.2363L7.57294 26.7165L7.11274 27.2867C6.76157 27.6451 6.53427 28.1064 6.46407 28.6033C6.39387 29.1001 6.48445 29.6063 6.72257 30.0479L7.51291 31.5186C7.74484 31.9723 8.11847 32.338 8.57708 32.56C9.0357 32.7821 9.55425 32.8485 10.054 32.7491L10.7943 32.6891L10.8844 33.4194C10.898 33.9256 11.072 34.4143 11.3813 34.8153C11.6905 35.2162 12.119 35.5086 12.6051 35.6504L14.2258 36.1206H14.3759C14.5537 36.1575 14.7346 36.1776 14.9161 36.1806C15.3058 36.1888 15.6916 36.102 16.0402 35.9277C16.3888 35.7534 16.6897 35.4968 16.917 35.1802L17.3772 34.6199L17.9575 35.0701C18.3158 35.4213 18.7772 35.6486 19.274 35.7188C19.7708 35.789 20.277 35.6984 20.7187 35.4603L22.2593 34.6399C22.6837 34.387 23.0192 34.0087 23.2199 33.5573C23.4205 33.1059 23.4764 32.6033 23.3798 32.1188L23.3198 31.3985L24.0501 31.3085C24.4604 31.2939 24.8599 31.174 25.2104 30.9602C25.5608 30.7464 25.8503 30.446 26.051 30.088C25.9331 30.5108 25.9486 30.9597 26.0954 31.3733C26.2423 31.7869 26.5132 32.1452 26.8713 32.399L27.0014 32.509L26.9014 32.6391C26.5862 32.962 26.3846 33.3786 26.3268 33.8261C26.2691 34.2736 26.3584 34.7278 26.5812 35.1202L27.1615 36.1906C27.3649 36.5906 27.6917 36.9146 28.0934 37.1145C28.4952 37.3145 28.9506 37.3799 29.3924 37.3011H29.5725V37.4712C29.5783 37.9207 29.7268 38.3567 29.9965 38.7164C30.2663 39.076 30.6433 39.3406 31.0732 39.4721L32.2637 39.8322H32.4138C32.5644 39.8696 32.7188 39.8897 32.874 39.8922C33.2126 39.8889 33.5456 39.8045 33.845 39.6461C34.1443 39.4877 34.4014 39.26 34.5947 38.9818L34.7048 38.8518L34.8348 38.9618C35.1559 39.2655 35.5642 39.4606 36.0022 39.5199C36.4401 39.5791 36.8856 39.4994 37.2759 39.292L38.4064 38.6817C38.7775 38.4604 39.0721 38.1311 39.2509 37.7377C39.4297 37.3444 39.4841 36.9058 39.4068 36.4807V36.3207H39.5769C40.0211 36.3215 40.4529 36.1744 40.8043 35.9027C41.1557 35.631 41.4067 35.2501 41.5177 34.82L41.8779 33.6495C42.0315 33.2166 42.0404 32.7455 41.9033 32.3071C41.7662 31.8687 41.4905 31.4867 41.1175 31.2185ZM23.72 28.6473L22.7195 28.7774C22.4224 28.7989 22.1324 28.8789 21.8663 29.0128C21.6002 29.1467 21.3632 29.3319 21.1689 29.5577L21.0188 29.7378C20.6981 30.1993 20.5494 30.7587 20.5986 31.3185L20.6887 32.399L19.6282 32.9692L18.7578 32.2689C18.2708 31.9016 17.6619 31.7343 17.0556 31.8013C16.4493 31.8682 15.8915 32.1644 15.4964 32.6291L14.7961 33.4594L13.6156 33.1193L13.4855 32.0388C13.4031 31.4314 13.0925 30.8781 12.6167 30.4916C12.141 30.105 11.5358 29.9142 10.9244 29.9579L9.83393 30.0479L9.27368 28.9975L10.004 28.1171C10.3755 27.6306 10.5462 27.0202 10.4811 26.4116C10.4159 25.803 10.1198 25.2425 9.65385 24.8457L8.77346 24.1154L9.12362 22.9649L10.2141 22.8348C10.8225 22.7547 11.3772 22.4447 11.7642 21.9684C12.1512 21.4921 12.3412 20.8857 12.295 20.2737L12.195 19.1832L13.2554 18.623L14.1258 19.3133C14.6123 19.6847 15.2227 19.8555 15.8313 19.7903C16.4399 19.7252 17.0004 19.4291 17.3972 18.9631L18.0975 18.1228L19.248 18.4729L19.3881 19.5634C19.4682 20.1718 19.7782 20.7265 20.2545 21.1135C20.7308 21.5005 21.3372 21.6904 21.9492 21.6443L23.0297 21.5442L23.5999 22.6047L22.9096 23.4751C22.5388 23.96 22.3684 24.5688 22.4335 25.1757C22.4987 25.7827 22.7945 26.3414 23.2598 26.7365L24.0801 27.4268L23.72 28.6473ZM39.0767 33.5795L38.5764 33.6495C38.0492 33.692 37.5585 33.9356 37.2058 34.3298L37.0658 34.5099C36.7775 34.9172 36.6428 35.4134 36.6856 35.9105V36.4607L36.3255 36.6508L35.8653 36.2907C35.4354 35.9619 34.8958 35.8108 34.3577 35.8685C33.8197 35.9262 33.3243 36.1884 32.974 36.6008L32.6138 37.031L32.2237 36.9109L32.1536 36.3507C32.0835 35.8111 31.8086 35.3192 31.386 34.9765C30.9633 34.6339 30.4251 34.4668 29.8827 34.5099L29.3224 34.5599L29.1323 34.1998L29.4925 33.7396C29.8212 33.3097 29.9724 32.7701 29.9146 32.232C29.8569 31.694 29.5948 31.1986 29.1824 30.8483L28.7522 30.4881L28.8722 30.098L29.4425 30.0279C29.981 29.9555 30.4715 29.68 30.8137 29.2579C31.1559 28.8357 31.3238 28.2988 31.2833 27.7569L31.2332 27.1967L31.5834 27.0066L32.0436 27.3768C32.2591 27.5524 32.5072 27.6835 32.7737 27.7626C33.0402 27.8416 33.3197 27.867 33.5961 27.8372C33.8725 27.8074 34.1402 27.7231 34.3837 27.5891C34.6273 27.4551 34.8418 27.2741 35.0149 27.0566L35.3751 26.6365L35.7752 26.7465L35.8453 27.3068C35.9177 27.8373 36.1899 28.3202 36.6065 28.6568C37.023 28.9934 37.5523 29.1582 38.0862 29.1175L38.6465 29.0675L38.8366 29.4277L38.4664 29.8779C38.1382 30.3105 37.9884 30.8526 38.048 31.3923C38.1076 31.9321 38.3719 32.4285 38.7865 32.7791L39.2067 33.1293L39.0767 33.5795Z" fill="black"/>
<path d="M35.0149 28.3472C34.0875 28.0802 33.0924 28.188 32.2437 28.6473C31.403 29.1073 30.7776 29.8802 30.5029 30.7983C30.3397 31.3425 30.3067 31.9175 30.4068 32.4768C30.5069 33.0361 30.7371 33.564 31.079 34.0179C31.4208 34.4717 31.8647 34.8388 32.3746 35.0894C32.8846 35.3399 33.4463 35.467 34.0145 35.4603C34.6407 35.4582 35.2558 35.2942 35.8 34.9843C36.3442 34.6743 36.7989 34.2288 37.1201 33.6912C37.4413 33.1535 37.618 32.5419 37.633 31.9158C37.648 31.2898 37.5009 30.6704 37.2058 30.118C36.9775 29.6914 36.6659 29.315 36.2896 29.0108C35.9133 28.7067 35.4799 28.481 35.0149 28.3472ZM34.8848 32.1188C34.8538 32.2335 34.7996 32.3405 34.7256 32.4335C34.6516 32.5264 34.5594 32.6032 34.4547 32.6591C34.243 32.7709 33.9961 32.7958 33.7664 32.7285C33.5366 32.6613 33.3421 32.5072 33.2241 32.2989C33.166 32.1929 33.1299 32.0762 33.1178 31.9559C33.1058 31.8356 33.1181 31.7141 33.1541 31.5986C33.1863 31.4858 33.2411 31.3807 33.315 31.2896C33.3889 31.1984 33.4805 31.1232 33.5843 31.0684C33.8003 30.9576 34.0492 30.9292 34.2846 30.9884C34.5117 31.0609 34.7017 31.2187 34.8148 31.4285C34.8726 31.5329 34.9087 31.6478 34.9207 31.7665C34.9327 31.8852 34.9205 32.005 34.8848 32.1188Z" fill="black"/>
<path d="M25.2606 16.7221L25.4007 16.8422L25.2907 16.9722C24.9931 17.2959 24.8058 17.7055 24.7555 18.1423C24.7051 18.579 24.7944 19.0205 25.0105 19.4033L25.5808 20.4738C25.785 20.8749 26.1139 21.199 26.5179 21.3974C26.922 21.5958 27.3795 21.6579 27.8218 21.5743H28.0018V21.7443C28.0023 22.1938 28.1475 22.6311 28.416 22.9915C28.6845 23.3519 29.062 23.6162 29.4925 23.7452L30.693 24.1054H30.8431C30.9927 24.1217 31.1437 24.1217 31.2933 24.1054C31.6296 24.1071 31.9615 24.028 32.2609 23.8748C32.5603 23.7216 32.8186 23.4987 33.014 23.225L33.1141 23.1049L33.2541 23.205C33.5709 23.5121 33.9772 23.7105 34.4142 23.7717C34.8511 23.8328 35.2962 23.7535 35.6852 23.5451L36.8257 22.9248C37.199 22.7085 37.4959 22.3814 37.6751 21.9888C37.8543 21.5963 37.9071 21.1577 37.8261 20.7339V20.5638H37.9962C38.4391 20.5652 38.8699 20.4196 39.2211 20.1498C39.5723 19.88 39.8241 19.5014 39.937 19.0732L40.2972 17.8927C40.4323 17.4642 40.4265 17.0037 40.2807 16.5787C40.1348 16.1538 39.8566 15.7868 39.4868 15.5316L39.3668 15.4316L39.4768 15.3015C39.7818 14.9812 39.9779 14.5728 40.0372 14.1345C40.0965 13.6961 40.0159 13.2503 39.807 12.8605L39.2367 11.79C39.0353 11.39 38.7108 11.0652 38.311 10.8635C37.9112 10.6618 37.4572 10.5938 37.0158 10.6695H36.8157V10.4994C36.8013 10.0578 36.6473 9.6321 36.3759 9.28341C36.1045 8.93472 35.7296 8.68097 35.305 8.55858L34.0845 8.18842C33.6633 8.06824 33.2151 8.0827 32.8025 8.22979C32.3899 8.37688 32.0337 8.64924 31.7835 9.00878L31.6634 9.10882L31.5334 9.00878C31.2136 8.70529 30.8048 8.51237 30.3673 8.45835C29.9297 8.40432 29.4863 8.49205 29.1023 8.70865L28.0118 9.2789C27.6144 9.48418 27.2938 9.81205 27.0974 10.2139C26.9009 10.6157 26.8392 11.0702 26.9214 11.5099V11.6899H26.7513C26.3014 11.6942 25.8646 11.8421 25.5047 12.112C25.1447 12.382 24.8805 12.7599 24.7504 13.1906L24.3903 14.4011C24.272 14.8304 24.2926 15.286 24.4489 15.7028C24.6052 16.1197 24.8893 16.4765 25.2606 16.7221ZM27.2615 14.3911L27.8218 14.3211C28.3624 14.2533 28.8558 13.9791 29.1989 13.5558C29.542 13.1326 29.7081 12.593 29.6626 12.0501L29.6125 11.4899L30.0127 11.2998L30.4729 11.6699C30.904 11.9975 31.4444 12.147 31.9825 12.0874C32.5206 12.0278 33.0152 11.7637 33.3642 11.3498L33.7243 10.9196L34.1145 11.0397L34.1845 11.5999C34.2547 12.1421 34.5306 12.6366 34.9552 12.9811C35.3797 13.3256 35.9205 13.4937 36.4655 13.4507H37.0158L37.2058 13.8009L36.8457 14.2611C36.5288 14.688 36.3847 15.2189 36.4422 15.7474C36.4997 16.276 36.7545 16.7635 37.1558 17.1123L37.576 17.4725L37.456 17.8826L36.9557 17.9427C36.4285 17.9927 35.9392 18.2391 35.5851 18.633L35.4351 18.8131C35.1435 19.2146 35.0116 19.7103 35.0649 20.2037L35.1149 20.7639L34.7548 20.954L34.2946 20.5938C33.8648 20.2651 33.3251 20.114 32.787 20.1717C32.249 20.2294 31.7536 20.4915 31.4033 20.904L31.0432 21.3342L30.643 21.2141L30.573 20.6539C30.5028 20.1135 30.2284 19.6205 29.806 19.2763C29.3836 18.9321 28.8454 18.7627 28.302 18.803L27.7517 18.8531L27.5616 18.5029L27.9218 18.0427C28.2627 17.6102 28.421 17.0616 28.3631 16.514C28.3051 15.9664 28.0355 15.463 27.6117 15.1114L27.1815 14.7513L27.2615 14.3911Z" fill="black"/>
<path d="M32.4038 19.7435C33.1827 19.7424 33.9407 19.491 34.5658 19.0262C35.1909 18.5614 35.65 17.908 35.8753 17.1623C36.012 16.7045 36.057 16.2242 36.0078 15.7489C35.9585 15.2736 35.816 14.8127 35.5883 14.3926C35.3606 13.9726 35.0522 13.6015 34.6808 13.3008C34.3095 13.0002 33.8825 12.7757 33.4242 12.6404C32.9262 12.4977 32.4034 12.4635 31.8911 12.5401C31.3788 12.6168 30.8889 12.8024 30.4544 13.0845C30.02 13.3666 29.6511 13.7387 29.3727 14.1755C29.0943 14.6123 28.9128 15.1038 28.8406 15.6168C28.7683 16.1297 28.807 16.6522 28.9539 17.149C29.1008 17.6457 29.3526 18.1052 29.6922 18.4963C30.0318 18.8874 30.4514 19.2012 30.9226 19.4163C31.3939 19.6315 31.9058 19.743 32.4238 19.7435H32.4038ZM31.5234 15.8618C31.5635 15.744 31.6279 15.636 31.7123 15.5447C31.7967 15.4534 31.8994 15.3808 32.0136 15.3315C32.1472 15.2535 32.299 15.2121 32.4538 15.2115C32.5399 15.1969 32.6278 15.1969 32.7139 15.2115C32.9372 15.2908 33.1251 15.4468 33.2441 15.6517C33.3566 15.8638 33.3818 16.1115 33.3142 16.342C33.2814 16.4545 33.2264 16.5594 33.1526 16.6505C33.0787 16.7415 32.9874 16.8169 32.884 16.8722C32.7263 16.9581 32.5469 16.9954 32.3681 16.9795C32.1893 16.9637 32.0192 16.8953 31.8791 16.7831C31.7391 16.6708 31.6353 16.5197 31.5809 16.3486C31.5265 16.1776 31.5239 15.9943 31.5734 15.8217L31.5234 15.8618Z" fill="black"/>
<path d="M18.0075 20.5538C17.1466 20.2962 16.2356 20.2545 15.3548 20.4325C14.474 20.6104 13.6506 21.0026 12.9573 21.5742C12.264 22.1458 11.7221 22.8794 11.3795 23.7101C11.037 24.5408 10.9042 25.4431 10.993 26.3373C11.0818 27.2314 11.3894 28.09 11.8887 28.8371C12.388 29.5842 13.0635 30.1969 13.8557 30.621C14.6479 31.0451 15.5323 31.2676 16.4309 31.2689C17.3295 31.2701 18.2145 31.0501 19.0079 30.6282C19.6421 30.2863 20.2027 29.8227 20.6577 29.264C21.1126 28.7052 21.4529 28.0623 21.6592 27.3719C21.8655 26.6816 21.9336 25.9573 21.8598 25.2406C21.786 24.5239 21.5716 23.8288 21.2289 23.195C20.5419 21.9271 19.3854 20.979 18.0075 20.5538ZM19.088 26.5564C18.9883 26.9028 18.82 27.2257 18.5932 27.5058C18.3663 27.7859 18.0855 28.0176 17.7674 28.1871C17.4506 28.3658 17.1015 28.4798 16.7403 28.5226C16.3791 28.5655 16.013 28.5363 15.6632 28.4367C15.3134 28.3372 14.9868 28.1692 14.7023 27.9427C14.4178 27.7161 14.1811 27.4353 14.0057 27.1167C13.6587 26.4729 13.5762 25.7193 13.7756 25.0158C13.9454 24.4406 14.2959 23.9355 14.7752 23.5751C15.2545 23.2147 15.8371 23.0183 16.4368 23.0149C16.7006 23.0171 16.963 23.0541 17.2171 23.1249C17.5635 23.2291 17.8859 23.4006 18.1659 23.6295C18.446 23.8584 18.6781 24.1403 18.8491 24.459C19.0201 24.7777 19.1265 25.127 19.1623 25.4869C19.1982 25.8468 19.1627 26.2102 19.0579 26.5564H19.088Z" fill="black"/>
</svg>
