<svg width="48" height="48" viewBox="0 0 48 48" fill="none" xmlns="http://www.w3.org/2000/svg">
<path d="M41.1906 30.9009C41.4738 30.5241 41.6424 30.0736 41.6761 29.6034C41.7098 29.1332 41.6072 28.6633 41.3806 28.2499L40.8304 27.2495C40.6132 26.8173 40.2734 26.4587 39.8535 26.2185C39.4336 25.9783 38.9522 25.8672 38.4695 25.899C38.3972 25.4354 38.1955 25.0017 37.8876 24.6477C37.5796 24.2938 37.178 24.034 36.7289 23.8982L36.1186 23.7182L36.7088 23.4081C37.122 23.1828 37.4632 22.8454 37.6933 22.4349C37.9233 22.0243 38.0329 21.5572 38.0093 21.0872C38.4789 21.0184 38.9181 20.8144 39.2735 20.4999C39.6288 20.1854 39.8848 19.7742 40.0101 19.3165L40.3502 18.2061C40.4947 17.7494 40.5055 17.2609 40.3815 16.7983C40.2574 16.3357 40.0036 15.9182 39.65 15.5951C39.9301 15.2188 40.0968 14.7702 40.1305 14.3023C40.1641 13.8344 40.0634 13.3666 39.84 12.9541L39.2898 11.9537C39.0701 11.5242 38.7295 11.1684 38.31 10.9302C37.8904 10.6919 37.4103 10.5818 36.9289 10.6132C36.8555 10.1501 36.6534 9.71688 36.3456 9.3631C36.0378 9.00933 35.6368 8.74921 35.1883 8.61244L34.0078 8.18227C33.5584 8.05327 33.0818 8.05334 32.6325 8.18248C32.1831 8.31163 31.7792 8.56463 31.4669 8.91255C31.0879 8.63025 30.6366 8.46155 30.1654 8.42612C29.6942 8.39069 29.2227 8.49001 28.8058 8.71247L27.8055 9.26268C27.3757 9.48295 27.0193 9.82338 26.7795 10.2425C26.5398 10.6617 26.427 11.1415 26.4549 11.6236C25.9914 11.6958 25.5576 11.8976 25.2037 12.2055C24.8497 12.5135 24.5899 12.9151 24.4542 13.3642L24.004 14.5647C23.8802 15.0113 23.8829 15.4835 24.0119 15.9287C24.1408 16.3738 24.3909 16.7744 24.7343 17.0857C24.389 17.557 24.2159 18.1326 24.2441 18.7163C23.7693 18.5352 23.2549 18.4834 22.7535 18.5662H22.4734V18.2961C22.4536 17.7125 22.2492 17.1502 21.8898 16.6901C21.5303 16.2299 21.0341 15.8956 20.4727 15.7351L18.8721 15.285C18.3224 15.1359 17.7402 15.1585 17.2037 15.3498C16.6673 15.5412 16.2022 15.8921 15.8709 16.3554L15.7009 16.5655L15.4908 16.4054C15.075 16.0018 14.5413 15.7415 13.9673 15.6623C13.3933 15.5831 12.8091 15.6893 12.2996 15.9652L10.879 16.7255C10.3478 16.9874 9.91606 17.415 9.649 17.9437C9.38194 18.4724 9.29401 19.0736 9.39846 19.6566V19.9367H9.12836C8.5426 19.9529 7.97732 20.1558 7.51488 20.5156C7.05243 20.8755 6.71697 21.3737 6.55738 21.9375L6.09721 23.5381C5.94767 24.0888 5.97112 24.6721 6.1644 25.209C6.35767 25.7458 6.71141 26.2103 7.17762 26.5393L7.3877 26.7093L7.21763 26.9194C6.82146 27.3355 6.56663 27.866 6.4894 28.4354C6.41216 29.0047 6.51647 29.584 6.78747 30.0906L7.54776 31.5111C7.81436 32.0369 8.24389 32.4622 8.77219 32.7237C9.30049 32.9851 9.8992 33.0686 10.4789 32.9617H10.759V33.2318C10.7773 33.8158 10.9811 34.3788 11.3408 34.8393C11.7005 35.2997 12.1975 35.6337 12.7597 35.7928L14.3403 36.283L14.5504 36.333C14.7446 36.3732 14.9424 36.3934 15.1406 36.393C15.5855 36.3914 16.0234 36.2823 16.4171 36.075C16.8107 35.8678 17.1484 35.5684 17.4015 35.2025L17.5716 35.0025L17.7716 35.1625C18.189 35.5669 18.7244 35.8277 19.3002 35.9069C19.8759 35.986 20.4619 35.8795 20.9729 35.6027L22.4934 34.7924C22.9885 34.5109 23.3836 34.0822 23.6238 33.5659C23.864 33.0496 23.9375 32.4713 23.834 31.9113V31.6512H24.1041C24.6396 31.6366 25.1586 31.4624 25.5946 31.151C25.7093 31.6468 25.9708 32.0965 26.3449 32.4415C26.0592 32.8164 25.8867 33.2651 25.8477 33.7349C25.8087 34.2046 25.9048 34.6756 26.1248 35.0925L26.675 36.0929C26.8918 36.5196 27.2269 36.8749 27.6402 37.1162C28.0536 37.3575 28.5278 37.4745 29.0059 37.4534C29.0793 37.9165 29.2814 38.3497 29.5892 38.7035C29.897 39.0573 30.298 39.3174 30.7466 39.4542L31.917 39.8043L32.1071 39.8543C32.2813 39.8927 32.459 39.9128 32.6373 39.9143C32.991 39.9184 33.3415 39.8473 33.6657 39.7059C33.9898 39.5645 34.2804 39.356 34.518 39.094C34.8948 39.3773 35.3453 39.5459 35.8155 39.5796C36.2857 39.6133 36.7557 39.5107 37.169 39.2841L38.2894 38.6839C38.6897 38.4546 39.0191 38.1196 39.2414 37.7154C39.4638 37.3113 39.5705 36.8538 39.5499 36.393C40.0198 36.3211 40.4587 36.1147 40.8138 35.7987C41.1688 35.4827 41.4248 35.0706 41.5507 34.6123L41.8808 33.5119C42.0265 33.0562 42.0389 32.5683 41.9166 32.1057C41.7943 31.6431 41.5424 31.2251 41.1906 30.9009ZM18.582 29.3203C17.8849 29.6935 17.0929 29.8518 16.3059 29.7753C15.519 29.6988 14.7723 29.3908 14.1602 28.8903C13.5482 28.3898 13.0981 27.7192 12.8668 26.9631C12.6355 26.207 12.6333 25.3994 12.8607 24.6421C13.088 23.8848 13.5346 23.2118 14.144 22.7081C14.7535 22.2044 15.4985 21.8926 16.2851 21.8119C17.0716 21.7313 17.8644 21.8854 18.5634 22.255C19.2624 22.6245 19.8363 23.1928 20.2126 23.8882C20.4618 24.3541 20.6164 24.8647 20.6673 25.3907C20.7182 25.9166 20.6644 26.4473 20.5091 26.9524C20.3538 27.4574 20.1 27.9267 19.7623 28.3331C19.4247 28.7395 19.0099 29.075 18.5419 29.3203H18.582ZM29.316 24.5885C28.8904 24.8105 28.5393 25.1525 28.3063 25.5722C28.0734 25.9919 27.9688 26.4708 28.0055 26.9494C27.7441 26.9883 27.4907 27.0694 27.2553 27.1895C27.2383 26.7507 27.1158 26.3224 26.8981 25.9411C26.6804 25.5597 26.374 25.2364 26.0048 24.9987L25.8147 24.8486L25.9748 24.6385C26.2972 24.3069 26.5306 23.8991 26.653 23.4531C26.7754 23.0071 26.783 22.5373 26.675 22.0876C26.9284 22.1597 27.1926 22.1868 27.4553 22.1676C27.5276 22.6312 27.7293 23.0649 28.0373 23.4189C28.3452 23.7728 28.7469 24.0326 29.196 24.1683L29.8062 24.3584L29.316 24.5885ZM29.5961 17.7359C29.3231 17.2235 29.2079 16.6418 29.265 16.064C29.322 15.4862 29.5488 14.9382 29.9167 14.4891C30.2847 14.04 30.7773 13.7098 31.3326 13.5402C31.8878 13.3706 32.4809 13.3691 33.037 13.5359C33.5931 13.7027 34.0874 14.0304 34.4576 14.4777C34.8278 14.9249 35.0573 15.4718 35.1172 16.0493C35.1772 16.6267 35.0649 17.2091 34.7945 17.7228C34.5241 18.2366 34.1076 18.6588 33.5977 18.9364C33.2565 19.122 32.8819 19.2383 32.4956 19.2784C32.1092 19.3185 31.7188 19.2817 31.3467 19.1701C30.9747 19.0584 30.6284 18.8742 30.328 18.6281C30.0275 18.3819 29.7788 18.0787 29.5961 17.7359ZM33.2675 23.9783C33.1706 24.0538 33.0802 24.1375 32.9974 24.2284C32.8878 24.1525 32.7742 24.0824 32.6573 24.0183C32.7544 23.9466 32.8448 23.8662 32.9274 23.7782C33.0372 23.8508 33.1508 23.9175 33.2675 23.9783ZM35.1683 34.2522C34.654 34.5046 34.0782 34.6046 33.5089 34.5403C32.9396 34.476 32.4006 34.25 31.9556 33.8892C31.5106 33.5284 31.1782 33.0477 30.9976 32.504C30.8171 31.9603 30.7959 31.3762 30.9367 30.8209C31.1682 30.0754 31.6812 29.4495 32.3666 29.0759C33.052 28.7024 33.8561 28.6106 34.608 28.8201C35.1674 28.985 35.6651 29.3124 36.0379 29.7608C36.4108 30.2092 36.6419 30.7583 36.7019 31.3384C36.762 31.9184 36.6482 32.5033 36.3752 33.0185C36.1021 33.5338 35.682 33.9562 35.1683 34.2322V34.2522Z" fill="black"/>
</svg>
