<svg width="48" height="48" viewBox="0 0 48 48" fill="none" xmlns="http://www.w3.org/2000/svg">
<path d="M12 12.23H14.31C14.3126 12.1088 14.3618 11.9933 14.4476 11.9076C14.5333 11.8218 14.6488 11.7726 14.77 11.77H33.23C33.3512 11.7726 33.4667 11.8218 33.5524 11.9076C33.6382 11.9933 33.6875 12.1088 33.69 12.23H36C36.1532 12.2196 36.3068 12.2196 36.46 12.23C36.46 11.3734 36.1197 10.5518 35.514 9.94605C34.9082 9.3403 34.0866 9 33.23 9H14.77C13.9134 9 13.0918 9.3403 12.486 9.94605C11.8803 10.5518 11.54 11.3734 11.54 12.23C11.6932 12.2196 11.8468 12.2196 12 12.23Z" fill="black"/>
<path d="M9.23 16.85H11.54C11.54 16.7271 11.5881 16.609 11.6741 16.5211C11.7601 16.4333 11.8771 16.3826 12 16.38H36C36.1229 16.3826 36.2399 16.4333 36.3259 16.5211C36.4119 16.609 36.46 16.7271 36.46 16.85H38.77C38.93 16.85 39.08 16.85 39.23 16.85C39.23 15.9934 38.8897 15.1718 38.284 14.566C37.6782 13.9603 36.8566 13.62 36 13.62H12C11.1434 13.62 10.3218 13.9603 9.71605 14.566C9.1103 15.1718 8.77 15.9934 8.77 16.85C8.92 16.88 9.07 16.85 9.23 16.85Z" fill="black"/>
<path d="M38.77 39.46H9.23C8.37335 39.46 7.55179 39.1197 6.94605 38.514C6.3403 37.9082 6 37.0866 6 36.23V21.46C6 21.0358 6.08355 20.6158 6.24587 20.2239C6.40819 19.8321 6.64611 19.476 6.94605 19.176C7.55179 18.5703 8.37335 18.23 9.23 18.23H38.77C39.6266 18.23 40.4482 18.5703 41.054 19.176C41.6597 19.7818 42 20.6034 42 21.46V36.23C42 37.0866 41.6597 37.9082 41.054 38.514C40.4482 39.1197 39.6266 39.46 38.77 39.46ZM9.23 21C9.1088 21.0026 8.99328 21.0518 8.90756 21.1376C8.82184 21.2233 8.77255 21.3388 8.77 21.46V36.23C8.77255 36.3512 8.82184 36.4667 8.90756 36.5524C8.99328 36.6382 9.1088 36.6874 9.23 36.69H38.77C38.8912 36.6874 39.0067 36.6382 39.0924 36.5524C39.1782 36.4667 39.2274 36.3512 39.23 36.23V21.46C39.2274 21.3388 39.1782 21.2233 39.0924 21.1376C39.0067 21.0518 38.8912 21.0026 38.77 21H9.23Z" fill="black"/>
</svg>
