<svg width="48" height="48" viewBox="0 0 48 48" fill="none" xmlns="http://www.w3.org/2000/svg">
<path d="M12.3 11.7H35.7C35.9643 11.7047 36.228 11.7247 36.49 11.76C36.3033 10.9745 35.8574 10.2749 35.2241 9.77413C34.5909 9.27334 33.8073 9.00062 33 9H15C14.1927 9.00062 13.4091 9.27334 12.7759 9.77413C12.1426 10.2749 11.6967 10.9745 11.51 11.76C11.772 11.7247 12.0357 11.7047 12.3 11.7Z" fill="black"/>
<path d="M9.6 16.2H38.4C38.6643 16.2047 38.928 16.2247 39.19 16.26C39.0033 15.4745 38.5574 14.7749 37.9241 14.2741C37.2909 13.7733 36.5073 13.5006 35.7 13.5H12.3C11.4927 13.5006 10.7091 13.7733 10.0759 14.2741C9.44261 14.7749 8.99665 15.4745 8.81 16.26C9.07195 16.2247 9.33573 16.2047 9.6 16.2Z" fill="black"/>
<path d="M38.4 18H9.6C7.61177 18 6 19.6118 6 21.6V36C6 37.9882 7.61177 39.6 9.6 39.6H38.4C40.3882 39.6 42 37.9882 42 36V21.6C42 19.6118 40.3882 18 38.4 18Z" fill="black"/>
</svg>
