<svg width="48" height="48" viewBox="0 0 48 48" fill="none" xmlns="http://www.w3.org/2000/svg">
<path d="M24 44C23.3914 44.0067 22.7877 43.8918 22.2241 43.662C21.6606 43.4322 21.1486 43.0921 20.7182 42.6618C20.2879 42.2314 19.9478 41.7194 19.718 41.1559C19.4882 40.5923 19.3733 39.9886 19.38 39.38C19.3722 38.2097 19.829 37.084 20.65 36.25C20.7801 36.1194 20.8812 35.9629 20.9467 35.7906C21.0122 35.6182 21.0406 35.434 21.03 35.25C21.037 35.0459 21.0019 34.8425 20.927 34.6525C20.8521 34.4625 20.7389 34.29 20.5945 34.1455C20.45 34.0011 20.2775 33.8879 20.0875 33.813C19.8975 33.7381 19.6941 33.703 19.49 33.71H15.79C12.6777 33.7075 9.69245 32.4754 7.48425 30.2822C5.27605 28.089 4.02374 25.1122 4 22C4 12.05 13 4 24 4C29.3043 4 34.3914 6.10714 38.1421 9.85786C41.8929 13.6086 44 18.6957 44 24C44 29.3043 41.8929 34.3914 38.1421 38.1421C34.3914 41.8929 29.3043 44 24 44ZM24 7.08C14.67 7.08 7.08 13.75 7.08 22C7.08264 24.3101 8.00083 26.5251 9.63341 28.1595C11.266 29.794 13.4799 30.7147 15.79 30.72H19.49C20.0969 30.7147 20.6987 30.8303 21.2605 31.06C21.8222 31.2898 22.3325 31.6292 22.7617 32.0583C23.1908 32.4875 23.5302 32.9978 23.76 33.5595C23.9897 34.1213 24.1053 34.7231 24.1 35.33C24.1068 35.9114 23.998 36.4884 23.78 37.0274C23.562 37.5664 23.2391 38.0568 22.83 38.47C22.7032 38.6025 22.6049 38.7596 22.5413 38.9316C22.4776 39.1036 22.45 39.2869 22.46 39.47C22.4652 39.6666 22.5092 39.8602 22.5895 40.0396C22.6699 40.2191 22.7849 40.3809 22.9281 40.5157C23.0712 40.6505 23.2396 40.7556 23.4236 40.825C23.6076 40.8944 23.8035 40.9267 24 40.92C28.4875 40.92 32.7911 39.1374 35.9642 35.9642C39.1374 32.7911 40.92 28.4875 40.92 24C40.92 19.5125 39.1374 15.2089 35.9642 12.0358C32.7911 8.86264 28.4875 7.08 24 7.08Z" fill="black"/>
<path d="M16.37 25.58C15.455 25.578 14.5612 25.3043 13.8019 24.7937C13.0426 24.283 12.4521 23.5584 12.1051 22.7117C11.7582 21.865 11.6705 20.9344 11.8532 20.0378C12.0358 19.1412 12.4806 18.319 13.1311 17.6755C13.7816 17.032 14.6086 16.5962 15.5071 16.4233C16.4057 16.2503 17.3353 16.3481 18.1782 16.7042C19.0211 17.0604 19.7392 17.6587 20.2416 18.4235C20.744 19.1883 21.0079 20.085 21 21C21.0014 21.6061 20.8822 22.2063 20.6494 22.7659C20.4166 23.3255 20.0748 23.8331 19.6439 24.2594C19.213 24.6856 18.7017 25.0218 18.1396 25.2486C17.5776 25.4753 16.976 25.588 16.37 25.58ZM16.37 19.42C16.0671 19.4201 15.771 19.5095 15.5187 19.677C15.2664 19.8445 15.0691 20.0827 14.9515 20.3618C14.8338 20.6409 14.8011 20.9484 14.8573 21.246C14.9136 21.5436 15.0563 21.818 15.2677 22.0349C15.4791 22.2518 15.7497 22.4015 16.0458 22.4654C16.3418 22.5292 16.6501 22.5044 16.9321 22.3939C17.2141 22.2835 17.4573 22.0923 17.6312 21.8444C17.8052 21.5965 17.9021 21.3028 17.91 21C17.9227 20.7926 17.8918 20.5849 17.8195 20.3901C17.7471 20.1953 17.6348 20.0179 17.4898 19.8691C17.3448 19.7203 17.1702 19.6035 16.9774 19.5261C16.7845 19.4488 16.5776 19.4126 16.37 19.42Z" fill="black"/>
<path d="M24 18.32C23.3914 18.3267 22.7877 18.2118 22.2241 17.982C21.6606 17.7522 21.1486 17.4121 20.7182 16.9818C20.2879 16.5514 19.9478 16.0394 19.718 15.4759C19.4882 14.9123 19.3733 14.3086 19.38 13.7C19.38 12.4747 19.8667 11.2996 20.7332 10.4332C21.5996 9.56675 22.7747 9.08 24 9.08C25.2253 9.08 26.4004 9.56675 27.2668 10.4332C28.1333 11.2996 28.62 12.4747 28.62 13.7C28.6267 14.3086 28.5118 14.9123 28.282 15.4759C28.0522 16.0394 27.7121 16.5514 27.2818 16.9818C26.8514 17.4121 26.3394 17.7522 25.7759 17.982C25.2123 18.2118 24.6086 18.3267 24 18.32ZM24 12.16C23.7959 12.153 23.5925 12.1881 23.4025 12.263C23.2125 12.3379 23.04 12.4511 22.8955 12.5955C22.7511 12.74 22.6379 12.9125 22.563 13.1025C22.4881 13.2925 22.453 13.4959 22.46 13.7C22.46 14.1084 22.6222 14.5001 22.9111 14.7889C23.1999 15.0778 23.5916 15.24 24 15.24C24.4084 15.24 24.8001 15.0778 25.0889 14.7889C25.3778 14.5001 25.54 14.1084 25.54 13.7C25.547 13.4959 25.5119 13.2925 25.437 13.1025C25.3621 12.9125 25.2489 12.74 25.1045 12.5955C24.96 12.4511 24.7875 12.3379 24.5975 12.263C24.4075 12.1881 24.2041 12.153 24 12.16Z" fill="black"/>
<path d="M33.71 26.52C32.7954 26.522 31.9008 26.2525 31.1395 25.7456C30.3782 25.2387 29.7845 24.5172 29.4336 23.6726C29.0827 22.828 28.9904 21.8983 29.1683 21.0011C29.3462 20.104 29.7865 19.2799 30.4332 18.6332C31.0799 17.9865 31.904 17.5462 32.8011 17.3683C33.6983 17.1904 34.628 17.2827 35.4726 17.6336C36.3172 17.9845 37.0387 18.5782 37.5456 19.3395C38.0524 20.1008 38.322 20.9954 38.32 21.91C38.3267 22.5173 38.212 23.1197 37.9827 23.6821C37.7534 24.2444 37.4141 24.7553 36.9847 25.1847C36.5553 25.6141 36.0444 25.9534 35.4821 26.1827C34.9197 26.412 34.3173 26.5267 33.71 26.52ZM33.71 20.37C33.4054 20.37 33.1077 20.4603 32.8544 20.6295C32.6012 20.7988 32.4038 21.0393 32.2872 21.3207C32.1707 21.6021 32.1402 21.9117 32.1996 22.2104C32.259 22.5092 32.4057 22.7836 32.6211 22.9989C32.8364 23.2143 33.1108 23.361 33.4096 23.4204C33.7083 23.4798 34.0179 23.4493 34.2993 23.3328C34.5807 23.2162 34.8212 23.0188 34.9905 22.7656C35.1597 22.5123 35.25 22.2146 35.25 21.91C35.257 21.7059 35.2219 21.5025 35.147 21.3125C35.0721 21.1225 34.9589 20.95 34.8145 20.8055C34.67 20.6611 34.4975 20.5479 34.3075 20.473C34.1175 20.3981 33.9141 20.363 33.71 20.37Z" fill="black"/>
</svg>
