<svg width="48" height="48" viewBox="0 0 48 48" fill="none" xmlns="http://www.w3.org/2000/svg">
<path d="M24 4C13 4 4 12.08 4 22C4 25.1826 5.26428 28.2348 7.51472 30.4853C9.76515 32.7357 12.8174 34 16 34H19.6C19.7336 33.9912 19.8676 34.011 19.9929 34.0581C20.1182 34.1052 20.232 34.1786 20.3267 34.2733C20.4214 34.368 20.4948 34.4818 20.5419 34.6071C20.589 34.7324 20.6088 34.8664 20.6 35C20.6063 35.1082 20.5901 35.2166 20.5522 35.3182C20.5143 35.4198 20.4557 35.5123 20.38 35.59C19.9357 36.0387 19.5849 36.5713 19.3481 37.1566C19.1112 37.742 18.9929 38.3686 19 39C19 40.3261 19.5268 41.5979 20.4645 42.5355C21.4021 43.4732 22.6739 44 24 44C29.3043 44 34.3914 41.8929 38.1421 38.1421C41.8929 34.3914 44 29.3043 44 24C44 18.6957 41.8929 13.6086 38.1421 9.85786C34.3914 6.10714 29.3043 4 24 4V4ZM16.56 24C15.9667 24 15.3866 23.8241 14.8933 23.4944C14.3999 23.1648 14.0154 22.6962 13.7884 22.1481C13.5613 21.5999 13.5019 20.9967 13.6176 20.4147C13.7334 19.8328 14.0191 19.2982 14.4387 18.8787C14.8582 18.4591 15.3928 18.1734 15.9747 18.0576C16.5567 17.9419 17.1599 18.0013 17.7081 18.2284C18.2562 18.4554 18.7248 18.8399 19.0544 19.3333C19.3841 19.8266 19.56 20.4067 19.56 21C19.5668 21.3958 19.4938 21.789 19.3454 22.156C19.1971 22.523 18.9763 22.8565 18.6964 23.1364C18.4165 23.4163 18.083 23.6371 17.716 23.7854C17.349 23.9338 16.9558 24.0068 16.56 24ZM24 17C23.2044 17 22.4413 16.6839 21.8787 16.1213C21.3161 15.5587 21 14.7956 21 14C21 13.2044 21.3161 12.4413 21.8787 11.8787C22.4413 11.3161 23.2044 11 24 11C24.7956 11 25.5587 11.3161 26.1213 11.8787C26.6839 12.4413 27 13.2044 27 14C27 14.7956 26.6839 15.5587 26.1213 16.1213C25.5587 16.6839 24.7956 17 24 17ZM33.46 25C32.8667 25 32.2866 24.8241 31.7933 24.4944C31.2999 24.1648 30.9154 23.6962 30.6884 23.1481C30.4613 22.5999 30.4019 21.9967 30.5176 21.4147C30.6334 20.8328 30.9191 20.2982 31.3387 19.8787C31.7582 19.4591 32.2928 19.1734 32.8747 19.0576C33.4567 18.9419 34.0599 19.0013 34.608 19.2284C35.1562 19.4554 35.6248 19.8399 35.9544 20.3333C36.2841 20.8266 36.46 21.4067 36.46 22C36.46 22.7956 36.1439 23.5587 35.5813 24.1213C35.0187 24.6839 34.2556 25 33.46 25Z" fill="black"/>
</svg>
