<svg width="48" height="48" viewBox="0 0 48 48" fill="none" xmlns="http://www.w3.org/2000/svg">
<path d="M22.54 26.53C22.4361 26.4658 22.3359 26.3957 22.24 26.32L21.94 27.56L22.88 26.67C22.77 26.62 22.65 26.59 22.54 26.53Z" fill="black"/>
<path d="M25.46 21.47C25.5663 21.5343 25.6667 21.6079 25.76 21.69L26.06 20.44L25.13 21.32L25.46 21.47Z" fill="black"/>
<path d="M24 4C20.0444 4 16.1776 5.17298 12.8886 7.37061C9.59962 9.56824 7.03617 12.6918 5.52242 16.3463C4.00867 20.0009 3.6126 24.0222 4.3843 27.9018C5.15601 31.7814 7.06082 35.3451 9.85787 38.1421C12.6549 40.9392 16.2186 42.844 20.0982 43.6157C23.9778 44.3874 27.9992 43.9913 31.6537 42.4776C35.3082 40.9638 38.4318 38.4004 40.6294 35.1114C42.827 31.8224 44 27.9556 44 24C44 18.6957 41.8929 13.6086 38.1421 9.85786C34.3914 6.10714 29.3043 4 24 4ZM28.47 26V26.08C28.47 26.13 28.47 26.17 28.47 26.21V26.37C28.47 26.37 28.47 26.42 28.47 26.44C28.4572 26.472 28.4404 26.5022 28.42 26.53L28.36 26.61C28.3154 26.6712 28.2652 26.7281 28.21 26.78L15.56 38.62L19.56 22.02V21.95C19.5557 21.9001 19.5557 21.8499 19.56 21.8C19.5559 21.7634 19.5559 21.7266 19.56 21.69V21.6C19.56 21.6 19.56 21.6 19.56 21.53V21.47L19.61 21.38L19.68 21.3L19.79 21.17L19.84 21.12L32.44 9.38L28.47 26Z" fill="black"/>
</svg>
