<svg width="48" height="48" viewBox="0 0 48 48" fill="none" xmlns="http://www.w3.org/2000/svg">
<path d="M24 44C20.0444 44 16.1776 42.827 12.8886 40.6294C9.59962 38.4318 7.03617 35.3082 5.52242 31.6537C4.00867 27.9992 3.6126 23.9778 4.3843 20.0982C5.15601 16.2186 7.06082 12.6549 9.85787 9.85787C12.6549 7.06082 16.2186 5.15601 20.0982 4.3843C23.9778 3.6126 27.9992 4.00867 31.6537 5.52242C35.3082 7.03617 38.4318 9.59962 40.6294 12.8886C42.827 16.1776 44 20.0444 44 24C44 29.3043 41.8929 34.3914 38.1421 38.1421C34.3914 41.8929 29.3043 44 24 44ZM24 6.79001C20.5962 6.79001 17.2688 7.79936 14.4386 9.69042C11.6085 11.5815 9.40263 14.2693 8.10004 17.414C6.79746 20.5587 6.45664 24.0191 7.12069 27.3575C7.78475 30.6959 9.42384 33.7625 11.8307 36.1693C14.2376 38.5762 17.3041 40.2153 20.6425 40.8793C23.9809 41.5434 27.4413 41.2026 30.586 39.9C33.7307 38.5974 36.4185 36.3915 38.3096 33.5614C40.2007 30.7312 41.21 27.4038 41.21 24C41.2047 19.4373 39.3898 15.0629 36.1635 11.8365C32.9371 8.61019 28.5628 6.7953 24 6.79001Z" fill="black"/>
<path d="M20.19 21.31L20.14 21.36L20.08 21.43C20.0432 21.4776 20.0098 21.5278 19.98 21.58V21.63C19.98 21.63 19.98 21.63 19.98 21.71C19.9607 21.7523 19.944 21.7957 19.93 21.84C19.9343 21.8598 19.9343 21.8802 19.93 21.9L16 37.91L27.83 26.67C27.8788 26.6177 27.9224 26.5608 27.96 26.5C27.992 26.4713 28.019 26.4375 28.04 26.4C28.0548 26.3625 28.0715 26.3258 28.09 26.29V26.22C28.1111 26.1682 28.1278 26.1146 28.14 26.06L32 10.09L20.19 21.31ZM20.87 29.42L21.87 25.36C22.0843 25.7177 22.3875 26.0139 22.75 26.22C23.1094 26.4274 23.5152 26.5409 23.93 26.55L20.87 29.42ZM26.16 22.64C25.9483 22.2803 25.6445 21.9834 25.28 21.78C24.922 21.5693 24.5153 21.4556 24.1 21.45L27.1 18.58L26.16 22.64Z" fill="black"/>
</svg>
