<svg width="48" height="48" viewBox="0 0 48 48" fill="none" xmlns="http://www.w3.org/2000/svg">
<path d="M13.3754 25.8725C13.1441 25.8888 12.9121 25.8553 12.6949 25.7741C12.4777 25.693 12.2804 25.5662 12.1165 25.4023C11.9526 25.2383 11.8257 25.0411 11.7446 24.8239C11.6635 24.6067 11.63 24.3746 11.6463 24.1434C11.6257 23.9128 11.6552 23.6805 11.7326 23.4623C11.81 23.2442 11.9336 23.0453 12.0949 22.8793C12.2562 22.7132 12.4514 22.584 12.6672 22.5002C12.883 22.4165 13.1144 22.3804 13.3454 22.3942C13.7716 22.3761 14.1933 22.4876 14.5548 22.7141V22.1144C14.1928 21.8891 13.7715 21.7776 13.3454 21.7945C13.0321 21.7719 12.7175 21.8173 12.4233 21.9276C12.1292 22.0379 11.8623 22.2106 11.6411 22.4337C11.4199 22.6568 11.2496 22.9251 11.1418 23.2202C11.034 23.5153 10.9913 23.8302 11.0166 24.1434C10.9839 24.459 11.0218 24.7779 11.1277 25.0771C11.2335 25.3762 11.4046 25.6481 11.6285 25.8729C11.8524 26.0978 12.1235 26.27 12.4222 26.3771C12.7209 26.4842 13.0397 26.5235 13.3554 26.4922C13.7725 26.5154 14.1878 26.4219 14.5548 26.2223V25.5926C14.1902 25.7802 13.7854 25.8762 13.3754 25.8725Z" fill="black"/>
<path d="M16.6338 22.884C16.4065 22.8813 16.1813 22.9268 15.9729 23.0174C15.7645 23.1081 15.5776 23.2419 15.4247 23.4099C15.2717 23.578 15.1561 23.7766 15.0854 23.9926C15.0147 24.2086 14.9906 24.4371 15.0146 24.6631C14.9969 24.8884 15.0261 25.115 15.1002 25.3285C15.1744 25.5421 15.2918 25.738 15.4453 25.9039C15.5988 26.0699 15.7849 26.2023 15.992 26.2929C16.1991 26.3834 16.4227 26.4302 16.6488 26.4302C16.8748 26.4302 17.0984 26.3834 17.3055 26.2929C17.5126 26.2023 17.6987 26.0699 17.8522 25.9039C18.0057 25.738 18.1232 25.5421 18.1973 25.3285C18.2714 25.115 18.3006 24.8884 18.2829 24.6631C18.3073 24.4345 18.2824 24.2034 18.21 23.9853C18.1376 23.7671 18.0192 23.567 17.863 23.3985C17.7067 23.2299 17.5162 23.0968 17.3041 23.008C17.0921 22.9193 16.8635 22.877 16.6338 22.884ZM16.6338 25.8825C15.8941 25.8825 15.5743 25.2928 15.5743 24.6331C15.5743 23.9834 15.8941 23.4037 16.6338 23.4037C17.3734 23.4037 17.6832 23.9834 17.6832 24.6331C17.6832 25.2828 17.3734 25.9125 16.6338 25.9125V25.8825Z" fill="black"/>
<path d="M20.6318 22.884C20.4119 22.8769 20.1942 22.93 20.0023 23.0374C19.8103 23.1448 19.6513 23.3026 19.5423 23.4937V22.954H18.9526V26.3922H19.5423V24.4932C19.5423 23.7935 19.9221 23.4237 20.4718 23.4237C21.0216 23.4237 21.2814 23.7036 21.2814 24.3233V26.3922H21.8811V24.3932C21.8811 23.4337 21.4214 22.884 20.6318 22.884Z" fill="black"/>
<path d="M22.9506 22.5741V22.954H22.3909V23.4937H22.9506V26.3922H23.5303V23.4937H24.4199V22.954H23.5303V22.5841C23.5253 22.512 23.5364 22.4396 23.5627 22.3722C23.589 22.3049 23.6299 22.2441 23.6824 22.1944C23.735 22.1448 23.7979 22.1073 23.8666 22.0848C23.9354 22.0623 24.0083 22.0554 24.08 22.0644H24.4498V21.5447C24.3058 21.5103 24.1581 21.4935 24.0101 21.4947C23.8668 21.4856 23.7233 21.5074 23.5893 21.5588C23.4553 21.6101 23.3339 21.6896 23.2334 21.7921C23.1329 21.8945 23.0556 22.0173 23.0068 22.1523C22.958 22.2872 22.9388 22.4311 22.9506 22.5741Z" fill="black"/>
<path d="M25.6492 25.4927V21.4947H25.0595V25.4927C25.0444 25.6162 25.058 25.7415 25.0992 25.8589C25.1404 25.9763 25.208 26.0827 25.297 26.1697C25.3859 26.2567 25.4937 26.3221 25.612 26.3606C25.7303 26.3992 25.8559 26.41 25.9791 26.3922C26.0818 26.4071 26.1862 26.4071 26.2889 26.3922V25.8625H26.109C25.8591 25.8625 25.6492 25.7625 25.6492 25.4927Z" fill="black"/>
<path d="M29.1275 24.863C29.1275 25.5626 28.7377 25.9225 28.198 25.9225C27.6582 25.9225 27.3784 25.6526 27.3784 25.0329V22.954H26.7887V24.9529C26.7887 25.9125 27.2484 26.4922 28.008 26.4922C28.2299 26.4973 28.449 26.4412 28.6411 26.3302C28.8333 26.2191 28.9912 26.0573 29.0975 25.8625V26.3922H29.6872V22.954H29.0975L29.1275 24.863Z" fill="black"/>
<path d="M32.006 22.874C31.779 22.8724 31.5543 22.9191 31.3468 23.0111C31.1393 23.1031 30.9537 23.2382 30.8024 23.4074C30.6511 23.5766 30.5376 23.7761 30.4694 23.9926C30.4012 24.2092 30.3799 24.4377 30.4068 24.6631C30.3774 24.9121 30.4052 25.1646 30.488 25.4013C30.5708 25.638 30.7066 25.8527 30.8848 26.0291C31.0631 26.2054 31.2793 26.3388 31.5169 26.419C31.7544 26.4993 32.0072 26.5243 32.2559 26.4922C32.6229 26.5062 32.9883 26.4379 33.3254 26.2923V25.7126C33.0045 25.8275 32.6667 25.8883 32.3259 25.8925C31.5063 25.8925 31.1265 25.5227 31.0465 24.893H33.5653V24.6631C33.5253 23.6136 33.0955 22.874 32.006 22.874ZM31.0065 24.4332C31.0665 23.8335 31.3864 23.4337 32.006 23.4337C32.6257 23.4337 32.8856 23.7935 32.9256 24.4332H31.0065Z" fill="black"/>
<path d="M35.9041 22.884C35.6842 22.8769 35.4666 22.93 35.2746 23.0374C35.0826 23.1448 34.9236 23.3026 34.8146 23.4937V22.954H34.2249V26.3922H34.8146V24.4932C34.8146 23.7935 35.2044 23.4237 35.7442 23.4237C36.2839 23.4237 36.5637 23.7036 36.5637 24.3233V26.3922H37.1535V24.3932C37.1535 23.4337 36.7037 22.884 35.9041 22.884Z" fill="black"/>
<path d="M39.6322 25.9025C39.4623 25.9207 39.2905 25.9012 39.129 25.8453C38.9676 25.7895 38.8204 25.6986 38.6982 25.5792C38.5759 25.4598 38.4816 25.3149 38.4219 25.1548C38.3622 24.9947 38.3386 24.8234 38.3528 24.6531C38.3404 24.4859 38.3646 24.3179 38.4239 24.1611C38.4833 24.0042 38.5762 23.8622 38.6962 23.7451C38.8162 23.6279 38.9604 23.5384 39.1186 23.4829C39.2769 23.4274 39.4453 23.4072 39.6122 23.4237C39.8822 23.4144 40.1502 23.4728 40.3918 23.5936V23.0439C40.1364 22.9218 39.8552 22.8635 39.5722 22.874C39.3307 22.8492 39.0867 22.8783 38.8578 22.9593C38.629 23.0403 38.4209 23.1711 38.2488 23.3423C38.0766 23.5135 37.9447 23.7208 37.8624 23.9492C37.7802 24.1776 37.7497 24.4215 37.7731 24.6631C37.7432 24.9079 37.7689 25.1562 37.8483 25.3897C37.9276 25.6232 38.0587 25.8357 38.2316 26.0115C38.4045 26.1873 38.6149 26.3218 38.847 26.4051C39.0791 26.4883 39.327 26.5181 39.5722 26.4922C39.8607 26.5041 40.148 26.4493 40.4118 26.3323V25.7725C40.1613 25.8601 39.8976 25.9041 39.6322 25.9025Z" fill="black"/>
<path d="M44 24.6631C44 23.6636 43.5702 22.874 42.5108 22.874C42.2813 22.8681 42.0532 22.9116 41.842 23.0017C41.6309 23.0917 41.4416 23.2262 41.287 23.3959C41.1324 23.5657 41.0162 23.7667 40.9463 23.9854C40.8763 24.204 40.8542 24.4352 40.8816 24.6631C40.8518 24.9131 40.8797 25.1666 40.9631 25.4041C41.0465 25.6417 41.1831 25.857 41.3626 26.0335C41.542 26.2101 41.7595 26.3432 41.9984 26.4227C42.2373 26.5022 42.4912 26.526 42.7407 26.4922C43.1074 26.5042 43.4724 26.436 43.8101 26.2923V25.7126C43.4731 25.8321 43.1182 25.8929 42.7606 25.8925C41.941 25.8925 41.5712 25.5227 41.4813 24.893H44V24.6631ZM41.4813 24.4332C41.5413 23.8335 41.8611 23.4337 42.4808 23.4337C43.1005 23.4337 43.3703 23.7935 43.4003 24.4332H41.4813Z" fill="black"/>
<path d="M8.64778 25.0329L7.64828 24.5432C6.27897 23.8835 5.10956 23.9235 4.22001 25.3727L4.02011 25.6326C4.00073 25.6675 3.99512 25.7084 4.00436 25.7473C4.01361 25.7861 4.03705 25.8201 4.07008 25.8425L5.06958 26.4722C5.106 26.4922 5.14849 26.4981 5.18901 26.4889C5.22953 26.4797 5.26527 26.456 5.28947 26.4222L5.43939 26.1623C5.83919 25.5027 6.24899 25.5826 6.97862 25.9325L7.97812 26.4122C8.01659 26.4291 8.06018 26.4302 8.09947 26.4153C8.13875 26.4003 8.17056 26.3705 8.18801 26.3323L8.67777 25.2328C8.6986 25.2018 8.70708 25.164 8.70153 25.127C8.69598 25.0901 8.67681 25.0565 8.64778 25.0329Z" fill="black"/>
<path d="M8.86767 22.4142L7.84818 21.7945C7.81848 21.7664 7.77914 21.7507 7.73824 21.7507C7.69734 21.7507 7.65799 21.7664 7.62829 21.7945L7.47837 22.0944C7.07857 22.764 6.66877 22.6741 5.93914 22.3243L4.92965 21.8545C4.91147 21.8444 4.89138 21.8381 4.87065 21.8362C4.84993 21.8343 4.82903 21.8367 4.80929 21.8433C4.78955 21.8498 4.77139 21.8605 4.75597 21.8744C4.74056 21.8884 4.72822 21.9055 4.71975 21.9245L4.23 23.0239C4.21551 23.0626 4.21563 23.1053 4.23035 23.144C4.24507 23.1826 4.27338 23.2145 4.30996 23.2338L5.30946 23.7136C6.68876 24.3832 7.84818 24.3333 8.74773 22.884L8.89765 22.6341C8.92208 22.6007 8.9326 22.5591 8.92701 22.5181C8.92142 22.4771 8.90015 22.4399 8.86767 22.4142Z" fill="black"/>
</svg>
