<svg width="48" height="48" viewBox="0 0 48 48" fill="none" xmlns="http://www.w3.org/2000/svg">
<path d="M39.8526 30.5955C38.292 29.8652 35.1909 28.4047 32.3998 27.0542C22.3961 22.1824 13.8329 22.4925 7.31048 33.1164C6.93033 33.7066 6.52018 34.4269 6.16005 34.9871C6.00737 35.2454 5.96167 35.5532 6.03269 35.8447C6.1037 36.1363 6.28582 36.3885 6.54019 36.5477L14.003 41.1294C14.2618 41.2892 14.5735 41.34 14.8697 41.2707C15.1659 41.2013 15.4226 41.0174 15.5836 40.7593C15.8737 40.2591 16.2638 39.6188 16.684 38.9186C19.6851 34.0468 22.5962 34.647 27.9482 37.1979L35.3409 40.7093C35.4768 40.7734 35.6241 40.81 35.7742 40.817C35.9243 40.8241 36.0743 40.8014 36.2156 40.7502C36.3569 40.6991 36.4867 40.6206 36.5975 40.5191C36.7084 40.4176 36.7981 40.2953 36.8615 40.159L40.4028 32.1561C40.4733 32.0182 40.515 31.8675 40.5253 31.713C40.5357 31.5585 40.5145 31.4036 40.463 31.2576C40.4115 31.1115 40.3309 30.9775 40.2259 30.8637C40.121 30.7499 39.994 30.6586 39.8526 30.5955Z" fill="black"/>
<path d="M41.4732 11.4784L34.0104 6.89666C33.8859 6.81187 33.7457 6.7526 33.5981 6.72229C33.4505 6.69198 33.2984 6.69121 33.1505 6.72005C33.0026 6.74889 32.8618 6.80675 32.7364 6.89029C32.611 6.97383 32.5034 7.0814 32.4198 7.20677C32.417 7.22668 32.417 7.24689 32.4198 7.2668C32.1197 7.76698 31.7396 8.41722 31.3194 9.10748C28.3183 13.9793 25.3972 13.3891 20.0452 10.8281L12.6525 7.33682C12.5167 7.2708 12.3691 7.23241 12.2184 7.22387C12.0676 7.21532 11.9167 7.2368 11.7743 7.28706C11.6319 7.33731 11.5009 7.41534 11.3889 7.51661C11.2769 7.61789 11.1862 7.74039 11.1219 7.87702L7.57057 15.88C7.45199 16.1563 7.44632 16.4681 7.55476 16.7486C7.66321 17.029 7.87715 17.2559 8.15079 17.3806C9.70137 18.1108 12.8025 19.5714 15.5936 20.9219C25.6573 25.7937 34.1905 25.4636 40.7129 14.8596L41.8633 12.9889C42 12.7342 42.0357 12.4373 41.9635 12.1574C41.8912 11.8775 41.7161 11.6351 41.4732 11.4784Z" fill="black"/>
</svg>
