<svg width="48" height="48" viewBox="0 0 48 48" fill="none" xmlns="http://www.w3.org/2000/svg">
<path d="M43.89 24.13L43.51 21.44H41.82C41.264 21.4209 40.7218 21.2616 40.2439 20.9767C39.766 20.6919 39.3678 20.2909 39.0865 19.811C38.8051 19.331 38.6496 18.7877 38.6345 18.2316C38.6194 17.6755 38.7451 17.1245 39 16.63L40.46 13.8L37.11 14C36.4687 13.9987 35.842 13.8083 35.3083 13.4525C34.7747 13.0968 34.3579 12.5915 34.11 12L33.52 10.61L32 10.9C31.5199 11.01 31.0212 11.0101 30.5411 10.9003C30.0609 10.7905 29.6118 10.5737 29.2272 10.266C28.8426 9.95831 28.5325 9.56773 28.32 9.12342C28.1075 8.6791 27.9981 8.19252 28 7.70001C27.9981 7.36166 28.0452 7.02482 28.14 6.70001L28.75 5.00001L26.89 4.42001C25.0006 3.86016 22.9894 3.86016 21.1 4.42001L15.79 6.00001C13.9006 6.5558 12.2104 7.64213 10.92 9.13001L7.30001 13.34C6.00446 14.8348 5.16767 16.6715 4.89001 18.63L4.11001 24.13C3.82273 26.0922 4.10744 28.0956 4.93001 29.9L7.23001 35C8.04678 36.7794 9.35473 38.2886 11 39.35L15.66 42.35C17.3182 43.4267 19.2529 43.9998 21.23 44H26.77C28.7393 43.9989 30.6664 43.4295 32.32 42.36L36.98 39.36C38.6341 38.2988 39.9494 36.7857 40.77 35L43.07 29.94C43.9003 28.1236 44.1852 26.1052 43.89 24.13ZM14 28.43C13.6392 28.434 13.2854 28.3306 12.9835 28.1331C12.6816 27.9355 12.4452 27.6527 12.3044 27.3205C12.1635 26.9883 12.1246 26.6217 12.1926 26.2674C12.2605 25.913 12.4323 25.5869 12.686 25.3303C12.9397 25.0738 13.2639 24.8984 13.6175 24.8266C13.9711 24.7547 14.3381 24.7896 14.6718 24.9267C15.0055 25.0639 15.291 25.2971 15.4918 25.5968C15.6927 25.8965 15.8 26.2492 15.8 26.61C15.8013 26.8477 15.7558 27.0833 15.6661 27.3034C15.5763 27.5235 15.4441 27.7238 15.2769 27.8928C15.1098 28.0618 14.911 28.1962 14.6919 28.2884C14.4728 28.3806 14.2377 28.4287 14 28.43ZM19.19 37.87C18.8296 37.872 18.4768 37.7669 18.1762 37.5682C17.8755 37.3694 17.6407 37.0858 17.5014 36.7535C17.3621 36.4211 17.3247 36.0548 17.3938 35.7011C17.4629 35.3474 17.6354 35.0222 17.8895 34.7667C18.1437 34.5111 18.4679 34.3368 18.8212 34.2657C19.1746 34.1947 19.541 34.2302 19.8742 34.3676C20.2073 34.5051 20.4921 34.7383 20.6926 35.0378C20.893 35.3374 21 35.6896 21 36.05C21.0013 36.2877 20.9558 36.5233 20.8661 36.7434C20.7763 36.9635 20.6441 37.1638 20.4769 37.3328C20.3098 37.5018 20.111 37.6362 19.8919 37.7284C19.6728 37.8206 19.4377 37.8687 19.2 37.87H19.19ZM21.53 15.56C21.1696 15.562 20.8168 15.4569 20.5162 15.2582C20.2155 15.0594 19.9807 14.7758 19.8414 14.4435C19.7021 14.1111 19.6647 13.7448 19.7338 13.3911C19.8029 13.0374 19.9754 12.7122 20.2295 12.4567C20.4837 12.2011 20.8079 12.0268 21.1612 11.9557C21.5146 11.8847 21.881 11.9202 22.2142 12.0576C22.5473 12.1951 22.8321 12.4283 23.0326 12.7278C23.233 13.0274 23.34 13.3796 23.34 13.74C23.34 14.2193 23.151 14.6792 22.814 15.0199C22.477 15.3607 22.0192 15.5547 21.54 15.56H21.53ZM25.15 24.79C24.7901 24.784 24.4401 24.6715 24.1442 24.4666C23.8482 24.2617 23.6197 23.9736 23.4875 23.6388C23.3553 23.304 23.3253 22.9376 23.4013 22.5858C23.4774 22.2339 23.656 21.9126 23.9147 21.6623C24.1734 21.412 24.5005 21.244 24.8546 21.1796C25.2087 21.1152 25.574 21.1573 25.9042 21.3005C26.2345 21.4436 26.5148 21.6815 26.7099 21.984C26.9049 22.2866 27.0059 22.6401 27 23C26.9974 23.2386 26.9477 23.4742 26.8537 23.6935C26.7597 23.9128 26.6232 24.1113 26.4522 24.2776C26.2812 24.444 26.079 24.5749 25.8573 24.6628C25.6355 24.7508 25.3985 24.794 25.16 24.79H25.15ZM30.57 36.52C30.2096 36.522 29.8568 36.4169 29.5562 36.2182C29.2556 36.0194 29.0207 35.7358 28.8814 35.4035C28.7421 35.0711 28.7047 34.7048 28.7738 34.3511C28.8429 33.9974 29.0154 33.6722 29.2695 33.4167C29.5237 33.1611 29.8479 32.9868 30.2013 32.9157C30.5546 32.8447 30.921 32.8802 31.2542 33.0176C31.5873 33.1551 31.8721 33.3883 32.0726 33.6878C32.273 33.9874 32.38 34.3396 32.38 34.7C32.3813 34.9377 32.3358 35.1733 32.2461 35.3934C32.1563 35.6135 32.0241 35.8138 31.857 35.9828C31.6898 36.1518 31.491 36.2862 31.2719 36.3784C31.0528 36.4706 30.8177 36.5187 30.58 36.52H30.57ZM34.84 28.16C34.4796 28.162 34.1268 28.0569 33.8262 27.8582C33.5256 27.6594 33.2907 27.3758 33.1514 27.0435C33.0121 26.7111 32.9747 26.3448 33.0438 25.9911C33.1129 25.6374 33.2854 25.3122 33.5395 25.0567C33.7937 24.8011 34.1179 24.6268 34.4712 24.5557C34.8246 24.4847 35.191 24.5202 35.5242 24.6576C35.8573 24.7951 36.1421 25.0283 36.3426 25.3278C36.543 25.6274 36.65 25.9796 36.65 26.34C36.65 26.8193 36.461 27.2792 36.124 27.6199C35.787 27.9607 35.3292 28.1547 34.85 28.16H34.84Z" fill="black"/>
</svg>
