<svg width="48" height="48" viewBox="0 0 48 48" fill="none" xmlns="http://www.w3.org/2000/svg">
<path d="M26.83 44H21.17C19.2411 43.9971 17.3533 43.4419 15.73 42.4L11 39.32C9.35969 38.2744 8.05995 36.7731 7.25999 35L4.90999 29.84C4.11054 28.0784 3.82957 26.1255 4.09999 24.21L4.90999 18.57C5.18198 16.6542 5.99753 14.8565 7.25999 13.39L11 9.08999C12.2499 7.63015 13.891 6.55803 15.73 5.99999L21.17 4.40999C23.0165 3.85976 24.9834 3.85976 26.83 4.40999L28.28 4.83999L27.87 6.18999C27.7576 6.55613 27.7003 6.93697 27.7 7.31999C27.6986 7.89075 27.8255 8.45452 28.0712 8.96967C28.3169 9.48482 28.6753 9.93817 29.1197 10.2962C29.5642 10.6543 30.0834 10.9079 30.6391 11.0384C31.1947 11.1689 31.7726 11.1728 32.33 11.05L33.46 10.8L33.91 11.87C34.1967 12.5624 34.6822 13.1542 35.3052 13.5707C35.9281 13.9872 36.6606 14.2097 37.41 14.21H37.61L40.05 14.08L38.91 16.25C38.6044 16.8321 38.4539 17.4831 38.4728 18.1403C38.4917 18.7975 38.6795 19.4387 39.018 20.0023C39.3566 20.5659 39.8345 21.0328 40.4058 21.3582C40.9771 21.6835 41.6225 21.8563 42.28 21.86H43.5L43.73 23L43.9 24.17C44.1693 26.0855 43.8884 28.0381 43.09 29.8L40.74 35C39.9342 36.7693 38.6357 38.2691 37 39.32L32.27 42.4C30.6466 43.4419 28.7589 43.9971 26.83 44ZM24 6.78999C23.3057 6.79007 22.6152 6.89113 21.95 7.08999L16.52 8.68999C15.18 9.08724 13.9824 9.86131 13.07 10.92L9.35999 15.22C8.43904 16.2887 7.84843 17.6019 7.65999 19L6.84999 24.6C6.64917 25.9875 6.85046 27.4034 7.42999 28.68L9.78999 33.86C10.365 35.1412 11.295 36.2308 12.47 37L17.24 40.08C18.41 40.8391 19.7753 41.2421 21.17 41.24H26.83C28.2247 41.2421 29.59 40.8391 30.76 40.08L35.53 37C36.7006 36.2389 37.6302 35.1602 38.21 33.89L40.57 28.71C41.1495 27.4334 41.3508 26.0175 41.15 24.63V24.57C39.6115 24.2958 38.22 23.4854 37.2222 22.2827C36.2245 21.08 35.6852 19.5626 35.7 18C35.6964 17.5907 35.7333 17.182 35.81 16.78C34.1555 16.3769 32.7217 15.3482 31.81 13.91C30.9147 13.9562 30.0194 13.8194 29.1789 13.5077C28.3383 13.196 27.5702 12.7161 26.9215 12.0974C26.2728 11.4787 25.7572 10.7341 25.4061 9.90917C25.0551 9.08428 24.8761 8.19645 24.88 7.29999C24.88 7.13999 24.88 6.98999 24.88 6.82999C24.5877 6.79924 24.2939 6.78588 24 6.78999Z" fill="black"/>
<path d="M21.48 16.76C20.8344 16.7639 20.2021 16.5761 19.6634 16.2203C19.1247 15.8645 18.7037 15.3568 18.4539 14.7615C18.2041 14.1661 18.1367 13.51 18.2602 12.8763C18.3837 12.2427 18.6926 11.6599 19.1477 11.202C19.6028 10.7441 20.1837 10.4316 20.8166 10.3042C21.4495 10.1768 22.106 10.2401 22.7029 10.4863C23.2997 10.7324 23.8101 11.1502 24.1692 11.6868C24.5283 12.2233 24.72 12.8544 24.72 13.5C24.7213 13.9268 24.6385 14.3497 24.4764 14.7445C24.3143 15.1393 24.076 15.4983 23.7752 15.801C23.4743 16.1037 23.1168 16.3442 22.7229 16.5088C22.3291 16.6733 21.9068 16.7587 21.48 16.76ZM21.48 13.03C21.3553 13.03 21.2358 13.0795 21.1476 13.1676C21.0595 13.2558 21.01 13.3753 21.01 13.5C21.01 13.6246 21.0595 13.7442 21.1476 13.8323C21.2358 13.9205 21.3553 13.97 21.48 13.97C21.6046 13.97 21.7242 13.9205 21.8123 13.8323C21.9005 13.7442 21.95 13.6246 21.95 13.5C21.95 13.3753 21.9005 13.2558 21.8123 13.1676C21.7242 13.0795 21.6046 13.03 21.48 13.03Z" fill="black"/>
<path d="M25.18 26.21C24.5323 26.2139 23.8981 26.0247 23.3583 25.6667C22.8185 25.3086 22.3977 24.7979 22.1494 24.1997C21.9011 23.6014 21.8367 22.9427 21.9643 22.3077C22.0919 21.6727 22.4058 21.0901 22.8659 20.6342C23.3261 20.1783 23.9116 19.8698 24.5478 19.7481C25.184 19.6264 25.842 19.697 26.4379 19.9508C27.0338 20.2046 27.5406 20.6302 27.8937 21.1733C28.2467 21.7164 28.4299 22.3523 28.42 23C28.4069 23.8524 28.0604 24.6659 27.4548 25.2659C26.8491 25.866 26.0325 26.2049 25.18 26.21ZM25.18 22.49C25.058 22.49 24.941 22.5385 24.8547 22.6247C24.7684 22.711 24.72 22.828 24.72 22.95C24.7102 23.0168 24.7148 23.0849 24.7337 23.1497C24.7526 23.2145 24.7852 23.2745 24.8293 23.3256C24.8734 23.3767 24.928 23.4176 24.9894 23.4457C25.0508 23.4738 25.1175 23.4884 25.185 23.4884C25.2525 23.4884 25.3192 23.4738 25.3806 23.4457C25.442 23.4176 25.4966 23.3767 25.5407 23.3256C25.5848 23.2745 25.6174 23.2145 25.6363 23.1497C25.6551 23.0849 25.6598 23.0168 25.65 22.95C25.65 22.8887 25.6378 22.8281 25.614 22.7716C25.5903 22.7151 25.5555 22.664 25.5117 22.6211C25.468 22.5783 25.4161 22.5446 25.3591 22.5221C25.3021 22.4996 25.2412 22.4887 25.18 22.49Z" fill="black"/>
<path d="M13.77 29.93C13.124 29.9359 12.4908 29.7498 11.9507 29.3952C11.4107 29.0406 10.9882 28.5336 10.7368 27.9385C10.4855 27.3433 10.4166 26.6869 10.539 26.0526C10.6614 25.4182 10.9695 24.8346 11.4242 24.3756C11.8789 23.9167 12.4597 23.6032 13.0929 23.475C13.7261 23.3468 14.3831 23.4095 14.9805 23.6554C15.5779 23.9012 16.0889 24.319 16.4484 24.8558C16.808 25.3925 17 26.024 17 26.67C17 27.5294 16.6607 28.3541 16.0558 28.9646C15.4509 29.5751 14.6294 29.9221 13.77 29.93ZM13.77 26.21C13.6766 26.21 13.5854 26.2378 13.5079 26.2899C13.4304 26.342 13.3701 26.416 13.3349 26.5025C13.2996 26.589 13.2909 26.684 13.3099 26.7754C13.3288 26.8669 13.3746 26.9506 13.4413 27.0159C13.5081 27.0812 13.5928 27.1252 13.6846 27.1421C13.7764 27.1591 13.8712 27.1484 13.9569 27.1113C14.0426 27.0742 14.1153 27.0124 14.1657 26.9338C14.2161 26.8552 14.242 26.7633 14.24 26.67C14.2374 26.5471 14.1867 26.4301 14.0988 26.3441C14.011 26.2581 13.8929 26.21 13.77 26.21Z" fill="black"/>
<path d="M30.73 38.21C30.0835 38.2079 29.4523 38.0137 28.9165 37.652C28.3807 37.2904 27.9645 36.7776 27.7208 36.1788C27.4772 35.58 27.417 34.9223 27.548 34.2893C27.6791 33.6562 27.9953 33.0765 28.4566 32.6236C28.918 32.1707 29.5035 31.8653 30.1389 31.746C30.7742 31.6267 31.4307 31.699 32.0249 31.9537C32.619 32.2084 33.124 32.634 33.4757 33.1765C33.8274 33.7189 34.0099 34.3536 34 35C33.9894 35.8585 33.6396 36.6779 33.027 37.2793C32.4143 37.8808 31.5885 38.2153 30.73 38.21ZM30.73 34.49C30.6692 34.4886 30.6088 34.4996 30.5523 34.5222C30.4959 34.5449 30.4447 34.5787 30.4017 34.6217C30.3587 34.6647 30.3249 34.7159 30.3022 34.7724C30.2796 34.8288 30.2686 34.8892 30.27 34.95C30.2687 35.0112 30.2796 35.0721 30.3021 35.1291C30.3246 35.1861 30.3583 35.238 30.4011 35.2817C30.444 35.3255 30.4951 35.3603 30.5516 35.384C30.6081 35.4078 30.6687 35.42 30.73 35.42C30.8529 35.4174 30.9699 35.3667 31.0559 35.2788C31.1419 35.191 31.19 35.0729 31.19 34.95C31.19 34.828 31.1415 34.711 31.0553 34.6247C30.969 34.5385 30.852 34.49 30.73 34.49Z" fill="black"/>
<path d="M19.09 39.59C18.4444 39.5939 17.8121 39.4061 17.2734 39.0503C16.7347 38.6945 16.3137 38.1868 16.0639 37.5915C15.8141 36.9961 15.7467 36.34 15.8702 35.7063C15.9937 35.0727 16.3026 34.4899 16.7577 34.032C17.2128 33.5741 17.7937 33.2616 18.4266 33.1342C19.0595 33.0068 19.716 33.0701 20.3129 33.3163C20.9097 33.5624 21.4201 33.9802 21.7792 34.5168C22.1383 35.0533 22.33 35.6844 22.33 36.33C22.3313 36.7568 22.2485 37.1797 22.0864 37.5745C21.9243 37.9693 21.686 38.3283 21.3852 38.631C21.0843 38.9337 20.7268 39.1742 20.3329 39.3388C19.9391 39.5033 19.5168 39.5887 19.09 39.59ZM19.09 35.87C18.9962 35.868 18.904 35.8941 18.8252 35.945C18.7464 35.9959 18.6846 36.0692 18.6478 36.1555C18.611 36.2417 18.6008 36.3371 18.6186 36.4291C18.6365 36.5212 18.6814 36.6059 18.7478 36.6722C18.8141 36.7386 18.8987 36.7835 18.9908 36.8013C19.0829 36.8191 19.1782 36.809 19.2645 36.7722C19.3508 36.7354 19.4241 36.6736 19.475 36.5948C19.5258 36.516 19.552 36.4238 19.55 36.33C19.5474 36.2088 19.4982 36.0933 19.4124 36.0075C19.3267 35.9218 19.2112 35.8725 19.09 35.87Z" fill="black"/>
<path d="M35.1 29.65C34.4544 29.6539 33.8221 29.4661 33.2834 29.1103C32.7447 28.7545 32.3237 28.2468 32.0739 27.6515C31.8241 27.0561 31.7567 26.4 31.8802 25.7663C32.0037 25.1327 32.3126 24.5499 32.7677 24.092C33.2228 23.6341 33.8037 23.3216 34.4366 23.1942C35.0695 23.0668 35.726 23.1301 36.3229 23.3763C36.9197 23.6224 37.43 24.0402 37.7892 24.5768C38.1483 25.1133 38.34 25.7444 38.34 26.39C38.34 27.2511 37.9993 28.0773 37.3922 28.6881C36.7852 29.2989 35.9611 29.6447 35.1 29.65ZM35.1 25.93C35.0066 25.93 34.9153 25.9578 34.8379 26.0099C34.7604 26.062 34.7001 26.136 34.6649 26.2225C34.6296 26.309 34.6209 26.404 34.6399 26.4954C34.6588 26.5869 34.7046 26.6706 34.7713 26.7359C34.8381 26.8012 34.9228 26.8452 35.0146 26.8621C35.1064 26.8791 35.2012 26.8684 35.2869 26.8313C35.3726 26.7942 35.4453 26.7324 35.4957 26.6538C35.5461 26.5752 35.572 26.4833 35.57 26.39C35.5674 26.2671 35.5167 26.1501 35.4288 26.0641C35.341 25.9781 35.2229 25.93 35.1 25.93Z" fill="black"/>
</svg>
