<svg width="48" height="48" viewBox="0 0 48 48" fill="none" xmlns="http://www.w3.org/2000/svg">
<path d="M35.61 4H16.49C15.75 4 15.0404 4.29395 14.5172 4.81717C13.9939 5.3404 13.7 6.05005 13.7 6.79V7.3H16.49V6.79H35.61V36.51H35.1V39.3H35.61C36.35 39.3 37.0596 39.0061 37.5828 38.4828C38.1061 37.9596 38.4 37.25 38.4 36.51V6.79C38.4 6.42361 38.3278 6.06081 38.1876 5.72231C38.0474 5.38381 37.8419 5.07625 37.5828 4.81717C37.3238 4.5581 37.0162 4.35259 36.6777 4.21238C36.3392 4.07217 35.9764 4 35.61 4Z" fill="black"/>
<path d="M30.91 44H11.79C11.05 44 10.3404 43.7061 9.81717 43.1828C9.29395 42.6596 9 41.95 9 41.21V11.49C9 10.75 9.29395 10.0404 9.81717 9.51717C10.3404 8.99395 11.05 8.7 11.79 8.7H30.91C31.65 8.7 32.3596 8.99395 32.8828 9.51717C33.4061 10.0404 33.7 10.75 33.7 11.49V41.21C33.7 41.95 33.4061 42.6596 32.8828 43.1828C32.3596 43.7061 31.65 44 30.91 44ZM11.79 11.49V41.21H30.91V11.49H11.79Z" fill="black"/>
</svg>
