<svg width="48" height="48" viewBox="0 0 48 48" fill="none" xmlns="http://www.w3.org/2000/svg">
<path d="M35.46 4H16.77C15.9999 4.00326 15.2572 4.28584 14.6798 4.79527C14.1023 5.30469 13.7293 6.00636 13.63 6.77H30.87C32.1961 6.77 33.4679 7.29678 34.4055 8.23447C35.3432 9.17215 35.87 10.4439 35.87 11.77V39.37C36.6336 39.2707 37.3353 38.8977 37.8447 38.3202C38.3542 37.7428 38.6367 37.0001 38.64 36.23V7.23C38.6453 6.80857 38.567 6.39027 38.4097 5.99927C38.2524 5.60826 38.0191 5.25231 37.7234 4.95198C37.4278 4.65164 37.0755 4.41288 36.687 4.24948C36.2985 4.08608 35.8815 4.00129 35.46 4Z" fill="black"/>
<path d="M30.87 8.59H12.18C10.4237 8.59 9 10.0137 9 11.77V40.82C9 42.5763 10.4237 44 12.18 44H30.87C32.6263 44 34.05 42.5763 34.05 40.82V11.77C34.05 10.0137 32.6263 8.59 30.87 8.59Z" fill="black"/>
</svg>
