<svg width="48" height="48" viewBox="0 0 48 48" fill="none" xmlns="http://www.w3.org/2000/svg">
<path d="M44 15.84V11.18C43.9974 10.3374 43.6615 9.53011 43.0657 8.93431C42.4699 8.33852 41.6626 8.00264 40.82 8H7.18C6.33742 8.00264 5.53011 8.33852 4.93431 8.93431C4.33852 9.53011 4.00264 10.3374 4 11.18V15.84H44Z" fill="black"/>
<path d="M4 20.76V37.55C4.00264 38.3926 4.33852 39.1999 4.93431 39.7957C5.53011 40.3915 6.33742 40.7274 7.18 40.73H40.82C41.6626 40.7274 42.4699 40.3915 43.0657 39.7957C43.6615 39.1999 43.9974 38.3926 44 37.55V20.76H4ZM17.06 33.34C17.06 33.4355 17.0221 33.527 16.9546 33.5946C16.887 33.6621 16.7955 33.7 16.7 33.7H14.21C14.1145 33.7 14.023 33.6621 13.9554 33.5946C13.8879 33.527 13.85 33.4355 13.85 33.34V30.85C13.85 30.7545 13.8879 30.663 13.9554 30.5954C14.023 30.5279 14.1145 30.49 14.21 30.49H16.7C16.7955 30.49 16.887 30.5279 16.9546 30.5954C17.0221 30.663 17.06 30.7545 17.06 30.85V33.34ZM34.15 33.34C34.15 33.4355 34.1121 33.527 34.0446 33.5946C33.977 33.6621 33.8855 33.7 33.79 33.7H21.06C20.9645 33.7 20.873 33.6621 20.8054 33.5946C20.7379 33.527 20.7 33.4355 20.7 33.34V30.85C20.7 30.7545 20.7379 30.663 20.8054 30.5954C20.873 30.5279 20.9645 30.49 21.06 30.49H33.79C33.8855 30.49 33.977 30.5279 34.0446 30.5954C34.1121 30.663 34.15 30.7545 34.15 30.85V33.34Z" fill="black"/>
</svg>
