<svg width="48" height="48" viewBox="0 0 48 48" fill="none" xmlns="http://www.w3.org/2000/svg">
<path d="M41.21 8H6.79C6.05005 8 5.3404 8.29395 4.81717 8.81717C4.29395 9.3404 4 10.05 4 10.79V37.79C4 38.53 4.29395 39.2396 4.81717 39.7628C5.3404 40.2861 6.05005 40.58 6.79 40.58H41.21C41.5781 40.58 41.9425 40.5072 42.2823 40.3657C42.6221 40.2243 42.9306 40.017 43.1899 39.7558C43.4493 39.4946 43.6544 39.1846 43.7934 38.8438C43.9324 38.503 44.0026 38.1381 44 37.77V10.77C43.9947 10.0335 43.6984 9.329 43.1758 8.81009C42.6531 8.29118 41.9465 7.99998 41.21 8ZM6.79 17H41.21V19.24H6.79V17ZM41.21 37.77H6.79V22H41.21V37.77ZM6.79 14.16V10.79H41.21V14.16H6.79Z" fill="black"/>
<path d="M16.53 35.23H14C13.768 35.23 13.5383 35.1842 13.3242 35.0951C13.11 35.006 12.9155 34.8755 12.7519 34.711C12.5884 34.5465 12.4589 34.3513 12.3711 34.1366C12.2832 33.9219 12.2387 33.692 12.24 33.46V30.92C12.2387 30.688 12.2832 30.4581 12.3711 30.2434C12.4589 30.0287 12.5884 29.8335 12.7519 29.669C12.9155 29.5045 13.11 29.374 13.3242 29.2849C13.5383 29.1958 13.768 29.15 14 29.15H16.55C17.0194 29.15 17.4696 29.3365 17.8016 29.6684C18.1335 30.0004 18.32 30.4506 18.32 30.92V33.46C18.32 33.6941 18.2736 33.9259 18.1834 34.142C18.0932 34.3581 17.961 34.5541 17.7945 34.7187C17.628 34.8833 17.4306 35.0133 17.2135 35.1011C16.9964 35.1888 16.7641 35.2326 16.53 35.23ZM15 32.44H15.5V31.94H15V32.44Z" fill="black"/>
<path d="M34 35.23H21C20.768 35.23 20.5383 35.1842 20.3242 35.0951C20.11 35.006 19.9155 34.8755 19.7519 34.711C19.5884 34.5465 19.4589 34.3513 19.3711 34.1366C19.2832 33.9219 19.2387 33.692 19.24 33.46V30.92C19.2387 30.688 19.2832 30.4581 19.3711 30.2434C19.4589 30.0287 19.5884 29.8335 19.7519 29.669C19.9155 29.5045 20.11 29.374 20.3242 29.2849C20.5383 29.1958 20.768 29.15 21 29.15H34C34.4694 29.15 34.9196 29.3365 35.2516 29.6684C35.5835 30.0004 35.77 30.4506 35.77 30.92V33.46C35.77 33.6924 35.7242 33.9226 35.6353 34.1374C35.5463 34.3521 35.4159 34.5472 35.2516 34.7116C35.0872 34.8759 34.8921 35.0063 34.6773 35.0953C34.4626 35.1842 34.2324 35.23 34 35.23ZM22 32.44H33V31.94H22V32.44Z" fill="black"/>
</svg>
