<svg width="48" height="48" viewBox="0 0 48 48" fill="none" xmlns="http://www.w3.org/2000/svg">
<path d="M40.7201 34.4928H37.2795V13.5072C37.2795 12.7681 36.9859 12.0593 36.4633 11.5367C35.9407 11.0141 35.2319 10.7205 34.4928 10.7205H13.5072V7.27987C13.4775 6.93077 13.3178 6.60554 13.0598 6.36853C12.8018 6.13152 12.4642 6 12.1138 6C11.7635 6 11.4259 6.13152 11.1678 6.36853C10.9098 6.60554 10.7502 6.93077 10.7205 7.27987V10.7205H7.27987C6.93077 10.7502 6.60554 10.9098 6.36853 11.1678C6.13152 11.4259 6 11.7635 6 12.1138C6 12.4642 6.13152 12.8018 6.36853 13.0598C6.60554 13.3178 6.93077 13.4775 7.27987 13.5072H10.7205V34.4928C10.7205 35.2319 11.0141 35.9407 11.5367 36.4633C12.0593 36.9859 12.7681 37.2795 13.5072 37.2795H34.4928V40.7201C34.5225 41.0692 34.6822 41.3945 34.9402 41.6315C35.1982 41.8685 35.5358 42 35.8862 42C36.2365 42 36.5741 41.8685 36.8322 41.6315C37.0902 41.3945 37.2498 41.0692 37.2795 40.7201V37.2795H40.7201C41.0692 37.2498 41.3945 37.0902 41.6315 36.8322C41.8685 36.5741 42 36.2365 42 35.8862C42 35.5358 41.8685 35.1982 41.6315 34.9402C41.3945 34.6822 41.0692 34.5225 40.7201 34.4928ZM13.5575 34.4928V13.5072H34.4928V34.4928H13.5575Z" fill="black"/>
</svg>
