<svg width="48" height="48" viewBox="0 0 48 48" fill="none" xmlns="http://www.w3.org/2000/svg">
<path d="M39.5704 32.3597H37.6724V14.1937C37.6698 13.1692 37.2616 12.1873 36.5371 11.4629C35.8127 10.7384 34.8308 10.3302 33.8063 10.3276H15.6403V8.42961C15.5993 7.77167 15.309 7.1541 14.8286 6.7027C14.3482 6.25129 13.7137 6 13.0545 6C12.3953 6 11.7608 6.25129 11.2804 6.7027C10.8 7.1541 10.5097 7.77167 10.4687 8.42961V10.3276H8.58079C7.89632 10.3276 7.23989 10.5995 6.7559 11.0834C6.2719 11.5674 6 12.2239 6 12.9083C6 13.5928 6.2719 14.2492 6.7559 14.7332C7.23989 15.2172 7.89632 15.4891 8.58079 15.4891H10.4687V33.6551C10.4687 34.6831 10.8771 35.6691 11.604 36.396C12.3309 37.1229 13.3169 37.5313 14.3449 37.5313H32.5109V39.4192C32.5109 40.1037 32.7828 40.7601 33.2668 41.2441C33.7508 41.7281 34.4072 42 35.0917 42C35.7761 42 36.4326 41.7281 36.9166 41.2441C37.4005 40.7601 37.6724 40.1037 37.6724 39.4192V37.5313H39.5704C40.2283 37.4903 40.8459 37.2 41.2973 36.7196C41.7487 36.2392 42 35.6047 42 34.9455C42 34.2863 41.7487 33.6518 41.2973 33.1714C40.8459 32.691 40.2283 32.4007 39.5704 32.3597ZM15.6403 32.3597V15.4891H32.5109V32.3597H15.6403Z" fill="black"/>
</svg>
