<svg width="48" height="48" viewBox="0 0 48 48" fill="none" xmlns="http://www.w3.org/2000/svg">
<path d="M28 40.28C27.6576 40.2875 27.3244 40.1682 27.0645 39.9452C26.8046 39.7221 26.6362 39.411 26.5916 39.0714C26.5469 38.7318 26.6293 38.3877 26.8228 38.1051C27.0162 37.8225 27.3073 37.6212 27.64 37.54C30.0147 36.9 32.1798 35.6479 33.9189 33.9089C35.6579 32.1698 36.91 30.0047 37.55 27.63C37.6634 27.2926 37.901 27.0111 38.2145 26.8426C38.528 26.6742 38.8939 26.6314 39.2378 26.7232C39.5817 26.8149 39.8778 27.0341 40.0658 27.3363C40.2538 27.6385 40.3197 28.001 40.25 28.35C39.4829 31.2011 37.9796 33.8005 35.891 35.8873C33.8024 37.9742 31.2018 39.4753 28.35 40.24C28.2354 40.2673 28.1178 40.2807 28 40.28Z" fill="black"/>
<path d="M38.89 21.41C38.5875 21.4102 38.2929 21.3131 38.0498 21.133C37.8067 20.9529 37.628 20.6995 37.54 20.41C36.9015 18.0166 35.6395 15.8355 33.8827 14.0892C32.1259 12.3429 29.9372 11.094 27.54 10.47C27.3627 10.424 27.1962 10.3436 27.05 10.2333C26.9038 10.123 26.7808 9.98497 26.6879 9.82711C26.5951 9.66925 26.5342 9.49464 26.5088 9.31326C26.4834 9.13189 26.494 8.94728 26.54 8.77C26.586 8.59271 26.6664 8.42622 26.7767 8.28002C26.887 8.13382 27.025 8.01078 27.1829 7.91792C27.3408 7.82506 27.5154 7.7642 27.6967 7.73882C27.8781 7.71344 28.0627 7.72404 28.24 7.77C31.1152 8.51911 33.7405 10.0169 35.8484 12.1108C37.9564 14.2047 39.4717 16.8199 40.24 19.69C40.2867 19.8679 40.2979 20.0533 40.2729 20.2356C40.2479 20.4179 40.1873 20.5934 40.0944 20.7523C40.0015 20.9111 39.8783 21.05 39.7317 21.1612C39.5851 21.2723 39.418 21.3535 39.24 21.4C39.1241 21.4171 39.0067 21.4204 38.89 21.41Z" fill="black"/>
<path d="M9.11 21.41C8.98841 21.4081 8.86751 21.3913 8.75 21.36C8.57201 21.3135 8.40493 21.2323 8.25833 21.1212C8.11172 21.01 7.98846 20.8711 7.89558 20.7123C7.80271 20.5534 7.74205 20.3779 7.71707 20.1956C7.69209 20.0133 7.70328 19.8279 7.75 19.65C8.51712 16.7989 10.0204 14.1995 12.109 12.1127C14.1976 10.0258 16.7982 8.52472 19.65 7.76C19.999 7.69031 20.3615 7.75617 20.6637 7.94419C20.9659 8.13221 21.1851 8.42827 21.2768 8.77217C21.3686 9.11607 21.3258 9.48199 21.1574 9.79552C20.9889 10.109 20.7074 10.3466 20.37 10.46C17.9953 11.1 15.8302 12.3521 14.0911 14.0911C12.3521 15.8302 11.1 17.9953 10.46 20.37C10.3793 20.6669 10.2036 20.9293 9.95989 21.117C9.71615 21.3048 9.41767 21.4077 9.11 21.41Z" fill="black"/>
<path d="M20.13 40.32C20.0138 40.3345 19.8962 40.3345 19.78 40.32C16.9048 39.5709 14.2795 38.0731 12.1716 35.9792C10.0636 33.8853 8.54832 31.2701 7.78 28.4C7.71906 28.2186 7.69595 28.0267 7.71209 27.836C7.72823 27.6454 7.78328 27.4601 7.87383 27.2915C7.96439 27.123 8.08854 26.9748 8.23861 26.8561C8.38868 26.7374 8.56149 26.6507 8.74637 26.6014C8.93125 26.5521 9.12427 26.5412 9.31351 26.5694C9.50276 26.5976 9.68421 26.6643 9.84667 26.7654C10.0091 26.8665 10.1492 26.9998 10.2581 27.1571C10.367 27.3144 10.4425 27.4924 10.48 27.68C11.1185 30.0734 12.3805 32.2545 14.1373 34.0008C15.8941 35.7471 18.0828 36.996 20.48 37.62C20.8052 37.7092 21.0873 37.9127 21.2744 38.1933C21.4615 38.4738 21.5411 38.8124 21.4985 39.1469C21.4559 39.4814 21.2941 39.7893 21.0427 40.014C20.7912 40.2387 20.4672 40.3651 20.13 40.37V40.32Z" fill="black"/>
<path d="M24 13.18C23.6287 13.18 23.2726 13.0325 23.01 12.7699C22.7475 12.5074 22.6 12.1513 22.6 11.78V5.4C22.6 5.0287 22.7475 4.6726 23.01 4.41005C23.2726 4.1475 23.6287 4 24 4C24.3713 4 24.7274 4.1475 24.99 4.41005C25.2525 4.6726 25.4 5.0287 25.4 5.4V11.78C25.4 11.9639 25.3638 12.1459 25.2934 12.3158C25.2231 12.4856 25.12 12.6399 24.99 12.7699C24.8599 12.9 24.7056 13.0031 24.5358 13.0734C24.3659 13.1438 24.1839 13.18 24 13.18Z" fill="black"/>
<path d="M24 44C23.6287 44 23.2726 43.8525 23.01 43.59C22.7475 43.3274 22.6 42.9713 22.6 42.6V36.22C22.6 35.8487 22.7475 35.4926 23.01 35.2301C23.2726 34.9675 23.6287 34.82 24 34.82C24.3713 34.82 24.7274 34.9675 24.99 35.2301C25.2525 35.4926 25.4 35.8487 25.4 36.22V42.6C25.4 42.7838 25.3638 42.9659 25.2934 43.1358C25.2231 43.3056 25.12 43.4599 24.99 43.59C24.8599 43.72 24.7056 43.8231 24.5358 43.8934C24.3659 43.9638 24.1839 44 24 44Z" fill="black"/>
<path d="M11.78 25.4H5.4C5.0287 25.4 4.6726 25.2525 4.41005 24.99C4.1475 24.7274 4 24.3713 4 24C4 23.6287 4.1475 23.2726 4.41005 23.01C4.6726 22.7475 5.0287 22.6 5.4 22.6H11.78C12.1513 22.6 12.5074 22.7475 12.7699 23.01C13.0325 23.2726 13.18 23.6287 13.18 24C13.18 24.3713 13.0325 24.7274 12.7699 24.99C12.5074 25.2525 12.1513 25.4 11.78 25.4Z" fill="black"/>
<path d="M42.6 25.4H36.22C35.8487 25.4 35.4926 25.2525 35.2301 24.99C34.9675 24.7274 34.82 24.3713 34.82 24C34.82 23.6287 34.9675 23.2726 35.2301 23.01C35.4926 22.7475 35.8487 22.6 36.22 22.6H42.6C42.9713 22.6 43.3274 22.7475 43.59 23.01C43.8525 23.2726 44 23.6287 44 24C44 24.3713 43.8525 24.7274 43.59 24.99C43.3274 25.2525 42.9713 25.4 42.6 25.4Z" fill="black"/>
</svg>
