<svg width="48" height="48" viewBox="0 0 48 48" fill="none" xmlns="http://www.w3.org/2000/svg">
<path d="M31.0095 39.2336C30.4329 39.2313 29.8732 39.038 29.4181 38.6838C28.963 38.3297 28.6381 37.8347 28.4942 37.2763C28.3504 36.7179 28.3956 36.1275 28.6229 35.5976C28.8502 35.0676 29.2467 34.6279 29.7505 34.3472C31.7137 33.2648 33.3287 31.6463 34.407 29.6807C34.5618 29.3634 34.7795 29.0808 35.0468 28.8502C35.3141 28.6195 35.6255 28.4454 35.962 28.3386C36.2986 28.2318 36.6533 28.1945 37.0047 28.2289C37.3561 28.2632 37.6969 28.3686 38.0064 28.5386C38.3158 28.7086 38.5876 28.9396 38.8051 29.2177C39.0226 29.4958 39.1814 29.8152 39.2719 30.1565C39.3623 30.4978 39.3825 30.854 39.3312 31.2033C39.2799 31.5526 39.1583 31.8879 38.9736 32.1889C37.4233 35.0223 35.0974 37.3552 32.2686 38.9138C31.8829 39.1257 31.4496 39.2358 31.0095 39.2336Z" fill="black"/>
<path d="M36.6253 19.6782C36.1595 19.6783 35.7023 19.5531 35.3014 19.3158C34.9006 19.0784 34.571 18.7377 34.347 18.3293C33.2689 16.3721 31.6577 14.7609 29.7005 13.6827C29.3928 13.5217 29.1203 13.3009 28.8991 13.0332C28.6778 12.7655 28.5123 12.4562 28.4122 12.1237C28.312 11.7911 28.2794 11.4419 28.316 11.0965C28.3527 10.7512 28.4579 10.4166 28.6257 10.1125C28.7934 9.80835 29.0201 9.54078 29.2926 9.32546C29.5651 9.11015 29.8779 8.95143 30.2126 8.85863C30.5473 8.76583 30.8971 8.7408 31.2416 8.78503C31.5861 8.82925 31.9182 8.94183 32.2186 9.11616C35.036 10.6697 37.3542 12.9915 38.9036 15.8111C39.1223 16.2078 39.2339 16.6546 39.2274 17.1075C39.2209 17.5604 39.0966 18.0038 38.8667 18.3941C38.6367 18.7843 38.3092 19.108 37.9161 19.3331C37.5231 19.5583 37.0783 19.6773 36.6253 19.6782Z" fill="black"/>
<path d="M11.4042 19.6782C10.9642 19.6804 10.5309 19.5704 10.1452 19.3585C9.54664 19.0164 9.10646 18.4529 8.91955 17.7893C8.73263 17.1258 8.81393 16.4153 9.14593 15.8111C10.6995 12.9938 13.0212 10.6755 15.8409 9.12616C16.4451 8.79223 17.1573 8.71202 17.8207 8.90316C18.4841 9.09431 19.0443 9.54115 19.3783 10.1454C19.7122 10.7496 19.7924 11.4618 19.6012 12.1252C19.4101 12.7885 18.9633 13.3488 18.359 13.6827C16.4018 14.7609 14.7906 16.3721 13.7125 18.3293C13.4861 18.7422 13.1518 19.0858 12.7452 19.3234C12.3386 19.5611 11.8751 19.6837 11.4042 19.6782Z" fill="black"/>
<path d="M17.07 39.2336C16.6299 39.2358 16.1966 39.1257 15.8109 38.9138C12.9854 37.3507 10.6606 35.019 9.10596 32.1889C8.92125 31.8879 8.79957 31.5526 8.74829 31.2033C8.69701 30.854 8.7172 30.4978 8.80764 30.1565C8.89807 29.8152 9.05687 29.4958 9.27441 29.2177C9.49194 28.9396 9.76368 28.7086 10.0732 28.5386C10.3826 28.3686 10.7234 28.2632 11.0748 28.2289C11.4262 28.1945 11.781 28.2318 12.1175 28.3386C12.4541 28.4454 12.7654 28.6195 13.0327 28.8502C13.3 29.0808 13.5177 29.3634 13.6725 29.6807C14.7508 31.6463 16.3658 33.2648 18.329 34.3472C18.8328 34.6279 19.2293 35.0676 19.4566 35.5976C19.6839 36.1275 19.7291 36.7179 19.5853 37.2763C19.4414 37.8347 19.1165 38.3297 18.6614 38.6838C18.2063 39.038 17.6466 39.2313 17.07 39.2336Z" fill="black"/>
<path d="M24.0148 15.2116C23.3231 15.2116 22.6597 14.9368 22.1706 14.4477C21.6815 13.9586 21.4067 13.2952 21.4067 12.6035V6.60804C21.4067 5.91635 21.6815 5.25298 22.1706 4.76388C22.6597 4.27478 23.3231 4 24.0148 4C24.7065 4 25.3698 4.27478 25.8589 4.76388C26.348 5.25298 26.6228 5.91635 26.6228 6.60804V12.6035C26.6228 13.2952 26.348 13.9586 25.8589 14.4477C25.3698 14.9368 24.7065 15.2116 24.0148 15.2116Z" fill="black"/>
<path d="M24.0148 44C23.3231 44 22.6597 43.7252 22.1706 43.2361C21.6815 42.747 21.4067 42.0837 21.4067 41.392V35.3965C21.4067 34.7048 21.6815 34.0414 22.1706 33.5523C22.6597 33.0632 23.3231 32.7884 24.0148 32.7884C24.7065 32.7884 25.3698 33.0632 25.8589 33.5523C26.348 34.0414 26.6228 34.7048 26.6228 35.3965V41.392C26.6228 42.0837 26.348 42.747 25.8589 43.2361C25.3698 43.7252 24.7065 44 24.0148 44Z" fill="black"/>
<path d="M12.6033 26.623H6.60783C5.91613 26.623 5.25277 26.3483 4.76366 25.8592C4.27456 25.3701 3.99979 24.7067 3.99979 24.015C3.99979 23.3233 4.27456 22.6599 4.76366 22.1708C5.25277 21.6817 5.91613 21.4069 6.60783 21.4069H12.6033C13.295 21.4069 13.9584 21.6817 14.4475 22.1708C14.9366 22.6599 15.2114 23.3233 15.2114 24.015C15.2114 24.7067 14.9366 25.3701 14.4475 25.8592C13.9584 26.3483 13.295 26.623 12.6033 26.623Z" fill="black"/>
<path d="M41.3917 26.623H35.3962C34.7045 26.623 34.0412 26.3483 33.5521 25.8592C33.063 25.3701 32.7882 24.7067 32.7882 24.015C32.7882 23.3233 33.063 22.6599 33.5521 22.1708C34.0412 21.6817 34.7045 21.4069 35.3962 21.4069H41.3917C42.0834 21.4069 42.7468 21.6817 43.2359 22.1708C43.725 22.6599 43.9998 23.3233 43.9998 24.015C43.9998 24.7067 43.725 25.3701 43.2359 25.8592C42.7468 26.3483 42.0834 26.623 41.3917 26.623Z" fill="black"/>
</svg>
