<svg width="48" height="48" viewBox="0 0 48 48" fill="none" xmlns="http://www.w3.org/2000/svg">
<path fill-rule="evenodd" clip-rule="evenodd" d="M16.5 4H20.83V5.8H18.3V7.59H20.83V9.39H16.5V4ZM21.66 4H25.95V5.56H23.45V5.87H25.95V9.47H21.66V7.83H24.16V7.52H21.66V4ZM26.83 4H31.13V5.56H28.63V5.87H31.13V9.47H26.83V7.83H29.33V7.52H26.83V4ZM9.82999 11.86H38.17L35.59 40.78L23.98 44L12.41 40.79L9.82999 11.86ZM15.1 17.77L15.43 21.32H28.99L28.66 25H15.74L16.06 28.55H28.36L27.94 33.15L23.99 34.22L19.99 33.16L19.83 30.28H16.22L16.72 35.85L23.98 37.85L31.24 35.85L31.29 35.25L32.13 25.91L32.21 24.91L32.83 17.77H15.1Z" fill="black"/>
</svg>
