<svg width="48" height="48" viewBox="0 0 48 48" fill="none" xmlns="http://www.w3.org/2000/svg">
<path d="M19.0799 38.78H16.9999C16.7693 38.7774 16.5414 38.7292 16.3294 38.6382C16.1174 38.5472 15.9255 38.4152 15.7647 38.2498C15.604 38.0844 15.4775 37.8888 15.3926 37.6743C15.3076 37.4598 15.266 37.2307 15.2699 37V27C15.2608 25.9348 14.9487 24.8943 14.3699 24C14.9597 23.0886 15.2723 22.0256 15.2699 20.94V11C15.266 10.7693 15.3076 10.5402 15.3926 10.3257C15.4775 10.1112 15.604 9.91563 15.7647 9.7502C15.9255 9.58478 16.1174 9.45277 16.3294 9.36178C16.5414 9.27079 16.7693 9.2226 16.9999 9.22H19.0599C19.7522 9.22 20.416 8.94502 20.9055 8.45555C21.395 7.96608 21.6699 7.30221 21.6699 6.61C21.6699 5.91778 21.395 5.25392 20.9055 4.76445C20.416 4.27498 19.7522 4 19.0599 4H16.9999C15.1434 4 13.3629 4.7375 12.0502 6.05025C10.7374 7.36301 9.99994 9.14348 9.99994 11V21C9.99994 21.1193 9.95253 21.2338 9.86814 21.3182C9.78375 21.4026 9.66929 21.45 9.54994 21.45C8.85773 21.45 8.19386 21.725 7.70439 22.2145C7.21492 22.7039 6.93994 23.3678 6.93994 24.06C6.93994 24.7522 7.21492 25.4161 7.70439 25.9055C8.19386 26.395 8.85773 26.67 9.54994 26.67C9.66929 26.67 9.78375 26.7174 9.86814 26.8018C9.95253 26.8862 9.99994 27.0007 9.99994 27.12V37C9.99994 38.8565 10.7374 40.637 12.0502 41.9497C13.3629 43.2625 15.1434 44 16.9999 44H19.0599C19.7522 44 20.416 43.725 20.9055 43.2355C21.395 42.7461 21.6699 42.0822 21.6699 41.39C21.6699 40.6978 21.395 40.0339 20.9055 39.5445C20.416 39.055 19.7522 38.78 19.0599 38.78H19.0799Z" fill="black"/>
<path d="M37.4299 21.39C37.3123 21.3874 37.2004 21.3388 37.1182 21.2547C37.0359 21.1706 36.9899 21.0576 36.9899 20.94V11C36.9899 9.14348 36.2524 7.36301 34.9397 6.05025C33.6269 4.7375 31.8465 4 29.9899 4H27.9999C27.3077 4 26.6439 4.27498 26.1544 4.76445C25.6649 5.25392 25.3899 5.91778 25.3899 6.61C25.3899 7.30221 25.6649 7.96608 26.1544 8.45555C26.6439 8.94502 27.3077 9.22 27.9999 9.22H29.9999C30.234 9.21729 30.4662 9.26156 30.6828 9.35018C30.8994 9.4388 31.0961 9.56997 31.2611 9.73594C31.4262 9.9019 31.5562 10.0993 31.6436 10.3164C31.731 10.5335 31.774 10.766 31.7699 11V21C31.7676 22.0856 32.0802 23.1486 32.6699 24.06C32.0802 24.9714 31.7676 26.0344 31.7699 27.12V37C31.774 37.234 31.731 37.4665 31.6436 37.6836C31.5562 37.9007 31.4262 38.0981 31.2611 38.2641C31.0961 38.43 30.8994 38.5612 30.6828 38.6498C30.4662 38.7384 30.234 38.7827 29.9999 38.78H27.9999C27.3077 38.78 26.6439 39.055 26.1544 39.5445C25.6649 40.0339 25.3899 40.6978 25.3899 41.39C25.3899 42.0822 25.6649 42.7461 26.1544 43.2355C26.6439 43.725 27.3077 44 27.9999 44H29.9999C31.8565 44 33.6369 43.2625 34.9497 41.9497C36.2624 40.637 36.9999 38.8565 36.9999 37V27C36.9999 26.8824 37.0459 26.7694 37.1282 26.6853C37.2104 26.6012 37.3223 26.5526 37.4399 26.55C38.1322 26.55 38.796 26.275 39.2855 25.7855C39.775 25.2961 40.0499 24.6322 40.0499 23.94C40.0499 23.2478 39.775 22.5839 39.2855 22.0945C38.796 21.605 38.1322 21.33 37.4399 21.33L37.4299 21.39Z" fill="black"/>
</svg>
