<svg width="48" height="48" viewBox="0 0 48 48" fill="none" xmlns="http://www.w3.org/2000/svg">
<path d="M19.2561 41.2057H17.0667C16.1996 41.2057 15.3681 40.8613 14.755 40.2482C14.1419 39.6351 13.7975 38.8036 13.7975 37.9365V27.2692C13.7959 26.0442 13.3109 24.8693 12.4478 24C13.3109 23.1307 13.7959 21.9558 13.7975 20.7308V10.0635C13.7975 9.19644 14.1419 8.36491 14.755 7.75182C15.3681 7.13873 16.1996 6.7943 17.0667 6.7943H19.2561C19.4492 6.81066 19.6436 6.78676 19.8269 6.7241C20.0103 6.66144 20.1786 6.56139 20.3213 6.43029C20.464 6.29919 20.5779 6.13989 20.6558 5.96248C20.7337 5.78507 20.774 5.59342 20.774 5.39965C20.774 5.20588 20.7337 5.01423 20.6558 4.83682C20.5779 4.65941 20.464 4.50011 20.3213 4.36901C20.1786 4.23791 20.0103 4.13786 19.8269 4.0752C19.6436 4.01254 19.4492 3.98864 19.2561 4.005H17.0667C15.4607 4.00764 13.9212 4.64679 12.7856 5.78241C11.65 6.91802 11.0108 8.45749 11.0082 10.0635V20.7308C11.0082 21.2266 10.8112 21.7022 10.4606 22.0528C10.11 22.4034 9.63449 22.6004 9.13866 22.6004C8.76745 22.6004 8.41145 22.7478 8.14896 23.0103C7.88648 23.2728 7.73901 23.6288 7.73901 24C7.73901 24.3712 7.88648 24.7272 8.14896 24.9897C8.41145 25.2522 8.76745 25.3997 9.13866 25.3997C9.63449 25.3997 10.11 25.5966 10.4606 25.9472C10.8112 26.2978 11.0082 26.7734 11.0082 27.2692V37.9365C11.0108 39.5425 11.65 41.082 12.7856 42.2176C13.9212 43.3532 15.4607 43.9924 17.0667 43.995H19.2561C19.4492 44.0114 19.6436 43.9875 19.8269 43.9248C20.0103 43.8621 20.1786 43.7621 20.3213 43.631C20.464 43.4999 20.5779 43.3406 20.6558 43.1632C20.7337 42.9858 20.774 42.7941 20.774 42.6003C20.774 42.4066 20.7337 42.2149 20.6558 42.0375C20.5779 41.8601 20.464 41.7008 20.3213 41.5697C20.1786 41.4386 20.0103 41.3386 19.8269 41.2759C19.6436 41.2132 19.4492 41.1893 19.2561 41.2057Z" fill="black"/>
<path d="M38.8912 22.6004C38.3954 22.6004 37.9199 22.4034 37.5693 22.0528C37.2187 21.7022 37.0217 21.2266 37.0217 20.7308V10.0635C37.019 8.45749 36.3799 6.91802 35.2443 5.78241C34.1087 4.6468 32.5692 4.00764 30.9632 4.005H28.7338C28.3843 4.03462 28.0586 4.19438 27.8213 4.45266C27.584 4.71093 27.4523 5.0489 27.4523 5.39965C27.4523 5.7504 27.584 6.08837 27.8213 6.34665C28.0586 6.60492 28.3843 6.76468 28.7338 6.7943H30.9332C31.3647 6.79167 31.7924 6.87421 32.1919 7.0372C32.5914 7.20019 32.9549 7.44042 33.2613 7.74413C33.5678 8.04783 33.8114 8.40903 33.978 8.80704C34.1446 9.20504 34.2311 9.63201 34.2324 10.0635V20.7308C34.2302 21.9546 34.7118 23.1296 35.5721 24C34.7118 24.8704 34.2302 26.0454 34.2324 27.2692V37.9365C34.2297 38.8027 33.8845 39.6327 33.272 40.2453C32.6594 40.8578 31.8294 41.2031 30.9632 41.2057H28.7338C28.3843 41.2353 28.0586 41.3951 27.8213 41.6534C27.584 41.9116 27.4523 42.2496 27.4523 42.6003C27.4523 42.9511 27.584 43.2891 27.8213 43.5473C28.0586 43.8056 28.3843 43.9654 28.7338 43.995H30.9332C32.5392 43.9924 34.0787 43.3532 35.2143 42.2176C36.3499 41.082 36.9891 39.5425 36.9917 37.9365V27.2692C36.9917 26.7734 37.1887 26.2978 37.5393 25.9472C37.8899 25.5966 38.3654 25.3997 38.8612 25.3997C39.2324 25.3997 39.5884 25.2522 39.8509 24.9897C40.1134 24.7272 40.2609 24.3712 40.2609 24C40.2609 23.6288 40.1134 23.2728 39.8509 23.0103C39.5884 22.7478 39.2324 22.6004 38.8612 22.6004H38.8912Z" fill="black"/>
</svg>
