<svg width="48" height="48" viewBox="0 0 48 48" fill="none" xmlns="http://www.w3.org/2000/svg">
<path d="M8.67188 15.1303V19.8928C10.9931 20.7933 15.8257 22.144 23.97 22.144C32.1143 22.144 36.9768 20.7933 39.268 19.8928V15.1303C34.3051 16.5953 29.1427 17.2706 23.97 17.1313C18.7972 17.2706 13.6348 16.5953 8.67188 15.1303Z" fill="black"/>
<path d="M39.268 28.4673V23.7048C34.3051 25.1698 29.1427 25.8451 23.97 25.7059C18.7972 25.8451 13.6348 25.1698 8.67188 23.7048V28.4673C10.9931 29.3678 15.8257 30.7185 23.97 30.7185C32.1143 30.7185 36.9468 29.3678 39.268 28.4673Z" fill="black"/>
<path d="M23.97 34.3204C18.7951 34.4467 13.6326 33.7579 8.67188 32.2793V36.8518C8.67188 39.6432 12.674 40.6338 13.9947 40.9939C17.2802 41.7115 20.6375 42.0472 24 41.9945C27.3625 42.0478 30.7199 41.7121 34.0053 40.9939C35.326 40.6638 39.3281 39.6733 39.3281 36.8818V32.2793C34.3481 33.7641 29.1649 34.453 23.97 34.3204Z" fill="black"/>
<path d="M23.97 13.5695C32.1143 13.5695 36.9768 12.2187 39.268 11.3083V11.1182C39.268 8.32669 35.2659 7.33616 33.9452 7.00599C30.6599 6.28785 27.3025 5.95211 23.9399 6.00546C20.5775 5.95273 17.2201 6.28847 13.9347 7.00599C12.674 7.33616 8.67188 8.32669 8.67188 11.1182V11.3183C10.9931 12.2187 15.8257 13.5695 23.97 13.5695Z" fill="black"/>
</svg>
