<svg width="48" height="48" viewBox="0 0 48 48" fill="none" xmlns="http://www.w3.org/2000/svg">
<path d="M40.3301 13H14.5401C14.019 13 13.504 13.1116 13.0297 13.3272C12.5554 13.5428 12.1327 13.8574 11.7901 14.25L4.91008 22.07C4.32489 22.7404 4.00244 23.6001 4.00244 24.49C4.00244 25.3799 4.32489 26.2396 4.91008 26.91L11.7901 34.74C12.1322 35.1339 12.5545 35.4501 13.0288 35.6674C13.5031 35.8847 14.0184 35.9981 14.5401 36H40.3301C40.8129 36 41.2909 35.9047 41.7368 35.7197C42.1828 35.5346 42.5878 35.2634 42.9287 34.9215C43.2696 34.5797 43.5397 34.1739 43.7236 33.7275C43.9074 33.2811 44.0014 32.8028 44.0001 32.32V16.67C43.9974 15.6975 43.6099 14.7655 42.9222 14.0778C42.2346 13.3901 41.3026 13.0026 40.3301 13ZM33.3301 26.84C33.6702 27.1812 33.8612 27.6433 33.8612 28.125C33.8612 28.6067 33.6702 29.0688 33.3301 29.41C33.1621 29.596 32.9568 29.7446 32.7277 29.8462C32.4986 29.9479 32.2507 30.0003 32.0001 30C31.76 30 31.5223 29.9523 31.3008 29.8596C31.0794 29.7669 30.8785 29.6311 30.7101 29.46L28.3601 27.11L26.0001 29.41C25.8325 29.5808 25.6326 29.7165 25.4119 29.8092C25.1913 29.9018 24.9544 29.9495 24.7151 29.9495C24.4758 29.9495 24.2389 29.9018 24.0182 29.8092C23.7976 29.7165 23.5977 29.5808 23.4301 29.41C23.0899 29.0688 22.8989 28.6067 22.8989 28.125C22.8989 27.6433 23.0899 27.1812 23.4301 26.84L25.7801 24.49L23.4401 22.14C23.1444 21.7921 22.9904 21.3457 23.0084 20.8895C23.0265 20.4333 23.2153 20.0006 23.5376 19.6771C23.8598 19.3536 24.2918 19.1631 24.7479 19.1432C25.2041 19.1234 25.651 19.2757 26.0001 19.57L28.3501 21.92L30.7001 19.57C31.0467 19.2594 31.4992 19.0935 31.9644 19.1062C32.4297 19.119 32.8724 19.3095 33.2015 19.6386C33.5306 19.9677 33.7211 20.4104 33.7339 20.8756C33.7466 21.3409 33.5807 21.7934 33.2701 22.14L30.9201 24.49L33.3301 26.84Z" fill="black"/>
</svg>
