<svg width="48" height="48" viewBox="0 0 48 48" fill="none" xmlns="http://www.w3.org/2000/svg">
<path d="M40.7067 35.3061H14.2907C13.8228 35.3044 13.3605 35.2037 12.9344 35.0104C12.5082 34.8172 12.1278 34.5359 11.8183 34.185L4.81136 26.1771C4.28811 25.5744 4 24.8031 4 24.005C4 23.2069 4.28811 22.4355 4.81136 21.8329L11.8183 13.825C12.1269 13.4723 12.5069 13.1891 12.9331 12.9941C13.3593 12.7991 13.822 12.6968 14.2907 12.6938H40.7067C41.5802 12.6938 42.4178 13.0408 43.0354 13.6584C43.653 14.276 44 15.1137 44 15.9871V32.0029C44.0013 32.4362 43.9171 32.8655 43.7522 33.2662C43.5873 33.6669 43.3449 34.0312 43.039 34.338C42.733 34.6449 42.3695 34.8884 41.9693 35.0545C41.5691 35.2206 41.1401 35.3061 40.7067 35.3061ZM14.2907 15.4866C14.2257 15.4978 14.1638 15.5222 14.1087 15.5584C14.0536 15.5946 14.0065 15.6417 13.9704 15.6968L6.96348 23.7047C6.88594 23.7954 6.84333 23.9107 6.84333 24.03C6.84333 24.1493 6.88594 24.2647 6.96348 24.3553L13.9704 32.3632C14.0175 32.4151 14.0746 32.4568 14.1382 32.4861C14.2019 32.5153 14.2707 32.5314 14.3408 32.5334H40.7067C40.8395 32.5334 40.9668 32.4807 41.0606 32.3868C41.1545 32.2929 41.2072 32.1656 41.2072 32.0329V16.0171C41.2072 15.8844 41.1545 15.7571 41.0606 15.6632C40.9668 15.5694 40.8395 15.5166 40.7067 15.5166L14.2907 15.4866Z" fill="black"/>
<path d="M30.4266 23.995L33.1593 21.2623C33.2908 21.1308 33.395 20.9748 33.4662 20.803C33.5373 20.6313 33.5739 20.4472 33.5739 20.2613C33.5739 20.0754 33.5373 19.8913 33.4662 19.7196C33.395 19.5478 33.2908 19.3918 33.1593 19.2603C33.0278 19.1289 32.8718 19.0246 32.7 18.9535C32.5283 18.8823 32.3442 18.8457 32.1583 18.8457C31.9724 18.8457 31.7883 18.8823 31.6166 18.9535C31.4448 19.0246 31.2888 19.1289 31.1573 19.2603L28.4447 22.023L25.712 19.2903C25.5805 19.1589 25.4245 19.0546 25.2527 18.9835C25.081 18.9123 24.8969 18.8757 24.711 18.8757C24.5251 18.8757 24.341 18.9123 24.1692 18.9835C23.9975 19.0546 23.8414 19.1589 23.71 19.2903C23.5785 19.4218 23.4743 19.5779 23.4031 19.7496C23.332 19.9214 23.2954 20.1054 23.2954 20.2913C23.2954 20.4772 23.332 20.6613 23.4031 20.8331C23.4743 21.0048 23.5785 21.1609 23.71 21.2923L26.4427 24.025L23.74 26.7077C23.5468 26.9048 23.4161 27.1545 23.3643 27.4256C23.3125 27.6967 23.3419 27.977 23.4488 28.2315C23.5557 28.4859 23.7354 28.7031 23.9653 28.8559C24.1952 29.0086 24.465 29.09 24.741 29.09C24.9267 29.0913 25.1109 29.0557 25.2827 28.9853C25.4545 28.9148 25.6107 28.8109 25.742 28.6796L28.4747 25.9469L31.1874 28.7096C31.4528 28.9751 31.8129 29.1243 32.1883 29.1243C32.5638 29.1243 32.9239 28.9751 33.1893 28.7096C33.4548 28.4442 33.604 28.0841 33.604 27.7086C33.604 27.3332 33.4548 26.9731 33.1893 26.7077L30.4266 23.995Z" fill="black"/>
</svg>
