<svg width="48" height="48" viewBox="0 0 48 48" fill="none" xmlns="http://www.w3.org/2000/svg">
<path d="M44 27.25V11.18C43.9974 10.3374 43.6615 9.53011 43.0657 8.93431C42.4699 8.33852 41.6626 8.00264 40.82 8H7.18C6.33742 8.00264 5.53011 8.33852 4.93431 8.93431C4.33852 9.53011 4.00264 10.3374 4 11.18V27.25H44Z" fill="black"/>
<path d="M4 30.89V32.09C4 32.9334 4.33503 33.7422 4.9314 34.3386C5.52777 34.935 6.33661 35.27 7.18 35.27H19.64L18.93 37.74C18.8273 38.0893 18.8075 38.4578 18.8723 38.8161C18.937 39.1744 19.0845 39.5127 19.303 39.804C19.5215 40.0953 19.8049 40.3316 20.1308 40.4941C20.4566 40.6566 20.8159 40.7408 21.18 40.74H26.81C27.1743 40.7403 27.5336 40.6558 27.8596 40.4934C28.1857 40.331 28.4695 40.0949 28.6887 39.804C28.9079 39.5131 29.0564 39.1751 29.1226 38.8169C29.1888 38.4587 29.1708 38.0901 29.07 37.74L28.36 35.27H40.82C41.6634 35.27 42.4722 34.935 43.0686 34.3386C43.665 33.7422 44 32.9334 44 32.09V30.89H4Z" fill="black"/>
</svg>
