<svg width="48" height="48" viewBox="0 0 48 48" fill="none" xmlns="http://www.w3.org/2000/svg">
<path d="M41.21 8H6.79002C6.05006 8 5.34042 8.29395 4.81719 8.81717C4.29396 9.3404 4.00002 10.05 4.00002 10.79V32.19C3.9987 32.5577 4.06982 32.9221 4.20932 33.2623C4.34882 33.6025 4.55397 33.9119 4.81304 34.1728C5.07212 34.4338 5.38005 34.6411 5.71926 34.783C6.05847 34.925 6.42232 34.9987 6.79002 35H20.16L19.26 38.11C19.1782 38.3981 19.1642 38.7012 19.2191 38.9956C19.274 39.2901 19.3963 39.5678 19.5765 39.807C19.7566 40.0463 19.9897 40.2405 20.2575 40.3747C20.5253 40.5088 20.8205 40.579 21.12 40.58H26.88C27.1792 40.582 27.4746 40.5133 27.7422 40.3795C28.0099 40.2456 28.2421 40.0505 28.42 39.81C28.6026 39.5714 28.7267 39.2933 28.7823 38.9981C28.8379 38.7028 28.8234 38.3986 28.74 38.11L27.84 35H41.21C41.5777 34.9987 41.9416 34.925 42.2808 34.783C42.62 34.6411 42.9279 34.4338 43.187 34.1728C43.4461 33.9119 43.6512 33.6025 43.7907 33.2623C43.9302 32.9221 44.0013 32.5577 44 32.19V10.79C44 10.05 43.7061 9.3404 43.1828 8.81717C42.6596 8.29395 41.95 8 41.21 8V8ZM41.21 10.79V27.7H6.79002V10.79H41.21ZM25.74 37.79H22.26L23.06 35H24.94L25.74 37.79ZM6.79002 32.19V30.49H41.21V32.19H6.79002Z" fill="black"/>
</svg>
