<svg width="48" height="48" viewBox="0 0 48 48" fill="none" xmlns="http://www.w3.org/2000/svg">
<path d="M40.4401 20.2299L27.7701 7.55994C26.7691 6.56213 25.4134 6.00183 24.0001 6.00183C22.5867 6.00183 21.231 6.56213 20.2301 7.55994L7.56006 20.2299C6.56225 21.2309 6.00195 22.5866 6.00195 23.9999C6.00195 25.4133 6.56225 26.769 7.56006 27.7699L20.2301 40.4399C21.231 41.4377 22.5867 41.998 24.0001 41.998C25.4134 41.998 26.7691 41.4377 27.7701 40.4399L40.4401 27.7699C41.4379 26.769 41.9982 25.4133 41.9982 23.9999C41.9982 22.5866 41.4379 21.2309 40.4401 20.2299Z" fill="black"/>
</svg>
