<svg width="48" height="48" viewBox="0 0 48 48" fill="none" xmlns="http://www.w3.org/2000/svg">
<path d="M23.9999 42C23.4281 42.0022 22.8615 41.8911 22.3329 41.6731C21.8042 41.4551 21.324 41.1346 20.9199 40.73L7.27989 27.08C6.87473 26.676 6.55327 26.1959 6.33394 25.6674C6.11461 25.1389 6.00171 24.5723 6.00171 24C6.00171 23.4278 6.11461 22.8612 6.33394 22.3327C6.55327 21.8042 6.87473 21.3241 7.27989 20.92L20.9199 7.27004C21.7386 6.45664 22.8458 6.00012 23.9999 6.00012C25.154 6.00012 26.2612 6.45664 27.0799 7.27004L40.7199 20.92C41.125 21.3241 41.4465 21.8042 41.6658 22.3327C41.8852 22.8612 41.9981 23.4278 41.9981 24C41.9981 24.5723 41.8852 25.1389 41.6658 25.6674C41.4465 26.1959 41.125 26.676 40.7199 27.08L27.0799 40.73C26.6758 41.1346 26.1956 41.4551 25.6669 41.6731C25.1383 41.8911 24.5717 42.0022 23.9999 42ZM22.8799 9.23004L9.23989 22.88C9.09113 23.0262 8.97297 23.2005 8.89231 23.3928C8.81165 23.5851 8.77011 23.7915 8.77011 24C8.77011 24.2086 8.81165 24.415 8.89231 24.6073C8.97297 24.7996 9.09113 24.9739 9.23989 25.12L22.8799 38.77C23.0267 38.9176 23.2012 39.0347 23.3934 39.1146C23.5856 39.1945 23.7917 39.2356 23.9999 39.2356C24.208 39.2356 24.4141 39.1945 24.6063 39.1146C24.7985 39.0347 24.9731 38.9176 25.1199 38.77L38.7599 25.12C38.9086 24.9739 39.0268 24.7996 39.1075 24.6073C39.1881 24.415 39.2297 24.2086 39.2297 24C39.2297 23.7915 39.1881 23.5851 39.1075 23.3928C39.0268 23.2005 38.9086 23.0262 38.7599 22.88L25.1199 9.23004C24.9731 9.08249 24.7985 8.96541 24.6063 8.88551C24.4141 8.80562 24.208 8.76449 23.9999 8.76449C23.7917 8.76449 23.5856 8.80562 23.3934 8.88551C23.2012 8.96541 23.0267 9.08249 22.8799 9.23004Z" fill="black"/>
</svg>
