<svg width="48" height="48" viewBox="0 0 48 48" fill="none" xmlns="http://www.w3.org/2000/svg">
<path d="M24.0001 41.9999C23.2999 42.0008 22.6065 41.8634 21.9596 41.5957C21.3126 41.328 20.7249 40.9352 20.2301 40.4399L7.56006 27.7699C6.56225 26.769 6.00195 25.4133 6.00195 23.9999C6.00195 22.5866 6.56225 21.2309 7.56006 20.2299L20.2301 7.55994C21.231 6.56213 22.5867 6.00183 24.0001 6.00183C25.4134 6.00183 26.7691 6.56213 27.7701 7.55994L40.4401 20.2299C41.4379 21.2309 41.9982 22.5866 41.9982 23.9999C41.9982 25.4133 41.4379 26.769 40.4401 27.7699L27.7701 40.4399C27.2756 40.9357 26.6879 41.3287 26.0409 41.5965C25.3939 41.8642 24.7003 42.0013 24.0001 41.9999ZM24.0001 11.1399C23.9752 11.1392 23.9505 11.1442 23.928 11.1546C23.9054 11.165 23.8856 11.1805 23.8701 11.1999L11.2001 23.8599C11.1809 23.8768 11.1656 23.8976 11.1551 23.9209C11.1446 23.9442 11.1391 23.9694 11.1391 23.9949C11.1391 24.0205 11.1446 24.0457 11.1551 24.069C11.1656 24.0923 11.1809 24.113 11.2001 24.1299L23.8701 36.7999C23.8877 36.8178 23.9088 36.8319 23.9319 36.8416C23.9551 36.8513 23.98 36.8562 24.0051 36.8562C24.0302 36.8562 24.055 36.8513 24.0782 36.8416C24.1014 36.8319 24.1224 36.8178 24.1401 36.7999L36.8001 24.1299C36.8192 24.113 36.8346 24.0923 36.8451 24.069C36.8556 24.0457 36.861 24.0205 36.861 23.9949C36.861 23.9694 36.8556 23.9442 36.8451 23.9209C36.8346 23.8976 36.8192 23.8768 36.8001 23.8599L24.1401 11.1999C24.1031 11.1623 24.0528 11.1407 24.0001 11.1399Z" fill="black"/>
</svg>
