<svg width="48" height="48" viewBox="0 0 48 48" fill="none" xmlns="http://www.w3.org/2000/svg">
<path fill-rule="evenodd" clip-rule="evenodd" d="M26.9 36.89H20.62C17.0893 36.9061 13.6952 35.5272 11.1762 33.0531C8.6573 30.5791 7.21743 27.2104 7.17 23.68C7.12902 21.902 7.44883 20.1342 8.11012 18.4833C8.7714 16.8324 9.76045 15.3327 11.0175 14.0747C12.2746 12.8167 13.7736 11.8265 15.424 11.164C17.0744 10.5015 18.842 10.1803 20.62 10.22H26.9C34.19 10.22 40.83 15.72 40.83 23.68C40.83 31 34.19 36.89 26.9 36.89ZM40.67 8H7.33C6.44683 8 5.59983 8.35084 4.97533 8.97533C4.35084 9.59983 4 10.4468 4 11.33V35.78C4 36.6632 4.35084 37.5102 4.97533 38.1347C5.59983 38.7592 6.44683 39.11 7.33 39.11H40.67C41.5532 39.11 42.4002 38.7592 43.0247 38.1347C43.6492 37.5102 44 36.6632 44 35.78V11.33C44 10.4468 43.6492 9.59983 43.0247 8.97533C42.4002 8.35084 41.5532 8 40.67 8ZM23.42 30.76V16.31C24.8767 16.8753 26.1285 17.8677 27.0111 19.1571C27.8938 20.4464 28.3661 21.9725 28.3661 23.535C28.3661 25.0975 27.8938 26.6236 27.0111 27.9129C26.1285 29.2023 24.8767 30.1947 23.42 30.76ZM17.87 30.76C16.4115 30.1992 15.1572 29.2095 14.2725 27.9215C13.3879 26.6335 12.9143 25.1076 12.9143 23.545C12.9143 21.9824 13.3879 20.4565 14.2725 19.1685C15.1572 17.8805 16.4115 16.8908 17.87 16.33V30.76ZM20.65 11.33C18.2342 11.328 15.8722 12.0427 13.8627 13.3836C11.8533 14.7245 10.2867 16.6313 9.36135 18.8628C8.43596 21.0943 8.19332 23.5502 8.66413 25.9196C9.13494 28.289 10.298 30.4656 12.0062 32.1738C13.7144 33.882 15.891 35.0451 18.2604 35.5159C20.6298 35.9867 23.0857 35.744 25.3172 34.8187C27.5487 33.8933 29.4555 32.3267 30.7964 30.3173C32.1373 28.3078 32.852 25.9458 32.85 23.53C32.8474 20.2952 31.5611 17.1936 29.2738 14.9062C26.9864 12.6189 23.8848 11.3326 20.65 11.33Z" fill="black"/>
</svg>
