<svg width="48" height="48" viewBox="0 0 48 48" fill="none" xmlns="http://www.w3.org/2000/svg">
<path fill-rule="evenodd" clip-rule="evenodd" d="M6.22336 23.9908C6.2239 23.3858 6.40804 22.7951 6.75143 22.2969C7.09482 21.7987 7.5813 21.4165 8.14657 21.2007V26.8109C7.57651 26.5933 7.0867 26.2064 6.7429 25.7023C6.39911 25.1982 6.21782 24.601 6.22336 23.9908ZM10.289 21.2007C10.8628 21.4121 11.3579 21.7943 11.7077 22.2959C12.0574 22.7975 12.2449 23.3943 12.2449 24.0058C12.2449 24.6172 12.0574 25.214 11.7077 25.7156C11.3579 26.2172 10.8628 26.5995 10.289 26.8109V21.2007ZM9.22277 28.7241C10.1593 28.7261 11.0755 28.4502 11.8552 27.9313C12.6349 27.4124 13.2431 26.6738 13.6029 25.8091C13.9626 24.9444 14.0578 23.9923 13.8763 23.0735C13.6948 22.1547 13.2448 21.3104 12.5832 20.6474C11.9216 19.9845 11.0783 19.5327 10.1598 19.3492C9.24139 19.1658 8.28917 19.2589 7.42369 19.6169C6.55822 19.9748 5.81839 20.5815 5.29785 21.3601C4.7773 22.1387 4.49945 23.0542 4.49944 23.9908C4.49944 25.2444 4.99676 26.4469 5.88227 27.3342C6.76778 28.2216 7.96915 28.7215 9.22277 28.7241ZM11.6343 18.839C12.3323 18.8218 13.0269 18.9435 13.6775 19.1969C14.3282 19.4504 14.922 19.8306 15.4245 20.3155C15.927 20.8003 16.3281 21.3802 16.6046 22.0214C16.8811 22.6626 17.0275 23.3524 17.0352 24.0506C16.9708 25.4357 16.3722 26.7421 15.3652 27.6953C14.3581 28.6485 13.0208 29.1744 11.6343 29.1626H9.21281C8.53494 29.1691 7.86242 29.0421 7.23365 28.7888C6.60488 28.5354 6.03216 28.1607 5.54821 27.686C5.06427 27.2113 4.67856 26.6459 4.41312 26.0222C4.14769 25.3984 4.00772 24.7285 4.0012 24.0506C3.98625 23.3621 4.11083 22.6777 4.36744 22.0386C4.62405 21.3996 5.00738 20.8191 5.49434 20.3321C5.98129 19.8452 6.56179 19.4618 7.20085 19.2052C7.83991 18.9486 8.52431 18.824 9.21281 18.839H11.6343ZM19.2275 20.6526V23.642C19.2275 24.0606 19.5264 24.1104 19.7954 24.1104C20.0147 24.1179 20.2329 24.0777 20.435 23.9926C20.6372 23.9075 20.8184 23.7795 20.9663 23.6174C21.1141 23.4554 21.225 23.2632 21.2912 23.0541C21.3575 22.845 21.3775 22.624 21.35 22.4064C21.3701 22.1744 21.3404 21.9407 21.2629 21.7211C21.1853 21.5014 21.0617 21.3009 20.9004 21.133C20.739 20.965 20.5436 20.8335 20.3273 20.7472C20.1109 20.6609 19.8786 20.6219 19.646 20.6327C19.4267 20.6327 19.3271 20.6526 19.2275 20.6526ZM19.7058 24.2499H18.1911V24.1104C18.5199 24.1104 18.6794 24.1104 18.6894 23.6919V21.0612C18.6894 20.5729 18.4402 20.6028 18.1911 20.6028V20.4633H19.7755C20.0429 20.4402 20.3123 20.4713 20.5673 20.5549C20.8224 20.6384 21.058 20.7726 21.2599 20.9494C21.4619 21.1262 21.626 21.342 21.7425 21.5838C21.859 21.8256 21.9255 22.0885 21.9379 22.3566C21.9379 22.8947 21.629 24.2499 19.7058 24.2499ZM22.6952 20.9316C22.6256 20.929 22.5597 20.8996 22.5114 20.8494C22.4631 20.7992 22.4361 20.7322 22.4361 20.6626C22.4384 20.5936 22.4662 20.528 22.514 20.4783C22.5618 20.4286 22.6264 20.3984 22.6952 20.3935C22.7666 20.3935 22.835 20.4219 22.8855 20.4723C22.9359 20.5228 22.9643 20.5912 22.9643 20.6626C22.9622 20.7299 22.9359 20.7943 22.8901 20.8438C22.8443 20.8932 22.7822 20.9244 22.7151 20.9316H22.6952ZM23.2831 24.2499H22.1372V24.1104H22.2368C22.3963 24.1104 22.5059 24.1104 22.5059 23.931V22.4562C22.5059 22.2171 22.4162 22.1872 22.2169 22.0776V21.9879C22.476 21.9181 22.7749 21.8085 22.8048 21.7986C22.8336 21.7869 22.8657 21.7869 22.8945 21.7986L22.9344 21.8284V23.931C22.9344 24.1104 23.0539 24.1104 23.2034 24.1104H23.3031L23.2831 24.2499ZM26.163 24.1104V24.2499H25.017V24.1104H25.1167C25.2761 24.1104 25.3757 24.1104 25.3757 23.931V22.526C25.3809 22.4606 25.3712 22.3948 25.3475 22.3336C25.3239 22.2724 25.2867 22.2173 25.2389 22.1723C25.1911 22.1274 25.1338 22.0938 25.0713 22.0739C25.0087 22.054 24.9425 22.0485 24.8775 22.0576C24.6488 22.0927 24.4328 22.1853 24.2497 22.3267V23.931C24.2497 24.1104 24.3693 24.1104 24.5188 24.1104H24.6184V24.2499H23.4525V24.1104H23.5522C23.7116 24.1104 23.8113 24.1104 23.8113 23.931V22.4861C23.8113 22.2868 23.7515 22.237 23.5024 22.1274V22.0277C23.7316 21.948 23.9607 21.8783 24.2198 21.7687C24.2198 21.7687 24.2198 21.7687 24.2198 21.8185V22.1772C24.4771 21.9394 24.8072 21.7954 25.1565 21.7687C25.6249 21.7687 25.7843 22.1075 25.7843 22.526V23.931C25.7843 24.1104 25.9039 24.1104 26.0534 24.1104H26.163ZM27.2192 21.9381C26.8904 21.9381 26.6612 22.1872 26.5915 22.5758H27.5381C27.6776 22.5758 27.6876 22.5061 27.6876 22.4363C27.6931 22.3737 27.6856 22.3106 27.6657 22.251C27.6457 22.1913 27.6137 22.1365 27.5717 22.0897C27.5296 22.043 27.4784 22.0054 27.4212 21.9793C27.364 21.9532 27.302 21.9392 27.2392 21.9381H27.2192ZM27.2192 24.3296C27.0755 24.3184 26.9355 24.2786 26.8072 24.2127C26.679 24.1467 26.5652 24.0559 26.4725 23.9455C26.3797 23.8352 26.3099 23.7074 26.267 23.5698C26.2241 23.4321 26.2091 23.2873 26.2228 23.1438C26.2228 22.0776 26.9402 21.7687 27.3189 21.7687C27.4355 21.7605 27.5526 21.7763 27.6629 21.8151C27.7732 21.8538 27.8744 21.9148 27.9603 21.9941C28.0461 22.0734 28.1149 22.1695 28.1622 22.2764C28.2096 22.3833 28.2346 22.4988 28.2356 22.6157V22.7153H26.6014C26.579 22.8171 26.579 22.9225 26.6014 23.0242C26.5899 23.2526 26.666 23.4767 26.8141 23.6508C26.9623 23.8249 27.1714 23.9358 27.3986 23.9609C27.5382 23.9555 27.6751 23.9207 27.8005 23.8589C27.9258 23.7971 28.0367 23.7096 28.126 23.6022L28.2058 23.6819C28.1045 23.8645 27.9596 24.0192 27.7839 24.1323C27.6083 24.2453 27.4075 24.3131 27.1993 24.3296H27.2192ZM29.7304 24.2499H28.3054V24.1104H28.4449C28.6043 24.1104 28.714 24.1104 28.714 23.931V22.4064C28.714 22.237 28.5047 22.1971 28.425 22.1573V22.0776C28.8236 21.9082 29.0428 21.7687 29.0926 21.7687C29.1424 21.7687 29.1424 21.7687 29.1424 21.8384V22.3267C29.272 22.1174 29.5012 21.7687 29.84 21.7687C29.8792 21.7673 29.9184 21.7738 29.9552 21.7876C29.992 21.8014 30.0256 21.8223 30.0543 21.8491C30.083 21.876 30.1061 21.9082 30.1224 21.944C30.1386 21.9797 30.1476 22.0184 30.1489 22.0576C30.1491 22.1283 30.1224 22.1964 30.0743 22.2482C30.0263 22.3 29.9603 22.3316 29.8898 22.3367C29.7204 22.3367 29.7204 22.1971 29.5311 22.1971C29.421 22.2137 29.3204 22.269 29.2474 22.353C29.1743 22.437 29.1336 22.5442 29.1325 22.6555V23.931C29.1325 24.1104 29.2421 24.1104 29.3916 24.1104H29.7005L29.7304 24.2499ZM31.0956 24.1602C31.1956 24.1687 31.295 24.1382 31.373 24.075C31.451 24.0119 31.5016 23.921 31.5141 23.8214C31.5141 23.1837 30.3382 23.383 30.3382 22.516C30.3428 22.4136 30.3687 22.3132 30.4143 22.2214C30.4598 22.1295 30.524 22.0482 30.6028 21.9825C30.6816 21.9169 30.7732 21.8684 30.8717 21.8402C30.9703 21.8119 31.0737 21.8045 31.1753 21.8185C31.3906 21.8242 31.6019 21.8788 31.7931 21.9779V22.526H31.7034C31.7009 22.4518 31.6836 22.3789 31.6525 22.3115C31.6214 22.2441 31.5772 22.1836 31.5225 22.1335C31.4677 22.0833 31.4035 22.0447 31.3336 22.0197C31.2638 21.9947 31.1896 21.9839 31.1155 21.9879C31.0641 21.9824 31.0122 21.9875 30.9629 22.0028C30.9136 22.0181 30.868 22.0433 30.8288 22.0769C30.7896 22.1105 30.7577 22.1518 30.735 22.1981C30.7123 22.2445 30.6994 22.2951 30.697 22.3466C30.697 22.9844 31.9525 22.7851 31.9525 23.642C31.9525 24.0008 31.6635 24.3794 31.0158 24.3794C30.7851 24.3754 30.559 24.3137 30.3582 24.2001L30.2984 23.5723H30.398C30.4678 23.8214 30.677 24.1602 31.0756 24.1602H31.0956ZM36.7556 24.0406C36.3807 24.2169 35.9738 24.3153 35.5598 24.3296C35.289 24.3509 35.0167 24.3147 34.7609 24.2231C34.5051 24.1316 34.2717 23.9869 34.0758 23.7987C33.88 23.6104 33.7263 23.3827 33.6248 23.1307C33.5234 22.8787 33.4764 22.6081 33.4871 22.3367C33.5079 21.8115 33.7352 21.3158 34.1197 20.9575C34.5041 20.5992 35.0146 20.4072 35.5399 20.4234C35.981 20.4506 36.415 20.5481 36.8253 20.7124V21.4896H36.6958C36.6828 21.3526 36.6415 21.2198 36.5746 21.0996C36.5077 20.9793 36.4166 20.8742 36.3071 20.7909C36.1975 20.7076 36.0719 20.6478 35.9382 20.6155C35.8044 20.5831 35.6654 20.5788 35.5299 20.6028C35.3119 20.6027 35.0963 20.6488 34.8974 20.738C34.6985 20.8272 34.5207 20.9575 34.3757 21.1204C34.2308 21.2832 34.1219 21.4749 34.0564 21.6828C33.9908 21.8907 33.97 22.1102 33.9953 22.3267C33.965 22.7909 34.1183 23.2484 34.4221 23.6007C34.7259 23.953 35.156 24.1718 35.6196 24.21C35.8921 24.2087 36.1544 24.1059 36.3552 23.9216C36.556 23.7374 36.681 23.485 36.7057 23.2136H36.8353L36.7556 24.0406ZM38.2304 24.2499H37.0545V24.1104H37.1542C37.3036 24.1104 37.4132 24.1104 37.4132 23.931V20.9416C37.4132 20.5928 37.3335 20.5828 37.1243 20.5231V20.3935C37.3208 20.332 37.511 20.252 37.6923 20.1544C37.7288 20.1283 37.7691 20.1081 37.8118 20.0946C37.8118 20.0946 37.8118 20.0946 37.8118 20.1743V23.931C37.8118 24.1104 37.9314 24.1104 38.0809 24.1104H38.1706L38.2304 24.2499ZM38.5592 22.2569C38.5592 22.1174 38.5592 21.9779 38.2304 21.948V21.8484L38.8781 21.8284C38.9379 21.8284 38.9379 21.8284 38.9379 21.9879V23.383C38.9379 23.5524 38.9379 24.0207 39.4062 24.0207C39.6543 23.9822 39.8843 23.8673 40.0639 23.6919V22.247C40.0639 22.1374 39.8048 22.0776 39.6055 22.0178V21.9281L40.4924 21.8284C40.5422 21.8284 40.5422 21.8284 40.5422 21.9281V23.9211C40.5422 24.0207 40.602 24.0207 40.6917 24.0207H40.871V24.1303C40.605 24.1684 40.342 24.225 40.0838 24.2997V23.8712C39.8236 24.1473 39.4663 24.3116 39.0873 24.3296C39.004 24.3315 38.9212 24.3156 38.8445 24.283C38.7678 24.2504 38.6988 24.2019 38.6423 24.1406C38.5858 24.0794 38.5429 24.0068 38.5165 23.9277C38.4902 23.8486 38.481 23.7648 38.4895 23.6819L38.5592 22.2569ZM41.6383 22.2569V23.6321C41.6456 23.7777 41.7067 23.9155 41.8098 24.0186C41.9129 24.1218 42.0507 24.1829 42.1964 24.1901C42.7843 24.1901 43.0234 23.6221 43.0234 23.1338C43.0461 22.8772 42.9685 22.6217 42.8068 22.421C42.6452 22.2204 42.4121 22.0901 42.1565 22.0576C41.9514 22.0749 41.7598 22.1671 41.6184 22.3167L41.6383 22.2569ZM41.2099 20.8419C41.2099 20.4932 41.1202 20.4832 40.9209 20.4234V20.3935C41.1122 20.3306 41.2986 20.254 41.4789 20.1643C41.5139 20.1359 41.5547 20.1155 41.5985 20.1045C41.5985 20.1045 41.5985 20.1045 41.5985 20.1743V22.1673C41.8179 21.9531 42.1014 21.8166 42.4056 21.7786C42.5462 21.7862 42.6839 21.8218 42.8105 21.8833C42.9371 21.9448 43.0502 22.031 43.143 22.1368C43.2359 22.2427 43.3066 22.366 43.3511 22.4996C43.3956 22.6331 43.4129 22.7742 43.4021 22.9146C43.4157 23.2761 43.2863 23.6283 43.0419 23.8951C42.7976 24.1618 42.458 24.3215 42.0967 24.3396C41.8357 24.3398 41.5788 24.2747 41.3494 24.1503L41.18 24.2798L41.0703 24.22C41.1236 23.8905 41.1503 23.5573 41.1501 23.2235L41.2099 20.8419ZM18.6296 25.4357H19.1079V25.5453H19.0481C18.9385 25.5453 18.8388 25.5453 18.8388 25.7048V27.2393C18.8388 27.3888 18.9385 27.3888 19.0481 27.3988H19.1079V27.5084H18.1712V27.3988H18.231C18.3406 27.3988 18.4303 27.3988 18.4402 27.2393V25.6948C18.4402 25.5453 18.3406 25.5354 18.231 25.5354H18.1712V25.4257H18.6296V25.4357ZM21.2204 25.4357H21.5991V25.5453H21.5393C21.4197 25.5453 21.2902 25.5453 21.2902 25.9041V27.2393C21.2848 27.3389 21.2848 27.4387 21.2902 27.5383H21.1507L19.6659 25.8742V27.06C19.6659 27.3191 19.6659 27.3888 19.935 27.3988H19.9947V27.5084H19.1876V27.3988H19.2474C19.4367 27.3988 19.4965 27.2692 19.4965 27.0301V25.8144C19.4939 25.7474 19.4655 25.684 19.4172 25.6376C19.3689 25.5911 19.3044 25.5652 19.2374 25.5653V25.4257H19.8652L21.1606 26.8906V25.8144C21.1606 25.5752 21.0012 25.5453 20.9215 25.5453H20.8418V25.4257H21.2702L21.2204 25.4357ZM23.6319 25.3261H23.7116C23.7068 25.4057 23.7068 25.4856 23.7116 25.5653C23.7067 25.6449 23.7067 25.7248 23.7116 25.8044H23.612C23.612 25.6948 23.612 25.5354 23.4027 25.5354H22.9344V27.1497C22.9344 27.3789 23.024 27.3888 23.1636 27.3988H23.2333V27.5084H22.2368V27.3988H22.3066C22.466 27.3988 22.5358 27.3988 22.5358 27.1596V25.5952H22.0674C21.8482 25.5952 21.8482 25.5952 21.7984 25.8542H21.6888V25.8144C21.6942 25.7314 21.6942 25.6482 21.6888 25.5653C21.6992 25.4825 21.6992 25.3988 21.6888 25.3161H21.7884C21.7884 25.3859 21.8582 25.3859 21.9379 25.3859H23.4725C23.5621 25.3859 23.6219 25.3859 23.6219 25.3062L23.6319 25.3261ZM25.4056 26.9902H25.4953C25.4953 27.1497 25.4256 27.2991 25.3957 27.4586H23.8013V27.3988H23.8511C23.9607 27.3988 24.0604 27.3988 24.0604 27.2393V25.6948C24.0604 25.5453 23.9607 25.5354 23.8511 25.5354H23.8013V25.4257H25.316V25.5752C25.3106 25.6748 25.3106 25.7746 25.316 25.8742H25.2063C25.2063 25.6749 25.2063 25.5354 24.8576 25.5354H24.459V26.2827H24.7978C24.9672 26.2827 25.007 26.193 25.027 26.0336H25.1366C25.1366 26.1432 25.1366 26.2628 25.1366 26.3724C25.1366 26.482 25.1366 26.6016 25.1366 26.7112H25.0369C25.0369 26.5318 25.0369 26.4322 24.8177 26.4322H24.4689V27.1098C24.4689 27.2892 24.6284 27.2792 24.8177 27.2892C25.1764 27.2892 25.316 27.2892 25.4056 26.9304V26.9902ZM26.4021 26.4222C26.7011 26.4222 26.8406 26.3126 26.8505 25.9738C26.8551 25.9177 26.8473 25.8613 26.8279 25.8085C26.8084 25.7556 26.7778 25.7077 26.738 25.6679C26.6982 25.6281 26.6502 25.5974 26.5974 25.5779C26.5445 25.5585 26.4881 25.5508 26.432 25.5553H26.2726V26.4123L26.4021 26.4222ZM27.3986 27.2194C27.425 27.2714 27.4648 27.3153 27.5138 27.3469C27.5629 27.3784 27.6194 27.3963 27.6776 27.3988V27.5084H27.0897C26.8624 27.1919 26.6593 26.8588 26.4818 26.5119H26.3025V27.1297C26.3025 27.3589 26.3922 27.349 26.5317 27.3589H26.6014V27.5084H25.6049V27.3988H25.6747C25.7743 27.3988 25.864 27.349 25.864 27.2493V25.7446C25.864 25.5354 25.7644 25.5354 25.6747 25.5354H25.6049V25.4257H26.5516C26.9203 25.4257 27.2691 25.5254 27.2691 25.9539C27.2655 26.0738 27.224 26.1895 27.1506 26.2843C27.0772 26.3792 26.9756 26.4484 26.8605 26.482L27.3986 27.2194ZM30.1589 25.5354H30.0991C29.9795 25.5354 29.85 25.5354 29.85 25.8941V27.2393C29.8394 27.3387 29.8394 27.4389 29.85 27.5383H29.7104L28.2157 25.8642V27.06C28.2157 27.3191 28.2157 27.3888 28.4748 27.3988H28.5446V27.5084H27.7374V27.3988H27.7872C27.9865 27.3988 28.0364 27.2692 28.0364 27.0301V25.8144C28.0364 25.7483 28.0101 25.6849 27.9634 25.6382C27.9167 25.5915 27.8533 25.5653 27.7872 25.5653H27.7374V25.4257H28.3552L29.6606 26.8906V25.8144C29.6606 25.5752 29.5012 25.5453 29.4115 25.5453H29.3318V25.4257H30.1389L30.1589 25.5354ZM30.7866 26.5916H31.3048L31.0158 25.8144L30.7866 26.5916ZM31.9924 27.2892C32.0087 27.3248 32.0357 27.3545 32.0696 27.3741C32.1035 27.3937 32.1427 27.4024 32.1817 27.3988V27.5084H31.3048V27.3988C31.3746 27.3988 31.4742 27.3988 31.4742 27.3191C31.4643 27.2468 31.4442 27.1764 31.4144 27.1098L31.3447 26.8109H30.697L30.5973 27.1098C30.5693 27.1839 30.5493 27.2607 30.5375 27.339C30.5375 27.4087 30.6471 27.4287 30.7468 27.4287H30.7966V27.5084H30.0891V27.3988C30.1452 27.3971 30.1994 27.378 30.244 27.3441C30.2887 27.3101 30.3216 27.263 30.3382 27.2095L30.8365 25.8144C30.8365 25.7048 30.9262 25.5553 30.956 25.4457L31.2251 25.3161V25.3859L31.9027 26.9803C31.9027 27.0899 31.9027 27.1995 31.9625 27.2892H31.9924ZM33.9854 25.2962H34.075C34.0702 25.3759 34.0702 25.4557 34.075 25.5354V25.8144H33.9654C33.9654 25.7048 33.9654 25.5453 33.7661 25.5453H33.2878V27.1497C33.2878 27.3789 33.3775 27.3888 33.527 27.3988H33.5967V27.5084H32.6002V27.3988H32.67C32.8394 27.3988 32.8992 27.3988 32.9092 27.1596V25.5952H32.4308C32.2116 25.5952 32.2216 25.5952 32.1718 25.8542H31.9027V25.5653C31.9079 25.4823 31.9079 25.3991 31.9027 25.3161H32.0024C32.0024 25.3859 32.0721 25.3859 32.1518 25.3859H33.6864C33.7661 25.3859 33.8259 25.3859 33.8359 25.3062L33.9854 25.2962ZM34.6131 25.4058H35.0914V25.5154H35.0416C34.932 25.5154 34.8324 25.5154 34.8324 25.6749V27.2393C34.8324 27.3888 34.932 27.3988 35.0416 27.3988H35.0914V27.5084H34.1647V27.3988C34.2743 27.3988 34.374 27.3988 34.374 27.2393V25.6948C34.374 25.5453 34.2743 25.5354 34.1647 25.5354V25.4257H34.6131V25.4058ZM36.2972 27.3988C36.8652 27.3988 36.9648 26.9105 36.9648 26.4721C36.9648 26.0336 36.7356 25.5354 36.2474 25.5354C35.7591 25.5354 35.5897 25.9838 35.5897 26.3724C35.5897 26.761 35.7491 27.3988 36.2175 27.3988H36.2972ZM36.2972 25.4058C36.4384 25.3936 36.5805 25.4099 36.7153 25.4537C36.85 25.4976 36.9745 25.5681 37.0815 25.6611C37.1884 25.7541 37.2755 25.8676 37.3376 25.9949C37.3998 26.1223 37.4357 26.2608 37.4431 26.4023C37.4486 26.5526 37.4233 26.7024 37.3689 26.8425C37.3145 26.9827 37.2321 27.1103 37.1267 27.2176C37.0213 27.3248 36.8952 27.4095 36.756 27.4663C36.6168 27.5232 36.4675 27.5511 36.3171 27.5483C36.1717 27.555 36.0263 27.5321 35.89 27.4811C35.7536 27.43 35.629 27.3518 35.5237 27.2512C35.4184 27.1506 35.3347 27.0297 35.2775 26.8957C35.2203 26.7618 35.1909 26.6177 35.1911 26.4721C35.1898 26.3264 35.2175 26.182 35.2726 26.0472C35.3277 25.9124 35.4091 25.7899 35.5121 25.687C35.6151 25.584 35.7375 25.5026 35.8723 25.4474C36.0071 25.3923 36.1516 25.3646 36.2972 25.366V25.4058ZM39.8945 25.5653H39.8347C39.7151 25.5653 39.5856 25.5653 39.5856 25.924V27.2393C39.575 27.3387 39.575 27.4389 39.5856 27.5383H39.4461L37.8816 25.8742V27.06C37.8816 27.3191 37.8816 27.3888 38.1407 27.3988H38.2104V27.5084H37.4033V27.3988C37.6026 27.3988 37.6524 27.2692 37.6624 27.0301V25.8144C37.6598 25.7474 37.6314 25.684 37.5831 25.6376C37.5347 25.5911 37.4703 25.5652 37.4033 25.5653V25.4257H38.0211L39.3265 26.8906V25.8144C39.3265 25.5752 39.1671 25.5453 39.0774 25.5453H38.9977V25.4257H39.8048L39.8945 25.5653ZM40.5223 26.6215H41.0404L40.6618 25.8144L40.5223 26.6215ZM41.728 27.3191C41.7444 27.3547 41.7713 27.3844 41.8053 27.404C41.8392 27.4236 41.8783 27.4322 41.9174 27.4287V27.5084H41.0404V27.3988C41.1102 27.3988 41.2099 27.3988 41.2099 27.3191C41.2164 27.2495 41.2164 27.1794 41.2099 27.1098L40.9906 26.8109H40.3429L40.2532 27.1098C40.2231 27.1839 40.1997 27.2606 40.1835 27.339C40.1835 27.4087 40.2931 27.4287 40.3927 27.4287V27.5084H39.6852V27.3988C39.7417 27.3987 39.7966 27.3802 39.8416 27.346C39.8866 27.3118 39.9191 27.2639 39.9344 27.2095L40.4824 25.8144C40.4824 25.7048 40.5721 25.5553 40.602 25.4457L40.871 25.356V25.4257L41.4091 26.9703C41.5387 27.0899 41.5686 27.1995 41.6084 27.2892L41.728 27.3191ZM43.6114 27.0102H43.721C43.721 27.1796 43.6413 27.339 43.6114 27.5084H41.8675V27.3988H41.9174C42.027 27.3988 42.1266 27.3988 42.1266 27.2095V25.6948C42.1266 25.5453 42.027 25.5354 41.9174 25.5354H41.8675V25.4257H42.864V25.5354H42.7743C42.6647 25.5354 42.595 25.5354 42.585 25.6848V27.2095C42.585 27.3191 42.6647 27.349 42.7544 27.3589H43.143C43.2514 27.3388 43.3497 27.2826 43.422 27.1995C43.462 27.1345 43.4923 27.064 43.5117 26.9902L43.6114 27.0102ZM43.6712 25.9439C43.7355 25.9413 43.7963 25.914 43.8409 25.8675C43.8855 25.8211 43.9104 25.7592 43.9103 25.6948C43.9117 25.6621 43.9065 25.6294 43.8952 25.5987C43.8839 25.5679 43.8667 25.5397 43.8445 25.5157C43.8222 25.4916 43.7955 25.4722 43.7658 25.4584C43.736 25.4447 43.7039 25.437 43.6712 25.4357C43.6124 25.4474 43.5595 25.4791 43.5214 25.5255C43.4834 25.5718 43.4626 25.6299 43.4626 25.6898C43.4626 25.7498 43.4834 25.8078 43.5214 25.8542C43.5595 25.9005 43.6124 25.9322 43.6712 25.9439ZM43.6712 25.3759C43.7346 25.3739 43.7972 25.3909 43.851 25.4248C43.9047 25.4586 43.9471 25.5076 43.9728 25.5657C43.9984 25.6238 44.0062 25.6882 43.995 25.7507C43.9839 25.8132 43.9543 25.8709 43.9102 25.9165C43.866 25.9621 43.8092 25.9935 43.7471 26.0066C43.685 26.0198 43.6204 26.014 43.5615 25.9902C43.5027 25.9664 43.4523 25.9256 43.4168 25.8729C43.3813 25.8203 43.3623 25.7583 43.3623 25.6948C43.3478 25.6237 43.3589 25.5498 43.3935 25.486C43.4281 25.4222 43.4841 25.3727 43.5516 25.346L43.6712 25.3759ZM43.6712 25.6948C43.6712 25.6948 43.7309 25.6948 43.7309 25.6151C43.7309 25.5354 43.731 25.5453 43.6712 25.5453V25.6948ZM43.7808 25.7745C43.7987 25.8026 43.8225 25.8264 43.8505 25.8443H43.7808C43.7808 25.8443 43.731 25.7845 43.6712 25.7048V25.8144H43.5217V25.5553H43.6811C43.7409 25.5553 43.7907 25.5553 43.7907 25.635C43.7903 25.6567 43.7834 25.6777 43.771 25.6954C43.7585 25.7131 43.7412 25.7268 43.721 25.7347L43.7808 25.7745Z" fill="black"/>
</svg>
