<svg width="48" height="48" viewBox="0 0 48 48" fill="none" xmlns="http://www.w3.org/2000/svg">
<path d="M40.7201 8.77H7.27987C6.93077 8.74049 6.60554 8.58179 6.36853 8.32531C6.13152 8.06883 6 7.73326 6 7.385C6 7.03674 6.13152 6.70117 6.36853 6.44469C6.60554 6.18821 6.93077 6.02951 7.27987 6H40.7201C41.0692 6.02951 41.3945 6.18821 41.6315 6.44469C41.8685 6.70117 42 7.03674 42 7.385C42 7.73326 41.8685 8.06883 41.6315 8.32531C41.3945 8.58179 41.0692 8.74049 40.7201 8.77Z" fill="black"/>
<path d="M35.1468 25.38H12.8532C12.485 25.38 12.1319 25.2346 11.8716 24.9758C11.6112 24.717 11.4649 24.366 11.4649 24C11.4649 23.634 11.6112 23.283 11.8716 23.0242C12.1319 22.7654 12.485 22.62 12.8532 22.62H35.1468C35.515 22.62 35.8681 22.7654 36.1284 23.0242C36.3888 23.283 36.5351 23.634 36.5351 24C36.5351 24.366 36.3888 24.717 36.1284 24.9758C35.8681 25.2346 35.515 25.38 35.1468 25.38Z" fill="black"/>
<path d="M40.7201 42H7.27987C6.93077 41.9705 6.60554 41.8118 6.36853 41.5553C6.13152 41.2988 6 40.9633 6 40.615C6 40.2667 6.13152 39.9312 6.36853 39.6747C6.60554 39.4182 6.93077 39.2595 7.27987 39.23H40.7201C41.0692 39.2595 41.3945 39.4182 41.6315 39.6747C41.8685 39.9312 42 40.2667 42 40.615C42 40.9633 41.8685 41.2988 41.6315 41.5553C41.3945 41.8118 41.0692 41.9705 40.7201 42Z" fill="black"/>
</svg>
