<svg width="48" height="48" viewBox="0 0 48 48" fill="none" xmlns="http://www.w3.org/2000/svg">
<path d="M7.38 42C7.014 42 6.66299 41.8541 6.40419 41.5946C6.14539 41.335 6 40.9829 6 40.6158V7.27603C6.02951 6.92798 6.18821 6.60372 6.44469 6.36742C6.70117 6.13112 7.03674 6 7.385 6C7.73326 6 8.06883 6.13112 8.32531 6.36742C8.58179 6.60372 8.74049 6.92798 8.77 7.27603V40.6158C8.77 40.7984 8.73398 40.9793 8.66401 41.1478C8.59403 41.3164 8.49148 41.4695 8.36228 41.5981C8.23307 41.7268 8.07976 41.8285 7.91117 41.8975C7.74259 41.9665 7.56206 42.0013 7.38 42Z" fill="black"/>
<path d="M24 36.4433C23.634 36.4433 23.283 36.2975 23.0242 36.0379C22.7654 35.7784 22.62 35.4263 22.62 35.0592V12.8327C22.62 12.4656 22.7654 12.1135 23.0242 11.8539C23.283 11.5943 23.634 11.4485 24 11.4485C24.366 11.4485 24.717 11.5943 24.9758 11.8539C25.2346 12.1135 25.38 12.4656 25.38 12.8327V35.0592C25.38 35.241 25.3443 35.4209 25.275 35.5889C25.2056 35.7568 25.104 35.9094 24.9758 36.0379C24.8477 36.1665 24.6955 36.2684 24.5281 36.338C24.3607 36.4075 24.1812 36.4433 24 36.4433Z" fill="black"/>
<path d="M40.62 42C40.4379 42.0013 40.2574 41.9665 40.0888 41.8975C39.9202 41.8285 39.7669 41.7268 39.6377 41.5981C39.5085 41.4695 39.406 41.3164 39.336 41.1478C39.266 40.9793 39.23 40.7984 39.23 40.6158V7.27603C39.2595 6.92798 39.4182 6.60372 39.6747 6.36742C39.9312 6.13112 40.2667 6 40.615 6C40.9633 6 41.2988 6.13112 41.5553 6.36742C41.8118 6.60372 41.9705 6.92798 42 7.27603V40.6158C42 40.9829 41.8546 41.335 41.5958 41.5946C41.337 41.8541 40.986 42 40.62 42Z" fill="black"/>
</svg>
