<svg width="48" height="48" viewBox="0 0 48 48" fill="none" xmlns="http://www.w3.org/2000/svg">
<path d="M39.43 11.14H8.57C7.88839 11.14 7.2347 10.8692 6.75274 10.3873C6.27077 9.9053 6 9.25161 6 8.57C6 7.88839 6.27077 7.2347 6.75274 6.75274C7.2347 6.27077 7.88839 6 8.57 6H39.43C40.1116 6 40.7653 6.27077 41.2473 6.75274C41.7292 7.2347 42 7.88839 42 8.57C42 9.25161 41.7292 9.9053 41.2473 10.3873C40.7653 10.8692 40.1116 11.14 39.43 11.14Z" fill="black"/>
<path d="M34.29 26.57H13.71C13.0284 26.57 12.3747 26.2992 11.8927 25.8173C11.4108 25.3353 11.14 24.6816 11.14 24C11.14 23.3184 11.4108 22.6647 11.8927 22.1827C12.3747 21.7008 13.0284 21.43 13.71 21.43H34.29C34.9716 21.43 35.6253 21.7008 36.1073 22.1827C36.5892 22.6647 36.86 23.3184 36.86 24C36.86 24.6816 36.5892 25.3353 36.1073 25.8173C35.6253 26.2992 34.9716 26.57 34.29 26.57Z" fill="black"/>
<path d="M39.43 42H8.57C7.88839 42 7.2347 41.7292 6.75274 41.2473C6.27077 40.7653 6 40.1116 6 39.43C6 38.7484 6.27077 38.0947 6.75274 37.6127C7.2347 37.1308 7.88839 36.86 8.57 36.86H39.43C40.1116 36.86 40.7653 37.1308 41.2473 37.6127C41.7292 38.0947 42 38.7484 42 39.43C42 40.1116 41.7292 40.7653 41.2473 41.2473C40.7653 41.7292 40.1116 42 39.43 42Z" fill="black"/>
</svg>
