<svg width="48" height="48" viewBox="0 0 48 48" fill="none" xmlns="http://www.w3.org/2000/svg">
<path d="M8.57 42C7.88839 42 7.2347 41.7292 6.75274 41.2473C6.27077 40.7653 6 40.1116 6 39.43V8.57C6 7.88839 6.27077 7.2347 6.75274 6.75274C7.2347 6.27077 7.88839 6 8.57 6C9.25161 6 9.9053 6.27077 10.3873 6.75274C10.8692 7.2347 11.14 7.88839 11.14 8.57V39.43C11.14 40.1116 10.8692 40.7653 10.3873 41.2473C9.9053 41.7292 9.25161 42 8.57 42Z" fill="black"/>
<path d="M24 36.86C23.3184 36.86 22.6647 36.5892 22.1827 36.1073C21.7008 35.6253 21.43 34.9716 21.43 34.29V13.71C21.43 13.0284 21.7008 12.3747 22.1827 11.8927C22.6647 11.4108 23.3184 11.14 24 11.14C24.6816 11.14 25.3353 11.4108 25.8173 11.8927C26.2992 12.3747 26.57 13.0284 26.57 13.71V34.29C26.57 34.9716 26.2992 35.6253 25.8173 36.1073C25.3353 36.5892 24.6816 36.86 24 36.86Z" fill="black"/>
<path d="M39.43 42C38.7484 42 38.0947 41.7292 37.6127 41.2473C37.1308 40.7653 36.86 40.1116 36.86 39.43V8.57C36.86 7.88839 37.1308 7.2347 37.6127 6.75274C38.0947 6.27077 38.7484 6 39.43 6C40.1116 6 40.7653 6.27077 41.2473 6.75274C41.7292 7.2347 42 7.88839 42 8.57V39.43C42 40.1116 41.7292 40.7653 41.2473 41.2473C40.7653 41.7292 40.1116 42 39.43 42Z" fill="black"/>
</svg>
