<svg width="48" height="48" viewBox="0 0 48 48" fill="none" xmlns="http://www.w3.org/2000/svg">
<path d="M39.16 27.1199H8.84C8.08679 27.1199 7.36442 26.8207 6.83182 26.2881C6.29921 25.7555 6 25.0331 6 24.2799C6 23.5267 6.29921 22.8043 6.83182 22.2717C7.36442 21.7391 8.08679 21.4399 8.84 21.4399H39.16C39.9132 21.4399 40.6356 21.7391 41.1682 22.2717C41.7008 22.8043 42 23.5267 42 24.2799C42 25.0331 41.7008 25.7555 41.1682 26.2881C40.6356 26.8207 39.9132 27.1199 39.16 27.1199Z" fill="black"/>
<path d="M26.8633 12.84C26.85 11.2578 25.5566 9.98587 23.9744 9.99913C22.3921 10.0124 21.1202 11.3058 21.1335 12.888C21.1467 14.4703 22.4401 15.7422 24.0224 15.7289C25.6046 15.7157 26.8765 14.4223 26.8633 12.84Z" fill="black"/>
<path d="M26.8545 35.6692C26.8413 34.087 25.5479 32.8151 23.9656 32.8283C22.3834 32.8416 21.1115 34.135 21.1247 35.7172C21.138 37.2995 22.4314 38.5714 24.0136 38.5581C25.5959 38.5449 26.8678 37.2515 26.8545 35.6692Z" fill="black"/>
</svg>
