<svg width="48" height="48" viewBox="0 0 48 48" fill="none" xmlns="http://www.w3.org/2000/svg">
<path d="M23.9876 13.5374C23.4638 13.5375 22.961 13.3321 22.5871 12.9653C22.2132 12.5986 21.9981 12.0998 21.9881 11.5761C21.9796 11.3082 22.025 11.0414 22.1216 10.7914C22.2183 10.5414 22.3642 10.3134 22.5507 10.1209C22.7373 9.92848 22.9606 9.77548 23.2074 9.67104C23.4543 9.5666 23.7196 9.51285 23.9876 9.51298C24.5147 9.50948 25.0222 9.71299 25.4009 10.0798C25.7796 10.4465 25.9992 10.9472 26.0125 11.4742C26.0195 11.9981 25.8205 12.5037 25.4585 12.8824C25.0965 13.2611 24.6003 13.4825 24.0767 13.4992L23.9876 13.5374Z" fill="black"/>
<path d="M40.5653 25.5543H7.43472C7.04394 25.5228 6.67934 25.3453 6.41348 25.0572C6.14762 24.7691 6 24.3914 6 23.9994C6 23.6073 6.14762 23.2297 6.41348 22.9415C6.67934 22.6534 7.04394 22.476 7.43472 22.4445H40.5653C40.9561 22.476 41.3207 22.6534 41.5865 22.9415C41.8524 23.2297 42 23.6073 42 23.9994C42 24.3914 41.8524 24.7691 41.5865 25.0572C41.3207 25.3453 40.9561 25.5228 40.5653 25.5543Z" fill="black"/>
<path d="M22.5891 37.9236C22.9623 38.2847 23.4643 38.487 23.9872 38.4869H24.0507C24.3207 38.4823 24.5869 38.4238 24.8333 38.3149C25.0796 38.2059 25.301 38.0488 25.484 37.8531C25.6671 37.6573 25.8079 37.427 25.8981 37.176C25.9882 36.9249 26.0259 36.6585 26.0086 36.3928C26.0053 36.1348 25.9503 35.88 25.8468 35.6431C25.7432 35.4062 25.5932 35.1918 25.4053 35.0123C25.2174 34.8328 24.9954 34.6918 24.752 34.5973C24.5086 34.5028 24.2487 34.4567 23.9872 34.4617C23.714 34.4611 23.4436 34.5159 23.1928 34.6226C22.9419 34.7292 22.716 34.8856 22.5289 35.0819C22.3417 35.2782 22.1975 35.5103 22.105 35.7638C22.0125 36.0173 21.9738 36.2869 21.9912 36.5558C22.0011 37.0714 22.2158 37.5625 22.5891 37.9236Z" fill="black"/>
</svg>
