<svg width="48" height="48" viewBox="0 0 48 48" fill="none" xmlns="http://www.w3.org/2000/svg">
<path d="M43.61 20.84C42.6438 20.2125 41.4991 19.9175 40.35 20C39.7871 20.0094 39.2256 20.0595 38.67 20.15C38.5229 19.271 38.1911 18.4333 37.6964 17.6921C37.2016 16.9508 36.5553 16.323 35.8 15.85L35.23 15.52L34.85 16.07C34.3878 16.8028 34.0499 17.607 33.85 18.45C33.6522 19.1954 33.6105 19.9737 33.7275 20.736C33.8445 21.4983 34.1177 22.2282 34.53 22.88C33.6133 23.2978 32.626 23.5387 31.62 23.59H5.24998C4.92018 23.59 4.60375 23.7203 4.36961 23.9526C4.13548 24.1848 4.00262 24.5002 3.99998 24.83C3.96854 27.1387 4.36174 29.4335 5.15998 31.6C5.86865 33.7375 7.27805 35.5733 9.15998 36.81C11.16 38.01 14.33 38.7 17.95 38.7C19.5902 38.7088 21.2276 38.5614 22.84 38.26C25.0773 37.8659 27.2335 37.1021 29.22 36C30.8498 35.0518 32.3182 33.8501 33.57 32.44C35.4084 30.2631 36.8472 27.7781 37.82 25.1H38.19C39.0096 25.1333 39.8275 25.0017 40.5953 24.7132C41.3631 24.4246 42.0652 23.9848 42.66 23.42C43.1738 22.9316 43.5763 22.3381 43.84 21.68L44 21.2L43.61 20.84Z" fill="black"/>
<path d="M7.68998 22.81H11.23C11.2698 22.8114 11.3094 22.8046 11.3464 22.79C11.3834 22.7754 11.4171 22.7534 11.4452 22.7252C11.4734 22.6971 11.4954 22.6635 11.51 22.6264C11.5246 22.5894 11.5314 22.5498 11.53 22.51V19.36C11.5313 19.3198 11.5246 19.2797 11.5101 19.2421C11.4956 19.2046 11.4737 19.1703 11.4457 19.1414C11.4177 19.1124 11.3842 19.0894 11.3471 19.0738C11.3101 19.0581 11.2702 19.05 11.23 19.05H7.68998C7.64973 19.05 7.60988 19.0581 7.57281 19.0738C7.53575 19.0894 7.50222 19.1124 7.47423 19.1414C7.44624 19.1703 7.42435 19.2046 7.40988 19.2421C7.3954 19.2797 7.38864 19.3198 7.38998 19.36V22.51C7.38858 22.5498 7.39539 22.5894 7.40997 22.6264C7.42455 22.6635 7.4466 22.6971 7.47474 22.7252C7.50288 22.7534 7.53651 22.7754 7.57354 22.79C7.61057 22.8046 7.6502 22.8114 7.68998 22.81Z" fill="black"/>
<path d="M12.56 22.81H16.09C16.1302 22.8113 16.1703 22.8046 16.2079 22.7901C16.2454 22.7756 16.2797 22.7537 16.3086 22.7257C16.3375 22.6978 16.3605 22.6642 16.3762 22.6272C16.3919 22.5901 16.4 22.5503 16.4 22.51V19.36C16.4 19.2778 16.3673 19.1989 16.3092 19.1408C16.251 19.0827 16.1722 19.05 16.09 19.05H12.56C12.4778 19.05 12.3989 19.0827 12.3408 19.1408C12.2826 19.1989 12.25 19.2778 12.25 19.36V22.51C12.25 22.5503 12.258 22.5901 12.2737 22.6272C12.2894 22.6642 12.3124 22.6978 12.3414 22.7257C12.3703 22.7537 12.4045 22.7756 12.4421 22.7901C12.4797 22.8046 12.5197 22.8113 12.56 22.81Z" fill="black"/>
<path d="M17.5 22.81H21C21.0402 22.8113 21.0803 22.8046 21.1179 22.7901C21.1554 22.7756 21.1897 22.7537 21.2186 22.7257C21.2475 22.6978 21.2705 22.6642 21.2862 22.6272C21.3019 22.5901 21.31 22.5503 21.31 22.51V19.36C21.31 19.2778 21.2773 19.1989 21.2192 19.1408C21.161 19.0827 21.0822 19.05 21 19.05H17.5C17.4593 19.05 17.419 19.058 17.3813 19.0736C17.3437 19.0892 17.3096 19.112 17.2808 19.1408C17.252 19.1696 17.2292 19.2038 17.2136 19.2414C17.198 19.279 17.19 19.3193 17.19 19.36V22.51C17.19 22.5503 17.198 22.5901 17.2137 22.6272C17.2294 22.6642 17.2524 22.6978 17.2814 22.7257C17.3103 22.7537 17.3445 22.7756 17.3821 22.7901C17.4197 22.8046 17.4597 22.8113 17.5 22.81Z" fill="black"/>
<path d="M22.38 22.81H25.91C25.9502 22.8113 25.9903 22.8046 26.0279 22.7901C26.0654 22.7756 26.0997 22.7537 26.1286 22.7257C26.1575 22.6978 26.1805 22.6642 26.1962 22.6272C26.2119 22.5901 26.22 22.5503 26.22 22.51V19.36C26.22 19.2778 26.1873 19.1989 26.1292 19.1408C26.071 19.0827 25.9922 19.05 25.91 19.05H22.38C22.2978 19.05 22.2189 19.0827 22.1608 19.1408C22.1026 19.1989 22.07 19.2778 22.07 19.36V22.51C22.07 22.5503 22.078 22.5901 22.0937 22.6272C22.1094 22.6642 22.1324 22.6978 22.1614 22.7257C22.1903 22.7537 22.2245 22.7756 22.2621 22.7901C22.2997 22.8046 22.3397 22.8113 22.38 22.81Z" fill="black"/>
<path d="M12.56 18.29H16.09C16.1688 18.2902 16.2448 18.2603 16.3024 18.2064C16.36 18.1525 16.3949 18.0787 16.4 18V14.83C16.4 14.7897 16.3919 14.7499 16.3762 14.7128C16.3605 14.6758 16.3375 14.6422 16.3086 14.6143C16.2797 14.5863 16.2454 14.5644 16.2079 14.5499C16.1703 14.5354 16.1302 14.5287 16.09 14.53H12.56C12.5197 14.5287 12.4797 14.5354 12.4421 14.5499C12.4045 14.5644 12.3703 14.5863 12.3414 14.6143C12.3124 14.6422 12.2894 14.6758 12.2737 14.7128C12.258 14.7499 12.25 14.7897 12.25 14.83V18C12.25 18.0822 12.2826 18.1611 12.3408 18.2192C12.3989 18.2773 12.4778 18.31 12.56 18.31" fill="black"/>
<path d="M17.5 18.29H21C21.0415 18.2941 21.0834 18.2898 21.1232 18.2773C21.1631 18.2648 21.2 18.2444 21.2317 18.2174C21.2634 18.1903 21.2894 18.1571 21.308 18.1197C21.3266 18.0824 21.3375 18.0417 21.34 18V14.83C21.34 14.7897 21.3319 14.7499 21.3162 14.7128C21.3005 14.6758 21.2775 14.6422 21.2486 14.6143C21.2197 14.5863 21.1854 14.5644 21.1479 14.5499C21.1103 14.5354 21.0702 14.5287 21.03 14.53H17.5C17.4597 14.5287 17.4197 14.5354 17.3821 14.5499C17.3445 14.5644 17.3103 14.5863 17.2814 14.6143C17.2524 14.6422 17.2294 14.6758 17.2137 14.7128C17.198 14.7499 17.19 14.7897 17.19 14.83V18C17.19 18.0407 17.198 18.081 17.2136 18.1186C17.2292 18.1562 17.252 18.1904 17.2808 18.2192C17.3096 18.248 17.3437 18.2708 17.3813 18.2864C17.419 18.302 17.4593 18.31 17.5 18.31" fill="black"/>
<path d="M22.38 18.29H25.91C25.9888 18.2902 26.0648 18.2603 26.1224 18.2064C26.18 18.1525 26.2149 18.0787 26.22 18V14.83C26.22 14.7897 26.2119 14.7499 26.1962 14.7128C26.1805 14.6758 26.1575 14.6422 26.1286 14.6143C26.0997 14.5863 26.0654 14.5644 26.0279 14.5499C25.9903 14.5354 25.9502 14.5287 25.91 14.53H22.38C22.3397 14.5287 22.2997 14.5354 22.2621 14.5499C22.2245 14.5644 22.1903 14.5863 22.1614 14.6143C22.1324 14.6422 22.1094 14.6758 22.0937 14.7128C22.078 14.7499 22.07 14.7897 22.07 14.83V18C22.07 18.0822 22.1026 18.1611 22.1608 18.2192C22.2189 18.2773 22.2978 18.31 22.38 18.31" fill="black"/>
<path d="M22.38 13.76H25.91C25.9502 13.7613 25.9903 13.7546 26.0279 13.7401C26.0654 13.7256 26.0997 13.7037 26.1286 13.6757C26.1575 13.6478 26.1805 13.6142 26.1962 13.5772C26.2119 13.5401 26.22 13.5003 26.22 13.46V10.31C26.22 10.2278 26.1873 10.1489 26.1292 10.0908C26.071 10.0327 25.9922 10 25.91 10H22.38C22.2978 10 22.2189 10.0327 22.1608 10.0908C22.1026 10.1489 22.07 10.2278 22.07 10.31V13.46C22.07 13.5003 22.078 13.5401 22.0937 13.5772C22.1094 13.6142 22.1324 13.6478 22.1614 13.6757C22.1903 13.7037 22.2245 13.7256 22.2621 13.7401C22.2997 13.7546 22.3397 13.7613 22.38 13.76Z" fill="black"/>
<path d="M27.31 22.81H30.84C30.8802 22.8113 30.9203 22.8046 30.9579 22.7901C30.9954 22.7756 31.0297 22.7537 31.0586 22.7257C31.0875 22.6978 31.1105 22.6642 31.1262 22.6272C31.1419 22.5901 31.15 22.5503 31.15 22.51V19.36C31.15 19.2778 31.1173 19.1989 31.0592 19.1408C31.001 19.0827 30.9222 19.05 30.84 19.05H27.31C27.2278 19.05 27.1489 19.0827 27.0908 19.1408C27.0326 19.1989 27 19.2778 27 19.36V22.51C27 22.5503 27.008 22.5901 27.0237 22.6272C27.0394 22.6642 27.0624 22.6978 27.0914 22.7257C27.1203 22.7537 27.1545 22.7756 27.1921 22.7901C27.2297 22.8046 27.2697 22.8113 27.31 22.81Z" fill="black"/>
</svg>
