<svg width="48" height="48" viewBox="0 0 48 48" fill="none" xmlns="http://www.w3.org/2000/svg">
<path d="M22.807 21.8424C22.7052 21.8397 22.6064 21.8768 22.5317 21.9459C22.457 22.0151 22.4122 22.1107 22.4071 22.2123V24.132C22.1892 23.9549 21.9384 23.8229 21.6691 23.7435C21.3998 23.6642 21.1174 23.6392 20.8384 23.6699C20.5593 23.7006 20.2891 23.7864 20.0435 23.9223C19.7979 24.0583 19.5818 24.2417 19.4076 24.4619C19.1111 24.8584 18.9658 25.3476 18.9977 25.8416C18.9508 26.1452 18.9701 26.4553 19.0543 26.7507C19.1385 27.0461 19.2856 27.3198 19.4855 27.553C19.6855 27.7862 19.9335 27.9734 20.2125 28.1018C20.4916 28.2301 20.7951 28.2966 21.1023 28.2966C21.4095 28.2966 21.713 28.2301 21.9921 28.1018C22.2712 27.9734 22.5192 27.7862 22.7191 27.553C22.919 27.3198 23.0661 27.0461 23.1503 26.7507C23.2345 26.4553 23.2538 26.1452 23.2069 25.8416V22.2423C23.2086 22.1897 23.1987 22.1374 23.178 22.089C23.1573 22.0407 23.1262 21.9974 23.0869 21.9624C23.0507 21.9246 23.0072 21.8945 22.9592 21.8739C22.9111 21.8533 22.8593 21.8426 22.807 21.8424ZM22.3071 26.3015C22.1688 26.6195 21.9151 26.8732 21.5972 27.0114C21.2764 27.1404 20.9182 27.1404 20.5974 27.0114C20.2763 26.8707 20.0232 26.6097 19.8924 26.2844C19.7615 25.9592 19.7634 25.5956 19.8975 25.2717C20.0362 24.9489 20.297 24.6941 20.623 24.563C20.949 24.4318 21.3136 24.435 21.6372 24.5719C21.9575 24.7067 22.2123 24.9615 22.3471 25.2817C22.4136 25.44 22.4479 25.61 22.4479 25.7817C22.4479 25.9533 22.4136 26.1233 22.3471 26.2816" fill="black"/>
<path d="M27.2361 24.2919C27.0393 24.0948 26.8055 23.9385 26.5482 23.8318C26.2908 23.7251 26.015 23.6702 25.7364 23.6702C25.4578 23.6702 25.182 23.7251 24.9247 23.8318C24.6673 23.9385 24.4336 24.0948 24.2367 24.2919C24.0324 24.4938 23.872 24.7356 23.7653 25.0022C23.6587 25.2688 23.6081 25.5546 23.6168 25.8416C23.6168 26.12 23.6717 26.3956 23.7782 26.6528C23.8847 26.9099 24.0408 27.1436 24.2376 27.3404C24.4345 27.5372 24.6681 27.6934 24.9253 27.7999C25.1824 27.9064 25.4581 27.9612 25.7364 27.9612C26.0148 27.9612 26.2904 27.9064 26.5476 27.7999C26.8047 27.6934 27.0384 27.5372 27.2352 27.3404C27.432 27.1436 27.5881 26.9099 27.6947 26.6528C27.8012 26.3956 27.856 26.12 27.856 25.8416C27.8566 25.5615 27.8058 25.2836 27.706 25.0218C27.5985 24.7649 27.4384 24.5334 27.2361 24.3419V24.2919ZM26.9662 26.3415C26.8239 26.6567 26.5715 26.9091 26.2563 27.0514C25.9355 27.1804 25.5773 27.1804 25.2565 27.0514C24.9386 26.9131 24.6849 26.6595 24.5466 26.3415C24.478 26.1816 24.4419 26.0095 24.4405 25.8354C24.4391 25.6614 24.4725 25.4888 24.5386 25.3277C24.6047 25.1667 24.7022 25.0204 24.8255 24.8975C24.9487 24.7746 25.0953 24.6775 25.2565 24.6119C25.4143 24.5436 25.5845 24.5084 25.7564 24.5084C25.9284 24.5084 26.0985 24.5436 26.2563 24.6119C26.4147 24.6741 26.5579 24.7696 26.6762 24.8918C26.7963 25.0178 26.8944 25.1632 26.9662 25.3217C27.0327 25.48 27.067 25.65 27.067 25.8216C27.067 25.9933 27.0327 26.1633 26.9662 26.3215" fill="black"/>
<path d="M35.9944 24.062C36.0047 24.0125 36.0047 23.9615 35.9944 23.912C35.9739 23.8629 35.9432 23.8186 35.9045 23.782C35.8703 23.7476 35.8295 23.7203 35.7845 23.702C35.7317 23.6915 35.6773 23.6915 35.6245 23.702C35.5502 23.7016 35.4774 23.7225 35.4146 23.762L33.135 25.2018V22.2023C33.1213 22.1072 33.0711 22.0211 32.995 21.9624C32.9298 21.8923 32.8405 21.8495 32.7451 21.8424C32.6407 21.8424 32.5405 21.8831 32.4658 21.956C32.391 22.0288 32.3478 22.128 32.3451 22.2323V27.5113C32.3477 27.6166 32.3906 27.7168 32.4651 27.7913C32.5395 27.8658 32.6398 27.9087 32.7451 27.9112C32.7971 27.9113 32.8487 27.9008 32.8966 27.8806C32.9446 27.8604 32.988 27.8308 33.0244 27.7935C33.0607 27.7562 33.0892 27.7121 33.1082 27.6636C33.1272 27.6151 33.1363 27.5634 33.135 27.5113V26.1416L33.5949 25.8416L35.3546 27.8413C35.3887 27.8748 35.4294 27.901 35.4742 27.9182C35.5189 27.9354 35.5667 27.9433 35.6145 27.9412C35.6673 27.9517 35.7217 27.9517 35.7745 27.9412C35.8761 27.8786 35.9536 27.7835 35.9944 27.6713C36.0039 27.6217 36.0039 27.5709 35.9944 27.5213C35.9956 27.4697 35.9864 27.4184 35.9675 27.3703C35.9487 27.3223 35.9204 27.2784 35.8845 27.2414L34.2748 25.4017L35.8645 24.4019C35.9152 24.3626 35.9542 24.3101 35.9771 24.2502C36 24.1902 36.006 24.1251 35.9944 24.062Z" fill="black"/>
<path d="M29.4357 24.8418C29.5604 24.7226 29.7062 24.6277 29.8656 24.5619C30.0288 24.4886 30.2068 24.4543 30.3855 24.4619C30.5428 24.4544 30.6999 24.4817 30.8454 24.5419C30.9931 24.5997 31.1287 24.6845 31.2454 24.7918C31.3207 24.8466 31.4122 24.8747 31.5053 24.8718C31.5588 24.8763 31.6126 24.8687 31.6627 24.8497C31.7129 24.8306 31.7582 24.8006 31.7952 24.7618C31.8661 24.6858 31.9054 24.5858 31.9052 24.4819C31.9068 24.4245 31.895 24.3675 31.8707 24.3154C31.8464 24.2633 31.8103 24.2176 31.7653 24.182C31.3884 23.8392 30.8949 23.6533 30.3855 23.6621C30.0412 23.6597 29.7013 23.7409 29.3953 23.8987C29.0891 24.0565 28.8259 24.2862 28.628 24.568C28.4302 24.8499 28.3036 25.1755 28.2592 25.517C28.2148 25.8585 28.2539 26.2057 28.3731 26.5288C28.4923 26.8519 28.6881 27.1412 28.9437 27.3721C29.1992 27.6029 29.507 27.7683 29.8405 27.8541C30.174 27.9398 30.5234 27.9435 30.8586 27.8646C31.1938 27.7858 31.5049 27.6268 31.7653 27.4013C31.8464 27.3224 31.8931 27.2146 31.8952 27.1014C31.8954 27.0014 31.857 26.9051 31.7882 26.8325C31.7193 26.7599 31.6252 26.7166 31.5253 26.7115C31.436 26.7133 31.3491 26.7411 31.2753 26.7915C31.1587 26.8988 31.0231 26.9836 30.8754 27.0414C30.7275 27.0929 30.5721 27.1199 30.4155 27.1214C30.2372 27.1241 30.0602 27.0901 29.8956 27.0214C29.737 26.9496 29.5917 26.8516 29.4657 26.7315C29.2166 26.4821 29.0767 26.1441 29.0767 25.7916C29.0767 25.4392 29.2166 25.1012 29.4657 24.8518" fill="black"/>
<path d="M43.8929 23.932C43.8154 23.86 43.7234 23.8054 43.623 23.772C43.51 23.7312 43.3925 23.7043 43.273 23.6921H42.9131C42.6664 23.7009 42.423 23.7516 42.1933 23.842C41.9714 23.9228 41.7651 24.0412 41.5834 24.192V24.062C41.5808 24.0094 41.5679 23.9579 41.5454 23.9104C41.5229 23.8628 41.4912 23.8202 41.4522 23.7849C41.4132 23.7496 41.3676 23.7224 41.3181 23.7047C41.2685 23.6871 41.216 23.6794 41.1634 23.6821C41.0635 23.6846 40.9683 23.7254 40.8976 23.7961C40.8269 23.8668 40.7861 23.962 40.7835 24.062V27.5213C40.7935 27.6256 40.8421 27.7224 40.9198 27.7927C40.9975 27.863 41.0987 27.9017 41.2034 27.9012C41.3019 27.8943 41.3945 27.852 41.4643 27.7822C41.5341 27.7124 41.5764 27.6198 41.5834 27.5213V25.8416C41.5758 25.6629 41.61 25.4849 41.6833 25.3217C41.7554 25.1436 41.8606 24.9808 41.9933 24.8418C42.1197 24.7248 42.2651 24.6302 42.4232 24.5619C42.5864 24.4886 42.7644 24.4543 42.9431 24.4619C43.1206 24.4577 43.2972 24.4882 43.463 24.5519C43.5155 24.5654 43.5705 24.5654 43.623 24.5519C43.6758 24.5624 43.7301 24.5624 43.7829 24.5519C43.8279 24.5336 43.8687 24.5064 43.9029 24.4719C43.9406 24.4383 43.9712 24.3975 43.9929 24.3519C44.0024 24.3024 44.0024 24.2515 43.9929 24.202C43.9925 24.1011 43.9531 24.0044 43.8829 23.932" fill="black"/>
<path d="M40.2036 24.9718C40.0348 24.5827 39.7551 24.252 39.3995 24.0209C39.0439 23.7897 38.6281 23.6684 38.204 23.6721C37.924 23.6759 37.6474 23.7353 37.3904 23.8467C37.1334 23.9581 36.9011 24.1193 36.7068 24.3211C36.5125 24.5228 36.3601 24.7611 36.2584 25.0221C36.1567 25.2831 36.1078 25.5616 36.1144 25.8416C36.1126 26.249 36.2283 26.6482 36.4474 26.9915C36.6666 27.3348 36.9801 27.6077 37.3503 27.7775C37.7205 27.9473 38.1318 28.0069 38.535 27.949C38.9382 27.8912 39.3162 27.7184 39.6238 27.4513L39.7137 27.3513C39.7727 27.2632 39.7953 27.1556 39.7766 27.0512C39.758 26.9468 39.6996 26.8537 39.6138 26.7915C39.5444 26.7355 39.4579 26.7049 39.3688 26.7049C39.2797 26.7049 39.1932 26.7355 39.1238 26.7915L39.0839 26.8414C38.9706 26.9358 38.8421 27.0102 38.7039 27.0614C38.5569 27.1153 38.4005 27.1391 38.244 27.1314C38.1019 27.1311 37.9606 27.1109 37.8241 27.0714C37.5612 26.9757 37.3319 26.8054 37.1642 26.5815C37.0853 26.4624 37.0278 26.3304 36.9943 26.1916H39.9937C40.0976 26.1917 40.1976 26.1524 40.2736 26.0816C40.3291 26.0136 40.3607 25.9293 40.3636 25.8416C40.3658 25.5636 40.3113 25.2881 40.2036 25.0318V24.9718ZM36.9943 25.4017C37.0266 25.2638 37.088 25.1343 37.1742 25.0218C37.2532 24.9028 37.3552 24.8008 37.4742 24.7219C37.5865 24.6391 37.7114 24.5749 37.8441 24.5319C37.9801 24.4892 38.1215 24.4657 38.264 24.4619C38.4067 24.464 38.5483 24.4876 38.6839 24.5319C38.9525 24.622 39.1865 24.7932 39.3538 25.0218C39.4387 25.1365 39.503 25.265 39.5438 25.4017H36.9943Z" fill="black"/>
<path d="M42.5332 27.3413C42.4969 27.3413 42.4609 27.3486 42.4275 27.3628C42.3941 27.377 42.3639 27.3978 42.3387 27.4239C42.3135 27.4501 42.2938 27.481 42.2808 27.5149C42.2679 27.5488 42.2619 27.585 42.2632 27.6213C42.2658 27.6938 42.2965 27.7625 42.3487 27.8128C42.4009 27.8632 42.4706 27.8913 42.5432 27.8912C42.6157 27.8887 42.6843 27.858 42.7347 27.8058C42.7851 27.7536 42.8132 27.6838 42.8131 27.6113C42.8132 27.575 42.8059 27.5391 42.7917 27.5056C42.7775 27.4722 42.7567 27.442 42.7306 27.4168C42.7044 27.3916 42.6735 27.3719 42.6396 27.359C42.6056 27.346 42.5695 27.34 42.5332 27.3413ZM42.5332 27.8313C42.4897 27.8332 42.4467 27.8222 42.4095 27.7997C42.3723 27.7772 42.3426 27.7441 42.3242 27.7047C42.3058 27.6653 42.2994 27.6214 42.306 27.5784C42.3125 27.5354 42.3317 27.4953 42.361 27.4632C42.3903 27.4311 42.4285 27.4084 42.4707 27.398C42.5129 27.3875 42.5573 27.3899 42.5982 27.4046C42.6391 27.4194 42.6747 27.446 42.7005 27.481C42.7263 27.516 42.7411 27.5579 42.7431 27.6013C42.7434 27.6563 42.723 27.7094 42.6859 27.7502C42.6489 27.7909 42.598 27.8163 42.5432 27.8213" fill="black"/>
<path d="M42.5932 27.6213C42.6011 27.6213 42.6089 27.6197 42.6161 27.6167C42.6234 27.6137 42.63 27.6093 42.6356 27.6037C42.6412 27.5982 42.6456 27.5915 42.6486 27.5843C42.6516 27.577 42.6532 27.5692 42.6532 27.5613C42.66 27.5419 42.66 27.5207 42.6532 27.5013C42.6241 27.4906 42.5922 27.4906 42.5632 27.5013H42.4632V27.7713H42.5232V27.6413C42.5232 27.6413 42.5232 27.6413 42.5232 27.7013H42.5932C42.5919 27.678 42.5919 27.6546 42.5932 27.6313C42.5984 27.6222 42.6012 27.6118 42.6012 27.6013C42.6012 27.5908 42.5984 27.5804 42.5932 27.5713V27.6213ZM42.5232 27.5713V27.5213H42.5832C42.5832 27.5213 42.5832 27.5213 42.5232 27.5213" fill="black"/>
<path d="M18.2279 22.7322C17.8801 22.5097 17.4701 22.4045 17.0581 22.4323C16.8572 22.4339 16.6566 22.4506 16.4582 22.4823C16.4074 22.1704 16.2923 21.8724 16.1202 21.6073C15.948 21.3423 15.7227 21.1159 15.4584 20.9426L15.2184 20.8426L15.0885 21.0426C14.9149 21.3048 14.7896 21.596 14.7185 21.9024C14.655 22.1692 14.6471 22.4463 14.6953 22.7164C14.7434 22.9864 14.8467 23.2436 14.9985 23.4721C14.6845 23.6193 14.345 23.7042 13.9987 23.722H4.45051C4.33119 23.722 4.21675 23.7694 4.13238 23.8538C4.048 23.9382 4.0006 24.0526 4.0006 24.172C3.98951 25.0008 4.13188 25.8245 4.42052 26.6015C4.67243 27.371 5.18059 28.031 5.86024 28.4711C6.83006 28.9661 7.91193 29.2004 8.99964 29.151C9.58628 29.1561 10.1721 29.1059 10.7493 29.001C11.5549 28.8539 12.3292 28.5699 13.0389 28.1612C13.6383 27.8125 14.1756 27.3665 14.6286 26.8414C15.2868 26.0618 15.8013 25.1715 16.1483 24.212H16.2882C16.5822 24.2235 16.8755 24.1755 17.1505 24.0706C17.4254 23.9658 17.6763 23.8064 17.8879 23.6021C18.0761 23.4305 18.2231 23.2186 18.3178 22.9822V22.8122L18.2279 22.7322Z" fill="black"/>
<path d="M5.33034 23.4421H6.6001C6.61493 23.4437 6.62992 23.4419 6.64398 23.4369C6.65804 23.432 6.67081 23.4239 6.68135 23.4134C6.6919 23.4028 6.69995 23.3901 6.70492 23.376C6.70989 23.3619 6.71165 23.3469 6.71008 23.3321V22.2023C6.71008 22.1732 6.69849 22.1452 6.67787 22.1246C6.65724 22.1039 6.62927 22.0924 6.6001 22.0924H5.33034C5.30118 22.0924 5.2732 22.1039 5.25258 22.1246C5.23195 22.1452 5.22037 22.1732 5.22037 22.2023V23.3321C5.21879 23.3469 5.22055 23.3619 5.22552 23.376C5.23049 23.3901 5.23855 23.4028 5.24909 23.4134C5.25963 23.4239 5.2724 23.432 5.28646 23.4369C5.30052 23.4419 5.31552 23.4437 5.33034 23.4421Z" fill="black"/>
<path d="M7.08001 23.4421H8.33977C8.35503 23.4435 8.37041 23.4417 8.38493 23.4368C8.39945 23.4319 8.41278 23.424 8.42408 23.4136C8.43538 23.4033 8.44438 23.3907 8.45053 23.3767C8.45667 23.3626 8.45981 23.3474 8.45974 23.3321V22.2023C8.45974 22.1732 8.44816 22.1452 8.42753 22.1246C8.40691 22.1039 8.37893 22.0924 8.34976 22.0924H7.08001C7.05628 22.0991 7.03549 22.1136 7.02098 22.1335C7.00647 22.1535 6.99909 22.1777 7.00002 22.2023V23.3321C6.99996 23.3474 7.0031 23.3626 7.00924 23.3767C7.01538 23.3907 7.02439 23.4033 7.03569 23.4136C7.04698 23.424 7.06032 23.4319 7.07484 23.4368C7.08936 23.4417 7.10474 23.4435 7.12 23.4421" fill="black"/>
<path d="M8.84967 23.4421H10.1194C10.1343 23.4437 10.1492 23.4419 10.1633 23.4369C10.1774 23.432 10.1901 23.4239 10.2007 23.4134C10.2112 23.4028 10.2193 23.3901 10.2242 23.376C10.2292 23.3619 10.231 23.3469 10.2294 23.3321V22.2023C10.2294 22.1732 10.2178 22.1452 10.1972 22.1246C10.1766 22.1039 10.1486 22.0924 10.1194 22.0924H8.84967C8.8205 22.0924 8.79253 22.1039 8.7719 22.1246C8.75128 22.1452 8.73969 22.1732 8.73969 22.2023V23.3321C8.73811 23.3469 8.73988 23.3619 8.74485 23.376C8.74982 23.3901 8.75787 23.4028 8.76841 23.4134C8.77896 23.4239 8.79173 23.432 8.80579 23.4369C8.81985 23.4419 8.83484 23.4437 8.84967 23.4421Z" fill="black"/>
<path d="M10.6093 23.4421H11.8691C11.8851 23.4451 11.9016 23.4444 11.9173 23.4402C11.9331 23.4361 11.9477 23.4284 11.9601 23.4179C11.9726 23.4074 11.9825 23.3942 11.9893 23.3794C11.996 23.3646 11.9993 23.3484 11.9991 23.3321V22.2023C11.9991 22.187 11.996 22.1718 11.9898 22.1578C11.9837 22.1438 11.9747 22.1312 11.9634 22.1208C11.9521 22.1105 11.9388 22.1026 11.9242 22.0977C11.9097 22.0928 11.8943 22.091 11.8791 22.0924H10.6093C10.5941 22.091 10.5787 22.0928 10.5642 22.0977C10.5496 22.1026 10.5363 22.1105 10.525 22.1208C10.5137 22.1312 10.5047 22.1438 10.4986 22.1578C10.4924 22.1718 10.4893 22.187 10.4894 22.2023V23.3321C10.4893 23.3474 10.4924 23.3626 10.4986 23.3767C10.5047 23.3907 10.5137 23.4033 10.525 23.4136C10.5363 23.424 10.5496 23.4319 10.5642 23.4368C10.5787 23.4417 10.5941 23.4435 10.6093 23.4421Z" fill="black"/>
<path d="M7.08001 21.8424H8.33977C8.35503 21.8438 8.37041 21.842 8.38493 21.8371C8.39945 21.8322 8.41278 21.8243 8.42408 21.814C8.43538 21.8036 8.44438 21.791 8.45052 21.777C8.45667 21.7629 8.45981 21.7478 8.45974 21.7324V20.5827C8.45981 20.5673 8.45667 20.5522 8.45052 20.5381C8.44438 20.5241 8.43538 20.5115 8.42408 20.5011C8.41278 20.4908 8.39945 20.4829 8.38493 20.478C8.37041 20.4731 8.35503 20.4713 8.33977 20.4727H7.08001C7.05627 20.4794 7.03549 20.4939 7.02098 20.5138C7.00647 20.5338 6.99909 20.558 7.00002 20.5827V21.7124C6.99395 21.7402 6.99889 21.7693 7.0138 21.7936C7.02872 21.8178 7.05245 21.8353 7.08001 21.8424Z" fill="black"/>
<path d="M8.84967 21.8424H10.1194C10.1486 21.8424 10.1766 21.8308 10.1972 21.8102C10.2178 21.7896 10.2294 21.7616 10.2294 21.7324V20.5827C10.2294 20.5535 10.2178 20.5255 10.1972 20.5049C10.1766 20.4843 10.1486 20.4727 10.1194 20.4727H8.84967C8.8205 20.4727 8.79253 20.4843 8.7719 20.5049C8.75128 20.5255 8.73969 20.5535 8.73969 20.5827V21.7124C8.73672 21.7285 8.73736 21.7449 8.74154 21.7607C8.74572 21.7764 8.75335 21.791 8.76388 21.8035C8.7744 21.8159 8.78756 21.8259 8.80239 21.8326C8.81723 21.8393 8.83338 21.8427 8.84967 21.8424Z" fill="black"/>
<path d="M10.6093 21.8424H11.8691C11.8865 21.8439 11.9041 21.8416 11.9206 21.8356C11.937 21.8296 11.952 21.8201 11.9644 21.8077C11.9768 21.7953 11.9863 21.7804 11.9923 21.7639C11.9983 21.7475 12.0006 21.7299 11.9991 21.7124V20.5827C11.9965 20.5526 11.9828 20.5246 11.9606 20.5042C11.9383 20.4838 11.9092 20.4726 11.8791 20.4727H10.6093C10.5941 20.4713 10.5787 20.4731 10.5642 20.478C10.5496 20.4829 10.5363 20.4908 10.525 20.5011C10.5137 20.5115 10.5047 20.5241 10.4986 20.5381C10.4924 20.5522 10.4893 20.5673 10.4894 20.5827V21.7124C10.4861 21.7293 10.4869 21.7468 10.4916 21.7633C10.4964 21.7798 10.5049 21.795 10.5166 21.8077C10.5282 21.8203 10.5427 21.83 10.5588 21.8361C10.5749 21.8421 10.5922 21.8443 10.6093 21.8424Z" fill="black"/>
<path d="M10.6093 20.1927H11.8691C11.8849 20.1941 11.9007 20.1923 11.9158 20.1875C11.9309 20.1827 11.9449 20.175 11.957 20.1648C11.969 20.1546 11.979 20.1421 11.9862 20.128C11.9934 20.1139 11.9978 20.0985 11.9991 20.0827V18.953C11.9978 18.9372 11.9934 18.9218 11.9862 18.9077C11.979 18.8937 11.969 18.8811 11.957 18.8709C11.9449 18.8607 11.9309 18.853 11.9158 18.8482C11.9007 18.8434 11.8849 18.8416 11.8691 18.843H10.6093C10.5941 18.8416 10.5787 18.8434 10.5642 18.8483C10.5496 18.8532 10.5363 18.8611 10.525 18.8714C10.5137 18.8818 10.5047 18.8944 10.4986 18.9084C10.4924 18.9225 10.4893 18.9376 10.4894 18.953V20.0827C10.4893 20.0981 10.4924 20.1132 10.4986 20.1273C10.5047 20.1413 10.5137 20.1539 10.525 20.1643C10.5363 20.1746 10.5496 20.1825 10.5642 20.1874C10.5787 20.1923 10.5941 20.1941 10.6093 20.1927Z" fill="black"/>
<path d="M12.369 23.4421H13.6387C13.6536 23.4437 13.6686 23.4419 13.6826 23.4369C13.6967 23.432 13.7095 23.4239 13.72 23.4134C13.7305 23.4028 13.7386 23.3901 13.7436 23.376C13.7485 23.3619 13.7503 23.3469 13.7487 23.3321V22.2023C13.7487 22.1732 13.7371 22.1452 13.7165 22.1246C13.6959 22.1039 13.6679 22.0924 13.6387 22.0924H12.369C12.3398 22.0924 12.3118 22.1039 12.2912 22.1246C12.2706 22.1452 12.259 22.1732 12.259 22.2023V23.3321C12.2574 23.3469 12.2592 23.3619 12.2642 23.376C12.2691 23.3901 12.2772 23.4028 12.2877 23.4134C12.2983 23.4239 12.3111 23.432 12.3251 23.4369C12.3392 23.4419 12.3542 23.4437 12.369 23.4421Z" fill="black"/>
</svg>
