<svg width="48" height="48" viewBox="0 0 48 48" fill="none" xmlns="http://www.w3.org/2000/svg">
<path d="M24 4C20.0444 4 16.1776 5.17298 12.8886 7.37061C9.59962 9.56824 7.03617 12.6918 5.52242 16.3463C4.00867 20.0009 3.6126 24.0222 4.3843 27.9018C5.15601 31.7814 7.06082 35.3451 9.85787 38.1421C12.6549 40.9392 16.2186 42.844 20.0982 43.6157C23.9778 44.3874 27.9992 43.9913 31.6537 42.4776C35.3082 40.9638 38.4318 38.4004 40.6294 35.1114C42.827 31.8224 44 27.9556 44 24C44 18.6957 41.8929 13.6086 38.1421 9.85786C34.3914 6.10714 29.3043 4 24 4ZM24 41.21C20.5962 41.21 17.2688 40.2007 14.4386 38.3096C11.6085 36.4185 9.40263 33.7307 8.10004 30.586C6.79746 27.4413 6.45664 23.9809 7.12069 20.6425C7.78475 17.3041 9.42384 14.2376 11.8307 11.8307C14.2376 9.42383 17.3041 7.78474 20.6425 7.12069C23.9809 6.45663 27.4413 6.79745 30.586 8.10003C33.7307 9.40262 36.4185 11.6085 38.3096 14.4386C40.2007 17.2688 41.21 20.5962 41.21 24C41.2047 28.5628 39.3898 32.9371 36.1635 36.1635C32.9371 39.3898 28.5628 41.2047 24 41.21Z" fill="black"/>
<path d="M31 24C31 22.6155 30.5895 21.2622 29.8203 20.111C29.0511 18.9599 27.9579 18.0627 26.6788 17.5328C25.3997 17.003 23.9922 16.8644 22.6344 17.1345C21.2765 17.4046 20.0292 18.0713 19.0503 19.0503C18.0713 20.0292 17.4046 21.2765 17.1345 22.6344C16.8644 23.9922 17.003 25.3997 17.5329 26.6788C18.0627 27.9579 18.9599 29.0511 20.111 29.8203C21.2622 30.5895 22.6155 31 24 31C25.8565 31 27.637 30.2625 28.9498 28.9497C30.2625 27.637 31 25.8565 31 24ZM24 28.19C23.1713 28.19 22.3612 27.9443 21.6722 27.4839C20.9831 27.0235 20.4461 26.3691 20.129 25.6034C19.8118 24.8378 19.7288 23.9954 19.8905 23.1826C20.0522 22.3698 20.4512 21.6232 21.0372 21.0372C21.6232 20.4512 22.3698 20.0522 23.1826 19.8905C23.9954 19.7288 24.8378 19.8118 25.6035 20.1289C26.3691 20.4461 27.0235 20.9831 27.4839 21.6722C27.9443 22.3612 28.19 23.1713 28.19 24C28.1874 25.1104 27.7451 26.1747 26.9599 26.9599C26.1747 27.7451 25.1105 28.1874 24 28.19Z" fill="black"/>
<path d="M38.27 26.67C38.8262 26.3461 39.2877 25.882 39.6084 25.324C39.9292 24.766 40.098 24.1336 40.098 23.49C40.098 22.8464 39.9292 22.214 39.6084 21.656C39.2877 21.098 38.8262 20.6339 38.27 20.31C38.0688 20.193 37.9222 20.001 37.8622 19.7761C37.8022 19.5512 37.8338 19.3117 37.95 19.11C38.2702 18.5513 38.4382 17.9184 38.4373 17.2745C38.4363 16.6306 38.2664 15.9982 37.9446 15.4405C37.6227 14.8828 37.1601 14.4193 36.6031 14.0963C36.046 13.7734 35.4139 13.6022 34.77 13.6C34.6541 13.6013 34.539 13.5795 34.4317 13.5357C34.3243 13.492 34.2268 13.4272 34.1448 13.3452C34.0628 13.2633 33.998 13.1657 33.9543 13.0583C33.9105 12.951 33.8887 12.8359 33.89 12.72C33.8878 12.0761 33.7166 11.444 33.3937 10.887C33.0707 10.3299 32.6072 9.86731 32.0495 9.54544C31.4918 9.22357 30.8594 9.05367 30.2155 9.05272C29.5716 9.05176 28.9387 9.21979 28.38 9.54C28.1783 9.65621 27.9388 9.68778 27.7139 9.6278C27.489 9.56783 27.297 9.4212 27.18 9.22C26.8581 8.6613 26.3947 8.19726 25.8365 7.87461C25.2782 7.55195 24.6448 7.38208 24 7.38208C23.3552 7.38208 22.7218 7.55195 22.1635 7.87461C21.6053 8.19726 21.1419 8.6613 20.82 9.22C20.7027 9.41979 20.5129 9.56665 20.29 9.63C20.178 9.66046 20.061 9.66819 19.9459 9.65274C19.8308 9.63728 19.72 9.59895 19.62 9.54C19.0614 9.21979 18.4285 9.05176 17.7845 9.05272C17.1406 9.05367 16.5082 9.22357 15.9505 9.54544C15.3928 9.86731 14.9293 10.3299 14.6063 10.887C14.2834 11.444 14.1122 12.0761 14.11 12.72C14.1113 12.8359 14.0895 12.951 14.0458 13.0583C14.002 13.1657 13.9372 13.2633 13.8552 13.3452C13.7733 13.4272 13.6757 13.492 13.5683 13.5357C13.461 13.5795 13.3459 13.6013 13.23 13.6C12.5849 13.5992 11.951 13.7684 11.3922 14.0907C10.8333 14.4129 10.3693 14.8768 10.0468 15.4355C9.72436 15.9942 9.55487 16.6281 9.55543 17.2732C9.55599 17.9183 9.72658 18.5518 10.05 19.11C10.1662 19.3117 10.1978 19.5512 10.1378 19.7761C10.0778 20.001 9.9312 20.193 9.73001 20.31C9.17384 20.6339 8.71235 21.098 8.39159 21.656C8.07084 22.214 7.90203 22.8464 7.90203 23.49C7.90203 24.1336 8.07084 24.766 8.39159 25.324C8.71235 25.882 9.17384 26.3461 9.73001 26.67C9.83062 26.727 9.91887 26.8035 9.98958 26.895C10.0603 26.9864 10.1121 27.0911 10.1419 27.2028C10.1717 27.3146 10.1789 27.4311 10.1631 27.5457C10.1473 27.6602 10.1089 27.7705 10.05 27.87C9.72907 28.4279 9.5605 29.0604 9.56121 29.704C9.56191 30.3477 9.73187 30.9798 10.054 31.537C10.3762 32.0942 10.8392 32.5569 11.3967 32.8786C11.9541 33.2003 12.5864 33.3698 13.23 33.37C13.4634 33.37 13.6872 33.4627 13.8523 33.6277C14.0173 33.7928 14.11 34.0166 14.11 34.25C14.1122 34.8939 14.2834 35.526 14.6063 36.083C14.9293 36.6401 15.3928 37.1027 15.9505 37.4246C16.5082 37.7464 17.1406 37.9163 17.7845 37.9173C18.4285 37.9182 19.0614 37.7502 19.62 37.43C19.72 37.3711 19.8308 37.3327 19.9459 37.3173C20.061 37.3018 20.178 37.3095 20.29 37.34C20.511 37.4069 20.6997 37.5529 20.82 37.75C21.1419 38.3087 21.6053 38.7727 22.1635 39.0954C22.7218 39.418 23.3552 39.5879 24 39.5879C24.6448 39.5879 25.2782 39.418 25.8365 39.0954C26.3947 38.7727 26.8581 38.3087 27.18 37.75C27.2989 37.5508 27.4908 37.4059 27.715 37.3461C27.9391 37.2863 28.1777 37.3164 28.38 37.43C28.9387 37.7502 29.5716 37.9182 30.2155 37.9173C30.8594 37.9163 31.4918 37.7464 32.0495 37.4246C32.6072 37.1027 33.0707 36.6401 33.3937 36.083C33.7166 35.526 33.8878 34.8939 33.89 34.25C33.89 34.0166 33.9827 33.7928 34.1478 33.6277C34.3128 33.4627 34.5366 33.37 34.77 33.37C35.4179 33.3787 36.0565 33.2156 36.6209 32.8975C37.1854 32.5794 37.6555 32.1175 37.9836 31.5588C38.3117 31.0001 38.4861 30.3645 38.489 29.7166C38.4918 29.0687 38.3231 28.4316 38 27.87C37.9416 27.7698 37.9035 27.659 37.8881 27.544C37.8727 27.429 37.8801 27.3121 37.91 27.2C37.9314 27.092 37.9743 26.9894 38.0361 26.8984C38.0979 26.8073 38.1775 26.7297 38.27 26.67ZM36.87 24.25C36.0312 24.7372 35.4194 25.5366 35.1683 26.4735C34.9172 27.4104 35.0473 28.4087 35.53 29.25C35.6103 29.3827 35.6528 29.5349 35.6528 29.69C35.6528 29.8451 35.6103 29.9973 35.53 30.13C35.4537 30.2642 35.3432 30.3756 35.2096 30.4529C35.076 30.5303 34.9243 30.5707 34.77 30.57C33.7967 30.57 32.8632 30.9567 32.1749 31.6449C31.4867 32.3332 31.1 33.2667 31.1 34.24C31.1004 34.3956 31.06 34.5486 30.9827 34.6837C30.9055 34.8188 30.7943 34.9313 30.66 35.01C30.5269 35.0893 30.3749 35.1311 30.22 35.1311C30.0651 35.1311 29.9131 35.0893 29.78 35.01C28.9357 34.5361 27.9392 34.412 27.0044 34.6643C26.0697 34.9167 25.2711 35.5255 24.78 36.36C24.7025 36.4928 24.5915 36.603 24.4582 36.6795C24.3249 36.7561 24.1738 36.7964 24.02 36.7964C23.8662 36.7964 23.7152 36.7561 23.5818 36.6795C23.4485 36.603 23.3375 36.4928 23.26 36.36C23.0177 35.9376 22.6926 35.5685 22.3043 35.2746C21.916 34.9808 21.4724 34.7684 21 34.65C20.6746 34.5589 20.3379 34.5151 20 34.52C19.3566 34.5225 18.7253 34.695 18.17 35.02C18.0353 35.0944 17.8839 35.1334 17.73 35.1334C17.5761 35.1334 17.4247 35.0944 17.29 35.02C17.1558 34.9413 17.0445 34.8288 16.9673 34.6937C16.8901 34.5586 16.8496 34.4056 16.85 34.25C16.85 33.2767 16.4633 32.3432 15.7751 31.6549C15.0868 30.9667 14.1534 30.58 13.18 30.58C13.0257 30.5807 12.874 30.5402 12.7404 30.4629C12.6069 30.3856 12.4963 30.2742 12.42 30.14C12.3397 30.0073 12.2973 29.8551 12.2973 29.7C12.2973 29.5449 12.3397 29.3927 12.42 29.26C12.6604 28.8437 12.8164 28.3842 12.8791 27.9076C12.9418 27.431 12.9101 26.9467 12.7857 26.4824C12.6612 26.0181 12.4466 25.5829 12.1539 25.2016C11.8612 24.8202 11.4963 24.5003 11.08 24.26C10.9452 24.1845 10.8331 24.0741 10.7557 23.9404C10.6783 23.8067 10.6383 23.6545 10.64 23.5C10.6361 23.3451 10.6751 23.1921 10.7528 23.0579C10.8304 22.9238 10.9437 22.8138 11.08 22.74C11.5065 22.501 11.8815 22.1801 12.1836 21.7957C12.4856 21.4112 12.7087 20.9709 12.84 20.5C13.0912 19.5577 12.9581 18.5542 12.47 17.71C12.3897 17.5773 12.3473 17.4251 12.3473 17.27C12.3473 17.1149 12.3897 16.9627 12.47 16.83C12.5463 16.6958 12.6569 16.5844 12.7904 16.5071C12.924 16.4298 13.0757 16.3893 13.23 16.39C13.712 16.39 14.1892 16.2951 14.6345 16.1106C15.0797 15.9262 15.4843 15.6559 15.8251 15.3151C16.1659 14.9743 16.4362 14.5697 16.6206 14.1244C16.8051 13.6792 16.9 13.202 16.9 12.72C16.9071 12.5691 16.953 12.4226 17.0331 12.2946C17.1133 12.1666 17.225 12.0613 17.3576 11.989C17.4902 11.9167 17.6392 11.8797 17.7903 11.8816C17.9413 11.8835 18.0893 11.9243 18.22 12C19.0638 12.4766 20.0611 12.6021 20.9966 12.3495C21.9322 12.0969 22.7308 11.4865 23.22 10.65C23.2975 10.5172 23.4085 10.407 23.5418 10.3305C23.6752 10.2539 23.8262 10.2136 23.98 10.2136C24.1338 10.2136 24.2849 10.2539 24.4182 10.3305C24.5515 10.407 24.6625 10.5172 24.74 10.65C25.2274 11.4885 26.026 12.1007 26.9623 12.3535C27.8986 12.6063 28.8969 12.4792 29.74 12C29.8736 11.9229 30.0252 11.8822 30.1795 11.8821C30.3338 11.882 30.4854 11.9225 30.6191 11.9995C30.7528 12.0765 30.8639 12.1873 30.9413 12.3207C31.0187 12.4542 31.0596 12.6057 31.06 12.76C31.06 13.7333 31.4467 14.6668 32.1349 15.3551C32.8232 16.0433 33.7567 16.43 34.73 16.43C34.8843 16.4293 35.036 16.4698 35.1696 16.5471C35.3032 16.6244 35.4137 16.7358 35.49 16.87C35.5703 17.0027 35.6128 17.1549 35.6128 17.31C35.6128 17.4651 35.5703 17.6173 35.49 17.75C35.0019 18.5942 34.8688 19.5977 35.12 20.54C35.3755 21.4788 35.9896 22.2797 36.83 22.77C36.9663 22.8438 37.0796 22.9538 37.1572 23.0879C37.2349 23.2221 37.2739 23.3751 37.27 23.53C37.2689 23.6739 37.2317 23.8152 37.1618 23.941C37.0919 24.0668 36.9916 24.173 36.87 24.25Z" fill="black"/>
<path d="M18.52 18.28C18.732 18.4051 18.9738 18.4707 19.22 18.47C19.4646 18.4716 19.7052 18.4087 19.9177 18.2875C20.1301 18.1664 20.3069 17.9913 20.43 17.78L21.93 15.23C22.0851 14.9127 22.1145 14.5485 22.0123 14.2104C21.9102 13.8723 21.684 13.5853 21.3791 13.4069C21.0743 13.2286 20.7133 13.172 20.3685 13.2486C20.0237 13.3252 19.7207 13.5293 19.52 13.82L18 16.37C17.9074 16.5292 17.8474 16.7053 17.8235 16.8879C17.7995 17.0705 17.8121 17.2561 17.8605 17.4338C17.9089 17.6115 17.9921 17.7778 18.1053 17.9231C18.2185 18.0684 18.3595 18.1897 18.52 18.28Z" fill="black"/>
<path d="M32.79 21.46L31.43 23.11C31.2954 23.2486 31.191 23.4135 31.1232 23.5945C31.0555 23.7754 31.0259 23.9684 31.0364 24.1613C31.0469 24.3542 31.0972 24.5428 31.1841 24.7153C31.271 24.8879 31.3927 25.0405 31.5416 25.1637C31.6904 25.2869 31.8631 25.378 32.0488 25.4312C32.2345 25.4844 32.4292 25.4986 32.6207 25.4729C32.8121 25.4472 32.9962 25.3821 33.1613 25.2818C33.3264 25.1815 33.469 25.0481 33.58 24.89L34.94 23.23C35.1747 22.9449 35.2866 22.5782 35.2509 22.2106C35.2153 21.8431 35.0351 21.5047 34.75 21.27C34.4649 21.0353 34.0982 20.9234 33.7307 20.9591C33.3631 20.9947 33.0247 21.1749 32.79 21.46Z" fill="black"/>
<path d="M17.42 27C17.2718 26.8842 17.102 26.7992 16.9205 26.75C16.739 26.7009 16.5495 26.6885 16.3631 26.7136C16.1768 26.7388 15.9973 26.801 15.8354 26.8965C15.6734 26.9921 15.5322 27.1191 15.42 27.27L14.42 28.64C14.3089 28.7851 14.2275 28.9506 14.1804 29.1271C14.1334 29.3037 14.1216 29.4878 14.1457 29.6689C14.1699 29.85 14.2295 30.0246 14.3212 30.1826C14.4128 30.3407 14.5348 30.4791 14.68 30.59C14.9242 30.7767 15.2226 30.8786 15.53 30.88C15.7459 30.88 15.9589 30.8293 16.1516 30.7321C16.3444 30.6348 16.5117 30.4937 16.64 30.32L17.64 28.96C17.8669 28.6694 17.9709 28.3015 17.9297 27.9351C17.8886 27.5688 17.7056 27.2331 17.42 27Z" fill="black"/>
<path d="M15.54 23.85C15.7804 23.8464 16.0159 23.7814 16.2241 23.6611C16.4322 23.5409 16.6062 23.3694 16.7295 23.163C16.8527 22.9566 16.9211 22.7221 16.9282 22.4818C16.9353 22.2415 16.8809 22.0033 16.77 21.79L15.61 19.61C15.4253 19.3031 15.13 19.0787 14.7849 18.983C14.4397 18.8872 14.071 18.9274 13.7546 19.0952C13.4381 19.263 13.1981 19.5457 13.0838 19.8852C12.9694 20.2246 12.9896 20.5949 13.14 20.92L14.3 23.11C14.4216 23.333 14.6008 23.5192 14.8189 23.6494C15.037 23.7795 15.286 23.8488 15.54 23.85Z" fill="black"/>
<path d="M23.84 31.2C23.4849 31.1146 23.1104 31.1713 22.7965 31.3582C22.4827 31.545 22.2542 31.8471 22.16 32.2L21.83 33.59C21.7871 33.7693 21.7804 33.9554 21.8101 34.1373C21.8398 34.3193 21.9055 34.4935 22.0032 34.6499C22.1009 34.8062 22.2288 34.9416 22.3793 35.048C22.5298 35.1545 22.7 35.23 22.88 35.27C22.9828 35.2846 23.0872 35.2846 23.19 35.27C23.5052 35.2693 23.8109 35.1624 24.0577 34.9664C24.3045 34.7704 24.478 34.4968 24.55 34.19L24.88 32.8C24.9387 32.4515 24.8644 32.0936 24.6718 31.7973C24.4792 31.501 24.1823 31.2878 23.84 31.2Z" fill="black"/>
<path d="M30.16 28.58L27.9 30.49C27.6638 30.671 27.4914 30.9226 27.4079 31.2082C27.3243 31.4938 27.334 31.7986 27.4354 32.0784C27.5368 32.3582 27.7248 32.5983 27.972 32.7641C28.2191 32.9298 28.5127 33.0124 28.81 33C29.1396 33.0002 29.4586 32.8832 29.71 32.67L32 30.71C32.1524 30.5952 32.2797 30.4505 32.3741 30.2847C32.4685 30.119 32.5281 29.9357 32.5491 29.746C32.5701 29.5564 32.5522 29.3645 32.4963 29.1821C32.4405 28.9997 32.348 28.8306 32.2245 28.6852C32.1009 28.5399 31.949 28.4213 31.778 28.3367C31.6069 28.2522 31.4205 28.2035 31.2299 28.1937C31.0394 28.1838 30.8489 28.213 30.6701 28.2794C30.4912 28.3459 30.3279 28.4481 30.19 28.58H30.16Z" fill="black"/>
<path d="M29.18 18.07C29.3107 18.2012 29.4668 18.3044 29.6387 18.3732C29.8107 18.442 29.9949 18.4749 30.18 18.47C30.3664 18.4712 30.5511 18.4345 30.723 18.3624C30.8949 18.2902 31.0503 18.1839 31.18 18.05C31.3143 17.9204 31.4211 17.765 31.494 17.5932C31.567 17.4214 31.6046 17.2366 31.6046 17.05C31.6046 16.8634 31.567 16.6786 31.494 16.5068C31.4211 16.335 31.3143 16.1796 31.18 16.05L29 14C28.8687 13.8687 28.7128 13.7645 28.5412 13.6934C28.3696 13.6224 28.1857 13.5858 28 13.5858C27.8143 13.5858 27.6304 13.6224 27.4588 13.6934C27.2872 13.7645 27.1313 13.8687 27 14C26.8687 14.1313 26.7645 14.2872 26.6934 14.4588C26.6224 14.6304 26.5858 14.8143 26.5858 15C26.5858 15.1857 26.6224 15.3696 26.6934 15.5412C26.7645 15.7128 26.8687 15.8687 27 16L29.18 18.07Z" fill="black"/>
</svg>
