<svg width="48" height="48" viewBox="0 0 48 48" fill="none" xmlns="http://www.w3.org/2000/svg">
<path d="M24 44C20.0444 44 16.1776 42.827 12.8886 40.6294C9.59962 38.4318 7.03617 35.3082 5.52242 31.6537C4.00867 27.9992 3.6126 23.9778 4.3843 20.0982C5.15601 16.2186 7.06082 12.6549 9.85787 9.85787C12.6549 7.06082 16.2186 5.15601 20.0982 4.3843C23.9778 3.6126 27.9992 4.00867 31.6537 5.52242C35.3082 7.03617 38.4318 9.59962 40.6294 12.8886C42.827 16.1776 44 20.0444 44 24C44 29.3043 41.8929 34.3914 38.1421 38.1421C34.3914 41.8929 29.3043 44 24 44ZM24 9.22001C21.0768 9.22001 18.2192 10.0868 15.7887 11.7109C13.3581 13.3349 11.4637 15.6433 10.3451 18.3439C9.22641 21.0446 8.93371 24.0164 9.504 26.8834C10.0743 29.7505 11.4819 32.384 13.549 34.451C15.616 36.5181 18.2495 37.9257 21.1166 38.496C23.9836 39.0663 26.9554 38.7736 29.6561 37.6549C32.3568 36.5363 34.6651 34.6419 36.2891 32.2113C37.9132 29.7808 38.78 26.9232 38.78 24C38.7747 20.0817 37.2158 16.3255 34.4452 13.5548C31.6746 10.7842 27.9183 9.2253 24 9.22001Z" fill="black"/>
<path d="M36.5 27.2C37.063 26.8767 37.5308 26.4106 37.856 25.8488C38.1813 25.2869 38.3526 24.6492 38.3526 24C38.3526 23.3508 38.1813 22.7131 37.856 22.1512C37.5308 21.5894 37.063 21.1233 36.5 20.8C36.4761 20.7877 36.455 20.7708 36.4378 20.7502C36.4206 20.7296 36.4078 20.7057 36.4 20.68C36.3799 20.6286 36.3799 20.5715 36.4 20.52C36.716 19.9609 36.881 19.3291 36.8788 18.6869C36.8765 18.0446 36.7072 17.414 36.3873 16.8571C36.0675 16.3001 35.6082 15.836 35.0546 15.5104C34.501 15.1848 33.8722 15.0089 33.23 15C33.1743 15 33.1209 14.9779 33.0815 14.9385C33.0421 14.8991 33.02 14.8457 33.02 14.79C33.0203 14.1426 32.8502 13.5066 32.5269 12.9457C32.2036 12.3849 31.7385 11.9189 31.1782 11.5947C30.6178 11.2705 29.9821 11.0994 29.3347 11.0985C28.6873 11.0977 28.0512 11.2672 27.49 11.59C27.4668 11.606 27.4406 11.617 27.4129 11.6221C27.3852 11.6273 27.3567 11.6265 27.3293 11.6199C27.302 11.6133 27.2763 11.601 27.254 11.5838C27.2317 11.5666 27.2133 11.5448 27.2 11.52C26.8767 10.957 26.4106 10.4893 25.8488 10.164C25.2869 9.83871 24.6492 9.66743 24 9.66743C23.3508 9.66743 22.7131 9.83871 22.1512 10.164C21.5894 10.4893 21.1233 10.957 20.8 11.52C20.7729 11.5663 20.7305 11.6017 20.68 11.62C20.6286 11.6401 20.5715 11.6401 20.52 11.62C19.9623 11.3048 19.3324 11.1398 18.6918 11.1411C18.0512 11.1424 17.4219 11.31 16.8655 11.6275C16.3091 11.945 15.8447 12.4015 15.5177 12.9524C15.1907 13.5032 15.0123 14.1295 15 14.77C15 14.8257 14.9779 14.8791 14.9385 14.9185C14.8991 14.9579 14.8457 14.98 14.79 14.98C14.1426 14.9797 13.5066 15.1498 12.9457 15.4731C12.3849 15.7964 11.9189 16.2616 11.5947 16.8219C11.2705 17.3822 11.0994 18.0179 11.0985 18.6653C11.0977 19.3127 11.2672 19.9489 11.59 20.51C11.6091 20.5651 11.6091 20.6249 11.59 20.68C11.5822 20.7057 11.5694 20.7296 11.5522 20.7502C11.535 20.7708 11.5139 20.7877 11.49 20.8C10.927 21.1233 10.4593 21.5894 10.134 22.1512C9.80871 22.7131 9.63743 23.3508 9.63743 24C9.63743 24.6492 9.80871 25.2869 10.134 25.8488C10.4593 26.4106 10.927 26.8767 11.49 27.2C11.5363 27.2271 11.5717 27.2696 11.59 27.32C11.6101 27.3715 11.6101 27.4286 11.59 27.48C11.2736 28.0399 11.1087 28.6726 11.1113 29.3156C11.114 29.9587 11.2842 30.59 11.6053 31.1472C11.9263 31.7044 12.387 32.1684 12.9419 32.4933C13.4969 32.8182 14.127 32.9928 14.77 33C14.8257 33 14.8791 33.0221 14.9185 33.0615C14.9579 33.1009 14.98 33.1543 14.98 33.21C14.9818 33.8577 15.1535 34.4935 15.478 35.054C15.8026 35.6145 16.2685 36.08 16.8294 36.4039C17.3902 36.7278 18.0262 36.8989 18.6739 36.9C19.3215 36.901 19.9581 36.7321 20.52 36.41C20.5715 36.3899 20.6286 36.3899 20.68 36.41C20.7305 36.4283 20.7729 36.4637 20.8 36.51C21.1233 37.073 21.5894 37.5408 22.1512 37.866C22.7131 38.1913 23.3508 38.3626 24 38.3626C24.6492 38.3626 25.2869 38.1913 25.8488 37.866C26.4106 37.5408 26.8767 37.073 27.2 36.51C27.2123 36.4861 27.2292 36.465 27.2498 36.4478C27.2705 36.4306 27.2943 36.4178 27.32 36.41C27.3715 36.3899 27.4286 36.3899 27.48 36.41C28.0399 36.7264 28.6726 36.8914 29.3156 36.8887C29.9587 36.886 30.59 36.7158 31.1472 36.3948C31.7044 36.0737 32.1684 35.613 32.4933 35.0581C32.8182 34.5031 32.9928 33.873 33 33.23C33 33.1743 33.0221 33.1209 33.0615 33.0815C33.1009 33.0421 33.1543 33.02 33.21 33.02C33.8577 33.0183 34.4935 32.8465 35.054 32.522C35.6145 32.1975 36.08 31.7315 36.4039 31.1707C36.7278 30.6098 36.8989 29.9738 36.9 29.3262C36.901 28.6785 36.7321 28.0419 36.41 27.48C36.3899 27.4286 36.3899 27.3715 36.41 27.32C36.4283 27.2696 36.4637 27.2271 36.51 27.2H36.5ZM26.5 14.37C26.8276 14.0463 27.2695 13.8648 27.73 13.8648C28.1905 13.8648 28.6324 14.0463 28.96 14.37L30.96 16.31C31.2861 16.6363 31.4693 17.0787 31.4693 17.54C31.4693 18.0013 31.2861 18.4437 30.96 18.77C30.6337 19.0961 30.1913 19.2793 29.73 19.2793C29.2687 19.2793 28.8263 19.0961 28.5 18.77L26.5 16.83C26.1779 16.4998 26.0001 16.0551 26.0057 15.5938C26.0113 15.1325 26.1999 14.6923 26.53 14.37H26.5ZM18 16.65L19.4 14.26C19.6347 13.8622 20.0179 13.5739 20.4651 13.4586C20.9124 13.3432 21.3872 13.4103 21.785 13.645C22.1828 13.8797 22.4711 14.2629 22.5865 14.7101C22.7018 15.1574 22.6347 15.6322 22.4 16.03L21 18.41C20.8474 18.6723 20.6284 18.8899 20.3652 19.0408C20.1019 19.1918 19.8035 19.2708 19.5 19.27C19.1907 19.2683 18.8873 19.1855 18.62 19.03C18.2224 18.7964 17.9337 18.4146 17.8175 17.9683C17.7012 17.5221 17.7669 17.0479 18 16.65ZM14.18 19C14.5887 18.784 15.0663 18.7384 15.5085 18.8733C15.9507 19.0082 16.3215 19.3126 16.54 19.72L17.84 22.16C18.0556 22.5672 18.1009 23.0433 17.9659 23.4839C17.8309 23.9244 17.5267 24.2935 17.12 24.51C16.7123 24.7229 16.2371 24.7667 15.7973 24.632C15.3576 24.4972 14.9885 24.1948 14.77 23.79L13.47 21.35C13.2536 20.944 13.2069 20.4688 13.3399 20.0285C13.473 19.5881 13.775 19.2183 14.18 19ZM19 28.15L17.32 30.35C17.1586 30.5627 16.9498 30.7349 16.7103 30.8529C16.4707 30.9709 16.207 31.0316 15.94 31.03C15.5779 31.0228 15.2275 30.9002 14.94 30.68C14.7573 30.5423 14.6035 30.3699 14.4874 30.1726C14.3714 29.9754 14.2954 29.7572 14.2638 29.5305C14.2323 29.3039 14.2457 29.0732 14.3034 28.8518C14.3611 28.6303 14.4619 28.4224 14.6 28.24L16.22 26C16.5051 25.6314 16.925 25.3911 17.3873 25.332C17.8495 25.2729 18.3164 25.3999 18.685 25.685C19.0537 25.9701 19.294 26.39 19.353 26.8523C19.4121 27.3145 19.2851 27.7814 19 28.15ZM19.22 24C19.22 23.0546 19.5004 22.1304 20.0256 21.3444C20.5508 20.5583 21.2974 19.9457 22.1708 19.5839C23.0442 19.2221 24.0053 19.1274 24.9325 19.3119C25.8598 19.4963 26.7115 19.9515 27.38 20.62C28.0485 21.2885 28.5037 22.1402 28.6882 23.0675C28.8726 23.9947 28.7779 24.9558 28.4162 25.8292C28.0544 26.7027 27.4417 27.4492 26.6556 27.9744C25.8696 28.4997 24.9454 28.78 24 28.78C22.7323 28.78 21.5165 28.2764 20.62 27.38C19.7236 26.4836 19.22 25.2677 19.22 24ZM25.35 32L24.72 34.69C24.6152 35.1395 24.3362 35.5291 23.9442 35.7729C23.5523 36.0167 23.0795 36.0948 22.63 35.99C22.1805 35.8852 21.791 35.6062 21.5472 35.2142C21.3034 34.8223 21.2252 34.3495 21.33 33.9L22 31.17C22.0518 30.9474 22.147 30.7372 22.2801 30.5513C22.4132 30.3655 22.5816 30.2077 22.7757 30.087C22.9698 29.9663 23.1857 29.885 23.4113 29.8477C23.6368 29.8105 23.8674 29.8181 24.09 29.87C24.5381 29.9877 24.9217 30.2774 25.1576 30.6762C25.3935 31.0749 25.4626 31.5506 25.35 32ZM31.35 30.22L29.29 32C28.9719 32.2628 28.5727 32.4077 28.16 32.41C27.7953 32.4234 27.4356 32.3217 27.1318 32.1194C26.8281 31.9171 26.5956 31.6244 26.4674 31.2827C26.3391 30.941 26.3215 30.5677 26.4171 30.2154C26.5127 29.8632 26.7166 29.55 27 29.32L29.11 27.53C29.4642 27.2562 29.9103 27.1294 30.3555 27.1761C30.8008 27.2227 31.2109 27.4391 31.5007 27.7804C31.7904 28.1217 31.9375 28.5615 31.9113 29.0084C31.8851 29.4553 31.6876 29.8749 31.36 30.18L31.35 30.22ZM34.51 23.6L32.76 25.73C32.4601 26.0593 32.0452 26.2611 31.601 26.2937C31.1567 26.3263 30.7169 26.1872 30.3721 25.9052C30.0273 25.6232 29.8037 25.2197 29.7475 24.7778C29.6913 24.336 29.8068 23.8893 30.07 23.53L31.83 21.39C31.9697 21.1982 32.1472 21.0369 32.3515 20.9162C32.5558 20.7954 32.7827 20.7178 33.0181 20.688C33.2535 20.6582 33.4926 20.6768 33.7206 20.7428C33.9485 20.8088 34.1606 20.9208 34.3437 21.0717C34.5268 21.2227 34.677 21.4096 34.7853 21.6208C34.8935 21.832 34.9573 22.0631 34.9729 22.3C34.9885 22.5368 34.9555 22.7743 34.8759 22.9978C34.7962 23.2214 34.6717 23.4263 34.51 23.6Z" fill="black"/>
</svg>
