<svg width="48" height="48" viewBox="0 0 48 48" fill="none" xmlns="http://www.w3.org/2000/svg">
<path d="M20.3747 44C19.8587 43.9998 19.3544 43.8468 18.9252 43.5603C18.4961 43.2738 18.1614 42.8667 17.9633 42.3903C17.7652 41.9138 17.7127 41.3894 17.8123 40.8832C17.9118 40.3769 18.1591 39.9114 18.5228 39.5455L34.0884 23.98L18.5228 8.41441C18.0526 7.92064 17.794 7.26258 17.8023 6.58076C17.8106 5.89893 18.0852 5.24738 18.5673 4.76522C19.0495 4.28306 19.701 4.00851 20.3829 4.00019C21.0647 3.99188 21.7227 4.25046 22.2165 4.72072L38.4427 20.977C39.2435 21.7833 39.6929 22.8736 39.6929 24.01C39.6929 25.1464 39.2435 26.2367 38.4427 27.043L22.2165 43.2392C21.9745 43.4808 21.6873 43.6723 21.3713 43.8028C21.0553 43.9334 20.7166 44.0004 20.3747 44Z" fill="black"/>
<path d="M10.9152 44C10.5716 44.0017 10.2311 43.9353 9.91322 43.8048C9.59538 43.6742 9.30654 43.482 9.06337 43.2392C8.57859 42.7467 8.30688 42.0834 8.30688 41.3924C8.30688 40.7013 8.57859 40.038 9.06337 39.5455L24.6289 23.98L9.06337 8.41441C8.59312 7.92064 8.33453 7.26258 8.34285 6.58076C8.35116 5.89893 8.62571 5.24738 9.10787 4.76522C9.59003 4.28306 10.2416 4.00851 10.9234 4.00019C11.6052 3.99188 12.2633 4.25046 12.7571 4.72072L28.9833 20.977C29.3834 21.3743 29.7009 21.8468 29.9176 22.3673C30.1343 22.8879 30.2459 23.4461 30.2459 24.01C30.2459 24.5738 30.1343 25.1321 29.9176 25.6527C29.7009 26.1732 29.3834 26.6457 28.9833 27.043L12.7571 43.2392C12.5157 43.4817 12.2287 43.6738 11.9125 43.8044C11.5963 43.935 11.2573 44.0015 10.9152 44Z" fill="black"/>
</svg>
