<svg width="48" height="48" viewBox="0 0 48 48" fill="none" xmlns="http://www.w3.org/2000/svg">
<path d="M28.7871 44C28.6017 44.0013 28.4178 43.9658 28.2462 43.8954C28.0746 43.8251 27.9187 43.7213 27.7876 43.5902L10.4658 26.2584C9.87133 25.6609 9.5376 24.8523 9.5376 24.0095C9.5376 23.1666 9.87133 22.358 10.4658 21.7605L27.7976 4.4288C27.9264 4.29331 28.0815 4.18544 28.2533 4.11172C28.4251 4.03801 28.6101 4 28.7971 4C28.9841 4 29.1691 4.03801 29.3409 4.11172C29.5127 4.18544 29.6678 4.29331 29.7966 4.4288C29.9321 4.55764 30.04 4.71269 30.1137 4.88451C30.1874 5.05634 30.2254 5.24135 30.2254 5.42832C30.2254 5.61529 30.1874 5.80031 30.1137 5.97213C30.04 6.14395 29.9321 6.299 29.7966 6.42785L12.4349 23.7296C12.3616 23.8043 12.3206 23.9048 12.3206 24.0095C12.3206 24.1141 12.3616 24.2146 12.4349 24.2893L29.7666 41.6211C29.9596 41.8179 30.0901 42.0673 30.1418 42.338C30.1935 42.6087 30.1642 42.8886 30.0574 43.1427C29.9506 43.3968 29.7713 43.6137 29.5417 43.7662C29.3122 43.9187 29.0427 44 28.7671 44H28.7871Z" fill="black"/>
<path d="M37.0232 44C36.8377 44.0013 36.6539 43.9658 36.4823 43.8954C36.3107 43.8251 36.1548 43.7213 36.0237 43.5902L18.7019 26.2584C18.1074 25.6609 17.7737 24.8523 17.7737 24.0095C17.7737 23.1666 18.1074 22.358 18.7019 21.7605L36.0437 4.4288C36.1725 4.29331 36.3275 4.18544 36.4994 4.11172C36.6712 4.03801 36.8562 4 37.0432 4C37.2302 4 37.4152 4.03801 37.587 4.11172C37.7588 4.18544 37.9139 4.29331 38.0427 4.4288C38.1757 4.55909 38.2813 4.7146 38.3534 4.88623C38.4256 5.05786 38.4627 5.24215 38.4627 5.42832C38.4627 5.61449 38.4256 5.79878 38.3534 5.97041C38.2813 6.14204 38.1757 6.29756 38.0427 6.42785L20.681 23.7296C20.6077 23.8043 20.5667 23.9048 20.5667 24.0095C20.5667 24.1141 20.6077 24.2146 20.681 24.2893L38.0127 41.6211C38.2056 41.8179 38.3361 42.0673 38.3879 42.338C38.4396 42.6087 38.4102 42.8886 38.3035 43.1427C38.1967 43.3968 38.0173 43.6137 37.7878 43.7662C37.5582 43.9187 37.2888 44 37.0132 44H37.0232Z" fill="black"/>
</svg>
