<svg width="48" height="48" viewBox="0 0 48 48" fill="none" xmlns="http://www.w3.org/2000/svg">
<path d="M5.44654 30.1655C5.16916 30.1704 4.89669 30.0921 4.66429 29.9406C4.43188 29.7891 4.25023 29.5714 4.14276 29.3156C4.0353 29.0599 4.00697 28.7778 4.06142 28.5058C4.11587 28.2337 4.25061 27.9843 4.44824 27.7896L21.7688 10.479C22.3741 9.90168 23.1785 9.57959 24.015 9.57959C24.8515 9.57959 25.6558 9.90168 26.2612 10.479L43.5717 27.7896C43.8365 28.0544 43.9852 28.4135 43.9852 28.7879C43.9852 29.1623 43.8365 29.5214 43.5717 29.7862C43.307 30.051 42.9479 30.1997 42.5734 30.1997C42.199 30.1997 41.8399 30.051 41.5751 29.7862L24.2945 12.4557C24.2633 12.4104 24.2215 12.3733 24.1729 12.3477C24.1242 12.3221 24.07 12.3088 24.015 12.3088C23.96 12.3088 23.9058 12.3221 23.8571 12.3477C23.8084 12.3733 23.7667 12.4104 23.7354 12.4557L6.42488 29.7662C6.29611 29.8939 6.1434 29.9949 5.97552 30.0634C5.80763 30.1319 5.62787 30.1666 5.44654 30.1655Z" fill="black"/>
<path d="M42.5834 38.4015C42.3982 38.4029 42.2146 38.3674 42.0432 38.2971C41.8718 38.2268 41.7161 38.1232 41.5851 37.9922L24.2945 20.6817C24.262 20.6383 24.2197 20.6031 24.1712 20.5788C24.1227 20.5545 24.0692 20.5419 24.015 20.5419C23.9607 20.5419 23.9072 20.5545 23.8587 20.5788C23.8102 20.6031 23.768 20.6383 23.7354 20.6817L6.42488 37.9922C6.29619 38.1276 6.14133 38.2353 5.96972 38.3089C5.79811 38.3825 5.61332 38.4205 5.42658 38.4205C5.23984 38.4205 5.05504 38.3825 4.88343 38.3089C4.71182 38.2353 4.55696 38.1276 4.42827 37.9922C4.29295 37.8636 4.18521 37.7087 4.11159 37.5371C4.03796 37.3655 4 37.1807 4 36.9939C4 36.8072 4.03796 36.6224 4.11159 36.4508C4.18521 36.2792 4.29295 36.1243 4.42827 35.9956L21.7688 18.715C22.3717 18.1331 23.177 17.8079 24.015 17.8079C24.8529 17.8079 25.6582 18.1331 26.2612 18.715L43.5717 36.0256C43.707 36.1543 43.8148 36.3091 43.8884 36.4807C43.962 36.6524 44 36.8371 44 37.0239C44 37.2106 43.962 37.3954 43.8884 37.567C43.8148 37.7386 43.707 37.8935 43.5717 38.0222C43.3048 38.2733 42.9498 38.4096 42.5834 38.4015Z" fill="black"/>
</svg>
