<svg width="48" height="48" viewBox="0 0 48 48" fill="none" xmlns="http://www.w3.org/2000/svg">
<path d="M27.6019 44C27.2591 44.0017 26.9193 43.9355 26.6021 43.8052C26.285 43.6749 25.9968 43.4832 25.7542 43.2409L9.56445 27.0212C8.76305 26.218 8.31299 25.1296 8.31299 23.995C8.31299 22.8603 8.76305 21.772 9.56445 20.9688L25.7542 4.80899C26.2469 4.33978 26.9034 4.08178 27.5837 4.09008C28.264 4.09837 28.9141 4.37231 29.3952 4.85338C29.8763 5.33446 30.1502 5.98455 30.1585 6.66484C30.1668 7.34514 29.9088 8.00171 29.4396 8.49438L13.909 24.025L29.4396 39.5555C29.8019 39.92 30.0484 40.3835 30.1481 40.8877C30.2478 41.3919 30.1962 41.9143 29.9998 42.3893C29.8034 42.8643 29.471 43.2706 29.0443 43.5572C28.6177 43.8437 28.1158 43.9978 27.6019 44Z" fill="black"/>
<path d="M37.0301 44C36.6888 44.0015 36.3506 43.9351 36.0351 43.8048C35.7196 43.6745 35.4332 43.4828 35.1924 43.2409L19.0026 27.0212C18.2012 26.218 17.7512 25.1296 17.7512 23.995C17.7512 22.8603 18.2012 21.772 19.0026 20.9688L35.1924 4.80899C35.4322 4.55723 35.7199 4.35597 36.0386 4.21707C36.3573 4.07817 36.7006 4.00443 37.0483 4.00019C37.3959 3.99595 37.7409 4.0613 38.0629 4.19239C38.3849 4.32348 38.6774 4.51766 38.9233 4.7635C39.1691 5.00934 39.3633 5.30187 39.4944 5.62388C39.6255 5.9459 39.6908 6.29088 39.6866 6.63852C39.6823 6.98617 39.6086 7.32945 39.4697 7.64817C39.3308 7.96689 39.1296 8.25461 38.8778 8.49438L23.3472 24.025L38.8778 39.5555C39.2407 39.9206 39.4874 40.385 39.5868 40.8902C39.6861 41.3953 39.6337 41.9185 39.436 42.3939C39.2384 42.8693 38.9045 43.2755 38.4763 43.5613C38.0481 43.8471 37.5449 43.9998 37.0301 44Z" fill="black"/>
</svg>
