<svg width="48" height="48" viewBox="0 0 48 48" fill="none" xmlns="http://www.w3.org/2000/svg">
<path d="M23.985 38.4499C23.1471 38.4586 22.3396 38.1356 21.7388 37.5514L4.42827 20.2109C4.16351 19.9461 4.01476 19.587 4.01476 19.2126C4.01476 19.0272 4.05128 18.8436 4.12223 18.6723C4.19318 18.501 4.29717 18.3454 4.42827 18.2143C4.55937 18.0832 4.71501 17.9792 4.8863 17.9082C5.05759 17.8373 5.24117 17.8007 5.42658 17.8007C5.80101 17.8007 6.16011 17.9495 6.42488 18.2143L23.7055 35.5548C23.7418 35.5922 23.7852 35.622 23.8333 35.6423C23.8813 35.6626 23.9329 35.6731 23.985 35.6731C24.0372 35.6731 24.0888 35.6626 24.1368 35.6423C24.1848 35.622 24.2283 35.5922 24.2646 35.5548L41.5751 18.2342C41.8399 17.9695 42.199 17.8207 42.5734 17.8207C42.9479 17.8207 43.307 17.9695 43.5717 18.2342C43.8365 18.499 43.9852 18.8581 43.9852 19.2325C43.9852 19.607 43.8365 19.9661 43.5717 20.2308L26.2312 37.5514C25.6304 38.1356 24.823 38.4586 23.985 38.4499Z" fill="black"/>
<path d="M23.985 30.2139C23.5678 30.2153 23.1545 30.134 22.7689 29.9747C22.3834 29.8153 22.0333 29.581 21.7388 29.2854L4.42827 11.9749C4.29295 11.8462 4.18521 11.6913 4.11159 11.5197C4.03796 11.3481 4 11.1633 4 10.9766C4 10.7898 4.03796 10.605 4.11159 10.4334C4.18521 10.2618 4.29295 10.1069 4.42827 9.97826C4.55696 9.84294 4.71182 9.7352 4.88343 9.66158C5.05504 9.58795 5.23984 9.54999 5.42658 9.54999C5.61332 9.54999 5.79811 9.58795 5.96972 9.66158C6.14133 9.7352 6.29619 9.84294 6.42488 9.97826L23.7055 27.3188C23.738 27.3622 23.7803 27.3974 23.8288 27.4217C23.8773 27.4459 23.9308 27.4585 23.985 27.4585C24.0393 27.4585 24.0928 27.4459 24.1413 27.4217C24.1898 27.3974 24.232 27.3622 24.2646 27.3188L41.5751 10.0082C41.7038 9.87289 41.8587 9.76515 42.0303 9.69152C42.2019 9.6179 42.3867 9.57994 42.5734 9.57994C42.7602 9.57994 42.945 9.6179 43.1166 9.69152C43.2882 9.76515 43.443 9.87289 43.5717 10.0082C43.707 10.1369 43.8148 10.2918 43.8884 10.4634C43.962 10.635 44 10.8198 44 11.0065C44 11.1933 43.962 11.378 43.8884 11.5497C43.8148 11.7213 43.707 11.8761 43.5717 12.0048L26.2312 29.2854C25.9368 29.581 25.5867 29.8153 25.2011 29.9747C24.8156 30.134 24.4022 30.2153 23.985 30.2139Z" fill="black"/>
</svg>
