<svg width="48" height="48" viewBox="0 0 48 48" fill="none" xmlns="http://www.w3.org/2000/svg">
<path d="M19.1962 44C18.8223 44.0005 18.4634 43.8533 18.1974 43.5905C18.0646 43.4603 17.959 43.3049 17.8869 43.1334C17.8149 42.9619 17.7778 42.7777 17.7778 42.5917C17.7778 42.4057 17.8149 42.2215 17.8869 42.05C17.959 41.8785 18.0646 41.7231 18.1974 41.5929L35.5362 24.3041C35.5736 24.2678 35.6034 24.2243 35.6238 24.1763C35.6441 24.1283 35.6546 24.0766 35.6546 24.0245C35.6546 23.9723 35.6441 23.9207 35.6238 23.8726C35.6034 23.8246 35.5736 23.7811 35.5362 23.7448L18.2074 6.42603C18.0763 6.29486 17.9722 6.13915 17.9012 5.96778C17.8303 5.79641 17.7937 5.61274 17.7937 5.42725C17.7937 5.24176 17.8303 5.05809 17.9012 4.88672C17.9722 4.71535 18.0763 4.55964 18.2074 4.42847C18.3386 4.29731 18.4943 4.19327 18.6657 4.12229C18.837 4.0513 19.0207 4.01477 19.2062 4.01477C19.3917 4.01477 19.5754 4.0513 19.7467 4.12229C19.9181 4.19327 20.0738 4.29731 20.205 4.42847L37.5337 21.7772C38.1278 22.3743 38.4613 23.1822 38.4613 24.0245C38.4613 24.8667 38.1278 25.6747 37.5337 26.2717L20.185 43.5905C19.9215 43.8509 19.5667 43.9978 19.1962 44Z" fill="black"/>
<path d="M10.9663 44C10.781 44.0013 10.5973 43.9658 10.4258 43.8955C10.2544 43.8252 10.0986 43.7215 9.96754 43.5905C9.83215 43.4617 9.72436 43.3068 9.6507 43.1351C9.57705 42.9634 9.53906 42.7785 9.53906 42.5917C9.53906 42.4049 9.57705 42.22 9.6507 42.0483C9.72436 41.8766 9.83215 41.7217 9.96754 41.5929L27.2963 24.3041C27.3672 24.2283 27.4067 24.1283 27.4067 24.0245C27.4067 23.9206 27.3672 23.8207 27.2963 23.7448L9.97753 6.42603C9.84214 6.29728 9.73435 6.14235 9.66069 5.97065C9.58703 5.79896 9.54905 5.61408 9.54905 5.42725C9.54905 5.24042 9.58703 5.05554 9.66069 4.88385C9.73435 4.71215 9.84214 4.55722 9.97753 4.42848C10.1063 4.29309 10.2612 4.1853 10.4329 4.11164C10.6046 4.03798 10.7895 4 10.9763 4C11.1631 4 11.348 4.03798 11.5197 4.11164C11.6914 4.1853 11.8463 4.29309 11.9751 4.42848L29.2639 21.7772C29.8579 22.3743 30.1914 23.1822 30.1914 24.0245C30.1914 24.8667 29.8579 25.6747 29.2639 26.2717L11.9451 43.5905C11.6853 43.8503 11.3337 43.9974 10.9663 44Z" fill="black"/>
</svg>
