<svg width="48" height="48" viewBox="0 0 48 48" fill="none" xmlns="http://www.w3.org/2000/svg">
<path d="M24 39.6914C22.8725 39.6843 21.793 39.2345 20.994 38.4389L4.72144 22.1964C4.25071 21.7022 3.99187 21.0434 4.00019 20.3609C4.00852 19.6784 4.28334 19.0262 4.76598 18.5436C5.24863 18.0609 5.90084 17.7861 6.58334 17.7778C7.26585 17.7695 7.92457 18.0283 8.41884 18.499L24 34.0802L39.5812 18.499C40.0754 18.0283 40.7341 17.7695 41.4167 17.7778C42.0992 17.7861 42.7514 18.0609 43.234 18.5436C43.7167 19.0262 43.9915 19.6784 43.9998 20.3609C44.0081 21.0434 43.7493 21.7022 43.2786 22.1964L27.006 38.4389C26.2071 39.2345 25.1275 39.6843 24 39.6914Z" fill="black"/>
<path d="M24 30.2225C22.8716 30.2197 21.7905 29.7692 20.994 28.97L4.72144 12.7275C4.25071 12.2332 3.99187 11.5745 4.00019 10.892C4.00852 10.2095 4.28334 9.55728 4.76598 9.07464C5.24863 8.592 5.90084 8.31717 6.58334 8.30885C7.26585 8.30053 7.92457 8.55937 8.41884 9.0301L24 24.6113L39.5812 9.0301C40.0754 8.55937 40.7341 8.30053 41.4167 8.30885C42.0992 8.31717 42.7514 8.592 43.234 9.07464C43.7167 9.55728 43.9915 10.2095 43.9998 10.892C44.0081 11.5745 43.7493 12.2332 43.2786 12.7275L27.006 28.97C26.2095 29.7692 25.1284 30.2197 24 30.2225Z" fill="black"/>
</svg>
