<svg width="48" height="48" viewBox="0 0 48 48" fill="none" xmlns="http://www.w3.org/2000/svg">
<path d="M6.60666 30.2437C6.0911 30.2407 5.58786 30.0858 5.15993 29.7982C4.732 29.5106 4.39839 29.1033 4.20085 28.627C4.00331 28.1508 3.95062 27.6269 4.04936 27.1208C4.14811 26.6148 4.39391 26.1491 4.756 25.7821L21.0018 9.56634C21.8063 8.76366 22.8964 8.31287 24.0329 8.31287C25.1694 8.31287 26.2594 8.76366 27.064 9.56634L43.2797 25.7721C43.7497 26.2656 44.0081 26.9232 43.9998 27.6046C43.9915 28.286 43.7171 28.9371 43.2353 29.419C42.7534 29.9008 42.1023 30.1752 41.4209 30.1835C40.7395 30.1918 40.0819 29.9334 39.5884 29.4634L24.0029 13.9279L8.44732 29.4734C8.20665 29.7171 7.92006 29.9107 7.60412 30.0429C7.28817 30.1751 6.94915 30.2434 6.60666 30.2437Z" fill="black"/>
<path d="M6.60666 39.6871C6.26327 39.6888 5.92294 39.6225 5.60531 39.492C5.28767 39.3615 4.99902 39.1694 4.756 38.9268C4.27153 38.4347 4 37.7717 4 37.0812C4 36.3906 4.27153 35.7276 4.756 35.2355L21.0018 19.0197C21.8076 18.2195 22.8972 17.7703 24.0329 17.7703C25.1686 17.7703 26.2581 18.2195 27.064 19.0197L43.2497 35.2355C43.7197 35.729 43.9781 36.3866 43.9698 37.068C43.9615 37.7494 43.6871 38.4005 43.2053 38.8823C42.7234 39.3642 42.0723 39.6386 41.3909 39.6469C40.7095 39.6552 40.0519 39.3968 39.5584 38.9268L24.0029 23.3713L8.44732 38.9268C8.20616 39.1691 7.91925 39.3611 7.60327 39.4916C7.28729 39.6221 6.94853 39.6886 6.60666 39.6871Z" fill="black"/>
</svg>
