<svg width="48" height="48" viewBox="0 0 48 48" fill="none" xmlns="http://www.w3.org/2000/svg">
<path d="M39.16 42H8.84C8.08679 42 7.36442 41.7008 6.83182 41.1682C6.29921 40.6356 6 39.9132 6 39.16C6 38.4068 6.29921 37.6844 6.83182 37.1518C7.36442 36.6192 8.08679 36.32 8.84 36.32H39.16C39.9132 36.32 40.6356 36.6192 41.1682 37.1518C41.7008 37.6844 42 38.4068 42 39.16C42 39.9132 41.7008 40.6356 41.1682 41.1682C40.6356 41.7008 39.9132 42 39.16 42Z" fill="black"/>
<path d="M35.13 22.15C34.5981 21.6224 33.8792 21.3263 33.13 21.3263C32.3808 21.3263 31.6619 21.6224 31.13 22.15L26.86 26.42V8.84C26.86 8.08679 26.5608 7.36442 26.0282 6.83182C25.4956 6.29921 24.7732 6 24.02 6C23.2668 6 22.5444 6.29921 22.0118 6.83182C21.4792 7.36442 21.18 8.08679 21.18 8.84V26.42L16.91 22.15C16.3656 21.696 15.6711 21.462 14.9629 21.494C14.2548 21.526 13.5842 21.8217 13.0829 22.3229C12.5817 22.8242 12.286 23.4948 12.254 24.2029C12.222 24.9111 12.456 25.6056 12.91 26.15L21.41 34.66C22.1076 35.3574 23.0536 35.7491 24.04 35.7491C25.0264 35.7491 25.9724 35.3574 26.67 34.66L35.17 26.15C35.6948 25.6141 35.9853 24.8918 35.9778 24.1417C35.9703 23.3917 35.6654 22.6753 35.13 22.15Z" fill="black"/>
</svg>
