<svg width="48" height="48" viewBox="0 0 48 48" fill="none" xmlns="http://www.w3.org/2000/svg">
<path d="M40.6199 42H7.37987C7.03287 41.9705 6.70958 41.8118 6.47399 41.5553C6.2384 41.2988 6.10767 40.9633 6.10767 40.615C6.10767 40.2667 6.2384 39.9312 6.47399 39.6747C6.70958 39.4182 7.03287 39.2595 7.37987 39.23H40.6199C40.9669 39.2595 41.2902 39.4182 41.5258 39.6747C41.7614 39.9312 41.8921 40.2667 41.8921 40.615C41.8921 40.9633 41.7614 41.2988 41.5258 41.5553C41.2902 41.8118 40.9669 41.9705 40.6199 42Z" fill="black"/>
<path d="M34.9999 23.19C34.8702 23.0557 34.7149 22.9489 34.5431 22.876C34.3713 22.803 34.1865 22.7655 33.9999 22.7655C33.8132 22.7655 33.6285 22.803 33.4567 22.876C33.2849 22.9489 33.1295 23.0557 32.9999 23.19L25.3599 30.83V7.38C25.3599 7.19878 25.3242 7.01933 25.2548 6.8519C25.1855 6.68447 25.0838 6.53234 24.9557 6.40419C24.8275 6.27605 24.6754 6.1744 24.508 6.10505C24.3405 6.03569 24.1611 6 23.9799 6C23.7986 6 23.6192 6.03569 23.4518 6.10505C23.2843 6.1744 23.1322 6.27605 23.0041 6.40419C22.8759 6.53234 22.7743 6.68447 22.7049 6.8519C22.6356 7.01933 22.5999 7.19878 22.5999 7.38V30.83L14.9999 23.19C14.7347 22.9248 14.3749 22.7758 13.9999 22.7758C13.6248 22.7758 13.2651 22.9248 12.9999 23.19C12.7347 23.4552 12.5857 23.8149 12.5857 24.19C12.5857 24.5651 12.7347 24.9248 12.9999 25.19L22.3199 34.51C22.7214 34.9088 23.2549 35.1471 23.8199 35.18H24.1499C24.7107 35.142 25.2393 34.9043 25.6399 34.51L34.9999 25.15C35.2588 24.8896 35.4041 24.5372 35.4041 24.17C35.4041 23.8028 35.2588 23.4504 34.9999 23.19Z" fill="black"/>
</svg>
