<svg width="48" height="48" viewBox="0 0 48 48" fill="none" xmlns="http://www.w3.org/2000/svg">
<path d="M38.2993 30.0039V17.9961C39.2258 17.5794 40.0373 16.944 40.664 16.1445C41.2906 15.3449 41.7138 14.4051 41.8971 13.4059C42.0803 12.4066 42.0182 11.3779 41.7161 10.4079C41.4139 9.43802 40.8807 8.55598 40.1624 7.83763C39.444 7.11928 38.562 6.58611 37.5921 6.28395C36.6221 5.98179 35.5934 5.91967 34.5941 6.10293C33.5949 6.2862 32.6551 6.70936 31.8555 7.33606C31.056 7.96275 30.4206 8.77423 30.0039 9.70074H17.9961C17.5794 8.77423 16.944 7.96275 16.1445 7.33606C15.3449 6.70936 14.4051 6.2862 13.4059 6.10293C12.4066 5.91967 11.3779 5.98179 10.4079 6.28395C9.43802 6.58611 8.55598 7.11928 7.83763 7.83763C7.11928 8.55598 6.58611 9.43802 6.28395 10.4079C5.98179 11.3779 5.91967 12.4066 6.10293 13.4059C6.2862 14.4051 6.70936 15.3449 7.33606 16.1445C7.96275 16.944 8.77423 17.5794 9.70074 17.9961V30.0039C8.77423 30.4206 7.96275 31.056 7.33606 31.8555C6.70936 32.6551 6.2862 33.5949 6.10293 34.5941C5.91967 35.5934 5.98179 36.6221 6.28395 37.5921C6.58611 38.562 7.11928 39.444 7.83763 40.1624C8.55598 40.8807 9.43802 41.4139 10.4079 41.7161C11.3779 42.0182 12.4066 42.0803 13.4059 41.8971C14.4051 41.7138 15.3449 41.2906 16.1445 40.664C16.944 40.0373 17.5794 39.2258 17.9961 38.2993H30.0039C30.4206 39.2258 31.056 40.0373 31.8555 40.664C32.6551 41.2906 33.5949 41.7138 34.5941 41.8971C35.5934 42.0803 36.6221 42.0182 37.5921 41.7161C38.562 41.4139 39.444 40.8807 40.1624 40.1624C40.8807 39.444 41.4139 38.562 41.7161 37.5921C42.0182 36.6221 42.0803 35.5934 41.8971 34.5941C41.7138 33.5949 41.2906 32.6551 40.664 31.8555C40.0373 31.056 39.2258 30.4206 38.2993 30.0039ZM30.0039 33.1559H17.9961C17.3659 31.7554 16.2446 30.6341 14.8441 30.0039V17.9961C16.2446 17.3659 17.3659 16.2446 17.9961 14.8441H30.0039C30.6341 16.2446 31.7554 17.3659 33.1559 17.9961V30.0039C31.7554 30.6341 30.6341 31.7554 30.0039 33.1559ZM35.7276 11.1417C35.9532 11.1417 36.1738 11.2086 36.3614 11.3339C36.5489 11.4593 36.6952 11.6374 36.7815 11.8459C36.8678 12.0543 36.8904 12.2837 36.8464 12.505C36.8024 12.7262 36.6938 12.9295 36.5342 13.089C36.3747 13.2486 36.1714 13.3572 35.9501 13.4012C35.7289 13.4453 35.4995 13.4227 35.2911 13.3363C35.0826 13.25 34.9044 13.1038 34.7791 12.9162C34.6538 12.7286 34.5869 12.508 34.5869 12.2824C34.5855 12.1318 34.6141 11.9824 34.6708 11.8428C34.7275 11.7032 34.8113 11.5763 34.9174 11.4693C35.0235 11.3623 35.1497 11.2774 35.2887 11.2195C35.4278 11.1615 35.5769 11.1317 35.7276 11.1317V11.1417ZM12.2724 11.1417C12.4985 11.1417 12.7194 11.2088 12.9072 11.3346C13.095 11.4604 13.2412 11.6392 13.3272 11.8482C13.4133 12.0572 13.4353 12.2871 13.3904 12.5087C13.3456 12.7302 13.236 12.9335 13.0754 13.0926C12.9149 13.2517 12.7107 13.3596 12.4888 13.4024C12.2668 13.4453 12.0371 13.4213 11.8289 13.3334C11.6206 13.2455 11.4432 13.0978 11.319 12.9089C11.1949 12.72 11.1297 12.4984 11.1317 12.2724C11.1317 11.9699 11.2519 11.6797 11.4658 11.4658C11.6797 11.2519 11.9699 11.1317 12.2724 11.1317V11.1417ZM12.2724 36.8783C12.0468 36.8783 11.8262 36.8114 11.6386 36.6861C11.4511 36.5607 11.3048 36.3826 11.2185 36.1741C11.1322 35.9657 11.1096 35.7363 11.1536 35.5151C11.1976 35.2938 11.3063 35.0905 11.4658 34.931C11.6253 34.7714 11.8286 34.6628 12.0499 34.6188C12.2711 34.5748 12.5005 34.5974 12.709 34.6837C12.9174 34.77 13.0956 34.9162 13.2209 35.1038C13.3462 35.2914 13.4131 35.512 13.4131 35.7376C13.4105 36.0384 13.2892 36.326 13.0755 36.5378C12.8619 36.7495 12.5732 36.8683 12.2724 36.8683V36.8783ZM35.7276 36.8783C35.502 36.8783 35.2814 36.8114 35.0938 36.6861C34.9062 36.5607 34.76 36.3826 34.6737 36.1741C34.5873 35.9657 34.5648 35.7363 34.6088 35.5151C34.6528 35.2938 34.7614 35.0905 34.921 34.931C35.0805 34.7714 35.2838 34.6628 35.505 34.6188C35.7263 34.5748 35.9557 34.5974 36.1641 34.6837C36.3726 34.77 36.5507 34.9162 36.6761 35.1038C36.8014 35.2914 36.8683 35.512 36.8683 35.7376C36.8657 36.0384 36.7443 36.326 36.5307 36.5378C36.3171 36.7495 36.0284 36.8683 35.7276 36.8683V36.8783Z" fill="black"/>
</svg>
