<svg width="48" height="48" viewBox="0 0 48 48" fill="none" xmlns="http://www.w3.org/2000/svg">
<path d="M41.6271 20.7287C40.9737 17.1617 39.2505 13.8779 36.6863 11.3137C34.1221 8.74951 30.8383 7.02626 27.2713 6.37292C27.046 5.68294 26.6082 5.08189 26.0207 4.65569C25.4331 4.2295 24.7258 4 24 4C23.2742 4 22.5669 4.2295 21.9793 4.65569C21.3918 5.08189 20.954 5.68294 20.7287 6.37292C17.1623 7.02758 13.8792 8.75126 11.3152 11.3152C8.75126 13.8792 7.02758 17.1623 6.37292 20.7287C5.68294 20.954 5.08189 21.3918 4.65569 21.9793C4.2295 22.5669 4 23.2742 4 24C4 24.7258 4.2295 25.4331 4.65569 26.0207C5.08189 26.6082 5.68294 27.046 6.37292 27.2713C7.02758 30.8377 8.75126 34.1208 11.3152 36.6848C13.8792 39.2487 17.1623 40.9724 20.7287 41.6271C20.954 42.3171 21.3918 42.9181 21.9793 43.3443C22.5669 43.7705 23.2742 44 24 44C24.7258 44 25.4331 43.7705 26.0207 43.3443C26.6082 42.9181 27.046 42.3171 27.2713 41.6271C30.8377 40.9724 34.1208 39.2487 36.6848 36.6848C39.2487 34.1208 40.9724 30.8377 41.6271 27.2713C42.3171 27.046 42.9181 26.6082 43.3443 26.0207C43.7705 25.4331 44 24.7258 44 24C44 23.2742 43.7705 22.5669 43.3443 21.9793C42.9181 21.3918 42.3171 20.954 41.6271 20.7287ZM24 6.78308C24.1326 6.78308 24.2622 6.82239 24.3724 6.89604C24.4826 6.96969 24.5685 7.07437 24.6192 7.19685C24.67 7.31933 24.6833 7.45409 24.6574 7.58411C24.6315 7.71413 24.5677 7.83356 24.4739 7.9273C24.3802 8.02104 24.2608 8.08488 24.1308 8.11074C24.0007 8.1366 23.866 8.12333 23.7435 8.0726C23.621 8.02187 23.5163 7.93596 23.4427 7.82573C23.369 7.71551 23.3297 7.58592 23.3297 7.45335C23.3297 7.27559 23.4003 7.1051 23.526 6.9794C23.6517 6.8537 23.8222 6.78308 24 6.78308ZM7.45335 24.6703C7.32078 24.6703 7.1912 24.631 7.08097 24.5573C6.97074 24.4837 6.88483 24.379 6.8341 24.2565C6.78337 24.134 6.7701 23.9993 6.79596 23.8692C6.82182 23.7392 6.88566 23.6198 6.9794 23.526C7.07314 23.4323 7.19257 23.3685 7.32259 23.3426C7.45261 23.3167 7.58738 23.33 7.70985 23.3808C7.83233 23.4315 7.93701 23.5174 8.01066 23.6276C8.08431 23.7378 8.12362 23.8674 8.12362 24C8.12362 24.1778 8.053 24.3482 7.9273 24.4739C7.8016 24.5996 7.63112 24.6703 7.45335 24.6703ZM24 41.2169C23.8674 41.2169 23.7378 41.1776 23.6276 41.104C23.5174 41.0303 23.4315 40.9256 23.3808 40.8031C23.33 40.6807 23.3167 40.5459 23.3426 40.4159C23.3685 40.2859 23.4323 40.1664 23.526 40.0727C23.6198 39.979 23.7392 39.9151 23.8692 39.8893C23.9993 39.8634 24.134 39.8767 24.2565 39.9274C24.379 39.9781 24.4837 40.064 24.5573 40.1743C24.631 40.2845 24.6703 40.4141 24.6703 40.5466C24.6703 40.7244 24.5996 40.8949 24.4739 41.0206C24.3482 41.1463 24.1778 41.2169 24 41.2169ZM38.846 27.0012C38.2617 29.9244 36.8251 32.6093 34.7172 34.7172C32.6093 36.8251 29.9244 38.2617 27.0012 38.846C26.7021 38.3129 26.2664 37.8691 25.7389 37.5603C25.2115 37.2514 24.6112 37.0886 24 37.0886C23.3888 37.0886 22.7885 37.2514 22.2611 37.5603C21.7336 37.8691 21.2979 38.3129 20.9988 38.846C18.0756 38.2617 15.3907 36.8251 13.2828 34.7172C11.1749 32.6093 9.73827 29.9244 9.15403 27.0012C9.6871 26.7021 10.1309 26.2664 10.4397 25.7389C10.7486 25.2115 10.9114 24.6112 10.9114 24C10.9114 23.3888 10.7486 22.7885 10.4397 22.2611C10.1309 21.7336 9.6871 21.2979 9.15403 20.9988C9.73827 18.0756 11.1749 15.3907 13.2828 13.2828C15.3907 11.1749 18.0756 9.73827 20.9988 9.15403C21.2979 9.6871 21.7336 10.1309 22.2611 10.4397C22.7885 10.7486 23.3888 10.9114 24 10.9114C24.6112 10.9114 25.2115 10.7486 25.7389 10.4397C26.2664 10.1309 26.7021 9.6871 27.0012 9.15403C29.9244 9.73827 32.6093 11.1749 34.7172 13.2828C36.8251 15.3907 38.2617 18.0756 38.846 20.9988C38.3129 21.2979 37.8691 21.7336 37.5603 22.2611C37.2514 22.7885 37.0886 23.3888 37.0886 24C37.0886 24.6112 37.2514 25.2115 37.5603 25.7389C37.8691 26.2664 38.3129 26.7021 38.846 27.0012ZM40.5466 24.6703C40.4141 24.6703 40.2845 24.631 40.1743 24.5573C40.064 24.4837 39.9781 24.379 39.9274 24.2565C39.8767 24.134 39.8634 23.9993 39.8893 23.8692C39.9151 23.7392 39.979 23.6198 40.0727 23.526C40.1664 23.4323 40.2859 23.3685 40.4159 23.3426C40.5459 23.3167 40.6807 23.33 40.8031 23.3808C40.9256 23.4315 41.0303 23.5174 41.104 23.6276C41.1776 23.7378 41.2169 23.8674 41.2169 24C41.2169 24.088 41.1996 24.1752 41.1659 24.2565C41.1322 24.3378 41.0828 24.4117 41.0206 24.4739C40.9584 24.5362 40.8845 24.5856 40.8031 24.6192C40.7218 24.6529 40.6347 24.6703 40.5466 24.6703Z" fill="black"/>
</svg>
