<svg width="48" height="48" viewBox="0 0 48 48" fill="none" xmlns="http://www.w3.org/2000/svg">
<path d="M39.9904 35.4731V12.4869C40.4899 12.2579 40.9264 11.9113 41.2625 11.4767C41.5986 11.0421 41.8243 10.5325 41.9202 9.9915C42.0162 9.45053 41.9796 8.89436 41.8135 8.37066C41.6474 7.84696 41.3568 7.37135 40.9665 6.98459C40.5763 6.59783 40.0981 6.31145 39.573 6.15001C39.0478 5.98857 38.4914 5.95687 37.9513 6.05765C37.4112 6.15842 36.9036 6.38865 36.472 6.7286C36.0404 7.06856 35.6976 7.5081 35.4731 8.00955H12.4869C12.2579 7.51011 11.9113 7.07363 11.4767 6.73753C11.0421 6.40142 10.5325 6.17572 9.9915 6.07975C9.45053 5.98378 8.89436 6.02042 8.37066 6.18653C7.84696 6.35263 7.37135 6.64324 6.98459 7.03346C6.59783 7.42367 6.31145 7.90185 6.15001 8.42701C5.98857 8.95216 5.95687 9.50863 6.05765 10.0487C6.15842 10.5888 6.38865 11.0964 6.7286 11.528C7.06856 11.9596 7.5081 12.3024 8.00955 12.5269V35.5131C7.51011 35.7421 7.07363 36.0887 6.73753 36.5233C6.40142 36.9579 6.17572 37.4675 6.07975 38.0085C5.98378 38.5495 6.02042 39.1056 6.18653 39.6293C6.35263 40.153 6.64324 40.6286 7.03346 41.0154C7.42367 41.4022 7.90185 41.6885 8.42701 41.85C8.95216 42.0114 9.50863 42.0431 10.0487 41.9424C10.5888 41.8416 11.0964 41.6114 11.528 41.2714C11.9596 40.9314 12.3024 40.4919 12.5269 39.9904H35.5131C35.7421 40.4899 36.0887 40.9264 36.5233 41.2625C36.9579 41.5986 37.4675 41.8243 38.0085 41.9202C38.5495 42.0162 39.1056 41.9796 39.6293 41.8135C40.153 41.6474 40.6286 41.3568 41.0154 40.9665C41.4022 40.5763 41.6885 40.0981 41.85 39.573C42.0114 39.0478 42.0431 38.4914 41.9424 37.9513C41.8416 37.4112 41.6114 36.9036 41.2714 36.472C40.9314 36.0404 40.4919 35.6976 39.9904 35.4731ZM35.4731 37.1921H12.4869C12.1529 36.4353 11.5566 35.8248 10.8079 35.4731V12.4869C11.5647 12.1529 12.1752 11.5566 12.5269 10.8079H35.5131C35.8578 11.5745 36.4735 12.1867 37.2421 12.5269V35.5131C36.4655 35.8354 35.8355 36.4334 35.4731 37.1921ZM38.5813 8.77909C38.7078 8.77909 38.8315 8.8166 38.9366 8.88689C39.0418 8.95717 39.1238 9.05706 39.1722 9.17394C39.2206 9.29081 39.2333 9.41942 39.2086 9.54349C39.1839 9.66757 39.123 9.78154 39.0336 9.87099C38.9441 9.96044 38.8301 10.0214 38.7061 10.046C38.582 10.0707 38.4534 10.058 38.3365 10.0096C38.2196 9.96123 38.1198 9.87925 38.0495 9.77406C37.9792 9.66888 37.9417 9.54521 37.9417 9.41871C37.9417 9.24907 38.0091 9.08638 38.129 8.96643C38.249 8.84648 38.4117 8.77909 38.5813 8.77909ZM9.41871 8.77909C9.58835 8.77909 9.75104 8.84648 9.87099 8.96643C9.99094 9.08638 10.0583 9.24907 10.0583 9.41871C10.0583 9.58835 9.99094 9.75104 9.87099 9.87099C9.75104 9.99094 9.58835 10.0583 9.41871 10.0583C9.24907 10.0583 9.08638 9.99094 8.96643 9.87099C8.84648 9.75104 8.77909 9.58835 8.77909 9.41871C8.77909 9.24907 8.84648 9.08638 8.96643 8.96643C9.08638 8.84648 9.24907 8.77909 9.41871 8.77909ZM9.41871 39.2209C9.24907 39.2209 9.08638 39.1535 8.96643 39.0336C8.84648 38.9136 8.77909 38.7509 8.77909 38.5813C8.77909 38.4548 8.8166 38.3311 8.88689 38.2259C8.95717 38.1208 9.05706 38.0388 9.17394 37.9904C9.29081 37.9419 9.41942 37.9293 9.54349 37.954C9.66757 37.9786 9.78154 38.0396 9.87099 38.129C9.96044 38.2185 10.0214 38.3324 10.046 38.4565C10.0707 38.5806 10.058 38.7092 10.0096 38.8261C9.96123 38.9429 9.87925 39.0428 9.77406 39.1131C9.66888 39.1834 9.54521 39.2209 9.41871 39.2209ZM38.5813 39.2209C38.4117 39.2209 38.249 39.1535 38.129 39.0336C38.0091 38.9136 37.9417 38.7509 37.9417 38.5813C37.9417 38.4117 38.0091 38.249 38.129 38.129C38.249 38.0091 38.4117 37.9417 38.5813 37.9417C38.7509 37.9417 38.9136 38.0091 39.0336 38.129C39.1535 38.249 39.2209 38.4117 39.2209 38.5813C39.2209 38.7509 39.1535 38.9136 39.0336 39.0336C38.9136 39.1535 38.7509 39.2209 38.5813 39.2209Z" fill="black"/>
</svg>
