<svg width="48" height="48" viewBox="0 0 48 48" fill="none" xmlns="http://www.w3.org/2000/svg">
<path d="M43.9999 24.0045C43.9979 22.5305 43.4904 21.1017 42.5622 19.9567C41.6341 18.8118 40.3414 18.0198 38.8999 17.7131C37.265 13.8276 34.1746 10.7365 30.2899 9.10119C29.9841 7.65936 29.1924 6.36635 28.0474 5.43856C26.9024 4.51078 25.4735 4.00452 23.9999 4.00452C22.5263 4.00452 21.0975 4.51078 19.9524 5.43856C18.8074 6.36635 18.0158 7.65936 17.7099 9.10119C13.8253 10.7365 10.7348 13.8276 9.09993 17.7131C7.65842 18.019 6.3657 18.8109 5.43812 19.9561C4.51054 21.1014 4.00439 22.5306 4.00439 24.0045C4.00439 25.4784 4.51054 26.9076 5.43812 28.0529C6.3657 29.1982 7.65842 29.99 9.09993 30.2959C10.7348 34.1814 13.8253 37.2726 17.7099 38.9078C18.0158 40.3497 18.8074 41.6427 19.9524 42.5705C21.0975 43.4983 22.5263 44.0045 23.9999 44.0045C25.4735 44.0045 26.9024 43.4983 28.0474 42.5705C29.1924 41.6427 29.9841 40.3497 30.2899 38.9078C34.1746 37.2726 37.265 34.1814 38.8999 30.2959C40.3414 29.9892 41.6341 29.1973 42.5622 28.0523C43.4904 26.9073 43.9979 25.4786 43.9999 24.0045ZM37.5699 25.2148C37.3306 25.2148 37.0967 25.1438 36.8977 25.0108C36.6987 24.8778 36.5436 24.6888 36.452 24.4677C36.3605 24.2465 36.3365 24.0032 36.3832 23.7684C36.4299 23.5336 36.5451 23.318 36.7143 23.1487C36.8835 22.9795 37.0992 22.8642 37.3339 22.8175C37.5686 22.7708 37.8119 22.7948 38.033 22.8864C38.2541 22.978 38.443 23.1331 38.576 23.3321C38.709 23.5312 38.7799 23.7651 38.7799 24.0045C38.7799 24.3255 38.6524 24.6333 38.4255 24.8603C38.1986 25.0873 37.8908 25.2148 37.5699 25.2148ZM23.9999 9.22122C24.2392 9.22122 24.4732 9.2922 24.6722 9.42518C24.8712 9.55817 25.0262 9.74719 25.1178 9.96834C25.2094 10.1895 25.2334 10.4328 25.1867 10.6676C25.14 10.9024 25.0247 11.118 24.8555 11.2873C24.6863 11.4565 24.4707 11.5718 24.236 11.6185C24.0013 11.6652 23.758 11.6412 23.5369 11.5496C23.3158 11.458 23.1268 11.3029 22.9938 11.1039C22.8609 10.9048 22.7899 10.6709 22.7899 10.4315C22.7899 10.1105 22.9174 9.80267 23.1443 9.5757C23.3712 9.34873 23.679 9.22122 23.9999 9.22122ZM10.4299 22.7942C10.6692 22.7942 10.9032 22.8652 11.1022 22.9982C11.3012 23.1312 11.4562 23.3202 11.5478 23.5414C11.6394 23.7625 11.6634 24.0059 11.6167 24.2406C11.57 24.4754 11.4547 24.691 11.2855 24.8603C11.1163 25.0296 10.9007 25.1448 10.666 25.1915C10.4313 25.2382 10.188 25.2143 9.96688 25.1227C9.74578 25.0311 9.55681 24.8759 9.42385 24.6769C9.29089 24.4779 9.21993 24.2439 9.21993 24.0045C9.21993 23.6835 9.34741 23.3757 9.57433 23.1487C9.80125 22.9218 10.109 22.7942 10.4299 22.7942ZM23.9999 38.7878C23.7606 38.7878 23.5267 38.7168 23.3277 38.5839C23.1287 38.4509 22.9736 38.2618 22.882 38.0407C22.7905 37.8195 22.7665 37.5762 22.8132 37.3414C22.8599 37.1067 22.9751 36.891 23.1443 36.7218C23.3136 36.5525 23.5292 36.4372 23.7639 36.3905C23.9986 36.3438 24.2419 36.3678 24.463 36.4594C24.6841 36.551 24.8731 36.7061 25.006 36.9052C25.139 37.1042 25.2099 37.3382 25.2099 37.5775C25.2099 37.8985 25.0824 38.2064 24.8555 38.4333C24.6286 38.6603 24.3208 38.7878 23.9999 38.7878ZM29.1099 33.7067C28.5134 32.9154 27.7414 32.2735 26.8547 31.8315C25.9679 31.3895 24.9907 31.1594 23.9999 31.1594C23.0092 31.1594 22.0319 31.3895 21.1452 31.8315C20.2585 32.2735 19.4864 32.9154 18.8899 33.7067C16.9304 32.6766 15.3298 31.0756 14.2999 29.1157C15.091 28.519 15.7328 27.7468 16.1747 26.8599C16.6166 25.9729 16.8466 24.9955 16.8466 24.0045C16.8466 23.0135 16.6166 22.0361 16.1747 21.1492C15.7328 20.2622 15.091 19.49 14.2999 18.8934C15.3298 16.9334 16.9304 15.3325 18.8899 14.3024C19.4864 15.0936 20.2585 15.7355 21.1452 16.1775C22.0319 16.6195 23.0092 16.8496 23.9999 16.8496C24.9907 16.8496 25.9679 16.6195 26.8547 16.1775C27.7414 15.7355 28.5134 15.0936 29.1099 14.3024C31.0694 15.3325 32.67 16.9334 33.6999 18.8934C32.9089 19.49 32.2671 20.2622 31.8252 21.1492C31.3832 22.0361 31.1532 23.0135 31.1532 24.0045C31.1532 24.9955 31.3832 25.9729 31.8252 26.8599C32.2671 27.7468 32.9089 28.519 33.6999 29.1157C32.67 31.0756 31.0694 32.6766 29.1099 33.7067Z" fill="black"/>
</svg>
