<svg width="48" height="48" viewBox="0 0 48 48" fill="none" xmlns="http://www.w3.org/2000/svg">
<path fill-rule="evenodd" clip-rule="evenodd" d="M33.52 38.16C32.7692 34.0178 31.6583 29.949 30.2 26C33.7546 25.4766 37.3803 25.7256 40.83 26.73C40.4673 29.0369 39.6305 31.2435 38.3724 33.2108C37.1142 35.178 35.462 36.8632 33.52 38.16ZM24 41.09C20.2026 41.0942 16.5132 39.8268 13.52 37.49C13.83 36.86 17.3 30.18 26.93 26.82H27.04C28.6609 31.0116 29.8797 35.3478 30.68 39.77C28.5669 40.6616 26.2935 41.1109 24 41.09ZM6.91001 24V23.5C12.8457 23.5269 18.755 22.7087 24.46 21.07C24.9467 22.03 25.4067 23 25.84 23.98L25.17 24.17C16.36 27 11.68 34.78 11.29 35.43C8.46142 32.296 6.90013 28.2217 6.91001 24ZM16.73 8.56C19.0279 11.7277 21.1446 15.023 23.07 18.43C17.913 19.7741 12.6091 20.4728 7.28001 20.51C7.82507 17.9235 8.96199 15.4985 10.6016 13.4252C12.2412 11.3518 14.3388 9.68657 16.73 8.56ZM24 7C28.1732 6.99531 32.2024 8.52582 35.32 11.3C35.02 11.73 32.44 15.18 26.32 17.46C24.4333 13.9766 22.3222 10.6195 20 7.41C21.3124 7.11557 22.6552 6.97795 24 7ZM37.21 13.22C39.6721 16.219 41.0342 19.97 41.07 23.85C37.1555 23.0801 33.1482 22.8981 29.18 23.31C29.05 23.02 28.95 22.72 28.82 22.42C28.47 21.59 28.08 20.75 27.69 19.94C31.3908 18.5604 34.6708 16.2451 37.21 13.22ZM24 4C20.0444 4 16.1776 5.17298 12.8886 7.37061C9.59962 9.56824 7.03617 12.6918 5.52242 16.3463C4.00867 20.0009 3.6126 24.0222 4.3843 27.9018C5.15601 31.7814 7.06082 35.3451 9.85787 38.1421C12.6549 40.9392 16.2186 42.844 20.0982 43.6157C23.9778 44.3874 27.9992 43.9913 31.6537 42.4776C35.3082 40.9638 38.4318 38.4004 40.6294 35.1114C42.827 31.8224 44 27.9556 44 24C44 18.6957 41.8929 13.6086 38.1421 9.85786C34.3914 6.10714 29.3043 4 24 4Z" fill="black"/>
</svg>
