<svg width="48" height="48" viewBox="0 0 48 48" fill="none" xmlns="http://www.w3.org/2000/svg">
<path fill-rule="evenodd" clip-rule="evenodd" d="M24.74 24.11C21.1117 25.4223 18.0323 27.9203 16 31.2C14.216 29.2264 13.2288 26.6604 13.23 24V23.68C16.9711 23.695 20.6953 23.1765 24.29 22.14C24.6 22.75 24.89 23.36 25.16 23.98L24.74 24.11ZM25.85 25.78H25.91C26.9335 28.421 27.7036 31.1533 28.21 33.94C26.4439 34.688 24.5096 34.949 22.6084 34.6957C20.7072 34.4425 18.9087 33.6843 17.4 32.5C17.59 32.1 19.78 27.9 25.85 25.78ZM23.41 20.49C20.1609 21.3399 16.8183 21.7799 13.46 21.8C13.8132 20.1678 14.5383 18.6391 15.579 17.333C16.6197 16.0269 17.9479 14.9787 19.46 14.27C20.8898 16.2693 22.2084 18.3458 23.41 20.49ZM31.13 16C29.6636 17.8125 27.7053 19.1633 25.49 19.89C24.2946 17.7055 22.9584 15.6011 21.49 13.59C22.3104 13.3797 23.1531 13.2689 24 13.26C26.6321 13.2688 29.1694 14.2438 31.13 16ZM26.32 21.48C28.6534 20.6149 30.7212 19.1571 32.32 17.25C33.874 19.1356 34.7351 21.4967 34.76 23.94C32.2932 23.4628 29.7699 23.3483 27.27 23.6C27.18 23.43 27.12 23.23 27.03 23.04C26.82 22.48 26.57 22 26.32 21.44V21.48ZM27.91 25.3C30.1504 24.9689 32.4359 25.1258 34.61 25.76C34.3738 27.2058 33.8426 28.5876 33.0495 29.8193C32.2564 31.0511 31.2184 32.1065 30 32.92C29.5254 30.3112 28.8261 27.7483 27.91 25.26V25.3ZM24 36.6C26.492 36.6 28.9281 35.861 31.0002 34.4765C33.0722 33.092 34.6872 31.1242 35.6409 28.8218C36.5945 26.5195 36.8441 23.986 36.3579 21.5419C35.8717 19.0977 34.6717 16.8526 32.9095 15.0905C31.1474 13.3283 28.9023 12.1283 26.4581 11.6421C24.014 11.1559 21.4805 11.4055 19.1782 12.3591C16.8758 13.3128 14.908 14.9278 13.5235 16.9998C12.139 19.0719 11.4 21.508 11.4 24C11.4026 27.3409 12.731 30.5442 15.0934 32.9066C17.4558 35.269 20.6591 36.5974 24 36.6ZM40 6C40.5304 6 41.0391 6.21071 41.4142 6.58579C41.7893 6.96086 42 7.46957 42 8V40C42 40.5304 41.7893 41.0391 41.4142 41.4142C41.0391 41.7893 40.5304 42 40 42H8C7.46957 42 6.96086 41.7893 6.58579 41.4142C6.21071 41.0391 6 40.5304 6 40V8C6 7.46957 6.21071 6.96086 6.58579 6.58579C6.96086 6.21071 7.46957 6 8 6H40Z" fill="black"/>
</svg>
