<svg width="48" height="48" viewBox="0 0 48 48" fill="none" xmlns="http://www.w3.org/2000/svg">
<path fill-rule="evenodd" clip-rule="evenodd" d="M16.229 23.0407C16.3932 23.0407 16.5537 22.992 16.6903 22.9007C16.8268 22.8095 16.9332 22.6798 16.996 22.5281C17.0589 22.3764 17.0753 22.2095 17.0433 22.0485C17.0113 21.8874 16.9322 21.7395 16.8161 21.6234C16.7 21.5072 16.552 21.4282 16.391 21.3961C16.2299 21.3641 16.063 21.3805 15.9113 21.4434C15.7596 21.5062 15.6299 21.6126 15.5387 21.7492C15.4475 21.8857 15.3988 22.0462 15.3988 22.2104C15.3988 22.4306 15.4862 22.6418 15.6419 22.7975C15.7976 22.9532 16.0088 23.0407 16.229 23.0407ZM39.0155 26.4016C38.7955 25.3113 39.3556 24.6011 39.9258 24.5211C40.0424 24.5073 40.1603 24.5335 40.2602 24.5952C40.3601 24.657 40.4361 24.7507 40.476 24.8612C40.566 25.3213 40.476 26.0015 39.1756 26.8618C39.1 26.717 39.0461 26.562 39.0155 26.4016ZM36.1547 20.1098C36.8249 20.0398 36.7949 22.9706 35.4445 24.8112C35.2745 24.111 35.0144 20.3299 36.1547 20.1098ZM30.283 23.9809C30.193 23.3007 30.193 20.2399 30.9232 20.3199C31.3233 20.4799 30.6631 23.3708 30.283 23.9809ZM25.0115 23.9409C24.9215 23.2507 24.9115 20.1998 25.6517 20.2799C26.0118 20.4399 25.3516 23.3307 25.0115 23.9409ZM19.65 23.9409C19.56 23.2507 19.56 20.1998 20.2902 20.2799C20.6603 20.4399 20.0101 23.3307 19.61 23.9409H19.65ZM8.23671 25.1113C8.23671 25.0512 8.23671 25.1113 8.16669 25.0412C7.90112 24.3011 7.74607 23.5259 7.70656 22.7406C7.70656 21.5902 7.85661 20.2399 8.42677 20.2399C8.80688 20.2399 9.217 22.9806 8.23671 25.1113ZM6.23614 27.9021C5.86546 27.8664 5.52328 27.6877 5.28232 27.4038C5.04137 27.1198 4.92063 26.7532 4.94577 26.3816C4.92508 26.1952 4.94204 26.0066 4.99565 25.8269C5.04925 25.6471 5.1384 25.48 5.25782 25.3354C5.37724 25.1908 5.52448 25.0717 5.69082 24.9851C5.85715 24.8984 6.03919 24.8461 6.22614 24.8312C6.37961 24.815 6.53476 24.8316 6.68133 24.8799C6.8279 24.9282 6.96255 25.0071 7.07638 25.1113C7.1264 25.3113 7.27644 25.7714 7.34646 25.9915C7.41648 26.2116 7.55652 26.5117 7.66655 26.7717C7.60391 27.0975 7.42997 27.3914 7.17449 27.6031C6.91902 27.8148 6.59792 27.9311 6.26615 27.9321L6.23614 27.9021ZM43.5969 25.8815C43.4668 25.7915 43.3768 25.7714 43.2868 25.9515C41.8964 28.9524 39.5457 27.4519 39.7858 27.592C40.3145 27.3339 40.7557 26.926 41.0545 26.4191C41.3533 25.9123 41.4965 25.3288 41.4662 24.7411C41.4431 24.5406 41.3769 24.3475 41.2722 24.175C41.1674 24.0024 41.0267 23.8546 40.8595 23.7415C40.6923 23.6285 40.5026 23.5529 40.3035 23.52C40.1043 23.4871 39.9004 23.4976 39.7057 23.5508C38.2253 23.8009 37.7052 25.3913 37.9652 26.8017C38.0142 27.0228 38.088 27.2375 38.1853 27.4419C36.5248 28.7923 35.8646 26.2316 35.7846 25.9215C36.7225 24.9209 37.2998 23.6361 37.4251 22.2704C37.8052 19.5897 36.9449 19.1095 36.0747 19.1095C34.4542 19.1095 34.0141 22.5305 34.6043 25.3413C34.4 25.4365 34.1792 25.4909 33.9541 25.5014C33.694 24.6611 32.5637 23.9309 32.2636 24.211C31.5234 24.9212 32.4437 26.3016 33.0938 26.4016C32.7037 28.8023 30.263 28.2121 30.7232 25.2013C31.552 23.6637 31.9916 21.9465 32.0035 20.1998C32.001 20.0514 31.9687 19.905 31.9087 19.7693C31.8486 19.6335 31.7619 19.5112 31.6537 19.4096C31.5455 19.3079 31.418 19.229 31.2788 19.1775C31.1396 19.1259 30.9915 19.1028 30.8432 19.1095C29.3328 19.1696 29.1727 22.5505 29.3428 24.9612C29.1748 25.1964 28.9251 25.3605 28.6426 25.4213C28.4925 24.6111 27.1921 23.8009 26.8821 24.191C26.3119 24.9212 27.3022 26.1916 27.7723 26.3216C27.3822 28.7123 24.9515 28.1221 25.4016 25.1213C26.2321 23.5839 26.675 21.8671 26.692 20.1198C26.6665 19.8323 26.53 19.5661 26.3116 19.3775C26.0931 19.1889 25.8098 19.0928 25.5217 19.1095C24.0112 19.1696 23.8612 22.5505 24.0112 24.9512C23.8375 25.198 23.5765 25.3697 23.281 25.4313C23.281 24.381 21.9506 23.9009 21.6306 24.231C21.0704 24.8312 21.7606 26.0615 22.4008 26.3616C22.0107 28.7523 19.59 28.1621 20.0101 25.1613C20.839 23.6233 21.2819 21.9069 21.3005 20.1598C21.2875 19.8715 21.1617 19.5998 20.9502 19.4034C20.7388 19.2069 20.4586 19.1014 20.1701 19.1095C18.6597 19.1696 18.5397 22.7206 18.7197 25.1113C18.2196 27.2319 16.5591 29.8826 16.7792 24.5711C16.7792 24.191 16.7792 24.051 16.6391 23.9109C16.4991 23.7709 16.179 23.8609 16.0089 23.8609C15.8389 23.8609 15.7389 23.9909 15.6989 24.181C15.5954 24.7012 15.5484 25.2311 15.5588 25.7614C15.5491 26.0472 15.4986 26.3302 15.4088 26.6017C15.2887 27.0118 14.6385 27.752 14.2784 27.602C13.9183 27.4519 13.9484 26.1115 14.0084 25.1113C14.0884 24.351 13.8383 24.0109 13.2081 23.8909C12.8705 23.8519 12.5362 23.7884 12.2079 23.7009C11.8878 23.5908 11.8077 22.8906 11.0075 23.1107C10.5774 23.2407 10.8475 24.111 10.7474 24.8212C10.2673 28.1121 9.21699 28.2121 8.72685 26.6117C10.9175 21.2401 9.35704 19.1095 8.44677 19.1095C7.53651 19.1095 6.4462 19.7597 6.86632 23.9509C6.69675 23.8871 6.51735 23.8532 6.33617 23.8509C6.01475 23.8542 5.69741 23.9232 5.40358 24.0535C5.10976 24.1838 4.84564 24.3728 4.62742 24.6088C4.40921 24.8448 4.24149 25.1229 4.13455 25.426C4.0276 25.7292 3.98369 26.0509 4.0055 26.3716C3.98652 26.6907 4.03254 27.0103 4.14076 27.3111C4.24898 27.6118 4.41715 27.8875 4.63508 28.1213C4.85301 28.3551 5.11615 28.5423 5.40856 28.6714C5.70097 28.8005 6.01655 28.8688 6.33617 28.8723C6.69479 28.8783 7.04922 28.7945 7.36718 28.6285C7.68515 28.4626 7.95655 28.2197 8.15669 27.9221C8.44677 28.3322 8.78687 28.9223 9.42706 28.8523C11.3076 28.7823 11.8477 24.9212 11.9178 24.7011C12.1178 24.7011 12.3079 24.7912 12.4879 24.8212C12.668 24.8512 12.828 24.9912 12.818 25.3013C12.738 27.9221 13.2181 28.8423 14.3185 28.8423C14.9286 28.8423 15.4788 28.2422 15.8489 27.842C15.9566 28.1154 16.138 28.3535 16.3728 28.5301C16.6076 28.7067 16.8868 28.8147 17.1793 28.8423C18.6397 28.8423 19.1799 26.5617 19.1799 26.8418C19.1799 27.1218 19.65 28.8423 21.1804 28.8423C23.031 28.8423 23.3811 26.8418 23.4211 26.4716C23.7246 26.4265 24.0109 26.3023 24.2513 26.1115C24.2513 26.1115 24.7214 28.9223 26.4719 28.8923C28.2224 28.8623 28.6426 27.0118 28.6826 26.6517C28.6826 26.5717 28.6826 26.5817 28.6826 26.6517C29.0211 26.5583 29.3263 26.3711 29.5628 26.1115C29.5628 26.1115 29.9429 28.8723 31.7935 28.8923C32.3942 28.8449 32.9553 28.5741 33.3664 28.1335C33.7774 27.6928 34.0085 27.1142 34.0141 26.5117C34.2786 26.4917 34.5384 26.431 34.7843 26.3316C34.7843 26.3316 35.3945 28.7423 37.075 28.8723C37.7108 28.8561 38.3204 28.6151 38.7955 28.1921C39.2088 28.4838 39.6811 28.681 40.1791 28.7698C40.677 28.8586 41.1884 28.8369 41.6771 28.7061C42.1657 28.5754 42.6196 28.3388 43.0067 28.0132C43.3938 27.6875 43.7045 27.2808 43.9169 26.8217C44.197 26.4216 43.6869 25.9415 43.5969 25.8815Z" fill="black"/>
</svg>
