<svg width="48" height="48" viewBox="0 0 48 48" fill="none" xmlns="http://www.w3.org/2000/svg">
<path fill-rule="evenodd" clip-rule="evenodd" d="M11 20L13.27 21.48L11 23L13.27 24.44L11 25.92L8.64 24.43L11 23L8.64 21.48L11 20ZM6.32 20L8.64 21.48L6.32 23L8.64 24.44L6.32 25.92L4 24.43L6.32 23L4 21.48L6.32 20ZM6.32 26.4L8.63 24.92L11 26.4L8.63 27.88L6.32 26.4ZM15.1 21.48H17C17.3003 21.4576 17.6018 21.5016 17.8831 21.609C18.1645 21.7163 18.4187 21.8843 18.6278 22.101C18.8369 22.3177 18.9956 22.5778 19.0928 22.8628C19.19 23.1478 19.2231 23.4507 19.19 23.75V24.08C19.2396 24.3841 19.2182 24.6956 19.1275 24.9901C19.0369 25.2845 18.8794 25.5541 18.6675 25.7777C18.4555 26.0013 18.1947 26.1729 17.9054 26.2791C17.6162 26.3853 17.3063 26.4233 17 26.39H15.09L15.1 21.48ZM16.15 22.37V25.5H16.95C17.63 25.5 18.09 25.05 18.09 24.06V23.8C18.09 22.8 17.61 22.37 16.91 22.37H16.15ZM19.71 22.37H20.55L20.69 23.29C20.7394 22.9876 20.9026 22.7155 21.1462 22.5296C21.3898 22.3436 21.6952 22.2579 22 22.29H22.26V23.44H21.83C20.97 23.44 20.77 23.74 20.77 24.58V26.4H19.77V22.4L19.71 22.37ZM22.47 24.44V24.38C22.4466 24.1087 22.4819 23.8356 22.5733 23.5791C22.6647 23.3227 22.8101 23.0888 22.9998 22.8935C23.1894 22.6981 23.4189 22.5458 23.6725 22.4469C23.9262 22.3479 24.1982 22.3047 24.47 22.32C24.7423 22.303 25.015 22.3451 25.2694 22.4434C25.5239 22.5418 25.754 22.6941 25.944 22.8898C26.1341 23.0855 26.2795 23.32 26.3702 23.5773C26.461 23.8345 26.4951 24.1084 26.47 24.38V24.49C26.4928 24.7584 26.4567 25.0285 26.3643 25.2815C26.2718 25.5346 26.1253 25.7643 25.9348 25.9548C25.7443 26.1453 25.5146 26.2918 25.2615 26.3843C25.0085 26.4767 24.7384 26.5128 24.47 26.49C24.1992 26.5218 23.9248 26.4921 23.6671 26.403C23.4094 26.3139 23.1752 26.1677 22.982 25.9754C22.7887 25.7831 22.6414 25.5497 22.551 25.2924C22.4606 25.0352 22.4295 24.7609 22.46 24.49L22.47 24.44ZM25.47 24.44V24.34C25.47 23.6 25.1 23.16 24.47 23.16C23.84 23.16 23.47 23.56 23.47 24.34V24.44C23.47 25.16 23.84 25.56 24.47 25.56C25.1 25.56 25.42 25.2 25.42 24.48L25.47 24.44ZM27 22.42H27.87L27.97 23.17C28.0734 22.9101 28.2549 22.6886 28.4896 22.5364C28.7243 22.3841 29.0005 22.3085 29.28 22.32C30.28 22.32 30.96 23.05 30.96 24.4V24.51C30.96 25.82 30.22 26.51 29.28 26.51C29.0174 26.5271 28.7556 26.466 28.5277 26.3343C28.2998 26.2025 28.1162 26.0062 28 25.77V27.77H27V22.42ZM29.9 24.48V24.39C29.9 23.6 29.5 23.21 28.9 23.21C28.3 23.21 27.9 23.65 27.9 24.39V24.47C27.9 25.17 28.27 25.62 28.85 25.62C29.43 25.62 29.92 25.22 29.92 24.48H29.9ZM32.49 25.67L32.4 26.4H31.51V21.09H32.51V23.09C32.6159 22.8375 32.7983 22.6246 33.0314 22.4811C33.2646 22.3376 33.5369 22.2708 33.81 22.29C34.76 22.29 35.47 22.96 35.47 24.29V24.41C35.47 25.73 34.8 26.49 33.79 26.49C33.5187 26.4991 33.251 26.4255 33.0225 26.2791C32.7939 26.1326 32.6152 25.9202 32.51 25.67H32.49ZM34.41 24.43V24.33C34.41 23.6 34.02 23.2 33.46 23.2C32.9 23.2 32.46 23.65 32.46 24.34V24.43C32.46 25.17 32.84 25.6 33.41 25.6C33.98 25.6 34.43 25.22 34.43 24.43H34.41ZM35.92 24.49V24.38C35.92 23.8496 36.1307 23.3409 36.5058 22.9658C36.8809 22.5907 37.3896 22.38 37.92 22.38C38.4504 22.38 38.9591 22.5907 39.3342 22.9658C39.7093 23.3409 39.92 23.8496 39.92 24.38V24.49C39.9428 24.7584 39.9067 25.0285 39.8143 25.2815C39.7218 25.5346 39.5753 25.7643 39.3848 25.9548C39.1943 26.1453 38.9646 26.2918 38.7115 26.3843C38.4585 26.4767 38.1884 26.5128 37.92 26.49C37.652 26.5151 37.3817 26.4804 37.1287 26.3885C36.8757 26.2966 36.6463 26.1497 36.4569 25.9584C36.2675 25.7671 36.1229 25.5362 36.0335 25.2822C35.9441 25.0283 35.9122 24.7577 35.94 24.49H35.92ZM38.92 24.49V24.39C38.92 23.65 38.55 23.21 37.92 23.21C37.29 23.21 36.92 23.61 36.92 24.39V24.49C36.92 25.21 37.3 25.61 37.92 25.61C38.54 25.61 38.91 25.2 38.91 24.48L38.92 24.49ZM41.33 24.34L39.93 22.43H41.13L41.93 23.63L42.75 22.43H43.93L42.52 24.33L44 26.4H42.83L41.92 25.08L41 26.4H39.8L41.33 24.34Z" fill="black"/>
</svg>
