<svg width="48" height="48" viewBox="0 0 48 48" fill="none" xmlns="http://www.w3.org/2000/svg">
<path d="M41.85 19.86L38.44 26.69L35 19.86H32.66L33.34 21.14C32.56 19.83 30.92 19.5 29.42 19.5C25.18 19.5 24.91 21.82 24.91 22.19H27C27 22.19 27.11 20.84 29.26 20.84C30.65 20.84 31.73 21.47 31.73 22.7V23.14H29.28C26.48 23.14 24.81 23.84 24.38 25.25C24.4403 24.9201 24.4704 24.5854 24.47 24.25C24.5002 23.6218 24.3984 22.9942 24.1711 22.4077C23.9438 21.8212 23.5961 21.2889 23.1504 20.8451C22.7047 20.4013 22.171 20.0559 21.5835 19.8311C20.9961 19.6063 20.3681 19.5071 19.74 19.54C17 19.52 16.09 21 16.09 21V16H14.09V23.69C14 22 13 19.5 9.17 19.5C6.35 19.5 4 20.69 4 24.3C4 27.17 5.58 29 9.25 29C13.56 29 13.83 26.16 13.83 26.16H11.74C11.5329 26.668 11.1637 27.0935 10.6899 27.3701C10.2162 27.6468 9.66426 27.7592 9.12 27.69C8.7245 27.7164 8.32783 27.6603 7.95516 27.5253C7.58249 27.3903 7.24196 27.1792 6.95517 26.9056C6.66838 26.632 6.4416 26.3017 6.28922 25.9358C6.13684 25.5699 6.06219 25.1763 6.07 24.78H14.07V27.15C14.07 27.79 14.07 28.68 14.07 28.68H16.07C16.07 28.68 16.14 28.04 16.14 27.45C16.5717 27.9756 17.1227 28.3905 17.7471 28.6601C18.3716 28.9297 19.0514 29.0462 19.73 29C20.7904 29.056 21.8359 28.731 22.6777 28.0837C23.5194 27.4363 24.1019 26.5093 24.32 25.47C24.2758 25.6636 24.2523 25.8614 24.25 26.06C24.25 27.98 25.86 29.06 28.03 29.06C31.03 29.06 31.94 27.42 31.94 27.42C31.94 28.08 31.94 28.72 31.94 28.72H33.82C33.82 28.72 33.74 27.92 33.74 27.41V23C33.7534 22.4303 33.6335 21.8652 33.39 21.35L37.28 28.66L35.54 32H37.8L44 19.86H41.85ZM6.11 23.43C6.13266 23.0614 6.22879 22.7011 6.39273 22.3702C6.55666 22.0394 6.78511 21.7446 7.06462 21.5033C7.34413 21.262 7.66906 21.079 8.02032 20.9651C8.37158 20.8512 8.74207 20.8086 9.11 20.84C9.47006 20.8049 9.83347 20.846 10.1766 20.9605C10.5198 21.075 10.8351 21.2604 11.1019 21.5046C11.3688 21.7488 11.5813 22.0465 11.7257 22.3782C11.8701 22.7099 11.9431 23.0682 11.94 23.43H6.11ZM19.24 27.61C18.8068 27.6155 18.3771 27.5306 17.9785 27.3609C17.5798 27.1911 17.2209 26.9402 16.9246 26.6241C16.6282 26.3081 16.401 25.9337 16.2573 25.5249C16.1136 25.1162 16.0566 24.682 16.09 24.25C16.0659 23.8234 16.1291 23.3964 16.2758 22.9951C16.4224 22.5938 16.6494 22.2266 16.9429 21.9161C17.2364 21.6056 17.5902 21.3582 17.9826 21.1891C18.375 21.0201 18.7977 20.9329 19.225 20.9329C19.6523 20.9329 20.075 21.0201 20.4674 21.1891C20.8598 21.3582 21.2136 21.6056 21.5071 21.9161C21.8006 22.2266 22.0276 22.5938 22.1742 22.9951C22.3209 23.3964 22.3841 23.8234 22.36 24.25C22.3886 24.6785 22.3294 25.1083 22.1858 25.513C22.0423 25.9177 21.8175 26.2888 21.5253 26.6035C21.2331 26.9182 20.8797 27.1698 20.4867 27.3429C20.0937 27.516 19.6694 27.6069 19.24 27.61ZM31.75 25C31.75 25.76 31.29 27.65 28.52 27.65C27.01 27.65 26.36 26.9 26.36 26.02C26.36 24.43 28.55 24.42 31.75 24.42V25Z" fill="black"/>
</svg>
