<svg width="48" height="48" viewBox="0 0 48 48" fill="none" xmlns="http://www.w3.org/2000/svg">
<path fill-rule="evenodd" clip-rule="evenodd" d="M17.7387 27.3504C17.7288 28.1527 17.8607 28.9505 18.1281 29.7071C18.6671 31.0669 19.6393 32.2111 20.8943 32.9626C21.518 33.3736 22.1884 33.7089 22.8915 33.9612C23.6115 34.2207 24.3535 34.4146 25.1084 34.5404C25.8615 34.6594 26.6228 34.7195 27.3852 34.7201C28.2854 34.7255 29.1842 34.652 30.0715 34.5004C30.9058 34.3414 31.7295 34.1313 32.5381 33.8713C33.3532 33.6131 34.1534 33.3097 34.9348 32.9626C35.7237 32.6031 36.5226 32.2136 37.3414 31.7742V39.3836C36.4567 39.8166 35.5501 40.2033 34.6252 40.542C33.7264 40.8516 32.8277 41.1312 31.909 41.3509C30.9887 41.5754 30.0546 41.7388 29.1128 41.8402C28.141 41.9449 27.1644 41.9982 26.1869 42C24.8591 41.9887 23.5377 41.8143 22.2524 41.4807C21.0224 41.1852 19.8346 40.7356 18.7173 40.1426C17.635 39.5635 16.6287 38.8524 15.7215 38.0255C14.8118 37.2018 14.0189 36.2577 13.3647 35.2194C12.7037 34.1587 12.1897 33.0131 11.8369 31.8142C11.4654 30.5422 11.2738 29.2246 11.2676 27.8996C11.2648 26.4695 11.47 25.0465 11.8768 23.6755C12.2792 22.3593 12.8821 21.113 13.6643 19.9806C14.4335 18.8478 15.3695 17.8378 16.4405 16.9848C17.5652 16.099 18.8133 15.3824 20.1453 14.8577C19.3841 15.6117 18.7888 16.5165 18.3977 17.514C17.9912 18.4976 17.7223 19.5326 17.5988 20.5897H30.4011C30.4213 19.4485 30.287 18.3097 30.0016 17.2044C29.7826 16.3104 29.3471 15.4839 28.7334 14.7978C28.1111 14.135 27.3313 13.6404 26.4665 13.3598C25.382 13.017 24.2484 12.8551 23.1112 12.8805C21.5414 12.8834 19.9804 13.1155 18.4776 13.5695C16.9326 14.0234 15.45 14.6674 14.0638 15.4868C12.6942 16.3105 11.4213 17.2853 10.269 18.3928C9.1153 19.4678 8.10804 20.6899 7.27319 22.0277C7.45316 20.5423 7.78785 19.0797 8.27181 17.6638C8.72259 16.3085 9.32561 15.0086 10.0693 13.7892C10.8115 12.6176 11.686 11.5353 12.6757 10.5637C13.6675 9.59926 14.7823 8.76991 15.9911 8.0971C17.2279 7.40616 18.5463 6.87274 19.9156 6.50931C21.383 6.17212 22.8838 6.00128 24.3894 6.00002C25.3105 5.99862 26.2298 6.08219 27.1356 6.24967C28.0457 6.41356 28.9432 6.64046 29.8219 6.92873C33.111 8.03817 35.9432 10.2 37.8807 13.0802C38.8205 14.4922 39.5348 16.042 39.9977 17.6738C40.4835 19.3653 40.7289 21.1167 40.7267 22.8766V27.3504H17.7387Z" fill="black"/>
</svg>
