<svg width="48" height="48" viewBox="0 0 48 48" fill="none" xmlns="http://www.w3.org/2000/svg">
<path d="M28 29.5391C27.6262 29.9095 27.1894 30.2104 26.71 30.428V36.6898H11.27V21.24H17.51C17.7234 20.7445 18.0288 20.2938 18.41 19.9118L22.36 15.9869H10C8.94945 15.9868 7.94102 16.3994 7.19258 17.1357C6.44413 17.8719 6.01576 18.8727 6 19.9218V38.008C6 39.0675 6.42143 40.0836 7.17157 40.8328C7.92172 41.5819 8.93913 42.0028 10 42.0028H28.07C29.1222 41.9897 30.1268 41.563 30.8662 40.8153C31.6055 40.0675 32.0201 39.0589 32.02 38.008V25.5644L28 29.5391Z" fill="black"/>
<path d="M31.59 9.22577L19.65 21.2101C19.3594 21.4926 19.1371 21.8376 19 22.2187L17.32 27.7315C17.2119 28.0766 17.1864 28.4422 17.2458 28.7989C17.3052 29.1556 17.4476 29.4933 17.6617 29.7849C17.8758 30.0765 18.1556 30.3137 18.4784 30.4774C18.8011 30.6412 19.158 30.7269 19.52 30.7276C19.7505 30.7294 19.9798 30.6957 20.2 30.6277L25.73 28.9699C26.1326 28.8503 26.4999 28.6343 26.8 28.3407L38.74 16.3664L31.59 9.22577ZM26.05 26.7927C25.7159 27.119 25.2673 27.3017 24.8 27.3021C24.3358 27.3013 23.8905 27.1184 23.56 26.7927L21.16 24.3959C20.981 24.237 20.8363 24.0432 20.7349 23.8265C20.6334 23.6098 20.5773 23.3747 20.57 23.1356C20.5628 22.8964 20.6044 22.6584 20.6925 22.4359C20.7806 22.2134 20.9132 22.0113 21.0822 21.8418C21.2513 21.6723 21.4532 21.539 21.6756 21.4502C21.898 21.3613 22.1362 21.3187 22.3757 21.325C22.6151 21.3314 22.8508 21.3864 23.0682 21.4868C23.2856 21.5873 23.4801 21.731 23.64 21.9091L26.04 24.306C26.3693 24.6356 26.555 25.0817 26.5569 25.5473C26.5588 26.0129 26.3766 26.4605 26.05 26.7927Z" fill="black"/>
<path d="M41.23 13.8897L41.32 13.7898C41.5359 13.577 41.7073 13.3236 41.8243 13.0441C41.9413 12.7647 42.0015 12.4648 42.0015 12.1619C42.0015 11.859 41.9413 11.5592 41.8243 11.2797C41.7073 11.0003 41.5359 10.7468 41.32 10.5341L37.44 6.65914C37.0021 6.23805 36.4179 6.00281 35.81 6.00281C35.2021 6.00281 34.6179 6.23805 34.18 6.65914L34.08 6.75901L41.23 13.8897Z" fill="black"/>
</svg>
