<svg width="48" height="48" viewBox="0 0 48 48" fill="none" xmlns="http://www.w3.org/2000/svg">
<path d="M27.827 28.9935V39.2286H8.81226V20.2191H19.0102L21.7823 17.4477H8.77222C8.04046 17.4477 7.33837 17.7369 6.81906 18.2523C6.29975 18.7678 6.00536 19.4675 6.00007 20.1991V39.2086C5.99743 39.5742 6.06719 39.9368 6.20532 40.2753C6.34345 40.6139 6.54722 40.9218 6.80491 41.1812C7.06259 41.4407 7.36908 41.6466 7.70672 41.7871C8.04437 41.9277 8.40649 42 8.77222 42H27.787C28.5222 42 29.2273 41.708 29.7472 41.1883C30.2671 40.6685 30.5591 39.9636 30.5591 39.2286V26.2221L27.827 28.9935Z" fill="black"/>
<path d="M41.4476 10.6343L37.3644 6.56226C36.9912 6.2016 36.4924 6 35.9733 6C35.4543 6 34.9555 6.2016 34.5823 6.56226L19.3004 21.8199C19.0444 22.081 18.8555 22.4003 18.75 22.7504L17.0086 28.5533C16.893 28.8983 16.8768 29.2688 16.9617 29.6227C17.0467 29.9765 17.2294 30.2993 17.489 30.5543C17.8593 30.9215 18.3585 31.1297 18.8801 31.1346C19.0762 31.1333 19.2714 31.1064 19.4605 31.0545L25.275 29.2836C25.6259 29.1745 25.9452 28.9823 26.2058 28.7234L41.4376 13.4157C41.7983 13.0426 42 12.5439 42 12.025C42 11.5061 41.7983 11.0074 41.4376 10.6343H41.4476ZM20.061 27.923L21.0618 24.7214L23.2635 26.9925L20.061 27.923ZM25.5452 25.3917C25.5039 25.2988 25.4463 25.2141 25.3751 25.1416L22.8532 22.6103C22.7725 22.5476 22.6853 22.4939 22.593 22.4502L33.2312 11.8249L36.1835 14.7664L25.5452 25.3917ZM38.135 12.8154L35.1927 9.86391L36.0234 9.08352L38.9256 11.985L38.135 12.8154Z" fill="black"/>
</svg>
