<svg width="48" height="48" viewBox="0 0 48 48" fill="none" xmlns="http://www.w3.org/2000/svg">
<path d="M24.0001 12.36C26.3086 12.36 28.1801 10.4886 28.1801 8.18C28.1801 5.87145 26.3086 4 24.0001 4C21.6915 4 19.8201 5.87145 19.8201 8.18C19.8201 10.4886 21.6915 12.36 24.0001 12.36Z" fill="black"/>
<path d="M24.0001 28.18C26.3086 28.18 28.1801 26.3085 28.1801 24C28.1801 21.6915 26.3086 19.82 24.0001 19.82C21.6915 19.82 19.8201 21.6915 19.8201 24C19.8201 26.3085 21.6915 28.18 24.0001 28.18Z" fill="black"/>
<path d="M24.0001 44C26.3086 44 28.1801 42.1286 28.1801 39.82C28.1801 37.5114 26.3086 35.64 24.0001 35.64C21.6915 35.64 19.8201 37.5114 19.8201 39.82C19.8201 42.1286 21.6915 44 24.0001 44Z" fill="black"/>
</svg>
