<svg width="48" height="48" viewBox="0 0 48 48" fill="none" xmlns="http://www.w3.org/2000/svg">
<path d="M8.8497 28.1241C11.1281 27.7542 12.6753 25.6074 12.3055 23.329C11.9356 21.0506 9.78881 19.5034 7.5104 19.8732C5.23199 20.243 3.68479 22.3899 4.05463 24.6683C4.42447 26.9467 6.57129 28.4939 8.8497 28.1241Z" fill="black"/>
<path d="M24.0021 28.1818C26.3104 28.1818 28.1816 26.3106 28.1816 24.0024C28.1816 21.6942 26.3104 19.823 24.0021 19.823C21.6939 19.823 19.8227 21.6942 19.8227 24.0024C19.8227 26.3106 21.6939 28.1818 24.0021 28.1818Z" fill="black"/>
<path d="M43.6808 25.598C44.5641 23.4655 43.5514 21.0207 41.4189 20.1373C39.2864 19.254 36.8415 20.2667 35.9582 22.3992C35.0749 24.5318 36.0876 26.9766 38.2201 27.8599C40.3526 28.7432 42.7974 27.7306 43.6808 25.598Z" fill="black"/>
</svg>
