<svg width="48" height="48" viewBox="0 0 48 48" fill="none" xmlns="http://www.w3.org/2000/svg">
<path d="M42.4907 19.2258H5.50925C5.31726 19.2421 5.12399 19.2183 4.94166 19.156C4.75934 19.0937 4.59194 18.9942 4.45006 18.8639C4.30818 18.7335 4.19492 18.5751 4.11744 18.3987C4.03996 18.2223 3.99995 18.0317 3.99995 17.839C3.99995 17.6464 4.03996 17.4558 4.11744 17.2794C4.19492 17.103 4.30818 16.9446 4.45006 16.8142C4.59194 16.6838 4.75934 16.5844 4.94166 16.522C5.12399 16.4597 5.31726 16.436 5.50925 16.4522H42.4907C42.6826 16.436 42.8759 16.4597 43.0582 16.522C43.2406 16.5844 43.408 16.6838 43.5498 16.8142C43.6917 16.9446 43.805 17.103 43.8825 17.2794C43.9599 17.4558 44 17.6464 44 17.839C44 18.0317 43.9599 18.2223 43.8825 18.3987C43.805 18.5751 43.6917 18.7335 43.5498 18.8639C43.408 18.9942 43.2406 19.0937 43.0582 19.156C42.8759 19.2183 42.6826 19.2421 42.4907 19.2258Z" fill="black"/>
<path d="M42.4907 31.553H5.50925C5.32648 31.553 5.1455 31.517 4.97664 31.447C4.80778 31.3771 4.65435 31.2746 4.52512 31.1453C4.39588 31.0161 4.29336 30.8627 4.22342 30.6938C4.15347 30.525 4.11748 30.344 4.11748 30.1612C4.11748 29.9784 4.15347 29.7975 4.22342 29.6286C4.29336 29.4597 4.39588 29.3063 4.52512 29.1771C4.65435 29.0478 4.80778 28.9453 4.97664 28.8754C5.1455 28.8054 5.32648 28.7694 5.50925 28.7694H42.4907C42.8598 28.7694 43.2138 28.9161 43.4748 29.1771C43.7358 29.4381 43.8824 29.7921 43.8824 30.1612C43.8824 30.5303 43.7358 30.8843 43.4748 31.1453C43.2138 31.4063 42.8598 31.553 42.4907 31.553Z" fill="black"/>
</svg>
