<svg width="48" height="48" viewBox="0 0 48 48" fill="none" xmlns="http://www.w3.org/2000/svg">
<path d="M41.2509 20.843H6.74942C6.06275 20.843 5.4042 20.5702 4.91865 20.0847C4.4331 19.5991 4.16032 18.9406 4.16032 18.2539C4.16032 17.5672 4.4331 16.9087 4.91865 16.4231C5.4042 15.9376 6.06275 15.6648 6.74942 15.6648H41.2509C41.9375 15.6648 42.5961 15.9376 43.0816 16.4231C43.5672 16.9087 43.84 17.5672 43.84 18.2539C43.84 18.9406 43.5672 19.5991 43.0816 20.0847C42.5961 20.5702 41.9375 20.843 41.2509 20.843Z" fill="black"/>
<path d="M41.2509 32.3302H6.74942C6.3966 32.3521 6.04304 32.3015 5.71052 32.1815C5.37801 32.0616 5.07358 31.8748 4.816 31.6327C4.55843 31.3906 4.35316 31.0983 4.21284 30.7738C4.07253 30.4494 4.00014 30.0996 4.00014 29.7461C4.00014 29.3926 4.07253 29.0429 4.21284 28.7184C4.35316 28.3939 4.55843 28.1017 4.816 27.8596C5.07358 27.6174 5.37801 27.4307 5.71052 27.3107C6.04304 27.1907 6.3966 27.1401 6.74942 27.162H41.2509C41.6037 27.1401 41.9572 27.1907 42.2898 27.3107C42.6223 27.4307 42.9267 27.6174 43.1843 27.8596C43.4418 28.1017 43.6471 28.3939 43.7874 28.7184C43.9277 29.0429 44.0001 29.3926 44.0001 29.7461C44.0001 30.0996 43.9277 30.4494 43.7874 30.7738C43.6471 31.0983 43.4418 31.3906 43.1843 31.6327C42.9267 31.8748 42.6223 32.0616 42.2898 32.1815C41.9572 32.3015 41.6037 32.3521 41.2509 32.3302Z" fill="black"/>
</svg>
