<svg width="48" height="48" viewBox="0 0 48 48" fill="none" xmlns="http://www.w3.org/2000/svg">
<path d="M20.9007 34.5C21.6352 34.5 22.2307 33.9045 22.2307 33.17C22.2307 32.4355 21.6352 31.84 20.9007 31.84C20.1661 31.84 19.5707 32.4355 19.5707 33.17C19.5707 33.9045 20.1661 34.5 20.9007 34.5Z" fill="black"/>
<path d="M27.3907 37.44C28.1252 37.44 28.7207 36.8445 28.7207 36.11C28.7207 35.3755 28.1252 34.78 27.3907 34.78C26.6561 34.78 26.0607 35.3755 26.0607 36.11C26.0607 36.8445 26.6561 37.44 27.3907 37.44Z" fill="black"/>
<path d="M38.6107 38.79L29.0307 18.92C28.9786 18.825 28.9511 18.7184 28.9507 18.61V8.08L29.2307 7.78C29.5267 7.46086 29.7238 7.0627 29.7981 6.63378C29.8724 6.20486 29.8207 5.7636 29.6492 5.36349C29.4777 4.96338 29.1939 4.6216 28.832 4.37959C28.4702 4.13757 28.0459 4.00572 27.6107 4H20.4107C19.9737 4.00189 19.5467 4.13097 19.1819 4.3715C18.8171 4.61202 18.5302 4.95357 18.3563 5.35444C18.1824 5.75531 18.1289 6.19816 18.2025 6.62889C18.2761 7.05962 18.4735 7.45961 18.7707 7.78L19.0407 8.08V18.31C19.0438 18.4176 19.0197 18.5242 18.9707 18.62L9.38067 38.8C9.11875 39.3562 9.00159 39.9696 9.04005 40.5832C9.07851 41.1969 9.27135 41.7908 9.60067 42.31C9.92605 42.8299 10.3789 43.258 10.9161 43.5538C11.4534 43.8495 12.0574 44.0031 12.6707 44H35.3307C35.9453 43.9993 36.5498 43.843 37.0878 43.5456C37.6257 43.2482 38.0796 42.8195 38.407 42.2993C38.7345 41.7791 38.9249 41.1845 38.9605 40.5709C38.9962 39.9572 38.8758 39.3446 38.6107 38.79ZM12.6707 40.36L17.5407 30.11H20.5407C20.8306 30.5206 21.2149 30.8557 21.6613 31.0869C22.1076 31.3181 22.603 31.4388 23.1057 31.4388C23.6084 31.4388 24.1037 31.3181 24.5501 31.0869C24.9964 30.8557 25.3807 30.5206 25.6707 30.11H30.3707L35.3307 40.36H12.6707Z" fill="black"/>
</svg>
