<svg width="48" height="48" viewBox="0 0 48 48" fill="none" xmlns="http://www.w3.org/2000/svg">
<path d="M34.1587 39.81L28.6587 28.39H24.4887C24.4887 28.7507 24.3454 29.0966 24.0904 29.3517C23.8354 29.6067 23.4894 29.75 23.1287 29.75C22.768 29.75 22.4221 29.6067 22.1671 29.3517C21.912 29.0966 21.7687 28.7507 21.7687 28.39H19.3187L13.8887 39.81H34.1587ZM27.4787 35C27.748 34.9922 28.0135 35.0644 28.2416 35.2077C28.4698 35.3509 28.6502 35.5587 28.7601 35.8046C28.87 36.0506 28.9043 36.3236 28.8589 36.5891C28.8134 36.8546 28.6901 37.1006 28.5046 37.2959C28.3191 37.4913 28.0798 37.6271 27.817 37.6862C27.5542 37.7454 27.2797 37.7251 27.0284 37.6281C26.7772 37.5311 26.5604 37.3616 26.4055 37.1412C26.2507 36.9207 26.1648 36.6593 26.1587 36.39C26.1507 36.031 26.2849 35.6833 26.5322 35.4229C26.7795 35.1625 27.1198 35.0105 27.4787 35ZM20.8387 32C21.1077 32 21.3707 32.0798 21.5943 32.2292C21.818 32.3786 21.9923 32.591 22.0952 32.8396C22.1981 33.0881 22.2251 33.3615 22.1726 33.6253C22.1201 33.8891 21.9906 34.1315 21.8004 34.3217C21.6102 34.5119 21.3679 34.6414 21.1041 34.6939C20.8402 34.7463 20.5668 34.7194 20.3183 34.6165C20.0698 34.5135 19.8574 34.3392 19.7079 34.1156C19.5585 33.8919 19.4787 33.629 19.4787 33.36C19.4787 32.9993 19.622 32.6534 19.8771 32.3983C20.1321 32.1433 20.478 32 20.8387 32Z" fill="black"/>
<path d="M35.6087 44H12.4187C11.8702 43.9985 11.3309 43.8586 10.8508 43.5933C10.3706 43.328 9.96524 42.9458 9.67209 42.4822C9.37895 42.0185 9.20754 41.4884 9.17374 40.9409C9.13994 40.3934 9.24484 39.8462 9.47873 39.35L19.2887 18.7C19.3683 18.5382 19.4093 18.3603 19.4087 18.18V7.53L18.9987 7.09C18.7518 6.82707 18.587 6.49766 18.5248 6.14231C18.4627 5.78697 18.5057 5.42119 18.6487 5.09C18.7953 4.76469 19.0328 4.48871 19.3327 4.29532C19.6325 4.10192 19.9819 3.99937 20.3387 4H27.7087C28.0669 3.99918 28.4174 4.10406 28.7162 4.30151C29.0151 4.49896 29.249 4.7802 29.3887 5.11C29.5356 5.43974 29.5817 5.80556 29.5212 6.16143C29.4607 6.5173 29.2963 6.84734 29.0487 7.11L28.6387 7.55V18.55C28.638 18.7335 28.6791 18.9147 28.7587 19.08L38.5387 39.4C38.7639 39.8931 38.8622 40.4346 38.8246 40.9754C38.787 41.5162 38.6148 42.0389 38.3236 42.4961C38.0324 42.9533 37.6314 43.3304 37.1573 43.5931C36.6831 43.8557 36.1508 43.9956 35.6087 44ZM22.1587 6.79C22.2111 6.99593 22.238 7.20752 22.2387 7.42V18.18C22.2368 18.7718 22.1036 19.3559 21.8487 19.89L11.9987 40.54C11.956 40.6073 11.9334 40.6853 11.9334 40.765C11.9334 40.8447 11.956 40.9227 11.9987 40.99C12.0381 41.0582 12.0951 41.1146 12.1637 41.1533C12.2323 41.192 12.31 41.2116 12.3887 41.21H35.6087C35.6873 41.2106 35.7646 41.1906 35.833 41.152C35.9015 41.1134 35.9586 41.0575 35.9987 40.99C36.0382 40.9216 36.059 40.844 36.059 40.765C36.059 40.686 36.0382 40.6084 35.9987 40.54L26.2387 20.22C25.9795 19.6767 25.8462 19.082 25.8487 18.48V7.42C25.8445 7.20723 25.8715 6.99497 25.9287 6.79H22.1587Z" fill="black"/>
</svg>
