<svg width="48" height="48" viewBox="0 0 48 48" fill="none" xmlns="http://www.w3.org/2000/svg">
<path d="M33.57 42H10.84C9.55635 42 8.32528 41.4901 7.4176 40.5824C6.50993 39.6747 6 38.4436 6 37.16V14.43C6 13.1454 6.50961 11.9133 7.41699 11.0041C8.32438 10.0948 9.55543 9.58265 10.84 9.58H22.21C22.8652 9.62085 23.4802 9.90992 23.9297 10.3883C24.3792 10.8668 24.6295 11.4985 24.6295 12.155C24.6295 12.8115 24.3792 13.4432 23.9297 13.9217C23.4802 14.4001 22.8652 14.6891 22.21 14.73H11.14V36.86H33.27V25.79C33.3109 25.1348 33.5999 24.5198 34.0783 24.0703C34.5568 23.6208 35.1885 23.3705 35.845 23.3705C36.5015 23.3705 37.1332 23.6208 37.6117 24.0703C38.0901 24.5198 38.3791 25.1348 38.42 25.79V37.16C38.4174 38.4446 37.9052 39.6756 36.9959 40.583C36.0867 41.4904 34.8546 42 33.57 42Z" fill="black"/>
<path d="M41.16 7.18C41.16 7.12 41.07 7.05 41.01 6.99C40.95 6.93 40.89 6.89 40.83 6.84C40.2199 6.30072 39.4343 6.00211 38.62 6H30.06C29.3784 6 28.7247 6.27077 28.2427 6.75274C27.7608 7.2347 27.49 7.88839 27.49 8.57C27.49 9.25161 27.7608 9.9053 28.2427 10.3873C28.7247 10.8692 29.3784 11.14 30.06 11.14H33.22L21.61 22.75C21.1273 23.2327 20.8561 23.8874 20.8561 24.57C20.8561 25.2526 21.1273 25.9073 21.61 26.39C22.0927 26.8727 22.7474 27.1439 23.43 27.1439C24.1126 27.1439 24.7673 26.8727 25.25 26.39L36.86 14.78V17.94C36.86 18.6216 37.1308 19.2753 37.6127 19.7573C38.0947 20.2392 38.7484 20.51 39.43 20.51C40.1116 20.51 40.7653 20.2392 41.2473 19.7573C41.7292 19.2753 42 18.6216 42 17.94V9.38C41.9982 8.56866 41.6994 7.78606 41.16 7.18Z" fill="black"/>
</svg>
