<svg width="48" height="48" viewBox="0 0 48 48" fill="none" xmlns="http://www.w3.org/2000/svg">
<path d="M34.31 42H9.83C8.81503 41.9974 7.84239 41.593 7.1247 40.8753C6.407 40.1576 6.00264 39.185 6 38.17V13.69C6.00264 12.675 6.407 11.7024 7.1247 10.9847C7.84239 10.267 8.81503 9.86264 9.83 9.86H22.07C22.417 9.88951 22.7403 10.0482 22.9759 10.3047C23.2115 10.5612 23.3422 10.8967 23.3422 11.245C23.3422 11.5933 23.2115 11.9288 22.9759 12.1853C22.7403 12.4418 22.417 12.6005 22.07 12.63H9.83C9.54968 12.6326 9.28158 12.7451 9.08335 12.9434C8.88512 13.1416 8.77261 13.4097 8.77 13.69V38.17C8.77261 38.4503 8.88512 38.7184 9.08335 38.9166C9.28158 39.1149 9.54968 39.2274 9.83 39.23H34.31C34.5903 39.2274 34.8584 39.1149 35.0567 38.9166C35.2549 38.7184 35.3674 38.4503 35.37 38.17V25.93C35.3995 25.583 35.5582 25.2597 35.8147 25.0241C36.0712 24.7885 36.4067 24.6578 36.755 24.6578C37.1033 24.6578 37.4388 24.7885 37.6953 25.0241C37.9518 25.2597 38.1105 25.583 38.14 25.93V38.17C38.1374 39.185 37.733 40.1576 37.0153 40.8753C36.2976 41.593 35.325 41.9974 34.31 42Z" fill="black"/>
<path d="M41.34 6.67C41.1312 6.45756 40.8822 6.28888 40.6075 6.17384C40.3328 6.0588 40.0378 5.9997 39.74 6H30.52C30.173 6.02951 29.8497 6.18821 29.6141 6.44469C29.3785 6.70117 29.2478 7.03674 29.2478 7.385C29.2478 7.73326 29.3785 8.06883 29.6141 8.32531C29.8497 8.58179 30.173 8.74049 30.52 8.77H37.27L22.41 23.63C22.2787 23.7613 22.1745 23.9172 22.1034 24.0888C22.0324 24.2604 21.9958 24.4443 21.9958 24.63C21.9958 24.8157 22.0324 24.9996 22.1034 25.1712C22.1745 25.3428 22.2787 25.4987 22.41 25.63C22.5413 25.7613 22.6972 25.8655 22.8688 25.9366C23.0404 26.0076 23.2243 26.0442 23.41 26.0442C23.5957 26.0442 23.7796 26.0076 23.9512 25.9366C24.1228 25.8655 24.2787 25.7613 24.41 25.63L39.23 10.73V17.48C39.2595 17.827 39.4182 18.1503 39.6747 18.3859C39.9312 18.6215 40.2667 18.7522 40.615 18.7522C40.9633 18.7522 41.2988 18.6215 41.5553 18.3859C41.8118 18.1503 41.9705 17.827 42 17.48V8.26C42.0003 7.96454 41.9421 7.67195 41.8288 7.39907C41.7156 7.12618 41.5494 6.8784 41.34 6.67Z" fill="black"/>
</svg>
