<svg width="48" height="48" viewBox="0 0 48 48" fill="none" xmlns="http://www.w3.org/2000/svg">
<path d="M43.22 22.5C42.87 22 34.6 11 24 11C13.4 11 5.13 22 4.78 22.5L4 23.56L4.78 24.62C5.13 25.09 13.4 36.12 24 36.12C34.6 36.12 42.87 25.12 43.22 24.62L44 23.56L43.22 22.5ZM24 28.85C22.9537 28.85 21.931 28.5397 21.061 27.9585C20.1911 27.3772 19.5131 26.551 19.1127 25.5844C18.7123 24.6178 18.6075 23.5541 18.8116 22.528C19.0158 21.5018 19.5196 20.5592 20.2594 19.8194C20.9992 19.0796 21.9418 18.5758 22.968 18.3716C23.9941 18.1675 25.0578 18.2723 26.0244 18.6727C26.991 19.0731 27.8172 19.7511 28.3985 20.621C28.9797 21.491 29.29 22.5137 29.29 23.56C29.29 24.963 28.7327 26.3085 27.7406 27.3006C26.7485 28.2927 25.403 28.85 24 28.85Z" fill="black"/>
</svg>
