<svg width="48" height="48" viewBox="0 0 48 48" fill="none" xmlns="http://www.w3.org/2000/svg">
<path d="M12.05 31.9L14.05 29.9C11.6142 28.1527 9.40401 26.1105 7.47 23.82C9.54 21.36 16.27 14.12 24 14.12C25.6753 14.1397 27.334 14.4546 28.9 15.05L31 12.93C28.7969 11.941 26.4147 11.4135 24 11.38C13.33 11.38 5 22.55 4.6 23L4 23.82L4.6 24.63C6.73093 27.39 9.23873 29.8372 12.05 31.9Z" fill="black"/>
<path d="M43.4 23C41.2786 20.2602 38.7884 17.8271 36 15.77L34 17.77C36.439 19.5173 38.6495 21.5632 40.58 23.86C38.5 26.33 31.77 33.57 24.04 33.57C22.3647 33.5503 20.706 33.2354 19.14 32.64L17 34.74C19.2024 35.7322 21.5847 36.2631 24 36.3C34.67 36.3 43 25.13 43.4 24.65L44 23.84L43.4 23Z" fill="black"/>
<path d="M20 24C19.9952 23.9434 19.9952 23.8866 20 23.83C20.0024 22.7634 20.4224 21.7401 21.1701 20.9794C21.9177 20.2186 22.9336 19.7809 24 19.76H24.17L26.47 17.47C25.4372 17.0636 24.3206 16.9161 23.2176 17.0406C22.1147 17.165 21.059 17.5575 20.1427 18.1838C19.2264 18.8102 18.4773 19.6513 17.9609 20.6337C17.4445 21.6162 17.1764 22.7101 17.18 23.82C17.1804 24.6623 17.3399 25.4969 17.65 26.28L20 24Z" fill="black"/>
<path d="M28.05 23.66C28.0549 23.7199 28.0549 23.7801 28.05 23.84C28.05 24.916 27.624 25.9482 26.865 26.7109C26.1061 27.4736 25.076 27.9047 24 27.91H23.83L21.53 30.2C22.7616 30.6845 24.1079 30.799 25.4036 30.5295C26.6994 30.2601 27.8884 29.6183 28.8247 28.683C29.7611 27.7477 30.4042 26.5595 30.6751 25.264C30.9461 23.9685 30.8331 22.6222 30.35 21.39L28.05 23.66Z" fill="black"/>
<path d="M7.54 41.67C7.35464 41.6768 7.16992 41.6446 6.9977 41.5758C6.82548 41.5069 6.66958 41.4027 6.54 41.27C6.4112 41.1434 6.30889 40.9925 6.23906 40.8259C6.16922 40.6594 6.13326 40.4806 6.13326 40.3C6.13326 40.1194 6.16922 39.9406 6.23906 39.7741C6.30889 39.6076 6.4112 39.4566 6.54 39.33L39.49 6.40001C39.7483 6.14474 40.0968 6.00159 40.46 6.00159C40.8232 6.00159 41.1717 6.14474 41.43 6.40001C41.5588 6.52659 41.6611 6.67755 41.7309 6.84409C41.8008 7.01063 41.8367 7.18942 41.8367 7.37001C41.8367 7.5506 41.8008 7.72938 41.7309 7.89592C41.6611 8.06246 41.5588 8.21343 41.43 8.34001L8.51 41.27C8.38286 41.3976 8.23164 41.4987 8.06513 41.5673C7.89861 41.636 7.72011 41.6709 7.54 41.67Z" fill="black"/>
</svg>
