<svg width="48" height="48" viewBox="0 0 48 48" fill="none" xmlns="http://www.w3.org/2000/svg">
<path d="M43.22 22.94C41.4645 20.6798 39.4508 18.6326 37.22 16.84L29.22 24.84C29.037 25.9202 28.5231 26.917 27.7492 27.6926C26.9754 28.4682 25.9798 28.9845 24.9 29.17L18.51 35.55C20.278 36.1885 22.1404 36.5265 24.02 36.55C34.62 36.55 42.89 25.55 43.24 25.05L44 24L43.22 22.94Z" fill="black"/>
<path d="M10.76 31.16L18.76 23.16C18.9455 22.0801 19.4617 21.0846 20.2374 20.3107C21.013 19.5369 22.0098 19.023 23.09 18.84L29.48 12.45C27.712 11.8114 25.8496 11.4734 23.97 11.45C13.37 11.45 5.1 22.45 4.75 22.95L4 24L4.78 25.06C6.5293 27.319 8.5362 29.3661 10.76 31.16Z" fill="black"/>
<path d="M8.57 42C8.06091 42.001 7.56296 41.8509 7.13932 41.5686C6.71567 41.2863 6.38542 40.8845 6.19046 40.4142C5.99549 39.9439 5.94458 39.4263 6.0442 38.9271C6.14382 38.4278 6.38947 37.9694 6.75 37.61L37.61 6.74996C38.0927 6.26727 38.7474 5.99609 39.43 5.99609C40.1126 5.99609 40.7673 6.26727 41.25 6.74996C41.7327 7.23266 42.0039 7.88733 42.0039 8.56996C42.0039 9.25259 41.7327 9.90727 41.25 10.39L10.39 41.25C10.1508 41.4884 9.86694 41.6774 9.55465 41.8061C9.24236 41.9348 8.90777 42.0007 8.57 42Z" fill="black"/>
</svg>
