<svg width="48" height="48" viewBox="0 0 48 48" fill="none" xmlns="http://www.w3.org/2000/svg">
<path d="M24 36.46C13.33 36.46 5 25.29 4.6 24.82L4 24L4.6 23.18C5 22.71 13.33 11.54 24 11.54C34.67 11.54 43 22.71 43.4 23.18L44 24L43.4 24.82C43.05 25.29 34.67 36.46 24 36.46ZM7.46 24C9.54 26.47 16.27 33.72 24 33.72C31.73 33.72 38.46 26.47 40.54 24C38.46 21.54 31.73 14.28 24 14.28C16.27 14.28 9.54 21.54 7.46 24Z" fill="black"/>
<path d="M24 30.82C22.6511 30.82 21.3326 30.4201 20.211 29.6707C19.0895 28.9213 18.2153 27.8561 17.6991 26.6099C17.183 25.3637 17.0479 23.9925 17.311 22.6695C17.5742 21.3466 18.2237 20.1314 19.1775 19.1776C20.1313 18.2238 21.3465 17.5742 22.6695 17.3111C23.9924 17.0479 25.3637 17.183 26.6099 17.6992C27.8561 18.2154 28.9212 19.0895 29.6706 20.2111C30.42 21.3326 30.82 22.6512 30.82 24C30.8174 25.808 30.098 27.5412 28.8195 28.8196C27.5411 30.098 25.808 30.8174 24 30.82ZM24 19.93C23.195 19.93 22.4081 20.1687 21.7388 20.616C21.0695 21.0632 20.5479 21.6988 20.2398 22.4425C19.9318 23.1862 19.8512 24.0046 20.0082 24.7941C20.1652 25.5836 20.5529 26.3088 21.1221 26.878C21.6913 27.4472 22.4165 27.8348 23.206 27.9918C23.9955 28.1489 24.8138 28.0683 25.5575 27.7602C26.3012 27.4522 26.9369 26.9305 27.3841 26.2612C27.8313 25.5919 28.07 24.805 28.07 24C28.07 22.9206 27.6412 21.8854 26.8779 21.1221C26.1146 20.3588 25.0794 19.93 24 19.93Z" fill="black"/>
</svg>
