<svg width="48" height="48" viewBox="0 0 48 48" fill="none" xmlns="http://www.w3.org/2000/svg">
<path fill-rule="evenodd" clip-rule="evenodd" d="M40 6H8C7.46957 6 6.96086 6.21071 6.58579 6.58579C6.21071 6.96086 6 7.46957 6 8V40C6 40.5304 6.21071 41.0391 6.58579 41.4142C6.96086 41.7893 7.46957 42 8 42H25.23V28.06H20.54V22.63H25.23V18.63C25.23 13.98 28.07 11.45 32.23 11.45C33.6293 11.448 35.0279 11.5181 36.42 11.66V16.52H33.53C31.28 16.52 30.84 17.59 30.84 19.17V22.64H36.22L35.52 28.07H30.84V42H40C40.5304 42 41.0391 41.7893 41.4142 41.4142C41.7893 41.0391 42 40.5304 42 40V8C42 7.46957 41.7893 6.96086 41.4142 6.58579C41.0391 6.21071 40.5304 6 40 6Z" fill="black"/>
</svg>
