<svg width="48" height="48" viewBox="0 0 48 48" fill="none" xmlns="http://www.w3.org/2000/svg">
<path fill-rule="evenodd" clip-rule="evenodd" d="M43.9796 26.9449V27.3447H29.5869V26.9449H43.9796ZM15.9139 20.728V24.4461C15.9312 24.665 15.9037 24.885 15.8333 25.0929C15.7628 25.3008 15.6508 25.4922 15.5041 25.6555C15.1546 25.9652 14.7017 26.1328 14.2348 26.1253H13.4552L13.3752 25.0258H13.9949C14.1409 25.0303 14.2834 24.9805 14.3947 24.8859C14.4392 24.8339 14.4727 24.7735 14.4933 24.7082C14.5139 24.643 14.5212 24.5742 14.5146 24.5061V20.728H15.9139ZM36.8233 20.6581C37.2153 20.6571 37.6055 20.7109 37.9827 20.818C38.2879 20.9 38.5735 21.0428 38.8222 21.2378L38.4025 22.2373C37.9551 21.9196 37.4218 21.7454 36.8732 21.7375C36.6565 21.7264 36.4412 21.7785 36.2535 21.8874C36.1816 21.9241 36.1212 21.9799 36.0789 22.0487C36.0366 22.1174 36.014 22.1965 36.0137 22.2772C36.0127 22.3196 36.0201 22.3617 36.0356 22.4012C36.051 22.4407 36.0741 22.4767 36.1036 22.5071C36.1928 22.5887 36.2984 22.6501 36.4135 22.687C36.6311 22.7663 36.8551 22.8265 37.0831 22.8669C37.4776 22.9445 37.8605 23.0721 38.2225 23.2467C38.4637 23.3657 38.6702 23.5447 38.8222 23.7665C38.9381 23.9848 38.9965 24.229 38.9921 24.4761C38.9885 24.7097 38.9284 24.9389 38.817 25.1443C38.7056 25.3497 38.5463 25.525 38.3525 25.6555C37.8442 25.9806 37.2454 26.1347 36.6433 26.0953C36.245 26.092 35.8488 26.0383 35.4639 25.9354C35.1248 25.8486 34.8034 25.7032 34.5144 25.5056L34.9442 24.5061C35.2042 24.6636 35.4829 24.7879 35.7738 24.8759C36.0599 24.9581 36.3557 25.0018 36.6533 25.0058C36.8906 25.0227 37.1282 24.978 37.343 24.8759C37.4095 24.8474 37.4661 24.8 37.5059 24.7396C37.5457 24.6792 37.5669 24.6084 37.5669 24.5361C37.5669 24.4638 37.5457 24.393 37.5059 24.3326C37.4661 24.2722 37.4095 24.2248 37.343 24.1963C37.0812 24.077 36.8061 23.9898 36.5234 23.9364C36.1327 23.8953 35.7493 23.8011 35.384 23.6565C35.1397 23.547 34.9317 23.3702 34.7843 23.1468C34.6664 22.922 34.6079 22.6709 34.6144 22.4172C34.6013 22.0894 34.6961 21.7664 34.8842 21.4976C35.0857 21.2267 35.3545 21.0131 35.6638 20.878C36.0319 20.7286 36.426 20.6538 36.8233 20.6581ZM41.8207 20.6581C42.2128 20.6562 42.6032 20.71 42.9801 20.818C43.2883 20.9003 43.5771 21.043 43.8297 21.2378L43.3999 22.2373C42.9571 21.9181 42.4265 21.7436 41.8807 21.7375C41.664 21.7264 41.4487 21.7785 41.261 21.8874C41.1891 21.9241 41.1287 21.9799 41.0863 22.0487C41.044 22.1174 41.0215 22.1965 41.0211 22.2772C41.0203 22.3608 41.0485 22.4421 41.1011 22.5071C41.1942 22.5884 41.3031 22.6497 41.4209 22.687C41.6385 22.7663 41.8626 22.8265 42.0906 22.8669C42.485 22.9445 42.8679 23.0721 43.23 23.2467C43.4704 23.3628 43.6744 23.5426 43.8197 23.7665C43.9434 23.9821 44.0057 24.2276 43.9996 24.4761C43.9982 24.7079 43.9411 24.936 43.8333 25.1412C43.7255 25.3465 43.57 25.5228 43.3799 25.6555C42.8711 25.9793 42.2727 26.1333 41.6708 26.0953C41.2725 26.092 40.8762 26.0383 40.4914 25.9354C40.1514 25.8509 39.8297 25.7052 39.5419 25.5056L39.9717 24.5061C40.2307 24.6654 40.5096 24.7898 40.8012 24.8759C41.0872 24.9588 41.3831 25.0026 41.6808 25.0058C41.9179 25.0214 42.1552 24.9767 42.3704 24.8759C42.4369 24.8474 42.4935 24.8 42.5333 24.7396C42.5732 24.6792 42.5944 24.6084 42.5944 24.5361C42.5944 24.4638 42.5732 24.393 42.5333 24.3326C42.4935 24.2722 42.4369 24.2248 42.3704 24.1963C42.1087 24.077 41.8335 23.9898 41.5508 23.9364C41.1569 23.8952 40.7703 23.801 40.4014 23.6565C40.1599 23.5469 39.9552 23.3699 39.8117 23.1468C39.6938 22.922 39.6354 22.6709 39.6418 22.4172C39.6374 22.1029 39.7318 21.7953 39.9117 21.5376C40.1132 21.2667 40.3819 21.0531 40.6913 20.9179C41.0565 20.7548 41.4508 20.6665 41.8507 20.6581H41.8207ZM32.2956 20.6581C32.6352 20.6569 32.9727 20.711 33.2951 20.818C33.5839 20.9106 33.8544 21.0526 34.0946 21.2378L33.6649 22.2373C33.2749 21.9455 32.8026 21.7846 32.3156 21.7775C32.1286 21.7637 31.941 21.7935 31.7675 21.8646C31.5941 21.9357 31.4395 22.0462 31.3161 22.1873C31.0731 22.5418 30.9569 22.9679 30.9862 23.3967C30.9498 23.8432 31.07 24.2884 31.3261 24.656C31.4495 24.7971 31.604 24.9076 31.7775 24.9787C31.951 25.0498 32.1386 25.0797 32.3256 25.0658C32.8126 25.0587 33.2848 24.8978 33.6749 24.6061L34.1046 25.6055C33.8682 25.7965 33.5965 25.9392 33.305 26.0253C32.9829 26.1331 32.6452 26.1871 32.3056 26.1852C31.8016 26.1956 31.3031 26.0787 30.8563 25.8454C30.4454 25.6167 30.1141 25.268 29.9068 24.8459C29.6809 24.4003 29.5677 23.9062 29.577 23.4067C29.5652 22.9069 29.6786 22.4122 29.9068 21.9674C30.1141 21.5453 30.4454 21.1966 30.8563 20.9679C31.3015 20.7429 31.7972 20.6362 32.2956 20.6581ZM7.7181 20.728V21.8175H5.3693V22.817H7.56818V23.9164H5.3693V26.0653H4V20.728H7.7181ZM10.9165 20.728L13.4152 26.0653H11.9959L11.5661 24.9559H9.19735L8.72759 26.0653H7.3283L9.81703 20.728H10.9165ZM17.9129 20.728L20.3617 23.7765V20.728H21.661V26.0653H20.6615L18.1828 23.0169V26.0653H16.8934V20.728H17.9129ZM23.2402 20.728L24.5895 22.5771L25.9888 20.728H27.568L25.2891 23.6565V26.0553H23.8998V23.6565L21.661 20.6581L23.2402 20.728ZM10.3767 22.1973L9.64712 23.9164H11.1164L10.3767 22.1973Z" fill="black"/>
</svg>
