<svg width="48" height="48" viewBox="0 0 48 48" fill="none" xmlns="http://www.w3.org/2000/svg">
<path d="M43.0177 22.1122L25.8499 9.97673C25.5021 9.73062 25.0932 9.58501 24.6681 9.55585C24.243 9.5267 23.8181 9.61513 23.4399 9.81145C23.0617 10.0078 22.7449 10.3044 22.5241 10.6689C22.3033 11.0333 22.1871 11.4515 22.1883 11.8776V20.2314L7.65167 9.97673C7.30388 9.7334 6.89602 9.59009 6.47246 9.5624C6.0489 9.53472 5.62586 9.62371 5.24935 9.8197C4.87285 10.0157 4.55729 10.3112 4.33702 10.674C4.11674 11.0368 4.00018 11.4531 4.00001 11.8776V36.1286C3.99862 36.5539 4.11464 36.9714 4.33529 37.335C4.55594 37.6987 4.87266 37.9944 5.25058 38.1895C5.5808 38.3624 5.94834 38.4517 6.32107 38.4496C6.80041 38.4501 7.26836 38.3035 7.66167 38.0295L22.1883 27.7748V36.1286C22.1869 36.5539 22.3029 36.9714 22.5235 37.335C22.7442 37.6987 23.0609 37.9944 23.4388 38.1895C23.769 38.3624 24.1366 38.4517 24.5093 38.4496C24.9887 38.4501 25.4566 38.3035 25.8499 38.0295L43.0177 25.8939C43.3211 25.6807 43.5688 25.3976 43.7398 25.0685C43.9107 24.7394 44 24.374 44 24.0031C44 23.6322 43.9107 23.2668 43.7398 22.9377C43.5688 22.6086 43.3211 22.3255 43.0177 22.1122Z" fill="black"/>
</svg>
