<svg width="48" height="48" viewBox="0 0 48 48" fill="none" xmlns="http://www.w3.org/2000/svg">
<path d="M42.7492 9.81654C42.3728 9.62013 41.9497 9.53116 41.5261 9.5594C41.1026 9.58764 40.695 9.73199 40.3481 9.97661L25.8114 20.2313V11.8775C25.8125 11.4514 25.6963 11.0332 25.4755 10.6687C25.2547 10.3043 24.9379 10.0077 24.5597 9.81133C24.1815 9.61501 23.7566 9.52658 23.3315 9.55573C22.9064 9.58489 22.4975 9.7305 22.1497 9.97661L4.98179 22.1122C4.67831 22.3265 4.43072 22.6106 4.25983 22.9405C4.08895 23.2704 3.99976 23.6365 3.99976 24.0081C3.99976 24.3796 4.08895 24.7457 4.25983 25.0756C4.43072 25.4055 4.67831 25.6896 4.98179 25.9039L22.1497 38.0295C22.543 38.3035 23.011 38.4502 23.4903 38.4497C23.863 38.4518 24.2306 38.3625 24.5608 38.1896C24.9387 37.9944 25.2554 37.6987 25.4761 37.3351C25.6967 36.9715 25.8128 36.554 25.8114 36.1286V27.7748L40.3381 38.0295C40.7314 38.3035 41.1993 38.4502 41.6787 38.4497C42.0515 38.453 42.4194 38.3636 42.7492 38.1896C43.1271 37.9944 43.4438 37.6987 43.6645 37.3351C43.8851 36.9715 44.0011 36.554 43.9997 36.1286V11.8775C44.0011 11.4521 43.8851 11.0347 43.6645 10.671C43.4438 10.3074 43.1271 10.0117 42.7492 9.81654Z" fill="black"/>
</svg>
