<svg width="48" height="48" viewBox="0 0 48 48" fill="none" xmlns="http://www.w3.org/2000/svg">
<path d="M30.9794 27.4015L24.9924 25.805C24.8052 25.7676 24.6276 25.6923 24.4706 25.5836C24.3137 25.4749 24.1807 25.3352 24.0798 25.1731C23.9789 25.0109 23.9124 24.8299 23.8842 24.6411C23.8561 24.4522 23.8669 24.2596 23.9161 24.0751C23.9653 23.8907 24.0518 23.7182 24.1703 23.5685C24.2887 23.4187 24.4366 23.2949 24.6048 23.2045C24.7729 23.1141 24.9579 23.0592 25.1481 23.0431C25.3383 23.027 25.5299 23.0501 25.7108 23.1109L30.3108 24.3382L35.9785 19.6484C36.1168 19.5141 36.2813 19.4099 36.4619 19.3423C36.6424 19.2747 36.835 19.2452 37.0274 19.2557C37.2199 19.2661 37.4082 19.3163 37.5803 19.4031C37.7525 19.4898 37.9048 19.6112 38.0277 19.7597C38.1506 19.9082 38.2415 20.0805 38.2946 20.2658C38.3477 20.4511 38.3619 20.6454 38.3362 20.8365C38.3106 21.0275 38.2456 21.2112 38.1455 21.376C38.0454 21.5407 37.9123 21.6829 37.7546 21.7937L30.9794 27.4015Z" fill="black"/>
<path d="M41.0374 17.4532L42.7437 15.727C42.8748 15.5959 42.9787 15.4404 43.0496 15.2692C43.1205 15.098 43.157 14.9145 43.157 14.7291C43.157 14.5438 43.1205 14.3603 43.0496 14.1891C42.9787 14.0179 42.8748 13.8624 42.7437 13.7313C42.6127 13.6003 42.4571 13.4963 42.2859 13.4254C42.1147 13.3545 41.9312 13.318 41.7459 13.318C41.5606 13.318 41.3771 13.3545 41.2059 13.4254C41.0347 13.4963 40.8791 13.6003 40.7481 13.7313L39.0418 15.4775C37.0439 13.8519 34.6179 12.8399 32.057 12.5639V11.566H33.7533C33.9387 11.566 34.1223 11.5295 34.2936 11.4586C34.4649 11.3876 34.6206 11.2836 34.7517 11.1525C34.8828 11.0214 34.9868 10.8657 35.0578 10.6944C35.1287 10.5231 35.1652 10.3395 35.1652 10.1541C35.1652 9.96869 35.1287 9.78509 35.0578 9.61379C34.9868 9.44249 34.8828 9.28684 34.7517 9.15573C34.6206 9.02462 34.4649 8.92062 34.2936 8.84966C34.1223 8.77871 33.9387 8.74219 33.7533 8.74219H27.5369C27.188 8.77175 26.863 8.9312 26.6262 9.18898C26.3893 9.44676 26.2579 9.78408 26.2579 10.1342C26.2579 10.4842 26.3893 10.8215 26.6262 11.0793C26.863 11.3371 27.188 11.4966 27.5369 11.5261H29.2531V12.5239C26.2875 12.8233 23.5063 14.1029 21.3494 16.1604C19.1926 18.2178 17.7833 20.9355 17.3444 23.8838C16.9055 26.8321 17.4621 29.8425 18.9261 32.4389C20.3901 35.0353 22.678 37.0696 25.4279 38.2198C28.1778 39.37 31.2326 39.5706 34.1093 38.7899C36.986 38.0091 39.5202 36.2915 41.3112 33.9089C43.1022 31.5262 44.0477 28.6144 43.9981 25.6341C43.9485 22.6537 42.9067 19.775 41.0374 17.4532ZM30.6501 36.4718C28.5514 36.4737 26.4993 35.8531 24.7535 34.6883C23.0076 33.5236 21.6466 31.8671 20.8425 29.9286C20.0385 27.99 19.8276 25.8565 20.2365 23.798C20.6455 21.7396 21.6559 19.8487 23.1399 18.3647C24.6239 16.8807 26.5148 15.8703 28.5732 15.4613C30.6317 15.0524 32.7652 15.2633 34.7038 16.0673C36.6423 16.8713 38.2988 18.2324 39.4636 19.9782C40.6283 21.724 41.249 23.7762 41.247 25.8748C41.2443 28.6845 40.127 31.3783 38.1403 33.3651C36.1536 35.3518 33.4597 36.4691 30.6501 36.4718Z" fill="black"/>
<path d="M14.6649 23.2705H8.16907C7.97637 23.2869 7.78237 23.263 7.59937 23.2005C7.41637 23.1379 7.24834 23.0381 7.10594 22.9072C6.96353 22.7764 6.84985 22.6174 6.77208 22.4403C6.69431 22.2632 6.65415 22.072 6.65415 21.8786C6.65415 21.6852 6.69431 21.4939 6.77208 21.3168C6.84985 21.1397 6.96353 20.9808 7.10594 20.8499C7.24834 20.7191 7.41637 20.6192 7.59937 20.5567C7.78237 20.4941 7.97637 20.4703 8.16907 20.4866H14.6649C15.0137 20.5162 15.3387 20.6756 15.5756 20.9334C15.8125 21.1912 15.9439 21.5285 15.9439 21.8786C15.9439 22.2286 15.8125 22.5659 15.5756 22.8237C15.3387 23.0815 15.0137 23.241 14.6649 23.2705Z" fill="black"/>
<path d="M12.0007 27.2618H5.51485C5.32215 27.2782 5.12816 27.2543 4.94515 27.1918C4.76215 27.1292 4.59413 27.0294 4.45172 26.8985C4.30932 26.7677 4.19563 26.6087 4.11786 26.4316C4.04009 26.2545 3.99994 26.0633 3.99994 25.8699C3.99994 25.6765 4.04009 25.4852 4.11786 25.3081C4.19563 25.131 4.30932 24.9721 4.45172 24.8412C4.59413 24.7104 4.76215 24.6105 4.94515 24.548C5.12816 24.4854 5.32215 24.4616 5.51485 24.4779H12.0007C12.1934 24.4616 12.3874 24.4854 12.5704 24.548C12.7534 24.6105 12.9214 24.7104 13.0638 24.8412C13.2063 24.9721 13.3199 25.131 13.3977 25.3081C13.4755 25.4852 13.5156 25.6765 13.5156 25.8699C13.5156 26.0633 13.4755 26.2545 13.3977 26.4316C13.3199 26.6087 13.2063 26.7677 13.0638 26.8985C12.9214 27.0294 12.7534 27.1292 12.5704 27.1918C12.3874 27.2543 12.1934 27.2782 12.0007 27.2618Z" fill="black"/>
<path d="M14.6649 31.2631H8.16907C7.97637 31.2794 7.78237 31.2556 7.59937 31.193C7.41637 31.1305 7.24834 31.0306 7.10594 30.8998C6.96353 30.7689 6.84985 30.61 6.77208 30.4329C6.69431 30.2558 6.65415 30.0645 6.65415 29.8711C6.65415 29.6777 6.69431 29.4865 6.77208 29.3094C6.84985 29.1323 6.96353 28.9733 7.10594 28.8425C7.24834 28.7116 7.41637 28.6118 7.59937 28.5492C7.78237 28.4867 7.97637 28.4628 8.16907 28.4792H14.6649C15.0137 28.5087 15.3387 28.6682 15.5756 28.926C15.8125 29.1837 15.9439 29.5211 15.9439 29.8711C15.9439 30.2212 15.8125 30.5585 15.5756 30.8163C15.3387 31.0741 15.0137 31.2335 14.6649 31.2631Z" fill="black"/>
</svg>
