<svg width="48" height="48" viewBox="0 0 48 48" fill="none" xmlns="http://www.w3.org/2000/svg">
<path d="M43.0189 9.90357C42.7061 9.73774 42.3533 9.66209 42 9.68506C41.6466 9.70802 41.3066 9.82871 41.0179 10.0336L25.4195 21.0396V11.5945C25.4179 11.2462 25.3212 10.9049 25.1398 10.6076C24.9584 10.3102 24.6992 10.0681 24.3901 9.90742C24.0811 9.74672 23.734 9.67354 23.3864 9.69579C23.0388 9.71804 22.7039 9.83486 22.4179 10.0336L4.80839 22.4403C4.55857 22.6168 4.35476 22.8507 4.21409 23.1223C4.07342 23.3939 4 23.6953 4 24.0012C4 24.307 4.07342 24.6084 4.21409 24.88C4.35476 25.1516 4.55857 25.3855 4.80839 25.562L22.3978 37.9687C22.718 38.1998 23.1036 38.3225 23.4984 38.3188C23.8041 38.317 24.1053 38.2451 24.3789 38.1087C24.6839 37.9422 24.9381 37.6961 25.1143 37.3966C25.2905 37.097 25.3821 36.7553 25.3794 36.4078V26.9627L41.0179 37.9687C41.3386 38.1985 41.7238 38.3211 42.1184 38.3188C42.4241 38.317 42.7253 38.2451 42.9989 38.1087C43.3054 37.9439 43.5607 37.6982 43.7372 37.3983C43.9136 37.0983 44.0043 36.7558 43.9995 36.4078V11.5945C44.0078 11.2496 43.9206 10.9092 43.7476 10.6108C43.5745 10.3124 43.3224 10.0676 43.0189 9.90357ZM22.608 34.6969L7.43981 24.0012L22.608 13.2954V34.6969ZM41.228 34.6969L26.0098 24.0012L41.228 13.2954V34.6969Z" fill="black"/>
</svg>
