<svg width="48" height="48" viewBox="0 0 48 48" fill="none" xmlns="http://www.w3.org/2000/svg">
<path d="M9.0874 23.7272H15.3251C15.691 23.7497 16.0576 23.697 16.4024 23.5724C16.7472 23.4478 17.0628 23.2539 17.3298 23.0027C17.5969 22.7516 17.8097 22.4484 17.9551 22.1119C18.1006 21.7754 18.1756 21.4127 18.1756 21.0461C18.1756 20.6795 18.1006 20.3167 17.9551 19.9802C17.8097 19.6437 17.5969 19.3405 17.3298 19.0894C17.0628 18.8382 16.7472 18.6443 16.4024 18.5197C16.0576 18.3951 15.691 18.3424 15.3251 18.3649H9.0874C8.72149 18.3424 8.35486 18.3951 8.01008 18.5197C7.66531 18.6443 7.34968 18.8382 7.08265 19.0894C6.81561 19.3405 6.60281 19.6437 6.45736 19.9802C6.3119 20.3167 6.23686 20.6795 6.23686 21.0461C6.23686 21.4127 6.3119 21.7754 6.45736 22.1119C6.60281 22.4484 6.81561 22.7516 7.08265 23.0027C7.34968 23.2539 7.66531 23.4478 8.01008 23.5724C8.35486 23.697 8.72149 23.7497 9.0874 23.7272Z" fill="black"/>
<path d="M12.7696 29.3613C13.1356 29.3837 13.5022 29.331 13.847 29.2064C14.1917 29.0818 14.5074 28.8879 14.7744 28.6368C15.0414 28.3856 15.2542 28.0824 15.3997 27.7459C15.5451 27.4094 15.6202 27.0467 15.6202 26.6801C15.6202 26.3135 15.5451 25.9508 15.3997 25.6143C15.2542 25.2777 15.0414 24.9746 14.7744 24.7234C14.5074 24.4722 14.1917 24.2784 13.847 24.1538C13.5022 24.0292 13.1356 23.9765 12.7696 23.9989H6.52191C5.8392 24.0407 5.19817 24.3414 4.72954 24.8396C4.26092 25.3379 4 25.9961 4 26.6801C4 27.3641 4.26092 28.0223 4.72954 28.5205C5.19817 29.0187 5.8392 29.3194 6.52191 29.3613H12.7696Z" fill="black"/>
<path d="M15.3251 29.6329H9.0874C8.72149 29.6105 8.35486 29.6632 8.01008 29.7878C7.66531 29.9124 7.34968 30.1063 7.08265 30.3574C6.81561 30.6086 6.60281 30.9118 6.45736 31.2483C6.3119 31.5848 6.23686 31.9475 6.23686 32.3141C6.23686 32.6807 6.3119 33.0434 6.45736 33.3799C6.60281 33.7164 6.81561 34.0196 7.08265 34.2708C7.34968 34.522 7.66531 34.7158 8.01008 34.8404C8.35486 34.965 8.72149 35.0177 9.0874 34.9953H15.3251C15.691 35.0177 16.0576 34.965 16.4024 34.8404C16.7472 34.7158 17.0628 34.522 17.3298 34.2708C17.5969 34.0196 17.8097 33.7164 17.9551 33.3799C18.1006 33.0434 18.1756 32.6807 18.1756 32.3141C18.1756 31.9475 18.1006 31.5848 17.9551 31.2483C17.8097 30.9118 17.5969 30.6086 17.3298 30.3574C17.0628 30.1063 16.7472 29.9124 16.4024 29.7878C16.0576 29.6632 15.691 29.6105 15.3251 29.6329Z" fill="black"/>
<path d="M43.304 17.8819C43.7614 17.3702 44.0054 16.7027 43.9862 16.0167C43.9669 15.3306 43.6858 14.6779 43.2004 14.1926C42.7151 13.7073 42.0625 13.4262 41.3764 13.4069C40.6903 13.3877 40.0229 13.6317 39.5111 14.089L38.0523 15.5579C36.6411 14.6221 35.0631 13.9663 33.4043 13.6262V13.3244H33.7161C34.3988 13.2826 35.0399 12.9819 35.5085 12.4837C35.9771 11.9854 36.238 11.3272 36.238 10.6432C36.238 9.95924 35.9771 9.30102 35.5085 8.80279C35.0399 8.30457 34.3988 8.00388 33.7161 7.96204H27.7199C27.0372 8.00388 26.3962 8.30457 25.9276 8.80279C25.4589 9.30102 25.198 9.95924 25.198 10.6432C25.198 11.3272 25.4589 11.9854 25.9276 12.4837C26.3962 12.9819 27.0372 13.2826 27.7199 13.3244H27.9916V13.6262C25.1934 14.1974 22.6524 15.6513 20.7422 17.7743C18.8321 19.8973 17.6536 22.5772 17.3802 25.42C17.1067 28.2627 17.7527 31.1181 19.2232 33.5663C20.6936 36.0145 22.9109 37.9262 25.5489 39.0202C28.1868 40.1142 31.1063 40.3328 33.8777 39.6439C36.6492 38.9549 39.1265 37.3948 40.9451 35.1929C42.7638 32.991 43.8279 30.2636 43.9808 27.4119C44.1338 24.5602 43.3676 21.7346 41.7949 19.3508L43.304 17.8819ZM37.8411 23.1035L31.1406 28.647L25.1544 27.0775C24.726 26.9297 24.3695 26.6249 24.1569 26.2246C23.9443 25.8244 23.8914 25.3584 24.0088 24.9207C24.1262 24.4829 24.4053 24.106 24.7896 23.8658C25.174 23.6257 25.6351 23.5402 26.08 23.6266L30.2854 24.7434L35.5673 20.377C35.7456 20.2084 35.9567 20.0782 36.1874 19.9945C36.4181 19.9108 36.6635 19.8754 36.9085 19.8906C37.1534 19.9057 37.3926 19.9711 37.6113 20.0825C37.8299 20.194 38.0233 20.3492 38.1795 20.5385C38.3356 20.7278 38.4512 20.9472 38.519 21.1831C38.5869 21.4189 38.6055 21.6662 38.5737 21.9096C38.542 22.1529 38.4606 22.3871 38.3346 22.5977C38.2085 22.8083 38.0405 22.9907 37.8411 23.1337V23.1035Z" fill="black"/>
</svg>
