<svg width="48" height="48" viewBox="0 0 48 48" fill="none" xmlns="http://www.w3.org/2000/svg">
<path d="M43.2312 22.4396L25.6328 10.0266C25.3467 9.82774 25.0116 9.71085 24.6638 9.68859C24.316 9.66634 23.9688 9.73955 23.6596 9.90033C23.3504 10.0611 23.091 10.3033 22.9095 10.6008C22.728 10.8983 22.6312 11.2398 22.6297 11.5883V21.0381L7.00336 10.0266C6.71446 9.82158 6.37427 9.70083 6.02075 9.67786C5.66723 9.65488 5.31428 9.73057 5.00126 9.89649C4.69469 10.0588 4.43896 10.3027 4.2623 10.6013C4.08565 10.8998 3.99495 11.2414 4.00022 11.5883V36.4142C3.99535 36.7623 4.08612 37.1051 4.26263 37.4052C4.43915 37.7052 4.69464 37.9511 5.00126 38.116C5.27499 38.2524 5.57634 38.3243 5.88218 38.3262C6.28312 38.328 6.67476 38.2056 7.00336 37.9758L22.6097 26.9643V36.4142C22.607 36.7619 22.6987 37.1038 22.875 37.4035C23.0513 37.7031 23.3055 37.9494 23.6107 38.116C23.8845 38.2524 24.1858 38.3243 24.4916 38.3262C24.8859 38.3251 25.2704 38.2028 25.5928 37.9758L43.1912 25.5629C43.4411 25.3863 43.6451 25.1523 43.7858 24.8806C43.9265 24.6088 44 24.3073 44 24.0012C44 23.6952 43.9265 23.3937 43.7858 23.1219C43.6451 22.8502 43.4411 22.6162 43.1912 22.4396H43.2312ZM6.79314 34.7024V13.29L22.0191 24.0012L6.79314 34.7024ZM25.4126 34.7024V24.0112V13.29L40.5985 24.0012L25.4126 34.7024Z" fill="black"/>
</svg>
