<svg width="48" height="48" viewBox="0 0 48 48" fill="none" xmlns="http://www.w3.org/2000/svg">
<path d="M34.33 28.9264C36.6267 26.628 38.0914 23.6294 38.4921 20.405C38.8929 17.1806 38.2069 13.9147 36.5427 11.124C34.8786 8.33335 32.3313 6.17737 29.304 4.99727C26.2767 3.81717 22.9423 3.68034 19.8284 4.60845C16.7146 5.53657 13.9993 7.4766 12.1121 10.1215C10.2248 12.7665 9.2736 15.9652 9.40885 19.2116C9.54409 22.458 10.7581 25.5665 12.8588 28.0453C14.9594 30.5241 17.8268 32.2316 21.007 32.8975V34.5753H19.6866C19.0129 34.6165 18.3804 34.9133 17.9179 35.4049C17.4555 35.8965 17.198 36.5461 17.198 37.221C17.198 37.896 17.4555 38.5455 17.9179 39.0371C18.3804 39.5287 19.0129 39.8255 19.6866 39.8668H21.007V41.1871C20.9849 41.5482 21.0369 41.91 21.1598 42.2502C21.2828 42.5904 21.4741 42.9019 21.7219 43.1654C21.9698 43.4289 22.269 43.6389 22.601 43.7824C22.9331 43.926 23.291 44 23.6527 44C24.0145 44 24.3724 43.926 24.7045 43.7824C25.0365 43.6389 25.3357 43.4289 25.5836 43.1654C25.8314 42.9019 26.0227 42.5904 26.1457 42.2502C26.2686 41.91 26.3206 41.5482 26.2985 41.1871V39.8469H27.6189C27.98 39.869 28.3417 39.817 28.682 39.6941C29.0222 39.5711 29.3336 39.3798 29.5971 39.132C29.8606 38.8841 30.0706 38.5849 30.2142 38.2529C30.3577 37.9208 30.4317 37.5629 30.4317 37.2011C30.4317 36.8394 30.3577 36.4815 30.2142 36.1494C30.0706 35.8174 29.8606 35.5182 29.5971 35.2703C29.3336 35.0225 29.0222 34.8312 28.682 34.7082C28.3417 34.5853 27.98 34.5333 27.6189 34.5554H26.2985V33.0265C29.3433 32.5479 32.1565 31.1117 34.33 28.9264Z" fill="black"/>
</svg>
