<svg width="48" height="48" viewBox="0 0 48 48" fill="none" xmlns="http://www.w3.org/2000/svg">
<path d="M34.4641 29.3682C36.8453 27.001 38.3535 23.8962 38.7424 20.5611C39.1312 17.2259 38.3777 13.8575 36.6048 11.0059C34.832 8.15428 32.1447 5.98807 28.9817 4.86105C25.8188 3.73402 22.3672 3.71278 19.1906 4.80079C16.014 5.8888 13.3002 8.02177 11.4924 10.8513C9.68463 13.6809 8.8897 17.0398 9.23745 20.3795C9.58521 23.7192 11.0551 26.8423 13.407 29.2387C15.759 31.6351 18.854 33.1632 22.1866 33.5734V36.9236H19.413C19.0655 36.953 18.7417 37.1119 18.5057 37.3687C18.2697 37.6256 18.1387 37.9616 18.1387 38.3104C18.1387 38.6592 18.2697 38.9952 18.5057 39.2521C18.7417 39.5089 19.0655 39.6678 19.413 39.6972H22.1866V42.4907C22.1703 42.6827 22.1941 42.876 22.2564 43.0583C22.3187 43.2406 22.4182 43.408 22.5486 43.5499C22.6789 43.6918 22.8373 43.805 23.0137 43.8825C23.1902 43.96 23.3807 44 23.5734 44C23.7661 44 23.9567 43.96 24.1331 43.8825C24.3095 43.805 24.4679 43.6918 24.5982 43.5499C24.7286 43.408 24.8281 43.2406 24.8904 43.0583C24.9527 42.876 24.9765 42.6827 24.9602 42.4907V39.727H27.7338C28.0814 39.6976 28.4052 39.5387 28.6411 39.2819C28.8771 39.0251 29.0081 38.689 29.0081 38.3402C29.0081 37.9915 28.8771 37.6554 28.6411 37.3986C28.4052 37.1417 28.0814 36.9829 27.7338 36.9534H24.9602V33.6529C28.5456 33.4352 31.9268 31.9109 34.4641 29.3682ZM15.5061 10.4003C17.1871 8.71976 19.3287 7.57536 21.66 7.11185C23.9914 6.64834 26.4079 6.88653 28.6039 7.79631C30.7999 8.70609 32.6768 10.2466 33.9973 12.223C35.3179 14.1995 36.0227 16.5231 36.0227 18.9001C36.0227 21.2771 35.3179 23.6007 33.9973 25.5772C32.6768 27.5536 30.7999 29.0941 28.6039 30.0039C26.4079 30.9137 23.9914 31.1519 21.66 30.6884C19.3287 30.2249 17.1871 29.0805 15.5061 27.3999C14.3849 26.2864 13.4951 24.9622 12.8879 23.5034C12.2808 22.0447 11.9682 20.4802 11.9682 18.9001C11.9682 17.32 12.2808 15.7555 12.8879 14.2968C13.4951 12.838 14.3849 11.5138 15.5061 10.4003Z" fill="black"/>
</svg>
