<svg width="48" height="48" viewBox="0 0 48 48" fill="none" xmlns="http://www.w3.org/2000/svg">
<path d="M14.7078 4.43597C15.5464 4.11676 16.4408 3.97033 17.3375 4.00498H30.6625C31.5591 3.97033 32.4536 4.11676 33.2922 4.43597C34.1308 4.75519 34.8964 5.24036 35.5431 5.86244C36.1898 6.48452 36.7042 7.23082 37.0556 8.05644C37.407 8.88206 37.5881 9.77016 37.5881 10.6675C37.5881 11.5649 37.407 12.453 37.0556 13.2786C36.7042 14.1042 36.1898 14.8505 35.5431 15.4726C34.8964 16.0947 34.1308 16.5799 33.2922 16.8988C32.5345 17.1873 31.7313 17.335 30.922 17.335C31.2703 17.3486 31.6185 17.3896 31.9633 17.4582C33.2566 17.7154 34.4447 18.3504 35.3771 19.283C36.3096 20.2152 36.9446 21.4033 37.2019 22.6967C37.4592 23.9902 37.3271 25.3307 36.8225 26.549C36.3178 27.7673 35.4632 28.8087 34.3668 29.5413C33.2703 30.274 31.9812 30.6649 30.6625 30.6649C28.8942 30.6649 27.1983 29.9625 25.9479 28.712C24.6975 27.4618 23.995 25.7659 23.995 23.9975C23.995 22.6789 24.386 21.3896 25.1187 20.2933C25.8513 19.1968 26.8926 18.3421 28.111 17.8374C28.9136 17.5051 29.7692 17.3342 30.6295 17.3301H23.995V23.9975V37.3226C23.997 38.6422 23.6074 39.9324 22.8755 41.0304C22.1436 42.1286 21.1024 42.9848 19.8837 43.4904C18.6649 43.9964 17.3235 44.1294 16.0292 43.8724C14.7349 43.6154 13.5459 42.9801 12.6129 42.0471C11.6798 41.1141 11.0446 39.9251 10.7876 38.6309C10.5307 37.3365 10.6636 35.995 11.1694 34.7764C11.6753 33.5576 12.5315 32.5163 13.6295 31.7846C14.7275 31.0527 16.0179 30.663 17.3375 30.6649C15.5692 30.6649 13.8733 29.9625 12.6229 28.712C11.3725 27.4618 10.67 25.7659 10.67 23.9975C10.67 22.2291 11.3725 20.5332 12.6229 19.283C13.8124 18.0932 15.4051 17.3996 17.0798 17.335C16.2699 17.335 15.466 17.1875 14.7078 16.8988C13.8691 16.5799 13.1036 16.0947 12.4569 15.4726C11.8102 14.8505 11.2958 14.1042 10.9444 13.2786C10.593 12.453 10.4119 11.5649 10.4119 10.6675C10.4119 9.77016 10.593 8.88206 10.9444 8.05644C11.2958 7.23082 11.8102 6.48452 12.4569 5.86244C13.1036 5.24036 13.8691 4.75519 14.7078 4.43597Z" fill="black"/>
</svg>
