<svg width="48" height="48" viewBox="0 0 48 48" fill="none" xmlns="http://www.w3.org/2000/svg">
<path d="M30.09 5.06V10.37H35.39L30.09 5.06Z" fill="black"/>
<path d="M26.45 14V4H15.55C14.3433 4 13.186 4.47937 12.3327 5.33266C11.4794 6.18595 11 7.34327 11 8.55V39.45C11 40.0475 11.1177 40.6392 11.3463 41.1912C11.575 41.7432 11.9102 42.2448 12.3327 42.6673C12.7552 43.0898 13.2568 43.425 13.8088 43.6537C14.3608 43.8823 14.9525 44 15.55 44H31.91C33.115 43.9974 34.2697 43.5168 35.1209 42.6638C35.972 41.8108 36.45 40.655 36.45 39.45V14H26.45ZM31 34.32H16.45C15.9919 34.286 15.5636 34.08 15.2511 33.7434C14.9385 33.4067 14.7648 32.9644 14.7648 32.505C14.7648 32.0456 14.9385 31.6033 15.2511 31.2666C15.5636 30.93 15.9919 30.724 16.45 30.69H31C31.2497 30.6715 31.5005 30.7046 31.7368 30.7874C31.973 30.8702 32.1897 31.0009 32.3732 31.1713C32.5566 31.3416 32.703 31.548 32.8031 31.7775C32.9032 32.007 32.9548 32.2546 32.9548 32.505C32.9548 32.7554 32.9032 33.003 32.8031 33.2325C32.703 33.462 32.5566 33.6684 32.3732 33.8387C32.1897 34.0091 31.973 34.1398 31.7368 34.2226C31.5005 34.3054 31.2497 34.3385 31 34.32ZM31 29.87H16.45C15.9673 29.87 15.5044 29.6783 15.1631 29.3369C14.8217 28.9956 14.63 28.5327 14.63 28.05C14.63 27.5673 14.8217 27.1044 15.1631 26.7631C15.5044 26.4217 15.9673 26.23 16.45 26.23H31C31.4827 26.23 31.9456 26.4217 32.2869 26.7631C32.6283 27.1044 32.82 27.5673 32.82 28.05C32.82 28.5327 32.6283 28.9956 32.2869 29.3369C31.9456 29.6783 31.4827 29.87 31 29.87ZM31 25.41H16.45C15.9673 25.41 15.5044 25.2183 15.1631 24.8769C14.8217 24.5356 14.63 24.0727 14.63 23.59C14.63 23.1073 14.8217 22.6444 15.1631 22.3031C15.5044 21.9618 15.9673 21.77 16.45 21.77H31C31.4827 21.77 31.9456 21.9618 32.2869 22.3031C32.6283 22.6444 32.82 23.1073 32.82 23.59C32.82 24.0727 32.6283 24.5356 32.2869 24.8769C31.9456 25.2183 31.4827 25.41 31 25.41ZM31 21H16.45C15.9673 21 15.5044 20.8083 15.1631 20.4669C14.8217 20.1256 14.63 19.6627 14.63 19.18C14.63 18.6973 14.8217 18.2344 15.1631 17.8931C15.5044 17.5517 15.9673 17.36 16.45 17.36H31C31.4827 17.36 31.9456 17.5517 32.2869 17.8931C32.6283 18.2344 32.82 18.6973 32.82 19.18C32.82 19.6627 32.6283 20.1256 32.2869 20.4669C31.9456 20.8083 31.4827 21 31 21Z" fill="black"/>
</svg>
