<svg width="48" height="48" viewBox="0 0 48 48" fill="none" xmlns="http://www.w3.org/2000/svg">
<path d="M26.45 14V4H15.55C14.3433 4 13.186 4.47937 12.3327 5.33266C11.4794 6.18595 11 7.34327 11 8.55V39.45C11 40.0475 11.1177 40.6392 11.3463 41.1912C11.575 41.7432 11.9102 42.2448 12.3327 42.6673C12.7552 43.0898 13.2568 43.425 13.8088 43.6537C14.3608 43.8823 14.9525 44 15.55 44H31.91C33.115 43.9974 34.2697 43.5168 35.1209 42.6638C35.972 41.8108 36.45 40.655 36.45 39.45V14H26.45ZM22.26 29.24C22.6001 29.5812 22.7911 30.0433 22.7911 30.525C22.7911 31.0067 22.6001 31.4688 22.26 31.81C22.0934 31.9808 21.8943 32.1165 21.6745 32.2092C21.4547 32.302 21.2186 32.3498 20.98 32.35C20.7399 32.35 20.5022 32.3023 20.2807 32.2096C20.0593 32.1169 19.8585 31.9811 19.69 31.81L15.3 27.42C14.8768 26.993 14.6394 26.4162 14.6394 25.815C14.6394 25.2138 14.8768 24.637 15.3 24.21L19.69 19.82C20.0366 19.5094 20.4891 19.3435 20.9544 19.3562C21.4196 19.369 21.8623 19.5595 22.1914 19.8886C22.5205 20.2177 22.711 20.6604 22.7238 21.1256C22.7365 21.5909 22.5706 22.0434 22.26 22.39L18.84 25.82L22.26 29.24ZM32.15 27.42L27.76 31.81C27.5934 31.9808 27.3943 32.1165 27.1745 32.2092C26.9547 32.302 26.7186 32.3498 26.48 32.35C26.1213 32.3465 25.7715 32.2377 25.4741 32.037C25.1767 31.8363 24.9449 31.5526 24.8074 31.2212C24.67 30.8898 24.6329 30.5254 24.701 30.1731C24.769 29.8209 24.939 29.4964 25.19 29.24L28.62 25.82L25.19 22.39C24.8794 22.0434 24.7135 21.5909 24.7262 21.1256C24.739 20.6604 24.9295 20.2177 25.2586 19.8886C25.5877 19.5595 26.0304 19.369 26.4956 19.3562C26.9609 19.3435 27.4134 19.5094 27.76 19.82L32.15 24.21C32.3619 24.4201 32.5302 24.6701 32.645 24.9456C32.7598 25.2211 32.8189 25.5166 32.8189 25.815C32.8189 26.1134 32.7598 26.4089 32.645 26.6844C32.5302 26.9599 32.3619 27.2099 32.15 27.42Z" fill="black"/>
<path d="M30.09 5.06V10.37H35.39L30.09 5.06Z" fill="black"/>
</svg>
