<svg width="48" height="48" viewBox="0 0 48 48" fill="none" xmlns="http://www.w3.org/2000/svg">
<path d="M36.4431 11.3919C36.3743 11.2179 36.2685 11.0609 36.133 10.9318L29.6414 4.40021C29.5092 4.27099 29.3528 4.16903 29.1813 4.10013C29.0186 4.03634 28.8458 4.00245 28.6712 4.00011H15.6679C15.1154 3.99615 14.5675 4.10124 14.0557 4.30934C13.5438 4.51744 13.078 4.82447 12.685 5.21285C12.292 5.60122 11.9794 6.06332 11.7653 6.57266C11.5511 7.08201 11.4395 7.6286 11.4369 8.18114V39.809C11.4395 40.9197 11.8819 41.9842 12.6673 42.7696C13.4527 43.555 14.5172 43.9974 15.6279 44H32.3721C33.4828 43.9974 34.5473 43.555 35.3327 42.7696C36.1181 41.9842 36.5605 40.9197 36.5631 39.809V11.9021C36.5544 11.7261 36.5137 11.5533 36.4431 11.3919ZM30.0415 8.75128L31.7919 10.5017H30.0415V8.75128ZM32.3721 41.2093H15.6279C15.2565 41.2093 14.9003 41.0618 14.6377 40.7992C14.3751 40.5365 14.2276 40.1804 14.2276 39.809V8.18114C14.2276 7.80975 14.3751 7.45356 14.6377 7.19095C14.9003 6.92833 15.2565 6.7808 15.6279 6.7808H27.2508V13.2924H33.7724V39.809C33.7724 40.1804 33.6249 40.5365 33.3623 40.7992C33.0996 41.0618 32.7435 41.2093 32.3721 41.2093Z" fill="black"/>
<path d="M27.3208 25.6054C28.078 24.9313 28.6124 24.0429 28.8531 23.058C29.0939 22.0732 29.0297 21.0385 28.669 20.091C28.3083 19.1435 27.6682 18.328 26.8334 17.7526C25.9987 17.1772 25.0088 16.8691 23.995 16.8691C22.9812 16.8691 21.9913 17.1772 21.1566 17.7526C20.3218 18.328 19.6817 19.1435 19.321 20.091C18.9603 21.0385 18.8961 22.0732 19.1368 23.058C19.3776 24.0429 19.912 24.9313 20.6692 25.6054C20.1917 25.9089 19.7547 26.2719 19.3689 26.6857C18.167 28.0097 17.5096 29.7389 17.5284 31.5269C17.5284 32.7072 18.3686 34.6977 23.93 34.6977H24.01C29.6414 34.6977 30.4716 32.6972 30.4716 31.4769C30.4756 30.3135 30.1896 29.1675 29.6394 28.1423C29.0893 27.1172 28.2925 26.2453 27.3208 25.6054ZM23.99 19.804C24.4164 19.8021 24.8339 19.9264 25.1898 20.1613C25.5458 20.3962 25.8242 20.7312 25.9901 21.124C26.156 21.5169 26.202 21.9501 26.1221 22.369C26.0423 22.7879 25.8403 23.1738 25.5415 23.4781C25.2428 23.7824 24.8606 23.9915 24.4433 24.0791C24.0259 24.1666 23.592 24.1287 23.1961 23.97C22.8003 23.8114 22.4602 23.5392 22.2188 23.1876C21.9774 22.8361 21.8454 22.421 21.8395 21.9946C21.8355 21.7092 21.8881 21.4258 21.9943 21.1609C22.1005 20.8959 22.2581 20.6546 22.458 20.4509C22.658 20.2473 22.8963 20.0852 23.1593 19.9742C23.4222 19.8631 23.7046 19.8053 23.99 19.804ZM23.99 31.907C22.7338 31.9995 21.4734 31.7974 20.3091 31.3169C20.3491 30.2982 20.7497 29.3269 21.4394 28.5762C21.7623 28.215 22.1565 27.9245 22.5972 27.7231C23.0379 27.5217 23.5155 27.4137 24 27.4059C24.9933 27.4622 25.9274 27.8968 26.6101 28.6205C27.2929 29.3442 27.6725 30.3019 27.6709 31.2969C26.5112 31.7823 25.2544 31.9912 24 31.907H23.99Z" fill="black"/>
</svg>
