<svg width="48" height="48" viewBox="0 0 48 48" fill="none" xmlns="http://www.w3.org/2000/svg">
<path d="M30.09 5.06V10.37H35.39L30.09 5.06Z" fill="black"/>
<path d="M25.85 24.15C25.85 23.4004 25.6277 22.6677 25.2113 22.0444C24.7948 21.4211 24.2029 20.9354 23.5104 20.6485C22.8178 20.3616 22.0558 20.2866 21.3206 20.4328C20.5854 20.5791 19.9101 20.94 19.3801 21.4701C18.85 22.0001 18.4891 22.6754 18.3428 23.4106C18.1966 24.1458 18.2716 24.9078 18.5585 25.6004C18.8454 26.2929 19.3311 26.8848 19.9544 27.3013C20.5777 27.7177 21.3104 27.94 22.06 27.94C22.5577 27.94 23.0505 27.842 23.5104 27.6515C23.9702 27.461 24.388 27.1819 24.7399 26.8299C25.0919 26.478 25.371 26.0602 25.5615 25.6004C25.752 25.1405 25.85 24.6477 25.85 24.15Z" fill="black"/>
<path d="M26.45 14V4H15.55C14.3433 4 13.186 4.47937 12.3327 5.33266C11.4794 6.18595 11 7.34327 11 8.55V39.45C11 40.0475 11.1177 40.6392 11.3463 41.1912C11.575 41.7432 11.9102 42.2448 12.3327 42.6673C12.7552 43.0898 13.2568 43.425 13.8088 43.6537C14.3608 43.8823 14.9525 44 15.55 44H31.91C33.115 43.9974 34.2697 43.5168 35.1209 42.6638C35.972 41.8108 36.45 40.655 36.45 39.45V14H26.45ZM32.29 34.38C31.9471 34.7207 31.4834 34.912 31 34.912C30.5166 34.912 30.0529 34.7207 29.71 34.38L25.86 30.52C24.714 31.214 23.3997 31.5806 22.06 31.58C20.5905 31.58 19.154 31.1442 17.9321 30.3278C16.7103 29.5114 15.7579 28.351 15.1956 26.9933C14.6332 25.6357 14.4861 24.1418 14.7728 22.7005C15.0595 21.2592 15.7671 19.9353 16.8062 18.8962C17.8453 17.8571 19.1692 17.1495 20.6105 16.8628C22.0518 16.5761 23.5457 16.7232 24.9033 17.2856C26.261 17.8479 27.4214 18.8003 28.2378 20.0221C29.0542 21.244 29.49 22.6805 29.49 24.15C29.4998 25.5067 29.1328 26.8395 28.43 28L32.29 31.86C32.6151 32.1989 32.7967 32.6504 32.7967 33.12C32.7967 33.5896 32.6151 34.0411 32.29 34.38Z" fill="black"/>
</svg>
