<svg width="48" height="48" viewBox="0 0 48 48" fill="none" xmlns="http://www.w3.org/2000/svg">
<path d="M30.09 5.06V10.37H35.39L30.09 5.06Z" fill="black"/>
<path d="M25.92 22.05C25.7922 21.5653 25.5076 21.1365 25.1105 20.8306C24.7134 20.5246 24.2263 20.3587 23.725 20.3587C23.2237 20.3587 22.7366 20.5246 22.3395 20.8306C21.9424 21.1365 21.6578 21.5653 21.53 22.05H25.92Z" fill="black"/>
<path d="M28.25 25.68H19.21V31.27H28.25V25.68Z" fill="black"/>
<path d="M26.45 14V4H15.55C14.3433 4 13.186 4.47937 12.3327 5.33266C11.4794 6.18595 11 7.34327 11 8.55V39.45C11 40.0475 11.1177 40.6392 11.3463 41.1912C11.575 41.7432 11.9102 42.2448 12.3327 42.6673C12.7552 43.0898 13.2568 43.425 13.8088 43.6537C14.3608 43.8823 14.9525 44 15.55 44H31.91C33.115 43.9974 34.2697 43.5168 35.1209 42.6638C35.972 41.8108 36.45 40.655 36.45 39.45V14H26.45ZM31.88 31.27C31.88 32.2337 31.4979 33.158 30.8174 33.8403C30.1369 34.5227 29.2137 34.9074 28.25 34.91H19.25C18.2846 34.91 17.3588 34.5265 16.6761 33.8439C15.9935 33.1612 15.61 32.2354 15.61 31.27V25.68C15.6121 24.9605 15.8269 24.2577 16.2272 23.6599C16.6275 23.0621 17.1956 22.596 17.86 22.32C17.9478 20.812 18.6086 19.3946 19.7074 18.358C20.8061 17.3214 22.2595 16.7439 23.77 16.7439C25.2805 16.7439 26.7339 17.3214 27.8326 18.358C28.9314 19.3946 29.5922 20.812 29.68 22.32C30.3426 22.5975 30.9085 23.0643 31.307 23.662C31.7054 24.2597 31.9187 24.9617 31.92 25.68L31.88 31.27Z" fill="black"/>
</svg>
