<svg width="48" height="48" viewBox="0 0 48 48" fill="none" xmlns="http://www.w3.org/2000/svg">
<path d="M18.67 41.69C16.9832 41.69 15.3655 41.0199 14.1728 39.8272C12.9801 38.6345 12.31 37.0168 12.31 35.33V8.74C11.612 9.13243 11.0304 9.70289 10.6246 10.3933C10.2188 11.0836 10.0033 11.8692 10 12.67V39.45C10 40.6567 10.4794 41.814 11.3327 42.6673C12.186 43.5206 13.3433 44 14.55 44H28.43C29.2308 43.9967 30.0164 43.7812 30.7067 43.3754C31.3971 42.9696 31.9676 42.388 32.36 41.69H18.67Z" fill="black"/>
<path d="M31.46 5.06V9.64H36.04L31.46 5.06Z" fill="black"/>
<path d="M27.82 13.28V4H18.67C17.4633 4 16.306 4.47937 15.4527 5.33266C14.5994 6.18595 14.12 7.34327 14.12 8.55V35.33C14.12 36.5367 14.5994 37.694 15.4527 38.5473C16.306 39.4006 17.4633 39.88 18.67 39.88H32.56C33.765 39.8774 34.9197 39.3968 35.7709 38.5438C36.622 37.6908 37.1 36.535 37.1 35.33V13.33L27.82 13.28ZM31.93 32.28H19.3C18.8173 32.28 18.3544 32.0883 18.0131 31.7469C17.6717 31.4056 17.48 30.9427 17.48 30.46C17.48 29.9773 17.6717 29.5144 18.0131 29.1731C18.3544 28.8317 18.8173 28.64 19.3 28.64H31.93C32.4127 28.64 32.8756 28.8317 33.2169 29.1731C33.5583 29.5144 33.75 29.9773 33.75 30.46C33.75 30.9427 33.5583 31.4056 33.2169 31.7469C32.8756 32.0883 32.4127 32.28 31.93 32.28ZM31.93 27.5H19.3C18.8173 27.5 18.3544 27.3083 18.0131 26.9669C17.6717 26.6256 17.48 26.1627 17.48 25.68C17.48 25.1973 17.6717 24.7344 18.0131 24.3931C18.3544 24.0518 18.8173 23.86 19.3 23.86H31.93C32.4127 23.86 32.8756 24.0518 33.2169 24.3931C33.5583 24.7344 33.75 25.1973 33.75 25.68C33.75 26.1627 33.5583 26.6256 33.2169 26.9669C32.8756 27.3083 32.4127 27.5 31.93 27.5ZM31.93 22.72H19.3C18.8173 22.72 18.3544 22.5282 18.0131 22.1869C17.6717 21.8456 17.48 21.3827 17.48 20.9C17.48 20.4173 17.6717 19.9544 18.0131 19.6131C18.3544 19.2717 18.8173 19.08 19.3 19.08H31.93C32.4127 19.08 32.8756 19.2717 33.2169 19.6131C33.5583 19.9544 33.75 20.4173 33.75 20.9C33.75 21.3827 33.5583 21.8456 33.2169 22.1869C32.8756 22.5282 32.4127 22.72 31.93 22.72ZM31.93 17.94H19.3C19.0503 17.9585 18.7995 17.9254 18.5632 17.8426C18.327 17.7598 18.1103 17.6291 17.9268 17.4587C17.7434 17.2884 17.597 17.082 17.4969 16.8525C17.3968 16.623 17.3452 16.3754 17.3452 16.125C17.3452 15.8746 17.3968 15.627 17.4969 15.3975C17.597 15.168 17.7434 14.9616 17.9268 14.7913C18.1103 14.6209 18.327 14.4902 18.5632 14.4074C18.7995 14.3246 19.0503 14.2915 19.3 14.31H31.93C32.3881 14.344 32.8164 14.55 33.1289 14.8866C33.4415 15.2233 33.6152 15.6656 33.6152 16.125C33.6152 16.5844 33.4415 17.0267 33.1289 17.3634C32.8164 17.7 32.3881 17.906 31.93 17.94Z" fill="black"/>
</svg>
