<svg width="48" height="48" viewBox="0 0 48 48" fill="none" xmlns="http://www.w3.org/2000/svg">
<path d="M36.4431 11.3919C36.3743 11.2179 36.2685 11.0609 36.133 10.9318L29.6414 4.40021C29.5092 4.27099 29.3528 4.16903 29.1813 4.10013C29.0186 4.03634 28.8458 4.00245 28.6712 4.00011H15.6679C15.1154 3.99615 14.5675 4.10124 14.0557 4.30934C13.5438 4.51744 13.078 4.82447 12.685 5.21285C12.292 5.60122 11.9794 6.06332 11.7653 6.57266C11.5511 7.08201 11.4395 7.6286 11.4369 8.18114V39.809C11.4395 40.9197 11.8819 41.9842 12.6673 42.7696C13.4527 43.555 14.5172 43.9974 15.6279 44H32.3721C33.4828 43.9974 34.5473 43.555 35.3327 42.7696C36.1181 41.9842 36.5605 40.9197 36.5631 39.809V11.9021C36.5544 11.7261 36.5137 11.5533 36.4431 11.3919ZM30.0415 8.75128L31.7919 10.5017H30.0415V8.75128ZM33.7724 39.809C33.7724 40.1804 33.6249 40.5365 33.3623 40.7992C33.0996 41.0618 32.7435 41.2093 32.3721 41.2093H15.6279C15.2565 41.2093 14.9003 41.0618 14.6377 40.7992C14.3751 40.5365 14.2276 40.1804 14.2276 39.809V8.18114C14.2276 7.80975 14.3751 7.45356 14.6377 7.19095C14.9003 6.92833 15.2565 6.7808 15.6279 6.7808H27.2508V13.2924H33.7724V39.809Z" fill="black"/>
<path d="M21.1793 32.077C20.9937 32.0784 20.8097 32.0428 20.638 31.9724C20.4663 31.902 20.3103 31.7982 20.1791 31.6669L15.6879 27.1658C15.5143 26.9946 15.3765 26.7906 15.2824 26.5657C15.1883 26.3407 15.1399 26.0993 15.1399 25.8555C15.1399 25.6117 15.1883 25.3703 15.2824 25.1454C15.3765 24.9204 15.5143 24.7164 15.6879 24.5452L20.1791 20.0441C20.3104 19.9127 20.4663 19.8085 20.638 19.7374C20.8096 19.6663 20.9935 19.6298 21.1793 19.6298C21.3651 19.6298 21.549 19.6663 21.7206 19.7374C21.8923 19.8085 22.0482 19.9127 22.1795 20.0441C22.3109 20.1754 22.4151 20.3314 22.4862 20.503C22.5573 20.6746 22.5939 20.8586 22.5939 21.0443C22.5939 21.2301 22.5573 21.414 22.4862 21.5857C22.4151 21.7573 22.3109 21.9132 22.1795 22.0446L18.3386 25.8555L22.1695 29.6865C22.366 29.8829 22.4996 30.1334 22.5534 30.4059C22.6071 30.6785 22.5785 30.9609 22.4713 31.2173C22.364 31.4736 22.183 31.6922 21.9511 31.8453C21.7193 31.9984 21.4471 32.0791 21.1693 32.077H21.1793Z" fill="black"/>
<path d="M26.8107 32.077C26.5329 32.0791 26.2607 31.9984 26.0289 31.8453C25.797 31.6922 25.616 31.4736 25.5087 31.2173C25.4015 30.9609 25.3729 30.6785 25.4266 30.4059C25.4804 30.1334 25.614 29.8829 25.8104 29.6865L29.6414 25.8555L25.8304 21.9946C25.5652 21.7293 25.4161 21.3695 25.4161 20.9943C25.4161 20.6191 25.5652 20.2593 25.8304 19.9941C26.0957 19.7288 26.4555 19.5797 26.8307 19.5797C27.2059 19.5797 27.5657 19.7288 27.8309 19.9941L32.3221 24.4952C32.4944 24.6671 32.6312 24.8713 32.7245 25.0961C32.8179 25.321 32.8659 25.5621 32.8659 25.8055C32.8659 26.0489 32.8179 26.29 32.7245 26.5148C32.6312 26.7397 32.4944 26.9439 32.3221 27.1158L27.8309 31.6169C27.7017 31.7597 27.5443 31.8742 27.3688 31.9534C27.1932 32.0325 27.0032 32.0746 26.8107 32.077Z" fill="black"/>
</svg>
