<svg width="48" height="48" viewBox="0 0 48 48" fill="none" xmlns="http://www.w3.org/2000/svg">
<path d="M30.09 5.06V10.37H35.39L30.09 5.06Z" fill="black"/>
<path d="M26.45 14V4H15.55C14.3433 4 13.186 4.47937 12.3327 5.33266C11.4794 6.18595 11 7.34327 11 8.55V39.45C11 40.0475 11.1177 40.6392 11.3463 41.1912C11.575 41.7432 11.9102 42.2448 12.3327 42.6673C12.7552 43.0898 13.2568 43.425 13.8088 43.6537C14.3608 43.8823 14.9525 44 15.55 44H31.91C33.115 43.9974 34.2697 43.5168 35.1209 42.6638C35.972 41.8108 36.45 40.655 36.45 39.45V14H26.45ZM27.8 34.37C26.4805 34.7481 25.1125 34.93 23.74 34.91H23.66C17.84 34.91 17 32.69 17 31.36C16.9893 29.5113 17.6748 27.7264 18.92 26.36C19.1943 26.0634 19.492 25.7892 19.81 25.54C19.1344 24.7772 18.6934 23.8355 18.5402 22.828C18.3869 21.8206 18.5279 20.7904 18.9462 19.8612C19.3644 18.932 20.0422 18.1433 20.8979 17.5901C21.7537 17.0368 22.751 16.7425 23.77 16.7425C24.789 16.7425 25.7863 17.0368 26.6421 17.5901C27.4978 18.1433 28.1756 18.932 28.5938 19.8612C29.0121 20.7904 29.1531 21.8206 28.9998 22.828C28.8466 23.8355 28.4056 24.7772 27.73 25.54C28.6123 26.2267 29.3253 27.1067 29.8142 28.1122C30.3031 29.1177 30.5548 30.222 30.55 31.34C30.51 32.12 30.16 33.6 27.8 34.37Z" fill="black"/>
</svg>
