<svg width="48" height="48" viewBox="0 0 48 48" fill="none" xmlns="http://www.w3.org/2000/svg">
<path d="M29.3013 41.1793C29.2015 41.1891 29.101 41.1891 29.0012 41.1793H14.7877C14.4163 41.1793 14.0601 41.0318 13.7975 40.7691C13.5349 40.5065 13.3873 40.1503 13.3873 39.7789V12.4021C13.3722 12.3026 13.3722 12.2015 13.3873 12.102V8.46111C12.5709 8.74744 11.8637 9.28058 11.3636 9.98668C10.8636 10.6928 10.5956 11.5369 10.5966 12.4021V39.809C10.5993 40.9197 11.0417 41.9841 11.8271 42.7696C12.6125 43.555 13.6769 43.9974 14.7877 44H29.0012C29.8694 43.9959 30.7148 43.7223 31.4208 43.2171C32.1267 42.7118 32.6584 41.9997 32.9422 41.1793H29.3013Z" fill="black"/>
<path d="M37.3133 10.6517C37.2407 10.4796 37.1354 10.3234 37.0032 10.1915L31.2218 4.4001C31.0913 4.26869 30.9345 4.16642 30.7617 4.10003C30.5994 4.03514 30.4263 4.00121 30.2515 4H19.0087C17.8997 4.00263 16.8368 4.44366 16.0516 5.2269C15.2665 6.01014 14.823 7.07206 14.8177 8.18105V35.5879C14.8203 36.6986 15.2627 37.7631 16.0481 38.5485C16.8335 39.3339 17.898 39.7763 19.0087 39.7789H33.2223C34.3321 39.7763 35.3955 39.3336 36.1793 38.5479C36.9631 37.7622 37.4033 36.6977 37.4033 35.5879V11.1618C37.4044 10.9877 37.3739 10.8149 37.3133 10.6517ZM31.6019 8.75119L32.6021 9.75144H31.6019V8.75119ZM33.2223 36.9983H19.0087C18.8231 36.9996 18.6391 36.964 18.4674 36.8936C18.2957 36.8232 18.1397 36.7194 18.0085 36.5881C17.8773 36.4569 17.7734 36.3009 17.703 36.1292C17.6326 35.9575 17.597 35.7735 17.5984 35.5879V8.18105C17.5984 7.80965 17.7459 7.45346 18.0085 7.19085C18.2711 6.92823 18.6273 6.7807 18.9987 6.7807H28.8312V12.5621H34.6026V35.5679C34.6066 35.7526 34.574 35.9363 34.5066 36.1084C34.4393 36.2805 34.3386 36.4375 34.2103 36.5705C34.0819 36.7034 33.9286 36.8097 33.759 36.8831C33.5895 36.9565 33.407 36.9957 33.2223 36.9983Z" fill="black"/>
<path d="M32.6021 18.5136H19.6489C19.2992 18.5433 18.9734 18.7031 18.736 18.9615C18.4985 19.2199 18.3668 19.5581 18.3668 19.909C18.3668 20.2599 18.4985 20.598 18.736 20.8564C18.9734 21.1149 19.2992 21.2747 19.6489 21.3043H32.6021C32.7953 21.3207 32.9898 21.2968 33.1732 21.2341C33.3567 21.1714 33.5251 21.0713 33.6678 20.9401C33.8106 20.809 33.9246 20.6496 34.0025 20.4721C34.0805 20.2946 34.1207 20.1028 34.1207 19.909C34.1207 19.7151 34.0805 19.5234 34.0025 19.3459C33.9246 19.1684 33.8106 19.009 33.6678 18.8778C33.5251 18.7467 33.3567 18.6466 33.1732 18.5839C32.9898 18.5212 32.7953 18.4973 32.6021 18.5136Z" fill="black"/>
<path d="M32.6021 14.5526H19.6489C19.2992 14.5823 18.9734 14.7421 18.736 15.0005C18.4985 15.2589 18.3668 15.5971 18.3668 15.948C18.3668 16.2989 18.4985 16.637 18.736 16.8955C18.9734 17.1539 19.2992 17.3137 19.6489 17.3433H32.6021C32.7953 17.3597 32.9898 17.3358 33.1732 17.2731C33.3567 17.2104 33.5251 17.1103 33.6678 16.9791C33.8106 16.848 33.9246 16.6886 34.0025 16.5111C34.0805 16.3336 34.1207 16.1419 34.1207 15.948C34.1207 15.7541 34.0805 15.5624 34.0025 15.3849C33.9246 15.2074 33.8106 15.048 33.6678 14.9168C33.5251 14.7857 33.3567 14.6856 33.1732 14.6229C32.9898 14.5602 32.7953 14.5363 32.6021 14.5526Z" fill="black"/>
<path d="M32.6021 22.4646H19.6489C19.2992 22.4942 18.9734 22.6541 18.736 22.9125C18.4985 23.1709 18.3668 23.509 18.3668 23.86C18.3668 24.2109 18.4985 24.549 18.736 24.8074C18.9734 25.0658 19.2992 25.2257 19.6489 25.2553H32.6021C32.7953 25.2717 32.9898 25.2478 33.1732 25.1851C33.3567 25.1224 33.5251 25.0223 33.6678 24.8911C33.8106 24.76 33.9246 24.6006 34.0025 24.4231C34.0805 24.2456 34.1207 24.0538 34.1207 23.86C34.1207 23.6661 34.0805 23.4744 34.0025 23.2969C33.9246 23.1194 33.8106 22.96 33.6678 22.8288C33.5251 22.6976 33.3567 22.5975 33.1732 22.5349C32.9898 22.4722 32.7953 22.4482 32.6021 22.4646Z" fill="black"/>
<path d="M32.6021 26.4256H19.6489C19.2992 26.4552 18.9734 26.6151 18.736 26.8735C18.4985 27.1319 18.3668 27.47 18.3668 27.821C18.3668 28.1719 18.4985 28.51 18.736 28.7684C18.9734 29.0268 19.2992 29.1867 19.6489 29.2163H32.6021C32.7953 29.2327 32.9898 29.2088 33.1732 29.1461C33.3567 29.0834 33.5251 28.9833 33.6678 28.8521C33.8106 28.7209 33.9246 28.5616 34.0025 28.3841C34.0805 28.2066 34.1207 28.0148 34.1207 27.821C34.1207 27.6271 34.0805 27.4353 34.0025 27.2578C33.9246 27.0803 33.8106 26.921 33.6678 26.7898C33.5251 26.6586 33.3567 26.5585 33.1732 26.4958C32.9898 26.4332 32.7953 26.4092 32.6021 26.4256Z" fill="black"/>
</svg>
