<svg width="48" height="48" viewBox="0 0 48 48" fill="none" xmlns="http://www.w3.org/2000/svg">
<path d="M36.4431 11.3919C36.3743 11.2179 36.2685 11.0609 36.133 10.9318L29.6414 4.40021C29.5092 4.27099 29.3528 4.16903 29.1813 4.10013C29.0186 4.03634 28.8458 4.00245 28.6712 4.00011H15.6679C15.1154 3.99615 14.5675 4.10124 14.0557 4.30934C13.5438 4.51744 13.078 4.82447 12.685 5.21285C12.292 5.60122 11.9794 6.06332 11.7653 6.57266C11.5511 7.08201 11.4395 7.6286 11.4369 8.18114V39.809C11.4395 40.9197 11.8819 41.9842 12.6673 42.7696C13.4527 43.555 14.5172 43.9974 15.6279 44H32.3721C33.4828 43.9974 34.5473 43.555 35.3327 42.7696C36.1181 41.9842 36.5605 40.9197 36.5631 39.809V11.9021C36.5544 11.7261 36.5137 11.5533 36.4431 11.3919ZM30.0415 8.75128L31.7919 10.5017H30.0415V8.75128ZM32.3721 41.2093H15.6279C15.2565 41.2093 14.9003 41.0618 14.6377 40.7992C14.3751 40.5365 14.2276 40.1804 14.2276 39.809V8.18114C14.2276 7.80975 14.3751 7.45356 14.6377 7.19095C14.9003 6.92833 15.2565 6.7808 15.6279 6.7808H27.2508V13.2924H33.7724V39.809C33.7724 40.1804 33.6249 40.5365 33.3623 40.7992C33.0996 41.0618 32.7435 41.2093 32.3721 41.2093Z" fill="black"/>
<path d="M29.6014 22.6247C29.6014 21.8891 29.4565 21.1607 29.175 20.4812C28.8935 19.8016 28.4809 19.1841 27.9608 18.6639C27.4406 18.1438 26.8231 17.7312 26.1436 17.4497C25.464 17.1682 24.7356 17.0233 24 17.0233C23.2644 17.0233 22.536 17.1682 21.8564 17.4497C21.1768 17.7312 20.5594 18.1438 20.0392 18.6639C19.5191 19.1841 19.1065 19.8016 18.825 20.4812C18.5435 21.1607 18.3986 21.8891 18.3986 22.6247H18.4386C17.7795 22.8308 17.2031 23.2415 16.793 23.7973C16.383 24.353 16.1606 25.0249 16.1581 25.7155V31.4369C16.158 32.2931 16.4946 33.115 17.0954 33.7251C17.6961 34.3352 18.5127 34.6846 19.3689 34.6977H28.6211C29.486 34.6977 30.3154 34.3541 30.9269 33.7426C31.5384 33.1311 31.8819 32.3017 31.8819 31.4369V25.7155C31.8794 25.0249 31.657 24.353 31.247 23.7973C30.8369 23.2415 30.2605 22.8308 29.6014 22.6247ZM24 19.804C24.7158 19.8055 25.4038 20.0811 25.9228 20.574C26.4418 21.067 26.7523 21.7399 26.7907 22.4547H21.2093C21.2477 21.7399 21.5582 21.067 22.0772 20.574C22.5962 20.0811 23.2842 19.8055 24 19.804ZM29.0913 31.4369C29.0913 31.5616 29.0417 31.6812 28.9536 31.7693C28.8654 31.8575 28.7458 31.907 28.6211 31.907H19.3689C19.2459 31.9044 19.1289 31.8537 19.0429 31.7658C18.9569 31.6779 18.9087 31.5599 18.9087 31.4369V25.7155C18.9087 25.5934 18.9572 25.4764 19.0435 25.3901C19.1298 25.3038 19.2468 25.2554 19.3689 25.2554H28.6211C28.6824 25.254 28.7433 25.2649 28.8003 25.2875C28.8573 25.31 28.9092 25.3437 28.953 25.3865C28.9968 25.4294 29.0316 25.4806 29.0553 25.5371C29.079 25.5935 29.0913 25.6542 29.0913 25.7155V31.4369Z" fill="black"/>
</svg>
