<svg width="48" height="48" viewBox="0 0 48 48" fill="none" xmlns="http://www.w3.org/2000/svg">
<path d="M36.4431 11.3919C36.3743 11.2179 36.2685 11.0609 36.133 10.9318L29.6414 4.40021C29.5092 4.27099 29.3528 4.16903 29.1813 4.10013C29.0186 4.03634 28.8458 4.00245 28.6712 4.00011H15.6679C15.1154 3.99615 14.5675 4.10124 14.0557 4.30934C13.5438 4.51744 13.078 4.82447 12.685 5.21285C12.292 5.60122 11.9794 6.06332 11.7653 6.57266C11.5511 7.08201 11.4395 7.6286 11.4369 8.18114V39.809C11.4395 40.9197 11.8819 41.9842 12.6673 42.7696C13.4527 43.555 14.5172 43.9974 15.6279 44H32.3721C33.4828 43.9974 34.5473 43.555 35.3327 42.7696C36.1181 41.9842 36.5605 40.9197 36.5631 39.809V11.9021C36.5544 11.7261 36.5137 11.5533 36.4431 11.3919ZM30.0415 8.75128L31.7919 10.5017H30.0415V8.75128ZM32.3721 41.2093H15.6279C15.2565 41.2093 14.9003 41.0618 14.6377 40.7992C14.3751 40.5365 14.2276 40.1804 14.2276 39.809V8.18114C14.2276 7.80975 14.3751 7.45356 14.6377 7.19095C14.9003 6.92833 15.2565 6.7808 15.6279 6.7808H27.2508V13.2924H33.7724V39.809C33.7724 40.1804 33.6249 40.5365 33.3623 40.7992C33.0996 41.0618 32.7435 41.2093 32.3721 41.2093Z" fill="black"/>
<path d="M28.221 28.1061C29.0184 26.9248 29.4403 25.5302 29.4313 24.1051C29.4313 22.6926 29.0125 21.3118 28.2277 20.1373C27.443 18.9629 26.3276 18.0475 25.0226 17.5069C23.7176 16.9664 22.2817 16.825 20.8963 17.1005C19.5109 17.3761 18.2384 18.0563 17.2396 19.0551C16.2408 20.0539 15.5606 21.3264 15.285 22.7118C15.0095 24.0972 15.1509 25.5331 15.6914 26.8381C16.232 28.1431 17.1474 29.2585 18.3218 30.0432C19.4963 30.828 20.8771 31.2468 22.2896 31.2468C23.7147 31.2558 25.1093 30.8339 26.2906 30.0365L30.4416 34.2876C30.572 34.4207 30.7276 34.5264 30.8994 34.5986C31.0711 34.6707 31.2555 34.7079 31.4418 34.7079C31.6281 34.7079 31.8126 34.6707 31.9843 34.5986C32.1561 34.5264 32.3117 34.4207 32.4421 34.2876C32.5752 34.1572 32.6809 34.0016 32.753 33.8298C32.8252 33.6581 32.8624 33.4737 32.8624 33.2873C32.8624 33.101 32.8252 32.9166 32.753 32.7449C32.6809 32.5731 32.5752 32.4175 32.4421 32.2871L28.221 28.1061ZM17.9485 24.1051C17.9505 23.2469 18.2068 22.4086 18.685 21.696C19.1632 20.9835 19.8418 20.4286 20.6352 20.1016C21.4286 19.7746 22.3012 19.69 23.1426 19.8586C23.984 20.0273 24.7566 20.4415 25.3627 21.049C25.9688 21.6565 26.3813 22.43 26.548 23.2719C26.7146 24.1137 26.6281 24.986 26.2992 25.7786C25.9704 26.5713 25.414 27.2487 24.7003 27.7252C23.9866 28.2018 23.1477 28.4562 22.2896 28.4562C21.1442 28.4536 20.0461 27.9995 19.2334 27.1924C18.4207 26.3853 17.959 25.2904 17.9485 24.1451V24.1051Z" fill="black"/>
</svg>
