<svg width="48" height="48" viewBox="0 0 48 48" fill="none" xmlns="http://www.w3.org/2000/svg">
<path d="M26.45 14V4H15.55C14.3433 4 13.186 4.47937 12.3327 5.33266C11.4794 6.18595 11 7.34327 11 8.55V39.45C11 40.0475 11.1177 40.6392 11.3463 41.1912C11.575 41.7432 11.9102 42.2448 12.3327 42.6673C12.7552 43.0898 13.2568 43.425 13.8088 43.6537C14.3608 43.8823 14.9525 44 15.55 44H31.91C33.115 43.9974 34.2697 43.5168 35.1209 42.6638C35.972 41.8108 36.45 40.655 36.45 39.45V14H26.45ZM18.06 22.79C18.4029 22.4493 18.8666 22.258 19.35 22.258C19.8334 22.258 20.2971 22.4493 20.64 22.79L21.91 24.06V16.73C21.91 16.2473 22.1017 15.7844 22.4431 15.4431C22.7844 15.1017 23.2473 14.91 23.73 14.91C24.2127 14.91 24.6756 15.1017 25.0169 15.4431C25.3583 15.7844 25.55 16.2473 25.55 16.73V24.06L26.82 22.79C27.1666 22.4794 27.6191 22.3135 28.0844 22.3262C28.5496 22.339 28.9923 22.5295 29.3214 22.8586C29.6505 23.1877 29.841 23.6304 29.8538 24.0956C29.8665 24.5609 29.7006 25.0134 29.39 25.36L25.31 29.44C24.931 29.8142 24.4311 30.0411 23.9 30.08H23.56C23.0258 30.0417 22.5225 29.8149 22.14 29.44L18.06 25.36C17.7199 25.0188 17.5289 24.5567 17.5289 24.075C17.5289 23.5933 17.7199 23.1312 18.06 22.79ZM31 34.91H16.45C15.9673 34.91 15.5044 34.7183 15.1631 34.3769C14.8217 34.0356 14.63 33.5727 14.63 33.09C14.63 32.6073 14.8217 32.1444 15.1631 31.8031C15.5044 31.4618 15.9673 31.27 16.45 31.27H31C31.4827 31.27 31.9456 31.4618 32.2869 31.8031C32.6283 32.1444 32.82 32.6073 32.82 33.09C32.82 33.5727 32.6283 34.0356 32.2869 34.3769C31.9456 34.7183 31.4827 34.91 31 34.91Z" fill="black"/>
<path d="M30.09 5.06V10.37H35.39L30.09 5.06Z" fill="black"/>
</svg>
