<svg width="48" height="48" viewBox="0 0 48 48" fill="none" xmlns="http://www.w3.org/2000/svg">
<path d="M36.4431 11.3919C36.3743 11.2179 36.2685 11.0609 36.133 10.9318L29.6414 4.40021C29.5092 4.27099 29.3528 4.16903 29.1813 4.10013C29.0186 4.03634 28.8458 4.00245 28.6712 4.00011H15.6679C15.1154 3.99615 14.5675 4.10124 14.0557 4.30934C13.5438 4.51744 13.078 4.82447 12.685 5.21285C12.292 5.60122 11.9794 6.06332 11.7653 6.57266C11.5511 7.08201 11.4395 7.6286 11.4369 8.18114V39.809C11.4395 40.9197 11.8819 41.9842 12.6673 42.7696C13.4527 43.555 14.5172 43.9974 15.6279 44H32.3721C33.4828 43.9974 34.5473 43.555 35.3327 42.7696C36.1181 41.9842 36.5605 40.9197 36.5631 39.809V11.9021C36.5544 11.7261 36.5137 11.5533 36.4431 11.3919ZM30.0415 8.75128L31.7919 10.5017H30.0415V8.75128ZM32.3721 41.2093H15.6279C15.2565 41.2093 14.9003 41.0618 14.6377 40.7992C14.3751 40.5365 14.2276 40.1804 14.2276 39.809V8.18114C14.2276 7.80975 14.3751 7.45356 14.6377 7.19095C14.9003 6.92833 15.2565 6.7808 15.6279 6.7808H27.2508V13.2924H33.7724V39.809C33.7724 40.1804 33.6249 40.5365 33.3623 40.7992C33.0996 41.0618 32.7435 41.2093 32.3721 41.2093Z" fill="black"/>
<path d="M31.4418 16.9933H16.5582C16.365 16.9769 16.1705 17.0009 15.9871 17.0636C15.8036 17.1262 15.6352 17.2263 15.4924 17.3575C15.3497 17.4887 15.2357 17.6481 15.1578 17.8256C15.0798 18.0031 15.0396 18.1948 15.0396 18.3887C15.0396 18.5825 15.0798 18.7743 15.1578 18.9518C15.2357 19.1293 15.3497 19.2887 15.4924 19.4198C15.6352 19.551 15.8036 19.6511 15.9871 19.7138C16.1705 19.7765 16.365 19.8004 16.5582 19.784H31.4418C31.635 19.8004 31.8295 19.7765 32.0129 19.7138C32.1964 19.6511 32.3648 19.551 32.5075 19.4198C32.6503 19.2887 32.7643 19.1293 32.8422 18.9518C32.9202 18.7743 32.9604 18.5825 32.9604 18.3887C32.9604 18.1948 32.9202 18.0031 32.8422 17.8256C32.7643 17.6481 32.6503 17.4887 32.5075 17.3575C32.3648 17.2263 32.1964 17.1262 32.0129 17.0636C31.8295 17.0009 31.635 16.9769 31.4418 16.9933Z" fill="black"/>
<path d="M25.2903 20.6142C24.9685 20.2981 24.5407 20.1128 24.09 20.0941H23.91C23.4588 20.1108 23.0304 20.2965 22.7097 20.6142L18.5286 24.7952C18.3973 24.9266 18.2931 25.0825 18.222 25.2542C18.1509 25.4258 18.1143 25.6097 18.1143 25.7955C18.1143 26.1707 18.2634 26.5305 18.5286 26.7957C18.7939 27.061 19.1537 27.2101 19.5289 27.2101C19.9041 27.2101 20.2639 27.061 20.5291 26.7957L22.6197 24.6952V33.2973C22.6033 33.4905 22.6272 33.685 22.6899 33.8684C22.7526 34.0519 22.8527 34.2203 22.9838 34.3631C23.115 34.5058 23.2744 34.6198 23.4519 34.6977C23.6294 34.7757 23.8211 34.8159 24.015 34.8159C24.2089 34.8159 24.4006 34.7757 24.5781 34.6977C24.7556 34.6198 24.915 34.5058 25.0462 34.3631C25.1773 34.2203 25.2774 34.0519 25.3401 33.8684C25.4028 33.685 25.4267 33.4905 25.4103 33.2973V24.6652L27.5109 26.7657C27.6405 26.9 27.7959 27.0069 27.9678 27.0798C28.1396 27.1528 28.3244 27.1904 28.5111 27.1904C28.6978 27.1904 28.8826 27.1528 29.0544 27.0798C29.2263 27.0069 29.3817 26.9 29.5114 26.7657C29.6469 26.6368 29.7549 26.4816 29.8287 26.3097C29.9024 26.1377 29.9405 25.9526 29.9405 25.7655C29.9405 25.5784 29.9024 25.3932 29.8287 25.2213C29.7549 25.0493 29.6469 24.8942 29.5114 24.7652L25.2903 20.6142Z" fill="black"/>
</svg>
