<svg width="48" height="48" viewBox="0 0 48 48" fill="none" xmlns="http://www.w3.org/2000/svg">
<path d="M36.4431 11.3919C36.3743 11.2179 36.2685 11.0609 36.133 10.9318L29.6414 4.40021C29.5092 4.27099 29.3528 4.16903 29.1813 4.10013C29.0186 4.03634 28.8458 4.00245 28.6712 4.00011H15.6679C15.1154 3.99615 14.5675 4.10124 14.0557 4.30934C13.5438 4.51744 13.078 4.82447 12.685 5.21285C12.292 5.60122 11.9794 6.06332 11.7653 6.57266C11.5511 7.08201 11.4395 7.6286 11.4369 8.18114V39.809C11.4395 40.9197 11.8819 41.9842 12.6673 42.7696C13.4527 43.555 14.5172 43.9974 15.6279 44H32.3721C33.4828 43.9974 34.5473 43.555 35.3327 42.7696C36.1181 41.9842 36.5605 40.9197 36.5631 39.809V11.9021C36.5544 11.7261 36.5137 11.5533 36.4431 11.3919ZM30.0415 8.75128L31.7919 10.5017H30.0415V8.75128ZM32.3721 41.2093H15.6279C15.2565 41.2093 14.9003 41.0618 14.6377 40.7992C14.3751 40.5365 14.2276 40.1804 14.2276 39.809V8.18114C14.2276 7.80975 14.3751 7.45356 14.6377 7.19095C14.9003 6.92833 15.2565 6.7808 15.6279 6.7808H27.2508V13.2924H33.7724V39.809C33.7724 40.1804 33.6249 40.5365 33.3623 40.7992C33.0996 41.0618 32.7435 41.2093 32.3721 41.2093Z" fill="black"/>
<path d="M31.4418 24.9953H16.5582C16.1868 24.9953 15.8306 24.8478 15.568 24.5851C15.3053 24.3225 15.1578 23.9663 15.1578 23.595C15.1578 23.2236 15.3053 22.8674 15.568 22.6048C15.8306 22.3421 16.1868 22.1946 16.5582 22.1946H31.4418C31.8132 22.1946 32.1694 22.3421 32.432 22.6048C32.6946 22.8674 32.8422 23.2236 32.8422 23.595C32.8422 23.9663 32.6946 24.3225 32.432 24.5851C32.1694 24.8478 31.8132 24.9953 31.4418 24.9953Z" fill="black"/>
<path d="M31.4418 20.4042H16.5582C16.365 20.4205 16.1705 20.3966 15.9871 20.3339C15.8036 20.2712 15.6352 20.1711 15.4924 20.04C15.3497 19.9088 15.2357 19.7494 15.1578 19.5719C15.0798 19.3944 15.0396 19.2027 15.0396 19.0088C15.0396 18.815 15.0798 18.6232 15.1578 18.4457C15.2357 18.2682 15.3497 18.1088 15.4924 17.9777C15.6352 17.8465 15.8036 17.7464 15.9871 17.6837C16.1705 17.621 16.365 17.5971 16.5582 17.6135H31.4418C31.635 17.5971 31.8295 17.621 32.0129 17.6837C32.1964 17.7464 32.3648 17.8465 32.5075 17.9777C32.6503 18.1088 32.7643 18.2682 32.8422 18.4457C32.9202 18.6232 32.9604 18.815 32.9604 19.0088C32.9604 19.2027 32.9202 19.3944 32.8422 19.5719C32.7643 19.7494 32.6503 19.9088 32.5075 20.04C32.3648 20.1711 32.1964 20.2712 32.0129 20.3339C31.8295 20.3966 31.635 20.4205 31.4418 20.4042Z" fill="black"/>
<path d="M31.4418 29.5364H16.5582C16.365 29.5528 16.1705 29.5289 15.9871 29.4662C15.8036 29.4035 15.6352 29.3034 15.4924 29.1722C15.3497 29.0411 15.2357 28.8817 15.1578 28.7042C15.0798 28.5267 15.0396 28.3349 15.0396 28.1411C15.0396 27.9472 15.0798 27.7555 15.1578 27.578C15.2357 27.4005 15.3497 27.2411 15.4924 27.1099C15.6352 26.9788 15.8036 26.8787 15.9871 26.816C16.1705 26.7533 16.365 26.7294 16.5582 26.7457H31.4418C31.635 26.7294 31.8295 26.7533 32.0129 26.816C32.1964 26.8787 32.3648 26.9788 32.5075 27.1099C32.6503 27.2411 32.7643 27.4005 32.8422 27.578C32.9202 27.7555 32.9604 27.9472 32.9604 28.1411C32.9604 28.3349 32.9202 28.5267 32.8422 28.7042C32.7643 28.8817 32.6503 29.0411 32.5075 29.1722C32.3648 29.3034 32.1964 29.4035 32.0129 29.4662C31.8295 29.5289 31.635 29.5528 31.4418 29.5364Z" fill="black"/>
<path d="M31.4418 34.0976H16.5582C16.365 34.1139 16.1705 34.09 15.9871 34.0273C15.8036 33.9646 15.6352 33.8645 15.4924 33.7334C15.3497 33.6022 15.2357 33.4428 15.1578 33.2653C15.0798 33.0878 15.0396 32.8961 15.0396 32.7022C15.0396 32.5083 15.0798 32.3166 15.1578 32.1391C15.2357 31.9616 15.3497 31.8022 15.4924 31.6711C15.6352 31.5399 15.8036 31.4398 15.9871 31.3771C16.1705 31.3144 16.365 31.2905 16.5582 31.3069H31.4418C31.635 31.2905 31.8295 31.3144 32.0129 31.3771C32.1964 31.4398 32.3648 31.5399 32.5075 31.6711C32.6503 31.8022 32.7643 31.9616 32.8422 32.1391C32.9202 32.3166 32.9604 32.5083 32.9604 32.7022C32.9604 32.8961 32.9202 33.0878 32.8422 33.2653C32.7643 33.4428 32.6503 33.6022 32.5075 33.7334C32.3648 33.8645 32.1964 33.9646 32.0129 34.0273C31.8295 34.09 31.635 34.1139 31.4418 34.0976Z" fill="black"/>
</svg>
