<svg width="48" height="48" viewBox="0 0 48 48" fill="none" xmlns="http://www.w3.org/2000/svg">
<path d="M36.4431 11.3919C36.3743 11.2179 36.2685 11.0609 36.133 10.9318L29.6414 4.40021C29.5092 4.27099 29.3528 4.16903 29.1813 4.10013C29.0186 4.03634 28.8458 4.00245 28.6712 4.00011H15.6679C15.1154 3.99615 14.5675 4.10124 14.0557 4.30934C13.5438 4.51744 13.078 4.82447 12.685 5.21285C12.292 5.60122 11.9794 6.06332 11.7653 6.57266C11.5511 7.08201 11.4395 7.6286 11.4369 8.18114V39.809C11.4395 40.9197 11.8819 41.9842 12.6673 42.7696C13.4527 43.555 14.5172 43.9974 15.6279 44H32.3721C33.4828 43.9974 34.5473 43.555 35.3327 42.7696C36.1181 41.9842 36.5605 40.9197 36.5631 39.809V11.9021C36.5544 11.7261 36.5137 11.5533 36.4431 11.3919ZM30.0415 8.75128L31.7919 10.5017H30.0415V8.75128ZM32.3721 41.2093H15.6279C15.2565 41.2093 14.9003 41.0618 14.6377 40.7992C14.3751 40.5365 14.2276 40.1804 14.2276 39.809V8.18114C14.2276 7.80975 14.3751 7.45356 14.6377 7.19095C14.9003 6.92833 15.2565 6.7808 15.6279 6.7808H27.2508V13.2924H33.7724V39.809C33.7724 40.1804 33.6249 40.5365 33.3623 40.7992C33.0996 41.0618 32.7435 41.2093 32.3721 41.2093Z" fill="black"/>
<path d="M31.4418 31.907H16.5582C16.365 31.8906 16.1705 31.9146 15.9871 31.9772C15.8036 32.0399 15.6352 32.14 15.4924 32.2712C15.3497 32.4024 15.2357 32.5617 15.1578 32.7392C15.0798 32.9167 15.0396 33.1085 15.0396 33.3024C15.0396 33.4962 15.0798 33.688 15.1578 33.8655C15.2357 34.043 15.3497 34.2023 15.4924 34.3335C15.6352 34.4647 15.8036 34.5648 15.9871 34.6275C16.1705 34.6902 16.365 34.7141 16.5582 34.6977H31.4418C31.635 34.7141 31.8295 34.6902 32.0129 34.6275C32.1964 34.5648 32.3648 34.4647 32.5075 34.3335C32.6503 34.2023 32.7643 34.043 32.8422 33.8655C32.9202 33.688 32.9604 33.4962 32.9604 33.3024C32.9604 33.1085 32.9202 32.9167 32.8422 32.7392C32.7643 32.5617 32.6503 32.4024 32.5075 32.2712C32.3648 32.14 32.1964 32.0399 32.0129 31.9772C31.8295 31.9146 31.635 31.8906 31.4418 31.907Z" fill="black"/>
<path d="M22.7097 31.0968C23.0111 31.3954 23.4073 31.5794 23.83 31.6169H24.17C24.5927 31.5794 24.9889 31.3954 25.2903 31.0968L29.4413 26.9158C29.5769 26.7868 29.6849 26.6317 29.7586 26.4597C29.8324 26.2878 29.8704 26.1026 29.8704 25.9155C29.8704 25.7284 29.8324 25.5433 29.7586 25.3713C29.6849 25.1994 29.5769 25.0442 29.4413 24.9153C29.311 24.7822 29.1553 24.6765 28.9836 24.6043C28.8118 24.5321 28.6274 24.495 28.4411 24.495C28.2548 24.495 28.0704 24.5321 27.8986 24.6043C27.7269 24.6765 27.5712 24.7822 27.4408 24.9153L25.4404 27.0458V18.4137C25.4567 18.2205 25.4328 18.026 25.3701 17.8426C25.3074 17.6591 25.2073 17.4907 25.0762 17.348C24.945 17.2052 24.7856 17.0912 24.6081 17.0133C24.4306 16.9353 24.2389 16.8951 24.045 16.8951C23.8511 16.8951 23.6594 16.9353 23.4819 17.0133C23.3044 17.0912 23.145 17.2052 23.0139 17.348C22.8827 17.4907 22.7826 17.6591 22.7199 17.8426C22.6572 18.026 22.6333 18.2205 22.6497 18.4137V27.0458L20.5091 24.9953C20.2439 24.73 19.8841 24.581 19.5089 24.581C19.1337 24.581 18.7739 24.73 18.5086 24.9953C18.2434 25.2606 18.0943 25.6204 18.0943 25.9955C18.0943 26.1813 18.1309 26.3653 18.202 26.5369C18.2731 26.7085 18.3773 26.8644 18.5086 26.9958L22.7097 31.0968Z" fill="black"/>
</svg>
