<svg width="48" height="48" viewBox="0 0 48 48" fill="none" xmlns="http://www.w3.org/2000/svg">
<path d="M30.09 5.06V10.37H35.39L30.09 5.06Z" fill="black"/>
<path d="M26.45 14V4H15.55C14.3433 4 13.186 4.47937 12.3327 5.33266C11.4794 6.18595 11 7.34327 11 8.55V39.45C11 40.0475 11.1177 40.6392 11.3463 41.1912C11.575 41.7432 11.9102 42.2448 12.3327 42.6673C12.7552 43.0898 13.2568 43.425 13.8088 43.6537C14.3608 43.8823 14.9525 44 15.55 44H31.91C33.115 43.9974 34.2697 43.5168 35.1209 42.6638C35.972 41.8108 36.45 40.655 36.45 39.45V14H26.45ZM29.39 27C29.0488 27.3401 28.5867 27.5311 28.105 27.5311C27.6233 27.5311 27.1612 27.3401 26.82 27L25.55 25.73V33.06C25.55 33.5427 25.3583 34.0056 25.0169 34.3469C24.6756 34.6883 24.2127 34.88 23.73 34.88C23.2473 34.88 22.7844 34.6883 22.4431 34.3469C22.1017 34.0056 21.91 33.5427 21.91 33.06V25.76L20.64 27C20.2992 27.3421 19.8364 27.5349 19.3535 27.5358C18.8706 27.5367 18.4071 27.3458 18.065 27.005C17.7229 26.6642 17.5301 26.2014 17.5292 25.7185C17.5283 25.2356 17.7192 24.7721 18.06 24.43L22.14 20.35C22.5241 19.9715 23.0318 19.7443 23.57 19.71H23.91C24.4383 19.7487 24.9351 19.9758 25.31 20.35L29.39 24.43C29.7301 24.7712 29.9211 25.2333 29.9211 25.715C29.9211 26.1967 29.7301 26.6588 29.39 27ZM31 18.55H16.45C15.9673 18.55 15.5044 18.3583 15.1631 18.0169C14.8217 17.6756 14.63 17.2127 14.63 16.73C14.63 16.2473 14.8217 15.7844 15.1631 15.4431C15.5044 15.1017 15.9673 14.91 16.45 14.91H31C31.4827 14.91 31.9456 15.1017 32.2869 15.4431C32.6283 15.7844 32.82 16.2473 32.82 16.73C32.82 17.2127 32.6283 17.6756 32.2869 18.0169C31.9456 18.3583 31.4827 18.55 31 18.55Z" fill="black"/>
</svg>
