<svg width="48" height="48" viewBox="0 0 48 48" fill="none" xmlns="http://www.w3.org/2000/svg">
<path d="M18.3917 31.6629C18.397 28.451 19.6752 25.3721 21.9464 23.101C24.2176 20.8298 27.2964 19.5515 30.5083 19.5462C30.9282 19.5462 31.3381 19.5462 31.748 19.6062L35.7469 15.6073C36.2776 15.0772 36.576 14.358 36.5766 13.6079V8.82921C36.574 8.07794 36.2737 7.35834 35.7415 6.82805C35.2093 6.29775 34.4887 6 33.7374 6H10.004C9.25273 6 8.53208 6.29775 7.99991 6.82805C7.46774 7.35834 7.16744 8.07794 7.16479 8.82921V13.6079C7.16538 14.358 7.46385 15.0772 7.99456 15.6073L16.2623 23.875V33.4724C16.2636 33.9251 16.3732 34.3709 16.5819 34.7726C16.7906 35.1743 17.0923 35.5203 17.4619 35.7817L19.9013 37.5112C18.9075 35.7224 18.3878 33.7092 18.3917 31.6629Z" fill="black"/>
<path d="M30.5083 21.3457C28.4654 21.3457 26.4683 21.9517 24.7698 23.0869C23.0713 24.2221 21.7477 25.8355 20.9663 27.7232C20.185 29.6108 19.9811 31.6877 20.3804 33.6913C20.7796 35.6948 21.7642 37.5349 23.2095 38.9788C24.6547 40.4227 26.4958 41.4054 28.4997 41.8028C30.5036 42.2001 32.5804 41.9942 34.4673 41.211C36.3541 40.4278 37.9663 39.1026 39.0999 37.403C40.2334 35.7034 40.8374 33.7058 40.8354 31.6629C40.8328 28.9257 39.7436 26.3015 37.8072 24.3669C35.8707 22.4324 33.2455 21.3457 30.5083 21.3457ZM34.7771 33.4624H32.3078V35.9317C32.3078 36.4089 32.1182 36.8666 31.7807 37.2041C31.4433 37.5416 30.9856 37.7312 30.5083 37.7312C30.0311 37.7312 29.5733 37.5416 29.2359 37.2041C28.8984 36.8666 28.7088 36.4089 28.7088 35.9317V33.4624H26.2495C25.7722 33.4624 25.3145 33.2728 24.9771 32.9353C24.6396 32.5978 24.45 32.1401 24.45 31.6629C24.45 31.1856 24.6396 30.7279 24.9771 30.3904C25.3145 30.053 25.7722 29.8634 26.2495 29.8634H28.7088V27.4041C28.7088 26.9268 28.8984 26.4691 29.2359 26.1316C29.5733 25.7941 30.0311 25.6046 30.5083 25.6046C30.9856 25.6046 31.4433 25.7941 31.7807 26.1316C32.1182 26.4691 32.3078 26.9268 32.3078 27.4041V29.8634H34.7771C35.2544 29.8634 35.7121 30.053 36.0496 30.3904C36.387 30.7279 36.5766 31.1856 36.5766 31.6629C36.5766 32.1401 36.387 32.5978 36.0496 32.9353C35.7121 33.2728 35.2544 33.4624 34.7771 33.4624Z" fill="black"/>
</svg>
