<svg width="48" height="48" viewBox="0 0 48 48" fill="none" xmlns="http://www.w3.org/2000/svg">
<path d="M18.3917 31.6629C18.397 28.451 19.6752 25.3721 21.9464 23.101C24.2176 20.8298 27.2964 19.5515 30.5083 19.5462C30.9282 19.5462 31.3381 19.5462 31.748 19.6062L35.7469 15.6073C36.2776 15.0772 36.576 14.358 36.5766 13.6079V8.82921C36.574 8.07794 36.2737 7.35834 35.7415 6.82805C35.2093 6.29775 34.4887 6 33.7374 6H10.004C9.25273 6 8.53208 6.29775 7.99991 6.82805C7.46774 7.35834 7.16744 8.07794 7.16479 8.82921V13.6079C7.16538 14.358 7.46385 15.0772 7.99456 15.6073L16.2623 23.875V33.4724C16.2636 33.9251 16.3732 34.3709 16.5819 34.7726C16.7906 35.1743 17.0923 35.5203 17.4619 35.7817L19.9013 37.5112C18.9075 35.7224 18.3878 33.7092 18.3917 31.6629Z" fill="black"/>
<path d="M30.5083 21.3457C28.4654 21.3457 26.4683 21.9517 24.7698 23.0869C23.0713 24.2221 21.7477 25.8355 20.9663 27.7232C20.185 29.6108 19.9811 31.6877 20.3804 33.6913C20.7796 35.6948 21.7642 37.5349 23.2095 38.9788C24.6547 40.4227 26.4958 41.4054 28.4997 41.8028C30.5036 42.2001 32.5804 41.9942 34.4673 41.211C36.3541 40.4278 37.9663 39.1026 39.0999 37.403C40.2334 35.7034 40.8374 33.7058 40.8354 31.6629C40.8328 28.9257 39.7436 26.3015 37.8072 24.3669C35.8707 22.4324 33.2455 21.3457 30.5083 21.3457ZM36.0468 34.652C36.2959 34.905 36.4651 35.2257 36.5334 35.5741C36.6016 35.9225 36.5658 36.2833 36.4304 36.6116C36.2951 36.9398 36.0662 37.221 35.7722 37.4201C35.4782 37.6192 35.1322 37.7274 34.7771 37.7312C34.2978 37.728 33.8387 37.5379 33.4975 37.2013L30.4983 34.2022L27.4991 37.2013C27.3331 37.374 27.1342 37.5117 26.9142 37.6065C26.6942 37.7012 26.4575 37.7511 26.218 37.7532C25.9784 37.7553 25.7409 37.7095 25.5193 37.6186C25.2976 37.5277 25.0964 37.3934 24.9274 37.2237C24.7583 37.054 24.6248 36.8522 24.5348 36.6303C24.4447 36.4083 24.3999 36.1706 24.4029 35.931C24.406 35.6915 24.4568 35.455 24.5524 35.2354C24.648 35.0158 24.7866 34.8174 24.9599 34.652L27.959 31.6529L24.9599 28.6537C24.659 28.3101 24.5001 27.8651 24.5152 27.4087C24.5303 26.9523 24.7184 26.5187 25.0413 26.1959C25.3642 25.873 25.7978 25.6849 26.2541 25.6698C26.7105 25.6547 27.1556 25.8136 27.4991 26.1144L30.4983 29.1136L33.4975 26.1144C33.6629 25.9411 33.8612 25.8026 34.0808 25.707C34.3005 25.6113 34.537 25.5605 34.7765 25.5575C35.016 25.5545 35.2537 25.5993 35.4757 25.6894C35.6977 25.7794 35.8994 25.9129 36.0692 26.0819C36.2389 26.251 36.3731 26.4522 36.4641 26.6738C36.555 26.8954 36.6007 27.133 36.5987 27.3725C36.5966 27.6121 36.5467 27.8488 36.4519 28.0688C36.3571 28.2888 36.2194 28.4876 36.0468 28.6537L33.0476 31.6529L36.0468 34.652Z" fill="black"/>
</svg>
