<svg width="48" height="48" viewBox="0 0 48 48" fill="none" xmlns="http://www.w3.org/2000/svg">
<path d="M19.2701 33.82L19.0001 33.63V22.57L9.63007 13.19V8.63H33.6301V13.19L24.7001 22.12C26.3073 21.1554 28.1278 20.6024 30.0001 20.51L35.5201 15C35.7417 14.7799 35.9176 14.5182 36.0378 14.2299C36.1579 13.9416 36.2199 13.6323 36.2201 13.32V8.38C36.2174 7.7496 35.9658 7.14576 35.5201 6.69999C35.0743 6.25423 34.4705 6.00263 33.8401 6H9.38007C8.74967 6.00263 8.14583 6.25423 7.70006 6.69999C7.2543 7.14576 7.0027 7.7496 7.00007 8.38V13.3C6.99764 13.6157 7.05831 13.9287 7.17851 14.2206C7.29872 14.5126 7.47604 14.7775 7.70007 15L16.3801 23.68V33.78C16.38 34.1611 16.4706 34.5367 16.6445 34.8758C16.8184 35.2149 17.0705 35.5077 17.3801 35.73L21.1001 38.37C20.1658 37.0048 19.5412 35.4519 19.2701 33.82Z" fill="black"/>
<path d="M30.5101 42C28.5125 42 26.5597 41.4076 24.8988 40.2978C23.2379 39.188 21.9433 37.6106 21.1789 35.7651C20.4144 33.9196 20.2144 31.8888 20.6041 29.9296C20.9939 27.9704 21.9558 26.1707 23.3683 24.7582C24.7808 23.3457 26.5805 22.3838 28.5397 21.9941C30.4989 21.6044 32.5296 21.8044 34.3752 22.5688C36.2207 23.3333 37.7981 24.6278 38.9079 26.2887C40.0177 27.9497 40.6101 29.9024 40.6101 31.9C40.6074 34.5779 39.5425 37.1453 37.6489 39.0389C35.7554 40.9324 33.1879 41.9974 30.5101 42ZM30.5101 24.44C29.0331 24.444 27.5904 24.8857 26.3644 25.7093C25.1384 26.533 24.184 27.7016 23.622 29.0675C23.06 30.4334 22.9155 31.9352 23.2068 33.3832C23.4981 34.8312 24.2121 36.1604 25.2586 37.2027C26.3051 38.2449 27.6371 38.9536 29.0862 39.2391C30.5354 39.5246 32.0366 39.3741 33.4003 38.8066C34.7639 38.2391 35.9287 37.2801 36.7474 36.0507C37.5661 34.8214 38.002 33.377 38.0001 31.9C37.9988 30.9182 37.8039 29.9463 37.4267 29.0398C37.0494 28.1333 36.4972 27.3102 35.8016 26.6173C35.1059 25.9244 34.2805 25.3755 33.3726 25.0019C32.4646 24.6283 31.4919 24.4374 30.5101 24.44Z" fill="black"/>
<path d="M34.0001 30.59H31.8001V28.39C31.816 28.2077 31.7938 28.024 31.735 27.8507C31.6761 27.6774 31.5818 27.5183 31.4582 27.3833C31.3345 27.2484 31.1842 27.1407 31.0166 27.067C30.8491 26.9933 30.6681 26.9552 30.4851 26.9552C30.3021 26.9552 30.121 26.9933 29.9535 27.067C29.786 27.1407 29.6356 27.2484 29.512 27.3833C29.3883 27.5183 29.294 27.6774 29.2352 27.8507C29.1763 28.024 29.1542 28.2077 29.1701 28.39V30.59H27.0001C26.8177 30.5741 26.6341 30.5963 26.4608 30.6551C26.2875 30.714 26.1283 30.8082 25.9934 30.9319C25.8585 31.0555 25.7508 31.2059 25.677 31.3734C25.6033 31.541 25.5653 31.722 25.5653 31.905C25.5653 32.088 25.6033 32.269 25.677 32.4366C25.7508 32.6041 25.8585 32.7545 25.9934 32.8781C26.1283 33.0018 26.2875 33.096 26.4608 33.1549C26.6341 33.2137 26.8177 33.2359 27.0001 33.22H29.2001V35.41C29.1842 35.5923 29.2063 35.776 29.2652 35.9493C29.324 36.1226 29.4183 36.2817 29.542 36.4167C29.6656 36.5516 29.816 36.6593 29.9835 36.733C30.151 36.8067 30.3321 36.8448 30.5151 36.8448C30.6981 36.8448 30.8791 36.8067 31.0466 36.733C31.2142 36.6593 31.3645 36.5516 31.4882 36.4167C31.6118 36.2817 31.7061 36.1226 31.765 35.9493C31.8238 35.776 31.846 35.5923 31.8301 35.41V33.22H34.0001C34.329 33.1913 34.6353 33.0403 34.8584 32.7969C35.0815 32.5534 35.2053 32.2352 35.2053 31.905C35.2053 31.5748 35.0815 31.2566 34.8584 31.0131C34.6353 30.7697 34.329 30.6187 34.0001 30.59Z" fill="black"/>
</svg>
