<svg width="48" height="48" viewBox="0 0 48 48" fill="none" xmlns="http://www.w3.org/2000/svg">
<path d="M19.2701 33.82L19.0001 33.63V22.57L9.63007 13.19V8.63H33.6301V13.19L24.7001 22.12C26.3073 21.1554 28.1278 20.6024 30.0001 20.51L35.5201 15C35.7417 14.7799 35.9176 14.5182 36.0378 14.2299C36.1579 13.9416 36.2199 13.6323 36.2201 13.32V8.38C36.2174 7.7496 35.9658 7.14576 35.5201 6.69999C35.0743 6.25423 34.4705 6.00263 33.8401 6H9.38007C8.74967 6.00263 8.14583 6.25423 7.70006 6.69999C7.2543 7.14576 7.0027 7.7496 7.00007 8.38V13.3C6.99764 13.6157 7.05831 13.9287 7.17851 14.2206C7.29872 14.5126 7.47604 14.7775 7.70007 15L16.3801 23.68V33.78C16.38 34.1611 16.4706 34.5367 16.6445 34.8758C16.8184 35.2149 17.0705 35.5077 17.3801 35.73L21.1001 38.37C20.1658 37.0048 19.5412 35.4519 19.2701 33.82Z" fill="black"/>
<path d="M30.5101 42C28.5125 42 26.5597 41.4076 24.8988 40.2978C23.2379 39.188 21.9433 37.6106 21.1789 35.7651C20.4144 33.9196 20.2144 31.8888 20.6041 29.9296C20.9939 27.9704 21.9558 26.1707 23.3683 24.7582C24.7808 23.3457 26.5805 22.3838 28.5397 21.9941C30.4989 21.6044 32.5296 21.8044 34.3752 22.5688C36.2207 23.3333 37.7981 24.6278 38.9079 26.2887C40.0177 27.9497 40.6101 29.9024 40.6101 31.9C40.6074 34.5779 39.5425 37.1453 37.6489 39.0389C35.7554 40.9324 33.1879 41.9974 30.5101 42ZM30.5101 24.44C29.0331 24.444 27.5904 24.8857 26.3644 25.7093C25.1384 26.533 24.184 27.7016 23.622 29.0675C23.06 30.4334 22.9155 31.9352 23.2068 33.3832C23.4981 34.8312 24.2121 36.1604 25.2586 37.2027C26.3051 38.2449 27.6371 38.9536 29.0862 39.2391C30.5354 39.5246 32.0366 39.3741 33.4003 38.8066C34.7639 38.2391 35.9287 37.2801 36.7474 36.0507C37.5661 34.8214 38.002 33.377 38.0001 31.9C37.9988 30.9182 37.8039 29.9463 37.4267 29.0398C37.0494 28.1333 36.4972 27.3102 35.8016 26.6173C35.1059 25.9244 34.2805 25.3755 33.3726 25.0019C32.4646 24.6283 31.4919 24.4374 30.5101 24.44Z" fill="black"/>
<path d="M32.3801 31.9L35.0001 29.32C35.2293 29.0686 35.3526 28.7385 35.3443 28.3984C35.336 28.0583 35.1968 27.7346 34.9556 27.4947C34.7144 27.2548 34.3899 27.1173 34.0498 27.1108C33.7097 27.1043 33.3802 27.2294 33.1301 27.46L30.5101 30L27.9301 27.42C27.809 27.296 27.6643 27.1975 27.5046 27.1303C27.3449 27.063 27.1734 27.0284 27.0001 27.0284C26.8268 27.0284 26.6552 27.063 26.4955 27.1303C26.3358 27.1975 26.1912 27.296 26.0701 27.42C25.8246 27.6673 25.6868 28.0016 25.6868 28.35C25.6868 28.6984 25.8246 29.0327 26.0701 29.28L28.6501 31.86L26.0701 34.44C25.8726 34.6221 25.7353 34.8601 25.6767 35.1223C25.618 35.3844 25.6408 35.6582 25.7418 35.9071C25.8429 36.156 26.0175 36.3682 26.2424 36.5152C26.4672 36.6622 26.7315 36.7372 27.0001 36.73C27.348 36.7309 27.6823 36.5943 27.9301 36.35L30.5101 33.76L33.0901 36.35C33.3403 36.5937 33.6758 36.7301 34.0251 36.7301C34.3744 36.7301 34.7099 36.5937 34.9601 36.35C35.2062 36.101 35.3442 35.7651 35.3442 35.415C35.3442 35.0649 35.2062 34.729 34.9601 34.48L32.3801 31.9Z" fill="black"/>
</svg>
