<svg width="48" height="48" viewBox="0 0 48 48" fill="none" xmlns="http://www.w3.org/2000/svg">
<path d="M27.43 42C26.918 41.9937 26.4197 41.8334 26 41.54L19.93 37.23C19.6103 37.0024 19.3487 36.7028 19.1663 36.3554C18.9838 36.0079 18.8858 35.6224 18.88 35.23V24.57L9.73001 15.44C9.49756 15.2077 9.31338 14.9318 9.18809 14.628C9.0628 14.3242 8.99888 13.9986 9.00001 13.67V8.51C9.00001 7.84431 9.26446 7.20588 9.73518 6.73516C10.2059 6.26445 10.8443 6 11.51 6H37.21C37.8757 6 38.5141 6.26445 38.9849 6.73516C39.4556 7.20588 39.72 7.84431 39.72 8.51V13.67C39.7225 13.9979 39.6601 14.3231 39.5366 14.6268C39.413 14.9306 39.2307 15.2069 39 15.44L30 24.44V39.44C30.0069 39.7789 29.945 40.1157 29.8181 40.43C29.6913 40.7444 29.5021 41.0298 29.2619 41.269C29.0217 41.5083 28.7356 41.6964 28.4208 41.822C28.1059 41.9476 27.7689 42.0082 27.43 42ZM21.63 35.05L27.17 39V23.35L37 13.56V8.77H11.77V13.56L21.63 23.42V35.05Z" fill="black"/>
</svg>
