<svg width="48" height="48" viewBox="0 0 48 48" fill="none" xmlns="http://www.w3.org/2000/svg">
<path d="M37 6H11.89C11.1243 6.00264 10.3908 6.30796 9.84937 6.84937C9.30796 7.39078 9.00264 8.12434 9 8.89V13.89C9.00698 14.643 9.31272 15.3624 9.85 15.89L18.61 24.66V34.91C18.6122 35.3704 18.724 35.8237 18.9361 36.2324C19.1483 36.641 19.4547 36.9933 19.83 37.26L25.74 41.46C26.2303 41.8101 26.8175 41.9989 27.42 42C27.8821 41.9972 28.3372 41.8877 28.75 41.68C29.2201 41.4351 29.614 41.066 29.889 40.6129C30.1641 40.1598 30.3097 39.64 30.31 39.11V24.67L39 16C39.5373 15.4724 39.843 14.753 39.85 14V9C39.8633 8.61501 39.7998 8.23122 39.6632 7.87104C39.5266 7.51086 39.3196 7.18151 39.0542 6.90222C38.7889 6.62294 38.4706 6.39931 38.1179 6.2444C37.7652 6.0895 37.3852 6.00641 37 6V6Z" fill="black"/>
</svg>
