<svg width="48" height="48" viewBox="0 0 48 48" fill="none" xmlns="http://www.w3.org/2000/svg">
<path d="M41.38 28.54C41.0377 28.5348 40.6997 28.462 40.3856 28.3259C40.0715 28.1898 39.7874 27.993 39.5495 27.7467C39.3117 27.5005 39.1248 27.2098 38.9996 26.8911C38.8744 26.5725 38.8133 26.2323 38.82 25.89V24.89C38.8135 22.6865 38.3111 20.5128 37.35 18.53C37.1401 18.2199 36.9994 17.8682 36.9375 17.4989C36.8755 17.1296 36.8938 16.7513 36.991 16.3896C37.0882 16.028 37.2621 15.6915 37.5008 15.4031C37.7396 15.1146 38.0376 14.8808 38.3747 14.7177C38.7118 14.5546 39.08 14.466 39.4544 14.4578C39.8287 14.4496 40.2005 14.522 40.5444 14.6702C40.8883 14.8184 41.1963 15.0389 41.4474 15.3167C41.6986 15.5944 41.887 15.923 42 16.28C43.3043 18.9635 43.9879 21.9063 44 24.89C44 25.07 44 25.44 44 25.98C43.9894 26.6661 43.7081 27.3202 43.2173 27.7997C42.7265 28.2793 42.0661 28.5454 41.38 28.54Z" fill="black"/>
<path d="M35.43 14.5C34.7984 14.5001 34.1878 14.2729 33.71 13.86C31.022 11.509 27.571 10.2153 24 10.22H23.59C22.8977 10.22 22.2339 9.94501 21.7444 9.45554C21.2549 8.96607 20.98 8.3022 20.98 7.60999C20.98 6.91777 21.2549 6.25391 21.7444 5.76444C22.2339 5.27497 22.8977 4.99999 23.59 4.99999H24C28.8333 4.99305 33.504 6.74545 37.14 9.92999C37.5375 10.2795 37.8193 10.7417 37.9481 11.2551C38.0768 11.7685 38.0465 12.3089 37.861 12.8047C37.6755 13.3005 37.3436 13.7281 36.9094 14.0309C36.4753 14.3336 35.9593 14.4973 35.43 14.5Z" fill="black"/>
<path d="M9.23996 18.43C8.74838 18.4211 8.26959 18.2719 7.85996 18C7.28071 17.6384 6.86624 17.0642 6.70547 16.4005C6.5447 15.7368 6.65042 15.0366 6.99996 14.45C9.08288 11.0923 12.1137 8.42688 15.71 6.78999C16.0234 6.63702 16.3642 6.5484 16.7125 6.52939C17.0607 6.51037 17.4092 6.56133 17.7374 6.67926C18.0656 6.79719 18.3668 6.97971 18.6233 7.21601C18.8798 7.45232 19.0863 7.73763 19.2307 8.0551C19.3751 8.37256 19.4543 8.71574 19.4638 9.06435C19.4733 9.41297 19.4129 9.75996 19.286 10.0848C19.1592 10.4097 18.9685 10.7058 18.7253 10.9558C18.4821 11.2057 18.1912 11.4043 17.87 11.54C15.2196 12.7498 12.9885 14.7198 11.46 17.2C11.2251 17.577 10.898 17.8878 10.5095 18.103C10.1211 18.3182 9.68407 18.4308 9.23996 18.43Z" fill="black"/>
<path d="M6.60996 29H6.49996C5.81292 28.9714 5.16494 28.6727 4.69683 28.1691C4.22871 27.6654 3.97828 26.9973 3.99996 26.31C3.99996 25.55 3.99996 25.09 3.99996 25.05C3.99198 24.0461 4.06219 23.043 4.20996 22.05C4.26241 21.7085 4.38163 21.3807 4.5608 21.0853C4.73997 20.79 4.97558 20.5328 5.25418 20.3285C5.53277 20.1242 5.84888 19.9768 6.18446 19.8947C6.52004 19.8126 6.86851 19.7974 7.20996 19.85C7.55225 19.8998 7.88116 20.0175 8.17741 20.196C8.47367 20.3746 8.73132 20.6105 8.93527 20.8899C9.13922 21.1692 9.28537 21.4865 9.36516 21.8231C9.44495 22.1597 9.45678 22.5088 9.39996 22.85C9.30029 23.5623 9.25017 24.2807 9.24996 25C9.24996 25 9.24996 25.57 9.24996 26.49C9.22646 27.1708 8.9367 27.8152 8.443 28.2846C7.9493 28.754 7.29109 29.0109 6.60996 29Z" fill="black"/>
<path d="M34.49 40.82C34.3568 40.8299 34.2231 40.8299 34.09 40.82C33.7486 40.7689 33.4207 40.6504 33.1256 40.4714C32.8305 40.2923 32.574 40.0562 32.3711 39.777C32.1681 39.4977 32.0229 39.1809 31.9437 38.8449C31.8645 38.5089 31.8531 38.1605 31.91 37.82C32.33 35.13 32.63 32.36 32.82 29.57C32.8239 29.2149 32.9002 28.8644 33.0443 28.5398C33.1883 28.2153 33.3971 27.9235 33.6578 27.6825C33.9186 27.4414 34.2257 27.256 34.5605 27.1378C34.8954 27.0195 35.2508 26.9708 35.6051 26.9947C35.9594 27.0185 36.3051 27.1144 36.621 27.2765C36.937 27.4385 37.2165 27.6634 37.4426 27.9372C37.6686 28.211 37.8364 28.5281 37.9357 28.8691C38.035 29.21 38.0637 29.5676 38.02 29.92C37.83 32.85 37.51 35.78 37.02 38.63C36.9216 39.2336 36.6145 39.7835 36.1521 40.1838C35.6897 40.584 35.1014 40.8092 34.49 40.82Z" fill="black"/>
<path d="M35.38 25.37C34.7753 25.3677 34.1901 25.1564 33.7235 24.7718C33.2569 24.3872 32.9377 23.8531 32.82 23.26C32.4392 21.3772 31.4661 19.6656 30.0429 18.3755C28.6197 17.0854 26.821 16.2845 24.91 16.09C24.5581 16.0709 24.2138 15.9808 23.8977 15.825C23.5816 15.6693 23.3003 15.4512 23.0708 15.1838C22.8413 14.9164 22.6683 14.6053 22.5623 14.2693C22.4562 13.9333 22.4193 13.5793 22.4538 13.2286C22.4882 12.8779 22.5933 12.5378 22.7628 12.2289C22.9322 11.9199 23.1624 11.6484 23.4396 11.4309C23.7168 11.2133 24.0351 11.0541 24.3755 10.9628C24.7158 10.8716 25.0711 10.8502 25.42 10.9C28.446 11.2093 31.2938 12.4788 33.5465 14.5228C35.7993 16.5669 37.3388 19.2781 37.94 22.26C38.0737 22.9303 37.9391 23.6264 37.5652 24.1986C37.1912 24.7708 36.6076 25.1734 35.94 25.32C35.7553 25.3545 35.5678 25.3713 35.38 25.37Z" fill="black"/>
<path d="M15.27 20.05C14.7671 20.0554 14.2734 19.9155 13.8482 19.6471C13.423 19.3786 13.0844 18.993 12.8731 18.5367C12.6619 18.0803 12.5869 17.5727 12.6573 17.0748C12.7277 16.5768 12.9405 16.1099 13.27 15.73C14.2947 14.5367 15.5114 13.5228 16.87 12.73C17.4659 12.4151 18.1607 12.3429 18.8086 12.5287C19.4566 12.7144 20.0076 13.1437 20.3462 13.7266C20.6848 14.3094 20.7848 15.0007 20.6252 15.6556C20.4656 16.3105 20.0588 16.8783 19.49 17.24C18.6308 17.7398 17.8604 18.3784 17.21 19.13C16.9703 19.4121 16.6734 19.6401 16.3389 19.7987C16.0045 19.9573 15.6401 20.043 15.27 20.05Z" fill="black"/>
<path d="M11.17 39.75C11.0003 39.7648 10.8296 39.7648 10.66 39.75C9.99018 39.6035 9.40494 39.1994 9.03071 38.6249C8.65647 38.0505 8.52329 37.3518 8.65996 36.68C9.38338 32.8441 9.77483 28.9531 9.82996 25.05C9.82809 24.5624 9.85145 24.0751 9.89996 23.59C9.99154 22.9193 10.3401 22.3105 10.872 21.8919C11.404 21.4734 12.0777 21.2779 12.7511 21.3466C13.4245 21.4154 14.0448 21.7431 14.4812 22.2605C14.9175 22.7779 15.1358 23.4447 15.09 24.12C15.09 24.42 15.09 24.73 15.09 25.05C15.0044 29.2783 14.5494 33.491 13.73 37.64C13.6123 38.2331 13.293 38.7672 12.8265 39.1518C12.3599 39.5364 11.7746 39.7477 11.17 39.75Z" fill="black"/>
<path d="M22.25 43.35C22.0617 43.3498 21.874 43.3297 21.69 43.29C21.3545 43.2188 21.0365 43.082 20.7542 42.8874C20.4718 42.6928 20.2308 42.4443 20.0449 42.1562C19.859 41.868 19.7319 41.546 19.671 41.2085C19.6101 40.8711 19.6165 40.5249 19.69 40.19C20.7519 35.194 21.328 30.107 21.41 25C21.4099 24.3122 21.6825 23.6523 22.1679 23.165C22.6534 22.6777 23.3121 22.4026 24 22.4C24.3435 22.3974 24.6843 22.4626 25.0026 22.5919C25.3209 22.7213 25.6106 22.9122 25.8549 23.1538C26.0993 23.3954 26.2935 23.6828 26.4265 23.9996C26.5595 24.3164 26.6286 24.6564 26.63 25C26.559 30.4809 25.9426 35.9412 24.79 41.3C24.6643 41.8804 24.3438 42.4003 23.8817 42.7732C23.4196 43.1462 22.8438 43.3497 22.25 43.35Z" fill="black"/>
<path d="M28.24 43C28.0703 43.0148 27.8996 43.0148 27.73 43C27.0531 42.8647 26.4573 42.4668 26.0731 41.8933C25.6889 41.3198 25.5476 40.6175 25.68 39.94C25.8266 39.14 25.9666 38.36 26.1 37.6C26.1558 37.2625 26.2775 36.9393 26.4582 36.6488C26.6389 36.3584 26.8751 36.1064 27.1532 35.9072C27.4313 35.708 27.7459 35.5656 28.0791 35.488C28.4123 35.4104 28.7575 35.3992 29.095 35.455C29.4325 35.5108 29.7557 35.6325 30.0461 35.8133C30.3365 35.994 30.5886 36.2301 30.7877 36.5082C30.9869 36.7864 31.1294 37.101 31.207 37.4341C31.2846 37.7673 31.2958 38.1125 31.24 38.45C31.11 39.26 30.96 40.1 30.8 40.94C30.6705 41.523 30.3465 42.0446 29.8813 42.419C29.416 42.7934 28.8372 42.9983 28.24 43Z" fill="black"/>
<path d="M29.53 33.58H29.31C28.969 33.5523 28.6369 33.4575 28.3326 33.3012C28.0283 33.1448 27.7578 32.93 27.5368 32.6689C27.3157 32.4079 27.1482 32.1058 27.0441 31.7799C26.94 31.4541 26.9012 31.1109 26.93 30.77C27.2 27.45 27.2 25.24 27.2 25C27.1982 24.8255 27.1815 24.6516 27.15 24.48C27.0333 23.7971 27.1926 23.0957 27.593 22.5303C27.9934 21.9649 28.602 21.5817 29.285 21.465C29.9679 21.3483 30.6692 21.5077 31.2346 21.9081C31.8001 22.3085 32.1833 22.9171 32.3 23.6C32.3766 24.0628 32.4167 24.5309 32.42 25C32.42 25.27 32.42 27.69 32.13 31.23C32.0633 31.8736 31.7608 32.4698 31.2807 32.9037C30.8007 33.3376 30.177 33.5785 29.53 33.58Z" fill="black"/>
<path d="M18.29 26.78H17.91C17.5673 26.7301 17.2381 26.6125 16.9414 26.434C16.6447 26.2556 16.3864 26.0199 16.1817 25.7407C15.9769 25.4615 15.8298 25.1444 15.7488 24.8078C15.6678 24.4711 15.6546 24.1218 15.71 23.78C16.0076 21.8205 16.9853 20.0282 18.4717 18.7173C19.9582 17.4063 21.8586 16.6603 23.84 16.61H24.41C25.0819 16.6687 25.7051 16.9852 26.1487 17.4933C26.5924 18.0014 26.8222 18.6614 26.7898 19.3352C26.7575 20.0089 26.4656 20.644 25.9753 21.1072C25.485 21.5705 24.8344 21.8259 24.16 21.82H24C23.2408 21.83 22.5099 22.1088 21.9368 22.6068C21.3638 23.1047 20.9858 23.7897 20.87 24.54C20.781 25.1611 20.4712 25.7295 19.9974 26.1408C19.5236 26.5522 18.9174 26.7791 18.29 26.78Z" fill="black"/>
<path d="M16.56 42.27C16.3684 42.2698 16.1774 42.2497 15.99 42.21C15.6535 42.1389 15.3345 42.0017 15.0514 41.8065C14.7683 41.6112 14.5267 41.3618 14.3407 41.0725C14.1547 40.7833 14.0279 40.46 13.9677 40.1214C13.9075 39.7828 13.9151 39.4356 13.99 39.1C14.5762 36.3876 15.0003 33.6428 15.26 30.88C15.3276 30.1904 15.6664 29.556 16.2018 29.1162C16.7372 28.6764 17.4254 28.4674 18.115 28.535C18.8045 28.6026 19.439 28.9414 19.8787 29.4768C20.3185 30.0122 20.5276 30.7004 20.46 31.39C20.1736 34.3612 19.7128 37.3129 19.08 40.23C18.9531 40.8052 18.6347 41.3203 18.1769 41.6909C17.7191 42.0615 17.149 42.2657 16.56 42.27Z" fill="black"/>
</svg>
