<svg width="48" height="48" viewBox="0 0 48 48" fill="none" xmlns="http://www.w3.org/2000/svg">
<path d="M22.13 43.23H21.83C21.6503 43.1921 21.4799 43.1189 21.3287 43.0147C21.1775 42.9105 21.0484 42.7774 20.9489 42.6231C20.8494 42.4687 20.7815 42.2962 20.749 42.1154C20.7166 41.9347 20.7203 41.7493 20.76 41.57C21.918 36.1204 22.5409 30.5707 22.62 25C22.6251 24.6347 22.7718 24.2856 23.0292 24.0263C23.2866 23.767 23.6347 23.6177 24 23.61C24.1857 23.6032 24.3709 23.6343 24.5443 23.7013C24.7177 23.7684 24.8756 23.87 25.0085 24.0001C25.1413 24.1301 25.2463 24.2858 25.317 24.4577C25.3878 24.6296 25.4228 24.8141 25.42 25C25.3451 30.7631 24.6986 36.5046 23.49 42.14C23.4199 42.4487 23.2473 42.7245 23.0003 42.9224C22.7533 43.1204 22.4465 43.2288 22.13 43.23Z" fill="black"/>
<path d="M28.53 42.83C28.4402 42.8399 28.3497 42.8399 28.26 42.83C27.8984 42.7551 27.5806 42.5414 27.3749 42.2347C27.1692 41.9281 27.0921 41.553 27.16 41.19C27.43 39.84 27.67 38.43 27.88 36.99C27.9031 36.8074 27.9628 36.6313 28.0554 36.4723C28.1481 36.3133 28.2719 36.1746 28.4193 36.0644C28.5668 35.9543 28.735 35.875 28.9138 35.8313C29.0925 35.7876 29.2783 35.7803 29.46 35.81C29.6414 35.8357 29.816 35.8971 29.9737 35.9905C30.1314 36.084 30.269 36.2077 30.3787 36.3545C30.4883 36.5014 30.5679 36.6685 30.6127 36.8462C30.6576 37.0239 30.6668 37.2087 30.64 37.39C30.42 38.87 30.17 40.33 29.9 41.73C29.8332 42.0431 29.6604 42.3235 29.4108 42.5239C29.1612 42.7243 28.8501 42.8324 28.53 42.83Z" fill="black"/>
<path d="M29.73 34.74H29.58C29.398 34.7213 29.2214 34.6668 29.0605 34.5797C28.8996 34.4926 28.7575 34.3746 28.6423 34.2325C28.5271 34.0903 28.4411 33.9268 28.3892 33.7514C28.3373 33.5759 28.3206 33.3919 28.34 33.21C28.6383 30.4832 28.7985 27.743 28.82 25C28.8108 23.9768 28.4783 22.9828 27.87 22.16C27.6485 21.8643 27.5536 21.4927 27.6061 21.127C27.6586 20.7613 27.8542 20.4315 28.15 20.21C28.4457 19.9885 28.8173 19.8936 29.183 19.9461C29.5487 19.9987 29.8785 20.1943 30.1 20.49C31.078 21.7904 31.6078 23.3729 31.61 25C31.61 25.14 31.61 28.57 31.12 33.52C31.0762 33.8576 30.9109 34.1677 30.6551 34.3922C30.3993 34.6168 30.0704 34.7404 29.73 34.74Z" fill="black"/>
<path d="M17.81 27.25C17.4404 27.2395 17.09 27.0833 16.8352 26.8154C16.5804 26.5475 16.4419 26.1896 16.45 25.82C16.45 25.33 16.45 25.05 16.45 25.04C16.4446 23.0295 17.2361 21.0989 18.6512 19.6707C20.0662 18.2425 21.9895 17.4332 24 17.42C24.8226 17.416 25.6402 17.5478 26.42 17.81C26.7701 17.9267 27.0594 18.1777 27.2245 18.5077C27.3895 18.8378 27.4167 19.2199 27.3 19.57C27.1833 19.9201 26.9323 20.2095 26.6022 20.3745C26.2722 20.5395 25.8901 20.5667 25.54 20.45C24.8186 20.2115 24.0511 20.1472 23.3001 20.2625C22.5491 20.3778 21.8362 20.6693 21.2196 21.1132C20.603 21.5571 20.1004 22.1408 19.7528 22.8164C19.4052 23.4919 19.2226 24.2403 19.22 25C19.22 25 19.22 25.32 19.22 25.85C19.22 26.0347 19.1834 26.2176 19.1125 26.3881C19.0415 26.5586 18.9375 26.7134 18.8064 26.8435C18.6753 26.9736 18.5198 27.0766 18.3488 27.1463C18.1778 27.2161 17.9947 27.2513 17.81 27.25Z" fill="black"/>
<path d="M16 42.08C15.8969 42.0899 15.7931 42.0899 15.69 42.08C15.3295 41.9964 15.0163 41.7745 14.818 41.4621C14.6197 41.1496 14.5522 40.7718 14.63 40.41C15.3846 36.916 15.8991 33.3743 16.17 29.81C16.1952 29.4347 16.3684 29.0848 16.6516 28.8373C16.7918 28.7147 16.9548 28.6209 17.1312 28.5614C17.3077 28.5018 17.4942 28.4775 17.68 28.49C17.8658 28.5025 18.0473 28.5514 18.2142 28.6341C18.3811 28.7167 18.5301 28.8314 18.6527 28.9716C18.7753 29.1118 18.869 29.2748 18.9286 29.4513C18.9882 29.6277 19.0124 29.8142 19 30C18.7204 33.6991 18.1858 37.3745 17.4 41C17.3265 41.3136 17.1471 41.5922 16.892 41.789C16.637 41.9857 16.322 42.0885 16 42.08Z" fill="black"/>
<path d="M35.22 40.53C35.1503 40.5398 35.0796 40.5398 35.01 40.53C34.8284 40.5032 34.654 40.4406 34.4967 40.346C34.3394 40.2514 34.2025 40.1266 34.0937 39.9788C33.9849 39.8309 33.9065 39.663 33.8629 39.4848C33.8194 39.3065 33.8116 39.1213 33.84 38.94C34.3862 35.401 34.75 31.8363 34.93 28.26C34.9481 27.8903 35.1119 27.5429 35.3855 27.2937C35.6591 27.0445 36.0202 26.9137 36.39 26.93C36.5726 26.939 36.7516 26.9839 36.9169 27.0621C37.0821 27.1404 37.2303 27.2505 37.3529 27.3861C37.4755 27.5218 37.5702 27.6802 37.6314 27.8525C37.6927 28.0247 37.7194 28.2074 37.71 28.39C37.5326 32.0736 37.162 35.7453 36.6 39.39C36.5393 39.7113 36.368 40.0011 36.116 40.2094C35.8639 40.4176 35.5469 40.531 35.22 40.53Z" fill="black"/>
<path d="M36.39 25.72C36.0331 25.7205 35.6898 25.5837 35.431 25.3379C35.1723 25.0922 35.0179 24.7564 35 24.4C34.8464 21.5878 33.62 18.9417 31.5735 17.0069C29.527 15.072 26.8163 13.9958 24 14H23.43C23.2474 14.0092 23.0649 13.9823 22.8927 13.921C22.7205 13.8596 22.5622 13.7649 22.4266 13.6424C22.291 13.5198 22.1809 13.3717 22.1026 13.2066C22.0242 13.0415 21.9792 12.8625 21.97 12.68C21.9608 12.4975 21.9876 12.3149 22.049 12.1427C22.1103 11.9706 22.205 11.8122 22.3276 11.6766C22.4502 11.541 22.5982 11.4309 22.7634 11.3526C22.9285 11.2742 23.1074 11.2292 23.29 11.22H23.95C27.4786 11.2067 30.8779 12.5475 33.4473 14.9662C36.0166 17.3848 37.5603 20.697 37.76 24.22C37.7708 24.4021 37.7453 24.5845 37.6852 24.7567C37.625 24.9289 37.5313 25.0875 37.4095 25.2233C37.2877 25.359 37.1402 25.4693 36.9755 25.5477C36.8108 25.6261 36.6322 25.6711 36.45 25.68L36.39 25.72Z" fill="black"/>
<path d="M13.52 19.85C13.2572 19.8497 13.0002 19.7733 12.78 19.63C12.6247 19.5331 12.4901 19.4065 12.384 19.2574C12.2778 19.1083 12.2021 18.9398 12.1612 18.7614C12.1203 18.583 12.115 18.3983 12.1457 18.2179C12.1764 18.0374 12.2424 17.8648 12.34 17.71C13.9625 15.1316 16.3866 13.1572 19.24 12.09C19.5874 11.9574 19.9733 11.9682 20.3127 12.1201C20.6522 12.272 20.9174 12.5526 21.05 12.9C21.1826 13.2474 21.1717 13.6333 21.0198 13.9728C20.8679 14.3122 20.5874 14.5774 20.24 14.71C17.9615 15.5584 16.0254 17.1326 14.73 19.19C14.6038 19.3964 14.4256 19.566 14.2133 19.6819C14.0009 19.7977 13.7618 19.8557 13.52 19.85Z" fill="black"/>
<path d="M10.27 39.38H9.99997C9.6371 39.3075 9.31769 39.0943 9.11157 38.787C8.90544 38.4797 8.82937 38.1032 8.89997 37.74C9.71122 33.5598 10.1596 29.3174 10.24 25.06C10.2337 23.8588 10.385 22.6619 10.69 21.5C10.7274 21.3124 10.803 21.1344 10.9119 20.9771C11.0208 20.8198 11.1608 20.6865 11.3233 20.5854C11.4858 20.4843 11.6672 20.4176 11.8565 20.3894C12.0457 20.3612 12.2387 20.3721 12.4236 20.4214C12.6085 20.4707 12.7813 20.5574 12.9314 20.6761C13.0814 20.7948 13.2056 20.943 13.2961 21.1115C13.3867 21.2801 13.4417 21.4654 13.4579 21.656C13.474 21.8467 13.4509 22.0386 13.39 22.22C13.1349 23.1418 13.0037 24.0935 13 25.05C12.934 29.4846 12.4789 33.9049 11.64 38.26C11.5773 38.5768 11.4062 38.8618 11.1562 39.0662C10.9062 39.2705 10.5929 39.3815 10.27 39.38Z" fill="black"/>
<path d="M42.6 27.39C42.2304 27.39 41.8758 27.2439 41.6135 26.9835C41.3513 26.7231 41.2026 26.3696 41.2 26C41.2 25.47 41.2 25.11 41.2 24.94C41.1834 21.9354 40.3801 18.9876 38.87 16.39C38.6942 16.0683 38.6516 15.6905 38.7514 15.3378C38.8511 14.9851 39.0853 14.6855 39.4034 14.5035C39.7216 14.3215 40.0985 14.2716 40.4531 14.3644C40.8077 14.4572 41.1118 14.6854 41.3 15C43.0397 18.0079 43.97 21.4154 44 24.89C44 25.07 44 25.46 44 26.02C43.9947 26.3869 43.8446 26.7369 43.5823 26.9935C43.32 27.2501 42.9669 27.3927 42.6 27.39Z" fill="black"/>
<path d="M37.9 14C37.7102 13.993 37.5238 13.9478 37.352 13.867C37.1802 13.7863 37.0264 13.6716 36.9 13.53C35.2791 11.714 33.2908 10.2631 31.0669 9.27353C28.8429 8.28396 26.4341 7.77828 24 7.79H23.89C23.1877 7.79215 22.4863 7.83891 21.79 7.93C21.6 7.96947 21.4039 7.96902 21.2141 7.92868C21.0244 7.88834 20.845 7.809 20.6875 7.69569C20.5301 7.58238 20.3978 7.43757 20.2993 7.27044C20.2007 7.10332 20.138 6.91754 20.115 6.72489C20.0921 6.53223 20.1094 6.33691 20.1659 6.15131C20.2225 5.96571 20.317 5.79389 20.4434 5.64675C20.5699 5.49961 20.7256 5.38036 20.9006 5.29656C21.0756 5.21277 21.2661 5.16627 21.46 5.16C22.2692 5.0566 23.0841 5.00316 23.9 5H24C26.8227 5.00081 29.6133 5.59914 32.1883 6.75563C34.7633 7.91213 37.0643 9.60059 38.94 11.71C39.0661 11.8475 39.1635 12.0089 39.2263 12.1846C39.2892 12.3603 39.3163 12.5468 39.3061 12.7332C39.2958 12.9195 39.2484 13.1019 39.1667 13.2697C39.0849 13.4374 38.9704 13.5871 38.83 13.71C38.5631 13.9118 38.2342 14.0143 37.9 14Z" fill="black"/>
<path d="M7.28997 18.26C7.0788 18.2589 6.87047 18.2111 6.67997 18.12C6.51191 18.0426 6.36086 17.9326 6.23555 17.7965C6.11024 17.6604 6.01317 17.5007 5.94993 17.3268C5.8867 17.1529 5.85856 16.9682 5.86715 16.7834C5.87574 16.5986 5.92089 16.4173 5.99997 16.25C8.34163 11.4622 12.489 7.80047 17.53 6.07C17.8815 5.95181 18.2654 5.97684 18.5985 6.13968C18.9317 6.30252 19.1873 6.59005 19.31 6.94C19.3697 7.11331 19.3946 7.29672 19.3831 7.47968C19.3717 7.66263 19.3241 7.84151 19.2433 8.00603C19.1624 8.17054 19.0498 8.31743 18.9119 8.43825C18.7741 8.55907 18.6137 8.65142 18.44 8.71C14.1144 10.2111 10.5565 13.3593 8.53997 17.47C8.42706 17.706 8.24986 17.9053 8.02874 18.045C7.80762 18.1848 7.55155 18.2593 7.28997 18.26Z" fill="black"/>
<path d="M5.39997 27.92H5.33997C4.96947 27.9018 4.62105 27.7384 4.37023 27.4651C4.1194 27.1918 3.98637 26.8307 3.99997 26.46C3.99997 25.6 3.99997 25.09 3.99997 25.06C3.9939 23.3744 4.19882 21.6947 4.60997 20.06C4.71884 19.7216 4.95234 19.4373 5.26311 19.2648C5.57388 19.0922 5.93866 19.0443 6.28343 19.1309C6.6282 19.2174 6.92716 19.4318 7.11965 19.7306C7.31215 20.0294 7.38376 20.3903 7.31997 20.74C6.95811 22.158 6.77998 23.6166 6.78997 25.08C6.78997 25.08 6.78997 25.66 6.78997 26.61C6.76719 26.9638 6.61105 27.2957 6.35306 27.5389C6.09508 27.782 5.75447 27.9182 5.39997 27.92Z" fill="black"/>
</svg>
