<svg width="48" height="48" viewBox="0 0 48 48" fill="none" xmlns="http://www.w3.org/2000/svg">
<path d="M41.9787 17.3811C41.1847 15.4004 39.8321 13.6931 38.0855 12.467C39.0497 14.3183 39.7247 16.3063 40.0872 18.3619C39.7937 17.6462 39.4595 16.9478 39.0863 16.2702C36.8345 12.2569 33.7119 10.045 31.0997 5.94161C30.9396 5.70141 30.7894 5.46121 30.6393 5.201C30.4892 4.94078 30.4892 4.92077 30.4291 4.80067C30.3641 4.68123 30.3073 4.5575 30.259 4.43036C30.208 4.29019 30.1678 4.14632 30.1389 4C30.1389 4 30.1389 4 30.0889 4H30.0388C28.164 5.15323 26.5843 6.72817 25.4254 8.59945C24.2665 10.4707 23.5604 12.5867 23.3633 14.779C23.5935 14.779 23.8136 14.779 24.0438 14.779C26.2123 14.7604 28.3252 15.4647 30.0488 16.7806C31.0737 17.5792 31.9308 18.5724 32.5709 19.7031C31.2085 18.7559 29.5426 18.3492 27.897 18.5621C34.0021 21.5646 33.3315 31.1926 26.5859 33.2343C25.5318 33.5479 24.4313 33.6765 23.3332 33.6146C22.4728 33.5774 21.6228 33.4121 20.8111 33.1242L20.2407 32.894L19.9104 32.7339L19.6302 32.5738L19.9004 32.7039H19.8503C18.952 32.237 18.137 31.625 17.4383 30.8924C16.2268 29.6694 15.4679 28.0704 15.2865 26.3586C15.2865 26.3586 16.1873 23.0158 21.7019 23.0158C22.7056 22.5964 23.5307 21.8386 24.0338 20.874C23.9638 20.6939 20.641 19.3628 19.3399 18.0817C18.6293 17.3911 18.3391 17.0809 17.9988 16.8006C17.6585 16.5204 17.6785 16.5404 17.4984 16.4203C17.0565 14.8755 17.0392 13.2402 17.4483 11.6864C15.6584 12.5563 14.0672 13.7863 12.7745 15.2994C12.6129 15.0726 12.4942 14.8183 12.4242 14.5488C12.1308 13.202 12.023 11.8214 12.1039 10.4454C11.8753 10.5347 11.6571 10.6488 11.4534 10.7856C10.7993 11.2674 10.1866 11.8031 9.62184 12.387C9.39164 12.6172 9.18147 12.8674 8.9713 13.1076C8.55622 13.5743 8.16538 14.062 7.80032 14.5688C6.55041 16.3343 5.66571 18.3316 5.19816 20.4437C5.02316 21.2263 4.89284 22.0182 4.80783 22.8156C4.71374 23.342 4.65025 23.8733 4.61768 24.407C4.61768 24.407 4.61768 24.467 4.61768 24.497V24.5971C4.6185 29.4582 6.44367 34.142 9.73215 37.7219C13.0206 41.3019 17.5329 43.5173 22.3765 43.9299C27.22 44.3426 32.042 42.9224 35.8887 39.9503C39.7354 36.9782 42.3266 32.6707 43.1497 27.8799L43.2398 27.1292C43.6362 23.8256 43.2028 20.4752 41.9787 17.3811Z" fill="black"/>
</svg>
