<svg width="48" height="48" viewBox="0 0 48 48" fill="none" xmlns="http://www.w3.org/2000/svg">
<path d="M34.395 5.33C31.3433 6.50008 27.9666 6.50008 24.915 5.33C21.494 4.02341 17.7599 3.77261 14.195 4.61C13.7572 4.28889 13.2278 4.1171 12.685 4.12C12.1385 4.12071 11.6063 4.29423 11.1644 4.61574C10.7226 4.93725 10.3937 5.39028 10.225 5.91L10.085 6V41.4C10.085 42.0896 10.3589 42.7509 10.8465 43.2385C11.3341 43.7261 11.9954 44 12.685 44C13.3745 44 14.0358 43.7261 14.5234 43.2385C15.011 42.7509 15.285 42.0896 15.285 41.4V24.14C17.8766 23.5248 20.5931 23.6989 23.085 24.64C27.3178 26.2645 32.0021 26.2645 36.235 24.64L37.915 24V4L34.395 5.33Z" fill="black"/>
</svg>
