<svg width="48" height="48" viewBox="0 0 48 48" fill="none" xmlns="http://www.w3.org/2000/svg">
<path d="M35.6324 5.20813C32.0457 6.5919 28.0725 6.5919 24.4858 5.20813C20.8459 3.81523 16.8551 3.62652 13.1 4.66974C12.943 4.40967 12.7049 4.20837 12.4224 4.09682C12.1398 3.98527 11.8285 3.96965 11.5362 4.05235C11.2439 4.13505 10.9869 4.31151 10.8046 4.55456C10.6224 4.79761 10.5251 5.0938 10.5277 5.39756V42.4863C10.5114 42.6789 10.5352 42.8727 10.5977 43.0556C10.6602 43.2384 10.76 43.4063 10.8907 43.5486C11.0214 43.6909 11.1803 43.8045 11.3572 43.8822C11.5342 43.9599 11.7253 44 11.9185 44C12.1118 44 12.3029 43.9599 12.4798 43.8822C12.6567 43.8045 12.8156 43.6909 12.9463 43.5486C13.0771 43.4063 13.1768 43.2384 13.2393 43.0556C13.3018 42.8727 13.3257 42.6789 13.3093 42.4863V22.9449C16.6415 21.9012 20.2286 22.0136 23.4888 23.264C27.7016 24.8861 32.3667 24.8861 36.5796 23.264L37.4769 22.925V4.50025L35.6324 5.20813ZM34.7351 20.9509C31.3849 22.0206 27.7704 21.9186 24.4858 20.6618C22.4027 19.8705 20.1938 19.4619 17.9654 19.4554C16.3935 19.455 14.8284 19.6595 13.3093 20.0636V7.50125C16.6411 6.45975 20.2263 6.56861 23.4888 7.81032C27.0672 9.18743 30.9888 9.40026 34.6952 8.4185L34.7351 20.9509Z" fill="black"/>
</svg>
