<svg width="48" height="48" viewBox="0 0 48 48" fill="none" xmlns="http://www.w3.org/2000/svg">
<path d="M35.6326 5.20813C32.046 6.5919 28.0728 6.5919 24.4861 5.20813C20.8461 3.81523 16.8554 3.62652 13.1002 4.66974C12.9433 4.40967 12.7052 4.20837 12.4226 4.09682C12.1401 3.98527 11.8287 3.96965 11.5364 4.05235C11.2441 4.13505 10.9871 4.31151 10.8049 4.55456C10.6227 4.79761 10.5254 5.0938 10.5279 5.39756V42.4863C10.5116 42.6789 10.5355 42.8727 10.5979 43.0556C10.6604 43.2384 10.7602 43.4063 10.8909 43.5486C11.0217 43.6909 11.1806 43.8045 11.3575 43.8822C11.5344 43.9599 11.7255 44 11.9188 44C12.112 44 12.3031 43.9599 12.4801 43.8822C12.657 43.8045 12.8158 43.6909 12.9466 43.5486C13.0773 43.4063 13.1771 43.2384 13.2396 43.0556C13.3021 42.8727 13.3259 42.6789 13.3096 42.4863V22.9449C16.6418 21.9012 20.2288 22.0136 23.4891 23.264C27.7019 24.8861 32.367 24.8861 36.5798 23.264L37.4771 22.925V4.50025L35.6326 5.20813Z" fill="black"/>
</svg>
