<svg width="48" height="48" viewBox="0 0 48 48" fill="none" xmlns="http://www.w3.org/2000/svg">
<path d="M41.2701 13.37H20.6L17.0001 9C16.7488 8.68996 16.4319 8.43947 16.0723 8.26656C15.7126 8.09365 15.3191 8.00261 14.9201 8H6.73005C5.99447 8.01315 5.2941 8.31735 4.78238 8.84593C4.27067 9.37451 3.98935 10.0844 4.00005 10.82V37.91C3.98935 38.6456 4.27067 39.3555 4.78238 39.8841C5.2941 40.4127 5.99447 40.7168 6.73005 40.73H41.2701C42.0056 40.7168 42.706 40.4127 43.2177 39.8841C43.7294 39.3555 44.0108 38.6456 44 37.91V16.19C44.0108 15.4544 43.7294 14.7445 43.2177 14.2159C42.706 13.6873 42.0056 13.3832 41.2701 13.37Z" fill="black"/>
</svg>
