<svg width="48" height="48" viewBox="0 0 48 48" fill="none" xmlns="http://www.w3.org/2000/svg">
<path d="M6.79373 26.3427V12.9851H12.8581L15.9952 16.7815C16.1971 17.0265 16.4502 17.2241 16.7368 17.3605C17.0233 17.4969 17.3363 17.5687 17.6537 17.5708H35.0376V20.0385H37.8251V17.0413C37.8331 16.4538 37.6088 15.8869 37.2009 15.464C36.7929 15.0411 36.2345 14.7965 35.6471 14.7834H17.9334L14.8263 10.9869C14.6245 10.742 14.3714 10.5443 14.0848 10.408C13.7982 10.2716 13.4852 10.1998 13.1678 10.1976H6.1743C5.88434 10.2028 5.59823 10.2651 5.33234 10.3809C5.06644 10.4967 4.82596 10.6637 4.62464 10.8725C4.42331 11.0812 4.26508 11.3276 4.15899 11.5975C4.05289 11.8674 4.00101 12.1556 4.00631 12.4456V32.0474L6.79373 26.3427Z" fill="black"/>
<path d="M35.8569 37.8021H6.1843C5.81511 37.8076 5.45063 37.7187 5.12542 37.5439C4.80021 37.369 4.52505 37.114 4.32601 36.8031C4.13364 36.5091 4.02219 36.1695 4.00289 35.8187C3.9836 35.4679 4.05714 35.1182 4.21611 34.8049L10.1506 22.6361C10.3365 22.2672 10.6225 21.9582 10.9759 21.7444C11.3293 21.5306 11.7358 21.4206 12.1488 21.4273H41.8214C42.1916 21.4238 42.5567 21.5135 42.8832 21.6881C43.2096 21.8627 43.487 22.1165 43.6896 22.4263C43.874 22.7237 43.9798 23.0631 43.9973 23.4125C44.0148 23.762 43.9433 24.1102 43.7896 24.4245L37.8251 36.6032C37.641 36.9664 37.3593 37.271 37.0116 37.4828C36.6639 37.6946 36.264 37.8052 35.8569 37.8021ZM7.21334 35.0147H35.4972L40.7623 24.1847H12.4785L7.21334 35.0147Z" fill="black"/>
</svg>
