<svg width="48" height="48" viewBox="0 0 48 48" fill="none" xmlns="http://www.w3.org/2000/svg">
<path d="M41.2701 13.37H20.6L17.0001 9C16.7488 8.68996 16.4319 8.43947 16.0723 8.26656C15.7126 8.09365 15.3191 8.00261 14.9201 8H6.73005C5.99447 8.01315 5.2941 8.31735 4.78238 8.84593C4.27067 9.37451 3.98935 10.0844 4.00005 10.82V37.91C3.98935 38.6456 4.27067 39.3555 4.78238 39.8841C5.2941 40.4127 5.99447 40.7168 6.73005 40.73H41.2701C42.0056 40.7168 42.706 40.4127 43.2177 39.8841C43.7294 39.3555 44.0108 38.6456 44 37.91V16.19C44.0108 15.4544 43.7294 14.7445 43.2177 14.2159C42.706 13.6873 42.0056 13.3832 41.2701 13.37ZM29 28.87H25.82V32.05C25.82 32.5327 25.6283 32.9956 25.287 33.3369C24.9457 33.6783 24.4827 33.87 24 33.87C23.5174 33.87 23.0544 33.6783 22.7131 33.3369C22.3718 32.9956 22.18 32.5327 22.18 32.05V28.87H19.0001C18.5174 28.87 18.0544 28.6783 17.7131 28.3369C17.3718 27.9956 17.1801 27.5327 17.1801 27.05C17.1801 26.5673 17.3718 26.1044 17.7131 25.7631C18.0544 25.4217 18.5174 25.23 19.0001 25.23H22.18V22.05C22.18 21.5673 22.3718 21.1044 22.7131 20.7631C23.0544 20.4217 23.5174 20.23 24 20.23C24.4827 20.23 24.9457 20.4217 25.287 20.7631C25.6283 21.1044 25.82 21.5673 25.82 22.05V25.23H29C29.4827 25.23 29.9457 25.4217 30.287 25.7631C30.6283 26.1044 30.82 26.5673 30.82 27.05C30.82 27.5327 30.6283 27.9956 30.287 28.3369C29.9457 28.6783 29.4827 28.87 29 28.87Z" fill="black"/>
</svg>
