<svg width="48" height="48" viewBox="0 0 48 48" fill="none" xmlns="http://www.w3.org/2000/svg">
<path d="M8.42161 21.6694C8.79277 20.927 9.36412 20.3032 10.0711 19.8684C10.7781 19.4336 11.5926 19.2051 12.4226 19.2088H38.0093V17.2083C38.0146 16.8641 37.952 16.5223 37.8252 16.2023C37.6983 15.8823 37.5097 15.5904 37.2701 15.3434C37.0304 15.0963 36.7445 14.8988 36.4285 14.7623C36.1125 14.6257 35.7728 14.5528 35.4286 14.5476H18.2942L15.3934 10.9766C15.1523 10.6793 14.8472 10.4404 14.5008 10.2776C14.1544 10.1147 13.7756 10.0323 13.3929 10.0364H6.58113C6.23697 10.0416 5.8972 10.1146 5.58124 10.2511C5.26527 10.3877 4.9793 10.5851 4.73966 10.8322C4.50001 11.0793 4.31139 11.3711 4.18456 11.6911C4.05772 12.0111 3.99517 12.3529 4.00046 12.6971V30.7018L8.42161 21.6694Z" fill="black"/>
<path d="M43.6307 22.2396C43.396 21.8669 43.0694 21.5607 42.6823 21.3506C42.2952 21.1404 41.8606 21.0332 41.4202 21.0393H12.4126C11.9281 21.0363 11.4526 21.1699 11.0404 21.4246C10.6283 21.6793 10.2961 22.045 10.082 22.4796L4.25053 34.3627C4.06594 34.739 3.98097 35.1564 4.00374 35.575C4.02651 35.9935 4.15625 36.3992 4.38056 36.7533C4.61624 37.1259 4.94276 37.4324 5.32945 37.6441C5.71613 37.8559 6.15029 37.9658 6.59114 37.9636H35.5986C36.0827 37.9642 36.5573 37.8297 36.969 37.5752C37.3807 37.3208 37.7133 36.9564 37.9293 36.5233L43.7408 24.6202C43.9284 24.2473 44.0168 23.8324 43.9975 23.4155C43.9783 22.9985 43.8519 22.5935 43.6307 22.2396Z" fill="black"/>
</svg>
