<svg width="48" height="48" viewBox="0 0 48 48" fill="none" xmlns="http://www.w3.org/2000/svg">
<path d="M41.67 40.56H6.32998C5.70048 40.5469 5.10184 40.2848 4.66514 39.8312C4.22844 39.3777 3.98926 38.7695 3.99998 38.14V10.42C3.98926 9.79046 4.22844 9.18232 4.66514 8.72875C5.10184 8.27518 5.70048 8.01314 6.32998 8H14.71C15.0496 8.00157 15.3846 8.07866 15.6907 8.22567C15.9968 8.37268 16.2664 8.58594 16.48 8.85L20.3 13.49H41.67C41.9825 13.4965 42.2908 13.5645 42.577 13.6902C42.8633 13.8158 43.122 13.9966 43.3384 14.2223C43.5548 14.448 43.7246 14.714 43.8381 15.0053C43.9516 15.2966 44.0066 15.6074 44 15.92V38.14C44.0107 38.7695 43.7715 39.3777 43.3348 39.8312C42.8981 40.2848 42.2995 40.5469 41.67 40.56ZM6.78998 37.77H41.21V16.28H20.05C19.7111 16.2803 19.3763 16.2051 19.0702 16.0598C18.764 15.9145 18.494 15.7028 18.28 15.44L14.46 10.79H6.78998V37.77Z" fill="black"/>
<path d="M28.65 28.42H19.35C19.1569 28.4364 18.9624 28.4125 18.779 28.3498C18.5956 28.2871 18.4272 28.187 18.2845 28.0559C18.1418 27.9248 18.0279 27.7654 17.9499 27.588C17.872 27.4105 17.8318 27.2188 17.8318 27.025C17.8318 26.8312 17.872 26.6395 17.9499 26.462C18.0279 26.2846 18.1418 26.1252 18.2845 25.9941C18.4272 25.863 18.5956 25.7629 18.779 25.7002C18.9624 25.6375 19.1569 25.6136 19.35 25.63H28.65C28.8431 25.6136 29.0375 25.6375 29.2209 25.7002C29.4043 25.7629 29.5727 25.863 29.7154 25.9941C29.8581 26.1252 29.9721 26.2846 30.05 26.462C30.128 26.6395 30.1682 26.8312 30.1682 27.025C30.1682 27.2188 30.128 27.4105 30.05 27.588C29.9721 27.7654 29.8581 27.9248 29.7154 28.0559C29.5727 28.187 29.4043 28.2871 29.2209 28.3498C29.0375 28.4125 28.8431 28.4364 28.65 28.42Z" fill="black"/>
</svg>
