<svg width="48" height="48" viewBox="0 0 48 48" fill="none" xmlns="http://www.w3.org/2000/svg">
<path d="M25.6965 24.6954H38.5863C38.871 24.6928 39.1525 24.6341 39.4146 24.5227C39.6766 24.4113 39.9142 24.2494 40.1137 24.0461C40.3132 23.8429 40.4707 23.6024 40.5772 23.3383C40.6838 23.0742 40.7372 22.7917 40.7346 22.507V14.4057C40.7373 13.8323 40.5127 13.2812 40.1101 12.873C39.7075 12.4647 39.1596 12.2325 38.5863 12.2272H31.4085L30.4047 11.0025C30.204 10.7598 29.9526 10.5639 29.6682 10.4286C29.3838 10.2934 29.0732 10.222 28.7583 10.2195H25.6965C25.4117 10.2221 25.1303 10.2808 24.8682 10.3922C24.6061 10.5036 24.3685 10.6655 24.169 10.8688C23.9696 11.072 23.812 11.3125 23.7055 11.5766C23.599 11.8407 23.5455 12.1232 23.5482 12.4079V14.747H12.6962V6.55533C12.6542 5.86368 12.3498 5.21415 11.8451 4.73928C11.3405 4.26441 10.6737 4 9.98075 4C9.28782 4 8.62101 4.26441 8.11637 4.73928C7.61174 5.21415 7.30733 5.86368 7.26526 6.55533V35.3968C7.26792 36.4786 7.69956 37.5153 8.4655 38.2794C9.23145 39.0434 10.2692 39.4725 11.351 39.4725H23.5482V41.8115C23.5455 42.0963 23.599 42.3788 23.7055 42.6429C23.812 42.907 23.9696 43.1475 24.169 43.3507C24.3685 43.5539 24.6061 43.7159 24.8682 43.8273C25.1303 43.9387 25.4117 43.9974 25.6965 44H38.5863C38.871 43.9974 39.1525 43.9387 39.4146 43.8273C39.6766 43.7159 39.9142 43.5539 40.1137 43.3507C40.3132 43.1475 40.4707 42.907 40.5772 42.6429C40.6838 42.3788 40.7372 42.0963 40.7346 41.8115V33.7102C40.7373 33.1369 40.5127 32.5858 40.1101 32.1775C39.7075 31.7693 39.1596 31.5371 38.5863 31.5318H31.4085L30.4047 30.3071C30.2084 30.0619 29.9593 29.8642 29.676 29.7286C29.3927 29.593 29.0824 29.5231 28.7683 29.5241H25.6965C25.4117 29.5267 25.1303 29.5854 24.8682 29.6968C24.6061 29.8082 24.3685 29.9701 24.169 30.1733C23.9696 30.3766 23.812 30.6171 23.7055 30.8812C23.599 31.1453 23.5455 31.4278 23.5482 31.7125V34.0516H12.6962V20.178H23.5482V22.507C23.5455 22.7917 23.599 23.0742 23.7055 23.3383C23.812 23.6024 23.9696 23.8429 24.169 24.0461C24.3685 24.2494 24.6061 24.4113 24.8682 24.5227C25.1303 24.6341 25.4117 24.6928 25.6965 24.6954Z" fill="black"/>
</svg>
