<svg width="48" height="48" viewBox="0 0 48 48" fill="none" xmlns="http://www.w3.org/2000/svg">
<path d="M41.67 40.56H6.32998C5.70048 40.5469 5.10184 40.2848 4.66514 39.8312C4.22844 39.3777 3.98926 38.7695 3.99998 38.14V10.42C3.98926 9.79046 4.22844 9.18232 4.66514 8.72875C5.10184 8.27518 5.70048 8.01314 6.32998 8H14.71C15.0496 8.00157 15.3846 8.07866 15.6907 8.22567C15.9968 8.37268 16.2664 8.58594 16.48 8.85L20.3 13.49H41.67C41.9825 13.4965 42.2908 13.5645 42.577 13.6902C42.8633 13.8158 43.122 13.9966 43.3384 14.2223C43.5548 14.448 43.7246 14.714 43.8381 15.0053C43.9516 15.2966 44.0066 15.6074 44 15.92V38.14C44.0107 38.7695 43.7715 39.3777 43.3348 39.8312C42.8981 40.2848 42.2995 40.5469 41.67 40.56ZM6.78998 37.77H41.21V16.28H20.05C19.7111 16.2803 19.3763 16.2051 19.0702 16.0598C18.764 15.9145 18.494 15.7028 18.28 15.44L14.46 10.79H6.78998V37.77Z" fill="black"/>
<path d="M26 27L29.67 23.33C29.9352 23.0648 30.0842 22.7051 30.0842 22.33C30.0842 21.9549 29.9352 21.5952 29.67 21.33C29.4048 21.0648 29.0451 20.9158 28.67 20.9158C28.2949 20.9158 27.9352 21.0648 27.67 21.33L24 25.05L20.34 21.39C20.0748 21.1248 19.7151 20.9758 19.34 20.9758C18.9649 20.9758 18.6052 21.1248 18.34 21.39C18.0748 21.6552 17.9258 22.0149 17.9258 22.39C17.9258 22.7651 18.0748 23.1248 18.34 23.39L22 27L18.33 30.66C18.1969 30.7904 18.0912 30.9459 18.0191 31.1177C17.9469 31.2894 17.9098 31.4737 17.9098 31.66C17.9098 31.8463 17.9469 32.0306 18.0191 32.2023C18.0912 32.3741 18.1969 32.5296 18.33 32.66C18.4598 32.7931 18.6155 32.8981 18.7875 32.9686C18.9595 33.0391 19.1441 33.0736 19.33 33.07C19.5157 33.0725 19.7 33.0374 19.8718 32.967C20.0436 32.8965 20.1995 32.7921 20.33 32.66L24 29L27.66 32.66C27.7905 32.7921 27.9463 32.8965 28.1182 32.967C28.29 33.0374 28.4743 33.0725 28.66 33.07C28.8458 33.0736 29.0305 33.0391 29.2025 32.9686C29.3745 32.8981 29.5302 32.7931 29.66 32.66C29.793 32.5296 29.8987 32.3741 29.9709 32.2023C30.043 32.0306 30.0802 31.8463 30.0802 31.66C30.0802 31.4737 30.043 31.2894 29.9709 31.1177C29.8987 30.9459 29.793 30.7904 29.66 30.66L26 27Z" fill="black"/>
</svg>
