<svg width="48" height="48" viewBox="0 0 48 48" fill="none" xmlns="http://www.w3.org/2000/svg">
<path d="M41.67 40.56H6.32998C5.70048 40.5469 5.10184 40.2848 4.66514 39.8312C4.22844 39.3777 3.98926 38.7695 3.99998 38.14V10.42C3.98926 9.79046 4.22844 9.18232 4.66514 8.72875C5.10184 8.27518 5.70048 8.01314 6.32998 8H14.71C15.0496 8.00157 15.3846 8.07866 15.6907 8.22567C15.9968 8.37268 16.2664 8.58594 16.48 8.85L20.3 13.49H41.67C41.9825 13.4965 42.2908 13.5645 42.577 13.6902C42.8633 13.8158 43.122 13.9966 43.3384 14.2223C43.5548 14.448 43.7246 14.714 43.8381 15.0053C43.9516 15.2966 44.0066 15.6074 44 15.92V38.14C44.0107 38.7695 43.7715 39.3777 43.3348 39.8312C42.8981 40.2848 42.2995 40.5469 41.67 40.56ZM6.78998 37.77H41.21V16.28H20.05C19.7111 16.2803 19.3763 16.2051 19.0702 16.0598C18.764 15.9145 18.494 15.7028 18.28 15.44L14.46 10.79H6.78998V37.77Z" fill="black"/>
<path d="M29.12 25.63H25.4V21.91C25.4 21.5387 25.2525 21.1826 24.9899 20.9201C24.7274 20.6575 24.3713 20.51 24 20.51C23.6287 20.51 23.2726 20.6575 23.01 20.9201C22.7475 21.1826 22.6 21.5387 22.6 21.91V25.63H18.88C18.5304 25.6596 18.2047 25.8194 17.9673 26.0778C17.7299 26.3361 17.5982 26.6742 17.5982 27.025C17.5982 27.3758 17.7299 27.7139 17.9673 27.9722C18.2047 28.2306 18.5304 28.3904 18.88 28.42H22.6V32.14C22.6 32.5113 22.7475 32.8674 23.01 33.1299C23.2726 33.3925 23.6287 33.54 24 33.54C24.3713 33.54 24.7274 33.3925 24.9899 33.1299C25.2525 32.8674 25.4 32.5113 25.4 32.14V28.42H29.12C29.4696 28.3904 29.7953 28.2306 30.0327 27.9722C30.27 27.7139 30.4018 27.3758 30.4018 27.025C30.4018 26.6742 30.27 26.3361 30.0327 26.0778C29.7953 25.8194 29.4696 25.6596 29.12 25.63Z" fill="black"/>
</svg>
