<svg width="48" height="48" viewBox="0 0 48 48" fill="none" xmlns="http://www.w3.org/2000/svg">
<path d="M41.2701 13.37H20.6L17.0001 9C16.7488 8.68996 16.4319 8.43947 16.0723 8.26656C15.7126 8.09365 15.3191 8.00261 14.9201 8H6.73005C5.99447 8.01315 5.2941 8.31735 4.78238 8.84593C4.27067 9.37451 3.98935 10.0844 4.00005 10.82V37.91C3.98935 38.6456 4.27067 39.3555 4.78238 39.8841C5.2941 40.4127 5.99447 40.7168 6.73005 40.73H41.2701C42.0056 40.7168 42.706 40.4127 43.2177 39.8841C43.7294 39.3555 44.0108 38.6456 44 37.91V16.19C44.0108 15.4544 43.7294 14.7445 43.2177 14.2159C42.706 13.6873 42.0056 13.3832 41.2701 13.37ZM29.83 30.31C30.0818 30.5645 30.2529 30.8875 30.322 31.2388C30.3911 31.59 30.3551 31.9538 30.2185 32.2847C30.0819 32.6155 29.8507 32.8988 29.554 33.0989C29.2572 33.2991 28.908 33.4073 28.55 33.41C28.0672 33.4095 27.6038 33.2191 27.26 32.88L24 29.62L20.74 32.88C20.3963 33.2191 19.9329 33.4095 19.4501 33.41C19.0921 33.4073 18.7429 33.2991 18.4461 33.0989C18.1494 32.8988 17.9182 32.6155 17.7816 32.2847C17.645 31.9538 17.609 31.59 17.6781 31.2388C17.7472 30.8875 17.9183 30.5645 18.1701 30.31L21.43 27.05L18.1701 23.79C17.9858 23.6249 17.8371 23.424 17.7331 23.1995C17.6291 22.975 17.572 22.7317 17.5652 22.4844C17.5584 22.237 17.6021 21.9909 17.6937 21.7611C17.7852 21.5312 17.9226 21.3225 18.0976 21.1475C18.2725 20.9726 18.4813 20.8352 18.7111 20.7436C18.941 20.6521 19.1871 20.6084 19.4344 20.6152C19.6817 20.6219 19.9251 20.6791 20.1495 20.7831C20.374 20.8871 20.575 21.0357 20.74 21.22L24 24.48L27.26 21.22C27.4251 21.0357 27.6261 20.8871 27.8506 20.7831C28.075 20.6791 28.3184 20.6219 28.5657 20.6152C28.813 20.6084 29.0591 20.6521 29.289 20.7436C29.5188 20.8352 29.7276 20.9726 29.9025 21.1475C30.0775 21.3225 30.2149 21.5312 30.3064 21.7611C30.398 21.9909 30.4417 22.237 30.4349 22.4844C30.4281 22.7317 30.371 22.975 30.267 23.1995C30.163 23.424 30.0143 23.6249 29.83 23.79L26.57 27.05L29.83 30.31Z" fill="black"/>
</svg>
