<svg width="48" height="48" viewBox="0 0 48 48" fill="none" xmlns="http://www.w3.org/2000/svg">
<path d="M25.3085 23.9197H38.7185C39.1849 23.9067 39.6276 23.7116 39.9519 23.3761C40.2761 23.0407 40.4561 22.5916 40.4534 22.1251V13.6902C40.456 13.2186 40.2719 12.7651 39.9412 12.4288C39.6105 12.0925 39.1602 11.9008 38.6886 11.8955H31.0215L29.845 10.4498C29.6796 10.2505 29.4724 10.09 29.2381 9.97971C29.0037 9.86943 28.748 9.81209 28.489 9.81174H25.3085C25.0707 9.80907 24.8349 9.85393 24.6147 9.94367C24.3946 10.0334 24.1946 10.1662 24.0265 10.3344C23.8583 10.5025 23.7255 10.7025 23.6358 10.9226C23.546 11.1428 23.5012 11.3786 23.5038 11.6164V15.4549H10.373V5.53449C10.3894 5.33925 10.3651 5.14273 10.3017 4.95735C10.2382 4.77198 10.137 4.60179 10.0044 4.45756C9.87179 4.31333 9.71069 4.19819 9.53129 4.11943C9.35189 4.04067 9.1581 4 8.96217 4C8.76624 4 8.57245 4.04067 8.39304 4.11943C8.21364 4.19819 8.05254 4.31333 7.91994 4.45756C7.78733 4.60179 7.6861 4.77198 7.62266 4.95735C7.55922 5.14273 7.53494 5.33925 7.55137 5.53449V35.5251C7.554 36.2753 7.85317 36.994 8.38362 37.5245C8.91407 38.0549 9.63277 38.3541 10.3829 38.3567H23.5038V42.1953C23.5012 42.433 23.546 42.6689 23.6358 42.889C23.7255 43.1092 23.8583 43.3092 24.0265 43.4773C24.1946 43.6454 24.3946 43.7782 24.6147 43.868C24.8349 43.9577 25.0707 44.0026 25.3085 43.9999H38.7185C39.1866 43.9868 39.6308 43.7903 39.9554 43.4527C40.2799 43.1151 40.4588 42.6635 40.4534 42.1953V33.7704C40.456 33.2987 40.2719 32.8452 39.9412 32.509C39.6105 32.1727 39.1602 31.981 38.6886 31.9757H31.0215L29.835 30.52C29.6707 30.3228 29.4648 30.1642 29.2322 30.0556C28.9995 29.947 28.7457 29.8911 28.489 29.8919H25.3085C25.0716 29.8893 24.8365 29.9338 24.6171 30.0229C24.3976 30.1121 24.198 30.244 24.03 30.411C23.8621 30.5781 23.729 30.7769 23.6387 30.9959C23.5483 31.2149 23.5025 31.4497 23.5038 31.6866V35.5351H10.373V18.2765H23.5038V22.1251C23.5025 22.362 23.5483 22.5967 23.6387 22.8157C23.729 23.0347 23.8621 23.2335 24.03 23.4006C24.198 23.5676 24.3976 23.6996 24.6171 23.7887C24.8365 23.8778 25.0716 23.9224 25.3085 23.9197ZM26.3653 32.7135H27.9805L29.167 34.1592C29.3317 34.3567 29.5374 34.5161 29.7698 34.6263C30.0022 34.7365 30.2558 34.7948 30.513 34.7973H37.6617V41.1783H26.3653V32.7135ZM26.3653 12.6333H27.9805L29.167 14.089C29.3317 14.2865 29.5374 14.4459 29.7698 14.5561C30.0022 14.6663 30.2558 14.7246 30.513 14.7271H37.6617V21.0682H26.3653V12.6333Z" fill="black"/>
</svg>
