<svg width="48" height="48" viewBox="0 0 48 48" fill="none" xmlns="http://www.w3.org/2000/svg">
<path d="M8.00031 41.9995C7.67626 41.9993 7.3571 41.9204 7.07031 41.7697C6.74759 41.6004 6.47733 41.3461 6.28875 41.0345C6.10017 40.7228 6.00043 40.3656 6.00031 40.0015V8.03341C5.99364 7.65724 6.09342 7.28683 6.28816 6.96481C6.48291 6.64279 6.76471 6.38225 7.10114 6.21316C7.43756 6.04407 7.81494 5.97331 8.18984 6.00902C8.56475 6.04473 8.92194 6.18547 9.22031 6.41503L31.7903 22.3491C32.0566 22.5385 32.2736 22.7887 32.4234 23.0789C32.5732 23.3691 32.6514 23.6909 32.6514 24.0174C32.6514 24.344 32.5732 24.6657 32.4234 24.956C32.2736 25.2462 32.0566 25.4964 31.7903 25.6858L9.22031 41.6198C8.86614 41.8763 8.43759 42.0096 8.00031 41.9995ZM8.77031 9.48196V38.5529L29.3503 24.0174L8.77031 9.48196Z" fill="black"/>
<path d="M40.2503 41.9995H37.2503C36.787 41.9968 36.3434 41.8118 36.0158 41.4845C35.6882 41.1572 35.5029 40.7141 35.5003 40.2512V7.78366C35.5016 7.55106 35.5491 7.32103 35.64 7.10689C35.7309 6.89275 35.8634 6.69876 36.0299 6.53616C36.1964 6.37355 36.3935 6.24557 36.6099 6.15961C36.8262 6.07365 37.0575 6.03144 37.2903 6.03541H40.2903C40.7467 6.04836 41.1801 6.23794 41.4991 6.56413C41.8182 6.89032 41.9979 7.3276 42.0003 7.78366V40.2512C41.9977 40.7141 41.8125 41.1572 41.4848 41.4845C41.1572 41.8118 40.7136 41.9968 40.2503 41.9995ZM38.3103 39.2322H39.2303V8.80264H38.3103V39.2322Z" fill="black"/>
</svg>
