<svg width="48" height="48" viewBox="0 0 48 48" fill="none" xmlns="http://www.w3.org/2000/svg">
<path d="M31.85 21.9999L9.85002 6.44994C9.48576 6.1893 9.05608 6.03533 8.60919 6.0053C8.16229 5.97527 7.71587 6.07038 7.32002 6.27994C6.92277 6.48393 6.58941 6.79344 6.35655 7.17448C6.12368 7.55553 6.00033 7.99338 6.00002 8.43994V39.5599C5.9987 39.8807 6.06091 40.1986 6.18306 40.4953C6.30521 40.7919 6.48489 41.0614 6.71173 41.2882C6.93857 41.5151 7.20808 41.6947 7.50471 41.8169C7.80134 41.9391 8.11923 42.0013 8.44002 41.9999C8.94559 42.0015 9.43886 41.8441 9.85002 41.5499L31.85 25.9999C32.1719 25.775 32.4347 25.4758 32.6161 25.1276C32.7976 24.7794 32.8923 24.3926 32.8923 23.9999C32.8923 23.6073 32.7976 23.2205 32.6161 22.8723C32.4347 22.5241 32.1719 22.2249 31.85 21.9999Z" fill="black"/>
<path d="M39.84 5.99994H36.96C35.7671 5.99994 34.8 6.96701 34.8 8.15994V39.8399C34.8 41.0329 35.7671 41.9999 36.96 41.9999H39.84C41.033 41.9999 42 41.0329 42 39.8399V8.15994C42 6.96701 41.033 5.99994 39.84 5.99994Z" fill="black"/>
</svg>
