<svg width="48" height="48" viewBox="0 0 48 48" fill="none" xmlns="http://www.w3.org/2000/svg">
<path d="M39.6745 13.1663H38.7886C39.116 11.9516 39.0291 10.6635 38.5414 9.50293C38.0537 8.34238 37.1927 7.37463 36.0927 6.75066C34.9927 6.12668 33.7156 5.88155 32.4605 6.05351C31.2053 6.22548 30.0429 6.80486 29.1544 7.70128L24 12.8366L18.8255 7.70128C17.935 6.81496 16.775 6.24449 15.525 6.07809C14.275 5.9117 13.0045 6.15864 11.9101 6.78075C10.8157 7.40285 9.95831 8.36545 9.4705 9.51969C8.98268 10.6739 8.89162 11.9555 9.21141 13.1663H8.3255C7.70874 13.1663 7.11724 13.4094 6.68112 13.8423C6.24501 14.2751 6 14.8621 6 15.4742L6 22.6277C6 22.9303 6.06022 23.2299 6.17721 23.5094C6.2942 23.7888 6.46566 24.0426 6.68173 24.2561C6.89781 24.4696 7.15425 24.6386 7.43633 24.7535C7.71842 24.8684 8.02059 24.9269 8.3255 24.9256H10.0872V38.7729C10.0872 39.6288 10.4298 40.4496 11.0396 41.0548C11.6495 41.66 12.4765 42 13.3389 42H34.651C35.5134 42 36.3405 41.66 36.9503 41.0548C37.5601 40.4496 37.9027 39.6288 37.9027 38.7729V24.9256H39.6745C40.2895 24.9256 40.8795 24.6838 41.3153 24.2531C41.7512 23.8225 41.9973 23.238 42 22.6277V15.4742C41.9974 14.8629 41.7515 14.2774 41.316 13.8452C40.8804 13.4129 40.2904 13.1689 39.6745 13.1663ZM31.1678 9.6595C31.6754 9.16557 32.3447 8.86874 33.0541 8.82292C33.7635 8.7771 34.4659 8.98534 35.0337 9.4098C35.6015 9.83427 35.9971 10.4468 36.1486 11.1361C36.3 11.8254 36.1973 12.5458 35.8591 13.1663H27.6141L31.1678 9.6595ZM12.6745 9.6595C13.2377 9.11927 13.9903 8.81729 14.7735 8.81729C15.5567 8.81729 16.3093 9.11927 16.8725 9.6595L20.406 13.1663H12.151C11.8486 12.6045 11.7343 11.9618 11.8248 11.3312C11.9154 10.7007 12.2059 10.1151 12.6544 9.6595H12.6745ZM12.896 38.7729V24.9256H22.6208V39.2325H13.3389C13.2169 39.23 13.1006 39.1807 13.0143 39.0951C12.928 39.0095 12.8784 38.894 12.8758 38.7729H12.896ZM35.1443 38.7729C35.1417 38.8957 35.0907 39.0126 35.0022 39.0985C34.9138 39.1845 34.7949 39.2326 34.6711 39.2325H25.4094V24.9256H35.1443V38.7729ZM39.2215 22.1581H8.78859V15.9338H39.2215V22.1581Z" fill="black"/>
</svg>
