<svg width="48" height="48" viewBox="0 0 48 48" fill="none" xmlns="http://www.w3.org/2000/svg">
<path d="M26.2 27.5V42H34.51C35.4374 41.9947 36.3251 41.6226 36.979 40.9649C37.633 40.3072 38 39.4175 38 38.49V27.49L26.2 27.5Z" fill="black"/>
<path d="M22.69 27.5H10.86V38.5C10.8653 39.4284 11.2371 40.3171 11.8945 40.9726C12.5519 41.6281 13.4416 41.9974 14.37 42H22.69V27.5Z" fill="black"/>
<path d="M39.85 13.75C40.0548 12.3467 39.8124 10.9145 39.1572 9.65674C38.502 8.39897 37.4673 7.37952 36.2 6.74307C34.9326 6.10663 33.497 5.88553 32.0969 6.11115C30.6968 6.33677 29.4033 6.99766 28.4 8L24.4 12L20.4 8C19.1601 6.74312 17.4754 6.02469 15.71 6C14.8204 5.99933 13.9395 6.17583 13.1188 6.51922C12.2982 6.8626 11.5541 7.36599 10.93 8C10.1833 8.74234 9.6201 9.64861 9.28506 10.6468C8.95002 11.6449 8.85242 12.7075 9.00001 13.75C8.42811 13.8911 7.92014 14.2201 7.5575 14.6843C7.19485 15.1485 6.99854 15.721 7.00001 16.31V23.11C7 23.8084 7.27677 24.4784 7.76971 24.9732C8.26264 25.468 8.93157 25.7474 9.63001 25.75H39.25C39.9502 25.75 40.6217 25.4719 41.1168 24.9768C41.6119 24.4817 41.89 23.8102 41.89 23.11V16.31C41.8876 15.716 41.6848 15.1402 41.3147 14.6757C40.9445 14.2111 40.4285 13.885 39.85 13.75ZM34.23 11.75C34.4971 12.0076 34.6577 12.3562 34.6799 12.7266C34.7021 13.097 34.5844 13.4623 34.35 13.75H30.16L32.16 11.75C32.4313 11.474 32.7999 11.3153 33.1868 11.3078C33.5738 11.3003 33.9482 11.4447 34.23 11.71V11.75ZM14.66 11.7C14.9428 11.4298 15.3189 11.279 15.71 11.279C16.1011 11.279 16.4772 11.4298 16.76 11.7L18.76 13.7H14.54C14.3078 13.4114 14.1915 13.0466 14.2137 12.6768C14.2358 12.307 14.395 11.9588 14.66 11.7Z" fill="black"/>
</svg>
