<svg width="48" height="48" viewBox="0 0 48 48" fill="none" xmlns="http://www.w3.org/2000/svg">
<path fill-rule="evenodd" clip-rule="evenodd" d="M24.0151 4.58041C28.7548 4.56014 33.3461 6.23226 36.9627 9.29584C40.5792 12.3594 42.9835 16.6133 43.7429 21.2918C44.5022 25.9703 43.5668 30.7662 41.1048 34.8163C38.6429 38.8665 34.8162 41.9049 30.3134 43.3848C29.3184 43.5738 28.9503 42.9569 28.9503 42.3898C28.9503 41.8226 28.9503 39.5839 28.9503 36.9273C28.9996 36.2521 28.9054 35.574 28.6739 34.9378C28.4424 34.3016 28.0788 33.7216 27.607 33.2359C32.0347 32.7484 36.6912 31.0669 36.6912 23.4254C36.7207 21.447 35.9866 19.5334 34.6416 18.0823C35.2497 16.3634 35.1785 14.4771 34.4426 12.8089C34.4426 12.8089 32.8008 12.3015 28.9901 14.8685C25.7325 13.9835 22.2978 13.9835 19.0402 14.8685C15.2394 12.3015 13.5678 12.8288 13.5678 12.8288C12.8381 14.499 12.7705 16.3841 13.3788 18.1022C12.0205 19.5618 11.2821 21.4917 11.3192 23.4851C11.3192 31.1067 15.9657 32.8081 20.3835 33.3155C19.6593 34.0223 19.2112 34.9644 19.1198 35.9721C18.6321 36.2479 18.0944 36.4239 17.5381 36.49C16.9817 36.5562 16.4178 36.5111 15.879 36.3574C15.3402 36.2038 14.8373 35.9446 14.3996 35.5949C13.9618 35.2452 13.5979 34.812 13.329 34.3205C13.0094 33.7689 12.5681 33.2976 12.0388 32.9424C11.5094 32.5872 10.906 32.3575 10.2744 32.2708C10.2744 32.2708 8.3342 32.2708 10.1451 33.4847C11.2055 34.1574 11.9893 35.1883 12.3539 36.39C12.3539 36.39 13.5181 39.9023 19.0402 38.6984C19.0402 40.3998 19.0402 41.9321 19.0402 42.3898C19.0402 42.8475 18.682 43.5241 17.687 43.3848C13.1817 41.9042 9.35324 38.8633 6.89139 34.81C4.42954 30.7567 3.49618 25.9574 4.25947 21.2769C5.02276 16.5963 7.43251 12.3423 11.0546 9.28108C14.6766 6.2199 19.2729 4.5529 24.0151 4.58041ZM11.6574 33.1563C11.6574 33.2558 11.4485 33.2757 11.3092 33.216C11.1699 33.1563 11.0903 33.017 11.1301 32.9175C11.1699 32.818 11.3291 32.7882 11.4784 32.8479C11.6276 32.9076 11.6972 33.0568 11.6574 33.1563ZM12.4634 34.0518C12.399 34.0873 12.3238 34.0977 12.2522 34.0812C12.1806 34.0647 12.1177 34.0223 12.0753 33.9623C11.946 33.823 11.9161 33.6339 12.0156 33.5444C12.1151 33.4548 12.2942 33.4946 12.4236 33.6339C12.4798 33.6869 12.5148 33.7585 12.5221 33.8354C12.5294 33.9123 12.5086 33.9892 12.4634 34.0518ZM13.2395 35.1961C13.1201 35.2856 12.9211 35.1961 12.8017 35.0269C12.6823 34.8578 12.6723 34.6389 12.8017 34.5493C12.931 34.4598 13.1201 34.5493 13.2494 34.7185C13.3788 34.8876 13.3688 35.1065 13.2395 35.1961ZM14.3141 36.3005C14.2046 36.4298 13.9758 36.39 13.8066 36.2308C13.6375 36.0716 13.5877 35.8428 13.6972 35.7234C13.7742 35.6669 13.8703 35.6425 13.965 35.6555C14.0597 35.6685 14.1456 35.7178 14.2046 35.793C14.3837 35.9522 14.4335 36.1811 14.3141 36.3005ZM15.7966 36.9472C15.7966 37.1064 15.5279 37.1761 15.2991 37.1064C15.0702 37.0368 14.9309 36.8577 14.9807 36.6985C15.0304 36.5393 15.2493 36.4696 15.4782 36.5393C15.707 36.6089 15.8463 36.788 15.7966 36.9472ZM17.4284 37.0666C17.4284 37.2258 17.2393 37.3651 17.0105 37.3651C16.7816 37.3651 16.5727 37.2457 16.5727 37.0766C16.5727 36.9074 16.7617 36.7781 17.0005 36.7781C17.2393 36.7781 17.4284 36.9074 17.4284 37.0666ZM18.9407 36.8079C18.9407 36.9671 18.8114 37.1363 18.5726 37.1761C18.3338 37.2159 18.1248 37.1164 18.095 36.9572C18.0651 36.798 18.2343 36.6288 18.4731 36.589C18.7119 36.5492 18.9109 36.6487 18.9407 36.8079Z" fill="black"/>
</svg>
