<svg width="48" height="48" viewBox="0 0 48 48" fill="none" xmlns="http://www.w3.org/2000/svg">
<path fill-rule="evenodd" clip-rule="evenodd" d="M16.17 29.8C16.1409 29.8253 16.1036 29.8393 16.065 29.8393C16.0264 29.8393 15.9891 29.8253 15.96 29.8C15.86 29.8 15.81 29.67 15.84 29.61C15.8707 29.5839 15.9097 29.5696 15.95 29.5696C15.9903 29.5696 16.0293 29.5839 16.06 29.61C16.15 29.65 16.2 29.74 16.17 29.8ZM16.68 30.37C16.62 30.43 16.5 30.37 16.43 30.31C16.4125 30.2932 16.3985 30.273 16.389 30.2507C16.3794 30.2283 16.3745 30.2043 16.3745 30.18C16.3745 30.1557 16.3794 30.1317 16.389 30.1093C16.3985 30.087 16.4125 30.0668 16.43 30.05C16.49 30 16.6 30.05 16.69 30.11C16.78 30.17 16.75 30.31 16.68 30.37ZM17.18 31.1C17.1 31.1 16.98 31.1 16.9 30.99C16.82 30.88 16.82 30.74 16.9 30.69C16.98 30.64 17.1 30.69 17.18 30.79C17.26 30.89 17.26 31 17.18 31.1ZM17.86 31.8C17.8101 31.8331 17.7495 31.8464 17.6903 31.8371C17.6311 31.8279 17.5775 31.7968 17.54 31.75C17.43 31.65 17.4 31.5 17.46 31.43C17.52 31.36 17.68 31.37 17.79 31.48C17.84 31.5145 17.8751 31.5668 17.8881 31.6262C17.9011 31.6856 17.891 31.7477 17.86 31.8ZM18.8 32.21C18.8 32.3 18.63 32.35 18.48 32.31C18.33 32.27 18.25 32.15 18.28 32.05C18.2938 32.023 18.3127 31.9991 18.3357 31.9795C18.3588 31.9598 18.3854 31.945 18.4142 31.9357C18.443 31.9264 18.4734 31.9229 18.5036 31.9253C18.5337 31.9278 18.5631 31.9362 18.59 31.95C18.74 32 18.83 32.1 18.8 32.21ZM19.8 32.28C19.8 32.38 19.68 32.47 19.53 32.47C19.38 32.47 19.26 32.39 19.26 32.29C19.26 32.19 19.38 32.1 19.53 32.1C19.68 32.1 19.83 32.18 19.83 32.28H19.8ZM20.8 32.12C20.8 32.22 20.71 32.32 20.56 32.35C20.5015 32.3673 20.4388 32.3626 20.3835 32.3368C20.3283 32.311 20.2843 32.2659 20.26 32.21C20.26 32.11 20.35 32.01 20.5 31.98C20.65 31.95 20.77 32 20.79 32.12H20.8ZM28 36.27C27.36 36.39 27.13 36 27.13 35.66C27.13 35.32 27.13 33.89 27.13 32.2C27.1613 31.7727 27.1008 31.3437 26.9524 30.9418C26.8041 30.5399 26.5714 30.1744 26.27 29.87C29.08 29.56 32.03 28.49 32.03 23.65C32.0483 22.3979 31.5826 21.1871 30.73 20.27C31.1135 19.1849 31.0706 17.9947 30.61 16.94C30.61 16.94 29.55 16.6 27.15 18.23C26.1229 17.9516 25.0641 17.807 24 17.8C22.9357 17.8054 21.8768 17.95 20.85 18.23C18.44 16.6 17.38 16.94 17.38 16.94C16.9194 17.9947 16.8765 19.1849 17.26 20.27C16.4219 21.1933 15.9708 22.4034 16 23.65C16 28.48 18.94 29.56 21.74 29.88C21.279 30.3249 20.9948 30.9217 20.94 31.56C20.6337 31.7366 20.2955 31.8509 19.9448 31.8962C19.5941 31.9415 19.238 31.9169 18.8968 31.824C18.5557 31.731 18.2363 31.5715 17.9571 31.3546C17.6779 31.1376 17.4444 30.8676 17.27 30.56C17.069 30.2103 16.7905 29.9112 16.456 29.6859C16.1214 29.4605 15.7396 29.3148 15.34 29.26C15.34 29.26 14.11 29.26 15.26 30.02C15.9297 30.4528 16.4254 31.1079 16.66 31.87C16.66 31.87 17.4 34.12 20.9 33.36C20.9 34.41 20.9 35.36 20.9 35.7C20.9 36.04 20.67 36.42 20.04 36.31C17.2042 35.3606 14.7986 33.4336 13.2531 30.8735C11.7076 28.3133 11.1231 25.2869 11.604 22.3354C12.0849 19.3839 13.6 16.6996 15.8783 14.7625C18.1566 12.8254 21.0495 11.7618 24.04 11.7618C27.0305 11.7618 29.9234 12.8254 32.2017 14.7625C34.48 16.6996 35.9951 19.3839 36.476 22.3354C36.9569 25.2869 36.3724 28.3133 34.8269 30.8735C33.2814 33.4336 30.8758 35.3606 28.04 36.31L28 36.27ZM40 6H8C7.46957 6 6.96086 6.21071 6.58579 6.58579C6.21071 6.96086 6 7.46957 6 8V40C6 40.5304 6.21071 41.0391 6.58579 41.4142C6.96086 41.7893 7.46957 42 8 42H40C40.5304 42 41.0391 41.7893 41.4142 41.4142C41.7893 41.0391 42 40.5304 42 40V8C42 7.46957 41.7893 6.96086 41.4142 6.58579C41.0391 6.21071 40.5304 6 40 6Z" fill="black"/>
</svg>
