<svg width="48" height="48" viewBox="0 0 48 48" fill="none" xmlns="http://www.w3.org/2000/svg">
<path d="M17.3099 24.7694L16.6005 22.581L15.1915 18.2543C15.1553 18.1428 15.0843 18.0458 14.9891 17.9775C14.8938 17.9091 14.7791 17.8731 14.6619 17.8746C14.546 17.8736 14.4329 17.9101 14.3393 17.9785C14.2457 18.0469 14.1766 18.1436 14.1423 18.2543L12.8033 22.3712H8.58645L7.24745 18.2543C7.21311 18.1436 7.14404 18.0469 7.05045 17.9785C6.95687 17.9101 6.84375 17.8736 6.72784 17.8746C6.61061 17.8731 6.49597 17.9091 6.40069 17.9775C6.30541 18.0458 6.23447 18.1428 6.19824 18.2543L4.78929 22.581L4.03985 24.7694C3.98706 24.9292 3.98671 25.1016 4.03884 25.2616C4.09097 25.4216 4.19285 25.5607 4.32963 25.6587L10.465 30.1254H10.7648L17.0301 25.6587C17.1652 25.5594 17.265 25.4197 17.3154 25.2598C17.3657 25.0999 17.3638 24.9281 17.3099 24.7694ZM14.6619 18.664L15.871 22.3712H13.4628L14.6619 18.664ZM15.6612 22.9907L15.1715 23.6303L11.5442 28.2668L13.263 22.9907H15.6612ZM9.84551 28.2868L5.72859 22.9907H8.13679L9.84551 28.2868ZM6.71785 18.664L7.92695 22.3712H5.51874L6.71785 18.664ZM4.73933 25.1491C4.70933 25.1289 4.68708 25.0991 4.67619 25.0647C4.6653 25.0302 4.66642 24.993 4.67937 24.9593L5.20898 23.3405L9.07609 28.3367L4.73933 25.1491ZM10.6949 28.8663L9.69562 25.7587L8.7963 22.9907H12.6035L10.6949 28.8663ZM16.6504 25.1191L12.3137 28.3068L16.1908 23.3105L16.7104 24.9293C16.721 24.9476 16.728 24.9679 16.7307 24.9889C16.7335 25.0099 16.732 25.0313 16.7264 25.0518C16.7209 25.0722 16.7113 25.0914 16.6982 25.1081C16.6852 25.1248 16.6689 25.1387 16.6504 25.1491V25.1191Z" fill="black"/>
<path d="M31.2995 20.8723V27.2476H34.7669V26.4581H32.1688V20.8723H31.2995Z" fill="black"/>
<path d="M38.0744 26.1284C37.9369 26.2703 37.7723 26.3832 37.5903 26.4605C37.4084 26.5377 37.2129 26.5777 37.0152 26.5781C36.3657 26.5781 36.0959 26.2483 36.0959 25.8286C36.0959 25.1991 36.5356 24.8993 37.4749 24.8993C37.6746 24.888 37.8747 24.888 38.0744 24.8993V26.1284ZM37.1851 22.2613C36.5264 22.2464 35.8831 22.462 35.3665 22.8708L35.6662 23.4004C36.0834 23.1321 36.5692 22.9899 37.0652 22.9907C37.2011 22.9705 37.3398 22.9824 37.4703 23.0255C37.6008 23.0685 37.7193 23.1415 37.8165 23.2387C37.9136 23.3359 37.9867 23.4544 38.0297 23.5849C38.0728 23.7154 38.0847 23.8541 38.0644 23.99V24.2998C37.8696 24.267 37.6724 24.2503 37.4749 24.2498C36.016 24.2598 35.2166 24.7894 35.2166 25.8686C35.1958 26.0723 35.221 26.2781 35.2902 26.4707C35.3595 26.6634 35.4712 26.8381 35.6169 26.9819C35.7626 27.1257 35.9388 27.235 36.1324 27.3018C36.3259 27.3685 36.532 27.3909 36.7354 27.3675C37.017 27.3862 37.2983 27.3271 37.5486 27.1967C37.7988 27.0662 38.0084 26.8695 38.1544 26.628L38.3142 27.2476H38.9138V23.98C38.9476 23.7456 38.9261 23.5065 38.851 23.2818C38.7759 23.0572 38.6493 22.8532 38.4813 22.6862C38.3134 22.5192 38.1087 22.3938 37.8836 22.32C37.6585 22.2463 37.4193 22.2261 37.1851 22.2613Z" fill="black"/>
<path d="M41.6817 26.598C41.4025 26.6125 41.1234 26.5683 40.8623 26.4681V23.5203C41.1774 23.2383 41.5888 23.088 42.0115 23.1007C42.8409 23.1007 43.1606 23.6802 43.1606 24.6295C43.1606 25.9685 42.641 26.628 41.7217 26.628L41.6817 26.598ZM42.0115 22.2613C41.7894 22.2595 41.5694 22.3049 41.3661 22.3944C41.1628 22.484 40.9809 22.6157 40.8324 22.7809V20.8723H40.013V27.0877C40.5302 27.281 41.0798 27.3726 41.6318 27.3575C43.2306 27.3575 44 26.3582 44 24.5795C44 23.1806 43.2805 22.2613 42.0015 22.2613" fill="black"/>
<path d="M22.8358 21.5518C23.402 21.5351 23.9564 21.7152 24.4046 22.0614L24.7744 21.4219C24.2446 20.9742 23.5692 20.7361 22.8758 20.7524C21.0571 20.7524 19.7781 21.8616 19.7781 24.0999C19.7781 26.3382 21.1571 27.3675 22.7759 27.3675C23.4265 27.3666 24.071 27.2411 24.6744 26.9977V23.7002H22.2762V24.4896H23.7751V26.3882C23.4592 26.5206 23.1181 26.582 22.7759 26.5681C21.5168 26.5681 20.6674 25.7687 20.6674 24.0899C20.6674 22.4112 21.5368 21.5518 22.8158 21.5518" fill="black"/>
<path d="M28.0219 20.8723V25.6288C27.9881 25.8632 28.0097 26.1023 28.0847 26.3269C28.1598 26.5516 28.2864 26.7555 28.4544 26.9225C28.6224 27.0895 28.8271 27.2149 29.0521 27.2887C29.2772 27.3625 29.5164 27.3826 29.7506 27.3475C29.9202 27.3631 30.0907 27.3631 30.2603 27.3475V26.5681C30.1339 26.5783 30.0069 26.5783 29.8805 26.5681C29.1711 26.5681 28.8813 26.2083 28.8813 25.5688V23.0707H30.2802V22.3712H28.8813V20.8723H28.0219Z" fill="black"/>
<path d="M25.9035 27.2476H26.7429V22.3712H25.9035V27.2476Z" fill="black"/>
<path d="M25.9035 21.7017H26.7429V20.8723H25.9035V21.7017Z" fill="black"/>
</svg>
