<svg width="48" height="48" viewBox="0 0 48 48" fill="none" xmlns="http://www.w3.org/2000/svg">
<path d="M41.89 25.6501L40 19.7401L36.17 8.00012C36.0665 7.70262 35.8713 7.44558 35.6126 7.26591C35.3539 7.08625 35.0449 6.99319 34.73 7.00012C34.4181 6.99591 34.1129 7.09034 33.8579 7.26993C33.6029 7.44951 33.4111 7.70507 33.31 8.00012L29.7 19.1601H18.3L14.69 8.00012C14.5889 7.70507 14.3971 7.44951 14.1421 7.26993C13.8871 7.09034 13.5819 6.99591 13.27 7.00012C12.9554 6.99472 12.6471 7.08838 12.3887 7.26784C12.1303 7.4473 11.9348 7.70347 11.83 8.00012L7.99999 19.7401L6.10999 25.6501C5.96653 26.0825 5.96482 26.5495 6.10511 26.9829C6.2454 27.4164 6.52037 27.7938 6.88999 28.0601L23.5 40.1301H24.3L41.11 28.0601C41.4796 27.7938 41.7546 27.4164 41.8949 26.9829C42.0352 26.5495 42.0334 26.0825 41.89 25.6501ZM34.74 9.12012L38 19.1201H31.49L34.74 9.12012ZM37.43 20.8501L36.1 22.5601L26.3 35.1201L30.93 20.8501H37.43ZM21.7 35.1201L10.57 20.8501H17.07L21.7 35.1201ZM13.26 9.12012L16.52 19.1201H9.99999L13.26 9.12012ZM7.88999 26.6901C7.80972 26.6331 7.74988 26.5517 7.71928 26.4581C7.68868 26.3645 7.68893 26.2636 7.71999 26.1701L9.14999 21.7801L19.63 35.2201L7.88999 26.6901ZM24 36.7001L21.27 28.3001L18.86 20.8501H29.15L24 36.7001ZM40.11 26.6901L28.37 35.2201L38.86 21.7801L40.28 26.1701C40.311 26.2636 40.3113 26.3645 40.2807 26.4581C40.2501 26.5517 40.1903 26.6331 40.11 26.6901Z" fill="black"/>
</svg>
