<svg width="48" height="48" viewBox="0 0 48 48" fill="none" xmlns="http://www.w3.org/2000/svg">
<path d="M11.9309 34.5422C12.0661 34.5412 12.2007 34.5252 12.3324 34.4946C12.3405 34.4946 12.348 34.4946 12.3562 34.4946C12.3971 34.4849 12.4305 34.4663 12.4721 34.4537C12.5404 34.4343 12.6074 34.411 12.6729 34.3838C12.7234 34.3608 12.7695 34.3318 12.8171 34.305C12.8722 34.2761 12.9258 34.2443 12.9777 34.2098C13.0253 34.1756 13.0677 34.1355 13.1123 34.0991C13.1569 34.0626 13.2015 34.0247 13.2424 33.9816C13.2833 33.9385 13.3168 33.8939 13.3517 33.8485C13.3899 33.8031 13.4256 33.7557 13.4588 33.7065C13.488 33.6583 13.5148 33.6087 13.5391 33.5578C13.5666 33.5043 13.5956 33.4515 13.6186 33.395C13.6417 33.3385 13.655 33.2812 13.6714 33.2232C13.6878 33.1653 13.7049 33.1154 13.716 33.0589C13.7268 32.9908 13.7335 32.922 13.7361 32.853C13.7361 32.8106 13.7495 32.7697 13.7495 32.7259C13.7495 32.7169 13.7495 32.708 13.7495 32.6983C13.7466 32.6368 13.7403 32.5755 13.7309 32.5147C13.7256 32.4518 13.7169 32.3893 13.7049 32.3274C13.7049 32.3184 13.7049 32.3095 13.7049 32.3006C12.4092 26.8417 12.4092 21.1553 13.7049 15.6964C13.7049 15.6875 13.7049 15.6786 13.7049 15.6697C13.717 15.6077 13.7256 15.5452 13.7309 15.4823C13.7403 15.4215 13.7466 15.3602 13.7495 15.2987C13.7495 15.289 13.7495 15.2808 13.7495 15.2712C13.7495 15.2273 13.7391 15.1872 13.7361 15.144C13.7336 15.0753 13.7269 15.0068 13.716 14.9388C13.7049 14.8816 13.687 14.8288 13.6714 14.7738C13.6558 14.7188 13.6402 14.6578 13.6186 14.602C13.5971 14.5463 13.5666 14.4927 13.5391 14.4392C13.5115 14.3857 13.4892 14.3388 13.4588 14.2905C13.4283 14.2422 13.3889 14.1953 13.3517 14.1485C13.3145 14.1017 13.2818 14.0571 13.2424 14.0154C13.203 13.9738 13.1569 13.9366 13.1123 13.8987C13.0677 13.8608 13.0253 13.8244 12.9777 13.7872C12.9258 13.7527 12.8722 13.721 12.8171 13.692C12.7695 13.6652 12.7234 13.6362 12.6729 13.6139C12.6074 13.5865 12.5404 13.5629 12.4721 13.5433C12.4327 13.5307 12.3978 13.5128 12.3562 13.5024C12.3472 13.5024 12.3383 13.5024 12.3294 13.5024C12.2714 13.4898 12.2112 13.4853 12.151 13.4779C12.0862 13.4678 12.0209 13.4614 11.9554 13.4586C11.9472 13.4586 11.9391 13.4586 11.9309 13.4586H8.04762C8.02086 13.4586 7.99632 13.4653 7.97327 13.4667C7.9083 13.4698 7.84353 13.4763 7.77922 13.4861C7.72346 13.495 7.66844 13.5039 7.61417 13.5173C7.55989 13.5307 7.49892 13.5507 7.44168 13.5708C7.38443 13.5909 7.33536 13.6102 7.28331 13.634C7.22839 13.6576 7.17479 13.6842 7.12272 13.7136C7.07518 13.7404 7.02925 13.7699 6.98517 13.802C6.9334 13.8389 6.88376 13.8786 6.83647 13.921C6.79558 13.9582 6.75543 13.9954 6.71751 14.0362C6.67673 14.0803 6.63826 14.1265 6.60227 14.1745C6.56514 14.2243 6.53088 14.2762 6.49967 14.3299C6.4848 14.3537 6.46621 14.373 6.45283 14.3976C4.84345 17.3421 4 20.644 4 23.9996C4 27.3553 4.84345 30.6571 6.45283 33.6017C6.46324 33.6195 6.47885 33.6322 6.48926 33.65C6.55719 33.7667 6.63799 33.8755 6.73015 33.9742C6.74056 33.9846 6.748 33.998 6.75841 34.0084C6.86059 34.1085 6.97412 34.1963 7.0967 34.2701C7.13164 34.2916 7.16658 34.3087 7.20227 34.3273C7.30004 34.3789 7.40232 34.4215 7.50785 34.4545C7.54353 34.4656 7.5822 34.479 7.61491 34.4879C7.75631 34.5244 7.9016 34.5436 8.04762 34.5452L11.9309 34.5422Z" fill="black"/>
<path d="M33.3212 14.7849C33.3115 14.7492 33.2936 14.7188 33.2817 14.6838C33.262 14.6215 33.2384 14.5604 33.2111 14.5009C33.1858 14.4466 33.1568 14.3961 33.1271 14.3455C33.0974 14.295 33.0691 14.2489 33.0357 14.2035C32.9974 14.1518 32.9565 14.1022 32.913 14.0548C32.8788 14.0177 32.8446 13.9805 32.8074 13.9455C32.7584 13.8999 32.7068 13.8572 32.6528 13.8177C32.6141 13.7887 32.5747 13.7604 32.5338 13.7336C32.4751 13.6972 32.4148 13.666 32.3531 13.6355C32.31 13.6154 32.2676 13.5954 32.2238 13.5783C32.1555 13.5523 32.0857 13.5305 32.0148 13.5128C31.9725 13.5024 31.9308 13.4913 31.887 13.4838C31.8103 13.4707 31.7328 13.4627 31.655 13.46C31.6252 13.46 31.5977 13.4511 31.5687 13.4511H16.432C16.4037 13.4511 16.3777 13.4586 16.3495 13.46C16.2697 13.4624 16.1902 13.4703 16.1115 13.4838C16.0699 13.4913 16.0297 13.5017 15.9889 13.5121C15.9165 13.5301 15.8453 13.5522 15.7755 13.5783C15.7324 13.5954 15.6915 13.6147 15.6498 13.6348C15.587 13.6644 15.5259 13.6977 15.4669 13.7344C15.4253 13.7604 15.3874 13.7887 15.3487 13.8169C15.2945 13.8571 15.2424 13.9 15.1926 13.9455C15.1561 13.9805 15.1219 14.0199 15.0877 14.0548C15.0443 14.1022 15.0033 14.1518 14.9651 14.2035C14.9322 14.2495 14.9017 14.2972 14.8736 14.3463C14.8439 14.3968 14.8149 14.4466 14.7896 14.5009C14.7613 14.5606 14.7365 14.622 14.7153 14.6846C14.7041 14.7188 14.6863 14.7492 14.6766 14.7849C14.6669 14.8206 14.6602 14.8593 14.6506 14.8927C14.6506 14.8979 14.6506 14.9024 14.6506 14.9076C13.0555 20.862 13.0555 27.1313 14.6506 33.0857C14.6506 33.0902 14.6506 33.0954 14.6506 33.0998C14.6602 33.1355 14.6669 33.1742 14.6766 33.2076C14.6818 33.2262 14.6944 33.2396 14.6996 33.2574C14.7508 33.4315 14.8277 33.5969 14.9279 33.7481C14.9353 33.7593 14.945 33.7675 14.9532 33.7786C15.0501 33.9122 15.1649 34.0318 15.2944 34.134C15.319 34.1541 15.3413 34.1749 15.3688 34.1935C15.5045 34.2912 15.6531 34.3695 15.8104 34.4262C15.8439 34.4388 15.8773 34.4478 15.9123 34.4574C16.075 34.5091 16.2442 34.5371 16.4149 34.5407H31.5695C31.5747 34.5407 31.5792 34.5407 31.5851 34.5407C31.756 34.5371 31.9255 34.509 32.0884 34.4574C32.1219 34.4478 32.1554 34.4388 32.1888 34.4262C32.3475 34.3696 32.4977 34.2913 32.6349 34.1935C32.6594 34.1749 32.681 34.1548 32.7048 34.1355C32.8351 34.0325 32.9506 33.9122 33.0483 33.7779C33.0557 33.7675 33.0654 33.7593 33.0728 33.7481C33.173 33.5969 33.2499 33.4315 33.3011 33.2574C33.3063 33.2396 33.3189 33.2262 33.3241 33.2076C33.3338 33.1719 33.3397 33.1333 33.3502 33.0998C33.3502 33.0954 33.3502 33.0902 33.3502 33.0857C34.1502 30.122 34.5525 27.065 34.5464 23.9952C34.5525 20.9261 34.1502 17.8698 33.3502 14.9069C33.3502 14.9017 33.3502 14.8972 33.3502 14.892C33.3375 14.857 33.3308 14.8206 33.3212 14.7849Z" fill="black"/>
<path d="M9.58369 11.0304C9.58678 11.1023 9.59398 11.1741 9.60525 11.2452C9.6164 11.3017 9.63499 11.3545 9.6506 11.4095C9.66622 11.4645 9.68183 11.5277 9.70488 11.585C9.72955 11.6407 9.7571 11.695 9.78741 11.7478C9.81195 11.7988 9.83925 11.8485 9.86919 11.8965C9.90919 11.9543 9.95264 12.0097 9.9993 12.0623C10.0276 12.0958 10.0491 12.1367 10.0796 12.1649C10.0841 12.1649 10.0885 12.1716 10.093 12.1761C10.1623 12.2436 10.2369 12.3055 10.316 12.3612C10.3361 12.3761 10.3539 12.3954 10.3748 12.4095C10.4734 12.4765 10.5785 12.5336 10.6885 12.5798C10.7354 12.5991 10.7844 12.6088 10.8328 12.6244C10.8978 12.6487 10.9644 12.6688 11.032 12.6846C11.1507 12.7089 11.2715 12.7212 11.3926 12.721H13.2967C13.3019 12.721 13.3071 12.721 13.313 12.721C13.4682 12.7178 13.6224 12.6948 13.7718 12.6526C13.8104 12.6422 13.8461 12.6303 13.8841 12.6177C14.0316 12.569 14.1725 12.5021 14.3034 12.4184L14.313 12.4125C14.4434 12.3215 14.5613 12.2141 14.664 12.0928C14.6893 12.063 14.7138 12.034 14.7383 12.0028C14.8383 11.874 14.9204 11.7322 14.9822 11.5813C14.9822 11.5761 14.9896 11.5716 14.9919 11.5657C15.2744 10.8356 15.5896 10.1122 15.9264 9.42295C15.9316 9.41254 15.9331 9.40138 15.9383 9.39023C15.9645 9.32933 15.9874 9.26703 16.0067 9.20362C16.0238 9.15232 16.0446 9.10102 16.0573 9.04897C16.0687 8.99395 16.0771 8.93836 16.0826 8.88244C16.0935 8.82193 16.1012 8.76087 16.1056 8.69954C16.1056 8.64452 16.1011 8.5895 16.0982 8.53523C16.0952 8.48096 16.0982 8.41256 16.0863 8.35308C16.0744 8.2936 16.0595 8.24156 16.0461 8.18579C16.0332 8.12703 16.0174 8.06896 15.9985 8.01182C15.9814 7.96349 15.9554 7.9174 15.9339 7.86981C15.9066 7.80693 15.8758 7.74562 15.8417 7.68618C15.8357 7.67651 15.8327 7.66536 15.8268 7.65569C15.8052 7.62149 15.777 7.59473 15.7524 7.56276C15.7129 7.50543 15.67 7.45055 15.6238 7.39845C15.5852 7.35681 15.5428 7.3241 15.5011 7.28321C15.456 7.24051 15.4086 7.2003 15.3591 7.16276C15.3071 7.12649 15.2529 7.09323 15.1971 7.06314C15.1591 7.04083 15.1227 7.01333 15.0848 6.99325C15.0729 6.9873 15.061 6.98582 15.0491 6.97987C14.9933 6.95459 14.9346 6.93675 14.8766 6.91667C14.8186 6.8966 14.7651 6.87504 14.7078 6.86165C14.6506 6.84827 14.6045 6.84604 14.5524 6.83786C14.489 6.82664 14.4249 6.8187 14.3606 6.81407C14.3049 6.81407 14.2491 6.81853 14.1933 6.82151C14.1339 6.82246 14.0746 6.82643 14.0156 6.8334C13.9554 6.84232 13.8959 6.86165 13.8365 6.87652C13.777 6.89139 13.7279 6.90106 13.6751 6.92039C13.6224 6.94132 13.5708 6.96489 13.5205 6.99102C13.4623 7.01628 13.4055 7.04457 13.3502 7.07578C13.3391 7.08247 13.3279 7.08619 13.3168 7.09288C12.1718 7.8181 11.1032 8.6573 10.1272 9.59766C10.1227 9.60212 10.1197 9.60733 10.116 9.61105C10.0627 9.6657 10.013 9.72382 9.96733 9.78502C9.93982 9.81922 9.90711 9.85119 9.88257 9.88688C9.84912 9.93669 9.82384 9.9932 9.79484 10.046C9.76584 10.0988 9.73536 10.1449 9.7138 10.1947C9.6967 10.2333 9.68852 10.2765 9.6744 10.3174C9.64797 10.3873 9.62587 10.4588 9.60822 10.5315C9.60005 10.5686 9.60079 10.6058 9.59484 10.6467C9.58344 10.727 9.57723 10.808 9.57625 10.8891C9.57625 10.8943 9.57625 10.8995 9.57625 10.9054C9.57105 10.9478 9.58072 10.988 9.58369 11.0304Z" fill="black"/>
<path d="M16.2126 11.0274C16.2154 11.0959 16.2224 11.1642 16.2335 11.2318C16.2453 11.2896 16.2602 11.3467 16.2781 11.4028C16.2921 11.4588 16.3093 11.5139 16.3294 11.5679C16.3529 11.6246 16.3794 11.6799 16.4089 11.7337C16.4342 11.7835 16.4587 11.8333 16.4885 11.8824C16.5182 11.9315 16.5584 11.9783 16.5948 12.0251C16.6312 12.072 16.6654 12.1166 16.7056 12.159C16.7488 12.2022 16.7942 12.2431 16.8416 12.2816C16.8827 12.3192 16.9256 12.3547 16.9703 12.3879C17.0291 12.4276 17.0902 12.4638 17.1532 12.4965C17.1881 12.5151 17.2178 12.5396 17.2543 12.556C17.2625 12.556 17.2706 12.5612 17.2781 12.5642C17.3725 12.6052 17.4702 12.638 17.5703 12.6623C17.5941 12.669 17.6171 12.6794 17.6409 12.6846C17.7605 12.7096 17.8823 12.7226 18.0045 12.7233H29.9963C30.1184 12.7226 30.2402 12.7096 30.3598 12.6846C30.3851 12.6794 30.4089 12.6682 30.4342 12.6615C30.5328 12.6376 30.629 12.605 30.7219 12.5642C30.7301 12.5642 30.7383 12.5597 30.7464 12.556C30.7829 12.5396 30.8126 12.5151 30.8476 12.4965C30.9105 12.4638 30.9716 12.4276 31.0305 12.3879C31.0751 12.3547 31.118 12.3192 31.1591 12.2816C31.2065 12.2431 31.2519 12.2022 31.2951 12.159C31.3343 12.1163 31.3713 12.0716 31.4059 12.0251C31.4423 11.9783 31.4803 11.9329 31.5122 11.8824C31.5442 11.8318 31.5665 11.785 31.5918 11.7337C31.6213 11.6802 31.6478 11.6251 31.6713 11.5686C31.6929 11.5151 31.7063 11.4593 31.7226 11.4036C31.7406 11.3474 31.7555 11.2903 31.7673 11.2326C31.778 11.1649 31.7849 11.0966 31.7881 11.0281C31.7881 10.9872 31.8 10.9478 31.8 10.9062C31.8 10.8965 31.8 10.8876 31.8 10.8779C31.7967 10.8087 31.7897 10.7397 31.7792 10.6713C31.7717 10.6192 31.7687 10.5657 31.7576 10.5151C31.7464 10.4646 31.7271 10.4162 31.7115 10.3664C31.6927 10.2986 31.6696 10.2321 31.6423 10.1672C31.6386 10.159 31.6379 10.1501 31.6342 10.1419C30.7938 8.30892 29.7316 6.58603 28.4714 5.01188L28.4617 4.99924C28.4401 4.97247 28.42 4.94273 28.3985 4.91671C28.3769 4.89069 28.3502 4.86987 28.3241 4.84236C28.2793 4.79136 28.2314 4.74319 28.1806 4.69813C28.1383 4.66095 28.0944 4.62824 28.0498 4.59627C28.0003 4.55968 27.9489 4.52568 27.8959 4.49441C27.8441 4.46484 27.7907 4.43804 27.736 4.41412C27.684 4.39033 27.6319 4.36802 27.5769 4.34869C27.5219 4.32936 27.452 4.31226 27.3881 4.29739C27.3531 4.28996 27.3212 4.27583 27.2847 4.26988C27.2483 4.26393 27.2186 4.26245 27.1859 4.25724H27.1606C25.068 3.91425 22.9335 3.91425 20.8409 4.25724H20.8141C20.7821 4.26245 20.7494 4.26393 20.7167 4.26988C20.684 4.27583 20.6498 4.28921 20.6149 4.29739C20.5497 4.31107 20.4854 4.32845 20.4223 4.34943C20.37 4.36787 20.3186 4.38896 20.2684 4.41263C20.2119 4.43715 20.1568 4.4647 20.1033 4.49516C20.0513 4.52564 20.003 4.5591 19.9546 4.59404C19.9063 4.62898 19.8632 4.66095 19.8201 4.69887C19.77 4.74363 19.7226 4.7913 19.6781 4.84162C19.6543 4.8669 19.6275 4.88697 19.6037 4.91597C19.5799 4.94496 19.5621 4.97173 19.5405 4.99849L19.5309 5.01113C18.2707 6.58546 17.2082 8.30831 16.3673 10.1411C16.3636 10.1493 16.3628 10.1582 16.3591 10.1664C16.3319 10.2317 16.3086 10.2985 16.2892 10.3664C16.2736 10.4155 16.2543 10.4646 16.2439 10.5151C16.234 10.5673 16.2268 10.6199 16.2223 10.6727C16.2117 10.741 16.2048 10.8097 16.2015 10.8787C16.2015 10.8883 16.2015 10.8973 16.2015 10.9069C16.2007 10.9471 16.2097 10.9843 16.2126 11.0274Z" fill="black"/>
<path d="M32.0022 8.01034C31.9834 8.06798 31.9675 8.12654 31.9546 8.1858C31.9405 8.24081 31.9234 8.29509 31.9145 8.35085C31.9056 8.40661 31.9056 8.47204 31.9026 8.533C31.8996 8.59397 31.8929 8.64304 31.8951 8.69805C31.8995 8.75914 31.9072 8.81995 31.9182 8.88021C31.9236 8.93638 31.9321 8.99222 31.9435 9.04749C31.9561 9.09953 31.9769 9.15083 31.994 9.20213C32.0134 9.26555 32.0362 9.32785 32.0624 9.38875C32.0676 9.3999 32.0691 9.41105 32.0743 9.42146C32.4141 10.1196 32.7301 10.8415 33.0134 11.5671C33.0134 11.5731 33.02 11.5776 33.0223 11.5828C33.0841 11.7337 33.1661 11.8755 33.2661 12.0043C33.2907 12.0355 33.3152 12.0645 33.3405 12.0943C33.4431 12.2156 33.5611 12.323 33.6914 12.414L33.7011 12.4199C33.8321 12.5035 33.9729 12.5704 34.1204 12.6192C34.1583 12.6318 34.1948 12.6437 34.2327 12.6541C34.3821 12.6962 34.5362 12.7192 34.6914 12.7225C34.6974 12.7225 34.7026 12.7225 34.7078 12.7225H36.6111C36.7322 12.7226 36.8531 12.7104 36.9717 12.6861C37.0393 12.6703 37.1059 12.6502 37.171 12.6259C37.2193 12.6102 37.2684 12.6006 37.3152 12.5813C37.4252 12.535 37.5303 12.478 37.629 12.411C37.6498 12.3969 37.6676 12.3775 37.6877 12.3627C37.7667 12.3068 37.8413 12.2449 37.9107 12.1775C37.9149 12.1734 37.9193 12.1697 37.9241 12.1664C37.9546 12.1344 37.9762 12.0972 38.0044 12.0638C38.0511 12.0112 38.0945 11.9558 38.1345 11.898C38.1665 11.8497 38.1896 11.7976 38.2163 11.7493C38.2467 11.6966 38.274 11.6423 38.2981 11.5865C38.3197 11.5291 38.3381 11.4705 38.3531 11.411C38.3687 11.356 38.3873 11.3032 38.3985 11.2467C38.4097 11.1756 38.4169 11.1038 38.42 11.0318C38.42 10.9895 38.4327 10.9493 38.4327 10.9069C38.4327 10.901 38.4327 10.8958 38.4327 10.8906C38.4297 10.8093 38.4215 10.7284 38.4081 10.6482C38.4022 10.6103 38.4022 10.5739 38.3948 10.533C38.3771 10.4603 38.355 10.3888 38.3286 10.3188C38.3145 10.278 38.3063 10.2348 38.2892 10.1962C38.2676 10.1441 38.2349 10.0958 38.2081 10.0475C38.1814 9.99915 38.1539 9.93818 38.1204 9.88837C38.0959 9.85268 38.0632 9.82071 38.0356 9.78651C37.99 9.72531 37.9403 9.66719 37.887 9.61254C37.8832 9.61254 37.8803 9.60361 37.8758 9.59915C36.8998 8.65879 35.8312 7.81959 34.6862 7.09437C34.6743 7.08693 34.6617 7.08321 34.6498 7.07578C34.6 7.04604 34.5472 7.02374 34.4951 7.00143C34.4431 6.97913 34.3821 6.94418 34.3241 6.92337C34.2788 6.90775 34.2312 6.89883 34.1844 6.88619C34.1187 6.86615 34.0519 6.85001 33.9844 6.83787C33.9325 6.83179 33.8804 6.82832 33.8282 6.82746C33.7657 6.82115 33.7029 6.81817 33.6401 6.81854C33.58 6.82287 33.5202 6.83057 33.4609 6.84158C33.4048 6.84698 33.3489 6.85542 33.2937 6.86686C33.2379 6.88024 33.1836 6.90181 33.1286 6.92039C33.0693 6.93871 33.011 6.96005 32.9539 6.98433C32.942 6.99028 32.9301 6.99177 32.9182 6.99771C32.878 7.01779 32.8438 7.0453 32.8052 7.0676C32.7495 7.0977 32.6957 7.13096 32.6438 7.16723C32.5944 7.20477 32.5469 7.24497 32.5018 7.28767C32.4602 7.32559 32.4178 7.36202 32.3792 7.40291C32.3332 7.45491 32.2902 7.50952 32.2505 7.56648C32.2267 7.59845 32.1985 7.62596 32.1762 7.66016C32.1702 7.66982 32.1673 7.68097 32.1613 7.69064C32.1272 7.75009 32.0964 7.8114 32.0691 7.87428C32.0453 7.91443 32.0193 7.96127 32.0022 8.01034Z" fill="black"/>
<path d="M16 39.98C16.0179 39.9294 16.0283 39.8767 16.0417 39.8246C16.0601 39.7638 16.075 39.702 16.0863 39.6395C16.0944 39.5874 16.0937 39.5339 16.0974 39.4811C16.1035 39.4184 16.1062 39.3553 16.1056 39.2923C16.1056 39.2388 16.0922 39.186 16.0855 39.1332C16.0792 39.069 16.0695 39.0052 16.0565 38.9421C16.0454 38.8968 16.0268 38.8529 16.0119 38.8083C15.9919 38.7373 15.967 38.6677 15.9376 38.6001C15.9338 38.5904 15.9316 38.5808 15.9272 38.5718C15.5933 37.8841 15.2773 37.1592 14.9889 36.4262C14.9861 36.4195 14.9829 36.413 14.9792 36.4068C14.9499 36.3396 14.9164 36.2743 14.8788 36.2113C14.8558 36.1689 14.8365 36.1243 14.8104 36.0849C14.7768 36.0383 14.7408 35.9934 14.7026 35.9503C14.6664 35.9016 14.6277 35.8547 14.5866 35.8098C14.5539 35.7764 14.5123 35.7496 14.4796 35.7191C14.4286 35.672 14.375 35.6278 14.319 35.5868C14.2773 35.5585 14.2305 35.5377 14.1866 35.5124C14.1309 35.478 14.0733 35.4467 14.0142 35.4187C13.9688 35.3994 13.9197 35.3883 13.8729 35.3727C13.8087 35.3484 13.7431 35.3278 13.6766 35.3109C13.6365 35.3028 13.5941 35.302 13.5532 35.2961C13.4747 35.2829 13.3955 35.275 13.316 35.2723H11.371C11.3003 35.2754 11.2298 35.2826 11.1599 35.2938C11.1108 35.2998 11.0603 35.3005 11.0112 35.3109C10.9621 35.3214 10.9242 35.3385 10.8803 35.3518C10.8105 35.3694 10.7417 35.391 10.6744 35.4165C10.6491 35.4277 10.6268 35.444 10.6 35.4559C10.518 35.4932 10.439 35.5367 10.3636 35.586C10.3331 35.6068 10.3064 35.6351 10.2766 35.6604C10.2133 35.7084 10.1532 35.7606 10.0967 35.8165L10.0833 35.8277C10.0528 35.8596 10.0313 35.8961 10.003 35.9303C9.95635 35.9826 9.9129 36.0377 9.8729 36.0953C9.84093 36.1444 9.81714 36.1964 9.79037 36.244C9.7636 36.2916 9.72494 36.3518 9.70487 36.4113C9.68479 36.4708 9.66769 36.5288 9.65059 36.5875C9.63349 36.6462 9.61565 36.6946 9.60524 36.7511C9.59397 36.8225 9.58678 36.8945 9.58368 36.9667C9.58368 37.0083 9.57104 37.0477 9.57104 37.0908C9.57104 37.096 9.57104 37.1012 9.57104 37.1072C9.57402 37.1882 9.58222 37.2689 9.59557 37.3488C9.60152 37.3875 9.60078 37.4269 9.60896 37.4648C9.62637 37.537 9.64847 37.6081 9.67513 37.6774C9.68926 37.7183 9.69743 37.7622 9.71453 37.8016C9.73609 37.8536 9.76881 37.9012 9.79557 37.9503C9.82227 38.0051 9.8518 38.0584 9.88405 38.1101C9.90784 38.1466 9.94056 38.1785 9.96806 38.2127C10.014 38.2735 10.0636 38.3314 10.1168 38.386C10.1168 38.3904 10.1235 38.3949 10.1279 38.3994C11.1043 39.3398 12.1731 40.1793 13.3182 40.9049C13.3182 40.9049 13.3264 40.9049 13.3294 40.9094C13.6243 41.0729 13.9525 41.1675 14.2892 41.1859C14.4324 41.1853 14.5749 41.1676 14.7138 41.1331C14.7643 41.1212 14.8104 41.0982 14.8625 41.0818C14.9385 41.0603 15.013 41.0337 15.0855 41.0023C15.0974 40.9963 15.1071 40.9874 15.119 40.9815C15.1599 40.9607 15.197 40.9331 15.2365 40.9071C15.3182 40.8585 15.3957 40.8033 15.4684 40.7421C15.5049 40.7108 15.5428 40.6774 15.5733 40.6432C15.6476 40.5687 15.7151 40.4876 15.7747 40.4008C15.7911 40.3785 15.8119 40.3622 15.8268 40.3384C15.8335 40.3279 15.8372 40.3161 15.8439 40.3049C15.8745 40.2503 15.9022 40.1942 15.9272 40.1369C15.9524 40.0841 15.9807 40.0328 16 39.98Z" fill="black"/>
<path d="M31.7881 36.9652C31.7849 36.8967 31.7779 36.8285 31.7673 36.7607C31.7555 36.703 31.7406 36.6459 31.7227 36.5897C31.7063 36.5347 31.6929 36.4789 31.6714 36.4247C31.6478 36.3683 31.6213 36.3132 31.5918 36.2596C31.5665 36.2098 31.542 36.1593 31.5122 36.1109C31.4825 36.0626 31.4424 36.015 31.4059 35.9682C31.3715 35.9218 31.3345 35.8774 31.2951 35.8351C31.2519 35.7916 31.2065 35.7505 31.1591 35.7117C31.1181 35.6741 31.0751 35.6386 31.0305 35.6054C30.9716 35.5658 30.9105 35.5295 30.8476 35.4968C30.8126 35.4782 30.7829 35.4537 30.7464 35.4373C30.7383 35.4336 30.7293 35.4321 30.7212 35.4284C30.6552 35.4012 30.5876 35.3779 30.5189 35.3585C30.4706 35.3437 30.423 35.3243 30.374 35.3132C30.3249 35.302 30.2669 35.299 30.2126 35.2916C30.1456 35.2812 30.0781 35.2745 30.0104 35.2715C30.0007 35.2715 29.9918 35.2715 29.9821 35.2715H18.0186C18.0089 35.2715 17.9993 35.2715 17.9896 35.2715C17.9199 35.2744 17.8504 35.2814 17.7814 35.2924C17.7301 35.299 17.6773 35.302 17.6275 35.3132C17.5777 35.3243 17.5249 35.3444 17.4736 35.3608C17.4078 35.3798 17.343 35.4024 17.2796 35.4284C17.2714 35.4284 17.2625 35.4336 17.2543 35.4373C17.2179 35.4537 17.1881 35.4782 17.1532 35.4968C17.0902 35.5295 17.0291 35.5658 16.9703 35.6054C16.9256 35.6386 16.8827 35.6741 16.8416 35.7117C16.7942 35.7505 16.7488 35.7916 16.7056 35.8351C16.6665 35.8776 16.6295 35.922 16.5948 35.9682C16.5584 36.015 16.5205 36.0611 16.4885 36.1117C16.4565 36.1622 16.4342 36.2083 16.4089 36.2604C16.3796 36.3142 16.353 36.3696 16.3294 36.4262C16.3095 36.4803 16.2924 36.5354 16.2781 36.5912C16.2602 36.6474 16.2453 36.7045 16.2335 36.7622C16.2225 36.8299 16.2155 36.8982 16.2127 36.9667C16.2127 37.0083 16.2008 37.047 16.2008 37.0893C16.2008 37.0983 16.2008 37.1072 16.2008 37.1169C16.204 37.1858 16.211 37.2546 16.2216 37.3228C16.2261 37.3757 16.2333 37.4283 16.2431 37.4804C16.2557 37.5307 16.2709 37.5804 16.2885 37.6291C16.3079 37.6971 16.3312 37.7639 16.3584 37.8291C16.3621 37.838 16.3628 37.8462 16.3666 37.8551C17.2072 39.6878 18.2691 41.4107 19.5286 42.9851L19.5398 43C19.5613 43.0268 19.5814 43.0565 19.603 43.0833C19.6245 43.1101 19.6439 43.1205 19.6632 43.1413C19.7199 43.2054 19.7813 43.2653 19.8468 43.3205C19.884 43.3524 19.9212 43.3829 19.9621 43.4112C20.0254 43.4552 20.0915 43.4951 20.1599 43.5309C20.206 43.5554 20.2506 43.5807 20.2981 43.6008C20.3659 43.6279 20.4352 43.6513 20.5056 43.6706C20.5591 43.6862 20.6112 43.7033 20.6662 43.7138C20.6818 43.7138 20.6967 43.7242 20.713 43.7264C22.8879 44.0912 25.1084 44.0912 27.2833 43.7264C27.2988 43.723 27.3142 43.7188 27.3294 43.7138C27.3854 43.7019 27.4407 43.687 27.4952 43.6691C27.5636 43.6505 27.6308 43.6279 27.6966 43.6015C27.746 43.5793 27.7941 43.5544 27.8409 43.5271C27.907 43.4927 27.9708 43.4539 28.032 43.4112C28.0736 43.3814 28.113 43.3502 28.1531 43.3167C28.2165 43.2631 28.2759 43.205 28.3308 43.1428C28.3509 43.1212 28.3754 43.1048 28.394 43.0818C28.4126 43.0587 28.4372 43.0231 28.4602 42.9948L28.4669 42.9859C29.7268 41.4115 30.789 39.6887 31.6297 37.8559C31.6334 37.847 31.6342 37.8388 31.6379 37.8299C31.6651 37.765 31.6882 37.6984 31.707 37.6306C31.7227 37.5815 31.742 37.5325 31.7531 37.4819C31.7643 37.4313 31.7673 37.3786 31.7747 37.3258C31.7853 37.2573 31.7923 37.1883 31.7955 37.1191C31.7955 37.1094 31.7955 37.1005 31.7955 37.0916C31.8 37.0455 31.7911 37.0061 31.7881 36.9652Z" fill="black"/>
<path d="M38.4171 36.9637C38.414 36.8915 38.4068 36.8195 38.3955 36.7481C38.3843 36.6916 38.3658 36.6388 38.3501 36.5845C38.3351 36.5248 38.3167 36.466 38.2951 36.4083C38.2711 36.3528 38.2441 36.2987 38.2141 36.2462C38.1873 36.1949 38.1635 36.1429 38.1316 36.0975C38.0916 36.04 38.0481 35.9848 38.0014 35.9325C37.9732 35.8983 37.9516 35.8619 37.9212 35.8299L37.9078 35.8187C37.8513 35.764 37.7912 35.713 37.7278 35.6663C37.6959 35.641 37.6661 35.6106 37.6327 35.5875C37.5681 35.5465 37.501 35.5095 37.4319 35.4767C37.3955 35.4589 37.3576 35.4344 37.3241 35.4187C37.2659 35.3968 37.2066 35.3779 37.1464 35.3622C37.0936 35.3459 37.0416 35.3243 36.9873 35.3132C36.933 35.302 36.8929 35.3028 36.8461 35.2968C36.7745 35.2852 36.7022 35.278 36.6297 35.2753C36.6235 35.2748 36.6173 35.2748 36.6111 35.2753H34.6818C34.6115 35.2787 34.5415 35.2859 34.4721 35.2968C34.4223 35.3035 34.3702 35.305 34.3234 35.3154C34.2632 35.3288 34.2059 35.3511 34.1479 35.3697C34.0899 35.3883 34.0386 35.4009 33.9873 35.4225C33.9288 35.4505 33.8717 35.4815 33.8163 35.5154C33.7725 35.5407 33.7256 35.5608 33.684 35.5897C33.6224 35.6355 33.5638 35.6852 33.5085 35.7384C33.4788 35.7645 33.4453 35.7868 33.4171 35.8128C33.371 35.8626 33.3278 35.9149 33.2877 35.9697C33.2565 36.0098 33.2215 36.044 33.1933 36.0879C33.165 36.1317 33.1435 36.1801 33.1189 36.2269C33.0842 36.2863 33.0529 36.3476 33.0253 36.4105C33.0253 36.418 33.0178 36.4239 33.0148 36.4314C32.7301 37.1585 32.4156 37.8804 32.0773 38.5756C32.0721 38.5845 32.0706 38.5942 32.0661 38.6038C32.037 38.6716 32.0121 38.7411 31.9918 38.812C31.9769 38.8566 31.9583 38.9005 31.9472 38.9458C31.9342 39.009 31.9245 39.0727 31.9182 39.1369C31.9115 39.1897 31.9003 39.2425 31.8981 39.296C31.8975 39.359 31.9002 39.4221 31.9063 39.4848C31.91 39.5376 31.9063 39.5912 31.9174 39.6432C31.9287 39.7057 31.9436 39.7675 31.9621 39.8283C31.9822 39.9383 32.0207 40.0441 32.0758 40.1413C32.1007 40.1987 32.1285 40.2548 32.1591 40.3094C32.1658 40.3205 32.1695 40.3324 32.1762 40.3428C32.1911 40.3666 32.2119 40.383 32.2282 40.4053C32.2879 40.492 32.3553 40.5731 32.4297 40.6476C32.4639 40.6818 32.4981 40.7153 32.5345 40.7465C32.6072 40.8078 32.6848 40.863 32.7665 40.9116C32.8059 40.9361 32.8409 40.9636 32.884 40.9859C32.8959 40.9919 32.9056 41.0008 32.9174 41.0067C32.99 41.0381 33.0645 41.0647 33.1405 41.0863C33.1896 41.1027 33.2357 41.1257 33.2892 41.1376C33.4281 41.172 33.5706 41.1897 33.7137 41.1904C34.0505 41.1719 34.3786 41.0774 34.6736 40.9138C34.6736 40.9138 34.681 40.9138 34.684 40.9094C35.8294 40.1839 36.8986 39.3445 37.8751 38.4038C37.8795 38.3994 37.8825 38.3949 37.8862 38.3904C37.9393 38.3358 37.989 38.278 38.0349 38.2172C38.0624 38.183 38.0944 38.151 38.1189 38.1146C38.1512 38.0629 38.1807 38.0095 38.2074 37.9548C38.2342 37.9049 38.2669 37.8574 38.2884 37.8061C38.3055 37.7667 38.3137 37.7228 38.3278 37.6819C38.3542 37.6124 38.3763 37.5414 38.394 37.4693C38.4014 37.4314 38.4014 37.3949 38.4074 37.3533C38.4208 37.2734 38.4289 37.1926 38.4319 37.1117C38.4319 37.1057 38.4319 37.1005 38.4319 37.0953C38.4297 37.0447 38.4238 37.0061 38.4171 36.9637Z" fill="black"/>
<path d="M41.5464 33.5987C43.1563 30.6543 44 27.3524 44 23.9967C44 20.6409 43.1563 17.339 41.5464 14.3946C41.5331 14.3701 41.5145 14.3507 41.5003 14.3277C41.4677 14.2742 41.4322 14.2226 41.394 14.173C41.3592 14.1258 41.3218 14.0806 41.2818 14.0377C41.2007 13.9527 41.1129 13.8744 41.0193 13.8035C40.9732 13.7701 40.9249 13.7403 40.8758 13.7113C40.8259 13.6804 40.7743 13.6524 40.7212 13.6273C40.6678 13.6028 40.6132 13.5809 40.5576 13.5619C40.5026 13.5426 40.4468 13.524 40.3896 13.5099C40.3323 13.4957 40.2788 13.4868 40.2223 13.4779C40.1585 13.4681 40.0942 13.4617 40.0297 13.4586C40.0029 13.4586 39.9784 13.4504 39.9516 13.4504H36.0699C36.061 13.4504 36.0535 13.4504 36.0446 13.4504C35.9791 13.4532 35.9138 13.4596 35.8491 13.4697C35.7896 13.4771 35.7294 13.4816 35.6714 13.4942C35.6624 13.4942 35.6535 13.4942 35.6446 13.4942C35.6037 13.5047 35.5702 13.5225 35.5286 13.5351C35.4603 13.5547 35.3933 13.5782 35.3279 13.6058C35.2773 13.6281 35.2312 13.6571 35.1836 13.6838C35.1285 13.7128 35.0749 13.7446 35.023 13.779C34.9755 13.8132 34.9331 13.8533 34.8885 13.8905C34.8439 13.9277 34.7992 13.9649 34.7584 14.0072C34.7175 14.0496 34.684 14.095 34.6491 14.1403C34.6141 14.1857 34.5747 14.2318 34.542 14.2823C34.5093 14.3329 34.4877 14.3805 34.4617 14.431C34.4357 14.4816 34.4052 14.5373 34.3821 14.5939C34.3591 14.6504 34.3457 14.7076 34.3294 14.7656C34.313 14.8236 34.2959 14.8734 34.2847 14.9307C34.2739 14.9986 34.2672 15.0671 34.2647 15.1359C34.2647 15.179 34.2513 15.2191 34.2513 15.263C34.2513 15.2727 34.2513 15.2808 34.2513 15.2905C34.2542 15.352 34.2604 15.4133 34.2699 15.4741C34.2773 15.5373 34.2818 15.6005 34.2952 15.6615C34.2952 15.6704 34.2952 15.6793 34.2989 15.6883C34.9499 18.4092 35.2771 21.1975 35.2736 23.9952C35.2777 26.7913 34.9515 29.578 34.3018 32.2976C34.3018 32.3065 34.3018 32.3155 34.2981 32.3244C34.2847 32.3853 34.2803 32.4493 34.2729 32.5117C34.2634 32.5726 34.2572 32.6339 34.2543 32.6954C34.2543 32.705 34.2543 32.714 34.2543 32.7229C34.2543 32.7668 34.2647 32.8076 34.2676 32.85C34.2702 32.919 34.2769 32.9878 34.2877 33.056C34.2989 33.1125 34.3167 33.166 34.3323 33.2203C34.3479 33.2745 34.3636 33.3363 34.3851 33.392C34.4067 33.4478 34.4372 33.5013 34.4647 33.5548C34.4889 33.6057 34.5157 33.6554 34.545 33.7035C34.5781 33.7527 34.6139 33.8001 34.652 33.8455C34.6877 33.8909 34.7219 33.937 34.7613 33.9786C34.8007 34.0203 34.8468 34.0574 34.8914 34.0961C34.936 34.1348 34.9784 34.1704 35.026 34.2069C35.0779 34.2413 35.1315 34.2731 35.1866 34.302C35.2342 34.3288 35.2803 34.3578 35.3308 34.3808C35.3963 34.4081 35.4633 34.4315 35.5316 34.4507C35.571 34.4634 35.6059 34.482 35.6476 34.4916C35.6557 34.4916 35.6632 34.4916 35.6714 34.4916C35.803 34.5223 35.9377 34.5382 36.0728 34.5392H39.9561C40.1021 34.5376 40.2474 34.5184 40.3888 34.482C40.4253 34.473 40.4632 34.4597 40.4959 34.4485C40.6014 34.4155 40.7037 34.373 40.8015 34.3214C40.8372 34.3028 40.8721 34.2857 40.907 34.2641C41.0296 34.1904 41.1431 34.1025 41.2453 34.0024C41.2557 33.992 41.2632 33.9786 41.2736 33.9682C41.3657 33.8695 41.4465 33.7608 41.5145 33.6441C41.5219 33.6292 41.5375 33.6166 41.5464 33.5987Z" fill="black"/>
</svg>
