<svg width="48" height="48" viewBox="0 0 48 48" fill="none" xmlns="http://www.w3.org/2000/svg">
<path fill-rule="evenodd" clip-rule="evenodd" d="M16.5393 10.9659C16.541 10.9711 16.5427 10.9764 16.5442 10.9817L16.5541 11.0169C16.563 11.0486 16.5725 11.0812 16.5842 11.1118C16.5901 11.1274 16.5969 11.1427 16.6041 11.158C16.6104 11.1715 16.6171 11.1849 16.6238 11.1984C16.63 11.2108 16.6361 11.2232 16.6421 11.2358C16.6455 11.2429 16.6488 11.2497 16.6522 11.2565L16.6589 11.2696C16.6735 11.298 16.6888 11.3244 16.7061 11.3519C16.7301 11.3899 16.7581 11.4239 16.7841 11.4579C16.7929 11.4695 16.8022 11.4815 16.8118 11.4936C16.8307 11.5173 16.8509 11.5415 16.8721 11.564C16.8974 11.5909 16.9239 11.614 16.9507 11.6374L16.9512 11.6378L16.972 11.656C16.9847 11.6672 16.9973 11.678 17.01 11.6886L17.0227 11.6991C17.0283 11.7036 17.0338 11.708 17.0394 11.7124C17.0514 11.7219 17.0636 11.7311 17.076 11.74C17.1091 11.764 17.1576 11.7914 17.201 11.8159L17.2119 11.8221C17.2218 11.8277 17.2298 11.8324 17.2366 11.8365L17.2475 11.8432L17.2503 11.845L17.2511 11.8455C17.2662 11.8549 17.2756 11.8608 17.2939 11.8681H17.3119C17.3804 11.8974 17.4513 11.9208 17.5238 11.9381L17.5918 11.9601C17.6601 11.9778 17.7296 11.9905 17.7997 11.9982H30.1893C30.2604 11.9958 30.3312 11.9884 30.4013 11.9761L30.4673 11.9541C30.5042 11.9453 30.5407 11.9349 30.5768 11.923C30.5861 11.9198 30.5955 11.9166 30.6048 11.9133L30.6217 11.9071C30.641 11.8999 30.6602 11.8922 30.6792 11.8841H30.6992C30.7079 11.8804 30.7163 11.8758 30.7245 11.8709C30.7306 11.8673 30.7366 11.8635 30.7426 11.8597L30.7432 11.8592C30.7549 11.8518 30.7666 11.8444 30.7791 11.8381C30.8071 11.8241 30.8731 11.7861 30.9171 11.7561C30.9456 11.7366 30.9657 11.7188 30.9856 11.7011C30.9964 11.6915 31.0071 11.6819 31.0191 11.672C31.053 11.644 31.087 11.614 31.119 11.58C31.132 11.5661 31.1447 11.5519 31.157 11.5374C31.1744 11.5169 31.1911 11.4957 31.207 11.4739C31.2184 11.4602 31.2296 11.4462 31.2403 11.432L31.2471 11.4229L31.2533 11.4144L31.2621 11.4021C31.2699 11.3908 31.2776 11.3794 31.285 11.3679C31.3082 11.3303 31.3296 11.2916 31.3489 11.2518C31.3564 11.236 31.3642 11.2205 31.372 11.2051L31.3831 11.1829C31.3921 11.1647 31.4009 11.1464 31.4089 11.1278C31.4139 11.1161 31.4181 11.1043 31.4219 11.0924C31.4239 11.0862 31.4257 11.0801 31.4275 11.0739C31.43 11.065 31.4325 11.056 31.4349 11.047L31.4352 11.0457C31.4395 11.0297 31.4438 11.0137 31.4489 10.9977C31.4629 10.9537 31.4729 10.9137 31.4829 10.8697C31.4842 10.864 31.4853 10.858 31.4864 10.8517C31.4878 10.8434 31.489 10.8346 31.49 10.8255C31.491 10.8168 31.4919 10.8077 31.4927 10.7985L31.4938 10.7845C31.4948 10.7716 31.4956 10.7584 31.4965 10.7454L31.4976 10.729L31.4989 10.7096C31.5015 10.6738 31.5007 10.6591 31.4998 10.644L31.4993 10.6348C31.4991 10.6316 31.499 10.6283 31.499 10.6247L31.4989 10.6176V10.5975C31.4975 10.5425 31.4922 10.4877 31.4829 10.4335C31.4829 10.3955 31.4829 10.3555 31.4669 10.3194C31.4573 10.2772 31.4446 10.2357 31.4289 10.1954C31.4265 10.1882 31.4242 10.181 31.422 10.1738C31.4197 10.1666 31.4175 10.1593 31.4153 10.1521L31.415 10.1513L31.4145 10.1497L31.4124 10.1431C31.4059 10.1217 31.3992 10.1004 31.3914 10.0794C31.3881 10.0707 31.3847 10.062 31.3809 10.0533C31.3804 10.0483 31.3802 10.0433 31.3804 10.0383L31.3805 10.0365L31.3806 10.0342L31.3809 10.0313C30.5226 8.14646 29.4319 6.37659 28.1341 4.76303C28.128 4.75572 28.1217 4.74897 28.1154 4.74249L28.1079 4.73493L28.0992 4.72645L28.0986 4.72583L28.0911 4.7186C28.0879 4.71547 28.0848 4.71232 28.0816 4.70911L28.0769 4.7042L28.0721 4.699C28.0521 4.67699 28.0081 4.63096 27.9721 4.59895C27.9361 4.56695 27.8982 4.54093 27.8602 4.51292C27.834 4.49361 27.8116 4.4781 27.7878 4.46312C27.777 4.45636 27.766 4.44972 27.7542 4.44288C27.711 4.41743 27.6663 4.39472 27.6203 4.37486L27.6083 4.36934C27.6027 4.36682 27.5971 4.36436 27.5915 4.36194C27.5846 4.35896 27.5776 4.35604 27.5706 4.35321C27.5508 4.34513 27.5306 4.33767 27.5103 4.33083C27.4579 4.31313 27.4045 4.29843 27.3504 4.28682L27.2804 4.26682H27.1824C25.0693 3.91445 22.9128 3.91107 20.7987 4.2568H20.7207L20.6407 4.27882C20.6163 4.28469 20.5923 4.29057 20.5686 4.29691C20.5438 4.30353 20.5193 4.31066 20.4948 4.31883C20.4856 4.32189 20.4771 4.32489 20.469 4.32784L20.459 4.3316L20.4482 4.33582C20.4236 4.34557 20.4023 4.3554 20.3768 4.36686C20.3589 4.37493 20.3398 4.38381 20.3203 4.39331C20.2964 4.405 20.272 4.41764 20.2489 4.43088L20.1389 4.50492C20.1009 4.53092 20.0649 4.55893 20.029 4.58895C20.0158 4.60088 20.0029 4.6131 19.9903 4.62559C19.9754 4.64033 19.9609 4.65545 19.9468 4.67095L19.9427 4.67549C19.9381 4.68062 19.9335 4.68578 19.929 4.691C19.9225 4.69748 19.9158 4.70376 19.909 4.71011L19.9088 4.71033C19.9023 4.71642 19.8957 4.72257 19.8892 4.72902C19.8817 4.73649 19.8742 4.74437 19.867 4.75302C18.5673 6.36423 17.4745 8.1321 16.6142 10.0153V10.0373C16.5955 10.083 16.5795 10.1298 16.5662 10.1774C16.5522 10.2194 16.5362 10.2614 16.5262 10.3034C16.5232 10.3201 16.5206 10.3369 16.5185 10.3536C16.5157 10.3748 16.5136 10.3961 16.5122 10.4175C16.5032 10.4718 16.4972 10.5266 16.4942 10.5816V10.6936C16.4965 10.7472 16.5018 10.8007 16.5102 10.8537C16.5102 10.8689 16.5128 10.8839 16.5168 10.8988C16.5208 10.9137 16.5261 10.9285 16.5313 10.9432C16.534 10.9507 16.5367 10.9583 16.5393 10.9659ZM21.6964 6.95598C22.459 6.85147 23.2278 6.79799 23.9975 6.7959C24.7675 6.8013 25.5363 6.85812 26.2987 6.96598C26.8486 7.68338 27.3522 8.43523 27.8062 9.21696H20.1989C20.6493 8.43208 21.1495 7.67689 21.6964 6.95598Z" fill="black"/>
<path d="M10.0825 11.556C9.96285 11.4278 9.86796 11.2785 9.80258 11.1158C9.80258 11.1095 9.80258 11.1033 9.80275 11.0967L9.80304 11.0886C9.80334 11.0827 9.80383 11.0765 9.80458 11.0698C9.74935 10.9184 9.72029 10.7587 9.7186 10.5976V10.5715C9.71958 10.5609 9.71958 10.5502 9.7186 10.5395C9.72363 10.3684 9.75953 10.1996 9.82457 10.0413C9.89608 9.87441 10 9.72341 10.1305 9.59713C11.1059 8.65209 12.1743 7.80811 13.3193 7.07803C13.3276 7.07321 13.3363 7.06919 13.3453 7.06603C13.3898 7.03992 13.4359 7.01653 13.4833 6.996C13.4981 6.98975 13.5108 6.98319 13.5236 6.97656L13.5239 6.97641C13.5365 6.96994 13.5492 6.96339 13.5641 6.95701C13.5729 6.95326 13.5825 6.94957 13.5932 6.94598C13.6137 6.93916 13.637 6.93235 13.6598 6.92615C13.6781 6.9212 13.696 6.91664 13.7119 6.91279C13.7228 6.91014 13.7328 6.90783 13.7412 6.90596C13.7772 6.89796 13.8151 6.87995 13.8531 6.87995C13.9082 6.87289 13.9636 6.86888 14.0191 6.86794H14.117C14.1336 6.86893 14.15 6.87025 14.1665 6.87191C14.1722 6.87249 14.1779 6.87311 14.1835 6.87377L14.1942 6.87505C14.2246 6.87885 14.2549 6.88382 14.285 6.88995L14.3849 6.90396C14.4126 6.91119 14.4404 6.92133 14.4677 6.93131C14.4856 6.93789 14.5034 6.9444 14.5209 6.94997C14.5394 6.95586 14.5575 6.96175 14.5755 6.96794C14.6002 6.97646 14.6245 6.98556 14.6489 6.996L14.6688 7.014C14.7008 7.03001 14.7128 7.04402 14.7548 7.06803L14.777 7.08062C14.785 7.08508 14.7929 7.08953 14.8007 7.09404L14.8125 7.10087L14.823 7.10707L14.8332 7.11326C14.8387 7.11661 14.8441 7.12004 14.8494 7.12356C14.8593 7.13002 14.8691 7.13681 14.8788 7.14406C14.8925 7.15439 14.9061 7.16543 14.9192 7.17662C14.9345 7.18968 14.9493 7.20291 14.9633 7.21544C14.9721 7.22336 14.9806 7.23099 14.9887 7.2381C15.0207 7.26611 15.0527 7.29413 15.0827 7.32614C15.1175 7.36572 15.1502 7.40713 15.1807 7.45019C15.1987 7.4762 15.2207 7.49622 15.2366 7.52223C15.2415 7.5305 15.2455 7.5392 15.2486 7.54824C15.2737 7.59167 15.2964 7.63643 15.3166 7.6823C15.3257 7.70152 15.3363 7.72125 15.3462 7.74099C15.3558 7.76027 15.3647 7.77956 15.3706 7.79835C15.3775 7.8203 15.3865 7.84291 15.3928 7.86581C15.3946 7.87243 15.3962 7.87906 15.3974 7.8857C15.3994 7.89591 15.4006 7.90615 15.4006 7.91639C15.4229 7.96383 15.4423 8.01262 15.4586 8.06245V8.32857C15.457 8.34842 15.4549 8.36823 15.4524 8.38796C15.4497 8.40893 15.4464 8.42982 15.4426 8.45062C15.4382 8.49972 15.4308 8.54849 15.4206 8.59669C15.4087 8.63218 15.3947 8.66693 15.3786 8.70073C15.3626 8.75393 15.3432 8.80606 15.3206 8.8568V8.88081C14.9687 9.59713 14.6409 10.3555 14.323 11.1058V11.1178C14.275 11.2337 14.2118 11.3427 14.135 11.4419L14.0791 11.512C13.9999 11.6045 13.9092 11.6866 13.8091 11.7561C13.7086 11.8205 13.6005 11.8723 13.4873 11.9101L13.4013 11.9361C13.2853 11.9685 13.1658 11.9867 13.0454 11.9902H11.0881C10.9955 11.9898 10.9031 11.9804 10.8122 11.9622C10.7755 11.9534 10.7393 11.9428 10.7037 11.9305C10.6904 11.926 10.6773 11.9212 10.6643 11.9161C10.6243 11.9041 10.5863 11.8961 10.5483 11.8821C10.464 11.8465 10.3836 11.8022 10.3084 11.7501C10.3026 11.7468 10.2973 11.7408 10.2919 11.7349C10.2842 11.7264 10.2767 11.718 10.2684 11.718C10.2053 11.6743 10.1464 11.6247 10.0925 11.57L10.0825 11.556Z" fill="black"/>
<path fill-rule="evenodd" clip-rule="evenodd" d="M11.9618 34.2958H11.9798C12.0005 34.2958 12.0196 34.2866 12.0386 34.2773C12.0489 34.2723 12.0592 34.2673 12.0698 34.2638C12.1214 34.2495 12.1721 34.2321 12.2217 34.2118C12.2614 34.1924 12.3001 34.171 12.3377 34.1477C12.3574 34.1374 12.3767 34.1265 12.3958 34.1151C12.4082 34.1076 12.4204 34.0999 12.4325 34.0919L12.4398 34.0871L12.4462 34.0828L12.4536 34.0777C12.4925 34.0505 12.5293 34.0204 12.5636 33.9877C12.5715 33.9807 12.5794 33.9739 12.5873 33.9672L12.5887 33.966L12.6071 33.9501C12.6158 33.9425 12.6245 33.9348 12.6331 33.9269C12.6414 33.9194 12.6495 33.9117 12.6575 33.9036C12.6654 33.8958 12.6732 33.8872 12.6808 33.8782C12.6924 33.8647 12.7037 33.8501 12.7152 33.8355C12.7252 33.8228 12.7353 33.8099 12.7455 33.7976C12.7755 33.7616 12.7995 33.7296 12.8235 33.6915C12.8468 33.6546 12.8681 33.6166 12.8875 33.5775C12.9075 33.5355 12.9295 33.4955 12.9475 33.4534C12.9621 33.4193 12.9714 33.3839 12.9808 33.3483L12.9842 33.3353L12.9874 33.3234C12.9908 33.311 12.9943 33.2989 12.9978 33.2867L12.9979 33.2865C13.0069 33.2555 13.0157 33.2249 13.0214 33.1933C13.0261 33.1655 13.0298 33.1376 13.0325 33.1095C13.0348 33.0868 13.0364 33.064 13.0374 33.0413V32.9172C13.0358 32.8716 13.0312 32.8261 13.0234 32.7812C13.0234 32.7311 13.0234 32.6811 13.0034 32.6331C13.0029 32.6293 13.0027 32.6254 13.0027 32.6216C13.0027 32.6181 13.003 32.6146 13.0034 32.6111C11.6609 26.9539 11.6609 21.0608 13.0034 15.4036C13.0025 15.3977 13.0025 15.3916 13.0034 15.3856C13.0111 15.3471 13.0153 15.3086 13.0195 15.2692C13.0208 15.2574 13.022 15.2455 13.0234 15.2336C13.0311 15.1892 13.0357 15.1444 13.0374 15.0995V14.9754C13.0352 14.9245 13.0298 14.8737 13.0214 14.8234C13.0214 14.8056 13.0182 14.7888 13.0135 14.7722C13.0099 14.76 13.0056 14.7479 13.0013 14.7357L13.001 14.7348C12.9962 14.7212 12.9913 14.7074 12.9874 14.6933C12.9755 14.6493 12.9634 14.6053 12.9475 14.5633C12.9292 14.5208 12.9085 14.4793 12.8855 14.4392C12.8779 14.4229 12.8698 14.4067 12.8614 14.3908C12.8576 14.3837 12.8538 14.3767 12.8499 14.3697C12.8415 14.3547 12.8327 14.3398 12.8235 14.3252C12.8039 14.2941 12.7817 14.2658 12.759 14.2368L12.7587 14.2365L12.7435 14.2171C12.7171 14.1807 12.6883 14.1459 12.6575 14.1131C12.6276 14.0831 12.5956 14.055 12.5636 14.027L12.555 14.0195L12.5541 14.0187L12.5539 14.0185C12.5354 14.0023 12.5152 13.9846 12.4939 13.9675L12.486 13.9611L12.4754 13.9529C12.4682 13.9474 12.461 13.9421 12.4536 13.937C12.437 13.9257 12.4202 13.9148 12.4031 13.9044C12.383 13.892 12.3625 13.8802 12.3417 13.869L12.3244 13.8594L12.3154 13.8543C12.3035 13.8476 12.2915 13.8409 12.2795 13.8344C12.2599 13.8237 12.24 13.8136 12.2197 13.8049C12.1741 13.7856 12.1273 13.7689 12.0798 13.7549C12.0458 13.7429 12.0138 13.7289 11.9798 13.7189H11.9578C11.9436 13.7189 11.929 13.7176 11.9144 13.7155C11.8982 13.7133 11.882 13.7103 11.8658 13.7073C11.8489 13.7041 11.8321 13.701 11.8159 13.6989C11.7939 13.696 11.7715 13.6932 11.7491 13.6907C11.7245 13.6881 11.6999 13.6859 11.6759 13.6849H7.61935C7.59311 13.6861 7.5669 13.6881 7.54076 13.6908C7.53446 13.6915 7.52819 13.6922 7.52192 13.6929C7.51597 13.6936 7.51001 13.6944 7.50408 13.6952C7.49117 13.6969 7.47826 13.6988 7.4654 13.7009C7.44063 13.704 7.41598 13.708 7.39147 13.7127C7.38274 13.7144 7.37402 13.7161 7.36533 13.718C7.35801 13.7196 7.35072 13.7212 7.34344 13.7229C7.29746 13.7349 7.25148 13.7489 7.20751 13.7649L7.18366 13.7737L7.17265 13.7779L7.15843 13.7834C7.14678 13.7879 7.13551 13.7925 7.12431 13.7973C7.11271 13.8022 7.10122 13.8074 7.08953 13.8129C7.04631 13.8332 7.00423 13.8559 6.96357 13.881C6.9573 13.8846 6.95108 13.8883 6.94488 13.8921L6.93468 13.8983L6.92255 13.9059C6.91674 13.9096 6.91098 13.9134 6.90524 13.9172C6.8898 13.9274 6.87457 13.938 6.85961 13.949C6.82053 13.9775 6.78317 14.0082 6.74766 14.041C6.71622 14.0682 6.68621 14.0969 6.6577 14.1271C6.62622 14.1613 6.59683 14.1974 6.56972 14.2351C6.55551 14.2532 6.5418 14.2718 6.52862 14.2907C6.51991 14.3032 6.51141 14.3158 6.50314 14.3287C6.49792 14.3368 6.49277 14.3449 6.48774 14.3532C6.48774 14.3712 6.46375 14.3852 6.45377 14.4032C4.84382 17.3479 4 20.6507 4 24.0074C4 27.364 4.84382 30.6668 6.45377 33.6115C6.45643 33.6161 6.45924 33.6205 6.46219 33.6249C6.46529 33.6294 6.46856 33.6339 6.47198 33.6382C6.47449 33.6413 6.47708 33.6445 6.47976 33.6475C6.53257 33.7396 6.59634 33.8249 6.66968 33.9016C6.67456 33.9098 6.68062 33.9172 6.68767 33.9237C6.76628 34.0002 6.8535 34.0673 6.94759 34.1237L7.02756 34.1677C7.10295 34.2078 7.18195 34.2406 7.26347 34.2658L7.34544 34.2918C7.45388 34.3199 7.56534 34.3347 7.67733 34.3358H11.6519C11.7564 34.3339 11.8603 34.3204 11.9618 34.2958ZM9.93652 31.5406H8.53701C7.39057 29.1937 6.79464 26.6158 6.79464 24.0034C6.79464 21.391 7.39057 18.813 8.53701 16.4661H9.93652C8.97155 21.4445 8.97155 26.5622 9.93652 31.5406Z" fill="black"/>
<path fill-rule="evenodd" clip-rule="evenodd" d="M32.6105 34.0197C32.7083 33.9418 32.7951 33.8509 32.8684 33.7496L32.8924 33.7216C32.9672 33.6071 33.0251 33.4824 33.0643 33.3514C33.0643 33.3354 33.0803 33.3234 33.0843 33.3094C33.0862 33.3029 33.0893 33.2895 33.093 33.274C33.0955 33.2631 33.0983 33.2512 33.1011 33.2399C33.1029 33.2327 33.1046 33.2257 33.1063 33.2194C33.9185 30.215 34.3266 27.1157 34.3199 24.0034C34.3256 20.895 33.9174 17.7998 33.1063 14.7994C33.1063 14.7786 33.0998 14.7568 33.0931 14.7347L33.0894 14.7223C33.0883 14.7186 33.0873 14.715 33.0863 14.7113C33.084 14.7027 33.0812 14.6946 33.0782 14.6868C33.0745 14.6772 33.0703 14.6681 33.0662 14.659C33.0638 14.6536 33.0613 14.6483 33.0591 14.6428C33.0574 14.639 33.0558 14.6352 33.0543 14.6313C33.0394 14.5851 33.0221 14.5396 33.0024 14.4952C32.9823 14.4532 32.9604 14.4132 32.9364 14.3732C32.9149 14.336 32.8916 14.2999 32.8664 14.2651C32.8379 14.2249 32.8065 14.1868 32.7724 14.1511C32.7464 14.1231 32.7205 14.0931 32.6905 14.0651C32.6536 14.0316 32.6149 14.0002 32.5745 13.971C32.5574 13.9573 32.5396 13.9443 32.5216 13.9315C32.508 13.9219 32.4943 13.9124 32.4805 13.903C32.4486 13.881 32.3926 13.853 32.3466 13.831L32.3298 13.8229C32.2942 13.8058 32.272 13.7951 32.2406 13.7829C32.1909 13.7646 32.1402 13.7492 32.0887 13.7369L31.9827 13.7109C31.9638 13.7078 31.9449 13.7051 31.9259 13.7028C31.915 13.7016 31.9042 13.7004 31.8933 13.6994C31.8665 13.697 31.8397 13.6955 31.8128 13.6949H16.1803C16.1261 13.6973 16.072 13.7026 16.0184 13.7109L15.9064 13.7369C15.8774 13.7447 15.8496 13.7526 15.8224 13.7611C15.8008 13.7678 15.7797 13.775 15.7585 13.7829C15.7266 13.7949 15.7053 13.8051 15.6841 13.8153L15.6838 13.8154C15.6732 13.8205 15.6625 13.8256 15.6505 13.831C15.6053 13.8526 15.5612 13.8766 15.5185 13.903L15.5095 13.9087L15.4966 13.9171C15.4909 13.9209 15.4852 13.9248 15.4795 13.9287C15.4601 13.9422 15.4411 13.9563 15.4226 13.971C15.3821 14.0007 15.3434 14.0328 15.3066 14.0671C15.2778 14.0936 15.2505 14.1216 15.2247 14.1511C15.1927 14.1871 15.1607 14.2251 15.1307 14.2651C15.1092 14.2939 15.0949 14.3185 15.0804 14.3434C15.0747 14.3532 15.0689 14.363 15.0627 14.3732C15.038 14.4123 15.016 14.4531 14.9967 14.4952C14.9912 14.5068 14.9858 14.5185 14.9807 14.5302C14.9664 14.5626 14.9538 14.5957 14.9428 14.6293C14.9428 14.639 14.9401 14.6485 14.9363 14.658C14.9346 14.6622 14.9326 14.6664 14.9306 14.6707L14.9266 14.6788L14.9264 14.6791C14.9212 14.6897 14.9159 14.7004 14.9128 14.7113C14.9088 14.7253 14.9053 14.7404 14.9018 14.7554L14.8999 14.7631L14.8961 14.7791L14.8937 14.7885L14.8908 14.7994C13.2626 20.8662 13.2702 27.2565 14.9128 33.3194C14.9128 33.3271 14.917 33.3342 14.9215 33.3417C14.9252 33.3479 14.929 33.3542 14.9308 33.3614C14.9698 33.4928 15.0285 33.6176 15.1047 33.7316C15.1047 33.7376 15.1104 33.7428 15.1163 33.7483C15.1203 33.7519 15.1243 33.7556 15.1267 33.7596C15.2013 33.8605 15.2886 33.9513 15.3866 34.0297L15.4406 34.0757C15.546 34.1503 15.661 34.2102 15.7825 34.2538L15.8544 34.2778C15.9839 34.3184 16.1186 34.34 16.2543 34.3418H31.7408C31.8765 34.34 32.0112 34.3184 32.1407 34.2778C32.1646 34.2778 32.1906 34.2638 32.2146 34.2538C32.3355 34.2102 32.4498 34.1503 32.5545 34.0757C32.5745 34.0517 32.5945 34.0337 32.6105 34.0197ZM30.6392 31.5406H17.3579C16.169 26.5862 16.169 21.4205 17.3579 16.4661H30.6392C31.2306 18.9348 31.5299 21.4646 31.5309 24.0034C31.5299 26.5421 31.2306 29.0719 30.6392 31.5406Z" fill="black"/>
<path d="M32.6105 8.70272C32.5964 8.66812 32.5844 8.63271 32.5745 8.59668C32.5679 8.54626 32.5646 8.49547 32.5645 8.44461C32.5485 8.40459 32.5485 8.36658 32.5485 8.32656C32.5466 8.2938 32.5459 8.26101 32.5465 8.22822C32.5468 8.21031 32.5475 8.19239 32.5485 8.1745C32.5465 8.13584 32.5465 8.0971 32.5485 8.05845C32.557 8.01045 32.5683 7.96302 32.5825 7.91638C32.591 7.87584 32.6017 7.83576 32.6145 7.79633C32.6297 7.75675 32.6471 7.71802 32.6664 7.68028C32.6867 7.63441 32.7094 7.58967 32.7344 7.54623C32.7392 7.53796 32.7433 7.52925 32.7464 7.52021C32.7566 7.50554 32.768 7.49214 32.7793 7.47892C32.788 7.46873 32.7966 7.45865 32.8044 7.44819C32.8343 7.40525 32.8663 7.36385 32.9004 7.32413C32.9324 7.29011 32.9664 7.26211 32.9983 7.23209C33.0318 7.20061 33.0672 7.1712 33.1043 7.14405C33.1459 7.11413 33.1893 7.08674 33.2343 7.06202C33.2378 7.06002 33.2412 7.05795 33.2446 7.05585C33.2481 7.05367 33.2516 7.05143 33.255 7.04917L33.2666 7.04152C33.2725 7.0376 33.2783 7.03368 33.2843 7.02987C33.2944 7.02341 33.3049 7.01727 33.3162 7.012H33.3402C33.3613 7.00266 33.3826 6.99388 33.4041 6.98568C33.4285 6.97636 33.4532 6.96779 33.4782 6.95997C33.4933 6.95493 33.5086 6.95094 33.5239 6.94694L33.5242 6.94687C33.5515 6.93979 33.5786 6.93272 33.6041 6.91995C33.6117 6.91618 33.6189 6.91334 33.6261 6.91115C33.6299 6.90998 33.6337 6.909 33.6375 6.90817C33.6527 6.90487 33.6677 6.90405 33.6842 6.90315C33.6965 6.90248 33.7095 6.90177 33.7241 6.89995C33.7397 6.898 33.756 6.8954 33.7724 6.89278C33.8062 6.88738 33.8404 6.88194 33.87 6.88194H34.002C34.0461 6.88229 34.0902 6.88563 34.1339 6.89194C34.1832 6.90022 34.232 6.91159 34.2799 6.92595C34.3184 6.9345 34.3565 6.94519 34.3938 6.95797C34.4398 6.97398 34.4818 6.99599 34.5258 7.01599C34.5448 7.02448 34.5636 7.03342 34.5821 7.0428L34.5978 7.05086L34.6056 7.05497L34.6183 7.0618C34.6269 7.06644 34.6353 7.07118 34.6437 7.07602C34.6457 7.07952 34.6485 7.08215 34.6515 7.08411C34.6532 7.08524 34.655 7.08615 34.6568 7.08688C34.6595 7.08801 34.6622 7.08873 34.6645 7.08919C34.6687 7.09002 34.6717 7.09002 34.6717 7.09002C35.82 7.81525 36.8918 8.65525 37.8706 9.59711C38.0044 9.72653 38.1117 9.88081 38.1865 10.0513C38.2524 10.2094 38.2884 10.3783 38.2925 10.5495C38.2934 10.5602 38.2934 10.5709 38.2925 10.5815V10.5975C38.2827 10.7641 38.2427 10.9275 38.1745 11.0798L38.1625 11.1218C38.097 11.2849 38.0013 11.4342 37.8806 11.562L37.8706 11.576C37.8142 11.6321 37.7534 11.6837 37.6887 11.73L37.6567 11.756C37.5805 11.8078 37.4995 11.852 37.4148 11.8881C37.3988 11.8941 37.3828 11.8986 37.3668 11.9031C37.3508 11.9076 37.3348 11.9121 37.3188 11.9181C37.2967 11.926 37.2744 11.9335 37.252 11.9404C37.2186 11.9507 37.1849 11.96 37.1509 11.9681C37.1031 11.9778 37.0548 11.985 37.0063 11.9896C36.9874 11.9914 36.9684 11.9929 36.9494 11.994C36.9383 11.9946 36.9273 11.9951 36.9162 11.9954C36.9024 11.9959 36.8887 11.9961 36.875 11.9962H34.9177C34.7973 11.9926 34.6778 11.9745 34.5618 11.9421L34.4758 11.9161C34.3626 11.8783 34.2545 11.8265 34.1539 11.7621C34.0539 11.6926 33.9632 11.6105 33.884 11.5179L33.826 11.4459C33.7495 11.3476 33.687 11.2392 33.6401 11.1238V11.1118C33.3442 10.3494 33.0163 9.59912 32.6664 8.8828C32.6673 8.87483 32.6673 8.86677 32.6664 8.85879C32.6445 8.808 32.6258 8.75588 32.6105 8.70272Z" fill="black"/>
<path d="M15.4018 39.3451L15.4016 39.3446C15.3968 39.3337 15.392 39.3228 15.3886 39.312C15.3719 39.2561 15.3519 39.2014 15.3286 39.1479V39.1259C14.9787 38.4056 14.6509 37.6573 14.353 36.8969V36.8849C14.3276 36.8256 14.2983 36.7681 14.265 36.7129C14.2594 36.7032 14.2541 36.693 14.2488 36.6826C14.2446 36.6744 14.2403 36.6662 14.2359 36.6582C14.2318 36.6509 14.2276 36.6437 14.223 36.6368C14.1932 36.5933 14.1605 36.5518 14.125 36.5128C14.1142 36.4977 14.1027 36.483 14.0908 36.4687C14.0781 36.4536 14.0649 36.4389 14.0511 36.4247C14.0169 36.3919 13.9809 36.3612 13.9431 36.3327C13.9358 36.3267 13.9285 36.3205 13.9213 36.3142L13.9075 36.3022C13.888 36.285 13.8684 36.2676 13.8471 36.2527C13.8029 36.2242 13.7569 36.1988 13.7092 36.1766C13.6783 36.1573 13.6463 36.14 13.6132 36.1246C13.5998 36.1191 13.5862 36.1139 13.5725 36.1089C13.5664 36.1067 13.5602 36.1045 13.554 36.1024L13.5398 36.0977C13.5274 36.0937 13.515 36.0899 13.5025 36.0864C13.4928 36.0836 13.4831 36.081 13.4733 36.0786C13.4598 36.0743 13.4461 36.0696 13.4322 36.0648C13.4191 36.0602 13.4058 36.0556 13.3924 36.0513C13.3801 36.0473 13.3677 36.0437 13.3553 36.0406C13.3371 36.036 13.319 36.0356 13.3008 36.0352C13.2942 36.035 13.2875 36.0349 13.2808 36.0345C13.2768 36.0343 13.2727 36.034 13.2686 36.0336C13.2637 36.0331 13.2588 36.0324 13.2538 36.0315C13.2477 36.0303 13.2415 36.0287 13.2354 36.0266C13.2141 36.0231 13.1927 36.0202 13.1713 36.0178C13.1569 36.0162 13.1424 36.0148 13.1278 36.0136C13.1214 36.0131 13.1149 36.0126 13.1084 36.0122C13.0988 36.0115 13.0891 36.011 13.0794 36.0106H11.0801C10.9063 36.0153 10.7349 36.0519 10.5743 36.1186C10.4062 36.1916 10.254 36.297 10.1265 36.4287V36.4427C9.98845 36.5687 9.87814 36.722 9.80258 36.8929C9.79768 36.906 9.79367 36.9193 9.79057 36.9329C9.73381 37.084 9.70401 37.2438 9.70262 37.4052V37.4512C9.70735 37.6238 9.74396 37.7941 9.81059 37.9534C9.885 38.1252 9.99309 38.2803 10.1285 38.4096C11.1031 39.3512 12.1709 40.1912 13.3153 40.9167C13.3951 40.9629 13.4795 41.0005 13.5672 41.0287C13.7211 41.0912 13.8851 41.1251 14.0511 41.1288C14.1609 41.1283 14.2703 41.1148 14.377 41.0888C14.4009 41.0888 14.4241 41.0776 14.4475 41.0664C14.4611 41.0598 14.4749 41.0532 14.4889 41.0487C14.5128 41.0417 14.5366 41.0343 14.5603 41.0263C14.5797 41.0197 14.599 41.0128 14.6182 41.0055C14.6325 41.0001 14.6467 40.9945 14.6609 40.9887C14.6691 40.9827 14.6778 40.9773 14.6869 40.9727C14.6953 40.9682 14.7035 40.9632 14.7117 40.958L14.7229 40.9508L14.7308 40.9457C14.7378 40.9411 14.7449 40.9364 14.7521 40.932C14.7596 40.9273 14.7671 40.9228 14.7748 40.9187C14.838 40.8799 14.8981 40.8364 14.9548 40.7886L15.0347 40.7146C15.0915 40.6573 15.143 40.595 15.1887 40.5285C15.2007 40.5105 15.2187 40.4985 15.2287 40.4805C15.233 40.4727 15.2336 40.4682 15.234 40.4651C15.2345 40.461 15.2347 40.459 15.2426 40.4545C15.2666 40.4125 15.2846 40.3704 15.3046 40.3284C15.3246 40.2864 15.3466 40.2464 15.3626 40.2024C15.374 40.1669 15.3834 40.1309 15.3906 40.0943C15.4061 40.0437 15.4188 39.9923 15.4286 39.9403V39.8342C15.4316 39.7809 15.4316 39.7275 15.4286 39.6741C15.4286 39.6361 15.4286 39.6001 15.4146 39.5621C15.4172 39.5345 15.4189 39.5068 15.4199 39.4791C15.4207 39.4561 15.4209 39.4331 15.4206 39.41C15.4206 39.3994 15.4184 39.389 15.4152 39.3787C15.4116 39.3673 15.4067 39.3562 15.4018 39.3451Z" fill="black"/>
<path fill-rule="evenodd" clip-rule="evenodd" d="M31.4509 37.023C31.4649 37.067 31.4769 37.109 31.4869 37.155C31.4903 37.1784 31.4919 37.2028 31.4934 37.2258C31.4946 37.2437 31.4957 37.2608 31.4976 37.2758C31.4989 37.286 31.5006 37.2953 31.5029 37.3031C31.5129 37.3371 31.5129 37.3952 31.5129 37.4032V37.4252C31.5113 37.4748 31.5066 37.5242 31.4989 37.5732C31.4969 37.5879 31.4951 37.6037 31.4933 37.6195C31.4922 37.6298 31.491 37.6402 31.4897 37.6503C31.4872 37.6708 31.4845 37.6901 31.4809 37.7053C31.476 37.7262 31.4688 37.7479 31.4617 37.7694C31.4572 37.7828 31.4528 37.7962 31.4489 37.8093C31.4329 37.8645 31.4135 37.9186 31.3909 37.9714C31.3918 37.9774 31.3918 37.9834 31.3909 37.9894C30.5424 39.8423 29.468 41.583 28.1921 43.1717C28.1741 43.1957 28.1561 43.2217 28.1401 43.2417C28.1313 43.2527 28.1214 43.2612 28.1115 43.2697C28.1034 43.2767 28.0953 43.2836 28.0881 43.2917C28.046 43.3382 28.0012 43.3823 27.9542 43.4238L27.8622 43.4958C27.8142 43.5278 27.7522 43.5678 27.7142 43.5858C27.699 43.593 27.6844 43.6006 27.67 43.6081C27.6484 43.6192 27.627 43.6303 27.6043 43.6399C27.5538 43.6614 27.5016 43.6788 27.4483 43.6919C27.4353 43.6956 27.4222 43.7003 27.4092 43.705L27.4089 43.7051C27.3801 43.7155 27.3512 43.7259 27.3224 43.7259H27.2864C25.113 44.0914 22.894 44.0914 20.7207 43.7259H20.6847C20.6407 43.7159 20.5988 43.7019 20.5568 43.6899C20.5045 43.6755 20.4531 43.6582 20.4028 43.6379C20.3648 43.6218 20.3448 43.6118 20.2929 43.5838C20.2409 43.5558 20.1769 43.5178 20.1449 43.4938L20.1342 43.4857L20.1337 43.4853C20.1058 43.4645 20.0794 43.4447 20.0529 43.4218C20.0047 43.3801 19.9593 43.3354 19.917 43.2877C19.9108 43.2815 19.9043 43.2757 19.8978 43.2697L19.8973 43.2692C19.887 43.26 19.8766 43.2506 19.867 43.2397L19.817 43.1737C18.5425 41.584 17.4681 39.8435 16.6182 37.9914V37.9734C16.5953 37.9209 16.5766 37.8667 16.5622 37.8113C16.5592 37.8012 16.5567 37.7915 16.5543 37.7819C16.5485 37.7593 16.5428 37.7367 16.5302 37.7073C16.5263 37.6981 16.524 37.6892 16.5226 37.6802C16.5213 37.6718 16.5208 37.6635 16.5206 37.655L16.5204 37.6432C16.5202 37.6228 16.5199 37.6014 16.5122 37.5772C16.4962 37.5272 16.4962 37.4772 16.4962 37.4272V37.3051C16.4986 37.2548 16.5039 37.2047 16.5122 37.155C16.5202 37.109 16.5342 37.065 16.5462 37.023L16.5503 37.0084C16.5551 36.9917 16.5599 36.9747 16.5651 36.9577C16.5714 36.9366 16.5783 36.9155 16.5862 36.8949C16.6022 36.8529 16.6222 36.8129 16.6441 36.7729C16.6518 36.7589 16.659 36.7447 16.6661 36.7306L16.6666 36.7297C16.6797 36.7037 16.6927 36.678 16.7081 36.6548C16.7321 36.6188 16.7601 36.5848 16.7861 36.5508C16.8133 36.5125 16.8434 36.4764 16.8761 36.4427C16.9408 36.3819 17.0075 36.3232 17.076 36.2667C17.1214 36.2356 17.1688 36.2075 17.2179 36.1826C17.2283 36.177 17.2381 36.1708 17.2479 36.1645L17.2481 36.1644C17.2555 36.1597 17.2629 36.1549 17.2706 36.1504C17.2781 36.1462 17.2857 36.1421 17.2939 36.1386H17.3119C17.3614 36.1173 17.4121 36.0993 17.4639 36.0846C17.5039 36.0726 17.5418 36.0486 17.5798 36.0486C17.6162 36.0419 17.6529 36.0373 17.6898 36.0346C17.7466 36.0246 17.8041 36.0186 17.8617 36.0166H30.1394C30.1615 36.0175 30.184 36.0209 30.2065 36.0244C30.233 36.0285 30.2594 36.0326 30.2853 36.0326C30.3303 36.0355 30.3751 36.0415 30.4193 36.0506C30.454 36.0585 30.4882 36.0692 30.5212 36.0826C30.5771 36.0973 30.6319 36.1161 30.6852 36.1386H30.7032C30.7081 36.1409 30.7129 36.1434 30.7176 36.146C30.7269 36.1513 30.7359 36.1571 30.7449 36.1629C30.7553 36.1697 30.7659 36.1765 30.7771 36.1826C30.8271 36.2079 30.8752 36.2367 30.9211 36.2687C30.9569 36.2944 30.991 36.3224 31.0231 36.3527C31.0583 36.3805 31.0917 36.4106 31.123 36.4427C31.1545 36.4769 31.1839 36.513 31.211 36.5508C31.2311 36.575 31.2503 36.5999 31.2686 36.6255C31.2755 36.6352 31.2823 36.6449 31.289 36.6548C31.3129 36.6928 31.3329 36.7289 31.3529 36.7709C31.3601 36.7859 31.3678 36.8007 31.3754 36.8154C31.3891 36.8418 31.4027 36.868 31.4129 36.8949C31.4224 36.9199 31.4291 36.9448 31.4359 36.9701C31.4382 36.9789 31.4406 36.9877 31.4431 36.9965C31.4455 37.0053 31.4481 37.0141 31.4509 37.023ZM23.9975 41.2208C24.7675 41.2154 25.5363 41.1586 26.2987 41.0507C26.8513 40.3366 27.3582 39.5881 27.8162 38.8098H20.1989C20.65 39.5878 21.1501 40.3363 21.6964 41.0507C22.4588 41.1586 23.2276 41.2154 23.9975 41.2208Z" fill="black"/>
<path d="M38.1925 36.8929C38.1276 36.7289 38.0319 36.5788 37.9106 36.4507L37.9006 36.4367C37.7741 36.3075 37.6241 36.2036 37.4588 36.1306H37.4468C37.2895 36.0646 37.1214 36.0286 36.9509 36.0246H34.9337C34.8827 36.0269 34.832 36.0323 34.7817 36.0406C34.7401 36.0428 34.6986 36.0482 34.6578 36.0566C34.6222 36.0642 34.5874 36.0749 34.5538 36.0886C34.5008 36.1019 34.4487 36.1186 34.3978 36.1386C34.3882 36.1386 34.3789 36.1428 34.3696 36.1486C34.3641 36.1521 34.3587 36.1561 34.3532 36.1601C34.3449 36.1662 34.3365 36.1723 34.3279 36.1766C34.2711 36.2034 34.2163 36.2341 34.1639 36.2687C34.149 36.279 34.1347 36.2913 34.1204 36.3037C34.1097 36.3129 34.099 36.3222 34.0879 36.3307C34.0435 36.3645 34.0008 36.4006 33.96 36.4387C33.936 36.4627 33.916 36.4928 33.894 36.5188C33.8566 36.5605 33.8218 36.6046 33.79 36.6508C33.7741 36.6748 33.7621 36.7029 33.7481 36.7269C33.7148 36.7821 33.6854 36.8396 33.6601 36.8989V36.9109C33.3602 37.6773 33.0323 38.4276 32.6845 39.1399V39.1619C32.6597 39.215 32.6389 39.2698 32.6225 39.326C32.6187 39.338 32.6144 39.35 32.6101 39.3621C32.6028 39.3823 32.5955 39.4028 32.5905 39.424C32.5885 39.4333 32.5867 39.4425 32.5849 39.4518C32.5767 39.4949 32.5705 39.5384 32.5665 39.5821C32.5665 39.6181 32.5545 39.6541 32.5525 39.6922C32.5495 39.7455 32.5495 39.7989 32.5525 39.8522V39.9583C32.5586 39.9906 32.5658 40.0227 32.5741 40.0545C32.5791 40.0739 32.5846 40.0932 32.5905 40.1123C32.5984 40.1489 32.6084 40.185 32.6205 40.2204C32.6362 40.2636 32.6549 40.3058 32.6765 40.3464C32.6964 40.3885 32.7164 40.4305 32.7404 40.4725C32.744 40.4814 32.748 40.49 32.7524 40.4985C32.7584 40.5075 32.7654 40.515 32.7724 40.5225L32.7727 40.5228C32.7796 40.5302 32.7865 40.5376 32.7924 40.5465C32.8388 40.613 32.891 40.6753 32.9484 40.7326L33.0263 40.8066C33.0837 40.8545 33.1445 40.8979 33.2083 40.9367C33.2209 40.9439 33.2335 40.9523 33.2462 40.9608C33.2618 40.9713 33.2777 40.9819 33.2942 40.9907L33.3222 41.0067C33.3551 41.0204 33.3884 41.0329 33.4221 41.0443C33.4459 41.0523 33.4699 41.0598 33.4942 41.0667C33.504 41.0698 33.5135 41.0733 33.523 41.077C33.529 41.0793 33.5349 41.0817 33.5409 41.0841C33.5619 41.0925 33.583 41.101 33.6061 41.1068C33.7121 41.1329 33.8208 41.1463 33.93 41.1468C34.0966 41.1429 34.2612 41.109 34.4158 41.0467C34.5029 41.0185 34.5867 40.9809 34.6657 40.9347C35.8139 40.2093 36.8857 39.3693 37.8646 38.4276C37.9961 38.3011 38.1008 38.1493 38.1725 37.9814C38.2394 37.8223 38.2753 37.6518 38.2785 37.4792C38.2794 37.4699 38.2794 37.4605 38.2785 37.4512V37.4332C38.2771 37.2718 38.2473 37.112 38.1905 36.961L38.1925 36.8929Z" fill="black"/>
<path fill-rule="evenodd" clip-rule="evenodd" d="M41.519 14.3703C41.5263 14.3796 41.5335 14.3887 41.5393 14.3992L41.5493 14.3972C43.1573 17.3425 44 20.6451 44 24.0014C44 27.3577 43.1573 30.6602 41.5493 33.6055C41.546 33.6113 41.5407 33.616 41.5355 33.6206C41.5282 33.6271 41.5213 33.6333 41.5213 33.6415C41.4685 33.7331 41.4054 33.8183 41.3334 33.8956L41.3154 33.9177C41.2361 33.9942 41.1482 34.0614 41.0535 34.1177L40.9735 34.1618C40.8988 34.2017 40.8205 34.2346 40.7396 34.2598L40.6576 34.2858C40.5491 34.3136 40.4377 34.3284 40.3257 34.3298H36.3531C36.2494 34.3284 36.1462 34.3157 36.0453 34.2918H36.0273C35.9953 34.2838 35.9653 34.2598 35.9353 34.2598C35.8999 34.2501 35.865 34.2388 35.8307 34.2259C35.8155 34.2202 35.8003 34.2141 35.7854 34.2078C35.7448 34.1888 35.7054 34.1675 35.6674 34.1437C35.6274 34.1217 35.5894 34.0997 35.5514 34.0737C35.5132 34.0465 35.4771 34.0164 35.4435 33.9837C35.4115 33.9557 35.3795 33.9337 35.3475 33.8996C35.3222 33.8728 35.3007 33.8446 35.2789 33.8163C35.2732 33.8087 35.2674 33.8012 35.2615 33.7936C35.2327 33.76 35.2059 33.7246 35.1816 33.6875C35.1585 33.6502 35.1378 33.6114 35.1196 33.5715C35.0968 33.5322 35.0768 33.4915 35.0596 33.4494C35.0443 33.412 35.0333 33.3731 35.023 33.3364L35.0176 33.3174C35.014 33.3045 35.0093 33.2917 35.0047 33.2788C34.9942 33.2495 34.9836 33.2199 34.9836 33.1893C34.976 33.139 34.9713 33.0882 34.9696 33.0373C34.9637 33.0035 34.9597 32.9694 34.9576 32.9352C34.9567 32.9279 34.9567 32.9205 34.9576 32.9132C34.9576 32.8672 34.9636 32.8232 34.9696 32.7752C34.9756 32.7271 34.9896 32.6771 34.9896 32.6291V32.6071C35.6602 29.7886 35.9958 26.9007 35.9893 24.0034C35.9949 21.1061 35.6594 18.2183 34.9896 15.3996C34.9887 15.3937 34.9887 15.3876 34.9896 15.3816C34.9794 15.3314 34.972 15.2806 34.9676 15.2296C34.9651 15.2004 34.9602 15.172 34.9569 15.1439C34.955 15.1277 34.9536 15.1116 34.9536 15.0955V15.0735C34.9536 15.0395 34.9496 15.0235 34.9536 14.9715C34.9576 14.9194 34.9617 14.8594 34.9696 14.8174C34.9776 14.7754 34.9916 14.7333 35.0036 14.6913C35.0093 14.668 35.0158 14.6449 35.0232 14.622C35.03 14.6009 35.0375 14.5799 35.0456 14.5593C35.0616 14.5173 35.0816 14.4772 35.1036 14.4372C35.1116 14.4227 35.119 14.4082 35.1264 14.3938C35.1394 14.3684 35.1523 14.3434 35.1676 14.3192C35.1925 14.2832 35.2192 14.2484 35.2475 14.2151C35.274 14.178 35.3027 14.1426 35.3335 14.1091C35.364 14.0788 35.3961 14.0501 35.4295 14.023L35.4461 14.0081C35.4761 13.9812 35.5054 13.955 35.5374 13.933C35.5618 13.9163 35.5869 13.9022 35.6123 13.8878C35.6266 13.8797 35.641 13.8716 35.6554 13.863C35.737 13.8117 35.826 13.7732 35.9193 13.7489C35.9385 13.7429 35.9562 13.7319 35.9747 13.724C35.987 13.7187 35.9997 13.7149 36.0133 13.7149H36.0333C36.0606 13.704 36.0897 13.7032 36.1177 13.7025C36.1409 13.7018 36.1633 13.7012 36.1832 13.6949C36.2272 13.6809 36.2732 13.6809 36.3172 13.6809H40.3717C40.4233 13.6832 40.4747 13.6886 40.5257 13.6969C40.5674 13.7028 40.6087 13.7108 40.6496 13.7209C40.6944 13.7315 40.7385 13.7448 40.7816 13.7609C40.8236 13.7769 40.8655 13.7929 40.9055 13.811C40.9196 13.8173 40.9337 13.8243 40.9476 13.8318C40.9734 13.8456 40.9989 13.8607 41.0235 13.875C41.0615 13.897 41.0995 13.921 41.1335 13.945C41.1569 13.9622 41.1796 13.9804 41.2017 13.9993C41.2152 14.0109 41.2284 14.0228 41.2414 14.035C41.2734 14.0631 41.3054 14.0911 41.3354 14.1251C41.3483 14.1397 41.3608 14.1544 41.3732 14.1692C41.3895 14.1888 41.4054 14.2086 41.4213 14.2291C41.451 14.2675 41.4783 14.3076 41.5033 14.3492C41.5083 14.3567 41.5137 14.3636 41.519 14.3703ZM38.0605 31.5426H39.46L39.466 31.5406C40.6119 29.1935 41.2075 26.6157 41.2075 24.0034C41.2075 21.3911 40.6119 18.8132 39.466 16.4661H38.0665C38.5471 18.9497 38.7902 21.4736 38.7923 24.0034C38.7885 26.534 38.5435 29.0585 38.0605 31.5426Z" fill="black"/>
</svg>
