<svg width="48" height="48" viewBox="0 0 48 48" fill="none" xmlns="http://www.w3.org/2000/svg">
<path fill-rule="evenodd" clip-rule="evenodd" d="M21.12 23.93C21.12 24.8052 20.7723 25.6446 20.1535 26.2635C19.5346 26.8823 18.6952 27.23 17.82 27.23C16.9448 27.23 16.1054 26.8823 15.4865 26.2635C14.8677 25.6446 14.52 24.8052 14.52 23.93C14.52 23.0548 14.8677 22.2154 15.4865 21.5966C16.1054 20.9777 16.9448 20.63 17.82 20.63C18.6952 20.63 19.5346 20.9777 20.1535 21.5966C20.7723 22.2154 21.12 23.0548 21.12 23.93ZM19.67 23.93C19.6887 23.675 19.6547 23.4188 19.5699 23.1775C19.4852 22.9362 19.3516 22.7149 19.1776 22.5276C19.0035 22.3403 18.7926 22.1908 18.5582 22.0886C18.3237 21.9865 18.0707 21.9337 17.815 21.9337C17.5593 21.9337 17.3063 21.9865 17.0718 22.0886C16.8374 22.1908 16.6265 22.3403 16.4524 22.5276C16.2784 22.7149 16.1448 22.9362 16.0601 23.1775C15.9753 23.4188 15.9413 23.675 15.96 23.93C15.9413 24.1851 15.9753 24.4412 16.0601 24.6825C16.1448 24.9238 16.2784 25.1451 16.4524 25.3324C16.6265 25.5198 16.8374 25.6692 17.0718 25.7714C17.3063 25.8736 17.5593 25.9263 17.815 25.9263C18.0707 25.9263 18.3237 25.8736 18.5582 25.7714C18.7926 25.6692 19.0035 25.5198 19.1776 25.3324C19.3516 25.1451 19.4852 24.9238 19.5699 24.6825C19.6547 24.4412 19.6887 24.1851 19.67 23.93ZM28.24 23.93C28.24 24.8052 27.8923 25.6446 27.2735 26.2635C26.6546 26.8823 25.8152 27.23 24.94 27.23C24.0648 27.23 23.2254 26.8823 22.6065 26.2635C21.9877 25.6446 21.64 24.8052 21.64 23.93C21.64 23.0548 21.9877 22.2154 22.6065 21.5966C23.2254 20.9777 24.0648 20.63 24.94 20.63C25.8152 20.63 26.6546 20.9777 27.2735 21.5966C27.8923 22.2154 28.24 23.0548 28.24 23.93ZM26.79 23.93C26.8087 23.675 26.7747 23.4188 26.6899 23.1775C26.6052 22.9362 26.4716 22.7149 26.2976 22.5276C26.1235 22.3403 25.9126 22.1908 25.6782 22.0886C25.4437 21.9865 25.1907 21.9337 24.935 21.9337C24.6793 21.9337 24.4263 21.9865 24.1918 22.0886C23.9574 22.1908 23.7465 22.3403 23.5724 22.5276C23.3984 22.7149 23.2648 22.9362 23.18 23.1775C23.0953 23.4188 23.0613 23.675 23.08 23.93C23.0613 24.1851 23.0953 24.4412 23.18 24.6825C23.2648 24.9238 23.3984 25.1451 23.5724 25.3324C23.7465 25.5198 23.9574 25.6692 24.1918 25.7714C24.4263 25.8736 24.6793 25.9263 24.935 25.9263C25.1907 25.9263 25.4437 25.8736 25.6782 25.7714C25.9126 25.6692 26.1235 25.5198 26.2976 25.3324C26.4716 25.1451 26.6052 24.9238 26.6899 24.6825C26.7747 24.4412 26.8087 24.1851 26.79 23.93ZM35.06 20.84V26.75C35.06 29.18 33.63 30.17 31.94 30.17C31.3119 30.179 30.6955 29.9988 30.1712 29.6528C29.6469 29.3068 29.2388 28.8111 29 28.23L30.26 27.7C30.3862 28.0379 30.6109 28.3301 30.9051 28.5387C31.1993 28.7473 31.5494 28.8627 31.91 28.87C33 28.87 33.67 28.2 33.67 26.94V26.47H33.62C33.4035 26.7133 33.1365 26.9064 32.8378 27.0359C32.539 27.1654 32.2155 27.2283 31.89 27.22C31.0174 27.22 30.1806 26.8734 29.5636 26.2564C28.9466 25.6394 28.6 24.8026 28.6 23.93C28.6 23.0574 28.9466 22.2206 29.5636 21.6036C30.1806 20.9866 31.0174 20.64 31.89 20.64C32.2134 20.6338 32.5345 20.6955 32.8325 20.8213C33.1305 20.947 33.3988 21.134 33.62 21.37H33.67V20.84H35.06ZM33.79 23.94C33.8104 23.693 33.781 23.4443 33.7034 23.2089C33.6259 22.9734 33.5018 22.756 33.3386 22.5694C33.1753 22.3828 32.9762 22.231 32.7532 22.1229C32.5301 22.0147 32.2876 21.9526 32.04 21.94C31.7869 21.9476 31.538 22.0058 31.3077 22.111C31.0774 22.2162 30.8705 22.3664 30.6991 22.5527C30.5276 22.7391 30.3952 22.9578 30.3095 23.196C30.2238 23.4342 30.1866 23.6872 30.2 23.94C30.1852 24.1931 30.2214 24.4467 30.3066 24.6855C30.3918 24.9244 30.5242 25.1436 30.6959 25.3302C30.8675 25.5168 31.075 25.667 31.3059 25.7718C31.5369 25.8765 31.7865 25.9337 32.04 25.94C32.2885 25.9302 32.5324 25.8699 32.7569 25.7627C32.9813 25.6555 33.1815 25.5037 33.3453 25.3165C33.509 25.1293 33.6329 24.9107 33.7094 24.6741C33.7859 24.4374 33.8133 24.1876 33.79 23.94ZM35.92 27V17.38H37.32V27H35.92ZM42.82 25L43.94 25.75C43.64 26.2014 43.2326 26.5711 42.7543 26.8259C42.276 27.0808 41.7419 27.2128 41.2 27.21C40.7674 27.2154 40.3381 27.1339 39.9376 26.9702C39.5371 26.8066 39.1735 26.5641 38.8685 26.2572C38.5635 25.9504 38.3233 25.5854 38.1621 25.1839C38.0008 24.7824 37.9219 24.3526 37.93 23.92C37.9099 23.5015 37.9739 23.0833 38.1184 22.69C38.2629 22.2967 38.4849 21.9365 38.7712 21.6306C39.0575 21.3247 39.4023 21.0794 39.7851 20.9093C40.168 20.7391 40.5811 20.6476 41 20.64C41.6277 20.6569 42.235 20.8666 42.7395 21.2405C43.2439 21.6144 43.6212 22.1344 43.82 22.73L44 23.1L39.6 24.93C39.7348 25.2386 39.9597 25.4992 40.2452 25.6776C40.5308 25.8561 40.8636 25.944 41.2 25.93C41.5275 25.9286 41.8489 25.8422 42.1329 25.6791C42.4169 25.5161 42.6537 25.2821 42.82 25ZM39.36 23.83L42.3 22.61C42.1882 22.3861 42.0128 22.2002 41.7958 22.0757C41.5787 21.9511 41.3297 21.8935 41.08 21.91C40.8404 21.9215 40.6055 21.9804 40.3889 22.0835C40.1724 22.1865 39.9784 22.3316 39.8184 22.5102C39.6583 22.6889 39.5354 22.8975 39.4567 23.1241C39.378 23.3507 39.3451 23.5906 39.36 23.83ZM9.18 23.07V21.68H13.89C13.9361 21.9576 13.9595 22.2386 13.96 22.52C13.9971 23.7259 13.5631 24.8988 12.75 25.79C12.2894 26.2666 11.7332 26.6404 11.118 26.8869C10.5027 27.1333 9.84225 27.2468 9.18 27.22C7.81901 27.2175 6.51344 26.6806 5.54455 25.7248C4.57566 24.769 4.02098 23.4708 4 22.11C4.0184 20.7484 4.57226 19.4487 5.54172 18.4924C6.51117 17.536 7.81822 16.9999 9.18 17C9.82808 16.9887 10.4718 17.1077 11.0731 17.3499C11.6743 17.5921 12.2207 17.9526 12.68 18.41L11.68 19.41C11.0042 18.7583 10.0988 18.399 9.16 18.41C8.67766 18.4126 8.2006 18.5105 7.75623 18.6981C7.31187 18.8857 6.90897 19.1593 6.5707 19.5032C6.23243 19.847 5.96546 20.2543 5.78515 20.7017C5.60483 21.1491 5.51472 21.6277 5.52 22.11C5.51338 22.5948 5.60315 23.0761 5.78412 23.526C5.96508 23.9758 6.23363 24.3852 6.57415 24.7304C6.91467 25.0756 7.32039 25.3496 7.76773 25.5367C8.21508 25.7238 8.69513 25.82 9.18 25.82C9.65612 25.8435 10.1319 25.7666 10.5763 25.5943C11.0208 25.4221 11.4241 25.1582 11.76 24.82C12.2034 24.347 12.4716 23.7365 12.52 23.09L9.18 23.07Z" fill="black"/>
</svg>
