<svg width="48" height="48" viewBox="0 0 48 48" fill="none" xmlns="http://www.w3.org/2000/svg">
<path fill-rule="evenodd" clip-rule="evenodd" d="M43.5698 20.3285H24.4757V28.0686H35.4671C35.2339 29.2995 34.741 30.4695 34.0196 31.5039C33.2983 32.5383 32.3644 33.4144 31.2774 34.0764C29.2237 35.2718 26.865 35.8725 24.4757 35.8087C21.9273 35.8133 19.4426 35.0305 17.3766 33.572C15.3106 32.1136 13.769 30.0542 12.9721 27.6881C12.5724 26.4885 12.3684 25.2349 12.3677 23.9733C12.3661 22.7074 12.5736 21.4496 12.9823 20.2484C13.7791 17.885 15.3195 15.8281 17.3836 14.3715C19.4477 12.9149 21.9299 12.1331 24.4757 12.1379C27.227 12.1337 29.8936 13.0687 32.015 14.7813L37.9768 8.9537C34.4146 5.90751 29.8833 4.16087 25.1528 4.01058C20.4224 3.86028 15.7846 5.3156 12.0275 8.12924C8.2705 10.9429 5.62595 14.9413 4.54327 19.445C3.46058 23.9488 4.00654 28.68 6.08838 32.8348C7.7812 36.1883 10.4008 39.0114 13.6504 40.9846C16.9001 42.9578 20.6501 44.0021 24.4757 43.9994C29.4029 44.0384 34.1618 42.2493 37.7924 38.9928C41.5518 35.5684 44 30.4818 44 23.9733C43.9925 22.7467 43.8482 21.5246 43.5698 20.3285Z" fill="black"/>
</svg>
