<svg width="48" height="48" viewBox="0 0 48 48" fill="none" xmlns="http://www.w3.org/2000/svg">
<path fill-rule="evenodd" clip-rule="evenodd" d="M34 27C33.2089 27 32.4355 26.7654 31.7777 26.3259C31.1199 25.8864 30.6072 25.2616 30.3045 24.5307C30.0017 23.7998 29.9225 22.9956 30.0769 22.2196C30.2312 21.4437 30.6122 20.731 31.1716 20.1716C31.731 19.6122 32.4437 19.2312 33.2196 19.0769C33.9956 18.9225 34.7998 19.0017 35.5307 19.3045C36.2616 19.6072 36.8864 20.1199 37.3259 20.7777C37.7654 21.4355 38 22.2089 38 23C38 24.0609 37.5786 25.0783 36.8284 25.8284C36.0783 26.5786 35.0609 27 34 27ZM14 27C13.2089 27 12.4355 26.7654 11.7777 26.3259C11.1199 25.8864 10.6072 25.2616 10.3045 24.5307C10.0017 23.7998 9.92252 22.9956 10.0769 22.2196C10.2312 21.4437 10.6122 20.731 11.1716 20.1716C11.731 19.6122 12.4437 19.2312 13.2196 19.0769C13.9956 18.9225 14.7998 19.0017 15.5307 19.3045C16.2616 19.6072 16.8864 20.1199 17.3259 20.7777C17.7654 21.4355 18 22.2089 18 23C18 24.0609 17.5786 25.0783 16.8284 25.8284C16.0783 26.5786 15.0609 27 14 27ZM42 12H6C5.46957 12 4.96086 12.2107 4.58579 12.5858C4.21071 12.9609 4 13.4696 4 14V34C4 34.5304 4.21071 35.0391 4.58579 35.4142C4.96086 35.7893 5.46957 36 6 36H16C16.7711 36.0003 17.5259 35.7777 18.1735 35.359C18.8211 34.9403 19.3338 34.3433 19.65 33.64L21.38 29.79C21.5844 29.2639 21.9429 28.8119 22.4087 28.4931C22.8744 28.1744 23.4256 28.0039 23.99 28.0039C24.5544 28.0039 25.1056 28.1744 25.5713 28.4931C26.0371 28.8119 26.3956 29.2639 26.6 29.79L28.33 33.64C28.6476 34.3465 29.1634 34.9455 29.8149 35.3645C30.4664 35.7834 31.2255 36.0042 32 36H42C42.5304 36 43.0391 35.7893 43.4142 35.4142C43.7893 35.0391 44 34.5304 44 34V14C44 13.4696 43.7893 12.9609 43.4142 12.5858C43.0391 12.2107 42.5304 12 42 12Z" fill="black"/>
</svg>
