<svg width="48" height="48" viewBox="0 0 48 48" fill="none" xmlns="http://www.w3.org/2000/svg">
<path d="M22.61 34.15V39.69C22.6113 39.9929 22.5528 40.293 22.4378 40.5732C22.3228 40.8534 22.1536 41.1082 21.9399 41.3228C21.7261 41.5374 21.4722 41.7078 21.1924 41.824C20.9127 41.9402 20.6128 42 20.31 42H14.77C14.4666 42 14.1662 41.9403 13.886 41.8242C13.6057 41.7081 13.351 41.5379 13.1365 41.3234C12.922 41.1089 12.7519 40.8543 12.6358 40.574C12.5197 40.2937 12.46 39.9934 12.46 39.69V34.15C12.4626 33.5391 12.7071 32.9541 13.1401 32.523C13.573 32.092 14.159 31.85 14.77 31.85H20.31C20.612 31.85 20.9111 31.9095 21.1901 32.0251C21.4692 32.1407 21.7227 32.3101 21.9363 32.5237C22.1499 32.7372 22.3193 32.9908 22.4349 33.2698C22.5505 33.5489 22.61 33.848 22.61 34.15ZM19.84 39.23V34.62H15.23V39.23H19.84Z" fill="black"/>
<path d="M22.61 21.23V26.77C22.61 27.3809 22.368 27.967 21.9369 28.3999C21.5059 28.8328 20.9209 29.0774 20.31 29.08H14.77C14.1581 29.0774 13.5721 28.8331 13.1395 28.4005C12.7068 27.9679 12.4626 27.3818 12.46 26.77V21.23C12.4626 20.6182 12.7068 20.0321 13.1395 19.5995C13.5721 19.1669 14.1581 18.9226 14.77 18.92H20.31C20.9209 18.9226 21.5059 19.1672 21.9369 19.6001C22.368 20.033 22.61 20.6191 22.61 21.23ZM19.84 26.31V21.69H15.23V26.31H19.84Z" fill="black"/>
<path d="M22.61 8.31V13.85C22.61 14.46 22.3676 15.045 21.9363 15.4763C21.505 15.9077 20.92 16.15 20.31 16.15H14.77C14.159 16.15 13.573 15.908 13.1401 15.477C12.7071 15.0459 12.4626 14.4609 12.46 13.85V8.31C12.46 7.69735 12.7033 7.10979 13.1365 6.67658C13.5698 6.24337 14.1573 6 14.77 6H20.31C20.6128 6 20.9127 6.05982 21.1924 6.17603C21.4722 6.29224 21.7261 6.46255 21.9399 6.67719C22.1536 6.89182 22.3228 7.14655 22.4378 7.42676C22.5528 7.70696 22.6113 8.00712 22.61 8.31ZM19.84 13.38V8.77H15.23V13.38H19.84Z" fill="black"/>
<path d="M35.54 34.15V39.69C35.54 40.3027 35.2966 40.8902 34.8634 41.3234C34.4302 41.7566 33.8426 42 33.23 42H27.69C27.3866 42 27.0862 41.9403 26.806 41.8242C26.5257 41.7081 26.271 41.5379 26.0565 41.3234C25.842 41.1089 25.6719 40.8543 25.5558 40.574C25.4397 40.2937 25.38 39.9934 25.38 39.69V34.15C25.3826 33.5391 25.6271 32.9541 26.0601 32.523C26.493 32.092 27.079 31.85 27.69 31.85H33.23C33.8409 31.85 34.4269 32.092 34.8599 32.523C35.2928 32.9541 35.5373 33.5391 35.54 34.15ZM32.77 39.23V34.62H28.15V39.23H32.77Z" fill="black"/>
<path d="M35.54 21.23V26.77C35.5373 27.3818 35.2931 27.9679 34.8605 28.4005C34.4278 28.8331 33.8418 29.0774 33.23 29.08H27.69C27.0781 29.0774 26.4921 28.8331 26.0595 28.4005C25.6268 27.9679 25.3826 27.3818 25.38 26.77V21.23C25.3826 20.6182 25.6268 20.0321 26.0595 19.5995C26.4921 19.1669 27.0781 18.9226 27.69 18.92H33.23C33.8418 18.9226 34.4278 19.1669 34.8605 19.5995C35.2931 20.0321 35.5373 20.6182 35.54 21.23ZM32.77 26.31V21.69H28.15V26.31H32.77Z" fill="black"/>
<path d="M35.54 8.31V13.85C35.5373 14.4609 35.2928 15.0459 34.8599 15.477C34.4269 15.908 33.8409 16.15 33.23 16.15H27.69C27.079 16.15 26.493 15.908 26.0601 15.477C25.6271 15.0459 25.3826 14.4609 25.38 13.85V8.31C25.38 7.69735 25.6233 7.10979 26.0565 6.67658C26.4898 6.24337 27.0773 6 27.69 6H33.23C33.8426 6 34.4302 6.24337 34.8634 6.67658C35.2966 7.10979 35.54 7.69735 35.54 8.31ZM32.77 13.38V8.77H28.15V13.38H32.77Z" fill="black"/>
</svg>
