<svg width="48" height="48" viewBox="0 0 48 48" fill="none" xmlns="http://www.w3.org/2000/svg">
<path d="M13.85 16.15H8.31002C8.00714 16.1513 7.70698 16.0928 7.42678 15.9778C7.14657 15.8628 6.89184 15.6936 6.67721 15.4799C6.46257 15.2662 6.29226 15.0122 6.17605 14.7325C6.05984 14.4528 6.00002 14.1529 6.00002 13.85V8.31C6.00002 7.69735 6.2434 7.10979 6.6766 6.67658C7.10981 6.24337 7.69737 6 8.31002 6H13.85C14.4609 6.00264 15.0459 6.24719 15.477 6.68011C15.908 7.11303 16.15 7.69908 16.15 8.31V13.85C16.15 14.46 15.9077 15.045 15.4764 15.4763C15.045 15.9077 14.46 16.15 13.85 16.15ZM8.77002 13.38H13.38V8.77H8.77002V13.38Z" fill="black"/>
<path d="M26.77 16.15H21.23C20.6191 16.15 20.0331 15.908 19.6001 15.477C19.1672 15.0459 18.9227 14.4609 18.92 13.85V8.31C18.9227 7.69816 19.1669 7.11213 19.5995 6.67949C20.0322 6.24685 20.6182 6.00263 21.23 6H26.77C27.3819 6.00263 27.9679 6.24685 28.4005 6.67949C28.8332 7.11213 29.0774 7.69816 29.08 8.31V13.85C29.0774 14.4609 28.8328 15.0459 28.3999 15.477C27.967 15.908 27.3809 16.15 26.77 16.15ZM21.69 13.38H26.31V8.77H21.69V13.38Z" fill="black"/>
<path d="M39.69 16.15H34.15C33.54 16.15 32.955 15.9077 32.5237 15.4763C32.0923 15.045 31.85 14.46 31.85 13.85V8.31C31.85 7.69908 32.092 7.11303 32.5231 6.68011C32.9541 6.24719 33.5391 6.00264 34.15 6H39.69C39.9934 6 40.2938 6.05975 40.574 6.17584C40.8543 6.29193 41.1089 6.46208 41.3234 6.67658C41.5379 6.89109 41.7081 7.14574 41.8242 7.426C41.9403 7.70626 42 8.00665 42 8.31V13.85C42 14.1529 41.9402 14.4528 41.824 14.7325C41.7078 15.0122 41.5375 15.2662 41.3228 15.4799C41.1082 15.6936 40.8535 15.8628 40.5733 15.9778C40.2931 16.0928 39.9929 16.1513 39.69 16.15ZM34.62 13.38H39.23V8.77H34.62V13.38Z" fill="black"/>
<path d="M13.85 29.08H8.31002C7.69737 29.08 7.10981 28.8366 6.6766 28.4034C6.2434 27.9702 6.00002 27.3827 6.00002 26.77V21.23C6.00002 20.6173 6.2434 20.0298 6.6766 19.5966C7.10981 19.1634 7.69737 18.92 8.31002 18.92H13.85C14.4609 18.9226 15.0459 19.1672 15.477 19.6001C15.908 20.033 16.15 20.6191 16.15 21.23V26.77C16.15 27.3809 15.908 27.967 15.477 28.3999C15.0459 28.8328 14.4609 29.0774 13.85 29.08ZM8.77002 26.31H13.38V21.69H8.77002V26.31Z" fill="black"/>
<path d="M26.77 29.08H21.23C20.6182 29.0774 20.0322 28.8331 19.5995 28.4005C19.1669 27.9679 18.9227 27.3818 18.92 26.77V21.23C18.9227 20.6182 19.1669 20.0321 19.5995 19.5995C20.0322 19.1669 20.6182 18.9226 21.23 18.92H26.77C27.3819 18.9226 27.9679 19.1669 28.4005 19.5995C28.8332 20.0321 29.0774 20.6182 29.08 21.23V26.77C29.0774 27.3818 28.8332 27.9679 28.4005 28.4005C27.9679 28.8331 27.3819 29.0774 26.77 29.08ZM21.69 26.31H26.31V21.69H21.69V26.31Z" fill="black"/>
<path d="M39.69 29.08H34.15C33.5391 29.0774 32.9541 28.8328 32.5231 28.3999C32.092 27.967 31.85 27.3809 31.85 26.77V21.23C31.85 20.6191 32.092 20.033 32.5231 19.6001C32.9541 19.1672 33.5391 18.9226 34.15 18.92H39.69C39.9934 18.92 40.2938 18.9798 40.574 19.0958C40.8543 19.2119 41.1089 19.3821 41.3234 19.5966C41.5379 19.8111 41.7081 20.0657 41.8242 20.346C41.9403 20.6263 42 20.9266 42 21.23V26.77C42 27.0734 41.9403 27.3737 41.8242 27.654C41.7081 27.9343 41.5379 28.1889 41.3234 28.4034C41.1089 28.6179 40.8543 28.7881 40.574 28.9042C40.2938 29.0203 39.9934 29.08 39.69 29.08ZM34.62 26.31H39.23V21.69H34.62V26.31Z" fill="black"/>
<path d="M13.85 42H8.31002C8.0063 42.0013 7.70532 41.9425 7.42446 41.8269C7.1436 41.7112 6.88842 41.5411 6.67365 41.3264C6.45889 41.1116 6.28878 40.8564 6.17316 40.5756C6.05754 40.2947 5.9987 39.9937 6.00002 39.69V34.15C6.00002 33.8471 6.05984 33.5472 6.17605 33.2675C6.29226 32.9878 6.46257 32.7338 6.67721 32.5201C6.89184 32.3064 7.14657 32.1372 7.42678 32.0222C7.70698 31.9072 8.00714 31.8487 8.31002 31.85H13.85C14.46 31.85 15.045 32.0923 15.4764 32.5237C15.9077 32.955 16.15 33.54 16.15 34.15V39.69C16.1513 39.9929 16.0928 40.293 15.9778 40.5732C15.8628 40.8534 15.6936 41.1082 15.4799 41.3228C15.2662 41.5374 15.0122 41.7078 14.7325 41.824C14.4528 41.9402 14.1529 42 13.85 42ZM8.77002 39.23H13.38V34.62H8.77002V39.23Z" fill="black"/>
<path d="M26.77 42H21.23C20.9267 42 20.6263 41.9403 20.346 41.8242C20.0658 41.7081 19.8111 41.5379 19.5966 41.3234C19.3821 41.1089 19.2119 40.8543 19.0959 40.574C18.9798 40.2937 18.92 39.9934 18.92 39.69V34.15C18.9227 33.5391 19.1672 32.9541 19.6001 32.523C20.0331 32.092 20.6191 31.85 21.23 31.85H26.77C27.3809 31.85 27.967 32.092 28.3999 32.523C28.8328 32.9541 29.0774 33.5391 29.08 34.15V39.69C29.08 40.3027 28.8366 40.8902 28.4034 41.3234C27.9702 41.7566 27.3827 42 26.77 42ZM21.69 39.23H26.31V34.62H21.69V39.23Z" fill="black"/>
<path d="M39.69 42H34.15C33.8471 42 33.5472 41.9402 33.2675 41.824C32.9878 41.7078 32.7338 41.5374 32.5201 41.3228C32.3064 41.1082 32.1372 40.8534 32.0222 40.5732C31.9072 40.293 31.8487 39.9929 31.85 39.69V34.15C31.85 33.54 32.0923 32.955 32.5237 32.5237C32.955 32.0923 33.54 31.85 34.15 31.85H39.69C39.9929 31.8487 40.2931 31.9072 40.5733 32.0222C40.8535 32.1372 41.1082 32.3064 41.3228 32.5201C41.5375 32.7338 41.7078 32.9878 41.824 33.2675C41.9402 33.5472 42 33.8471 42 34.15V39.69C42.0013 39.9937 41.9425 40.2947 41.8269 40.5756C41.7113 40.8564 41.5412 41.1116 41.3264 41.3264C41.1116 41.5411 40.8564 41.7112 40.5756 41.8269C40.2947 41.9425 39.9937 42.0013 39.69 42ZM34.62 39.23H39.23V34.62H34.62V39.23Z" fill="black"/>
</svg>
