<svg width="48" height="48" viewBox="0 0 48 48" fill="none" xmlns="http://www.w3.org/2000/svg">
<path d="M14.1 12H8.7C7.20883 12 6 13.2088 6 14.7V20.1C6 21.5912 7.20883 22.8 8.7 22.8H14.1C15.5912 22.8 16.8 21.5912 16.8 20.1V14.7C16.8 13.2088 15.5912 12 14.1 12Z" fill="black"/>
<path d="M26.7 12H21.3C19.8088 12 18.6 13.2088 18.6 14.7V20.1C18.6 21.5912 19.8088 22.8 21.3 22.8H26.7C28.1912 22.8 29.4 21.5912 29.4 20.1V14.7C29.4 13.2088 28.1912 12 26.7 12Z" fill="black"/>
<path d="M39.3 12H33.9C32.4088 12 31.2 13.2088 31.2 14.7V20.1C31.2 21.5912 32.4088 22.8 33.9 22.8H39.3C40.7912 22.8 42 21.5912 42 20.1V14.7C42 13.2088 40.7912 12 39.3 12Z" fill="black"/>
<path d="M14.1 24.6H8.7C7.20883 24.6 6 25.8088 6 27.3V32.7C6 34.1912 7.20883 35.4 8.7 35.4H14.1C15.5912 35.4 16.8 34.1912 16.8 32.7V27.3C16.8 25.8088 15.5912 24.6 14.1 24.6Z" fill="black"/>
<path d="M26.7 24.6H21.3C19.8088 24.6 18.6 25.8088 18.6 27.3V32.7C18.6 34.1912 19.8088 35.4 21.3 35.4H26.7C28.1912 35.4 29.4 34.1912 29.4 32.7V27.3C29.4 25.8088 28.1912 24.6 26.7 24.6Z" fill="black"/>
<path d="M39.3 24.6H33.9C32.4088 24.6 31.2 25.8088 31.2 27.3V32.7C31.2 34.1912 32.4088 35.4 33.9 35.4H39.3C40.7912 35.4 42 34.1912 42 32.7V27.3C42 25.8088 40.7912 24.6 39.3 24.6Z" fill="black"/>
</svg>
