<svg width="48" height="48" viewBox="0 0 48 48" fill="none" xmlns="http://www.w3.org/2000/svg">
<path d="M14.1 6H8.7C7.20883 6 6 7.20883 6 8.7V14.1C6 15.5912 7.20883 16.8 8.7 16.8H14.1C15.5912 16.8 16.8 15.5912 16.8 14.1V8.7C16.8 7.20883 15.5912 6 14.1 6Z" fill="black"/>
<path d="M26.7 6H21.3C19.8088 6 18.6 7.20883 18.6 8.7V14.1C18.6 15.5912 19.8088 16.8 21.3 16.8H26.7C28.1912 16.8 29.4 15.5912 29.4 14.1V8.7C29.4 7.20883 28.1912 6 26.7 6Z" fill="black"/>
<path d="M39.3 6H33.9C32.4088 6 31.2 7.20883 31.2 8.7V14.1C31.2 15.5912 32.4088 16.8 33.9 16.8H39.3C40.7912 16.8 42 15.5912 42 14.1V8.7C42 7.20883 40.7912 6 39.3 6Z" fill="black"/>
<path d="M14.1 18.6H8.7C7.20883 18.6 6 19.8088 6 21.3V26.7C6 28.1912 7.20883 29.4 8.7 29.4H14.1C15.5912 29.4 16.8 28.1912 16.8 26.7V21.3C16.8 19.8088 15.5912 18.6 14.1 18.6Z" fill="black"/>
<path d="M26.7 18.6H21.3C19.8088 18.6 18.6 19.8088 18.6 21.3V26.7C18.6 28.1912 19.8088 29.4 21.3 29.4H26.7C28.1912 29.4 29.4 28.1912 29.4 26.7V21.3C29.4 19.8088 28.1912 18.6 26.7 18.6Z" fill="black"/>
<path d="M39.3 18.6H33.9C32.4088 18.6 31.2 19.8088 31.2 21.3V26.7C31.2 28.1912 32.4088 29.4 33.9 29.4H39.3C40.7912 29.4 42 28.1912 42 26.7V21.3C42 19.8088 40.7912 18.6 39.3 18.6Z" fill="black"/>
<path d="M14.1 31.2H8.7C7.20883 31.2 6 32.4088 6 33.9V39.3C6 40.7912 7.20883 42 8.7 42H14.1C15.5912 42 16.8 40.7912 16.8 39.3V33.9C16.8 32.4088 15.5912 31.2 14.1 31.2Z" fill="black"/>
<path d="M26.7 31.2H21.3C19.8088 31.2 18.6 32.4088 18.6 33.9V39.3C18.6 40.7912 19.8088 42 21.3 42H26.7C28.1912 42 29.4 40.7912 29.4 39.3V33.9C29.4 32.4088 28.1912 31.2 26.7 31.2Z" fill="black"/>
<path d="M39.3 31.2H33.9C32.4088 31.2 31.2 32.4088 31.2 33.9V39.3C31.2 40.7912 32.4088 42 33.9 42H39.3C40.7912 42 42 40.7912 42 39.3V33.9C42 32.4088 40.7912 31.2 39.3 31.2Z" fill="black"/>
</svg>
