<svg width="48" height="48" viewBox="0 0 48 48" fill="none" xmlns="http://www.w3.org/2000/svg">
<path d="M32.7 6H27.3C25.8088 6 24.6 7.20883 24.6 8.7V14.1C24.6 15.5912 25.8088 16.8 27.3 16.8H32.7C34.1912 16.8 35.4 15.5912 35.4 14.1V8.7C35.4 7.20883 34.1912 6 32.7 6Z" fill="black"/>
<path d="M32.7 18.6H27.3C25.8088 18.6 24.6 19.8088 24.6 21.3V26.7C24.6 28.1912 25.8088 29.4 27.3 29.4H32.7C34.1912 29.4 35.4 28.1912 35.4 26.7V21.3C35.4 19.8088 34.1912 18.6 32.7 18.6Z" fill="black"/>
<path d="M32.7 31.2H27.3C25.8088 31.2 24.6 32.4088 24.6 33.9V39.3C24.6 40.7912 25.8088 42 27.3 42H32.7C34.1912 42 35.4 40.7912 35.4 39.3V33.9C35.4 32.4088 34.1912 31.2 32.7 31.2Z" fill="black"/>
<path d="M20.1 6H14.7C13.2088 6 12 7.20883 12 8.7V14.1C12 15.5912 13.2088 16.8 14.7 16.8H20.1C21.5912 16.8 22.8 15.5912 22.8 14.1V8.7C22.8 7.20883 21.5912 6 20.1 6Z" fill="black"/>
<path d="M20.1 18.6H14.7C13.2088 18.6 12 19.8088 12 21.3V26.7C12 28.1912 13.2088 29.4 14.7 29.4H20.1C21.5912 29.4 22.8 28.1912 22.8 26.7V21.3C22.8 19.8088 21.5912 18.6 20.1 18.6Z" fill="black"/>
<path d="M20.1 31.2H14.7C13.2088 31.2 12 32.4088 12 33.9V39.3C12 40.7912 13.2088 42 14.7 42H20.1C21.5912 42 22.8 40.7912 22.8 39.3V33.9C22.8 32.4088 21.5912 31.2 20.1 31.2Z" fill="black"/>
</svg>
