<svg width="48" height="48" viewBox="0 0 48 48" fill="none" xmlns="http://www.w3.org/2000/svg">
<path d="M13.85 22.61H8.31C8.00712 22.6113 7.70696 22.5528 7.42676 22.4378C7.14655 22.3228 6.89182 22.1536 6.67719 21.9399C6.46255 21.7261 6.29224 21.4722 6.17603 21.1924C6.05982 20.9127 6 20.6128 6 20.31V14.77C6 14.1573 6.24337 13.5698 6.67658 13.1365C7.10979 12.7033 7.69735 12.46 8.31 12.46H13.85C14.4609 12.4626 15.0459 12.7071 15.477 13.1401C15.908 13.573 16.15 14.159 16.15 14.77V20.31C16.15 20.92 15.9077 21.505 15.4763 21.9363C15.045 22.3676 14.46 22.61 13.85 22.61ZM8.77 19.84H13.38V15.23H8.77V19.84Z" fill="black"/>
<path d="M26.77 22.61H21.23C20.6191 22.61 20.033 22.368 19.6001 21.9369C19.1672 21.5059 18.9226 20.9209 18.92 20.31V14.77C18.9226 14.1581 19.1669 13.5721 19.5995 13.1395C20.0321 12.7068 20.6182 12.4626 21.23 12.46H26.77C27.3818 12.4626 27.9679 12.7068 28.4005 13.1395C28.8331 13.5721 29.0774 14.1581 29.08 14.77V20.31C29.0774 20.9209 28.8328 21.5059 28.3999 21.9369C27.967 22.368 27.3809 22.61 26.77 22.61ZM21.69 19.84H26.31V15.23H21.69V19.84Z" fill="black"/>
<path d="M39.69 22.61H34.15C33.54 22.61 32.955 22.3676 32.5237 21.9363C32.0923 21.505 31.85 20.92 31.85 20.31V14.77C31.85 14.159 32.092 13.573 32.523 13.1401C32.9541 12.7071 33.5391 12.4626 34.15 12.46H39.69C39.9934 12.46 40.2937 12.5197 40.574 12.6358C40.8543 12.7519 41.1089 12.922 41.3234 13.1365C41.5379 13.351 41.7081 13.6057 41.8242 13.886C41.9403 14.1662 42 14.4666 42 14.77V20.31C42 20.6128 41.9402 20.9127 41.824 21.1924C41.7078 21.4722 41.5374 21.7261 41.3228 21.9399C41.1082 22.1536 40.8534 22.3228 40.5732 22.4378C40.293 22.5528 39.9929 22.6113 39.69 22.61ZM34.62 19.84H39.23V15.23H34.62V19.84Z" fill="black"/>
<path d="M13.85 35.54H8.31C7.69735 35.54 7.10979 35.2966 6.67658 34.8634C6.24337 34.4302 6 33.8426 6 33.23V27.69C6 27.0773 6.24337 26.4898 6.67658 26.0565C7.10979 25.6233 7.69735 25.38 8.31 25.38H13.85C14.4609 25.3826 15.0459 25.6271 15.477 26.0601C15.908 26.493 16.15 27.079 16.15 27.69V33.23C16.15 33.8409 15.908 34.4269 15.477 34.8599C15.0459 35.2928 14.4609 35.5373 13.85 35.54ZM8.77 32.77H13.38V28.15H8.77V32.77Z" fill="black"/>
<path d="M26.77 35.54H21.23C20.6182 35.5373 20.0321 35.2931 19.5995 34.8605C19.1669 34.4278 18.9226 33.8418 18.92 33.23V27.69C18.9226 27.0781 19.1669 26.4921 19.5995 26.0595C20.0321 25.6268 20.6182 25.3826 21.23 25.38H26.77C27.3818 25.3826 27.9679 25.6268 28.4005 26.0595C28.8331 26.4921 29.0774 27.0781 29.08 27.69V33.23C29.0774 33.8418 28.8331 34.4278 28.4005 34.8605C27.9679 35.2931 27.3818 35.5373 26.77 35.54ZM21.69 32.77H26.31V28.15H21.69V32.77Z" fill="black"/>
<path d="M39.69 35.54H34.15C33.5391 35.5373 32.9541 35.2928 32.523 34.8599C32.092 34.4269 31.85 33.8409 31.85 33.23V27.69C31.85 27.079 32.092 26.493 32.523 26.0601C32.9541 25.6271 33.5391 25.3826 34.15 25.38H39.69C39.9934 25.38 40.2937 25.4397 40.574 25.5558C40.8543 25.6719 41.1089 25.842 41.3234 26.0565C41.5379 26.271 41.7081 26.5257 41.8242 26.806C41.9403 27.0862 42 27.3866 42 27.69V33.23C42 33.5333 41.9403 33.8337 41.8242 34.114C41.7081 34.3942 41.5379 34.6489 41.3234 34.8634C41.1089 35.0779 40.8543 35.248 40.574 35.3641C40.2937 35.4802 39.9934 35.54 39.69 35.54ZM34.62 32.77H39.23V28.15H34.62V32.77Z" fill="black"/>
</svg>
