<svg width="48" height="48" viewBox="0 0 48 48" fill="none" xmlns="http://www.w3.org/2000/svg">
<path d="M39.43 28.5126H32.57L34.9 19.5143H39.43C40.1116 19.5143 40.7653 19.2436 41.2473 18.7617C41.7292 18.2798 42 17.6263 42 16.9448C42 16.2633 41.7292 15.6097 41.2473 15.1279C40.7653 14.646 40.1116 14.3753 39.43 14.3753H36.23L37.56 9.24625C37.6447 8.918 37.6639 8.5763 37.6165 8.24063C37.5691 7.90497 37.4561 7.58192 37.2839 7.28994C36.936 6.70025 36.368 6.27288 35.705 6.10185C35.3767 6.01716 35.0349 5.99795 34.6992 6.04533C34.3635 6.0927 34.0404 6.20572 33.7483 6.37794C33.1585 6.72576 32.7311 7.29358 32.56 7.95649L30.92 14.3553H22.07L23.4 9.22625C23.4847 8.89801 23.5039 8.5563 23.4565 8.22064C23.4091 7.88497 23.2961 7.56192 23.1239 7.26994C22.776 6.68025 22.208 6.25288 21.545 6.08185C21.2167 5.99716 20.8749 5.97796 20.5392 6.02533C20.2035 6.0727 19.8804 6.18573 19.5883 6.35795C18.9985 6.70576 18.5711 7.27358 18.4 7.9365L16.76 14.3553H8.57C7.88839 14.3553 7.2347 14.626 6.75274 15.1079C6.27077 15.5897 6 16.2433 6 16.9248C6 17.6063 6.27077 18.2598 6.75274 18.7417C7.2347 19.2236 7.88839 19.4943 8.57 19.4943H15.43L13.1 28.4926H8.57C7.88839 28.4926 7.2347 28.7633 6.75274 29.2452C6.27077 29.727 6 30.3806 6 31.0621C6 31.7436 6.27077 32.3971 6.75274 32.879C7.2347 33.3609 7.88839 33.6316 8.57 33.6316H11.77L10.44 38.7806C10.3542 39.1076 10.3337 39.4482 10.3798 39.7831C10.4258 40.1179 10.5375 40.4404 10.7085 40.732C10.8794 41.0237 11.1062 41.2787 11.3758 41.4826C11.6455 41.6864 11.9528 41.8351 12.28 41.92C12.4931 41.9703 12.7111 41.9971 12.93 42C13.4999 41.9985 14.0533 41.8084 14.5038 41.4593C14.9542 41.1102 15.2764 40.6218 15.42 40.0704L17.08 33.6516H25.92L24.6 38.7806C24.5142 39.1076 24.4937 39.4482 24.5398 39.7831C24.5858 40.1179 24.6975 40.4404 24.8685 40.732C25.0394 41.0237 25.2662 41.2787 25.5358 41.4826C25.8055 41.6864 26.1128 41.8351 26.44 41.92C26.6529 41.9712 26.871 41.9981 27.09 42C27.6591 41.9997 28.2119 41.8099 28.661 41.4604C29.1101 41.111 29.43 40.6219 29.57 40.0704L31.24 33.6516H39.43C40.1116 33.6516 40.7653 33.3809 41.2473 32.899C41.7292 32.4171 42 31.7636 42 31.0821C42 30.4006 41.7292 29.747 41.2473 29.2652C40.7653 28.7833 40.1116 28.5126 39.43 28.5126ZM18.43 28.5126L20.76 19.5143H29.61L27.28 28.5126H18.43Z" fill="black"/>
</svg>
