<svg width="48" height="48" viewBox="0 0 48 48" fill="none" xmlns="http://www.w3.org/2000/svg">
<path d="M42.5779 30.9311H32.3165L35.927 17.0901H42.5779C42.9658 17.0574 43.3272 16.8814 43.5905 16.597C43.8539 16.3125 44 15.9403 44 15.5541C44 15.1679 43.8539 14.7957 43.5905 14.5113C43.3272 14.2268 42.9658 14.0508 42.5779 14.0181H36.7318L38.8221 5.96634C38.8757 5.77118 38.89 5.56746 38.8642 5.36681C38.8384 5.16616 38.7731 4.97252 38.6719 4.79693C38.5707 4.62134 38.4356 4.46724 38.2744 4.34345C38.1132 4.21965 37.9289 4.12857 37.7322 4.07541C37.5355 4.02225 37.3302 4.00805 37.128 4.03362C36.9257 4.05919 36.7306 4.12404 36.5536 4.22445C36.3766 4.32486 36.2213 4.45887 36.0965 4.61883C35.9718 4.77879 35.88 4.96157 35.8264 5.15674L33.5908 14.0292H19.6853L21.7644 5.96634C21.82 5.76752 21.8351 5.5597 21.8088 5.35503C21.7825 5.15035 21.7153 4.95293 21.6113 4.77429C21.5072 4.59566 21.3683 4.4394 21.2026 4.31464C21.037 4.18988 20.848 4.09913 20.6466 4.04768C20.4499 3.99779 20.2452 3.98692 20.0442 4.01569C19.8433 4.04446 19.65 4.11231 19.4755 4.21535C19.3011 4.31839 19.1488 4.45458 19.0275 4.61613C18.9062 4.77767 18.8183 4.96139 18.7687 5.15674L16.4883 14.0292H5.42208C5.03419 14.0619 4.67282 14.2379 4.40948 14.5223C4.14613 14.8068 4 15.179 4 15.5652C4 15.9514 4.14613 16.3236 4.40948 16.6081C4.67282 16.8925 5.03419 17.0685 5.42208 17.1012H15.6835L12.073 30.9311H5.42208C5.03419 30.9639 4.67282 31.1399 4.40948 31.4243C4.14613 31.7088 4 32.0809 4 32.4672C4 32.8534 4.14613 33.2256 4.40948 33.51C4.67282 33.7945 5.03419 33.9705 5.42208 34.0032H11.2794L9.1779 42.0549C9.12433 42.2501 9.11001 42.4538 9.13579 42.6545C9.16156 42.8551 9.22692 43.0488 9.32812 43.2243C9.42932 43.3999 9.56439 43.554 9.72562 43.6778C9.88684 43.8016 10.0711 43.8927 10.2678 43.9459C10.4645 43.999 10.6698 44.0132 10.872 43.9876C11.0743 43.9621 11.2694 43.8972 11.4464 43.7968C11.6234 43.6964 11.7787 43.5624 11.9035 43.4024C12.0282 43.2425 12.12 43.0597 12.1736 42.8645L14.4763 33.9921H28.3147L26.2356 42.0549C26.18 42.2537 26.1649 42.4616 26.1912 42.6662C26.2175 42.8709 26.2847 43.0683 26.3887 43.247C26.4928 43.4256 26.6317 43.5819 26.7974 43.7066C26.963 43.8314 27.152 43.9221 27.3534 43.9736C27.4796 43.9898 27.6073 43.9898 27.7335 43.9736C28.0711 43.9768 28.4004 43.8701 28.671 43.6698C28.9415 43.4694 29.1384 43.1865 29.2313 42.8645L31.5116 33.9921H42.5779C42.9658 33.9594 43.3272 33.7834 43.5905 33.4989C43.8539 33.2145 44 32.8423 44 32.4561C44 32.0698 43.8539 31.6977 43.5905 31.4132C43.3272 31.1288 42.9658 30.9528 42.5779 30.92V30.9311ZM15.2699 30.9311L18.8805 17.0901H32.7301L29.1195 30.9311H15.2699Z" fill="black"/>
</svg>
