<svg width="48" height="48" viewBox="0 0 48 48" fill="none" xmlns="http://www.w3.org/2000/svg">
<path d="M24.23 6.00001C19.9272 6.0053 15.8021 7.71695 12.7595 10.7595C9.71693 13.8021 8.00529 17.9272 8 22.23V35.23C8 35.9275 8.27709 36.5965 8.77031 37.0897C9.26353 37.5829 9.93248 37.86 10.63 37.86C10.9272 37.859 11.2219 37.8048 11.5 37.7V38.96C11.5105 39.7682 11.8382 40.5399 12.4126 41.1086C12.9869 41.6773 13.7617 41.9975 14.57 42H17.9C18.2454 42 18.5874 41.932 18.9065 41.7998C19.2255 41.6676 19.5155 41.4739 19.7597 41.2297C20.0039 40.9855 20.1976 40.6956 20.3298 40.3765C20.462 40.0574 20.53 39.7154 20.53 39.37V28.81C20.53 28.4646 20.462 28.1226 20.3298 27.8036C20.1976 27.4845 20.0039 27.1945 19.7597 26.9503C19.5155 26.7061 19.2255 26.5124 18.9065 26.3802C18.5874 26.248 18.2454 26.18 17.9 26.18H14.57C14.1196 26.1812 13.6753 26.2837 13.27 26.48V22.23C13.5047 19.4849 14.7611 16.9278 16.7906 15.0645C18.82 13.2011 21.4749 12.1672 24.23 12.1672C26.9851 12.1672 29.64 13.2011 31.6694 15.0645C33.6989 16.9278 34.9553 19.4849 35.19 22.23V26.48C34.7847 26.2837 34.3404 26.1812 33.89 26.18H30.56C29.8625 26.18 29.1935 26.4571 28.7003 26.9503C28.2071 27.4435 27.93 28.1125 27.93 28.81V39.37C27.93 39.7154 27.998 40.0574 28.1302 40.3765C28.2624 40.6956 28.4561 40.9855 28.7003 41.2297C28.9445 41.4739 29.2345 41.6676 29.5535 41.7998C29.8726 41.932 30.2146 42 30.56 42H33.89C34.2965 42.0053 34.7 41.9298 35.0771 41.7779C35.4542 41.626 35.7974 41.4007 36.0867 41.1151C36.376 40.8295 36.6058 40.4893 36.7625 40.1142C36.9193 39.7391 37 39.3366 37 38.93V37.67C37.2784 37.774 37.5729 37.8282 37.87 37.83C38.5675 37.83 39.2365 37.5529 39.7297 37.0597C40.2229 36.5665 40.5 35.8975 40.5 35.2V22.2C40.4868 17.8954 38.7661 13.772 35.7158 10.7348C32.6654 7.69754 28.5346 5.99469 24.23 6.00001Z" fill="black"/>
</svg>
