<svg width="48" height="48" viewBox="0 0 48 48" fill="none" xmlns="http://www.w3.org/2000/svg">
<path d="M23.9988 5.99988C19.8411 6.00253 15.8543 7.65537 12.9143 10.5954C9.97434 13.5354 8.3215 17.5221 8.31885 21.6799L8.31885 35.3099C8.32031 35.661 8.45556 35.9984 8.69706 36.2533C8.93856 36.5082 9.26814 36.6614 9.61868 36.6818C9.96922 36.7022 10.3144 36.5882 10.5838 36.363C10.8532 36.1379 11.0267 35.8185 11.0688 35.4699V39.2299C11.0715 39.9637 11.3642 40.6667 11.8831 41.1857C12.402 41.7046 13.105 41.9972 13.8388 41.9999H17.3188C17.6222 41.9999 17.9226 41.9401 18.2028 41.824C18.4831 41.708 18.7378 41.5378 18.9523 41.3233C19.1668 41.1088 19.3369 40.8541 19.453 40.5739C19.5691 40.2936 19.6288 39.9932 19.6288 39.6899V28.5899C19.6262 27.979 19.3817 27.394 18.9487 26.9629C18.5158 26.5319 17.9298 26.2899 17.3188 26.2899H13.8388C13.1348 26.2888 12.4571 26.5579 11.9455 27.0416C11.4339 27.5253 11.1273 28.1868 11.0888 28.8899V21.6799C11.0888 18.2559 12.449 14.9722 14.8701 12.5511C17.2912 10.13 20.5749 8.76988 23.9988 8.76988C27.4228 8.76988 30.7065 10.13 33.1276 12.5511C35.5487 14.9722 36.9088 18.2559 36.9088 21.6799V28.8899C36.868 28.186 36.5592 27.5244 36.046 27.0409C35.5328 26.5574 34.8539 26.2887 34.1488 26.2899H30.6588C30.3535 26.2846 30.0501 26.3401 29.7664 26.4533C29.4827 26.5665 29.2244 26.7351 29.0066 26.9492C28.7888 27.1633 28.6157 27.4187 28.4977 27.7004C28.3796 27.9821 28.3188 28.2844 28.3188 28.5899V39.6899C28.3175 39.9962 28.3773 40.2996 28.4948 40.5825C28.6122 40.8653 28.785 41.1219 29.003 41.337C29.221 41.5522 29.4797 41.7217 29.7641 41.8355C30.0484 41.9493 30.3526 42.0052 30.6588 41.9999H34.1488C34.8835 41.9999 35.5881 41.708 36.1075 41.1886C36.627 40.6691 36.9188 39.9645 36.9188 39.2299V35.4699C36.9401 35.8359 37.1058 36.1785 37.3796 36.4223C37.6534 36.6661 38.0128 36.7911 38.3788 36.7699C38.7448 36.7487 39.0874 36.5829 39.3312 36.3091C39.575 36.0353 39.7001 35.6759 39.6788 35.3099V21.6799C39.6736 17.5229 38.0199 13.5377 35.0804 10.5983C32.141 7.65886 28.1558 6.00517 23.9988 5.99988V5.99988ZM13.8388 29.0599H16.8388V39.2299H13.8388V29.0599ZM34.1488 39.2299H31.1488V29.0599H34.1488V39.2299Z" fill="black"/>
</svg>
