<svg width="48" height="48" viewBox="0 0 48 48" fill="none" xmlns="http://www.w3.org/2000/svg">
<path d="M24 39.92C23.2456 39.9215 22.5091 39.6911 21.89 39.26C7.55 29.25 6 21.24 6 18.26C6.00101 16.1706 6.63993 14.1313 7.83131 12.4148C9.02269 10.6983 10.7097 9.3865 12.6668 8.65476C14.6239 7.92302 16.7578 7.80626 18.7831 8.32007C20.8083 8.83389 22.6284 9.95379 24 11.53C25.3716 9.95379 27.1917 8.83389 29.2169 8.32007C31.2422 7.80626 33.3761 7.92302 35.3332 8.65476C37.2903 9.3865 38.9773 10.6983 40.1687 12.4148C41.3601 14.1313 41.999 16.1706 42 18.26C42 21.26 40.45 29.26 26.12 39.26C25.4964 39.6896 24.7572 39.9197 24 39.92ZM15.78 13.06C14.4753 13.1989 13.268 13.8151 12.39 14.79C7.64 20 16.34 29 24 34.58C31.66 29 40.37 20 35.6 14.78C34.724 13.8094 33.5202 13.1968 32.22 13.06C31.1187 12.9595 30.0138 13.2114 29.0649 13.7793C28.1159 14.3473 27.3719 15.2019 26.94 16.22C26.6983 16.8037 26.2912 17.304 25.7689 17.6594C25.2465 18.0147 24.6317 18.2096 24 18.22C23.3683 18.2096 22.7535 18.0147 22.2311 17.6594C21.7088 17.304 21.3017 16.8037 21.06 16.22C20.6281 15.2019 19.8841 14.3473 18.9351 13.7793C17.9862 13.2114 16.8813 12.9595 15.78 13.06Z" fill="black"/>
</svg>
