<svg width="48" height="48" viewBox="0 0 48 48" fill="none" xmlns="http://www.w3.org/2000/svg">
<path d="M24 39.8011C23.4631 39.8056 22.9383 39.6412 22.5 39.3311C18.63 36.6311 6 27.1011 6 17.8711C6.00169 15.7516 6.69901 13.6912 7.98489 12.0062C9.27077 10.3213 11.0741 9.10498 13.1181 8.54402C15.1621 7.98307 17.3337 8.10848 19.2995 8.90101C21.2653 9.69354 22.9166 11.1094 24 12.9311C25.0834 11.1094 26.7347 9.69354 28.7005 8.90101C30.6663 8.10848 32.8379 7.98307 34.8819 8.54402C36.9259 9.10498 38.7292 10.3213 40.0151 12.0062C41.301 13.6912 41.9983 15.7516 42 17.8711C42 27.1011 29.37 36.6311 25.5 39.3311C25.0617 39.6412 24.5369 39.8056 24 39.8011ZM13.72 11.1911C12.0545 11.6478 10.6247 12.7201 9.72 14.1911C4.46 22.8111 20.9 34.9011 24 37.0711C27.1 34.9011 43.53 22.8211 38.25 14.1911C37.3491 12.7167 35.9177 11.6432 34.25 11.1911C33.3033 10.9182 32.3097 10.8481 31.3341 10.9855C30.3585 11.1229 29.4229 11.4648 28.5885 11.9886C27.7541 12.5125 27.0396 13.2066 26.4919 14.0256C25.9442 14.8445 25.5755 15.7699 25.41 16.7411C25.3625 17.0584 25.2036 17.3484 24.9617 17.5591C24.7198 17.7698 24.4108 17.8875 24.09 17.8911H23.83C23.5092 17.8875 23.2002 17.7698 22.9583 17.5591C22.7164 17.3484 22.5575 17.0584 22.51 16.7411C22.3435 15.7755 21.9761 14.8556 21.4316 14.0409C20.8871 13.2262 20.1776 12.5349 19.349 12.0117C18.5204 11.4886 17.5913 11.1452 16.6216 11.0039C15.652 10.8625 14.6634 10.9263 13.72 11.1911Z" fill="black"/>
</svg>
