<svg width="48" height="48" viewBox="0 0 48 48" fill="none" xmlns="http://www.w3.org/2000/svg">
<path d="M31.74 8C30.2723 7.99931 28.8215 8.31417 27.4861 8.92321C26.1507 9.53226 24.9618 10.4213 24 11.53C22.6284 9.95377 20.8083 8.83386 18.7831 8.32005C16.7578 7.80623 14.6239 7.923 12.6668 8.65474C10.7097 9.38648 9.02269 10.6983 7.83131 12.4148C6.63993 14.1313 6.00101 16.1706 6 18.26C6 21.26 7.55 29.26 21.89 39.26C22.5091 39.6911 23.2456 39.9215 24 39.92C24.7572 39.9197 25.4964 39.6895 26.12 39.26C40.45 29.26 42 21.26 42 18.26C41.9974 15.5397 40.9155 12.9316 38.992 11.008C37.0684 9.08446 34.4603 8.00265 31.74 8Z" fill="black"/>
</svg>
