<svg width="48" height="48" viewBox="0 0 48 48" fill="none" xmlns="http://www.w3.org/2000/svg">
<path d="M24 39.8011C23.4631 39.8056 22.9383 39.6412 22.5 39.3311C18.63 36.6311 6 27.1011 6 17.8711C6.00169 15.7516 6.69901 13.6912 7.98489 12.0062C9.27077 10.3213 11.0741 9.10498 13.1181 8.54402C15.1621 7.98307 17.3337 8.10848 19.2995 8.90101C21.2653 9.69354 22.9166 11.1094 24 12.9311C25.0834 11.1094 26.7347 9.69354 28.7005 8.90101C30.6663 8.10848 32.8379 7.98307 34.8819 8.54402C36.9259 9.10498 38.7292 10.3213 40.0151 12.0062C41.301 13.6912 41.9983 15.7516 42 17.8711C42 27.1011 29.37 36.6311 25.5 39.3311C25.0617 39.6412 24.5369 39.8056 24 39.8011Z" fill="black"/>
</svg>
