<svg width="48" height="48" viewBox="0 0 48 48" fill="none" xmlns="http://www.w3.org/2000/svg">
<path d="M41.5755 22.9913L25.3451 6.53382C24.9755 6.19067 24.49 6 23.9859 6C23.4818 6 22.9964 6.19067 22.6267 6.53382L15.9907 13.2569C15.8846 12.8062 15.6294 12.4048 15.2665 12.1178C14.9036 11.8308 14.4543 11.6751 13.9919 11.6762H12.1829C11.913 11.6762 11.6458 11.7295 11.3966 11.8332C11.1474 11.9369 10.921 12.0889 10.7307 12.2804C10.5403 12.4719 10.3896 12.6992 10.2872 12.9492C10.1848 13.1992 10.1328 13.4669 10.1341 13.7371V19.2096L6.39635 22.9913C6.13792 23.2567 5.99537 23.6139 6.00005 23.9845C6.00474 24.355 6.15628 24.7085 6.42134 24.9672C6.6864 25.2259 7.04326 25.3686 7.41343 25.3639C7.78359 25.3593 8.13674 25.2076 8.39517 24.9422L8.99481 24.2719V38.9986C8.99481 39.7946 9.3107 40.5581 9.87297 41.1209C10.4353 41.6838 11.1979 42 11.993 42H35.7989C36.5941 42 37.3567 41.6838 37.919 41.1209C38.4813 40.5581 38.7972 39.7946 38.7972 38.9986V24.1118L39.6167 24.9422C39.7478 25.0735 39.9037 25.1773 40.0753 25.2477C40.2468 25.3182 40.4307 25.3537 40.6161 25.3524C40.8011 25.3573 40.9852 25.3244 41.1571 25.2556C41.3289 25.1868 41.4849 25.0835 41.6155 24.9522C41.869 24.6864 42.0071 24.331 41.9996 23.9635C41.9922 23.5961 41.8397 23.2466 41.5755 22.9913ZM12.9025 14.4474H13.2923V15.9881L12.9025 16.3783V14.4474ZM24.9853 39.2287H22.8066V34.9968H24.9853V39.2287ZM35.9788 38.9986C35.9816 39.0607 35.9603 39.1214 35.9193 39.1681C35.8783 39.2147 35.8208 39.2436 35.759 39.2487H27.7637V34.3065C27.7507 33.7713 27.5291 33.2624 27.1462 32.8885C26.7634 32.5146 26.2497 32.3054 25.7149 32.3056H22.0871C21.5522 32.3054 21.0386 32.5146 20.6557 32.8885C20.2729 33.2624 20.0513 33.7713 20.0383 34.3065V39.2287H11.993C11.9383 39.2195 11.8884 39.1915 11.8519 39.1495C11.8155 39.1076 11.7947 39.0542 11.7932 38.9986V21.4606L23.9859 9.09499L35.9788 21.3006V38.9986Z" fill="black"/>
<path d="M20.9877 27.8435H15.7408C15.498 27.8435 15.2576 27.7957 15.0333 27.7027C14.809 27.6096 14.6051 27.4733 14.4334 27.3014C14.2618 27.1296 14.1256 26.9255 14.0327 26.701C13.9397 26.4764 13.8919 26.2358 13.8919 25.9927V20.7003C13.8946 20.2111 14.0905 19.7429 14.437 19.398C14.7834 19.0531 15.2522 18.8594 15.7408 18.8594H20.9877C21.4754 18.8594 21.9432 19.0534 22.288 19.3986C22.6329 19.7438 22.8266 20.2121 22.8266 20.7003V25.9927C22.8279 26.2353 22.7814 26.4757 22.6895 26.7002C22.5977 26.9247 22.4625 27.1288 22.2916 27.3008C22.1207 27.4728 21.9175 27.6093 21.6938 27.7025C21.47 27.7956 21.23 27.8435 20.9877 27.8435ZM16.7102 25.0623H19.9883V21.6307H16.6603L16.7102 25.0623Z" fill="black"/>
<path d="M32.0812 27.8435H26.8842C26.6414 27.8435 26.401 27.7957 26.1767 27.7027C25.9524 27.6096 25.7485 27.4733 25.5769 27.3014C25.4052 27.1296 25.269 26.9255 25.1761 26.701C25.0831 26.4764 25.0353 26.2358 25.0353 25.9927V20.7003C25.038 20.2111 25.2339 19.7429 25.5804 19.398C25.9268 19.0531 26.3956 18.8594 26.8842 18.8594H32.0812C32.5689 18.8594 33.0366 19.0534 33.3815 19.3986C33.7263 19.7438 33.9201 20.2121 33.9201 20.7003V25.9927C33.9214 26.2353 33.8748 26.4757 33.783 26.7002C33.6911 26.9247 33.5559 27.1288 33.385 27.3008C33.2141 27.4728 33.011 27.6093 32.7872 27.7025C32.5634 27.7956 32.3235 27.8435 32.0812 27.8435ZM27.8037 25.0623H31.1617V21.6307H27.8037V25.0623Z" fill="black"/>
</svg>
