<svg width="48" height="48" viewBox="0 0 48 48" fill="none" xmlns="http://www.w3.org/2000/svg">
<path d="M41.2504 22.57L26.1981 6.93001C25.9153 6.63782 25.5772 6.40507 25.2036 6.24538C24.8299 6.08569 24.4283 6.00228 24.0221 6.00001C23.6153 5.99885 23.2126 6.08071 22.8385 6.2406C22.4644 6.4005 22.1267 6.63507 21.8461 6.93001L17.0349 11.89C17.0027 11.3031 16.7523 10.7496 16.3328 10.3387C15.9134 9.92771 15.3554 9.68914 14.7691 9.67001H13.0422C12.4227 9.68574 11.8343 9.94544 11.4046 10.3928C10.9748 10.8402 10.7384 11.4392 10.7464 12.06V18.47L6.75378 22.57C6.2702 23.07 5.99979 23.7388 5.99979 24.435C5.99979 25.1312 6.2702 25.8001 6.75378 26.3C7.12425 26.6785 7.60484 26.9298 8.12664 27.0178C8.64844 27.1059 9.18467 27.0261 9.65844 26.79V38.69C9.65181 39.1231 9.73141 39.5533 9.89259 39.9552C10.0538 40.3572 10.2933 40.723 10.5972 41.0311C10.9011 41.3393 11.2632 41.5837 11.6625 41.7501C12.0617 41.9164 12.4901 42.0014 12.9224 42H21.6364V34.25C21.6351 34.1673 21.6501 34.0851 21.6805 34.0081C21.7109 33.9312 21.7561 33.861 21.8135 33.8016C21.871 33.7422 21.9396 33.6946 22.0154 33.6618C22.0912 33.6289 22.1727 33.6113 22.2553 33.61H25.6391C25.7217 33.6113 25.8032 33.6289 25.879 33.6618C25.9548 33.6946 26.0234 33.7422 26.0808 33.8016C26.1383 33.861 26.1835 33.9312 26.2139 34.0081C26.2443 34.0851 26.2593 34.1673 26.2579 34.25V42H35.0019C35.4292 41.9935 35.8511 41.9027 36.2434 41.7328C36.6357 41.5629 36.9908 41.3173 37.2883 41.0099C37.5859 40.7026 37.8201 40.3395 37.9775 39.9414C38.135 39.5434 38.2126 39.1181 38.206 38.69V26.69C38.5831 26.9165 39.014 27.0374 39.4537 27.04C39.79 27.0392 40.1229 26.9716 40.433 26.8412C40.7431 26.7107 41.0243 26.52 41.2604 26.28C41.7367 25.7797 42.0016 25.1144 41.9998 24.423C41.9979 23.7316 41.7294 23.0677 41.2504 22.57ZM21.6165 26.35C21.6178 26.4065 21.608 26.4627 21.5877 26.5153C21.5673 26.568 21.5368 26.6162 21.4979 26.657C21.4589 26.6979 21.4123 26.7307 21.3608 26.7535C21.3092 26.7763 21.2536 26.7887 21.1972 26.79H16.3661C16.3098 26.7887 16.2542 26.7763 16.2026 26.7535C16.151 26.7307 16.1044 26.6979 16.0655 26.657C16.0266 26.6162 15.9961 26.568 15.9757 26.5153C15.9554 26.4627 15.9456 26.4065 15.9469 26.35V21.35C15.9456 21.294 15.9554 21.2383 15.9759 21.1862C15.9964 21.1341 16.027 21.0866 16.0661 21.0465C16.1052 21.0065 16.1518 20.9746 16.2034 20.9529C16.2549 20.9312 16.3102 20.92 16.3661 20.92H21.1972C21.2532 20.92 21.3085 20.9312 21.36 20.9529C21.4115 20.9746 21.4582 21.0065 21.4973 21.0465C21.5363 21.0866 21.567 21.1341 21.5875 21.1862C21.6079 21.2383 21.6178 21.294 21.6165 21.35V26.35ZM31.9575 26.35C31.9575 26.465 31.9126 26.5754 31.8324 26.6577C31.7522 26.7399 31.643 26.7874 31.5283 26.79H26.7071C26.5924 26.7874 26.4832 26.7399 26.403 26.6577C26.3228 26.5754 26.2779 26.465 26.2779 26.35V21.35C26.2779 21.236 26.3231 21.1266 26.4036 21.046C26.4841 20.9653 26.5933 20.92 26.7071 20.92H31.5283C31.6421 20.92 31.7513 20.9653 31.8318 21.046C31.9123 21.1266 31.9575 21.236 31.9575 21.35V26.35Z" fill="black"/>
</svg>
