<svg width="48" height="48" viewBox="0 0 48 48" fill="none" xmlns="http://www.w3.org/2000/svg">
<path d="M38.6163 41.2104H35.9367V35.3811C35.9406 34.5323 35.7644 33.6924 35.4197 32.9167C35.0749 32.1411 34.5696 31.4475 33.9369 30.8816L26.2179 24.0025L33.9269 17.1234C34.5596 16.5575 35.0649 15.8639 35.4097 15.0883C35.7544 14.3126 35.9306 13.4727 35.9267 12.6239V6.79465H38.6163C38.9659 6.76503 39.2916 6.60525 39.5289 6.34694C39.7662 6.08863 39.898 5.75062 39.898 5.39983C39.898 5.04903 39.7662 4.71102 39.5289 4.45271C39.2916 4.1944 38.9659 4.03462 38.6163 4.005H9.61995C9.42686 3.98864 9.23246 4.01254 9.04909 4.07521C8.86571 4.13788 8.69734 4.23794 8.55464 4.36906C8.41194 4.50017 8.29802 4.65949 8.22009 4.83692C8.14217 5.01436 8.10193 5.20603 8.10193 5.39983C8.10193 5.59362 8.14217 5.7853 8.22009 5.96273C8.29802 6.14016 8.41194 6.29948 8.55464 6.43059C8.69734 6.56171 8.86571 6.66177 9.04909 6.72444C9.23246 6.78711 9.42686 6.81101 9.61995 6.79465H12.2896V12.6239C12.2857 13.4727 12.4619 14.3126 12.8066 15.0883C13.1513 15.8639 13.6567 16.5575 14.2894 17.1234L22.0184 24.0025L14.3094 30.8816C13.987 31.164 13.6985 31.4828 13.4495 31.8315C13.4528 31.8547 13.4528 31.8783 13.4495 31.9015C12.7344 32.9134 12.3502 34.122 12.3496 35.3611V41.1903H9.61995C9.24737 41.1903 8.89005 41.3384 8.62659 41.6018C8.36314 41.8653 8.21513 42.2226 8.21513 42.5952C8.21513 42.9678 8.36314 43.3251 8.62659 43.5885C8.89005 43.852 9.24737 44 9.61995 44H38.6163C38.9659 43.9704 39.2916 43.8106 39.5289 43.5523C39.7662 43.294 39.898 42.956 39.898 42.6052C39.898 42.2544 39.7662 41.9164 39.5289 41.6581C39.2916 41.3998 38.9659 41.24 38.6163 41.2104ZM15.0793 35.3811C15.0766 34.9047 15.179 34.4335 15.3792 34.0013H22.0284C22.2114 34.0013 22.3869 34.0739 22.5162 34.2033C22.6456 34.3327 22.7183 34.5082 22.7183 34.6912V35.4311C22.7062 35.8972 22.788 36.361 22.9587 36.795C23.1294 37.2289 23.3856 37.6241 23.7121 37.9571C24.0385 38.29 24.4285 38.554 24.859 38.7333C25.2895 38.9125 25.7516 39.0035 26.2179 39.0006H33.217V41.2603H15.0793V35.3811ZM33.147 35.3811V36.161H26.2179C26.0349 36.161 25.8594 36.0883 25.73 35.9589C25.6007 35.8295 25.528 35.654 25.528 35.4711V34.7312C25.528 33.8083 25.1614 32.9233 24.5088 32.2707C23.8563 31.6182 22.9712 31.2516 22.0484 31.2516H18.0489L24.0482 25.8723L32.0472 32.9614C32.3897 33.2652 32.6646 33.6376 32.8541 34.0544C33.0435 34.4713 33.1433 34.9232 33.147 35.3811ZM15.0793 12.6239V6.79465H33.147V12.6239C33.1391 13.0733 33.0392 13.5163 32.8535 13.9256C32.6678 14.3349 32.4002 14.7018 32.0671 15.0036L24.0681 22.0927L16.1591 15.0036C15.8261 14.7018 15.5585 14.3349 15.3728 13.9256C15.187 13.5163 15.0872 13.0733 15.0793 12.6239Z" fill="black"/>
</svg>
