<svg width="48" height="48" viewBox="0 0 48 48" fill="none" xmlns="http://www.w3.org/2000/svg">
<path d="M37.72 38.78H35.65V34.63C35.6523 33.7785 35.4755 32.9359 35.1309 32.1572C34.7863 31.3785 34.2818 30.681 33.65 30.11L26.78 24L33.62 17.89C34.2518 17.319 34.7563 16.6215 35.1009 15.8428C35.4455 15.0641 35.6223 14.2215 35.62 13.37V9.22H37.69C38.3822 9.22 39.0461 8.94502 39.5355 8.45555C40.025 7.96608 40.3 7.30221 40.3 6.61C40.3 5.91778 40.025 5.25392 39.5355 4.76445C39.0461 4.27498 38.3822 4 37.69 4H10.61C9.91778 4 9.25392 4.27498 8.76445 4.76445C8.27498 5.25392 8 5.91778 8 6.61C8 7.30221 8.27498 7.96608 8.76445 8.45555C9.25392 8.94502 9.91778 9.22 10.61 9.22H12.68V13.37C12.6777 14.2215 12.8545 15.0641 13.1991 15.8428C13.5437 16.6215 14.0482 17.319 14.68 17.89L21.55 24L14.71 30.11C14.3871 30.3949 14.0954 30.7133 13.84 31.06C13.0815 32.0953 12.6749 33.3466 12.68 34.63V38.78H10.61C9.91778 38.78 9.25392 39.055 8.76445 39.5445C8.27498 40.0339 8 40.6978 8 41.39C8 42.0822 8.27498 42.7461 8.76445 43.2355C9.25392 43.725 9.91778 44 10.61 44H37.72C38.4122 44 39.0761 43.725 39.5655 43.2355C40.055 42.7461 40.33 42.0822 40.33 41.39C40.33 40.6978 40.055 40.0339 39.5655 39.5445C39.0761 39.055 38.4122 38.78 37.72 38.78ZM16.16 34.63C16.1592 34.3555 16.1997 34.0825 16.28 33.82H22.22C22.2739 33.8226 22.3248 33.8458 22.3621 33.8849C22.3993 33.924 22.4201 33.976 22.42 34.03V34.73C22.4226 35.7069 22.8126 36.6429 23.5043 37.3328C24.196 38.0226 25.1331 38.41 26.11 38.41H32.17V38.78H16.17L16.16 34.63Z" fill="black"/>
</svg>
