<svg width="48" height="48" viewBox="0 0 48 48" fill="none" xmlns="http://www.w3.org/2000/svg">
<path fill-rule="evenodd" clip-rule="evenodd" d="M31.41 4H33.21V7.61H35.76V9.39H31.41V4ZM28.64 4H30.52V9.39H28.73V6.72L27.47 8.66L26.21 6.72V9.39H24.45V4H26.33L27.48 5.9L28.64 4ZM18.64 4H23.64V5.8H22.04V9.39H20.27V5.8H18.68L18.64 4ZM16.09 4H17.89V9.39H16.09V7.59H14.45V9.39H12.64V4H14.44V5.78H16.09V4ZM10 11.86H38.34L35.77 40.78L24.15 44L12.58 40.8L10 11.86ZM15.27 17.77L16.27 28.49H28.57L28.16 33.1L24.16 34.16L20.16 33.1L20 30.27H16.39L16.89 35.84L24.17 37.84L31.42 35.84L32.4 25H19.48L19.16 21.37H32.72L33.05 17.82L15.27 17.77Z" fill="black"/>
</svg>
