<svg width="48" height="48" viewBox="0 0 48 48" fill="none" xmlns="http://www.w3.org/2000/svg">
<path d="M41.21 7.70996H6.79C6.05005 7.70996 5.3404 8.00391 4.81717 8.52713C4.29395 9.05036 4 9.76001 4 10.5V37.5C4 38.2399 4.29395 38.9496 4.81717 39.4728C5.3404 39.996 6.05005 40.29 6.79 40.29H41.21C41.5781 40.29 41.9425 40.2171 42.2823 40.0757C42.6221 39.9342 42.9306 39.7269 43.1899 39.4657C43.4493 39.2045 43.6544 38.8946 43.7934 38.5538C43.9324 38.213 44.0026 37.848 44 37.48V10.48C43.9947 9.74348 43.6984 9.03896 43.1758 8.52005C42.6531 8.00114 41.9465 7.70994 41.21 7.70996ZM41.21 10.5V30.17L34.88 18.61C34.6881 18.2629 34.4138 17.9683 34.0813 17.7521C33.7488 17.536 33.3683 17.4048 32.9732 17.3702C32.5781 17.3357 32.1805 17.3987 31.8155 17.5539C31.4506 17.709 31.1293 17.9515 30.88 18.26L22.38 28.93L17.07 25.03C16.6084 24.6889 16.0398 24.5245 15.4674 24.5667C14.895 24.6089 14.3566 24.8549 13.95 25.26L6.8 32.26V10.5H41.21ZM6.79 37.5V36.2L15.67 27.47L21.09 31.47C21.5705 31.8223 22.1687 31.9754 22.7594 31.8971C23.3502 31.8189 23.8878 31.5153 24.26 31.05L32.7 20.45L41.21 35.99V37.49L6.79 37.5Z" fill="black"/>
<path d="M12.33 23.33C11.5765 23.33 10.8398 23.1065 10.2133 22.6879C9.58673 22.2692 9.09839 21.6742 8.81002 20.978C8.52165 20.2818 8.4462 19.5157 8.59321 18.7767C8.74022 18.0376 9.10309 17.3587 9.63592 16.8259C10.1688 16.293 10.8476 15.9302 11.5867 15.7832C12.3258 15.6362 13.0918 15.7116 13.788 16C14.4842 16.2884 15.0793 16.7767 15.4979 17.4032C15.9165 18.0298 16.14 18.7664 16.14 19.52C16.1374 20.5296 15.7351 21.4972 15.0212 22.2111C14.3072 22.9251 13.3397 23.3273 12.33 23.33ZM12.33 18.5C12.1322 18.5 11.9389 18.5586 11.7744 18.6685C11.61 18.7784 11.4818 18.9346 11.4061 19.1173C11.3304 19.3 11.3106 19.5011 11.3492 19.6951C11.3878 19.889 11.483 20.0672 11.6229 20.2071C11.7627 20.3469 11.9409 20.4422 12.1349 20.4807C12.3289 20.5193 12.53 20.4995 12.7127 20.4238C12.8954 20.3482 13.0516 20.22 13.1615 20.0555C13.2714 19.8911 13.33 19.6977 13.33 19.5C13.33 19.2347 13.2246 18.9804 13.0371 18.7929C12.8496 18.6053 12.5952 18.5 12.33 18.5Z" fill="black"/>
</svg>
