<svg width="48" height="48" viewBox="0 0 48 48" fill="none" xmlns="http://www.w3.org/2000/svg">
<path d="M13.8525 25.2843C14.3244 24.808 14.9522 24.5175 15.6208 24.4661C16.2893 24.4147 16.9541 24.6057 17.4934 25.0042L22.3246 28.5551L30.3266 18.4626C30.6157 18.099 30.9904 17.8127 31.4172 17.6294C31.844 17.446 32.3097 17.3713 32.7724 17.412C33.2352 17.4526 33.6806 17.6073 34.069 17.8622C34.4573 18.1171 34.7764 18.4643 34.9977 18.8727L44 35.2468V11.1808C43.9974 10.3397 43.6628 9.53372 43.069 8.93806C42.4752 8.3424 41.6703 8.00527 40.8292 8H7.18079C6.33801 8.00264 5.53049 8.3386 4.93455 8.93455C4.3386 9.53049 4.00264 10.338 4 11.1808V35.0068L13.8525 25.2843ZM12.6021 17.6424C13.069 17.6424 13.5254 17.7809 13.9136 18.0402C14.3018 18.2996 14.6044 18.6683 14.7831 19.0996C14.9617 19.531 15.0085 20.0056 14.9174 20.4635C14.8263 20.9214 14.6015 21.3421 14.2713 21.6722C13.9412 22.0023 13.5206 22.2271 13.0627 22.3182C12.6048 22.4093 12.1301 22.3626 11.6988 22.1839C11.2674 22.0052 10.8988 21.7027 10.6394 21.3145C10.38 20.9263 10.2416 20.4699 10.2416 20.003C10.2416 19.3769 10.4903 18.7765 10.933 18.3338C11.3757 17.8911 11.9761 17.6424 12.6021 17.6424Z" fill="black"/>
<path d="M32.4371 21.7234L24.6152 31.5459C24.1795 32.094 23.5479 32.4515 22.8537 32.5429C22.1596 32.6343 21.457 32.4526 20.8942 32.036L15.893 28.3651L4.64016 39.4479C4.93305 39.8468 5.31554 40.1714 5.75682 40.3956C6.19811 40.6197 6.68586 40.737 7.18079 40.7382H40.8292C41.4488 40.7359 42.054 40.5515 42.5696 40.208L32.4371 21.7234Z" fill="black"/>
</svg>
