<svg width="48" height="48" viewBox="0 0 48 48" fill="none" xmlns="http://www.w3.org/2000/svg">
<path d="M39.3 38.75H12.3C10.5619 38.7473 8.89592 38.055 7.66784 36.8251C6.43977 35.5951 5.75 33.9281 5.75 32.19V11.67C5.20941 12.1003 4.77175 12.646 4.46898 13.2671C4.16622 13.8882 4.00599 14.569 4 15.26V35.76C4.00264 37.0057 4.49867 38.1996 5.37952 39.0805C6.26037 39.9613 7.45429 40.4573 8.7 40.46H35.7C36.3874 40.4567 37.0655 40.3018 37.6861 40.0062C38.3067 39.7106 38.8543 39.2816 39.29 38.75H39.3Z" fill="black"/>
<path d="M16.49 22.61C16.9573 22.1491 17.5741 21.8707 18.2288 21.8248C18.8835 21.779 19.533 21.9688 20.06 22.36L24.23 25.42L31.33 16.52C31.612 16.1638 31.9779 15.8831 32.3949 15.7028C32.8119 15.5226 33.2671 15.4485 33.7198 15.4871C34.1724 15.5257 34.6085 15.6759 34.9889 15.9242C35.3694 16.1725 35.6824 16.5112 35.9 16.91L44 31.69V11.7C43.9974 10.4543 43.5013 9.26034 42.6205 8.37949C41.7396 7.49864 40.5457 7.00262 39.3 6.99997H12.3C11.6803 6.99602 11.0659 7.11467 10.4922 7.34909C9.91848 7.58352 9.39681 7.92909 8.95719 8.36592C8.51757 8.80275 8.16868 9.32221 7.93061 9.89441C7.69254 10.4666 7.56999 11.0802 7.57 11.7V31.39L16.49 22.61ZM15.49 15.9C15.9114 15.894 16.325 16.0138 16.6779 16.244C17.0309 16.4742 17.3073 16.8044 17.4718 17.1923C17.6362 17.5803 17.6814 18.0085 17.6013 18.4223C17.5213 18.836 17.3198 19.2166 17.0225 19.5152C16.7253 19.8139 16.3457 20.0173 15.9324 20.0993C15.519 20.1812 15.0906 20.1382 14.7018 19.9756C14.313 19.8129 13.9816 19.5381 13.7497 19.1863C13.5178 18.8344 13.3961 18.4214 13.4 18C13.4053 17.4412 13.631 16.9071 14.028 16.5138C14.425 16.1206 14.9612 15.8999 15.52 15.9H15.49Z" fill="black"/>
<path d="M33.33 20L26.5 28.54C26.0739 29.0795 25.4541 29.4315 24.7725 29.5211C24.0908 29.6108 23.4011 29.431 22.85 29.02L18.52 25.84L8.82 35.37C9.25671 35.8479 9.78803 36.2299 10.3802 36.4916C10.9724 36.7532 11.6126 36.8889 12.26 36.89H39.26C40.2751 36.9095 41.2688 36.597 42.09 36L33.33 20Z" fill="black"/>
</svg>
