<svg width="48" height="48" viewBox="0 0 48 48" fill="none" xmlns="http://www.w3.org/2000/svg">
<path d="M44 11.68C44 10.5316 43.5438 9.43024 42.7318 8.6182C41.9197 7.80617 40.8184 7.34998 39.67 7.34998H12C10.9588 7.35094 9.95267 7.72619 9.16513 8.40726C8.37759 9.08832 7.86114 10.0298 7.71 11.06C6.67984 11.2111 5.73835 11.7276 5.05728 12.5151C4.37621 13.3026 4.00097 14.3088 4 15.35V36.35C4.00792 37.4932 4.46761 38.5868 5.27879 39.3924C6.08996 40.1979 7.18679 40.65 8.33 40.65H36C37.0377 40.6442 38.0391 40.2668 38.8224 39.5862C39.6058 38.9056 40.1194 37.9667 40.27 36.94C41.2755 36.8022 42.2003 36.3147 42.8824 35.5632C43.5644 34.8117 43.9601 33.8441 44 32.83C44.0055 32.7935 44.0055 32.7564 44 32.72C44 32.72 44 32.72 44 32.67V11.68ZM12 10.2H39.67C40.0617 10.2026 40.4366 10.3594 40.7136 10.6364C40.9906 10.9133 41.1474 11.2883 41.15 11.68V27.07L35.77 17.25C35.5829 16.9113 35.3154 16.6237 34.9911 16.4127C34.6667 16.2017 34.2955 16.0737 33.91 16.04C33.531 16.0108 33.1505 16.0749 32.8019 16.2265C32.4533 16.3782 32.1471 16.6128 31.91 16.91L24.32 26.35L19.68 22.94C19.235 22.6169 18.6904 22.4608 18.1418 22.4992C17.5932 22.5376 17.0757 22.768 16.68 23.15L10.51 29.24V11.68C10.51 11.4848 10.5486 11.2915 10.6236 11.1113C10.6986 10.9311 10.8085 10.7675 10.947 10.6299C11.0855 10.4923 11.2498 10.3835 11.4306 10.3098C11.6113 10.236 11.8048 10.1987 12 10.2ZM36 37.8H8.33C7.94339 37.7975 7.57288 37.6449 7.29672 37.3743C7.02056 37.1038 6.86037 36.7365 6.85 36.35V15.35C6.85373 15.0813 6.93005 14.8186 7.07089 14.5898C7.21172 14.3609 7.41182 14.1744 7.65 14.05V32.67C7.65131 33.2399 7.76487 33.804 7.98419 34.3301C8.2035 34.8561 8.52429 35.3338 8.92822 35.7359C9.33216 36.138 9.81133 36.4566 10.3384 36.6734C10.8654 36.8903 11.4301 37.0013 12 37H37.32C37.194 37.2411 37.0044 37.4432 36.7717 37.5842C36.539 37.7252 36.2721 37.7999 36 37.8ZM12 34.15C11.6919 34.1485 11.3918 34.0515 11.1411 33.8725C10.8904 33.6934 10.7013 33.441 10.6 33.15L18.35 25.53L23.12 29.04C23.5868 29.3832 24.1683 29.5323 24.7426 29.4558C25.3169 29.3794 25.8393 29.0834 26.2 28.63L33.64 19.29L41.12 32.95C41.0516 33.2854 40.8704 33.5874 40.6066 33.8057C40.3429 34.024 40.0124 34.1455 39.67 34.15H12Z" fill="black"/>
<path d="M15.32 21.76C14.6052 21.762 13.9058 21.5517 13.3106 21.1557C12.7154 20.7598 12.2512 20.1961 11.9767 19.5361C11.7023 18.876 11.6299 18.1494 11.7689 17.4482C11.9079 16.747 12.2519 16.1028 12.7574 15.5973C13.2628 15.0919 13.907 14.7478 14.6082 14.6089C15.3094 14.4699 16.0361 14.5422 16.6961 14.8167C17.3562 15.0912 17.9199 15.5554 18.3158 16.1506C18.7117 16.7458 18.922 17.4451 18.92 18.16C18.9174 19.1139 18.5372 20.0281 17.8627 20.7026C17.1881 21.3772 16.274 21.7573 15.32 21.76ZM15.32 17.41C15.1717 17.41 15.0267 17.454 14.9033 17.5364C14.78 17.6188 14.6839 17.7359 14.6271 17.873C14.5703 18.01 14.5555 18.1608 14.5844 18.3063C14.6133 18.4518 14.6848 18.5854 14.7897 18.6903C14.8946 18.7952 15.0282 18.8666 15.1737 18.8956C15.3192 18.9245 15.47 18.9097 15.607 18.8529C15.7441 18.7961 15.8612 18.7 15.9436 18.5767C16.026 18.4533 16.07 18.3083 16.07 18.16C16.07 17.9611 15.991 17.7703 15.8503 17.6296C15.7097 17.489 15.5189 17.41 15.32 17.41Z" fill="black"/>
</svg>
