<svg width="48" height="48" viewBox="0 0 48 48" fill="none" xmlns="http://www.w3.org/2000/svg">
<path d="M32.6458 42.7895C32.4602 42.7908 32.2763 42.7552 32.1046 42.6848C31.9329 42.6145 31.777 42.5106 31.6458 42.3795L14.3658 25.0895C14.2231 24.9481 14.1098 24.7799 14.0325 24.5945C13.9552 24.4092 13.9154 24.2103 13.9154 24.0095C13.9154 23.8086 13.9552 23.6097 14.0325 23.4244C14.1098 23.239 14.2231 23.0708 14.3658 22.9295L31.6558 5.63945C31.7847 5.5039 31.9398 5.39597 32.1117 5.32223C32.2836 5.24848 32.4687 5.21045 32.6558 5.21045C32.8428 5.21045 33.0279 5.24848 33.1999 5.32223C33.3718 5.39597 33.5269 5.5039 33.6558 5.63945C33.7913 5.76836 33.8993 5.92348 33.973 6.09538C34.0468 6.26729 34.0848 6.45239 34.0848 6.63945C34.0848 6.82651 34.0468 7.01161 33.973 7.18352C33.8993 7.35542 33.7913 7.51054 33.6558 7.63945L17.2258 24.0095L33.6258 40.4095C33.8188 40.6064 33.9494 40.8559 34.0011 41.1267C34.0529 41.3975 34.0235 41.6776 33.9167 41.9318C33.8099 42.186 33.6304 42.4029 33.4007 42.5555C33.1711 42.7081 32.9015 42.7895 32.6258 42.7895H32.6458Z" fill="black"/>
</svg>
