<svg width="48" height="48" viewBox="0 0 48 48" fill="none" xmlns="http://www.w3.org/2000/svg">
<path d="M31.5948 41.8305C31.2483 41.8322 30.9049 41.7653 30.5844 41.6337C30.2639 41.502 29.9726 41.3082 29.7274 41.0634L14.587 25.9229C14.3303 25.6686 14.1266 25.3659 13.9876 25.0324C13.8485 24.6989 13.777 24.3412 13.777 23.9799C13.777 23.6186 13.8485 23.2608 13.9876 22.9273C14.1266 22.5938 14.3303 22.2912 14.587 22.0369L29.7274 6.89642C30.2253 6.42223 30.8889 6.16149 31.5764 6.16987C32.2639 6.17826 32.9209 6.4551 33.4071 6.94129C33.8933 7.42747 34.1702 8.08447 34.1785 8.772C34.1869 9.45952 33.9262 10.1231 33.452 10.621L20.0577 23.9446L33.452 37.3388C33.9457 37.8328 34.2231 38.5027 34.2231 39.2011C34.2231 39.8995 33.9457 40.5694 33.452 41.0634C33.2087 41.3079 32.9192 41.5016 32.6004 41.6333C32.2815 41.765 31.9397 41.832 31.5948 41.8305Z" fill="black"/>
</svg>
