<svg width="48" height="48" viewBox="0 0 48 48" fill="none" xmlns="http://www.w3.org/2000/svg">
<path d="M33.8721 39.4074C33.5256 39.4091 33.1822 39.3422 32.8617 39.2105C32.5412 39.0789 32.25 38.8851 32.0048 38.6402L16.8643 23.4998C16.3509 22.9835 16.0627 22.2849 16.0627 21.5568C16.0627 20.8286 16.3509 20.1301 16.8643 19.6138L32.0048 4.4733C32.51 4.12107 33.1228 3.95701 33.7364 4.00964C34.3501 4.06227 34.926 4.32826 35.3639 4.76138C35.8018 5.1945 36.0741 5.76737 36.1335 6.38043C36.1929 6.99349 36.0356 7.60798 35.689 8.11711L22.3351 21.5214L35.689 34.9157C36.0551 35.2841 36.3043 35.7525 36.405 36.2621C36.5057 36.7716 36.4536 37.2996 36.2551 37.7796C36.0566 38.2596 35.7207 38.6702 35.2895 38.9598C34.8583 39.2495 34.3511 39.4052 33.8317 39.4074H33.8721Z" fill="black"/>
<path d="M29.2795 44C28.933 44.0017 28.5896 43.9348 28.2691 43.8031C27.9486 43.6715 27.6574 43.4777 27.4122 43.2329L12.2717 28.0924C11.7975 27.5945 11.5368 26.931 11.5452 26.2434C11.5536 25.5559 11.8304 24.8989 12.3166 24.4127C12.8028 23.9265 13.4598 23.6497 14.1473 23.6413C14.8348 23.6329 15.4984 23.8937 15.9963 24.3679L31.1367 39.5083C31.5029 39.8767 31.752 40.3451 31.8528 40.8547C31.9535 41.3642 31.9013 41.8922 31.7029 42.3722C31.5044 42.8522 31.1684 43.2628 30.7373 43.5524C30.3061 43.8421 29.7989 43.9978 29.2795 44Z" fill="black"/>
</svg>
