<svg width="48" height="48" viewBox="0 0 48 48" fill="none" xmlns="http://www.w3.org/2000/svg">
<path d="M33.8624 41.562C33.4881 41.5625 33.1287 41.4152 32.8624 41.152L15.5824 23.862C15.4397 23.7207 15.3264 23.5525 15.2491 23.3671C15.1718 23.1817 15.132 22.9829 15.132 22.782C15.132 22.5812 15.1718 22.3823 15.2491 22.1969C15.3264 22.0116 15.4397 21.8433 15.5824 21.702L32.8724 4.41202C33.0038 4.28069 33.1597 4.17652 33.3312 4.10545C33.5028 4.03438 33.6867 3.9978 33.8724 3.9978C34.0582 3.9978 34.2421 4.03438 34.4136 4.10545C34.5852 4.17652 34.7411 4.28069 34.8724 4.41202C35.0038 4.54334 35.1079 4.69924 35.179 4.87082C35.2501 5.0424 35.2867 5.2263 35.2867 5.41202C35.2867 5.59773 35.2501 5.78163 35.179 5.95321C35.1079 6.12479 35.0038 6.28069 34.8724 6.41202L18.4524 22.782L34.8524 39.182C34.9855 39.3124 35.0912 39.468 35.1633 39.6397C35.2355 39.8114 35.2726 39.9958 35.2726 40.182C35.2726 40.3683 35.2355 40.5527 35.1633 40.7244C35.0912 40.8961 34.9855 41.0517 34.8524 41.182C34.5839 41.4318 34.2291 41.5679 33.8624 41.562Z" fill="black"/>
<path d="M31.4224 44.002C31.2369 44.0033 31.053 43.9678 30.8813 43.8974C30.7096 43.827 30.5536 43.7232 30.4224 43.592L13.1424 26.302C13.0069 26.1731 12.899 26.018 12.8252 25.8461C12.7515 25.6742 12.7134 25.4891 12.7134 25.302C12.7134 25.115 12.7515 24.9299 12.8252 24.7579C12.899 24.586 13.0069 24.4309 13.1424 24.302C13.2713 24.1665 13.4265 24.0585 13.5984 23.9848C13.7703 23.911 13.9554 23.873 14.1424 23.873C14.3295 23.873 14.5146 23.911 14.6865 23.9848C14.8584 24.0585 15.0135 24.1665 15.1424 24.302L32.4024 41.622C32.5954 41.8189 32.726 42.0684 32.7778 42.3392C32.8295 42.6101 32.8001 42.8901 32.6933 43.1443C32.5865 43.3985 32.4071 43.6155 32.1774 43.7681C31.9478 43.9207 31.6782 44.0021 31.4024 44.002H31.4224Z" fill="black"/>
</svg>
