<svg width="48" height="48" viewBox="0 0 48 48" fill="none" xmlns="http://www.w3.org/2000/svg">
<path d="M24 4C20.0444 4 16.1776 5.17298 12.8886 7.37061C9.59962 9.56824 7.03617 12.6918 5.52242 16.3463C4.00867 20.0009 3.6126 24.0222 4.3843 27.9018C5.15601 31.7814 7.06082 35.3451 9.85787 38.1421C12.6549 40.9392 16.2186 42.844 20.0982 43.6157C23.9778 44.3874 27.9992 43.9913 31.6537 42.4776C35.3082 40.9638 38.4318 38.4004 40.6294 35.1114C42.827 31.8224 44 27.9556 44 24C44 18.6957 41.8929 13.6086 38.1421 9.85786C34.3914 6.10714 29.3043 4 24 4V4ZM25.22 34.23H22.72V20H25.22V34.23ZM25.63 16.23C25.5331 16.4376 25.4011 16.6271 25.24 16.79C25.0772 16.9534 24.8834 17.0826 24.67 17.17C24.4567 17.2672 24.2243 17.315 23.99 17.31C23.7556 17.3161 23.523 17.2682 23.31 17.17C23.0996 17.0771 22.9067 16.9485 22.74 16.79C22.581 16.6274 22.4523 16.4378 22.36 16.23C22.2676 16.0152 22.22 15.7838 22.22 15.55C22.22 15.3097 22.2676 15.0718 22.36 14.85C22.4474 14.6366 22.5766 14.4428 22.74 14.28C22.906 14.1179 23.0988 13.986 23.31 13.89C23.5291 13.8023 23.7642 13.7614 24 13.77C24.2338 13.77 24.4652 13.8176 24.68 13.91C25.1314 14.0996 25.4904 14.4586 25.68 14.91C25.7803 15.1296 25.8315 15.3685 25.83 15.61C25.8102 15.8352 25.742 16.0536 25.63 16.25V16.23Z" fill="black"/>
</svg>
