<svg width="48" height="48" viewBox="0 0 48 48" fill="none" xmlns="http://www.w3.org/2000/svg">
<path d="M24 44C20.0444 44 16.1776 42.827 12.8886 40.6294C9.59962 38.4318 7.03617 35.3082 5.52242 31.6537C4.00867 27.9992 3.6126 23.9778 4.3843 20.0982C5.15601 16.2186 7.06082 12.6549 9.85787 9.85787C12.6549 7.06082 16.2186 5.15601 20.0982 4.3843C23.9778 3.6126 27.9992 4.00867 31.6537 5.52242C35.3082 7.03617 38.4318 9.59962 40.6294 12.8886C42.827 16.1776 44 20.0444 44 24C44 29.3043 41.8929 34.3914 38.1421 38.1421C34.3914 41.8929 29.3043 44 24 44ZM24 6.79001C20.5962 6.79001 17.2688 7.79936 14.4386 9.69042C11.6085 11.5815 9.40263 14.2693 8.10004 17.414C6.79746 20.5587 6.45664 24.0191 7.12069 27.3575C7.78475 30.6959 9.42384 33.7625 11.8307 36.1693C14.2376 38.5762 17.3041 40.2153 20.6425 40.8793C23.9809 41.5434 27.4413 41.2026 30.586 39.9C33.7307 38.5974 36.4185 36.3915 38.3096 33.5614C40.2007 30.7312 41.21 27.4038 41.21 24C41.2047 19.4373 39.3898 15.0629 36.1635 11.8365C32.9371 8.61019 28.5628 6.7953 24 6.79001Z" fill="black"/>
<path d="M25.82 15.37C25.8215 15.6115 25.7703 15.8504 25.67 16.07C25.571 16.2819 25.4356 16.4749 25.27 16.64C25.105 16.8079 24.9077 16.9406 24.69 17.03C24.4701 17.1294 24.2314 17.1806 23.99 17.18C23.7485 17.1815 23.5097 17.1303 23.29 17.03C23.0753 16.9404 22.8813 16.8076 22.72 16.64C22.5544 16.4749 22.419 16.2819 22.32 16.07C22.2276 15.8482 22.18 15.6103 22.18 15.37C22.181 15.1266 22.2285 14.8856 22.32 14.66C22.4169 14.441 22.5524 14.2411 22.72 14.07C22.884 13.9056 23.0773 13.7733 23.29 13.68C23.5097 13.5797 23.7485 13.5285 23.99 13.53C24.2314 13.5294 24.4701 13.5806 24.69 13.68C24.9057 13.7732 25.1023 13.9054 25.27 14.07C25.4376 14.2411 25.5731 14.441 25.67 14.66C25.7694 14.8835 25.8205 15.1254 25.82 15.37ZM25.25 19.93V34.47H22.7V19.93H25.25Z" fill="black"/>
</svg>
