<svg width="48" height="48" viewBox="0 0 48 48" fill="none" xmlns="http://www.w3.org/2000/svg">
<path fill-rule="evenodd" clip-rule="evenodd" d="M24.0221 19.6178C24.8972 19.6178 25.7527 19.8777 26.4803 20.3648C27.2079 20.8518 27.775 21.5441 28.1099 22.354C28.4448 23.1639 28.5324 24.0551 28.3617 24.9149C28.191 25.7747 27.7696 26.5645 27.1508 27.1844C26.532 27.8043 25.7436 28.2264 24.8853 28.3974C24.027 28.5685 23.1374 28.4807 22.3289 28.1452C21.5205 27.8097 20.8294 27.2416 20.3433 26.5127C19.8571 25.7838 19.5976 24.9268 19.5976 24.0502C19.5976 22.8746 20.0637 21.7472 20.8935 20.916C21.7233 20.0847 22.8487 19.6178 24.0221 19.6178ZM31.1034 18.5472C31.3232 18.5646 31.5443 18.5363 31.7526 18.464C31.961 18.3917 32.1521 18.277 32.3141 18.1272C32.476 17.9773 32.6053 17.7954 32.6937 17.5931C32.7821 17.3907 32.8277 17.1722 32.8277 16.9513C32.8277 16.7304 32.7821 16.5119 32.6937 16.3096C32.6053 16.1072 32.476 15.9253 32.3141 15.7755C32.1521 15.6256 31.961 15.5109 31.7526 15.4386C31.5443 15.3663 31.3232 15.338 31.1034 15.3554C30.7027 15.3872 30.3287 15.5692 30.0559 15.8649C29.7831 16.1607 29.6316 16.5486 29.6316 16.9513C29.6316 17.354 29.7831 17.7419 30.0559 18.0377C30.3287 18.3334 30.7027 18.5154 31.1034 18.5472ZM24.0221 30.8839C25.8313 30.8839 27.5664 30.1639 28.8457 28.8824C30.125 27.6008 30.8437 25.8626 30.8437 24.0502C30.8437 22.2378 30.125 20.4996 28.8457 19.218C27.5664 17.9364 25.8313 17.2164 24.0221 17.2164C22.2129 17.2164 20.4778 17.9364 19.1985 19.218C17.9192 20.4996 17.2005 22.2378 17.2005 24.0502C17.2005 25.8626 17.9192 27.6008 19.1985 28.8824C20.4778 30.1639 22.2129 30.8839 24.0221 30.8839ZM34.3694 16.2059C34.6619 16.9971 34.814 17.8335 34.8188 18.6772C34.8888 20.078 34.8987 20.4982 34.8987 24.0502C34.8987 27.6021 34.8987 28.0524 34.8188 29.4231C34.813 30.2668 34.6609 31.103 34.3694 31.8945C34.1434 32.4643 33.8035 32.9818 33.3707 33.4154C32.9379 33.849 32.4213 34.1894 31.8525 34.4159C31.062 34.7077 30.2279 34.8633 29.3855 34.8761C27.9873 34.9361 27.5678 34.9461 24.0221 34.9461C20.4765 34.9461 20.0271 34.9461 18.6587 34.8761C17.8163 34.8645 16.982 34.7088 16.1918 34.4159C15.6139 34.2015 15.0916 33.8595 14.6637 33.4153C14.2173 32.9891 13.8754 32.4651 13.6649 31.8845C13.3673 31.0978 13.2117 30.2644 13.2055 29.4231C13.1555 28.0524 13.1355 27.5921 13.1355 24.0502C13.1355 20.5083 13.1355 20.048 13.2154 18.6772C13.222 17.8328 13.3775 16.9961 13.6749 16.2059C13.8945 15.6312 14.2319 15.1089 14.6655 14.6729C15.099 14.2369 15.6189 13.8968 16.1918 13.6745C16.9816 13.3815 17.8165 13.2291 18.6587 13.2243C19.8772 13.1642 20.3567 13.1442 22.8336 13.1442H24.0221C27.5678 13.1442 28.0172 13.1442 29.3855 13.2243C30.2279 13.2371 31.062 13.3927 31.8525 13.6845C32.4237 13.9068 32.9425 14.2457 33.3759 14.6798C33.8092 15.1139 34.1475 15.6336 34.3694 16.2059ZM37.2159 29.5332C37.2758 28.1124 37.2958 27.6622 37.2958 24.0502C37.2958 20.4382 37.2958 19.988 37.2159 18.5672C37.1853 17.4635 36.9762 16.372 36.5967 15.3354C36.2598 14.4494 35.735 13.6472 35.0585 12.9841C34.3996 12.3053 33.5978 11.7823 32.7114 11.4533C31.6796 11.0625 30.5883 10.8527 29.4854 10.833C28.0771 10.7629 27.6177 10.7529 24.0221 10.7529C20.4166 10.7529 19.9671 10.7529 18.5489 10.833C17.446 10.8527 16.3547 11.0625 15.3229 11.4533C14.4425 11.7962 13.6428 12.3182 12.974 12.9864C12.3053 13.6546 11.7822 14.4544 11.4376 15.3354C11.0525 16.3701 10.8465 17.4631 10.8284 18.5672C10.7585 19.988 10.7485 20.4382 10.7485 24.0502C10.7485 27.6622 10.7485 28.1124 10.8284 29.5332C10.8503 30.6369 11.0562 31.7292 11.4376 32.765C11.7836 33.6463 12.3072 34.4467 12.9757 35.1163C13.6441 35.786 14.4431 36.3105 15.3229 36.6571C16.3554 37.0439 17.4466 37.2503 18.5489 37.2674C19.9571 37.3375 20.4166 37.3475 24.0221 37.3475C27.6277 37.3475 28.0771 37.3475 29.4854 37.2674C30.5878 37.2515 31.6792 37.045 32.7114 36.6571C33.5982 36.3243 34.4 35.7979 35.0585 35.1162C35.735 34.4532 36.2598 33.6509 36.5967 32.765C36.9772 31.7286 37.1864 30.637 37.2159 29.5332ZM42 13.8446C42 14.1548 42 19.0975 42 24.0402C42 28.9829 42 33.9256 42 34.2358C41.9451 35.4181 41.6566 36.5778 41.151 37.6476C40.6701 38.6314 39.9816 39.4987 39.1332 40.1898C38.2847 40.8808 37.2966 41.3789 36.2371 41.6498C35.3502 41.8643 34.4426 41.9818 33.5304 42C33.101 42 28.5366 42 24.0221 42C19.5077 42 14.9433 42 14.4939 42C13.6152 41.9734 12.7417 41.8561 11.8871 41.6498C10.8292 41.3752 9.84275 40.8757 8.99482 40.1851C8.14689 39.4945 7.45736 38.629 6.97313 37.6476C6.4644 36.5542 6.17591 35.371 6.12418 34.1657C6.04428 33.7555 6.04428 31.5543 6.04428 24.0502V18.187C5.94979 16.4144 6.00659 14.637 6.21407 12.8741C6.41945 11.2279 7.14777 9.69147 8.29151 8.49168C8.88437 7.86763 9.58474 7.35583 10.359 6.98085C11.4611 6.41962 12.6696 6.09906 13.9046 6.04034C14.3241 6.04034 16.5214 6.04034 24.0221 6.04034H29.8649C31.6375 5.95345 33.4142 6.00698 35.1784 6.20042C36.8207 6.41642 38.3523 7.14855 39.553 8.29157C40.194 8.89414 40.7188 9.60979 41.1011 10.4027C41.6319 11.4766 41.9378 12.6479 42 13.8446Z" fill="black"/>
</svg>
