<svg width="48" height="48" viewBox="0 0 48 48" fill="none" xmlns="http://www.w3.org/2000/svg">
<path fill-rule="evenodd" clip-rule="evenodd" d="M42 24.5C42.0102 21.7592 41.3219 19.061 40 16.66C45.47 4.22002 34.08 6.00002 33.45 6.16002C31.1321 6.61263 28.8786 7.34813 26.74 8.35002H25.82C22.1621 8.34842 18.6115 9.58637 15.7475 11.8619C12.8836 14.1375 10.8752 17.3164 10.05 20.88C14.11 16.33 16.94 14.5 18.64 13.76L17.84 14.5L17.59 14.75L17.07 15.24L16.78 15.54L16.34 16L16.03 16.32L15.63 16.76L15.32 17.1L15 17.52L14.7 17.88C14.58 18.01 14.47 18.15 14.35 18.29L14 18.65L13.68 19.05L13.38 19.43L13.11 19.79C13 19.92 12.9 20.06 12.8 20.19L12.59 20.48C12 21.35 11.37 22.21 10.85 23C10.71 23.21 10.58 23.43 10.45 23.64L9.99999 24.34C9.66999 24.9 9.35999 25.43 9.07999 25.94C8.24547 27.4233 7.51699 28.9638 6.89999 30.55C2.29999 47 16.66 40.05 18.67 39C20.7191 40.0063 22.9578 40.5682 25.2392 40.6488C27.5207 40.7294 29.7934 40.3269 31.9084 39.4676C34.0234 38.6084 35.9329 37.3119 37.5118 35.663C39.0907 34.0142 40.3032 32.0503 41.07 29.9H32.57C31.8946 31.0036 30.9441 31.9128 29.8117 32.5386C28.6793 33.1644 27.4037 33.4854 26.11 33.47C24.2168 33.5321 22.3763 32.8403 20.9926 31.5467C19.609 30.253 18.7952 28.4631 18.73 26.57H41.87C41.9533 25.8831 41.9967 25.192 42 24.5ZM39 8.59002C40.39 9.53002 41.51 11 39.59 15.98C37.7377 12.9945 34.965 10.6922 31.69 9.42002C33.17 8.69002 36.87 7.16002 39 8.59002ZM9.36999 39C8.23999 37.82 7.99999 35 10.54 29.82C11.7908 33.4225 14.2687 36.4703 17.54 38.43C16 39.32 11.66 41.33 9.36999 39ZM18.69 22.18C18.8059 20.3366 19.6327 18.61 20.9962 17.364C22.3597 16.118 24.1536 15.4498 26 15.5C27.8432 15.4495 29.6342 16.115 30.9972 17.3568C32.3602 18.5986 33.1891 20.3201 33.31 22.16L18.69 22.18Z" fill="black"/>
</svg>
