<svg width="48" height="48" viewBox="0 0 48 48" fill="none" xmlns="http://www.w3.org/2000/svg">
<path d="M23.9552 43.999C19.7726 43.9997 15.6975 42.6792 12.3157 40.2272C8.01072 37.1142 5.11565 32.4319 4.26157 27.2013C3.40749 21.9706 4.66366 16.6157 7.75624 12.3038C10.0649 9.09795 13.2777 6.64773 16.9868 5.26418C20.6959 3.88064 24.7339 3.62618 28.5884 4.53309C32.443 5.44001 35.9401 7.46741 38.6358 10.3579C41.3316 13.2485 43.1045 16.8718 43.7295 20.7679C44.6004 26.0016 43.3494 31.3657 40.2514 35.6808C37.1535 39.9958 32.4623 42.9087 27.2091 43.7789C26.1318 43.9359 25.0439 44.0094 23.9552 43.999ZM13.1191 39.1167C15.1032 40.5512 17.353 41.5799 19.7384 42.1433C22.1239 42.7067 24.5977 42.7938 27.0171 42.3993C29.4365 42.0049 31.7535 41.1369 33.8343 39.8454C35.915 38.5538 37.7183 36.8644 39.1399 34.8747C42.0199 30.8575 43.1894 25.8692 42.3937 20.9968C41.598 16.1244 38.9015 11.7627 34.8918 8.86219C32.9077 7.42768 30.6579 6.399 28.2725 5.83556C25.887 5.27213 23.4132 5.18511 20.9938 5.57953C18.5744 5.97395 16.2574 6.842 14.1766 8.13353C12.0959 9.42506 10.2926 11.1145 8.87098 13.1042C5.99363 17.1222 4.82565 22.1098 5.62124 26.9814C6.41683 31.8531 9.11159 36.2145 13.1191 39.1167Z" fill="black"/>
<path d="M30.8647 33.1939C31.4509 33.0365 31.9851 32.7279 32.4136 32.2994C32.842 31.8708 33.1495 31.3373 33.3051 30.7527L33.4155 30.3925V20.7379C33.4155 13.5144 33.4155 11.0432 33.4155 10.9132C33.3796 10.7784 33.3106 10.6546 33.2147 10.553C33.0789 10.4703 32.9219 10.4286 32.7628 10.4329C32.4459 10.4588 32.1307 10.5022 31.8187 10.563C30.1014 10.8732 19.7774 12.9141 19.6067 12.9842C19.3191 13.0949 19.0805 13.3042 18.9339 13.5744L18.8234 13.7846C18.8234 13.7846 18.8234 28.9118 18.6928 29.0819C18.5689 29.3486 18.3455 29.5567 18.0702 29.6622C17.9497 29.6622 17.4977 29.8022 17.0659 29.8923C15.0071 30.3025 14.2439 30.5926 13.5911 31.2229C13.2181 31.602 12.9574 32.0763 12.8379 32.5936C12.728 33.1487 12.7556 33.7222 12.9182 34.2644C13.0826 34.7191 13.3548 35.1275 13.7116 35.4549C14.0484 35.709 14.435 35.8897 14.8464 35.9852C16.0754 36.1843 17.3361 35.9954 18.4518 35.4449C18.8877 35.1694 19.2662 34.8127 19.5665 34.3944C19.6984 34.1806 19.8126 33.9564 19.908 33.7241C20.1992 32.9637 20.2093 19.4172 20.2495 19.2472C20.274 19.1113 20.3372 18.9853 20.4316 18.8842C20.5259 18.7831 20.6475 18.7111 20.7817 18.6769C21.0328 18.6069 30.9149 16.6759 31.1961 16.6759C31.3053 16.6534 31.4186 16.6601 31.5244 16.6952C31.6302 16.7303 31.7248 16.7927 31.7987 16.876C31.8721 16.9125 31.9345 16.9677 31.9794 17.0361C32.0598 17.1562 32.0698 17.3863 32.0799 21.6783C32.0799 26.6107 32.0799 26.5006 31.8288 26.8108C31.5777 27.1209 31.3869 27.1209 30.3826 27.331C29.4736 27.4624 28.5857 27.7113 27.7414 28.0714C27.1038 28.3416 26.5888 28.8368 26.2952 29.4621C26.0897 29.8507 25.9828 30.2835 25.9839 30.7227C25.9832 31.1146 26.0651 31.5024 26.2242 31.8608C26.3834 32.2193 26.6162 32.5405 26.9078 32.8037L27.0785 32.9637C27.3947 33.2001 27.7575 33.3672 28.1431 33.454C29.0586 33.5563 29.9854 33.4678 30.8647 33.1939Z" fill="black"/>
</svg>
