<svg width="48" height="48" viewBox="0 0 48 48" fill="none" xmlns="http://www.w3.org/2000/svg">
<path fill-rule="evenodd" clip-rule="evenodd" d="M18.5 34.93C18.5 34.93 16.97 35.82 19.59 36.12C22.3481 36.5122 25.1548 36.3935 27.87 35.77C28.5712 36.1921 29.3072 36.5534 30.07 36.85C22.24 40.2 12.35 36.65 18.5 34.93ZM17.5 30.56C17.5 30.56 15.79 31.82 18.41 32.1C21.9777 32.516 25.5895 32.3403 29.1 31.58C29.5737 32.0204 30.1315 32.3606 30.74 32.58C21.31 35.35 10.77 32.8 17.54 30.56H17.5ZM25.57 23.13C19.03 15.59 32.72 12.13 32.72 12.13C24 17.19 25.61 18.66 27.72 21.61C29.97 24.78 25.07 27.31 25.07 27.31C25.07 27.31 27.54 25.35 25.61 23.13H25.57ZM36 38.17C40.14 40.04 27 43.8 11 41.17C5.14999 40.17 13.82 36.9 15.41 38.02C14.9334 38.0271 14.4597 38.0943 14 38.22C13.16 38.4 10.48 39.22 11.91 39.88C15.91 41.61 30.17 41.2 34.69 39.83C37.1 39.11 36 38.17 36 38.17ZM19.24 26C19.24 26 12 27.74 16.66 28.37C19.8632 28.6229 23.0827 28.5895 26.28 28.27C29.28 28.01 32.28 27.47 32.28 27.47C31.6451 27.7555 31.0332 28.0899 30.45 28.47C23.07 30.41 8.80999 29.47 12.91 27.53C14.8672 26.5208 17.038 25.9962 19.24 26ZM32.24 33.29C39.74 29.39 36.24 25.64 33.85 26.15C33.5575 26.2028 33.2698 26.2798 32.99 26.38C33.1474 26.152 33.3707 25.9776 33.63 25.88C38.42 24.2 42.11 30.88 32.09 33.48C32.1627 33.4348 32.227 33.3772 32.28 33.31L32.24 33.29ZM27.75 4C27.75 4 31.91 8.16 23.81 14.55C17.32 19.68 22.33 22.6 23.81 25.94C20 22.52 17.24 19.51 19.1 16.71C21.84 12.6 29.43 10.6 27.75 4ZM20 43.87C15.27 43.57 14.35 42.81 14.35 42.81C20.405 43.6538 26.5538 43.5593 32.58 42.53C38.03 41.53 38.53 40.21 38.53 40.21C38.24 43.62 27.18 44.34 20 43.87Z" fill="black"/>
</svg>
