<svg width="48" height="48" viewBox="0 0 48 48" fill="none" xmlns="http://www.w3.org/2000/svg">
<path fill-rule="evenodd" clip-rule="evenodd" d="M33.59 39.18C32.3387 39.2599 31.0911 38.9757 29.9979 38.3617C28.9047 37.7477 28.0128 36.8301 27.43 35.72L30.18 34.13C30.489 34.7501 30.9658 35.2711 31.5563 35.6335C32.1468 35.9959 32.8272 36.1853 33.52 36.18C34.92 36.18 35.81 35.48 35.81 34.51C35.81 33.35 34.9 32.94 33.35 32.27L32.5 31.9C30.06 30.9 28.44 29.56 28.44 26.8C28.44 24.27 30.38 22.33 33.44 22.33C34.4084 22.264 35.3752 22.4813 36.2222 22.9554C37.0692 23.4295 37.7599 24.14 38.21 25L35.57 26.69C35.3978 26.2569 35.0981 25.8863 34.7106 25.6274C34.3231 25.3685 33.866 25.2334 33.4 25.24C33.1964 25.2191 32.9907 25.241 32.796 25.3042C32.6014 25.3674 32.4221 25.4705 32.2696 25.607C32.1171 25.7435 31.9947 25.9103 31.9104 26.0968C31.8261 26.2833 31.7817 26.4853 31.78 26.69C31.78 27.69 32.41 28.12 33.86 28.75L34.7 29.11C37.58 30.34 39.2 31.6 39.2 34.42C39.2 37.51 36.8 39.18 33.59 39.18ZM25.59 34.08C25.59 37.58 23.54 39.18 20.54 39.18C19.4802 39.2388 18.4275 38.9738 17.5219 38.42C16.6163 37.8663 15.9007 37.0502 15.47 36.08L18.22 34.42C18.75 35.36 19.22 36.16 20.4 36.16C21.58 36.16 22.21 35.72 22.21 34.03V22.53H25.59V34.08ZM6 42H42V6H6V42Z" fill="black"/>
</svg>
