<svg width="48" height="48" viewBox="0 0 48 48" fill="none" xmlns="http://www.w3.org/2000/svg">
<path d="M11.49 24.41C11.49 24.8 11.33 25.08 10.87 25.08C10.68 25.0879 10.4902 25.0608 10.31 25V25.5C10.5321 25.5757 10.7654 25.6129 11 25.61C11.71 25.61 12 25.1 12 24.37V21.62H11.49V24.41Z" fill="black"/>
<path d="M13.28 22.56H12.76V25.58H13.28V22.56Z" fill="black"/>
<path d="M13 21.41C12.9116 21.4177 12.8296 21.4596 12.7717 21.5269C12.7138 21.5941 12.6844 21.6814 12.69 21.77C12.69 21.8655 12.7279 21.957 12.7954 22.0246C12.863 22.0921 12.9545 22.13 13.05 22.13C13.1455 22.13 13.237 22.0921 13.3046 22.0246C13.3721 21.957 13.41 21.8655 13.41 21.77V21.72C13.4105 21.67 13.3992 21.6207 13.3772 21.5758C13.3551 21.531 13.3229 21.492 13.283 21.4618C13.2432 21.4317 13.1968 21.4113 13.1477 21.4023C13.0985 21.3933 13.0479 21.3959 13 21.41Z" fill="black"/>
<path d="M14.56 23.09V22.56H14.06V25.56H14.56V23.8C14.56 23.16 14.97 22.96 15.63 23.03V22.52C15.4138 22.4847 15.1921 22.5214 14.9988 22.6244C14.8055 22.7273 14.6513 22.8909 14.56 23.09Z" fill="black"/>
<path d="M18.06 23.09C17.9754 22.8998 17.8337 22.7408 17.6544 22.635C17.4751 22.5292 17.2674 22.482 17.06 22.5C16.22 22.5 15.8 23.22 15.8 24.07C15.8 24.92 16.2 25.64 17 25.64C17.2069 25.6474 17.4114 25.5947 17.5889 25.4882C17.7664 25.3817 17.9092 25.226 18 25.04V25.58H18.52V22.58H18L18.06 23.09ZM18.06 24.19C18.0808 24.3158 18.0735 24.4446 18.0384 24.5672C18.0033 24.6898 17.9414 24.803 17.8572 24.8987C17.773 24.9944 17.6685 25.0702 17.5514 25.1206C17.4343 25.171 17.3074 25.1947 17.18 25.19C16.64 25.19 16.36 24.82 16.35 24.1C16.34 23.38 16.65 23 17.24 23C17.68 23 18.06 23.3 18.06 24V24.19Z" fill="black"/>
<path d="M21.74 23.29C21.04 23.12 20.79 22.95 20.79 22.63C20.79 22.31 21.09 22.09 21.61 22.09C22.0426 22.0787 22.4704 22.1822 22.85 22.39V21.85C22.4777 21.6432 22.0556 21.5428 21.63 21.56C20.71 21.56 20.24 22.01 20.24 22.63C20.24 23.25 20.64 23.63 21.53 23.81C22.42 23.99 22.53 24.17 22.53 24.52C22.53 24.87 22.31 25.11 21.71 25.11C21.205 25.1082 20.7066 24.9955 20.25 24.78V25.33C20.6897 25.5611 21.184 25.6682 21.68 25.64C22.68 25.64 23.07 25.17 23.08 24.49C23.09 23.81 22.58 23.5 21.74 23.29Z" fill="black"/>
<path d="M24.94 22.5C24.739 22.4946 24.5392 22.5322 24.3539 22.6103C24.1687 22.6885 24.0023 22.8054 23.8659 22.9531C23.7295 23.1009 23.6263 23.2761 23.5632 23.467C23.5001 23.6579 23.4785 23.8601 23.5 24.06C23.4788 24.2608 23.5004 24.4639 23.5633 24.6558C23.6263 24.8477 23.7292 25.0241 23.8652 25.1734C24.0012 25.3226 24.1674 25.4414 24.3526 25.5218C24.5379 25.6023 24.7381 25.6425 24.94 25.64C25.1407 25.6413 25.3395 25.6 25.5231 25.5188C25.7067 25.4377 25.871 25.3185 26.0052 25.1692C26.1394 25.0199 26.2404 24.8439 26.3015 24.6527C26.3627 24.4615 26.3826 24.2595 26.36 24.06C26.3829 23.8615 26.363 23.6604 26.3017 23.4701C26.2404 23.2799 26.139 23.1051 26.0045 22.9573C25.87 22.8095 25.7054 22.6922 25.5218 22.6134C25.3382 22.5345 25.1398 22.4958 24.94 22.5ZM24.94 25.16C24.29 25.16 24.01 24.64 24.01 24.06C24.01 23.49 24.3 22.99 24.94 22.99C25.58 22.99 25.85 23.49 25.85 24.06C25.85 24.63 25.58 25.16 24.94 25.16Z" fill="black"/>
<path d="M27.17 22.23V22.56H26.68V23H27.17V25.58H27.68V23H28.46V22.56H27.68V22.25C27.6751 22.1866 27.6843 22.1229 27.707 22.0635C27.7297 22.0041 27.7653 21.9505 27.8112 21.9065C27.8571 21.8625 27.9122 21.8292 27.9725 21.8091C28.0328 21.7889 28.0969 21.7824 28.16 21.79C28.2664 21.7801 28.3736 21.7801 28.48 21.79V21.34C28.3661 21.3079 28.2484 21.2911 28.13 21.29C28.0023 21.2762 27.8731 21.2909 27.7518 21.333C27.6304 21.3751 27.5199 21.4435 27.4281 21.5334C27.3363 21.6232 27.2656 21.7323 27.2209 21.8527C27.1763 21.9732 27.1589 22.102 27.17 22.23Z" fill="black"/>
<path d="M29.74 24.63V23H30.54V22.56H29.74V21.92H29.23V22.57H28.74V23.05H29.23V24.64C29.2157 24.7722 29.2323 24.906 29.2785 25.0307C29.3246 25.1555 29.3991 25.2678 29.496 25.3589C29.5929 25.45 29.7096 25.5174 29.837 25.5558C29.9644 25.5941 30.0989 25.6024 30.23 25.58C30.3462 25.5953 30.4638 25.5953 30.58 25.58V25C30.4702 25.0098 30.3598 25.0098 30.25 25C30.1917 25.0148 30.1309 25.0166 30.0719 25.0053C30.0128 24.994 29.957 24.9698 29.9083 24.9345C29.8597 24.8992 29.8193 24.8536 29.7903 24.801C29.7612 24.7484 29.744 24.69 29.74 24.63Z" fill="black"/>
<path d="M34.38 25.12L33.5 22.56H33.01L32.13 25.12L31.26 22.56H30.68L31.79 25.58H32.46L32.98 24.12L33.26 23.19L33.53 24.12L34.05 25.58H34.71L35.82 22.56H35.25L34.38 25.12Z" fill="black"/>
<path d="M38.19 23.09C38.1054 22.8998 37.9637 22.7408 37.7844 22.635C37.6051 22.5292 37.3974 22.482 37.19 22.5C36.35 22.5 35.93 23.22 35.93 24.07C35.93 24.92 36.33 25.64 37.13 25.64C37.3369 25.6474 37.5414 25.5947 37.7189 25.4882C37.8964 25.3817 38.0392 25.226 38.13 25.04V25.58H38.65V22.58H38.13L38.19 23.09ZM38.19 24.19C38.2108 24.3158 38.2035 24.4446 38.1684 24.5672C38.1333 24.6898 38.0714 24.803 37.9872 24.8987C37.903 24.9944 37.7985 25.0702 37.6814 25.1206C37.5643 25.171 37.4374 25.1947 37.31 25.19C36.78 25.19 36.48 24.82 36.48 24.1C36.48 23.38 36.79 23 37.37 23C37.95 23 38.19 23.3 38.19 24V24.19Z" fill="black"/>
<path d="M40 23.09V22.56H39.5V25.56H40V23.8C40 23.16 40.41 22.96 41.07 23.03V22.52C40.8538 22.4847 40.6321 22.5214 40.4388 22.6244C40.2455 22.7273 40.0913 22.8909 40 23.09Z" fill="black"/>
<path d="M44 24.06C44 23.15 43.63 22.5 42.7 22.5C42.4994 22.4944 42.2999 22.532 42.115 22.6102C41.9302 22.6884 41.7644 22.8055 41.6287 22.9534C41.4931 23.1014 41.3909 23.2768 41.329 23.4677C41.2671 23.6586 41.247 23.8606 41.27 24.06C41.2486 24.2772 41.2765 24.4963 41.3516 24.7012C41.4267 24.9061 41.5471 25.0914 41.7038 25.2433C41.8605 25.3951 42.0494 25.5097 42.2565 25.5784C42.4637 25.6471 42.6836 25.6681 42.9 25.64C43.2194 25.6479 43.5367 25.5865 43.83 25.46V25C43.5388 25.1079 43.2305 25.1621 42.92 25.16C42.2 25.16 41.87 24.83 41.8 24.32H44V24.06ZM41.79 23.86C41.85 23.34 42.12 22.98 42.67 22.99C43.22 23 43.44 23.31 43.47 23.87L41.79 23.86Z" fill="black"/>
<path d="M6.73 21.22L6.51 21L4.06 23.45C4.02271 23.4891 4.00191 23.541 4.00191 23.595C4.00191 23.649 4.02271 23.7009 4.06 23.74L6.51 26.19L8.19 24.51L9 23.74C9.03729 23.7009 9.0581 23.649 9.0581 23.595C9.0581 23.541 9.03729 23.4891 9 23.45L6.73 21.22ZM6.51 24.36L5.74 23.6L6.51 22.83L7.28 23.6L6.51 24.36Z" fill="black"/>
</svg>
