<svg width="48" height="48" viewBox="0 0 48 48" fill="none" xmlns="http://www.w3.org/2000/svg">
<path d="M40 6H6C6.0053 9.25604 7.30247 12.3769 9.60672 14.6774C11.911 16.9779 15.034 18.27 18.29 18.27H29.7V29.69H42V8C42 7.46957 41.7893 6.96086 41.4142 6.58579C41.0391 6.21071 40.5304 6 40 6Z" fill="black"/>
<path d="M18.29 18.27H6V40C6 40.5304 6.21071 41.0391 6.58579 41.4142C6.96086 41.7893 7.46957 42 8 42H42C42.0026 40.3835 41.6864 38.7824 41.0693 37.2884C40.4522 35.7943 39.5464 34.4367 38.4039 33.2932C37.2613 32.1497 35.9044 31.2428 34.4109 30.6246C32.9173 30.0063 31.3165 29.6887 29.7 29.69H18.29V18.27Z" fill="black"/>
</svg>
