<svg width="48" height="48" viewBox="0 0 48 48" fill="none" xmlns="http://www.w3.org/2000/svg">
<path d="M9.08005 20.76H4.00005C4.00005 21.0012 4.04771 21.2399 4.1403 21.4626C4.23289 21.6853 4.36858 21.8875 4.53957 22.0576C4.71057 22.2276 4.91349 22.3622 5.13667 22.4536C5.35985 22.545 5.59889 22.5913 5.84005 22.59H7.54005V24.3H9.37005V21.06C9.36772 20.9829 9.33671 20.9094 9.28308 20.8539C9.22945 20.7984 9.15705 20.7649 9.08005 20.76Z" fill="black"/>
<path d="M5.84005 22.59H4.00005V25.84C3.99871 25.8789 4.00522 25.9177 4.01919 25.9541C4.03316 25.9904 4.05431 26.0236 4.08137 26.0516C4.10844 26.0796 4.14086 26.1018 4.17671 26.117C4.21257 26.1322 4.25111 26.14 4.29005 26.14H9.37005C9.37137 25.8988 9.32501 25.6598 9.23363 25.4366C9.14225 25.2134 9.00767 25.0105 8.8376 24.8395C8.66754 24.6685 8.46536 24.5328 8.24268 24.4403C8.02 24.3477 7.78121 24.3 7.54005 24.3H5.84005L5.84005 22.59Z" fill="black"/>
<path d="M13.83 24.46C13.83 25.02 13.6 25.46 12.95 25.46C12.6731 25.4605 12.3985 25.4096 12.14 25.31V26C12.4429 26.1009 12.761 26.1482 13.08 26.14C14.15 26.14 14.61 25.42 14.61 24.37V20.45H13.83V24.46Z" fill="black"/>
<path d="M16.38 21.81H15.64V26.14H16.38V21.81Z" fill="black"/>
<path d="M16 20.15C15.9361 20.1538 15.8735 20.1703 15.816 20.1987C15.7585 20.227 15.7073 20.2666 15.6653 20.3151C15.6234 20.3635 15.5916 20.4199 15.5718 20.4809C15.552 20.5418 15.5446 20.6061 15.55 20.67C15.55 20.8079 15.6048 20.9402 15.7024 21.0377C15.7999 21.1352 15.9321 21.19 16.07 21.19C16.2072 21.1874 16.3379 21.1318 16.4349 21.0349C16.5319 20.9379 16.5875 20.8071 16.59 20.67V20.6C16.5858 20.5297 16.5665 20.4612 16.5333 20.399C16.5002 20.3369 16.4541 20.2826 16.3981 20.2399C16.3421 20.1972 16.2776 20.1671 16.2089 20.1515C16.1402 20.136 16.069 20.1355 16 20.15Z" fill="black"/>
<path d="M18.25 22.57V21.81H17.5201V26.13H18.25V23.58C18.25 22.66 18.83 22.38 19.78 22.47V21.75C19.4702 21.6982 19.152 21.7506 18.8752 21.899C18.5983 22.0474 18.3785 22.2833 18.25 22.57Z" fill="black"/>
<path d="M23.27 22.57C23.1542 22.3045 22.9599 22.0807 22.7132 21.9288C22.4666 21.7768 22.1793 21.704 21.89 21.72C20.68 21.72 20.08 22.72 20.08 23.97C20.08 25.22 20.66 26.22 21.81 26.22C22.1111 26.2364 22.4102 26.1636 22.67 26.0106C22.9297 25.8576 23.1385 25.6312 23.27 25.36V26.13H24V21.81H23.26L23.27 22.57ZM23.27 24.14C23.2918 24.3175 23.2748 24.4977 23.2204 24.668C23.166 24.8384 23.0753 24.995 22.9547 25.127C22.834 25.2591 22.6862 25.3634 22.5215 25.433C22.3567 25.5026 22.1788 25.5357 22 25.53C21.23 25.53 20.82 25.01 20.82 23.97C20.82 22.93 21.25 22.41 22.09 22.41C22.73 22.41 23.27 22.84 23.27 23.8V24.14Z" fill="black"/>
<path d="M27.68 20.45L25.44 26.13H26.31L26.79 24.85C27.234 24.9443 27.6862 24.9946 28.14 25C28.6144 24.9973 29.0871 24.9437 29.55 24.84L30 26.13H30.87L28.66 20.45H27.68ZM28.15 24.3C27.7649 24.3013 27.3803 24.2712 27 24.21L28.15 21.08L29.32 24.2C28.9332 24.2635 28.542 24.2969 28.15 24.3Z" fill="black"/>
<path d="M32.17 24.94V20H31.43V25C31.4072 25.1563 31.4217 25.3159 31.4724 25.4655C31.5231 25.6152 31.6086 25.7507 31.7218 25.861C31.8349 25.9712 31.9726 26.0531 32.1236 26.0998C32.2745 26.1466 32.4344 26.1569 32.59 26.13H32.97V25.46H32.75C32.43 25.47 32.17 25.33 32.17 24.94Z" fill="black"/>
<path d="M34.43 21.81H33.69V26.14H34.43V21.81Z" fill="black"/>
<path d="M34.07 20.15H34C33.9361 20.1538 33.8735 20.1703 33.816 20.1987C33.7585 20.227 33.7073 20.2666 33.6653 20.3151C33.6234 20.3635 33.5916 20.4199 33.5718 20.4809C33.552 20.5418 33.5446 20.6061 33.55 20.67C33.5279 20.7474 33.5241 20.8289 33.5388 20.908C33.5536 20.9871 33.5864 21.0617 33.6349 21.126C33.6834 21.1902 33.7461 21.2424 33.8181 21.2783C33.8902 21.3141 33.9696 21.3328 34.05 21.3328C34.1305 21.3328 34.2099 21.3141 34.282 21.2783C34.354 21.2424 34.4167 21.1902 34.4652 21.126C34.5137 21.0617 34.5465 20.9871 34.5613 20.908C34.576 20.8289 34.5722 20.7474 34.55 20.67C34.5554 20.6591 34.5581 20.6471 34.5581 20.635C34.5581 20.6229 34.5554 20.6109 34.55 20.6C34.5448 20.4771 34.4917 20.3611 34.4019 20.277C34.3122 20.1929 34.193 20.1473 34.07 20.15Z" fill="black"/>
<path d="M38.4701 22.57C38.3542 22.3045 38.1599 22.0807 37.9132 21.9288C37.6666 21.7768 37.3793 21.704 37.09 21.72C35.89 21.72 35.2901 22.72 35.2901 23.97C35.2901 25.22 35.8601 26.22 37 26.22C37.3011 26.2364 37.6002 26.1636 37.86 26.0106C38.1197 25.8576 38.3285 25.6312 38.46 25.36V25.79C38.46 26.6 38.09 27.18 37.01 27.18C36.4956 27.1707 35.9859 27.0795 35.5 26.91V27.64C35.9961 27.8056 36.5173 27.8834 37.0401 27.87C37.331 27.9128 37.6279 27.8875 37.9074 27.7961C38.1868 27.7046 38.4413 27.5496 38.6507 27.3431C38.8601 27.1366 39.0187 26.8844 39.114 26.6062C39.2093 26.328 39.2388 26.0315 39.2001 25.74V21.81H38.4701V22.57ZM38.4701 24.14C38.4916 24.3167 38.4749 24.4959 38.4211 24.6656C38.3672 24.8352 38.2775 24.9913 38.1579 25.1231C38.0384 25.255 37.8919 25.3596 37.7283 25.4298C37.5647 25.5 37.388 25.5342 37.21 25.53C36.44 25.53 36 25 36 24C36 23 36.43 22.44 37.2701 22.44C37.9001 22.44 38.4501 22.87 38.4501 23.83L38.4701 24.14Z" fill="black"/>
<path d="M42.43 21.72C42.1516 21.715 41.8773 21.7871 41.6372 21.9282C41.3972 22.0694 41.2009 22.2742 41.07 22.52V21.81H40.32V26.13H41.07V23.73C41.07 22.86 41.5401 22.4 42.23 22.4C42.92 22.4 43.23 22.74 43.23 23.52V26.13H44V23.6C44 22.41 43.43 21.72 42.43 21.72Z" fill="black"/>
</svg>
