<svg width="48" height="48" viewBox="0 0 48 48" fill="none" xmlns="http://www.w3.org/2000/svg">
<path d="M41.39 16.22H6.61C5.91778 16.22 5.25392 15.945 4.76445 15.4555C4.27498 14.9661 4 14.3022 4 13.61C4 12.9178 4.27498 12.2539 4.76445 11.7645C5.25392 11.275 5.91778 11 6.61 11H41.39C42.0822 11 42.7461 11.275 43.2355 11.7645C43.725 12.2539 44 12.9178 44 13.61C44 14.3022 43.725 14.9661 43.2355 15.4555C42.7461 15.945 42.0822 16.22 41.39 16.22Z" fill="black"/>
<path d="M37 27.05H11C10.3078 27.05 9.64392 26.775 9.15445 26.2855C8.66498 25.7961 8.39 25.1322 8.39 24.44C8.39 23.7478 8.66498 23.0839 9.15445 22.5945C9.64392 22.105 10.3078 21.83 11 21.83H37C37.6922 21.83 38.3561 22.105 38.8456 22.5945C39.335 23.0839 39.61 23.7478 39.61 24.44C39.61 25.1322 39.335 25.7961 38.8456 26.2855C38.3561 26.775 37.6922 27.05 37 27.05Z" fill="black"/>
<path d="M33.78 37.88H14.22C13.5278 37.88 12.8639 37.605 12.3745 37.1155C11.885 36.6261 11.61 35.9622 11.61 35.27C11.61 34.5778 11.885 33.9139 12.3745 33.4245C12.8639 32.935 13.5278 32.66 14.22 32.66H33.78C34.4722 32.66 35.1361 32.935 35.6255 33.4245C36.115 33.9139 36.39 34.5778 36.39 35.27C36.39 35.9622 36.115 36.6261 35.6255 37.1155C35.1361 37.605 34.4722 37.88 33.78 37.88Z" fill="black"/>
</svg>
