<svg width="48" height="48" viewBox="0 0 48 48" fill="none" xmlns="http://www.w3.org/2000/svg">
<path d="M42.4907 13.8524H5.50929C5.31731 13.8687 5.12403 13.8449 4.94171 13.7826C4.75939 13.7203 4.59199 13.6208 4.45011 13.4905C4.30823 13.3601 4.19496 13.2017 4.11749 13.0253C4.04001 12.8489 4 12.6583 4 12.4656C4 12.273 4.04001 12.0824 4.11749 11.906C4.19496 11.7296 4.30823 11.5711 4.45011 11.4408C4.59199 11.3104 4.75939 11.2109 4.94171 11.1486C5.12403 11.0863 5.31731 11.0626 5.50929 11.0788H42.4907C42.6827 11.0626 42.876 11.0863 43.0583 11.1486C43.2406 11.2109 43.408 11.3104 43.5499 11.4408C43.6918 11.5711 43.805 11.7296 43.8825 11.906C43.96 12.0824 44 12.273 44 12.4656C44 12.6583 43.96 12.8489 43.8825 13.0253C43.805 13.2017 43.6918 13.3601 43.5499 13.4905C43.408 13.6208 43.2406 13.7203 43.0583 13.7826C42.876 13.8449 42.6827 13.8687 42.4907 13.8524Z" fill="black"/>
<path d="M37.9177 25.3743H10.132C9.76285 25.3743 9.40885 25.2277 9.14784 24.9667C8.88683 24.7057 8.7402 24.3517 8.7402 23.9825C8.7402 23.6134 8.88683 23.2594 9.14784 22.9984C9.40885 22.7374 9.76285 22.5908 10.132 22.5908H37.9177C38.2869 22.5908 38.6409 22.7374 38.9019 22.9984C39.1629 23.2594 39.3095 23.6134 39.3095 23.9825C39.3095 24.3517 39.1629 24.7057 38.9019 24.9667C38.6409 25.2277 38.2869 25.3743 37.9177 25.3743Z" fill="black"/>
<path d="M34.4085 36.926H13.5915C13.244 36.8966 12.9202 36.7377 12.6842 36.4809C12.4482 36.2241 12.3173 35.888 12.3173 35.5392C12.3173 35.1905 12.4482 34.8544 12.6842 34.5976C12.9202 34.3407 13.244 34.1819 13.5915 34.1524H34.4085C34.756 34.1819 35.0798 34.3407 35.3158 34.5976C35.5518 34.8544 35.6827 35.1905 35.6827 35.5392C35.6827 35.888 35.5518 36.2241 35.3158 36.4809C35.0798 36.7377 34.756 36.8966 34.4085 36.926Z" fill="black"/>
</svg>
