<svg width="48" height="48" viewBox="0 0 48 48" fill="none" xmlns="http://www.w3.org/2000/svg">
<path d="M43.5609 24.0611L40.1173 20.6176C39.8155 20.3136 39.4077 20.1383 38.9794 20.1285H23.6181C22.7606 18.0405 21.2342 16.2963 19.2784 15.1696C17.3225 14.0428 15.048 13.5972 12.8116 13.9028C10.5752 14.2083 8.5035 15.2477 6.9216 16.8578C5.3397 18.4679 4.33711 20.5577 4.07113 22.7991C3.80516 25.0406 4.29086 27.3069 5.45202 29.2425C6.61317 31.1781 8.38408 32.6734 10.4869 33.4939C12.5897 34.3143 14.9053 34.4135 17.0705 33.7757C19.2357 33.138 21.128 31.7994 22.4503 29.9701H25.5146L28.4591 26.9757L30.9943 29.5609C31.1239 29.6937 31.2793 29.7985 31.451 29.8689C31.6227 29.9393 31.807 29.9737 31.9925 29.9701C32.1778 29.9726 32.3618 29.9376 32.5333 29.8673C32.7048 29.797 32.8603 29.6927 32.9906 29.5609L35.5259 27.0156L38.0711 29.5609C38.2012 29.6937 38.3565 29.7992 38.5279 29.8712C38.6993 29.9432 38.8834 29.9803 39.0693 29.9803C39.2552 29.9803 39.4392 29.9432 39.6106 29.8712C39.782 29.7992 39.9373 29.6937 40.0674 29.5609L43.5908 26.0374C43.7218 25.9051 43.8268 25.7494 43.9003 25.5783C43.9677 25.4102 44.0017 25.2305 44.0001 25.0493C43.99 24.6748 43.8321 24.3195 43.5609 24.0611ZM14.2156 31.4074C12.7548 31.4074 11.3267 30.9742 10.1121 30.1626C8.89742 29.351 7.9507 28.1974 7.39166 26.8478C6.83261 25.4981 6.68634 24.013 6.97134 22.5802C7.25634 21.1474 7.95981 19.8313 8.99279 18.7984C10.0258 17.7654 11.3419 17.0619 12.7747 16.7769C14.2074 16.4919 15.6926 16.6382 17.0422 17.1972C18.3919 17.7563 19.5454 18.703 20.3571 19.9176C21.1687 21.1323 21.6019 22.5604 21.6019 24.0212C21.5992 25.9793 20.8202 27.8565 19.4356 29.2411C18.051 30.6258 16.1738 31.4048 14.2156 31.4074ZM24.3567 27.1853H23.8776C24.2187 26.1651 24.3939 25.0969 24.3966 24.0212C24.3932 23.6509 24.3699 23.2811 24.3268 22.9133H38.4704L40.6064 25.0493L39.0493 26.6064L36.5041 24.0611C36.3739 23.9283 36.2187 23.8228 36.0473 23.7508C35.8759 23.6788 35.6918 23.6417 35.5059 23.6417C35.32 23.6417 35.136 23.6788 34.9646 23.7508C34.7932 23.8228 34.6379 23.9283 34.5078 24.0611L31.9925 26.6064L29.4472 24.0611C29.3164 23.9296 29.1609 23.8251 28.9896 23.7539C28.8183 23.6826 28.6346 23.6459 28.4491 23.6459C28.2636 23.6459 28.0799 23.6826 27.9086 23.7539C27.7373 23.8251 27.5817 23.9296 27.4509 24.0611L24.3567 27.1853Z" fill="black"/>
</svg>
