<svg width="48" height="48" viewBox="0 0 48 48" fill="none" xmlns="http://www.w3.org/2000/svg">
<path d="M43.4784 23.7261L40.1013 20.3591C39.907 20.1653 39.6764 20.0117 39.4227 19.9072C39.1689 19.8026 38.8971 19.7491 38.6226 19.7496H23.9355C23.0034 17.6632 21.4114 15.9409 19.4045 14.8481C17.3976 13.7552 15.0871 13.3523 12.8287 13.7015C10.5704 14.0506 8.48942 15.1323 6.90621 16.7802C5.323 18.4281 4.32534 20.5507 4.06684 22.8212C3.80834 25.0917 4.30333 27.3842 5.4756 29.3458C6.64787 31.3074 8.43241 32.8292 10.5545 33.6771C12.6766 34.5249 15.0185 34.6517 17.2197 34.038C19.4209 33.4242 21.3593 32.1039 22.7366 30.2804H25.684L28.3816 27.5828L30.5497 29.7509C30.7185 29.9204 30.9195 30.0546 31.1408 30.1455C31.3621 30.2365 31.5993 30.2823 31.8386 30.2804C32.0763 30.2821 32.312 30.2361 32.5317 30.1452C32.7513 30.0542 32.9505 29.9201 33.1175 29.7509L35.2856 27.5928L37.4537 29.7609C37.6225 29.9304 37.8234 30.0646 38.0447 30.1555C38.2661 30.2464 38.5033 30.2923 38.7425 30.2904C38.9793 30.2895 39.2135 30.2412 39.4314 30.1486C39.6493 30.056 39.8465 29.9207 40.0114 29.7509L43.4684 26.3039C43.8089 25.9613 43.9999 25.498 43.9999 25.015C43.9999 24.532 43.8089 24.0687 43.4684 23.7261H43.4784Z" fill="black"/>
</svg>
