<svg width="48" height="48" viewBox="0 0 48 48" fill="none" xmlns="http://www.w3.org/2000/svg">
<path d="M40.74 36.56H7.26C6.39539 36.56 5.5662 36.2165 4.95483 35.6052C4.34346 34.9938 4 34.1646 4 33.3V14.7C4 13.8354 4.34346 13.0062 4.95483 12.3948C5.5662 11.7835 6.39539 11.44 7.26 11.44H40.74C41.6046 11.44 42.4338 11.7835 43.0452 12.3948C43.6565 13.0062 44 13.8354 44 14.7V33.3C44 34.1646 43.6565 34.9938 43.0452 35.6052C42.4338 36.2165 41.6046 36.56 40.74 36.56ZM7.26 14.23C7.13535 14.23 7.0158 14.2795 6.92766 14.3677C6.83952 14.4558 6.79 14.5754 6.79 14.7V33.3C6.79 33.4247 6.83952 33.5442 6.92766 33.6323C7.0158 33.7205 7.13535 33.77 7.26 33.77H40.74C40.8647 33.77 40.9842 33.7205 41.0723 33.6323C41.1605 33.5442 41.21 33.4247 41.21 33.3V14.7C41.21 14.5754 41.1605 14.4558 41.0723 14.3677C40.9842 14.2795 40.8647 14.23 40.74 14.23H7.26Z" fill="black"/>
<path d="M11.91 16.56H10.05C9.53638 16.56 9.12 16.9764 9.12 17.49V19.35C9.12 19.8636 9.53638 20.28 10.05 20.28H11.91C12.4236 20.28 12.84 19.8636 12.84 19.35V17.49C12.84 16.9764 12.4236 16.56 11.91 16.56Z" fill="black"/>
<path d="M24.93 16.56H23.07C22.5564 16.56 22.14 16.9764 22.14 17.49V19.35C22.14 19.8636 22.5564 20.28 23.07 20.28H24.93C25.4436 20.28 25.86 19.8636 25.86 19.35V17.49C25.86 16.9764 25.4436 16.56 24.93 16.56Z" fill="black"/>
<path d="M31.44 16.56H29.58C29.0664 16.56 28.65 16.9764 28.65 17.49V19.35C28.65 19.8636 29.0664 20.28 29.58 20.28H31.44C31.9536 20.28 32.37 19.8636 32.37 19.35V17.49C32.37 16.9764 31.9536 16.56 31.44 16.56Z" fill="black"/>
<path d="M38.51 16.56H35.53C35.3257 16.56 35.16 16.7257 35.16 16.93V25.49C35.16 25.6943 35.3257 25.86 35.53 25.86H38.51C38.7143 25.86 38.88 25.6943 38.88 25.49V16.93C38.88 16.7257 38.7143 16.56 38.51 16.56Z" fill="black"/>
<path d="M11.91 22.14H10.05C9.53638 22.14 9.12 22.5564 9.12 23.07V24.93C9.12 25.4436 9.53638 25.86 10.05 25.86H11.91C12.4236 25.86 12.84 25.4436 12.84 24.93V23.07C12.84 22.5564 12.4236 22.14 11.91 22.14Z" fill="black"/>
<path d="M24.93 22.14H23.07C22.5564 22.14 22.14 22.5564 22.14 23.07V24.93C22.14 25.4436 22.5564 25.86 23.07 25.86H24.93C25.4436 25.86 25.86 25.4436 25.86 24.93V23.07C25.86 22.5564 25.4436 22.14 24.93 22.14Z" fill="black"/>
<path d="M31.44 22.14H29.58C29.0664 22.14 28.65 22.5564 28.65 23.07V24.93C28.65 25.4436 29.0664 25.86 29.58 25.86H31.44C31.9536 25.86 32.37 25.4436 32.37 24.93V23.07C32.37 22.5564 31.9536 22.14 31.44 22.14Z" fill="black"/>
<path d="M32.01 27.72H9.49C9.28565 27.72 9.12 27.8857 9.12 28.09V31.07C9.12 31.2743 9.28565 31.44 9.49 31.44H32.01C32.2143 31.44 32.38 31.2743 32.38 31.07V28.09C32.38 27.8857 32.2143 27.72 32.01 27.72Z" fill="black"/>
<path d="M18.42 16.56H16.56C16.0464 16.56 15.63 16.9764 15.63 17.49V19.35C15.63 19.8636 16.0464 20.28 16.56 20.28H18.42C18.9336 20.28 19.35 19.8636 19.35 19.35V17.49C19.35 16.9764 18.9336 16.56 18.42 16.56Z" fill="black"/>
<path d="M18.42 22.14H16.56C16.0464 22.14 15.63 22.5564 15.63 23.07V24.93C15.63 25.4436 16.0464 25.86 16.56 25.86H18.42C18.9336 25.86 19.35 25.4436 19.35 24.93V23.07C19.35 22.5564 18.9336 22.14 18.42 22.14Z" fill="black"/>
<path d="M37.95 27.72H36.09C35.5764 27.72 35.16 28.1364 35.16 28.65V30.51C35.16 31.0236 35.5764 31.44 36.09 31.44H37.95C38.4636 31.44 38.88 31.0236 38.88 30.51V28.65C38.88 28.1364 38.4636 27.72 37.95 27.72Z" fill="black"/>
</svg>
