<svg width="48" height="48" viewBox="0 0 48 48" fill="none" xmlns="http://www.w3.org/2000/svg">
<path d="M24 24.74C23.3078 24.74 22.6439 24.465 22.1545 23.9755C21.665 23.4861 21.39 22.8222 21.39 22.13V15.61C21.39 14.9178 21.665 14.2539 22.1545 13.7645C22.6439 13.275 23.3078 13 24 13C24.6922 13 25.3561 13.275 25.8455 13.7645C26.335 14.2539 26.61 14.9178 26.61 15.61V22.13C26.61 22.4727 26.5425 22.8121 26.4113 23.1288C26.2802 23.4455 26.0879 23.7332 25.8455 23.9755C25.6032 24.2179 25.3155 24.4102 24.9988 24.5413C24.6821 24.6725 24.3428 24.74 24 24.74Z" fill="black"/>
<path d="M16.31 27.92C15.9684 27.9204 15.6301 27.8535 15.3144 27.7231C14.9987 27.5927 14.7117 27.4013 14.47 27.16L9.86 22.55C9.39021 22.0567 9.13189 21.3993 9.14019 20.7182C9.1485 20.037 9.42277 19.3861 9.90445 18.9045C10.3861 18.4228 11.037 18.1485 11.7182 18.1402C12.3993 18.1319 13.0567 18.3902 13.55 18.86L18.16 23.47C18.5234 23.8356 18.7704 24.3006 18.8699 24.8063C18.9693 25.3121 18.9168 25.836 18.719 26.3119C18.5211 26.7879 18.1867 27.1946 17.758 27.4808C17.3293 27.767 16.8254 27.9198 16.31 27.92Z" fill="black"/>
<path d="M41.39 35.61H34.87C34.1778 35.61 33.5139 35.335 33.0245 34.8455C32.535 34.3561 32.26 33.6922 32.26 33C32.26 32.3078 32.535 31.6439 33.0245 31.1545C33.5139 30.665 34.1778 30.39 34.87 30.39H41.39C42.0822 30.39 42.7461 30.665 43.2355 31.1545C43.725 31.6439 44 32.3078 44 33C44 33.6922 43.725 34.3561 43.2355 34.8455C42.7461 35.335 42.0822 35.61 41.39 35.61Z" fill="black"/>
<path d="M28.51 35.61H19.51C18.8178 35.61 18.1539 35.335 17.6645 34.8455C17.175 34.3561 16.9 33.6922 16.9 33C16.9 32.3078 17.175 31.6439 17.6645 31.1545C18.1539 30.665 18.8178 30.39 19.51 30.39H28.51C29.2022 30.39 29.8661 30.665 30.3555 31.1545C30.845 31.6439 31.12 32.3078 31.12 33C31.12 33.6922 30.845 34.3561 30.3555 34.8455C29.8661 35.335 29.2022 35.61 28.51 35.61Z" fill="black"/>
<path d="M13.13 35.61H6.61C5.91778 35.61 5.25392 35.335 4.76445 34.8455C4.27498 34.3561 4 33.6922 4 33C4 32.3078 4.27498 31.6439 4.76445 31.1545C5.25392 30.665 5.91778 30.39 6.61 30.39H13.13C13.8222 30.39 14.4861 30.665 14.9755 31.1545C15.465 31.6439 15.74 32.3078 15.74 33C15.74 33.6922 15.465 34.3561 14.9755 34.8455C14.4861 35.335 13.8222 35.61 13.13 35.61Z" fill="black"/>
<path d="M31.69 27.92C31.1746 27.9198 30.6707 27.767 30.242 27.4808C29.8133 27.1946 29.4789 26.7879 29.281 26.3119C29.0832 25.836 29.0307 25.3121 29.1301 24.8063C29.2296 24.3006 29.4766 23.8356 29.84 23.47L34.45 18.86C34.6901 18.6079 34.9781 18.4064 35.2973 18.2673C35.6164 18.1283 35.9601 18.0544 36.3082 18.0502C36.6563 18.0459 37.0017 18.1114 37.3241 18.2426C37.6465 18.3739 37.9394 18.5683 38.1855 18.8145C38.4317 19.0606 38.6261 19.3535 38.7574 19.6759C38.8886 19.9983 38.9541 20.3437 38.9498 20.6918C38.9456 21.0399 38.8717 21.3836 38.7327 21.7027C38.5936 22.0219 38.3921 22.3099 38.14 22.55L33.53 27.16C33.2883 27.4013 33.0013 27.5927 32.6856 27.7231C32.3699 27.8535 32.0316 27.9204 31.69 27.92Z" fill="black"/>
</svg>
