<svg width="48" height="48" viewBox="0 0 48 48" fill="none" xmlns="http://www.w3.org/2000/svg">
<path d="M24.0163 23.08C23.654 23.067 23.3109 22.9138 23.0593 22.6526C22.8076 22.3915 22.6671 22.0428 22.6674 21.68V19.3C22.651 19.1068 22.6749 18.9124 22.7375 18.729C22.8002 18.5456 22.9001 18.3772 23.0312 18.2345C23.1622 18.0918 23.3214 17.9779 23.4988 17.8999C23.6761 17.822 23.8676 17.7817 24.0613 17.7817C24.255 17.7817 24.4465 17.822 24.6239 17.8999C24.8012 17.9779 24.9604 18.0918 25.0914 18.2345C25.2225 18.3772 25.3225 18.5456 25.3851 18.729C25.4477 18.9124 25.4716 19.1068 25.4553 19.3V21.68C25.4567 21.8676 25.4202 22.0536 25.3479 22.2268C25.2756 22.3999 25.169 22.5567 25.0346 22.6875C24.9001 22.8183 24.7406 22.9205 24.5656 22.988C24.3906 23.0554 24.2037 23.0867 24.0163 23.08Z" fill="black"/>
<path d="M15.8025 26.49C15.6171 26.4913 15.4333 26.4557 15.2617 26.3853C15.0902 26.315 14.9344 26.2111 14.8033 26.08L13.1245 24.39C12.8595 24.1247 12.7106 23.765 12.7106 23.39C12.7106 23.0149 12.8595 22.6552 13.1245 22.39C13.3895 22.1247 13.749 21.9757 14.1238 21.9757C14.4986 21.9757 14.858 22.1247 15.123 22.39L16.7818 24.1C16.9781 24.2963 17.1115 24.5467 17.1652 24.8193C17.2189 25.0918 17.1903 25.3741 17.0832 25.6304C16.9761 25.8866 16.7952 26.1052 16.5636 26.2582C16.3319 26.4113 16.0601 26.492 15.7825 26.49H15.8025Z" fill="black"/>
<path d="M38.0258 34.71H35.6576C35.2853 34.71 34.9282 34.5619 34.6649 34.2984C34.4016 34.035 34.2537 33.6776 34.2537 33.305C34.2537 32.9323 34.4016 32.575 34.6649 32.3115C34.9282 32.048 35.2853 31.9 35.6576 31.9H38.0458C38.3951 31.9296 38.7206 32.0894 38.9578 32.3477C39.195 32.6061 39.3266 32.9441 39.3266 33.295C39.3266 33.6458 39.195 33.9838 38.9578 34.2422C38.7206 34.5005 38.3951 34.6603 38.0458 34.69L38.0258 34.71Z" fill="black"/>
<path d="M28.8327 34.71H19.2C19.007 34.7263 18.8127 34.7024 18.6294 34.6397C18.4462 34.5771 18.2779 34.477 18.1353 34.3459C17.9927 34.2147 17.8788 34.0554 17.801 33.8779C17.7231 33.7005 17.6829 33.5088 17.6829 33.315C17.6829 33.1211 17.7231 32.9294 17.801 32.752C17.8788 32.5745 17.9927 32.4152 18.1353 32.2841C18.2779 32.1529 18.4462 32.0528 18.6294 31.9902C18.8127 31.9275 19.007 31.9036 19.2 31.92H28.8327C29.0257 31.9036 29.22 31.9275 29.4032 31.9902C29.5865 32.0528 29.7548 32.1529 29.8974 32.2841C30.04 32.4152 30.1538 32.5745 30.2317 32.752C30.3096 32.9294 30.3498 33.1211 30.3498 33.315C30.3498 33.5088 30.3096 33.7005 30.2317 33.8779C30.1538 34.0554 30.04 34.2147 29.8974 34.3459C29.7548 34.477 29.5865 34.5771 29.4032 34.6397C29.22 34.7024 29.0257 34.7263 28.8327 34.71Z" fill="black"/>
<path d="M12.3951 34.71H10.0768C9.70445 34.71 9.34735 34.5619 9.08406 34.2984C8.82077 34.035 8.67285 33.6776 8.67285 33.305C8.67285 32.9323 8.82077 32.575 9.08406 32.3115C9.34735 32.048 9.70445 31.9 10.0768 31.9H12.3951C12.588 31.8836 12.7823 31.9075 12.9656 31.9702C13.1488 32.0328 13.3171 32.1329 13.4597 32.2641C13.6023 32.3952 13.7162 32.5545 13.794 32.732C13.8719 32.9094 13.9121 33.1011 13.9121 33.295C13.9121 33.4888 13.8719 33.6805 13.794 33.8579C13.7162 34.0354 13.6023 34.1947 13.4597 34.3259C13.3171 34.457 13.1488 34.5571 12.9656 34.6197C12.7823 34.6824 12.588 34.7063 12.3951 34.69V34.71Z" fill="black"/>
<path d="M32.2302 26.49C31.9526 26.492 31.6808 26.4113 31.4491 26.2582C31.2175 26.1052 31.0366 25.8866 30.9295 25.6304C30.8224 25.3741 30.7938 25.0918 30.8475 24.8193C30.9012 24.5467 31.0346 24.2963 31.2309 24.1L32.9197 22.41C33.0509 22.2786 33.2067 22.1745 33.3781 22.1034C33.5496 22.0323 33.7333 21.9957 33.9189 21.9957C34.1045 21.9957 34.2883 22.0323 34.4597 22.1034C34.6312 22.1745 34.7869 22.2786 34.9182 22.41C35.0494 22.5413 35.1535 22.6972 35.2245 22.8688C35.2955 23.0403 35.3321 23.2242 35.3321 23.41C35.3321 23.5957 35.2955 23.7796 35.2245 23.9512C35.1535 24.1227 35.0494 24.2786 34.9182 24.41L33.2194 26.08C33.0895 26.21 32.9353 26.3131 32.7656 26.3834C32.5958 26.4538 32.4139 26.49 32.2302 26.49Z" fill="black"/>
</svg>
