<svg width="48" height="48" viewBox="0 0 48 48" fill="none" xmlns="http://www.w3.org/2000/svg">
<path d="M40.36 11H7.64C6.67461 11 5.74876 11.3835 5.06613 12.0661C4.3835 12.7488 4 13.6746 4 14.64L4 32.82C4.00265 33.7837 4.38731 34.7069 5.06966 35.3874C5.75201 36.0679 6.67634 36.45 7.64 36.45H40.36C41.3237 36.45 42.248 36.0679 42.9303 35.3874C43.6127 34.7069 43.9974 33.7837 44 32.82V14.64C44 13.6746 43.6165 12.7488 42.9339 12.0661C42.2512 11.3835 41.3254 11 40.36 11V11ZM22.18 17.36C22.18 17.1187 22.2759 16.8872 22.4465 16.7165C22.6172 16.5459 22.8487 16.45 23.09 16.45H24.91C25.1513 16.45 25.3828 16.5459 25.5535 16.7165C25.7241 16.8872 25.82 17.1187 25.82 17.36V19.18C25.82 19.4213 25.7241 19.6528 25.5535 19.8235C25.3828 19.9941 25.1513 20.09 24.91 20.09H23.09C22.8487 20.09 22.6172 19.9941 22.4465 19.8235C22.2759 19.6528 22.18 19.4213 22.18 19.18V17.36ZM22.18 22.82C22.18 22.5787 22.2759 22.3472 22.4465 22.1765C22.6172 22.0059 22.8487 21.91 23.09 21.91H24.91C25.1513 21.91 25.3828 22.0059 25.5535 22.1765C25.7241 22.3472 25.82 22.5787 25.82 22.82V24.64C25.82 24.8813 25.7241 25.1128 25.5535 25.2835C25.3828 25.4541 25.1513 25.55 24.91 25.55H23.09C22.8487 25.55 22.6172 25.4541 22.4465 25.2835C22.2759 25.1128 22.18 24.8813 22.18 24.64V22.82ZM15.82 17.36C15.82 17.1187 15.9159 16.8872 16.0865 16.7165C16.2572 16.5459 16.4887 16.45 16.73 16.45H18.55C18.669 16.45 18.7869 16.4736 18.8967 16.5195C19.0066 16.5653 19.1063 16.6325 19.19 16.7171C19.2737 16.8018 19.3397 16.9022 19.3844 17.0125C19.429 17.1229 19.4513 17.241 19.45 17.36V19.18C19.4513 19.299 19.429 19.4171 19.3844 19.5275C19.3397 19.6378 19.2737 19.7382 19.19 19.8229C19.1063 19.9075 19.0066 19.9747 18.8967 20.0205C18.7869 20.0664 18.669 20.09 18.55 20.09H16.73C16.4887 20.09 16.2572 19.9941 16.0865 19.8235C15.9159 19.6528 15.82 19.4213 15.82 19.18V17.36ZM15.82 22.82C15.82 22.5787 15.9159 22.3472 16.0865 22.1765C16.2572 22.0059 16.4887 21.91 16.73 21.91H18.55C18.669 21.91 18.7869 21.9336 18.8967 21.9795C19.0066 22.0253 19.1063 22.0925 19.19 22.1771C19.2737 22.2618 19.3397 22.3622 19.3844 22.4725C19.429 22.5829 19.4513 22.701 19.45 22.82V24.64C19.4513 24.759 19.429 24.8771 19.3844 24.9875C19.3397 25.0978 19.2737 25.1982 19.19 25.2829C19.1063 25.3675 19.0066 25.4347 18.8967 25.4805C18.7869 25.5264 18.669 25.55 18.55 25.55H16.73C16.4887 25.55 16.2572 25.4541 16.0865 25.2835C15.9159 25.1128 15.82 24.8813 15.82 24.64V22.82ZM9.45 17.36C9.45 17.1187 9.54587 16.8872 9.71653 16.7165C9.88719 16.5459 10.1187 16.45 10.36 16.45H12.18C12.4213 16.45 12.6528 16.5459 12.8235 16.7165C12.9941 16.8872 13.09 17.1187 13.09 17.36V19.18C13.09 19.4213 12.9941 19.6528 12.8235 19.8235C12.6528 19.9941 12.4213 20.09 12.18 20.09H10.36C10.1187 20.09 9.88719 19.9941 9.71653 19.8235C9.54587 19.6528 9.45 19.4213 9.45 19.18V17.36ZM9.45 22.82C9.45 22.5787 9.54587 22.3472 9.71653 22.1765C9.88719 22.0059 10.1187 21.91 10.36 21.91H12.18C12.4213 21.91 12.6528 22.0059 12.8235 22.1765C12.9941 22.3472 13.09 22.5787 13.09 22.82V24.64C13.09 24.8813 12.9941 25.1128 12.8235 25.2835C12.6528 25.4541 12.4213 25.55 12.18 25.55H10.36C10.1187 25.55 9.88719 25.4541 9.71653 25.2835C9.54587 25.1128 9.45 24.8813 9.45 24.64V22.82ZM32.18 30.64C32.18 30.7355 32.1421 30.827 32.0746 30.8946C32.007 30.9621 31.9155 31 31.82 31H9.82C9.72358 31 9.63095 30.9624 9.56184 30.8952C9.49274 30.8279 9.45261 30.7364 9.45 30.64V27.73C9.45253 27.6327 9.49232 27.54 9.56117 27.4712C9.63002 27.4023 9.72267 27.3625 9.82 27.36H31.82C31.9164 27.3626 32.0079 27.4027 32.0752 27.4718C32.1424 27.541 32.18 27.6336 32.18 27.73V30.64ZM32.18 24.64C32.18 24.8813 32.0841 25.1128 31.9135 25.2835C31.7428 25.4541 31.5113 25.55 31.27 25.55H29.45C29.331 25.55 29.2131 25.5264 29.1033 25.4805C28.9934 25.4347 28.8937 25.3675 28.81 25.2829C28.7263 25.1982 28.6603 25.0978 28.6156 24.9875C28.571 24.8771 28.5487 24.759 28.55 24.64V22.82C28.5487 22.701 28.571 22.5829 28.6156 22.4725C28.6603 22.3622 28.7263 22.2618 28.81 22.1771C28.8937 22.0925 28.9934 22.0253 29.1033 21.9795C29.2131 21.9336 29.331 21.91 29.45 21.91H31.27C31.5113 21.91 31.7428 22.0059 31.9135 22.1765C32.0841 22.3472 32.18 22.5787 32.18 22.82V24.64ZM32.18 19.18C32.18 19.4213 32.0841 19.6528 31.9135 19.8235C31.7428 19.9941 31.5113 20.09 31.27 20.09H29.45C29.331 20.09 29.2131 20.0664 29.1033 20.0205C28.9934 19.9747 28.8937 19.9075 28.81 19.8229C28.7263 19.7382 28.6603 19.6378 28.6156 19.5275C28.571 19.4171 28.5487 19.299 28.55 19.18V17.36C28.5487 17.241 28.571 17.1229 28.6156 17.0125C28.6603 16.9022 28.7263 16.8018 28.81 16.7171C28.8937 16.6325 28.9934 16.5653 29.1033 16.5195C29.2131 16.4736 29.331 16.45 29.45 16.45H31.27C31.5113 16.45 31.7428 16.5459 31.9135 16.7165C32.0841 16.8872 32.18 17.1187 32.18 17.36V19.18ZM38.55 30.09C38.55 30.3313 38.4541 30.5628 38.2835 30.7335C38.1128 30.9041 37.8813 31 37.64 31H35.82C35.5787 31 35.3472 30.9041 35.1765 30.7335C35.0059 30.5628 34.91 30.3313 34.91 30.09V28.27C34.91 28.0287 35.0059 27.7972 35.1765 27.6265C35.3472 27.4559 35.5787 27.36 35.82 27.36H37.64C37.8813 27.36 38.1128 27.4559 38.2835 27.6265C38.4541 27.7972 38.55 28.0287 38.55 28.27V30.09ZM38.55 25.18C38.5475 25.2773 38.5077 25.37 38.4388 25.4388C38.37 25.5077 38.2773 25.5475 38.18 25.55H35.27C35.1736 25.5474 35.0821 25.5073 35.0148 25.4382C34.9476 25.369 34.91 25.2764 34.91 25.18V16.82C34.91 16.7236 34.9476 16.631 35.0148 16.5618C35.0821 16.4927 35.1736 16.4526 35.27 16.45H38.18C38.2773 16.4525 38.37 16.4923 38.4388 16.5612C38.5077 16.63 38.5475 16.7227 38.55 16.82V25.18Z" fill="black"/>
</svg>
