<svg width="48" height="48" viewBox="0 0 48 48" fill="none" xmlns="http://www.w3.org/2000/svg">
<path d="M24.015 23.085C23.644 23.085 23.2881 22.9375 23.0258 22.675C22.7634 22.4124 22.616 22.0563 22.616 21.685V14.685C22.616 14.3137 22.7634 13.9576 23.0258 13.6951C23.2881 13.4325 23.644 13.285 24.015 13.285C24.386 13.285 24.7418 13.4325 25.0042 13.6951C25.2665 13.9576 25.4139 14.3137 25.4139 14.685V21.685C25.4139 21.8689 25.3778 22.0509 25.3074 22.2208C25.2371 22.3906 25.1341 22.545 25.0042 22.675C24.8743 22.805 24.7201 22.9081 24.5503 22.9785C24.3806 23.0488 24.1987 23.085 24.015 23.085Z" fill="black"/>
<path d="M15.8011 26.485C15.6154 26.4887 15.4309 26.4542 15.2591 26.3836C15.0872 26.3131 14.9316 26.2081 14.8019 26.075L9.88559 21.145C9.62057 20.8798 9.47168 20.5201 9.47168 20.145C9.47168 19.77 9.62057 19.4103 9.88559 19.145C10.1506 18.8798 10.51 18.7308 10.8848 18.7308C11.2596 18.7308 11.6191 18.8798 11.8841 19.145L16.8104 24.075C16.9458 24.2039 17.0537 24.3591 17.1274 24.531C17.2011 24.7029 17.2391 24.888 17.2391 25.075C17.2391 25.2621 17.2011 25.4472 17.1274 25.6191C17.0537 25.791 16.9458 25.9461 16.8104 26.075C16.6799 26.2098 16.5227 26.3159 16.349 26.3865C16.1752 26.4571 15.9886 26.4907 15.8011 26.485Z" fill="black"/>
<path d="M42.601 34.715H35.6063C35.2353 34.715 34.8794 34.5675 34.6171 34.305C34.3547 34.0424 34.2073 33.6863 34.2073 33.315C34.2073 32.9437 34.3547 32.5876 34.6171 32.3251C34.8794 32.0625 35.2353 31.915 35.6063 31.915H42.601C42.9721 31.915 43.3279 32.0625 43.5903 32.3251C43.8526 32.5876 44 32.9437 44 33.315C44 33.6863 43.8526 34.0424 43.5903 34.305C43.3279 34.5675 42.9721 34.715 42.601 34.715Z" fill="black"/>
<path d="M28.8314 34.715H19.1986C18.8276 34.715 18.4717 34.5675 18.2094 34.305C17.947 34.0424 17.7996 33.6863 17.7996 33.315C17.7996 32.9437 17.947 32.5876 18.2094 32.3251C18.4717 32.0625 18.8276 31.915 19.1986 31.915H28.8314C29.2024 31.915 29.5582 32.0625 29.8206 32.3251C30.0829 32.5876 30.2303 32.9437 30.2303 33.315C30.2303 33.6863 30.0829 34.0424 29.8206 34.305C29.5582 34.5675 29.2024 34.715 28.8314 34.715Z" fill="black"/>
<path d="M12.3937 34.715H5.39895C5.02793 34.715 4.6721 34.5675 4.40974 34.305C4.14739 34.0424 4 33.6863 4 33.315C4 32.9437 4.14739 32.5876 4.40974 32.3251C4.6721 32.0625 5.02793 31.915 5.39895 31.915H12.3937C12.7647 31.915 13.1206 32.0625 13.3829 32.3251C13.6453 32.5876 13.7927 32.9437 13.7927 33.315C13.7927 33.6863 13.6453 34.0424 13.3829 34.305C13.1206 34.5675 12.7647 34.715 12.3937 34.715Z" fill="black"/>
<path d="M32.2288 26.485C32.043 26.4893 31.8584 26.455 31.6864 26.3845C31.5145 26.3139 31.3589 26.2086 31.2296 26.075C31.0941 25.9461 30.9863 25.791 30.9126 25.6191C30.8389 25.4472 30.8009 25.2621 30.8009 25.075C30.8009 24.888 30.8389 24.7029 30.9126 24.531C30.9863 24.3591 31.0941 24.2039 31.2296 24.075L36.1559 19.145C36.4209 18.8798 36.7803 18.7308 37.1551 18.7308C37.5299 18.7308 37.8894 18.8798 38.1544 19.145C38.4194 19.4103 38.5683 19.77 38.5683 20.145C38.5683 20.5201 38.4194 20.8798 38.1544 21.145L33.2281 26.075C33.0984 26.2081 32.9428 26.3131 32.7709 26.3836C32.599 26.4542 32.4145 26.4887 32.2288 26.485Z" fill="black"/>
</svg>
