<svg width="48" height="48" viewBox="0 0 48 48" fill="none" xmlns="http://www.w3.org/2000/svg">
<path d="M23.65 22.45C23.3039 22.4553 22.9602 22.3917 22.6389 22.2629C22.3176 22.1341 22.0252 21.9427 21.7785 21.6998C21.5319 21.4569 21.3361 21.1674 21.2024 20.8481C21.0688 20.5288 21 20.1861 21 19.84V17.61C21 16.9178 21.275 16.2539 21.7645 15.7645C22.2539 15.275 22.9178 15 23.61 15C24.3022 15 24.9661 15.275 25.4555 15.7645C25.945 16.2539 26.22 16.9178 26.22 17.61V19.84C26.2201 20.5253 25.9506 21.1832 25.4697 21.6715C24.9889 22.1599 24.3353 22.4395 23.65 22.45Z" fill="black"/>
<path d="M16 25.63C15.6567 25.6317 15.3165 25.5654 14.999 25.435C14.6815 25.3046 14.3929 25.1125 14.15 24.87L12.54 23.29C12.0702 22.7967 11.8119 22.1393 11.8202 21.4582C11.8285 20.777 12.1028 20.1261 12.5845 19.6445C13.0661 19.1628 13.717 18.8885 14.3982 18.8802C15.0793 18.8719 15.7367 19.1302 16.23 19.6L17.81 21.18C18.1711 21.5431 18.4174 22.0045 18.5182 22.5066C18.619 23.0087 18.5698 23.5293 18.3769 24.0037C18.184 24.4781 17.8557 24.8852 17.4331 25.1744C17.0104 25.4635 16.512 25.622 16 25.63Z" fill="black"/>
<path d="M36.76 33.32H34.52C33.8278 33.32 33.1639 33.045 32.6745 32.5555C32.185 32.0661 31.91 31.4022 31.91 30.71C31.91 30.0178 32.185 29.3539 32.6745 28.8645C33.1639 28.375 33.8278 28.1 34.52 28.1H36.76C37.4522 28.1 38.1161 28.375 38.6055 28.8645C39.095 29.3539 39.37 30.0178 39.37 30.71C39.37 31.4022 39.095 32.0661 38.6055 32.5555C38.1161 33.045 37.4522 33.32 36.76 33.32Z" fill="black"/>
<path d="M28.16 33.32H19.16C18.4678 33.32 17.8039 33.045 17.3145 32.5555C16.825 32.0661 16.55 31.4022 16.55 30.71C16.55 30.0178 16.825 29.3539 17.3145 28.8645C17.8039 28.375 18.4678 28.1 19.16 28.1H28.16C28.8522 28.1 29.5161 28.375 30.0055 28.8645C30.495 29.3539 30.77 30.0178 30.77 30.71C30.77 31.4022 30.495 32.0661 30.0055 32.5555C29.5161 33.045 28.8522 33.32 28.16 33.32Z" fill="black"/>
<path d="M12.78 33.32H10.61C9.91778 33.32 9.25392 33.045 8.76445 32.5555C8.27498 32.0661 8 31.4022 8 30.71C8 30.0178 8.27498 29.3539 8.76445 28.8645C9.25392 28.375 9.91778 28.1 10.61 28.1H12.78C13.4722 28.1 14.1361 28.375 14.6255 28.8645C15.115 29.3539 15.39 30.0178 15.39 30.71C15.39 31.4022 15.115 32.0661 14.6255 32.5555C14.1361 33.045 13.4722 33.32 12.78 33.32Z" fill="black"/>
<path d="M31.34 25.63C30.8246 25.6298 30.3207 25.477 29.892 25.1908C29.4633 24.9046 29.1289 24.4979 28.931 24.0219C28.7332 23.546 28.6807 23.0221 28.7801 22.5163C28.8796 22.0106 29.1266 21.5456 29.49 21.18L31.07 19.6C31.5633 19.1302 32.2207 18.8719 32.9018 18.8802C33.583 18.8885 34.2339 19.1628 34.7155 19.6445C35.1972 20.1261 35.4715 20.777 35.4798 21.4582C35.4881 22.1393 35.2298 22.7967 34.76 23.29L33.18 24.87C32.9389 25.1122 32.6521 25.3042 32.3363 25.4346C32.0204 25.5651 31.6817 25.6315 31.34 25.63Z" fill="black"/>
</svg>
