<svg width="48" height="48" viewBox="0 0 48 48" fill="none" xmlns="http://www.w3.org/2000/svg">
<path d="M43.0751 27.4516L27.114 34.6641C26.1055 35.124 25.0101 35.362 23.9018 35.362C22.7934 35.362 21.698 35.124 20.6896 34.6641L4.82821 27.4516C4.62568 27.3599 4.432 27.2497 4.24962 27.1224C4.09306 27.4322 4.00784 27.773 4.00023 28.12C3.99768 28.58 4.1294 29.0308 4.37925 29.4171C4.62909 29.8034 4.9862 30.1084 5.40681 30.2947L21.368 37.5072C22.1954 37.8818 23.0932 38.0757 24.0015 38.0757C24.9098 38.0757 25.8077 37.8818 26.6351 37.5072L42.5963 30.2947C42.9951 30.0954 43.3295 29.7872 43.5607 29.406C43.7919 29.0247 43.9106 28.5858 43.9031 28.14C43.8955 27.793 43.8103 27.4521 43.6537 27.1424C43.4706 27.2627 43.2769 27.3662 43.0751 27.4516Z" fill="black"/>
<path d="M43.0751 23.3317L27.114 30.5441C26.1038 30.9977 25.0091 31.2323 23.9018 31.2323C22.7945 31.2323 21.6997 30.9977 20.6896 30.5441L4.82821 23.3317C4.62541 23.2365 4.43173 23.123 4.24962 22.9925C4.09306 23.3022 4.00784 23.6431 4.00023 23.9901C3.99377 24.4535 4.12365 24.9086 4.37373 25.2988C4.62381 25.689 4.98305 25.997 5.40681 26.1847L21.368 33.3972C22.1954 33.7718 23.0932 33.9657 24.0015 33.9657C24.9098 33.9657 25.8077 33.7718 26.6351 33.3972L42.5963 26.1847C42.9982 25.9839 43.3347 25.6727 43.5661 25.2875C43.7976 24.9024 43.9144 24.4592 43.9031 24.01C43.8955 23.6631 43.8103 23.3222 43.6537 23.0125C43.4708 23.136 43.2772 23.2429 43.0751 23.3317Z" fill="black"/>
<path d="M23.9517 29.8757C23.0433 29.8757 22.1455 29.6818 21.3181 29.3071L5.40681 22.0648C4.98825 21.8746 4.6333 21.5679 4.38438 21.1814C4.13546 20.7948 4.00309 20.3448 4.00309 19.8851C4.00309 19.4253 4.13546 18.9753 4.38438 18.5888C4.6333 18.2022 4.98825 17.8956 5.40681 17.7054L21.368 10.4929C22.1954 10.1182 23.0932 9.92444 24.0015 9.92444C24.9098 9.92444 25.8077 10.1182 26.6351 10.4929L42.5963 17.7054C43.0148 17.8956 43.3698 18.2022 43.6187 18.5888C43.8676 18.9753 44 19.4253 44 19.8851C44 20.3448 43.8676 20.7948 43.6187 21.1814C43.3698 21.5679 43.0148 21.8746 42.5963 22.0648L26.6351 29.2772C25.7947 29.6692 24.879 29.8735 23.9517 29.8757ZM7.3421 19.9L22.4653 26.7533C22.9335 26.9731 23.4444 27.0871 23.9616 27.0871C24.4789 27.0871 24.9898 26.9731 25.458 26.7533L40.5612 19.9L25.438 13.0268C24.9685 12.8116 24.4582 12.7002 23.9417 12.7002C23.4252 12.7002 22.9148 12.8116 22.4453 13.0268L7.3421 19.9Z" fill="black"/>
</svg>
