<svg width="48" height="48" viewBox="0 0 48 48" fill="none" xmlns="http://www.w3.org/2000/svg">
<path d="M43.0546 27.0236L27.1517 34.2721C26.1438 34.7317 25.049 34.9696 23.9412 34.9696C22.8335 34.9696 21.7386 34.7317 20.7308 34.2721L4.8279 27.0236C4.62547 26.9318 4.4319 26.8217 4.24962 26.6945C4.09313 27.0041 4.00796 27.3448 4.00036 27.6916C3.9939 28.1547 4.12371 28.6096 4.37366 28.9996C4.62361 29.3896 4.98266 29.6975 5.40619 29.8851L21.3589 37.0937C22.1859 37.4682 23.0833 37.6619 23.9911 37.6619C24.8989 37.6619 25.7963 37.4682 26.6233 37.0937L42.576 29.8851C42.9778 29.6843 43.314 29.3733 43.5453 28.9883C43.7766 28.6034 43.8935 28.1605 43.8821 27.7115C43.8745 27.3647 43.7893 27.024 43.6329 26.7145C43.4498 26.8347 43.2563 26.9382 43.0546 27.0236Z" fill="black"/>
<path d="M23.9412 33.5342C23.0334 33.5342 22.136 33.3405 21.309 32.9659L5.40619 25.7573C4.98727 25.569 4.63167 25.2637 4.3822 24.8781C4.13272 24.4925 4 24.043 4 23.5837C4 23.1245 4.13272 22.675 4.3822 22.2894C4.63167 21.9037 4.98727 21.5984 5.40619 21.4102L21.3589 14.2016C22.1859 13.8271 23.0833 13.6334 23.9911 13.6334C24.8989 13.6334 25.7963 13.8271 26.6233 14.2016L42.576 21.4102C42.9949 21.5984 43.3505 21.9037 43.6 22.2894C43.8495 22.675 43.9822 23.1245 43.9822 23.5837C43.9822 24.043 43.8495 24.4925 43.6 24.8781C43.3505 25.2637 42.9949 25.569 42.576 25.7573L26.6233 32.9659C25.781 33.3475 24.8659 33.5414 23.9412 33.5342ZM7.34045 23.5638L22.4556 30.4135C22.9249 30.6286 23.435 30.7399 23.9512 30.7399C24.4674 30.7399 24.9775 30.6286 25.4468 30.4135L40.562 23.5638L25.4268 16.7341C24.9576 16.519 24.4475 16.4076 23.9313 16.4076C23.4151 16.4076 22.905 16.519 22.4357 16.7341L7.34045 23.5638Z" fill="black"/>
<path d="M42.4863 13.1248H35.0683C34.7197 13.0952 34.395 12.9359 34.1583 12.6783C33.9216 12.4207 33.7903 12.0837 33.7903 11.7339C33.7903 11.3841 33.9216 11.047 34.1583 10.7894C34.395 10.5319 34.7197 10.3725 35.0683 10.343H42.4863C42.6788 10.3267 42.8727 10.3505 43.0555 10.413C43.2384 10.4755 43.4063 10.5753 43.5486 10.706C43.6909 10.8368 43.8045 10.9956 43.8822 11.1726C43.9599 11.3495 44 11.5406 44 11.7339C44 11.9271 43.9599 12.1183 43.8822 12.2952C43.8045 12.4721 43.6909 12.631 43.5486 12.7617C43.4063 12.8925 43.2384 12.9922 43.0555 13.0547C42.8727 13.1172 42.6788 13.1411 42.4863 13.1248Z" fill="black"/>
</svg>
