<svg width="48" height="48" viewBox="0 0 48 48" fill="none" xmlns="http://www.w3.org/2000/svg">
<path d="M42.0861 29.9924L26.9206 36.8686C25.8429 37.354 24.6744 37.6049 23.4924 37.6049C22.3105 37.6049 21.142 37.354 20.0643 36.8686L4.89881 29.9924C4.59178 29.8529 4.30139 29.6793 4.03307 29.475C4.02324 29.5942 4.02324 29.714 4.03307 29.8332C4.03436 30.3538 4.18633 30.863 4.47062 31.2991C4.75492 31.7353 5.15938 32.0798 5.6352 32.2911L20.8007 39.1674C21.6454 39.5539 22.5635 39.7541 23.4924 39.7541C24.4214 39.7541 25.3395 39.5539 26.1842 39.1674L41.3497 32.2911C41.8286 32.0784 42.2352 31.7308 42.5197 31.2908C42.8042 30.8507 42.9544 30.3373 42.9518 29.8133C42.9617 29.6941 42.9617 29.5743 42.9518 29.4551C42.6861 29.6687 42.3954 29.8491 42.0861 29.9924Z" fill="black"/>
<path d="M41.3497 23.4247L26.1842 16.5485C25.3386 16.1651 24.4209 15.9667 23.4924 15.9667C22.564 15.9667 21.6463 16.1651 20.8007 16.5485L5.62525 23.4247C5.14199 23.6367 4.73094 23.9849 4.44232 24.4267C4.1537 24.8685 4 25.3848 4 25.9125C4 26.4402 4.1537 26.9565 4.44232 27.3983C4.73094 27.8401 5.14199 28.1883 5.62525 28.4003L20.8007 35.2765C21.6471 35.6568 22.5645 35.8534 23.4924 35.8534C24.4204 35.8534 25.3378 35.6568 26.1842 35.2765L41.3596 28.4003C41.8429 28.1883 42.254 27.8401 42.5426 27.3983C42.8312 26.9565 42.9849 26.4402 42.9849 25.9125C42.9849 25.3848 42.8312 24.8685 42.5426 24.4267C42.254 23.9849 41.8429 23.6367 41.3596 23.4247H41.3497Z" fill="black"/>
<path d="M41.1805 11.9511H40.2949V11.0654C40.3171 10.7035 40.2649 10.3409 40.1417 9.99987C40.0184 9.65885 39.8267 9.34667 39.5783 9.08254C39.3298 8.81842 39.03 8.60794 38.6971 8.46407C38.3643 8.32019 38.0055 8.24597 37.6429 8.24597C37.2803 8.24597 36.9215 8.32019 36.5887 8.46407C36.2559 8.60794 35.956 8.81842 35.7076 9.08254C35.4591 9.34667 35.2674 9.65885 35.1441 9.99987C35.0209 10.3409 34.9688 10.7035 34.9909 11.0654V11.9511H34.1053C33.43 11.9925 32.796 12.2899 32.3325 12.7827C31.869 13.2755 31.6109 13.9265 31.6109 14.6031C31.6109 15.2796 31.869 15.9306 32.3325 16.4234C32.796 16.9162 33.43 17.2136 34.1053 17.255H34.9909V18.1407C35.0323 18.8159 35.3297 19.45 35.8225 19.9135C36.3153 20.377 36.9664 20.6351 37.6429 20.6351C38.3195 20.6351 38.9705 20.377 39.4633 19.9135C39.9561 19.45 40.2535 18.8159 40.2949 18.1407V17.255H41.1805C41.5425 17.2772 41.9051 17.2251 42.2461 17.1018C42.5871 16.9786 42.8993 16.7868 43.1634 16.5384C43.4276 16.29 43.638 15.9901 43.7819 15.6573C43.9258 15.3244 44 14.9657 44 14.6031C44 14.2405 43.9258 13.8817 43.7819 13.5488C43.638 13.216 43.4276 12.9161 43.1634 12.6677C42.8993 12.4193 42.5871 12.2275 42.2461 12.1043C41.9051 11.981 41.5425 11.9289 41.1805 11.9511Z" fill="black"/>
</svg>
