<svg width="48" height="48" viewBox="0 0 48 48" fill="none" xmlns="http://www.w3.org/2000/svg">
<path d="M43.1026 28.2034L27.5186 35.2607C26.4187 35.7556 25.2262 36.0115 24.02 36.0115C22.8138 36.0115 21.6213 35.7556 20.5213 35.2607L4.89738 28.2034C4.58104 28.0624 4.28243 27.8845 4.00772 27.6736C3.99743 27.7967 3.99743 27.9204 4.00772 28.0435C4.00492 28.5814 4.15833 29.1086 4.44933 29.5611C4.74034 30.0136 5.15642 30.3719 5.64709 30.5925L21.2311 37.6498C22.1006 38.0453 23.0448 38.2499 24 38.2499C24.9552 38.2499 25.8994 38.0453 26.7689 37.6498L42.3529 30.5925C42.8436 30.3719 43.2597 30.0136 43.5507 29.5611C43.8417 29.1086 43.9951 28.5814 43.9923 28.0435C44.0026 27.9204 44.0026 27.7967 43.9923 27.6736C43.7176 27.8845 43.419 28.0624 43.1026 28.2034Z" fill="black"/>
<path d="M43.1026 24.165L27.5186 31.2222C26.4187 31.7172 25.2262 31.9731 24.02 31.9731C22.8138 31.9731 21.6213 31.7172 20.5213 31.2222L4.89738 24.165C4.58328 24.0196 4.28513 23.8421 4.00772 23.6352C3.99743 23.7582 3.99743 23.882 4.00772 24.005C4.00433 24.5418 4.15762 25.068 4.44881 25.519C4.74 25.97 5.15644 26.3262 5.64709 26.544L21.2311 33.6113C22.1006 34.0068 23.0448 34.2115 24 34.2115C24.9552 34.2115 25.8994 34.0068 26.7689 33.6113L42.3529 26.544C42.8436 26.3262 43.26 25.97 43.5512 25.519C43.8424 25.068 43.9957 24.5418 43.9923 24.005C44.0026 23.882 44.0026 23.7582 43.9923 23.6352C43.7149 23.8421 43.4167 24.0196 43.1026 24.165Z" fill="black"/>
<path d="M42.3529 17.4076L26.7689 10.3503C25.8994 9.95477 24.9552 9.75012 24 9.75012C23.0448 9.75012 22.1006 9.95477 21.2311 10.3503L5.64709 17.4076C5.15729 17.6297 4.74187 17.9882 4.45052 18.4403C4.15917 18.8924 4.00422 19.4188 4.00422 19.9566C4.00422 20.4944 4.15917 21.0208 4.45052 21.4729C4.74187 21.9249 5.15729 22.2835 5.64709 22.5056L21.2311 29.5629C22.1006 29.9584 23.0448 30.163 24 30.163C24.9552 30.163 25.8994 29.9584 26.7689 29.5629L42.3529 22.5056C42.8427 22.2835 43.2581 21.9249 43.5495 21.4729C43.8408 21.0208 43.9958 20.4944 43.9958 19.9566C43.9958 19.4188 43.8408 18.8924 43.5495 18.4403C43.2581 17.9882 42.8427 17.6297 42.3529 17.4076Z" fill="black"/>
</svg>
