<svg width="48" height="48" viewBox="0 0 48 48" fill="none" xmlns="http://www.w3.org/2000/svg">
<path d="M43.0546 28.9545L27.1019 36.1632C26.0923 36.6165 24.9981 36.851 23.8914 36.851C22.7847 36.851 21.6905 36.6165 20.6809 36.1632L4.8279 28.9545C4.6252 28.8594 4.43163 28.7459 4.24962 28.6155C4.09314 28.9251 4.00796 29.2658 4.00036 29.6126C3.99781 30.0724 4.12946 30.5229 4.37917 30.909C4.62888 31.2951 4.9858 31.5999 5.40619 31.7861L21.3589 38.9948C22.1859 39.3692 23.0833 39.563 23.9911 39.563C24.8989 39.563 25.7963 39.3692 26.6233 38.9948L42.576 31.7861C42.9746 31.5869 43.3088 31.2789 43.5399 30.8979C43.771 30.5168 43.8897 30.0781 43.8821 29.6325C43.8745 29.2857 43.7894 28.945 43.6329 28.6355C43.4501 28.759 43.2565 28.8658 43.0546 28.9545Z" fill="black"/>
<path d="M23.9412 35.4752C23.0322 35.4764 22.1339 35.2791 21.309 34.8969L5.40619 27.6783C4.98727 27.4901 4.63167 27.1848 4.3822 26.7991C4.13272 26.4135 4 25.964 4 25.5048C4 25.0455 4.13272 24.596 4.3822 24.2104C4.63167 23.8248 4.98727 23.5195 5.40619 23.3312L21.3589 16.1226C22.1859 15.7481 23.0833 15.5544 23.9911 15.5544C24.8989 15.5544 25.7963 15.7481 26.6233 16.1226L42.576 23.3312C42.9949 23.5195 43.3505 23.8248 43.6 24.2104C43.8495 24.596 43.9822 25.0455 43.9822 25.5048C43.9822 25.964 43.8495 26.4135 43.6 26.7991C43.3505 27.1848 42.9949 27.4901 42.576 27.6783L26.6233 34.8869C25.784 35.2797 24.8678 35.4806 23.9412 35.4752ZM7.34045 25.5048L22.4556 32.3544C22.9249 32.5695 23.435 32.6809 23.9512 32.6809C24.4674 32.6809 24.9775 32.5695 25.4468 32.3544L40.542 25.5048L25.4268 18.6551C24.9576 18.44 24.4475 18.3286 23.9313 18.3286C23.4151 18.3286 22.905 18.44 22.4357 18.6551L7.34045 25.5048Z" fill="black"/>
<path d="M42.4863 12.264H40.1731V9.95086C40.1894 9.75831 40.1656 9.56447 40.1031 9.38161C40.0406 9.19875 39.9409 9.03086 39.8101 8.88856C39.6794 8.74627 39.5205 8.63267 39.3436 8.55496C39.1666 8.47726 38.9755 8.43713 38.7823 8.43713C38.589 8.43713 38.3979 8.47726 38.2209 8.55496C38.044 8.63267 37.8851 8.74627 37.7544 8.88856C37.6237 9.03086 37.5239 9.19875 37.4614 9.38161C37.3989 9.56447 37.3751 9.75831 37.3914 9.95086V12.264H35.0683C34.7197 12.2935 34.395 12.4529 34.1583 12.7104C33.9216 12.968 33.7903 13.3051 33.7903 13.6549C33.7903 14.0047 33.9216 14.3417 34.1583 14.5993C34.395 14.8569 34.7197 15.0162 35.0683 15.0458H37.3914V17.3689C37.4209 17.7174 37.5802 18.0422 37.8378 18.2789C38.0954 18.5155 38.4324 18.6469 38.7823 18.6469C39.1321 18.6469 39.4691 18.5155 39.7267 18.2789C39.9843 18.0422 40.1436 17.7174 40.1731 17.3689V15.0458H42.4863C42.6788 15.0621 42.8727 15.0382 43.0555 14.9757C43.2384 14.9133 43.4063 14.8135 43.5486 14.6827C43.6909 14.552 43.8045 14.3931 43.8822 14.2162C43.9599 14.0393 44 13.8481 44 13.6549C44 13.4616 43.9599 13.2705 43.8822 13.0936C43.8045 12.9166 43.6909 12.7578 43.5486 12.627C43.4063 12.4963 43.2384 12.3965 43.0555 12.334C42.8727 12.2715 42.6788 12.2477 42.4863 12.264Z" fill="black"/>
</svg>
