<svg width="48" height="48" viewBox="0 0 48 48" fill="none" xmlns="http://www.w3.org/2000/svg">
<path d="M42.0861 28.1224L26.9206 34.9588C25.8446 35.4504 24.6754 35.7048 23.4924 35.7048C22.3095 35.7048 21.1403 35.4504 20.0643 34.9588L4.89882 28.1224C4.59412 27.9823 4.3041 27.8123 4.03307 27.6149C4.02107 27.7406 4.02107 27.8672 4.03307 27.993C4.03176 28.5167 4.18243 29.0296 4.46681 29.4694C4.75118 29.9092 5.15705 30.2571 5.6352 30.4708L20.8007 37.347C21.6471 37.7274 22.5645 37.924 23.4924 37.924C24.4204 37.924 25.3378 37.7274 26.1842 37.347L41.3497 30.4509C41.8248 30.2386 42.2285 29.8938 42.5127 29.4579C42.7968 29.022 42.9493 28.5134 42.9518 27.993C42.9626 27.8738 42.9626 27.7539 42.9518 27.6348C42.6814 27.8276 42.3912 27.991 42.0861 28.1224Z" fill="black"/>
<path d="M41.3497 21.5546L26.1842 14.6784C25.3386 14.295 24.4209 14.0966 23.4924 14.0966C22.564 14.0966 21.6463 14.295 20.8007 14.6784L5.62525 21.5546C5.14199 21.7667 4.73094 22.1148 4.44232 22.5566C4.1537 22.9984 4 23.5147 4 24.0424C4 24.5701 4.1537 25.0864 4.44232 25.5282C4.73094 25.97 5.14199 26.3182 5.62525 26.5302L20.7907 33.4064C21.6354 33.793 22.5535 33.9931 23.4825 33.9931C24.4115 33.9931 25.3296 33.793 26.1743 33.4064L41.3497 26.5302C41.833 26.3182 42.244 25.97 42.5326 25.5282C42.8213 25.0864 42.9749 24.5701 42.9749 24.0424C42.9749 23.5147 42.8213 22.9984 42.5326 22.5566C42.244 22.1148 41.833 21.7667 41.3497 21.5546Z" fill="black"/>
<path d="M41.1805 15.385H34.1053C33.43 15.3436 32.796 15.0462 32.3325 14.5534C31.869 14.0606 31.6109 13.4095 31.6109 12.733C31.6109 12.0565 31.869 11.4054 32.3325 10.9126C32.796 10.4198 33.43 10.1224 34.1053 10.081H41.1805C41.5425 10.0588 41.9051 10.111 42.2461 10.2342C42.5871 10.3575 42.8993 10.5492 43.1634 10.7976C43.4276 11.0461 43.638 11.3459 43.7819 11.6788C43.9258 12.0116 44 12.3704 44 12.733C44 13.0956 43.9258 13.4544 43.7819 13.7872C43.638 14.12 43.4276 14.4199 43.1634 14.6683C42.8993 14.9168 42.5871 15.1085 42.2461 15.2318C41.9051 15.355 41.5425 15.4071 41.1805 15.385Z" fill="black"/>
</svg>
