<svg width="48" height="48" viewBox="0 0 48 48" fill="none" xmlns="http://www.w3.org/2000/svg">
<path fill-rule="evenodd" clip-rule="evenodd" d="M43.93 23.21H44V24.52H43.92C43.5047 24.6185 43.1201 24.8177 42.8 25.1C42.5591 25.3147 42.3694 25.5807 42.2448 25.8783C42.1202 26.176 42.0639 26.4977 42.08 26.82V29.73C42.1153 30.166 42.0425 30.6041 41.8681 31.0053C41.6936 31.4064 41.423 31.7584 41.08 32.03C40.3822 32.5462 39.538 32.8265 38.67 32.83H38V31.21H38.07C38.3747 31.1408 38.6526 30.9844 38.87 30.76C39.06 30.5792 39.2092 30.3598 39.3075 30.1166C39.4058 29.8735 39.451 29.6121 39.44 29.35V27C39.3777 26.3087 39.5167 25.6142 39.84 25C40.2345 24.4904 40.77 24.1079 41.38 23.9C40.6374 23.569 40.0304 22.9938 39.66 22.27C39.4798 21.7225 39.4118 21.1443 39.46 20.57V18.42C39.4957 17.905 39.3308 17.3962 39 17C38.7616 16.7734 38.4565 16.6296 38.13 16.59H38.05V15H39.47C40.0385 15.0389 40.5773 15.2679 41 15.65C41.4805 16.0303 41.8301 16.5513 42 17.14C42.0964 17.4643 42.1403 17.8019 42.13 18.14V20.66C42.1082 21.004 42.1563 21.3488 42.2714 21.6736C42.3866 21.9985 42.5664 22.2966 42.8 22.55C43.1235 22.8505 43.5094 23.0758 43.93 23.21ZM8.52 22.28C8.14588 22.9986 7.5397 23.5695 6.8 23.9C7.40813 24.1115 7.94267 24.4934 8.34 25C8.67958 25.6094 8.83584 26.3039 8.79 27V29.36C8.76925 29.6162 8.80211 29.8738 8.88648 30.1166C8.97084 30.3594 9.10487 30.5819 9.28 30.77C9.53521 30.9851 9.83621 31.139 10.16 31.22H10.23V32.86H9.53C8.65839 32.8502 7.81188 32.5669 7.11 32.05C6.77451 31.775 6.51287 31.4206 6.34875 31.019C6.18463 30.6175 6.12319 30.1813 6.17 29.75V26.84C6.17252 26.5129 6.10306 26.1893 5.96654 25.892C5.83001 25.5948 5.62977 25.3312 5.38 25.12C4.99041 24.8406 4.54814 24.6433 4.08 24.54L4 24.52V23.23H4.07C4.56287 23.103 5.0253 22.8786 5.43 22.57C5.67616 22.3224 5.86886 22.0269 5.99615 21.7018C6.12344 21.3767 6.18261 21.0289 6.17 20.68V18C6.15283 17.7057 6.16961 17.4104 6.22 17.12C6.35518 16.513 6.71172 15.9782 7.22 15.62C7.6402 15.2509 8.17165 15.0327 8.73 15H10.67V16.65H10C9.7113 16.698 9.43949 16.8184 9.21 17C8.89347 17.4022 8.74316 17.9104 8.79 18.42V20.57C8.82398 21.1528 8.73189 21.736 8.52 22.28ZM20.27 22.53C20.464 22.9068 20.5603 23.3263 20.55 23.75V23.93H18.34C18.3399 23.4367 18.4456 22.949 18.65 22.5C18.7388 22.3757 18.8582 22.2764 18.9966 22.2116C19.1349 22.1468 19.2876 22.1187 19.44 22.13C19.6012 22.1188 19.7625 22.1499 19.908 22.22C20.0536 22.2901 20.1783 22.397 20.27 22.53ZM37.18 28.37C37.4806 28.1331 37.7207 27.8283 37.8806 27.4807C38.0405 27.133 38.1157 26.7524 38.1 26.37C38.1 25.11 37.36 24.21 35.86 23.69L34.86 23.32C34.43 23.16 34.22 22.95 34.22 22.68C34.2172 22.6079 34.2312 22.5361 34.2606 22.4702C34.2901 22.4043 34.3344 22.346 34.39 22.3C34.5403 22.1903 34.7244 22.1372 34.91 22.15C35.7311 22.199 36.5338 22.4133 37.27 22.78C37.503 22.569 37.6755 22.2998 37.77 22C37.9164 21.6866 37.9948 21.3458 38 21C37.5437 20.7131 37.0532 20.4847 36.54 20.32C36.0028 20.1905 35.4525 20.1233 34.9 20.12C34.0096 20.1062 33.1451 20.4193 32.47 21C32.1785 21.243 31.9467 21.5497 31.7924 21.8965C31.6381 22.2432 31.5654 22.6208 31.58 23C31.58 24.16 32.28 25 33.69 25.5L34.62 25.85C35.13 26.02 35.39 26.27 35.39 26.6C35.3905 26.6875 35.3676 26.7735 35.3236 26.8491C35.2797 26.9247 35.2163 26.9872 35.14 27.03C34.915 27.1466 34.6632 27.2018 34.41 27.19C33.5865 27.1402 32.7856 26.9006 32.07 26.49C31.8529 26.7292 31.6832 27.0075 31.57 27.31C31.4409 27.6111 31.3664 27.9328 31.35 28.26C32.3173 28.8193 33.4127 29.119 34.53 29.13C35.4739 29.1836 36.408 28.9157 37.18 28.37ZM29.71 28.37C30.0136 28.1353 30.2565 27.8312 30.4184 27.4832C30.5802 27.1352 30.6562 26.7534 30.64 26.37C30.64 25.11 29.89 24.21 28.4 23.69L27.4 23.32C26.98 23.16 26.76 22.95 26.76 22.68C26.7592 22.6072 26.775 22.5351 26.8062 22.4692C26.8374 22.4034 26.8831 22.3455 26.94 22.3C27.0872 22.1918 27.2677 22.1387 27.45 22.15C28.2712 22.1979 29.0742 22.4123 29.81 22.78C30.0454 22.5729 30.2156 22.3019 30.3 22C30.4366 21.6848 30.5015 21.3433 30.49 21C30.0249 20.7047 29.5242 20.4695 29 20.3C28.4662 20.1704 27.9192 20.1033 27.37 20.1C26.498 20.1081 25.6576 20.4272 25 21C24.7097 21.2435 24.4794 21.5506 24.3268 21.8974C24.1742 22.2442 24.1035 22.6215 24.12 23C24.12 24.16 24.82 25 26.22 25.5L27.15 25.85C27.67 26.0233 27.93 26.2733 27.93 26.6C27.9285 26.6882 27.9036 26.7745 27.8579 26.85C27.8123 26.9256 27.7474 26.9876 27.67 27.03C27.4486 27.1467 27.2 27.202 26.95 27.19C26.1265 27.1402 25.3256 26.9006 24.61 26.49C24.3929 26.7292 24.2232 27.0075 24.11 27.31C23.978 27.6107 23.9002 27.9323 23.88 28.26C24.8514 28.818 25.9498 29.1176 27.07 29.13C28.0106 29.1821 28.9411 28.9143 29.71 28.37ZM22.71 25.59C22.8892 25.0131 22.9868 24.414 23 23.81C23.0054 23.3294 22.9241 22.8518 22.76 22.4C22.5914 21.9757 22.332 21.5934 22 21.28C21.6875 20.961 21.3132 20.7092 20.9 20.54C20.4461 20.3011 19.9504 20.1517 19.44 20.1C18.8491 20.1435 18.2753 20.3177 17.76 20.61C17.3005 20.8207 16.8964 21.1357 16.58 21.53C16.2641 21.9418 16.0299 22.4102 15.89 22.91C15.7368 23.4703 15.6628 24.0492 15.67 24.63C15.6654 25.2314 15.7257 25.8316 15.85 26.42C15.9608 26.9314 16.1752 27.4147 16.48 27.84C16.7853 28.2437 17.1878 28.5637 17.65 28.77C18.2043 29.0282 18.8085 29.1613 19.42 29.16C20.6014 29.1855 21.7604 28.8354 22.73 28.16C22.674 27.5881 22.4316 27.0505 22.04 26.63C21.6416 26.7792 21.2341 26.9027 20.82 27C20.5143 27.0666 20.2028 27.1034 19.89 27.11C19.6785 27.1295 19.4653 27.103 19.265 27.0322C19.0648 26.9614 18.8823 26.8481 18.73 26.7C18.4786 26.389 18.3442 25.9998 18.35 25.6L22.71 25.59ZM39.29 22.44C39.5751 23.0204 40.0101 23.5141 40.55 23.87C40.1454 24.1235 39.8035 24.4654 39.55 24.87C39.1921 25.5207 39.0224 26.2583 39.06 27V29.36C39.0673 29.5669 39.0321 29.7731 38.9564 29.9657C38.8807 30.1584 38.7662 30.3334 38.62 30.48C38.4448 30.6558 38.2226 30.7773 37.98 30.83L37.62 30.94V32.78H10.62V30.91L10.26 30.8C9.99264 30.7451 9.74437 30.6209 9.54 30.44C9.40638 30.29 9.30538 30.1139 9.24341 29.9228C9.18144 29.7317 9.15985 29.5299 9.18 29.33V27C9.21525 26.2497 9.0385 25.5046 8.67 24.85C8.4136 24.4477 8.07229 24.1064 7.67 23.85C8.19234 23.4969 8.61023 23.0099 8.88 22.44C9.1075 21.8439 9.20963 21.2073 9.18 20.57V18.42C9.13993 18.0163 9.24642 17.6117 9.48 17.28C9.63092 17.15 9.80837 17.0544 10 17H11V26.57C10.955 27.1972 11.132 27.8202 11.5 28.33C11.7151 28.5355 11.9722 28.692 12.2536 28.7887C12.535 28.8853 12.834 28.9199 13.13 28.89C13.7335 28.8807 14.3354 28.8238 14.93 28.72C14.9557 28.4807 14.9557 28.2393 14.93 28C14.926 27.6182 14.8584 27.2396 14.73 26.88H14.27C13.78 26.88 13.59 26.62 13.59 26.1V16.55C13.6409 16.1218 13.5381 15.6895 13.3 15.33C13.2052 15.2495 13.0955 15.1886 12.977 15.1509C12.8586 15.1131 12.7338 15.0992 12.61 15.11H37.61V16.88L38 17C38.2515 17.0262 38.4872 17.1352 38.67 17.31C38.9373 17.6272 39.0701 18.0363 39.04 18.45V20.57C38.9955 21.2038 39.0806 21.8401 39.29 22.44Z" fill="black"/>
</svg>
