<svg width="48" height="48" viewBox="0 0 48 48" fill="none" xmlns="http://www.w3.org/2000/svg">
<path d="M34.6934 22.1167C34.6885 19.9915 34.0548 17.9152 32.8721 16.1495C31.6894 14.3838 30.0105 13.0076 28.0471 12.1943C26.0836 11.3811 23.9234 11.1671 21.8385 11.5793C19.7537 11.9916 17.8375 13.0116 16.3313 14.511C15.1425 15.6851 14.2436 17.12 13.7058 18.7019C13.168 20.2838 13.0061 21.9693 13.233 23.6247C13.4599 25.2801 14.0693 26.8598 15.0129 28.2387C15.9565 29.6176 17.2083 30.7577 18.6692 31.5686V37.4385C18.6691 38.0168 18.8688 38.5773 19.2345 39.0253C19.6002 39.4733 20.1094 39.7811 20.676 39.8968C20.9392 40.5203 21.3803 41.0523 21.9443 41.4264C22.5082 41.8005 23.17 42 23.8467 42C24.5235 42 25.1852 41.8005 25.7491 41.4264C26.3131 41.0523 26.7543 40.5203 27.0174 39.8968C27.584 39.7811 28.0933 39.4733 28.459 39.0253C28.8247 38.5773 29.0243 38.0168 29.0242 37.4385V31.5887C30.7404 30.6737 32.1749 29.3085 33.1737 27.6397C34.1725 25.9709 34.6979 24.0616 34.6934 22.1167ZM26.3652 34.3581H21.4486V34.3079H26.3251L26.3652 34.3581ZM27.5894 29.2709C27.2214 29.4616 26.9128 29.7495 26.697 30.1033C26.4812 30.4571 26.3664 30.8632 26.3652 31.2777V31.5084H21.4486V31.2777C21.4476 30.862 21.3318 30.4546 21.114 30.1005C20.8963 29.7464 20.585 29.4593 20.2144 29.2709C18.6126 28.4481 17.3339 27.1106 16.5839 25.4734C15.834 23.8362 15.6563 21.9943 16.0795 20.2439C16.5028 18.4936 17.5023 16.9364 18.9174 15.8226C20.3325 14.7089 22.081 14.1034 23.8818 14.1034C25.6827 14.1034 27.4312 14.7089 28.8463 15.8226C30.2614 16.9364 31.2609 18.4936 31.6841 20.2439C32.1074 21.9943 31.9297 23.8362 31.1798 25.4734C30.4298 27.1106 29.1511 28.4481 27.5492 29.2709H27.5894Z" fill="black"/>
<path d="M38.7772 20.7822H36.359C36.1666 20.7658 35.9729 20.7896 35.7901 20.852C35.6073 20.9144 35.4395 21.0141 35.2973 21.1447C35.1551 21.2754 35.0416 21.4341 34.9639 21.6109C34.8862 21.7877 34.8461 21.9788 34.8461 22.1719C34.8461 22.365 34.8862 22.556 34.9639 22.7328C35.0416 22.9096 35.1551 23.0684 35.2973 23.199C35.4395 23.3297 35.6073 23.4293 35.7901 23.4918C35.9729 23.5542 36.1666 23.5779 36.359 23.5616H38.7772C38.9696 23.5779 39.1633 23.5542 39.3461 23.4918C39.5289 23.4293 39.6967 23.3297 39.8389 23.199C39.9811 23.0684 40.0947 22.9096 40.1723 22.7328C40.25 22.556 40.2901 22.365 40.2901 22.1719C40.2901 21.9788 40.25 21.7877 40.1723 21.6109C40.0947 21.4341 39.9811 21.2754 39.8389 21.1447C39.6967 21.0141 39.5289 20.9144 39.3461 20.852C39.1633 20.7896 38.9696 20.7658 38.7772 20.7822Z" fill="black"/>
<path d="M12.8094 22.1769C12.8094 21.9937 12.7733 21.8124 12.7032 21.6432C12.6331 21.4739 12.5304 21.3202 12.4009 21.1907C12.2714 21.0612 12.1176 20.9584 11.9484 20.8883C11.7792 20.8183 11.5978 20.7822 11.4147 20.7822H8.98648C8.6383 20.8118 8.31392 20.971 8.07753 21.2284C7.84114 21.4857 7.70996 21.8224 7.70996 22.1719C7.70996 22.5213 7.84114 22.858 8.07753 23.1154C8.31392 23.3727 8.6383 23.532 8.98648 23.5616H11.4147C11.5974 23.5629 11.7785 23.5281 11.9477 23.4591C12.1168 23.3901 12.2707 23.2883 12.4003 23.1596C12.5299 23.0309 12.6328 22.8778 12.7031 22.7091C12.7733 22.5405 12.8094 22.3596 12.8094 22.1769Z" fill="black"/>
<path d="M33.69 29.9732C33.4239 29.7071 33.0629 29.5576 32.6866 29.5576C32.3103 29.5576 31.9493 29.7071 31.6832 29.9732C31.4171 30.2394 31.2676 30.6003 31.2676 30.9766C31.2676 31.353 31.4171 31.7139 31.6832 31.98L33.399 33.6958C33.5255 33.833 33.6783 33.9432 33.8485 34.0199C34.0186 34.0965 34.2024 34.1379 34.389 34.1417C34.5755 34.1455 34.7609 34.1116 34.934 34.042C35.1071 33.9723 35.2643 33.8684 35.3963 33.7365C35.5282 33.6045 35.6321 33.4473 35.7017 33.2742C35.7714 33.1011 35.8053 32.9157 35.8015 32.7292C35.7977 32.5426 35.7563 32.3588 35.6797 32.1887C35.603 32.0186 35.4928 31.8657 35.3556 31.7392L33.69 29.9732Z" fill="black"/>
<path d="M14.0837 14.3404C14.2154 14.472 14.3719 14.5762 14.5441 14.6468C14.7164 14.7175 14.9009 14.7531 15.0871 14.7518C15.3638 14.7546 15.6351 14.6751 15.8665 14.5233C16.0979 14.3715 16.2789 14.1543 16.3865 13.8993C16.4941 13.6444 16.5234 13.3632 16.4707 13.0915C16.418 12.8198 16.2856 12.57 16.0905 12.3738L14.3346 10.658C14.0684 10.3918 13.7075 10.2423 13.3312 10.2423C12.9548 10.2423 12.5939 10.3918 12.3278 10.658C12.0617 10.9241 11.9122 11.285 11.9122 11.6613C11.9122 12.0377 12.0617 12.3986 12.3278 12.6647L14.0837 14.3404Z" fill="black"/>
<path d="M23.8869 11.0994C24.0695 11.0995 24.2504 11.0633 24.4191 10.9931C24.5877 10.9229 24.7408 10.82 24.8695 10.6903C24.9982 10.5607 25.1 10.4069 25.169 10.2377C25.238 10.0686 25.2729 9.88741 25.2715 9.70473V7.27652C25.2419 6.92834 25.0827 6.60396 24.8253 6.36757C24.568 6.13117 24.2313 6 23.8818 6C23.5324 6 23.1957 6.13117 22.9383 6.36757C22.681 6.60396 22.5218 6.92834 22.4921 7.27652V9.70473C22.4921 9.88789 22.5282 10.0693 22.5983 10.2385C22.6684 10.4077 22.7711 10.5614 22.9006 10.6909C23.1622 10.9525 23.517 11.0994 23.8869 11.0994Z" fill="black"/>
<path d="M14.0837 29.9732L12.3679 31.7292C12.1087 31.9888 11.9632 32.3407 11.9632 32.7075C11.9632 33.0743 12.1087 33.4262 12.3679 33.6858C12.4996 33.8174 12.6561 33.9216 12.8283 33.9922C13.0006 34.0628 13.1851 34.0985 13.3713 34.0972C13.5576 34.0997 13.7425 34.0645 13.915 33.9938C14.0874 33.9231 14.2437 33.8184 14.3747 33.6858L16.0504 31.98C16.3098 31.7139 16.4529 31.3556 16.4482 30.984C16.4435 30.6123 16.2914 30.2578 16.0253 29.9983C15.7592 29.7389 15.4009 29.5957 15.0292 29.6005C14.6576 29.6052 14.303 29.7573 14.0436 30.0234L14.0837 29.9732Z" fill="black"/>
<path d="M32.6866 14.7518C32.873 14.7548 33.0581 14.7199 33.2306 14.6492C33.4031 14.5785 33.5594 14.4734 33.69 14.3404L35.3958 12.6246C35.6619 12.3651 35.814 12.0106 35.8187 11.6389C35.8234 11.2673 35.6803 10.909 35.4208 10.6429C35.1614 10.3768 34.8068 10.2246 34.4352 10.2199C34.0635 10.2152 33.7053 10.3584 33.4391 10.6178L31.6832 12.3738C31.4881 12.57 31.3558 12.8198 31.303 13.0915C31.2503 13.3632 31.2796 13.6444 31.3872 13.8993C31.4948 14.1543 31.6758 14.3715 31.9072 14.5233C32.1386 14.6751 32.4099 14.7546 32.6866 14.7518Z" fill="black"/>
<path d="M25.3217 25.1369L25.3919 15.7853H22.3818L22.452 25.1369H25.3217Z" fill="black"/>
<path d="M23.8869 25.3978C23.5724 25.3978 23.2652 25.4913 23.004 25.6664C22.7429 25.8415 22.5397 26.0903 22.4204 26.3812C22.301 26.672 22.2708 26.9918 22.3336 27.2999C22.3964 27.608 22.5494 27.8904 22.7731 28.1113C22.9969 28.3322 23.2812 28.4816 23.5901 28.5404C23.8989 28.5993 24.2183 28.5651 24.5076 28.442C24.7969 28.3189 25.0431 28.1126 25.2148 27.8493C25.3866 27.5859 25.4762 27.2775 25.4722 26.9631C25.4669 26.5461 25.2976 26.148 25.0008 25.855C24.7041 25.562 24.3039 25.3977 23.8869 25.3978Z" fill="black"/>
</svg>
