<svg width="48" height="48" viewBox="0 0 48 48" fill="none" xmlns="http://www.w3.org/2000/svg">
<path d="M16.9729 41.9998C16.6709 41.9935 16.3767 41.9035 16.1229 41.7398C15.8178 41.5445 15.5907 41.2485 15.4811 40.9033C15.3715 40.558 15.3863 40.1853 15.5229 39.8498L20.5829 27.2198H10.8729C10.5847 27.2169 10.3015 27.1445 10.0473 27.0087C9.79312 26.8729 9.57548 26.6777 9.41289 26.4398C9.25516 26.198 9.15823 25.9217 9.13037 25.6344C9.10251 25.3471 9.14454 25.0573 9.25289 24.7898L16.6129 7.07978C16.7445 6.75878 16.969 6.48443 17.2577 6.29199C17.5464 6.09954 17.886 5.99779 18.2329 5.99978H32.6429C32.971 6.00139 33.2918 6.09625 33.5681 6.27331C33.8443 6.45037 34.0644 6.70233 34.2029 6.99978C34.3507 7.28907 34.4141 7.61414 34.3858 7.93778C34.3575 8.26142 34.2387 8.57055 34.0429 8.82978L26.9229 18.2998H37.1229C37.471 18.2987 37.8115 18.4015 38.1008 18.595C38.3902 18.7885 38.6153 19.0638 38.7473 19.3859C38.8794 19.708 38.9124 20.0621 38.8421 20.403C38.7719 20.744 38.6015 21.0562 38.3529 21.2998L18.1229 41.5398C17.9721 41.69 17.7925 41.8081 17.5948 41.8872C17.3972 41.9662 17.1857 42.0045 16.9729 41.9998ZM12.4029 24.4498H22.3429C22.5993 24.4496 22.8518 24.5122 23.0784 24.6322C23.305 24.7521 23.4988 24.9257 23.6428 25.1378C23.7868 25.3499 23.8767 25.594 23.9046 25.8489C23.9325 26.1037 23.8976 26.3615 23.8029 26.5998L20.2629 35.4298L34.6129 21.0698H24.5229C24.2322 21.0684 23.9475 20.9863 23.7007 20.8327C23.4539 20.6791 23.2546 20.4599 23.125 20.1997C22.9954 19.9395 22.9406 19.6483 22.9667 19.3588C22.9928 19.0692 23.0988 18.7926 23.2729 18.5598L30.6129 8.76978H18.9029L12.4029 24.4498Z" fill="black"/>
</svg>
