<svg width="48" height="48" viewBox="0 0 48 48" fill="none" xmlns="http://www.w3.org/2000/svg">
<path d="M34.7599 22.0565C34.7473 19.9395 34.1108 17.8732 32.9301 16.116C31.7493 14.3588 30.0767 12.9886 28.1215 12.177C26.1662 11.3653 24.015 11.1481 21.9369 11.5525C19.8588 11.957 17.9461 12.9651 16.438 14.4508C15.2492 15.6249 14.3502 17.0598 13.8124 18.6417C13.2746 20.2237 13.1127 21.9092 13.3396 23.5645C13.5665 25.2199 14.1759 26.7997 15.1195 28.1786C16.0631 29.5574 17.315 30.6976 18.7759 31.5085V37.4385C18.7757 38.0168 18.9754 38.5774 19.3411 39.0254C19.7068 39.4733 20.216 39.7812 20.7826 39.8968C21.0458 40.5203 21.487 41.0524 22.0509 41.4265C22.6149 41.8005 23.2766 42.0001 23.9534 42.0001C24.6301 42.0001 25.2918 41.8005 25.8558 41.4265C26.4197 41.0524 26.8609 40.5203 27.1241 39.8968C27.6907 39.7812 28.1999 39.4733 28.5656 39.0254C28.9313 38.5774 29.131 38.0168 29.1309 37.4385V31.5286C30.8396 30.6082 32.2659 29.2407 33.2574 27.5723C34.2489 25.9039 34.7683 23.9973 34.7599 22.0565ZM27.6559 29.2107C27.2879 29.4014 26.9793 29.6893 26.7635 30.0431C26.5477 30.3969 26.4329 30.8031 26.4317 31.2175V31.4583H21.5553V31.2175C21.5542 30.8018 21.4385 30.3945 21.2207 30.0404C21.0029 29.6863 20.6916 29.3992 20.3211 29.2107C18.7192 28.388 17.4405 27.0505 16.6905 25.4133C15.9406 23.776 15.763 21.9342 16.1862 20.1838C16.6094 18.4334 17.6089 16.8762 19.024 15.7625C20.4392 14.6487 22.1877 14.0432 23.9885 14.0432C25.7893 14.0432 27.5378 14.6487 28.9529 15.7625C30.368 16.8762 31.3676 18.4334 31.7908 20.1838C32.214 21.9342 32.0364 23.776 31.2864 25.4133C30.5365 27.0505 29.2578 28.388 27.6559 29.2107Z" fill="black"/>
<path d="M25.0471 15.0027C22.9181 15.0027 20.8764 15.8484 19.371 17.3538C17.8656 18.8592 17.0199 20.9009 17.0199 23.0298C17.0036 23.2223 17.0273 23.416 17.0897 23.5987C17.1522 23.7815 17.2518 23.9493 17.3825 24.0915C17.5131 24.2337 17.6719 24.3473 17.8487 24.425C18.0255 24.5026 18.2165 24.5427 18.4096 24.5427C18.6027 24.5427 18.7938 24.5026 18.9706 24.425C19.1474 24.3473 19.3061 24.2337 19.4368 24.0915C19.5674 23.9493 19.6671 23.7815 19.7295 23.5987C19.7919 23.416 19.8157 23.2223 19.7993 23.0298C19.7993 21.6371 20.3519 20.3013 21.3357 19.3156C22.3196 18.3298 23.6544 17.7747 25.0471 17.7721C25.2395 17.7884 25.4332 17.7646 25.616 17.7022C25.7987 17.6398 25.9665 17.5401 26.1088 17.4095C26.251 17.2789 26.3645 17.1201 26.4422 16.9433C26.5199 16.7665 26.56 16.5755 26.56 16.3824C26.56 16.1892 26.5199 15.9982 26.4422 15.8214C26.3645 15.6446 26.251 15.4858 26.1088 15.3552C25.9665 15.2246 25.7987 15.1249 25.616 15.0625C25.4332 15.0001 25.2395 14.9763 25.0471 14.9927V15.0027Z" fill="black"/>
</svg>
