<svg width="48" height="48" viewBox="0 0 48 48" fill="none" xmlns="http://www.w3.org/2000/svg">
<path d="M38.7 19.3299C38.5361 18.9341 38.2587 18.5956 37.9028 18.3571C37.5469 18.1187 37.1284 17.9909 36.7 17.9899H27.7L34.1 9.44991C34.3429 9.13033 34.4905 8.74861 34.5259 8.34876C34.5613 7.9489 34.483 7.54719 34.3 7.18991C34.1228 6.83223 33.8491 6.53124 33.5098 6.32095C33.1705 6.11066 32.7791 5.99946 32.38 5.99991H18.38C17.9515 5.99471 17.5314 6.11885 17.1746 6.35613C16.8178 6.5934 16.5409 6.93278 16.38 7.32991L9.16997 24.5999C9.02833 24.9289 8.97114 25.2881 9.0036 25.6449C9.03606 26.0016 9.15714 26.3446 9.35584 26.6427C9.55455 26.9407 9.82458 27.1844 10.1414 27.3516C10.4582 27.5188 10.8118 27.6041 11.17 27.5999H20L15.27 39.2799C15.1541 39.5801 15.1123 39.9038 15.1483 40.2236C15.1842 40.5433 15.2967 40.8497 15.4764 41.1167C15.656 41.3836 15.8974 41.6033 16.18 41.7571C16.4627 41.9109 16.7783 41.9942 17.1 41.9999C17.6281 42.0003 18.135 41.7918 18.51 41.4199L38.23 21.6799C38.5316 21.3784 38.7371 20.9943 38.8208 20.5761C38.9044 20.1579 38.8624 19.7243 38.7 19.3299Z" fill="black"/>
</svg>
