<svg width="48" height="48" viewBox="0 0 48 48" fill="none" xmlns="http://www.w3.org/2000/svg">
<path d="M18.6133 31.9103V32.9132H29.3835V31.9103C31.3898 30.7312 32.9561 28.9291 33.8441 26.778C34.7321 24.627 34.8933 22.2447 34.303 19.9937C33.7127 17.7427 32.4033 15.746 30.574 14.3075C28.7447 12.869 26.4956 12.0674 24.1688 12.0245H24.0084C21.6664 12.0287 19.3906 12.8026 17.5316 14.2271C15.6726 15.6516 14.3334 17.6477 13.7201 19.908C13.1069 22.1684 13.2537 24.5676 14.1378 26.7363C15.022 28.9051 16.5945 30.723 18.6133 31.9103ZM24.1388 14.6218C24.3811 14.6035 24.6245 14.6354 24.8539 14.7156C25.0833 14.7957 25.2936 14.9224 25.4718 15.0876C25.65 15.2528 25.7921 15.453 25.8893 15.6757C25.9865 15.8984 26.0367 16.1388 26.0367 16.3818C26.0367 16.6247 25.9865 16.8651 25.8893 17.0878C25.7921 17.3105 25.65 17.5107 25.4718 17.6759C25.2936 17.8411 25.0833 17.9678 24.8539 18.0479C24.6245 18.1281 24.3811 18.16 24.1388 18.1417C22.9321 18.1444 21.7756 18.6249 20.9224 19.4781C20.0692 20.3313 19.5886 21.4878 19.586 22.6945C19.6043 22.9368 19.5724 23.1802 19.4922 23.4096C19.4121 23.639 19.2854 23.8493 19.1202 24.0275C18.955 24.2057 18.7548 24.3478 18.5321 24.445C18.3094 24.5422 18.069 24.5924 17.8261 24.5924C17.5831 24.5924 17.3427 24.5422 17.12 24.445C16.8973 24.3478 16.6971 24.2057 16.5319 24.0275C16.3667 23.8493 16.24 23.639 16.1599 23.4096C16.0797 23.1802 16.0478 22.9368 16.0661 22.6945C16.0688 20.5543 16.9201 18.5025 18.4335 16.9892C19.9468 15.4758 21.9986 14.6245 24.1388 14.6218Z" fill="black"/>
<path d="M29.4136 34.6781H18.6133V35.6007H29.4136V34.6781Z" fill="black"/>
<path d="M18.6233 37.3656C18.6533 37.9593 18.8702 38.5282 19.243 38.9911C19.6159 39.454 20.1255 39.7871 20.6991 39.9429C21.0039 40.5604 21.4753 41.0803 22.0601 41.4438C22.6449 41.8074 23.3198 42 24.0084 42C24.697 42 25.3719 41.8074 25.9567 41.4438C26.5415 41.0803 27.0129 40.5604 27.3177 39.9429C27.8894 39.7853 28.3969 39.4514 28.7678 38.9887C29.1387 38.5259 29.3541 37.958 29.3835 37.3656H18.6233Z" fill="black"/>
</svg>
