<svg width="48" height="48" viewBox="0 0 48 48" fill="none" xmlns="http://www.w3.org/2000/svg">
<path d="M29.2424 34.6279H18.4421V35.5505H29.2424V34.6279Z" fill="black"/>
<path d="M20.528 39.9428C20.8327 40.5603 21.3041 41.0803 21.889 41.4438C22.4738 41.8073 23.1486 42 23.8372 42C24.5258 42 25.2007 41.8073 25.7855 41.4438C26.3703 41.0803 26.8418 40.5603 27.1465 39.9428C27.7228 39.787 28.2349 39.4527 28.6096 38.9879C28.9843 38.5232 29.2023 37.9518 29.2324 37.3556H18.4521C18.4816 37.9505 18.6981 38.5209 19.0709 38.9855C19.4436 39.4501 19.9536 39.7852 20.528 39.9428Z" fill="black"/>
<path d="M37.997 20.0069H35.6905C35.1886 20.0094 34.698 20.1555 34.2765 20.4281C33.9942 19.1634 33.4845 17.9606 32.7723 16.8781C33.2843 16.7706 33.7524 16.5121 34.1161 16.136L35.7206 14.5015C35.9655 14.2565 36.1598 13.9657 36.2924 13.6457C36.425 13.3256 36.4932 12.9826 36.4932 12.6362C36.4932 12.2898 36.425 11.9468 36.2924 11.6268C36.1598 11.3067 35.9655 11.0159 35.7206 10.771C35.4756 10.526 35.1848 10.3317 34.8648 10.1992C34.5448 10.0666 34.2018 9.99838 33.8553 9.99838C33.5089 9.99838 33.1659 10.0666 32.8459 10.1992C32.5259 10.3317 32.2351 10.526 31.9901 10.771L30.3555 12.3955C29.9971 12.7601 29.7501 13.2193 29.6435 13.7193C28.5645 13.0005 27.3604 12.4903 26.0936 12.215C26.3659 11.7898 26.512 11.296 26.5147 10.791V8.48457C26.4733 7.8119 26.1768 7.18036 25.6859 6.71869C25.1949 6.25703 24.5463 6 23.8723 6C23.1984 6 22.5498 6.25703 22.0588 6.71869C21.5678 7.18036 21.2714 7.8119 21.2299 8.48457V10.791C21.2313 11.2931 21.3775 11.7841 21.6511 12.205C20.3764 12.4746 19.1626 12.9778 18.0711 13.6892C17.9678 13.1989 17.7238 12.7494 17.3691 12.3955L15.6944 10.771C15.1997 10.2763 14.5287 9.99838 13.8292 9.99838C13.1296 9.99838 12.4586 10.2763 11.9639 10.771C11.4692 11.2657 11.1913 11.9366 11.1913 12.6362C11.1913 13.3358 11.4692 14.0068 11.9639 14.5015L13.5885 16.136C13.9447 16.493 14.3981 16.7371 14.8921 16.838C14.1765 17.9321 13.6699 19.1494 13.3979 20.4281C12.977 20.1545 12.486 20.0082 11.984 20.0069H9.6775C9.00483 20.0484 8.37329 20.3448 7.91163 20.8358C7.44996 21.3268 7.19293 21.9754 7.19293 22.6493C7.19293 23.3233 7.44996 23.9718 7.91163 24.4628C8.37329 24.9538 9.00483 25.2503 9.6775 25.2917H11.984C12.4899 25.3039 12.9883 25.1679 13.418 24.9006C13.6828 26.1799 14.1863 27.3979 14.9022 28.4907C14.4052 28.5975 13.9493 28.8446 13.5885 29.2027L11.9639 30.7972C11.4692 31.2919 11.1913 31.9628 11.1913 32.6624C11.1913 33.362 11.4692 34.033 11.9639 34.5277C12.4586 35.0223 13.1296 35.3003 13.8292 35.3003C14.5287 35.3003 15.1997 35.0223 15.6944 34.5277L17.329 32.9231C17.7012 32.5565 17.959 32.0897 18.0711 31.5794L18.4722 31.8602V32.863H29.2424V31.8602L29.6435 31.5794C29.7426 32.0879 29.9904 32.5556 30.3555 32.9231L31.9901 34.5577C32.2351 34.8027 32.5259 34.997 32.8459 35.1295C33.1659 35.2621 33.5089 35.3303 33.8553 35.3303C34.2018 35.3303 34.5448 35.2621 34.8648 35.1295C35.1848 34.997 35.4756 34.8027 35.7206 34.5577C35.9655 34.3128 36.1598 34.022 36.2924 33.702C36.425 33.3819 36.4932 33.0389 36.4932 32.6925C36.4932 32.3461 36.425 32.0031 36.2924 31.683C36.1598 31.363 35.9655 31.0722 35.7206 30.8273L34.1161 29.1626C33.7605 28.8029 33.3072 28.5554 32.8124 28.4506C33.5092 27.3657 34.002 26.1626 34.2665 24.9006C34.6887 25.1807 35.1838 25.3306 35.6905 25.3318H37.997C38.3577 25.3541 38.7191 25.3022 39.059 25.1795C39.3989 25.0567 39.7101 24.8657 39.9734 24.6182C40.2366 24.3706 40.4464 24.0718 40.5899 23.7401C40.7333 23.4084 40.8073 23.0508 40.8073 22.6894C40.8073 22.328 40.7333 21.9705 40.5899 21.6388C40.4464 21.3071 40.2366 21.0082 39.9734 20.7607C39.7101 20.5131 39.3989 20.3221 39.059 20.1994C38.7191 20.0766 38.3577 20.0248 37.997 20.047V20.0069ZM25.7125 16.136L25.6423 25.9035H22.0823L22.0021 16.136H25.7125ZM23.8372 30.0451C23.4525 30.0451 23.0763 29.931 22.7564 29.7172C22.4365 29.5034 22.1871 29.1996 22.0399 28.8441C21.8926 28.4886 21.8541 28.0975 21.9292 27.7201C22.0042 27.3427 22.1895 26.996 22.4616 26.724C22.7337 26.4519 23.0803 26.2666 23.4577 26.1915C23.8351 26.1165 24.2262 26.155 24.5817 26.3022C24.9372 26.4495 25.2411 26.6988 25.4548 27.0188C25.6686 27.3387 25.7827 27.7148 25.7827 28.0996C25.7827 28.6156 25.5777 29.1104 25.2129 29.4753C24.848 29.8401 24.3532 30.0451 23.8372 30.0451Z" fill="black"/>
</svg>
