<svg width="48" height="48" viewBox="0 0 48 48" fill="none" xmlns="http://www.w3.org/2000/svg">
<path d="M29.2423 34.6279H18.442V35.5505H29.2423V34.6279Z" fill="black"/>
<path d="M20.5278 39.9428C20.8326 40.5603 21.304 41.0803 21.8888 41.4438C22.4736 41.8073 23.1485 42 23.8371 42C24.5257 42 25.2006 41.8073 25.7854 41.4438C26.3702 41.0803 26.8417 40.5603 27.1464 39.9428C27.7227 39.787 28.2348 39.4527 28.6095 38.9879C28.9842 38.5232 29.2022 37.9518 29.2323 37.3556H18.452C18.4814 37.9505 18.698 38.5209 19.0707 38.9855C19.4435 39.4501 19.9534 39.7852 20.5278 39.9428Z" fill="black"/>
<path d="M37.9968 20.0069H35.6904C35.1885 20.0094 34.6978 20.1555 34.2764 20.4281C33.9941 19.1634 33.4844 17.9606 32.7722 16.8781C33.2842 16.7706 33.7523 16.5121 34.116 16.136L35.7205 14.5015C35.9654 14.2565 36.1597 13.9657 36.2923 13.6457C36.4248 13.3256 36.4931 12.9826 36.4931 12.6362C36.4931 12.2898 36.4248 11.9468 36.2923 11.6268C36.1597 11.3067 35.9654 11.0159 35.7205 10.771C35.4755 10.526 35.1847 10.3317 34.8647 10.1992C34.5446 10.0666 34.2016 9.99838 33.8552 9.99838C33.5088 9.99838 33.1658 10.0666 32.8458 10.1992C32.5257 10.3317 32.2349 10.526 31.99 10.771L30.3554 12.3955C29.997 12.7601 29.75 13.2193 29.6434 13.7193C28.5644 13.0005 27.3603 12.4903 26.0934 12.215C26.3658 11.7898 26.5118 11.296 26.5146 10.791V8.48457C26.4732 7.8119 26.1767 7.18036 25.6857 6.71869C25.1947 6.25703 24.5462 6 23.8722 6C23.1983 6 22.5497 6.25703 22.0587 6.71869C21.5677 7.18036 21.2713 7.8119 21.2298 8.48457V10.791C21.2311 11.2931 21.3774 11.7841 21.651 12.205C20.3763 12.4746 19.1625 12.9778 18.0709 13.6892C17.9677 13.1989 17.7237 12.7494 17.369 12.3955L15.6943 10.771C15.1996 10.2763 14.5286 9.99838 13.829 9.99838C13.1294 9.99838 12.4585 10.2763 11.9638 10.771C11.4691 11.2657 11.1912 11.9366 11.1912 12.6362C11.1912 13.3358 11.4691 14.0068 11.9638 14.5015L13.5884 16.136C13.9445 16.493 14.3979 16.7371 14.892 16.838C14.1764 17.9321 13.6698 19.1494 13.3978 20.4281C12.9769 20.1545 12.4859 20.0082 11.9839 20.0069H9.67738C9.00471 20.0484 8.37317 20.3448 7.9115 20.8358C7.44984 21.3268 7.19281 21.9754 7.19281 22.6493C7.19281 23.3233 7.44984 23.9718 7.9115 24.4628C8.37317 24.9538 9.00471 25.2503 9.67738 25.2917H11.9839C12.4898 25.3039 12.9882 25.1679 13.4179 24.9006C13.6827 26.1799 14.1862 27.3979 14.902 28.4907C14.4051 28.5975 13.9491 28.8446 13.5884 29.2027L11.9638 30.7972C11.4691 31.2919 11.1912 31.9628 11.1912 32.6624C11.1912 33.362 11.4691 34.033 11.9638 34.5277C12.4585 35.0223 13.1294 35.3003 13.829 35.3003C14.5286 35.3003 15.1996 35.0223 15.6943 34.5277L17.3288 32.9231C17.7011 32.5565 17.9589 32.0897 18.0709 31.5794L18.4721 31.8602V32.863H29.2423V31.8602L29.6434 31.5794C29.7425 32.0879 29.9903 32.5556 30.3554 32.9231L31.99 34.5577C32.2349 34.8027 32.5257 34.997 32.8458 35.1295C33.1658 35.2621 33.5088 35.3303 33.8552 35.3303C34.2016 35.3303 34.5446 35.2621 34.8647 35.1295C35.1847 34.997 35.4755 34.8027 35.7205 34.5577C35.9654 34.3128 36.1597 34.022 36.2923 33.702C36.4248 33.3819 36.4931 33.0389 36.4931 32.6925C36.4931 32.3461 36.4248 32.0031 36.2923 31.683C36.1597 31.363 35.9654 31.0722 35.7205 30.8273L34.116 29.1626C33.7603 28.8029 33.3071 28.5554 32.8123 28.4506C33.5091 27.3657 34.0019 26.1626 34.2664 24.9006C34.6886 25.1807 35.1837 25.3306 35.6904 25.3318H37.9968C38.3575 25.3541 38.719 25.3022 39.0589 25.1795C39.3988 25.0567 39.7099 24.8657 39.9732 24.6182C40.2365 24.3706 40.4463 24.0718 40.5897 23.7401C40.7332 23.4084 40.8071 23.0508 40.8071 22.6894C40.8071 22.328 40.7332 21.9705 40.5897 21.6388C40.4463 21.3071 40.2365 21.0082 39.9732 20.7607C39.7099 20.5131 39.3988 20.3221 39.0589 20.1994C38.719 20.0766 38.3575 20.0248 37.9968 20.047V20.0069ZM23.9575 18.0915C22.7508 18.0942 21.5943 18.5747 20.7411 19.4279C19.8878 20.2812 19.4073 21.4376 19.4047 22.6443C19.423 22.8866 19.3911 23.1301 19.3109 23.3594C19.2308 23.5888 19.1041 23.7992 18.9389 23.9773C18.7737 24.1555 18.5735 24.2976 18.3508 24.3948C18.1281 24.492 17.8877 24.5422 17.6447 24.5422C17.4018 24.5422 17.1614 24.492 16.9387 24.3948C16.716 24.2976 16.5158 24.1555 16.3506 23.9773C16.1854 23.7992 16.0587 23.5888 15.9786 23.3594C15.8984 23.1301 15.8665 22.8866 15.8848 22.6443C15.9005 20.5215 16.7508 18.49 18.2519 16.9889C19.7531 15.4878 21.7845 14.6375 23.9073 14.6218C24.1496 14.6035 24.3931 14.6354 24.6224 14.7156C24.8518 14.7957 25.0622 14.9224 25.2403 15.0876C25.4185 15.2528 25.5606 15.453 25.6578 15.6757C25.755 15.8984 25.8052 16.1388 25.8052 16.3817C25.8052 16.6247 25.755 16.8651 25.6578 17.0878C25.5606 17.3105 25.4185 17.5107 25.2403 17.6759C25.0622 17.8411 24.8518 17.9678 24.6224 18.0479C24.3931 18.128 24.1496 18.16 23.9073 18.1417L23.9575 18.0915Z" fill="black"/>
</svg>
