<svg width="48" height="48" viewBox="0 0 48 48" fill="none" xmlns="http://www.w3.org/2000/svg">
<path fill-rule="evenodd" clip-rule="evenodd" d="M36.6 36.58H31.38V28.41C31.38 26.46 31.38 23.95 28.67 23.95C25.96 23.95 25.53 26.08 25.53 28.27V36.58H20.31V19.77H25.31V22.07H25.38C25.8842 21.214 26.6103 20.5102 27.4817 20.0332C28.3531 19.5561 29.3372 19.3235 30.33 19.36C35.61 19.36 36.59 22.84 36.59 27.36L36.6 36.58ZM14.43 17.48C13.8367 17.48 13.2566 17.3041 12.7633 16.9744C12.2699 16.6448 11.8854 16.1762 11.6584 15.628C11.4313 15.0799 11.3719 14.4767 11.4876 13.8947C11.6034 13.3128 11.8891 12.7782 12.3087 12.3587C12.7282 11.9391 13.2628 11.6534 13.8447 11.5376C14.4267 11.4219 15.0299 11.4813 15.5781 11.7084C16.1262 11.9354 16.5948 12.3199 16.9244 12.8133C17.2541 13.3066 17.43 13.8867 17.43 14.48C17.43 15.2756 17.1139 16.0387 16.5513 16.6013C15.9887 17.1639 15.2256 17.48 14.43 17.48ZM11.81 36.58H17V19.77H11.81V36.58ZM40 6H8C7.46957 6 6.96086 6.21071 6.58579 6.58579C6.21071 6.96086 6 7.46957 6 8V40C6 40.5304 6.21071 41.0391 6.58579 41.4142C6.96086 41.7893 7.46957 42 8 42H40C40.5304 42 41.0391 41.7893 41.4142 41.4142C41.7893 41.0391 42 40.5304 42 40V8C42 7.46957 41.7893 6.96086 41.4142 6.58579C41.0391 6.21071 40.5304 6 40 6Z" fill="black"/>
</svg>
