<svg width="48" height="48" viewBox="0 0 48 48" fill="none" xmlns="http://www.w3.org/2000/svg">
<path d="M39.5701 8.42995C38.7993 7.65892 37.8842 7.04729 36.877 6.63C35.8698 6.21271 34.7903 5.99792 33.7001 5.99792C32.6099 5.99792 31.5303 6.21271 30.5231 6.63C29.516 7.04729 28.6008 7.65892 27.8301 8.42995L20.5601 15.7C20.2291 16.0332 19.9961 16.4512 19.8868 16.908C19.7774 17.3648 19.7959 17.8429 19.9401 18.29C18.3327 18.6087 16.8566 19.399 15.7001 20.56L8.43008 27.83C7.26889 28.9907 6.47807 30.4698 6.15764 32.0801C5.83722 33.6905 6.00159 35.3596 6.62996 36.8765C7.25834 38.3934 8.32248 39.6898 9.68778 40.6018C11.0531 41.5138 12.6582 42.0004 14.3001 42C15.3906 42.0035 16.4711 41.7906 17.4787 41.3734C18.4863 40.9563 19.4011 40.3433 20.1701 39.57L27.4401 32.3C27.7719 31.9651 28.0053 31.5455 28.1147 31.0869C28.224 30.6283 28.2051 30.1485 28.0601 29.7C29.6682 29.3892 31.1456 28.6017 32.3001 27.44L39.5701 20.17C40.3411 19.3992 40.9527 18.4841 41.37 17.4769C41.7873 16.4697 42.0021 15.3902 42.0021 14.3C42.0021 13.2097 41.7873 12.1302 41.37 11.123C40.9527 10.1158 40.3411 9.20072 39.5701 8.42995ZM16.5701 35.93C15.9687 36.5063 15.168 36.8281 14.3351 36.8281C13.5021 36.8281 12.7014 36.5063 12.1001 35.93C11.8053 35.6372 11.5713 35.289 11.4117 34.9054C11.252 34.5218 11.1698 34.1104 11.1698 33.695C11.1698 33.2795 11.252 32.8681 11.4117 32.4845C11.5713 32.1009 11.8053 31.7527 12.1001 31.46L19.3601 24.2C19.8959 23.6678 20.6065 23.348 21.3601 23.3C21.089 23.4219 20.8417 23.5912 20.6301 23.8C20.1489 24.2834 19.8787 24.9378 19.8787 25.62C19.8787 26.3021 20.1489 26.9565 20.6301 27.44C21.3995 28.204 22.3096 28.8119 23.3101 29.23L16.5701 35.93ZM35.9301 16.54L28.6701 23.8C28.1343 24.3321 27.4237 24.6519 26.6701 24.7C26.9392 24.5744 27.1858 24.4055 27.4001 24.2C27.8813 23.7165 28.1514 23.0621 28.1514 22.38C28.1514 21.6978 27.8813 21.0434 27.4001 20.56C26.6324 19.7937 25.7219 19.1856 24.7201 18.77L31.4301 12.07C32.0285 11.4919 32.8281 11.1689 33.6601 11.1689C34.4921 11.1689 35.2916 11.4919 35.8901 12.07C36.1849 12.3627 36.4188 12.7109 36.5785 13.0945C36.7381 13.4781 36.8203 13.8895 36.8203 14.305C36.8203 14.7204 36.7381 15.1318 36.5785 15.5154C36.4188 15.899 36.1849 16.2472 35.8901 16.54H35.9301Z" fill="black"/>
</svg>
