<svg width="48" height="48" viewBox="0 0 48 48" fill="none" xmlns="http://www.w3.org/2000/svg">
<path fill-rule="evenodd" clip-rule="evenodd" d="M10.3128 6.05983C11.1682 6.05785 12.005 6.3097 12.7171 6.78349C13.4293 7.25728 13.985 7.93172 14.3137 8.72143C14.6424 9.51114 14.7294 10.3806 14.5637 11.2198C14.3981 12.059 13.9872 12.8302 13.383 13.4358C12.7789 14.0413 12.0086 14.454 11.1698 14.6216C10.331 14.7892 9.46132 14.7042 8.67085 14.3773C7.88038 14.0504 7.20466 13.4964 6.72922 12.7853C6.25378 12.0742 6 11.238 6 10.3826C6 9.23787 6.45406 8.13986 7.26259 7.32947C8.07111 6.51907 9.16807 6.06247 10.3128 6.05983ZM6.58902 41.94V17.98H14.0466V41.94H6.58902ZM18.7088 17.98H25.8569V21.2545H25.9667C26.6841 20.0349 27.7178 19.0319 28.9586 18.3518C30.1994 17.6716 31.601 17.3396 33.015 17.3909C40.5624 17.3909 42 22.3826 42 28.8019V41.94H34.4925V30.2795C34.4925 27.5041 34.4426 23.93 30.629 23.93C26.8153 23.93 26.1564 26.925 26.1564 30.0798V41.94H18.7088V17.98Z" fill="black"/>
</svg>
