<svg width="48" height="48" viewBox="0 0 48 48" fill="none" xmlns="http://www.w3.org/2000/svg">
<path d="M26.6671 28.8997C25.6713 28.903 24.6846 28.709 23.7642 28.3288C22.8437 27.9486 22.0077 27.3898 21.3045 26.6846C21.1762 26.553 21.075 26.3974 21.0068 26.2267C20.9386 26.0559 20.9047 25.8735 20.9071 25.6896C20.9094 25.5058 20.9479 25.3243 21.0204 25.1553C21.0929 24.9864 21.198 24.8334 21.3296 24.705C21.4612 24.5767 21.6168 24.4755 21.7876 24.4074C21.9583 24.3392 22.1408 24.3053 22.3246 24.3076C22.5084 24.3099 22.69 24.3484 22.8589 24.4209C23.0279 24.4934 23.1809 24.5985 23.3092 24.7301C24.2108 25.6268 25.4307 26.1301 26.7022 26.1301C27.9738 26.1301 29.1937 25.6268 30.0952 24.7301L37.9436 16.882C38.7926 15.972 39.255 14.7679 39.2334 13.5236C39.2118 12.2793 38.7078 11.0921 37.8278 10.2121C36.9478 9.33212 35.7605 8.82821 34.5162 8.80661C33.2718 8.78501 32.0677 9.24739 31.1577 10.0963L23.2691 17.9444C23.0033 18.2102 22.6428 18.3596 22.2668 18.3596C21.8908 18.3596 21.5303 18.2102 21.2644 17.9444C20.9986 17.6786 20.8492 17.318 20.8492 16.9421C20.8492 16.5662 20.9986 16.2056 21.2644 15.9398L29.153 8.13175C30.5818 6.74938 32.4966 5.98386 34.4847 6.00026C36.4727 6.01665 38.3747 6.81365 39.7805 8.2194C41.1863 9.62515 41.9833 11.527 41.9997 13.515C42.0161 15.503 41.2506 17.4178 39.8682 18.8465L32.0598 26.6846C31.3537 27.3943 30.513 27.9558 29.587 28.3362C28.6609 28.7166 27.6682 28.9082 26.6671 28.8997Z" fill="black"/>
<path d="M13.5663 42C12.0693 41.9977 10.6064 41.5521 9.36234 40.7193C8.11829 39.8865 7.14879 38.7039 6.57619 37.3207C6.00358 35.9375 5.85354 34.4157 6.14498 32.9473C6.43643 31.479 7.1563 30.1298 8.21377 29.0701L16.0221 21.232C16.7236 20.5265 17.5576 19.9666 18.4762 19.5846C19.3947 19.2025 20.3798 19.0059 21.3747 19.0059C22.3696 19.0059 23.3547 19.2025 24.2732 19.5846C25.1918 19.9666 26.0258 20.5265 26.7273 21.232C26.8589 21.3636 26.9633 21.5199 27.0346 21.6919C27.1058 21.8639 27.1425 22.0482 27.1425 22.2343C27.1425 22.4205 27.1058 22.6048 27.0346 22.7768C26.9633 22.9488 26.8589 23.105 26.7273 23.2366C26.5956 23.3683 26.4394 23.4727 26.2674 23.5439C26.0954 23.6152 25.9111 23.6518 25.7249 23.6518C25.5388 23.6518 25.3544 23.6152 25.1825 23.5439C25.0105 23.4727 24.8542 23.3683 24.7226 23.2366C23.8223 22.3375 22.602 21.8325 21.3296 21.8325C20.0572 21.8325 18.8369 22.3375 17.9366 23.2366L10.1784 31.0347C9.32945 31.9446 8.86705 33.1487 8.88865 34.393C8.91026 35.6373 9.41419 36.8246 10.2942 37.7045C11.1742 38.5845 12.3615 39.0884 13.6059 39.11C14.8502 39.1316 16.0543 38.6692 16.9643 37.8203L24.8028 29.9722C25.0686 29.7064 25.4292 29.557 25.8051 29.557C26.1811 29.557 26.5416 29.7064 26.8075 29.9722C27.0733 30.238 27.2227 30.5986 27.2227 30.9745C27.2227 31.3505 27.0733 31.711 26.8075 31.9768L18.929 39.7849C18.2248 40.4887 17.3886 41.0466 16.4684 41.4268C15.5482 41.8069 14.562 42.0017 13.5663 42Z" fill="black"/>
</svg>
