<svg width="48" height="48" viewBox="0 0 48 48" fill="none" xmlns="http://www.w3.org/2000/svg">
<path fill-rule="evenodd" clip-rule="evenodd" d="M43.5101 27.0943C43.5801 27.0943 43.6501 27.0943 43.6501 27.0043C43.6501 26.9143 43.5801 26.9243 43.5301 26.9243H43.4201V27.0943H43.5101ZM43.5901 27.0943L43.7401 27.3242H43.6601L43.5101 27.0943H43.4201V27.3142H43.3502V26.8143H43.5401C43.6601 26.8143 43.7201 26.8143 43.7201 26.9543C43.7201 27.0943 43.6701 27.0943 43.5901 27.0943ZM43.5101 27.4842C43.5943 27.4882 43.6778 27.4667 43.7496 27.4226C43.8215 27.3785 43.8784 27.3138 43.913 27.2369C43.9475 27.1601 43.9582 27.0745 43.9435 26.9915C43.9288 26.9085 43.8894 26.8319 43.8306 26.7715C43.7717 26.7112 43.696 26.67 43.6134 26.6532C43.5308 26.6365 43.445 26.645 43.3673 26.6776C43.2896 26.7103 43.2235 26.7656 43.1777 26.8363C43.1318 26.9071 43.1083 26.99 43.1102 27.0743C43.1061 27.1297 43.1134 27.1854 43.1315 27.238C43.1497 27.2906 43.1783 27.3389 43.2157 27.3801C43.2531 27.4212 43.2985 27.4543 43.3491 27.4774C43.3997 27.5004 43.4545 27.5129 43.5101 27.5142V27.4842ZM43.5101 26.5944C43.6054 26.5924 43.6992 26.6188 43.7794 26.6704C43.8596 26.7219 43.9227 26.7961 43.9605 26.8836C43.9984 26.9711 44.0093 27.0679 43.992 27.1616C43.9746 27.2553 43.9297 27.3418 43.863 27.4099C43.7963 27.478 43.7108 27.5247 43.6175 27.5441C43.5241 27.5634 43.4271 27.5545 43.3389 27.5185C43.2506 27.4825 43.175 27.421 43.1219 27.3419C43.0687 27.2628 43.0403 27.1696 43.0402 27.0743C43.0454 26.9531 43.0972 26.8387 43.1847 26.7549C43.2723 26.671 43.3889 26.6243 43.5101 26.6244V26.5944ZM4 20.5459H5.50962V26.0945H8.30892V27.4942H4V20.5459ZM9.70857 20.4459C9.89277 20.4916 10.0564 20.5976 10.1733 20.7471C10.2902 20.8966 10.3538 21.0809 10.3538 21.2707C10.3538 21.4605 10.2902 21.6448 10.1733 21.7943C10.0564 21.9438 9.89277 22.0498 9.70857 22.0955C9.50036 22.0728 9.30786 21.9741 9.16802 21.8181C9.02817 21.6622 8.95082 21.4602 8.95082 21.2507C8.95082 21.0413 9.02817 20.8392 9.16802 20.6833C9.30786 20.5274 9.50036 20.4286 9.70857 20.4059V20.4459ZM8.99875 27.4542V22.7753H10.4384V27.4542H8.99875ZM16.5369 20.5459H17.9965V24.6749L19.6461 22.7653H21.3957L19.4861 24.9348L21.3557 27.4542H19.5261L17.9965 25.0948V27.4542H16.5169L16.5369 20.5459ZM11.2382 22.7753H12.6378V23.4152C12.7748 23.1776 12.9736 22.9816 13.2129 22.8478C13.4523 22.7141 13.7234 22.6476 13.9975 22.6554C15.4771 22.6554 15.7471 23.6551 15.7471 24.8848V27.4542H14.3274V25.1747C14.3274 24.6349 14.3274 23.9351 13.5676 23.9351C12.8078 23.9351 12.6978 24.5249 12.6978 25.0948V27.4542H11.2382V22.7753ZM25.6846 26.6444C25.4421 26.9391 25.1366 27.1757 24.7906 27.3366C24.4445 27.4975 24.0667 27.5787 23.6851 27.5741C23.0222 27.5741 22.3865 27.3108 21.9178 26.8421C21.449 26.3734 21.1857 25.7376 21.1857 25.0748C21.1857 24.4119 21.449 23.7762 21.9178 23.3074C22.3865 22.8387 23.0222 22.5754 23.6851 22.5754C24.0054 22.5676 24.3236 22.6299 24.6174 22.7579C24.9111 22.886 25.1733 23.0766 25.3857 23.3166C25.598 23.5566 25.7554 23.8401 25.8467 24.1472C25.9381 24.4543 25.9612 24.7777 25.9145 25.0948V25.5546H22.5354C22.5805 25.8123 22.716 26.0454 22.9176 26.2122C23.1191 26.3789 23.3735 26.4683 23.6351 26.4644C23.835 26.4557 24.03 26.3994 24.2038 26.3003C24.3777 26.2012 24.5254 26.0621 24.6348 25.8946L25.6846 26.6444ZM24.4549 24.5649C24.4576 24.4473 24.4365 24.3304 24.3927 24.2212C24.349 24.112 24.2835 24.0128 24.2004 23.9296C24.1172 23.8465 24.018 23.781 23.9088 23.7373C23.7996 23.6935 23.6827 23.6724 23.5651 23.6751C23.318 23.6736 23.079 23.7637 22.8944 23.928C22.7098 24.0924 22.5925 24.3192 22.5654 24.5649H24.4549ZM31.4531 27.4542H30.1035V26.8343C29.9364 27.0591 29.7193 27.242 29.4695 27.3686C29.2197 27.4953 28.9439 27.5622 28.6638 27.5641C28.3419 27.577 28.021 27.5208 27.7226 27.3994C27.4242 27.2781 27.1552 27.0943 26.9337 26.8604C26.7121 26.6266 26.5431 26.348 26.4381 26.0435C26.333 25.739 26.2942 25.4155 26.3244 25.0948C26.2957 24.7879 26.329 24.4783 26.4223 24.1846C26.5156 23.8908 26.667 23.6188 26.8675 23.3847C27.068 23.1506 27.3136 22.9592 27.5895 22.8219C27.8655 22.6846 28.1662 22.6042 28.4739 22.5854C28.7621 22.5604 29.0519 22.6076 29.3173 22.7228C29.5826 22.838 29.815 23.0176 29.9935 23.2452V20.5459H31.4531V27.4542ZM28.9937 23.9051C28.8317 23.8866 28.6676 23.9045 28.5133 23.9573C28.359 24.0101 28.2184 24.0966 28.1016 24.2105C27.9849 24.3244 27.8949 24.4628 27.8382 24.6157C27.7816 24.7687 27.7597 24.9323 27.7741 25.0948C27.759 25.2568 27.778 25.4202 27.8297 25.5744C27.8814 25.7287 27.9647 25.8705 28.0743 25.9908C28.1839 26.111 28.3174 26.2071 28.4663 26.2728C28.6151 26.3385 28.776 26.3725 28.9388 26.3725C29.1015 26.3725 29.2624 26.3385 29.4113 26.2728C29.5601 26.2071 29.6936 26.111 29.8032 25.9908C29.9128 25.8705 29.9962 25.7287 30.0479 25.5744C30.0996 25.4202 30.1185 25.2568 30.1035 25.0948C30.116 24.9421 30.0965 24.7885 30.0463 24.6438C29.996 24.4992 29.9161 24.3666 29.8116 24.2546C29.7072 24.1426 29.5804 24.0536 29.4396 23.9934C29.2988 23.9333 29.1469 23.9032 28.9937 23.9051ZM41.2507 27.4542V24.8848C41.2507 23.6251 40.9808 22.6554 39.5111 22.6554C39.2339 22.645 38.959 22.7102 38.716 22.8441C38.473 22.9779 38.2709 23.1753 38.1315 23.4152V22.7753H36.7318V27.4542H38.1915V25.0948C38.1915 24.4849 38.3014 23.8951 39.0612 23.8951C39.821 23.8951 39.821 24.5949 39.821 25.1348V27.4542H41.2507ZM35.0722 22.0955C35.2407 22.0975 35.406 22.0493 35.547 21.9572C35.6881 21.865 35.7986 21.733 35.8644 21.5779C35.9303 21.4228 35.9485 21.2516 35.9169 21.0862C35.8852 20.9207 35.8051 20.7683 35.6867 20.6485C35.5682 20.5286 35.4168 20.4467 35.2517 20.4131C35.0866 20.3795 34.9152 20.3957 34.7594 20.4597C34.6035 20.5237 34.4702 20.6326 34.3764 20.7726C34.2826 20.9125 34.2325 21.0772 34.2324 21.2457C34.2324 21.4694 34.3206 21.684 34.4778 21.8431C34.635 22.0022 34.8486 22.0929 35.0722 22.0955ZM34.3524 27.4142H35.802V22.7753H34.3524V27.4142ZM41.9905 19.0963C42.0846 19.0949 42.1779 19.1123 42.2652 19.1474C42.3525 19.1825 42.4319 19.2346 42.4989 19.3006C42.5659 19.3666 42.6191 19.4453 42.6553 19.5321C42.6916 19.6189 42.7103 19.712 42.7103 19.8061V28.194C42.7103 28.288 42.6916 28.3812 42.6553 28.468C42.6191 28.5547 42.5659 28.6334 42.4989 28.6995C42.4319 28.7655 42.3525 28.8176 42.2652 28.8527C42.1779 28.8878 42.0846 28.9051 41.9905 28.9038H33.6226C33.5281 28.9051 33.4342 28.8878 33.3464 28.8529C33.2585 28.8179 33.1784 28.766 33.1107 28.7001C33.0429 28.6342 32.9888 28.5555 32.9514 28.4687C32.914 28.3819 32.8941 28.2885 32.8928 28.194V19.8061C32.8941 19.7116 32.914 19.6182 32.9514 19.5314C32.9888 19.4445 33.0429 19.3659 33.1107 19.3C33.1784 19.2341 33.2585 19.1822 33.3464 19.1472C33.4342 19.1123 33.5281 19.0949 33.6226 19.0963H41.9905Z" fill="black"/>
</svg>
