<svg width="48" height="48" viewBox="0 0 48 48" fill="none" xmlns="http://www.w3.org/2000/svg">
<path fill-rule="evenodd" clip-rule="evenodd" d="M20.4225 16.4465C20.6002 16.6265 20.7906 16.7935 20.9923 16.9463C21.5239 17.4078 22.198 17.6725 22.9016 17.696C23.6946 17.624 24.4589 17.3635 25.1309 16.9363C25.4897 16.7302 25.8249 16.4855 26.1306 16.2065C26.4105 15.9666 26.5504 15.7667 26.3505 15.7367C26.1505 15.7067 26.1705 15.9266 25.9306 16.0966C25.6103 16.3447 25.2766 16.5749 24.931 16.7864C24.2982 17.1894 23.5786 17.4361 22.8317 17.5061C22.2055 17.4741 21.6077 17.235 21.1322 16.8263C20.9442 16.6722 20.7641 16.5087 20.5924 16.3365C20.4825 16.2365 20.4525 16.0166 20.2825 15.9966C20.1126 15.9766 20.1826 16.2565 20.4225 16.4465ZM38.4164 36.4397C38.3564 37.6193 35.5174 37.8392 33.9779 39.7086C33.2264 40.6813 32.1256 41.3231 30.9089 41.498C30.4206 41.5544 29.927 41.4529 29.5006 41.2082C29.0742 40.9635 28.7374 40.5886 28.5397 40.1385C28.2775 39.3041 28.3057 38.4056 28.6197 37.5893C28.9339 36.662 29.1647 35.7086 29.3095 34.7403C29.3297 33.8269 29.43 32.917 29.6094 32.0212C29.6569 31.7149 29.7711 31.4228 29.9438 31.1655C30.1166 30.9081 30.3436 30.6918 30.609 30.5317H30.679C30.6629 30.9698 30.7805 31.4024 31.0162 31.7721C31.2519 32.1417 31.5946 32.4308 31.9986 32.601C32.5059 32.6326 33.0137 32.5461 33.482 32.3483C33.9503 32.1506 34.3664 31.847 34.6977 31.4614C34.973 31.4064 35.2569 31.41 35.5307 31.472C35.8046 31.534 36.0623 31.653 36.2871 31.8213C36.9869 32.4111 36.787 33.9505 37.4967 34.7403C38.2065 35.53 38.3964 36.0798 38.3764 36.4397H38.4164ZM20.3225 37.2494C20.0176 36.7697 19.6838 36.309 19.3229 35.8699C19.5595 35.9035 19.8007 35.8605 20.0111 35.7472C20.2216 35.6339 20.3903 35.4562 20.4925 35.2401C20.5509 34.9282 20.5342 34.6068 20.4438 34.3026C20.3534 33.9984 20.1919 33.7201 19.9726 33.4907C19.1993 32.5773 18.2723 31.8059 17.2336 31.2115C16.4196 30.747 15.8043 30 15.5041 29.1122C15.2888 28.2998 15.2888 27.4454 15.5041 26.633C15.9211 25.1562 16.5652 23.7532 17.4135 22.4744C17.5734 22.3545 17.4735 22.6944 16.8037 23.9339C16.1339 25.1735 15.0943 27.6827 16.6238 29.732C16.6846 28.2395 17.0236 26.7715 17.6234 25.4034C18.4631 23.4841 20.2425 20.1452 20.3825 17.4861L20.8223 17.776C21.1319 17.9952 21.4259 18.2357 21.7021 18.4958C22.1305 18.8216 22.6505 19.0046 23.1887 19.019C23.7268 19.0333 24.2558 18.8783 24.701 18.5757C25.0379 18.3599 25.3886 18.1662 25.7507 17.9959C26.3666 17.8376 26.9162 17.4875 27.3202 16.9963C27.9685 19.32 28.8458 21.5736 29.9393 23.724C30.7156 25.1446 31.2717 26.6749 31.5887 28.2625C31.8488 28.2581 32.1081 28.2918 32.3584 28.3624C33.3581 25.8533 31.5387 23.1442 30.719 22.3645C30.3891 22.0346 30.3791 21.8946 30.5391 21.9046C31.7301 23.0083 32.5859 24.4254 33.0082 25.9932C33.2135 26.817 33.2135 27.6786 33.0082 28.5024C34.1678 28.9822 35.5374 29.762 35.1675 30.9416H34.8776C35.0975 30.2318 34.5977 29.712 33.2681 29.1122C31.9386 28.5124 30.739 28.5124 30.5791 29.9919C30.1929 30.1576 29.8564 30.4206 29.6024 30.7553C29.3483 31.09 29.1854 31.4848 29.1295 31.9012C28.9367 32.8222 28.8329 33.7595 28.8196 34.7003C28.7179 35.3794 28.5573 36.0483 28.3398 36.6996C26.0606 38.3491 22.9316 39.0488 20.2825 37.2494H20.3225ZM20.4225 39.0688C20.1926 41.538 17.2935 41.488 15.1343 40.3284C12.975 39.1688 10.2659 39.8785 9.7161 38.7889C9.54227 38.1883 9.60672 37.5438 9.89604 36.9895C10.0207 36.4366 10.0207 35.863 9.89604 35.3101C9.77064 34.8486 9.7916 34.3596 9.95602 33.9106C10.0609 33.7174 10.2034 33.5471 10.3751 33.4098C10.5468 33.2724 10.7442 33.1708 10.9557 33.1108C11.4648 32.9965 11.9383 32.7597 12.3352 32.4211C12.7251 32.0212 13.005 31.5114 13.3349 31.1515C13.4762 30.9639 13.6672 30.8195 13.8862 30.7348C14.1053 30.65 14.3437 30.6281 14.5745 30.6717C15.2128 30.8012 15.7736 31.1787 16.1339 31.7213L17.5135 34.2305C18.1333 35.62 20.5324 37.6293 20.3825 39.0688H20.4225ZM20.1326 15.5968L21.1322 14.857C21.3789 14.562 21.6838 14.3209 22.0278 14.1489C22.3718 13.9769 22.7475 13.8777 23.1316 13.8573C23.7868 13.8835 24.4198 14.1026 24.951 14.4871C25.4661 14.7381 25.997 14.9551 26.5404 15.1369C27.1302 15.3868 27.5401 15.8167 27.2802 16.4165C27.1222 16.7319 26.8973 17.009 26.621 17.2283C26.3447 17.4476 26.0237 17.6038 25.6807 17.686C24.901 17.946 24.2912 18.8157 23.0016 18.7357C22.7676 18.7292 22.5369 18.6783 22.3218 18.5857C21.762 18.3458 21.4721 17.856 20.9223 17.5361C20.4675 17.3116 20.1116 16.9272 19.9227 16.4565C19.8635 16.3092 19.8519 16.1471 19.8895 15.9929C19.9272 15.8387 20.0122 15.7002 20.1326 15.5968ZM21.1322 11.3282C21.842 11.3282 22.5918 12.3279 22.4718 13.6774C22.2094 13.7428 21.9594 13.8509 21.732 13.9973C21.822 13.3675 21.5021 12.5778 21.0623 12.6178C20.4725 12.6178 20.3725 14.1073 20.9323 14.6171C21.0023 14.6671 21.0623 14.6171 20.5125 14.997C19.4228 13.9973 19.7827 11.3282 21.1322 11.3282ZM23.9913 12.1379C24.0891 11.8041 24.2925 11.511 24.5709 11.3024C24.8494 11.0939 25.1879 10.9812 25.5358 10.9812C25.8836 10.9812 26.2221 11.0939 26.5006 11.3024C26.779 11.511 26.9824 11.8041 27.0802 12.1379C27.2907 12.5988 27.372 13.1082 27.3157 13.6117C27.2594 14.1152 27.0674 14.594 26.7603 14.997C26.4709 14.8659 26.1738 14.7524 25.8706 14.6571C25.9789 14.5467 26.0668 14.4181 26.1306 14.2772C26.4604 13.4475 26.1306 12.3778 25.4908 12.3579C24.851 12.3379 24.4911 13.1176 24.6611 13.9773C24.3659 13.8429 24.0577 13.739 23.7414 13.6674C23.67 13.1461 23.7498 12.6152 23.9713 12.1379H23.9913ZM37.7866 34.3804C37.5062 33.9638 37.325 33.4884 37.2568 32.9909C37.1889 32.4008 36.929 31.8493 36.517 31.4214C36.4329 31.3427 36.3388 31.2755 36.2371 31.2215C36.1478 31.161 36.0502 31.1138 35.9472 31.0815C36.5214 29.2531 36.4294 27.2804 35.6873 25.5134C34.8921 23.603 33.7877 21.8366 32.4184 20.2852C31.2188 18.7757 30.0492 17.3462 30.0792 15.2269C30.1292 11.998 30.4291 6 24.751 6C17.5535 6 19.3528 13.2675 19.2729 15.5068C19.214 17.1439 18.6637 18.7253 17.6934 20.0453C15.9416 22.0533 14.5576 24.3544 13.6048 26.843C13.151 28.0371 12.9899 29.3225 13.1349 30.5917C12.6751 31.0015 12.3352 31.5913 11.9653 32.0112C11.6169 32.2906 11.2105 32.4887 10.7757 32.591C10.2267 32.7429 9.75749 33.1011 9.46619 33.5907C9.33487 33.8614 9.26977 34.1595 9.27625 34.4604C9.28258 34.7385 9.30931 35.0159 9.35623 35.2901C9.47774 35.7705 9.49816 36.2709 9.41621 36.7596C9.2466 37.1038 9.14853 37.4788 9.12791 37.8619C9.10729 38.2451 9.16456 38.6284 9.29625 38.9888C9.45292 39.2297 9.66193 39.4321 9.90772 39.581C10.1535 39.7298 10.4297 39.8213 10.7158 39.8486C11.9254 40.0985 13.5848 40.0385 14.8844 40.7283C16.0688 41.422 17.4584 41.6801 18.813 41.458C19.2069 41.3819 19.5771 41.2136 19.8933 40.9669C20.2095 40.7201 20.4628 40.402 20.6324 40.0385C21.5121 40.0385 22.4818 39.6586 24.0213 39.5786C25.0209 39.4887 26.3905 39.9485 27.9 39.8586C27.9359 40.0251 27.993 40.1863 28.0699 40.3384C28.3128 40.8745 28.7168 41.3215 29.2256 41.6171C29.7345 41.9128 30.3229 42.0424 30.9089 41.9878C31.5778 41.8946 32.2215 41.67 32.8032 41.3268C33.3848 40.9837 33.8927 40.5288 34.2978 39.9885C35.2975 38.8289 36.8269 38.3591 37.8766 37.7193C38.1362 37.6056 38.3635 37.4291 38.538 37.2058C38.7125 36.9824 38.8288 36.7192 38.8762 36.4397C38.7961 35.6288 38.4057 34.8802 37.7866 34.3504V34.3804ZM22.2219 14.787C22.3118 14.787 22.3618 14.6971 22.4318 14.6671C22.5018 14.6371 22.6517 14.6671 22.6817 14.5571C22.6899 14.5454 22.6943 14.5314 22.6943 14.5171C22.6943 14.5028 22.6899 14.4889 22.6817 14.4771C22.6204 14.4499 22.5539 14.4358 22.4868 14.4358C22.4196 14.4358 22.3532 14.4499 22.2919 14.4771C22.2019 14.4771 22.0519 14.5771 22.0719 14.6771C22.0919 14.777 22.1319 14.797 22.2219 14.787ZM23.7614 14.6671C23.8313 14.6671 23.8913 14.787 23.9713 14.787C24.0513 14.787 24.1712 14.787 24.1812 14.6771C24.1912 14.5671 24.0413 14.5171 23.9513 14.4771C23.8916 14.4501 23.8269 14.4361 23.7614 14.4361C23.6958 14.4361 23.6311 14.4501 23.5714 14.4771C23.5714 14.4771 23.5114 14.4771 23.5714 14.5571C23.6314 14.6371 23.6914 14.6271 23.7614 14.6671Z" fill="black"/>
</svg>
