<svg width="48" height="48" viewBox="0 0 48 48" fill="none" xmlns="http://www.w3.org/2000/svg">
<path d="M40.4972 17.9151H11.1539C10.7838 17.9151 10.4289 17.7681 10.1672 17.5064C9.90551 17.2447 9.7585 16.8898 9.7585 16.5197C9.7585 16.1496 9.90551 15.7947 10.1672 15.533C10.4289 15.2713 10.7838 15.1243 11.1539 15.1243H40.4972C40.8646 15.1243 41.217 15.2703 41.4768 15.5301C41.7366 15.7899 41.8826 16.1423 41.8826 16.5097C41.8826 16.8772 41.7366 17.2296 41.4768 17.4894C41.217 17.7492 40.8646 17.8952 40.4972 17.8952V17.9151Z" fill="black"/>
<path d="M7.40626 17.955C7.03865 17.955 6.68565 17.8111 6.42294 17.554C6.16022 17.2968 6.00871 16.947 6.00089 16.5795C5.99423 16.3925 6.02501 16.206 6.0914 16.031C6.15779 15.856 6.25847 15.696 6.38752 15.5605C6.51657 15.4249 6.6714 15.3165 6.84292 15.2416C7.01443 15.1667 7.19918 15.1268 7.38632 15.1243C7.57088 15.1217 7.75415 15.1554 7.92567 15.2236C8.09719 15.2918 8.25359 15.3931 8.38595 15.5218C8.5183 15.6504 8.62402 15.8039 8.69705 15.9734C8.77009 16.1429 8.80902 16.3252 8.81162 16.5097C8.82238 16.8808 8.68587 17.2411 8.43189 17.5119C8.17792 17.7827 7.82711 17.9419 7.45609 17.955H7.40626Z" fill="black"/>
<path d="M40.4972 25.3705H11.1539C10.9628 25.3868 10.7703 25.3632 10.5888 25.3012C10.4072 25.2392 10.2406 25.1401 10.0993 25.0104C9.958 24.8806 9.84521 24.7229 9.76805 24.5473C9.6909 24.3716 9.65106 24.1819 9.65106 23.9901C9.65106 23.7982 9.6909 23.6085 9.76805 23.4329C9.84521 23.2572 9.958 23.0995 10.0993 22.9697C10.2406 22.84 10.4072 22.741 10.5888 22.679C10.7703 22.617 10.9628 22.5934 11.1539 22.6096H40.4972C40.6883 22.5934 40.8807 22.617 41.0623 22.679C41.2438 22.741 41.4105 22.84 41.5518 22.9697C41.6931 23.0995 41.8059 23.2572 41.883 23.4329C41.9602 23.6085 42 23.7982 42 23.9901C42 24.1819 41.9602 24.3716 41.883 24.5473C41.8059 24.7229 41.6931 24.8806 41.5518 25.0104C41.4105 25.1401 41.2438 25.2392 41.0623 25.3012C40.8807 25.3632 40.6883 25.3868 40.4972 25.3705Z" fill="black"/>
<path d="M7.40625 25.4203C7.03696 25.4204 6.68248 25.2751 6.41949 25.0158C6.1565 24.7565 6.00613 24.4042 6.00089 24.0349C5.99559 23.8482 6.02729 23.6623 6.09418 23.4879C6.16106 23.3135 6.2618 23.1541 6.39059 23.0188C6.51938 22.8835 6.67367 22.7751 6.84456 22.6997C7.01546 22.6244 7.19958 22.5836 7.38632 22.5797C7.57088 22.5771 7.75415 22.6108 7.92567 22.679C8.09719 22.7472 8.25359 22.8485 8.38594 22.9772C8.5183 23.1058 8.62402 23.2593 8.69705 23.4288C8.77009 23.5983 8.80902 23.7806 8.81162 23.9651C8.81707 24.3328 8.67818 24.688 8.42477 24.9545C8.17135 25.2209 7.82359 25.3774 7.45609 25.3904L7.40625 25.4203Z" fill="black"/>
<path d="M40.4972 32.8259H11.1539C10.9628 32.8422 10.7703 32.8186 10.5888 32.7566C10.4072 32.6946 10.2406 32.5956 10.0993 32.4658C9.958 32.336 9.84521 32.1783 9.76805 32.0027C9.6909 31.8271 9.65106 31.6373 9.65106 31.4455C9.65106 31.2536 9.6909 31.0639 9.76805 30.8883C9.84521 30.7126 9.958 30.5549 10.0993 30.4252C10.2406 30.2954 10.4072 30.1964 10.5888 30.1344C10.7703 30.0724 10.9628 30.0488 11.1539 30.065H40.4972C40.6883 30.0488 40.8807 30.0724 41.0623 30.1344C41.2438 30.1964 41.4105 30.2954 41.5518 30.4252C41.6931 30.5549 41.8059 30.7126 41.883 30.8883C41.9602 31.0639 42 31.2536 42 31.4455C42 31.6373 41.9602 31.8271 41.883 32.0027C41.8059 32.1783 41.6931 32.336 41.5518 32.4658C41.4105 32.5956 41.2438 32.6946 41.0623 32.7566C40.8807 32.8186 40.6883 32.8422 40.4972 32.8259Z" fill="black"/>
<path d="M7.40625 32.8758C7.03696 32.8758 6.68248 32.7305 6.41949 32.4712C6.1565 32.212 6.00613 31.8596 6.00089 31.4903C5.99822 31.1193 6.14238 30.7623 6.40192 30.4971C6.66146 30.232 7.01533 30.0803 7.38632 30.075C7.75736 30.0697 8.11546 30.2113 8.38248 30.469C8.6495 30.7266 8.80377 31.0795 8.81162 31.4505C8.81453 31.8174 8.67481 32.1712 8.42191 32.4371C8.16902 32.703 7.82273 32.8603 7.45609 32.8758H7.40625Z" fill="black"/>
</svg>
