<svg width="48" height="48" viewBox="0 0 48 48" fill="none" xmlns="http://www.w3.org/2000/svg">
<path d="M7.80864 14.8815C7.44657 14.8855 7.09383 14.9969 6.79513 15.2016C6.49643 15.4063 6.26523 15.695 6.13081 16.0312C5.99639 16.3675 5.96481 16.736 6.04008 17.0902C6.11535 17.4444 6.29407 17.7683 6.5536 18.0208C6.81312 18.2733 7.14177 18.4431 7.49789 18.5086C7.85401 18.5742 8.22157 18.5325 8.55399 18.3889C8.88641 18.2454 9.16872 18.0063 9.36515 17.7021C9.56158 17.3979 9.66328 17.0423 9.65737 16.6802C9.65476 16.4405 9.6048 16.2037 9.51036 15.9834C9.41591 15.7631 9.27885 15.5636 9.10704 15.3964C8.93523 15.2293 8.73207 15.0977 8.50925 15.0093C8.28642 14.921 8.04832 14.8775 7.80864 14.8815Z" fill="black"/>
<path d="M7.80864 22.1764C7.5698 22.179 7.33381 22.2287 7.11414 22.3225C6.89448 22.4163 6.69545 22.5525 6.52842 22.7232C6.36139 22.894 6.22962 23.0959 6.14065 23.3176C6.05168 23.5393 6.00725 23.7763 6.00989 24.0152C5.9913 24.266 6.02467 24.518 6.1079 24.7554C6.19113 24.9927 6.32244 25.2104 6.4936 25.3947C6.66477 25.579 6.87212 25.726 7.10269 25.8266C7.33326 25.9271 7.58209 25.979 7.83362 25.979C8.08516 25.979 8.33399 25.9271 8.56456 25.8266C8.79513 25.726 9.00248 25.579 9.17365 25.3947C9.34481 25.2104 9.47612 24.9927 9.55935 24.7554C9.64258 24.518 9.67595 24.266 9.65736 24.0152C9.66007 23.7721 9.61402 23.531 9.52195 23.306C9.42987 23.081 9.29364 22.8768 9.12129 22.7054C8.94894 22.534 8.74398 22.3989 8.51853 22.308C8.29307 22.2171 8.05168 22.1724 7.80864 22.1764Z" fill="black"/>
<path d="M7.80864 29.4614C7.44698 29.4654 7.09462 29.5765 6.79612 29.7807C6.49762 29.9849 6.26638 30.2731 6.13164 30.6087C5.9969 30.9444 5.96471 31.3125 6.03915 31.6664C6.11359 32.0203 6.29131 32.3442 6.54983 32.5972C6.80836 32.8501 7.13608 33.0207 7.49156 33.0874C7.84704 33.1541 8.21431 33.1139 8.54693 32.9718C8.87956 32.8298 9.16259 32.5923 9.36024 32.2894C9.5579 31.9865 9.66129 31.6318 9.65736 31.2701C9.65475 31.03 9.60486 30.7927 9.51054 30.5718C9.41622 30.3509 9.27931 30.1508 9.10764 29.9829C8.93597 29.8149 8.73289 29.6824 8.51001 29.5929C8.28712 29.5034 8.0488 29.4588 7.80864 29.4614Z" fill="black"/>
<path d="M12.8352 18.509H40.1863C40.6673 18.509 41.1286 18.3179 41.4688 17.9777C41.8089 17.6376 42 17.1763 42 16.6952C42 16.2142 41.8089 15.7529 41.4688 15.4127C41.1286 15.0726 40.6673 14.8815 40.1863 14.8815H12.8352C12.38 14.9154 11.9544 15.1201 11.6439 15.4547C11.3333 15.7892 11.1608 16.2288 11.1608 16.6852C11.1608 17.1417 11.3333 17.5813 11.6439 17.9158C11.9544 18.2503 12.38 18.4551 12.8352 18.489V18.509Z" fill="black"/>
<path d="M40.1863 22.1964H12.8352C12.3581 22.1964 11.9006 22.3859 11.5633 22.7233C11.2259 23.0606 11.0364 23.5181 11.0364 23.9952C11.0364 24.4722 11.2259 24.9298 11.5633 25.2671C11.9006 25.6044 12.3581 25.7939 12.8352 25.7939H40.1863C40.6633 25.7939 41.1208 25.6044 41.4582 25.2671C41.7955 24.9298 41.985 24.4722 41.985 23.9952C41.985 23.5181 41.7955 23.0606 41.4582 22.7233C41.1208 22.3859 40.6633 22.1964 40.1863 22.1964Z" fill="black"/>
<path d="M40.1863 29.4914H12.8352C12.3581 29.4914 11.9006 29.6809 11.5633 30.0182C11.2259 30.3555 11.0364 30.8131 11.0364 31.2901C11.0364 31.7672 11.2259 32.2247 11.5633 32.562C11.9006 32.8994 12.3581 33.0889 12.8352 33.0889H40.1863C40.6633 33.0889 41.1208 32.8994 41.4582 32.562C41.7955 32.2247 41.985 31.7672 41.985 31.2901C41.985 30.8131 41.7955 30.3555 41.4582 30.0182C41.1208 29.6809 40.6633 29.4914 40.1863 29.4914Z" fill="black"/>
</svg>
