<svg width="48" height="48" viewBox="0 0 48 48" fill="none" xmlns="http://www.w3.org/2000/svg">
<path d="M26.5574 42H26.2577C25.7428 41.9396 25.2621 41.7109 24.8901 41.3493C24.5182 40.9877 24.2756 40.5135 24.2001 40L22.1025 26L8.03867 23.82C7.52352 23.7477 7.04648 23.5076 6.6813 23.1367C6.31612 22.7659 6.08312 22.2849 6.01832 21.7682C5.95352 21.2514 6.06053 20.7277 6.3228 20.278C6.58507 19.8282 6.988 19.4775 7.46932 19.28L38.7034 6.18999C39.1373 6.00366 39.6172 5.95266 40.0805 6.04364C40.5438 6.13462 40.9689 6.36337 41.3004 6.69999C41.6366 7.03181 41.8651 7.45743 41.956 7.92127C42.0469 8.3851 41.9959 8.8656 41.8098 9.29999L28.7348 40.54C28.5592 40.9733 28.2578 41.344 27.8697 41.6043C27.4816 41.8645 27.0245 42.0023 26.5574 42ZM9.85657 21.29L22.8416 23.22C23.3451 23.2941 23.8113 23.5287 24.1712 23.8889C24.531 24.2492 24.7653 24.7159 24.8393 25.22L26.7771 38.22L38.8932 9.10999L9.85657 21.29Z" fill="black"/>
</svg>
