<svg width="48" height="48" viewBox="0 0 48 48" fill="none" xmlns="http://www.w3.org/2000/svg">
<path d="M41.1889 6.80221C40.8033 6.41795 40.3123 6.15675 39.7782 6.0517C39.244 5.94665 38.6907 6.00247 38.1883 6.21208L7.69248 18.9949C7.13667 19.2297 6.67269 19.6395 6.37105 20.1621C6.06942 20.6847 5.94662 21.2914 6.02132 21.8902C6.09602 22.4889 6.36413 23.0469 6.78491 23.4794C7.2057 23.9118 7.75615 24.1951 8.35261 24.2861L21.7252 26.2865L23.7256 39.6595C23.8129 40.2575 24.094 40.8103 24.5259 41.2331C24.9577 41.6559 25.5163 41.9253 26.116 42H26.4761C27.0174 41.9984 27.5461 41.8358 27.9949 41.5331C28.4437 41.2303 28.7923 40.801 28.9966 40.2996L41.779 9.83288C41.9952 9.32667 42.0545 8.76723 41.9493 8.22694C41.8441 7.68664 41.5792 7.19034 41.1889 6.80221Z" fill="black"/>
</svg>
