<svg width="48" height="48" viewBox="0 0 48 48" fill="none" xmlns="http://www.w3.org/2000/svg">
<path d="M36.6691 18.0862H15.9838V16.7025C15.9851 14.8087 16.6563 12.9765 17.8786 11.5301C19.101 10.0838 20.7956 9.11647 22.6626 8.7995C24.5296 8.48253 26.4486 8.83632 28.0798 9.79824C29.711 10.7602 30.9493 12.2682 31.5755 14.0554C31.6181 14.2467 31.701 14.4268 31.8185 14.5837C31.9361 14.7406 32.0856 14.8708 32.2573 14.9655C32.4289 15.0603 32.6187 15.1175 32.8141 15.1333C33.0095 15.1492 33.2061 15.1233 33.3907 15.0575C33.5754 14.9916 33.7439 14.8873 33.8852 14.7514C34.0265 14.6155 34.1373 14.4511 34.2103 14.2691C34.2832 14.0871 34.3167 13.8917 34.3084 13.6959C34.3002 13.5 34.2504 13.3081 34.1624 13.1329C33.3025 10.7503 31.6323 8.74576 29.4441 7.46989C27.2558 6.19402 24.6886 5.72801 22.1915 6.15335C19.6944 6.57869 17.4263 7.86832 15.7838 9.79671C14.1414 11.7251 13.229 14.1695 13.2064 16.7025V18.0862H11.3314C10.9061 18.0862 10.485 18.1699 10.092 18.3327C9.69911 18.4954 9.34209 18.734 9.04135 19.0347C8.74061 19.3355 8.50206 19.6925 8.3393 20.0854C8.17654 20.4784 8.09277 20.8995 8.09277 21.3248V38.7614C8.09277 39.6203 8.43399 40.4441 9.04135 41.0514C9.64871 41.6588 10.4725 42 11.3314 42H36.6691C37.528 42 38.3518 41.6588 38.9591 41.0514C39.5665 40.4441 39.9077 39.6203 39.9077 38.7614V21.3248C39.9077 20.4659 39.5665 19.6421 38.9591 19.0347C38.3518 18.4274 37.528 18.0862 36.6691 18.0862ZM37.1704 38.7614C37.1704 38.8837 37.1218 39.001 37.0353 39.0875C36.9488 39.174 36.8315 39.2226 36.7092 39.2226H11.3314C11.2099 39.22 11.0941 39.1706 11.0081 39.0847C10.9222 38.9987 10.8727 38.8829 10.8702 38.7614V21.3248C10.8702 21.2025 10.9188 21.0852 11.0053 20.9987C11.0918 20.9122 11.2091 20.8636 11.3314 20.8636H36.6691C36.73 20.8622 36.7906 20.8732 36.8472 20.8959C36.9038 20.9186 36.9551 20.9525 36.9983 20.9956C37.0414 21.0387 37.0753 21.0901 37.098 21.1467C37.1207 21.2033 37.1317 21.2639 37.1303 21.3248L37.1704 38.7614Z" fill="black"/>
</svg>
