<svg width="48" height="48" viewBox="0 0 48 48" fill="none" xmlns="http://www.w3.org/2000/svg">
<path d="M36.6348 18.15H34.7748V16.77C34.7748 13.9136 33.6401 11.1742 31.6203 9.15446C29.6005 7.13469 26.8611 6 24.0048 6C21.1484 6 18.409 7.13469 16.3892 9.15446C14.3695 11.1742 13.2348 13.9136 13.2348 16.77V18.15H11.3648C10.9406 18.15 10.5206 18.2335 10.1287 18.3959C9.73682 18.5582 9.38074 18.7961 9.08081 19.096C8.78088 19.396 8.54296 19.7521 8.38063 20.1439C8.21831 20.5358 8.13477 20.9558 8.13477 21.38V38.77C8.13477 39.6266 8.47507 40.4482 9.08081 41.054C9.68655 41.6597 10.5081 42 11.3648 42H36.6348C37.4914 42 38.313 41.6597 38.9187 41.054C39.5245 40.4482 39.8648 39.6266 39.8648 38.77V21.38C39.8648 20.5234 39.5245 19.7018 38.9187 19.096C38.313 18.4903 37.4914 18.15 36.6348 18.15ZM16.0048 16.77C16.0048 14.6483 16.8476 12.6134 18.3479 11.1131C19.8482 9.61285 21.883 8.77 24.0048 8.77C26.1265 8.77 28.1613 9.61285 29.6616 11.1131C31.1619 12.6134 32.0048 14.6483 32.0048 16.77V18.15H16.0048V16.77ZM37.1348 38.77C37.1348 38.892 37.0863 39.009 37 39.0953C36.9138 39.1815 36.7968 39.23 36.6748 39.23H11.3648C11.2436 39.2274 11.128 39.1782 11.0423 39.0924C10.9566 39.0067 10.9073 38.8912 10.9048 38.77V21.38C10.9048 21.258 10.9532 21.141 11.0395 21.0547C11.1258 20.9685 11.2428 20.92 11.3648 20.92H36.6348C36.6955 20.9186 36.756 20.9296 36.8124 20.9522C36.8688 20.9749 36.9201 21.0087 36.9631 21.0517C37.0061 21.0947 37.0399 21.1459 37.0625 21.2024C37.0852 21.2588 37.0961 21.3192 37.0948 21.38L37.1348 38.77Z" fill="black"/>
</svg>
