<svg width="48" height="48" viewBox="0 0 48 48" fill="none" xmlns="http://www.w3.org/2000/svg">
<path d="M36.2403 18.0382H35.7727V17.1537C35.6192 14.1443 34.3157 11.3089 32.1314 9.23316C29.9471 7.15743 27.049 6 24.0357 6C21.0225 6 18.1243 7.15743 15.94 9.23316C13.7558 11.3089 12.4522 14.1443 12.2988 17.1537V18.0382H11.8006C11.3273 18.0395 10.8588 18.1347 10.4225 18.3183C9.98616 18.5019 9.59059 18.7702 9.25871 19.1078C8.92682 19.4454 8.6652 19.8454 8.48901 20.2848C8.31283 20.7242 8.22557 21.1942 8.23229 21.6675V38.4316C8.23498 39.3772 8.61179 40.2833 9.2804 40.9519C9.94902 41.6205 10.8551 41.9973 11.8006 42H36.1996C37.146 42 38.0537 41.624 38.7229 40.9548C39.392 40.2857 39.768 39.378 39.768 38.4316V21.6675C39.7747 21.1976 39.6888 20.7309 39.5151 20.2941C39.3415 19.8574 39.0835 19.4591 38.7559 19.1221C38.4283 18.7851 38.0376 18.5159 37.6059 18.3299C37.1743 18.1439 36.7103 18.0448 36.2403 18.0382ZM17.6259 17.1537C17.6918 15.5005 18.3949 13.937 19.5878 12.7907C20.7808 11.6443 22.3711 11.0041 24.0256 11.0041C25.68 11.0041 27.2703 11.6443 28.4633 12.7907C29.6562 13.937 30.3593 15.5005 30.4252 17.1537V18.0382H17.6259V17.1537Z" fill="black"/>
</svg>
