<svg width="48" height="48" viewBox="0 0 48 48" fill="none" xmlns="http://www.w3.org/2000/svg">
<path d="M36.0566 18.3975H17.7214V17.5263C17.7187 16.037 18.2439 14.5949 19.2037 13.4561C20.1635 12.3173 21.4957 11.5554 22.964 11.3057C24.4322 11.0559 25.9414 11.3346 27.2237 12.0921C28.506 12.8496 29.4784 14.037 29.9682 15.4434C30.1993 16.1074 30.6847 16.6523 31.3175 16.9584C31.9504 17.2645 32.6789 17.3067 33.3429 17.0757C34.0069 16.8446 34.5518 16.3592 34.8579 15.7264C35.164 15.0935 35.2062 14.365 34.9751 13.701C34.0611 11.133 32.2709 8.96943 29.9193 7.59088C27.5678 6.21233 24.8054 5.70705 22.1181 6.16391C19.4309 6.62076 16.9907 8.01048 15.2268 10.0887C13.4629 12.1669 12.4882 14.8005 12.4741 17.5263V18.3975H11.9835C11.5172 18.3988 11.0558 18.4925 10.626 18.6734C10.1962 18.8542 9.80655 19.1186 9.47964 19.4511C9.15272 19.7836 8.89503 20.1776 8.72149 20.6104C8.54794 21.0432 8.46199 21.5062 8.46862 21.9724V38.4852C8.47126 39.4165 8.84242 40.309 9.50101 40.9676C10.1596 41.6262 11.0521 41.9974 11.9835 42H36.0166C36.9488 42 37.8428 41.6297 38.5019 40.9705C39.1611 40.3114 39.5314 39.4174 39.5314 38.4852V21.9724C39.538 21.5095 39.4534 21.0498 39.2824 20.6196C39.1113 20.1894 38.8572 19.7972 38.5345 19.4652C38.2119 19.1332 37.8269 18.8681 37.4018 18.6849C36.9766 18.5017 36.5195 18.404 36.0566 18.3975Z" fill="black"/>
</svg>
