<svg width="48" height="48" viewBox="0 0 48 48" fill="none" xmlns="http://www.w3.org/2000/svg">
<path d="M20.48 35.078H6.79V12.918H20.48L23.27 10.128H6.46C5.80757 10.128 5.18186 10.3872 4.72052 10.8485C4.25918 11.3098 4 11.9355 4 12.588V35.408C4 36.0604 4.25918 36.6861 4.72052 37.1475C5.18186 37.6088 5.80757 37.868 6.46 37.868H23.27L20.48 35.078Z" fill="black"/>
<path d="M27 38.738C26.7246 38.7372 26.4521 38.6821 26.1981 38.5757C25.9441 38.4693 25.7137 38.3137 25.52 38.118L12.86 25.488C12.6617 25.2918 12.5042 25.0582 12.3967 24.8007C12.2893 24.5432 12.2339 24.267 12.2339 23.988C12.2339 23.709 12.2893 23.4328 12.3967 23.1753C12.5042 22.9178 12.6617 22.6842 12.86 22.488L25.49 9.87798C25.7851 9.58369 26.1607 9.38338 26.5695 9.30229C26.9782 9.2212 27.4019 9.26298 27.7869 9.42235C28.172 9.58173 28.5012 9.85156 28.7331 10.1978C28.965 10.5441 29.0892 10.9512 29.09 11.368V17.928H41.9C42.457 17.928 42.9911 18.1492 43.3849 18.5431C43.7788 18.9369 44 19.471 44 20.028V27.968C44 28.5249 43.7788 29.0591 43.3849 29.4529C42.9911 29.8467 42.457 30.068 41.9 30.068H29.09V36.628C29.0917 37.0454 28.9689 37.4539 28.7373 37.8012C28.5058 38.1485 28.176 38.419 27.79 38.578C27.5382 38.6776 27.2707 38.7318 27 38.738ZM15.32 23.998L26.32 34.998V29.388C26.3147 28.8301 26.5305 28.2928 26.9203 27.8936C27.3101 27.4944 27.8421 27.2659 28.4 27.258H41.21V20.718H28.4C27.8421 20.7153 27.308 20.4919 26.9145 20.0964C26.5209 19.701 26.3 19.1659 26.3 18.608V13.018L15.32 23.998Z" fill="black"/>
</svg>
