<svg width="48" height="48" viewBox="0 0 48 48" fill="none" xmlns="http://www.w3.org/2000/svg">
<path d="M18.49 32.84H9.33V14.33H18.49L23.82 9H7.68C6.704 9 5.76798 9.38771 5.07785 10.0778C4.38771 10.768 4 11.704 4 12.68V34.5C4 35.476 4.38771 36.412 5.07785 37.1022C5.76798 37.7923 6.704 38.18 7.68 38.18H23.83L18.49 32.84Z" fill="black"/>
<path d="M41.54 17.34H29.75V11.52C29.7482 11.0354 29.6034 10.562 29.3336 10.1594C29.0638 9.75682 28.6811 9.44288 28.2335 9.25701C27.7859 9.07114 27.2934 9.02161 26.8177 9.11466C26.3421 9.2077 25.9046 9.43917 25.56 9.78L13.49 21.85C13.2617 22.0776 13.0806 22.348 12.957 22.6457C12.8334 22.9435 12.7698 23.2626 12.7698 23.585C12.7698 23.9074 12.8334 24.2265 12.957 24.5243C13.0806 24.822 13.2617 25.0924 13.49 25.32L25.56 37.4C25.7867 37.6281 26.0562 37.8091 26.3531 37.9327C26.65 38.0563 26.9684 38.1199 27.29 38.12C27.613 38.1217 27.933 38.057 28.23 37.93C28.6801 37.7453 29.0651 37.4308 29.3358 37.0265C29.6065 36.6223 29.7507 36.1465 29.75 35.66V29.84H41.54C42.1924 29.84 42.8181 29.5808 43.2795 29.1195C43.7408 28.6581 44 28.0324 44 27.38V19.8C44 19.1476 43.7408 18.5219 43.2795 18.0605C42.8181 17.5992 42.1924 17.34 41.54 17.34Z" fill="black"/>
</svg>
