<svg width="48" height="48" viewBox="0 0 48 48" fill="none" xmlns="http://www.w3.org/2000/svg">
<path d="M20.4758 35.0784H6.78928V12.9242H20.4758L23.265 10.1349H6.45937C5.80883 10.1349 5.18479 10.3926 4.72386 10.8517C4.26292 11.3107 4.00264 11.9337 4 12.5842V35.4084C4 36.0606 4.25911 36.6862 4.72033 37.1474C5.18155 37.6086 5.8071 37.8677 6.45937 37.8677H23.265L20.4758 35.0784Z" fill="black"/>
<path d="M29.2535 38.7375C28.9782 38.7351 28.7062 38.6773 28.4537 38.5675C28.0678 38.4115 27.7377 38.1432 27.506 37.7974C27.2743 37.4516 27.1517 37.0443 27.154 36.628V30.0697H14.3473C13.7896 30.0697 13.2546 29.8489 12.8592 29.4554C12.4639 29.062 12.2405 28.528 12.2379 27.9703V20.0323C12.2405 19.4737 12.4636 18.9386 12.8586 18.5436C13.2537 18.1486 13.7887 17.9255 14.3473 17.9229H27.154V11.3646C27.1544 10.9489 27.278 10.5428 27.5094 10.1975C27.7408 9.85222 28.0694 9.58339 28.4537 9.42506C28.8375 9.26372 29.2609 9.22131 29.6691 9.3033C30.0772 9.38529 30.4514 9.58791 30.7431 9.88494L43.3699 22.5117C43.5694 22.7072 43.7279 22.9405 43.8361 23.198C43.9443 23.4555 44 23.732 44 24.0113C44 24.2906 43.9443 24.5671 43.8361 24.8246C43.7279 25.0821 43.5694 25.3154 43.3699 25.5109L30.7431 38.1177C30.3483 38.5135 29.8125 38.7364 29.2535 38.7375ZM14.9972 27.2605H27.7939C28.0792 27.2483 28.364 27.2942 28.6311 27.3953C28.8982 27.4965 29.142 27.6508 29.3476 27.849C29.5533 28.0472 29.7165 28.2851 29.8275 28.5482C29.9385 28.8114 29.9949 29.0943 29.9933 29.3799V34.9685L40.9905 23.9713L29.9933 12.9741V18.6127C29.9907 19.1713 29.7676 19.7064 29.3726 20.1014C28.9775 20.4964 28.4425 20.7195 27.8838 20.7221H14.9972V27.2605Z" fill="black"/>
</svg>
