<svg width="48" height="48" viewBox="0 0 48 48" fill="none" xmlns="http://www.w3.org/2000/svg">
<path d="M18.49 32.84H9.33V14.33H18.49L23.82 9H7.68C6.704 9 5.76798 9.38771 5.07785 10.0778C4.38771 10.768 4 11.704 4 12.68V34.5C4 35.476 4.38771 36.412 5.07785 37.1022C5.76798 37.7923 6.704 38.18 7.68 38.18H23.83L18.49 32.84Z" fill="black"/>
<path d="M43.28 21.85L31.21 9.78C30.865 9.43783 30.4266 9.20503 29.9499 9.11076C29.4732 9.01648 28.9793 9.06492 28.53 9.25C28.0772 9.43199 27.6894 9.74557 27.4167 10.1502C27.1439 10.5549 26.9988 11.032 27 11.52V17.34H15.22C14.5693 17.3426 13.9462 17.603 13.487 18.064C13.0278 18.5251 12.77 19.1493 12.77 19.8V27.38C12.77 28.0307 13.0278 28.6549 13.487 29.116C13.9462 29.577 14.5693 29.8374 15.22 29.84H27V35.66C26.997 36.1468 27.139 36.6234 27.408 37.0291C27.677 37.4348 28.0608 37.7512 28.5103 37.9379C28.9599 38.1246 29.4549 38.1731 29.9321 38.0773C30.4094 37.9815 30.8473 37.7457 31.19 37.4L43.28 25.32C43.5083 25.0924 43.6894 24.822 43.813 24.5243C43.9366 24.2265 44.0002 23.9074 44.0002 23.585C44.0002 23.2626 43.9366 22.9435 43.813 22.6457C43.6894 22.348 43.5083 22.0776 43.28 21.85Z" fill="black"/>
</svg>
