<svg width="48" height="48" viewBox="0 0 48 48" fill="none" xmlns="http://www.w3.org/2000/svg">
<path d="M41.2477 37.6152L32.356 28.7235C34.4176 25.7545 35.2934 22.1215 34.811 18.5393C34.3287 14.9571 32.5232 11.6851 29.7498 9.36719C26.9763 7.04925 23.4358 5.85321 19.8249 6.01441C16.2139 6.17561 12.7941 7.68239 10.2382 10.2382C7.68239 12.7941 6.17561 16.2139 6.01441 19.8249C5.85321 23.4358 7.04925 26.9763 9.36719 29.7498C11.6851 32.5232 14.9571 34.3287 18.5393 34.811C22.1215 35.2934 25.7545 34.4176 28.7235 32.356L37.6152 41.2477C38.0969 41.7294 38.7502 42 39.4314 42C40.1127 42 40.766 41.7294 41.2477 41.2477C41.7294 40.766 42 40.1127 42 39.4314C42 38.7502 41.7294 38.0969 41.2477 37.6152ZM24.3525 23.0352H16.6583C16.0044 22.9944 15.3907 22.7059 14.9421 22.2285C14.4935 21.7511 14.2438 21.1206 14.2438 20.4655C14.2438 19.8103 14.4935 19.1799 14.9421 18.7024C15.3907 18.225 16.0044 17.9365 16.6583 17.8957H24.3525C25.0063 17.9365 25.62 18.225 26.0686 18.7024C26.5172 19.1799 26.7669 19.8103 26.7669 20.4655C26.7669 21.1206 26.5172 21.7511 26.0686 22.2285C25.62 22.7059 25.0063 22.9944 24.3525 23.0352Z" fill="black"/>
</svg>
