<svg width="48" height="48" viewBox="0 0 48 48" fill="none" xmlns="http://www.w3.org/2000/svg">
<path d="M41.5614 39.6124L31.1298 29.1809C33.442 26.3684 34.5836 22.7742 34.318 19.143C34.0525 15.5118 32.4002 12.1218 29.7034 9.67559C27.0067 7.22935 23.4722 5.91428 19.8322 6.00286C16.1923 6.09144 12.7259 7.57687 10.1514 10.1514C7.57679 12.7259 6.09132 16.1922 6.00274 19.8321C5.91416 23.4719 7.22925 27.0063 9.67555 29.703C12.1218 32.3998 15.5118 34.052 19.1431 34.3176C22.7745 34.5831 26.3687 33.4415 29.1813 31.1293L39.6129 41.5608C39.7402 41.6988 39.8947 41.809 40.0667 41.8844C40.2387 41.9597 40.4244 41.9987 40.6121 41.9987C40.7999 41.9987 40.9856 41.9597 41.1576 41.8844C41.3296 41.809 41.4841 41.6988 41.6113 41.5608C41.7384 41.4308 41.8381 41.2767 41.9045 41.1076C41.9709 40.9384 42.0027 40.7577 41.9981 40.576C41.9934 40.3943 41.9524 40.2155 41.8774 40.0499C41.8024 39.8844 41.6949 39.7356 41.5614 39.6124ZM8.76768 20.1784C8.76768 17.9191 9.43776 15.7107 10.6931 13.8324C11.9485 11.954 13.7328 10.4902 15.8203 9.62614C17.9077 8.76204 20.2046 8.53646 22.4203 8.97793C24.636 9.41941 26.671 10.5081 28.2678 12.1063C29.8646 13.7045 30.9516 15.7404 31.3911 17.9564C31.8307 20.1725 31.6031 22.4691 30.7371 24.5558C29.8712 26.6424 28.4058 28.4254 26.5263 29.6791C24.6469 30.9328 22.4378 31.6009 20.1785 31.599C17.1513 31.5963 14.2489 30.3919 12.1092 28.2504C9.96957 26.1089 8.76768 23.2056 8.76768 20.1784Z" fill="black"/>
<path d="M24.3352 21.5672H15.9919C15.8003 21.5835 15.6074 21.5598 15.4254 21.4977C15.2434 21.4355 15.0763 21.3363 14.9346 21.2062C14.793 21.0761 14.6799 20.918 14.6026 20.7419C14.5252 20.5659 14.4853 20.3757 14.4853 20.1833C14.4853 19.991 14.5252 19.8008 14.6026 19.6248C14.6799 19.4487 14.793 19.2906 14.9346 19.1605C15.0763 19.0304 15.2434 18.9312 15.4254 18.869C15.6074 18.8069 15.8003 18.7832 15.9919 18.7995H24.2952C24.642 18.829 24.965 18.9875 25.2004 19.2438C25.4358 19.5001 25.5664 19.8354 25.5664 20.1833C25.5664 20.5313 25.4358 20.8666 25.2004 21.1229C24.965 21.3792 24.642 21.5377 24.2952 21.5672H24.3352Z" fill="black"/>
</svg>
