<svg width="48" height="48" viewBox="0 0 48 48" fill="none" xmlns="http://www.w3.org/2000/svg">
<path d="M24.57 28.52H23.43C23.8058 28.5999 24.1942 28.5999 24.57 28.52Z" fill="black"/>
<path d="M6 22.95V35L13.69 27.31L6 22.95Z" fill="black"/>
<path d="M42 34.81V22.95L34.43 27.24L42 34.81Z" fill="black"/>
<path d="M36.56 21.9L42 18.83C41.9501 18.2457 41.7582 17.6825 41.441 17.1893C41.1238 16.6961 40.6909 16.2878 40.18 16L36.56 14V21.9Z" fill="black"/>
<path d="M41.22 39.12L31.22 29.12L27.16 31.41C26.2093 31.9508 25.1337 32.2335 24.04 32.23C22.9478 32.232 21.8734 31.953 20.92 31.42L16.98 29.19L6.8 39.3C7.14 39.7374 7.57512 40.0917 8.07238 40.336C8.56963 40.5803 9.11598 40.7082 9.67 40.71H38.33C38.9162 40.7146 39.4948 40.578 40.017 40.3117C40.5392 40.0453 40.9896 39.6572 41.33 39.18L41.22 39.12Z" fill="black"/>
<path d="M11.44 21.9V14L7.82 16C7.30682 16.2851 6.8721 16.6927 6.55456 17.1864C6.23702 17.6802 6.04651 18.2448 6 18.83L11.44 21.9Z" fill="black"/>
<path d="M29.53 8.05V12.23H33.7L29.53 8.05Z" fill="black"/>
<path d="M17.24 25.18C17.5143 25.0128 17.8288 24.923 18.15 24.92H29.85C30.1712 24.923 30.4857 25.0128 30.76 25.18L34.76 22.92V15.83H25.93V7H15.93C15.2139 7 14.5272 7.28446 14.0208 7.79081C13.5145 8.29716 13.23 8.98392 13.23 9.7V22.92L17.24 25.18ZM18.15 16.56H29.85C30.3274 16.56 30.7852 16.7496 31.1228 17.0872C31.4604 17.4248 31.65 17.8826 31.65 18.36C31.65 18.8374 31.4604 19.2952 31.1228 19.6328C30.7852 19.9704 30.3274 20.16 29.85 20.16H18.15C17.6726 20.16 17.2148 19.9704 16.8772 19.6328C16.5396 19.2952 16.35 18.8374 16.35 18.36C16.35 17.8826 16.5396 17.4248 16.8772 17.0872C17.2148 16.7496 17.6726 16.56 18.15 16.56ZM18.15 20.74H29.85C30.3274 20.74 30.7852 20.9296 31.1228 21.2672C31.4604 21.6048 31.65 22.0626 31.65 22.54C31.65 23.0174 31.4604 23.4752 31.1228 23.8128C30.7852 24.1504 30.3274 24.34 29.85 24.34H18.15C17.9136 24.34 17.6796 24.2934 17.4612 24.203C17.2428 24.1125 17.0444 23.9799 16.8772 23.8128C16.7101 23.6456 16.5775 23.4472 16.487 23.2288C16.3966 23.0104 16.35 22.7764 16.35 22.54C16.35 22.3036 16.3966 22.0696 16.487 21.8512C16.5775 21.6328 16.7101 21.4344 16.8772 21.2672C17.0444 21.1001 17.2428 20.9675 17.4612 20.877C17.6796 20.7866 17.9136 20.74 18.15 20.74Z" fill="black"/>
</svg>
