<svg width="48" height="48" viewBox="0 0 48 48" fill="none" xmlns="http://www.w3.org/2000/svg">
<path d="M22.65 24.81C23.0624 25.0413 23.5272 25.1627 24 25.1627C24.4728 25.1627 24.9376 25.0413 25.35 24.81L42 15.38V14.83C41.9974 13.815 41.593 12.8424 40.8753 12.1247C40.1576 11.407 39.185 11.0026 38.17 11H9.83C8.81503 11.0026 7.84239 11.407 7.1247 12.1247C6.407 12.8424 6.00264 13.815 6 14.83V15.38L22.65 24.81Z" fill="black"/>
<path d="M42 31.38V19.52L34.43 23.8L42 31.38Z" fill="black"/>
<path d="M6 19.52V31.57L13.69 23.87L6 19.52Z" fill="black"/>
<path d="M31.18 25.64L27.12 27.94C26.1679 28.4771 25.0932 28.7593 24 28.7593C22.9068 28.7593 21.8321 28.4771 20.88 27.94L16.94 25.71L6.84 35.81C7.19603 36.2663 7.65108 36.6357 8.17078 36.8903C8.69049 37.145 9.26126 37.2782 9.84 37.28H38.17C38.7691 37.2781 39.3594 37.135 39.8928 36.8622C40.4262 36.5894 40.8878 36.1946 41.24 35.71L31.18 25.64Z" fill="black"/>
</svg>
