<svg width="48" height="48" viewBox="0 0 48 48" fill="none" xmlns="http://www.w3.org/2000/svg">
<path d="M38.53 11H9.47C8.55051 11.0026 7.66943 11.3691 7.01925 12.0193C6.36907 12.6694 6.00264 13.5505 6 14.47L6 33.56C6.01051 34.4743 6.38041 35.3477 7.02975 35.9914C7.67908 36.6351 8.55567 36.9974 9.47 37H38.53C39.4443 36.9974 40.3209 36.6351 40.9703 35.9914C41.6196 35.3477 41.9895 34.4743 42 33.56V14.47C41.9974 13.5505 41.6309 12.6694 40.9807 12.0193C40.3306 11.3691 39.4495 11.0026 38.53 11V11ZM39.23 28.86L33.94 23.57L39.23 20.57V28.86ZM9.47 13.77H38.53C38.7156 13.77 38.8937 13.8437 39.025 13.975C39.1562 14.1063 39.23 14.2843 39.23 14.47V17.39L25.61 25.1C25.1189 25.3778 24.5642 25.5238 24 25.5238C23.4358 25.5238 22.8811 25.3778 22.39 25.1L8.77 17.39V14.47C8.77 14.2843 8.84375 14.1063 8.97503 13.975C9.1063 13.8437 9.28435 13.77 9.47 13.77ZM8.77 20.58L14.18 23.64L8.77 29.06V20.58ZM38.53 34.26H9.47C9.28435 34.26 9.1063 34.1863 8.97503 34.055C8.84375 33.9237 8.77 33.7457 8.77 33.56V33L16.69 25.09L21 27.51C21.9049 28.0255 22.9285 28.2966 23.97 28.2966C25.0115 28.2966 26.0351 28.0255 26.94 27.51L31.44 25L39.23 32.79V33.58C39.2248 33.7622 39.1488 33.9351 39.018 34.0621C38.8873 34.1891 38.7122 34.2601 38.53 34.26Z" fill="black"/>
</svg>
