<svg width="48" height="48" viewBox="0 0 48 48" fill="none" xmlns="http://www.w3.org/2000/svg">
<path d="M40.37 15.962L27 8.38197C26.0879 7.85536 25.0532 7.57813 24 7.57812C22.9468 7.57812 21.9121 7.85536 21 8.38197L7.63 15.962C7.13588 16.2414 6.72469 16.6468 6.43835 17.1369C6.152 17.627 6.00075 18.1843 6 18.752V37.112C6 37.9898 6.34873 38.8318 6.96948 39.4525C7.59022 40.0732 8.43213 40.422 9.31 40.422H38.69C39.1247 40.422 39.5551 40.3364 39.9567 40.17C40.3583 40.0037 40.7232 39.7599 41.0305 39.4525C41.3379 39.1451 41.5817 38.7802 41.748 38.3787C41.9144 37.9771 42 37.5466 42 37.112V18.752C41.9993 18.1843 41.848 17.627 41.5617 17.1369C41.2753 16.6468 40.8641 16.2414 40.37 15.962ZM39.23 32.242L33.94 26.952L39.23 23.952V32.242ZM9 18.372L22.4 10.792C22.892 10.517 23.4463 10.3726 24.01 10.3726C24.5737 10.3726 25.128 10.517 25.62 10.792L39 18.372C39.0667 18.4105 39.1222 18.4659 39.1608 18.5326C39.1994 18.5993 39.2198 18.6749 39.22 18.752V20.752L25.61 28.492C25.118 28.767 24.5637 28.9114 24 28.9114C23.4363 28.9114 22.882 28.767 22.39 28.492L8.77 20.782V18.782C8.76565 18.6989 8.78494 18.6163 8.82565 18.5437C8.86636 18.4711 8.92682 18.4116 9 18.372ZM8.78 23.962L14.19 27.032L8.77 32.442L8.78 23.962ZM38.69 37.652H9.31C9.16678 37.652 9.02943 37.5951 8.92816 37.4938C8.82689 37.3925 8.77 37.2552 8.77 37.112V36.362L16.69 28.442L21 30.902C21.9049 31.4175 22.9285 31.6886 23.97 31.6886C25.0115 31.6886 26.0351 31.4175 26.94 30.902L31.41 28.372L39.2 36.162V37.162C39.1881 37.2913 39.1301 37.4121 39.0364 37.5021C38.9427 37.5921 38.8197 37.6453 38.69 37.652Z" fill="black"/>
</svg>
