<svg width="48" height="48" viewBox="0 0 48 48" fill="none" xmlns="http://www.w3.org/2000/svg">
<path d="M40.37 16.375L34 12.765L28.81 7.58505C28.6756 7.45604 28.52 7.35117 28.35 7.27505C28.1912 7.21026 28.0215 7.17632 27.85 7.17505H15.73C15.12 7.17505 14.535 7.41737 14.1037 7.8487C13.6723 8.28004 13.43 8.86505 13.43 9.47505V13.095L7.63001 16.375C7.13441 16.6553 6.72227 17.0623 6.43583 17.5543C6.1494 18.0464 5.99898 18.6057 6.00001 19.175V37.525C6.00265 38.4012 6.35255 39.2405 6.97301 39.8591C7.59347 40.4777 8.43387 40.8251 9.31001 40.8251H38.69C39.5661 40.8251 40.4065 40.4777 41.027 39.8591C41.6475 39.2405 41.9974 38.4012 42 37.525V19.175C42.001 18.6057 41.8506 18.0464 41.5642 17.5543C41.2777 17.0623 40.8656 16.6553 40.37 16.375ZM8.77001 24.375L14.18 27.435L8.77001 32.855V24.375ZM27.2 28.005H20.8L19.2 27.095H28.8L27.2 28.005ZM39.2 24.375V32.655L33.91 27.365L39.2 24.375ZM39.2 19.165V21.165L34.54 23.795V16.275L39 18.785C39.0701 18.8231 39.1285 18.8795 39.169 18.9482C39.2095 19.0169 39.2306 19.0953 39.23 19.175L39.2 19.165ZM29.2 11.905L29.84 12.535H29.2V11.905ZM26.43 9.90505V15.305H31.8V25.395L31.37 25.635C31.3545 25.2822 31.2034 24.949 30.9481 24.7049C30.6929 24.4608 30.3532 24.3247 30 24.325H18C17.6468 24.3247 17.3071 24.4608 17.0519 24.7049C16.7966 24.949 16.6455 25.2822 16.63 25.635L16.2 25.395V9.94505L26.43 9.90505ZM9.00001 18.785L13.43 16.275V23.825L8.77001 21.175V19.175C8.7694 19.0953 8.79048 19.0169 8.83099 18.9482C8.8715 18.8795 8.92992 18.8231 9.00001 18.785ZM38.7 38.065H9.31001C9.16679 38.065 9.02944 38.0082 8.92817 37.9069C8.8269 37.8056 8.77001 37.6683 8.77001 37.525V36.765L16.69 28.855L21 31.315C21.9084 31.8203 22.9306 32.0855 23.97 32.0855C25.0094 32.0855 26.0317 31.8203 26.94 31.315L31.41 28.785L39.2 36.575V37.575C39.1881 37.7044 39.1301 37.8252 39.0364 37.9152C38.9427 38.0052 38.8197 38.0584 38.69 38.065H38.7Z" fill="black"/>
<path d="M18 23.4151H30C30.347 23.3855 30.6703 23.2268 30.9059 22.9704C31.1415 22.7139 31.2722 22.3783 31.2722 22.03C31.2722 21.6818 31.1415 21.3462 30.9059 21.0897C30.6703 20.8333 30.347 20.6746 30 20.6451H18C17.653 20.6746 17.3297 20.8333 17.0941 21.0897C16.8585 21.3462 16.7278 21.6818 16.7278 22.03C16.7278 22.3783 16.8585 22.7139 17.0941 22.9704C17.3297 23.2268 17.653 23.3855 18 23.4151Z" fill="black"/>
<path d="M18 19.745H30C30.347 19.7155 30.6703 19.5568 30.9059 19.3004C31.1415 19.0439 31.2722 18.7083 31.2722 18.36C31.2722 18.0118 31.1415 17.6762 30.9059 17.4197C30.6703 17.1633 30.347 17.0046 30 16.975H18C17.653 17.0046 17.3297 17.1633 17.0941 17.4197C16.8585 17.6762 16.7278 18.0118 16.7278 18.36C16.7278 18.7083 16.8585 19.0439 17.0941 19.3004C17.3297 19.5568 17.653 19.7155 18 19.745Z" fill="black"/>
</svg>
