<svg width="48" height="48" viewBox="0 0 48 48" fill="none" xmlns="http://www.w3.org/2000/svg">
<path d="M22.65 28.4199C23.0624 28.6512 23.5272 28.7726 24 28.7726C24.4728 28.7726 24.9376 28.6512 25.35 28.4199L42 18.9999C41.9475 18.4228 41.7564 17.8669 41.4431 17.3794C41.1297 16.8919 40.7032 16.4873 40.2 16.1999L27.12 8.81995C26.1676 8.28376 25.093 8.00208 24 8.00208C22.907 8.00208 21.8324 8.28376 20.88 8.81995L7.82 16.2099C7.31323 16.4927 6.88278 16.8943 6.56573 17.3804C6.24868 17.8664 6.05453 18.4222 6 18.9999L22.65 28.4199Z" fill="black"/>
<path d="M42 34.9899V23.1299L34.43 27.4199L42 34.9899Z" fill="black"/>
<path d="M6 23.1299V35.1799L13.69 27.4899L6 23.1299Z" fill="black"/>
<path d="M31.18 29.2599L27.12 31.5599C26.166 32.0915 25.0921 32.3705 24 32.3705C22.9079 32.3705 21.834 32.0915 20.88 31.5599L16.94 29.3299L6.8 39.4799C7.14 39.9174 7.57512 40.2717 8.07238 40.516C8.56963 40.7603 9.11598 40.8881 9.67 40.8899H38.33C38.9153 40.8957 39.4934 40.7606 40.0155 40.4961C40.5376 40.2315 40.9885 39.8453 41.33 39.3699L31.18 29.2599Z" fill="black"/>
</svg>
