<svg width="48" height="48" viewBox="0 0 48 48" fill="none" xmlns="http://www.w3.org/2000/svg">
<path d="M41.9887 8.39023C41.9887 8.30983 41.9384 8.22944 41.9183 8.15909C41.8982 8.08874 41.8681 7.9782 41.8379 7.8978C41.7971 7.80434 41.7501 7.71369 41.6972 7.62646L41.5967 7.43552C41.3994 7.14792 41.1507 6.89921 40.8631 6.7019L40.6722 6.6014C40.5687 6.54638 40.4612 6.49935 40.3506 6.46071L40.0993 6.38031L39.8581 6.30996C39.6876 6.29512 39.5161 6.29512 39.3456 6.30996H33.1953C32.5626 6.37048 31.9729 6.65693 31.5343 7.11683C31.0957 7.57672 30.8375 8.17927 30.8069 8.81407C30.7764 9.44888 30.9757 10.0734 31.3681 10.5733C31.7606 11.0731 32.3201 11.4148 32.944 11.5358L31.0346 13.4452C27.8846 11.1018 23.9701 10.0257 20.0649 10.4294C16.1597 10.8332 12.5481 12.6875 9.94418 15.6257C7.34027 18.564 5.93356 22.3723 6.00218 26.2977C6.0708 30.2231 7.60975 33.9799 10.3148 36.8253C13.0198 39.6708 16.6939 41.3977 20.6109 41.6647C24.5278 41.9318 28.4023 40.7194 31.4685 38.2674C34.5346 35.8154 36.5692 32.3023 37.1699 28.4225C37.7706 24.5427 36.8938 20.5787 34.7127 17.3143L36.7227 15.3044C36.8031 15.9671 37.1313 16.5748 37.6414 17.0055C38.1514 17.4361 38.8056 17.6578 39.4724 17.626C40.1392 17.5942 40.7693 17.3112 41.2361 16.834C41.7028 16.3567 41.9717 15.7205 41.9887 15.0531V8.90276C42.0035 8.73224 42.0035 8.56075 41.9887 8.39023Z" fill="black"/>
</svg>
