<svg width="48" height="48" viewBox="0 0 48 48" fill="none" xmlns="http://www.w3.org/2000/svg">
<path d="M41.995 7.65241C41.9917 7.48054 41.9577 7.31064 41.8947 7.15071C41.7492 6.80238 41.4765 6.52253 41.1321 6.36805C40.9721 6.30503 40.8022 6.27105 40.6304 6.26771H34.1584C33.966 6.25135 33.7722 6.27512 33.5895 6.33753C33.4067 6.39994 33.2389 6.49962 33.0967 6.63027C32.9545 6.76091 32.8409 6.91967 32.7633 7.09648C32.6856 7.27329 32.6455 7.46431 32.6455 7.65743C32.6455 7.85055 32.6856 8.04157 32.7633 8.21838C32.8409 8.3952 32.9545 8.55395 33.0967 8.6846C33.2389 8.81524 33.4067 8.91492 33.5895 8.97733C33.7722 9.03974 33.966 9.06352 34.1584 9.04715H37.2489L32.6633 13.6327C29.5577 10.8985 25.5164 9.46897 21.3823 9.64222C17.2482 9.81547 13.3407 11.5782 10.4747 14.5626C7.60878 17.5471 6.00576 21.5228 6.00005 25.6605C5.99433 29.7982 7.58636 33.7783 10.4441 36.7707C13.3018 39.763 17.2044 41.5365 21.338 41.7212C25.4716 41.9058 29.5169 40.4874 32.63 37.7618C35.7432 35.0362 37.6838 31.2139 38.0471 27.0922C38.4103 22.9705 37.1682 18.8677 34.5798 15.6395L39.2156 11.0038V14.1043C39.1992 14.2967 39.223 14.4905 39.2854 14.6732C39.3478 14.856 39.4475 15.0238 39.5781 15.166C39.7088 15.3083 39.8675 15.4218 40.0443 15.4995C40.2212 15.5771 40.4122 15.6172 40.6053 15.6172C40.7984 15.6172 40.9894 15.5771 41.1662 15.4995C41.3431 15.4218 41.5018 15.3083 41.6325 15.166C41.7631 15.0238 41.8628 14.856 41.9252 14.6732C41.9876 14.4905 42.0114 14.2967 41.995 14.1043V7.65241ZM21.9269 38.9487C19.2927 38.9407 16.7199 38.1522 14.5337 36.6828C12.3474 35.2133 10.6458 33.1289 9.64366 30.6927C8.64155 28.2566 8.38397 25.5781 8.90347 22.9956C9.42296 20.4131 10.6962 18.0426 12.5624 16.1834C14.4285 14.3243 16.8039 13.0599 19.3883 12.5502C21.9727 12.0404 24.6502 12.308 27.0825 13.3193C29.5149 14.3305 31.593 16.0401 33.0542 18.2318C34.5154 20.4236 35.2942 22.9993 35.2923 25.6335C35.2896 27.3855 34.9418 29.1199 34.2685 30.7375C33.5953 32.355 32.6099 33.824 31.3687 35.0606C30.1275 36.2972 28.6548 37.277 27.0347 37.9442C25.4146 38.6113 23.6789 38.9526 21.9269 38.9487Z" fill="black"/>
</svg>
