<svg width="48" height="48" viewBox="0 0 48 48" fill="none" xmlns="http://www.w3.org/2000/svg">
<path d="M27.22 27.92C25.59 29.69 24.7 29.69 23.95 29.69C23.2 29.69 22.31 29.69 20.68 27.92V40.3L27.22 41.4V27.92Z" fill="black"/>
<path d="M17.11 22.94C15.7621 20.7979 14.8229 18.4244 14.34 15.94L7 17.14V42L17.11 40.3V22.94Z" fill="black"/>
<path d="M33.54 16.08C33.0361 18.5113 32.105 20.8339 30.79 22.94V41.4L40.9 39.7V14.85L33.54 16.08Z" fill="black"/>
<path d="M24 6C21.8783 6 19.8434 6.84285 18.3431 8.34315C16.8429 9.84344 16 11.8783 16 14C16 19.29 21.84 27.92 24 27.92C26.16 27.92 32 19.29 32 14C32 12.9494 31.7931 11.9091 31.391 10.9385C30.989 9.96793 30.3997 9.08601 29.6569 8.34315C28.914 7.60028 28.0321 7.011 27.0615 6.60896C26.0909 6.20693 25.0506 6 24 6ZM24 16.53C23.4948 16.5419 22.9976 16.4029 22.5718 16.1307C22.1461 15.8585 21.8112 15.4655 21.61 15.002C21.4088 14.5385 21.3505 14.0255 21.4424 13.5286C21.5343 13.0317 21.7724 12.5735 22.1261 12.2127C22.4799 11.8518 22.9332 11.6047 23.4281 11.5028C23.9231 11.401 24.4372 11.4491 24.9046 11.641C25.3721 11.8329 25.7717 12.1599 26.0523 12.5801C26.3329 13.0003 26.4818 13.4947 26.48 14C26.4801 14.6624 26.2205 15.2985 25.7567 15.7715C25.293 16.2446 24.6623 16.5169 24 16.53Z" fill="black"/>
</svg>
