<svg width="48" height="48" viewBox="0 0 48 48" fill="none" xmlns="http://www.w3.org/2000/svg">
<path d="M32.78 16.55C32.5363 17.5777 32.2016 18.5816 31.78 19.55L38.21 18.47V37.47L30.57 38.75V21.91C30.27 22.45 29.9366 23 29.57 23.56C28.9 24.56 28.32 25.42 27.81 26.09V38.75L20.17 37.47V26.09C19.66 25.42 19.08 24.59 18.41 23.56C18.05 23 17.73 22.46 17.41 21.91V37.47L9.78998 38.75V19.75L15.89 18.75C15.5471 17.8581 15.2828 16.9379 15.1 16L7.03998 17.38V42L18.81 40L29.2 41.74L40.96 39.74V15.18L32.78 16.55Z" fill="black"/>
<path d="M24.04 27.6C22.95 27.6 21.04 25 19.62 22.81C18.04 20.46 16.24 17 16.24 13.76C16.24 11.7019 17.0575 9.72813 18.5128 8.27285C19.9681 6.81757 21.9419 6 24 6C26.0581 6 28.0318 6.81757 29.4871 8.27285C30.9424 9.72813 31.76 11.7019 31.76 13.76C31.76 16.98 29.95 20.46 28.43 22.76C27.04 25 25.1 27.6 24.04 27.6ZM24.04 8.75C22.7139 8.75 21.4421 9.27678 20.5044 10.2145C19.5668 11.1521 19.04 12.4239 19.04 13.75C19.04 17.41 22.37 22.18 24.04 24.21C25.73 22.21 29.04 17.41 29.04 13.75C29.04 12.4239 28.5132 11.1521 27.5755 10.2145C26.6378 9.27678 25.3661 8.75 24.04 8.75Z" fill="black"/>
<path d="M24.04 17.74C23.2489 17.74 22.4755 17.5054 21.8177 17.0659C21.1599 16.6264 20.6472 16.0016 20.3445 15.2707C20.0417 14.5398 19.9625 13.7356 20.1168 12.9596C20.2712 12.1837 20.6521 11.471 21.2116 10.9116C21.771 10.3522 22.4837 9.9712 23.2596 9.81686C24.0355 9.66252 24.8398 9.74173 25.5707 10.0445C26.3016 10.3472 26.9263 10.8599 27.3659 11.5177C27.8054 12.1755 28.04 12.9489 28.04 13.74C28.04 14.8009 27.6185 15.8183 26.8684 16.5684C26.1183 17.3186 25.1008 17.74 24.04 17.74ZM24.04 12.53C23.7967 12.53 23.5589 12.6021 23.3566 12.7373C23.1544 12.8724 22.9967 13.0645 22.9036 13.2893C22.8105 13.5141 22.7862 13.7614 22.8336 14C22.8811 14.2386 22.9982 14.4577 23.1702 14.6297C23.3423 14.8018 23.5614 14.9189 23.8 14.9664C24.0386 15.0138 24.2859 14.9895 24.5107 14.8964C24.7354 14.8033 24.9275 14.6456 25.0627 14.4434C25.1978 14.2411 25.27 14.0033 25.27 13.76C25.2674 13.4346 25.1369 13.1233 24.9068 12.8931C24.6767 12.663 24.3654 12.5326 24.04 12.53Z" fill="black"/>
</svg>
