<svg width="48" height="48" viewBox="0 0 48 48" fill="none" xmlns="http://www.w3.org/2000/svg">
<path d="M18.38 28.15H9.23C8.37335 28.15 7.55179 27.8097 6.94605 27.204C6.3403 26.5982 6 25.7766 6 24.92V9.23C6 8.37335 6.3403 7.55179 6.94605 6.94605C7.55179 6.3403 8.37335 6 9.23 6H18.38C19.2376 6 20.0602 6.33998 20.6675 6.94544C21.2748 7.55089 21.6174 8.37243 21.62 9.23V24.92C21.6174 25.7776 21.2748 26.5991 20.6675 27.2046C20.0602 27.81 19.2376 28.15 18.38 28.15ZM9.23 8.77C9.1088 8.77255 8.99328 8.82184 8.90756 8.90756C8.82184 8.99328 8.77255 9.1088 8.77 9.23V24.92C8.77255 25.0412 8.82184 25.1567 8.90756 25.2424C8.99328 25.3282 9.1088 25.3774 9.23 25.38H18.38C18.5029 25.38 18.621 25.3319 18.7089 25.2459C18.7967 25.1599 18.8474 25.0429 18.85 24.92V9.23C18.8474 9.10709 18.7967 8.9901 18.7089 8.90411C18.621 8.81811 18.5029 8.76997 18.38 8.77H9.23Z" fill="black"/>
<path d="M18.38 42H9.23C8.37335 42 7.55179 41.6597 6.94605 41.054C6.3403 40.4482 6 39.6266 6 38.77V35.08C6 34.2234 6.3403 33.4018 6.94605 32.796C7.55179 32.1903 8.37335 31.85 9.23 31.85H18.38C19.2376 31.85 20.0602 32.19 20.6675 32.7954C21.2748 33.4009 21.6174 34.2224 21.62 35.08V38.77C21.6174 39.6276 21.2748 40.4491 20.6675 41.0546C20.0602 41.66 19.2376 42 18.38 42ZM9.23 34.62C9.108 34.62 8.991 34.6685 8.90473 34.7547C8.81846 34.841 8.77 34.958 8.77 35.08V38.77C8.77255 38.8912 8.82184 39.0067 8.90756 39.0924C8.99328 39.1782 9.1088 39.2274 9.23 39.23H18.38C18.5029 39.23 18.621 39.1819 18.7089 39.0959C18.7967 39.0099 18.8474 38.8929 18.85 38.77V35.08C18.85 35.0187 18.8378 34.9581 18.8141 34.9016C18.7903 34.8452 18.7555 34.794 18.7118 34.7511C18.668 34.7083 18.6161 34.6746 18.5591 34.6521C18.5021 34.6296 18.4412 34.6187 18.38 34.62H9.23Z" fill="black"/>
<path d="M38.77 42H29.62C28.7624 42 27.9398 41.66 27.3325 41.0546C26.7252 40.4491 26.3826 39.6276 26.38 38.77V23.08C26.3826 22.2224 26.7252 21.4009 27.3325 20.7954C27.9398 20.19 28.7624 19.85 29.62 19.85H38.77C39.6266 19.85 40.4482 20.1903 41.054 20.796C41.6597 21.4018 42 22.2234 42 23.08V38.77C42 39.6266 41.6597 40.4482 41.054 41.054C40.4482 41.6597 39.6266 42 38.77 42ZM29.62 22.62C29.4971 22.62 29.379 22.6681 29.2911 22.7541C29.2033 22.8401 29.1526 22.9571 29.15 23.08V38.77C29.1526 38.8929 29.2033 39.0099 29.2911 39.0959C29.379 39.1819 29.4971 39.23 29.62 39.23H38.77C38.8912 39.2274 39.0067 39.1782 39.0924 39.0924C39.1782 39.0067 39.2274 38.8912 39.23 38.77V23.08C39.2274 22.9588 39.1782 22.8433 39.0924 22.7576C39.0067 22.6718 38.8912 22.6226 38.77 22.62H29.62Z" fill="black"/>
<path d="M38.77 16.15H29.62C28.7624 16.15 27.9398 15.81 27.3325 15.2046C26.7252 14.5991 26.3826 13.7776 26.38 12.92V9.23C26.3826 8.37243 26.7252 7.55089 27.3325 6.94544C27.9398 6.33998 28.7624 6 29.62 6H38.77C39.6266 6 40.4482 6.3403 41.054 6.94605C41.6597 7.55179 42 8.37335 42 9.23V12.92C42 13.7766 41.6597 14.5982 41.054 15.204C40.4482 15.8097 39.6266 16.15 38.77 16.15ZM29.62 8.77C29.4971 8.76997 29.379 8.81811 29.2911 8.90411C29.2033 8.9901 29.1526 9.10709 29.15 9.23V12.92C29.15 12.9813 29.1622 13.0419 29.1859 13.0984C29.2097 13.1548 29.2445 13.206 29.2882 13.2489C29.332 13.2917 29.3839 13.3254 29.4409 13.3479C29.4979 13.3704 29.5588 13.3813 29.62 13.38H38.77C38.892 13.38 39.009 13.3315 39.0953 13.2453C39.1815 13.159 39.23 13.042 39.23 12.92V9.23C39.2274 9.1088 39.1782 8.99328 39.0924 8.90756C39.0067 8.82184 38.8912 8.77255 38.77 8.77H29.62Z" fill="black"/>
</svg>
