<svg width="48" height="48" viewBox="0 0 48 48" fill="none" xmlns="http://www.w3.org/2000/svg">
<path d="M18.53 6H9.6C7.61177 6 6 7.61177 6 9.6V24.9C6 26.8882 7.61177 28.5 9.6 28.5H18.53C20.5182 28.5 22.13 26.8882 22.13 24.9V9.6C22.13 7.61177 20.5182 6 18.53 6Z" fill="black"/>
<path d="M18.53 31.2H9.6C7.61177 31.2 6 32.8118 6 34.8V38.4C6 40.3882 7.61177 42 9.6 42H18.53C20.5182 42 22.13 40.3882 22.13 38.4V34.8C22.13 32.8118 20.5182 31.2 18.53 31.2Z" fill="black"/>
<path d="M38.4 19.5H29.47C27.4818 19.5 25.87 21.1118 25.87 23.1V38.4C25.87 40.3882 27.4818 42 29.47 42H38.4C40.3882 42 42 40.3882 42 38.4V23.1C42 21.1118 40.3882 19.5 38.4 19.5Z" fill="black"/>
<path d="M38.4 6H29.47C27.4818 6 25.87 7.61177 25.87 9.6V13.2C25.87 15.1882 27.4818 16.8 29.47 16.8H38.4C40.3882 16.8 42 15.1882 42 13.2V9.6C42 7.61177 40.3882 6 38.4 6Z" fill="black"/>
</svg>
