<svg width="48" height="48" viewBox="0 0 48 48" fill="none" xmlns="http://www.w3.org/2000/svg">
<path fill-rule="evenodd" clip-rule="evenodd" d="M43.6401 39.0155H43.7701C43.8091 39.0294 43.8436 39.0536 43.87 39.0855C43.9049 39.1113 43.9325 39.1458 43.95 39.1855C43.9797 39.2696 43.9797 39.3613 43.95 39.4454C43.9328 39.4881 43.9053 39.5258 43.87 39.5554L43.7701 39.6253C43.686 39.6545 43.5942 39.6523 43.5116 39.6193C43.4289 39.5862 43.361 39.5245 43.3202 39.4454C43.3007 39.4048 43.2906 39.3604 43.2906 39.3154C43.2906 39.2704 43.3007 39.226 43.3202 39.1855C43.3377 39.1484 43.3613 39.1146 43.3902 39.0855C43.4203 39.0532 43.4581 39.0291 43.5001 39.0155C43.5462 39.0052 43.594 39.0052 43.6401 39.0155ZM23.2659 37.5359H25.0054C25.0028 37.427 24.9788 37.3196 24.9347 37.2199C24.8906 37.1202 24.8272 37.0302 24.7483 36.955C24.6694 36.8798 24.5764 36.8209 24.4748 36.7816C24.3731 36.7424 24.2646 36.7235 24.1557 36.7262C24.044 36.7208 23.9325 36.7375 23.8273 36.7753C23.7221 36.8131 23.6255 36.8713 23.5428 36.9465C23.4602 37.0217 23.3932 37.1125 23.3457 37.2136C23.2981 37.3148 23.271 37.4243 23.2659 37.5359ZM24.1757 36.0764C24.3995 36.0751 24.6211 36.1211 24.8259 36.2114C25.0308 36.3017 25.2142 36.4342 25.3643 36.6003C25.5143 36.7664 25.6276 36.9623 25.6967 37.1753C25.7658 37.3882 25.7891 37.6133 25.7652 37.8359V38.1158H23.2859C23.3112 38.3565 23.4303 38.5775 23.6174 38.7309C23.8046 38.8844 24.0446 38.9579 24.2856 38.9355C24.6506 38.9354 25.0041 38.8082 25.2853 38.5756L25.6352 39.1155C25.2468 39.4389 24.7503 39.6032 24.2456 39.5754C23.7816 39.582 23.334 39.404 23.0012 39.0806C22.6684 38.7572 22.4778 38.3148 22.4711 37.8508C22.4645 37.3869 22.6425 36.9392 22.9659 36.6064C23.2893 36.2737 23.7317 36.083 24.1957 36.0764H24.1757ZM28.1145 36.0764C28.2885 36.0761 28.461 36.1066 28.6244 36.1663L28.4044 36.8661C28.26 36.8147 28.1079 36.7876 27.9546 36.7862C27.4847 36.7862 27.2448 37.0961 27.2448 37.6459V39.5254H26.525V36.1563H27.2448V36.5662C27.3341 36.4155 27.4615 36.2909 27.6141 36.205C27.7668 36.119 27.9393 36.0746 28.1145 36.0764ZM13.4387 38.9055C13.6334 38.9051 13.8236 38.8478 13.9862 38.7407C14.1487 38.6337 14.2765 38.4815 14.3538 38.3028C14.4311 38.1242 14.4545 37.9269 14.4213 37.7351C14.3881 37.5433 14.2996 37.3654 14.1667 37.2232C14.0338 37.081 13.8622 36.9807 13.6731 36.9346C13.484 36.8885 13.2856 36.8986 13.1022 36.9636C12.9187 37.0287 12.7582 37.1458 12.6404 37.3008C12.5226 37.4557 12.4526 37.6417 12.439 37.8359V37.9158C12.4416 38.1792 12.5481 38.431 12.7353 38.6163C12.9225 38.8016 13.1753 38.9056 13.4387 38.9055ZM14.4384 36.5662V36.1563H15.1682V39.4954H14.4384V39.0855C14.3154 39.2452 14.1559 39.373 13.9732 39.4583C13.7906 39.5435 13.5901 39.5836 13.3887 39.5754C12.9247 39.5754 12.4797 39.391 12.1516 39.0629C11.8236 38.7348 11.6392 38.2899 11.6392 37.8259C11.6392 37.3619 11.8236 36.9169 12.1516 36.5888C12.4797 36.2607 12.9247 36.0764 13.3887 36.0764C13.5837 36.0728 13.7768 36.1154 13.9522 36.2005C14.1276 36.2856 14.2805 36.4109 14.3984 36.5662H14.4384ZM9.89973 36.0764C10.2216 36.1093 10.5179 36.2668 10.7253 36.5153C10.9326 36.7637 11.0346 37.0834 11.0094 37.406V39.5054H10.2896V37.6559C10.2896 37.0861 10.0497 36.7762 9.54983 36.7762H9.40987C9.20265 36.806 9.01539 36.9159 8.88828 37.0822C8.76118 37.2486 8.70438 37.4581 8.73006 37.6659V39.5154H8.01027V37.6559C8.01027 37.0861 7.77034 36.7762 7.29047 36.7762H7.12052C6.91398 36.8059 6.7276 36.9162 6.6021 37.0829C6.47659 37.2496 6.42217 37.4592 6.45071 37.6659V39.5054H5.71092V36.1563H6.44072V36.5662C6.55016 36.4045 6.70001 36.2742 6.87538 36.1882C7.05075 36.1023 7.24555 36.0637 7.44043 36.0764C7.66118 36.0669 7.88045 36.1165 8.07555 36.2202C8.27066 36.3239 8.4345 36.4779 8.55011 36.6662C8.67385 36.4716 8.84786 36.3141 9.05375 36.2103C9.25964 36.1064 9.48976 36.0602 9.71978 36.0764C9.76612 36.0687 9.8134 36.0687 9.85974 36.0764H9.89973ZM17.6675 37.496C18.3973 37.5959 18.8372 37.8558 18.8372 38.4957C18.8372 39.1355 18.2773 39.5854 17.3076 39.5854C16.7905 39.6035 16.2816 39.4526 15.858 39.1555L16.2079 38.5856C16.5323 38.8227 16.926 38.9457 17.3276 38.9355C17.8275 38.9355 18.0874 38.7856 18.0874 38.5357C18.0874 38.2857 17.8974 38.2357 17.4976 38.1858L17.1477 38.1358C16.3979 38.0258 15.998 37.6859 15.998 37.1361C15.998 36.5862 16.5478 36.0664 17.3976 36.0664C17.8755 36.0454 18.3488 36.1672 18.7572 36.4163L18.4373 37.0061C18.1199 36.8166 17.7572 36.7164 17.3876 36.7162C16.9877 36.7162 16.7478 36.8861 16.7478 37.1061C16.7478 37.326 17.0077 37.396 17.3176 37.436L17.6675 37.496ZM21.2465 38.9055C21.473 38.9014 21.6942 38.8358 21.8863 38.7156L22.0962 39.3454C21.8233 39.5154 21.5081 39.6055 21.1865 39.6054C20.2868 39.6054 20.0068 39.1455 20.0068 38.3457V36.8261H19.307V36.1563H20.0068V35.1566H20.7466V36.1563H21.9463V36.8261H20.7166V38.3457C20.7166 38.6856 20.8466 38.9055 21.2065 38.9055H21.2465ZM43.5801 39.3454H43.7001V39.2854H43.5801V39.3454ZM43.7501 39.3454C43.739 39.3501 43.7271 39.3525 43.7151 39.3525C43.7031 39.3525 43.6912 39.3501 43.6801 39.3454L43.7801 39.4654H43.7001L43.6001 39.3454V39.4654H43.5401V39.1555H43.6801C43.7089 39.1438 43.7412 39.1438 43.7701 39.1555C43.7762 39.1661 43.7794 39.1782 43.7794 39.1905C43.7794 39.2028 43.7762 39.2148 43.7701 39.2255C43.7797 39.2333 43.787 39.2434 43.7914 39.255C43.7957 39.2666 43.797 39.2791 43.7949 39.2913C43.7929 39.3034 43.7877 39.3149 43.7798 39.3244C43.7719 39.3339 43.7617 39.3412 43.7501 39.3454ZM40.7509 38.8956C40.9456 38.8951 41.1358 38.8378 41.2984 38.7307C41.4609 38.6237 41.5887 38.4715 41.666 38.2928C41.7433 38.1142 41.7667 37.9169 41.7335 37.7251C41.7003 37.5333 41.6118 37.3554 41.4789 37.2132C41.346 37.071 41.1744 36.9707 40.9853 36.9246C40.7963 36.8785 40.5978 36.8886 40.4144 36.9536C40.2309 37.0187 40.0704 37.1358 39.9526 37.2908C39.8348 37.4457 39.7648 37.6317 39.7512 37.8259V37.8958C39.7499 38.0271 39.7744 38.1574 39.8235 38.2792C39.8725 38.401 39.945 38.5119 40.0369 38.6057C40.1288 38.6994 40.2383 38.7742 40.3591 38.8256C40.4799 38.8771 40.6096 38.9042 40.7409 38.9055L40.7509 38.8956ZM41.7506 36.5562V34.8167H42.4504V39.4954H41.7506V39.0855C41.6322 39.2377 41.4806 39.361 41.3073 39.4458C41.1341 39.5307 40.9438 39.575 40.7509 39.5754C40.2869 39.5754 39.8419 39.391 39.5138 39.0629C39.1857 38.7348 39.0014 38.2899 39.0014 37.8259C39.0014 37.3619 39.1857 36.9169 39.5138 36.5888C39.8419 36.2607 40.2869 36.0764 40.7509 36.0764C40.939 36.0798 41.1239 36.1256 41.2918 36.2104C41.4597 36.2952 41.6063 36.4168 41.7206 36.5662L41.7506 36.5562ZM30.6438 36.7362C30.3601 36.7362 30.088 36.8489 29.8874 37.0495C29.6868 37.2501 29.5741 37.5222 29.5741 37.8059C29.5741 38.0896 29.6868 38.3616 29.8874 38.5623C30.088 38.7629 30.3601 38.8756 30.6438 38.8756C30.9586 38.8727 31.2639 38.7674 31.5136 38.5756L31.8635 39.1655C31.5284 39.4454 31.0998 39.5883 30.6638 39.5654H30.5038C30.0566 39.5471 29.6345 39.3532 29.3294 39.0256C29.0243 38.698 28.8608 38.2633 28.8743 37.8159V37.6459C28.9001 37.1967 29.103 36.7761 29.4384 36.4762C29.7739 36.1764 30.2145 36.0218 30.6638 36.0464C31.0998 36.0235 31.5284 36.1663 31.8635 36.4463L31.5136 37.0361C31.2545 36.8416 30.9377 36.7396 30.6138 36.7462L30.6438 36.7362ZM43.84 39.5254C43.864 39.5029 43.883 39.4758 43.896 39.4457C43.9091 39.4157 43.9158 39.3832 43.9158 39.3504C43.9158 39.3176 43.9091 39.2852 43.896 39.2551C43.883 39.225 43.864 39.1979 43.84 39.1755C43.8205 39.1474 43.7924 39.1264 43.7601 39.1155H43.5601C43.5277 39.1264 43.4997 39.1474 43.4801 39.1755C43.4366 39.2233 43.4125 39.2857 43.4125 39.3504C43.4125 39.4151 43.4366 39.4775 43.4801 39.5254H43.5601C43.5961 39.5357 43.6342 39.5357 43.6701 39.5254C43.6994 39.5346 43.7308 39.5346 43.7601 39.5254H43.84ZM34.0028 38.8956C34.268 38.9035 34.5254 38.8058 34.7185 38.6239C34.9116 38.4421 35.0246 38.191 35.0326 37.9258C35.0405 37.6607 34.9428 37.4032 34.761 37.2101C34.5791 37.017 34.328 36.9041 34.0628 36.8961C33.9299 36.8866 33.7964 36.9038 33.6702 36.9467C33.544 36.9896 33.4277 37.0572 33.328 37.1457C33.2283 37.2342 33.1474 37.3417 33.0899 37.462C33.0323 37.5822 32.9995 37.7127 32.9931 37.8459C32.9875 37.8722 32.9875 37.8995 32.9931 37.9258C33.001 38.1875 33.1111 38.4356 33.2999 38.6169C33.4887 38.7983 33.7411 38.8983 34.0028 38.8956ZM35.0026 36.5662V36.1563H35.7324V39.4954H35.0026V39.0855C34.8779 39.2434 34.7181 39.3699 34.5358 39.4549C34.3535 39.54 34.1539 39.5812 33.9529 39.5754C33.4889 39.5754 33.0439 39.391 32.7158 39.0629C32.3877 38.7348 32.2034 38.2899 32.2034 37.8259C32.2034 37.3619 32.3877 36.9169 32.7158 36.5888C33.0439 36.2607 33.4889 36.0764 33.9529 36.0764C34.1445 36.076 34.3336 36.12 34.5053 36.205C34.677 36.29 34.8267 36.4136 34.9426 36.5662H35.0026ZM38.2916 36.0764C38.4687 36.077 38.6445 36.1074 38.8115 36.1663L38.5815 36.8661C38.4371 36.8147 38.285 36.7876 38.1317 36.7862C37.6618 36.7862 37.4319 37.0961 37.4319 37.6459V39.5254H36.7021V36.1563H37.4219V36.5662C37.5059 36.424 37.6238 36.3049 37.7651 36.2194C37.9064 36.1339 38.0667 36.0848 38.2316 36.0764H38.2916ZM43.93 27.8787H44V28.3486H43.93V27.9787L43.7901 28.2986H43.7001L43.5601 27.9787V28.3486H43.4702V27.8587H43.5801L43.7301 28.2086L43.93 27.8787ZM43.4202 27.8787V27.9587H43.2502V28.3486H43.1802V27.9387H43.0003V27.8587L43.4202 27.8787ZM26.435 12.5131C25.9105 11.8403 25.3175 11.2238 24.6655 10.6736C26.7271 9.17006 29.2119 8.35812 31.7635 8.35427C32.258 8.35465 32.7521 8.38469 33.2431 8.44424C34.8336 8.63218 36.3713 9.13254 37.7678 9.91659C39.1643 10.7006 40.3922 11.7529 41.3807 13.0129C43.071 15.1665 43.9929 17.8232 44 20.5608C43.9974 23.7947 42.7115 26.8954 40.4248 29.1821C38.1381 31.4688 35.0374 32.7547 31.8035 32.7573C29.2477 32.7511 26.7582 31.9434 24.6855 30.448C27.2387 28.2643 28.8471 25.1768 29.1733 21.833C29.4995 18.4892 28.5181 15.149 26.435 12.5131ZM8.67008 30.148C6.672 28.5811 5.2128 26.4296 4.49602 23.9936C3.77924 21.5577 3.84062 18.9587 4.67161 16.5593C5.50259 14.1599 7.06174 12.0797 9.13157 10.6089C11.2014 9.13799 13.6787 8.34981 16.2179 8.35427C18.7717 8.35379 21.26 9.16223 23.3259 10.6636C21.8958 11.8837 20.7473 13.3995 19.9598 15.1065C19.1723 16.8134 18.7645 18.6709 18.7645 20.5508C18.7645 22.4307 19.1723 24.2881 19.9598 25.9951C20.7473 27.7021 21.8958 29.2179 23.3259 30.438C21.1835 31.9893 18.594 32.8003 15.9494 32.748C13.3049 32.6957 10.7494 31.7829 8.67008 30.148ZM19.587 20.5608C19.5825 18.7665 19.9766 16.9936 20.7407 15.3702C21.5049 13.7468 22.6201 12.3134 24.0057 11.1735C25.3837 12.318 26.4927 13.752 27.2538 15.3736C28.0149 16.9952 28.4095 18.7645 28.4095 20.5558C28.4095 22.3471 28.0149 24.1164 27.2538 25.738C26.4927 27.3596 25.3837 28.7936 24.0057 29.9381C22.6198 28.8007 21.5042 27.3691 20.74 25.7472C19.9757 24.1253 19.5819 22.3537 19.587 20.5608Z" fill="black"/>
</svg>
