<svg width="48" height="48" viewBox="0 0 48 48" fill="none" xmlns="http://www.w3.org/2000/svg">
<path fill-rule="evenodd" clip-rule="evenodd" d="M39.56 21C39.5594 19.2619 39.0875 17.5566 38.1945 16.0655C37.3015 14.5744 36.0208 13.3534 34.4888 12.5325C32.9569 11.7116 31.2309 11.3216 29.4948 11.4039C27.7587 11.4862 26.0774 12.0378 24.63 13C25.8112 13.9719 26.7625 15.1933 27.4156 16.5765C28.0688 17.9597 28.4075 19.4704 28.4075 21C28.4075 22.5296 28.0688 24.0403 27.4156 25.4235C26.7625 26.8067 25.8112 28.0281 24.63 29C26.0774 29.9622 27.7587 30.5138 29.4948 30.5961C31.2309 30.6784 32.9569 30.2884 34.4888 29.4675C36.0208 28.6466 37.3015 27.4256 38.1945 25.9345C39.0875 24.4434 39.5594 22.7381 39.56 21ZM39.25 26.59H39.15L39.04 26.83L38.93 26.59H38.83V27H38.89V26.72L39 27H39.08L39.17 26.76V27H39.25V26.59ZM39 35.28C39.0103 35.2441 39.0103 35.2059 39 35.17V35.09C39 35.09 38.95 35.09 38.93 35.03H38.72L38.64 35.09C38.6108 35.1084 38.5895 35.1369 38.58 35.17C38.5697 35.2059 38.5697 35.2441 38.58 35.28C38.5724 35.3095 38.5724 35.3405 38.58 35.37C38.58 35.37 38.58 35.43 38.64 35.45L38.72 35.51C38.7494 35.5186 38.7806 35.5186 38.81 35.51C38.8494 35.5197 38.8906 35.5197 38.93 35.51L39 35.45L39.06 35.37C39.0497 35.3346 39.0288 35.3031 39 35.28ZM38.54 26.68V27H38.6V26.68H38.73V26.62H38.41V26.68H38.54ZM38 31.9H37.45V33.24C37.2663 33.0858 37.0424 32.9872 36.8045 32.9558C36.5667 32.9245 36.3249 32.9616 36.1075 33.063C35.8901 33.1643 35.7061 33.3256 35.5772 33.5279C35.4483 33.7302 35.3798 33.9651 35.3798 34.205C35.3798 34.4449 35.4483 34.6798 35.5772 34.8821C35.7061 35.0844 35.8901 35.2457 36.1075 35.347C36.3249 35.4484 36.5667 35.4855 36.8045 35.4542C37.0424 35.4228 37.2663 35.3242 37.45 35.17V35.49H38V31.9ZM35.2 32.9C35.0231 32.829 34.8271 32.821 34.645 32.8774C34.4628 32.9339 34.3057 33.0513 34.2 33.21V32.9H33.65V35.45H34.2V34C34.1816 33.8888 34.1959 33.7747 34.2413 33.6716C34.2867 33.5685 34.3611 33.4808 34.4555 33.4193C34.5499 33.3577 34.6602 33.3251 34.7729 33.3252C34.8855 33.3253 34.9957 33.3583 35.09 33.42L35.2 32.9ZM32.86 32.9H32.29V33.21C32.113 33.0267 31.8827 32.9039 31.6319 32.8592C31.3811 32.8144 31.1225 32.85 30.8931 32.9608C30.6637 33.0717 30.4751 33.2521 30.3542 33.4764C30.2334 33.7007 30.1864 33.9574 30.22 34.21C30.22 35.54 31.77 35.93 32.29 35.21V35.53H32.86V32.9ZM28.27 34.2C28.27 33.41 29.08 33.15 29.71 33.62L29.97 33.17C29.7711 32.9994 29.5274 32.8895 29.2679 32.8532C29.0084 32.8169 28.7439 32.8558 28.5059 32.9653C28.2678 33.0747 28.0661 33.2502 27.9247 33.4708C27.7833 33.6914 27.7082 33.948 27.7082 34.21C27.7082 34.472 27.7833 34.7286 27.9247 34.9492C28.0661 35.1698 28.2678 35.3453 28.5059 35.4547C28.7439 35.5642 29.0084 35.6031 29.2679 35.5668C29.5274 35.5305 29.7711 35.4206 29.97 35.25L29.71 34.8C29.07 35.25 28.27 35 28.27 34.2ZM27.53 32.93C27.3479 32.8409 27.1391 32.8234 26.9447 32.8808C26.7503 32.9381 26.5845 33.0663 26.48 33.24V32.93H25.91V35.48H26.48V34C26.4616 33.8888 26.4759 33.7747 26.5213 33.6716C26.5667 33.5685 26.6411 33.4808 26.7355 33.4193C26.8299 33.3577 26.9402 33.3251 27.0529 33.3252C27.1655 33.3253 27.2757 33.3583 27.37 33.42L27.53 32.93ZM23.43 34.42H25.34C25.34 33.3 24.83 32.85 24.13 32.85C23.9572 32.8482 23.7858 32.8822 23.6268 32.95C23.4678 33.0177 23.3245 33.1177 23.2061 33.2436C23.0877 33.3696 22.9967 33.5187 22.9388 33.6816C22.881 33.8445 22.8575 34.0176 22.87 34.19C22.871 34.4617 22.9517 34.7272 23.102 34.9536C23.2523 35.18 23.4657 35.3574 23.7157 35.4638C23.9658 35.5702 24.2415 35.601 24.5089 35.5523C24.7762 35.5036 25.0235 35.3777 25.22 35.19L25 34.76C24.41 35.21 23.59 35.17 23.43 34.42ZM22.51 35.35L22.35 34.88C22.09 35.03 21.51 35.19 21.51 34.6V33.44H22.42V32.93H21.51V32.15H20.94V32.93H20.41V33.44H20.94V34.6C20.94 35.82 22.14 35.6 22.51 35.35ZM20.05 34.71C20.05 33.71 18.46 34.14 18.46 33.65C18.46 33.16 19.28 33.32 19.74 33.58L19.97 33.12C19.32 32.7 17.88 32.71 17.88 33.69C17.88 34.67 19.47 34.27 19.47 34.69C19.47 35.11 18.53 35.09 18.03 34.74L17.78 35.18C18.56 35.76 20.05 35.65 20.05 34.71ZM17.24 32.93H16.69V33.24C16.5938 33.1181 16.4705 33.0203 16.3299 32.9544C16.1893 32.8884 16.0352 32.8561 15.88 32.86C15.5246 32.86 15.1838 33.0012 14.9325 33.2525C14.6812 33.5038 14.54 33.8446 14.54 34.2C14.54 34.5554 14.6812 34.8962 14.9325 35.1475C15.1838 35.3988 15.5246 35.54 15.88 35.54C16.0344 35.5451 16.1879 35.5143 16.3285 35.4501C16.469 35.3859 16.5927 35.2901 16.69 35.17V35.49H17.24V32.93ZM14.12 33.88C14.12 33.6148 14.0146 33.3604 13.8271 33.1729C13.6396 32.9854 13.3852 32.88 13.12 32.88C12.9452 32.8706 12.7711 32.9072 12.6149 32.9861C12.4587 33.0651 12.326 33.1837 12.23 33.33C12.1428 33.1847 12.0175 33.0659 11.8677 32.9866C11.7179 32.9073 11.5492 32.8704 11.38 32.88C11.2364 32.8782 11.0946 32.9119 10.9672 32.9782C10.8399 33.0445 10.7309 33.1413 10.65 33.26V32.95H10.06V35.5H10.63C10.63 34.19 10.45 33.4 11.25 33.4C12.05 33.4 11.82 34.11 11.82 35.5H12.37C12.37 34.23 12.19 33.4 12.99 33.4C13.79 33.4 13.56 34.1 13.56 35.5H14.13V33.9L14.12 33.88ZM24 28.58C25.1421 27.6806 26.0652 26.5339 26.6999 25.2261C27.3347 23.9184 27.6644 22.4837 27.6644 21.03C27.6644 19.5763 27.3347 18.1416 26.6999 16.8339C26.0652 15.5261 25.1421 14.3794 24 13.48C22.8579 14.3794 21.9348 15.5261 21.3001 16.8339C20.6653 18.1416 20.3356 19.5763 20.3356 21.03C20.3356 22.4837 20.6653 23.9184 21.3001 25.2261C21.9348 26.5339 22.8579 27.6806 24 28.58ZM8.44 21C8.43936 22.7396 8.91095 24.4468 9.80446 25.9395C10.698 27.4321 11.9799 28.6542 13.5135 29.4754C15.0471 30.2966 16.7749 30.6861 18.5125 30.6024C20.2501 30.5187 21.9325 29.9649 23.38 29C22.1972 28.0291 21.2444 26.8081 20.5903 25.4247C19.9361 24.0414 19.5968 22.5302 19.5968 21C19.5968 19.4698 19.9361 17.9586 20.5903 16.5753C21.2444 15.1919 22.1972 13.9709 23.38 13C21.931 12.0422 20.2499 11.4942 18.5148 11.414C16.7797 11.3337 15.0553 11.7243 13.524 12.5442C11.9928 13.3641 10.7118 14.5829 9.81683 16.0715C8.92182 17.5601 8.44608 19.2631 8.44 21ZM44 11.33V35.78C44 36.6632 43.6492 37.5102 43.0247 38.1347C42.4002 38.7592 41.5532 39.11 40.67 39.11H7.33C6.44683 39.11 5.59983 38.7592 4.97533 38.1347C4.35084 37.5102 4 36.6632 4 35.78V11.33C4 10.4468 4.35084 9.59983 4.97533 8.97533C5.59983 8.35084 6.44683 8 7.33 8H40.67C41.5532 8 42.4002 8.35084 43.0247 8.97533C43.6492 9.59983 44 10.4468 44 11.33ZM38.8 35.33C38.8 35.33 38.8 35.33 38.85 35.33C38.8553 35.3209 38.858 35.3105 38.858 35.3C38.858 35.2895 38.8553 35.2791 38.85 35.27C38.85 35.27 38.85 35.27 38.78 35.27H38.67V35.51V35.41L38.75 35.51H38.81L38.8 35.33ZM38.95 35.23C38.95 35.23 38.95 35.23 38.95 35.31C38.95 35.39 38.95 35.31 38.95 35.38C38.95 35.45 38.95 35.38 38.95 35.44C38.9374 35.4455 38.9238 35.4483 38.91 35.4483C38.8962 35.4483 38.8826 35.4455 38.87 35.44C38.87 35.44 38.87 35.44 38.79 35.44C38.71 35.44 38.79 35.44 38.72 35.44H38.66C38.6531 35.4206 38.6531 35.3994 38.66 35.38C38.6524 35.3573 38.6524 35.3327 38.66 35.31C38.66 35.31 38.66 35.25 38.66 35.23C38.66 35.21 38.66 35.18 38.66 35.15C38.66 35.12 38.66 35.15 38.72 35.15C38.7427 35.1424 38.7673 35.1424 38.79 35.15C38.79 35.15 38.85 35.15 38.87 35.15H38.95C38.95 35.15 38.93 35.17 39 35.2L38.95 35.23ZM31.6 33.39C31.4387 33.384 31.2792 33.4264 31.1421 33.5117C31.005 33.597 30.8965 33.7213 30.8306 33.8687C30.7647 34.0161 30.7443 34.1798 30.7721 34.3388C30.7999 34.4979 30.8745 34.645 30.9865 34.7613C31.0985 34.8776 31.2427 34.9578 31.4006 34.9915C31.5585 35.0253 31.7229 35.0111 31.8726 34.9508C32.0224 34.8905 32.1507 34.7867 32.2411 34.653C32.3315 34.5192 32.3799 34.3615 32.38 34.2C32.3855 34.0947 32.3693 33.9894 32.3324 33.8907C32.2956 33.7919 32.2388 33.7018 32.1657 33.6258C32.0926 33.5499 32.0046 33.4898 31.9073 33.4492C31.81 33.4086 31.7054 33.3885 31.6 33.39ZM24.11 33.39C23.9442 33.387 23.7835 33.4474 23.6608 33.5589C23.5382 33.6705 23.4627 33.8247 23.45 33.99H24.78C24.7774 33.9051 24.758 33.8215 24.7228 33.7442C24.6876 33.6668 24.6373 33.5973 24.575 33.5395C24.5126 33.4818 24.4394 33.4371 24.3595 33.408C24.2797 33.3789 24.1949 33.366 24.11 33.37V33.39ZM15.95 33.39C15.788 33.38 15.6268 33.4188 15.4872 33.5015C15.3476 33.5842 15.236 33.707 15.167 33.8538C15.0979 34.0007 15.0746 34.1649 15.1 34.3251C15.1253 34.4854 15.1983 34.6344 15.3093 34.7527C15.4203 34.871 15.5643 34.9533 15.7227 34.9888C15.881 35.0243 16.0464 35.0115 16.1973 34.9519C16.3482 34.8924 16.4778 34.7888 16.5692 34.6548C16.6607 34.5207 16.7097 34.3623 16.71 34.2C16.721 33.999 16.6529 33.8016 16.5202 33.6502C16.3875 33.4988 16.2007 33.4054 16 33.39H15.95ZM37.53 34.2C37.5241 34.3533 37.4731 34.5014 37.3835 34.6259C37.2938 34.7503 37.1694 34.8456 37.0259 34.8997C36.8824 34.9539 36.7261 34.9645 36.5766 34.9303C36.4271 34.8961 36.2909 34.8185 36.1853 34.7074C36.0796 34.5962 36.009 34.4563 35.9824 34.3052C35.9558 34.1542 35.9743 33.9986 36.0357 33.858C36.097 33.7174 36.1984 33.5981 36.3273 33.5148C36.4561 33.4316 36.6066 33.3881 36.76 33.39C36.8646 33.3899 36.9681 33.411 37.0642 33.4522C37.1603 33.4934 37.2471 33.5537 37.3191 33.6295C37.3912 33.7053 37.447 33.7949 37.4833 33.893C37.5195 33.9911 37.5354 34.0956 37.53 34.2Z" fill="black"/>
</svg>
