<svg width="48" height="48" viewBox="0 0 48 48" fill="none" xmlns="http://www.w3.org/2000/svg">
<path d="M41.3003 6.67416C41.0876 6.46182 40.8351 6.29344 40.5572 6.17862C40.2793 6.0638 39.9815 6.0048 39.6808 6.00499H32.0429C31.8512 5.9887 31.6581 6.01237 31.4761 6.07449C31.294 6.13661 31.1268 6.23583 30.9851 6.36587C30.8434 6.4959 30.7302 6.65392 30.6529 6.82992C30.5755 7.00591 30.5355 7.19604 30.5355 7.38826C30.5355 7.58049 30.5755 7.77062 30.6529 7.94661C30.7302 8.12261 30.8434 8.28063 30.9851 8.41066C31.1268 8.5407 31.294 8.63992 31.4761 8.70204C31.6581 8.76416 31.8512 8.78782 32.0429 8.77153H37.2414L27.5141 18.4894C27.3799 18.6189 27.2731 18.774 27.2002 18.9456C27.1273 19.1172 27.0897 19.3017 27.0897 19.4881C27.0897 19.6746 27.1273 19.8591 27.2002 20.0307C27.2731 20.2022 27.3799 20.3574 27.5141 20.4869C27.6451 20.6175 27.8012 20.7202 27.9731 20.7889C28.1449 20.8576 28.3289 20.8907 28.5139 20.8864C28.6988 20.8902 28.8826 20.8567 29.0543 20.7881C29.2261 20.7195 29.3823 20.617 29.5136 20.4869L39.2209 10.6991V15.9925C39.2046 16.184 39.2283 16.3769 39.2904 16.5588C39.3526 16.7407 39.4519 16.9077 39.5821 17.0493C39.7123 17.1909 39.8704 17.3039 40.0466 17.3812C40.2228 17.4585 40.4131 17.4984 40.6055 17.4984C40.7979 17.4984 40.9882 17.4585 41.1644 17.3812C41.3406 17.3039 41.4987 17.1909 41.6289 17.0493C41.7591 16.9077 41.8584 16.7407 41.9206 16.5588C41.9827 16.3769 42.0064 16.184 41.9901 15.9925V8.31211C41.9909 8.00684 41.9302 7.70452 41.8117 7.42314C41.6932 7.14175 41.5193 6.88704 41.3003 6.67416Z" fill="black"/>
<path d="M18.5166 27.5281L8.76935 37.2659V32.0225C8.78565 31.8309 8.76196 31.6381 8.69978 31.4562C8.6376 31.2743 8.53829 31.1073 8.40812 30.9657C8.27796 30.8241 8.11979 30.7111 7.94362 30.6338C7.76746 30.5565 7.57714 30.5166 7.38473 30.5166C7.19232 30.5166 7.002 30.5565 6.82584 30.6338C6.64967 30.7111 6.4915 30.8241 6.36134 30.9657C6.23117 31.1073 6.13186 31.2743 6.06968 31.4562C6.0075 31.6381 5.98381 31.8309 6.00012 32.0225V39.6529C5.99933 39.9582 6.05999 40.2605 6.17849 40.5419C6.29699 40.8233 6.47092 41.078 6.68992 41.2909C6.90233 41.5037 7.15479 41.6723 7.43275 41.7872C7.71071 41.902 8.00868 41.9608 8.30947 41.96H15.9973C16.1891 41.9763 16.3821 41.9527 16.5642 41.8905C16.7463 41.8284 16.9134 41.7292 17.0551 41.5992C17.1969 41.4691 17.31 41.3111 17.3874 41.1351C17.4648 40.9591 17.5047 40.769 17.5047 40.5768C17.5047 40.3845 17.4648 40.1944 17.3874 40.0184C17.31 39.8424 17.1969 39.6844 17.0551 39.5544C16.9134 39.4243 16.7463 39.3251 16.5642 39.263C16.3821 39.2009 16.1891 39.1772 15.9973 39.1935H10.7488L20.4761 29.4757C20.7346 29.2108 20.8772 28.8541 20.8725 28.4842C20.8678 28.1143 20.7162 27.7614 20.4511 27.5031C20.186 27.2449 19.829 27.1024 19.4587 27.1071C19.0884 27.1118 18.7352 27.2632 18.4766 27.5281H18.5166Z" fill="black"/>
<path d="M41.9901 32.0225C42.0064 31.8309 41.9827 31.6381 41.9206 31.4562C41.8584 31.2743 41.7591 31.1073 41.6289 30.9657C41.4987 30.8241 41.3406 30.7111 41.1644 30.6338C40.9882 30.5565 40.7979 30.5166 40.6055 30.5166C40.4131 30.5166 40.2228 30.5565 40.0466 30.6338C39.8704 30.7111 39.7123 30.8241 39.5821 30.9657C39.4519 31.1073 39.3526 31.2743 39.2904 31.4562C39.2283 31.6381 39.2046 31.8309 39.2209 32.0225V37.216L29.4936 27.4981C29.3623 27.3702 29.2071 27.2694 29.0368 27.2015C28.8665 27.1335 28.6845 27.0998 28.5012 27.1021C28.3178 27.1044 28.1368 27.1428 27.9683 27.215C27.7998 27.2872 27.6471 27.3919 27.5191 27.5231C27.3911 27.6542 27.2902 27.8093 27.2222 27.9794C27.1542 28.1495 27.1204 28.3314 27.1227 28.5145C27.125 28.6977 27.1634 28.8786 27.2358 29.0469C27.3081 29.2153 27.4128 29.3677 27.5441 29.4956L37.2914 39.2335H32.0429C31.696 39.2629 31.3728 39.4214 31.1373 39.6776C30.9017 39.9337 30.771 40.2689 30.771 40.6167C30.771 40.9645 30.9017 41.2997 31.1373 41.5559C31.3728 41.812 31.696 41.9705 32.0429 42H39.6808C39.9863 42.0008 40.2889 41.9402 40.5706 41.8218C40.8523 41.7034 41.1072 41.5296 41.3203 41.3109C41.7374 40.8833 41.9706 40.3098 41.9701 39.7129L41.9901 32.0225Z" fill="black"/>
<path d="M10.6988 8.77153H15.9973C16.1891 8.78782 16.3821 8.76416 16.5642 8.70204C16.7463 8.63992 16.9134 8.5407 17.0551 8.41066C17.1969 8.28063 17.31 8.12261 17.3874 7.94661C17.4648 7.77062 17.5047 7.58049 17.5047 7.38826C17.5047 7.19604 17.4648 7.00591 17.3874 6.82992C17.31 6.65392 17.1969 6.4959 17.0551 6.36587C16.9134 6.23583 16.7463 6.13661 16.5642 6.07449C16.3821 6.01237 16.1891 5.9887 15.9973 6.00499H8.30947C8.0039 6.00421 7.70129 6.06481 7.41964 6.18319C7.13798 6.30158 6.88302 6.47534 6.66993 6.69413C6.45739 6.90666 6.28884 7.15894 6.17391 7.43655C6.05898 7.71417 5.99993 8.01169 6.00012 8.31211V15.9925C5.98381 16.184 6.0075 16.3769 6.06968 16.5588C6.13186 16.7407 6.23117 16.9077 6.36134 17.0493C6.4915 17.1909 6.64967 17.3039 6.82584 17.3812C7.002 17.4585 7.19232 17.4984 7.38473 17.4984C7.57714 17.4984 7.76746 17.4585 7.94362 17.3812C8.11979 17.3039 8.27796 17.1909 8.40812 17.0493C8.53829 16.9077 8.6376 16.7407 8.69978 16.5588C8.76196 16.3769 8.78565 16.184 8.76935 15.9925V10.7491L18.4966 20.4669C18.6271 20.5989 18.7829 20.7031 18.9547 20.7735C19.1265 20.8439 19.3107 20.8789 19.4964 20.8764C19.7721 20.8792 20.0424 20.8001 20.2729 20.649C20.5035 20.4979 20.6838 20.2817 20.791 20.0279C20.8982 19.7741 20.9274 19.4942 20.8749 19.2238C20.8223 18.9534 20.6905 18.7047 20.4961 18.5094L10.6988 8.77153Z" fill="black"/>
</svg>
