<svg width="48" height="48" viewBox="0 0 48 48" fill="none" xmlns="http://www.w3.org/2000/svg">
<path d="M40.9903 6.99974C40.8893 6.90228 40.7788 6.8152 40.6604 6.73981C40.0646 6.26247 39.3244 6.00163 38.561 6.00001H31.4629C30.7815 6.00001 30.128 6.27071 29.6462 6.75254C29.1643 7.23437 28.8936 7.88788 28.8936 8.5693C28.8936 9.25072 29.1643 9.90422 29.6462 10.3861C30.128 10.8679 30.7815 11.1386 31.4629 11.1386H33.1925L26.3544 17.9967C25.9133 18.4867 25.6776 19.1275 25.6958 19.7865C25.7141 20.4455 25.9849 21.0723 26.4524 21.5372C26.9198 22.002 27.5481 22.2694 28.2072 22.284C28.8663 22.2987 29.5058 22.0594 29.9933 21.6157L36.8614 14.7476V16.5271C36.8614 17.2085 37.1321 17.862 37.614 18.3438C38.0958 18.8257 38.7493 19.0964 39.4307 19.0964C40.1121 19.0964 40.7656 18.8257 41.2475 18.3438C41.7293 17.862 42 17.2085 42 16.5271V9.42906C41.9999 8.9776 41.9107 8.5306 41.7374 8.11371C41.5641 7.69683 41.3102 7.31826 40.9903 6.99974Z" fill="black"/>
<path d="M17.9967 26.3743L11.1386 33.2324V31.4629C11.1386 30.7815 10.8679 30.128 10.3861 29.6462C9.90422 29.1643 9.25071 28.8936 8.5693 28.8936C7.88788 28.8936 7.23437 29.1643 6.75254 29.6462C6.2707 30.128 6.00001 30.7815 6.00001 31.4629V38.561C5.9988 39.0117 6.08647 39.4583 6.25801 39.8752C6.42955 40.292 6.6816 40.6709 6.99973 40.9903C7.08187 41.0657 7.16869 41.1358 7.25966 41.2002C7.86808 41.7093 8.63578 41.9888 9.42906 41.99H16.5271C17.2085 41.99 17.862 41.7193 18.3438 41.2375C18.8257 40.7556 19.0964 40.1021 19.0964 39.4207C19.0964 38.7393 18.8257 38.0858 18.3438 37.604C17.862 37.1221 17.2085 36.8514 16.5271 36.8514H14.7976L21.6357 29.9933C22.0767 29.5033 22.3124 28.8625 22.2942 28.2035C22.2759 27.5445 22.0051 26.9177 21.5376 26.4529C21.0702 25.988 20.4419 25.7206 19.7828 25.706C19.1238 25.6914 18.4843 25.9306 17.9967 26.3743Z" fill="black"/>
<path d="M39.4207 28.8936C38.7393 28.8936 38.0858 29.1643 37.604 29.6462C37.1221 30.128 36.8514 30.7815 36.8514 31.4629V33.1925L29.9933 26.3544C29.759 26.0968 29.4748 25.8896 29.1579 25.7453C28.841 25.601 28.4981 25.5226 28.15 25.5149C27.8019 25.5072 27.4559 25.5703 27.1329 25.7004C26.81 25.8305 26.5168 26.0249 26.2713 26.2718C26.0258 26.5187 25.833 26.8129 25.7047 27.1366C25.5763 27.4603 25.5151 27.8066 25.5248 28.1547C25.5344 28.5027 25.6147 28.8452 25.7607 29.1613C25.9068 29.4773 26.1155 29.7604 26.3743 29.9933L33.2324 36.8614H31.4629C30.7815 36.8614 30.128 37.1321 29.6462 37.614C29.1643 38.0958 28.8936 38.7493 28.8936 39.4307C28.8936 40.1121 29.1643 40.7656 29.6462 41.2475C30.128 41.7293 30.7815 42 31.4629 42H38.561C39.0124 41.9999 39.4594 41.9107 39.8763 41.7374C40.2932 41.5641 40.6718 41.3102 40.9903 40.9903C41.101 40.8761 41.2014 40.7523 41.2902 40.6204C41.7288 40.0452 41.9707 39.3442 41.98 38.6209V31.5229C41.988 31.1813 41.9278 30.8416 41.8028 30.5236C41.6779 30.2056 41.4908 29.9157 41.2525 29.6708C41.0142 29.426 40.7294 29.2311 40.4149 29.0977C40.1004 28.9643 39.7624 28.8949 39.4207 28.8936Z" fill="black"/>
<path d="M8.5693 19.0964C9.25072 19.0964 9.90422 18.8257 10.3861 18.3438C10.8679 17.862 11.1386 17.2085 11.1386 16.5271V14.7976L17.9967 21.6357C18.231 21.8932 18.5153 22.1004 18.8321 22.2447C19.149 22.389 19.4919 22.4674 19.84 22.4751C20.1881 22.4828 20.5341 22.4197 20.8571 22.2896C21.18 22.1595 21.4732 21.9651 21.7187 21.7182C21.9642 21.4713 22.157 21.1771 22.2853 20.8534C22.4137 20.5298 22.4749 20.1834 22.4653 19.8353C22.4556 19.4873 22.3753 19.1448 22.2293 18.8288C22.0832 18.5127 21.8745 18.2296 21.6157 17.9967L14.7476 11.1386H16.5271C17.2085 11.1386 17.862 10.8679 18.3438 10.3861C18.8257 9.90422 19.0964 9.25071 19.0964 8.5693C19.0964 7.88788 18.8257 7.23437 18.3438 6.75254C17.862 6.2707 17.2085 6.00001 16.5271 6.00001H9.42906C8.9783 5.9988 8.53171 6.08647 8.11487 6.25801C7.69802 6.42955 7.31908 6.6816 6.99974 6.99973C6.89866 7.10641 6.80513 7.21999 6.71981 7.33964C6.25453 7.93687 6.00128 8.67198 6.00001 9.42906V16.5271C6.00001 17.2085 6.27071 17.862 6.75254 18.3438C7.23437 18.8257 7.88788 19.0964 8.5693 19.0964Z" fill="black"/>
</svg>
