<svg width="48" height="48" viewBox="0 0 48 48" fill="none" xmlns="http://www.w3.org/2000/svg">
<path d="M32.9825 17.6166L39.041 7.78907C39.2718 7.41202 39.398 6.9803 39.4067 6.5383C39.4154 6.09629 39.3062 5.65995 39.0904 5.27412C38.8746 4.88829 38.5599 4.5669 38.1787 4.34297C37.7975 4.11905 37.3636 4.00067 36.9215 4.00002H33.0325C32.6092 3.9994 32.1929 4.10757 31.8236 4.31415C31.4542 4.52073 31.1441 4.81879 30.923 5.17972L24.9945 14.7773C27.8702 14.9586 30.6375 15.9423 32.9825 17.6166Z" fill="black"/>
<path d="M15.017 17.6166C17.3641 15.9391 20.1355 14.9552 23.015 14.7773L17.0765 5.17972C16.8562 4.81813 16.5462 4.51954 16.1767 4.31286C15.8071 4.10619 15.3904 3.99843 14.967 4.00002H11.068C10.6267 4.00244 10.1941 4.1221 9.8143 4.34674C9.43452 4.57138 9.12127 4.89293 8.90664 5.27846C8.69201 5.66399 8.5837 6.09963 8.59282 6.54078C8.60193 6.98194 8.72814 7.41274 8.95852 7.78907L15.017 17.6166Z" fill="black"/>
<path d="M23.9947 16.5469C21.2799 16.5469 18.626 17.3519 16.3687 18.8602C14.1114 20.3685 12.352 22.5123 11.3131 25.0205C10.2741 27.5287 10.0023 30.2887 10.5319 32.9513C11.0616 35.614 12.3689 38.0599 14.2886 39.9796C16.2083 41.8993 18.6541 43.2066 21.3168 43.7362C23.9795 44.2659 26.7395 43.9941 29.2477 42.9551C31.7559 41.9162 33.8997 40.1568 35.408 37.8995C36.9163 35.6422 37.7213 32.9883 37.7213 30.2734C37.7187 26.6337 36.2716 23.1439 33.698 20.5702C31.1243 17.9966 27.6344 16.5495 23.9947 16.5469ZM29.5234 32.7628L30.5231 38.5514C30.5613 38.7216 30.5497 38.8993 30.4897 39.0632C30.4297 39.227 30.3239 39.3702 30.1848 39.4756C30.0457 39.581 29.8792 39.6441 29.7052 39.6575C29.5312 39.6709 29.357 39.634 29.2034 39.5511L24.0047 36.8218L18.816 39.5511C18.6625 39.634 18.4883 39.6709 18.3143 39.6575C18.1403 39.6441 17.9738 39.581 17.8347 39.4756C17.6956 39.3702 17.5898 39.227 17.5298 39.0632C17.4698 38.8993 17.4582 38.7216 17.4964 38.5514L18.4961 32.7628L14.2972 28.6638C14.1763 28.5455 14.0908 28.3959 14.0503 28.2317C14.0098 28.0676 14.0158 27.8953 14.0677 27.7344C14.1197 27.5735 14.2154 27.4302 14.3442 27.3206C14.4731 27.2111 14.6299 27.1396 14.7971 27.1142L20.5856 26.2744L23.185 20.9958C23.2603 20.8441 23.3765 20.7164 23.5204 20.6272C23.6644 20.538 23.8304 20.4907 23.9997 20.4907C24.1691 20.4907 24.3351 20.538 24.4791 20.6272C24.623 20.7164 24.7392 20.8441 24.8145 20.9958L27.4139 26.2644L33.2224 27.1042C33.3896 27.1296 33.5464 27.2011 33.6753 27.3106C33.8041 27.4202 33.8998 27.5635 33.9518 27.7244C34.0037 27.8853 34.0097 28.0576 33.9692 28.2217C33.9286 28.3859 33.8432 28.5355 33.7223 28.6538L29.5234 32.7628Z" fill="black"/>
</svg>
