<svg width="48" height="48" viewBox="0 0 48 48" fill="none" xmlns="http://www.w3.org/2000/svg">
<path d="M18.1319 16.65L12.0419 6.79H14.3519L20.0319 16C21.0118 15.7296 22.0172 15.562 23.0319 15.5L16.5219 5C16.3386 4.69447 16.0791 4.44173 15.7689 4.26645C15.4586 4.09118 15.1082 3.99937 14.7519 4H10.7519C10.3837 4.0038 10.0231 4.10529 9.70691 4.29409C9.39075 4.4829 9.13038 4.75225 8.95241 5.07464C8.77444 5.39702 8.68524 5.76087 8.69394 6.12901C8.70264 6.49715 8.80891 6.85638 9.0019 7.17L15.6919 18C16.4624 17.4767 17.2792 17.0248 18.1319 16.65Z" fill="black"/>
<path d="M39.0419 5.06C38.8612 4.7388 38.5983 4.47139 38.2803 4.28514C37.9623 4.09889 37.6005 4.00049 37.2319 4H33.2319C32.8756 3.99937 32.5252 4.09118 32.215 4.26645C31.9047 4.44173 31.6453 4.69447 31.4619 5L25.0019 15.5C26.0166 15.562 27.022 15.7296 28.0019 16L33.6919 6.79H36.0019L29.9219 16.65C30.7632 17.0285 31.5697 17.4802 32.3319 18L39.0019 7.17C39.1942 6.85312 39.2992 6.49099 39.3062 6.12039C39.3132 5.7498 39.222 5.38395 39.0419 5.06Z" fill="black"/>
<path d="M24.0019 16.84C21.316 16.84 18.6905 17.6365 16.4573 19.1286C14.224 20.6208 12.4835 22.7417 11.4556 25.2232C10.4278 27.7046 10.1589 30.4351 10.6828 33.0693C11.2068 35.7036 12.5002 38.1233 14.3994 40.0225C16.2986 41.9217 18.7183 43.2151 21.3526 43.7391C23.9868 44.2631 26.7173 43.9941 29.1987 42.9663C31.6802 41.9384 33.8011 40.1979 35.2933 37.9646C36.7854 35.7314 37.5819 33.1059 37.5819 30.42C37.5793 26.8192 36.1477 23.3666 33.6015 20.8204C31.0553 18.2742 27.6027 16.8427 24.0019 16.84ZM24.0019 41.21C21.8678 41.21 19.7817 40.5772 18.0073 39.3916C16.2329 38.2059 14.8499 36.5208 14.0332 34.5492C13.2166 32.5775 13.0029 30.408 13.4192 28.315C13.8356 26.2219 14.8632 24.2993 16.3722 22.7903C17.8812 21.2813 19.8038 20.2537 21.8969 19.8373C23.9899 19.421 26.1594 19.6347 28.1311 20.4513C30.1027 21.268 31.7878 22.651 32.9735 24.4254C34.1591 26.1998 34.7919 28.2859 34.7919 30.42C34.7893 33.2809 33.6516 36.0238 31.6287 38.0468C29.6057 40.0697 26.8628 41.2074 24.0019 41.21Z" fill="black"/>
<path d="M24.8319 21.18C24.7553 21.0238 24.6365 20.8923 24.4889 20.8003C24.3413 20.7083 24.1708 20.6595 23.9969 20.6595C23.823 20.6595 23.6525 20.7083 23.5049 20.8003C23.3573 20.8923 23.2385 21.0238 23.1619 21.18L20.8119 25.94L15.5619 26.7C15.389 26.7237 15.2263 26.7956 15.0924 26.9074C14.9584 27.0192 14.8586 27.1664 14.8044 27.3323C14.7501 27.4981 14.7436 27.6759 14.7857 27.8452C14.8277 28.0146 14.9165 28.1687 15.0419 28.29L18.8419 32L17.9519 37.23C17.918 37.4026 17.9337 37.5813 17.9973 37.7453C18.0608 37.9093 18.1696 38.0519 18.3109 38.1566C18.4522 38.2613 18.6204 38.3238 18.7958 38.3368C18.9712 38.3498 19.1467 38.3127 19.3019 38.23L24.0019 35.76L28.6919 38.21C28.8471 38.2927 29.0226 38.3298 29.198 38.3168C29.3734 38.3038 29.5416 38.2413 29.6829 38.1366C29.8243 38.0319 29.933 37.8893 29.9965 37.7253C30.0601 37.5613 30.0758 37.3826 30.0419 37.21L29.1519 32L32.9519 28.29C33.0772 28.1694 33.1661 28.0161 33.2086 27.8474C33.2511 27.6788 33.2455 27.5017 33.1923 27.3361C33.1392 27.1705 33.0408 27.0231 32.9081 26.9107C32.7755 26.7983 32.6139 26.7253 32.4419 26.7L27.1819 25.94L24.8319 21.18ZM26.6919 30.5L26.1619 31.07L26.6919 34L23.9719 32.64L21.3319 34L21.6919 31.77L21.7819 30.99L19.6919 28.92L22.6919 28.48L24.0219 25.79L25.0219 27.79L25.3919 28.49L28.3919 28.92L26.6919 30.5Z" fill="black"/>
</svg>
