<svg width="48" height="48" viewBox="0 0 48 48" fill="none" xmlns="http://www.w3.org/2000/svg">
<path fill-rule="evenodd" clip-rule="evenodd" d="M8.74 14.48C8.76629 14.2377 8.73467 13.9925 8.64774 13.7648C8.56082 13.5371 8.42107 13.3332 8.24 13.17L4.5 8.67V8H16.1L25.1 27.66L32.94 8H44V8.67L40.81 11.73C40.673 11.8324 40.567 11.9706 40.5035 12.1294C40.44 12.2882 40.4215 12.4614 40.45 12.63V35.13C40.4211 35.2972 40.4395 35.4691 40.5031 35.6263C40.5667 35.7836 40.673 35.92 40.81 36.02L43.93 39.08V39.76H28.24V39.08L31.47 36C31.79 35.68 31.79 35.59 31.79 35.1V16.87L22.79 39.68H21.59L11.13 16.87V32.16C11.0894 32.4765 11.1205 32.7981 11.2209 33.101C11.3212 33.4039 11.4884 33.6804 11.71 33.91L15.91 39.01V39.68H4V39L8.2 33.9C8.42287 33.6724 8.58815 33.3948 8.68208 33.0904C8.77601 32.786 8.79586 32.4636 8.74 32.15V14.48Z" fill="black"/>
</svg>
