<svg width="48" height="48" viewBox="0 0 48 48" fill="none" xmlns="http://www.w3.org/2000/svg">
<path fill-rule="evenodd" clip-rule="evenodd" d="M35.91 14.53L34 16.38C33.9189 16.4426 33.8559 16.5255 33.8172 16.6203C33.7786 16.7152 33.7657 16.8186 33.78 16.92V30.52C33.7639 30.623 33.7758 30.7284 33.8145 30.8252C33.8532 30.922 33.9173 31.0066 34 31.07L35.88 32.92V33.32H26.38V32.92L28.33 31C28.52 30.81 28.52 30.75 28.52 30.46V19.46L23.09 33.26H22.36L16 19.48V28.73C15.9706 28.9218 15.987 29.1178 16.0478 29.302C16.1087 29.4862 16.2122 29.6534 16.35 29.79L18.89 32.87V33.28H11.72V32.87L14.26 29.79C14.3943 29.6516 14.4941 29.4835 14.5514 29.2993C14.6087 29.1152 14.6219 28.9202 14.59 28.73V18C14.6059 17.854 14.5871 17.7063 14.5349 17.569C14.4828 17.4316 14.3988 17.3086 14.29 17.21L12 14.53V14.12H19L24.46 26L29.22 14.12H35.91V14.53ZM6 42H42V6H6V42Z" fill="black"/>
</svg>
