<svg width="48" height="48" viewBox="0 0 48 48" fill="none" xmlns="http://www.w3.org/2000/svg">
<path d="M30.69 33H17.31C17.0063 33.0013 16.7053 32.9425 16.4244 32.8269C16.1436 32.7112 15.8884 32.5411 15.6736 32.3264C15.4589 32.1116 15.2888 31.8564 15.1731 31.5756C15.0575 31.2947 14.9987 30.9937 15 30.69V17.31C15 16.6974 15.2434 16.1098 15.6766 15.6766C16.1098 15.2434 16.6974 15 17.31 15H30.69C31.3027 15 31.8902 15.2434 32.3234 15.6766C32.7566 16.1098 33 16.6974 33 17.31V30.69C33.0013 30.9937 32.9425 31.2947 32.8269 31.5756C32.7112 31.8564 32.5411 32.1116 32.3264 32.3264C32.1116 32.5411 31.8564 32.7112 31.5756 32.8269C31.2947 32.9425 30.9937 33.0013 30.69 33ZM17.77 30.23H30.23V17.77H17.77V30.23Z" fill="black"/>
<path d="M40.62 25.38C40.986 25.38 41.337 25.2346 41.5958 24.9758C41.8546 24.717 42 24.366 42 24C42 23.634 41.8546 23.283 41.5958 23.0242C41.337 22.7654 40.986 22.62 40.62 22.62H37.85V21.92H40.62C40.967 21.8905 41.2903 21.7318 41.5259 21.4753C41.7615 21.2188 41.8922 20.8833 41.8922 20.535C41.8922 20.1867 41.7615 19.8512 41.5259 19.5947C41.2903 19.3382 40.967 19.1795 40.62 19.15H37.85V14.31C37.8474 13.2075 37.4082 12.1509 36.6286 11.3714C35.8491 10.5918 34.7925 10.1526 33.69 10.15H28.85V7.38C28.8205 7.03299 28.6618 6.70971 28.4053 6.47411C28.1488 6.23852 27.8133 6.10779 27.465 6.10779C27.1167 6.10779 26.7812 6.23852 26.5247 6.47411C26.2682 6.70971 26.1095 7.03299 26.08 7.38V10.15H25.38V7.38C25.38 7.014 25.2346 6.66299 24.9758 6.40419C24.717 6.14539 24.366 6 24 6C23.634 6 23.283 6.14539 23.0242 6.40419C22.7654 6.66299 22.62 7.014 22.62 7.38V10.15H21.92V7.38C21.8905 7.03299 21.7318 6.70971 21.4753 6.47411C21.2188 6.23852 20.8833 6.10779 20.535 6.10779C20.1867 6.10779 19.8512 6.23852 19.5947 6.47411C19.3382 6.70971 19.1795 7.03299 19.15 7.38V10.15H14.31C13.2075 10.1526 12.1509 10.5918 11.3714 11.3714C10.5918 12.1509 10.1526 13.2075 10.15 14.31V19.15H7.38C7.03299 19.1795 6.70971 19.3382 6.47411 19.5947C6.23852 19.8512 6.10779 20.1867 6.10779 20.535C6.10779 20.8833 6.23852 21.2188 6.47411 21.4753C6.70971 21.7318 7.03299 21.8905 7.38 21.92H10.15V22.62H7.38C7.014 22.62 6.66299 22.7654 6.40419 23.0242C6.14539 23.283 6 23.634 6 24C6 24.366 6.14539 24.717 6.40419 24.9758C6.66299 25.2346 7.014 25.38 7.38 25.38H10.15V26.08H7.38C7.03299 26.1095 6.70971 26.2682 6.47411 26.5247C6.23852 26.7812 6.10779 27.1167 6.10779 27.465C6.10779 27.8133 6.23852 28.1488 6.47411 28.4053C6.70971 28.6618 7.03299 28.8205 7.38 28.85H10.15V33.69C10.1526 34.7925 10.5918 35.8491 11.3714 36.6286C12.1509 37.4082 13.2075 37.8474 14.31 37.85H19.15V40.62C19.1795 40.967 19.3382 41.2903 19.5947 41.5259C19.8512 41.7615 20.1867 41.8922 20.535 41.8922C20.8833 41.8922 21.2188 41.7615 21.4753 41.5259C21.7318 41.2903 21.8905 40.967 21.92 40.62V37.85H22.62V40.62C22.62 40.986 22.7654 41.337 23.0242 41.5958C23.283 41.8546 23.634 42 24 42C24.366 42 24.717 41.8546 24.9758 41.5958C25.2346 41.337 25.38 40.986 25.38 40.62V37.85H26.08V40.62C26.1095 40.967 26.2682 41.2903 26.5247 41.5259C26.7812 41.7615 27.1167 41.8922 27.465 41.8922C27.8133 41.8922 28.1488 41.7615 28.4053 41.5259C28.6618 41.2903 28.8205 40.967 28.85 40.62V37.85H33.69C34.7925 37.8474 35.8491 37.4082 36.6286 36.6286C37.4082 35.8491 37.8474 34.7925 37.85 33.69V28.85H40.62C40.967 28.8205 41.2903 28.6618 41.5259 28.4053C41.7615 28.1488 41.8922 27.8133 41.8922 27.465C41.8922 27.1167 41.7615 26.7812 41.5259 26.5247C41.2903 26.2682 40.967 26.1095 40.62 26.08H37.85V25.38H40.62ZM35.08 33.69C35.08 34.0587 34.9336 34.4122 34.6729 34.6729C34.4122 34.9336 34.0587 35.08 33.69 35.08H14.31C13.9413 35.08 13.5878 34.9336 13.3271 34.6729C13.0664 34.4122 12.92 34.0587 12.92 33.69V14.31C12.92 13.9413 13.0664 13.5878 13.3271 13.3271C13.5878 13.0664 13.9413 12.92 14.31 12.92H33.69C34.0587 12.92 34.4122 13.0664 34.6729 13.3271C34.9336 13.5878 35.08 13.9413 35.08 14.31V33.69Z" fill="black"/>
</svg>
