<svg width="48" height="48" viewBox="0 0 48 48" fill="none" xmlns="http://www.w3.org/2000/svg">
<path fill-rule="evenodd" clip-rule="evenodd" d="M18.12 24.92L19.43 21.71H20.64V26.82H19.76V23.58C19.76 23.37 19.76 23.03 19.76 22.66C19.76 22.8 19.69 22.97 19.66 23.06L18.15 26.83H17.57L16 23.09C15.9468 22.9507 15.9066 22.8067 15.88 22.66C15.88 22.74 15.88 22.84 15.88 22.98C15.88 23.12 15.88 23.48 15.88 23.68V26.84H15.1V21.72H16.35L17.63 24.93C17.7243 25.1469 17.8012 25.3709 17.86 25.6L18.12 24.92ZM21.47 26.82V23.15H22.33V26.82H21.47ZM21.91 21.6C21.9772 21.5984 22.0439 21.611 22.1059 21.6368C22.1679 21.6626 22.2238 21.7012 22.27 21.75C22.3197 21.796 22.3594 21.8517 22.3869 21.9136C22.4145 21.9755 22.4291 22.0423 22.43 22.11C22.4289 22.1762 22.4141 22.2415 22.3866 22.3017C22.3591 22.362 22.3194 22.4159 22.27 22.46C22.1719 22.5503 22.0433 22.6003 21.91 22.6C21.7763 22.6023 21.647 22.5521 21.55 22.46C21.5006 22.4159 21.4609 22.362 21.4334 22.3017C21.4059 22.2415 21.3911 22.1762 21.39 22.11C21.389 22.042 21.4028 21.9746 21.4305 21.9124C21.4581 21.8503 21.4989 21.7949 21.55 21.75C21.6454 21.6543 21.7749 21.6003 21.91 21.6ZM25.39 23.12C25.5306 23.1499 25.6679 23.1934 25.8 23.25V24.1C25.5701 23.9208 25.291 23.8161 25 23.8C24.8494 23.7949 24.6993 23.8216 24.5597 23.8785C24.4202 23.9353 24.2942 24.021 24.19 24.13C23.979 24.3769 23.8716 24.6958 23.89 25.02C23.8737 25.3379 23.9812 25.6497 24.19 25.89C24.2911 25.9996 24.4153 26.0852 24.5538 26.1406C24.6922 26.1959 24.8412 26.2197 24.99 26.21C25.13 26.2049 25.2684 26.1779 25.4 26.13C25.5506 26.0789 25.6923 26.0047 25.82 25.91V26.71C25.5129 26.8759 25.169 26.9619 24.82 26.96C24.4721 26.9745 24.1266 26.895 23.82 26.73C23.5309 26.5595 23.3006 26.3048 23.16 26C22.9977 25.6923 22.9184 25.3477 22.93 25C22.9324 24.6527 23.0146 24.3106 23.17 24C23.3295 23.7038 23.5685 23.4579 23.86 23.29C24.1671 23.1241 24.511 23.0381 24.86 23.04C25.0389 23.0492 25.2164 23.0759 25.39 23.12ZM28.23 23.12C28.3401 23.1111 28.4506 23.1319 28.55 23.18V24C28.4883 23.9622 28.4207 23.9352 28.35 23.92C28.2635 23.9118 28.1765 23.9118 28.09 23.92C27.9791 23.9198 27.8699 23.947 27.7722 23.9994C27.6744 24.0518 27.5912 24.1276 27.53 24.22C27.3749 24.4493 27.301 24.7238 27.32 25V26.82H26.46V23.15H27.32V23.8C27.383 23.6067 27.497 23.4339 27.65 23.3C27.8126 23.1639 28.018 23.0895 28.23 23.09V23.12ZM30.57 23.12C30.8168 23.1049 31.0639 23.1426 31.295 23.2306C31.526 23.3185 31.7357 23.4547 31.91 23.63C32.0786 23.8143 32.2088 24.0304 32.2929 24.2657C32.377 24.5009 32.4134 24.7505 32.4 25C32.4219 25.5218 32.2389 26.0314 31.89 26.42C31.5101 26.7547 31.0213 26.9393 30.515 26.9393C30.0087 26.9393 29.5199 26.7547 29.14 26.42C28.9701 26.2361 28.8384 26.0204 28.7525 25.7852C28.6667 25.55 28.6284 25.3001 28.64 25.05C28.6252 24.7866 28.6626 24.5229 28.7501 24.274C28.8377 24.0252 28.9736 23.7961 29.15 23.6C29.3377 23.4189 29.5606 23.2785 29.8049 23.1873C30.0492 23.0961 30.3096 23.0562 30.57 23.07V23.12ZM31.26 25.94C31.4491 25.6648 31.5374 25.3328 31.51 25C31.5311 24.6819 31.439 24.3667 31.25 24.11C31.1626 24.0056 31.0519 23.9232 30.9269 23.8693C30.8018 23.8155 30.6659 23.7917 30.53 23.8C30.392 23.7945 30.2546 23.8204 30.1281 23.8758C30.0016 23.9313 29.8894 24.0148 29.8 24.12C29.609 24.3799 29.5136 24.6979 29.53 25.02C29.5087 25.3366 29.6048 25.6498 29.8 25.9C29.89 26.0072 30.0037 26.0919 30.1322 26.1475C30.2606 26.203 30.4003 26.2279 30.54 26.22C30.6777 26.2267 30.8149 26.2002 30.9403 26.1428C31.0656 26.0854 31.1752 25.9987 31.26 25.89V25.94ZM34.32 24.73C34.6006 24.8347 34.8611 24.9869 35.09 25.18C35.236 25.3565 35.3109 25.5812 35.3 25.81C35.3064 25.9719 35.2733 26.133 35.2036 26.2794C35.134 26.4257 35.0298 26.5529 34.9 26.65C34.5916 26.8774 34.2122 26.9873 33.83 26.96C33.6669 26.9728 33.5031 26.9728 33.34 26.96C33.1794 26.9234 33.0221 26.8732 32.87 26.81V25.86C33.0159 25.9655 33.178 26.0466 33.35 26.1C33.504 26.1562 33.6661 26.1866 33.83 26.19C34.2 26.19 34.39 26.07 34.39 25.83C34.3924 25.7568 34.3751 25.6843 34.34 25.62C34.2816 25.5571 34.2142 25.5032 34.14 25.46L33.69 25.26C33.5025 25.1804 33.3247 25.0797 33.16 24.96C33.0486 24.8639 32.9599 24.7444 32.9 24.61C32.8355 24.469 32.8047 24.3149 32.81 24.16C32.8073 24.0039 32.8411 23.8494 32.9088 23.7087C32.9766 23.568 33.0763 23.4452 33.2 23.35C33.4895 23.1381 33.8414 23.029 34.2 23.04C34.3397 23.027 34.4803 23.027 34.62 23.04C34.7532 23.064 34.8839 23.1008 35.01 23.15V24C34.8922 23.9164 34.76 23.8554 34.62 23.82C34.4773 23.7765 34.3292 23.753 34.18 23.75C34.0463 23.7458 33.9143 23.7805 33.8 23.85C33.7561 23.8799 33.7203 23.9202 33.6959 23.9673C33.6714 24.0144 33.6591 24.0669 33.66 24.12C33.6578 24.1694 33.6655 24.2188 33.6827 24.2651C33.6998 24.3115 33.7261 24.354 33.76 24.39C33.9302 24.5157 34.1192 24.6136 34.32 24.68V24.73ZM37.58 23.12C37.8253 23.1051 38.0709 23.1429 38.3003 23.2308C38.5297 23.3188 38.7376 23.4549 38.91 23.63C39.0786 23.8143 39.2088 24.0304 39.2929 24.2657C39.377 24.5009 39.4134 24.7505 39.4 25C39.4219 25.5218 39.2389 26.0314 38.89 26.42C38.7077 26.6033 38.4888 26.7462 38.2475 26.8392C38.0063 26.9322 37.7482 26.9734 37.49 26.96C37.243 26.9705 36.9965 26.9318 36.7647 26.8459C36.5329 26.7601 36.3205 26.6289 36.14 26.46C35.9701 26.2761 35.8384 26.0604 35.7525 25.8252C35.6667 25.59 35.6284 25.3401 35.64 25.09C35.6252 24.8266 35.6626 24.5629 35.7501 24.314C35.8377 24.0652 35.9736 23.8361 36.15 23.64C36.3358 23.451 36.5588 23.3027 36.805 23.2046C37.0512 23.1064 37.3151 23.0606 37.58 23.07V23.12ZM38.26 25.94C38.4491 25.6648 38.5374 25.3328 38.51 25C38.5328 24.6802 38.4367 24.3632 38.24 24.11C38.1542 24.0064 38.0452 23.9244 37.9219 23.8705C37.7986 23.8167 37.6643 23.7925 37.53 23.8C37.3905 23.7944 37.2516 23.8202 37.1235 23.8756C36.9954 23.931 36.8814 24.0146 36.79 24.12C36.6026 24.3812 36.5107 24.699 36.53 25.02C36.5059 25.3353 36.5984 25.6484 36.79 25.9C36.8815 26.008 36.997 26.0932 37.1272 26.1487C37.2574 26.2043 37.3987 26.2287 37.54 26.22C37.6777 26.2267 37.8149 26.2002 37.9403 26.1428C38.0656 26.0854 38.1752 25.9987 38.26 25.89V25.94ZM44 23.94H43.12V25.6C43.1061 25.7657 43.1483 25.9313 43.24 26.07C43.288 26.1214 43.3474 26.1608 43.4134 26.1852C43.4794 26.2095 43.5501 26.218 43.62 26.21H43.79C43.8654 26.1847 43.9363 26.1476 44 26.1V26.81C43.9148 26.8527 43.8238 26.883 43.73 26.9C43.6102 26.9099 43.4898 26.9099 43.37 26.9C42.64 26.9 42.27 26.51 42.27 25.74V23.86H41V26.86H40.1V23.86H39.5V23.16H40.1V22.64C40.1035 22.416 40.1619 22.1962 40.27 22C40.3784 21.8015 40.5415 21.6384 40.74 21.53C40.9547 21.4245 41.1908 21.3697 41.43 21.37C41.5928 21.3668 41.7549 21.3904 41.91 21.44V22.19C41.7904 22.1369 41.6609 22.1096 41.53 22.11C41.454 22.1036 41.3775 22.1147 41.3064 22.1425C41.2354 22.1702 41.1716 22.2138 41.12 22.27C41.0175 22.4081 40.9678 22.5784 40.98 22.75V23.21H42.27V22.32L43.1 22.07V23.15H44V23.94ZM4 24.06V20H8.06V24.06H4ZM8.48 24.06V20H12.54V24.06H8.48ZM4 28.54V24.48H8.06V28.54H4ZM8.48 28.54V24.48H12.54V28.54H8.48Z" fill="black"/>
</svg>
