<svg width="48" height="48" viewBox="0 0 48 48" fill="none" xmlns="http://www.w3.org/2000/svg">
<path d="M29.35 18.64H18.64V29.35H29.35V18.64Z" fill="black"/>
<path d="M39.43 26.57C39.7675 26.57 40.1017 26.5035 40.4135 26.3744C40.7253 26.2452 41.0086 26.0559 41.2473 25.8173C41.4859 25.5786 41.6752 25.2953 41.8044 24.9835C41.9335 24.6717 42 24.3375 42 24C42 23.6625 41.9335 23.3283 41.8044 23.0165C41.6752 22.7047 41.4859 22.4214 41.2473 22.1827C41.0086 21.9441 40.7253 21.7548 40.4135 21.6256C40.1017 21.4965 39.7675 21.43 39.43 21.43H37.29V20.79H39.43C40.0852 20.7492 40.7002 20.4601 41.1497 19.9817C41.5992 19.5032 41.8495 18.8715 41.8495 18.215C41.8495 17.5585 41.5992 16.9268 41.1497 16.4483C40.7002 15.9699 40.0852 15.6809 39.43 15.64H37.29V15C37.2874 13.863 36.8345 12.7734 36.0306 11.9694C35.2266 11.1655 34.137 10.7126 33 10.71H32.36V8.57C32.3192 7.91481 32.0301 7.29982 31.5517 6.85031C31.0732 6.40079 30.4415 6.15055 29.785 6.15055C29.1285 6.15055 28.4968 6.40079 28.0183 6.85031C27.5399 7.29982 27.2508 7.91481 27.21 8.57V10.71H26.57V8.57C26.57 7.88839 26.2992 7.2347 25.8173 6.75274C25.3353 6.27077 24.6816 6 24 6C23.3184 6 22.6647 6.27077 22.1827 6.75274C21.7008 7.2347 21.43 7.88839 21.43 8.57V10.71H20.79V8.57C20.7492 7.91481 20.4601 7.29982 19.9817 6.85031C19.5032 6.40079 18.8715 6.15055 18.215 6.15055C17.5585 6.15055 16.9268 6.40079 16.4483 6.85031C15.9699 7.29982 15.6809 7.91481 15.64 8.57V10.71H15C13.863 10.7126 12.7734 11.1655 11.9694 11.9694C11.1655 12.7734 10.7126 13.863 10.71 15V15.64H8.57C7.91481 15.6809 7.29982 15.9699 6.85031 16.4483C6.40079 16.9268 6.15055 17.5585 6.15055 18.215C6.15055 18.8715 6.40079 19.5032 6.85031 19.9817C7.29982 20.4601 7.91481 20.7492 8.57 20.79H10.71V21.43H8.57C7.88839 21.43 7.2347 21.7008 6.75274 22.1827C6.27077 22.6647 6 23.3184 6 24C6 24.6816 6.27077 25.3353 6.75274 25.8173C7.2347 26.2992 7.88839 26.57 8.57 26.57H10.71V27.21H8.57C7.91481 27.2508 7.29982 27.5399 6.85031 28.0183C6.40079 28.4968 6.15055 29.1285 6.15055 29.785C6.15055 30.4415 6.40079 31.0732 6.85031 31.5517C7.29982 32.0301 7.91481 32.3192 8.57 32.36H10.71V33C10.7126 34.137 11.1655 35.2266 11.9694 36.0306C12.7734 36.8345 13.863 37.2874 15 37.29H15.64V39.43C15.6809 40.0852 15.9699 40.7002 16.4483 41.1497C16.9268 41.5992 17.5585 41.8495 18.215 41.8495C18.8715 41.8495 19.5032 41.5992 19.9817 41.1497C20.4601 40.7002 20.7492 40.0852 20.79 39.43V37.29H21.43V39.43C21.43 39.7675 21.4965 40.1017 21.6256 40.4135C21.7548 40.7253 21.9441 41.0086 22.1827 41.2473C22.4214 41.4859 22.7047 41.6752 23.0165 41.8044C23.3283 41.9335 23.6625 42 24 42C24.3375 42 24.6717 41.9335 24.9835 41.8044C25.2953 41.6752 25.5786 41.4859 25.8173 41.2473C26.0559 41.0086 26.2452 40.7253 26.3744 40.4135C26.5035 40.1017 26.57 39.7675 26.57 39.43V37.29H27.21V39.43C27.2508 40.0852 27.5399 40.7002 28.0183 41.1497C28.4968 41.5992 29.1285 41.8495 29.785 41.8495C30.4415 41.8495 31.0732 41.5992 31.5517 41.1497C32.0301 40.7002 32.3192 40.0852 32.36 39.43V37.29H33C34.137 37.2874 35.2266 36.8345 36.0306 36.0306C36.8345 35.2266 37.2874 34.137 37.29 33V32.36H39.43C40.0852 32.3192 40.7002 32.0301 41.1497 31.5517C41.5992 31.0732 41.8495 30.4415 41.8495 29.785C41.8495 29.1285 41.5992 28.4968 41.1497 28.0183C40.7002 27.5399 40.0852 27.2508 39.43 27.21H37.29V26.57H39.43ZM32.79 30.21C32.7874 30.8934 32.5147 31.5482 32.0314 32.0314C31.5482 32.5147 30.8934 32.7874 30.21 32.79H17.79C17.1066 32.7874 16.4518 32.5147 15.9686 32.0314C15.4853 31.5482 15.2126 30.8934 15.21 30.21V17.79C15.2126 17.1066 15.4853 16.4518 15.9686 15.9686C16.4518 15.4853 17.1066 15.2126 17.79 15.21H30.21C30.8934 15.2126 31.5482 15.4853 32.0314 15.9686C32.5147 16.4518 32.7874 17.1066 32.79 17.79V30.21Z" fill="black"/>
</svg>
