<svg width="48" height="48" viewBox="0 0 48 48" fill="none" xmlns="http://www.w3.org/2000/svg">
<path d="M27.7784 20.2117C28.2066 20.6263 28.7788 20.8588 29.3747 20.8605H36.9972C37.1886 20.8768 37.3812 20.8531 37.5629 20.791C37.7447 20.729 37.9115 20.6298 38.0529 20.4998C38.1944 20.3699 38.3073 20.212 38.3845 20.0361C38.4617 19.8602 38.5016 19.6702 38.5016 19.4781C38.5016 19.286 38.4617 19.0959 38.3845 18.9201C38.3073 18.7442 38.1944 18.5863 38.0529 18.4563C37.9115 18.3263 37.7447 18.2272 37.5629 18.1651C37.3812 18.103 37.1886 18.0794 36.9972 18.0957H31.8391L41.5368 8.38381C41.6669 8.2573 41.7702 8.106 41.8408 7.93885C41.9114 7.77169 41.9478 7.59208 41.9478 7.41063C41.9478 7.22917 41.9114 7.04956 41.8408 6.8824C41.7702 6.71525 41.6669 6.56395 41.5368 6.43744C41.4098 6.29953 41.2555 6.18945 41.0838 6.11416C40.9121 6.03887 40.7266 6 40.5391 6C40.3516 6 40.1662 6.03887 39.9945 6.11416C39.8228 6.18945 39.6685 6.29953 39.5414 6.43744L29.8037 16.1693V10.949C29.7743 10.6027 29.6159 10.28 29.3601 10.0448C29.1042 9.80966 28.7694 9.67918 28.4219 9.67918C28.0744 9.67918 27.7396 9.80966 27.4837 10.0448C27.2278 10.28 27.0695 10.6027 27.0401 10.949V18.5748C27.048 18.883 27.1174 19.1866 27.2441 19.4677C27.3709 19.7488 27.5525 20.0018 27.7784 20.2117Z" fill="black"/>
<path d="M8.3828 41.5718L18.1205 31.84V37.0802C18.1499 37.4265 18.3083 37.7492 18.5642 37.9844C18.8201 38.2195 19.1549 38.35 19.5023 38.35C19.8498 38.35 20.1846 38.2195 20.4405 37.9844C20.6964 37.7492 20.8547 37.4265 20.8842 37.0802V29.4544C20.8827 29.1497 20.8212 28.8482 20.703 28.5673C20.5849 28.2864 20.4125 28.0316 20.1957 27.8175C19.986 27.6081 19.737 27.4422 19.4631 27.3292C19.1892 27.2161 18.8957 27.1582 18.5994 27.1587H10.9569C10.7656 27.1424 10.5729 27.1661 10.3912 27.2282C10.2095 27.2902 10.0426 27.3894 9.90122 27.5194C9.7598 27.6493 9.6469 27.8072 9.56967 27.9831C9.49244 28.159 9.45256 28.349 9.45256 28.5411C9.45256 28.7332 9.49244 28.9232 9.56967 29.0991C9.6469 29.275 9.7598 29.4329 9.90122 29.5629C10.0426 29.6929 10.2095 29.792 10.3912 29.8541C10.5729 29.9162 10.7656 29.9398 10.9569 29.9235H16.135L6.43726 39.6254C6.2994 39.7525 6.18937 39.9069 6.11411 40.0787C6.03885 40.2504 6 40.436 6 40.6235C6 40.8111 6.03885 40.9966 6.11411 41.1684C6.18937 41.3402 6.2994 41.4946 6.43726 41.6217C6.70196 41.873 7.05555 42.0089 7.42036 41.9995C7.78516 41.9902 8.13133 41.8363 8.3828 41.5718Z" fill="black"/>
<path d="M27.1199 37.0502C27.1036 37.2416 27.1272 37.4343 27.1893 37.6161C27.2514 37.7979 27.3505 37.9649 27.4804 38.1063C27.6103 38.2478 27.7681 38.3608 27.9439 38.438C28.1198 38.5153 28.3097 38.5552 28.5017 38.5552C28.6937 38.5552 28.8837 38.5153 29.0595 38.438C29.2353 38.3608 29.3931 38.2478 29.5231 38.1063C29.653 37.9649 29.7521 37.7979 29.8141 37.6161C29.8762 37.4343 29.8998 37.2416 29.8835 37.0502V31.8699L39.5913 41.5718C39.8559 41.8365 40.2148 41.9852 40.589 41.9852C40.9632 41.9852 41.3221 41.8365 41.5867 41.5718C41.8513 41.307 42 40.948 42 40.5736C42 40.1993 41.8513 39.8402 41.5867 39.5755L31.859 29.8337H37.097C37.4432 29.8043 37.7658 29.6459 38.0008 29.3899C38.2359 29.1339 38.3663 28.7989 38.3663 28.4513C38.3663 28.1037 38.2359 27.7687 38.0008 27.5127C37.7658 27.2567 37.4432 27.0983 37.097 27.0689H29.4246C29.12 27.0703 28.8186 27.1319 28.5379 27.2501C28.2571 27.3683 28.0024 27.5407 27.7883 27.7576C27.3739 28.186 27.1415 28.7584 27.1398 29.3546L27.1199 37.0502Z" fill="black"/>
<path d="M16.165 18.1456H10.927C10.5808 18.175 10.2582 18.3334 10.0232 18.5894C9.78811 18.8454 9.65768 19.1804 9.65768 19.528C9.65768 19.8756 9.78811 20.2105 10.0232 20.4665C10.2582 20.7225 10.5808 20.8809 10.927 20.9104H18.5495C18.8541 20.909 19.1555 20.8474 19.4363 20.7292C19.717 20.611 19.9717 20.4385 20.1858 20.2217C20.602 19.7944 20.8347 19.2213 20.8343 18.6247V10.979C20.8506 10.7875 20.8269 10.5948 20.7649 10.413C20.7028 10.2312 20.6037 10.0643 20.4738 9.92283C20.3439 9.78135 20.186 9.6684 20.0102 9.59113C19.8344 9.51387 19.6445 9.47398 19.4524 9.47398C19.2604 9.47398 19.0705 9.51387 18.8947 9.59113C18.7189 9.6684 18.561 9.78135 18.4311 9.92283C18.3012 10.0643 18.2021 10.2312 18.14 10.413C18.078 10.5948 18.0543 10.7875 18.0706 10.979V16.1593L8.3828 6.45741C8.25178 6.32961 8.09688 6.22887 7.92695 6.16096C7.75701 6.09305 7.57537 6.05929 7.3924 6.06161C7.02286 6.06629 6.67031 6.21764 6.41232 6.48236C6.15432 6.74708 6.01201 7.10349 6.01669 7.47318C6.02137 7.84288 6.17265 8.19557 6.43726 8.45367L16.165 18.1456Z" fill="black"/>
</svg>
