<svg width="48" height="48" viewBox="0 0 48 48" fill="none" xmlns="http://www.w3.org/2000/svg">
<path d="M26.3746 21.6352C26.4734 21.7328 26.5796 21.8225 26.6923 21.9036C27.2939 22.3742 28.0338 22.6328 28.7972 22.6392H35.936C36.6233 22.6392 37.2824 22.3658 37.7684 21.8793C38.2544 21.3927 38.5274 20.7328 38.5274 20.0446C38.5274 19.3565 38.2544 18.6966 37.7684 18.21C37.2824 17.7234 36.6233 17.4501 35.936 17.4501H34.2183L41.0989 10.5611C41.3697 10.3278 41.5894 10.041 41.7441 9.71868C41.8989 9.39635 41.9854 9.04545 41.9983 8.68803C42.0112 8.33061 41.9501 7.97439 41.8189 7.64173C41.6877 7.30907 41.4893 7.00716 41.236 6.75495C40.9827 6.50274 40.6801 6.30568 40.3471 6.17615C40.0142 6.04661 39.6581 5.9874 39.3012 6.00223C38.9442 6.01706 38.5942 6.10561 38.2731 6.26232C37.952 6.41903 37.6668 6.64051 37.4352 6.91287L30.5348 13.8714V12.092C30.5348 11.4039 30.2617 10.744 29.7758 10.2574C29.2898 9.77082 28.6306 9.49747 27.9434 9.49747C27.2561 9.49747 26.597 9.77082 26.111 10.2574C25.625 10.744 25.352 11.4039 25.352 12.092V19.2394C25.368 20.1409 25.7349 21.0005 26.3746 21.6352Z" fill="black"/>
<path d="M21.589 26.4067C21.4975 26.3219 21.4014 26.2422 21.301 26.1682C20.6964 25.6799 19.9432 25.4134 19.1664 25.4127H12.0673C11.7093 25.3812 11.3486 25.4246 11.0083 25.5402C10.6679 25.6558 10.3553 25.841 10.0902 26.0841C9.82523 26.3272 9.6136 26.6228 9.46883 26.9521C9.32405 27.2815 9.24929 27.6374 9.24929 27.9973C9.24929 28.3571 9.32405 28.713 9.46883 29.0424C9.6136 29.3717 9.82523 29.6674 10.0902 29.9104C10.3553 30.1535 10.6679 30.3387 11.0083 30.4543C11.3486 30.5699 11.7093 30.6133 12.0673 30.5819H13.7453L6.86466 37.4708C6.60156 37.7062 6.38925 37.9929 6.24073 38.3134C6.09222 38.6338 6.01063 38.9813 6.00097 39.3344C5.99131 39.6876 6.05378 40.039 6.18456 40.3671C6.31533 40.6952 6.51166 40.9931 6.76149 41.2426C7.01133 41.492 7.30941 41.6878 7.63748 41.8178C7.96555 41.9479 8.31669 42.0095 8.66937 41.9988C9.02205 41.9882 9.36885 41.9056 9.68851 41.756C10.0082 41.6064 10.294 41.3931 10.5284 41.129L17.4785 34.2202V35.9996C17.4785 36.3403 17.5455 36.6777 17.6757 36.9925C17.806 37.3073 17.9968 37.5933 18.2375 37.8342C18.4781 38.0751 18.7638 38.2663 19.0782 38.3966C19.3926 38.527 19.7296 38.5941 20.0699 38.5941C20.4102 38.5941 20.7472 38.527 21.0616 38.3966C21.376 38.2663 21.6616 38.0751 21.9023 37.8342C22.1429 37.5933 22.3338 37.3073 22.464 36.9925C22.5942 36.6777 22.6613 36.3403 22.6613 35.9996V28.8522C22.6533 28.3938 22.5544 27.9415 22.3703 27.5217C22.1862 27.1019 21.9206 26.7229 21.589 26.4067Z" fill="black"/>
<path d="M34.1687 30.5819H35.9459C36.6332 30.5819 37.2923 30.3085 37.7783 29.8219C38.2643 29.3354 38.5373 28.6754 38.5373 27.9873C38.5373 27.2992 38.2643 26.6393 37.7783 26.1527C37.2923 25.6661 36.6332 25.3928 35.9459 25.3928H28.8072C27.8938 25.3879 27.0156 25.7453 26.3647 26.3869C26.2392 26.5051 26.1291 26.6387 26.037 26.7845C25.6111 27.3609 25.3751 28.0558 25.3619 28.7726V35.9201C25.3619 36.6082 25.6349 37.2681 26.1209 37.7547C26.6069 38.2413 27.266 38.5146 27.9533 38.5146C28.6406 38.5146 29.2997 38.2413 29.7857 37.7547C30.2717 37.2681 30.5447 36.6082 30.5447 35.9201V34.2699L37.4253 41.1589C37.9108 41.6421 38.5676 41.9133 39.2522 41.9133C39.9368 41.9133 40.5936 41.6421 41.0791 41.1589C41.5647 40.6723 41.8375 40.0126 41.8375 39.3248C41.8375 38.6369 41.5647 37.9772 41.0791 37.4907L34.1687 30.5819Z" fill="black"/>
<path d="M13.7949 17.46H12.0673C11.38 17.46 10.7209 17.7334 10.2349 18.22C9.74894 18.7065 9.47591 19.3665 9.47591 20.0546C9.47591 20.7427 9.74894 21.4026 10.2349 21.8892C10.7209 22.3758 11.38 22.6491 12.0673 22.6491H19.2061C20.1195 22.654 20.9976 22.2966 21.6485 21.655C21.7546 21.5541 21.848 21.4406 21.9266 21.3171C22.3887 20.7194 22.6401 19.9853 22.6414 19.2295V12.092C22.6414 11.3999 22.3668 10.7362 21.8781 10.2469C21.3893 9.75748 20.7264 9.48256 20.0351 9.48256C19.3439 9.48256 18.681 9.75748 18.1922 10.2469C17.7034 10.7362 17.4288 11.3999 17.4288 12.092V13.772L10.5482 6.88304C10.0538 6.44306 9.40997 6.20906 8.74876 6.22898C8.08754 6.24891 7.45897 6.52126 6.99184 6.99023C6.52472 7.45919 6.25441 8.08926 6.2363 8.75133C6.21819 9.4134 6.45365 10.0573 6.89444 10.5512L13.7949 17.46Z" fill="black"/>
</svg>
