<svg width="48" height="48" viewBox="0 0 48 48" fill="none" xmlns="http://www.w3.org/2000/svg">
<path d="M24 44C20.0444 44 16.1776 42.827 12.8886 40.6294C9.59962 38.4318 7.03617 35.3082 5.52242 31.6537C4.00867 27.9992 3.6126 23.9778 4.3843 20.0982C5.15601 16.2186 7.06082 12.6549 9.85787 9.85787C12.6549 7.06082 16.2186 5.15601 20.0982 4.3843C23.9778 3.6126 27.9992 4.00867 31.6537 5.52242C35.3082 7.03617 38.4318 9.59962 40.6294 12.8886C42.827 16.1776 44 20.0444 44 24C44 29.3043 41.8929 34.3914 38.1421 38.1421C34.3914 41.8929 29.3043 44 24 44ZM24 9.22001C21.0768 9.22001 18.2192 10.0868 15.7887 11.7109C13.3581 13.3349 11.4637 15.6433 10.3451 18.3439C9.22641 21.0446 8.93371 24.0164 9.504 26.8834C10.0743 29.7505 11.4819 32.384 13.549 34.451C15.616 36.5181 18.2495 37.9257 21.1166 38.496C23.9836 39.0663 26.9554 38.7736 29.6561 37.6549C32.3568 36.5363 34.6651 34.6419 36.2891 32.2113C37.9132 29.7808 38.78 26.9232 38.78 24C38.7747 20.0817 37.2158 16.3255 34.4452 13.5548C31.6746 10.7842 27.9183 9.2253 24 9.22001Z" fill="black"/>
<path d="M30.52 26.61H17.52C16.8278 26.61 16.1639 26.335 15.6745 25.8456C15.185 25.3561 14.91 24.6922 14.91 24C14.91 23.3078 15.185 22.6439 15.6745 22.1545C16.1639 21.665 16.8278 21.39 17.52 21.39H30.52C31.2122 21.39 31.8761 21.665 32.3656 22.1545C32.855 22.6439 33.13 23.3078 33.13 24C33.13 24.6922 32.855 25.3561 32.3656 25.8456C31.8761 26.335 31.2122 26.61 30.52 26.61Z" fill="black"/>
</svg>
