<svg width="48" height="48" viewBox="0 0 48 48" fill="none" xmlns="http://www.w3.org/2000/svg">
<path d="M24 4C20.0444 4 16.1776 5.17298 12.8886 7.37061C9.59962 9.56824 7.03617 12.6918 5.52242 16.3463C4.00867 20.0009 3.6126 24.0222 4.3843 27.9018C5.15601 31.7814 7.06082 35.3451 9.85787 38.1421C12.6549 40.9392 16.2186 42.844 20.0982 43.6157C23.9778 44.3874 27.9992 43.9913 31.6537 42.4776C35.3082 40.9638 38.4318 38.4004 40.6294 35.1114C42.827 31.8224 44 27.9556 44 24C44 18.6957 41.8929 13.6086 38.1421 9.85786C34.3914 6.10714 29.3043 4 24 4V4ZM30.52 26.61H17.52C16.8278 26.61 16.1639 26.335 15.6745 25.8455C15.185 25.3561 14.91 24.6922 14.91 24C14.91 23.3078 15.185 22.6439 15.6745 22.1545C16.1639 21.665 16.8278 21.39 17.52 21.39H30.52C31.2122 21.39 31.8761 21.665 32.3656 22.1545C32.855 22.6439 33.13 23.3078 33.13 24C33.13 24.6922 32.855 25.3561 32.3656 25.8455C31.8761 26.335 31.2122 26.61 30.52 26.61Z" fill="black"/>
</svg>
