<svg width="48" height="48" viewBox="0 0 48 48" fill="none" xmlns="http://www.w3.org/2000/svg">
<path d="M30.1 42H17.28C16.4101 42 15.5758 41.6544 14.9607 41.0393C14.3456 40.4242 14 39.5899 14 38.72V9.28C14 8.41009 14.3456 7.57581 14.9607 6.96069C15.5758 6.34557 16.4101 6 17.28 6H30.1C30.9699 6 31.8042 6.34557 32.4193 6.96069C33.0344 7.57581 33.38 8.41009 33.38 9.28V38.72C33.38 39.5899 33.0344 40.4242 32.4193 41.0393C31.8042 41.6544 30.9699 42 30.1 42ZM17.28 8.77C17.1447 8.77 17.015 8.82373 16.9194 8.91938C16.8237 9.01502 16.77 9.14474 16.77 9.28V38.72C16.77 38.8553 16.8237 38.985 16.9194 39.0806C17.015 39.1763 17.1447 39.23 17.28 39.23H30.1C30.2362 39.23 30.367 39.1766 30.4642 39.0812C30.5614 38.9859 30.6174 38.8562 30.62 38.72V9.28C30.6174 9.14383 30.5614 9.01412 30.4642 8.91875C30.367 8.82339 30.2362 8.76997 30.1 8.77H17.28Z" fill="black"/>
<path d="M23.69 38.68C23.0967 38.68 22.5166 38.5041 22.0233 38.1744C21.5299 37.8448 21.1454 37.3762 20.9184 36.8281C20.6913 36.2799 20.6319 35.6767 20.7476 35.0947C20.8634 34.5128 21.1491 33.9782 21.5687 33.5587C21.9882 33.1391 22.5228 32.8534 23.1047 32.7376C23.6867 32.6219 24.2899 32.6813 24.838 32.9084C25.3862 33.1354 25.8548 33.5199 26.1844 34.0133C26.5141 34.5066 26.69 35.0867 26.69 35.68C26.69 36.4757 26.3739 37.2387 25.8113 37.8013C25.2487 38.3639 24.4856 38.68 23.69 38.68ZM23.69 35.42C23.6254 35.4226 23.5644 35.4501 23.5197 35.4967C23.4749 35.5433 23.4499 35.6054 23.45 35.67C23.45 35.94 23.94 35.94 23.94 35.67C23.94 35.6037 23.9137 35.5401 23.8668 35.4932C23.8199 35.4463 23.7563 35.42 23.69 35.42Z" fill="black"/>
</svg>
