<svg width="48" height="48" viewBox="0 0 48 48" fill="none" xmlns="http://www.w3.org/2000/svg">
<path d="M33.6382 8.29999C33.367 7.62226 32.8994 7.04113 32.2955 6.63127C31.6915 6.22142 30.9789 6.00158 30.2491 5.99999H17.7523C16.7853 6.00263 15.8587 6.38803 15.175 7.07197C14.4912 7.7559 14.1059 8.68276 14.1033 9.64999V27.84L33.6382 8.29999Z" fill="black"/>
<path d="M14.3632 39.7C14.6344 40.3777 15.102 40.9589 15.7059 41.3687C16.3098 41.7786 17.0225 41.9984 17.7523 42H30.2491C31.216 41.9974 32.1427 41.612 32.8264 40.928C33.5102 40.2441 33.8955 39.3172 33.8981 38.35V20.16L14.3632 39.7ZM24.0007 37.87C23.6863 37.87 23.379 37.7767 23.1176 37.602C22.8562 37.4273 22.6524 37.179 22.5321 36.8885C22.4118 36.5979 22.3803 36.2782 22.4416 35.9698C22.503 35.6614 22.6544 35.3781 22.8767 35.1557C23.099 34.9333 23.3822 34.7819 23.6906 34.7205C23.9989 34.6592 24.3185 34.6907 24.609 34.811C24.8995 34.9314 25.1477 35.1352 25.3224 35.3966C25.497 35.6581 25.5903 35.9655 25.5903 36.28C25.5903 36.7017 25.4228 37.1061 25.1247 37.4043C24.8266 37.7025 24.4223 37.87 24.0007 37.87Z" fill="black"/>
<path d="M8.57469 42C8.06573 42.0011 7.56791 41.8509 7.14438 41.5686C6.72085 41.2863 6.39068 40.8845 6.19576 40.4142C6.00085 39.944 5.94996 39.4264 6.04955 38.9271C6.14914 38.4279 6.39473 37.9694 6.75516 37.61L37.6072 6.74999C38.0897 6.2673 38.7442 5.99612 39.4267 5.99612C40.1091 5.99612 40.7636 6.2673 41.2462 6.74999C41.7288 7.23269 41.9999 7.88736 41.9999 8.56999C41.9999 9.25263 41.7288 9.9073 41.2462 10.39L10.3942 41.25C10.1551 41.4885 9.8713 41.6775 9.55909 41.8061C9.24688 41.9348 8.91237 42.0007 8.57469 42Z" fill="black"/>
</svg>
