<svg width="48" height="48" viewBox="0 0 48 48" fill="none" xmlns="http://www.w3.org/2000/svg">
<path d="M23.99 38.6824C23.3989 38.6824 22.8211 38.5066 22.3296 38.1772C21.8381 37.8479 21.4551 37.3797 21.2289 36.832C21.0027 36.2842 20.9435 35.6815 21.0588 35.1C21.1741 34.5185 21.4588 33.9844 21.8767 33.5652C22.2947 33.1459 22.8272 32.8604 23.407 32.7448C23.9867 32.6291 24.5876 32.6885 25.1337 32.9154C25.6799 33.1422 26.1466 33.5265 26.475 34.0194C26.8034 34.5124 26.9787 35.0919 26.9787 35.6848C26.9787 36.4798 26.6638 37.2423 26.1033 37.8045C25.5429 38.3666 24.7827 38.6824 23.99 38.6824ZM23.99 35.425C23.9257 35.4276 23.8649 35.4551 23.8203 35.5016C23.7758 35.5482 23.7509 35.6103 23.7509 35.6748C23.7509 35.9446 24.2291 35.9446 24.2291 35.6748C24.2292 35.6103 24.2043 35.5482 24.1597 35.5016C24.1152 35.4551 24.0543 35.4276 23.99 35.425Z" fill="black"/>
<path d="M30.8839 21.0164V38.7224C30.8839 38.8576 30.8304 38.9872 30.7351 39.0827C30.6398 39.1783 30.5106 39.232 30.3758 39.232H17.6043C17.4695 39.232 17.3403 39.1783 17.245 39.0827C17.1497 38.9872 17.0962 38.8576 17.0962 38.7224V34.8455L14.3366 37.6133V38.7224C14.3366 39.5916 14.6809 40.4253 15.2937 41.0399C15.9065 41.6545 16.7376 41.9998 17.6043 41.9998H30.3758C31.2424 41.9998 32.0736 41.6545 32.6864 41.0399C33.2992 40.4253 33.6434 39.5916 33.6434 38.7224V18.2386L30.8839 21.0164Z" fill="black"/>
<path d="M17.0962 27.0117V9.30565C17.0962 9.1705 17.1497 9.04088 17.245 8.94531C17.3403 8.84974 17.4695 8.79605 17.6043 8.79605H30.3758C30.5106 8.79605 30.6398 8.84974 30.7351 8.94531C30.8304 9.04088 30.8839 9.1705 30.8839 9.30565V13.1826L33.6434 10.4148V9.30565C33.6434 8.43643 33.2992 7.60281 32.6864 6.98817C32.0736 6.37354 31.2424 6.02824 30.3758 6.02824H17.6043C16.7376 6.02824 15.9065 6.37354 15.2937 6.98817C14.6809 7.60281 14.3366 8.43643 14.3366 9.30565V29.7895L17.0962 27.0117Z" fill="black"/>
<path d="M7.43283 41.9998C7.24776 42.0029 7.064 41.9681 6.89274 41.8977C6.72148 41.8272 6.56629 41.7226 6.43661 41.5901C6.29895 41.4629 6.18909 41.3084 6.11394 41.1364C6.0388 40.9644 6 40.7787 6 40.5909C6 40.4032 6.0388 40.2174 6.11394 40.0455C6.18909 39.8735 6.29895 39.719 6.43661 39.5917L39.5709 6.43792C39.6978 6.29985 39.8519 6.18966 40.0233 6.11428C40.1948 6.03891 40.38 6 40.5672 6C40.7544 6 40.9396 6.03891 41.111 6.11428C41.2825 6.18966 41.4365 6.29985 41.5634 6.43792C41.701 6.56518 41.8109 6.71967 41.8861 6.89165C41.9612 7.06363 42 7.24936 42 7.43713C42 7.6249 41.9612 7.81063 41.8861 7.98261C41.8109 8.15458 41.701 8.30908 41.5634 8.43634L8.40913 41.5901C8.28145 41.7197 8.12943 41.8227 7.96185 41.893C7.79428 41.9633 7.61448 41.9996 7.43283 41.9998Z" fill="black"/>
</svg>
