<svg width="48" height="48" viewBox="0 0 48 48" fill="none" xmlns="http://www.w3.org/2000/svg">
<path d="M30.15 6H17.65C16.6828 6.00264 15.7559 6.38804 15.072 7.07198C14.388 7.75591 14.0026 8.68277 14 9.65V38.35C14.0026 39.3172 14.388 40.2441 15.072 40.928C15.7559 41.612 16.6828 41.9974 17.65 42H30.15C31.1172 41.9974 32.0441 41.612 32.728 40.928C33.412 40.2441 33.7974 39.3172 33.8 38.35V9.65C33.7974 8.68277 33.412 7.75591 32.728 7.07198C32.0441 6.38804 31.1172 6.00264 30.15 6V6ZM23.9 37.87C23.5855 37.87 23.2781 37.7767 23.0166 37.602C22.7552 37.4273 22.5514 37.179 22.431 36.8885C22.3107 36.5979 22.2792 36.2782 22.3406 35.9698C22.4019 35.6614 22.5533 35.3781 22.7757 35.1557C22.9981 34.9333 23.2814 34.7819 23.5898 34.7206C23.8982 34.6592 24.2179 34.6907 24.5085 34.811C24.799 34.9314 25.0473 35.1352 25.222 35.3966C25.3967 35.6581 25.49 35.9655 25.49 36.28C25.49 36.7017 25.3225 37.1061 25.0243 37.4043C24.7261 37.7025 24.3217 37.87 23.9 37.87Z" fill="black"/>
</svg>
