<svg width="48" height="48" viewBox="0 0 48 48" fill="none" xmlns="http://www.w3.org/2000/svg">
<path d="M43.3235 24.3253L37.3199 20.8532L32.0168 23.925L26.6736 20.8532L26.0132 21.2434L21.3904 23.915L17.428 21.6437V15.51L10.714 11.6377L4 15.51V23.2647L10.714 27.147L16.0072 24.0751L20.0096 26.3365V30.8692L16.0072 33.1406L11.4144 30.469C11.2554 30.3763 11.0798 30.3159 10.8974 30.2912C10.7151 30.2664 10.5296 30.2778 10.3517 30.3248C10.1738 30.3717 10.0068 30.4532 9.8604 30.5646C9.71397 30.6761 9.59093 30.8153 9.49829 30.9743C9.40565 31.1333 9.34524 31.3089 9.3205 31.4913C9.29576 31.6736 9.30717 31.8591 9.3541 32.037C9.40102 32.2149 9.48253 32.3819 9.59397 32.5283C9.70541 32.6747 9.8446 32.7978 10.0036 32.8904L16.0072 36.3625L21.3204 33.2907L26.6436 36.3625L33.3576 32.4802V26.3365L37.2799 24.0751L41.9027 26.7367C42.1117 26.8606 42.3501 26.9263 42.5931 26.9268C42.9017 26.9304 43.2028 26.8312 43.4488 26.6449C43.6949 26.4586 43.8719 26.1957 43.9522 25.8977C44.0324 25.5997 44.0112 25.2834 43.892 24.9987C43.7728 24.7141 43.5622 24.4772 43.2935 24.3253H43.3235ZM14.6364 21.6437L10.714 23.925L6.79167 21.6437V17.131L10.714 14.8596L14.6364 17.131V21.6437ZM30.5959 30.8592L26.6736 33.1306L22.7512 30.8592V26.3465L26.6736 24.0751L30.5959 26.3465V30.8592Z" fill="black"/>
</svg>
