<svg width="48" height="48" viewBox="0 0 48 48" fill="none" xmlns="http://www.w3.org/2000/svg">
<path d="M42.6281 23.1616L36.3598 19.5484L31.3691 22.413L26.3784 19.5484L25.1107 20.287L21.4575 22.3931L19.0919 21.0356V15.3162L11.5659 10.9543L4 15.3162V24.05L11.5659 28.4218L16.5566 25.5572L18.8823 26.9246V29.6496L16.5267 31.017L12.8635 28.9209C12.2659 28.5875 11.5612 28.5026 10.9015 28.6845C10.2419 28.8664 9.68026 29.3006 9.33808 29.8932C8.9959 30.4858 8.90061 31.1892 9.07281 31.8515C9.24501 32.5137 9.67086 33.0816 10.2584 33.4325L16.5267 37.0458L21.5174 34.1811L26.5081 37.0458L34.074 32.6739V26.9246L36.4296 25.5672L40.0928 27.6832C40.4884 27.9086 40.9351 28.0289 41.3904 28.0326C41.9642 28.0335 42.5223 27.845 42.978 27.4963C43.4337 27.1476 43.7615 26.6582 43.9106 26.1041C44.0596 25.55 44.0216 24.9622 43.8023 24.4319C43.583 23.9017 43.1948 23.4586 42.698 23.1716L42.6281 23.1616Z" fill="black"/>
</svg>
