<svg width="48" height="48" viewBox="0 0 48 48" fill="none" xmlns="http://www.w3.org/2000/svg">
<path d="M26 44C20.6957 44 15.6086 41.8929 11.8579 38.1421C8.10714 34.3914 6 29.3043 6 24C6 18.6957 8.10714 13.6086 11.8579 9.85786C15.6086 6.10714 20.6957 4 26 4L29.33 4L27.16 6.35C24.8657 8.78956 23.333 11.8455 22.7498 15.1433C22.1665 18.441 22.5582 21.8373 23.8766 24.9158C25.195 27.9943 27.383 30.6212 30.1723 32.4746C32.9617 34.328 36.2311 35.3273 39.58 35.35H42.77L40.59 37.67C38.7173 39.663 36.4573 41.2525 33.9484 42.341C31.4396 43.4295 28.7348 43.994 26 44ZM23.06 7C20.5028 7.44767 18.0801 8.46807 15.9731 9.98478C13.8662 11.5015 12.1297 13.4752 10.8936 15.7581C9.65758 18.0411 8.95403 20.5741 8.83565 23.1674C8.71727 25.7608 9.18714 28.3474 10.2101 30.7334C11.233 33.1194 12.7825 35.2432 14.7425 36.9455C16.7025 38.6479 19.0222 39.8847 21.5279 40.5635C24.0337 41.2423 26.6606 41.3454 29.2118 40.8651C31.7631 40.3848 34.1726 39.3335 36.26 37.79C32.9836 37.2172 29.9018 35.8363 27.2936 33.7723C24.6853 31.7083 22.633 29.0264 21.3225 25.9694C20.0119 22.9124 19.4844 19.5768 19.7878 16.2645C20.0912 12.9523 21.2159 9.76805 23.06 7Z" fill="black"/>
</svg>
