<svg width="48" height="48" viewBox="0 0 48 48" fill="none" xmlns="http://www.w3.org/2000/svg">
<path d="M38.27 34.62C35.0878 34.5977 31.9811 33.6477 29.3306 31.8865C26.6801 30.1253 24.6008 27.6293 23.3473 24.7043C22.0939 21.7792 21.7207 18.5521 22.2736 15.4181C22.8265 12.2842 24.2813 9.37959 26.46 7.06L29.2 4H25C21.6838 4.00006 18.4196 4.82473 15.5013 6.39977C12.583 7.97482 10.1021 10.2508 8.28202 13.0229C6.46189 15.795 5.35964 18.9762 5.07446 22.2801C4.78928 25.584 5.33013 28.907 6.64833 31.95C7.96653 34.993 10.0207 37.6604 12.626 39.7122C15.2312 41.764 18.3058 43.1358 21.573 43.7041C24.8401 44.2724 28.1973 44.0194 31.3424 42.9678C34.4875 41.9163 37.3217 40.0991 39.59 37.68L42.43 34.68L38.27 34.62Z" fill="black"/>
</svg>
