<svg width="48" height="48" viewBox="0 0 48 48" fill="none" xmlns="http://www.w3.org/2000/svg">
<path d="M41.63 24C41.6278 21.4177 40.6876 18.9242 38.9841 16.9835C37.2807 15.0428 34.9302 13.787 32.37 13.45V8.31C32.3674 7.69816 32.1231 7.11213 31.6905 6.67949C31.2579 6.24685 30.6718 6.00263 30.06 6H8.31C7.69735 6 7.10979 6.24337 6.67658 6.67658C6.24337 7.10979 6 7.69735 6 8.31V36.92C6.00264 38.2665 6.5387 39.5571 7.49082 40.5092C8.44293 41.4613 9.73351 41.9974 11.08 42H27.29C28.6365 41.9974 29.9271 41.4613 30.8792 40.5092C31.8313 39.5571 32.3674 38.2665 32.37 36.92V34.55C34.9302 34.213 37.2807 32.9572 38.9841 31.0165C40.6876 29.0758 41.6278 26.5823 41.63 24ZM29.63 36.92C29.63 37.5326 29.3866 38.1202 28.9534 38.5534C28.5202 38.9866 27.9326 39.23 27.32 39.23H11.08C10.7763 39.2313 10.4753 39.1725 10.1944 39.0569C9.91358 38.9412 9.6584 38.7711 9.44363 38.5564C9.22887 38.3416 9.05876 38.0864 8.94314 37.8056C8.82752 37.5247 8.76868 37.2237 8.77 36.92V8.77H29.6L29.63 36.92ZM32.4 31.75V16.25C34.2216 16.5718 35.8717 17.525 37.0605 18.9422C38.2493 20.3595 38.9009 22.1502 38.9009 24C38.9009 25.8498 38.2493 27.6405 37.0605 29.0578C35.8717 30.475 34.2216 31.4282 32.4 31.75Z" fill="black"/>
</svg>
