<svg width="48" height="48" viewBox="0 0 48 48" fill="none" xmlns="http://www.w3.org/2000/svg">
<path d="M42 24C42.0128 21.2206 41.0341 18.5278 39.2397 16.4053C37.4452 14.2828 34.9527 12.8697 32.21 12.42V8.7C32.2126 8.34805 32.1459 7.99904 32.0136 7.67287C31.8814 7.34671 31.6862 7.04979 31.4392 6.79907C31.1922 6.54835 30.8982 6.34874 30.574 6.21164C30.2499 6.07453 29.9019 6.00262 29.55 6L8.65996 6C8.30802 6.00262 7.96003 6.07453 7.63588 6.21164C7.31173 6.34874 7.01776 6.54835 6.77075 6.79907C6.52375 7.04979 6.32854 7.34671 6.19629 7.67287C6.06404 7.99904 5.99733 8.34805 5.99996 8.7V36.6C5.99196 38.0208 6.54735 39.3868 7.54448 40.399C8.54162 41.4111 9.89922 41.9868 11.32 42H26.89C27.5939 41.9948 28.2898 41.8509 28.9381 41.5767C29.5864 41.3025 30.1744 40.9033 30.6684 40.4019C31.1624 39.9004 31.5528 39.3066 31.8173 38.6543C32.0818 38.0019 32.2152 37.3039 32.21 36.6V35.6C34.9561 35.1497 37.4513 33.7338 39.2462 31.6071C41.041 29.4804 42.0176 26.7828 42 24ZM32.21 30.07V17.93C33.5032 18.3345 34.6335 19.1415 35.436 20.2334C36.2386 21.3253 36.6714 22.6449 36.6714 24C36.6714 25.3551 36.2386 26.6747 35.436 27.7666C34.6335 28.8585 33.5032 29.6655 32.21 30.07Z" fill="black"/>
</svg>
