<svg width="48" height="48" viewBox="0 0 48 48" fill="none" xmlns="http://www.w3.org/2000/svg">
<path d="M38.4698 37.18C38.2064 37.1808 37.9481 37.1067 37.7252 36.9663C37.5022 36.8259 37.3238 36.6251 37.2106 36.3872C37.0974 36.1493 37.0541 35.8841 37.0859 35.6226C37.1176 35.3611 37.223 35.114 37.3898 34.91C39.8641 31.8467 41.2137 28.0278 41.2137 24.09C41.2137 20.1522 39.8641 16.3334 37.3898 13.27C37.2735 13.1283 37.1865 12.9651 37.1335 12.7896C37.0806 12.6142 37.0629 12.43 37.0815 12.2476C37.1 12.0653 37.1544 11.8885 37.2416 11.7272C37.3288 11.566 37.4469 11.4236 37.5893 11.3083C37.7317 11.1929 37.8955 11.1068 38.0713 11.055C38.2471 11.0032 38.4314 10.9866 38.6136 11.0063C38.7958 11.026 38.9723 11.0815 39.133 11.1697C39.2937 11.2578 39.4353 11.3769 39.5498 11.52C42.4277 15.0792 43.9977 19.5179 43.9977 24.095C43.9977 28.6722 42.4277 33.1108 39.5498 36.67C39.4185 36.8294 39.2536 36.9578 39.0669 37.046C38.8802 37.1341 38.6763 37.1799 38.4698 37.18Z" fill="black"/>
<path d="M9.5298 37.19C9.32239 37.1894 9.11775 37.1424 8.93087 37.0524C8.74399 36.9624 8.57962 36.8318 8.4498 36.67C5.57193 33.1108 4.00195 28.6722 4.00195 24.095C4.00195 19.5179 5.57193 15.0792 8.4498 11.52C8.68187 11.2323 9.01874 11.0485 9.38631 11.0091C9.56831 10.9896 9.75238 11.0061 9.92799 11.0578C10.1036 11.1094 10.2673 11.1951 10.4098 11.31C10.5523 11.4249 10.6707 11.5668 10.7584 11.7275C10.8461 11.8881 10.9012 12.0645 10.9207 12.2465C10.9402 12.4285 10.9237 12.6126 10.8721 12.7882C10.8204 12.9638 10.7347 13.1275 10.6198 13.27C8.14205 16.3318 6.7902 20.1513 6.7902 24.09C6.7902 28.0288 8.14205 31.8482 10.6198 34.91C10.7389 35.0545 10.828 35.2212 10.8819 35.4004C10.9359 35.5797 10.9536 35.7679 10.934 35.954C10.9145 36.1402 10.8581 36.3206 10.7681 36.4847C10.6781 36.6489 10.5563 36.7934 10.4098 36.91C10.1548 37.0968 9.84581 37.1951 9.5298 37.19Z" fill="black"/>
<path d="M31.9998 31.83C31.7373 31.8311 31.4798 31.7579 31.2572 31.6188C31.0346 31.4796 30.8559 31.2803 30.7419 31.0439C30.6278 30.8074 30.5831 30.5435 30.6128 30.2827C30.6425 30.0218 30.7455 29.7748 30.9098 29.57C32.1402 28.0103 32.8093 26.0816 32.8093 24.095C32.8093 22.1084 32.1402 20.1797 30.9098 18.62C30.7147 18.3273 30.637 17.9719 30.6921 17.6245C30.7471 17.2771 30.9309 16.9631 31.207 16.745C31.483 16.527 31.831 16.4209 32.1817 16.4477C32.5324 16.4746 32.8602 16.6325 33.0998 16.89C34.7195 18.9423 35.6005 21.4805 35.6005 24.095C35.6005 26.7095 34.7195 29.2477 33.0998 31.3C32.9679 31.4652 32.8006 31.5985 32.6101 31.6903C32.4197 31.782 32.2112 31.8298 31.9998 31.83Z" fill="black"/>
<path d="M15.9998 31.83C15.7885 31.8298 15.5799 31.782 15.3895 31.6903C15.1991 31.5985 15.0317 31.4652 14.8998 31.3C13.2801 29.2477 12.3991 26.7095 12.3991 24.095C12.3991 21.4805 13.2801 18.9423 14.8998 16.89C15.007 16.7291 15.1464 16.5922 15.3092 16.4878C15.472 16.3834 15.6547 16.3139 15.8456 16.2837C16.0366 16.2534 16.2318 16.263 16.4189 16.3119C16.606 16.3608 16.7809 16.448 16.9326 16.5678C17.0844 16.6877 17.2096 16.8377 17.3005 17.0084C17.3914 17.179 17.4459 17.3667 17.4607 17.5595C17.4755 17.7523 17.4501 17.9461 17.3863 18.1286C17.3225 18.3111 17.2215 18.4784 17.0898 18.62C15.847 20.1838 15.1705 22.1225 15.1705 24.12C15.1705 26.1175 15.847 28.0562 17.0898 29.62C17.2096 29.7645 17.2991 29.9316 17.353 30.1115C17.407 30.2913 17.4242 30.4801 17.4036 30.6666C17.3831 30.8532 17.3253 31.0338 17.2336 31.1976C17.1419 31.3613 17.0182 31.505 16.8698 31.62C16.6097 31.7813 16.3048 31.8549 15.9998 31.83Z" fill="black"/>
<path d="M23.9998 27.35C25.8003 27.35 27.2598 25.8905 27.2598 24.09C27.2598 22.2896 25.8003 20.83 23.9998 20.83C22.1994 20.83 20.7398 22.2896 20.7398 24.09C20.7398 25.8905 22.1994 27.35 23.9998 27.35Z" fill="black"/>
</svg>
