<svg width="48" height="48" viewBox="0 0 48 48" fill="none" xmlns="http://www.w3.org/2000/svg">
<path d="M39.5498 11C39.3545 10.6831 39.0936 10.4116 38.7847 10.2038C38.4757 9.99598 38.1259 9.85666 37.7587 9.79521C37.3915 9.73375 37.0154 9.75156 36.6557 9.84745C36.2959 9.94334 35.9608 10.1151 35.6729 10.3512C35.385 10.5872 35.151 10.8822 34.9865 11.2162C34.822 11.5502 34.7308 11.9155 34.7192 12.2876C34.7075 12.6598 34.7756 13.0301 34.9188 13.3737C35.0621 13.7174 35.2773 14.0264 35.5498 14.28C37.6865 16.9031 38.8459 20.1869 38.8298 23.57C38.8475 26.9535 37.688 30.2378 35.5498 32.86C35.2103 33.3977 35.0788 34.0407 35.1799 34.6684C35.281 35.2961 35.6077 35.8654 36.0987 36.2693C36.5898 36.6731 37.2114 36.8839 37.8468 36.8619C38.4822 36.84 39.0878 36.5869 39.5498 36.15C42.4277 32.5908 43.9977 28.1522 43.9977 23.575C43.9977 18.9979 42.4277 14.5593 39.5498 11Z" fill="black"/>
<path d="M9.2198 23.54C9.2054 20.1572 10.3646 16.874 12.4998 14.25C12.7562 13.99 12.9552 13.6791 13.0839 13.3373C13.2126 12.9955 13.2682 12.6305 13.247 12.266C13.2258 11.9014 13.1283 11.5453 12.9609 11.2207C12.7934 10.8962 12.5597 10.6104 12.2749 10.3818C11.9901 10.1533 11.6605 9.98701 11.3073 9.89383C10.9542 9.80065 10.5855 9.78261 10.225 9.84088C9.86445 9.89915 9.52017 10.0324 9.21439 10.2321C8.90861 10.4318 8.64813 10.6934 8.4498 11C5.57193 14.5593 4.00195 18.9979 4.00195 23.575C4.00195 28.1522 5.57193 32.5908 8.4498 36.15C8.6873 36.4555 8.99022 36.7039 9.33633 36.877C9.68243 37.05 10.0629 37.1433 10.4498 37.15C10.9416 37.1483 11.4228 37.0071 11.8375 36.7428C12.2523 36.4786 12.5836 36.1021 12.793 35.6571C13.0024 35.2122 13.0813 34.7169 13.0206 34.2289C12.9598 33.7409 12.7619 33.2801 12.4498 32.9C10.3172 30.2507 9.175 26.9408 9.2198 23.54Z" fill="black"/>
<path d="M33.5498 16C33.1077 15.5011 32.4914 15.1903 31.8274 15.1313C31.1634 15.0723 30.502 15.2696 29.9788 15.6828C29.4557 16.0959 29.1104 16.6936 29.0139 17.3532C28.9174 18.0128 29.0769 18.6843 29.4598 19.23C30.4316 20.4565 30.9604 21.9753 30.9604 23.54C30.9604 25.1048 30.4316 26.6236 29.4598 27.85C29.032 28.3945 28.8371 29.0861 28.9177 29.7738C28.9982 30.4614 29.3477 31.0893 29.8898 31.52C30.4326 31.9473 31.1226 32.1419 31.8087 32.0613C32.4947 31.9807 33.1208 31.6315 33.5498 31.09C35.2474 28.9415 36.1709 26.2833 36.1709 23.545C36.1709 20.8068 35.2474 18.1486 33.5498 16Z" fill="black"/>
<path d="M18.1098 15.57C17.8416 15.3572 17.5339 15.1995 17.2045 15.1059C16.8752 15.0123 16.5305 14.9847 16.1905 15.0246C15.8504 15.0646 15.5216 15.1713 15.2228 15.3387C14.9241 15.5061 14.6614 15.7308 14.4498 16C12.7522 18.1486 11.8287 20.8068 11.8287 23.545C11.8287 26.2833 12.7522 28.9415 14.4498 31.09C14.8788 31.6315 15.5049 31.9807 16.191 32.0613C16.877 32.1419 17.567 31.9473 18.1098 31.52C18.6519 31.0893 19.0014 30.4614 19.082 29.7738C19.1625 29.0861 18.9676 28.3945 18.5398 27.85C17.568 26.6236 17.0392 25.1048 17.0392 23.54C17.0392 21.9753 17.568 20.4565 18.5398 19.23C18.967 18.6873 19.1617 17.9972 19.0811 17.3112C19.0005 16.6251 18.6512 15.999 18.1098 15.57Z" fill="black"/>
<path d="M23.9998 27.89C26.4022 27.89 28.3498 25.9425 28.3498 23.54C28.3498 21.1376 26.4022 19.19 23.9998 19.19C21.5974 19.19 19.6498 21.1376 19.6498 23.54C19.6498 25.9425 21.5974 27.89 23.9998 27.89Z" fill="black"/>
</svg>
