<svg width="48" height="48" viewBox="0 0 48 48" fill="none" xmlns="http://www.w3.org/2000/svg">
<path d="M10.2011 34.25C7.9175 31.1914 6.71897 27.459 6.79505 23.6429C6.87113 19.8269 8.21748 16.1452 10.6212 13.18C10.8266 12.8899 10.9139 12.5325 10.8655 12.1803C10.8171 11.8282 10.6365 11.5077 10.3604 11.2837C10.0842 11.0598 9.73326 10.9493 9.37864 10.9746C9.02402 10.9999 8.69231 11.1592 8.45079 11.42C5.61693 14.9252 4.05031 19.2846 4.00492 23.7915C3.95954 28.2984 5.43805 32.6885 8.20074 36.25L10.2011 34.25Z" fill="black"/>
<path d="M16.2321 28.22C15.4069 26.6991 15.0458 24.9696 15.1933 23.2456C15.3408 21.5216 15.9906 19.8787 17.0623 18.52C17.1821 18.3755 17.2716 18.2084 17.3255 18.0286C17.3795 17.8488 17.3967 17.66 17.3761 17.4734C17.3556 17.2868 17.2978 17.1062 17.206 16.9425C17.1143 16.7787 16.9906 16.635 16.8422 16.52C16.696 16.4033 16.5281 16.3167 16.3482 16.2651C16.1684 16.2135 15.9801 16.198 15.7942 16.2193C15.6084 16.2407 15.4285 16.2986 15.2651 16.3896C15.1017 16.4807 14.9578 16.6032 14.8419 16.75C13.219 18.8162 12.3478 21.373 12.3715 24C12.3636 26.2165 12.9995 28.3877 14.2018 30.25L16.2321 28.22Z" fill="black"/>
<path d="M23.6734 20.78C22.9315 20.8528 22.2379 21.1807 21.7108 21.7077C21.1836 22.2347 20.8557 22.9282 20.7829 23.67L23.6734 20.78Z" fill="black"/>
<path d="M24.3335 27.22C25.0754 27.1472 25.769 26.8193 26.2961 26.2923C26.8232 25.7653 27.1512 25.0717 27.224 24.33L24.3335 27.22Z" fill="black"/>
<path d="M31.7748 19.78C32.5999 21.3009 32.9611 23.0304 32.8136 24.7544C32.666 26.4784 32.0162 28.1213 30.9446 29.48C30.7818 29.6827 30.6792 29.9271 30.6483 30.1852C30.6174 30.4434 30.6596 30.7051 30.77 30.9405C30.8805 31.1758 31.0547 31.3756 31.273 31.5169C31.4912 31.6582 31.7448 31.7355 32.0048 31.74C32.2162 31.7397 32.4248 31.692 32.6152 31.6002C32.8057 31.5085 32.9731 31.3751 33.105 31.21C34.7408 29.1625 35.6329 26.6205 35.6354 24C35.6432 21.7834 35.0074 19.6123 33.8051 17.75L31.7748 19.78Z" fill="black"/>
<path d="M39.8061 11.75L37.8058 13.75C40.0891 16.8081 41.2884 20.5397 41.2141 24.3553C41.1399 28.1709 39.7963 31.853 37.3957 34.82C37.2289 35.0239 37.1235 35.2711 37.0917 35.5326C37.06 35.7941 37.1033 36.0593 37.2165 36.2972C37.3297 36.5351 37.5082 36.7359 37.7311 36.8763C37.9541 37.0166 38.2124 37.0908 38.4759 37.09C38.6848 37.0895 38.891 37.0425 39.0795 36.9526C39.268 36.8627 39.4342 36.732 39.5661 36.57C42.396 33.0645 43.9594 28.7064 44.003 24.2017C44.0465 19.697 42.5677 15.3095 39.8061 11.75Z" fill="black"/>
<path d="M7.26058 42C7.09485 42.002 6.93046 41.9702 6.77741 41.9066C6.62437 41.843 6.48589 41.7489 6.37043 41.63C6.254 41.5139 6.16163 41.3759 6.0986 41.2241C6.03558 41.0722 6.00313 40.9094 6.00313 40.745C6.00313 40.5806 6.03558 40.4178 6.0986 40.2659C6.16163 40.114 6.254 39.9761 6.37043 39.86L39.8661 6.37C39.9824 6.25378 40.1204 6.16159 40.2722 6.09869C40.4241 6.03579 40.5869 6.00342 40.7513 6.00342C40.9157 6.00342 41.0784 6.03579 41.2303 6.09869C41.3822 6.16159 41.5202 6.25378 41.6364 6.37C41.7527 6.48622 41.8449 6.62419 41.9078 6.77604C41.9707 6.92789 42.0031 7.09064 42.0031 7.255C42.0031 7.41936 41.9707 7.58211 41.9078 7.73396C41.8449 7.8858 41.7527 8.02378 41.6364 8.14L8.14073 41.63C8.02679 41.7481 7.89 41.8418 7.7387 41.9054C7.58739 41.9691 7.42472 42.0012 7.26058 42Z" fill="black"/>
</svg>
