<svg width="48" height="48" viewBox="0 0 48 48" fill="none" xmlns="http://www.w3.org/2000/svg">
<path d="M11.1342 31.3556C9.66547 28.7837 9.00896 25.8318 9.25005 22.8839C9.49115 19.936 10.6187 17.1284 12.4861 14.8263C12.826 14.291 12.9577 13.6507 12.8565 13.0256C12.7553 12.4006 12.4281 11.8338 11.9364 11.4316C11.4447 11.0295 10.8222 10.8196 10.1859 10.8415C9.54963 10.8633 8.94323 11.1154 8.4806 11.5503C5.7883 14.847 4.22634 18.9132 4.02277 23.1552C3.8192 27.3972 4.98468 31.5928 7.34905 35.1294L11.1342 31.3556Z" fill="black"/>
<path d="M17.1625 25.3612C16.9692 24.3885 16.9918 23.3855 17.2287 22.4224C17.4657 21.4593 17.9113 20.5592 18.5344 19.7851C18.9411 19.2431 19.1194 18.5648 19.0313 17.8942C18.9432 17.2236 18.5957 16.6136 18.0626 16.1937C17.5295 15.7737 16.8528 15.577 16.1762 15.6452C15.4995 15.7134 14.8763 16.0411 14.4387 16.5589C13.0095 18.3547 12.1227 20.5174 11.8816 22.795C11.6405 25.0726 12.055 27.3714 13.0769 29.4238L17.1625 25.3612Z" fill="black"/>
<path d="M22.5398 20.0141C21.9367 20.2307 21.3889 20.5767 20.9355 21.0276C20.482 21.4785 20.134 22.0232 19.9162 22.6229L22.5398 20.0141Z" fill="black"/>
<path d="M25.4638 28.1393C26.067 27.9228 26.6147 27.5767 27.0682 27.1258C27.5216 26.6749 27.8696 26.1302 28.0874 25.5305L25.4638 28.1393Z" fill="black"/>
<path d="M30.8412 22.7922C31.0345 23.7649 31.0119 24.7679 30.7749 25.731C30.538 26.6942 30.0924 27.5942 29.4693 28.3683C29.2444 28.6345 29.0755 28.9428 28.9726 29.2749C28.8696 29.6071 28.8348 29.9565 28.87 30.3023C28.9053 30.6481 29.0099 30.9834 29.1778 31.2883C29.3457 31.5932 29.5734 31.8615 29.8474 32.0774C30.1214 32.2932 30.4362 32.4522 30.7731 32.5449C31.11 32.6377 31.4621 32.6622 31.8088 32.6172C32.1554 32.5722 32.4894 32.4585 32.7911 32.2828C33.0927 32.1072 33.3558 31.8731 33.5649 31.5945C34.9942 29.7987 35.881 27.636 36.1221 25.3585C36.3632 23.0809 35.9486 20.782 34.9268 18.7296L30.8412 22.7922Z" fill="black"/>
<path d="M40.6546 13.024L36.8694 16.7979C38.3382 19.3698 38.9947 22.3216 38.7536 25.2695C38.5125 28.2174 37.385 31.025 35.5176 33.3271C35.2447 33.5797 35.0292 33.8874 34.8858 34.2296C34.7423 34.5717 34.6741 34.9405 34.6858 35.311C34.6975 35.6816 34.7887 36.0453 34.9535 36.3779C35.1182 36.7105 35.3526 37.0042 35.6409 37.2393C35.9292 37.4743 36.2647 37.6453 36.625 37.7408C36.9852 37.8363 37.3618 37.854 37.7295 37.7928C38.0972 37.7316 38.4475 37.5929 38.7569 37.386C39.0662 37.1791 39.3275 36.9087 39.5231 36.5931C42.2131 33.2973 43.7737 29.233 43.9772 24.9932C44.1808 20.7533 43.0166 16.5597 40.6546 13.024Z" fill="black"/>
<path d="M8.33039 42C7.86751 41.9974 7.41568 41.8591 7.03144 41.6024C6.64721 41.3458 6.34763 40.9821 6.1702 40.557C5.99278 40.1318 5.94538 39.6641 6.03395 39.2123C6.12251 38.7606 6.3431 38.3448 6.66812 38.017L38.021 6.84048C38.2304 6.59099 38.4899 6.38762 38.7827 6.24332C39.0755 6.09901 39.3954 6.01695 39.7219 6.00236C40.0484 5.98777 40.3744 6.04096 40.6791 6.15856C40.9837 6.27615 41.2604 6.45556 41.4915 6.68537C41.7226 6.91517 41.9031 7.19032 42.0213 7.49329C42.1396 7.79625 42.1931 8.1204 42.1784 8.44506C42.1637 8.76972 42.0812 9.08778 41.9361 9.37898C41.791 9.67017 41.5865 9.92812 41.3355 10.1364L9.98265 41.3129C9.54511 41.7505 8.9509 41.9976 8.33039 42Z" fill="black"/>
</svg>
