<svg width="48" height="48" viewBox="0 0 48 48" fill="none" xmlns="http://www.w3.org/2000/svg">
<path d="M38.76 9H15.08C14.2207 9 13.3966 9.34136 12.789 9.94897C12.1814 10.5566 11.84 11.3807 11.84 12.24V39.16H38.76C39.6193 39.16 40.4434 38.8186 41.051 38.211C41.6587 37.6034 42 36.7793 42 35.92V12.24C42 11.3807 41.6587 10.5566 41.051 9.94897C40.4434 9.34136 39.6193 9 38.76 9ZM15.83 14.06C15.83 13.9407 15.8774 13.8262 15.9618 13.7418C16.0462 13.6574 16.1607 13.61 16.28 13.61H23C23.1194 13.61 23.2338 13.6574 23.3182 13.7418C23.4026 13.8262 23.45 13.9407 23.45 14.06V20.78C23.45 20.8993 23.4026 21.0138 23.3182 21.0982C23.2338 21.1826 23.1194 21.23 23 21.23H16.28C16.1607 21.23 16.0462 21.1826 15.9618 21.0982C15.8774 21.0138 15.83 20.8993 15.83 20.78V14.06ZM38 36.35H15.83C15.3526 36.35 14.8948 36.1604 14.5572 35.8228C14.2197 35.4852 14.03 35.0274 14.03 34.55C14.03 34.0726 14.2197 33.6148 14.5572 33.2772C14.8948 32.9396 15.3526 32.75 15.83 32.75H38C38.4774 32.75 38.9352 32.9396 39.2728 33.2772C39.6104 33.6148 39.8 34.0726 39.8 34.55C39.8 35.0274 39.6104 35.4852 39.2728 35.8228C38.9352 36.1604 38.4774 36.35 38 36.35ZM38 31.63H15.83C15.3526 31.63 14.8948 31.4404 14.5572 31.1028C14.2197 30.7652 14.03 30.3074 14.03 29.83C14.03 29.3526 14.2197 28.8948 14.5572 28.5572C14.8948 28.2196 15.3526 28.03 15.83 28.03H38C38.4774 28.03 38.9352 28.2196 39.2728 28.5572C39.6104 28.8948 39.8 29.3526 39.8 29.83C39.8 30.3074 39.6104 30.7652 39.2728 31.1028C38.9352 31.4404 38.4774 31.63 38 31.63ZM38 26.91H15.83C15.3526 26.91 14.8948 26.7204 14.5572 26.3828C14.2197 26.0452 14.03 25.5874 14.03 25.11C14.03 24.6326 14.2197 24.1748 14.5572 23.8372C14.8948 23.4996 15.3526 23.31 15.83 23.31H38C38.4774 23.31 38.9352 23.4996 39.2728 23.8372C39.6104 24.1748 39.8 24.6326 39.8 25.11C39.8 25.5874 39.6104 26.0452 39.2728 26.3828C38.9352 26.7204 38.4774 26.91 38 26.91ZM38 21.39H26.16C25.6826 21.39 25.2248 21.2004 24.8872 20.8628C24.5497 20.5252 24.36 20.0674 24.36 19.59C24.36 19.1126 24.5497 18.6548 24.8872 18.3172C25.2248 17.9796 25.6826 17.79 26.16 17.79H38C38.2364 17.79 38.4705 17.8366 38.6888 17.927C38.9072 18.0175 39.1057 18.1501 39.2728 18.3172C39.44 18.4844 39.5725 18.6828 39.663 18.9012C39.7535 19.1196 39.8 19.3536 39.8 19.59C39.8 19.8264 39.7535 20.0604 39.663 20.2788C39.5725 20.4972 39.44 20.6956 39.2728 20.8628C39.1057 21.0299 38.9072 21.1625 38.6888 21.253C38.4705 21.3434 38.2364 21.39 38 21.39ZM38 17.05H26.16C25.6826 17.05 25.2248 16.8604 24.8872 16.5228C24.5497 16.1852 24.36 15.7274 24.36 15.25C24.36 14.7726 24.5497 14.3148 24.8872 13.9772C25.2248 13.6396 25.6826 13.45 26.16 13.45H38C38.4774 13.45 38.9352 13.6396 39.2728 13.9772C39.6104 14.3148 39.8 14.7726 39.8 15.25C39.8 15.7274 39.6104 16.1852 39.2728 16.5228C38.9352 16.8604 38.4774 17.05 38 17.05Z" fill="black"/>
<path d="M8.24001 16.75H8.12001C7.55775 16.75 7.01852 16.9734 6.62095 17.3709C6.22337 17.7685 6.00001 18.3077 6.00001 18.87V35.87C5.99131 36.5623 6.20391 37.2392 6.60683 37.8023C7.00976 38.3653 7.58194 38.7849 8.24001 39V16.75Z" fill="black"/>
</svg>
