<svg width="48" height="48" viewBox="0 0 48 48" fill="none" xmlns="http://www.w3.org/2000/svg">
<path d="M39.14 9H14.85C14.0932 9.00265 13.3683 9.30513 12.8341 9.8412C12.2999 10.3773 12 11.1032 12 11.86V17H7.71C7.26501 16.9998 6.83748 17.1731 6.51819 17.483C6.1989 17.793 6.01301 18.2152 6 18.66V36.13C6.00265 36.8921 6.30724 37.6221 6.84706 38.16C7.38688 38.6979 8.11791 39 8.88 39H39.14C39.8968 39 40.6227 38.7001 41.1588 38.1659C41.6949 37.6317 41.9974 36.9068 42 36.15V11.86C42 11.1015 41.6987 10.374 41.1623 9.83767C40.626 9.30132 39.8985 9 39.14 9ZM8.88 36.24C8.85083 36.24 8.82285 36.2284 8.80222 36.2078C8.78159 36.1872 8.77 36.1592 8.77 36.13V19.72H12V36.13C12 36.1592 11.9884 36.1872 11.9678 36.2078C11.9472 36.2284 11.9192 36.24 11.89 36.24H8.88ZM39.23 36.15C39.23 36.1739 39.2205 36.1968 39.2036 36.2136C39.1868 36.2305 39.1639 36.24 39.14 36.24H14.75C14.75 36.24 14.75 36.17 14.75 36.13V11.86C14.75 11.8361 14.7595 11.8132 14.7764 11.7964C14.7932 11.7795 14.8161 11.77 14.84 11.77H39.14C39.1639 11.77 39.1868 11.7795 39.2036 11.7964C39.2205 11.8132 39.23 11.8361 39.23 11.86V36.15Z" fill="black"/>
<path d="M17.26 23H24.15C24.3959 23.0014 24.6395 22.9535 24.8666 22.8591C25.0936 22.7648 25.2995 22.6259 25.4719 22.4506C25.6444 22.2753 25.78 22.0673 25.8707 21.8388C25.9614 21.6102 26.0054 21.3658 26 21.12V14.23C26.0013 13.9875 25.9547 13.7472 25.8628 13.5228C25.7709 13.2984 25.6356 13.0944 25.4646 12.9225C25.2936 12.7505 25.0903 12.6141 24.8665 12.521C24.6426 12.4279 24.4025 12.38 24.16 12.38H17.26C16.7694 12.38 16.2988 12.5749 15.9519 12.9219C15.6049 13.2688 15.41 13.7393 15.41 14.23V21.12C15.406 21.3655 15.4509 21.6093 15.5421 21.8372C15.6333 22.0651 15.7689 22.2726 15.9411 22.4476C16.1133 22.6226 16.3186 22.7615 16.545 22.8564C16.7715 22.9512 17.0145 23 17.26 23ZM18.18 15.18H23.18V20.18H18.18V15.18Z" fill="black"/>
<path d="M37.39 14.52H28C27.653 14.5495 27.3297 14.7082 27.0941 14.9647C26.8585 15.2212 26.7278 15.5567 26.7278 15.905C26.7278 16.2533 26.8585 16.5888 27.0941 16.8453C27.3297 17.1018 27.653 17.2605 28 17.29H37.39C37.5818 17.3063 37.7748 17.2826 37.957 17.2204C38.1391 17.1582 38.3064 17.0589 38.4481 16.9287C38.5898 16.7985 38.703 16.6403 38.7804 16.464C38.8578 16.2878 38.8978 16.0975 38.8978 15.905C38.8978 15.7125 38.8578 15.5222 38.7804 15.346C38.703 15.1697 38.5898 15.0115 38.4481 14.8813C38.3064 14.7511 38.1391 14.6518 37.957 14.5896C37.7748 14.5274 37.5818 14.5037 37.39 14.52Z" fill="black"/>
<path d="M37.39 18.05H28C27.653 18.0795 27.3297 18.2382 27.0941 18.4947C26.8585 18.7512 26.7278 19.0867 26.7278 19.435C26.7278 19.7833 26.8585 20.1188 27.0941 20.3753C27.3297 20.6318 27.653 20.7905 28 20.82H37.39C37.5818 20.8363 37.7748 20.8126 37.957 20.7504C38.1391 20.6882 38.3064 20.5889 38.4481 20.4587C38.5898 20.3285 38.703 20.1703 38.7804 19.994C38.8578 19.8178 38.8978 19.6275 38.8978 19.435C38.8978 19.2425 38.8578 19.0522 38.7804 18.876C38.703 18.6997 38.5898 18.5415 38.4481 18.4113C38.3064 18.2811 38.1391 18.1818 37.957 18.1196C37.7748 18.0574 37.5818 18.0337 37.39 18.05Z" fill="black"/>
<path d="M37.39 23.72H16.8C16.6082 23.7037 16.4152 23.7274 16.233 23.7896C16.0509 23.8518 15.8836 23.9511 15.7419 24.0813C15.6002 24.2115 15.487 24.3697 15.4096 24.546C15.3322 24.7222 15.2922 24.9125 15.2922 25.105C15.2922 25.2975 15.3322 25.4878 15.4096 25.664C15.487 25.8403 15.6002 25.9985 15.7419 26.1287C15.8836 26.2589 16.0509 26.3582 16.233 26.4204C16.4152 26.4826 16.6082 26.5063 16.8 26.49H37.39C37.5818 26.5063 37.7748 26.4826 37.957 26.4204C38.1391 26.3582 38.3064 26.2589 38.4481 26.1287C38.5898 25.9985 38.703 25.8403 38.7804 25.664C38.8578 25.4878 38.8978 25.2975 38.8978 25.105C38.8978 24.9125 38.8578 24.7222 38.7804 24.546C38.703 24.3697 38.5898 24.2115 38.4481 24.0813C38.3064 23.9511 38.1391 23.8518 37.957 23.7896C37.7748 23.7274 37.5818 23.7037 37.39 23.72Z" fill="black"/>
<path d="M37.39 27.64H16.8C16.6082 27.6237 16.4152 27.6474 16.233 27.7096C16.0509 27.7718 15.8836 27.8711 15.7419 28.0013C15.6002 28.1315 15.487 28.2897 15.4096 28.466C15.3322 28.6422 15.2922 28.8325 15.2922 29.025C15.2922 29.2175 15.3322 29.4078 15.4096 29.584C15.487 29.7603 15.6002 29.9185 15.7419 30.0487C15.8836 30.1789 16.0509 30.2782 16.233 30.3404C16.4152 30.4026 16.6082 30.4263 16.8 30.41H37.39C37.5818 30.4263 37.7748 30.4026 37.957 30.3404C38.1391 30.2782 38.3064 30.1789 38.4481 30.0487C38.5898 29.9185 38.703 29.7603 38.7804 29.584C38.8578 29.4078 38.8978 29.2175 38.8978 29.025C38.8978 28.8325 38.8578 28.6422 38.7804 28.466C38.703 28.2897 38.5898 28.1315 38.4481 28.0013C38.3064 27.8711 38.1391 27.7718 37.957 27.7096C37.7748 27.6474 37.5818 27.6237 37.39 27.64Z" fill="black"/>
<path d="M37.39 31.56H16.8C16.6082 31.5437 16.4152 31.5674 16.233 31.6296C16.0509 31.6918 15.8836 31.7911 15.7419 31.9213C15.6002 32.0515 15.487 32.2097 15.4096 32.386C15.3322 32.5622 15.2922 32.7525 15.2922 32.945C15.2922 33.1375 15.3322 33.3278 15.4096 33.504C15.487 33.6803 15.6002 33.8385 15.7419 33.9687C15.8836 34.0989 16.0509 34.1982 16.233 34.2604C16.4152 34.3226 16.6082 34.3463 16.8 34.33H37.39C37.5818 34.3463 37.7748 34.3226 37.957 34.2604C38.1391 34.1982 38.3064 34.0989 38.4481 33.9687C38.5898 33.8385 38.703 33.6803 38.7804 33.504C38.8578 33.3278 38.8978 33.1375 38.8978 32.945C38.8978 32.7525 38.8578 32.5622 38.7804 32.386C38.703 32.2097 38.5898 32.0515 38.4481 31.9213C38.3064 31.7911 38.1391 31.6918 37.957 31.6296C37.7748 31.5674 37.5818 31.5437 37.39 31.56Z" fill="black"/>
</svg>
