<svg width="48" height="48" viewBox="0 0 48 48" fill="none" xmlns="http://www.w3.org/2000/svg">
<path fill-rule="evenodd" clip-rule="evenodd" d="M27.7561 28.5743C27.8719 28.6412 27.968 28.7374 28.0348 28.8533C28.1015 28.9692 28.1365 29.1007 28.1362 29.2345V33.4055C28.1365 33.5392 28.1015 33.6707 28.0348 33.7866C27.968 33.9025 27.8719 33.9988 27.7561 34.0656L24.1452 36.1562C24.0283 36.2194 23.898 36.2537 23.7651 36.2562C23.6324 36.2526 23.5023 36.2184 23.385 36.1562L22.1847 35.436C22.0047 35.336 22.0847 35.306 22.1847 35.2859C22.3754 35.2197 22.5596 35.136 22.7348 35.0359C22.7348 35.0359 22.7949 35.0359 22.8249 35.0359L23.7451 35.586C23.7636 35.5957 23.7842 35.6007 23.8051 35.6007C23.826 35.6007 23.8466 35.5957 23.8651 35.586L27.476 33.5055C27.4832 33.4898 27.4869 33.4728 27.4869 33.4555C27.4869 33.4382 27.4832 33.4212 27.476 33.4055V29.2345C27.4832 29.2188 27.4869 29.2017 27.4869 29.1845C27.4869 29.1672 27.4832 29.1501 27.476 29.1344L23.8251 27.0539C23.8084 27.0443 23.7894 27.0392 23.7701 27.0392C23.7508 27.0392 23.7318 27.0443 23.7151 27.0539L20.1042 29.1344C20.0858 29.1438 20.0705 29.1582 20.0599 29.1758C20.0492 29.1935 20.0438 29.2138 20.0442 29.2345V33.4055C20.0438 33.4261 20.0492 33.4464 20.0599 33.4641C20.0705 33.4818 20.0858 33.4961 20.1042 33.5055L21.1045 34.0757C21.6446 34.3457 21.9747 34.0256 21.9747 33.7056V29.5946C21.9747 29.5654 21.9863 29.5374 22.0069 29.5168C22.0275 29.4961 22.0555 29.4845 22.0847 29.4845H22.5348C22.564 29.4845 22.592 29.4961 22.6126 29.5168C22.6332 29.5374 22.6448 29.5654 22.6448 29.5946V33.7556C22.6647 33.9035 22.6512 34.054 22.6053 34.1961C22.5595 34.3381 22.4824 34.4681 22.3798 34.5765C22.2772 34.6848 22.1516 34.7689 22.0122 34.8224C21.8729 34.876 21.7234 34.8976 21.5746 34.8858C21.2828 34.8911 20.9953 34.8149 20.7444 34.6658L19.7441 34.1157C19.629 34.048 19.5334 33.9516 19.4667 33.8359C19.4001 33.7201 19.3647 33.589 19.364 33.4555V29.2345C19.3657 29.1011 19.4015 28.9704 19.468 28.8548C19.5346 28.7393 19.6296 28.6427 19.7441 28.5743L23.355 26.4938C23.4715 26.4299 23.6022 26.3964 23.7351 26.3964C23.868 26.3964 23.9987 26.4299 24.1152 26.4938L27.7561 28.5743ZM24.8854 32.7553C25.6456 32.7553 25.9656 32.5853 25.9656 32.1852C25.9656 31.9451 25.8756 31.7751 24.6953 31.6551C23.6951 31.565 23.0949 31.345 23.0949 30.5548C23.0949 29.7646 23.7051 29.3845 24.7353 29.3845C25.7656 29.3845 26.4658 29.7946 26.5358 30.6548C26.5428 30.667 26.5465 30.6808 26.5465 30.6948C26.5465 30.7089 26.5428 30.7227 26.5358 30.7348C26.5101 30.7449 26.4815 30.7449 26.4558 30.7348H25.9956C25.9722 30.7353 25.9494 30.7276 25.9311 30.7129C25.9129 30.6983 25.9003 30.6777 25.8956 30.6548C25.7856 30.1547 25.5055 29.9946 24.7653 29.9946C24.0252 29.9946 23.8351 30.2847 23.8351 30.5048C23.8351 30.7248 23.9551 30.8349 25.0754 30.9849C26.1957 31.1349 26.7158 31.345 26.7158 32.1252C26.7158 32.9054 26.0557 33.3655 24.9154 33.3655C23.335 33.3655 22.9949 32.6353 22.9949 32.0251C22.9948 32.0111 22.9977 31.9972 23.0034 31.9844C23.009 31.9716 23.0173 31.9601 23.0277 31.9506C23.038 31.9412 23.0503 31.9341 23.0636 31.9297C23.0769 31.9253 23.091 31.9237 23.1049 31.9251H23.5751C23.5993 31.9269 23.6223 31.9368 23.6404 31.9531C23.6585 31.9694 23.6707 31.9912 23.6751 32.0151C23.7151 32.5053 23.9251 32.7553 24.8854 32.7553ZM29.3965 29.6046C29.5513 29.6019 29.6988 29.5386 29.8073 29.4282C29.9158 29.3178 29.9766 29.1692 29.9766 29.0144C29.9766 28.8605 29.9155 28.713 29.8067 28.6042C29.6979 28.4954 29.5503 28.4343 29.3965 28.4343C29.3199 28.4329 29.2439 28.447 29.1729 28.4757C29.1019 28.5043 29.0374 28.547 28.9832 28.6012C28.9291 28.6553 28.8864 28.7198 28.8577 28.7908C28.8291 28.8618 28.815 28.9379 28.8163 29.0144C28.8163 29.1683 28.8775 29.3158 28.9863 29.4246C29.0951 29.5334 29.2426 29.5946 29.3965 29.5946V29.6046ZM29.3965 28.3242C29.5665 28.3447 29.7231 28.4267 29.8367 28.5548C29.9504 28.6829 30.0131 28.8482 30.0131 29.0194C30.0131 29.1906 29.9504 29.3559 29.8367 29.484C29.7231 29.6121 29.5665 29.6942 29.3965 29.7146C29.2982 29.7264 29.1985 29.7172 29.104 29.6877C29.0095 29.6581 28.9224 29.6089 28.8483 29.5432C28.7743 29.4775 28.715 29.3969 28.6744 29.3066C28.6338 29.2163 28.6128 29.1184 28.6128 29.0194C28.6128 28.9204 28.6338 28.8225 28.6744 28.7323C28.715 28.642 28.7743 28.5613 28.8483 28.4956C28.9224 28.4299 29.0095 28.3807 29.104 28.3511C29.1985 28.3216 29.2982 28.3124 29.3965 28.3242ZM29.3965 28.9744C29.4113 28.976 29.4263 28.9742 29.4404 28.9692C29.4544 28.9643 29.4672 28.9562 29.4778 28.9457C29.4883 28.9351 29.4964 28.9223 29.5013 28.9083C29.5063 28.8942 29.5081 28.8792 29.5065 28.8644C29.5065 28.7543 29.4365 28.7543 29.3965 28.7543H29.2664V28.9744H29.3965ZM29.5165 29.0244C29.6265 29.0244 29.6365 29.1044 29.6465 29.2045C29.6389 29.2709 29.6389 29.338 29.6465 29.4045H29.4865C29.4865 29.4045 29.4865 29.1744 29.4865 29.1644C29.4865 29.1544 29.4865 29.0944 29.3965 29.0944H29.2664V29.4045H29.1164V28.6243H29.3865C29.4765 28.6243 29.6565 28.6243 29.6565 28.8344C29.6581 28.8746 29.6462 28.9142 29.6226 28.9468C29.599 28.9795 29.5652 29.0033 29.5265 29.0144L29.5165 29.0244ZM12.3423 19.5421C12.4139 19.5809 12.4734 19.6389 12.514 19.7096C12.5546 19.7802 12.5748 19.8607 12.5724 19.9422V25.8736C12.572 25.9147 12.5607 25.9548 12.5396 25.99C12.5185 26.0252 12.4884 26.0541 12.4523 26.0737C12.417 26.093 12.3775 26.103 12.3373 26.103C12.2971 26.103 12.2576 26.093 12.2223 26.0737L9.99173 24.7534C9.92035 24.7133 9.86066 24.6554 9.81856 24.5852C9.77646 24.515 9.7534 24.4351 9.75167 24.3533V21.5926C9.75196 21.5116 9.73083 21.4319 9.69043 21.3616C9.65004 21.2914 9.5918 21.233 9.52161 21.1925L8.52137 20.6424C8.45347 20.5964 8.37333 20.5718 8.29131 20.5718C8.20929 20.5718 8.12915 20.5964 8.06125 20.6424L7.06101 21.1925C6.99214 21.2345 6.93496 21.2932 6.89475 21.3631C6.85455 21.433 6.8326 21.5119 6.83095 21.5926V24.3733C6.8293 24.4539 6.80736 24.5329 6.76715 24.6028C6.72694 24.6727 6.66977 24.7314 6.6009 24.7734L4.34034 26.0737C4.30506 26.093 4.26551 26.103 4.22532 26.103C4.18512 26.103 4.14557 26.093 4.11029 26.0737C4.0754 26.0536 4.0467 26.0243 4.0273 25.9891C4.0079 25.9538 3.99855 25.9139 4.00026 25.8736V19.9422C3.99997 19.8611 4.0211 19.7815 4.0615 19.7112C4.10189 19.641 4.16013 19.5826 4.23032 19.5421L8.05125 17.3316C8.11475 17.2934 8.18722 17.2727 8.2613 17.2715C8.33576 17.2699 8.40897 17.2909 8.47136 17.3316L12.3423 19.5421ZM30.6568 23.0329V21.5126C30.6553 21.4924 30.649 21.4728 30.6386 21.4555C30.6282 21.4381 30.6139 21.4234 30.5968 21.4125L29.2765 20.6524C29.2597 20.6427 29.2408 20.6376 29.2214 20.6376C29.2021 20.6376 29.1832 20.6427 29.1664 20.6524L27.8461 21.4125C27.829 21.4234 27.8147 21.4381 27.8042 21.4555C27.7938 21.4728 27.7876 21.4924 27.7861 21.5126V23.0329C27.7876 23.0531 27.7938 23.0727 27.8042 23.0901C27.8147 23.1074 27.829 23.1221 27.8461 23.133L29.1664 23.8932C29.1832 23.9028 29.2021 23.9079 29.2214 23.9079C29.2408 23.9079 29.2597 23.9028 29.2765 23.8932L30.5968 23.133C30.6139 23.1221 30.6282 23.1074 30.6386 23.0901C30.649 23.0727 30.6553 23.0531 30.6568 23.0329ZM33.2874 13.0305C33.361 13.0705 33.4222 13.1299 33.4645 13.2022C33.5068 13.2744 33.5286 13.3569 33.5275 13.4406V24.4433C33.5278 24.5243 33.5067 24.604 33.4663 24.6743C33.4259 24.7445 33.3676 24.8029 33.2974 24.8434L29.4665 27.0539C29.3962 27.0984 29.3146 27.122 29.2314 27.122C29.1482 27.122 29.0667 27.0984 28.9964 27.0539L25.1654 24.8434C25.0953 24.8029 25.037 24.7445 24.9966 24.6743C24.9562 24.604 24.9351 24.5243 24.9354 24.4433V20.0622C24.9351 19.9812 24.9562 19.9015 24.9966 19.8312C25.037 19.761 25.0953 19.7026 25.1654 19.6621L28.9964 17.4516C29.0667 17.4071 29.1482 17.3836 29.2314 17.3836C29.3146 17.3836 29.3962 17.4071 29.4665 17.4516L30.4667 18.0017C30.4907 18.0168 30.5184 18.0248 30.5468 18.0248C30.5751 18.0248 30.6028 18.0168 30.6268 18.0017C30.6513 17.9875 30.6717 17.9671 30.6857 17.9425C30.6998 17.9179 30.7071 17.89 30.7068 17.8617V11.9802C30.7061 11.9402 30.716 11.9007 30.7352 11.8656C30.7545 11.8305 30.7827 11.8011 30.8168 11.7802C30.8706 11.7469 30.9352 11.7361 30.9969 11.7502L33.2874 13.0305ZM43.77 19.6021C43.8402 19.6426 43.8984 19.701 43.9388 19.7712C43.9792 19.8415 44.0003 19.9212 44.0001 20.0022V21.0725C43.9994 21.1533 43.9778 21.2326 43.9375 21.3027C43.8972 21.3728 43.8395 21.4313 43.77 21.4726L41.4794 22.8029C41.4426 22.823 41.4014 22.8336 41.3594 22.8336C41.3175 22.8336 41.2762 22.823 41.2394 22.8029C41.2045 22.7828 41.1758 22.7535 41.1564 22.7183C41.137 22.683 41.1276 22.6431 41.1294 22.6028V21.5126C41.128 21.4718 41.1163 21.432 41.0953 21.397C41.0743 21.362 41.0447 21.3329 41.0093 21.3125L39.809 20.6224C39.7738 20.6031 39.7342 20.593 39.694 20.593C39.6538 20.593 39.6143 20.6031 39.579 20.6224L38.3787 21.3125C38.3445 21.3334 38.3164 21.3629 38.2971 21.3979C38.2778 21.433 38.268 21.4725 38.2687 21.5126V22.9029C38.268 22.943 38.2778 22.9825 38.2971 23.0176C38.3164 23.0526 38.3445 23.0821 38.3787 23.103L42.2396 25.3135C42.2738 25.3344 42.3019 25.3638 42.3212 25.3989C42.3405 25.434 42.3503 25.4735 42.3497 25.5136C42.3517 25.555 42.3413 25.5962 42.32 25.6318C42.2986 25.6674 42.2672 25.6959 42.2296 25.7136L39.9291 26.9939C39.8606 27.0334 39.783 27.0542 39.704 27.0542C39.625 27.0542 39.5474 27.0334 39.479 26.9939L35.668 24.8234C35.5978 24.7829 35.5396 24.7245 35.4992 24.6543C35.4588 24.584 35.4377 24.5043 35.438 24.4233V20.0022C35.4377 19.9212 35.4588 19.8415 35.4992 19.7712C35.5396 19.701 35.5978 19.6426 35.668 19.6021L39.499 17.3916C39.5678 17.348 39.6476 17.3249 39.729 17.3249C39.8105 17.3249 39.8902 17.348 39.9591 17.3916L43.77 19.6021ZM39.669 21.2625H39.759L40.4992 21.6926C40.5053 21.7033 40.5086 21.7153 40.5086 21.7276C40.5086 21.7399 40.5053 21.752 40.4992 21.7626V22.6128C40.5054 22.6253 40.5086 22.639 40.5086 22.6529C40.5086 22.6667 40.5054 22.6804 40.4992 22.6929L39.759 23.113C39.7464 23.1235 39.7305 23.1294 39.714 23.1294C39.6975 23.1294 39.6816 23.1235 39.669 23.113L38.9388 22.6929C38.9326 22.6804 38.9294 22.6667 38.9294 22.6529C38.9294 22.639 38.9326 22.6253 38.9388 22.6128V21.7526C38.9327 21.742 38.9294 21.7299 38.9294 21.7176C38.9294 21.7053 38.9327 21.6933 38.9388 21.6826L39.669 21.2625ZM23.165 24.7534L18.9339 27.204L18.8539 27.0639H18.6939L18.5538 27.0139L17.9937 26.7539L14.7029 24.8634C14.6585 24.8356 14.6182 24.802 14.5829 24.7634C14.5563 24.7383 14.5357 24.7075 14.5228 24.6733C14.5134 24.6271 14.5134 24.5795 14.5228 24.5333V20.0122C14.5266 19.9296 14.5515 19.8494 14.5953 19.7793C14.6391 19.7092 14.7003 19.6516 14.7729 19.6121L18.5938 17.4116H18.9139C18.9601 17.4019 19.0078 17.4019 19.0539 17.4116L22.8749 19.6121C22.9124 19.6331 22.9462 19.6601 22.9749 19.6921C23.0073 19.7317 23.0342 19.7754 23.0549 19.8222C23.0654 19.875 23.0654 19.9294 23.0549 19.9822V24.3833C23.0599 24.4164 23.0599 24.4501 23.0549 24.4833L23.155 24.6633L23.165 24.7534Z" fill="black"/>
</svg>
