<svg width="48" height="48" viewBox="0 0 48 48" fill="none" xmlns="http://www.w3.org/2000/svg">
<path d="M38.2416 9.98036C38.2061 9.94067 38.1814 9.89677 38.1417 9.86008C38.102 9.8234 38.0599 9.79633 38.0214 9.76145C34.4082 6.20234 29.458 4 24.0003 4C12.9717 4 4 12.9717 4 24.0003C4 29.4496 6.19633 34.392 9.74341 38.0028C9.7831 38.0485 9.81438 38.099 9.85768 38.1423C9.90098 38.1856 9.9515 38.2163 9.9966 38.256C13.605 41.8043 18.5498 44 24.0003 44C35.0283 44 44 35.0283 44 24.0003C44 18.542 41.7977 13.593 38.2416 9.98036ZM24.0003 9.21718C27.0185 9.21661 29.9636 10.1458 32.435 11.8784L11.8784 32.4344C10.1458 29.9633 9.21654 27.0183 9.21718 24.0003C9.21718 15.8477 15.8477 9.21718 24.0003 9.21718ZM24.0003 38.7828C20.9823 38.784 18.0372 37.8554 15.5656 36.1234L36.1234 15.5656C37.8554 18.0372 38.784 20.9823 38.7828 24.0003C38.7828 32.1511 32.1511 38.7828 24.0003 38.7828Z" fill="black"/>
</svg>
