<svg width="48" height="48" viewBox="0 0 48 48" fill="none" xmlns="http://www.w3.org/2000/svg">
<path d="M27.65 16H5.39999C5.20687 15.9836 5.01245 16.0075 4.82905 16.0702C4.64565 16.1329 4.47726 16.2329 4.33454 16.3641C4.19183 16.4952 4.07789 16.6545 3.99995 16.832C3.92202 17.0094 3.88177 17.2011 3.88177 17.395C3.88177 17.5888 3.92202 17.7805 3.99995 17.9579C4.07789 18.1354 4.19183 18.2947 4.33454 18.4259C4.47726 18.557 4.64565 18.6571 4.82905 18.7197C5.01245 18.7824 5.20687 18.8063 5.39999 18.79H24.86L27.65 16Z" fill="black"/>
<path d="M42.6 16H35.54L32.75 18.79H42.6C42.7931 18.8063 42.9875 18.7824 43.1709 18.7197C43.3543 18.6571 43.5227 18.557 43.6654 18.4259C43.8082 18.2947 43.9221 18.1354 44 17.9579C44.078 17.7805 44.1182 17.5888 44.1182 17.395C44.1182 17.2011 44.078 17.0094 44 16.832C43.9221 16.6545 43.8082 16.4952 43.6654 16.3641C43.5227 16.2329 43.3543 16.1329 43.1709 16.0702C42.9875 16.0075 42.7931 15.9836 42.6 16Z" fill="black"/>
<path d="M42.6 28.34H23.14L20.35 31.13H42.6C42.7931 31.1463 42.9875 31.1224 43.1709 31.0597C43.3543 30.9971 43.5227 30.897 43.6654 30.7659C43.8082 30.6347 43.9221 30.4754 44 30.2979C44.078 30.1205 44.1182 29.9288 44.1182 29.735C44.1182 29.5411 44.078 29.3494 44 29.172C43.9221 28.9945 43.8082 28.8352 43.6654 28.7041C43.5227 28.5729 43.3543 28.4729 43.1709 28.4102C42.9875 28.3475 42.7931 28.3236 42.6 28.34Z" fill="black"/>
<path d="M15.25 28.34H5.39999C5.20687 28.3236 5.01245 28.3475 4.82905 28.4102C4.64565 28.4729 4.47726 28.5729 4.33454 28.7041C4.19183 28.8352 4.07789 28.9945 3.99995 29.172C3.92202 29.3494 3.88177 29.5411 3.88177 29.735C3.88177 29.9288 3.92202 30.1205 3.99995 30.2979C4.07789 30.4754 4.19183 30.6347 4.33454 30.7659C4.47726 30.897 4.64565 30.9971 4.82905 31.0597C5.01245 31.1224 5.20687 31.1463 5.39999 31.13H12.46L15.25 28.34Z" fill="black"/>
<path d="M9.85999 39.08C9.58427 39.08 9.31468 38.9986 9.08503 38.846C8.85538 38.6935 8.6759 38.4765 8.56909 38.2223C8.46229 37.9681 8.43292 37.688 8.48467 37.4172C8.53642 37.1464 8.66699 36.8969 8.85999 36.7L37.16 8.40996C37.2889 8.27441 37.444 8.16648 37.6159 8.09273C37.7878 8.01899 37.9729 7.98096 38.16 7.98096C38.347 7.98096 38.5322 8.01899 38.7041 8.09273C38.876 8.16648 39.0311 8.27441 39.16 8.40996C39.293 8.54031 39.3987 8.6959 39.4709 8.86761C39.543 9.03932 39.5802 9.2237 39.5802 9.40996C39.5802 9.59621 39.543 9.7806 39.4709 9.95231C39.3987 10.124 39.293 10.2796 39.16 10.41L10.84 38.67C10.5799 38.9301 10.2278 39.0773 9.85999 39.08Z" fill="black"/>
</svg>
