<svg width="48" height="48" viewBox="0 0 48 48" fill="none" xmlns="http://www.w3.org/2000/svg">
<path d="M9.56666 32.2826L14.7448 27.0944H6.7494C6.06273 27.0944 5.40419 27.3672 4.91864 27.8528C4.43309 28.3383 4.16031 28.9969 4.16031 29.6835C4.16031 30.3702 4.43309 31.0288 4.91864 31.5143C5.40419 31.9999 6.06273 32.2726 6.7494 32.2726L9.56666 32.2826Z" fill="black"/>
<path d="M41.2508 27.0944H26.9761L21.8078 32.2726H41.2508C41.9375 32.2726 42.5961 31.9999 43.0816 31.5143C43.5672 31.0288 43.8399 30.3702 43.8399 29.6835C43.8399 28.9969 43.5672 28.3383 43.0816 27.8528C42.5961 27.3672 41.9375 27.0944 41.2508 27.0944Z" fill="black"/>
<path d="M21.0241 20.7854L26.1924 15.6171H6.7494C6.39658 15.5952 6.04302 15.6459 5.71051 15.7658C5.37799 15.8858 5.07357 16.0726 4.81599 16.3147C4.55841 16.5568 4.35314 16.8491 4.21283 17.1735C4.07251 17.498 4.00012 17.8478 4.00012 18.2013C4.00012 18.5547 4.07251 18.9045 4.21283 19.229C4.35314 19.5534 4.55841 19.8457 4.81599 20.0878C5.07357 20.3299 5.37799 20.5167 5.71051 20.6367C6.04302 20.7566 6.39658 20.8073 6.7494 20.7854H21.0241Z" fill="black"/>
<path d="M41.2508 15.6171H38.4336L33.2554 20.7854H41.2508C41.6037 20.8073 41.9572 20.7566 42.2897 20.6367C42.6223 20.5167 42.9267 20.3299 43.1843 20.0878C43.4418 19.8457 43.6471 19.5534 43.7874 19.229C43.9277 18.9045 44.0001 18.5547 44.0001 18.2013C44.0001 17.8478 43.9277 17.498 43.7874 17.1735C43.6471 16.8491 43.4418 16.5568 43.1843 16.3147C42.9267 16.0726 42.6223 15.8858 42.2897 15.7658C41.9572 15.6459 41.6037 15.5952 41.2508 15.6171Z" fill="black"/>
<path d="M10.886 39.6531C10.3747 39.6528 9.87487 39.5012 9.4496 39.2173C9.02433 38.9335 8.69263 38.53 8.49635 38.0579C8.30006 37.5857 8.24797 37.066 8.34665 36.5643C8.44533 36.0626 8.69035 35.6013 9.05082 35.2387L35.289 9.00054C35.783 8.56148 36.4262 8.32797 37.0868 8.34785C37.7475 8.36774 38.3755 8.63952 38.8422 9.1075C39.3089 9.57547 39.579 10.2042 39.5971 10.8649C39.6152 11.5256 39.3799 12.1682 38.9395 12.661L12.7113 38.8892C12.4726 39.1309 12.1884 39.3228 11.8751 39.4539C11.5618 39.585 11.2256 39.6527 10.886 39.6531Z" fill="black"/>
</svg>
