<svg width="48" height="48" viewBox="0 0 48 48" fill="none" xmlns="http://www.w3.org/2000/svg">
<path d="M38.152 9.92212C38.143 9.9056 38.1328 9.88973 38.1216 9.87462C38.1083 9.86132 38.0893 9.85752 38.0741 9.84422C34.3299 6.10134 29.2523 3.99911 23.9582 4C18.664 4.00089 13.5871 6.10483 9.84422 9.84897C6.10134 13.5931 3.99911 18.6708 4 23.9649C4.00089 29.259 6.10483 34.3359 9.84897 38.0788C9.86227 38.0921 9.86607 38.1111 9.87937 38.1244C9.89267 38.1377 9.91167 38.1415 9.92497 38.1548C13.6689 41.898 18.7464 44.0005 24.0405 44C29.3346 43.9995 34.4117 41.8959 38.1548 38.152C41.898 34.4081 44.0005 29.3306 44 24.0365C43.9995 18.7423 41.8959 13.6653 38.152 9.92212ZM24.0014 6.81956C28.0758 6.81864 32.0166 8.2726 35.114 10.9196L10.9167 35.1169C8.78892 32.6203 7.4211 29.5663 6.9752 26.3165C6.52931 23.0666 7.02403 19.757 8.40078 16.7796C9.77753 13.8023 11.9786 11.2817 14.7435 9.51654C17.5084 7.75134 20.7211 6.81541 24.0014 6.81956ZM24.0014 41.1871C19.9269 41.1895 15.9854 39.7369 12.8869 37.0909L37.088 12.8898C39.2157 15.3862 40.5835 18.4401 41.0295 21.6897C41.4754 24.9394 40.9809 28.2488 39.6044 31.2261C38.2279 34.2035 36.027 36.724 33.2625 38.4893C30.4979 40.2547 27.2854 41.1909 24.0052 41.1871H24.0014Z" fill="black"/>
</svg>
