<svg width="48" height="48" viewBox="0 0 48 48" fill="none" xmlns="http://www.w3.org/2000/svg">
<path d="M32.28 44H15.72L4 32.28V15.72L15.72 4H32.28L44 15.72V32.28L32.28 44ZM16.87 41.21H31.13L41.21 31.13V16.87L31.13 6.79H16.87L6.79 16.87V31.13L16.87 41.21Z" fill="black"/>
<path d="M16.462 32.2879C16.6339 32.3516 16.817 32.3795 17 32.37C17.1831 32.3789 17.366 32.3507 17.5378 32.2871C17.7097 32.2235 17.8669 32.1259 18 32L24 26.0001L29.9999 32C30.1331 32.1259 30.2903 32.2235 30.4621 32.2871C30.634 32.3507 30.8169 32.3789 30.9999 32.37C31.183 32.3795 31.3661 32.3516 31.538 32.2879C31.7099 32.2243 31.8671 32.1264 31.9999 32C32.1355 31.8711 32.2434 31.716 32.3171 31.5441C32.3909 31.3722 32.4289 31.1871 32.4289 31C32.4289 30.813 32.3909 30.6279 32.3171 30.456C32.2434 30.2841 32.1355 30.1289 31.9999 30L26 24.0001L32 18C32.1314 17.8687 32.2355 17.7128 32.3066 17.5412C32.3777 17.3696 32.4143 17.1857 32.4143 17C32.4143 16.8143 32.3777 16.6304 32.3066 16.4588C32.2355 16.2873 32.1314 16.1313 32 16C31.8687 15.8687 31.7128 15.7645 31.5412 15.6935C31.3697 15.6224 31.1858 15.5858 31 15.5858C30.8143 15.5858 30.6304 15.6224 30.4588 15.6935C30.2873 15.7645 30.1314 15.8687 30 16L24 22.0001L17.9999 16C17.8686 15.8687 17.7127 15.7645 17.5411 15.6935C17.3695 15.6224 17.1856 15.5858 16.9999 15.5858C16.8142 15.5858 16.6303 15.6224 16.4587 15.6935C16.2871 15.7645 16.1312 15.8687 15.9999 16C15.8686 16.1313 15.7644 16.2873 15.6933 16.4588C15.6223 16.6304 15.5857 16.8143 15.5857 17C15.5857 17.1857 15.6223 17.3696 15.6933 17.5412C15.7644 17.7128 15.8686 17.8687 15.9999 18L22 24.0001L16 30C15.8645 30.1289 15.7566 30.2841 15.6828 30.456C15.6091 30.6279 15.571 30.813 15.571 31C15.571 31.1871 15.6091 31.3722 15.6828 31.5441C15.7566 31.716 15.8645 31.8711 16 32C16.1329 32.1264 16.29 32.2243 16.462 32.2879Z" fill="black"/>
</svg>
