<svg width="48" height="48" viewBox="0 0 48 48" fill="none" xmlns="http://www.w3.org/2000/svg">
<path d="M32.28 44H15.72L4 32.28V15.72L15.72 4H32.28L44 15.72V32.28L32.28 44ZM16.87 41.21H31.13L41.21 31.13V16.87L31.13 6.79H16.87L6.79 16.87V31.13L16.87 41.21Z" fill="black"/>
<path d="M21.85 31C21.5745 31.0004 21.3016 30.9457 21.0475 30.8392C20.7933 30.7328 20.563 30.5766 20.37 30.38L16 26.07C15.8687 25.9387 15.7645 25.7828 15.6934 25.6112C15.6224 25.4396 15.5858 25.2557 15.5858 25.07C15.5858 24.8843 15.6224 24.7004 15.6934 24.5288C15.7645 24.3572 15.8687 24.2013 16 24.07C16.1313 23.9387 16.2872 23.8345 16.4588 23.7634C16.6304 23.6924 16.8143 23.6558 17 23.6558C17.1857 23.6558 17.3696 23.6924 17.5412 23.7634C17.7128 23.8345 17.8687 23.9387 18 24.07L21.78 27.83L29.87 17.54C29.9829 17.3962 30.1231 17.2761 30.2825 17.1864C30.4418 17.0968 30.6173 17.0394 30.7988 17.0176C30.9804 16.9958 31.1644 17.0099 31.3405 17.0592C31.5166 17.1086 31.6812 17.1921 31.825 17.305C31.9688 17.4179 32.0889 17.5581 32.1786 17.7175C32.2682 17.8768 32.3256 18.0523 32.3474 18.2338C32.3692 18.4154 32.3551 18.5994 32.3058 18.7755C32.2564 18.9516 32.1729 19.1162 32.06 19.26L23.51 30.17C23.3318 30.4077 23.1049 30.6047 22.8445 30.7479C22.5841 30.891 22.2962 30.9769 22 31H21.85Z" fill="black"/>
</svg>
