<svg width="48" height="48" viewBox="0 0 48 48" fill="none" xmlns="http://www.w3.org/2000/svg">
<path d="M32.28 44H15.72L4 32.28V15.72L15.72 4H32.28L44 15.72V32.28L32.28 44ZM17.88 38.78H30.12L38.78 30.12V17.88L30.12 9.22H17.88L9.22 17.88V30.12L17.88 38.78Z" fill="black"/>
<path d="M30.52 21.39H26.61V17.48C26.61 16.7878 26.335 16.1239 25.8455 15.6345C25.3561 15.145 24.6922 14.87 24 14.87C23.3078 14.87 22.6439 15.145 22.1545 15.6345C21.665 16.1239 21.39 16.7878 21.39 17.48V21.39H17.48C16.7878 21.39 16.1239 21.665 15.6345 22.1545C15.145 22.6439 14.87 23.3078 14.87 24C14.87 24.6922 15.145 25.3561 15.6345 25.8455C16.1239 26.335 16.7878 26.61 17.48 26.61H21.39V30.52C21.39 31.2122 21.665 31.8761 22.1545 32.3655C22.6439 32.855 23.3078 33.13 24 33.13C24.6922 33.13 25.3561 32.855 25.8455 32.3655C26.335 31.8761 26.61 31.2122 26.61 30.52V26.61H30.52C31.2122 26.61 31.8761 26.335 32.3655 25.8455C32.855 25.3561 33.13 24.6922 33.13 24C33.13 23.3078 32.855 22.6439 32.3655 22.1545C31.8761 21.665 31.2122 21.39 30.52 21.39Z" fill="black"/>
</svg>
