<svg width="48" height="48" viewBox="0 0 48 48" fill="none" xmlns="http://www.w3.org/2000/svg">
<path d="M32.28 4H15.72L4 15.72V32.28L15.72 44H32.28L44 32.28V15.72L32.28 4ZM32.57 20.4L24.57 30.58C24.2823 30.9419 23.9217 31.2392 23.5117 31.4529C23.1017 31.6665 22.6514 31.7916 22.19 31.82H22C21.1353 31.8182 20.3058 31.4771 19.69 30.87L15.69 26.87C15.2188 26.378 14.9585 25.7213 14.965 25.04C14.9714 24.3588 15.2439 23.7071 15.7243 23.2241C16.2047 22.741 16.855 22.465 17.5361 22.4549C18.2173 22.4448 18.8755 22.7014 19.37 23.17L21.86 25.65L28.52 17.18C28.7302 16.9053 28.9928 16.6751 29.2927 16.5028C29.5926 16.3305 29.9238 16.2195 30.2669 16.1763C30.6101 16.1331 30.9584 16.1585 31.2917 16.2511C31.6249 16.3437 31.9364 16.5016 32.2081 16.7157C32.4798 16.9297 32.7062 17.1956 32.8743 17.4979C33.0423 17.8002 33.1486 18.1329 33.1869 18.4767C33.2252 18.8204 33.1948 19.1683 33.0975 19.5002C33.0002 19.8321 32.8379 20.1414 32.62 20.41L32.57 20.4Z" fill="black"/>
</svg>
