<svg width="48" height="48" viewBox="0 0 48 48" fill="none" xmlns="http://www.w3.org/2000/svg">
<path d="M32.28 4H15.72L4 15.72V32.28L15.72 44H32.28L44 32.28V15.72L32.28 4ZM32.37 28.68C32.7334 29.0456 32.9804 29.5106 33.0799 30.0163C33.1793 30.5221 33.1268 31.046 32.929 31.5219C32.7311 31.9979 32.3967 32.4046 31.968 32.6908C31.5393 32.977 31.0354 33.1298 30.52 33.13C30.1783 33.1315 29.8396 33.0651 29.5237 32.9346C29.2079 32.8042 28.9211 32.6122 28.68 32.37L24 27.69L19.32 32.37C18.8293 32.8567 18.1661 33.1298 17.475 33.1298C16.7839 33.1298 16.1207 32.8567 15.63 32.37C15.1409 31.8806 14.8661 31.2169 14.8661 30.525C14.8661 29.8331 15.1409 29.1694 15.63 28.68L20.31 24L15.63 19.32C15.1602 18.8267 14.9019 18.1693 14.9102 17.4882C14.9185 16.807 15.1928 16.1561 15.6745 15.6745C16.1561 15.1928 16.807 14.9185 17.4882 14.9102C18.1693 14.9019 18.8267 15.1602 19.32 15.63L24 20.31L28.68 15.63C29.1733 15.1602 29.8307 14.9019 30.5118 14.9102C31.193 14.9185 31.8439 15.1928 32.3255 15.6745C32.8072 16.1561 33.0815 16.807 33.0898 17.4882C33.0981 18.1693 32.8398 18.8267 32.37 19.32L27.69 24L32.37 28.68Z" fill="black"/>
</svg>
