<svg width="48" height="48" viewBox="0 0 48 48" fill="none" xmlns="http://www.w3.org/2000/svg">
<path d="M32.28 4H15.72L4 15.72V32.28L15.72 44H32.28L44 32.28V15.72L32.28 4ZM30.52 26.61H26.61V30.52C26.61 31.2122 26.335 31.8761 25.8455 32.3655C25.3561 32.855 24.6922 33.13 24 33.13C23.3078 33.13 22.6439 32.855 22.1545 32.3655C21.665 31.8761 21.39 31.2122 21.39 30.52V26.61H17.48C16.7878 26.61 16.1239 26.335 15.6345 25.8455C15.145 25.3561 14.87 24.6922 14.87 24C14.87 23.3078 15.145 22.6439 15.6345 22.1545C16.1239 21.665 16.7878 21.39 17.48 21.39H21.39V17.48C21.39 16.7878 21.665 16.1239 22.1545 15.6345C22.6439 15.145 23.3078 14.87 24 14.87C24.6922 14.87 25.3561 15.145 25.8455 15.6345C26.335 16.1239 26.61 16.7878 26.61 17.48V21.39H30.52C31.2122 21.39 31.8761 21.665 32.3655 22.1545C32.855 22.6439 33.13 23.3078 33.13 24C33.13 24.6922 32.855 25.3561 32.3655 25.8455C31.8761 26.335 31.2122 26.61 30.52 26.61Z" fill="black"/>
</svg>
