<svg width="48" height="48" viewBox="0 0 48 48" fill="none" xmlns="http://www.w3.org/2000/svg">
<path d="M32.28 44H15.72L4 32.28V15.72L15.72 4H32.28L44 15.72V32.28L32.28 44ZM16.87 41.21H31.13L41.21 31.13V16.87L31.13 6.79H16.87L6.79 16.87V31.13L16.87 41.21Z" fill="black"/>
<path d="M31 25.4H17C16.6287 25.4 16.2726 25.2525 16.0101 24.99C15.7475 24.7274 15.6 24.3713 15.6 24C15.6 23.6287 15.7475 23.2726 16.0101 23.01C16.2726 22.7475 16.6287 22.6 17 22.6H31C31.3713 22.6 31.7274 22.7475 31.99 23.01C32.2525 23.2726 32.4 23.6287 32.4 24C32.4 24.3713 32.2525 24.7274 31.99 24.99C31.7274 25.2525 31.3713 25.4 31 25.4Z" fill="black"/>
</svg>
