<svg width="48" height="48" viewBox="0 0 48 48" fill="none" xmlns="http://www.w3.org/2000/svg">
<path d="M32.28 44H15.72L4 32.28V15.72L15.72 4H32.28L44 15.72V32.28L32.28 44ZM17.88 38.78H30.12L38.78 30.12V17.88L30.12 9.22H17.88L9.22 17.88V30.12L17.88 38.78Z" fill="black"/>
<path d="M22 31.83C21.1353 31.8282 20.3058 31.4871 19.69 30.88L15.69 26.88C15.2188 26.388 14.9585 25.7313 14.965 25.05C14.9714 24.3688 15.2439 23.7171 15.7243 23.2341C16.2047 22.751 16.855 22.475 17.5361 22.4649C18.2173 22.4548 18.8755 22.7114 19.37 23.18L21.86 25.66L28.52 17.19C28.7302 16.9153 28.9928 16.6851 29.2927 16.5128C29.5926 16.3405 29.9238 16.2295 30.2669 16.1863C30.6101 16.1431 30.9584 16.1685 31.2917 16.2611C31.6249 16.3537 31.9364 16.5116 32.2081 16.7257C32.4798 16.9397 32.7062 17.2056 32.8743 17.5079C33.0423 17.8102 33.1486 18.1429 33.1869 18.4867C33.2252 18.8304 33.1948 19.1783 33.0975 19.5102C33.0002 19.8421 32.8379 20.1514 32.62 20.42L24.62 30.6C24.3323 30.9619 23.9717 31.2592 23.5617 31.4729C23.1517 31.6865 22.7014 31.8116 22.24 31.84L22 31.83Z" fill="black"/>
</svg>
