<svg width="48" height="48" viewBox="0 0 48 48" fill="none" xmlns="http://www.w3.org/2000/svg">
<path d="M32.28 44H15.72L4 32.28V15.72L15.72 4H32.28L44 15.72V32.28L32.28 44ZM16.87 41.21H31.13L41.21 31.13V16.87L31.13 6.79H16.87L6.79 16.87V31.13L16.87 41.21Z" fill="black"/>
<path d="M25.44 26.33L25.52 16.21H22.48L22.56 26.33H25.44Z" fill="black"/>
<path d="M24 28.57C23.6816 28.57 23.3703 28.6644 23.1055 28.8413C22.8408 29.0182 22.6344 29.2697 22.5126 29.5639C22.3907 29.8581 22.3588 30.1818 22.4209 30.4941C22.4831 30.8064 22.6364 31.0933 22.8616 31.3184C23.0867 31.5436 23.3736 31.6969 23.6859 31.7591C23.9982 31.8212 24.3219 31.7893 24.6161 31.6674C24.9103 31.5456 25.1618 31.3392 25.3387 31.0745C25.5156 30.8097 25.61 30.4984 25.61 30.18C25.61 29.753 25.4404 29.3435 25.1384 29.0416C24.8365 28.7396 24.427 28.57 24 28.57Z" fill="black"/>
</svg>
