<svg width="48" height="48" viewBox="0 0 48 48" fill="none" xmlns="http://www.w3.org/2000/svg">
<path d="M32.28 44H15.72L4 32.28V15.72L15.72 4H32.28L44 15.72V32.28L32.28 44ZM17.88 38.78H30.12L38.78 30.12V17.88L30.12 9.22H17.88L9.22 17.88V30.12L17.88 38.78Z" fill="black"/>
<path d="M27.69 24L32.37 19.32C32.8398 18.8267 33.0981 18.1693 33.0898 17.4882C33.0815 16.807 32.8072 16.1561 32.3256 15.6745C31.8439 15.1928 31.193 14.9185 30.5118 14.9102C29.8307 14.9019 29.1733 15.1602 28.68 15.63L24 20.31L19.32 15.63C18.8267 15.1602 18.1693 14.9019 17.4882 14.9102C16.807 14.9185 16.1561 15.1928 15.6745 15.6745C15.1928 16.1561 14.9185 16.807 14.9102 17.4882C14.9019 18.1693 15.1602 18.8267 15.63 19.32L20.31 24L15.63 28.68C15.2666 29.0456 15.0196 29.5106 14.9201 30.0163C14.8207 30.5221 14.8732 31.046 15.071 31.5219C15.2689 31.9979 15.6033 32.4046 16.032 32.6908C16.4607 32.977 16.9646 33.1298 17.48 33.13C17.8217 33.1315 18.1604 33.0651 18.4763 32.9346C18.7921 32.8042 19.0789 32.6122 19.32 32.37L24 27.69L28.68 32.37C29.1707 32.8567 29.8339 33.1298 30.525 33.1298C31.2161 33.1298 31.8793 32.8567 32.37 32.37C32.8591 31.8806 33.1339 31.2169 33.1339 30.525C33.1339 29.8331 32.8591 29.1694 32.37 28.68L27.69 24Z" fill="black"/>
</svg>
