<svg width="48" height="48" viewBox="0 0 48 48" fill="none" xmlns="http://www.w3.org/2000/svg">
<path d="M32.28 4H15.72L4 15.72V32.28L15.72 44H32.28L44 32.28V15.72L32.28 4ZM26.74 15L26.64 27.07H21.36L21.26 15H26.74ZM24 33C23.4442 33 22.901 32.8352 22.4388 32.5264C21.9767 32.2177 21.6166 31.7788 21.4039 31.2653C21.1912 30.7519 21.1356 30.1869 21.244 29.6418C21.3524 29.0967 21.62 28.596 22.013 28.203C22.406 27.81 22.9067 27.5424 23.4518 27.434C23.9969 27.3256 24.5619 27.3812 25.0753 27.5939C25.5888 27.8066 26.0277 28.1667 26.3364 28.6288C26.6452 29.091 26.81 29.6342 26.81 30.19C26.81 30.9353 26.5139 31.65 25.987 32.177C25.46 32.7039 24.7453 33 24 33Z" fill="black"/>
</svg>
