<svg width="48" height="48" viewBox="0 0 48 48" fill="none" xmlns="http://www.w3.org/2000/svg">
<path d="M32.28 44H15.72L4 32.28V15.72L15.72 4H32.28L44 15.72V32.28L32.28 44ZM17.88 38.78H30.12L38.78 30.12V17.88L30.12 9.22H17.88L9.22 17.88V30.12L17.88 38.78Z" fill="black"/>
<path d="M26.64 27.05L26.74 14.98H21.26L21.36 27.05H26.64Z" fill="black"/>
<path d="M24 27.4C23.4442 27.4 22.901 27.5648 22.4388 27.8736C21.9767 28.1823 21.6166 28.6212 21.4039 29.1347C21.1912 29.6481 21.1356 30.2131 21.244 30.7582C21.3524 31.3033 21.62 31.804 22.013 32.197C22.406 32.59 22.9067 32.8576 23.4518 32.966C23.9969 33.0744 24.5619 33.0188 25.0753 32.8061C25.5888 32.5934 26.0277 32.2333 26.3364 31.7712C26.6452 31.309 26.81 30.7658 26.81 30.21C26.81 29.4647 26.5139 28.75 25.987 28.223C25.46 27.6961 24.7453 27.4 24 27.4Z" fill="black"/>
</svg>
