<svg width="48" height="48" viewBox="0 0 48 48" fill="none" xmlns="http://www.w3.org/2000/svg">
<path d="M32.28 44H15.72L4 32.28V15.72L15.72 4H32.28L44 15.72V32.28L32.28 44ZM17.88 38.78H30.12L38.78 30.12V17.88L30.12 9.22H17.88L9.22 17.88V30.12L17.88 38.78Z" fill="black"/>
<path d="M30.52 26.61H17.52C16.8278 26.61 16.1639 26.335 15.6745 25.8455C15.185 25.3561 14.91 24.6922 14.91 24C14.91 23.3078 15.185 22.6439 15.6745 22.1545C16.1639 21.665 16.8278 21.39 17.52 21.39H30.52C31.2122 21.39 31.8761 21.665 32.3655 22.1545C32.855 22.6439 33.13 23.3078 33.13 24C33.13 24.6922 32.855 25.3561 32.3655 25.8455C31.8761 26.335 31.2122 26.61 30.52 26.61Z" fill="black"/>
</svg>
