<svg width="48" height="48" viewBox="0 0 48 48" fill="none" xmlns="http://www.w3.org/2000/svg">
<path d="M13.3687 30.6673C12.4798 30.6565 11.6054 30.4405 10.8137 30.036C10.0221 29.6315 9.33457 29.0496 8.80492 28.3356C7.87413 27.1513 7.37186 25.6866 7.37998 24.1803V23.8316C7.37674 22.3335 7.88271 20.8789 8.81489 19.7062C9.49939 18.7669 10.4578 18.0625 11.5586 17.6896C12.6594 17.3167 13.8486 17.2937 14.9631 17.6236C13.887 17.0355 12.6818 16.7239 11.4555 16.7168C9.52364 16.6719 7.65304 17.3962 6.25523 18.7305C4.85742 20.0648 4.0469 21.8997 4.00197 23.8316C3.95704 25.7634 4.68139 27.634 6.01567 29.0318C7.34994 30.4297 9.18484 31.2402 11.1167 31.2851H11.4655C12.6991 31.2864 13.9129 30.9744 14.993 30.3783C14.4695 30.557 13.9217 30.6544 13.3687 30.6673Z" fill="black"/>
<path d="M16.2884 18.5702C15.421 18.0027 14.4052 17.7045 13.3687 17.7133C12.3839 17.7111 11.4191 17.9912 10.5886 18.5204C10.8842 18.4217 11.1937 18.3712 11.5053 18.3709C13.7872 18.3709 15.6407 20.9119 15.6407 24.0408C15.6407 27.1697 13.7872 29.6708 11.5053 29.6708C11.1914 29.6684 10.8794 29.6214 10.5786 29.5313C11.4358 30.0737 12.4326 30.3541 13.4469 30.3381C14.4611 30.3222 15.4486 30.0106 16.2884 29.4417C17.053 28.7575 17.6646 27.9197 18.0834 26.9831C18.5022 26.0464 18.7186 25.0319 18.7186 24.0059C18.7186 22.9799 18.5022 21.9655 18.0834 21.0288C17.6646 20.0922 17.053 19.2544 16.2884 18.5702Z" fill="black"/>
<path d="M30.0495 27.0302C29.5869 27.0044 29.153 26.7976 28.8416 26.4546C28.5303 26.1115 28.3664 25.6596 28.3854 25.1967C28.3598 24.9629 28.3837 24.7263 28.4557 24.5023C28.5276 24.2784 28.646 24.0721 28.803 23.8969C28.96 23.7218 29.1521 23.5817 29.3669 23.4858C29.5817 23.3898 29.8143 23.3403 30.0495 23.3403C30.2847 23.3403 30.5173 23.3898 30.7321 23.4858C30.9469 23.5817 31.1391 23.7218 31.2961 23.8969C31.4531 24.0721 31.5714 24.2784 31.6434 24.5023C31.7153 24.7263 31.7392 24.9629 31.7136 25.1967C31.7327 25.6596 31.5688 26.1115 31.2574 26.4546C30.946 26.7976 30.5121 27.0044 30.0495 27.0302ZM30.0495 22.855C29.7333 22.8565 29.422 22.9332 29.1414 23.0787C28.8607 23.2242 28.6186 23.4345 28.4352 23.6921V22.9646H27.9171V28.8637H28.4352V26.7512C28.6199 26.9942 28.8579 27.1916 29.1308 27.328C29.4038 27.4645 29.7045 27.5365 30.0097 27.5384C30.607 27.5125 31.1701 27.2521 31.5768 26.8137C31.9834 26.3754 32.2009 25.7944 32.1819 25.1967C32.2038 24.605 31.9927 24.0282 31.5939 23.5904C31.1952 23.1526 30.6407 22.8885 30.0495 22.855Z" fill="black"/>
<path d="M24.29 27.1697C23.5728 27.1489 22.8932 26.8445 22.4 26.3234C21.9069 25.8022 21.6405 25.1068 21.6593 24.3896C21.6372 24.0312 21.6887 23.672 21.8107 23.3343C21.9327 22.9965 22.1225 22.6873 22.3685 22.4257C22.6144 22.1641 22.9114 21.9556 23.241 21.8131C23.5706 21.6706 23.9259 21.5971 24.285 21.5971C24.6441 21.5971 24.9994 21.6706 25.329 21.8131C25.6586 21.9556 25.9555 22.1641 26.2015 22.4257C26.4475 22.6873 26.6373 22.9965 26.7593 23.3343C26.8812 23.672 26.9327 24.0312 26.9107 24.3896C26.9295 25.1051 26.6644 25.7991 26.1735 26.3199C25.6825 26.8408 25.0054 27.1463 24.29 27.1697ZM24.29 21.1311C23.4451 21.1521 22.6428 21.5065 22.0584 22.117C21.474 22.7276 21.155 23.5446 21.171 24.3896C21.1471 24.8133 21.2098 25.2375 21.3555 25.6362C21.5011 26.0348 21.7266 26.3995 22.0181 26.708C22.3096 27.0165 22.661 27.2622 23.0508 27.4302C23.4406 27.5981 23.8606 27.6847 24.285 27.6847C24.7094 27.6847 25.1294 27.5981 25.5191 27.4302C25.9089 27.2622 26.2603 27.0165 26.5518 26.708C26.8434 26.3995 27.0688 26.0348 27.2145 25.6362C27.3601 25.2375 27.4229 24.8133 27.3989 24.3896C27.4177 23.5455 27.1009 22.7285 26.5181 22.1176C25.9352 21.5068 25.134 21.152 24.29 21.1311Z" fill="black"/>
<path d="M39.3764 22.875C39.2026 22.8791 39.032 22.9234 38.8782 23.0045C38.5602 23.1765 38.3132 23.4553 38.1807 23.7917V22.9945H37.6625V27.4288H38.1807V25.0871C38.1747 24.7968 38.229 24.5084 38.3401 24.2401C38.4345 24.0019 38.5849 23.79 38.7785 23.6223C38.8875 23.526 39.0162 23.4546 39.1556 23.4133C39.295 23.372 39.4418 23.3617 39.5857 23.3832H39.7351C39.7351 23.2337 39.8348 23.0444 39.8647 22.8949C39.7121 22.8543 39.5541 22.8375 39.3963 22.8451" fill="black"/>
<path d="M34.8226 23.3732C35.245 23.3649 35.6541 23.5216 35.9629 23.8099C36.2717 24.0983 36.456 24.4957 36.4767 24.9177H33.1784C33.2212 24.5057 33.4109 24.1228 33.7128 23.8392C34.0147 23.5556 34.4087 23.3901 34.8226 23.3732ZM34.8226 22.865C34.2261 22.8884 33.663 23.1466 33.2561 23.5834C32.8492 24.0201 32.6314 24.6001 32.6503 25.1967C32.6287 25.7951 32.8453 26.3776 33.2525 26.8165C33.6597 27.2555 34.2243 27.5151 34.8226 27.5384C35.2472 27.5391 35.6627 27.4147 36.0171 27.1808C36.3715 26.9469 36.6492 26.6138 36.8155 26.2231L36.3771 25.964C36.2587 26.2718 36.0515 26.5375 35.7818 26.7273C35.5121 26.9171 35.1921 27.0226 34.8624 27.0302C34.4274 27.0107 34.0153 26.8292 33.7073 26.5212C33.3994 26.2132 33.2178 25.8012 33.1983 25.3661H37.0248V25.1967C37.0498 24.8977 37.012 24.5967 36.9138 24.3131C36.8157 24.0295 36.6593 23.7696 36.4547 23.55C36.2502 23.3305 36.002 23.1561 35.726 23.0381C35.4501 22.9201 35.1525 22.8612 34.8525 22.865" fill="black"/>
<path d="M41.9074 27.0302C41.4448 27.0044 41.0109 26.7976 40.6996 26.4546C40.3882 26.1115 40.2243 25.6596 40.2433 25.1967C40.2177 24.9629 40.2416 24.7263 40.3136 24.5023C40.3855 24.2784 40.5039 24.0721 40.6609 23.8969C40.8179 23.7218 41.01 23.5817 41.2248 23.4858C41.4396 23.3898 41.6722 23.3403 41.9074 23.3403C42.1427 23.3403 42.3752 23.3898 42.59 23.4858C42.8048 23.5817 42.997 23.7218 43.154 23.8969C43.311 24.0721 43.4293 24.2784 43.5013 24.5023C43.5732 24.7263 43.5971 24.9629 43.5715 25.1967C43.5906 25.6596 43.4267 26.1115 43.1153 26.4546C42.8039 26.7976 42.37 27.0044 41.9074 27.0302ZM43.4818 22.9646V23.6921C43.2972 23.4491 43.0592 23.2517 42.7863 23.1152C42.5133 22.9787 42.2126 22.9068 41.9074 22.9049C41.3091 22.9282 40.7445 23.1878 40.3373 23.6268C39.9301 24.0657 39.7136 24.6482 39.7351 25.2465C39.7162 25.8442 39.9337 26.4252 40.3403 26.8636C40.747 27.3019 41.3101 27.5623 41.9074 27.5882C42.2126 27.5863 42.5133 27.5144 42.7863 27.3779C43.0592 27.2414 43.2972 27.044 43.4818 26.801V27.4687H44V22.9646H43.4818Z" fill="black"/>
</svg>
