<svg width="48" height="48" viewBox="0 0 48 48" fill="none" xmlns="http://www.w3.org/2000/svg">
<path d="M29.4845 41.9373C27.0752 41.9095 24.7051 41.325 22.559 40.2297C20.413 39.1344 18.5492 37.5579 17.1131 35.6232C14.6182 32.4465 13.2582 28.5262 13.2495 24.487V23.4988C13.2661 19.4576 14.6329 15.5379 17.1329 12.3626C18.5679 10.4331 20.4292 8.86114 22.5717 7.76932C24.7142 6.6775 27.08 6.09534 29.4845 6.06824C30.9477 6.06802 32.4028 6.28446 33.8026 6.71052C30.8974 5.09669 27.6301 4.24671 24.3067 4.2402H24.2375C18.9962 4.11572 13.92 6.07846 10.1258 9.69664C6.33157 13.3148 4.13006 18.2921 4.00558 23.5334C3.8811 28.7748 5.84384 33.8509 9.46202 37.6451C13.0802 41.4394 18.0574 43.6409 23.2988 43.7654H24.2375C27.587 43.7666 30.8817 42.9166 33.8125 41.295C32.4093 41.7209 30.9509 41.9374 29.4845 41.9373Z" fill="black"/>
<path d="M37.4093 9.26978C35.1312 7.73209 32.4543 6.89167 29.7061 6.85131C26.9579 6.81095 24.2575 7.57239 21.9352 9.04251C22.7468 8.78395 23.5932 8.65066 24.445 8.64725C30.6208 8.64725 35.6504 15.5642 35.6504 24.0028C35.6504 32.4414 30.6208 39.3583 24.445 39.3583C23.5941 39.3535 22.7484 39.2237 21.9352 38.9729C24.2593 40.4392 26.9598 41.1975 29.7075 41.1554C32.4552 41.1133 35.1312 40.2726 37.4093 38.7358C39.4827 36.8821 41.1415 34.6116 42.2772 32.0728C43.4129 29.534 44 26.784 44 24.0028C44 21.2215 43.4129 18.4716 42.2772 15.9328C41.1415 13.394 39.4827 11.1235 37.4093 9.26978Z" fill="black"/>
</svg>
