<svg width="48" height="48" viewBox="0 0 48 48" fill="none" xmlns="http://www.w3.org/2000/svg">
<path d="M41.05 7.66998C40.6619 7.3335 40.187 7.11289 39.6796 7.03332C39.1721 6.95375 38.6525 7.01843 38.18 7.21998L7.67002 20.14C7.19526 20.3418 6.78684 20.6731 6.49144 21.0961C6.19604 21.519 6.02556 22.0165 5.99949 22.5318C5.97341 23.047 6.09279 23.5592 6.34399 24.0098C6.59518 24.4604 6.96806 24.8312 7.42002 25.08L11.24 27.18C11.6469 27.4114 12.1069 27.5331 12.575 27.5331C13.0431 27.5331 13.5032 27.4114 13.91 27.18L23.12 22L17.76 27.25L17.69 27.33C17.4815 27.5154 17.3181 27.746 17.2124 28.0043C17.1066 28.2625 17.0614 28.5416 17.08 28.82C17.0747 28.8732 17.0747 28.9268 17.08 28.98V37.4C17.0789 37.9735 17.2579 38.5329 17.5915 38.9994C17.9252 39.4658 18.3969 39.8158 18.94 40C19.2236 40.0951 19.521 40.1424 19.82 40.14C20.2412 40.1412 20.657 40.0453 21.035 39.8597C21.4131 39.6741 21.7433 39.4039 22 39.07L25.53 34.42L31.35 37.62C31.7172 37.8264 32.127 37.9454 32.5476 37.9677C32.9682 37.99 33.3882 37.9151 33.7752 37.7487C34.1621 37.5823 34.5055 37.329 34.7786 37.0084C35.0517 36.6877 35.2473 36.3084 35.35 35.9L41.91 10.44C42.039 9.94399 42.0269 9.42183 41.8749 8.93239C41.7229 8.44294 41.4372 8.0057 41.05 7.66998Z" fill="black"/>
</svg>
