<svg width="48" height="48" viewBox="0 0 48 48" fill="none" xmlns="http://www.w3.org/2000/svg">
<path d="M19.7327 40.5307C19.4869 40.5397 19.2412 40.5128 19.0032 40.4508C18.5344 40.2945 18.1271 39.9937 17.8399 39.5916C17.5526 39.1894 17.4002 38.7066 17.4044 38.2125V29.419C17.3826 29.1418 17.4416 28.8641 17.5743 28.6196C17.6526 28.4689 17.7615 28.3361 17.8941 28.2299L17.974 28.15L23.0402 23.1537L15.4659 28.2199C15.1055 28.4617 14.6857 28.5998 14.2522 28.6192C13.8187 28.6386 13.3882 28.5385 13.0077 28.3299L7.22204 25.1322C6.83397 24.9201 6.51368 24.6028 6.29805 24.2167C6.08242 23.8305 5.9802 23.3914 6.00317 22.9497C6.02614 22.5081 6.17336 22.0819 6.42789 21.7202C6.68242 21.3585 7.0339 21.0761 7.44188 20.9054L38.7085 7.66531C39.1177 7.48584 39.5695 7.42682 40.0111 7.49518C40.4526 7.56355 40.8655 7.75646 41.2012 8.05128C41.5369 8.34609 41.7816 8.73056 41.9064 9.15956C42.0313 9.58856 42.0312 10.0443 41.9061 10.4732L35.1811 36.5137C35.0914 36.8616 34.9234 37.1843 34.69 37.4574C34.4566 37.7304 34.1638 37.9465 33.8342 38.0892C33.5045 38.2318 33.1466 38.2973 32.7878 38.2806C32.4289 38.2638 32.0787 38.1653 31.7637 37.9926L25.4484 34.5152L21.5913 39.6014C21.3741 39.8891 21.0933 40.1227 20.7709 40.2839C20.4485 40.4451 20.0932 40.5296 19.7327 40.5307ZM20.1324 31.5874V36.9434L23.0002 33.1662L20.1324 31.5874ZM25.7482 31.5275L32.633 35.3146L38.9883 10.5432L9.31048 23.1237L14.1269 25.7818L32.2533 13.5809C32.5792 13.3433 32.9836 13.2394 33.3836 13.2905C33.7836 13.3417 34.1489 13.5439 34.4045 13.8558C34.6601 14.1677 34.7867 14.5655 34.7583 14.9678C34.73 15.37 34.5487 15.7462 34.2518 16.0191L21.0017 28.9294L25.6882 31.5075L25.7482 31.5275Z" fill="black"/>
</svg>
