<svg width="48" height="48" viewBox="0 0 48 48" fill="none" xmlns="http://www.w3.org/2000/svg">
<path d="M18.5185 42C16.6896 41.9994 14.9019 41.4567 13.3813 40.4407C11.8607 39.4246 10.6753 37.9806 9.97482 36.2912C9.27438 34.6018 9.09033 32.7427 9.44592 30.9487C9.80151 29.1548 10.6808 27.5064 11.9727 26.2119L24.3626 13.8221C25.531 12.655 27.1152 11.9998 28.7667 12.0007C30.4182 12.0017 32.0017 12.6586 33.1688 13.8271C34.3359 14.9955 34.991 16.5797 34.9901 18.2312C34.9892 19.8827 34.3322 21.4662 33.1638 22.6333L23.3802 32.4069C23.1655 32.6419 22.9054 32.831 22.6156 32.9627C22.3258 33.0944 22.0124 33.1661 21.6941 33.1733C21.3759 33.1805 21.0595 33.1231 20.764 33.0046C20.4686 32.8861 20.2002 32.709 19.9751 32.4839C19.75 32.2588 19.5729 31.9905 19.4544 31.695C19.3359 31.3995 19.2785 31.0831 19.2857 30.7649C19.2929 30.4467 19.3646 30.1332 19.4963 29.8434C19.628 29.5536 19.8171 29.2935 20.0522 29.0788L29.8357 19.3053C30.0915 19.015 30.2273 18.6384 30.2155 18.2517C30.2038 17.865 30.0454 17.4973 29.7725 17.2231C29.4996 16.9489 29.1326 16.7888 28.7459 16.7752C28.3593 16.7617 27.982 16.8957 27.6906 17.1501L15.3007 29.54C14.8775 29.9619 14.5415 30.463 14.312 31.0147C14.0824 31.5665 13.9638 32.158 13.9629 32.7556C13.9619 33.3532 14.0787 33.9452 14.3065 34.4976C14.5344 35.0501 14.8688 35.5522 15.2907 35.9755C15.7126 36.3987 16.2137 36.7347 16.7655 36.9642C17.3172 37.1938 17.9088 37.3124 18.5064 37.3133C19.104 37.3142 19.6959 37.1975 20.2483 36.9696C20.8008 36.7418 21.303 36.4074 21.7262 35.9855L34.2965 23.4052C35.7016 22.0001 36.4909 20.0944 36.4909 18.1074C36.4909 16.1203 35.7016 14.2147 34.2965 12.8096C32.8914 11.4046 30.9858 10.6152 28.9987 10.6152C27.0117 10.6152 25.106 11.4046 23.701 12.8096L10.7898 25.7107C10.3391 26.1003 9.75746 26.3047 9.16207 26.2826C8.56669 26.2605 8.00178 26.0137 7.58113 25.5917C7.16048 25.1698 6.91532 24.6042 6.89504 24.0087C6.87476 23.4133 7.08086 22.8323 7.47184 22.3827L20.3729 9.4816C22.6689 7.23407 25.7589 5.98304 28.9718 6.00017C32.1847 6.01731 35.2611 7.30123 37.533 9.57312C39.8049 11.845 41.0888 14.9214 41.1059 18.1343C41.1231 21.3472 39.8721 24.4372 37.6245 26.7332L25.0642 39.2935C24.2051 40.1533 23.1845 40.835 22.0612 41.2995C20.9379 41.7639 19.734 42.002 18.5185 42Z" fill="black"/>
</svg>
