<svg width="48" height="48" viewBox="0 0 48 48" fill="none" xmlns="http://www.w3.org/2000/svg">
<path d="M12.41 42C11.3386 42.0018 10.2909 41.6855 9.39956 41.0911C8.50821 40.4968 7.81339 39.6512 7.40317 38.6615C6.99295 37.6719 6.8858 36.5827 7.0953 35.532C7.3048 34.4814 7.82152 33.5166 8.57996 32.76L28 13.31C28.6966 12.6495 29.62 12.2814 30.58 12.2814C31.5399 12.2814 32.4633 12.6495 33.16 13.31C33.8415 13.9957 34.224 14.9232 34.224 15.89C34.224 16.8567 33.8415 17.7842 33.16 18.47L19.83 31.83C19.6986 31.9613 19.5427 32.0655 19.3712 32.1365C19.1996 32.2076 19.0157 32.2442 18.83 32.2442C18.6442 32.2442 18.4603 32.2076 18.2888 32.1365C18.1172 32.0655 17.9613 31.9613 17.83 31.83C17.6986 31.6986 17.5945 31.5427 17.5234 31.3712C17.4523 31.1996 17.4158 31.0157 17.4158 30.83C17.4158 30.6442 17.4523 30.4603 17.5234 30.2888C17.5945 30.1172 17.6986 29.9613 17.83 29.83L31.23 16.51C31.3936 16.3451 31.4855 16.1223 31.4855 15.89C31.4855 15.6577 31.3936 15.4348 31.23 15.27C31.0627 15.111 30.8407 15.0223 30.61 15.0223C30.3792 15.0223 30.1572 15.111 29.99 15.27L10.54 34.72C10.044 35.2159 9.76539 35.8886 9.76539 36.59C9.76539 37.2914 10.044 37.964 10.54 38.46C11.0359 38.9559 11.7086 39.2345 12.41 39.2345C13.1114 39.2345 13.784 38.9559 14.28 38.46L36.52 16.21C36.9251 15.8059 37.2466 15.3258 37.4659 14.7973C37.6852 14.2688 37.7981 13.7022 37.7981 13.13C37.7981 12.5577 37.6852 11.9911 37.4659 11.4626C37.2466 10.9341 36.9251 10.4541 36.52 10.05C35.7008 9.23352 34.5915 8.77507 33.435 8.77507C32.2784 8.77507 31.1691 9.23352 30.35 10.05L10.69 29.72C10.5586 29.8513 10.4027 29.9555 10.2312 30.0265C10.0596 30.0976 9.87568 30.1342 9.68997 30.1342C9.50425 30.1342 9.32035 30.0976 9.14877 30.0265C8.97719 29.9555 8.82129 29.8513 8.68996 29.72C8.55864 29.5886 8.45447 29.4327 8.3834 29.2612C8.31233 29.0896 8.27575 28.9057 8.27575 28.72C8.27575 28.5342 8.31233 28.3503 8.3834 28.1788C8.45447 28.0072 8.55864 27.8513 8.68997 27.72L28.4 8.08997C29.3947 7.09585 30.6612 6.4181 32.0401 6.14197C33.4191 5.86584 34.8489 6.00366 36.1497 6.53809C37.4505 7.07252 38.5642 7.9797 39.3507 9.14551C40.1372 10.3113 40.5614 11.6837 40.57 13.09C40.5681 14.02 40.3825 14.9404 40.0238 15.7985C39.6651 16.6565 39.1405 17.4353 38.48 18.09L16.24 40.42C15.2217 41.4312 13.8451 41.9991 12.41 42Z" fill="black"/>
</svg>
