<svg width="48" height="48" viewBox="0 0 48 48" fill="none" xmlns="http://www.w3.org/2000/svg">
<path d="M22 44H17.86C17.3667 44 16.8936 43.804 16.5448 43.4552C16.196 43.1064 16 42.6333 16 42.14V5.86C16 5.3667 16.196 4.8936 16.5448 4.54478C16.8936 4.19596 17.3667 4 17.86 4H22C22.4873 4.01042 22.9512 4.21066 23.293 4.55808C23.6348 4.90549 23.8275 5.37263 23.83 5.86V42.14C23.8275 42.6274 23.6348 43.0945 23.293 43.4419C22.9512 43.7893 22.4873 43.9896 22 44ZM18.79 41.21H21V6.79H18.79V41.21Z" fill="black"/>
<path d="M30.72 44H26.62C26.1267 44 25.6536 43.804 25.3048 43.4552C24.956 43.1064 24.76 42.6333 24.76 42.14V5.86C24.76 5.3667 24.956 4.8936 25.3048 4.54478C25.6536 4.19596 26.1267 4 26.62 4H30.72C31.2133 4 31.6864 4.19596 32.0352 4.54478C32.384 4.8936 32.58 5.3667 32.58 5.86V42.14C32.58 42.6333 32.384 43.1064 32.0352 43.4552C31.6864 43.804 31.2133 44 30.72 44ZM27.55 41.21H29.79V6.79H27.55V41.21Z" fill="black"/>
</svg>
