<svg width="48" height="48" viewBox="0 0 48 48" fill="none" xmlns="http://www.w3.org/2000/svg">
<path d="M17.2 42C15.8376 41.9916 14.5057 41.5957 13.3599 40.8586C12.2141 40.1215 11.3017 39.0737 10.7292 37.8374C10.1567 36.6011 9.94768 35.2275 10.1267 33.8769C10.3057 32.5263 10.8652 31.2545 11.74 30.21L14.08 27.42C14.4013 27.043 14.655 26.6134 14.83 26.15L15.67 23.94C16.2693 22.3361 17.3462 20.9546 18.7552 19.9819C20.1643 19.0091 21.8378 18.4919 23.55 18.5C25.2639 18.4899 26.9396 19.0061 28.3506 19.979C29.7617 20.9519 30.84 22.3345 31.44 23.94L32.28 26.15C32.4453 26.6115 32.6889 27.0411 33 27.42L35.35 30.21C36.2886 31.3266 36.8643 32.7029 37.0002 34.1552C37.1362 35.6076 36.826 37.0668 36.1109 38.3382C35.3959 39.6096 34.3101 40.6327 32.9984 41.2709C31.6868 41.9091 30.2117 42.132 28.77 41.91L24.21 41.21C23.7627 41.1401 23.3073 41.1401 22.86 41.21L18.3 41.91C17.9362 41.9683 17.5684 41.9984 17.2 42ZM18.26 24.92L17.42 27.13C17.1321 27.8835 16.7197 28.5832 16.2 29.2L13.86 32C13.2901 32.6841 12.9406 33.5247 12.8576 34.4112C12.7745 35.2976 12.9617 36.1885 13.3946 36.9666C13.8274 37.7446 14.4857 38.3735 15.2827 38.7703C16.0797 39.1672 16.9782 39.3135 17.86 39.19L22.42 38.48C23.1458 38.37 23.8841 38.37 24.61 38.48L29.17 39.19C30.0517 39.3135 30.9502 39.1672 31.7473 38.7703C32.5443 38.3735 33.2025 37.7446 33.6354 36.9666C34.0683 36.1885 34.2555 35.2976 34.1724 34.4112C34.0893 33.5247 33.7399 32.6841 33.17 32L30.9 29.2C30.3833 28.5828 29.9743 27.883 29.69 27.13L28.85 24.92C28.4528 23.838 27.7297 22.9059 26.7804 22.2522C25.8312 21.5984 24.7025 21.2553 23.55 21.27C22.3988 21.2559 21.2717 21.5994 20.3242 22.2532C19.3766 22.907 18.6554 23.8388 18.26 24.92Z" fill="black"/>
<path d="M34.38 26C34.0559 25.9979 33.7346 25.9405 33.43 25.83C32.8063 25.5542 32.2749 25.1051 31.8991 24.536C31.5232 23.9669 31.3188 23.3019 31.31 22.62C31.1841 21.1352 31.3961 19.6412 31.93 18.25C33.22 14.71 35.81 12.63 37.93 13.41C38.5511 13.6883 39.0797 14.1383 39.4535 14.707C39.8274 15.2757 40.0308 15.9395 40.04 16.62C40.1737 18.1066 39.9686 19.6041 39.44 21C38.9589 22.4081 38.1619 23.6875 37.11 24.74C36.3985 25.4991 35.4192 25.951 34.38 26ZM37 16C36.68 16 35.39 16.89 34.55 19.19C33.71 21.49 34.14 23.06 34.4 23.19C34.66 23.32 36 22.37 36.84 20C37.69 17.66 37.25 16.14 36.99 16H37Z" fill="black"/>
<path d="M27.78 19.22C25.5 19.22 23.78 16.38 23.78 12.61C23.78 8.84 25.5 6 27.78 6C30.06 6 31.78 8.84 31.78 12.61C31.78 16.38 30.06 19.22 27.78 19.22ZM27.78 8.77C27.5 8.83 26.56 10.12 26.56 12.61C26.56 15.1 27.5 16.38 27.8 16.45C28.1 16.52 29 15.1 29 12.61C29 10.12 28.07 8.84 27.77 8.77H27.78Z" fill="black"/>
<path d="M19.33 19.22C17.05 19.22 15.33 16.38 15.33 12.61C15.33 8.84 17.05 6 19.33 6C21.61 6 23.33 8.84 23.33 12.61C23.33 16.38 21.61 19.22 19.33 19.22ZM19.33 8.77C19 8.84 18.1 10.12 18.1 12.61C18.1 15.1 19.04 16.38 19.33 16.45C19.62 16.52 20.56 15.1 20.56 12.61C20.56 10.12 19.62 8.83 19.32 8.77H19.33Z" fill="black"/>
<path d="M12.73 26C11.6879 25.9458 10.7082 25.4864 9.99998 24.72C8.94758 23.6757 8.15025 22.4027 7.66998 21C7.13609 19.6088 6.92412 18.1148 7.04998 16.63C7.05532 15.9461 7.25702 15.278 7.63108 14.7054C8.00514 14.1328 8.53582 13.6797 9.15998 13.4C11.3 12.62 13.89 14.7 15.16 18.24C15.6939 19.6312 15.9058 21.1252 15.78 22.61C15.7712 23.2919 15.5667 23.9569 15.1909 24.526C14.8151 25.0951 14.2837 25.5442 13.66 25.82C13.3622 25.9316 13.0479 25.9925 12.73 26ZM10.12 16C9.87998 16.16 9.42998 17.68 10.29 20C11.15 22.32 12.49 23.22 12.76 23.19C13.03 23.16 13.45 21.5 12.6 19.19C11.74 16.9 10.46 16 10.12 16Z" fill="black"/>
</svg>
