<svg width="48" height="48" viewBox="0 0 48 48" fill="none" xmlns="http://www.w3.org/2000/svg">
<path d="M34.13 26.39C35.2674 26.3381 36.3414 25.8512 37.13 25.03C38.2053 23.9538 39.0224 22.6477 39.52 21.21C40.0631 19.7898 40.2751 18.2645 40.14 16.75C40.1212 16.0036 39.8902 15.2781 39.474 14.6582C39.0579 14.0384 38.4737 13.5499 37.79 13.25C37.0731 13.037 36.3102 13.0329 35.591 13.2384C34.8718 13.4439 34.2262 13.8503 33.73 14.41C32.6569 15.488 31.8401 16.7935 31.34 18.23C30.9165 19.3905 30.6933 20.6147 30.68 21.85C30.089 21.0021 29.3506 20.2671 28.5 19.68C30.61 19.15 32.07 16.47 32.07 12.89C32.07 8.89 30.24 6 27.72 6C25.72 6 24.16 7.83 23.6 10.59C23 7.83 21.47 6 19.47 6C17 6 15.12 8.9 15.12 12.89C15.12 16.47 16.58 19.16 18.7 19.69C17.8423 20.2678 17.0996 21.0003 16.51 21.85C16.4968 20.6147 16.2736 19.3905 15.85 18.23C15.3499 16.7935 14.5331 15.488 13.46 14.41C12.9638 13.8503 12.3182 13.4439 11.599 13.2384C10.8799 13.0329 10.117 13.037 9.40002 13.25C8.71632 13.5499 8.13219 14.0384 7.71601 14.6582C7.29983 15.2781 7.06882 16.0036 7.05002 16.75C6.91878 18.2644 7.1307 19.7888 7.67002 21.21C8.17164 22.6369 8.98857 23.9324 10.06 25C10.8487 25.8212 11.9226 26.3081 13.06 26.36C13.4252 26.361 13.7876 26.2967 14.13 26.17C14.32 26.0942 14.5039 26.0039 14.68 25.9C14.5193 26.3036 14.2892 26.6758 14 27L11.72 29.77C10.8089 30.8528 10.2255 32.1731 10.0383 33.5758C9.85111 34.9785 10.0678 36.4055 10.6631 37.6894C11.2583 38.9733 12.2073 40.0607 13.3988 40.8243C14.5903 41.5878 15.9749 41.9956 17.39 42C17.7817 41.9999 18.1729 41.9698 18.56 41.91L23 41.22C23.3911 41.16 23.789 41.16 24.18 41.22L28.62 41.91C30.1169 42.1434 31.6493 41.9142 33.0124 41.2532C34.3755 40.5922 35.5044 39.5308 36.248 38.2109C36.9917 36.891 37.3147 35.3756 37.1739 33.8672C37.0331 32.3589 36.4351 30.9294 35.46 29.77L33.17 27C32.8915 26.6736 32.6716 26.3014 32.52 25.9C32.6962 26.0039 32.8801 26.0942 33.07 26.17C33.4075 26.3057 33.7664 26.3802 34.13 26.39ZM23.59 15.2C23.79 16.3168 24.2414 17.3734 24.91 18.29C24.0351 18.1566 23.145 18.1566 22.27 18.29C22.9387 17.3734 23.3901 16.3168 23.59 15.2Z" fill="black"/>
</svg>
