<svg width="48" height="48" viewBox="0 0 48 48" fill="none" xmlns="http://www.w3.org/2000/svg">
<path fill-rule="evenodd" clip-rule="evenodd" d="M24.09 25.2999C24.1148 25.1736 24.1102 25.0432 24.0767 24.9189C24.0431 24.7947 23.9814 24.6798 23.8963 24.5831C23.8113 24.4865 23.7052 24.4107 23.5862 24.3616C23.4672 24.3124 23.3385 24.2913 23.21 24.2999C22.9242 24.2941 22.646 24.3923 22.4271 24.5763C22.2082 24.7602 22.0636 25.0173 22.02 25.2999C21.9913 25.4281 21.9917 25.5611 22.0211 25.6892C22.0505 25.8172 22.1082 25.9371 22.19 26.0399C22.2783 26.1393 22.3882 26.2171 22.5113 26.2674C22.6344 26.3176 22.7674 26.339 22.9 26.3299C23.1903 26.3347 23.4722 26.2323 23.6918 26.0423C23.9114 25.8522 24.0531 25.5879 24.09 25.2999ZM25.57 23.2299C25.5972 23.2295 25.6242 23.2356 25.6485 23.2478C25.6729 23.26 25.694 23.2779 25.71 23.2999C25.7223 23.323 25.7287 23.3487 25.7287 23.3749C25.7287 23.401 25.7223 23.4268 25.71 23.4499L25.14 27.0699C25.1303 27.1423 25.0944 27.2087 25.0392 27.2566C24.9839 27.3045 24.9131 27.3305 24.84 27.3299H23.84C23.7872 27.3291 23.7369 27.3076 23.7 27.2699C23.6805 27.2218 23.6805 27.168 23.7 27.1199L23.75 26.8299C23.5568 27.0222 23.3275 27.1742 23.0751 27.2772C22.8228 27.3802 22.5525 27.4321 22.28 27.4299C22.0405 27.4364 21.8023 27.3915 21.5816 27.2984C21.3608 27.2053 21.1625 27.066 21 26.8899C20.8209 26.6626 20.6934 26.3991 20.626 26.1177C20.5587 25.8363 20.5532 25.5436 20.61 25.2599C20.6827 24.6755 20.9651 24.1375 21.4047 23.7457C21.8443 23.3539 22.4112 23.1351 23 23.1299C23.229 23.1031 23.461 23.1298 23.6779 23.2079C23.8948 23.2859 24.0907 23.4133 24.25 23.5799L24.32 23.6799V23.3899C24.3249 23.3457 24.3461 23.3049 24.3793 23.2754C24.4125 23.2458 24.4555 23.2296 24.5 23.2299H25.57ZM31.38 23.3299C31.3977 23.3584 31.4071 23.3913 31.4071 23.4249C31.4071 23.4585 31.3977 23.4914 31.38 23.5199L27.83 28.6399C27.7995 28.68 27.7602 28.7125 27.7151 28.7351C27.67 28.7576 27.6204 28.7695 27.57 28.7699H26.51C26.4756 28.7684 26.4422 28.7585 26.4125 28.7411C26.3829 28.7237 26.358 28.6992 26.34 28.6699C26.3233 28.641 26.3145 28.6082 26.3145 28.5749C26.3145 28.5415 26.3233 28.5088 26.34 28.4799L27.44 26.9199L26.29 23.4799C26.2775 23.4533 26.271 23.4243 26.271 23.3949C26.271 23.3655 26.2775 23.3365 26.29 23.3099C26.3071 23.2858 26.3295 23.2661 26.3556 23.2522C26.3816 23.2383 26.4105 23.2307 26.44 23.2299H27.49C27.5562 23.2279 27.6211 23.2487 27.6738 23.2887C27.7266 23.3287 27.764 23.3856 27.78 23.4499L28.41 25.5299L29.9 23.3699C29.926 23.3269 29.9627 23.2914 30.0065 23.2669C30.0503 23.2423 30.0998 23.2296 30.15 23.2299H31.22C31.2533 23.2301 31.2859 23.2396 31.3142 23.2572C31.3424 23.2749 31.3652 23.3001 31.38 23.3299ZM19.21 23.2599C19.2377 23.1548 19.2422 23.0448 19.2232 22.9378C19.2042 22.8307 19.1622 22.7291 19.1 22.6399C18.91 22.4099 18.53 22.4099 18.1 22.4099H18C17.9549 22.4112 17.9116 22.4278 17.8772 22.4568C17.8427 22.4859 17.819 22.5257 17.81 22.5699L17.58 24.0499H17.91C18.48 24.0499 19.09 24.0499 19.21 23.2599ZM20.57 21.7499C20.7179 21.9535 20.8195 22.187 20.8679 22.434C20.9163 22.681 20.9102 22.9355 20.85 23.1799C20.829 23.4857 20.7463 23.7841 20.6068 24.0571C20.4673 24.33 20.274 24.5719 20.0386 24.7682C19.8031 24.9644 19.5303 25.1109 19.2366 25.1989C18.943 25.2868 18.6346 25.3144 18.33 25.2799H17.63C17.5569 25.2792 17.4861 25.3053 17.4308 25.3532C17.3756 25.401 17.3397 25.4674 17.33 25.5399L17.08 27.0699C17.0703 27.1423 17.0344 27.2087 16.9792 27.2566C16.9239 27.3045 16.8531 27.3305 16.78 27.3299H15.72C15.6672 27.3291 15.6169 27.3076 15.58 27.2699C15.5605 27.2218 15.5605 27.168 15.58 27.1199L16.48 21.4399C16.4897 21.3674 16.5256 21.301 16.5808 21.2532C16.6361 21.2053 16.7069 21.1792 16.78 21.1799H19C19.2869 21.1612 19.5745 21.2023 19.8447 21.3004C20.115 21.3985 20.3619 21.5515 20.57 21.7499ZM39.88 25.2999C39.9048 25.1736 39.9002 25.0432 39.8667 24.9189C39.8331 24.7947 39.7714 24.6798 39.6863 24.5831C39.6013 24.4865 39.4952 24.4107 39.3762 24.3616C39.2572 24.3124 39.1285 24.2913 39 24.2999C38.7147 24.2962 38.4376 24.3952 38.2192 24.5788C38.0007 24.7623 37.8555 25.0182 37.81 25.2999C37.7901 25.4234 37.7968 25.5497 37.8295 25.6704C37.8623 25.7911 37.9204 25.9034 38 25.9999C38.0883 26.0993 38.1982 26.1771 38.3213 26.2274C38.4444 26.2776 38.5774 26.299 38.71 26.2899C38.9909 26.2912 39.2631 26.1922 39.4776 26.0107C39.6921 25.8292 39.8348 25.5772 39.88 25.2999ZM41.36 23.2299C41.3872 23.2295 41.4142 23.2356 41.4385 23.2478C41.4629 23.26 41.484 23.2779 41.5 23.2999C41.5123 23.323 41.5187 23.3487 41.5187 23.3749C41.5187 23.401 41.5123 23.4268 41.5 23.4499L41 27.0699C40.9903 27.1423 40.9544 27.2087 40.8992 27.2566C40.8439 27.3045 40.7731 27.3305 40.7 27.3299H39.7C39.6472 27.3291 39.5969 27.3076 39.56 27.2699C39.5405 27.2218 39.5405 27.168 39.56 27.1199V26.8299C39.3668 27.0222 39.1375 27.1742 38.8851 27.2772C38.6328 27.3802 38.3625 27.4321 38.09 27.4299C37.8405 27.4452 37.5908 27.4047 37.359 27.3113C37.1272 27.2179 36.9191 27.0739 36.75 26.8899C36.5709 26.6626 36.4434 26.3991 36.376 26.1177C36.3087 25.8363 36.3032 25.5436 36.36 25.2599C36.4322 24.6789 36.7117 24.1435 37.1471 23.7522C37.5826 23.3609 38.1446 23.1399 38.73 23.1299C38.9622 23.0999 39.1981 23.125 39.4188 23.2031C39.6394 23.2813 39.8385 23.4104 40 23.5799L40.07 23.6799V23.3899C40.0749 23.3457 40.0961 23.3049 40.1293 23.2754C40.1625 23.2458 40.2055 23.2296 40.25 23.2299H41.36ZM35 23.2599C35.0277 23.1548 35.0322 23.0448 35.0132 22.9378C34.9942 22.8307 34.9522 22.7291 34.89 22.6399C34.7 22.4099 34.32 22.4099 33.89 22.4099H33.74C33.6955 22.4096 33.6525 22.4258 33.6193 22.4554C33.5861 22.4849 33.5649 22.5257 33.56 22.5699L33.32 24.0499H33.65C34.27 24.0499 34.88 24.0499 35 23.2599ZM36.36 21.7499C36.5079 21.9535 36.6095 22.187 36.6579 22.434C36.7063 22.681 36.7002 22.9355 36.64 23.1799C36.619 23.4857 36.5363 23.7841 36.3968 24.0571C36.2573 24.33 36.064 24.5719 35.8286 24.7682C35.5931 24.9644 35.3203 25.1109 35.0266 25.1989C34.733 25.2868 34.4246 25.3144 34.12 25.2799H33.42C33.3469 25.2792 33.2761 25.3053 33.2208 25.3532C33.1656 25.401 33.1297 25.4674 33.12 25.5399L32.86 27.1499C32.8549 27.2012 32.8303 27.2485 32.7911 27.282C32.752 27.3156 32.7015 27.3327 32.65 27.3299H31.51C31.4572 27.3291 31.4069 27.3076 31.37 27.2699C31.3505 27.2218 31.3505 27.168 31.37 27.1199L32.27 21.4399C32.2797 21.3674 32.3156 21.301 32.3708 21.2532C32.4261 21.2053 32.4969 21.1792 32.57 21.1799H34.78C35.0686 21.1586 35.3585 21.1983 35.6307 21.2965C35.903 21.3948 36.1515 21.5492 36.36 21.7499ZM43.96 21.2499C43.9702 21.2736 43.9754 21.2991 43.9754 21.3249C43.9754 21.3507 43.9702 21.3762 43.96 21.3999L43.06 27.0699C43.0503 27.1423 43.0144 27.2087 42.9592 27.2566C42.9039 27.3045 42.8331 27.3305 42.76 27.3299H41.84C41.7872 27.3291 41.7369 27.3076 41.7 27.2699C41.6805 27.2218 41.6805 27.168 41.7 27.1199L42.61 21.3399C42.6169 21.2965 42.6386 21.2569 42.6714 21.2277C42.7042 21.1986 42.7461 21.1817 42.79 21.1799H43.79C43.8281 21.1708 43.8679 21.1726 43.905 21.185C43.9421 21.1973 43.975 21.2198 44 21.2499H43.96ZM8 24.2199C7.06 24.2199 6.5 24.0699 6.38 24.7399C6.3 25.1599 6 27.0799 5.91 27.6299C5.91 27.6299 5.91 27.6299 5.85 27.6299H4.26C4.19274 27.6299 4.12808 27.6039 4.0796 27.5573C4.03112 27.5107 4.00259 27.4471 4 27.3799L5.26 19.3799C5.27655 19.2747 5.32984 19.1789 5.4104 19.1093C5.49095 19.0397 5.59356 19.001 5.7 18.9999C9 18.9999 9.25 18.9299 10.09 19.2499C11.38 19.7599 11.5 20.9999 11 22.2799C10.7853 22.8898 10.3742 23.4111 9.83131 23.7622C9.28838 24.1133 8.64427 24.2743 8 24.2199ZM11.69 21.6399C11.9556 21.8908 12.1445 22.2119 12.2348 22.566C12.3251 22.92 12.313 23.2924 12.2 23.6399C12.1099 24.3681 11.7355 25.0311 11.1586 25.4845C10.5816 25.9378 9.84884 26.1446 9.12 26.0599C8.8 26.0599 8.59 26.0599 8.49 26.4799L8.18 28.4799C8.16588 28.5683 8.12102 28.6488 8.05334 28.7073C7.98565 28.7659 7.89948 28.7987 7.81 28.7999H6.44C6.40566 28.7989 6.37193 28.7906 6.34108 28.7755C6.31023 28.7604 6.28298 28.7389 6.26117 28.7123C6.23937 28.6858 6.22352 28.6549 6.21469 28.6217C6.20586 28.5885 6.20426 28.5538 6.21 28.5199L6.8 24.8299C6.80243 24.7776 6.82429 24.7282 6.86128 24.6912C6.89827 24.6542 6.94774 24.6323 7 24.6299C8.16 24.6299 10.55 24.8499 11.41 22.3899C11.4898 22.1545 11.5532 21.914 11.6 21.6699C11.64 21.5999 11.65 21.6099 11.69 21.6399Z" fill="black"/>
</svg>
