<svg width="48" height="48" viewBox="0 0 48 48" fill="none" xmlns="http://www.w3.org/2000/svg">
<path fill-rule="evenodd" clip-rule="evenodd" d="M23.5736 25.251C20.1359 25.311 18.0673 24.7014 17.5776 27.1697C17.2978 28.6987 16.1985 35.794 15.8687 37.8027C15.8687 37.9426 15.7888 38.0025 15.6289 38.0025H9.77279C9.6327 38.0032 9.49403 37.9745 9.36578 37.9181C9.23753 37.8618 9.12256 37.7791 9.02833 37.6754C8.93409 37.5718 8.86271 37.4495 8.8188 37.3165C8.77489 37.1834 8.75944 37.0427 8.77345 36.9033L13.4304 7.39284C13.4877 7.01233 13.6796 6.66498 13.9711 6.4138C14.2626 6.16261 14.6345 6.02423 15.0193 6.02375C27.1013 6.02375 28.1206 5.76392 31.1986 6.96313C35.9654 8.8119 36.4051 13.2689 34.6963 18.0857C32.9874 22.9026 28.9401 25.191 23.5736 25.251ZM37.0947 15.7573C39.3532 17.4362 39.5031 20.3443 38.9834 23.1024C37.6743 29.728 33.2772 32.0065 27.6509 32.0065C26.4617 32.0065 25.6523 31.8166 25.3225 33.5655C24.0933 41.2904 24.2332 40.381 24.1832 40.8107C24.1263 41.1451 23.9523 41.4483 23.6923 41.6662C23.4324 41.884 23.1034 42.0023 22.7642 41.9999H17.7675C17.6421 42.0019 17.5179 41.9761 17.4037 41.9243C17.2895 41.8726 17.1881 41.7962 17.1069 41.7007C17.0257 41.6052 16.9667 41.4928 16.934 41.3718C16.9014 41.2507 16.8959 41.124 16.918 41.0006C16.918 41.0006 17.2778 38.6721 19.0766 27.5295C19.0829 27.4239 19.1103 27.3207 19.1572 27.2259C19.2041 27.1311 19.2696 27.0468 19.3498 26.9778C19.4299 26.9088 19.5231 26.8566 19.6239 26.8244C19.7246 26.7921 19.8307 26.7804 19.936 26.79C24.2232 26.79 32.9974 27.5695 36.1553 18.5454C36.4573 17.6755 36.6911 16.7834 36.8548 15.8772C36.8948 15.6174 36.9548 15.6574 37.0947 15.7573Z" fill="black"/>
</svg>
