<svg width="48" height="48" viewBox="0 0 48 48" fill="none" xmlns="http://www.w3.org/2000/svg">
<path fill-rule="evenodd" clip-rule="evenodd" d="M35.53 22.63C35.3283 22.6273 35.1282 22.665 34.9413 22.741C34.7545 22.8169 34.5847 22.9295 34.4421 23.0721C34.2995 23.2147 34.1869 23.3845 34.111 23.5713C34.035 23.7582 33.9973 23.9583 34 24.16C33.9988 24.303 34.0283 24.4446 34.0864 24.5753C34.1446 24.7059 34.2301 24.8226 34.3372 24.9174C34.4444 25.0121 34.5705 25.0828 34.7073 25.1247C34.8441 25.1666 34.9882 25.1786 35.13 25.16C35.3269 25.1627 35.5223 25.126 35.7048 25.0522C35.8874 24.9784 36.0534 24.8689 36.193 24.7301C36.3327 24.5914 36.4433 24.4261 36.5184 24.2441C36.5934 24.0621 36.6313 23.8669 36.63 23.67C36.6365 23.5265 36.612 23.3833 36.5581 23.2501C36.5043 23.1169 36.4224 22.9969 36.318 22.8982C36.2137 22.7996 36.0892 22.7245 35.9533 22.6782C35.8173 22.6319 35.6729 22.6155 35.53 22.63ZM41.78 19C41.7802 18.9397 41.7577 18.8815 41.7169 18.837C41.6762 18.7925 41.6201 18.765 41.56 18.76H40.27C40.2165 18.7595 40.1646 18.7785 40.1241 18.8135C40.0837 18.8485 40.0573 18.897 40.05 18.95L38.92 26.2C38.9226 26.2646 38.9501 26.3256 38.9967 26.3703C39.0433 26.4151 39.1054 26.4401 39.17 26.44H40.31C40.4073 26.426 40.4967 26.3783 40.5625 26.3052C40.6283 26.2321 40.6663 26.1383 40.67 26.04L41.8 19.04L41.78 19ZM38.48 21.32H37.16C36.9 21.32 36.88 21.7 36.86 21.89C36.6752 21.6362 36.4252 21.4372 36.1365 21.314C35.8478 21.1907 35.5311 21.1479 35.22 21.19C34.4083 21.2161 33.6393 21.5597 33.0783 22.1469C32.5173 22.7341 32.2091 23.518 32.22 24.33C32.1949 24.6271 32.2342 24.9261 32.3353 25.2065C32.4364 25.487 32.5969 25.7423 32.8058 25.955C33.0147 26.1677 33.2671 26.3328 33.5457 26.4389C33.8243 26.5451 34.1225 26.5898 34.42 26.57C34.7662 26.5596 35.107 26.481 35.4228 26.3386C35.7386 26.1961 36.0231 25.9927 36.26 25.74C36.227 25.8816 36.2036 26.0252 36.19 26.17C36.19 26.33 36.26 26.45 36.41 26.45H37.61C37.7088 26.435 37.7997 26.3875 37.8685 26.3151C37.9373 26.2426 37.98 26.1494 37.99 26.05L38.7 21.59C38.7013 21.5598 38.6967 21.5296 38.6864 21.5012C38.676 21.4728 38.6602 21.4467 38.6398 21.4244C38.6193 21.4021 38.5947 21.384 38.5673 21.3713C38.5399 21.3585 38.5102 21.3513 38.48 21.35V21.32ZM32.63 20.71C32.63 19.25 31.51 18.71 30.22 18.71H27.47C27.3762 18.7089 27.2851 18.7416 27.2134 18.8023C27.1418 18.8629 27.0944 18.9473 27.08 19.04L26 26.2C25.9943 26.2331 25.9957 26.267 26.0039 26.2995C26.0121 26.332 26.0271 26.3625 26.0478 26.3888C26.0686 26.4152 26.0946 26.437 26.1243 26.4527C26.1539 26.4684 26.1865 26.4777 26.22 26.48H27.6C27.664 26.478 27.7258 26.4556 27.7762 26.416C27.8266 26.3764 27.8629 26.3218 27.88 26.26L28.19 24.26C28.26 23.76 29.11 23.94 29.44 23.94C29.8698 23.9803 30.3033 23.9252 30.7093 23.7785C31.1153 23.6318 31.4839 23.3971 31.7887 23.0914C32.0935 22.7856 32.327 22.4163 32.4724 22.0098C32.6179 21.6033 32.6717 21.1697 32.63 20.74V20.71ZM21.57 28.15L26 21.72C26.0089 21.7012 26.0135 21.6808 26.0135 21.66C26.0135 21.6392 26.0089 21.6188 26 21.6C25.9984 21.5392 25.9755 21.4808 25.9353 21.4352C25.8951 21.3895 25.8401 21.3593 25.78 21.35H24.47C24.4075 21.3522 24.3465 21.3698 24.2924 21.4011C24.2384 21.4325 24.1929 21.4768 24.16 21.53L22.32 24.24L21.56 21.63C21.5291 21.5506 21.4758 21.4818 21.4066 21.4321C21.3373 21.3824 21.2551 21.3539 21.17 21.35H19.87C19.8099 21.3593 19.7549 21.3895 19.7147 21.4352C19.6745 21.4808 19.6516 21.5392 19.65 21.6C19.65 21.68 21.01 25.54 21.12 25.91C20.5975 26.6069 20.123 27.3386 19.7 28.1C19.6999 28.1593 19.7228 28.2163 19.7638 28.2592C19.8048 28.3021 19.8608 28.3274 19.92 28.33H21.26C21.3214 28.3234 21.3808 28.304 21.4342 28.273C21.4876 28.242 21.5339 28.2001 21.57 28.15ZM18.76 21.35H17.44C17.17 21.35 17.16 21.73 17.15 21.92C16.9608 21.6686 16.7086 21.4715 16.4189 21.3486C16.1292 21.2257 15.8123 21.1814 15.5 21.22C14.6883 21.2461 13.9193 21.5897 13.3583 22.1769C12.7973 22.7641 12.4891 23.548 12.5 24.36C12.4749 24.6571 12.5142 24.9561 12.6153 25.2365C12.7164 25.517 12.8769 25.7723 13.0858 25.985C13.2947 26.1977 13.5471 26.3628 13.8257 26.4689C14.1043 26.5751 14.4025 26.6198 14.7 26.6C15.3978 26.5727 16.0577 26.275 16.54 25.77C16.5021 25.9106 16.4786 26.0547 16.47 26.2C16.47 26.36 16.54 26.48 16.69 26.48H17.89C17.9888 26.465 18.0797 26.4175 18.1485 26.3451C18.2173 26.2726 18.26 26.1794 18.27 26.08L19 21.62C19.0061 21.5858 19.0044 21.5506 18.9949 21.5171C18.9855 21.4837 18.9686 21.4528 18.9455 21.4268C18.9224 21.4008 18.8937 21.3804 18.8616 21.3671C18.8294 21.3538 18.7947 21.3479 18.76 21.35ZM12.91 20.74C12.91 19.28 11.78 18.74 10.5 18.74H7.72C7.63015 18.7419 7.54407 18.7764 7.47782 18.8372C7.41158 18.8979 7.3697 18.9807 7.36 19.07L6.22 26.21C6.21433 26.2431 6.21565 26.277 6.22389 26.3095C6.23213 26.342 6.2471 26.3725 6.26783 26.3988C6.28856 26.4252 6.31459 26.447 6.34425 26.4627C6.37391 26.4784 6.40652 26.4877 6.44 26.49H7.76C7.85924 26.4738 7.95068 26.4262 8.02088 26.3542C8.09108 26.2822 8.13633 26.1896 8.15 26.09L8.46 24.24C8.53 23.74 9.37 23.92 9.71 23.92C10.1384 23.9596 10.5703 23.9048 10.9752 23.7593C11.38 23.6138 11.7481 23.3812 12.0532 23.0779C12.3584 22.7746 12.5933 22.4081 12.7413 22.0041C12.8894 21.6002 12.947 21.1686 12.91 20.74ZM44 11.33V35.78C44 36.6632 43.6492 37.5102 43.0247 38.1347C42.4002 38.7592 41.5532 39.11 40.67 39.11H7.33C6.44683 39.11 5.59983 38.7592 4.97533 38.1347C4.35084 37.5102 4 36.6632 4 35.78V11.33C4 10.4468 4.35084 9.59983 4.97533 8.97533C5.59983 8.35084 6.44683 8 7.33 8H40.67C41.5532 8 42.4002 8.35084 43.0247 8.97533C43.6492 9.59983 44 10.4468 44 11.33ZM29.31 20.33H29C28.9729 20.3273 28.9456 20.3301 28.9196 20.3382C28.8937 20.3464 28.8697 20.3598 28.8491 20.3776C28.8285 20.3954 28.8117 20.4172 28.7999 20.4417C28.788 20.4662 28.7812 20.4928 28.78 20.52L28.49 22.37H29.04C29.94 22.37 30.57 22.16 30.57 21.12C30.56 20.37 29.9 20.34 29.31 20.34V20.33ZM9.59 20.33H9.26C9.2065 20.3295 9.15464 20.3485 9.11415 20.3835C9.07366 20.4185 9.04729 20.467 9.04 20.52L8.74 22.37H9.31C10.08 22.37 10.67 22.27 10.81 21.37C10.95 20.47 10.37 20.34 9.59 20.34V20.33ZM16.94 23.7C16.9401 23.8991 16.9002 24.0962 16.8229 24.2796C16.7455 24.463 16.6322 24.6291 16.4895 24.768C16.3469 24.9069 16.1779 25.0158 15.9925 25.0883C15.8071 25.1608 15.609 25.1953 15.41 25.19C15.2697 25.2055 15.1278 25.1912 14.9935 25.1479C14.8591 25.1047 14.7355 25.0335 14.6306 24.939C14.5258 24.8446 14.4421 24.729 14.3851 24.5999C14.3282 24.4708 14.2991 24.3311 14.3 24.19C14.2974 23.99 14.3345 23.7915 14.4092 23.606C14.4838 23.4205 14.5947 23.2517 14.7351 23.1093C14.8756 22.967 15.043 22.854 15.2275 22.7768C15.412 22.6997 15.61 22.66 15.81 22.66C15.9561 22.6406 16.1047 22.6537 16.2452 22.6984C16.3856 22.7432 16.5144 22.8184 16.6224 22.9187C16.7304 23.0191 16.8149 23.142 16.8698 23.2788C16.9247 23.4156 16.9487 23.5629 16.94 23.71V23.7Z" fill="black"/>
</svg>
