<svg width="48" height="48" viewBox="0 0 48 48" fill="none" xmlns="http://www.w3.org/2000/svg">
<path d="M40.46 17.2L41.23 16.43C41.7246 15.9334 42.0023 15.261 42.0023 14.56C42.0023 13.8591 41.7246 13.1867 41.23 12.69L35.31 6.77002C34.8133 6.27539 34.1409 5.99768 33.44 5.99768C32.739 5.99768 32.0666 6.27539 31.57 6.77002L30.8 7.54002L40.46 17.2Z" fill="black"/>
<path d="M28.26 10.09L9.43998 28.91C9.08738 29.2576 8.82628 29.687 8.67998 30.16L6.11998 38.59C5.97866 39.0476 5.9645 39.5351 6.079 40.0001C6.1935 40.4652 6.43235 40.8903 6.76998 41.23C7.26823 41.722 7.93979 41.9985 8.63998 42C8.9013 42 9.16105 41.9595 9.40998 41.88L17.84 39.32C18.313 39.1737 18.7424 38.9126 19.09 38.56L37.91 19.74L28.26 10.09ZM17.94 36.26C17.7736 36.4275 17.5757 36.5605 17.3578 36.6512C17.1398 36.7419 16.9061 36.7886 16.67 36.7886C16.4339 36.7886 16.2001 36.7419 15.9822 36.6512C15.7642 36.5605 15.5663 36.4275 15.4 36.26L11.74 32.6C11.5546 32.4377 11.4045 32.239 11.299 32.0163C11.1935 31.7936 11.1349 31.5517 11.1267 31.3054C11.1185 31.0591 11.161 30.8138 11.2516 30.5846C11.3421 30.3554 11.4787 30.1472 11.6529 29.973C11.8272 29.7987 12.0353 29.6621 12.2645 29.5716C12.4937 29.4811 12.739 29.4386 12.9853 29.4467C13.2316 29.4549 13.4736 29.5136 13.6963 29.619C13.919 29.7245 14.1177 29.8746 14.28 30.06L17.94 33.72C18.1087 33.8857 18.2427 34.0834 18.3342 34.3014C18.4257 34.5195 18.4728 34.7536 18.4728 34.99C18.4728 35.2265 18.4257 35.4606 18.3342 35.6786C18.2427 35.8967 18.1087 36.0943 17.94 36.26ZM17.61 29.67C17.4439 29.8427 17.2449 29.9805 17.0249 30.0753C16.8048 30.1701 16.568 30.22 16.3284 30.2221C16.0888 30.2241 15.8512 30.1784 15.6295 30.0874C15.4079 29.9965 15.2066 29.8622 15.0375 29.6924C14.8684 29.5227 14.7349 29.3208 14.6448 29.0988C14.5547 28.8768 14.5099 28.639 14.5129 28.3994C14.5159 28.1598 14.5668 27.9232 14.6624 27.7035C14.7581 27.4838 14.8966 27.2855 15.07 27.12L27.81 14.38C27.9774 14.2126 28.1762 14.0798 28.395 13.9892C28.6137 13.8985 28.8482 13.8519 29.085 13.8519C29.3218 13.8519 29.5562 13.8985 29.775 13.9892C29.9938 14.0798 30.1925 14.2126 30.36 14.38C30.5274 14.5475 30.6602 14.7462 30.7508 14.965C30.8415 15.1838 30.8881 15.4182 30.8881 15.655C30.8881 15.8918 30.8415 16.1263 30.7508 16.345C30.6602 16.5638 30.5274 16.7626 30.36 16.93L17.61 29.67Z" fill="black"/>
</svg>
