<svg width="48" height="48" viewBox="0 0 48 48" fill="none" xmlns="http://www.w3.org/2000/svg">
<path d="M41.34 12.7101L35.27 6.64006C34.8419 6.23053 34.2724 6.00195 33.68 6.00195C33.0876 6.00195 32.518 6.23053 32.09 6.64006L9.38995 29.3501C9.08837 29.6612 8.86253 30.0376 8.72995 30.4501L6.09995 39.0901C5.99674 39.4264 5.97386 39.7823 6.03315 40.1292C6.09243 40.476 6.23223 40.8041 6.44132 41.0871C6.65041 41.3701 6.92296 41.6001 7.23707 41.7587C7.55117 41.9172 7.89809 41.9999 8.24995 42.0001C8.47381 42.0011 8.69646 41.9674 8.90995 41.9001L17.54 39.2701C17.9546 39.1423 18.3321 38.9159 18.64 38.6101L41.34 15.8901C41.7613 15.4682 41.998 14.8963 41.998 14.3001C41.998 13.7038 41.7613 13.1319 41.34 12.7101ZM39 14.3001L38.25 15.0501L32.94 9.71006L33.68 9.00006L39 14.3001ZM16.74 36.6201L8.99995 39.0001L11.32 31.3401L31 11.6701L36.31 17.0001L16.74 36.6201Z" fill="black"/>
<path d="M30.41 14.6601C30.2803 14.5258 30.125 14.419 29.9531 14.346C29.7813 14.2731 29.5966 14.2355 29.41 14.2355C29.2233 14.2355 29.0386 14.2731 28.8668 14.346C28.695 14.419 28.5396 14.5258 28.41 14.6601L15.38 27.7401C15.1147 28.0053 14.9657 28.365 14.9657 28.7401C14.9657 29.1151 15.1147 29.4748 15.38 29.7401C15.6452 30.0053 16.0049 30.1543 16.38 30.1543C16.755 30.1543 17.1147 30.0053 17.38 29.7401L30.41 16.6201C30.6689 16.3596 30.8142 16.0073 30.8142 15.6401C30.8142 15.2728 30.6689 14.9205 30.41 14.6601Z" fill="black"/>
<path d="M14 30.8701C13.8686 30.742 13.7134 30.6411 13.5431 30.5731C13.3727 30.505 13.1907 30.4712 13.0073 30.4735C12.8239 30.4758 12.6427 30.5143 12.4742 30.5866C12.3056 30.6589 12.153 30.7637 12.025 30.8951C11.8969 31.0264 11.796 31.1816 11.728 31.352C11.6599 31.5223 11.6261 31.7043 11.6284 31.8877C11.6307 32.0711 11.6692 32.2523 11.7415 32.4208C11.8138 32.5894 11.9186 32.742 12.05 32.8701L15.13 35.9501C15.2613 36.0781 15.4165 36.179 15.5869 36.2471C15.7572 36.3151 15.9392 36.3489 16.1226 36.3466C16.306 36.3443 16.4872 36.3058 16.6557 36.2335C16.8243 36.1612 16.9769 36.0564 17.105 35.9251C17.233 35.7937 17.3339 35.6385 17.402 35.4682C17.47 35.2978 17.5038 35.1158 17.5015 34.9324C17.4992 34.749 17.4607 34.5678 17.3884 34.3993C17.3161 34.2307 17.2113 34.0781 17.08 33.9501L14 30.8701Z" fill="black"/>
</svg>
