<svg width="48" height="48" viewBox="0 0 48 48" fill="none" xmlns="http://www.w3.org/2000/svg">
<path d="M40.46 17.2L41.23 16.43C41.4761 16.1847 41.6714 15.8933 41.8046 15.5724C41.9379 15.2515 42.0065 14.9075 42.0065 14.56C42.0065 14.2125 41.9379 13.8685 41.8046 13.5476C41.6714 13.2267 41.4761 12.9353 41.23 12.69L35.31 6.78C35.0653 6.5328 34.7741 6.33658 34.4531 6.20269C34.1321 6.0688 33.7878 5.99991 33.44 6C32.7396 6.00046 32.0676 6.27715 31.57 6.77L30.8 7.54L40.46 17.2Z" fill="black"/>
<path d="M28.26 10.09L9.99998 28.34H10.4C10.6387 28.34 10.8676 28.4348 11.0364 28.6036C11.2052 28.7724 11.3 29.0013 11.3 29.24V29.79H11.85C12.0887 29.79 12.3176 29.8848 12.4864 30.0536C12.6552 30.2224 12.75 30.4513 12.75 30.69V31.24H13.3C13.5387 31.24 13.7676 31.3348 13.9364 31.5036C14.1052 31.6724 14.2 31.9013 14.2 32.14V32.7H14.76C14.9987 32.7 15.2276 32.7948 15.3964 32.9636C15.5652 33.1324 15.66 33.3613 15.66 33.6V34.15H16.21C16.4487 34.15 16.6776 34.2448 16.8464 34.4136C17.0152 34.5824 17.11 34.8113 17.11 35.05V35.6H17.66C17.8987 35.6 18.1276 35.6948 18.2964 35.8636C18.4652 36.0324 18.56 36.2613 18.56 36.5V37.06H19.12C19.3078 37.0602 19.4907 37.1204 19.6419 37.232C19.793 37.3435 19.9045 37.5005 19.96 37.68L37.91 19.74L28.26 10.09Z" fill="black"/>
<path d="M18.23 38.86H17.67C17.4313 38.86 17.2024 38.7652 17.0336 38.5964C16.8648 38.4276 16.77 38.1987 16.77 37.96V37.4H16.22C15.9813 37.4 15.7524 37.3052 15.5836 37.1364C15.4148 36.9676 15.32 36.7387 15.32 36.5V36H14.77C14.5313 36 14.3024 35.9052 14.1336 35.7364C13.9648 35.5676 13.87 35.3387 13.87 35.1V34.5H13.31C13.0713 34.5 12.8424 34.4052 12.6736 34.2364C12.5048 34.0676 12.41 33.8387 12.41 33.6V33H11.86C11.6213 33 11.3924 32.9052 11.2236 32.7364C11.0548 32.5676 10.96 32.3387 10.96 32.1V31.55H10.41C10.1713 31.55 9.94236 31.4552 9.77358 31.2864C9.6048 31.1176 9.50998 30.8887 9.50998 30.65V30.1H8.99998C8.92138 30.094 8.84399 30.0771 8.76998 30.05C8.77188 30.0733 8.77188 30.0967 8.76998 30.12L6.11998 38.59C5.97866 39.0476 5.9645 39.5351 6.079 40.0001C6.1935 40.4652 6.43235 40.8903 6.76998 41.23C7.26823 41.7219 7.93979 41.9985 8.63998 42C8.9013 42 9.16105 41.9595 9.40998 41.88L17.84 39.32C17.97 39.32 18.1 39.2 18.23 39.14V38.86Z" fill="black"/>
</svg>
