<svg width="48" height="48" viewBox="0 0 48 48" fill="none" xmlns="http://www.w3.org/2000/svg">
<path d="M41.34 12.7101L35.27 6.64006C34.8419 6.23053 34.2724 6.00195 33.68 6.00195C33.0876 6.00195 32.518 6.23053 32.09 6.64006L9.38995 29.3501C9.15668 29.5958 8.9733 29.8845 8.84995 30.2001C8.80992 30.2617 8.77956 30.3292 8.75995 30.4001V30.4501L6.09995 39.0901C5.99674 39.4264 5.97386 39.7823 6.03315 40.1292C6.09243 40.476 6.23223 40.8041 6.44132 41.0871C6.65041 41.3701 6.92296 41.6001 7.23707 41.7587C7.55117 41.9172 7.89809 41.9999 8.24995 42.0001C8.47381 42.0011 8.69646 41.9674 8.90995 41.9001L17.54 39.2701C17.7703 39.2077 17.992 39.1171 18.2 39.0001C18.3159 38.9337 18.4205 38.8493 18.51 38.7501L18.64 38.6601L41.34 15.8901C41.7613 15.4682 41.998 14.8963 41.998 14.3001C41.998 13.7038 41.7613 13.1319 41.34 12.7101ZM39 14.3001L38.25 15.0501L32.94 9.71006L33.68 9.00006L39 14.3001ZM17.86 35.4901C17.7438 35.4748 17.6261 35.4748 17.51 35.4901H17.41V35.3801C17.4168 35.1917 17.3852 35.0038 17.3171 34.828C17.249 34.6522 17.1459 34.4921 17.014 34.3574C16.8821 34.2227 16.7242 34.1163 16.5499 34.0445C16.3756 33.9728 16.1885 33.9372 16 33.9401H15.91V33.8401C15.9113 33.658 15.8766 33.4775 15.8078 33.3089C15.739 33.1403 15.6376 32.987 15.5093 32.8578C15.381 32.7286 15.2285 32.626 15.0604 32.5561C14.8923 32.4861 14.712 32.4501 14.53 32.4501H14.42V32.3501C14.4161 32.168 14.3762 31.9884 14.3026 31.8218C14.229 31.6552 14.1231 31.5048 13.9911 31.3793C13.8591 31.2538 13.7036 31.1557 13.5334 31.0906C13.3633 31.0255 13.182 30.9947 13 31.0001H12.93V30.8901C12.9425 30.5683 12.8397 30.2526 12.64 30.0001L31 11.6701L36.31 17.0001L17.86 35.4901ZM10.71 33.4901C10.9496 33.6781 11.2454 33.7802 11.55 33.7801H11.65V33.8901C11.6626 34.2422 11.8095 34.5761 12.0606 34.8234C12.3116 35.0707 12.6477 35.2126 13 35.2201H13.11V35.3301C13.1099 35.697 13.255 36.049 13.5135 36.3094C13.7721 36.5698 14.123 36.7174 14.49 36.7201H14.6V36.8201C14.5981 36.9631 14.6218 37.1053 14.67 37.2401L8.99995 39.0001L10.71 33.4901Z" fill="black"/>
</svg>
