<svg width="48" height="48" viewBox="0 0 48 48" fill="none" xmlns="http://www.w3.org/2000/svg">
<path d="M8.57469 42C8.06573 42.001 7.56791 41.8509 7.14438 41.5686C6.72085 41.2863 6.39068 40.8845 6.19576 40.4142C6.00085 39.9439 5.94996 39.4263 6.04955 38.9271C6.14914 38.4278 6.39473 37.9694 6.75516 37.61L37.6072 6.74996C38.0897 6.26727 38.7442 5.99609 39.4267 5.99609C40.1091 5.99609 40.7636 6.26727 41.2462 6.74996C41.7288 7.23266 41.9999 7.88733 41.9999 8.56996C41.9999 9.25259 41.7288 9.90727 41.2462 10.39L10.3942 41.25C10.1551 41.4884 9.8713 41.6774 9.55909 41.8061C9.24688 41.9348 8.91237 42.0007 8.57469 42Z" fill="black"/>
<path d="M16.4626 21.6C15.4435 21.6019 14.4467 21.3013 13.5984 20.7362C12.7502 20.1711 12.0888 19.3669 11.6978 18.4254C11.3069 17.484 11.2041 16.4476 11.4024 15.4477C11.6008 14.4478 12.0913 13.5292 12.812 12.8084C13.5327 12.0875 14.451 11.5968 15.4506 11.3984C16.4503 11.2 17.4864 11.3029 18.4276 11.6939C19.3688 12.0849 20.1728 12.7466 20.7378 13.595C21.3027 14.4435 21.6033 15.4405 21.6013 16.46C21.5987 17.8224 21.0564 19.1282 20.0933 20.0916C19.1302 21.0549 17.8247 21.5973 16.4626 21.6Z" fill="black"/>
<path d="M31.5387 36.69C30.5204 36.69 29.525 36.3879 28.6783 35.822C27.8316 35.2561 27.1717 34.4518 26.782 33.5108C26.3923 32.5697 26.2903 31.5342 26.489 30.5352C26.6877 29.5362 27.178 28.6186 27.8981 27.8984C28.6181 27.1781 29.5355 26.6876 30.5343 26.4889C31.533 26.2902 32.5682 26.3922 33.509 26.782C34.4498 27.1718 35.2539 27.8319 35.8197 28.6788C36.3854 29.5257 36.6874 30.5214 36.6874 31.54C36.6874 32.9058 36.1449 34.2157 35.1794 35.1816C34.2138 36.1474 32.9042 36.69 31.5387 36.69Z" fill="black"/>
</svg>
