<svg width="48" height="48" viewBox="0 0 48 48" fill="none" xmlns="http://www.w3.org/2000/svg">
<path d="M41.5885 6.43697C41.4612 6.2992 41.3067 6.18925 41.1348 6.11404C40.9628 6.03883 40.7771 6 40.5893 6C40.4016 6 40.2158 6.03883 40.0439 6.11404C39.8719 6.18925 39.7174 6.2992 39.5902 6.43697L6.4379 39.5689C6.29984 39.6959 6.18965 39.8501 6.11428 40.0217C6.03891 40.1933 6 40.3786 6 40.566C6 40.7533 6.03891 40.9387 6.11428 41.1103C6.18965 41.2819 6.29984 41.436 6.4379 41.563C6.56515 41.7008 6.71964 41.8108 6.89161 41.886C7.06358 41.9612 7.2493 42 7.43706 42C7.62482 42 7.81054 41.9612 7.98251 41.886C8.15448 41.8108 8.30897 41.7008 8.43622 41.563L41.5885 8.38122C41.7187 8.25485 41.8222 8.10371 41.8929 7.93674C41.9636 7.76977 42 7.59035 42 7.40909C42 7.22784 41.9636 7.04842 41.8929 6.88144C41.8222 6.71447 41.7187 6.56334 41.5885 6.43697Z" fill="black"/>
<path d="M15.9 20.0168C18.19 20.0168 20.0465 18.1642 20.0465 15.879C20.0465 13.5938 18.19 11.7413 15.9 11.7413C13.6099 11.7413 11.7534 13.5938 11.7534 15.879C11.7534 18.1642 13.6099 20.0168 15.9 20.0168Z" fill="black"/>
<path d="M32.1264 36.2089C34.4165 36.2089 36.2729 34.3563 36.2729 32.0711C36.2729 29.7859 34.4165 27.9334 32.1264 27.9334C29.8363 27.9334 27.9799 29.7859 27.9799 32.0711C27.9799 34.3563 29.8363 36.2089 32.1264 36.2089Z" fill="black"/>
</svg>
