<svg width="48" height="48" viewBox="0 0 48 48" fill="none" xmlns="http://www.w3.org/2000/svg">
<path d="M26.7752 33.389L27.7754 33.8385L28.7757 32.6498L25.8349 29.7129C22.7742 27.8415 20.2028 25.2702 18.333 22.2109L15.3523 19.2741L14.152 20.273L14.6121 21.2719C17.1373 26.597 21.4369 30.8803 26.7752 33.389Z" fill="black"/>
<path d="M33.767 29.8428L39.1183 32.1403C39.1608 32.1542 39.1967 32.1833 39.2189 32.2221C39.2411 32.2609 39.248 32.3065 39.2383 32.3501L38.9283 33.6687L36.3276 32.41L41.0088 37.0551L41.929 32.9994C42.0762 32.326 41.9864 31.6226 41.6749 31.0075C41.3633 30.3925 40.849 29.9036 40.2186 29.623L32.9467 26.5163C32.5553 26.3506 32.1325 26.272 31.7076 26.2858C31.2827 26.2996 30.8659 26.4055 30.4861 26.5963L33.767 29.8428Z" fill="black"/>
<path d="M35.2273 39.1229C28.4207 38.5736 22.0316 35.624 17.2029 30.8016C12.3742 25.9793 9.42068 19.5987 8.87063 12.801L6.04992 10.024C6.01961 10.1888 6.00288 10.3559 5.99991 10.5234C6.00785 18.8664 9.32998 26.8654 15.2372 32.7648C21.1443 38.6641 29.1539 41.9819 37.5079 41.9898C37.6743 42.0034 37.8416 42.0034 38.008 41.9898L35.2273 39.1229Z" fill="black"/>
<path d="M15.2723 11.3725L14.272 9.11493L15.6424 8.79528C15.6759 8.79428 15.709 8.80324 15.7375 8.82101C15.766 8.83879 15.7886 8.8646 15.8024 8.89517L18.103 14.2594L21.3838 17.5359C21.577 17.1555 21.6842 16.7374 21.6981 16.3111C21.7119 15.8848 21.6319 15.4607 21.4638 15.0686L18.4031 7.80633C18.1292 7.16702 17.6372 6.64547 17.0144 6.3345C16.3916 6.02353 15.6786 5.94332 15.0022 6.10815L10.9412 7.02717L15.2723 11.3725Z" fill="black"/>
<path d="M40.6287 41.9898C40.443 41.9923 40.2586 41.9573 40.0868 41.8869C39.9149 41.8165 39.759 41.7122 39.6284 41.5803L6.41001 8.38571C6.27964 8.25911 6.17602 8.10769 6.10526 7.9404C6.0345 7.77311 5.99805 7.59335 5.99805 7.41175C5.99805 7.23015 6.0345 7.0504 6.10526 6.88311C6.17602 6.71582 6.27964 6.5644 6.41001 6.43779C6.5374 6.29977 6.69206 6.1896 6.86421 6.11425C7.03637 6.0389 7.2223 6 7.41026 6C7.59823 6 7.78415 6.0389 7.95631 6.11425C8.12847 6.1896 8.28312 6.29977 8.41052 6.43779L41.5989 39.6323C41.79 39.8282 41.9189 40.0761 41.9695 40.3448C42.0201 40.6136 41.9901 40.8912 41.8833 41.143C41.7764 41.3948 41.5975 41.6095 41.369 41.7601C41.1405 41.9108 40.8725 41.9907 40.5987 41.9898H40.6287Z" fill="black"/>
</svg>
