<svg width="48" height="48" viewBox="0 0 48 48" fill="none" xmlns="http://www.w3.org/2000/svg">
<path d="M41.9064 33.0036V32.8437C42.0897 32.0851 42.002 31.2865 41.6585 30.5857C41.315 29.8849 40.7373 29.3259 40.0251 29.0052L32.9199 26.0064C32.2859 25.741 31.5854 25.6773 30.9138 25.824C30.2423 25.9707 29.6323 26.3206 29.1671 26.8261L41.9064 33.0036Z" fill="black"/>
<path d="M21.2313 18.7994C21.7239 18.3363 22.0628 17.7336 22.2024 17.0724C22.3419 16.4112 22.2754 15.7232 22.0119 15.1009L19.0097 8.01373C18.7313 7.36715 18.255 6.82535 17.649 6.46615C17.0431 6.10695 16.3387 5.94884 15.6372 6.01454L21.2313 18.7994Z" fill="black"/>
<path d="M26.7854 29.675C23.2157 27.7051 20.277 24.7663 18.3091 21.1984L12.0045 6.81421L8.53198 7.61389C7.80621 7.78598 7.16045 8.19915 6.70047 8.78573C6.24049 9.3723 5.99356 10.0975 6.00013 10.8426C6.00807 19.1019 9.29563 27.0208 15.1415 32.8619C20.9875 38.703 28.9143 41.9894 37.183 42C37.9351 42.0031 38.666 41.7504 39.2553 41.2835C39.8445 40.8166 40.2572 40.1633 40.4254 39.431L41.0758 36.6022L26.7854 29.675Z" fill="black"/>
</svg>
