<svg width="48" height="48" viewBox="0 0 48 48" fill="none" xmlns="http://www.w3.org/2000/svg">
<path d="M40.2101 29.59L32.9401 26.48C32.3545 26.2296 31.7035 26.1762 31.0849 26.3277C30.4664 26.4791 29.9137 26.8274 29.5101 27.32L27.7501 29.47L27.0001 30.4C22.9953 28.2799 19.7202 25.0049 17.6001 21L20.6701 18.49C21.1666 18.0871 21.5182 17.5332 21.6716 16.9125C21.825 16.2917 21.7718 15.6378 21.5201 15.05L18.4001 7.78001C18.1264 7.14001 17.6344 6.6179 17.0118 6.3066C16.3892 5.9953 15.6764 5.91501 15.0001 6.08001L12.0001 6.76001L8.23011 7.63001C7.58962 7.78756 7.02102 8.15662 6.61633 8.67746C6.21164 9.1983 5.99452 9.84045 6.00011 10.5C6.00805 18.8519 9.32934 26.8594 15.235 32.7651C21.1407 38.6708 29.1482 41.9921 37.5001 42C38.1665 42.003 38.8139 41.7787 39.3357 41.3642C39.8574 40.9497 40.2223 40.3698 40.3701 39.72L41.9201 33C42.0748 32.3215 41.9889 31.6103 41.6769 30.9882C41.3649 30.3661 40.8464 29.8718 40.2101 29.59ZM31.8501 29L39.1101 32.12C39.1526 32.1339 39.1884 32.163 39.2106 32.2019C39.2328 32.2407 39.2398 32.2864 39.2301 32.33L38.9201 33.65L31.0001 29.84L31.6201 29.08C31.6415 29.0403 31.6769 29.01 31.7195 28.9952C31.7621 28.9804 31.8087 28.9821 31.8501 29ZM15.6501 8.77001C15.6837 8.76901 15.7168 8.77798 15.7453 8.79577C15.7737 8.81357 15.7963 8.8394 15.8101 8.87001L19.0001 16.14C19.0148 16.1742 19.0179 16.2123 19.0089 16.2485C18.9998 16.2846 18.9792 16.3168 18.9501 16.34L17.8701 17.22L14.2801 9.09001L15.6501 8.77001ZM37.5001 39.23C29.8829 39.2221 22.5799 36.1926 17.1937 30.8064C11.8075 25.4202 8.77805 18.1172 8.77011 10.5C8.76902 10.4611 8.78133 10.4229 8.805 10.392C8.82866 10.361 8.86224 10.3392 8.90011 10.33L11.5301 9.72001L15.6101 19L14.1501 20.2L14.6101 21.2C17.1234 26.5532 21.4231 30.8636 26.7701 33.39L27.7701 33.84L29.2301 32L38.2801 36.4L37.6701 39.06C37.6657 39.1036 37.6464 39.1443 37.6154 39.1753C37.5844 39.2063 37.5437 39.2256 37.5001 39.23Z" fill="black"/>
<path d="M28.8201 18H31.5901V20.76C31.5738 20.9518 31.5975 21.1449 31.6597 21.327C31.7219 21.5091 31.8212 21.6764 31.9514 21.8181C32.0816 21.9599 32.2398 22.073 32.4161 22.1504C32.5923 22.2278 32.7826 22.2678 32.9751 22.2678C33.1676 22.2678 33.3579 22.2278 33.5342 22.1504C33.7104 22.073 33.8686 21.9599 33.9988 21.8181C34.129 21.6764 34.2283 21.5091 34.2905 21.327C34.3527 21.1449 34.3764 20.9518 34.3601 20.76V18H37.1301C37.4771 17.9705 37.8004 17.8118 38.036 17.5553C38.2716 17.2988 38.4023 16.9633 38.4023 16.615C38.4023 16.2668 38.2716 15.9312 38.036 15.6747C37.8004 15.4182 37.4771 15.2595 37.1301 15.23H34.3601V12.46C34.3764 12.2682 34.3527 12.0752 34.2905 11.893C34.2283 11.7109 34.129 11.5437 33.9988 11.4019C33.8686 11.2602 33.7104 11.147 33.5342 11.0696C33.3579 10.9922 33.1676 10.9522 32.9751 10.9522C32.7826 10.9522 32.5923 10.9922 32.4161 11.0696C32.2398 11.147 32.0816 11.2602 31.9514 11.4019C31.8212 11.5437 31.7219 11.7109 31.6597 11.893C31.5975 12.0752 31.5738 12.2682 31.5901 12.46V15.23H28.8201C28.4731 15.2595 28.1498 15.4182 27.9142 15.6747C27.6786 15.9312 27.5479 16.2668 27.5479 16.615C27.5479 16.9633 27.6786 17.2988 27.9142 17.5553C28.1498 17.8118 28.4731 17.9705 28.8201 18Z" fill="black"/>
</svg>
