<svg width="48" height="48" viewBox="0 0 48 48" fill="none" xmlns="http://www.w3.org/2000/svg">
<path d="M40.21 29.59L32.94 26.48C32.3544 26.2296 31.7034 26.1762 31.0848 26.3277C30.4662 26.4791 29.9136 26.8274 29.51 27.32L27.75 29.47L27 30.4C22.9951 28.2799 19.7201 25.0049 17.6 21L20.67 18.49C21.1665 18.0871 21.5181 17.5332 21.6715 16.9125C21.8249 16.2917 21.7717 15.6378 21.52 15.05L18.4 7.78001C18.1262 7.14001 17.6343 6.6179 17.0117 6.3066C16.3891 5.9953 15.6762 5.91501 15 6.08001L12 6.76001L8.22998 7.63001C7.58949 7.78756 7.0209 8.15662 6.61621 8.67746C6.21151 9.1983 5.9944 9.84045 5.99998 10.5C6.00793 18.8519 9.32922 26.8594 15.2349 32.7651C21.1406 38.6708 29.1481 41.9921 37.5 42C38.1663 42.003 38.8138 41.7787 39.3355 41.3642C39.8573 40.9497 40.2222 40.3698 40.37 39.72L41.92 33C42.0747 32.3215 41.9887 31.6103 41.6768 30.9882C41.3648 30.3661 40.8463 29.8718 40.21 29.59ZM31.85 29L39.11 32.12C39.1525 32.1339 39.1883 32.163 39.2105 32.2019C39.2327 32.2407 39.2396 32.2864 39.23 32.33L38.92 33.65L31 29.84L31.62 29.08C31.6413 29.0403 31.6768 29.01 31.7194 28.9952C31.762 28.9804 31.8086 28.9821 31.85 29ZM15.65 8.77001C15.6835 8.76901 15.7167 8.77798 15.7451 8.79577C15.7736 8.81357 15.7962 8.8394 15.81 8.87001L19 16.14C19.0147 16.1742 19.0178 16.2123 19.0088 16.2485C18.9997 16.2846 18.9791 16.3168 18.95 16.34L17.87 17.22L14.28 9.09001L15.65 8.77001ZM37.5 39.23C29.8828 39.2221 22.5798 36.1926 17.1936 30.8064C11.8074 25.4202 8.77792 18.1172 8.76998 10.5C8.76889 10.4611 8.78121 10.4229 8.80488 10.392C8.82854 10.361 8.86212 10.3392 8.89998 10.33L11.53 9.72001L15.61 19L14.15 20.2L14.61 21.2C17.1233 26.5532 21.423 30.8636 26.77 33.39L27.77 33.84L29.23 32L38.28 36.4L37.67 39.06C37.6656 39.1036 37.6463 39.1443 37.6153 39.1753C37.5843 39.2063 37.5436 39.2256 37.5 39.23Z" fill="black"/>
<path d="M27.54 21.29C27.6094 21.4583 27.7113 21.6112 27.84 21.7399C27.9688 21.8687 28.1217 21.9706 28.29 22.04C28.4526 22.1038 28.6253 22.1377 28.8 22.14H35.6C35.7918 22.1563 35.9848 22.1326 36.167 22.0704C36.3491 22.0082 36.5163 21.9089 36.6581 21.7787C36.7998 21.6485 36.913 21.4903 36.9904 21.3141C37.0678 21.1378 37.1078 20.9475 37.1078 20.755C37.1078 20.5625 37.0678 20.3722 36.9904 20.196C36.913 20.0197 36.7998 19.8615 36.6581 19.7313C36.5163 19.6011 36.3491 19.5018 36.167 19.4396C35.9848 19.3774 35.7918 19.3537 35.6 19.37H32.16L38.11 13.43C38.3752 13.1648 38.5242 12.8051 38.5242 12.43C38.5242 12.0549 38.3752 11.6952 38.11 11.43C37.8448 11.1648 37.4851 11.0158 37.11 11.0158C36.7349 11.0158 36.3752 11.1648 36.11 11.43L30.2 17.42V14C30.2 13.8188 30.1643 13.6393 30.0949 13.4719C30.0256 13.3045 29.9239 13.1523 29.7958 13.0242C29.6676 12.8961 29.5155 12.7944 29.3481 12.7251C29.1807 12.6557 29.0012 12.62 28.82 12.62C28.6388 12.62 28.4593 12.6557 28.2919 12.7251C28.1245 12.7944 27.9723 12.8961 27.8442 13.0242C27.716 13.1523 27.6144 13.3045 27.545 13.4719C27.4757 13.6393 27.44 13.8188 27.44 14V20.78C27.4389 20.9541 27.4694 21.1268 27.53 21.29H27.54Z" fill="black"/>
</svg>
