<svg width="48" height="48" viewBox="0 0 48 48" fill="none" xmlns="http://www.w3.org/2000/svg">
<path d="M40.21 29.59L32.94 26.48C32.3544 26.2296 31.7034 26.1762 31.0848 26.3277C30.4662 26.4791 29.9136 26.8274 29.51 27.32L27.75 29.47L27 30.4C22.9951 28.2799 19.7201 25.0049 17.6 21L20.67 18.49C21.1665 18.0871 21.5181 17.5332 21.6715 16.9125C21.8249 16.2917 21.7717 15.6378 21.52 15.05L18.4 7.78001C18.1262 7.14001 17.6343 6.6179 17.0117 6.3066C16.3891 5.9953 15.6762 5.91501 15 6.08001L12 6.76001L8.22998 7.63001C7.58949 7.78756 7.0209 8.15662 6.61621 8.67746C6.21151 9.1983 5.9944 9.84045 5.99998 10.5C6.00793 18.8519 9.32922 26.8594 15.2349 32.7651C21.1406 38.6708 29.1481 41.9921 37.5 42C38.1663 42.003 38.8138 41.7787 39.3355 41.3642C39.8573 40.9497 40.2222 40.3698 40.37 39.72L41.92 33C42.0747 32.3215 41.9887 31.6103 41.6768 30.9882C41.3648 30.3661 40.8463 29.8718 40.21 29.59ZM31.85 29L39.11 32.12C39.1525 32.1339 39.1883 32.163 39.2105 32.2019C39.2327 32.2407 39.2396 32.2864 39.23 32.33L38.92 33.65L31 29.84L31.62 29.08C31.6413 29.0403 31.6768 29.01 31.7194 28.9952C31.762 28.9804 31.8086 28.9821 31.85 29ZM15.65 8.77001C15.6835 8.76901 15.7167 8.77798 15.7451 8.79577C15.7736 8.81357 15.7962 8.8394 15.81 8.87001L19 16.14C19.0147 16.1742 19.0178 16.2123 19.0088 16.2485C18.9997 16.2846 18.9791 16.3168 18.95 16.34L17.87 17.22L14.28 9.09001L15.65 8.77001ZM37.5 39.23C29.8828 39.2221 22.5798 36.1926 17.1936 30.8064C11.8074 25.4202 8.77792 18.1172 8.76998 10.5C8.76889 10.4611 8.78121 10.4229 8.80488 10.392C8.82854 10.361 8.86212 10.3392 8.89998 10.33L11.53 9.72001L15.61 19L14.15 20.2L14.61 21.2C17.1233 26.5532 21.423 30.8636 26.77 33.39L27.77 33.84L29.23 32L38.28 36.4L37.67 39.06C37.6656 39.1036 37.6463 39.1443 37.6153 39.1753C37.5843 39.2063 37.5436 39.2256 37.5 39.23Z" fill="black"/>
<path d="M28.82 18H37.13C37.477 17.9705 37.8003 17.8118 38.0359 17.5553C38.2715 17.2988 38.4022 16.9633 38.4022 16.615C38.4022 16.2667 38.2715 15.9312 38.0359 15.6747C37.8003 15.4182 37.477 15.2595 37.13 15.23H28.82C28.473 15.2595 28.1497 15.4182 27.9141 15.6747C27.6785 15.9312 27.5478 16.2667 27.5478 16.615C27.5478 16.9633 27.6785 17.2988 27.9141 17.5553C28.1497 17.8118 28.473 17.9705 28.82 18Z" fill="black"/>
</svg>
