<svg width="48" height="48" viewBox="0 0 48 48" fill="none" xmlns="http://www.w3.org/2000/svg">
<path d="M40.0251 29.0052L32.9199 26.0064C32.2859 25.741 31.5854 25.6773 30.9138 25.824C30.2423 25.9707 29.6323 26.3206 29.1671 26.8261L41.9064 33.0036V32.8437C42.0897 32.0851 42.002 31.2865 41.6585 30.5857C41.315 29.8849 40.7373 29.3259 40.0251 29.0052Z" fill="black"/>
<path d="M22.0119 15.1009L19.0097 8.01373C18.7313 7.36715 18.255 6.82535 17.649 6.46615C17.0431 6.10695 16.3387 5.94884 15.6372 6.01454L21.2313 18.7894C21.7219 18.327 22.0595 17.7262 22.199 17.067C22.3385 16.4079 22.2732 15.7219 22.0119 15.1009Z" fill="black"/>
<path d="M26.8154 29.675C23.2457 27.7051 20.307 24.7663 18.3392 21.1984L12.0045 6.81421L8.53198 7.61389C7.80621 7.78598 7.16045 8.19915 6.70047 8.78573C6.24049 9.3723 5.99356 10.0975 6.00013 10.8426C6.00807 19.1019 9.29563 27.0208 15.1415 32.8619C20.9875 38.703 28.9143 41.9894 37.183 42C37.9351 42.0031 38.666 41.7504 39.2553 41.2835C39.8445 40.8166 40.2572 40.1633 40.4254 39.431L41.0758 36.6022L26.7854 29.675H26.8154Z" fill="black"/>
<path d="M26.1349 21.6182C26.1349 21.7082 26.1849 21.7982 26.2149 21.8781C26.259 21.9713 26.3091 22.0614 26.3651 22.148C26.3923 22.2175 26.4258 22.2844 26.4651 22.3479C26.6687 22.6404 26.9229 22.8942 27.2157 23.0976L27.4058 23.1976C27.4959 23.2535 27.5895 23.3036 27.686 23.3475L27.9462 23.4275L28.1864 23.4975C28.3614 23.5294 28.5389 23.5462 28.7168 23.5474H35.3316C36.0482 23.5474 36.7355 23.2631 37.2422 22.7569C37.7489 22.2508 38.0336 21.5643 38.0336 20.8485C38.0336 20.1327 37.7489 19.4463 37.2422 18.9401C36.7355 18.434 36.0482 18.1496 35.3316 18.1496H35.2416L38.7341 14.661C39.2411 14.1547 39.5259 13.4679 39.5259 12.7518C39.5259 12.0357 39.2411 11.3489 38.7341 10.8426C38.2272 10.3362 37.5396 10.0518 36.8227 10.0518C36.1058 10.0518 35.4183 10.3362 34.9113 10.8426L31.4188 14.3312V14.2412C31.4188 13.5254 31.1341 12.8389 30.6274 12.3328C30.1206 11.8266 29.4334 11.5423 28.7168 11.5423C28.0002 11.5423 27.3129 11.8266 26.8062 12.3328C26.2995 12.8389 26.0148 13.5254 26.0148 14.2412V20.8485C26.0161 21.0262 26.0328 21.2035 26.0648 21.3783C26.0848 21.4583 26.1149 21.5383 26.1349 21.6182Z" fill="black"/>
</svg>
