<svg width="48" height="48" viewBox="0 0 48 48" fill="none" xmlns="http://www.w3.org/2000/svg">
<path d="M40.0251 29.0052L32.9199 26.0064C32.2859 25.741 31.5854 25.6773 30.9138 25.824C30.2423 25.9707 29.6323 26.3206 29.1671 26.8261L41.9064 33.0036V32.8437C42.0897 32.0851 42.002 31.2865 41.6585 30.5857C41.315 29.8849 40.7373 29.3259 40.0251 29.0052Z" fill="black"/>
<path d="M22.0119 15.1009L19.0097 8.01373C18.7313 7.36715 18.255 6.82535 17.649 6.46615C17.0431 6.10695 16.3387 5.94884 15.6372 6.01454L21.2313 18.7894C21.7219 18.327 22.0595 17.7262 22.199 17.067C22.3385 16.4079 22.2732 15.7219 22.0119 15.1009Z" fill="black"/>
<path d="M26.8154 29.675C23.2457 27.7051 20.307 24.7663 18.3392 21.1984L12.0045 6.81421L8.53198 7.61389C7.80621 7.78598 7.16045 8.19915 6.70047 8.78573C6.24049 9.3723 5.99356 10.0975 6.00013 10.8426C6.00807 19.1019 9.29563 27.0208 15.1415 32.8619C20.9875 38.703 28.9143 41.9894 37.183 42C37.9351 42.0031 38.666 41.7504 39.2553 41.2835C39.8445 40.8166 40.2572 40.1633 40.4254 39.431L41.0758 36.6022L26.7854 29.675H26.8154Z" fill="black"/>
<path d="M28.7168 23.5474C29.0718 23.5482 29.4234 23.4788 29.7514 23.3433C30.0795 23.2078 30.3774 23.0088 30.6282 22.7578L34.1207 19.2692V19.3591C34.1207 20.0749 34.4054 20.7614 34.9121 21.2676C35.4188 21.7737 36.1061 22.058 36.8227 22.058C37.5393 22.058 38.2266 21.7737 38.7333 21.2676C39.24 20.7614 39.5247 20.0749 39.5247 19.3591V12.7518C39.5395 12.5755 39.5395 12.3983 39.5247 12.222C39.5247 12.1421 39.4747 12.0621 39.4547 11.9821C39.4306 11.8935 39.4005 11.8067 39.3646 11.7222C39.3239 11.6293 39.2771 11.5391 39.2245 11.4523C39.1938 11.3826 39.157 11.3157 39.1144 11.2524C38.9167 10.9551 38.6615 10.7002 38.3638 10.5027L38.1837 10.4028L37.9035 10.2528L37.6433 10.1729L37.4031 10.1029C37.2267 10.0881 37.0492 10.0881 36.8728 10.1029H30.2079C29.4913 10.1029 28.804 10.3872 28.2973 10.8934C27.7906 11.3995 27.5059 12.086 27.5059 12.8018C27.5059 13.5176 27.7906 14.2041 28.2973 14.7102C28.804 15.2164 29.4913 15.5007 30.2079 15.5007H30.2979L26.8054 18.9893C26.4272 19.3667 26.1696 19.8478 26.0652 20.3715C25.9608 20.8953 26.0143 21.4382 26.2189 21.9316C26.4236 22.4249 26.7701 22.8466 27.2148 23.1431C27.6594 23.4396 28.1821 23.5977 28.7168 23.5974V23.5474Z" fill="black"/>
</svg>
