<svg width="48" height="48" viewBox="0 0 48 48" fill="none" xmlns="http://www.w3.org/2000/svg">
<path d="M22.2397 16.1909C22.224 15.8197 22.1428 15.4542 21.9997 15.1113L19.0005 8.01434C18.7237 7.36682 18.2481 6.82413 17.6424 6.46474C17.0367 6.10535 16.3324 5.94791 15.6314 6.01518L18.3907 12.3125L22.2397 16.1909Z" fill="black"/>
<path d="M36.416 30.3549L41.8746 33.0038V32.8439C42.0556 32.0854 41.9671 31.2876 41.6242 30.5872C41.2813 29.8869 40.7053 29.3276 39.995 29.0055L32.8969 26.0067C32.5527 25.866 32.1882 25.7816 31.8172 25.7568L36.416 30.3549Z" fill="black"/>
<path d="M6.00387 12.1126C6.32384 19.9385 9.57725 27.3574 15.1174 32.8949C20.6576 38.4323 28.0789 41.6827 35.9061 42L6.00387 12.1126Z" fill="black"/>
<path d="M39.4252 42C39.0875 42.0007 38.753 41.9349 38.4408 41.8062C38.1286 41.6776 37.8448 41.4887 37.6057 41.2503L6.75367 10.4033C6.2711 9.92084 6 9.26644 6 8.5841C6 7.90175 6.2711 7.24735 6.75367 6.76486C7.23624 6.28237 7.89075 6.01131 8.5732 6.01131C9.25566 6.01131 9.91016 6.28237 10.3927 6.76486L41.2447 37.6118C41.6051 37.9711 41.8507 38.4294 41.9503 38.9284C42.0499 39.4274 41.999 39.9448 41.8041 40.4149C41.6092 40.885 41.279 41.2866 40.8555 41.5688C40.432 41.851 39.9342 42.0011 39.4252 42Z" fill="black"/>
</svg>
