<svg width="48" height="48" viewBox="0 0 48 48" fill="none" xmlns="http://www.w3.org/2000/svg">
<path fill-rule="evenodd" clip-rule="evenodd" d="M33.83 20.75C34.3898 20.679 34.9554 20.8258 35.41 21.16C35.5411 21.379 35.6232 21.6238 35.6509 21.8775C35.6785 22.1312 35.6509 22.3879 35.57 22.63C35.4958 23.254 35.1973 23.8298 34.73 24.25C34.1523 24.6157 33.4716 24.7841 32.79 24.73H31.66L32.43 20.73L33.83 20.75ZM38.37 22.88C38.5191 22.3507 38.5426 21.7939 38.4384 21.2539C38.3342 20.714 38.1053 20.2058 37.77 19.77C37.3694 19.3729 36.8875 19.0672 36.3576 18.8739C35.8277 18.6806 35.2622 18.6042 34.7 18.65H30.28C30.2297 18.6515 30.1814 18.6701 30.1432 18.7029C30.105 18.7356 30.0791 18.7805 30.07 18.83L28 29.37C27.9879 29.3985 27.9817 29.4291 27.9817 29.46C27.9817 29.4909 27.9879 29.5215 28 29.55C28.0211 29.5745 28.0472 29.5944 28.0765 29.6082C28.1058 29.6219 28.1376 29.6294 28.17 29.63H30.47C30.5209 29.6305 30.5702 29.6126 30.6088 29.5795C30.6474 29.5463 30.6727 29.5003 30.68 29.45L31.19 26.83H33C33.7472 26.8483 34.4928 26.7505 35.21 26.54C35.8152 26.3324 36.3657 25.9905 36.82 25.54C37.2166 25.1858 37.5542 24.7706 37.82 24.31C38.071 23.8622 38.2562 23.3806 38.37 22.88ZM25.54 26.75C25.5602 26.7756 25.586 26.7962 25.6156 26.8101C25.6451 26.824 25.6774 26.8308 25.71 26.83H28C28.0503 26.8285 28.0986 26.8099 28.1368 26.7771C28.175 26.7444 28.2009 26.6995 28.21 26.65L29.21 21.74C29.3432 21.3369 29.3662 20.9055 29.2765 20.4905C29.1868 20.0756 28.9878 19.6921 28.7 19.38C27.8899 18.8051 26.8979 18.5456 25.91 18.65H24.13L24.62 16.11C24.6327 16.0817 24.6393 16.051 24.6393 16.02C24.6393 15.989 24.6327 15.9583 24.62 15.93C24.5989 15.9055 24.5728 15.8856 24.5435 15.8718C24.5142 15.8581 24.4824 15.8506 24.45 15.85H22.13C22.0806 15.8491 22.0324 15.8656 21.994 15.8967C21.9556 15.9278 21.9294 15.9715 21.92 16.02L19.87 26.57C19.8579 26.5985 19.8517 26.6291 19.8517 26.66C19.8517 26.6909 19.8579 26.7215 19.87 26.75C19.9141 26.7978 19.9751 26.8265 20.04 26.83H22.32C22.3703 26.8285 22.4186 26.8099 22.4568 26.7771C22.495 26.7444 22.5209 26.6995 22.53 26.65L23.67 20.79H25.32C25.99 20.79 26.22 20.92 26.32 21.01C26.3899 21.1465 26.4312 21.2958 26.4415 21.4488C26.4519 21.6018 26.4309 21.7553 26.38 21.9L25.47 26.57C25.4686 26.6032 25.474 26.6364 25.4861 26.6674C25.4981 26.6983 25.5165 26.7265 25.54 26.75ZM18.93 25.58C19.3266 25.2258 19.6642 24.8106 19.93 24.35C20.1863 23.8925 20.3653 23.3958 20.46 22.88C20.6115 22.3509 20.6362 21.7936 20.5319 21.2532C20.4277 20.7129 20.1975 20.2047 19.86 19.77C19.4601 19.3718 18.9784 19.0654 18.4483 18.872C17.9182 18.6786 17.3523 18.6028 16.79 18.65H12.35C12.2997 18.6515 12.2514 18.6701 12.2132 18.7029C12.175 18.7356 12.1491 18.7805 12.14 18.83L10.09 29.37C10.0666 29.4277 10.0666 29.4923 10.09 29.55C10.1091 29.5743 10.1334 29.5941 10.1611 29.6079C10.1887 29.6217 10.2191 29.6293 10.25 29.63H12.6C12.6509 29.6305 12.7002 29.6126 12.7388 29.5795C12.7774 29.5463 12.8027 29.5003 12.81 29.45L13.32 26.83H15.11C15.8572 26.8483 16.6028 26.7505 17.32 26.54C17.9216 26.3441 18.4717 26.0161 18.93 25.58ZM24 13C35.05 13 44 17.71 44 23.52C44 29.33 35.05 34 24 34C12.95 34 4 29.33 4 23.52C4 17.71 13 13 24 13ZM15.9 20.75C16.4598 20.6779 17.0258 20.8248 17.48 21.16C17.6156 21.3772 17.7005 21.6222 17.7282 21.8767C17.7559 22.1312 17.7258 22.3887 17.64 22.63C17.5658 23.254 17.2673 23.8298 16.8 24.25C16.2254 24.6142 15.5483 24.7826 14.87 24.73H13.73L14.51 20.73L15.9 20.75Z" fill="black"/>
</svg>
