<svg width="48" height="48" viewBox="0 0 48 48" fill="none" xmlns="http://www.w3.org/2000/svg">
<path d="M22.16 44C17.3437 44 12.7246 42.0867 9.31894 38.6811C5.91328 35.2754 4 30.6563 4 25.84C4 21.0237 5.91328 16.4046 9.31894 12.9989C12.7246 9.59328 17.3437 7.68 22.16 7.68H23.56V24.44H40.32V25.84C40.3147 30.6547 38.3997 35.2707 34.9952 38.6752C31.5907 42.0797 26.9747 43.9947 22.16 44ZM20.77 10.53C17.8609 10.7948 15.0874 11.8831 12.7746 13.6675C10.4617 15.4519 8.70529 17.8585 7.71101 20.6052C6.71672 23.352 6.52578 26.3252 7.16053 29.1766C7.79529 32.0279 9.22947 34.6394 11.295 36.705C13.3606 38.7705 15.9721 40.2047 18.8234 40.8395C21.6748 41.4742 24.648 41.2833 27.3948 40.289C30.1415 39.2947 32.5481 37.5383 34.3325 35.2254C36.1169 32.9126 37.2052 30.1391 37.47 27.23H20.77V10.53Z" fill="black"/>
<path d="M44 23.56H24.44V4H25.84C30.6539 4.00793 35.2684 5.92376 38.6723 9.3277C42.0762 12.7316 43.9921 17.3461 44 22.16V23.56ZM27.23 20.77H41.15C40.8178 17.1904 39.2445 13.8396 36.7025 11.2975C34.1604 8.7555 30.8096 7.18222 27.23 6.85V20.77Z" fill="black"/>
</svg>
