<svg width="48" height="48" viewBox="0 0 48 48" fill="none" xmlns="http://www.w3.org/2000/svg">
<path d="M23.2449 9.14871H21.4254C17.9789 9.14871 14.6099 10.1707 11.7442 12.0855C8.8786 14.0002 6.64512 16.7217 5.32621 19.9058C4.00731 23.09 3.66222 26.5937 4.33459 29.9739C5.00696 33.3542 6.6666 36.4591 9.10362 38.8961C11.5406 41.3332 14.6456 42.9928 18.0258 43.6652C21.4061 44.3375 24.9098 43.9924 28.0939 42.6735C31.278 41.3546 33.9995 39.1211 35.9143 36.2555C37.829 33.3899 38.851 30.0208 38.851 26.5744V24.7548H23.2449V9.14871Z" fill="black"/>
<path d="M26.5841 4H24.7646V23.2352H43.9998V21.4156C43.9918 16.7992 42.1544 12.374 38.8901 9.10968C35.6257 5.84533 31.2006 4.00793 26.5841 4Z" fill="black"/>
</svg>
