<svg width="48" height="48" viewBox="0 0 48 48" fill="none" xmlns="http://www.w3.org/2000/svg">
<path d="M24.13 4.00001C20.3841 4.0053 16.7932 5.4957 14.1444 8.14444C11.4957 10.7932 10.0053 14.3841 10 18.13C10 24.13 13.43 30.71 16.3 35.13C17.6345 37.1863 19.0835 39.1661 20.64 41.06C23 43.89 23.36 44 24.13 44C24.9 44 25.31 43.89 27.63 41.08C29.1968 39.1869 30.6557 37.2071 32 35.15C34.87 30.71 38.3 24.15 38.3 18.15C38.3 16.2901 37.9333 14.4485 37.221 12.7304C36.5086 11.0124 35.4646 9.45159 34.1485 8.13738C32.8324 6.82317 31.2702 5.7813 29.5511 5.07137C27.832 4.36145 25.9899 3.99739 24.13 4.00001ZM24.13 23.15C23.1411 23.15 22.1744 22.8568 21.3521 22.3074C20.5299 21.758 19.889 20.9771 19.5106 20.0634C19.1322 19.1498 19.0331 18.1445 19.2261 17.1746C19.419 16.2047 19.8952 15.3137 20.5945 14.6145C21.2937 13.9152 22.1846 13.439 23.1545 13.2461C24.1245 13.0532 25.1298 13.1522 26.0434 13.5306C26.957 13.9091 27.7379 14.5499 28.2873 15.3722C28.8368 16.1944 29.13 17.1611 29.13 18.15C29.13 19.4761 28.6032 20.7479 27.6655 21.6855C26.7279 22.6232 25.4561 23.15 24.13 23.15Z" fill="black"/>
</svg>
