<svg width="48" height="48" viewBox="0 0 48 48" fill="none" xmlns="http://www.w3.org/2000/svg">
<path d="M24 44C22.21 44 16.43 35.24 16.37 35.15C13.46 30.66 10 24 10 18C10 14.287 11.475 10.726 14.1005 8.1005C16.726 5.475 20.287 4 24 4C27.713 4 31.274 5.475 33.8995 8.1005C36.525 10.726 38 14.287 38 18C38 24 34.54 30.66 31.63 35.15C31.56 35.24 25.78 44 24 44ZM24 6.79C21.0277 6.79265 18.178 7.97455 16.0763 10.0763C13.9745 12.178 12.7926 15.0277 12.79 18C12.79 26.73 21.26 37.57 24 40.65C26.73 37.57 35.2 26.74 35.2 18C35.1974 15.0295 34.0168 12.1812 31.9173 10.0798C29.8177 7.97836 26.9705 6.79529 24 6.79Z" fill="black"/>
<path d="M24 24.53C22.7085 24.53 21.446 24.147 20.3721 23.4295C19.2983 22.712 18.4613 21.6921 17.9671 20.4989C17.4728 19.3057 17.3435 17.9928 17.5955 16.7261C17.8474 15.4594 18.4694 14.2958 19.3826 13.3826C20.2958 12.4694 21.4594 11.8474 22.7261 11.5955C23.9928 11.3435 25.3057 11.4728 26.4989 11.9671C27.6921 12.4613 28.712 13.2983 29.4295 14.3721C30.147 15.446 30.53 16.7085 30.53 18C30.5274 19.7311 29.8385 21.3904 28.6145 22.6145C27.3904 23.8385 25.7311 24.5274 24 24.53ZM24 14.26C23.2603 14.26 22.5372 14.4793 21.9222 14.8903C21.3071 15.3013 20.8278 15.8854 20.5447 16.5688C20.2616 17.2522 20.1876 18.0041 20.3319 18.7296C20.4762 19.4551 20.8324 20.1215 21.3554 20.6446C21.8785 21.1676 22.5449 21.5238 23.2704 21.6681C23.9959 21.8124 24.7478 21.7384 25.4312 21.4553C26.1146 21.1722 26.6987 20.6929 27.1097 20.0778C27.5207 19.4628 27.74 18.7397 27.74 18C27.7413 17.5085 27.6455 17.0216 27.458 16.5672C27.2705 16.1129 26.9951 15.7 26.6475 15.3525C26.3 15.0049 25.8871 14.7295 25.4328 14.542C24.9784 14.3545 24.4915 14.2587 24 14.26Z" fill="black"/>
</svg>
