<svg width="48" height="48" viewBox="0 0 48 48" fill="none" xmlns="http://www.w3.org/2000/svg">
<path fill-rule="evenodd" clip-rule="evenodd" d="M24.025 4.00024C19.3743 4.01211 14.873 5.6444 11.2957 8.61631C7.71838 11.5882 5.2886 15.7139 4.42437 20.2837C3.56014 24.8534 4.3155 29.5815 6.5605 33.6545C8.8055 37.7276 12.3998 40.8909 16.725 42.6002C16.4605 40.6945 16.4808 38.76 16.785 36.8602C17.145 35.3002 19.125 26.9302 19.125 26.9302C18.7188 25.9831 18.5177 24.9607 18.535 23.9302C18.535 21.1502 20.145 19.0802 22.155 19.0802C22.5131 19.0748 22.8683 19.1461 23.1966 19.2893C23.5249 19.4325 23.8187 19.6443 24.0584 19.9105C24.298 20.1767 24.4779 20.4911 24.586 20.8325C24.6941 21.174 24.7278 21.5346 24.685 21.8902C24.685 23.6002 23.595 26.1602 23.025 28.5502C22.9123 28.9944 22.9061 29.4589 23.0069 29.9059C23.1077 30.3529 23.3127 30.7698 23.6051 31.1226C23.8975 31.4754 24.269 31.7542 24.6896 31.9363C25.1101 32.1183 25.5676 32.1985 26.025 32.1702C29.575 32.1702 32.305 28.4202 32.305 23.0202C32.305 18.2402 28.865 14.9002 23.945 14.9002C22.7779 14.8516 21.6131 15.04 20.5209 15.4543C19.4287 15.8685 18.4319 16.4999 17.5907 17.3103C16.7494 18.1207 16.0812 19.0933 15.6265 20.1692C15.1718 21.2452 14.9399 22.4022 14.945 23.5702C14.944 25.2054 15.4623 26.7986 16.425 28.1202C16.4943 28.1978 16.5427 28.2918 16.5654 28.3933C16.5882 28.4949 16.5846 28.6005 16.555 28.7002C16.405 29.3202 16.055 30.7002 15.995 30.9702C15.935 31.2402 15.695 31.4102 15.315 31.2302C12.815 30.0602 11.255 26.4302 11.255 23.4802C11.255 17.1802 15.825 11.3902 24.465 11.3902C31.325 11.4302 36.725 16.3702 36.725 23.0002C36.725 29.8902 32.385 35.4302 26.365 35.4302C25.4695 35.4645 24.58 35.2715 23.7791 34.8694C22.9783 34.4672 22.2923 33.8689 21.785 33.1302C21.785 33.1302 20.785 36.9502 20.535 37.8902C19.9357 39.7347 19.0915 41.4904 18.025 43.1102C20.7715 43.958 23.6684 44.2039 26.5185 43.831C29.3685 43.4581 32.1047 42.4753 34.5407 40.9495C36.9766 39.4237 39.055 37.3908 40.6344 34.9892C42.2137 32.5877 43.2568 29.8739 43.6927 27.0328C44.1286 24.1917 43.9469 21.29 43.1601 18.5254C42.3734 15.7609 40.9999 13.1984 39.1334 11.0125C37.2669 8.82668 34.9511 7.06883 32.3439 5.85874C29.7367 4.64865 26.8993 4.01476 24.025 4.00024Z" fill="black"/>
</svg>
