<svg width="48" height="48" viewBox="0 0 48 48" fill="none" xmlns="http://www.w3.org/2000/svg">
<path fill-rule="evenodd" clip-rule="evenodd" d="M25.92 29.62C25.2305 29.6364 24.548 29.4781 23.9361 29.1599C23.3241 28.8417 22.8026 28.3739 22.42 27.8C21.27 32.36 21.36 33.05 18.82 36.53C18.56 36.62 18.64 36.65 18.47 36.45C18.38 35.5 18.24 34.56 18.24 33.61C18.24 30.52 19.67 26.05 20.36 23.05C20.0145 22.2421 19.8506 21.3682 19.88 20.49C19.88 16.49 24.62 15.84 24.62 19.19C24.62 21.19 23.29 23 23.29 24.91C23.2938 25.2094 23.3575 25.5049 23.4774 25.7792C23.5974 26.0535 23.7711 26.301 23.9883 26.507C24.2055 26.7131 24.4618 26.8735 24.7421 26.9787C25.0223 27.084 25.3209 27.1321 25.62 27.12C29.1 27.12 30.18 22.12 30.18 19.41C30.18 15.82 27.64 13.87 24.18 13.87C23.2521 13.8345 22.3267 13.9886 21.4604 14.3229C20.5941 14.6572 19.805 15.1646 19.1414 15.8141C18.4778 16.4637 17.9536 17.2417 17.6009 18.1007C17.2482 18.9597 17.0744 19.8816 17.09 20.81C17.09 22.81 18.28 23.81 18.28 24.23C18.28 24.65 18 26 17.52 26C16.31 26 14.31 24 14.31 20.42C14.31 14.83 19.43 11.42 24.61 11.42C29.36 11.42 33.69 14.69 33.69 19.71C33.69 24.4 31.29 29.62 25.92 29.62ZM39.94 6H8.06C7.51365 6 6.98968 6.21704 6.60336 6.60336C6.21704 6.98968 6 7.51365 6 8.06V39.94C6 40.4863 6.21704 41.0103 6.60336 41.3966C6.98968 41.783 7.51365 42 8.06 42H39.94C40.4863 42 41.0103 41.783 41.3966 41.3966C41.783 41.0103 42 40.4863 42 39.94V8.06C42 7.51365 41.783 6.98968 41.3966 6.60336C41.0103 6.21704 40.4863 6 39.94 6Z" fill="black"/>
</svg>
