<svg width="48" height="48" viewBox="0 0 48 48" fill="none" xmlns="http://www.w3.org/2000/svg">
<path fill-rule="evenodd" clip-rule="evenodd" d="M25.35 4C17.13 4 9 9.48 9 18.35C9 24 12.17 27.2 14.1 27.2C14.89 27.2 15.35 24.99 15.35 24.36C15.35 23.73 13.45 22 13.45 18.93C13.45 12.49 18.35 7.93 24.7 7.93C30.16 7.93 34.2 11.03 34.2 16.73C34.2 21 32.49 29 27 29C26.525 29.0187 26.0511 28.9422 25.6062 28.7748C25.1613 28.6074 24.7544 28.3527 24.4096 28.0255C24.0647 27.6984 23.7889 27.3055 23.5983 26.87C23.4077 26.4345 23.3063 25.9653 23.3 25.49C23.3 22.49 25.41 19.49 25.41 16.4C25.41 11.09 17.89 12.05 17.89 18.47C17.844 19.8636 18.107 21.25 18.66 22.53C17.51 27.25 15.25 34.34 15.25 39.25C15.25 40.76 15.47 42.25 15.61 43.77C15.88 44.07 15.75 44.04 16.16 43.89C20.16 38.36 20.06 37.28 21.89 30.04C22.89 31.91 25.42 32.92 27.44 32.92C35.95 32.92 39.77 24.63 39.77 17.15C39.77 9.19 32.9 4 25.35 4Z" fill="black"/>
</svg>
