<svg width="48" height="48" viewBox="0 0 48 48" fill="none" xmlns="http://www.w3.org/2000/svg">
<path d="M12.46 32.52H12.35C14.0679 34.7927 16.412 36.5143 19.0946 37.4736C21.7771 38.4329 24.6814 38.5881 27.4509 37.9201C30.2204 37.2522 32.7346 35.7901 34.685 33.7135C36.6353 31.6368 37.9369 29.0359 38.43 26.23C34.3203 28.0541 30.0392 29.4644 25.65 30.44C21.3272 31.5404 16.9116 32.2368 12.46 32.52Z" fill="black"/>
<path d="M43.91 18.83C43.2 15.93 39.57 15.57 36.27 15.66C34.616 13.1207 32.2152 11.1569 29.3985 10.039C26.5817 8.92113 23.4876 8.7043 20.5424 9.41837C17.5973 10.1324 14.9461 11.7423 12.9541 14.0261C10.9621 16.3098 9.72735 19.1552 9.41999 22.17C6.41999 23.61 3.41999 25.6 4.09999 28.5C4.74999 31.15 7.84999 31.69 10.91 31.69C11.42 31.69 11.91 31.69 12.42 31.69C16.8075 31.4055 21.1594 30.7159 25.42 29.63C41.9 25.6 44.57 21.54 43.91 18.83ZM24.22 24.52C20.3992 25.4906 16.5011 26.1264 12.57 26.42C12.9165 26.1832 13.1984 25.8635 13.39 25.49C16.9672 25.1548 20.514 24.5497 24 23.68C27.5013 22.8563 30.9346 21.7665 34.27 20.42C34.6111 20.6613 35.0058 20.8157 35.42 20.87C31.8014 22.4141 28.0535 23.6355 24.22 24.52Z" fill="black"/>
</svg>
