<svg width="48" height="48" viewBox="0 0 48 48" fill="none" xmlns="http://www.w3.org/2000/svg">
<path d="M15.81 42V34.44L20.76 31.44V24.59L7 32.91V25L20.76 16.68V11.29C20.82 10.29 21.24 6 24.2 6C27.16 6 27.58 10.33 27.63 11.2V16.64L41.4 25V33L27.63 24.59V31.45L32.63 34.45V42L24.2 36.93L15.81 42ZM24.2 33.79L29.9 37.23V36L25 33V19.82L38.76 28.14V26.48L25 18.16V11.29C24.9676 10.3843 24.7098 9.50098 24.25 8.72C23.7801 9.52578 23.5221 10.4375 23.5 11.37V18.16L9.69 26.48V28.14L23.45 19.82V33L18.5 36V37.27L24.2 33.79Z" fill="black"/>
</svg>
