<svg width="48" height="48" viewBox="0 0 48 48" fill="none" xmlns="http://www.w3.org/2000/svg">
<path d="M43.9332 19.1643C43.5231 17.4841 41.5128 16.7839 37.4122 16.7839C35.8196 13.8074 33.2822 11.4452 30.1995 10.0693C27.1169 8.69332 23.6641 8.38184 20.385 9.18386C17.1058 9.98589 14.1866 11.8559 12.087 14.4993C9.98746 17.1427 8.82679 20.4094 8.78783 23.785C5.11727 25.5753 3.65705 27.1555 4.06711 28.8458C4.47717 30.536 6.30745 31.1961 9.99801 31.1961H10.5581C12.1456 34.1736 14.678 36.5388 17.7568 37.9196C20.8356 39.3003 24.2861 39.6182 27.5654 38.8233C30.8447 38.0284 33.7666 36.1658 35.8714 33.5285C37.9763 30.8912 39.1445 27.629 39.1924 24.2551C42.883 22.4348 44.3432 20.8546 43.9332 19.1643ZM24.0001 11.5732C27.0322 11.5769 29.9586 12.6878 32.2294 14.6971C34.5002 16.7064 35.9591 19.4757 36.332 22.4848C32.5197 24.0813 28.5782 25.3494 24.5502 26.2754C20.5462 27.2832 16.4646 27.9523 12.3484 28.2757C11.6546 26.3991 11.4251 24.3826 11.6795 22.3982C11.9338 20.4137 12.6646 18.5202 13.8092 16.8794C14.9539 15.2385 16.4786 13.8989 18.2531 12.9749C20.0277 12.051 21.9994 11.57 24.0001 11.5732ZM7.07757 28.1257C7.68427 27.5952 8.35653 27.1448 9.07787 26.7855C9.1738 27.3257 9.30069 27.86 9.45793 28.3857C8.65681 28.3971 7.85733 28.3098 7.07757 28.1257ZM24.0001 36.4369C21.9743 36.4356 19.9795 35.9392 18.1893 34.9909C16.3991 34.0426 14.8678 32.6713 13.7286 30.9961C17.5984 30.6025 21.4354 29.934 25.2103 28.9958C28.9956 28.0976 32.7123 26.9311 36.332 25.5053C35.9615 28.5171 34.504 31.29 32.2332 33.303C29.9624 35.3159 27.0347 36.4304 24.0001 36.4369ZM39.0024 21.2246C38.9076 20.6841 38.7807 20.1498 38.6224 19.6244C39.4175 19.6236 40.2099 19.7176 40.9827 19.9044C40.3784 20.4229 39.7134 20.8662 39.0024 21.2246Z" fill="black"/>
</svg>
