<svg width="48" height="48" viewBox="0 0 48 48" fill="none" xmlns="http://www.w3.org/2000/svg">
<path d="M6 39.91C5.46957 39.91 4.96086 39.6993 4.58579 39.3242C4.21071 38.9491 4 38.4404 4 37.91V10C4.00425 9.63995 4.10562 9.28773 4.29342 8.98051C4.48121 8.67329 4.74846 8.42247 5.06696 8.25451C5.38546 8.08656 5.7434 8.0077 6.10299 8.02627C6.46258 8.04484 6.81049 8.16014 7.11 8.36L26.88 22.36C27.1322 22.5459 27.3372 22.7884 27.4785 23.0681C27.6198 23.3477 27.6935 23.6567 27.6935 23.97C27.6935 24.2833 27.6198 24.5923 27.4785 24.8719C27.3372 25.1516 27.1322 25.3941 26.88 25.58L7.11 39.58C6.78064 39.7971 6.39445 39.9119 6 39.91ZM6.79 11.56V36.36L24.33 24L6.79 11.56Z" fill="black"/>
<path d="M34.14 39.91H31.65C31.1806 39.91 30.7304 39.7235 30.3984 39.3916C30.0665 39.0596 29.88 38.6094 29.88 38.14V9.77C29.88 9.30057 30.0665 8.85036 30.3984 8.51842C30.7304 8.18648 31.1806 8 31.65 8H34.14C34.6094 8 35.0596 8.18648 35.3916 8.51842C35.7235 8.85036 35.91 9.30057 35.91 9.77V38.14C35.91 38.6094 35.7235 39.0596 35.3916 39.3916C35.0596 39.7235 34.6094 39.91 34.14 39.91ZM32.68 37.12H33.12V10.79H32.68V37.12Z" fill="black"/>
<path d="M42.23 39.91H39.74C39.2758 39.9021 38.8332 39.7122 38.5078 39.3811C38.1823 39.05 37.9999 38.6043 38 38.14V9.77C37.9999 9.30572 38.1823 8.86 38.5078 8.52891C38.8332 8.19782 39.2758 8.00787 39.74 8H42.23C42.6994 8 43.1496 8.18648 43.4816 8.51842C43.8135 8.85036 44 9.30057 44 9.77V38.14C44 38.3724 43.9542 38.6026 43.8653 38.8174C43.7763 39.0321 43.6459 39.2272 43.4816 39.3916C43.3172 39.5559 43.1221 39.6863 42.9073 39.7753C42.6926 39.8642 42.4624 39.91 42.23 39.91ZM40.77 37.12H41.21V10.79H40.77V37.12Z" fill="black"/>
</svg>
