<svg width="48" height="48" viewBox="0 0 48 48" fill="none" xmlns="http://www.w3.org/2000/svg">
<path fill-rule="evenodd" clip-rule="evenodd" d="M43.64 32.63C42.8875 33.3714 41.9883 33.947 41 34.32L26.71 39.43V35.66L37.19 31.93C38.38 31.5 38.56 30.93 37.59 30.58C36.2968 30.2814 34.9459 30.3506 33.69 30.78L26.69 33.24V29.33L27.09 29.19C28.6718 28.6925 30.3002 28.3574 31.95 28.19C34.9929 27.883 38.0661 28.2518 40.95 29.27C44.08 30.21 44.42 31.64 43.64 32.63ZM28.06 26.21V16.56C28.06 15.43 27.85 14.38 26.79 14.09C25.98 13.83 25.47 14.58 25.47 15.71V39.87L19 37.8V9C22.0466 9.63895 25.052 10.4604 28 11.46C33.52 13.36 35.39 15.71 35.39 21.03C35.39 26.35 32.12 28.17 28.06 26.21ZM7 35.27C3.85 34.38 3.32 32.53 4.76 31.46C5.87624 30.7295 7.08312 30.1479 8.35 29.73L17.69 26.41V30.2L11 32.6C9.81 33.03 9.63 33.6 10.59 33.95C11.8858 34.2566 13.2422 34.1872 14.5 33.75L17.72 32.58V36L17.08 36.1C13.7307 36.638 10.3012 36.3636 7.08 35.3L7 35.27ZM41.57 36.77C41.9731 36.77 42.3597 36.9301 42.6448 37.2152C42.9299 37.5003 43.09 37.8869 43.09 38.29C43.0589 38.6731 42.8848 39.0305 42.6023 39.2911C42.3197 39.5517 41.9494 39.6964 41.565 39.6964C41.1806 39.6964 40.8103 39.5517 40.5277 39.2911C40.2452 39.0305 40.0711 38.6731 40.04 38.29C40.0426 37.886 40.205 37.4994 40.4916 37.2146C40.7783 36.9298 41.1659 36.77 41.57 36.77ZM40.3 38.29C40.3 38.6268 40.4338 38.9499 40.672 39.188C40.9101 39.4262 41.2332 39.56 41.57 39.56C41.9068 39.56 42.2299 39.4262 42.468 39.188C42.7062 38.9499 42.84 38.6268 42.84 38.29C42.84 37.9532 42.7062 37.6301 42.468 37.392C42.2299 37.1538 41.9068 37.02 41.57 37.02C41.2332 37.02 40.9101 37.1538 40.672 37.392C40.4338 37.6301 40.3 37.9532 40.3 38.29ZM42 37.47C42.0812 37.5039 42.1494 37.563 42.1944 37.6387C42.2394 37.7143 42.2589 37.8024 42.25 37.89C42.2525 37.9804 42.2318 38.0699 42.19 38.15C42.1543 38.1976 42.1103 38.2382 42.06 38.27C42.1002 38.2914 42.1345 38.3223 42.16 38.36C42.2063 38.4235 42.2277 38.5018 42.22 38.58V38.8C42.2137 38.8431 42.2137 38.8869 42.22 38.93C42.2116 38.9526 42.2116 38.9774 42.22 39V39.1H42C42 39.1 42 39.1 42 39.04C42 38.98 42 38.97 42 38.9V38.63C42.0002 38.5939 41.9911 38.5584 41.9736 38.5269C41.9561 38.4954 41.9307 38.4689 41.9 38.45C41.8406 38.4376 41.7794 38.4376 41.72 38.45H41.26V39.14H40.96V37.44H41.75C41.8598 37.4357 41.9692 37.4562 42.07 37.5L42 37.47ZM41.19 38.16H41.66C41.7379 38.1644 41.8151 38.1433 41.88 38.1C41.9067 38.0768 41.9272 38.0472 41.9394 38.014C41.9516 37.9808 41.9553 37.945 41.95 37.91C41.95 37.81 41.95 37.74 41.85 37.71C41.7973 37.6986 41.7427 37.6986 41.69 37.71H41.19V38.19V38.16Z" fill="black"/>
</svg>
