<svg width="48" height="48" viewBox="0 0 48 48" fill="none" xmlns="http://www.w3.org/2000/svg">
<path d="M37.75 21.93L13 4.47001C12.621 4.20013 12.1747 4.04046 11.7105 4.00869C11.2462 3.97692 10.7823 4.07429 10.37 4.29001C9.95562 4.50127 9.60806 4.82354 9.36615 5.22084C9.12423 5.61815 8.99748 6.07486 9.00004 6.54001V41.46C8.99803 41.9257 9.12462 42.383 9.36585 42.7814C9.60708 43.1797 9.95359 43.5038 10.3672 43.7179C10.7808 43.9319 11.2455 44.0276 11.7101 43.9945C12.1746 43.9613 12.621 43.8006 13 43.53L37.75 26.07C38.0825 25.8372 38.3534 25.5272 38.5398 25.1667C38.7262 24.8062 38.8223 24.4058 38.82 24C38.8198 23.5946 38.7226 23.1952 38.5364 22.8351C38.3503 22.475 38.0806 22.1646 37.75 21.93Z" fill="black"/>
</svg>
