<svg width="48" height="48" viewBox="0 0 48 48" fill="none" xmlns="http://www.w3.org/2000/svg">
<path d="M11.1301 44.0001C10.7822 44.0021 10.4391 43.9198 10.1301 43.7601C9.78667 43.5787 9.49969 43.3066 9.30042 42.9733C9.10115 42.64 8.99725 42.2584 9.00006 41.8701V6.13006C8.99987 5.73945 9.10709 5.35631 9.31 5.02254C9.51292 4.68877 9.80371 4.41722 10.1506 4.2376C10.4974 4.05797 10.887 3.97719 11.2767 4.00408C11.6664 4.03097 12.0412 4.1645 12.3601 4.39006L37.6901 22.2601C37.9686 22.4567 38.1959 22.7174 38.3528 23.0202C38.5096 23.323 38.5915 23.659 38.5915 24.0001C38.5915 24.3411 38.5096 24.6771 38.3528 24.9799C38.1959 25.2827 37.9686 25.5434 37.6901 25.7401L12.3601 43.6101C12.0015 43.8665 11.5709 44.003 11.1301 44.0001ZM11.7901 7.40006V40.6001L35.3201 24.0001L11.7901 7.40006Z" fill="black"/>
</svg>
