<svg width="48" height="48" viewBox="0 0 48 48" fill="none" xmlns="http://www.w3.org/2000/svg">
<path d="M27.0801 22.1L7.75011 8.44C7.3941 8.18938 6.97615 8.04122 6.54178 8.01164C6.1074 7.98207 5.67323 8.07221 5.28653 8.27227C4.89983 8.47232 4.57541 8.77462 4.34859 9.14625C4.12177 9.51788 4.00124 9.94462 4.00011 10.38V37.71C3.99581 38.1477 4.1128 38.578 4.33811 38.9533C4.56342 39.3285 4.88825 39.6341 5.27659 39.836C5.66493 40.0379 6.10161 40.1284 6.53821 40.0973C6.97481 40.0663 7.39428 39.9149 7.75011 39.66L27.0801 26C27.3895 25.7798 27.6416 25.4889 27.8156 25.1514C27.9896 24.8139 28.0803 24.4397 28.0801 24.06C28.081 23.6774 27.9907 23.3 27.8169 22.9592C27.643 22.6184 27.3904 22.3239 27.0801 22.1Z" fill="black"/>
<path d="M33.9201 8H31.4801C30.2761 8 29.3001 8.97602 29.3001 10.18V37.91C29.3001 39.114 30.2761 40.09 31.4801 40.09H33.9201C35.1241 40.09 36.1001 39.114 36.1001 37.91V10.18C36.1001 8.97602 35.1241 8 33.9201 8Z" fill="black"/>
<path d="M41.8201 8H39.3801C38.1761 8 37.2001 8.97602 37.2001 10.18V37.91C37.2001 39.114 38.1761 40.09 39.3801 40.09H41.8201C43.0241 40.09 44.0001 39.114 44.0001 37.91V10.18C44.0001 8.97602 43.0241 8 41.8201 8Z" fill="black"/>
</svg>
