<svg width="48" height="48" viewBox="0 0 48 48" fill="none" xmlns="http://www.w3.org/2000/svg">
<path d="M38.2876 42H9.71206C9.36401 41.9704 9.03976 41.8112 8.80346 41.554C8.56716 41.2967 8.43604 40.9601 8.43604 40.6108C8.43604 40.2615 8.56716 39.925 8.80346 39.6677C9.03976 39.4105 9.36401 39.2513 9.71206 39.2217H38.2876C38.6357 39.2513 38.9599 39.4105 39.1962 39.6677C39.4325 39.925 39.5637 40.2615 39.5637 40.6108C39.5637 40.9601 39.4325 41.2967 39.1962 41.554C38.9599 41.8112 38.6357 41.9704 38.2876 42Z" fill="black"/>
<path d="M38.2876 20.1747H25.379V7.27603C25.3494 6.92798 25.1902 6.60372 24.933 6.36742C24.6757 6.13112 24.3391 6 23.9898 6C23.6405 6 23.3039 6.13112 23.0467 6.36742C22.7894 6.60372 22.6303 6.92798 22.6007 7.27603V20.1747H9.71206C9.36401 20.2043 9.03976 20.3634 8.80346 20.6207C8.56716 20.8779 8.43604 21.2145 8.43604 21.5638C8.43604 21.9131 8.56716 22.2497 8.80346 22.5069C9.03976 22.7642 9.36401 22.9234 9.71206 22.953H22.6107V35.8516C22.6403 36.1996 22.7995 36.5239 23.0567 36.7602C23.314 36.9965 23.6505 37.1276 23.9998 37.1276C24.3492 37.1276 24.6857 36.9965 24.943 36.7602C25.2002 36.5239 25.3594 36.1996 25.389 35.8516V22.9429H38.2876C38.6357 22.9133 38.9599 22.7542 39.1962 22.4969C39.4325 22.2397 39.5637 21.9031 39.5637 21.5538C39.5637 21.2045 39.4325 20.8679 39.1962 20.6106C38.9599 20.3534 38.6357 20.1942 38.2876 20.1646V20.1747Z" fill="black"/>
</svg>
