<svg width="48" height="48" viewBox="0 0 48 48" fill="none" xmlns="http://www.w3.org/2000/svg">
<path d="M24 4C20.0444 4 16.1776 5.17298 12.8886 7.37061C9.59962 9.56824 7.03617 12.6918 5.52242 16.3463C4.00867 20.0009 3.6126 24.0222 4.3843 27.9018C5.15601 31.7814 7.06082 35.3451 9.85787 38.1421C12.6549 40.9392 16.2186 42.844 20.0982 43.6157C23.9778 44.3874 27.9992 43.9913 31.6537 42.4776C35.3082 40.9638 38.4318 38.4004 40.6294 35.1114C42.827 31.8224 44 27.9556 44 24C44 18.6957 41.8929 13.6086 38.1421 9.85786C34.3914 6.10714 29.3043 4 24 4V4ZM30.52 26.61H26.61V30.52C26.61 31.2122 26.335 31.8761 25.8456 32.3655C25.3561 32.855 24.6922 33.13 24 33.13C23.3078 33.13 22.6439 32.855 22.1545 32.3655C21.665 31.8761 21.39 31.2122 21.39 30.52V26.61H17.48C16.7878 26.61 16.1239 26.335 15.6345 25.8455C15.145 25.3561 14.87 24.6922 14.87 24C14.87 23.3078 15.145 22.6439 15.6345 22.1545C16.1239 21.665 16.7878 21.39 17.48 21.39H21.39V17.48C21.39 16.7878 21.665 16.1239 22.1545 15.6345C22.6439 15.145 23.3078 14.87 24 14.87C24.6922 14.87 25.3561 15.145 25.8456 15.6345C26.335 16.1239 26.61 16.7878 26.61 17.48V21.39H30.52C31.2122 21.39 31.8761 21.665 32.3656 22.1545C32.855 22.6439 33.13 23.3078 33.13 24C33.13 24.6922 32.855 25.3561 32.3656 25.8455C31.8761 26.335 31.2122 26.61 30.52 26.61Z" fill="black"/>
</svg>
