<svg width="48" height="48" viewBox="0 0 48 48" fill="none" xmlns="http://www.w3.org/2000/svg">
<path d="M39.43 21.43H26.57V8.57C26.57 7.88839 26.2992 7.2347 25.8173 6.75274C25.3353 6.27077 24.6816 6 24 6C23.3184 6 22.6647 6.27077 22.1827 6.75274C21.7008 7.2347 21.43 7.88839 21.43 8.57V21.43H8.57C7.88839 21.43 7.2347 21.7008 6.75274 22.1827C6.27077 22.6647 6 23.3184 6 24C6 24.6816 6.27077 25.3353 6.75274 25.8173C7.2347 26.2992 7.88839 26.57 8.57 26.57H21.43V39.43C21.43 39.7675 21.4965 40.1017 21.6256 40.4135C21.7548 40.7253 21.9441 41.0086 22.1827 41.2473C22.4214 41.4859 22.7047 41.6752 23.0165 41.8044C23.3283 41.9335 23.6625 42 24 42C24.3375 42 24.6717 41.9335 24.9835 41.8044C25.2953 41.6752 25.5786 41.4859 25.8173 41.2473C26.0559 41.0086 26.2452 40.7253 26.3744 40.4135C26.5035 40.1017 26.57 39.7675 26.57 39.43V26.57H39.43C39.7675 26.57 40.1017 26.5035 40.4135 26.3744C40.7253 26.2452 41.0086 26.0559 41.2473 25.8173C41.4859 25.5786 41.6752 25.2953 41.8044 24.9835C41.9335 24.6717 42 24.3375 42 24C42 23.6625 41.9335 23.3283 41.8044 23.0165C41.6752 22.7047 41.4859 22.4214 41.2473 22.1827C41.0086 21.9441 40.7253 21.7548 40.4135 21.6256C40.1017 21.4965 39.7675 21.43 39.43 21.43Z" fill="black"/>
</svg>
