<svg width="48" height="48" viewBox="0 0 48 48" fill="none" xmlns="http://www.w3.org/2000/svg">
<path d="M36.4762 36.8657H11.444C10.7631 36.8657 10.1102 37.1362 9.62873 37.6176C9.1473 38.099 8.87683 38.752 8.87683 39.4329C8.87683 40.1137 9.1473 40.7667 9.62873 41.2481C10.1102 41.7295 10.7631 42 11.444 42H36.4762C37.157 42 37.81 41.7295 38.2914 41.2481C38.7728 40.7667 39.0433 40.1137 39.0433 39.4329C39.0433 38.752 38.7728 38.099 38.2914 37.6176C37.81 37.1362 37.157 36.8657 36.4762 36.8657Z" fill="black"/>
<path d="M11.444 23.6903H21.4329V33.6792C21.4329 34.3601 21.7033 35.0131 22.1848 35.4945C22.6662 35.9759 23.3192 36.2464 24 36.2464C24.6809 36.2464 25.3338 35.9759 25.8153 35.4945C26.2967 35.0131 26.5672 34.3601 26.5672 33.6792V23.6903H36.5561C37.2369 23.6903 37.8899 23.4199 38.3713 22.9384C38.8528 22.457 39.1232 21.804 39.1232 21.1232C39.1232 20.4423 38.8528 19.7894 38.3713 19.3079C37.8899 18.8265 37.2369 18.556 36.5561 18.556H26.5672V8.56715C26.5672 7.8863 26.2967 7.23333 25.8153 6.7519C25.3338 6.27047 24.6809 6 24 6C23.3192 6 22.6662 6.27047 22.1848 6.7519C21.7033 7.23333 21.4329 7.8863 21.4329 8.56715V18.556H11.444C10.7631 18.556 10.1102 18.8265 9.62873 19.3079C9.1473 19.7894 8.87683 20.4423 8.87683 21.1232C8.87683 21.804 9.1473 22.457 9.62873 22.9384C10.1102 23.4199 10.7631 23.6903 11.444 23.6903Z" fill="black"/>
</svg>
