<svg width="48" height="48" viewBox="0 0 48 48" fill="none" xmlns="http://www.w3.org/2000/svg">
<path d="M40.62 22.62H25.38V7.38C25.38 7.014 25.2346 6.66299 24.9758 6.40419C24.717 6.14539 24.366 6 24 6C23.634 6 23.283 6.14539 23.0242 6.40419C22.7654 6.66299 22.62 7.014 22.62 7.38V22.62H7.38C7.014 22.62 6.66299 22.7654 6.40419 23.0242C6.14539 23.283 6 23.634 6 24C6 24.366 6.14539 24.717 6.40419 24.9758C6.66299 25.2346 7.014 25.38 7.38 25.38H22.62V40.62C22.62 40.986 22.7654 41.337 23.0242 41.5958C23.283 41.8546 23.634 42 24 42C24.366 42 24.717 41.8546 24.9758 41.5958C25.2346 41.337 25.38 40.986 25.38 40.62V25.38H40.62C40.986 25.38 41.337 25.2346 41.5958 24.9758C41.8546 24.717 42 24.366 42 24C42 23.634 41.8546 23.283 41.5958 23.0242C41.337 22.7654 40.986 22.62 40.62 22.62Z" fill="black"/>
</svg>
