<svg width="48" height="48" viewBox="0 0 48 48" fill="none" xmlns="http://www.w3.org/2000/svg">
<path d="M10.9989 4.31759C11.3996 4.08493 11.8603 3.97597 12.3228 4.00444C12.7853 4.0329 13.2291 4.19751 13.5984 4.47756L37.2338 22.3341C37.5892 22.6006 37.8617 22.9623 38.0198 23.3773C38.178 23.7923 38.2152 24.2436 38.1273 24.679C38.0394 25.1143 37.83 25.5158 37.5232 25.8369C37.2164 26.1581 36.8249 26.3857 36.394 26.4933L26.8158 28.9129L34.3144 41.9104C34.4963 42.2305 34.5448 42.6093 34.4493 42.9649C34.3539 43.3204 34.1222 43.6241 33.8045 43.81C33.5925 43.9351 33.3507 44.0007 33.1046 44C32.8593 43.9996 32.6185 43.9347 32.4061 43.8119C32.1938 43.689 32.0175 43.5126 31.8949 43.3001L24.3963 30.3026L17.5176 37.3813C17.3006 37.6083 17.04 37.7891 16.7513 37.9128C16.4627 38.0365 16.152 38.1005 15.8379 38.1011C15.5805 38.1037 15.3242 38.0666 15.0781 37.9911C14.6478 37.8478 14.2685 37.5825 13.9862 37.2275C13.704 36.8724 13.531 36.4431 13.4884 35.9915L9.83908 6.59716C9.79156 6.14577 9.87579 5.69027 10.0816 5.28574C10.2874 4.8812 10.606 4.54494 10.9989 4.31759ZM16.1779 34.8018L23.0365 27.7431C23.6615 27.098 24.4547 26.6408 25.3261 26.4234L34.8343 23.9938L12.7385 7.29702L16.1779 34.8018Z" fill="black"/>
</svg>
