<svg width="48" height="48" viewBox="0 0 48 48" fill="none" xmlns="http://www.w3.org/2000/svg">
<path d="M11.3702 4.35995C11.832 4.08808 12.3646 3.96087 12.8994 3.99474C13.4341 4.02861 13.9465 4.222 14.3702 4.54995L36.9302 21.62C37.3326 21.93 37.6394 22.3472 37.8153 22.8238C37.9913 23.3003 38.0292 23.8168 37.9247 24.3139C37.8203 24.811 37.5777 25.2686 37.2249 25.6341C36.8721 25.9996 36.4234 26.2581 35.9302 26.3799L28.2502 28.32L35.0002 40C35.1748 40.3043 35.2874 40.6402 35.3316 40.9883C35.3758 41.3364 35.3508 41.6897 35.2578 42.0281C35.1649 42.3664 35.0059 42.683 34.7901 42.9597C34.5742 43.2363 34.3058 43.4675 34.0002 43.6399C33.6959 43.8145 33.36 43.9272 33.0119 43.9714C32.6638 44.0156 32.3104 43.9905 31.9721 43.8975C31.6338 43.8046 31.3172 43.6456 31.0405 43.4298C30.7639 43.2139 30.5327 42.9455 30.3602 42.6399L23.6602 31L18.1302 36.68C17.7771 37.0439 17.3284 37.3006 16.8357 37.4206C16.343 37.5405 15.8264 37.5187 15.3455 37.3577C14.8647 37.1967 14.4391 36.9031 14.1179 36.5107C13.7968 36.1183 13.593 35.6431 13.5302 35.1399L10.0002 6.99995C9.945 6.4741 10.0454 5.94361 10.2889 5.4743C10.5325 5.00499 10.9085 4.61751 11.3702 4.35995Z" fill="black"/>
</svg>
