<svg width="48" height="48" viewBox="0 0 48 48" fill="none" xmlns="http://www.w3.org/2000/svg">
<path d="M23.99 41.9999C20.3864 42.0035 16.8863 40.7955 14.052 38.5702C11.2177 36.3449 9.21373 33.2313 8.36212 29.7299C7.51051 26.2284 7.86068 22.5423 9.35638 19.2638C10.8521 15.9854 13.4065 13.3049 16.6091 11.6531C17.2158 11.3574 17.9141 11.3111 18.5545 11.5242C19.1948 11.7372 19.7262 12.1926 20.0348 12.7928C20.3435 13.393 20.4047 14.0901 20.2055 14.7349C20.0062 15.3797 19.5624 15.9208 18.969 16.2422C16.7975 17.3672 15.0667 19.1887 14.0541 21.4147C13.0414 23.6408 12.8057 26.1424 13.3846 28.5185C13.9635 30.8945 15.3235 33.0074 17.2466 34.5181C19.1697 36.0289 21.5444 36.8502 23.99 36.8502C26.4355 36.8502 28.8102 36.0289 30.7333 34.5181C32.6564 33.0074 34.0165 30.8945 34.5954 28.5185C35.1743 26.1424 34.9385 23.6408 33.9259 21.4147C32.9133 19.1887 31.1824 17.3672 29.011 16.2422C28.4024 15.9266 27.9441 15.3822 27.737 14.7287C27.5298 14.0752 27.5907 13.3662 27.9063 12.7577C28.2219 12.1491 28.7664 11.6908 29.4199 11.4837C30.0733 11.2765 30.7823 11.3375 31.3909 11.6531C34.5951 13.3057 37.1504 15.9879 38.6458 19.2684C40.1412 22.5489 40.4898 26.237 39.6356 29.7397C38.7814 33.2423 36.774 36.3558 33.9362 38.5795C31.0984 40.8033 27.5952 42.008 23.99 41.9999Z" fill="black"/>
<path d="M23.99 28.5135C23.6511 28.5135 23.3155 28.4468 23.0023 28.3171C22.6892 28.1874 22.4047 27.9973 22.1651 27.7577C21.9254 27.518 21.7353 27.2335 21.6056 26.9204C21.4759 26.6073 21.4092 26.2717 21.4092 25.9328V8.42958C21.4502 7.77164 21.7405 7.15407 22.2209 6.70267C22.7013 6.25126 23.3358 5.99997 23.995 5.99997C24.6542 5.99997 25.2886 6.25126 25.7691 6.70267C26.2495 7.15407 26.5398 7.77164 26.5808 8.42958V25.9328C26.5808 26.2725 26.5137 26.6089 26.3834 26.9227C26.2531 27.2365 26.0621 27.5214 25.8214 27.7612C25.5806 28.001 25.295 28.1909 24.9807 28.32C24.6664 28.4491 24.3297 28.5149 23.99 28.5135Z" fill="black"/>
</svg>
