<svg width="48" height="48" viewBox="0 0 48 48" fill="none" xmlns="http://www.w3.org/2000/svg">
<path d="M23.9951 42C20.4432 41.9995 16.9945 40.806 14.2021 38.611C11.4097 36.416 9.43554 33.3466 8.59628 29.8954C7.75703 26.4441 8.10134 22.811 9.57398 19.5788C11.0466 16.3466 13.5622 13.7028 16.7172 12.0714C17.0437 11.9023 17.4239 11.8699 17.7742 11.9812C18.1245 12.0925 18.4163 12.3384 18.5853 12.6649C18.7544 12.9913 18.7868 13.3715 18.6755 13.7218C18.5642 14.0722 18.3183 14.364 17.9918 14.533C15.3862 15.8795 13.3084 18.0624 12.092 20.7313C10.8756 23.4002 10.591 26.4003 11.2839 29.2503C11.9768 32.1003 13.607 34.6349 15.913 36.4474C18.2189 38.2599 21.0669 39.2452 23.9999 39.2452C26.933 39.2452 29.781 38.2599 32.0869 36.4474C34.3929 34.6349 36.0231 32.1003 36.716 29.2503C37.4089 26.4003 37.1243 23.4002 35.9079 20.7313C34.6914 18.0624 32.6137 15.8795 30.008 14.533C29.8464 14.4493 29.7028 14.3346 29.5855 14.1954C29.4682 14.0562 29.3795 13.8953 29.3244 13.7218C29.2693 13.5484 29.2489 13.3657 29.2643 13.1844C29.2798 13.003 29.3308 12.8265 29.4145 12.6649C29.5836 12.3384 29.8753 12.0925 30.2257 11.9812C30.3991 11.9261 30.5818 11.9057 30.7631 11.9212C30.9445 11.9366 31.121 11.9877 31.2826 12.0714C34.4384 13.7031 36.9544 16.3478 38.4269 19.581C39.8994 22.8141 40.243 26.4483 39.4024 29.9001C38.5619 33.3519 36.5861 36.4213 33.792 38.6155C30.998 40.8098 27.5477 42.0017 23.9951 42Z" fill="black"/>
<path d="M23.9951 27.5319C23.6294 27.5293 23.2795 27.383 23.0209 27.1244C22.7624 26.8659 22.616 26.5159 22.6134 26.1503V7.38162C22.6134 7.01519 22.759 6.66377 23.0181 6.40467C23.2772 6.14556 23.6286 6 23.9951 6C24.3615 6 24.7129 6.14556 24.972 6.40467C25.2311 6.66377 25.3767 7.01519 25.3767 7.38162V26.1503C25.3767 26.5167 25.2311 26.8681 24.972 27.1272C24.7129 27.3863 24.3615 27.5319 23.9951 27.5319Z" fill="black"/>
</svg>
