<svg width="48" height="48" viewBox="0 0 48 48" fill="none" xmlns="http://www.w3.org/2000/svg">
<path d="M38.5746 21.1424C34.8419 17.1395 29.418 15.018 22.433 14.6977V10.4046C22.4326 9.96433 22.3049 9.53351 22.0652 9.16417C21.8255 8.79483 21.484 8.50274 21.082 8.32314C20.6779 8.14835 20.232 8.09316 19.7975 8.16411C19.3629 8.23506 18.9578 8.42918 18.6302 8.72343L5.18056 20.9923C4.80875 21.3299 4.51165 21.7416 4.30834 22.2009C4.10503 22.6602 4 23.1569 4 23.6592C4 24.1614 4.10503 24.6582 4.30834 25.1174C4.51165 25.5767 4.80875 25.9884 5.18056 26.3261L18.6302 38.5949C18.9579 38.888 19.3633 39.0802 19.7977 39.1484C20.232 39.2165 20.6768 39.1577 21.0785 38.9791C21.4802 38.8004 21.8218 38.5095 22.0621 38.1413C22.3024 37.7731 22.4312 37.3433 22.433 36.9037V32.6506C33.1407 33.091 38.3044 37.334 40.0256 39.1553C40.2388 39.3789 40.4949 39.5571 40.7786 39.6792C41.0624 39.8013 41.3679 39.8648 41.6768 39.8658C41.9468 39.8689 42.2149 39.8214 42.4674 39.7257C42.8837 39.5747 43.2463 39.3043 43.5097 38.9483C43.7732 38.5924 43.9258 38.1666 43.9484 37.7243C44.1586 34.6821 43.9685 26.9165 38.5746 21.1424Z" fill="black"/>
</svg>
