<svg width="48" height="48" viewBox="0 0 48 48" fill="none" xmlns="http://www.w3.org/2000/svg">
<path d="M42.1123 39.7762C41.8594 39.7802 41.6084 39.7326 41.3746 39.6363C41.1407 39.54 40.929 39.3971 40.7523 39.2162C38.8823 37.2162 33.3623 32.7062 21.9223 32.3662V37.2162C21.9208 37.5758 21.8152 37.9272 21.6182 38.228C21.4212 38.5288 21.1412 38.766 20.8121 38.911C20.483 39.056 20.119 39.1024 19.7641 39.0448C19.4091 38.9871 19.0785 38.8278 18.8123 38.5862L5.05226 26.0062C4.72087 25.7035 4.4562 25.3351 4.27511 24.9245C4.09402 24.5138 4.00049 24.07 4.00049 23.6212C4.00049 23.1724 4.09402 22.7285 4.27511 22.3179C4.4562 21.9072 4.72087 21.5388 5.05226 21.2362L18.8123 8.70617C19.0785 8.46452 19.4091 8.30522 19.7641 8.24757C20.119 8.18992 20.483 8.23639 20.8121 8.38135C21.1412 8.52631 21.4212 8.76354 21.6182 9.06434C21.8152 9.36514 21.9208 9.71659 21.9223 10.0762V14.9562C29.1523 15.2162 34.7423 17.3662 38.5523 21.4162C43.9423 27.1462 44.1323 34.9362 43.9623 38.0162C43.944 38.3794 43.8196 38.7292 43.6045 39.0225C43.3895 39.3158 43.0932 39.5395 42.7523 39.6662C42.5461 39.7366 42.3301 39.7737 42.1123 39.7762ZM20.7823 29.5262C31.6923 29.5962 38.0223 33.2362 41.1423 35.8062C41.0223 32.4962 40.1423 27.2962 36.4623 23.3262C33.0023 19.6562 27.7223 17.7762 20.7623 17.7162C20.3131 17.7135 19.8833 17.5333 19.5666 17.2147C19.25 16.8962 19.0723 16.4653 19.0723 16.0162V12.2162L6.93226 23.3062C6.88868 23.3473 6.85396 23.3969 6.83023 23.4519C6.80649 23.507 6.79425 23.5662 6.79425 23.6262C6.79425 23.6861 6.80649 23.7454 6.83023 23.8004C6.85396 23.8554 6.88868 23.905 6.93226 23.9462L19.1323 35.0662V31.2162C19.1323 30.7644 19.311 30.3309 19.6296 30.0105C19.9481 29.6901 20.3805 29.5088 20.8323 29.5062L20.7823 29.5262Z" fill="black"/>
</svg>
