<svg width="48" height="48" viewBox="0 0 48 48" fill="none" xmlns="http://www.w3.org/2000/svg">
<path d="M9.82477 28.3363C8.80905 27.3138 8.23899 25.9311 8.23899 24.4899C8.23899 23.0486 8.80905 21.6659 9.82477 20.6434L21.7982 8.66995C22.169 8.3254 22.5853 8.03333 23.0355 7.80187L21.5488 7.8817C20.6083 7.92252 19.7162 8.30992 19.0443 8.96928L7.07087 20.9427C6.73147 21.2811 6.46219 21.683 6.27845 22.1257C6.0947 22.5683 6.00012 23.0428 6.00012 23.522C6.00012 24.0012 6.0947 24.4757 6.27845 24.9184C6.46219 25.361 6.73147 25.7629 7.07087 26.1013L19.204 38.1446C19.5575 38.4948 19.9784 38.7698 20.4412 38.9528L9.82477 28.3363Z" fill="black"/>
<path d="M40.6863 9.548C40.2443 9.10411 39.7138 8.75831 39.1293 8.5331C38.5448 8.30789 37.9194 8.20833 37.2938 8.2409L25.51 8.8695C24.5773 8.91466 23.695 9.30602 23.0355 9.96707L11.062 21.9405C10.7226 22.2788 10.4533 22.6808 10.2696 23.1234C10.0859 23.566 9.99127 24.0406 9.99127 24.5198C9.99127 24.999 10.0859 25.4735 10.2696 25.9161C10.4533 26.3587 10.7226 26.7607 11.062 27.0991L23.1652 39.1324C23.8481 39.8148 24.774 40.1981 25.7395 40.1981C26.7049 40.1981 27.6308 39.8148 28.3138 39.1324L40.2872 27.1589C40.9217 26.5156 41.3041 25.6658 41.3648 24.7642L41.9934 12.9405C42.0279 12.3147 41.9292 11.6888 41.7039 11.104C41.4786 10.5192 41.1317 9.98885 40.6863 9.548ZM35.6974 18.5281C35.309 18.9148 34.8147 19.1778 34.277 19.2839C33.7392 19.3899 33.1821 19.3343 32.6759 19.124C32.1698 18.9137 31.7373 18.5582 31.433 18.1023C31.1287 17.6464 30.9664 17.1105 30.9664 16.5624C30.9664 16.0143 31.1287 15.4785 31.433 15.0226C31.7373 14.5667 32.1698 14.2112 32.6759 14.0009C33.1821 13.7906 33.7392 13.735 34.277 13.841C34.8147 13.9471 35.309 14.2101 35.6974 14.5968C36.2051 15.1243 36.4845 15.8306 36.4752 16.5627C36.4658 17.2948 36.1685 17.9937 35.6475 18.5081L35.6974 18.5281Z" fill="black"/>
</svg>
