<svg width="48" height="48" viewBox="0 0 48 48" fill="none" xmlns="http://www.w3.org/2000/svg">
<path d="M23.6935 41.9997C22.7586 42.0113 21.8572 41.6519 21.1864 40.9999L7.03251 26.8329C6.37132 26.1695 6 25.2706 6 24.3335C6 23.3964 6.37132 22.4975 7.03251 21.834L21.0166 7.83698C21.6646 7.17609 22.5394 6.78652 23.4638 6.74721L37.2481 6.00736C37.8806 5.97109 38.5137 6.06909 39.1057 6.29492C39.6978 6.52075 40.2355 6.86931 40.6835 7.31774C41.1315 7.76617 41.4797 8.30434 41.7054 8.89695C41.931 9.48956 42.0289 10.1232 41.9926 10.7564L41.2635 24.5634C41.2224 25.4833 40.8374 26.354 40.1847 27.0029L26.2007 40.9999C25.5299 41.6519 24.6284 42.0113 23.6935 41.9997ZM37.3979 8.77678L23.6036 9.50662C23.3774 9.51958 23.164 9.61571 23.0043 9.77656L9.02024 23.7736C8.94643 23.8447 8.88796 23.9301 8.84844 24.0247C8.80893 24.1193 8.78921 24.221 8.79051 24.3235C8.78979 24.4259 8.80978 24.5274 8.84926 24.6219C8.88874 24.7164 8.9469 24.8019 9.02024 24.8734L23.1441 39.0004C23.293 39.1439 23.4917 39.2241 23.6985 39.2241C23.9053 39.2241 24.104 39.1439 24.2529 39.0004L38.2369 25.0033C38.3992 24.8446 38.4956 24.6303 38.5066 24.4035L39.2258 10.6064C39.2372 10.3631 39.1977 10.1201 39.1099 9.89296C39.022 9.66582 38.8878 9.45954 38.7157 9.28731C38.5437 9.11509 38.3376 8.98072 38.1106 8.89281C37.8837 8.8049 37.6409 8.76538 37.3979 8.77678Z" fill="black"/>
<path d="M33.0029 19.6545C31.9306 19.6549 30.8913 19.2832 30.0622 18.6027C29.233 17.9221 28.6652 16.9748 28.4556 15.9223C28.246 14.8697 28.4076 13.7769 28.9127 12.8302C29.4178 11.8834 30.2353 11.1413 31.2258 10.7302C32.2163 10.3191 33.3186 10.2645 34.3448 10.5757C35.371 10.8869 36.2577 11.5447 36.8537 12.4369C37.4497 13.3291 37.7183 14.4006 37.6135 15.4687C37.5087 16.5369 37.0372 17.5356 36.2792 18.2948C35.4104 19.1649 34.2319 19.654 33.0029 19.6545ZM33.0029 13.1458C32.6341 13.1468 32.2739 13.2569 31.9675 13.4624C31.6612 13.6679 31.4225 13.9595 31.2815 14.3006C31.1405 14.6417 31.1035 15.0169 31.1752 15.3789C31.2469 15.741 31.4241 16.0737 31.6844 16.3352C32.0394 16.675 32.5117 16.8646 33.0029 16.8646C33.4941 16.8646 33.9664 16.675 34.3214 16.3352C34.5817 16.0737 34.7589 15.741 34.8306 15.3789C34.9023 15.0169 34.8653 14.6417 34.7243 14.3006C34.5833 13.9595 34.3446 13.6679 34.0382 13.4624C33.7319 13.2569 33.3717 13.1468 33.0029 13.1458Z" fill="black"/>
</svg>
