<svg width="48" height="48" viewBox="0 0 48 48" fill="none" xmlns="http://www.w3.org/2000/svg">
<path d="M40.5727 7.42802C40.0928 6.94452 39.5159 6.56806 38.8801 6.32338C38.2442 6.07869 37.5638 5.97132 36.8835 6.00831L23.4363 6.72816C22.4367 6.77605 21.4913 7.197 20.7869 7.90792L7.14977 21.5451C6.7852 21.9082 6.49593 22.3398 6.29855 22.8151C6.10118 23.2903 5.99957 23.7999 5.99957 24.3145C5.99957 24.8291 6.10118 25.3386 6.29855 25.8139C6.49593 26.2891 6.7852 26.7207 7.14977 27.0839L20.9169 40.861C21.6543 41.59 22.6494 41.9988 23.6863 41.9988C24.7232 41.9988 25.7183 41.59 26.4557 40.861L40.0928 27.2139C40.8015 26.5119 41.2223 25.5706 41.2726 24.5744L41.9924 11.1172C42.0294 10.437 41.9221 9.75654 41.6774 9.12071C41.4327 8.48487 41.0562 7.90801 40.5727 7.42802ZM34.9939 17.4859C34.5508 17.9296 33.9861 18.2319 33.3712 18.3545C32.7563 18.4771 32.1189 18.4146 31.5395 18.1749C30.9601 17.9351 30.4649 17.5289 30.1164 17.0076C29.768 16.4863 29.582 15.8734 29.582 15.2464C29.582 14.6194 29.768 14.0064 30.1164 13.4851C30.4649 12.9638 30.9601 12.5576 31.5395 12.3179C32.1189 12.0781 32.7563 12.0156 33.3712 12.1383C33.9861 12.2609 34.5508 12.5632 34.9939 13.0068C35.5825 13.6036 35.9125 14.4082 35.9125 15.2464C35.9125 16.0846 35.5825 16.8891 34.9939 17.4859Z" fill="black"/>
</svg>
