<svg width="48" height="48" viewBox="0 0 48 48" fill="none" xmlns="http://www.w3.org/2000/svg">
<path d="M40.782 9.73482C40.3735 9.32105 39.8826 8.99766 39.3412 8.78557C38.7997 8.57349 38.2198 8.47743 37.6389 8.50362L36.5479 8.56368C36.1428 8.19573 35.6689 7.91164 35.1535 7.72781C34.6381 7.54398 34.0914 7.46405 33.5449 7.49263L21.4431 8.15328C20.6 8.19588 19.8035 8.55305 19.2109 9.15426L6.95894 21.4363C6.34462 22.055 5.99988 22.8916 5.99988 23.7635C5.99988 24.6355 6.34462 25.472 6.95894 26.0908L19.331 38.533C19.8059 39.0102 20.4166 39.3289 21.0797 39.4454C21.7428 39.5619 22.4256 39.4704 23.0347 39.1836L23.405 39.554C24.0238 40.1683 24.8604 40.513 25.7323 40.513C26.6042 40.513 27.4408 40.1683 28.0596 39.554L40.3516 27.2319C40.9528 26.6393 41.31 25.8428 41.3526 24.9997L41.9932 12.8779C42.0264 12.298 41.9356 11.7177 41.7267 11.1757C41.5179 10.6337 41.1958 10.1425 40.782 9.73482ZM8.88082 23.3982L21.1728 11.1062C21.2825 10.9957 21.4281 10.9283 21.5832 10.916L22.5842 10.8659L10.9629 22.4573C10.5927 22.8286 10.3168 23.2832 10.1583 23.783C9.99983 24.2828 9.96337 24.8133 10.052 25.3301L8.85079 24.1289C8.75871 24.0276 8.71023 23.8941 8.71585 23.7574C8.72147 23.6206 8.78074 23.4916 8.88082 23.3982ZM38.5798 24.8496C38.5673 25.0076 38.5001 25.1563 38.3897 25.27L26.0976 37.532C26.0003 37.628 25.869 37.6818 25.7323 37.6818C25.5956 37.6818 25.4643 37.628 25.3669 37.532L12.9648 25.1499C12.8684 25.0507 12.8145 24.9178 12.8147 24.7795C12.815 24.6443 12.869 24.5147 12.9648 24.4192L25.2468 12.1172C25.3575 12.0096 25.5032 11.9457 25.6572 11.937L37.7891 11.2964C37.9748 11.2883 38.16 11.3199 38.3326 11.3889C38.5052 11.4579 38.6611 11.5629 38.7901 11.6967C38.9234 11.8261 39.028 11.9821 39.097 12.1545C39.166 12.327 39.1978 12.5121 39.1904 12.6977L38.5798 24.8496Z" fill="black"/>
<path d="M33.9053 20.8457C33.2066 20.8467 32.5184 20.6752 31.9019 20.3464C31.2854 20.0177 30.7596 19.5418 30.3712 18.961C29.9827 18.3802 29.7437 17.7125 29.6753 17.0171C29.6069 16.3218 29.7112 15.6203 29.979 14.975C30.2467 14.3296 30.6697 13.7603 31.2103 13.3177C31.7509 12.8751 32.3925 12.5727 33.078 12.4376C33.7635 12.3024 34.4717 12.3386 35.1399 12.5428C35.8081 12.7471 36.4155 13.1132 36.9082 13.6086C37.3029 14.0028 37.616 14.4709 37.8296 14.9862C38.0432 15.5014 38.1532 16.0538 38.1532 16.6115C38.1532 17.1693 38.0432 17.7217 37.8296 18.2369C37.616 18.7522 37.3029 19.2203 36.9082 19.6145C36.5142 20.0085 36.0459 20.3202 35.5303 20.5315C35.0148 20.7429 34.4624 20.8497 33.9053 20.8457ZM33.9053 15.1301C33.6153 15.133 33.3328 15.222 33.0936 15.3859C32.8544 15.5498 32.6693 15.7812 32.562 16.0506C32.4547 16.3199 32.4299 16.6152 32.4909 16.8986C32.5518 17.1821 32.6957 17.4411 32.9043 17.6426C33.1824 17.911 33.5538 18.0611 33.9403 18.0611C34.3268 18.0611 34.6983 17.911 34.9763 17.6426C35.1801 17.4392 35.3197 17.1805 35.378 16.8986C35.4362 16.6167 35.4104 16.3239 35.3039 16.0564C35.1973 15.789 35.0147 15.5587 34.7785 15.394C34.5424 15.2294 34.2631 15.1376 33.9753 15.1301H33.9053Z" fill="black"/>
</svg>
