<svg width="48" height="48" viewBox="0 0 48 48" fill="none" xmlns="http://www.w3.org/2000/svg">
<path fill-rule="evenodd" clip-rule="evenodd" d="M19.1965 8.62884C18.8711 8.62288 18.5513 8.71393 18.2778 8.89038C18.0044 9.06682 17.7896 9.32068 17.6609 9.61961C17.5323 9.91854 17.4955 10.249 17.5553 10.5689C17.6151 10.8888 17.7688 11.1836 17.9968 11.4159C18.2248 11.6481 18.5168 11.8072 18.8355 11.8729C19.1543 11.9387 19.4853 11.908 19.7866 11.7849C20.0879 11.6617 20.3456 11.4517 20.5271 11.1816C20.7086 10.9114 20.8055 10.5933 20.8055 10.2679C20.8082 9.83756 20.6405 9.42364 20.339 9.11654C20.0375 8.80944 19.6268 8.63411 19.1965 8.62884ZM23.7839 6.00033C25.2834 5.99296 26.7811 6.10996 28.2613 6.35013C29.3877 6.46603 30.4366 6.97745 31.2215 7.79354C32.0065 8.60963 32.4768 9.67755 32.5489 10.8076V18.993C32.5542 19.5613 32.4474 20.125 32.2348 20.6521C32.0222 21.1792 31.7078 21.6592 31.3097 22.0648C30.9116 22.4703 30.4374 22.7935 29.9144 23.0158C29.3913 23.2381 28.8296 23.3553 28.2613 23.3605H19.6862C18.2768 23.3833 16.9309 23.9507 15.9304 24.9437C14.93 25.9367 14.3526 27.2783 14.3192 28.6875V32.6152H11.3709C8.87232 32.6152 7.42314 30.7963 6.80349 28.2577C6.00406 25.4043 6.00406 22.3861 6.80349 19.5327C7.04202 18.2852 7.71523 17.1627 8.70341 16.3649C9.69159 15.567 10.9307 15.1454 12.2004 15.1751H23.9738V14.0857H15.3886V10.8076C15.3886 8.339 16.0482 6.98977 19.6862 6.35013C21.0399 6.1192 22.4106 6.00219 23.7839 6.00033ZM28.781 35.8734C28.4552 35.8674 28.135 35.9587 27.8613 36.1356C27.5877 36.3125 27.3729 36.567 27.2445 36.8665C27.1162 37.166 27.08 37.497 27.1406 37.8171C27.2013 38.1373 27.3559 38.4322 27.5849 38.664C27.8139 38.8958 28.1068 39.0542 28.4262 39.1187C28.7456 39.1833 29.0771 39.1512 29.3781 39.0266C29.6792 38.9019 29.9363 38.6903 30.1165 38.4188C30.2968 38.1474 30.392 37.8283 30.3901 37.5025C30.3902 37.0772 30.2241 36.6688 29.9272 36.3644C29.6303 36.06 29.2261 35.8838 28.801 35.8734H28.781ZM33.6183 15.1751H36.8365C39.335 15.1751 40.5144 17.0441 41.134 19.5227C42.0169 22.364 42.0169 25.4064 41.134 28.2477C40.2645 30.8662 39.335 32.6052 36.8365 32.6052H23.9738V33.6946H32.5489V36.9828C32.5489 39.4613 30.4201 40.7206 28.2613 41.3503C25.4686 42.2166 22.4789 42.2166 19.6862 41.3503C17.4175 40.6807 15.3886 39.3514 15.3886 36.9828V28.7874C15.3937 27.6436 15.8462 26.5472 16.6494 25.7328C17.4525 24.9184 18.5426 24.4508 19.6862 24.4299H28.2613C29.6837 24.3912 31.0359 23.8036 32.0345 22.79C33.0332 21.7765 33.6007 20.4157 33.6183 18.993V15.1751Z" fill="black"/>
</svg>
