<svg width="48" height="48" viewBox="0 0 48 48" fill="none" xmlns="http://www.w3.org/2000/svg">
<path fill-rule="evenodd" clip-rule="evenodd" d="M20 24C20.0211 24.5548 19.8633 25.1017 19.55 25.56C19.4003 25.7822 19.1975 25.9634 18.96 26.0874C18.7225 26.2114 18.4579 26.2741 18.19 26.27C17.7086 26.2748 17.2374 26.1317 16.84 25.86V28.51L16 28.25V22.34C16.1474 22.196 16.3204 22.0807 16.51 22C17.0081 21.724 17.5708 21.5859 18.14 21.6C18.4094 21.5845 18.6779 21.6435 18.916 21.7705C19.1542 21.8975 19.3527 22.0876 19.49 22.32C19.8237 22.8166 20.0013 23.4017 20 24ZM19.13 24C19.13 22.78 18.78 22.15 18.08 22.11C17.8039 22.0969 17.5281 22.1412 17.27 22.24C17.1149 22.2922 16.9695 22.3699 16.84 22.47V25.34C17.1794 25.5823 17.5832 25.718 18 25.73C18.72 25.68 19.08 25.09 19.08 23.94L19.13 24ZM24.58 25.8C24.6219 26.3912 24.5366 26.9845 24.33 27.54C24.1012 27.9096 23.7458 28.1833 23.33 28.31C22.934 28.4624 22.5142 28.5437 22.09 28.55L22 28C22.3376 27.9666 22.672 27.9064 23 27.82C23.3112 27.7279 23.5779 27.5251 23.75 27.25C23.8864 26.8725 23.941 26.4702 23.91 26.07V25.87C23.406 26.1049 22.856 26.2245 22.3 26.22C21.9346 26.2327 21.5777 26.1078 21.3 25.87C21.146 25.7543 21.0226 25.6027 20.9407 25.4284C20.8588 25.2541 20.8208 25.0624 20.83 24.87V21.8L21.58 21.55V24.69C21.5746 24.8362 21.6013 24.9819 21.6583 25.1167C21.7154 25.2514 21.8013 25.3721 21.91 25.47C22.1465 25.6607 22.4471 25.7538 22.75 25.73C23.1469 25.7025 23.5281 25.5639 23.85 25.33V21.66H24.6L24.58 25.8ZM27.51 26.28H27.26C26.9015 26.303 26.5466 26.1965 26.26 25.98C26.1429 25.8748 26.0508 25.7448 25.9903 25.5995C25.9297 25.4542 25.9023 25.2972 25.91 25.14V22.14H25.39V21.66H25.91V20.41L26.66 20.14V21.66H27.5V22.13H26.66V25.07C26.6476 25.1811 26.6621 25.2936 26.7021 25.398C26.7421 25.5023 26.8065 25.5956 26.89 25.67C27.0738 25.7807 27.2855 25.8362 27.5 25.83L27.51 26.28ZM32 26.16H31.25V23.26C31.2554 22.9916 31.1824 22.7275 31.04 22.5C30.9714 22.3872 30.8742 22.2945 30.7584 22.2313C30.6425 22.1681 30.512 22.1366 30.38 22.14C29.9054 22.1932 29.4569 22.3844 29.09 22.69V26.16H28.34V19.24L29.1 19V22.15C29.5528 21.8104 30.104 21.6278 30.67 21.63C30.856 21.6179 31.0423 21.6476 31.2153 21.7168C31.3883 21.786 31.5437 21.893 31.67 22.03C31.8944 22.3024 32.0117 22.6473 32 23V26.16ZM36.81 23.83C36.8376 24.4288 36.6574 25.0188 36.3 25.5C36.122 25.744 35.8865 25.9402 35.6143 26.0711C35.3421 26.202 35.0417 26.2634 34.74 26.25C34.4412 26.2628 34.1439 26.2009 33.8751 26.0699C33.6062 25.939 33.3742 25.7431 33.2 25.5C32.8498 25.0157 32.6736 24.4271 32.7 23.83C32.6818 23.2521 32.8736 22.6872 33.24 22.24C33.4216 22.0165 33.6523 21.8379 33.9142 21.7182C34.1761 21.5986 34.4622 21.541 34.75 21.55C35.0392 21.5417 35.3264 21.5996 35.5898 21.7191C35.8532 21.8387 36.0859 22.0169 36.27 22.24C36.6433 22.684 36.8392 23.2503 36.82 23.83H36.81ZM35.99 23.83C36.0063 23.4261 35.913 23.0252 35.72 22.67C35.6254 22.4871 35.4817 22.3341 35.3051 22.2281C35.1285 22.1221 34.9259 22.0674 34.72 22.07C33.9 22.1167 33.49 22.7067 33.49 23.84C33.4721 24.2878 33.5613 24.7335 33.75 25.14C33.8248 25.3414 33.9624 25.5133 34.1425 25.6304C34.3226 25.7475 34.5356 25.8034 34.75 25.79C35.58 25.77 36 25.12 36 23.82L35.99 23.83ZM41.11 26.17H40.36V23.1C40.3707 22.9544 40.3494 22.8082 40.2975 22.6718C40.2457 22.5353 40.1646 22.4118 40.06 22.31C39.8433 22.1073 39.5567 21.9963 39.26 22C38.899 22.0131 38.5504 22.1351 38.26 22.35V26.16H37.51V22.3C38.1042 21.8182 38.845 21.5537 39.61 21.55C39.7779 21.5508 39.9453 21.5675 40.11 21.6C40.3825 21.652 40.6333 21.7843 40.83 21.98C40.93 22.0753 41.0091 22.1902 41.0625 22.3175C41.1158 22.4449 41.1422 22.5819 41.14 22.72L41.11 26.17ZM7.40999 20C7.32455 19.998 7.24045 20.0215 7.16844 20.0676C7.09642 20.1136 7.03975 20.18 7.00567 20.2584C6.97158 20.3368 6.96163 20.4235 6.97707 20.5076C6.99252 20.5917 7.03266 20.6692 7.09238 20.7303C7.1521 20.7915 7.22869 20.8334 7.31236 20.8509C7.39603 20.8683 7.483 20.8604 7.56215 20.8281C7.64131 20.7959 7.70907 20.7408 7.75677 20.6699C7.80448 20.599 7.82997 20.5155 7.82999 20.43C7.83002 20.3177 7.7861 20.2098 7.70761 20.1294C7.62912 20.0491 7.5223 20.0026 7.40999 20ZM8.62999 19.26C9.02219 19.2585 9.41374 19.292 9.79999 19.36C10.097 19.3881 10.3741 19.5215 10.5813 19.7361C10.7886 19.9506 10.9122 20.2322 10.93 20.53V22.68C10.9313 22.8297 10.9031 22.9782 10.8471 23.117C10.791 23.2558 10.7081 23.3823 10.6032 23.489C10.4982 23.5958 10.3733 23.6809 10.2355 23.7394C10.0977 23.7979 9.9497 23.8287 9.79999 23.83H7.54999C7.17935 23.8351 6.82517 23.9839 6.56212 24.2451C6.29908 24.5063 6.14774 24.8594 6.13999 25.23V26.23H5.35999C4.69999 26.23 4.35999 25.76 4.15999 25.09C3.94492 24.3384 3.94492 23.5416 4.15999 22.79C4.22779 22.4691 4.40608 22.1822 4.66377 21.9794C4.92145 21.7765 5.24218 21.6706 5.56999 21.68H8.67999V21.39H6.41999V20.53C6.41999 19.88 6.58999 19.53 7.54999 19.36C7.90687 19.2988 8.26795 19.2654 8.62999 19.26ZM9.99999 27.13C9.944 27.1287 9.88831 27.1385 9.83619 27.1591C9.78408 27.1796 9.73659 27.2103 9.69652 27.2494C9.65646 27.2886 9.62462 27.3353 9.60289 27.3869C9.58116 27.4385 9.56998 27.494 9.56999 27.55C9.56057 27.6113 9.5645 27.6739 9.58153 27.7335C9.59856 27.7931 9.62827 27.8483 9.66864 27.8954C9.70901 27.9424 9.75907 27.9802 9.8154 28.0061C9.87173 28.032 9.933 28.0454 9.99499 28.0454C10.057 28.0454 10.1183 28.032 10.1746 28.0061C10.2309 27.9802 10.281 27.9424 10.3213 27.8954C10.3617 27.8483 10.3914 27.7931 10.4085 27.7335C10.4255 27.6739 10.4294 27.6113 10.42 27.55C10.42 27.4386 10.3757 27.3318 10.297 27.253C10.2182 27.1743 10.1114 27.13 9.99999 27.13ZM11.21 21.68H12.06C12.72 21.68 13.06 22.17 13.19 22.82C13.4263 23.5685 13.4263 24.3715 13.19 25.12C13 25.81 12.72 26.26 12.06 26.26H8.67999V26.55H10.93V27.41C10.93 28.06 10.37 28.41 9.79999 28.56C9.06767 28.7903 8.28231 28.7903 7.54999 28.56C6.99999 28.38 6.41999 28 6.41999 27.41V25.26C6.41995 24.9584 6.53836 24.6689 6.74972 24.4538C6.96108 24.2387 7.24847 24.1152 7.54999 24.11H9.79999C10.175 24.1022 10.5321 23.9484 10.7954 23.6813C11.0587 23.4143 11.2075 23.055 11.21 22.68V21.68ZM43.14 21V20.07H43.32L43.56 20.86L43.84 20.07H44V21H43.88V20.24L43.62 21H43.5L43.25 20.25V21H43.14ZM42.58 21V20.17H42.27V20.07H43V20.17H42.68V21H42.58Z" fill="black"/>
</svg>
