<svg width="48" height="48" viewBox="0 0 48 48" fill="none" xmlns="http://www.w3.org/2000/svg">
<path d="M19.38 6H9.23C8.37335 6 7.55179 6.3403 6.94605 6.94605C6.3403 7.55179 6 8.37335 6 9.23V19.38C6 20.2376 6.33998 21.0602 6.94544 21.6675C7.55089 22.2748 8.37243 22.6174 9.23 22.62H19.38C20.2393 22.62 21.0634 22.2786 21.671 21.671C22.2786 21.0634 22.62 20.2393 22.62 19.38V9.23C22.6174 8.37243 22.2748 7.55089 21.6675 6.94544C21.0602 6.33998 20.2376 6 19.38 6ZM19.85 19.38C19.85 19.5047 19.8005 19.6242 19.7123 19.7123C19.6242 19.8005 19.5047 19.85 19.38 19.85H9.23C9.10709 19.8474 8.9901 19.7967 8.90411 19.7089C8.81811 19.621 8.76997 19.5029 8.77 19.38V9.23C8.77255 9.1088 8.82184 8.99328 8.90756 8.90756C8.99328 8.82184 9.1088 8.77255 9.23 8.77H19.38C19.5029 8.76997 19.621 8.81811 19.7089 8.90411C19.7967 8.9901 19.8474 9.10709 19.85 9.23V19.38Z" fill="black"/>
<path d="M18 9.69H10.61C10.1019 9.69 9.69 10.1019 9.69 10.61V18C9.69 18.5081 10.1019 18.92 10.61 18.92H18C18.5081 18.92 18.92 18.5081 18.92 18V10.61C18.92 10.1019 18.5081 9.69 18 9.69Z" fill="black"/>
<path d="M38.77 6H28.62C27.7624 6 26.9398 6.33998 26.3325 6.94544C25.7252 7.55089 25.3826 8.37243 25.38 9.23V19.38C25.38 20.2393 25.7214 21.0634 26.329 21.671C26.9366 22.2786 27.7607 22.62 28.62 22.62H38.77C39.6276 22.6174 40.4491 22.2748 41.0546 21.6675C41.66 21.0602 42 20.2376 42 19.38V9.23C42 8.37335 41.6597 7.55179 41.054 6.94605C40.4482 6.3403 39.6266 6 38.77 6ZM39.23 19.38C39.23 19.5029 39.1819 19.621 39.0959 19.7089C39.0099 19.7967 38.8929 19.8474 38.77 19.85H28.62C28.4953 19.85 28.3758 19.8005 28.2877 19.7123C28.1995 19.6242 28.15 19.5047 28.15 19.38V9.23C28.1526 9.10709 28.2033 8.9901 28.2911 8.90411C28.379 8.81811 28.4971 8.76997 28.62 8.77H38.77C38.8912 8.77255 39.0067 8.82184 39.0924 8.90756C39.1782 8.99328 39.2274 9.1088 39.23 9.23V19.38Z" fill="black"/>
<path d="M37.39 9.69H30C29.4919 9.69 29.08 10.1019 29.08 10.61V18C29.08 18.5081 29.4919 18.92 30 18.92H37.39C37.8981 18.92 38.31 18.5081 38.31 18V10.61C38.31 10.1019 37.8981 9.69 37.39 9.69Z" fill="black"/>
<path d="M19.38 25.38H9.23C8.37243 25.3826 7.55089 25.7252 6.94544 26.3325C6.33998 26.9398 6 27.7624 6 28.62V38.77C6 39.6266 6.3403 40.4482 6.94605 41.054C7.55179 41.6597 8.37335 42 9.23 42H19.38C20.2376 42 21.0602 41.66 21.6675 41.0546C22.2748 40.4491 22.6174 39.6276 22.62 38.77V28.62C22.62 28.1945 22.5362 27.7732 22.3734 27.3801C22.2105 26.987 21.9719 26.6298 21.671 26.329C21.3702 26.0281 21.013 25.7895 20.6199 25.6266C20.2268 25.4638 19.8055 25.38 19.38 25.38ZM19.85 38.77C19.8474 38.8929 19.7967 39.0099 19.7089 39.0959C19.621 39.1819 19.5029 39.23 19.38 39.23H9.23C9.1088 39.2274 8.99328 39.1782 8.90756 39.0924C8.82184 39.0067 8.77255 38.8912 8.77 38.77V28.62C8.76997 28.4971 8.81811 28.379 8.90411 28.2911C8.9901 28.2033 9.10709 28.1526 9.23 28.15H19.38C19.5047 28.15 19.6242 28.1995 19.7123 28.2877C19.8005 28.3758 19.85 28.4953 19.85 28.62V38.77Z" fill="black"/>
<path d="M18 29.08H10.61C10.1019 29.08 9.69 29.4919 9.69 30V37.39C9.69 37.8981 10.1019 38.31 10.61 38.31H18C18.5081 38.31 18.92 37.8981 18.92 37.39V30C18.92 29.4919 18.5081 29.08 18 29.08Z" fill="black"/>
<path d="M40.15 25.38H36.86C36.4527 25.3857 36.0588 25.5264 35.74 25.78C35.4174 25.5263 35.0204 25.3857 34.61 25.38H32.79C32.3827 25.3857 31.9888 25.5264 31.67 25.78C31.3474 25.5263 30.9504 25.3857 30.54 25.38H27.25C26.7593 25.38 26.2888 25.5749 25.9419 25.9219C25.5949 26.2688 25.4 26.7393 25.4 27.23V30.52C25.395 30.7811 25.446 31.0402 25.5495 31.28C25.653 31.5197 25.8066 31.7345 26 31.91C25.8006 32.0807 25.6402 32.2922 25.5298 32.5303C25.4194 32.7685 25.3615 33.0275 25.36 33.29V40.15C25.3599 40.3964 25.4091 40.6402 25.5045 40.8673C25.6 41.0944 25.7399 41.3002 25.9159 41.4725C26.092 41.6448 26.3007 41.7802 26.5297 41.8708C26.7588 41.9614 27.0037 42.0053 27.25 42H30.54C30.9493 41.9979 31.3465 41.8608 31.67 41.61C31.9897 41.8607 32.3837 41.9979 32.79 42H34.61C35.0193 41.9979 35.4165 41.8608 35.74 41.61C36.0597 41.8607 36.4537 41.9979 36.86 42H40.15C40.6407 42 41.1112 41.8051 41.4581 41.4581C41.8051 41.1112 42 40.6407 42 40.15V36.86C41.9985 36.5975 41.9406 36.3385 41.8302 36.1003C41.7198 35.8622 41.5594 35.6507 41.36 35.48C41.5607 35.3082 41.7218 35.095 41.8323 34.8551C41.9427 34.6152 42 34.3542 42 34.09V27.23C42 26.7393 41.8051 26.2688 41.4581 25.9219C41.1112 25.5749 40.6407 25.38 40.15 25.38ZM37.78 28.15H39.23V33.15H37.78V28.15ZM28.17 28.15H29.62V29.6H28.17V28.15ZM29.62 39.23H28.17V34.23H29.62V39.23ZM39.23 39.23H37.78V37.78H39.23V39.23Z" fill="black"/>
</svg>
