<svg width="48" height="48" viewBox="0 0 48 48" fill="none" xmlns="http://www.w3.org/2000/svg">
<path d="M37.71 6H28.29C27.1522 6 26.061 6.45198 25.2565 7.25651C24.452 8.06104 24 9.15222 24 10.29C24 9.15222 23.548 8.06104 22.7435 7.25651C21.939 6.45198 20.8478 6 19.71 6H10.29C9.15222 6 8.06104 6.45198 7.25651 7.25651C6.45198 8.06104 6 9.15222 6 10.29V19.71C6 20.8478 6.45198 21.939 7.25651 22.7435C8.06104 23.548 9.15222 24 10.29 24C9.15222 24 8.06104 24.452 7.25651 25.2565C6.45198 26.061 6 27.1522 6 28.29V37.71C6 38.8478 6.45198 39.939 7.25651 40.7435C8.06104 41.548 9.15222 42 10.29 42H19.71C20.8478 42 21.939 41.548 22.7435 40.7435C23.548 39.939 24 38.8478 24 37.71V28.29C24 27.1522 23.548 26.061 22.7435 25.2565C21.939 24.452 20.8478 24 19.71 24C20.8478 24 21.939 23.548 22.7435 22.7435C23.548 21.939 24 20.8478 24 19.71C24 20.8478 24.452 21.939 25.2565 22.7435C26.061 23.548 27.1522 24 28.29 24H37.71C38.8478 24 39.939 23.548 40.7435 22.7435C41.548 21.939 42 20.8478 42 19.71V10.29C42 9.15222 41.548 8.06104 40.7435 7.25651C39.939 6.45198 38.8478 6 37.71 6ZM18.86 36.86H11.14V29.14H18.86V36.86ZM18.86 18.86H11.14V11.14H18.86V18.86ZM36.86 18.86H29.14V11.14H36.86V18.86Z" fill="black"/>
<path d="M16.71 12.43H13.29C12.815 12.43 12.43 12.815 12.43 13.29V16.71C12.43 17.185 12.815 17.57 13.29 17.57H16.71C17.185 17.57 17.57 17.185 17.57 16.71V13.29C17.57 12.815 17.185 12.43 16.71 12.43Z" fill="black"/>
<path d="M34.71 12.43H31.29C30.815 12.43 30.43 12.815 30.43 13.29V16.71C30.43 17.185 30.815 17.57 31.29 17.57H34.71C35.185 17.57 35.57 17.185 35.57 16.71V13.29C35.57 12.815 35.185 12.43 34.71 12.43Z" fill="black"/>
<path d="M16.71 30.43H13.29C12.815 30.43 12.43 30.815 12.43 31.29V34.71C12.43 35.185 12.815 35.57 13.29 35.57H16.71C17.185 35.57 17.57 35.185 17.57 34.71V31.29C17.57 30.815 17.185 30.43 16.71 30.43Z" fill="black"/>
<path d="M39.86 25.71H36.8C36.4473 25.7194 36.103 25.8193 35.8 26C35.4812 25.8135 35.1193 25.7136 34.75 25.71H33C32.6473 25.7194 32.303 25.8193 32 26C31.6818 25.8122 31.3195 25.7122 30.95 25.71H27.87C27.3015 25.7126 26.7572 25.9403 26.3562 26.3432C25.9551 26.7462 25.73 27.2915 25.73 27.86V30.91C25.7322 31.3765 25.8867 31.8294 26.17 32.2C25.8867 32.5706 25.7322 33.0235 25.73 33.49V39.86C25.73 40.141 25.7854 40.4193 25.8929 40.6789C26.0004 40.9386 26.1581 41.1745 26.3568 41.3732C26.5555 41.5719 26.7914 41.7296 27.0511 41.8371C27.3107 41.9446 27.589 42 27.87 42H30.93C31.3047 41.9998 31.6732 41.9033 32 41.72C32.3054 41.8936 32.6488 41.9898 33 42H34.69C35.0578 41.9951 35.4186 41.8989 35.74 41.72C36.0454 41.8936 36.3888 41.9898 36.74 42H39.8C40.086 42.008 40.3708 41.9586 40.6374 41.8547C40.904 41.7507 41.147 41.5943 41.3521 41.3948C41.5573 41.1953 41.7203 40.9567 41.8316 40.693C41.9428 40.4294 42.0001 40.1461 42 39.86V36.8C41.9964 36.3338 41.842 35.8812 41.56 35.51C41.8433 35.1432 41.9979 34.6934 42 34.23V27.86C42 27.2915 41.7749 26.7462 41.3738 26.3432C40.9728 25.9403 40.4285 25.7126 39.86 25.71Z" fill="black"/>
</svg>
