<svg width="48" height="48" viewBox="0 0 48 48" fill="none" xmlns="http://www.w3.org/2000/svg">
<path d="M27.0083 4.00741V4.31735L28.478 4.00741H27.0083Z" fill="black"/>
<path d="M11.6111 19.2646L12.231 18.6547C12.9056 17.9831 13.8187 17.606 14.7706 17.606C15.7224 17.606 16.6355 17.9831 17.3101 18.6547C17.9357 19.2988 18.2931 20.1565 18.3099 21.0543H18.9298V6.00704L23.369 5.07721V4.00741H11.6111V19.2646Z" fill="black"/>
<path d="M17.3101 30.6425C16.9756 30.9773 16.5781 31.2425 16.1405 31.4227C15.7028 31.6029 15.2338 31.6945 14.7606 31.6923C13.8055 31.6924 12.8891 31.3151 12.211 30.6425L11.6111 30.0026V40.4707H18.9698V28.2429H18.3499C18.3223 29.1462 17.9503 30.0047 17.3101 30.6425Z" fill="black"/>
<path d="M20.7594 22.634C20.2658 22.2157 19.6366 21.9918 18.9898 22.0041H17.3501C17.5405 21.4256 17.529 20.7996 17.3174 20.2285C17.1058 19.6574 16.7067 19.1751 16.1853 18.8604C15.6638 18.5456 15.051 18.4172 14.4471 18.4961C13.8432 18.575 13.284 18.8565 12.8609 19.2946L9.65151 22.504C9.16305 22.9761 8.84933 23.6 8.76167 24.2737C8.75186 24.3968 8.75186 24.5205 8.76167 24.6436C8.75132 24.7633 8.75132 24.8838 8.76167 25.0035C8.83407 25.6791 9.1337 26.3101 9.61151 26.7932L12.8609 30.0026C13.2827 30.4287 13.8348 30.7017 14.4295 30.7782C15.0242 30.8546 15.6274 30.7302 16.1433 30.4246C16.6591 30.1189 17.0581 29.6497 17.2767 29.0914C17.4954 28.5331 17.5212 27.9177 17.3501 27.3431H18.9898C19.6432 27.3415 20.2731 27.0995 20.7594 26.6632V44L23.399 43.4501V6.90687L20.7594 7.46677V22.634Z" fill="black"/>
<path d="M39.0861 5.09721L39.0161 5.00722C38.9867 4.94191 38.9533 4.87846 38.9161 4.81726L38.8061 4.66729C38.7716 4.61622 38.7313 4.56925 38.6861 4.52731C38.6544 4.48889 38.6174 4.45522 38.5761 4.42733L38.4162 4.30735C38.4162 4.30735 38.3362 4.30735 38.2962 4.23737C38.2383 4.2034 38.1782 4.17334 38.1162 4.14738L37.9563 4.09739L37.7563 4.00741H37.2464C37.1734 3.99753 37.0994 3.99753 37.0264 4.00741L27.0283 6.11702V42.6902L39.246 40.1307V5.80708C39.2397 5.56226 39.1854 5.32107 39.0861 5.09721Z" fill="black"/>
</svg>
