<svg width="48" height="48" viewBox="0 0 48 48" fill="none" xmlns="http://www.w3.org/2000/svg">
<path d="M11 4V20L11.82 19.18C12.3369 18.6622 13.0383 18.3709 13.77 18.37V6.77H23.68L20.4 7.46V37.72H13.77V31C13.0383 30.9991 12.3369 30.7078 11.82 30.19L11 29.39V40.48H20.4V44L38.4 40.22V4H11ZM35.64 38L26.64 39.89V9L35.64 7.11V38ZM23.17 9.71L23.86 9.56V40.45L23.17 40.59V9.71Z" fill="black"/>
<path d="M12.8 29.23C13.0652 29.4952 13.4249 29.6442 13.8 29.6442C14.1751 29.6442 14.5348 29.4952 14.8 29.23C15.0652 28.9648 15.2142 28.6051 15.2142 28.23C15.2142 27.8549 15.0652 27.4952 14.8 27.23L13.59 26.1H18.11C18.457 26.0705 18.7803 25.9118 19.0159 25.6553C19.2515 25.3988 19.3822 25.0633 19.3822 24.715C19.3822 24.3667 19.2515 24.0312 19.0159 23.7747C18.7803 23.5182 18.457 23.3595 18.11 23.33H13.58L14.76 22.16C15.0252 21.8948 15.1742 21.5351 15.1742 21.16C15.1742 20.7849 15.0252 20.4252 14.76 20.16C14.4948 19.8948 14.1351 19.7458 13.76 19.7458C13.3849 19.7458 13.0252 19.8948 12.76 20.16L9.5 23.5C9.2066 23.7987 9.02932 24.1923 9 24.61C9 24.61 9 24.68 9 24.72C9 24.76 9 24.78 9 24.81C9.02053 25.2328 9.19896 25.6325 9.5 25.93L12.8 29.23Z" fill="black"/>
</svg>
