<svg width="48" height="48" viewBox="0 0 48 48" fill="none" xmlns="http://www.w3.org/2000/svg">
<path fill-rule="evenodd" clip-rule="evenodd" d="M24 27.39C23.3363 27.3919 22.6869 27.1973 22.1337 26.8306C21.5805 26.4639 21.1483 25.9416 20.8916 25.3296C20.6349 24.7175 20.5652 24.0432 20.6913 23.3916C20.8174 22.74 21.1337 22.1403 21.6002 21.6682C22.0667 21.1962 22.6626 20.8728 23.3126 20.739C23.9627 20.6052 24.6378 20.6669 25.2528 20.9163C25.8679 21.1657 26.3953 21.5917 26.7685 22.1405C27.1417 22.6893 27.3441 23.3363 27.35 24C27.3553 24.4433 27.2726 24.8832 27.1066 25.2942C26.9406 25.7053 26.6947 26.0794 26.3831 26.3947C26.0715 26.71 25.7004 26.9603 25.2913 27.1312C24.8822 27.302 24.4433 27.39 24 27.39ZM36.1 27.75C38.69 26.65 40.37 25.19 40.38 24.03C40.39 22.87 38.7 21.43 36.1 20.32C35.46 20.05 34.77 19.8 34.04 19.57C33.5962 21.0827 33.0482 22.5629 32.4 24C33.0493 25.4514 33.6005 26.9448 34.05 28.47C34.76 28.26 35.45 28 36.09 27.75H36.1ZM32.19 38.2C33.19 37.62 33.61 35.44 33.26 32.64C33.1719 31.9236 33.045 31.2126 32.88 30.51C31.3443 30.887 29.7837 31.1543 28.21 31.31C27.3001 32.6011 26.2974 33.8243 25.21 34.97C27.6 37.18 29.86 38.39 31.38 38.39C31.6622 38.4011 31.9422 38.3355 32.19 38.2ZM24 33.83C24.7112 33.0857 25.379 32.3011 26 31.48C25.33 31.48 24.65 31.53 24 31.53C23.35 31.53 22.64 31.53 22 31.48C22.6269 32.2963 23.2944 33.0806 24 33.83ZM16.67 38.43C18.2 38.43 20.45 37.21 22.84 34.99C21.7408 33.8376 20.7218 32.6114 19.79 31.32C18.2209 31.1554 16.6642 30.8882 15.13 30.52C14.964 31.2325 14.8372 31.9536 14.75 32.68C14.41 35.48 14.85 37.68 15.84 38.23C16.0984 38.367 16.3875 38.4358 16.68 38.43H16.67ZM14 28.5C14.4409 26.9811 14.9855 25.4943 15.63 24.05C14.9823 22.5979 14.4312 21.1046 13.98 19.58C13.27 19.81 12.58 20.05 11.98 20.32C9.38 21.42 7.7 22.88 7.7 24.03C7.7 25.18 9.38 26.64 11.98 27.75C12.55 28 13.23 28.27 14 28.5ZM15.81 9.85997C14.81 10.44 14.39 12.62 14.74 15.43C14.83 16.11 14.95 16.82 15.12 17.55C16.6557 17.173 18.2163 16.9056 19.79 16.75C20.6999 15.4588 21.7026 14.2356 22.79 13.09C20.4 10.88 18.14 9.66997 16.62 9.66997C16.3382 9.66352 16.0595 9.7289 15.81 9.85997ZM26 16.59C25.3731 15.7737 24.7056 14.9894 24 14.24C23.2888 14.9842 22.621 15.7689 22 16.59C22.6667 16.55 23.3333 16.53 24 16.53C24.68 16.53 25.36 16.56 26 16.59ZM30.47 20.28C30.82 20.86 31.13 21.45 31.47 22.04C31.85 21.04 32.18 20.09 32.47 19.14C31.47 18.9 30.47 18.71 29.47 18.56C29.8 19.12 30.16 19.69 30.49 20.28H30.47ZM30.47 27.77C30.13 28.36 29.77 28.94 29.41 29.51C30.41 29.35 31.48 29.16 32.41 28.92C32.13 27.92 31.79 26.98 31.41 26C31.15 26.59 30.84 27.18 30.5 27.77H30.47ZM17.4 24.06C17.86 25.06 18.4 26.06 18.92 26.98C19.44 27.9 20.09 28.89 20.7 29.76C21.78 29.85 22.89 29.9 24 29.9C25.11 29.9 26.22 29.9 27.32 29.76C27.93 28.88 28.51 27.95 29.09 26.95C29.67 25.95 30.14 25 30.6 24C30.14 23 29.6 22 29.08 21.08C28.56 20.16 27.91 19.16 27.3 18.29C26.22 18.2 25.11 18.15 24 18.15C22.89 18.15 21.78 18.2 20.68 18.29C20.07 19.17 19.49 20.11 18.91 21.1C18.33 22.09 17.85 23.07 17.4 24.06ZM15.52 19.14C15.8044 20.1294 16.1382 21.1039 16.52 22.06C16.82 21.47 17.13 20.89 17.52 20.3C17.91 19.71 18.22 19.12 18.58 18.56C17.5 18.71 16.49 18.91 15.52 19.14ZM17.52 27.79C17.17 27.2 16.86 26.62 16.52 26.03C16.14 27.03 15.8 27.98 15.52 28.93C16.52 29.16 17.52 29.35 18.52 29.51C18.2 29 17.84 28.38 17.5 27.79H17.52ZM31.31 9.63997C29.78 9.63997 27.54 10.86 25.15 13.08C26.2492 14.2323 27.2682 15.4585 28.2 16.75C29.7705 16.9049 31.3278 17.1722 32.86 17.55C33.026 16.8374 33.1528 16.1164 33.24 15.39C33.58 12.59 33.14 10.39 32.15 9.82997C31.8899 9.69844 31.6014 9.63318 31.31 9.63997ZM42 24C42 26.38 39 28.64 34.48 30C35.54 34.66 35.08 38.36 33.02 39.55C32.5128 39.8314 31.9399 39.9729 31.36 39.96C29.36 39.96 26.7 38.54 24.03 36.06C21.36 38.55 18.72 39.99 16.7 39.99C16.123 40.0056 15.5526 39.8639 15.05 39.58C13 38.46 12.51 34.75 13.57 30.08C9 28.68 6 26.42 6 24C6 21.58 9 19.37 13.54 18C12.47 13.34 12.93 9.63997 15 8.44997C15.4996 8.15444 16.0696 7.99899 16.65 7.99997C18.65 7.99997 21.31 9.41997 23.99 11.9C26.66 9.43997 29.3 7.99997 31.32 7.99997C31.9082 7.9808 32.49 8.12626 33 8.41997C35 9.60997 35.49 13.32 34.43 18C39 19.39 42 21.65 42 24Z" fill="black"/>
</svg>
