<svg width="48" height="48" viewBox="0 0 48 48" fill="none" xmlns="http://www.w3.org/2000/svg">
<path d="M42.6 22.5819C42.2304 22.5845 41.8769 22.7332 41.6165 22.9955C41.3561 23.2577 41.21 23.6123 41.21 23.9819C41.2167 27.8262 39.9383 31.5624 37.578 34.5968C35.2177 37.6312 31.9109 39.7896 28.1831 40.7291C24.4554 41.6686 20.5206 41.3351 17.0041 39.7818C13.4876 38.2285 10.5911 35.5444 8.77507 32.1562C6.95899 28.7679 6.32748 24.8698 6.98091 21.0815C7.63435 17.2931 9.53522 13.8318 12.3814 11.2477C15.2277 8.66363 18.8559 7.10496 22.6896 6.81944C26.5233 6.53392 30.3424 7.53793 33.54 9.67191L32.2 9.84191C31.8578 9.89901 31.549 10.0811 31.3334 10.353C31.1179 10.6248 31.0109 10.9671 31.0334 11.3133C31.0558 11.6595 31.206 11.985 31.4548 12.2268C31.7036 12.4686 32.0333 12.6094 32.38 12.6219H32.56L37 12.0319C37.1342 12.0119 37.2652 11.975 37.39 11.9219C37.4672 11.9024 37.5413 11.8721 37.61 11.8319C37.7177 11.7735 37.8183 11.7031 37.91 11.6219H37.96V11.5619C38.01 11.5619 38.07 11.4619 38.12 11.4019C38.3971 11.0403 38.5193 10.5836 38.46 10.1319L37.9 5.67191C37.8477 5.30534 37.6544 4.97368 37.3611 4.74765C37.0678 4.52162 36.6978 4.41908 36.33 4.46191C35.963 4.51165 35.6307 4.7048 35.4057 4.99905C35.1808 5.29331 35.0817 5.6647 35.13 6.03191L35.32 7.51191C31.6347 4.98172 27.2079 3.75914 22.7464 4.03934C18.2849 4.31955 14.0459 6.08638 10.7061 9.05778C7.36625 12.0292 5.1182 16.0338 4.32079 20.4324C3.52338 24.831 4.22259 29.37 6.30679 33.3247C8.391 37.2794 11.74 40.4218 15.8192 42.2504C19.8985 44.0789 24.4727 44.4881 28.8117 43.4126C33.1507 42.3371 37.0043 39.839 39.7573 36.317C42.5103 32.795 44.0041 28.4522 44 23.9819C44 23.6106 43.8525 23.2545 43.59 22.992C43.3274 22.7294 42.9713 22.5819 42.6 22.5819Z" fill="black"/>
</svg>
