<svg width="48" height="48" viewBox="0 0 48 48" fill="none" xmlns="http://www.w3.org/2000/svg">
<path d="M41.39 21.3901C40.6978 21.3901 40.0339 21.665 39.5445 22.1545C39.055 22.644 38.78 23.3078 38.78 24.0001C38.7849 27.1776 37.7657 30.2722 35.8734 32.8248C33.9811 35.3775 31.3165 37.2523 28.2748 38.1713C25.233 39.0904 21.9761 39.0046 18.9869 37.9268C15.9977 36.8491 13.4354 34.8366 11.68 32.1879C9.92466 29.5393 9.06963 26.3954 9.24173 23.2225C9.41383 20.0496 10.6039 17.0167 12.6355 14.5734C14.6671 12.1301 17.4319 10.4066 20.5202 9.6585C23.6084 8.91037 26.8555 9.17742 29.78 10.4201C29.5491 10.6945 29.3783 11.0142 29.2784 11.3587C29.1785 11.7031 29.1518 12.0647 29.2 12.4201C29.2823 13.0467 29.5892 13.6221 30.0637 14.0396C30.5382 14.4571 31.148 14.6882 31.78 14.6901H32.13L36.27 14.1501H36.45L36.81 14.0601C37.2684 13.9304 37.6809 13.6738 38 13.3201C38.0463 13.2692 38.0897 13.2158 38.13 13.1601C38.411 12.8504 38.6218 12.4837 38.7478 12.0849C38.8738 11.6862 38.9121 11.265 38.86 10.8501L38.31 6.71006C38.2367 6.12116 37.9642 5.57506 37.5377 5.16244C37.1111 4.74983 36.5563 4.49554 35.9653 4.44182C35.3743 4.38809 34.7827 4.53815 34.2888 4.86709C33.7948 5.19602 33.4283 5.68403 33.25 6.25006C29.3796 4.2311 24.955 3.53388 20.6513 4.26479C16.3476 4.99569 12.4013 7.11459 9.41444 10.2981C6.42762 13.4817 4.5644 17.555 4.1091 21.8965C3.65381 26.238 4.63145 30.6092 6.89283 34.3431C9.15422 38.0771 12.5751 40.9686 16.6336 42.5764C20.692 44.1842 25.165 44.4201 29.37 43.248C33.575 42.076 37.2811 39.5603 39.9227 36.0849C42.5642 32.6095 43.9962 28.3654 44 24.0001C44 23.3078 43.725 22.644 43.2356 22.1545C42.7461 21.665 42.0822 21.3901 41.39 21.3901Z" fill="black"/>
</svg>
