<svg width="48" height="48" viewBox="0 0 48 48" fill="none" xmlns="http://www.w3.org/2000/svg">
<path d="M16.851 15.1235C16.851 15.0335 16.9511 14.9435 17.0012 14.8535H15.7496C15.2735 14.8523 14.8018 14.9454 14.3619 15.1273C13.9219 15.3093 13.5225 15.5765 13.1865 15.9135L6.94889 22.1835C6.49622 22.636 6.18779 23.2122 6.06247 23.8395C5.93715 24.4668 6.00054 25.1171 6.24466 25.7085C6.48878 26.2999 6.9027 26.8058 7.43426 27.1626C7.96582 27.5194 8.59123 27.7111 9.23168 27.7135C9.45719 27.715 9.68216 27.6915 9.9025 27.6435L10.7836 27.4635L16.851 15.1235Z" fill="black"/>
<path d="M32.8605 31.1035C30.1472 32.4635 24.1599 35.4235 20.5055 37.2335L20.3252 38.1035C20.1788 38.7873 20.2599 39.5002 20.5563 40.1338C20.8527 40.7674 21.3481 41.2869 21.9672 41.6135C22.5816 41.9447 23.2867 42.0692 23.9775 41.9683C24.6684 41.8674 25.3082 41.5466 25.8019 41.0535L32.0796 34.7735C32.417 34.4379 32.6845 34.0389 32.8667 33.5995C33.0489 33.1601 33.1421 32.6891 33.1409 32.2135V31.0035L32.8605 31.1035Z" fill="black"/>
<path d="M41.8115 9.00348C41.7244 8.28676 41.3987 7.62007 40.8866 7.11046C40.3746 6.60086 39.7059 6.27791 38.988 6.19348C37.5483 6.04027 36.1004 5.97681 34.6527 6.00348C27.9746 6.00348 22.8683 9.05348 18.6432 15.6035C18.5777 15.707 18.5175 15.8138 18.463 15.9235C17.0412 18.7835 13.8373 25.2535 12.0651 28.8435C11.7635 29.4475 11.6601 30.1311 11.7698 30.7971C11.8794 31.4632 12.1965 32.0777 12.6759 32.5535L15.4292 35.2935C16.038 35.8915 16.8582 36.2256 17.712 36.2235C18.2085 36.2265 18.6988 36.1135 19.1438 35.8935C22.7182 34.1235 29.156 30.8935 32.0596 29.4935L32.3699 29.3135C38.988 25.0835 41.9917 20.0035 41.9917 13.3435C42.023 11.8945 41.9628 10.4449 41.8115 9.00348ZM35.2435 17.4635C34.7754 17.9297 34.1795 18.2469 33.5311 18.375C32.8827 18.5031 32.2108 18.4364 31.6002 18.1834C30.9897 17.9303 30.468 17.5022 30.101 16.9531C29.7339 16.4041 29.538 15.7587 29.538 15.0985C29.538 14.4383 29.7339 13.7929 30.101 13.2438C30.468 12.6948 30.9897 12.2667 31.6002 12.0136C32.2108 11.7605 32.8827 11.6939 33.5311 11.822C34.1795 11.9501 34.7754 12.2673 35.2435 12.7335C35.555 13.0437 35.8021 13.4124 35.9708 13.8182C36.1394 14.224 36.2262 14.6591 36.2262 15.0985C36.2262 15.5379 36.1394 15.9729 35.9708 16.3788C35.8021 16.7846 35.555 17.1532 35.2435 17.4635Z" fill="black"/>
</svg>
