<svg width="48" height="48" viewBox="0 0 48 48" fill="none" xmlns="http://www.w3.org/2000/svg">
<path d="M41.8116 8.67535C41.7338 8.04476 41.4476 7.45824 40.9982 7.00897C40.5489 6.5597 39.9623 6.27347 39.3316 6.19575C37.8902 6.04292 36.4408 5.97948 34.9916 6.00578C28.4516 6.00578 23.4716 8.89532 19.3016 15.0843H15.5716C15.1442 15.081 14.7205 15.1634 14.3254 15.3266C13.9304 15.4897 13.5721 15.7303 13.2716 16.0342L6.83157 22.4631C6.43508 22.8631 6.16508 23.3709 6.0552 23.9233C5.94532 24.4756 6.00043 25.0481 6.21366 25.5694C6.42688 26.0906 6.7888 26.5376 7.25431 26.8547C7.71983 27.1717 8.26836 27.3448 8.83157 27.3523C9.03306 27.3522 9.23404 27.3321 9.43157 27.2924L13.5516 26.4325C13.0516 27.4323 12.5516 28.3722 12.1916 29.1621C11.9284 29.6975 11.8398 30.3019 11.9385 30.8903C12.0372 31.4787 12.3181 32.0213 12.7416 32.4415L15.5616 35.2511C15.9818 35.6717 16.5239 35.9493 17.1109 36.0444C17.6979 36.1395 18.2999 36.0473 18.8316 35.781L21.5516 34.4412L20.6916 38.5505C20.6053 38.9685 20.6134 39.4005 20.7152 39.815C20.817 40.2295 21.0101 40.616 21.2802 40.9465C21.5504 41.277 21.8909 41.543 22.2769 41.7253C22.6629 41.9075 23.0847 42.0014 23.5116 42C24.2625 41.9924 24.9805 41.6909 25.5116 41.1601L31.9916 34.7212C32.3045 34.4249 32.5544 34.0685 32.7263 33.6734C32.8981 33.2782 32.9884 32.8524 32.9916 32.4215V28.6821C39.1016 24.5028 41.9916 19.5336 41.9916 13.0746C42.0235 11.6059 41.9633 10.1366 41.8116 8.67535ZM8.87157 24.5728C8.87157 24.5728 8.81157 24.5728 8.77157 24.5728C8.7575 24.5579 8.74966 24.5383 8.74966 24.5178C8.74966 24.4973 8.7575 24.4777 8.77157 24.4628L15.2216 18.0038C15.3156 17.9122 15.4403 17.8588 15.5716 17.8539H17.8116L15.1216 23.283L8.87157 24.5728ZM29.9916 32.7715L23.5716 39.2004C23.5716 39.2004 23.5716 39.2004 23.4616 39.2004C23.3516 39.2004 23.4616 39.1404 23.4616 39.1004L24.7516 32.8515L30.1816 30.1619V32.4015C30.1771 32.4729 30.1579 32.5427 30.1252 32.6063C30.0925 32.67 30.047 32.7262 29.9916 32.7715ZM39.2216 13.0646C39.2216 18.8437 36.7216 22.9331 30.8316 26.7324C27.9016 28.2022 21.2716 31.4817 17.5216 33.2814L14.6916 30.3919C16.5016 26.7224 19.7816 20.0935 21.2516 17.144C24.9916 11.2749 29.1216 8.77534 34.9916 8.77534C36.3522 8.74319 37.7132 8.82009 39.0616 9.0053C39.1982 10.3538 39.2517 11.7095 39.2216 13.0646Z" fill="black"/>
<path d="M33.1116 10.0551C31.9965 10.0559 30.9162 10.4433 30.0547 11.1512C29.1932 11.8591 28.6039 12.8437 28.387 13.9373C28.1702 15.031 28.3394 16.1659 28.8657 17.1489C29.3919 18.1318 30.2428 18.9019 31.2733 19.3279C32.3037 19.7539 33.4501 19.8095 34.517 19.4852C35.5838 19.161 36.5053 18.4769 37.1243 17.5495C37.7432 16.6221 38.0215 15.5089 37.9116 14.3994C37.8017 13.2899 37.3105 12.2529 36.5216 11.4649C36.075 11.0157 35.5435 10.6598 34.9581 10.4178C34.3727 10.1757 33.745 10.0525 33.1116 10.0551ZM34.5616 16.3241C34.177 16.7086 33.6554 16.9246 33.1116 16.9246C32.5677 16.9246 32.0461 16.7086 31.6616 16.3241C31.277 15.9396 31.061 15.4181 31.061 14.8744C31.061 14.3306 31.277 13.8091 31.6616 13.4246C32.0461 13.0401 32.5677 12.8241 33.1116 12.8241C33.3809 12.8241 33.6475 12.8771 33.8963 12.9801C34.1451 13.0832 34.3711 13.2342 34.5616 13.4246C34.752 13.615 34.903 13.841 35.0061 14.0897C35.1091 14.3385 35.1622 14.6051 35.1622 14.8744C35.1622 15.1436 35.1091 15.4102 35.0061 15.659C34.903 15.9077 34.752 16.1337 34.5616 16.3241Z" fill="black"/>
</svg>
