<svg width="48" height="48" viewBox="0 0 48 48" fill="none" xmlns="http://www.w3.org/2000/svg">
<path d="M23.9549 4.00012C20.2689 4.00427 16.6566 5.03313 13.5216 6.97177C10.3866 8.91041 7.85226 11.6825 6.20175 14.9783C4.55123 18.2741 3.84953 21.964 4.17502 25.6356C4.50051 29.3072 5.84037 32.816 8.04494 35.7701C8.15494 35.9301 8.27494 36.0801 8.39494 36.2401C8.51494 36.4001 8.59494 36.5101 8.70494 36.6401C10.5381 38.9367 12.865 40.7911 15.5128 42.0655C18.1606 43.3398 21.0614 44.0016 23.9999 44.0016C26.9385 44.0016 29.8393 43.3398 32.4871 42.0655C35.1349 40.7911 37.4618 38.9367 39.2949 36.6401C39.4049 36.5101 39.5049 36.3701 39.6049 36.2401C39.7049 36.1101 39.8449 35.9301 39.9549 35.7701C42.1641 32.8099 43.5049 29.2928 43.8269 25.6131C44.1489 21.9335 43.4394 18.237 41.778 14.938C40.1166 11.6391 37.569 8.86823 34.4209 6.93625C31.2727 5.00427 27.6486 3.98754 23.9549 4.00012ZM41.0449 21.8601C41.1064 21.8721 41.1618 21.9051 41.2016 21.9535C41.2414 22.0018 41.2632 22.0625 41.2632 22.1251C41.2632 22.1877 41.2414 22.2484 41.2016 22.2968C41.1618 22.3451 41.1064 22.3781 41.0449 22.3901L37.9749 22.7201C37.9054 22.7233 37.8372 22.7005 37.7836 22.6561C37.73 22.6117 37.6948 22.549 37.6849 22.4801C37.6808 22.4446 37.6837 22.4087 37.6935 22.3743C37.7034 22.3399 37.7199 22.3079 37.7423 22.28C37.7646 22.2521 37.7922 22.2289 37.8236 22.2117C37.8549 22.1946 37.8894 22.1838 37.9249 22.1801L40.9949 21.8601H41.0449ZM40.7249 20.0801C40.787 20.0813 40.8467 20.1039 40.894 20.1439C40.9414 20.184 40.9735 20.2392 40.9849 20.3001C40.9922 20.3343 40.9924 20.3696 40.9857 20.4039C40.979 20.4382 40.9654 20.4708 40.9458 20.4997C40.9262 20.5287 40.901 20.5534 40.8716 20.5723C40.8423 20.5913 40.8094 20.6042 40.7749 20.6101L39.5049 20.8801C39.4714 20.8875 39.4368 20.8881 39.4031 20.882C39.3693 20.8759 39.3371 20.8632 39.3083 20.8446C39.2795 20.826 39.2547 20.8019 39.2352 20.7737C39.2157 20.7455 39.2021 20.7137 39.1949 20.6801C39.1799 20.6112 39.1924 20.5392 39.2298 20.4794C39.2671 20.4196 39.3264 20.3768 39.3949 20.3601L40.6649 20.0901L40.7249 20.0801ZM40.2949 18.3501C40.3473 18.3522 40.3977 18.3707 40.439 18.403C40.4802 18.4353 40.5103 18.4798 40.5249 18.5301C40.5472 18.5978 40.5418 18.6714 40.5099 18.7351C40.4781 18.7988 40.4224 18.8473 40.3549 18.8701L37.4249 19.8701C37.3595 19.8853 37.2907 19.8754 37.2321 19.8426C37.1735 19.8097 37.1292 19.7562 37.108 19.6924C37.0867 19.6287 37.09 19.5593 37.1172 19.4979C37.1444 19.4364 37.1935 19.3873 37.2549 19.3601L40.1949 18.3601C40.2142 18.3532 40.2345 18.3498 40.2549 18.3501H40.2949ZM39.6149 16.6801C39.6674 16.6807 39.7187 16.696 39.7629 16.7243C39.8071 16.7526 39.8425 16.7927 39.8649 16.8401C39.8797 16.8722 39.8877 16.9069 39.8886 16.9421C39.8895 16.9774 39.8832 17.0124 39.8701 17.0452C39.857 17.0779 39.8373 17.1076 39.8124 17.1326C39.7874 17.1575 39.7577 17.1771 39.7249 17.1901L38.5349 17.7201C38.4711 17.7477 38.3991 17.7496 38.3339 17.7254C38.2686 17.7011 38.2153 17.6527 38.1849 17.5901C38.1701 17.5573 38.1619 17.5219 38.1609 17.486C38.1599 17.45 38.1661 17.4142 38.1791 17.3806C38.1922 17.3471 38.2118 17.3165 38.2368 17.2907C38.2619 17.2648 38.2918 17.2442 38.3249 17.2301L39.5049 16.7001L39.6149 16.6801ZM38.8349 15.0801C38.8787 15.0796 38.9217 15.0915 38.9589 15.1145C38.9961 15.1376 39.0259 15.1707 39.0449 15.2101C39.0646 15.2399 39.0779 15.2735 39.0841 15.3087C39.0902 15.3439 39.089 15.38 39.0805 15.4147C39.0721 15.4494 39.0566 15.482 39.035 15.5105C39.0134 15.539 38.9861 15.5627 38.9549 15.5801L36.2449 17.1201C36.2141 17.138 36.1801 17.1496 36.1447 17.1542C36.1094 17.1588 36.0735 17.1564 36.0391 17.1472C36.0047 17.1379 35.9725 17.1218 35.9443 17.1C35.9162 17.0782 35.8926 17.0511 35.8749 17.0201C35.8573 16.9901 35.8459 16.9568 35.8414 16.9222C35.8369 16.8876 35.8393 16.8525 35.8487 16.8189C35.858 16.7853 35.874 16.754 35.8957 16.7267C35.9174 16.6994 35.9443 16.6768 35.9749 16.6601L38.6449 15.1101C38.691 15.0859 38.7431 15.0754 38.7949 15.0801H38.8349ZM37.8349 13.5901C37.8756 13.5932 37.9152 13.6046 37.9513 13.6235C37.9874 13.6424 38.0192 13.6685 38.0449 13.7001C38.0854 13.7591 38.1017 13.8314 38.0905 13.9021C38.0794 13.9727 38.0416 14.0364 37.9849 14.0801L36.9849 14.8401C36.9561 14.8614 36.9234 14.8767 36.8886 14.8852C36.8539 14.8937 36.8177 14.8952 36.7824 14.8897C36.747 14.8841 36.7131 14.8715 36.6827 14.8527C36.6522 14.8339 36.6258 14.8092 36.6049 14.7801C36.5651 14.7227 36.5491 14.652 36.5603 14.583C36.5715 14.514 36.609 14.452 36.6649 14.4101L37.7149 13.6401C37.7366 13.6212 37.76 13.6045 37.7849 13.5901H37.8349ZM35.1949 11.0001C35.2182 10.9722 35.2472 10.9497 35.28 10.9342C35.3128 10.9186 35.3486 10.9104 35.3849 10.9101C35.4198 10.9072 35.4549 10.912 35.4877 10.9241C35.5205 10.9362 35.5503 10.9553 35.5749 10.9801C35.5994 11.0043 35.6189 11.0331 35.6321 11.0649C35.6454 11.0966 35.6523 11.1307 35.6523 11.1651C35.6523 11.1995 35.6454 11.2336 35.6321 11.2654C35.6189 11.2971 35.5994 11.3259 35.5749 11.3501L34.7049 12.3501C34.6556 12.3965 34.5906 12.4227 34.5229 12.4235C34.4552 12.4242 34.3896 12.3995 34.3393 12.3542C34.2889 12.3089 34.2575 12.2463 34.2511 12.1788C34.2447 12.1114 34.264 12.044 34.3049 11.9901L35.1949 11.0001ZM34.0449 9.79012C34.0941 9.77741 34.1457 9.77741 34.1949 9.79012C34.2233 9.8117 34.2471 9.83868 34.2649 9.8695C34.2828 9.90033 34.2944 9.93438 34.2991 9.9697C34.3037 10.005 34.3013 10.0409 34.292 10.0753C34.2827 10.1097 34.2667 10.1419 34.2449 10.1701L32.4249 12.7101C32.3786 12.7328 32.3267 12.7417 32.2754 12.7358C32.2242 12.7298 32.1757 12.7094 32.1357 12.6767C32.0957 12.6441 32.0659 12.6007 32.0498 12.5517C32.0338 12.5027 32.0321 12.4501 32.0449 12.4001L33.8549 9.90012C33.9021 9.84076 33.97 9.80146 34.0449 9.79012ZM31.6349 10.0801L32.2749 9.00012C32.294 8.96072 32.3238 8.92756 32.361 8.90454C32.3982 8.88151 32.4412 8.86957 32.4849 8.87012C32.5332 8.85165 32.5866 8.85165 32.6349 8.87012C32.6659 8.88775 32.6931 8.91133 32.7149 8.93951C32.7367 8.96769 32.7527 8.9999 32.762 9.03429C32.7713 9.06869 32.7737 9.10458 32.769 9.13991C32.7644 9.17523 32.7528 9.20929 32.7349 9.24012L32.0449 10.3501C32.0283 10.3807 32.0056 10.4077 31.9784 10.4294C31.9511 10.4511 31.9197 10.4671 31.8861 10.4764C31.8525 10.4857 31.8174 10.4882 31.7829 10.4837C31.7483 10.4792 31.715 10.4678 31.6849 10.4501C31.629 10.4082 31.5915 10.3462 31.5803 10.2772C31.5691 10.2082 31.5851 10.1376 31.6249 10.0801H31.6349ZM30.9349 8.00012C30.9708 7.98927 31.0091 7.98927 31.0449 8.00012C31.0777 8.01317 31.1075 8.03276 31.1324 8.05768C31.1573 8.0826 31.177 8.11233 31.1901 8.14507C31.2032 8.17781 31.2095 8.21287 31.2086 8.24812C31.2077 8.28337 31.1997 8.31807 31.1849 8.35012L29.9149 11.2001C29.8846 11.2627 29.8312 11.3111 29.766 11.3354C29.7008 11.3596 29.6288 11.3577 29.5649 11.3301C29.5037 11.3036 29.455 11.2545 29.429 11.1931C29.4029 11.1317 29.4015 11.0626 29.4249 11.0001L30.6849 8.18012C30.702 8.12739 30.7354 8.08148 30.7804 8.0491C30.8254 8.01672 30.8795 7.99956 30.9349 8.00012ZM28.9849 7.56012C29.0004 7.50935 29.0304 7.46426 29.0713 7.43046C29.1122 7.39667 29.1622 7.37568 29.2149 7.37012H29.3249C29.3909 7.395 29.445 7.44383 29.4765 7.50685C29.508 7.56987 29.5146 7.64245 29.4949 7.71012L29.0949 9.00012C29.0701 9.06603 29.0212 9.12014 28.9582 9.15165C28.8952 9.18316 28.8226 9.18976 28.7549 9.17012C28.6875 9.1473 28.6318 9.09878 28.6 9.0351C28.5681 8.97143 28.5627 8.89775 28.5849 8.83012L28.9849 7.56012ZM27.2449 7.10012C27.2599 7.04181 27.2933 6.9899 27.3402 6.95207C27.387 6.91424 27.4448 6.89252 27.5049 6.89012H27.5649C27.6332 6.90461 27.6933 6.945 27.7324 7.0028C27.7716 7.0606 27.7868 7.13132 27.7749 7.20012L27.1249 10.2001C27.119 10.2346 27.1061 10.2674 27.0872 10.2968C27.0682 10.3262 27.0435 10.3514 27.0146 10.371C26.9856 10.3906 26.953 10.4042 26.9187 10.4109C26.8844 10.4176 26.8491 10.4173 26.8149 10.4101C26.7801 10.403 26.747 10.389 26.7176 10.369C26.6882 10.3491 26.663 10.3235 26.6434 10.2938C26.6239 10.264 26.6105 10.2307 26.6039 10.1958C26.5973 10.1608 26.5976 10.1249 26.6049 10.0901L27.2449 7.10012ZM25.4749 6.87012C25.4796 6.80799 25.5063 6.7496 25.5504 6.70555C25.5944 6.6615 25.6528 6.63474 25.7149 6.63012C25.7501 6.63258 25.7843 6.64214 25.8156 6.65823C25.8469 6.67432 25.8746 6.6966 25.8971 6.72371C25.9195 6.75083 25.9362 6.78221 25.9461 6.81597C25.9561 6.84974 25.9591 6.88516 25.9549 6.92012L25.8149 8.21012C25.8125 8.24523 25.8029 8.27947 25.7868 8.31077C25.7707 8.34208 25.7485 8.36979 25.7213 8.39223C25.6942 8.41467 25.6628 8.43137 25.6291 8.44132C25.5953 8.45127 25.5599 8.45426 25.5249 8.45012C25.4551 8.44253 25.3909 8.40799 25.3461 8.35384C25.3013 8.29968 25.2793 8.23018 25.2849 8.16012L25.4749 6.87012ZM23.6849 6.78012C23.6969 6.71864 23.7299 6.66325 23.7783 6.62343C23.8266 6.58361 23.8873 6.56184 23.9499 6.56184C24.0126 6.56184 24.0733 6.58361 24.1216 6.62343C24.1699 6.66325 24.2029 6.71864 24.2149 6.78012V9.87012C24.2226 9.90922 24.2215 9.94953 24.2117 9.98815C24.2019 10.0268 24.1837 10.0627 24.1583 10.0935C24.133 10.1242 24.1012 10.149 24.0652 10.166C24.0291 10.183 23.9898 10.1918 23.9499 10.1918C23.9101 10.1918 23.8708 10.183 23.8347 10.166C23.7987 10.149 23.7669 10.1242 23.7415 10.0935C23.7162 10.0627 23.698 10.0268 23.6882 9.98815C23.6784 9.94953 23.6773 9.90922 23.6849 9.87012V6.78012ZM22.1449 6.63012H22.2049C22.2657 6.63832 22.3221 6.66625 22.3654 6.70961C22.4088 6.75296 22.4367 6.80935 22.4449 6.87012L22.5749 8.16012C22.5806 8.23018 22.5586 8.29968 22.5138 8.35384C22.469 8.40799 22.4048 8.44253 22.3349 8.45012C22.3 8.45426 22.2646 8.45127 22.2308 8.44132C22.197 8.43137 22.1657 8.41467 22.1385 8.39223C22.1114 8.36979 22.0891 8.34208 22.0731 8.31077C22.057 8.27947 22.0474 8.24523 22.0449 8.21012L21.9049 6.92012C21.9008 6.88516 21.9038 6.84974 21.9137 6.81597C21.9237 6.78221 21.9404 6.75083 21.9628 6.72371C21.9853 6.6966 22.013 6.67432 22.0443 6.65823C22.0756 6.64214 22.1098 6.63258 22.1449 6.63012ZM20.3449 6.89012H20.4049C20.4656 6.89085 20.5242 6.91196 20.5713 6.95005C20.6185 6.98815 20.6515 7.041 20.6649 7.10012L21.3049 10.1001C21.3171 10.1701 21.3022 10.2422 21.2632 10.3016C21.2242 10.361 21.164 10.4034 21.0949 10.4201C21.0261 10.432 20.9554 10.4167 20.8976 10.3776C20.8398 10.3384 20.7994 10.2784 20.7849 10.2101L20.1449 7.21012C20.1299 7.14122 20.1424 7.06917 20.1798 7.00938C20.2171 6.94958 20.2764 6.90677 20.3449 6.89012ZM18.5849 7.38012H18.6849C18.7381 7.38435 18.7888 7.40485 18.8299 7.43885C18.871 7.47284 18.9007 7.51867 18.9149 7.57012L19.3249 8.80012C19.3441 8.86906 19.3361 8.9427 19.3026 9.00592C19.2691 9.06915 19.2127 9.11717 19.1449 9.14012C19.0825 9.16358 19.0134 9.16214 18.952 9.13608C18.8905 9.11002 18.8415 9.06134 18.8149 9.00012L18.4149 7.77012C18.3954 7.73406 18.3844 7.69402 18.3826 7.65306C18.3809 7.61209 18.3885 7.57126 18.4049 7.53367C18.4212 7.49608 18.446 7.46272 18.4772 7.43611C18.5084 7.40951 18.5452 7.39036 18.5849 7.38012ZM16.8849 8.00012C16.9366 7.98097 16.9933 7.98097 17.0449 8.00012C17.0974 8.00068 17.1487 8.01597 17.1929 8.04426C17.2371 8.07255 17.2725 8.1127 17.2949 8.16012L18.4949 11.0001C18.5097 11.0322 18.5177 11.0669 18.5186 11.1021C18.5195 11.1374 18.5132 11.1724 18.5001 11.2052C18.487 11.2379 18.4673 11.2676 18.4424 11.2926C18.4175 11.3175 18.3877 11.3371 18.3549 11.3501C18.2927 11.3644 18.2274 11.3562 18.1706 11.3269C18.1139 11.2976 18.0693 11.2491 18.0449 11.1901L16.7549 8.37012C16.7366 8.3378 16.7254 8.30192 16.7221 8.2649C16.7187 8.22789 16.7234 8.19059 16.7357 8.15552C16.748 8.12046 16.7677 8.08845 16.7935 8.06164C16.8192 8.03483 16.8504 8.01385 16.8849 8.00012ZM15.2649 8.84012C15.3132 8.82165 15.3666 8.82165 15.4149 8.84012C15.4587 8.83957 15.5017 8.85151 15.5389 8.87454C15.5761 8.89756 15.6059 8.93072 15.6249 8.97012L16.2749 10.0901C16.2997 10.1203 16.3176 10.1554 16.3275 10.1932C16.3374 10.2309 16.3389 10.2704 16.3321 10.3088C16.3252 10.3472 16.3102 10.3837 16.2879 10.4157C16.2656 10.4477 16.2366 10.4745 16.2029 10.4943C16.1693 10.5141 16.1318 10.5263 16.0929 10.5301C16.0541 10.534 16.0149 10.5294 15.978 10.5166C15.9411 10.5039 15.9075 10.4833 15.8793 10.4563C15.8512 10.4292 15.8292 10.3964 15.8149 10.3601L15.1649 9.24012C15.1455 9.20889 15.1326 9.17402 15.1271 9.13763C15.1216 9.10125 15.1236 9.06412 15.1329 9.02853C15.1423 8.99295 15.1588 8.95965 15.1815 8.93069C15.2042 8.90173 15.2326 8.87771 15.2649 8.86012V8.84012ZM13.7349 9.84012C13.7841 9.82741 13.8357 9.82741 13.8849 9.84012C13.9294 9.83809 13.9736 9.84707 14.0137 9.86626C14.0539 9.88545 14.0886 9.91425 14.1149 9.95012L15.9249 12.4501C15.954 12.4774 15.9766 12.5107 15.9912 12.5478C16.0058 12.5848 16.0121 12.6246 16.0095 12.6644C16.0069 12.7041 15.9956 12.7428 15.9763 12.7776C15.957 12.8125 15.9302 12.8426 15.8979 12.8659C15.8656 12.8892 15.8286 12.905 15.7894 12.9123C15.7503 12.9196 15.71 12.9181 15.6715 12.908C15.633 12.8979 15.5972 12.8794 15.5667 12.8538C15.5361 12.8283 15.5116 12.7963 15.4949 12.7601L13.6849 10.2001C13.6634 10.1727 13.6476 10.1413 13.6384 10.1077C13.6293 10.0741 13.627 10.039 13.6316 10.0045C13.6363 9.97002 13.6478 9.9368 13.6656 9.90684C13.6833 9.87688 13.7069 9.85079 13.7349 9.83012V9.84012ZM12.3249 11.0001C12.352 10.9763 12.3839 10.9586 12.4184 10.9482C12.4529 10.9379 12.4892 10.9351 12.5249 10.9401C12.5902 10.9377 12.6542 10.959 12.7049 11.0001L13.5749 12.0001C13.6021 12.0257 13.6237 12.0567 13.6383 12.091C13.653 12.1254 13.6603 12.1624 13.6599 12.1997C13.6595 12.2371 13.6513 12.2739 13.6359 12.308C13.6205 12.342 13.5983 12.3724 13.5705 12.3974C13.5428 12.4224 13.5101 12.4414 13.4747 12.4531C13.4392 12.4648 13.4017 12.469 13.3645 12.4655C13.3274 12.462 13.2913 12.4509 13.2587 12.4327C13.2261 12.4146 13.1975 12.3898 13.1749 12.3601L12.3049 11.3601C12.2633 11.3082 12.2424 11.2427 12.246 11.1763C12.2497 11.1098 12.2778 11.0471 12.3249 11.0001ZM11.0449 12.2701C11.0972 12.2208 11.1637 12.1893 11.2349 12.1801C11.3045 12.1807 11.3716 12.2055 11.4249 12.2501L13.7149 14.3201C13.7394 14.3443 13.7589 14.3731 13.7721 14.4049C13.7854 14.4366 13.7923 14.4707 13.7923 14.5051C13.7923 14.5395 13.7854 14.5736 13.7721 14.6054C13.7589 14.6371 13.7394 14.6659 13.7149 14.6901C13.6644 14.7402 13.5961 14.7683 13.5249 14.7683C13.4538 14.7683 13.3855 14.7402 13.3349 14.6901L11.0449 12.6501C10.9949 12.5996 10.9668 12.5313 10.9668 12.4601C10.9668 12.389 10.9949 12.3207 11.0449 12.2701ZM9.89494 13.6901C9.92285 13.656 9.95792 13.6285 9.99767 13.6095C10.0374 13.5905 10.0809 13.5804 10.1249 13.5801C10.1792 13.587 10.2309 13.6076 10.2749 13.6401L11.2749 14.4001C11.3111 14.4168 11.3431 14.4413 11.3687 14.4718C11.3942 14.5024 11.4127 14.5382 11.4229 14.5767C11.433 14.6152 11.4344 14.6555 11.4271 14.6946C11.4199 14.7338 11.404 14.7708 11.3807 14.8031C11.3574 14.8354 11.3273 14.8622 11.2924 14.8815C11.2576 14.9007 11.2189 14.9121 11.1792 14.9147C11.1395 14.9172 11.0996 14.911 11.0626 14.8964C11.0256 14.8818 10.9922 14.8591 10.9649 14.8301L9.96494 14.0701C9.93505 14.05 9.90947 14.0242 9.88972 13.9941C9.86996 13.964 9.85642 13.9303 9.8499 13.8949C9.84338 13.8595 9.844 13.8231 9.85174 13.7879C9.85947 13.7528 9.87416 13.7195 9.89494 13.6901ZM8.89494 15.2101C8.91396 15.1707 8.94382 15.1376 8.98101 15.1145C9.01821 15.0915 9.0612 15.0796 9.10494 15.0801C9.15394 15.0659 9.20594 15.0659 9.25494 15.0801L11.9249 16.6301C11.9598 16.6435 11.9912 16.6644 12.0168 16.6915C12.0425 16.7185 12.0618 16.751 12.0733 16.7865C12.0848 16.8219 12.0883 16.8595 12.0833 16.8965C12.0784 16.9335 12.0653 16.9689 12.0449 17.0001C12.0283 17.0307 12.0056 17.0577 11.9784 17.0794C11.9511 17.1011 11.9197 17.1171 11.8861 17.1264C11.8525 17.1357 11.8174 17.1382 11.7829 17.1337C11.7483 17.1292 11.715 17.1178 11.6849 17.1001L8.98494 15.5801C8.92409 15.5428 8.88047 15.483 8.86361 15.4137C8.84674 15.3444 8.85801 15.2712 8.89494 15.2101ZM8.04494 16.8301C8.06743 16.7827 8.10279 16.7426 8.147 16.7143C8.1912 16.686 8.24246 16.6707 8.29494 16.6701H8.39494L9.58494 17.2001C9.64825 17.2324 9.69692 17.2876 9.72106 17.3544C9.7452 17.4213 9.74301 17.4948 9.71494 17.5601C9.70092 17.592 9.68065 17.6207 9.65531 17.6446C9.62998 17.6685 9.6001 17.6871 9.56746 17.6992C9.53481 17.7113 9.50007 17.7168 9.46528 17.7152C9.43049 17.7136 9.39637 17.7051 9.36494 17.6901L8.18494 17.1601C8.12372 17.1336 8.07504 17.0845 8.04898 17.0231C8.02292 16.9617 8.02147 16.8926 8.04494 16.8301ZM7.60494 18.3301H7.71494L10.6449 19.3301C10.7124 19.3529 10.7681 19.4015 10.7999 19.4651C10.8318 19.5288 10.8372 19.6025 10.8149 19.6701C10.806 19.7039 10.7901 19.7355 10.7681 19.7628C10.7462 19.7901 10.7188 19.8124 10.6877 19.8285C10.6566 19.8445 10.6225 19.8538 10.5876 19.8558C10.5526 19.8578 10.5177 19.8525 10.4849 19.8401L7.54494 18.8401C7.48295 18.823 7.42911 18.7843 7.3931 18.731C7.35709 18.6778 7.34128 18.6134 7.34852 18.5495C7.35575 18.4856 7.38555 18.4264 7.43256 18.3825C7.47957 18.3386 7.5407 18.3129 7.60494 18.3101V18.3301ZM7.18494 20.0801L8.45494 20.3501C8.48978 20.3573 8.52287 20.3712 8.5523 20.3912C8.58173 20.4112 8.60693 20.4367 8.62644 20.4665C8.64595 20.4962 8.6594 20.5295 8.66601 20.5645C8.67261 20.5994 8.67225 20.6353 8.66494 20.6701C8.64613 20.7373 8.60289 20.7951 8.54369 20.8321C8.4845 20.8691 8.41361 20.8827 8.34494 20.8701L7.07494 20.6001C7.0401 20.593 7.00701 20.579 6.97758 20.559C6.94815 20.5391 6.92295 20.5135 6.90344 20.4838C6.88393 20.454 6.87048 20.4207 6.86387 20.3858C6.85727 20.3508 6.85763 20.3149 6.86494 20.2801C6.87404 20.2425 6.89084 20.2072 6.91428 20.1764C6.93771 20.1456 6.96728 20.12 7.0011 20.1012C7.03493 20.0824 7.07229 20.0708 7.11081 20.0672C7.14934 20.0636 7.1882 20.068 7.22494 20.0801H7.18494ZM6.85494 21.8401H6.91494L10.0449 22.1601C10.1149 22.1701 10.1782 22.2071 10.2212 22.2631C10.2642 22.3192 10.2835 22.39 10.2749 22.4601C10.2725 22.4952 10.2629 22.5295 10.2468 22.5608C10.2307 22.5921 10.2085 22.6198 10.1813 22.6422C10.1542 22.6647 10.1228 22.6814 10.0891 22.6913C10.0553 22.7013 10.0199 22.7043 9.98494 22.7001L6.91494 22.3701C6.87983 22.3677 6.84559 22.3581 6.81428 22.342C6.78298 22.3259 6.75527 22.3036 6.73283 22.2765C6.71039 22.2494 6.69369 22.218 6.68374 22.1843C6.67379 22.1505 6.67079 22.1151 6.67494 22.0801C6.68202 22.0222 6.70703 21.9679 6.74647 21.9249C6.78592 21.8818 6.83783 21.8522 6.89494 21.8401H6.85494ZM6.80494 23.6401H8.14494C8.18404 23.6325 8.22435 23.6336 8.26297 23.6434C8.30159 23.6532 8.33757 23.6714 8.36832 23.6967C8.39907 23.722 8.42384 23.7539 8.44084 23.7899C8.45784 23.8259 8.46666 23.8653 8.46666 23.9051C8.46666 23.945 8.45784 23.9843 8.44084 24.0203C8.42384 24.0564 8.39907 24.0882 8.36832 24.1135C8.33757 24.1388 8.30159 24.1571 8.26297 24.1668C8.22435 24.1766 8.18404 24.1777 8.14494 24.1701H6.84494C6.80584 24.1777 6.76553 24.1766 6.72691 24.1668C6.68829 24.1571 6.65231 24.1388 6.62156 24.1135C6.59081 24.0882 6.56604 24.0564 6.54904 24.0203C6.53204 23.9843 6.52322 23.945 6.52322 23.9051C6.52322 23.8653 6.53204 23.8259 6.54904 23.7899C6.56604 23.7539 6.59081 23.722 6.62156 23.6967C6.65231 23.6714 6.68829 23.6532 6.72691 23.6434C6.76553 23.6336 6.80584 23.6325 6.84494 23.6401H6.80494ZM6.61494 25.7101C6.61079 25.6752 6.61379 25.6397 6.62374 25.606C6.63369 25.5722 6.65039 25.5408 6.67283 25.5137C6.69527 25.4866 6.72298 25.4643 6.75428 25.4482C6.78559 25.4321 6.81983 25.4226 6.85494 25.4201L9.92494 25.1001H10.0449C10.1071 25.1047 10.1655 25.1315 10.2095 25.1756C10.2536 25.2196 10.2803 25.278 10.2849 25.3401C10.2906 25.4102 10.2686 25.4797 10.2238 25.5338C10.179 25.588 10.1148 25.6225 10.0449 25.6301L6.94494 26.0001C6.90609 26.0031 6.86705 25.9977 6.83051 25.9842C6.79396 25.9707 6.76077 25.9494 6.73322 25.9218C6.70567 25.8943 6.6844 25.8611 6.67089 25.8245C6.65738 25.788 6.65194 25.749 6.65494 25.7101H6.61494ZM6.91494 27.5201C6.90763 27.4853 6.90727 27.4494 6.91387 27.4145C6.92048 27.3795 6.93393 27.3462 6.95344 27.3165C6.97295 27.2867 6.99815 27.2612 7.02758 27.2412C7.05701 27.2212 7.0901 27.2073 7.12494 27.2001L8.39494 26.9301H8.44494C8.50683 26.9304 8.56689 26.9511 8.61573 26.9891C8.66458 27.0271 8.69947 27.0802 8.71494 27.1401C8.72225 27.1749 8.72261 27.2108 8.71601 27.2458C8.7094 27.2807 8.69595 27.314 8.67644 27.3438C8.65693 27.3735 8.63173 27.3991 8.6023 27.419C8.57287 27.439 8.53978 27.453 8.50494 27.4601L7.23494 27.7301C7.17093 27.7341 7.10761 27.7151 7.05631 27.6766C7.005 27.6382 6.96907 27.5827 6.95494 27.5201H6.91494ZM7.71494 29.4501C7.68153 29.4625 7.64592 29.468 7.61032 29.4661C7.57472 29.4641 7.53989 29.4549 7.50801 29.439C7.47612 29.423 7.44785 29.4007 7.42496 29.3734C7.40207 29.346 7.38504 29.3143 7.37494 29.2801C7.35273 29.2125 7.35813 29.1388 7.38997 29.0751C7.42181 29.0115 7.4775 28.9629 7.54494 28.9401L10.4749 27.9401H10.5849C10.6445 27.9481 10.6996 27.9757 10.7417 28.0186C10.7838 28.0614 10.8104 28.1171 10.8173 28.1768C10.8242 28.2364 10.8109 28.2967 10.7797 28.348C10.7485 28.3993 10.7011 28.4388 10.6449 28.4601L7.71494 29.4501ZM8.39494 31.1101C8.33152 31.131 8.26258 31.1277 8.20147 31.1008C8.14035 31.0739 8.09138 31.0252 8.06402 30.9643C8.03667 30.9034 8.03287 30.8345 8.05335 30.7709C8.07384 30.7073 8.11716 30.6536 8.17494 30.6201L9.36494 30.0901H9.46494C9.51769 30.0894 9.56947 30.1042 9.6139 30.1327C9.65833 30.1611 9.69345 30.2019 9.71494 30.2501C9.72965 30.2822 9.73769 30.3169 9.73857 30.3521C9.73945 30.3874 9.73315 30.4224 9.72006 30.4552C9.70696 30.4879 9.68735 30.5176 9.6624 30.5426C9.63745 30.5675 9.60769 30.5871 9.57494 30.6001L8.39494 31.1101ZM8.85494 32.6001C8.83689 32.5707 8.8249 32.5379 8.81965 32.5037C8.81441 32.4696 8.81603 32.4347 8.82441 32.4012C8.83278 32.3677 8.84776 32.3362 8.86846 32.3085C8.88915 32.2809 8.91515 32.2576 8.94494 32.2401L11.6249 30.6901C11.673 30.6707 11.7268 30.6707 11.7749 30.6901C11.818 30.6927 11.8597 30.7059 11.8964 30.7286C11.933 30.7513 11.9635 30.7827 11.9849 30.8201C12.0028 30.8509 12.0144 30.885 12.019 30.9203C12.0237 30.9556 12.0213 30.9915 12.012 31.0259C12.0027 31.0603 11.9867 31.0925 11.9649 31.1207C11.9431 31.1489 11.9159 31.1725 11.8849 31.1901L9.25494 32.7001C9.22488 32.7178 9.19158 32.7292 9.15702 32.7337C9.12245 32.7382 9.08734 32.7357 9.05375 32.7264C9.02017 32.7171 8.9888 32.7011 8.96152 32.6794C8.93424 32.6577 8.9116 32.6307 8.89494 32.6001H8.85494ZM9.85494 34.1101C9.8145 34.0511 9.79819 33.9788 9.80935 33.9082C9.8205 33.8375 9.85829 33.7738 9.91494 33.7301L11.0449 33.0001C11.104 32.9597 11.1762 32.9434 11.2469 32.9545C11.3175 32.9657 11.3813 33.0035 11.4249 33.0601C11.4654 33.1191 11.4817 33.1914 11.4705 33.2621C11.4594 33.3327 11.4216 33.3964 11.3649 33.4401L10.3649 34.2001C10.333 34.2383 10.2915 34.2672 10.2447 34.284C10.1979 34.3008 10.1475 34.3048 10.0986 34.2956C10.0497 34.2865 10.0042 34.2645 9.96661 34.2319C9.92906 34.1992 9.90087 34.1572 9.88494 34.1101H9.85494ZM12.7049 36.8001C12.6556 36.8465 12.5906 36.8727 12.5229 36.8735C12.4552 36.8742 12.3896 36.8495 12.3393 36.8042C12.2889 36.7589 12.2575 36.6963 12.2511 36.6288C12.2447 36.5614 12.264 36.494 12.3049 36.4401L13.1749 35.4401C13.2227 35.3917 13.287 35.3632 13.3549 35.3601C13.3906 35.3551 13.427 35.3579 13.4615 35.3682C13.496 35.3786 13.5279 35.3963 13.5549 35.4201C13.605 35.4707 13.6331 35.539 13.6331 35.6101C13.6331 35.6813 13.605 35.7496 13.5549 35.8001L12.7049 36.8001ZM13.7049 37.9701C13.6758 37.9493 13.6512 37.9229 13.6323 37.8924C13.6135 37.8619 13.601 37.828 13.5954 37.7927C13.5898 37.7573 13.5913 37.7212 13.5998 37.6864C13.6083 37.6516 13.6237 37.6189 13.6449 37.5901L15.4549 35.1001C15.4813 35.0643 15.516 35.0354 15.5561 35.0163C15.5963 34.9971 15.6405 34.9881 15.6849 34.9901C15.7385 34.9931 15.7903 35.0103 15.8349 35.0401C15.8594 35.0643 15.8789 35.0931 15.8921 35.1249C15.9054 35.1566 15.9123 35.1907 15.9123 35.2251C15.9123 35.2595 15.9054 35.2936 15.8921 35.3254C15.8789 35.3571 15.8594 35.3859 15.8349 35.4101L14.0249 37.9101C13.9915 37.9557 13.9441 37.9891 13.89 38.0054C13.8359 38.0216 13.7779 38.0198 13.7249 38.0001L13.7049 37.9701ZM16.2549 37.7301L15.6049 38.8501C15.5705 38.9111 15.5132 38.9559 15.4457 38.9747C15.3781 38.9934 15.3059 38.9846 15.2449 38.9501C15.1839 38.9156 15.1391 38.8583 15.1204 38.7908C15.1016 38.7233 15.1105 38.6511 15.1449 38.5901L15.7949 37.4601C15.8164 37.4227 15.8469 37.3913 15.8835 37.3686C15.9202 37.3459 15.9619 37.3327 16.0049 37.3301C16.0573 37.3156 16.1126 37.3156 16.1649 37.3301C16.201 37.3465 16.233 37.3706 16.2587 37.4007C16.2844 37.4308 16.3031 37.4662 16.3136 37.5044C16.3241 37.5425 16.3261 37.5825 16.3194 37.6215C16.3127 37.6606 16.2975 37.6976 16.2749 37.7301H16.2549ZM16.8449 39.7901C16.7816 39.7578 16.733 39.7026 16.7088 39.6358C16.6847 39.5689 16.6869 39.4954 16.7149 39.4301L17.9649 36.6201C17.9841 36.5702 18.0186 36.5278 18.0636 36.499C18.1086 36.4702 18.1616 36.4566 18.2149 36.4601H18.3249C18.3875 36.4905 18.436 36.5438 18.4602 36.609C18.4844 36.6742 18.4825 36.7463 18.4549 36.8101L17.1949 39.6301C17.1722 39.695 17.1248 39.7482 17.063 39.7782C17.0011 39.8082 16.9299 39.8125 16.8649 39.7901H16.8449ZM18.8449 40.2601C18.8221 40.3275 18.7736 40.3833 18.7099 40.4151C18.6463 40.4469 18.5726 40.4523 18.5049 40.4301C18.439 40.4052 18.3849 40.3564 18.3534 40.2934C18.3219 40.2304 18.3153 40.1578 18.3349 40.0901L18.7349 38.8601C18.7522 38.8086 18.7841 38.7632 18.8267 38.7294C18.8693 38.6957 18.9208 38.6751 18.9749 38.6701H19.0749C19.1424 38.6929 19.1981 38.7415 19.2299 38.8051C19.2618 38.8688 19.2672 38.9425 19.2449 39.0101L18.8449 40.2601ZM20.5849 40.7101C20.5778 40.745 20.5638 40.778 20.5439 40.8075C20.5239 40.8369 20.4983 40.8621 20.4686 40.8816C20.4388 40.9011 20.4055 40.9146 20.3706 40.9212C20.3357 40.9278 20.2997 40.9274 20.2649 40.9201C20.1977 40.9013 20.1399 40.8581 20.1029 40.7989C20.0659 40.7397 20.0524 40.6688 20.0649 40.6001L20.7049 37.6001C20.7167 37.5401 20.7492 37.4862 20.7967 37.4478C20.8443 37.4094 20.9038 37.389 20.9649 37.3901H21.0449C21.0798 37.3973 21.1129 37.4112 21.1423 37.4312C21.1717 37.4512 21.1969 37.4767 21.2164 37.5065C21.236 37.5362 21.2494 37.5695 21.256 37.6045C21.2626 37.6394 21.2623 37.6753 21.2549 37.7101L20.5849 40.7101ZM22.3549 40.9401C22.3525 40.9752 22.3429 41.0095 22.3268 41.0408C22.3107 41.0721 22.2885 41.0998 22.2613 41.1222C22.2342 41.1447 22.2028 41.1614 22.1691 41.1713C22.1353 41.1813 22.0999 41.1843 22.0649 41.1801C22.0298 41.1777 21.9956 41.1681 21.9643 41.152C21.933 41.1359 21.9053 41.1136 21.8828 41.0865C21.8604 41.0594 21.8437 41.028 21.8337 40.9943C21.8238 40.9605 21.8208 40.9251 21.8249 40.8901L22.0449 39.6001C22.0496 39.538 22.0763 39.4796 22.1204 39.4356C22.1644 39.3915 22.2228 39.3647 22.2849 39.3601H22.3349C22.4048 39.3677 22.469 39.4022 22.5138 39.4564C22.5586 39.5105 22.5806 39.58 22.5749 39.6501L22.3549 40.9401ZM24.1449 41.0301C24.1329 41.0916 24.0999 41.147 24.0516 41.1868C24.0033 41.2266 23.9426 41.2484 23.8799 41.2484C23.8173 41.2484 23.7566 41.2266 23.7083 41.1868C23.6599 41.147 23.6269 41.0916 23.6149 41.0301V37.9401C23.6073 37.901 23.6084 37.8607 23.6182 37.8221C23.628 37.7835 23.6462 37.7475 23.6715 37.7167C23.6969 37.686 23.7287 37.6612 23.7647 37.6442C23.8008 37.6272 23.8401 37.6184 23.8799 37.6184C23.9198 37.6184 23.9591 37.6272 23.9952 37.6442C24.0312 37.6612 24.063 37.686 24.0883 37.7167C24.1137 37.7475 24.1319 37.7835 24.1417 37.8221C24.1515 37.8607 24.1526 37.901 24.1449 37.9401V41.0301ZM25.6849 41.1801C25.6505 41.1858 25.6154 41.1842 25.5816 41.1754C25.5479 41.1667 25.5163 41.151 25.489 41.1293C25.4617 41.1076 25.4392 41.0805 25.423 41.0497C25.4068 41.0188 25.3973 40.9849 25.3949 40.9501L25.2549 39.6501C25.2493 39.58 25.2713 39.5105 25.3161 39.4564C25.3609 39.4022 25.4251 39.3677 25.4949 39.3601H25.5449C25.6071 39.3647 25.6655 39.3915 25.7095 39.4356C25.7536 39.4796 25.7803 39.538 25.7849 39.6001L26.0449 40.8901C26.0498 40.9294 26.0457 40.9692 26.0328 41.0066C26.0199 41.044 25.9987 41.078 25.9708 41.1059C25.9428 41.1339 25.9088 41.1551 25.8714 41.168C25.834 41.1808 25.7942 41.185 25.7549 41.1801H25.6849ZM11.1649 36.1101L11.9549 35.0501L11.3949 35.5501C11.341 35.5911 11.2736 35.6103 11.2062 35.604C11.1388 35.5976 11.0762 35.5661 11.0309 35.5158C10.9856 35.4654 10.9608 35.3999 10.9616 35.3322C10.9623 35.2644 10.9885 35.1994 11.0349 35.1501L13.3349 33.0901C13.3349 33.0901 13.4049 33.0901 13.4349 33.0901L21.8549 21.7501L36.7349 11.7501L35.9349 12.8201L36.5049 12.3101C36.5573 12.2639 36.6251 12.2389 36.6949 12.2401C36.7662 12.2493 36.8327 12.2808 36.8849 12.3301C36.935 12.3807 36.9631 12.449 36.9631 12.5201C36.9631 12.5913 36.935 12.6596 36.8849 12.7101L34.5849 14.7701C34.5521 14.7782 34.5178 14.7782 34.4849 14.7701L26.0449 26.1001L11.1649 36.1101ZM27.5549 40.9201C27.5201 40.9274 27.4842 40.9278 27.4493 40.9212C27.4143 40.9146 27.381 40.9011 27.3513 40.8816C27.3216 40.8621 27.296 40.8369 27.276 40.8075C27.256 40.778 27.2421 40.745 27.2349 40.7101L26.5949 37.7101C26.5877 37.6759 26.5874 37.6406 26.5942 37.6063C26.6009 37.572 26.6144 37.5394 26.6341 37.5105C26.6537 37.4815 26.6789 37.4569 26.7083 37.4379C26.7376 37.4189 26.7705 37.4061 26.8049 37.4001C26.866 37.399 26.9256 37.4194 26.9732 37.4578C27.0207 37.4962 27.0532 37.5501 27.0649 37.6101L27.7049 40.6101C27.7199 40.6712 27.7132 40.7355 27.6858 40.7921C27.6584 40.8487 27.6121 40.894 27.5549 40.9201ZM29.3149 40.4301C29.2821 40.441 29.2475 40.4452 29.213 40.4425C29.1786 40.4398 29.145 40.4302 29.1143 40.4144C29.0835 40.3986 29.0563 40.3768 29.0341 40.3503C29.0119 40.3238 28.9952 40.2931 28.9849 40.2601L28.5849 39.0001C28.5627 38.9325 28.5681 38.8588 28.6 38.7951C28.6318 38.7315 28.6875 38.6829 28.7549 38.6601H28.8549C28.9081 38.6643 28.9588 38.6849 28.9999 38.7188C29.041 38.7528 29.0707 38.7987 29.0849 38.8501L29.4949 40.0801C29.517 40.1504 29.5105 40.2266 29.4768 40.2921C29.4431 40.3576 29.385 40.4072 29.3149 40.4301ZM31.0449 39.8001C31.0129 39.8148 30.9782 39.8229 30.9429 39.8237C30.9077 39.8246 30.8726 39.8183 30.8399 39.8052C30.8072 39.7921 30.7774 39.7725 30.7525 39.7476C30.7276 39.7226 30.708 39.6929 30.6949 39.6601L29.4349 36.8401C29.4202 36.8081 29.4122 36.7734 29.4113 36.7381C29.4104 36.7029 29.4167 36.6678 29.4298 36.6351C29.4429 36.6023 29.4625 36.5726 29.4875 36.5477C29.5124 36.5228 29.5422 36.5032 29.5749 36.4901C29.6081 36.4857 29.6418 36.4857 29.6749 36.4901C29.728 36.4881 29.7803 36.5023 29.825 36.5309C29.8697 36.5595 29.9046 36.6011 29.9249 36.6501L31.1749 39.4701C31.1947 39.5317 31.1926 39.5982 31.1689 39.6583C31.1452 39.7185 31.1014 39.7686 31.0449 39.8001ZM32.6349 39.0001C32.6049 39.0178 32.5716 39.0292 32.537 39.0337C32.5025 39.0382 32.4673 39.0357 32.4338 39.0264C32.4002 39.0171 32.3688 39.0011 32.3415 38.9794C32.3142 38.9577 32.2916 38.9307 32.2749 38.9001L31.6249 37.7801C31.6071 37.7493 31.5955 37.7152 31.5909 37.6799C31.5862 37.6446 31.5886 37.6087 31.5979 37.5743C31.6072 37.5399 31.6232 37.5077 31.645 37.4795C31.6668 37.4513 31.694 37.4277 31.7249 37.4101C31.7738 37.3948 31.8261 37.3948 31.8749 37.4101C31.918 37.4127 31.9597 37.4259 31.9964 37.4486C32.033 37.4713 32.0635 37.5027 32.0849 37.5401L32.7349 38.6701C32.7615 38.7278 32.7659 38.7933 32.7475 38.8541C32.7291 38.9149 32.689 38.9668 32.6349 39.0001ZM34.1649 38.0001C34.1361 38.0214 34.1034 38.0367 34.0686 38.0452C34.0339 38.0537 33.9977 38.0552 33.9624 38.0497C33.927 38.0441 33.8931 38.0315 33.8627 38.0127C33.8322 37.9939 33.8058 37.9692 33.7849 37.9401L31.9749 35.4401C31.9539 35.4121 31.9388 35.3802 31.9304 35.3462C31.922 35.3122 31.9206 35.2769 31.9262 35.2423C31.9318 35.2078 31.9443 35.1747 31.963 35.1451C31.9817 35.1155 32.0062 35.09 32.0349 35.0701C32.0796 35.0403 32.1314 35.0231 32.1849 35.0201C32.2276 35.0205 32.2695 35.0306 32.3077 35.0497C32.3458 35.0687 32.3791 35.0962 32.4049 35.1301L34.2249 37.6301C34.2648 37.6876 34.2808 37.7582 34.2696 37.8272C34.2584 37.8962 34.2209 37.9582 34.1649 38.0001ZM35.5749 36.8401C35.5244 36.8902 35.4561 36.9183 35.3849 36.9183C35.3138 36.9183 35.2455 36.8902 35.1949 36.8401L34.3249 35.8401C34.3005 35.8159 34.281 35.7871 34.2677 35.7554C34.2545 35.7236 34.2476 35.6895 34.2476 35.6551C34.2476 35.6207 34.2545 35.5866 34.2677 35.5549C34.281 35.5231 34.3005 35.4943 34.3249 35.4701C34.35 35.4458 34.3798 35.4271 34.4125 35.415C34.4453 35.403 34.4801 35.3979 34.5149 35.4001C34.5512 35.4004 34.587 35.4086 34.6199 35.4242C34.6527 35.4397 34.6817 35.4622 34.7049 35.4901L35.5749 36.4901C35.6114 36.5374 35.6312 36.5954 35.6312 36.6551C35.6312 36.7148 35.6114 36.7729 35.5749 36.8201V36.8401ZM36.8749 35.5601C36.8244 35.6102 36.7561 35.6383 36.6849 35.6383C36.6138 35.6383 36.5455 35.6102 36.4949 35.5601L34.2049 33.5001C34.1549 33.4496 34.1268 33.3813 34.1268 33.3101C34.1268 33.239 34.1549 33.1707 34.2049 33.1201C34.2266 33.093 34.254 33.0709 34.2851 33.0553C34.3161 33.0398 34.3502 33.0312 34.3849 33.0301C34.4578 33.0292 34.5286 33.054 34.5849 33.1001L36.8749 35.1601C36.925 35.2107 36.9531 35.279 36.9531 35.3501C36.9531 35.4213 36.925 35.4896 36.8749 35.5401V35.5601ZM38.0449 34.1201C38.003 34.1761 37.9411 34.2136 37.872 34.2248C37.803 34.236 37.7324 34.22 37.6749 34.1801L36.6249 33.4101C36.5962 33.3902 36.5717 33.3647 36.553 33.3351C36.5343 33.3055 36.5218 33.2724 36.5162 33.2379C36.5106 33.2033 36.512 33.168 36.5204 33.134C36.5288 33.1 36.5439 33.0681 36.5649 33.0401C36.5908 33.0062 36.6241 32.9787 36.6622 32.9597C36.7003 32.9406 36.7423 32.9305 36.7849 32.9301C36.8388 32.9314 36.891 32.9489 36.9349 32.9801L37.9349 33.7401C37.9681 33.7568 37.9974 33.7802 38.0212 33.8088C38.0449 33.8373 38.0624 33.8705 38.0728 33.9061C38.0831 33.9418 38.0859 33.9792 38.0812 34.016C38.0764 34.0528 38.064 34.0883 38.0449 34.1201ZM39.0449 32.6001C39.0283 32.6307 39.0056 32.6577 38.9784 32.6794C38.9511 32.7011 38.9197 32.7171 38.8861 32.7264C38.8525 32.7357 38.8174 32.7382 38.7829 32.7337C38.7483 32.7292 38.715 32.7178 38.6849 32.7001L36.0149 31.1601C35.9544 31.1227 35.9103 31.0636 35.8917 30.9949C35.8731 30.9262 35.8814 30.8529 35.9149 30.7901C35.9364 30.7527 35.9669 30.7213 36.0035 30.6986C36.0402 30.6759 36.0819 30.6627 36.1249 30.6601C36.1766 30.641 36.2333 30.641 36.2849 30.6601L38.9549 32.2101C38.9905 32.2258 39.0219 32.2496 39.0466 32.2795C39.0714 32.3094 39.0888 32.3447 39.0975 32.3826C39.1063 32.4204 39.1061 32.4598 39.0969 32.4976C39.0878 32.5353 39.07 32.5704 39.0449 32.6001ZM39.8149 31.0001C39.8019 31.0329 39.7823 31.0626 39.7574 31.0876C39.7325 31.1125 39.7027 31.1321 39.67 31.1452C39.6372 31.1583 39.6022 31.1646 39.5669 31.1637C39.5317 31.1629 39.497 31.1548 39.4649 31.1401L38.2749 30.6101C38.2124 30.5798 38.1639 30.5264 38.1397 30.4612C38.1155 30.396 38.1174 30.324 38.1449 30.2601C38.1641 30.2102 38.1986 30.1678 38.2436 30.139C38.2886 30.1102 38.3416 30.0966 38.3949 30.1001H38.4949L39.6849 30.6301C39.7185 30.6451 39.7486 30.6667 39.7734 30.6937C39.7983 30.7207 39.8174 30.7525 39.8296 30.7871C39.8417 30.8218 39.8467 30.8585 39.8442 30.8951C39.8417 30.9318 39.8317 30.9675 39.8149 31.0001ZM40.1449 29.4801L37.2149 28.5301C37.1475 28.5073 37.0918 28.4588 37.06 28.3951C37.0281 28.3314 37.0227 28.2578 37.0449 28.1901C37.0608 28.1405 37.0913 28.0969 37.1323 28.0648C37.1733 28.0327 37.223 28.0136 37.2749 28.0101H37.3749L40.3149 29.0101C40.3488 29.0191 40.3803 29.035 40.4076 29.0569C40.4349 29.0788 40.4573 29.1062 40.4733 29.1373C40.4893 29.1684 40.4986 29.2026 40.5006 29.2375C40.5027 29.2724 40.4973 29.3074 40.4849 29.3401C40.453 29.3985 40.4007 29.443 40.3379 29.4652C40.2752 29.4873 40.2064 29.4855 40.1449 29.4601V29.4801ZM40.6249 27.7401L39.3549 27.4701C39.3207 27.4643 39.2881 27.4515 39.2591 27.4324C39.2302 27.4132 39.2055 27.3883 39.1867 27.3592C39.1679 27.33 39.1553 27.2972 39.1499 27.263C39.1444 27.2287 39.1461 27.1937 39.1549 27.1601C39.1625 27.0982 39.1938 27.0416 39.2424 27.0024C39.2909 26.9632 39.3528 26.9445 39.4149 26.9501H39.4649L40.7349 27.2201C40.7744 27.2213 40.8131 27.2312 40.8484 27.249C40.8836 27.2668 40.9146 27.2922 40.939 27.3232C40.9633 27.3543 40.9806 27.3903 40.9896 27.4288C40.9985 27.4673 40.9989 27.5072 40.9908 27.5459C40.9826 27.5845 40.966 27.6209 40.9423 27.6524C40.9185 27.684 40.8881 27.7099 40.8532 27.7285C40.8183 27.747 40.7798 27.7576 40.7404 27.7596C40.7009 27.7617 40.6615 27.755 40.6249 27.7401ZM40.9449 26.0001L37.8849 25.6801C37.8494 25.6764 37.8149 25.6656 37.7836 25.6485C37.7522 25.6314 37.7246 25.6082 37.7023 25.5803C37.6799 25.5523 37.6634 25.5203 37.6535 25.4859C37.6437 25.4516 37.6408 25.4156 37.6449 25.3801C37.6498 25.319 37.6769 25.2619 37.7212 25.2194C37.7654 25.177 37.8237 25.1524 37.8849 25.1501L40.9549 25.4701C41.0248 25.4777 41.089 25.5122 41.1338 25.5664C41.1786 25.6205 41.2006 25.69 41.1949 25.7601C41.188 25.8231 41.1592 25.8816 41.1135 25.9255C41.0678 25.9694 41.0081 25.9958 40.9449 26.0001ZM41.0549 24.2001H39.7549C39.6935 24.1881 39.6381 24.1551 39.5983 24.1068C39.5584 24.0584 39.5367 23.9977 39.5367 23.9351C39.5367 23.8725 39.5584 23.8118 39.5983 23.7635C39.6381 23.7151 39.6935 23.6821 39.7549 23.6701H41.0449C41.084 23.6625 41.1244 23.6636 41.163 23.6734C41.2016 23.6832 41.2376 23.7014 41.2683 23.7267C41.2991 23.752 41.3238 23.7839 41.3408 23.8199C41.3578 23.8559 41.3667 23.8953 41.3667 23.9351C41.3667 23.975 41.3578 24.0143 41.3408 24.0503C41.3238 24.0864 41.2991 24.1182 41.2683 24.1435C41.2376 24.1688 41.2016 24.1871 41.163 24.1968C41.1244 24.2066 41.084 24.2077 41.0449 24.2001H41.0549Z" fill="black"/>
<path d="M13.3049 34.0701L25.6949 25.7301L34.5949 13.7401L13.3049 34.0701Z" fill="black"/>
</svg>
