<svg width="48" height="48" viewBox="0 0 48 48" fill="none" xmlns="http://www.w3.org/2000/svg">
<path fill-rule="evenodd" clip-rule="evenodd" d="M32.2863 31.6632C32.1664 31.5733 32.1863 31.2735 32.596 30.3741C32.8878 29.7882 33.2918 29.2654 33.7852 28.8353C33.8612 29.0539 33.9016 29.2833 33.9051 29.5148C33.9095 30.0012 33.7533 30.4754 33.4605 30.8639C33.1678 31.2524 32.755 31.5334 32.2863 31.6632ZM26.9502 32.8823C26.7803 32.9622 26.6204 33.0222 26.5505 32.9822C26.4805 32.9423 26.6204 32.8323 26.6204 32.8323C26.6204 32.8323 27.4898 31.893 27.8295 31.4733C28.0294 31.2235 28.2592 30.9337 28.509 30.604V30.7039C28.509 31.8231 27.4298 32.5725 26.9502 32.8823ZM20.0152 29.5747C19.6155 30.574 18.7762 33.0522 18.2665 32.9123C17.7569 32.7724 17.567 30.9137 18.1766 29.0251C18.4939 28.1235 18.9564 27.2796 19.5456 26.5269C20.1751 25.8175 20.8646 25.5876 21.0345 25.8774C21.2044 26.1672 20.2751 29.0051 20.0152 29.5747ZM11.6314 35.2706C10.4822 36.5296 8.87339 36.9993 8.18389 36.5996C7.4944 36.1999 7.73422 34.3212 9.18316 32.9922C10.0214 32.2429 10.928 31.5738 11.8912 30.9937L12.6107 30.564L12.6906 30.514L12.8705 30.4041C13.1119 31.2525 13.1244 32.1496 12.9067 33.0043C12.6891 33.8591 12.2491 34.641 11.6314 35.2706ZM38.4218 26.2771C37.1672 26.2827 35.9303 26.5731 34.8044 27.1265C34.4528 26.5259 34.184 25.8805 34.005 25.2079C33.8994 24.6885 33.8758 24.1558 33.9351 23.6291C34.0587 23.0542 34.2155 22.487 34.4047 21.9303C34.4047 21.8604 34.3248 21.5206 33.5154 21.5106C32.706 21.5006 32.0165 21.6705 31.9365 21.8803C31.7979 22.2682 31.6876 22.6656 31.6068 23.0695C30.9409 24.707 30.1246 26.2792 29.1686 27.766C28.9116 27.3417 28.7228 26.8798 28.609 26.397C28.5034 25.8776 28.4798 25.3449 28.539 24.8182C28.6594 24.2415 28.8197 23.6739 29.0187 23.1194C29.0187 23.0495 28.9287 22.7097 28.1193 22.6997C27.3099 22.6898 26.6304 22.8596 26.5405 23.0695C26.4505 23.2793 26.3806 23.779 26.2107 24.2586C26.0408 24.7383 24.0923 29.0851 23.5826 30.2542C23.3228 30.8338 23.103 31.2535 22.9431 31.6032V31.6632L22.7233 32.0729C22.6133 32.2727 22.5034 32.4526 22.4435 32.4526C22.3403 32.0426 22.3403 31.6135 22.4435 31.2035C22.7333 29.7046 23.4427 27.3463 23.4427 27.2664C23.4427 27.1865 23.5726 26.8167 22.9831 26.6069C22.8495 26.5395 22.6978 26.5167 22.5503 26.5419C22.4029 26.5671 22.2673 26.6389 22.1637 26.7468C22.1137 26.7468 22.0737 26.8667 22.0737 26.8667C22.0737 26.8667 22.7033 24.2186 20.8646 24.2186C19.7155 24.2186 18.1166 25.4777 17.3372 26.6269L14.6492 28.0958L13.3601 28.8053L13.2702 28.7054C11.0218 26.2971 6.86486 24.6083 7.02474 21.4107C7.0847 20.2415 7.4944 17.1738 14.9589 13.4165C21.0745 10.3688 25.9509 11.2081 26.8103 13.0668C28.0194 15.7248 24.1922 20.6512 17.8169 21.3707C15.3986 21.6405 14.1196 20.7012 13.8198 20.3714C13.52 20.0417 13.4301 19.9817 13.3101 20.0517C13.1902 20.1216 13.2302 20.4914 13.3101 20.6812C13.5522 21.1197 13.8792 21.5055 14.2722 21.816C14.6651 22.1266 15.116 22.3557 15.5985 22.4899C18.0962 23.029 20.7002 22.7704 23.043 21.7504C26.8902 20.2615 29.898 16.1246 29.0386 12.6671C28.1793 9.20961 22.3236 8.02048 16.7976 10.019C13.3382 11.1803 10.1425 13.0141 7.39447 15.4151C4.3467 18.213 3.86705 20.6912 4.02693 21.7205C4.73641 25.3978 9.80271 27.796 11.8312 29.5647L11.5514 29.7246C10.5522 30.2242 6.675 32.2428 5.70571 34.3812C4.60651 36.8094 5.88557 38.5482 6.70498 38.778C7.96793 39.0822 9.29441 38.9837 10.4986 38.4963C11.7028 38.0089 12.7243 37.157 13.4201 36.06C14.012 35.1483 14.3755 34.1075 14.4799 33.0256C14.5842 31.9436 14.4264 30.8525 14.0196 29.8445L14.8091 29.3749C15.3287 29.0651 15.8083 28.7853 16.278 28.5455C15.9892 29.4049 15.8145 30.2986 15.7584 31.2035C15.6881 32.5822 16.1374 33.9372 17.0174 35.0007C17.1533 35.1196 17.312 35.2093 17.4839 35.2643C17.6558 35.3193 17.8371 35.3384 18.0167 35.3205C18.8761 35.3205 19.2658 34.601 19.6955 33.7617C20.2251 32.7624 20.6947 31.5233 20.6947 31.5233C20.6947 31.5233 20.1052 34.7709 21.694 34.7709C22.2836 34.7709 22.8732 34.0215 23.133 33.6318L23.1829 33.5518L23.2729 33.4019C23.5027 32.9922 24.0223 32.0629 24.8017 30.534C25.801 28.5355 26.8003 26.0673 26.8003 26.0673C26.895 26.6115 27.0252 27.1489 27.19 27.6761C27.4202 28.317 27.6939 28.9413 28.0094 29.5447C27.7796 29.8745 27.6397 30.0544 27.6397 30.0544C27.4498 30.3042 27.24 30.574 27.0201 30.8338C26.3428 31.5717 25.7184 32.3564 25.1515 33.1821C25.0651 33.32 25.0346 33.4857 25.0662 33.6454C25.0978 33.8051 25.189 33.9467 25.3214 34.0415C25.6286 34.2008 25.979 34.2569 26.3206 34.2013C26.8263 34.1743 27.3234 34.0593 27.7896 33.8616C28.2232 33.7007 28.6333 33.4823 29.0087 33.2121C29.4057 32.9349 29.7253 32.5608 29.9369 32.1253C30.1486 31.6898 30.2453 31.2073 30.2178 30.7239C30.158 30.1276 29.9957 29.5462 29.7381 29.0051L29.948 28.6954C30.7623 27.4874 31.4935 26.2254 32.1364 24.9181C32.2324 25.462 32.3625 25.9994 32.5261 26.5269C32.7193 27.0813 32.9565 27.6193 33.2356 28.1358C32.3011 28.853 31.568 29.7997 31.1071 30.8838C30.6475 32.2128 31.0072 32.8124 31.6867 32.9522C32.053 32.9742 32.4186 32.8984 32.7459 32.7324C33.234 32.5611 33.6924 32.315 34.1049 32.0029C34.5375 31.7463 34.8998 31.3867 35.1596 30.956C35.4194 30.5253 35.5686 30.0371 35.5939 29.5347C35.5556 29.034 35.4411 28.542 35.2541 28.0758C36.4855 27.5916 37.8218 27.4366 39.1313 27.6261C42.5987 28.0259 43.2882 30.2043 43.1283 31.1036C43.0682 31.4285 42.9377 31.7364 42.7461 32.0057C42.5546 32.275 42.3064 32.4991 42.0192 32.6625C41.7793 32.8223 41.6994 32.8723 41.7194 32.9822C41.7394 33.0921 41.8693 33.1421 42.0691 33.1021C42.5983 32.9429 43.0664 32.6262 43.4109 32.1941C43.7555 31.7621 43.9602 31.2353 43.9977 30.6839C44.0777 28.5555 41.9992 26.2172 38.4218 26.2372V26.2771Z" fill="black"/>
</svg>
