<svg width="48" height="48" viewBox="0 0 48 48" fill="none" xmlns="http://www.w3.org/2000/svg">
<path fill-rule="evenodd" clip-rule="evenodd" d="M16.31 33.29C17.3446 32.2624 18.5404 31.4112 19.85 30.77L20.04 30.67C20.3227 31.6526 20.3053 32.6973 19.99 33.67C19.99 33.77 19.92 33.87 19.88 33.97C19.8427 34.0693 19.7993 34.1661 19.75 34.26C19.5101 34.7521 19.2002 35.2068 18.83 35.61C17.67 36.88 16.05 37.36 15.35 36.95C14.65 36.54 15 34.71 16.31 33.29ZM30.52 21.73C34.4 20.23 37.44 16.05 36.52 12.56C35.6 9.07 29.72 7.84 24.15 9.82C20.6584 10.9954 17.4309 12.8435 14.65 15.26C11.58 18.14 11.1 20.64 11.3 21.68C12.01 25.37 17.06 27.77 19.13 29.56C18.52 29.86 14.04 32.13 12.99 34.45C11.94 36.77 13.17 38.65 13.99 38.88C15.2647 39.1884 16.604 39.09 17.82 38.5986C19.0359 38.1072 20.0675 37.2475 20.77 36.14C21.3616 35.2442 21.7357 34.2225 21.8624 33.1565C21.9892 32.0905 21.8651 31.0096 21.5 30C22.4995 29.7467 23.5386 29.6889 24.56 29.83C28.07 30.24 28.76 32.43 28.63 33.34C28.5668 33.6667 28.4353 33.9764 28.244 34.2487C28.0527 34.521 27.806 34.7498 27.52 34.92C27.27 35.07 27.2 35.12 27.22 35.23C27.24 35.34 27.36 35.39 27.57 35.36C28.0967 35.1924 28.5607 34.8699 28.9014 34.4346C29.2421 33.9994 29.4437 33.4716 29.48 32.92C29.56 30.77 27.48 28.37 23.86 28.43C22.8009 28.4013 21.7441 28.5431 20.73 28.85L20.58 28.68C18.32 26.28 14.15 24.57 14.33 21.34C14.4 20.17 14.8 17.07 22.33 13.34C28.5 10.26 33.44 11.11 34.33 12.98C35.55 15.66 31.69 20.64 25.33 21.36C24.6309 21.5017 23.9089 21.4854 23.2169 21.3124C22.5249 21.1394 21.8802 20.814 21.33 20.36C20.99 19.99 20.94 19.97 20.81 20.04C20.68 20.11 20.74 20.48 20.81 20.68C21.2853 21.536 22.0681 22.1795 23 22.48C25.5235 23.0219 28.1533 22.7596 30.52 21.73ZM24 4C27.9556 4 31.8224 5.17298 35.1114 7.37061C38.4004 9.56824 40.9638 12.6918 42.4776 16.3463C43.9913 20.0009 44.3874 24.0222 43.6157 27.9018C42.844 31.7814 40.9392 35.3451 38.1421 38.1421C35.3451 40.9392 31.7814 42.844 27.9018 43.6157C24.0222 44.3874 20.0009 43.9913 16.3463 42.4776C12.6918 40.9638 9.56824 38.4004 7.37061 35.1114C5.17298 31.8224 4 27.9556 4 24C4 18.6957 6.10714 13.6086 9.85786 9.85786C13.6086 6.10714 18.6957 4 24 4Z" fill="black"/>
</svg>
