<svg width="48" height="48" viewBox="0 0 48 48" fill="none" xmlns="http://www.w3.org/2000/svg">
<path d="M25.82 6H14.11V12.29H25.82V6Z" fill="black"/>
<path d="M14.11 42H33.89V30.62H14.11V42ZM16.46 32.71H31.54C32.0174 32.71 32.4752 32.8996 32.8128 33.2372C33.1504 33.5748 33.34 34.0326 33.34 34.51C33.34 34.9874 33.1504 35.4452 32.8128 35.7828C32.4752 36.1204 32.0174 36.31 31.54 36.31H16.46C15.9826 36.31 15.5248 36.1204 15.1872 35.7828C14.8496 35.4452 14.66 34.9874 14.66 34.51C14.66 34.0326 14.8496 33.5748 15.1872 33.2372C15.5248 32.8996 15.9826 32.71 16.46 32.71Z" fill="black"/>
<path d="M41 14.08L34 7.08C33.6632 6.75441 33.2655 6.49847 32.8297 6.32687C32.3938 6.15527 31.9283 6.07138 31.46 6.08H29.43V13.11C29.43 13.8456 29.1385 14.5512 28.6193 15.0722C28.1001 15.5933 27.3956 15.8874 26.66 15.89H13.29C12.5535 15.8874 11.8479 15.5936 11.3272 15.0728C10.8064 14.5521 10.5126 13.8465 10.51 13.11V6H9.58C8.63134 6.00264 7.72228 6.38066 7.05147 7.05147C6.38066 7.72228 6.00264 8.63134 6 9.58V38.42C6.00264 39.3687 6.38066 40.2777 7.05147 40.9485C7.72228 41.6193 8.63134 41.9974 9.58 42H10.51V29.79C10.5087 29.4241 10.5796 29.0615 10.7187 28.7231C10.8579 28.3846 11.0624 28.077 11.3207 27.8178C11.579 27.5586 11.8859 27.3529 12.2238 27.2126C12.5618 27.0722 12.9241 27 13.29 27H34.71C35.4456 27 36.1512 27.2915 36.6722 27.8107C37.1933 28.3299 37.4874 29.0344 37.49 29.77V42H38.42C39.3687 41.9974 40.2777 41.6193 40.9485 40.9485C41.6193 40.2777 41.9974 39.3687 42 38.42V16.62C42.0086 16.1517 41.9247 15.6862 41.7531 15.2503C41.5815 14.8145 41.3256 14.4168 41 14.08Z" fill="black"/>
</svg>
