<svg width="48" height="48" viewBox="0 0 48 48" fill="none" xmlns="http://www.w3.org/2000/svg">
<path d="M41.06 14.16L33.85 6.94003C33.551 6.64033 33.1956 6.40292 32.8042 6.24157C32.4128 6.08021 31.9933 5.99812 31.57 6.00003H9.21C8.35865 6.00003 7.54218 6.33823 6.94019 6.94022C6.3382 7.54221 6 8.35869 6 9.21003V38.79C6 39.6414 6.3382 40.4579 6.94019 41.0598C7.54218 41.6618 8.35865 42 9.21 42H38.79C39.6413 42 40.4578 41.6618 41.0598 41.0598C41.6618 40.4579 42 39.6414 42 38.79V16.43C42.0028 16.0081 41.9211 15.5898 41.7597 15.1999C41.5982 14.8101 41.3603 14.4565 41.06 14.16ZM26.34 8.77003V12.45H13.4V8.77003H26.34ZM13.4 39.23V30.32H34.6V39.23H13.4ZM39.23 38.79C39.23 38.9067 39.1836 39.0186 39.1011 39.1012C39.0186 39.1837 38.9067 39.23 38.79 39.23H37.37V29.94C37.37 29.3105 37.1206 28.7067 36.6765 28.2606C36.2323 27.8146 35.6295 27.5627 35 27.56H13C12.3688 27.56 11.7634 27.8108 11.3171 28.2571C10.8707 28.7035 10.62 29.3088 10.62 29.94V39.23H9.21C9.0933 39.23 8.98139 39.1837 8.89887 39.1012C8.81636 39.0186 8.77 38.9067 8.77 38.79V9.21003C8.77 9.09334 8.81636 8.98142 8.89887 8.89891C8.98139 8.81639 9.0933 8.77003 9.21 8.77003H10.63V12.83C10.63 13.4605 10.879 14.0653 11.3229 14.513C11.7668 14.9606 12.3696 15.2148 13 15.22H26.72C27.0334 15.22 27.3437 15.1581 27.6331 15.0379C27.9225 14.9177 28.1853 14.7415 28.4065 14.5194C28.6276 14.2974 28.8027 14.0338 28.9217 13.7439C29.0407 13.454 29.1013 13.1434 29.1 12.83V8.77003H31.57C31.6891 8.77216 31.8032 8.81849 31.89 8.90003L39.1 16.11C39.1815 16.1969 39.2279 16.3109 39.23 16.43V38.79Z" fill="black"/>
<path d="M31.73 33.39H16.27C16.0782 33.3737 15.8852 33.3974 15.703 33.4596C15.5209 33.5218 15.3536 33.6212 15.2119 33.7514C15.0702 33.8816 14.957 34.0398 14.8796 34.216C14.8022 34.3922 14.7622 34.5826 14.7622 34.775C14.7622 34.9675 14.8022 35.1579 14.8796 35.3341C14.957 35.5103 15.0702 35.6685 15.2119 35.7987C15.3536 35.9289 15.5209 36.0283 15.703 36.0905C15.8852 36.1527 16.0782 36.1763 16.27 36.16H31.73C31.9218 36.1763 32.1148 36.1527 32.297 36.0905C32.4791 36.0283 32.6464 35.9289 32.7881 35.7987C32.9298 35.6685 33.043 35.5103 33.1204 35.3341C33.1978 35.1579 33.2378 34.9675 33.2378 34.775C33.2378 34.5826 33.1978 34.3922 33.1204 34.216C33.043 34.0398 32.9298 33.8816 32.7881 33.7514C32.6464 33.6212 32.4791 33.5218 32.297 33.4596C32.1148 33.3974 31.9218 33.3737 31.73 33.39Z" fill="black"/>
</svg>
