<svg width="48" height="48" viewBox="0 0 48 48" fill="none" xmlns="http://www.w3.org/2000/svg">
<path d="M38.6301 22L11.4701 6.31002C11.1186 6.10825 10.7204 6.00208 10.3151 6.00208C9.90978 6.00208 9.51157 6.10825 9.16007 6.31002C8.80519 6.51134 8.51054 6.80381 8.3066 7.15719C8.10266 7.51057 7.99683 7.91202 8.00007 8.32002V23L12.8501 24L8.00007 25V39.68C8.00007 40.2936 8.24312 40.8822 8.67605 41.317C9.10897 41.7518 9.6965 41.9974 10.3101 42C10.7174 42.0017 11.1179 41.8947 11.4701 41.69L38.6301 26C38.9836 25.7993 39.2775 25.5084 39.482 25.1571C39.6866 24.8058 39.7943 24.4065 39.7943 24C39.7943 23.5935 39.6866 23.1943 39.482 22.8429C39.2775 22.4916 38.9836 22.2008 38.6301 22ZM10.7701 38.89V27.24L19.0501 25.59C19.4189 25.518 19.7512 25.3201 19.9902 25.03C20.2291 24.7399 20.3597 24.3758 20.3597 24C20.3597 23.6242 20.2291 23.2601 19.9902 22.97C19.7512 22.68 19.4189 22.482 19.0501 22.41L10.7701 20.76V9.11002L36.5701 24L10.7701 38.89Z" fill="black"/>
</svg>
