<svg width="48" height="48" viewBox="0 0 48 48" fill="none" xmlns="http://www.w3.org/2000/svg">
<path d="M38.55 21.6599L12.06 6.35995C11.6479 6.12321 11.1809 5.99899 10.7056 5.99976C10.2304 6.00053 9.76372 6.12625 9.35242 6.36432C8.94112 6.60239 8.59965 6.94443 8.36228 7.35613C8.1249 7.76783 7.99997 8.23472 8 8.70995V21.6199L14.84 23.9999L8 26.3799V39.2999C8.00172 39.7743 8.12793 40.24 8.36601 40.6503C8.6041 41.0606 8.94573 41.4012 9.35674 41.6381C9.76774 41.875 10.2337 41.9998 10.7081 42.0001C11.1825 42.0005 11.6487 41.8763 12.06 41.6399L38.55 26.3399C38.9613 26.1032 39.3029 25.7623 39.5404 25.3514C39.7779 24.9406 39.903 24.4745 39.903 23.9999C39.903 23.5254 39.7779 23.0593 39.5404 22.6484C39.3029 22.2376 38.9613 21.8967 38.55 21.6599Z" fill="black"/>
</svg>
