<svg width="48" height="48" viewBox="0 0 48 48" fill="none" xmlns="http://www.w3.org/2000/svg">
<path d="M40.36 10H7.64C6.67461 10 5.74876 10.3835 5.06613 11.0661C4.3835 11.7488 4 12.6746 4 13.64V19.09C4 20.0554 4.3835 20.9812 5.06613 21.6639C5.74876 22.3465 6.67461 22.73 7.64 22.73H40.36C41.3254 22.73 42.2512 22.3465 42.9339 21.6639C43.6165 20.9812 44 20.0554 44 19.09V13.64C44 12.6746 43.6165 11.7488 42.9339 11.0661C42.2512 10.3835 41.3254 10 40.36 10ZM29.91 18.64C29.4586 18.642 29.0168 18.5099 28.6406 18.2606C28.2643 18.0113 27.9705 17.6559 27.7964 17.2395C27.6223 16.823 27.5758 16.3643 27.6626 15.9214C27.7494 15.4784 27.9658 15.0712 28.2843 14.7514C28.6027 14.4315 29.009 14.2134 29.4515 14.1246C29.8941 14.0358 30.353 14.0803 30.7702 14.2526C31.1874 14.4249 31.5441 14.7171 31.795 15.0923C32.046 15.4674 32.18 15.9086 32.18 16.36C32.1813 16.6589 32.1236 16.9552 32.0101 17.2318C31.8966 17.5083 31.7296 17.7598 31.5187 17.9716C31.3078 18.1834 31.0571 18.3516 30.781 18.4663C30.5049 18.581 30.2089 18.64 29.91 18.64ZM36.27 18.64C35.8191 18.64 35.3782 18.5063 35.0033 18.2558C34.6284 18.0052 34.3361 17.6491 34.1636 17.2325C33.991 16.8159 33.9458 16.3575 34.0338 15.9152C34.1218 15.4729 34.3389 15.0667 34.6578 14.7478C34.9767 14.4289 35.3829 14.2118 35.8252 14.1238C36.2675 14.0358 36.7259 14.081 37.1425 14.2536C37.5591 14.4261 37.9152 14.7184 38.1658 15.0933C38.4163 15.4682 38.55 15.9091 38.55 16.36C38.55 16.9647 38.3098 17.5446 37.8822 17.9722C37.4546 18.3998 36.8747 18.64 36.27 18.64Z" fill="black"/>
<path d="M40.36 24.55H7.64C6.67634 24.55 5.75201 24.9321 5.06966 25.6126C4.38731 26.2931 4.00265 27.2163 4 28.18V33.64C4.00265 34.6037 4.38731 35.5269 5.06966 36.2074C5.75201 36.8879 6.67634 37.27 7.64 37.27H40.36C41.3237 37.27 42.248 36.8879 42.9303 36.2074C43.6127 35.5269 43.9974 34.6037 44 33.64V28.18C43.9974 27.2163 43.6127 26.2931 42.9303 25.6126C42.248 24.9321 41.3237 24.55 40.36 24.55ZM29.91 33.18C29.461 33.18 29.0222 33.0469 28.6489 32.7974C28.2756 32.548 27.9846 32.1935 27.8128 31.7787C27.641 31.3639 27.596 30.9075 27.6836 30.4671C27.7712 30.0268 27.9874 29.6223 28.3049 29.3049C28.6223 28.9874 29.0268 28.7712 29.4671 28.6836C29.9075 28.596 30.3639 28.641 30.7787 28.8128C31.1935 28.9846 31.548 29.2756 31.7974 29.6489C32.0469 30.0222 32.18 30.461 32.18 30.91C32.18 31.512 31.9408 32.0894 31.5151 32.5151C31.0894 32.9408 30.512 33.18 29.91 33.18ZM36.27 33.18C35.8215 33.178 35.3836 33.0432 35.0116 32.7926C34.6396 32.542 34.3502 32.1867 34.1799 31.7718C34.0097 31.3568 33.9661 30.9007 34.0548 30.461C34.1436 30.0214 34.3605 29.6178 34.6784 29.3014C34.9963 28.9849 35.4007 28.7697 35.8408 28.6829C36.2809 28.5961 36.7368 28.6417 37.151 28.8138C37.5652 28.9859 37.9191 29.2768 38.1681 29.6499C38.4171 30.023 38.55 30.4615 38.55 30.91C38.55 31.2089 38.491 31.5049 38.3763 31.781C38.2616 32.0571 38.0934 32.3078 37.8816 32.5187C37.6698 32.7296 37.4183 32.8966 37.1418 33.0101C36.8652 33.1236 36.5689 33.1813 36.27 33.18Z" fill="black"/>
</svg>
