<svg width="48" height="48" viewBox="0 0 48 48" fill="none" xmlns="http://www.w3.org/2000/svg">
<path d="M40.7401 11H7.26006C6.39546 11 5.56626 11.3435 4.95489 11.9548C4.34352 12.5662 4.00006 13.3954 4.00006 14.26V19.84C4.00271 20.7029 4.34734 21.5295 4.95842 22.1387C5.5695 22.7479 6.39719 23.09 7.26006 23.09H40.7401C41.6029 23.09 42.4306 22.7479 43.0417 22.1387C43.6528 21.5295 43.9974 20.7029 44.0001 19.84V14.26C44.0001 13.3954 43.6566 12.5662 43.0452 11.9548C42.4339 11.3435 41.6047 11 40.7401 11ZM41.2101 19.84C41.2074 19.9629 41.1568 20.0799 41.0689 20.1659C40.9811 20.2519 40.863 20.3 40.7401 20.3H7.26006C7.13712 20.3 7.01907 20.2519 6.93121 20.1659C6.84335 20.0799 6.79268 19.9629 6.79006 19.84V14.26C6.79006 14.1353 6.83958 14.0158 6.92772 13.9277C7.01586 13.8395 7.13541 13.79 7.26006 13.79H40.7401C40.8647 13.79 40.9843 13.8395 41.0724 13.9277C41.1605 14.0158 41.2101 14.1353 41.2101 14.26V19.84Z" fill="black"/>
<path d="M40.7401 25.88H7.26006C6.39546 25.88 5.56626 26.2235 4.95489 26.8348C4.34352 27.4462 4.00006 28.2754 4.00006 29.14V34.72C3.99742 35.1498 4.0798 35.5759 4.24245 35.9737C4.4051 36.3715 4.64481 36.7333 4.94779 37.0381C5.25078 37.3429 5.61105 37.5849 6.00788 37.75C6.40471 37.915 6.83026 38 7.26006 38H40.7401C41.1699 38 41.5954 37.915 41.9922 37.75C42.3891 37.5849 42.7493 37.3429 43.0523 37.0381C43.3553 36.7333 43.595 36.3715 43.7577 35.9737C43.9203 35.5759 44.0027 35.1498 44.0001 34.72V29.14C44.0001 28.2754 43.6566 27.4462 43.0452 26.8348C42.4339 26.2235 41.6047 25.88 40.7401 25.88ZM41.2101 34.72C41.2101 34.8447 41.1605 34.9642 41.0724 35.0523C40.9843 35.1405 40.8647 35.19 40.7401 35.19H7.26006C7.13541 35.19 7.01586 35.1405 6.92772 35.0523C6.83958 34.9642 6.79006 34.8447 6.79006 34.72V29.14C6.79006 29.0153 6.83958 28.8958 6.92772 28.8077C7.01586 28.7195 7.13541 28.67 7.26006 28.67H40.7401C40.8647 28.67 40.9843 28.7195 41.0724 28.8077C41.1605 28.8958 41.2101 29.0153 41.2101 29.14V34.72Z" fill="black"/>
<path d="M30.0501 14.72C29.5888 14.718 29.1373 14.853 28.7529 15.1078C28.3684 15.3626 28.0682 15.7258 27.8903 16.1514C27.7124 16.577 27.6648 17.0458 27.7536 17.4984C27.8424 17.951 28.0635 18.3671 28.389 18.694C28.7144 19.0208 29.1296 19.2438 29.5818 19.3345C30.0341 19.4252 30.5031 19.3796 30.9294 19.2036C31.3557 19.0275 31.7202 18.7289 31.9767 18.3455C32.2331 17.9621 32.3701 17.5113 32.3701 17.05C32.3701 16.4338 32.126 15.8426 31.6912 15.406C31.2564 14.9693 30.6663 14.7226 30.0501 14.72Z" fill="black"/>
<path d="M36.5601 14.72C36.0988 14.718 35.6474 14.853 35.2629 15.1078C34.8784 15.3626 34.5782 15.7258 34.4003 16.1514C34.2224 16.577 34.1748 17.0458 34.2636 17.4984C34.3524 17.951 34.5735 18.3671 34.899 18.694C35.2244 19.0208 35.6396 19.2438 36.0918 19.3345C36.5441 19.4252 37.0131 19.3796 37.4394 19.2036C37.8657 19.0275 38.2302 18.7289 38.4867 18.3455C38.7432 17.9621 38.8801 17.5113 38.8801 17.05C38.8801 16.4338 38.636 15.8426 38.2012 15.406C37.7664 14.9693 37.1763 14.7226 36.5601 14.72Z" fill="black"/>
<path d="M30.0501 29.6C29.5888 29.598 29.1373 29.733 28.7529 29.9878C28.3684 30.2426 28.0682 30.6058 27.8903 31.0314C27.7124 31.457 27.6648 31.9258 27.7536 32.3784C27.8424 32.831 28.0635 33.2471 28.389 33.574C28.7144 33.9008 29.1296 34.1238 29.5818 34.2145C30.0341 34.3052 30.5031 34.2596 30.9294 34.0836C31.3557 33.9075 31.7202 33.6089 31.9767 33.2255C32.2331 32.8421 32.3701 32.3913 32.3701 31.93C32.3701 31.3138 32.126 30.7226 31.6912 30.286C31.2564 29.8493 30.6663 29.6026 30.0501 29.6Z" fill="black"/>
<path d="M36.5601 29.6C36.0988 29.598 35.6474 29.733 35.2629 29.9878C34.8784 30.2426 34.5782 30.6058 34.4003 31.0314C34.2224 31.457 34.1748 31.9258 34.2636 32.3784C34.3524 32.831 34.5735 33.2471 34.899 33.574C35.2244 33.9008 35.6396 34.1238 36.0918 34.2145C36.5441 34.3052 37.0131 34.2596 37.4394 34.0836C37.8657 33.9075 38.2302 33.6089 38.4867 33.2255C38.7432 32.8421 38.8801 32.3913 38.8801 31.93C38.8801 31.3138 38.636 30.7226 38.2012 30.286C37.7664 29.8493 37.1763 29.6026 36.5601 29.6Z" fill="black"/>
</svg>
