<svg width="48" height="48" viewBox="0 0 48 48" fill="none" xmlns="http://www.w3.org/2000/svg">
<path d="M41.2507 21.4059H37.9573C38.4873 22.1653 38.7716 23.069 38.7716 23.995C38.7716 24.9211 38.4873 25.8248 37.9573 26.5841H41.2507C41.9374 26.5841 42.5959 26.3114 43.0815 25.8258C43.567 25.3403 43.8398 24.6817 43.8398 23.995C43.8398 23.3084 43.567 22.6498 43.0815 22.1643C42.5959 21.6787 41.9374 21.4059 41.2507 21.4059Z" fill="black"/>
<path d="M29.7039 23.995C29.7011 23.0687 29.9853 22.1642 30.5174 21.4059H6.7096C6.02293 21.4059 5.36438 21.6787 4.87883 22.1643C4.39328 22.6498 4.1205 23.3084 4.1205 23.995C4.1205 24.6817 4.39328 25.3403 4.87883 25.8258C5.36438 26.3114 6.02293 26.5841 6.7096 26.5841H30.5174C29.9853 25.8258 29.7011 24.9214 29.7039 23.995Z" fill="black"/>
<path d="M7.03696 15.3647C7.03424 14.4415 7.31849 13.5402 7.85039 12.7855H6.74928C6.39646 12.7637 6.0429 12.8143 5.71038 12.9343C5.37787 13.0542 5.07344 13.241 4.81587 13.4831C4.55829 13.7252 4.35302 14.0175 4.2127 14.342C4.07239 14.6664 4 15.0162 4 15.3697C4 15.7232 4.07239 16.0729 4.2127 16.3974C4.35302 16.7218 4.55829 17.0141 4.81587 17.2562C5.07344 17.4983 5.37787 17.6851 5.71038 17.8051C6.0429 17.9251 6.39646 17.9757 6.74928 17.9538H7.85039C7.31831 17.1955 7.03414 16.2911 7.03696 15.3647Z" fill="black"/>
<path d="M41.2507 12.7855H15.2903C15.8195 13.5434 16.1033 14.4454 16.1033 15.3697C16.1033 16.294 15.8195 17.196 15.2903 17.9538H41.2507C41.6035 17.9757 41.9571 17.9251 42.2896 17.8051C42.6221 17.6851 42.9266 17.4983 43.1841 17.2562C43.4417 17.0141 43.647 16.7218 43.7873 16.3974C43.9276 16.0729 44 15.7232 44 15.3697C44 15.0162 43.9276 14.6664 43.7873 14.342C43.647 14.0175 43.4417 13.7252 43.1841 13.4831C42.9266 13.241 42.6221 13.0542 42.2896 12.9343C41.9571 12.8143 41.6035 12.7637 41.2507 12.7855Z" fill="black"/>
<path d="M41.2507 30.0363H21.8275C22.3636 30.7913 22.6516 31.6944 22.6516 32.6204C22.6516 33.5464 22.3636 34.4495 21.8275 35.2045H41.2507C41.6035 35.2264 41.9571 35.1758 42.2896 35.0558C42.6221 34.9358 42.9266 34.749 43.1841 34.5069C43.4417 34.2648 43.647 33.9726 43.7873 33.6481C43.9276 33.3236 44 32.9739 44 32.6204C44 32.2669 43.9276 31.9171 43.7873 31.5927C43.647 31.2682 43.4417 30.9759 43.1841 30.7338C42.9266 30.4917 42.6221 30.3049 42.2896 30.185C41.9571 30.065 41.6035 30.0144 41.2507 30.0363Z" fill="black"/>
<path d="M13.5742 32.6254C13.5746 31.6995 13.8584 30.796 14.3876 30.0363H6.74928C6.39646 30.0144 6.0429 30.065 5.71038 30.185C5.37787 30.3049 5.07344 30.4917 4.81587 30.7338C4.55829 30.9759 4.35302 31.2682 4.2127 31.5927C4.07239 31.9171 4 32.2669 4 32.6204C4 32.9739 4.07239 33.3236 4.2127 33.6481C4.35302 33.9726 4.55829 34.2648 4.81587 34.5069C5.07344 34.749 5.37787 34.9358 5.71038 35.0558C6.0429 35.1758 6.39646 35.2264 6.74928 35.2045H14.3876C13.8598 34.4479 13.576 33.5479 13.5742 32.6254Z" fill="black"/>
<path d="M34.2373 20.3247C33.5106 20.3207 32.799 20.5327 32.1928 20.9336C31.5866 21.3345 31.1131 21.9063 30.8323 22.5766C30.5514 23.247 30.4759 23.9856 30.6153 24.6988C30.7546 25.4121 31.1026 26.068 31.6151 26.5833C32.1277 27.0986 32.7816 27.4501 33.4941 27.5934C34.2066 27.7366 34.9456 27.6651 35.6175 27.3879C36.2893 27.1107 36.8637 26.6402 37.2679 26.0362C37.6721 25.4322 37.8879 24.7218 37.8879 23.995C37.8879 23.025 37.5039 22.0944 36.8199 21.4067C36.1358 20.7189 35.2073 20.3299 34.2373 20.3247Z" fill="black"/>
<path d="M11.5704 11.6943C10.8416 11.6924 10.1287 11.9068 9.52197 12.3105C8.91524 12.7141 8.44199 13.2888 8.16221 13.9617C7.88243 14.6346 7.80871 15.3754 7.9504 16.0902C8.09209 16.805 8.4428 17.4617 8.95809 17.977C9.47339 18.4923 10.1301 18.843 10.8449 18.9847C11.5597 19.1264 12.3005 19.0526 12.9734 18.7729C13.6463 18.4931 14.221 18.0198 14.6246 17.4131C15.0283 16.8064 15.2427 16.0934 15.2407 15.3647C15.2407 14.3913 14.854 13.4577 14.1657 12.7694C13.4774 12.081 12.5438 11.6943 11.5704 11.6943Z" fill="black"/>
<path d="M18.1076 28.9451C17.3797 28.9451 16.6681 29.1609 16.0629 29.5653C15.4577 29.9697 14.986 30.5445 14.7074 31.217C14.4289 31.8895 14.356 32.6294 14.498 33.3433C14.64 34.0572 14.9905 34.713 15.5052 35.2277C16.0199 35.7424 16.6757 36.0929 17.3896 36.2349C18.1035 36.3769 18.8435 36.304 19.516 36.0255C20.1884 35.7469 20.7632 35.2752 21.1676 34.67C21.572 34.0648 21.7879 33.3532 21.7879 32.6254C21.7879 32.1421 21.6927 31.6635 21.5077 31.217C21.3228 30.7705 21.0517 30.3647 20.7099 30.023C20.3682 29.6813 19.9625 29.4102 19.516 29.2252C19.0694 29.0403 18.5909 28.9451 18.1076 28.9451Z" fill="black"/>
</svg>
