<svg width="48" height="48" viewBox="0 0 48 48" fill="none" xmlns="http://www.w3.org/2000/svg">
<path d="M31.0384 24C31.0425 23.5245 31.13 23.0534 31.2969 22.6082H5.50929C5.14017 22.6082 4.78617 22.7548 4.52516 23.0158C4.26415 23.2769 4.11752 23.6309 4.11752 24C4.11752 24.3691 4.26415 24.7231 4.52516 24.9841C4.78617 25.2451 5.14017 25.3918 5.50929 25.3918H31.2969C31.13 24.9465 31.0425 24.4754 31.0384 24Z" fill="black"/>
<path d="M42.4907 22.6082H38.6534C38.9979 23.5041 38.9979 24.4959 38.6534 25.3918H42.4907C42.8598 25.3918 43.2138 25.2451 43.4748 24.9841C43.7358 24.7231 43.8825 24.3691 43.8825 24C43.8825 23.6309 43.7358 23.2769 43.4748 23.0158C43.2138 22.7548 42.8598 22.6082 42.4907 22.6082Z" fill="black"/>
<path d="M6.73207 14.7546C6.73364 14.278 6.82468 13.8059 7.00048 13.3629H5.50929C5.32457 13.3629 5.14165 13.3992 4.97098 13.4699C4.80031 13.5406 4.64524 13.6442 4.51462 13.7749C4.384 13.9055 4.28038 14.0606 4.20969 14.2312C4.13899 14.4019 4.10261 14.5848 4.10261 14.7695C4.10261 14.9543 4.13899 15.1372 4.20969 15.3079C4.28038 15.4785 4.384 15.6336 4.51462 15.7642C4.64524 15.8948 4.80031 15.9985 4.97098 16.0691C5.14165 16.1398 5.32457 16.1762 5.50929 16.1762H7.00048C6.81978 15.7242 6.72862 15.2414 6.73207 14.7546Z" fill="black"/>
<path d="M42.4907 13.3629H14.3471C14.5229 13.8059 14.6139 14.278 14.6155 14.7546C14.6189 15.2414 14.5278 15.7242 14.3471 16.1762H42.4907C42.6827 16.1925 42.876 16.1687 43.0583 16.1064C43.2406 16.0441 43.408 15.9446 43.5499 15.8143C43.6918 15.6839 43.805 15.5255 43.8825 15.3491C43.96 15.1727 44 14.9821 44 14.7894C44 14.5967 43.96 14.4062 43.8825 14.2298C43.805 14.0533 43.6918 13.8949 43.5499 13.7646C43.408 13.6342 43.2406 13.5347 43.0583 13.4724C42.876 13.4101 42.6827 13.3863 42.4907 13.4026V13.3629Z" fill="black"/>
<path d="M13.7406 33.2453C13.763 32.7694 13.8708 32.3013 14.0588 31.8635H5.50929C5.31731 31.8472 5.12403 31.871 4.94171 31.9333C4.75939 31.9956 4.59199 32.0951 4.45011 32.2255C4.30823 32.3558 4.19496 32.5142 4.11749 32.6906C4.04001 32.867 4 33.0576 4 33.2503C4 33.443 4.04001 33.6336 4.11749 33.81C4.19496 33.9864 4.30823 34.1448 4.45011 34.2751C4.59199 34.4055 4.75939 34.505 4.94171 34.5673C5.12403 34.6296 5.31731 34.6534 5.50929 34.6371H14.0588C13.8707 34.1958 13.7629 33.7245 13.7406 33.2453Z" fill="black"/>
<path d="M42.4907 31.8635H21.3556C21.5313 32.3031 21.6224 32.7719 21.624 33.2453C21.6225 33.722 21.5314 34.1941 21.3556 34.6371H42.4907C42.6827 34.6534 42.876 34.6296 43.0583 34.5673C43.2406 34.505 43.408 34.4055 43.5499 34.2751C43.6918 34.1448 43.805 33.9864 43.8825 33.81C43.96 33.6336 44 33.443 44 33.2503C44 33.0576 43.96 32.867 43.8825 32.6906C43.805 32.5142 43.6918 32.3558 43.5499 32.2255C43.408 32.0951 43.2406 31.9956 43.0583 31.9333C42.876 31.871 42.6827 31.8472 42.4907 31.8635Z" fill="black"/>
<path d="M34.9354 21.4451C34.4301 21.4451 33.9361 21.5949 33.5159 21.8757C33.0958 22.1564 32.7683 22.5554 32.5749 23.0223C32.3816 23.4891 32.331 24.0028 32.4296 24.4984C32.5281 24.994 32.7715 25.4493 33.1288 25.8066C33.4861 26.1639 33.9413 26.4072 34.4369 26.5058C34.9325 26.6044 35.4462 26.5538 35.9131 26.3604C36.3799 26.167 36.7789 25.8396 37.0597 25.4194C37.3404 24.9992 37.4903 24.5053 37.4903 24C37.4903 23.3224 37.2211 22.6725 36.7419 22.1934C36.2628 21.7143 35.613 21.4451 34.9354 21.4451Z" fill="black"/>
<path d="M10.6787 12.1997C10.173 12.1978 9.67807 12.3459 9.25662 12.6255C8.83516 12.905 8.50614 13.3033 8.31124 13.77C8.11634 14.2367 8.06433 14.7507 8.16179 15.2469C8.25924 15.7432 8.50178 16.1994 8.85869 16.5577C9.2156 16.916 9.67082 17.1603 10.1667 17.2597C10.6626 17.3591 11.1768 17.3091 11.6442 17.116C12.1116 16.9229 12.5112 16.5954 12.7924 16.1751C13.0736 15.7547 13.2237 15.2604 13.2237 14.7546C13.2237 14.0787 12.9559 13.4304 12.4789 12.9515C12.0019 12.4727 11.3546 12.2024 10.6787 12.1997Z" fill="black"/>
<path d="M17.6873 30.6904C17.182 30.6904 16.688 30.8403 16.2679 31.121C15.8477 31.4017 15.5203 31.8008 15.3269 32.2676C15.1335 32.7345 15.0829 33.2482 15.1815 33.7438C15.2801 34.2394 15.5234 34.6946 15.8807 35.0519C16.238 35.4092 16.6933 35.6526 17.1889 35.7511C17.6845 35.8497 18.1982 35.7991 18.665 35.6057C19.1319 35.4124 19.5309 35.0849 19.8116 34.6648C20.0924 34.2446 20.2422 33.7506 20.2422 33.2453C20.2396 32.5685 19.9696 31.9202 19.491 31.4416C19.0124 30.9631 18.3641 30.693 17.6873 30.6904Z" fill="black"/>
</svg>
