<svg width="48" height="48" viewBox="0 0 48 48" fill="none" xmlns="http://www.w3.org/2000/svg">
<path d="M35.15 44.0001H11.88C11.5018 44.0001 11.1273 43.9256 10.7779 43.7808C10.4285 43.6361 10.111 43.424 9.84353 43.1565C9.5761 42.8891 9.36396 42.5716 9.21923 42.2222C9.07449 41.8728 9 41.4983 9 41.1201V21.6101C9 20.8453 9.3031 20.1117 9.84292 19.57C10.3827 19.0284 11.1153 18.7227 11.88 18.7201H17C17.1931 18.7037 17.3875 18.7276 17.5709 18.7903C17.7543 18.853 17.9227 18.953 18.0654 19.0842C18.2082 19.2153 18.3221 19.3746 18.4 19.5521C18.478 19.7295 18.5182 19.9212 18.5182 20.1151C18.5182 20.3089 18.478 20.5006 18.4 20.678C18.3221 20.8555 18.2082 21.0148 18.0654 21.146C17.9227 21.2771 17.7543 21.3772 17.5709 21.4398C17.3875 21.5025 17.1931 21.5264 17 21.5101H11.88C11.8673 21.51 11.8547 21.5126 11.8431 21.5177C11.8315 21.5229 11.821 21.5304 11.8125 21.5398C11.804 21.5493 11.7976 21.5604 11.7938 21.5725C11.7899 21.5846 11.7886 21.5974 11.79 21.6101V41.1201C11.79 41.1319 11.7923 41.1436 11.7969 41.1545C11.8014 41.1654 11.808 41.1753 11.8164 41.1837C11.8247 41.1921 11.8346 41.1987 11.8456 41.2032C11.8565 41.2077 11.8682 41.2101 11.88 41.2101H35.15C35.1618 41.2101 35.1735 41.2077 35.1844 41.2032C35.1954 41.1987 35.2053 41.1921 35.2136 41.1837C35.222 41.1753 35.2286 41.1654 35.2331 41.1545C35.2377 41.1436 35.24 41.1319 35.24 41.1201V21.6101C35.2414 21.5974 35.2401 21.5846 35.2362 21.5725C35.2324 21.5604 35.226 21.5493 35.2175 21.5398C35.209 21.5304 35.1985 21.5229 35.1869 21.5177C35.1753 21.5126 35.1627 21.51 35.15 21.5101H30C29.8069 21.5264 29.6125 21.5025 29.4291 21.4398C29.2457 21.3772 29.0773 21.2771 28.9346 21.146C28.7918 21.0148 28.6779 20.8555 28.6 20.678C28.522 20.5006 28.4818 20.3089 28.4818 20.1151C28.4818 19.9212 28.522 19.7295 28.6 19.5521C28.6779 19.3746 28.7918 19.2153 28.9346 19.0842C29.0773 18.953 29.2457 18.853 29.4291 18.7903C29.6125 18.7276 29.8069 18.7037 30 18.7201H35.12C35.8847 18.7227 36.6173 19.0284 37.1571 19.57C37.6969 20.1117 38 20.8453 38 21.6101V41.1201C38 41.8787 37.7007 42.6067 37.1671 43.146C36.6335 43.6852 35.9086 43.9922 35.15 44.0001Z" fill="black"/>
<path d="M35.31 14.7901L25.24 4.71006C24.873 4.35189 24.3989 4.12362 23.89 4.06006C23.7676 4.01905 23.6391 3.99877 23.51 4.00006C23.3842 3.99969 23.2592 4.01996 23.14 4.06006C22.6326 4.12845 22.1599 4.35603 21.79 4.71006L11.72 14.7901C11.4548 15.0553 11.3058 15.415 11.3058 15.7901C11.3058 16.1651 11.4548 16.5248 11.72 16.7901C11.9852 17.0553 12.3449 17.2043 12.72 17.2043C13.0951 17.2043 13.4548 17.0553 13.72 16.7901L22.15 8.36006V33.9101C22.1336 34.1032 22.1575 34.2976 22.2202 34.481C22.2829 34.6644 22.383 34.8328 22.5141 34.9755C22.6452 35.1182 22.8046 35.2322 22.982 35.3101C23.1595 35.388 23.3512 35.4283 23.545 35.4283C23.7388 35.4283 23.9305 35.388 24.108 35.3101C24.2854 35.2322 24.4448 35.1182 24.5759 34.9755C24.707 34.8328 24.8071 34.6644 24.8698 34.481C24.9325 34.2976 24.9564 34.1032 24.94 33.9101V8.33006L33.37 16.7601C33.6352 17.0253 33.9949 17.1743 34.37 17.1743C34.7451 17.1743 35.1048 17.0253 35.37 16.7601C35.6352 16.4948 35.7842 16.1351 35.7842 15.7601C35.7842 15.385 35.6352 15.0253 35.37 14.7601L35.31 14.7901Z" fill="black"/>
</svg>
