<svg width="48" height="48" viewBox="0 0 48 48" fill="none" xmlns="http://www.w3.org/2000/svg">
<path d="M34.1278 19.2352H29.6788C28.9867 19.2352 28.323 19.5102 27.8336 19.9995C27.3442 20.4889 27.0693 21.1526 27.0693 21.8447C27.0693 22.5367 27.3442 23.2005 27.8336 23.6898C28.323 24.1792 28.9867 24.4541 29.6788 24.4541H32.8181V38.7811H15.2218V24.4541H18.3512C19.0432 24.4541 19.707 24.1792 20.1963 23.6898C20.6857 23.2005 20.9606 22.5367 20.9606 21.8447C20.9606 21.1526 20.6857 20.4889 20.1963 19.9995C19.707 19.5102 19.0432 19.2352 18.3512 19.2352H13.9021C12.8688 19.2379 11.8786 19.6495 11.1479 20.3802C10.4172 21.1109 10.0056 22.1011 10.0029 23.1344V40.1308C10.0134 41.1589 10.4286 42.1415 11.1584 42.8657C11.8882 43.5899 12.874 43.9974 13.9021 44H34.1278C35.1559 43.9895 36.1385 43.5744 36.8627 42.8445C37.5869 42.1147 37.9944 41.129 37.997 40.1008V23.1044C37.9866 22.0815 37.5756 21.1034 36.8522 20.38C36.1289 19.6566 35.1508 19.2456 34.1278 19.2352Z" fill="black"/>
<path d="M16.4616 17.4856L21.4605 12.4867V31.4127C21.4605 32.1047 21.7354 32.7685 22.2248 33.2578C22.7142 33.7472 23.3779 34.0221 24.07 34.0221C24.762 34.0221 25.4257 33.7472 25.9151 33.2578C26.4045 32.7685 26.6794 32.1047 26.6794 31.4127V12.5366L31.6184 17.5356C32.1115 18.0053 32.7688 18.2635 33.4498 18.2552C34.1308 18.2469 34.7816 17.9727 35.2631 17.4911C35.7447 17.0096 36.0189 16.3588 36.0272 15.6778C36.0355 14.9968 35.7773 14.3395 35.3076 13.8464L26.4994 5.00824C25.9453 4.45798 25.2247 4.10646 24.4499 4.00845C24.3001 3.99718 24.1497 3.99718 24 4.00845C23.8421 4.01023 23.6848 4.02697 23.5301 4.05844C22.7708 4.15973 22.0671 4.51159 21.5305 5.05823L12.7723 13.7964C12.3027 14.2896 12.0444 14.9468 12.0527 15.6278C12.061 16.3088 12.3352 16.9596 12.8168 17.4412C13.2984 17.9227 13.9491 18.197 14.6301 18.2053C15.3111 18.2136 15.9684 17.9553 16.4616 17.4856Z" fill="black"/>
</svg>
