<svg width="48" height="48" viewBox="0 0 48 48" fill="none" xmlns="http://www.w3.org/2000/svg">
<path d="M24.0601 42L23.6501 41.87C19.3919 40.5323 15.6732 37.8678 13.0374 34.2658C10.4016 30.6639 8.98693 26.3133 9.00009 21.85V10.44L10.8601 11.22C12.0753 11.7332 13.3809 11.9984 14.7001 12C16.3363 12.0047 17.9487 11.6078 19.3958 10.8441C20.8429 10.0805 22.0805 8.9734 23.0001 7.62L24.0601 6L25.1701 7.62C26.0849 8.9664 27.3146 10.0691 28.7523 10.8324C30.19 11.5957 31.7923 11.9965 33.4201 12C34.7386 12.0016 36.0441 11.7398 37.2601 11.23L39.1201 10.45V21.85C39.129 26.3099 37.7123 30.6559 35.0768 34.2539C32.4413 37.8518 28.725 40.5133 24.4701 41.85L24.0601 42ZM11.6801 14.31V21.85C11.6697 25.671 12.8589 29.399 15.08 32.5082C17.3011 35.6174 20.4421 37.951 24.0601 39.18C27.6781 37.951 30.8191 35.6174 33.0402 32.5082C35.2613 29.399 36.4505 25.671 36.4401 21.85V14.31C35.4578 14.5481 34.4508 14.669 33.4401 14.67C31.6785 14.6701 29.9363 14.3029 28.3247 13.5917C26.7131 12.8806 25.2674 11.8413 24.0801 10.54C22.8905 11.8437 21.4416 12.8846 19.8263 13.5958C18.2111 14.307 16.465 14.6729 14.7001 14.67C13.6827 14.6705 12.6689 14.5497 11.6801 14.31Z" fill="black"/>
<path d="M22.1301 30.84C21.6089 30.8352 21.1101 30.6271 20.7401 30.26L16.8501 26.41C16.724 26.2862 16.6237 26.1387 16.5548 25.9759C16.486 25.8132 16.45 25.6385 16.449 25.4618C16.4479 25.2851 16.4819 25.1099 16.5488 24.9464C16.6157 24.7828 16.7143 24.6341 16.8389 24.5089C16.9635 24.3836 17.1117 24.2842 17.2749 24.2164C17.4381 24.1486 17.613 24.1138 17.7897 24.1139C17.9664 24.114 18.1414 24.149 18.3045 24.217C18.4676 24.285 18.6156 24.3846 18.7401 24.51L22.0701 27.8L29.2701 18.65C29.3791 18.5115 29.5143 18.3957 29.668 18.3094C29.8217 18.2232 29.991 18.168 30.166 18.1471C30.341 18.1262 30.5185 18.14 30.6882 18.1877C30.8579 18.2354 31.0165 18.316 31.1551 18.425C31.2936 18.534 31.4094 18.6692 31.4956 18.8229C31.5819 18.9767 31.6371 19.1459 31.658 19.3209C31.6789 19.4959 31.6651 19.6734 31.6174 19.8431C31.5697 20.0128 31.4891 20.1715 31.3801 20.31L23.6901 30.08C23.5179 30.2994 23.3017 30.4803 23.0555 30.6112C22.8092 30.7421 22.5383 30.82 22.2601 30.84H22.1301Z" fill="black"/>
</svg>
