<svg width="48" height="48" viewBox="0 0 48 48" fill="none" xmlns="http://www.w3.org/2000/svg">
<path d="M18.0596 14.31C20.516 13.714 22.74 12.4018 24.4496 10.54C25.6369 11.8413 27.0826 12.8806 28.6942 13.5917C30.3058 14.3029 32.048 14.6701 33.8096 14.67C34.8204 14.6703 35.8276 14.5494 36.8096 14.31V21.85C36.8113 24.967 36.0198 28.0332 34.5096 30.76L36.5096 32.76C38.4837 29.475 39.5211 25.7125 39.5096 21.88V10.44L37.6496 11.22C36.434 11.7322 35.1287 11.9974 33.8096 12C32.1827 11.9976 30.581 11.5984 29.1433 10.8368C27.7057 10.0753 26.4755 8.97455 25.5596 7.63L24.4496 6L23.3396 7.62C22.4859 8.88349 21.3546 9.93501 20.0321 10.6942C18.7097 11.4533 17.2312 11.9 15.7096 12L18.0596 14.31Z" fill="black"/>
<path d="M31.2096 35.05C29.2844 36.9032 26.9772 38.3128 24.4496 39.18C20.8316 37.951 17.6906 35.6174 15.4695 32.5082C13.2484 29.399 12.0592 25.671 12.0696 21.85V15.91L9.3896 13.22V21.85C9.37377 26.3083 10.7827 30.6551 13.4108 34.2564C16.039 37.8577 19.7489 40.5253 23.9996 41.87L24.4096 42L24.8096 41.87C27.9182 40.9094 30.7623 39.2426 33.1196 37L31.2096 35.05Z" fill="black"/>
<path d="M40.5496 41.93C40.1943 41.9281 39.8537 41.7883 39.5996 41.54L7.3896 9.33C7.13764 9.07804 6.99609 8.73632 6.99609 8.38C6.99609 8.02368 7.13764 7.68196 7.3896 7.43C7.64155 7.17804 7.98328 7.0365 8.3396 7.0365C8.69592 7.0365 9.03764 7.17804 9.2896 7.43L41.4996 39.64C41.6914 39.8304 41.8212 40.0743 41.8719 40.3397C41.9226 40.6052 41.8919 40.8798 41.7838 41.1274C41.6756 41.3751 41.4951 41.5843 41.2659 41.7275C41.0367 41.8707 40.7696 41.9413 40.4996 41.93H40.5496Z" fill="black"/>
</svg>
