<svg width="48" height="48" viewBox="0 0 48 48" fill="none" xmlns="http://www.w3.org/2000/svg">
<path d="M36.5701 11.41C35.4394 11.8826 34.2256 12.124 33.0001 12.12C31.5018 12.1233 30.0254 11.7607 28.6991 11.0636C27.3729 10.3665 26.237 9.35601 25.3901 8.12L24.0001 6L22.5501 8.09C21.7045 9.32725 20.5688 10.3387 19.2423 11.0359C17.9158 11.7332 16.4387 12.0951 14.9401 12.09C13.7266 12.1008 12.5232 11.8697 11.4001 11.41L9.0001 10.41V22.08C8.98639 26.4844 10.3826 30.7775 12.9845 34.3313C15.5864 37.885 19.2573 40.5128 23.4601 41.83L24.0001 42L24.5201 41.83C28.7266 40.5163 32.402 37.89 35.0077 34.336C37.6134 30.7819 39.0125 26.4869 39.0001 22.08V10.41L36.5701 11.41ZM31.3901 20.86L24.0001 30.3C23.7953 30.5596 23.538 30.7731 23.2451 30.9264C22.9521 31.0798 22.6301 31.1696 22.3001 31.19H22.1501C21.5327 31.1859 20.9411 30.9421 20.5001 30.51L16.7101 26.79C16.5396 26.632 16.4027 26.4413 16.3076 26.2292C16.2124 26.0172 16.161 25.7881 16.1563 25.5557C16.1517 25.3234 16.1939 25.0924 16.2805 24.8767C16.367 24.661 16.4962 24.465 16.6602 24.3003C16.8242 24.1356 17.0197 24.0056 17.2351 23.9182C17.4504 23.8307 17.6812 23.7876 17.9136 23.7913C18.146 23.795 18.3753 23.8455 18.5877 23.9398C18.8001 24.034 18.9914 24.1702 19.1501 24.34L22.0001 27.19L28.6501 18.72C28.7906 18.5414 28.9649 18.3922 29.1631 18.281C29.3613 18.1698 29.5794 18.0987 29.805 18.0717C30.0307 18.0448 30.2594 18.0626 30.4782 18.1241C30.697 18.1855 30.9015 18.2895 31.0801 18.43C31.2587 18.5705 31.4079 18.7448 31.5191 18.943C31.6303 19.1412 31.7014 19.3593 31.7284 19.5849C31.7553 19.8106 31.7375 20.0393 31.676 20.2581C31.6146 20.4769 31.5106 20.6814 31.3701 20.86H31.3901Z" fill="black"/>
</svg>
