<svg width="48" height="48" viewBox="0 0 48 48" fill="none" xmlns="http://www.w3.org/2000/svg">
<path d="M36.5701 11.41C35.4394 11.8826 34.2256 12.124 33.0001 12.12C31.5018 12.1233 30.0254 11.7607 28.6991 11.0636C27.3729 10.3665 26.237 9.35601 25.3901 8.12L24.0001 6L22.5501 8.09C21.7045 9.32725 20.5688 10.3387 19.2423 11.0359C17.9158 11.7332 16.4387 12.0951 14.9401 12.09C13.7266 12.1008 12.5232 11.8697 11.4001 11.41L9.0001 10.41V22.08C8.98639 26.4844 10.3826 30.7775 12.9845 34.3313C15.5864 37.885 19.2573 40.5128 23.4601 41.83L24.0001 42L24.5201 41.83C28.7266 40.5163 32.402 37.89 35.0077 34.336C37.6134 30.7819 39.0125 26.4869 39.0001 22.08V10.41L36.5701 11.41ZM31.2601 29.46C31.4299 29.6187 31.5661 29.81 31.6603 30.0224C31.7546 30.2348 31.8051 30.4641 31.8088 30.6965C31.8125 30.9289 31.7694 31.1597 31.6819 31.375C31.5945 31.5904 31.4645 31.7859 31.2998 31.9499C31.1351 32.1139 30.9391 32.2431 30.7234 32.3296C30.5077 32.4162 30.2767 32.4584 30.0444 32.4538C29.812 32.4491 29.5829 32.3977 29.3709 32.3025C29.1588 32.2074 28.9681 32.0705 28.8101 31.9L24.0001 27.07L19.1501 31.9C18.8194 32.1854 18.3929 32.3351 17.9563 32.3191C17.5198 32.3031 17.1054 32.1225 16.7965 31.8136C16.4876 31.5047 16.307 31.0903 16.291 30.6538C16.275 30.2172 16.4247 29.7907 16.7101 29.46L21.5401 24.63L16.7101 19.8C16.5396 19.642 16.4027 19.4513 16.3076 19.2392C16.2124 19.0272 16.161 18.7981 16.1563 18.5657C16.1517 18.3334 16.1939 18.1024 16.2805 17.8867C16.367 17.671 16.4962 17.475 16.6602 17.3103C16.8242 17.1456 17.0197 17.0156 17.2351 16.9282C17.4504 16.8407 17.6812 16.7976 17.9136 16.8013C18.146 16.805 18.3753 16.8555 18.5877 16.9498C18.8001 17.044 18.9914 17.1802 19.1501 17.35L24.0001 22.18L28.8301 17.35C29.155 17.0251 29.5956 16.8426 30.0551 16.8426C30.5146 16.8426 30.9552 17.0251 31.2801 17.35C31.605 17.6749 31.7875 18.1155 31.7875 18.575C31.7875 19.0345 31.605 19.4751 31.2801 19.8L26.4501 24.63L31.2601 29.46Z" fill="black"/>
</svg>
