<svg width="48" height="48" viewBox="0 0 48 48" fill="none" xmlns="http://www.w3.org/2000/svg">
<path d="M36.5701 11.41C35.4394 11.8826 34.2256 12.124 33.0001 12.12C31.5018 12.1233 30.0254 11.7607 28.6991 11.0636C27.3729 10.3665 26.237 9.35601 25.3901 8.12L24.0001 6L22.5501 8.09C21.7045 9.32725 20.5688 10.3387 19.2423 11.0359C17.9158 11.7332 16.4387 12.0951 14.9401 12.09C13.7266 12.1008 12.5232 11.8697 11.4001 11.41L9.0001 10.41V22.08C8.98639 26.4844 10.3826 30.7775 12.9845 34.3313C15.5864 37.885 19.2573 40.5128 23.4601 41.83L24.0001 42L24.5201 41.83C28.7266 40.5163 32.402 37.89 35.0077 34.336C37.6134 30.7819 39.0125 26.4869 39.0001 22.08V10.41L36.5701 11.41Z" fill="black"/>
</svg>
