<svg width="48" height="48" viewBox="0 0 48 48" fill="none" xmlns="http://www.w3.org/2000/svg">
<path d="M24.0601 42L23.6501 41.87C19.3919 40.5323 15.6732 37.8678 13.0374 34.2658C10.4016 30.6639 8.98693 26.3133 9.00009 21.85V10.44L10.8601 11.22C12.0753 11.7332 13.3809 11.9984 14.7001 12C16.3363 12.0047 17.9487 11.6078 19.3958 10.8441C20.8429 10.0805 22.0805 8.9734 23.0001 7.62L24.0601 6L25.1701 7.62C26.0849 8.9664 27.3146 10.0691 28.7523 10.8324C30.19 11.5957 31.7923 11.9965 33.4201 12C34.7386 12.0016 36.0441 11.7398 37.2601 11.23L39.1201 10.45V21.85C39.129 26.3099 37.7123 30.6559 35.0768 34.2539C32.4413 37.8518 28.725 40.5133 24.4701 41.85L24.0601 42ZM11.6801 14.31V21.85C11.6697 25.671 12.8589 29.399 15.08 32.5082C17.3011 35.6174 20.4421 37.951 24.0601 39.18C27.6781 37.951 30.8191 35.6174 33.0402 32.5082C35.2613 29.399 36.4505 25.671 36.4401 21.85V14.31C35.4578 14.5481 34.4508 14.669 33.4401 14.67C31.6785 14.6701 29.9363 14.3029 28.3247 13.5917C26.7131 12.8806 25.2674 11.8413 24.0801 10.54C22.8905 11.8437 21.4416 12.8846 19.8263 13.5958C18.2111 14.307 16.465 14.6729 14.7001 14.67C13.6827 14.6705 12.6689 14.5497 11.6801 14.31Z" fill="black"/>
<path d="M26.0001 24.49L31.3101 19.17C31.4365 19.0462 31.5369 18.8984 31.6054 18.7352C31.674 18.5721 31.7093 18.3969 31.7093 18.22C31.7093 18.0431 31.674 17.8679 31.6054 17.7048C31.5369 17.5416 31.4365 17.3938 31.3101 17.27C31.0573 17.0196 30.7159 16.8792 30.3601 16.8792C30.0043 16.8792 29.6629 17.0196 29.4101 17.27L24.1001 22.59L18.7501 17.27C18.4973 17.0196 18.1559 16.8792 17.8001 16.8792C17.4443 16.8792 17.1029 17.0196 16.8501 17.27C16.7237 17.3938 16.6233 17.5416 16.5547 17.7048C16.4862 17.8679 16.4509 18.0431 16.4509 18.22C16.4509 18.3969 16.4862 18.5721 16.5547 18.7352C16.6233 18.8984 16.7237 19.0462 16.8501 19.17L22.1601 24.49L16.8501 29.8C16.6583 29.9904 16.5285 30.2343 16.4777 30.4997C16.427 30.7652 16.4578 31.0398 16.5659 31.2874C16.6741 31.5351 16.8546 31.7443 17.0838 31.8875C17.3129 32.0307 17.5801 32.1013 17.8501 32.09C18.2053 32.0881 18.546 31.9483 18.8001 31.7L24.1101 26.38L29.4201 31.7C29.6742 31.9483 30.0148 32.0881 30.3701 32.09C30.6358 32.091 30.8959 32.0129 31.1172 31.8658C31.3384 31.7186 31.5109 31.5089 31.6128 31.2635C31.7146 31.018 31.7412 30.7478 31.689 30.4872C31.6369 30.2266 31.5085 29.9874 31.3201 29.8L26.0001 24.49Z" fill="black"/>
</svg>
