<svg width="48" height="48" viewBox="0 0 48 48" fill="none" xmlns="http://www.w3.org/2000/svg">
<path d="M24.0601 42L23.6501 41.87C19.3919 40.5323 15.6732 37.8678 13.0374 34.2658C10.4016 30.6639 8.98693 26.3133 9.00009 21.85V10.44L10.8601 11.22C12.0753 11.7332 13.3809 11.9984 14.7001 12C16.3363 12.0047 17.9487 11.6078 19.3958 10.8441C20.8429 10.0805 22.0805 8.9734 23.0001 7.62L24.0601 6L25.1701 7.62C26.0849 8.9664 27.3146 10.0691 28.7523 10.8324C30.19 11.5957 31.7923 11.9965 33.4201 12C34.7386 12.0016 36.0441 11.7398 37.2601 11.23L39.1201 10.45V21.85C39.129 26.3099 37.7123 30.6559 35.0768 34.2539C32.4413 37.8518 28.725 40.5133 24.4701 41.85L24.0601 42ZM11.6801 14.31V21.85C11.6697 25.671 12.8589 29.399 15.08 32.5082C17.3011 35.6174 20.4421 37.951 24.0601 39.18C27.6781 37.951 30.8191 35.6174 33.0402 32.5082C35.2613 29.399 36.4505 25.671 36.4401 21.85V14.31C35.4578 14.5481 34.4508 14.669 33.4401 14.67C31.6785 14.6701 29.9363 14.3029 28.3247 13.5917C26.7131 12.8806 25.2674 11.8413 24.0801 10.54C22.8905 11.8437 21.4416 12.8846 19.8263 13.5958C18.2111 14.307 16.465 14.6729 14.7001 14.67C13.6827 14.6705 12.6689 14.5497 11.6801 14.31Z" fill="black"/>
<path d="M30.3201 23.14H25.4001V18.22C25.4001 18.044 25.3654 17.8698 25.2981 17.7072C25.2307 17.5446 25.132 17.3969 25.0076 17.2725C24.8832 17.148 24.7355 17.0493 24.5729 16.982C24.4103 16.9147 24.2361 16.88 24.0601 16.88C23.8841 16.88 23.7099 16.9147 23.5473 16.982C23.3847 17.0493 23.237 17.148 23.1126 17.2725C22.9881 17.3969 22.8894 17.5446 22.8221 17.7072C22.7548 17.8698 22.7201 18.044 22.7201 18.22V23.14H17.8001C17.6137 23.1239 17.426 23.1467 17.2489 23.207C17.0719 23.2673 16.9092 23.3637 16.7714 23.4902C16.6335 23.6167 16.5235 23.7704 16.4482 23.9417C16.3729 24.1129 16.334 24.2979 16.334 24.485C16.334 24.6721 16.3729 24.8571 16.4482 25.0283C16.5235 25.1996 16.6335 25.3533 16.7714 25.4798C16.9092 25.6063 17.0719 25.7027 17.2489 25.763C17.426 25.8233 17.6137 25.8461 17.8001 25.83H22.7201V30.75C22.7201 31.1054 22.8613 31.4462 23.1126 31.6975C23.3639 31.9488 23.7047 32.09 24.0601 32.09C24.4155 32.09 24.7563 31.9488 25.0076 31.6975C25.2589 31.4462 25.4001 31.1054 25.4001 30.75V25.83H30.3201C30.5065 25.8461 30.6942 25.8233 30.8712 25.763C31.0483 25.7027 31.211 25.6063 31.3488 25.4798C31.4867 25.3533 31.5967 25.1996 31.672 25.0283C31.7473 24.8571 31.7862 24.6721 31.7862 24.485C31.7862 24.2979 31.7473 24.1129 31.672 23.9417C31.5967 23.7704 31.4867 23.6167 31.3488 23.4902C31.211 23.3637 31.0483 23.2673 30.8712 23.207C30.6942 23.1467 30.5065 23.1239 30.3201 23.14Z" fill="black"/>
</svg>
