<svg width="48" height="48" viewBox="0 0 48 48" fill="none" xmlns="http://www.w3.org/2000/svg">
<path d="M24.0601 42L23.6501 41.87C19.3919 40.5323 15.6732 37.8678 13.0374 34.2658C10.4016 30.6639 8.98693 26.3133 9.00009 21.85V10.44L10.8601 11.22C12.0753 11.7332 13.3809 11.9984 14.7001 12C16.3363 12.0047 17.9487 11.6078 19.3958 10.8441C20.8429 10.0805 22.0805 8.9734 23.0001 7.62L24.0601 6L25.1701 7.62C26.0849 8.9664 27.3146 10.0691 28.7523 10.8324C30.19 11.5957 31.7923 11.9965 33.4201 12C34.7386 12.0016 36.0441 11.7398 37.2601 11.23L39.1201 10.45V21.85C39.129 26.3099 37.7123 30.6559 35.0768 34.2539C32.4413 37.8518 28.725 40.5133 24.4701 41.85L24.0601 42ZM11.6801 14.31V21.85C11.6697 25.671 12.8589 29.399 15.08 32.5082C17.3011 35.6174 20.4421 37.951 24.0601 39.18C27.6781 37.951 30.8191 35.6174 33.0402 32.5082C35.2613 29.399 36.4505 25.671 36.4401 21.85V14.31C35.4578 14.5481 34.4508 14.669 33.4401 14.67C31.6785 14.6701 29.9363 14.3029 28.3247 13.5917C26.7131 12.8806 25.2674 11.8413 24.0801 10.54C22.8905 11.8437 21.4416 12.8846 19.8263 13.5958C18.2111 14.307 16.465 14.6729 14.7001 14.67C13.6827 14.6705 12.6689 14.5497 11.6801 14.31Z" fill="black"/>
</svg>
