<svg width="48" height="48" viewBox="0 0 48 48" fill="none" xmlns="http://www.w3.org/2000/svg">
<path d="M36.5701 11.41C35.4394 11.8826 34.2256 12.124 33.0001 12.12C31.5018 12.1233 30.0254 11.7607 28.6991 11.0636C27.3729 10.3665 26.237 9.35601 25.3901 8.12L24.0001 6L22.5501 8.09C21.7045 9.32725 20.5688 10.3387 19.2423 11.0359C17.9158 11.7332 16.4387 12.0951 14.9401 12.09C13.7266 12.1008 12.5232 11.8697 11.4001 11.41L9.0001 10.41V22.08C8.98639 26.4844 10.3826 30.7775 12.9845 34.3313C15.5864 37.885 19.2573 40.5128 23.4601 41.83L24.0001 42L24.5201 41.83C28.7266 40.5163 32.402 37.89 35.0077 34.336C37.6134 30.7819 39.0125 26.4869 39.0001 22.08V10.41L36.5701 11.41ZM30.0001 26.36H17.9301C17.4713 26.36 17.0312 26.1777 16.7068 25.8533C16.3824 25.5289 16.2001 25.0888 16.2001 24.63C16.2001 24.1712 16.3824 23.7311 16.7068 23.4067C17.0312 23.0823 17.4713 22.9 17.9301 22.9H30.0001C30.4589 22.9 30.899 23.0823 31.2234 23.4067C31.5478 23.7311 31.7301 24.1712 31.7301 24.63C31.7301 25.0888 31.5478 25.5289 31.2234 25.8533C30.899 26.1777 30.4589 26.36 30.0001 26.36Z" fill="black"/>
</svg>
