<svg width="48" height="48" viewBox="0 0 48 48" fill="none" xmlns="http://www.w3.org/2000/svg">
<path d="M36.9919 31C38.313 28.2194 38.9962 25.1786 38.9914 22.1V10.41L36.602 11.41C35.4778 11.8799 34.2714 12.1213 33.0529 12.12C31.5547 12.125 30.078 11.7631 28.7519 11.0659C27.4257 10.3686 26.2903 9.35721 25.4449 8.11996L24.0653 5.99996L22.6356 8.08996C21.4536 9.82152 19.7141 11.0956 17.7069 11.7L36.9919 31Z" fill="black"/>
<path d="M9.08916 15.16V22.08C9.07545 26.4843 10.4713 30.7775 13.0725 34.3312C15.6737 37.885 19.3437 40.5127 23.5454 41.83L24.0653 42L24.5851 41.83C27.2405 41.0001 29.6996 39.6393 31.8133 37.83L9.08916 15.16Z" fill="black"/>
<path d="M39.4213 42C39.0836 42.0007 38.7491 41.9348 38.4369 41.8061C38.1247 41.6774 37.8409 41.4884 37.6018 41.25L6.74977 10.39C6.2672 9.90727 5.99609 9.25259 5.99609 8.56996C5.99609 7.88733 6.2672 7.23266 6.74977 6.74996C7.23234 6.26727 7.88684 5.99609 8.56929 5.99609C9.25175 5.99609 9.90625 6.26727 10.3888 6.74996L41.2408 37.61C41.6012 37.9694 41.8468 38.4278 41.9464 38.9271C42.046 39.4263 41.9951 39.9439 41.8002 40.4142C41.6053 40.8845 41.2751 41.2863 40.8516 41.5686C40.4281 41.8509 39.9302 42.001 39.4213 42Z" fill="black"/>
</svg>
