<svg width="48" height="48" viewBox="0 0 48 48" fill="none" xmlns="http://www.w3.org/2000/svg">
<path d="M10.27 39.625H7.85C7.36108 39.625 6.89203 39.4315 6.54538 39.0867C6.19872 38.7419 6.00264 38.2739 6 37.785V29.215C6.00264 28.7261 6.19872 28.2581 6.54538 27.9133C6.89203 27.5685 7.36108 27.375 7.85 27.375H10.27C10.7607 27.375 11.2312 27.5699 11.5781 27.9169C11.9251 28.2638 12.12 28.7344 12.12 29.225V37.795C12.1147 38.2822 11.9175 38.7476 11.5711 39.0902C11.2248 39.4329 10.7572 39.625 10.27 39.625ZM8.77 36.855H9.35V30.135H8.77V36.855Z" fill="black"/>
<path d="M17.74 39.625H15.32C14.8311 39.625 14.362 39.4315 14.0154 39.0867C13.6687 38.7419 13.4726 38.2739 13.47 37.785V24.465C13.47 23.9743 13.6649 23.5038 14.0119 23.1569C14.3588 22.8099 14.8293 22.615 15.32 22.615H17.74C18.2306 22.615 18.7012 22.8099 19.0481 23.1569C19.3951 23.5038 19.59 23.9743 19.59 24.465V37.785C19.5874 38.2739 19.3913 38.7419 19.0446 39.0867C18.698 39.4315 18.2289 39.625 17.74 39.625ZM16.24 36.855H16.82V25.375H16.24V36.855Z" fill="black"/>
<path d="M25.21 39.625H22.79C22.3011 39.625 21.832 39.4315 21.4854 39.0867C21.1387 38.7419 20.9426 38.2739 20.94 37.785V19.715C20.94 19.2243 21.1349 18.7538 21.4819 18.4069C21.8288 18.0599 22.2994 17.865 22.79 17.865H25.21C25.4529 17.865 25.6935 17.9129 25.918 18.0058C26.1424 18.0988 26.3464 18.2351 26.5181 18.4069C26.6899 18.5786 26.8262 18.7826 26.9192 19.007C27.0121 19.2315 27.06 19.4721 27.06 19.715V37.785C27.0574 38.2739 26.8613 38.7419 26.5146 39.0867C26.168 39.4315 25.6989 39.625 25.21 39.625ZM23.71 36.855H24.29V20.635H23.71V36.855Z" fill="black"/>
<path d="M32.68 39.625H30.26C29.7711 39.625 29.302 39.4315 28.9554 39.0867C28.6087 38.7419 28.4126 38.2739 28.41 37.785V14.965C28.4126 14.4761 28.6087 14.0081 28.9554 13.6633C29.302 13.3185 29.7711 13.125 30.26 13.125H32.68C33.1689 13.125 33.638 13.3185 33.9846 13.6633C34.3313 14.0081 34.5274 14.4761 34.53 14.965V37.785C34.5274 38.2739 34.3313 38.7419 33.9846 39.0867C33.638 39.4315 33.1689 39.625 32.68 39.625ZM31.18 36.855H31.76V15.855H31.18V36.855Z" fill="black"/>
<path d="M40.15 39.625H37.73C37.2411 39.625 36.772 39.4315 36.4254 39.0867C36.0787 38.7419 35.8826 38.2739 35.88 37.785V10.225C35.88 9.73435 36.0749 9.26379 36.4219 8.91685C36.7688 8.56991 37.2393 8.375 37.73 8.375H40.15C40.6407 8.375 41.1112 8.56991 41.4581 8.91685C41.8051 9.26379 42 9.73435 42 10.225V37.785C41.9974 38.2739 41.8013 38.7419 41.4546 39.0867C41.108 39.4315 40.6389 39.625 40.15 39.625ZM38.65 36.855H39.23V11.145H38.65V36.855Z" fill="black"/>
</svg>
