<svg width="48" height="48" viewBox="0 0 48 48" fill="none" xmlns="http://www.w3.org/2000/svg">
<path d="M17.85 34.45H16.28C15.8926 34.4538 15.5111 34.5458 15.1645 34.7191C14.818 34.8924 14.5155 35.1423 14.28 35.45V28.63C14.28 27.8344 13.9639 27.0713 13.4013 26.5087C12.8387 25.9461 12.0756 25.63 11.28 25.63H9C8.20435 25.63 7.44129 25.9461 6.87868 26.5087C6.31607 27.0713 6 27.8344 6 28.63V36.63C6 37.4257 6.31607 38.1887 6.87868 38.7513C7.44129 39.3139 8.20435 39.63 9 39.63H11.25C11.8006 39.6247 12.3391 39.4679 12.8065 39.1768C13.2739 38.8858 13.6522 38.4717 13.9 37.98C14.0849 38.4624 14.4109 38.8778 14.8355 39.1722C15.26 39.4665 15.7634 39.626 16.28 39.63H17.85C18.5316 39.63 19.1853 39.3592 19.6673 38.8773C20.1492 38.3953 20.42 37.7416 20.42 37.06C20.42 36.3784 20.1492 35.7247 19.6673 35.2427C19.1853 34.7608 18.5316 34.49 17.85 34.49V34.45Z" fill="black"/>
<path d="M24.78 34.45H23.22C22.8825 34.45 22.5483 34.5165 22.2365 34.6456C21.9247 34.7748 21.6414 34.9641 21.4027 35.2027C21.1641 35.4414 20.9748 35.7247 20.8456 36.0365C20.7165 36.3483 20.65 36.6825 20.65 37.02C20.65 37.3575 20.7165 37.6917 20.8456 38.0035C20.9748 38.3153 21.1641 38.5986 21.4027 38.8373C21.6414 39.0759 21.9247 39.2652 22.2365 39.3944C22.5483 39.5235 22.8825 39.59 23.22 39.59H24.78C25.4616 39.59 26.1153 39.3192 26.5973 38.8373C27.0792 38.3553 27.35 37.7016 27.35 37.02C27.35 36.3384 27.0792 35.6847 26.5973 35.2027C26.1153 34.7208 25.4616 34.45 24.78 34.45Z" fill="black"/>
<path d="M31.72 34.45H30.15C29.4684 34.45 28.8147 34.7208 28.3327 35.2027C27.8508 35.6847 27.58 36.3384 27.58 37.02C27.58 37.7016 27.8508 38.3553 28.3327 38.8373C28.8147 39.3192 29.4684 39.59 30.15 39.59H31.72C32.4016 39.59 33.0553 39.3192 33.5373 38.8373C34.0192 38.3553 34.29 37.7016 34.29 37.02C34.29 36.3384 34.0192 35.6847 33.5373 35.2027C33.0553 34.7208 32.4016 34.45 31.72 34.45Z" fill="black"/>
<path d="M38.66 34.45H37.09C36.4084 34.45 35.7547 34.7208 35.2727 35.2027C34.7908 35.6847 34.52 36.3384 34.52 37.02C34.52 37.7016 34.7908 38.3553 35.2727 38.8373C35.7547 39.3192 36.4084 39.59 37.09 39.59H38.66C39.3416 39.59 39.9953 39.3192 40.4773 38.8373C40.9592 38.3553 41.23 37.7016 41.23 37.02C41.23 36.3384 40.9592 35.6847 40.4773 35.2027C39.9953 34.7208 39.3416 34.45 38.66 34.45Z" fill="black"/>
</svg>
