<svg width="48" height="48" viewBox="0 0 48 48" fill="none" xmlns="http://www.w3.org/2000/svg">
<path d="M24.78 34.44H23.22C22.8327 34.4445 22.4515 34.5369 22.105 34.7101C21.7586 34.8833 21.456 35.1329 21.22 35.44V24.22C21.22 23.4244 20.9039 22.6613 20.3413 22.0987C19.7787 21.5361 19.0156 21.22 18.22 21.22H15.94C15.1444 21.22 14.3813 21.5361 13.8187 22.0987C13.2561 22.6613 12.94 23.4244 12.94 24.22V26.15C12.4417 25.8108 11.8528 25.6296 11.25 25.63H9C8.20435 25.63 7.44129 25.9461 6.87868 26.5087C6.31607 27.0713 6 27.8344 6 28.63V36.63C6 37.4256 6.31607 38.1887 6.87868 38.7513C7.44129 39.3139 8.20435 39.63 9 39.63H11.25C11.7014 39.6267 12.1463 39.5216 12.5515 39.3225C12.9566 39.1234 13.3116 38.8354 13.59 38.48C13.8694 38.8367 14.226 39.1255 14.633 39.3247C15.04 39.5238 15.4869 39.6282 15.94 39.63H18.19C18.7358 39.6257 19.27 39.4725 19.7352 39.1871C20.2004 38.9016 20.5789 38.4946 20.83 38.01C21.0214 38.4876 21.3513 38.897 21.7772 39.1856C22.203 39.4743 22.7055 39.6291 23.22 39.63H24.78C25.4352 39.5892 26.0502 39.3001 26.4997 38.8217C26.9492 38.3432 27.1995 37.7115 27.1995 37.055C27.1995 36.3985 26.9492 35.7668 26.4997 35.2883C26.0502 34.8099 25.4352 34.5209 24.78 34.48V34.44Z" fill="black"/>
<path d="M31.72 34.44H30.15C29.4948 34.4809 28.8798 34.7699 28.4303 35.2483C27.9808 35.7268 27.7305 36.3585 27.7305 37.015C27.7305 37.6715 27.9808 38.3032 28.4303 38.7817C28.8798 39.2601 29.4948 39.5492 30.15 39.59H31.72C32.3752 39.5492 32.9902 39.2601 33.4397 38.7817C33.8892 38.3032 34.1395 37.6715 34.1395 37.015C34.1395 36.3585 33.8892 35.7268 33.4397 35.2483C32.9902 34.7699 32.3752 34.4809 31.72 34.44Z" fill="black"/>
<path d="M38.66 34.44H37.09C36.4348 34.4809 35.8198 34.7699 35.3703 35.2483C34.9208 35.7268 34.6705 36.3585 34.6705 37.015C34.6705 37.6715 34.9208 38.3032 35.3703 38.7817C35.8198 39.2601 36.4348 39.5492 37.09 39.59H38.66C39.3152 39.5492 39.9302 39.2601 40.3797 38.7817C40.8292 38.3032 41.0795 37.6715 41.0795 37.015C41.0795 36.3585 40.8292 35.7268 40.3797 35.2483C39.9302 34.7699 39.3152 34.4809 38.66 34.44Z" fill="black"/>
</svg>
