<svg width="48" height="48" viewBox="0 0 48 48" fill="none" xmlns="http://www.w3.org/2000/svg">
<path d="M40.259 39.62H38.569C38.3772 39.6363 38.1842 39.6126 38.002 39.5504C37.8199 39.4882 37.6526 39.3888 37.5109 39.2586C37.3692 39.1284 37.256 38.9702 37.1786 38.794C37.1012 38.6178 37.0612 38.4274 37.0612 38.235C37.0612 38.0425 37.1012 37.8521 37.1786 37.6759C37.256 37.4997 37.3692 37.3415 37.5109 37.2113C37.6526 37.0811 37.8199 36.9817 38.002 36.9195C38.1842 36.8573 38.3772 36.8336 38.569 36.85H40.259C40.606 36.8795 40.9293 37.0382 41.1649 37.2946C41.4005 37.5511 41.5312 37.8867 41.5312 38.235C41.5312 38.5832 41.4005 38.9188 41.1649 39.1753C40.9293 39.4317 40.606 39.5904 40.259 39.62Z" fill="black"/>
<path d="M10.739 39.62H8.31899C7.82834 39.62 7.35779 39.425 7.01085 39.0781C6.6639 38.7312 6.46899 38.2606 6.46899 37.77V29.2C6.46899 28.7093 6.6639 28.2387 7.01085 27.8918C7.35779 27.5449 7.82834 27.35 8.31899 27.35H10.739C11.2296 27.35 11.7002 27.5449 12.0471 27.8918C12.3941 28.2387 12.589 28.7093 12.589 29.2V37.77C12.589 38.2606 12.3941 38.7312 12.0471 39.0781C11.7002 39.425 11.2296 39.62 10.739 39.62ZM9.23899 36.85H9.81899V30.11H9.23899V36.85Z" fill="black"/>
<path d="M18.209 39.62H15.789C15.2983 39.62 14.8278 39.425 14.4808 39.0781C14.1339 38.7312 13.939 38.2606 13.939 37.77V24.45C13.939 23.9593 14.1339 23.4887 14.4808 23.1418C14.8278 22.7949 15.2983 22.6 15.789 22.6H18.209C18.6996 22.6 19.1702 22.7949 19.5171 23.1418C19.8641 23.4887 20.059 23.9593 20.059 24.45V37.77C20.059 38.2606 19.8641 38.7312 19.5171 39.0781C19.1702 39.425 18.6996 39.62 18.209 39.62ZM16.709 36.85H17.289V25.37H16.709V36.85Z" fill="black"/>
<path d="M25.679 39.62H23.259C22.7683 39.62 22.2978 39.425 21.9508 39.0781C21.6039 38.7312 21.409 38.2606 21.409 37.77V19.7C21.409 19.4575 21.4569 19.2174 21.55 18.9935C21.6431 18.7696 21.7795 18.5663 21.9514 18.3953C22.1234 18.2243 22.3274 18.089 22.5518 17.9971C22.7762 17.9053 23.0165 17.8586 23.259 17.86H25.679C25.9215 17.8586 26.1618 17.9053 26.3862 17.9971C26.6106 18.089 26.8146 18.2243 26.9865 18.3953C27.1585 18.5663 27.2949 18.7696 27.388 18.9935C27.4811 19.2174 27.529 19.4575 27.529 19.7V37.77C27.529 38.0129 27.4811 38.2535 27.3882 38.4779C27.2952 38.7024 27.1589 38.9063 26.9871 39.0781C26.8154 39.2499 26.6114 39.3862 26.387 39.4791C26.1625 39.5721 25.9219 39.62 25.679 39.62ZM24.179 36.85H24.759V20.63H24.179V36.85Z" fill="black"/>
<path d="M33.149 39.62H30.729C30.2383 39.62 29.7678 39.425 29.4208 39.0781C29.0739 38.7312 28.879 38.2606 28.879 37.77V14.96C28.879 14.4693 29.0739 13.9987 29.4208 13.6518C29.7678 13.3049 30.2383 13.11 30.729 13.11H33.149C33.6396 13.11 34.1102 13.3049 34.4571 13.6518C34.8041 13.9987 34.999 14.4693 34.999 14.96V37.77C34.999 38.2606 34.8041 38.7312 34.4571 39.0781C34.1102 39.425 33.6396 39.62 33.149 39.62ZM31.649 36.85H32.229V15.85H31.649V36.85Z" fill="black"/>
</svg>
