<svg width="48" height="48" viewBox="0 0 48 48" fill="none" xmlns="http://www.w3.org/2000/svg">
<path d="M11.14 39.63H9.57C8.88839 39.63 8.2347 39.3592 7.75274 38.8773C7.27077 38.3953 7 37.7416 7 37.06C7 36.3784 7.27077 35.7247 7.75274 35.2427C8.2347 34.7608 8.88839 34.49 9.57 34.49H11.14C11.8216 34.49 12.4753 34.7608 12.9573 35.2427C13.4392 35.7247 13.71 36.3784 13.71 37.06C13.71 37.7416 13.4392 38.3953 12.9573 38.8773C12.4753 39.3592 11.8216 39.63 11.14 39.63Z" fill="black"/>
<path d="M18.08 39.63H16.51C15.8284 39.63 15.1747 39.3592 14.6927 38.8773C14.2108 38.3953 13.94 37.7416 13.94 37.06C13.94 36.3784 14.2108 35.7247 14.6927 35.2427C15.1747 34.7608 15.8284 34.49 16.51 34.49H18.08C18.7616 34.49 19.4153 34.7608 19.8973 35.2427C20.3792 35.7247 20.65 36.3784 20.65 37.06C20.65 37.7416 20.3792 38.3953 19.8973 38.8773C19.4153 39.3592 18.7616 39.63 18.08 39.63Z" fill="black"/>
<path d="M25 39.63H23.45C22.7684 39.63 22.1147 39.3592 21.6327 38.8773C21.1508 38.3953 20.88 37.7416 20.88 37.06C20.88 36.3784 21.1508 35.7247 21.6327 35.2427C22.1147 34.7608 22.7684 34.49 23.45 34.49H25C25.6816 34.49 26.3353 34.7608 26.8173 35.2427C27.2992 35.7247 27.57 36.3784 27.57 37.06C27.57 37.7416 27.2992 38.3953 26.8173 38.8773C26.3353 39.3592 25.6816 39.63 25 39.63Z" fill="black"/>
<path d="M32 39.63H30.38C29.6984 39.63 29.0447 39.3592 28.5627 38.8773C28.0808 38.3953 27.81 37.7416 27.81 37.06C27.81 36.3784 28.0808 35.7247 28.5627 35.2427C29.0447 34.7608 29.6984 34.49 30.38 34.49H32C32.6816 34.49 33.3353 34.7608 33.8173 35.2427C34.2992 35.7247 34.57 36.3784 34.57 37.06C34.57 37.7416 34.2992 38.3953 33.8173 38.8773C33.3353 39.3592 32.6816 39.63 32 39.63Z" fill="black"/>
<path d="M38.89 39.63H37.32C36.6384 39.63 35.9847 39.3592 35.5027 38.8773C35.0208 38.3953 34.75 37.7416 34.75 37.06C34.75 36.3784 35.0208 35.7247 35.5027 35.2427C35.9847 34.7608 36.6384 34.49 37.32 34.49H38.89C39.5716 34.49 40.2253 34.7608 40.7073 35.2427C41.1892 35.7247 41.46 36.3784 41.46 37.06C41.46 37.7416 41.1892 38.3953 40.7073 38.8773C40.2253 39.3592 39.5716 39.63 38.89 39.63Z" fill="black"/>
</svg>
