<svg width="48" height="48" viewBox="0 0 48 48" fill="none" xmlns="http://www.w3.org/2000/svg">
<path d="M31.72 34.44H30.15C29.7624 34.443 29.3807 34.5347 29.034 34.7081C28.6874 34.8814 28.385 35.1318 28.15 35.44V19.81C28.15 19.0143 27.8339 18.2513 27.2713 17.6887C26.7087 17.1261 25.9456 16.81 25.15 16.81H22.87C22.0744 16.81 21.3113 17.1261 20.7487 17.6887C20.1861 18.2513 19.87 19.0143 19.87 19.81V21.74C19.3745 21.4027 18.7894 21.2216 18.19 21.22H15.94C15.1444 21.22 14.3813 21.5361 13.8187 22.0987C13.2561 22.6613 12.94 23.4243 12.94 24.22V26.15C12.4417 25.8108 11.8528 25.6296 11.25 25.63H9C8.20435 25.63 7.44129 25.9461 6.87868 26.5087C6.31607 27.0713 6 27.8343 6 28.63V36.63C6 37.4256 6.31607 38.1887 6.87868 38.7513C7.44129 39.3139 8.20435 39.63 9 39.63H11.25C11.7014 39.6267 12.1463 39.5216 12.5515 39.3225C12.9566 39.1234 13.3116 38.8354 13.59 38.48C13.8694 38.8367 14.226 39.1255 14.633 39.3247C15.04 39.5238 15.4869 39.6282 15.94 39.63H18.19C18.6414 39.6267 19.0863 39.5216 19.4915 39.3225C19.8966 39.1234 20.2516 38.8354 20.53 38.48C20.8084 38.8354 21.1634 39.1234 21.5685 39.3225C21.9737 39.5216 22.4186 39.6267 22.87 39.63H25.13C25.6758 39.6257 26.21 39.4725 26.6752 39.1871C27.1404 38.9016 27.5189 38.4946 27.77 38.01C27.9585 38.4875 28.2863 38.8974 28.7107 39.1863C29.1351 39.4752 29.6366 39.6298 30.15 39.63H31.72C32.3752 39.5891 32.9902 39.3001 33.4397 38.8217C33.8892 38.3432 34.1395 37.7115 34.1395 37.055C34.1395 36.3985 33.8892 35.7668 33.4397 35.2883C32.9902 34.8099 32.3752 34.5208 31.72 34.48V34.44Z" fill="black"/>
<path d="M38.66 34.44H37.09C36.4348 34.4808 35.8198 34.7699 35.3703 35.2483C34.9208 35.7268 34.6705 36.3585 34.6705 37.015C34.6705 37.6715 34.9208 38.3032 35.3703 38.7817C35.8198 39.2601 36.4348 39.5491 37.09 39.59H38.66C39.3152 39.5491 39.9302 39.2601 40.3797 38.7817C40.8292 38.3032 41.0795 37.6715 41.0795 37.015C41.0795 36.3585 40.8292 35.7268 40.3797 35.2483C39.9302 34.7699 39.3152 34.4808 38.66 34.44Z" fill="black"/>
</svg>
