<svg width="48" height="48" viewBox="0 0 48 48" fill="none" xmlns="http://www.w3.org/2000/svg">
<path d="M9.76226 39.62H8.07226C7.72525 39.5905 7.40196 39.4318 7.16637 39.1753C6.93078 38.9188 6.80005 38.5833 6.80005 38.235C6.80005 37.8867 6.93078 37.5512 7.16637 37.2947C7.40196 37.0382 7.72525 36.8795 8.07226 36.85H9.76226C9.95403 36.8337 10.1471 36.8574 10.3292 36.9196C10.5114 36.9818 10.6786 37.0811 10.8204 37.2113C10.9621 37.3415 11.0753 37.4997 11.1527 37.676C11.2301 37.8522 11.27 38.0425 11.27 38.235C11.27 38.4275 11.2301 38.6178 11.1527 38.794C11.0753 38.9703 10.9621 39.1285 10.8204 39.2587C10.6786 39.3889 10.5114 39.4882 10.3292 39.5504C10.1471 39.6126 9.95403 39.6363 9.76226 39.62Z" fill="black"/>
<path d="M17.2323 39.62H15.5423C15.1953 39.5905 14.872 39.4318 14.6364 39.1753C14.4008 38.9188 14.27 38.5833 14.27 38.235C14.27 37.8867 14.4008 37.5512 14.6364 37.2947C14.872 37.0382 15.1953 36.8795 15.5423 36.85H17.2323C17.424 36.8337 17.6171 36.8574 17.7992 36.9196C17.9814 36.9818 18.1486 37.0811 18.2904 37.2113C18.4321 37.3415 18.5453 37.4997 18.6227 37.676C18.7001 37.8522 18.74 38.0425 18.74 38.235C18.74 38.4275 18.7001 38.6178 18.6227 38.794C18.5453 38.9703 18.4321 39.1285 18.2904 39.2587C18.1486 39.3889 17.9814 39.4882 17.7992 39.5504C17.6171 39.6126 17.424 39.6363 17.2323 39.62Z" fill="black"/>
<path d="M24.6923 39.62H23.0223C22.8305 39.6363 22.6374 39.6126 22.4553 39.5504C22.2731 39.4882 22.1059 39.3889 21.9642 39.2587C21.8224 39.1285 21.7093 38.9703 21.6318 38.794C21.5544 38.6178 21.5145 38.4275 21.5145 38.235C21.5145 38.0425 21.5544 37.8522 21.6318 37.676C21.7093 37.4997 21.8224 37.3415 21.9642 37.2113C22.1059 37.0811 22.2731 36.9818 22.4553 36.9196C22.6374 36.8574 22.8305 36.8337 23.0223 36.85H24.6923C24.884 36.8337 25.0771 36.8574 25.2592 36.9196C25.4414 36.9818 25.6086 37.0811 25.7504 37.2113C25.8921 37.3415 26.0053 37.4997 26.0827 37.676C26.1601 37.8522 26.2001 38.0425 26.2001 38.235C26.2001 38.4275 26.1601 38.6178 26.0827 38.794C26.0053 38.9703 25.8921 39.1285 25.7504 39.2587C25.6086 39.3889 25.4414 39.4882 25.2592 39.5504C25.0771 39.6126 24.884 39.6363 24.6923 39.62Z" fill="black"/>
<path d="M32.1723 39.62H30.4923C30.3005 39.6363 30.1074 39.6126 29.9253 39.5504C29.7431 39.4882 29.5759 39.3889 29.4342 39.2587C29.2924 39.1285 29.1793 38.9703 29.1018 38.794C29.0244 38.6178 28.9845 38.4275 28.9845 38.235C28.9845 38.0425 29.0244 37.8522 29.1018 37.676C29.1793 37.4997 29.2924 37.3415 29.4342 37.2113C29.5759 37.0811 29.7431 36.9818 29.9253 36.9196C30.1074 36.8574 30.3005 36.8337 30.4923 36.85H32.1723C32.364 36.8337 32.5571 36.8574 32.7392 36.9196C32.9214 36.9818 33.0886 37.0811 33.2304 37.2113C33.3721 37.3415 33.4853 37.4997 33.5627 37.676C33.6401 37.8522 33.68 38.0425 33.68 38.235C33.68 38.4275 33.6401 38.6178 33.5627 38.794C33.4853 38.9703 33.3721 39.1285 33.2304 39.2587C33.0886 39.3889 32.9214 39.4882 32.7392 39.5504C32.5571 39.6126 32.364 39.6363 32.1723 39.62Z" fill="black"/>
<path d="M39.6923 39.62H37.9623C37.7705 39.6363 37.5774 39.6126 37.3953 39.5504C37.2131 39.4882 37.0459 39.3889 36.9042 39.2587C36.7624 39.1285 36.6493 38.9703 36.5718 38.794C36.4944 38.6178 36.4545 38.4275 36.4545 38.235C36.4545 38.0425 36.4944 37.8522 36.5718 37.676C36.6493 37.4997 36.7624 37.3415 36.9042 37.2113C37.0459 37.0811 37.2131 36.9818 37.3953 36.9196C37.5774 36.8574 37.7705 36.8337 37.9623 36.85H39.6923C39.884 36.8337 40.0771 36.8574 40.2592 36.9196C40.4414 36.9818 40.6086 37.0811 40.7504 37.2113C40.8921 37.3415 41.0053 37.4997 41.0827 37.676C41.1601 37.8522 41.2001 38.0425 41.2001 38.235C41.2001 38.4275 41.1601 38.6178 41.0827 38.794C41.0053 38.9703 40.8921 39.1285 40.7504 39.2587C40.6086 39.3889 40.4414 39.4882 40.2592 39.5504C40.0771 39.6126 39.884 39.6363 39.6923 39.62Z" fill="black"/>
</svg>
