<svg width="48" height="48" viewBox="0 0 48 48" fill="none" xmlns="http://www.w3.org/2000/svg">
<path d="M17.839 36.85H16.159C15.9672 36.8337 15.7741 36.8574 15.592 36.9196C15.4099 36.9818 15.2426 37.0811 15.1009 37.2113C14.9591 37.3415 14.846 37.4997 14.7686 37.6759C14.6912 37.8522 14.6512 38.0425 14.6512 38.235C14.6512 38.4275 14.6912 38.6178 14.7686 38.794C14.846 38.9702 14.9591 39.1285 15.1009 39.2587C15.2426 39.3889 15.4099 39.4882 15.592 39.5504C15.7741 39.6126 15.9672 39.6363 16.159 39.62H17.839C18.0308 39.6363 18.2238 39.6126 18.406 39.5504C18.5881 39.4882 18.7554 39.3889 18.8971 39.2587C19.0388 39.1285 19.152 38.9702 19.2294 38.794C19.3068 38.6178 19.3468 38.4275 19.3468 38.235C19.3468 38.0425 19.3068 37.8522 19.2294 37.6759C19.152 37.4997 19.0388 37.3415 18.8971 37.2113C18.7554 37.0811 18.5881 36.9818 18.406 36.9196C18.2238 36.8574 18.0308 36.8337 17.839 36.85Z" fill="black"/>
<path d="M25.309 36.85H23.629C23.4372 36.8337 23.2442 36.8574 23.062 36.9196C22.8799 36.9818 22.7126 37.0811 22.5709 37.2113C22.4291 37.3415 22.316 37.4997 22.2386 37.6759C22.1612 37.8522 22.1212 38.0425 22.1212 38.235C22.1212 38.4275 22.1612 38.6178 22.2386 38.794C22.316 38.9702 22.4291 39.1285 22.5709 39.2587C22.7126 39.3889 22.8799 39.4882 23.062 39.5504C23.2442 39.6126 23.4372 39.6363 23.629 39.62H25.309C25.5008 39.6363 25.6938 39.6126 25.876 39.5504C26.0581 39.4882 26.2254 39.3889 26.3671 39.2587C26.5088 39.1285 26.622 38.9702 26.6994 38.794C26.7768 38.6178 26.8168 38.4275 26.8168 38.235C26.8168 38.0425 26.7768 37.8522 26.6994 37.6759C26.622 37.4997 26.5088 37.3415 26.3671 37.2113C26.2254 37.0811 26.0581 36.9818 25.876 36.9196C25.6938 36.8574 25.5008 36.8337 25.309 36.85Z" fill="black"/>
<path d="M32.779 36.85H31.099C30.9072 36.8337 30.7141 36.8574 30.532 36.9196C30.3499 36.9818 30.1826 37.0811 30.0409 37.2113C29.8991 37.3415 29.786 37.4997 29.7086 37.6759C29.6312 37.8522 29.5912 38.0425 29.5912 38.235C29.5912 38.4275 29.6312 38.6178 29.7086 38.794C29.786 38.9702 29.8991 39.1285 30.0409 39.2587C30.1826 39.3889 30.3499 39.4882 30.532 39.5504C30.7141 39.6126 30.9072 39.6363 31.099 39.62H32.779C32.9708 39.6363 33.1638 39.6126 33.346 39.5504C33.5281 39.4882 33.6954 39.3889 33.8371 39.2587C33.9788 39.1285 34.092 38.9702 34.1694 38.794C34.2468 38.6178 34.2868 38.4275 34.2868 38.235C34.2868 38.0425 34.2468 37.8522 34.1694 37.6759C34.092 37.4997 33.9788 37.3415 33.8371 37.2113C33.6954 37.0811 33.5281 36.9818 33.346 36.9196C33.1638 36.8574 32.9708 36.8337 32.779 36.85Z" fill="black"/>
<path d="M40.259 36.85H38.569C38.3772 36.8337 38.1842 36.8574 38.002 36.9196C37.8199 36.9818 37.6526 37.0811 37.5109 37.2113C37.3692 37.3415 37.256 37.4997 37.1786 37.6759C37.1012 37.8522 37.0612 38.0425 37.0612 38.235C37.0612 38.4275 37.1012 38.6178 37.1786 38.794C37.256 38.9702 37.3692 39.1285 37.5109 39.2587C37.6526 39.3889 37.8199 39.4882 38.002 39.5504C38.1842 39.6126 38.3772 39.6363 38.569 39.62H40.259C40.606 39.5905 40.9293 39.4318 41.1649 39.1753C41.4005 38.9188 41.5312 38.5832 41.5312 38.235C41.5312 37.8867 41.4005 37.5512 41.1649 37.2947C40.9293 37.0382 40.606 36.8795 40.259 36.85Z" fill="black"/>
<path d="M10.739 27.36H8.31899C7.82834 27.36 7.35779 27.5549 7.01085 27.9018C6.6639 28.2488 6.46899 28.7193 6.46899 29.21V37.78C6.46899 38.0225 6.51691 38.2625 6.61001 38.4864C6.7031 38.7103 6.83953 38.9136 7.01145 39.0846C7.18337 39.2556 7.38739 39.3909 7.61179 39.4828C7.83618 39.5747 8.07652 39.6213 8.31899 39.62H10.739C10.9815 39.6213 11.2218 39.5747 11.4462 39.4828C11.6706 39.3909 11.8746 39.2556 12.0465 39.0846C12.2185 38.9136 12.3549 38.7103 12.448 38.4864C12.5411 38.2625 12.589 38.0225 12.589 37.78V29.21C12.589 28.7193 12.3941 28.2488 12.0471 27.9018C11.7002 27.5549 11.2296 27.36 10.739 27.36ZM9.81899 36.85H9.23899V30.13H9.81899V36.85Z" fill="black"/>
</svg>
