<svg width="48" height="48" viewBox="0 0 48 48" fill="none" xmlns="http://www.w3.org/2000/svg">
<path d="M32.7787 39.62H31.0987C30.907 39.6363 30.7139 39.6126 30.5318 39.5504C30.3496 39.4882 30.1824 39.3888 30.0406 39.2586C29.8989 39.1284 29.7857 38.9702 29.7083 38.794C29.6309 38.6178 29.591 38.4274 29.591 38.235C29.591 38.0425 29.6309 37.8521 29.7083 37.6759C29.7857 37.4997 29.8989 37.3415 30.0406 37.2113C30.1824 37.0811 30.3496 36.9817 30.5318 36.9195C30.7139 36.8573 30.907 36.8336 31.0987 36.85H32.7787C32.9705 36.8336 33.1636 36.8573 33.3457 36.9195C33.5279 36.9817 33.6951 37.0811 33.8369 37.2113C33.9786 37.3415 34.0918 37.4997 34.1692 37.6759C34.2466 37.8521 34.2865 38.0425 34.2865 38.235C34.2865 38.4274 34.2466 38.6178 34.1692 38.794C34.0918 38.9702 33.9786 39.1284 33.8369 39.2586C33.6951 39.3888 33.5279 39.4882 33.3457 39.5504C33.1636 39.6126 32.9705 39.6363 32.7787 39.62Z" fill="black"/>
<path d="M40.2588 39.62H38.5687C38.377 39.6363 38.1839 39.6126 38.0018 39.5504C37.8196 39.4882 37.6524 39.3888 37.5106 39.2586C37.3689 39.1284 37.2557 38.9702 37.1783 38.794C37.1009 38.6178 37.061 38.4274 37.061 38.235C37.061 38.0425 37.1009 37.8521 37.1783 37.6759C37.2557 37.4997 37.3689 37.3415 37.5106 37.2113C37.6524 37.0811 37.8196 36.9817 38.0018 36.9195C38.1839 36.8573 38.377 36.8336 38.5687 36.85H40.2588C40.6058 36.8795 40.929 37.0382 41.1646 37.2946C41.4002 37.5511 41.531 37.8867 41.531 38.235C41.531 38.5832 41.4002 38.9188 41.1646 39.1753C40.929 39.4317 40.6058 39.5904 40.2588 39.62Z" fill="black"/>
<path d="M10.7387 39.62H8.31875C7.8281 39.62 7.35754 39.425 7.0106 39.0781C6.66366 38.7312 6.46875 38.2606 6.46875 37.77V29.2C6.46875 28.7093 6.66366 28.2387 7.0106 27.8918C7.35754 27.5449 7.8281 27.35 8.31875 27.35H10.7387C11.2294 27.35 11.7 27.5449 12.0469 27.8918C12.3938 28.2387 12.5887 28.7093 12.5887 29.2V37.77C12.5887 38.2606 12.3938 38.7312 12.0469 39.0781C11.7 39.425 11.2294 39.62 10.7387 39.62ZM9.23875 36.86H9.81875V30.12H9.23875V36.86Z" fill="black"/>
<path d="M18.2087 39.62H15.7887C15.2981 39.62 14.8275 39.425 14.4806 39.0781C14.1337 38.7312 13.9387 38.2606 13.9387 37.77V24.45C13.9414 23.961 14.1375 23.493 14.4841 23.1483C14.8308 22.8035 15.2998 22.6099 15.7887 22.61H18.2087C18.6977 22.6099 19.1667 22.8035 19.5134 23.1483C19.86 23.493 20.0561 23.961 20.0588 24.45V37.77C20.0588 38.2606 19.8638 38.7312 19.5169 39.0781C19.17 39.425 18.6994 39.62 18.2087 39.62ZM16.7087 36.86H17.2887V25.38H16.7087V36.86Z" fill="black"/>
<path d="M25.6787 39.62H23.2588C22.7681 39.62 22.2975 39.425 21.9506 39.0781C21.6037 38.7312 21.4087 38.2606 21.4087 37.77V19.71C21.4087 19.2193 21.6037 18.7487 21.9506 18.4018C22.2975 18.0549 22.7681 17.86 23.2588 17.86H25.6787C25.9217 17.86 26.1623 17.9078 26.3867 18.0008C26.6112 18.0937 26.8151 18.23 26.9869 18.4018C27.1587 18.5736 27.295 18.7775 27.3879 19.002C27.4809 19.2264 27.5287 19.467 27.5287 19.71V37.77C27.5287 38.0129 27.4809 38.2535 27.3879 38.4779C27.295 38.7024 27.1587 38.9063 26.9869 39.0781C26.8151 39.2499 26.6112 39.3862 26.3867 39.4791C26.1623 39.5721 25.9217 39.62 25.6787 39.62ZM24.1787 36.86H24.7588V20.63H24.1787V36.86Z" fill="black"/>
</svg>
