<svg width="48" height="48" viewBox="0 0 48 48" fill="none" xmlns="http://www.w3.org/2000/svg">
<path d="M25.309 39.6199H23.629C23.4372 39.6362 23.2442 39.6126 23.062 39.5504C22.8799 39.4882 22.7126 39.3888 22.5709 39.2586C22.4291 39.1284 22.316 38.9702 22.2386 38.794C22.1612 38.6178 22.1212 38.4274 22.1212 38.2349C22.1212 38.0425 22.1612 37.8521 22.2386 37.6759C22.316 37.4997 22.4291 37.3415 22.5709 37.2113C22.7126 37.0811 22.8799 36.9817 23.062 36.9195C23.2442 36.8573 23.4372 36.8336 23.629 36.8499H25.309C25.5008 36.8336 25.6938 36.8573 25.876 36.9195C26.0581 36.9817 26.2254 37.0811 26.3671 37.2113C26.5088 37.3415 26.622 37.4997 26.6994 37.6759C26.7768 37.8521 26.8168 38.0425 26.8168 38.2349C26.8168 38.4274 26.7768 38.6178 26.6994 38.794C26.622 38.9702 26.5088 39.1284 26.3671 39.2586C26.2254 39.3888 26.0581 39.4882 25.876 39.5504C25.6938 39.6126 25.5008 39.6362 25.309 39.6199Z" fill="black"/>
<path d="M32.779 39.6199H31.099C30.9072 39.6362 30.7141 39.6126 30.532 39.5504C30.3499 39.4882 30.1826 39.3888 30.0409 39.2586C29.8991 39.1284 29.786 38.9702 29.7086 38.794C29.6312 38.6178 29.5912 38.4274 29.5912 38.2349C29.5912 38.0425 29.6312 37.8521 29.7086 37.6759C29.786 37.4997 29.8991 37.3415 30.0409 37.2113C30.1826 37.0811 30.3499 36.9817 30.532 36.9195C30.7141 36.8573 30.9072 36.8336 31.099 36.8499H32.779C32.9708 36.8336 33.1638 36.8573 33.346 36.9195C33.5281 36.9817 33.6954 37.0811 33.8371 37.2113C33.9788 37.3415 34.092 37.4997 34.1694 37.6759C34.2468 37.8521 34.2868 38.0425 34.2868 38.2349C34.2868 38.4274 34.2468 38.6178 34.1694 38.794C34.092 38.9702 33.9788 39.1284 33.8371 39.2586C33.6954 39.3888 33.5281 39.4882 33.346 39.5504C33.1638 39.6126 32.9708 39.6362 32.779 39.6199Z" fill="black"/>
<path d="M40.259 39.6199H38.569C38.3772 39.6362 38.1842 39.6126 38.002 39.5504C37.8199 39.4882 37.6526 39.3888 37.5109 39.2586C37.3692 39.1284 37.256 38.9702 37.1786 38.794C37.1012 38.6178 37.0612 38.4274 37.0612 38.2349C37.0612 38.0425 37.1012 37.8521 37.1786 37.6759C37.256 37.4997 37.3692 37.3415 37.5109 37.2113C37.6526 37.0811 37.8199 36.9817 38.002 36.9195C38.1842 36.8573 38.3772 36.8336 38.569 36.8499H40.259C40.606 36.8794 40.9293 37.0381 41.1649 37.2946C41.4005 37.5511 41.5312 37.8867 41.5312 38.2349C41.5312 38.5832 41.4005 38.9188 41.1649 39.1752C40.9293 39.4317 40.606 39.5904 40.259 39.6199Z" fill="black"/>
<path d="M10.739 39.6199H8.31899C7.83007 39.6199 7.36103 39.4264 7.01437 39.0816C6.66771 38.7368 6.47164 38.2688 6.46899 37.7799V29.2099C6.47164 28.721 6.66771 28.253 7.01437 27.9082C7.36103 27.5635 7.83007 27.3699 8.31899 27.3699H10.739C11.2279 27.3699 11.697 27.5635 12.0436 27.9082C12.3903 28.253 12.5864 28.721 12.589 29.2099V37.7799C12.5864 38.2688 12.3903 38.7368 12.0436 39.0816C11.697 39.4264 11.2279 39.6199 10.739 39.6199ZM9.23899 36.8499H9.81899V30.1399H9.23899V36.8499Z" fill="black"/>
<path d="M18.209 39.6199H15.789C15.2983 39.6199 14.8278 39.425 14.4808 39.0781C14.1339 38.7311 13.939 38.2606 13.939 37.7699V24.4699C13.939 23.9793 14.1339 23.5087 14.4808 23.1618C14.8278 22.8148 15.2983 22.6199 15.789 22.6199H18.209C18.6996 22.6199 19.1702 22.8148 19.5171 23.1618C19.8641 23.5087 20.059 23.9793 20.059 24.4699V37.7799C20.0564 38.2688 19.8603 38.7368 19.5136 39.0816C19.167 39.4264 18.6979 39.6199 18.209 39.6199ZM16.709 36.8499H17.289V25.3899H16.709V36.8499Z" fill="black"/>
</svg>
