<svg width="48" height="48" viewBox="0 0 48 48" fill="none" xmlns="http://www.w3.org/2000/svg">
<path d="M39 8H36.75C35.9544 8 35.1913 8.31607 34.6287 8.87868C34.0661 9.44129 33.75 10.2044 33.75 11V12.93C33.2517 12.5908 32.6628 12.4096 32.06 12.41H29.81C29.0144 12.41 28.2513 12.7261 27.6887 13.2887C27.1261 13.8513 26.81 14.6144 26.81 15.41V17.34C26.3145 17.0027 25.7294 16.8216 25.13 16.82H22.87C22.0744 16.82 21.3113 17.1361 20.7487 17.6987C20.1861 18.2613 19.87 19.0244 19.87 19.82V21.74C19.3745 21.4027 18.7894 21.2216 18.19 21.22H15.94C15.1444 21.22 14.3813 21.5361 13.8187 22.0987C13.2561 22.6613 12.94 23.4243 12.94 24.22V26.15C12.4417 25.8108 11.8528 25.6296 11.25 25.63H9C8.20435 25.63 7.44129 25.9461 6.87868 26.5087C6.31607 27.0713 6 27.8344 6 28.63V36.63C6 37.4256 6.31607 38.1887 6.87868 38.7513C7.44129 39.3139 8.20435 39.63 9 39.63H11.25C11.7014 39.6267 12.1463 39.5216 12.5515 39.3225C12.9566 39.1234 13.3116 38.8354 13.59 38.48C13.8694 38.8367 14.226 39.1255 14.633 39.3247C15.04 39.5238 15.4869 39.6282 15.94 39.63H18.19C18.6414 39.6267 19.0863 39.5216 19.4915 39.3225C19.8966 39.1234 20.2516 38.8354 20.53 38.48C20.8084 38.8354 21.1634 39.1234 21.5685 39.3225C21.9737 39.5216 22.4186 39.6267 22.87 39.63H25.13C25.5814 39.6267 26.0263 39.5216 26.4315 39.3225C26.8366 39.1234 27.1916 38.8354 27.47 38.48C27.7484 38.8354 28.1034 39.1234 28.5085 39.3225C28.9137 39.5216 29.3586 39.6267 29.81 39.63H32.06C32.5114 39.6267 32.9563 39.5216 33.3615 39.3225C33.7666 39.1234 34.1216 38.8354 34.4 38.48C34.6794 38.8367 35.036 39.1255 35.443 39.3247C35.85 39.5238 36.2969 39.6282 36.75 39.63H39C39.7957 39.63 40.5587 39.3139 41.1213 38.7513C41.6839 38.1887 42 37.4256 42 36.63V11C42 10.2044 41.6839 9.44129 41.1213 8.87868C40.5587 8.31607 39.7957 8 39 8V8Z" fill="black"/>
</svg>
