<svg width="48" height="48" viewBox="0 0 48 48" fill="none" xmlns="http://www.w3.org/2000/svg">
<path d="M38.66 34.41H37.09C36.7027 34.4145 36.3215 34.5069 35.975 34.6801C35.6286 34.8533 35.326 35.1029 35.09 35.41V15.41C35.09 14.6144 34.7739 13.8513 34.2113 13.2887C33.6487 12.7261 32.8856 12.41 32.09 12.41H29.81C29.0144 12.41 28.2513 12.7261 27.6887 13.2887C27.1261 13.8513 26.81 14.6144 26.81 15.41V17.34C26.3145 17.0027 25.7294 16.8216 25.13 16.82H22.87C22.0744 16.82 21.3113 17.1361 20.7487 17.6987C20.1861 18.2613 19.87 19.0244 19.87 19.82V21.75C19.3745 21.4127 18.7894 21.2316 18.19 21.23H15.94C15.1444 21.23 14.3813 21.5461 13.8187 22.1087C13.2561 22.6713 12.94 23.4344 12.94 24.23V26.15C12.4417 25.8108 11.8528 25.6296 11.25 25.63H9C8.20435 25.63 7.44129 25.9461 6.87868 26.5087C6.31607 27.0713 6 27.8344 6 28.63V36.63C6 37.4257 6.31607 38.1887 6.87868 38.7513C7.44129 39.3139 8.20435 39.63 9 39.63H11.25C11.7072 39.6185 12.1558 39.5026 12.5613 39.2911C12.9669 39.0797 13.3188 38.7783 13.59 38.41C13.8694 38.7667 14.226 39.0555 14.633 39.2547C15.04 39.4538 15.4869 39.5582 15.94 39.56H18.19C18.6414 39.5567 19.0863 39.4516 19.4915 39.2525C19.8966 39.0534 20.2516 38.7654 20.53 38.41C20.8084 38.7654 21.1634 39.0534 21.5685 39.2525C21.9737 39.4516 22.4186 39.5567 22.87 39.56H25.13C25.5814 39.5567 26.0263 39.4516 26.4315 39.2525C26.8366 39.0534 27.1916 38.7654 27.47 38.41C27.7484 38.7654 28.1034 39.0534 28.5085 39.2525C28.9137 39.4516 29.3586 39.5567 29.81 39.56H32.06C32.6065 39.5584 33.1421 39.4077 33.6091 39.1239C34.0762 38.8402 34.4568 38.4343 34.71 37.95C34.9012 38.4249 35.2299 38.8318 35.654 39.1187C36.078 39.4055 36.5781 39.5592 37.09 39.56H38.66C39.3416 39.56 39.9953 39.2892 40.4773 38.8073C40.9592 38.3253 41.23 37.6716 41.23 36.99C41.23 36.3084 40.9592 35.6547 40.4773 35.1727C39.9953 34.6908 39.3416 34.42 38.66 34.42V34.41Z" fill="black"/>
</svg>
