<svg width="48" height="48" viewBox="0 0 48 48" fill="none" xmlns="http://www.w3.org/2000/svg">
<path fill-rule="evenodd" clip-rule="evenodd" d="M6.1426 19.6251L13.4859 9.09029C13.5614 8.98465 13.6583 8.89616 13.7704 8.83064C13.8825 8.76512 14.0071 8.72405 14.1362 8.71012L23.8906 7.61963H24.0907L33.8451 8.70012C33.9742 8.71404 34.0989 8.75511 34.211 8.82063C34.323 8.88615 34.42 8.97464 34.4954 9.08029L41.8388 19.6251C41.9548 19.7943 42.0109 19.9975 41.9982 20.2024C41.9855 20.4072 41.9048 20.6019 41.7687 20.7556L24.5009 40.1243C24.4424 40.1988 24.3687 40.26 24.2848 40.3039C24.2009 40.3478 24.1087 40.3734 24.0142 40.3791C23.9196 40.3848 23.825 40.3703 23.7364 40.3368C23.6479 40.3032 23.5675 40.2513 23.5005 40.1844L23.4404 40.1243L6.21263 20.7056C6.08827 20.556 6.01451 20.3708 6.00193 20.1767C5.98935 19.9826 6.03859 19.7895 6.1426 19.6251ZM25.6814 10.2608L33.2949 17.0239C33.3368 17.0662 33.3866 17.0999 33.4416 17.1228C33.4965 17.1457 33.5555 17.1576 33.615 17.1576C33.6746 17.1576 33.7335 17.1457 33.7885 17.1228C33.8435 17.0999 33.8933 17.0662 33.9352 17.0239C33.9875 16.973 34.0252 16.9091 34.0446 16.8387C34.0639 16.7684 34.0641 16.6942 34.0452 16.6237L33.3649 12.5519C33.3563 12.4923 33.3713 12.4316 33.4068 12.383C33.4424 12.3344 33.4956 12.3016 33.555 12.2917C33.6027 12.2825 33.6521 12.2892 33.6955 12.3109C33.7389 12.3326 33.7739 12.3681 33.7951 12.4118L36.3763 17.5641C36.4867 17.7849 36.6657 17.964 36.8865 18.0744L40.238 19.7551C40.2655 19.767 40.2903 19.7843 40.3109 19.806C40.3314 19.8277 40.3473 19.8534 40.3576 19.8815C40.3679 19.9096 40.3724 19.9395 40.3708 19.9694C40.3691 19.9992 40.3614 20.0285 40.3481 20.0553C40.3291 20.0947 40.2992 20.1278 40.262 20.1509C40.2248 20.1739 40.1818 20.1859 40.138 20.1853H37.1366C36.952 20.1856 36.7702 20.2303 36.6066 20.3156C36.4429 20.4009 36.3021 20.5244 36.1962 20.6755L25.8515 35.7123C25.8345 35.7373 25.8126 35.7587 25.7873 35.7753C25.762 35.7918 25.7336 35.8032 25.7039 35.8088C25.6742 35.8143 25.6436 35.814 25.614 35.8077C25.5844 35.8015 25.5563 35.7895 25.5314 35.7724C25.4871 35.7402 25.4558 35.6934 25.4429 35.6402C25.4301 35.587 25.4366 35.531 25.4613 35.4822L32.6246 21.1558C32.7046 20.9924 32.7168 20.8041 32.6588 20.6318C32.6007 20.4594 32.477 20.317 32.3144 20.2353C32.2217 20.1875 32.1186 20.1635 32.0143 20.1653H15.9871C15.8074 20.1679 15.6359 20.2404 15.5089 20.3674C15.3818 20.4945 15.3093 20.666 15.3067 20.8456C15.3036 20.9532 15.3277 21.0599 15.3768 21.1558L22.54 35.4822C22.5539 35.5092 22.5623 35.5386 22.5647 35.5687C22.5672 35.5989 22.5637 35.6293 22.5544 35.6581C22.5451 35.6869 22.5302 35.7136 22.5105 35.7366C22.4909 35.7597 22.4669 35.7786 22.44 35.7924C22.3905 35.8184 22.333 35.8246 22.2791 35.8097C22.2252 35.7948 22.179 35.76 22.1498 35.7123L11.7751 20.6255C11.6692 20.4744 11.5285 20.3509 11.3648 20.2656C11.2011 20.1803 11.0193 20.1356 10.8347 20.1353H7.83336C7.77233 20.1353 7.71381 20.1111 7.67065 20.0679C7.6275 20.0247 7.60326 19.9662 7.60326 19.9052C7.60457 19.8631 7.61739 19.8222 7.64032 19.787C7.66325 19.7517 7.69542 19.7234 7.73332 19.7051L11.0848 18.0243C11.3056 17.914 11.4847 17.7349 11.5951 17.5141L14.1862 12.3918C14.199 12.3652 14.217 12.3414 14.2391 12.3219C14.2613 12.3024 14.2871 12.2875 14.3151 12.2781C14.3431 12.2688 14.3727 12.2652 14.4021 12.2675C14.4315 12.2699 14.4602 12.2781 14.4864 12.2917C14.5299 12.3138 14.5656 12.3486 14.5889 12.3915C14.6121 12.4344 14.6217 12.4834 14.6164 12.5319L13.9861 16.6237C13.9657 16.743 13.9931 16.8656 14.0624 16.9648C14.1317 17.064 14.2373 17.132 14.3563 17.1539C14.4791 17.1554 14.5976 17.1087 14.6865 17.0239L22.2999 10.2608C22.3428 10.2193 22.4002 10.196 22.46 10.196C22.5197 10.196 22.5771 10.2193 22.6201 10.2608C22.6534 10.3018 22.6715 10.3531 22.6715 10.4059C22.6715 10.4587 22.6534 10.5099 22.6201 10.551L17.6878 17.1539C17.6513 17.2022 17.6249 17.2572 17.6101 17.3159C17.5953 17.3745 17.5925 17.4356 17.6018 17.4953C17.6112 17.5551 17.6325 17.6124 17.6644 17.6637C17.6964 17.7151 17.7384 17.7595 17.7879 17.7942C17.8647 17.8548 17.9602 17.8866 18.058 17.8843H29.9234C30.0446 17.8817 30.1602 17.8324 30.246 17.7467C30.3317 17.6609 30.381 17.5453 30.3836 17.4241C30.3798 17.3273 30.3486 17.2336 30.2935 17.1539L25.3513 10.621C25.3323 10.5972 25.3185 10.5697 25.3107 10.5402C25.3029 10.5108 25.3013 10.48 25.306 10.4499C25.3107 10.4198 25.3216 10.3911 25.338 10.3654C25.3544 10.3397 25.376 10.3177 25.4013 10.3008C25.4346 10.2605 25.4818 10.234 25.5336 10.2266C25.5854 10.2192 25.6382 10.2314 25.6814 10.2608Z" fill="black"/>
</svg>
