<svg width="48" height="48" viewBox="0 0 48 48" fill="none" xmlns="http://www.w3.org/2000/svg">
<path fill-rule="evenodd" clip-rule="evenodd" d="M10.2785 7.83058C11.8463 6.73542 13.6917 6.10551 15.6021 6.01347C17.5125 5.92143 19.41 6.37102 21.0758 7.3104C25.0483 6.6278 29.1341 7.37743 32.6052 9.42569C36.0762 11.4739 38.707 14.6877 40.0287 18.4943C40.9512 21.2127 41.1782 24.1187 40.6892 26.9473C41.7759 28.8648 42.2044 31.0854 41.909 33.2694C41.6135 35.4533 40.6105 37.4804 39.0533 39.0405C37.4962 40.6006 35.4706 41.6077 33.2866 41.9078C31.1025 42.2079 28.8803 41.7844 26.9598 40.7022C24.2762 41.1723 21.5188 40.9893 18.921 40.1686C16.3231 39.348 13.9612 37.9137 12.0352 35.9874C10.1092 34.061 8.67575 31.6992 7.85612 29.1017C7.03649 26.5043 6.85482 23.7477 7.3265 21.0653C6.08245 18.8877 5.69557 16.3246 6.2415 13.8771C6.78743 11.4295 8.22691 9.27351 10.2785 7.83058ZM18.4641 9.001C17.3372 8.62347 16.1366 8.51925 14.9615 8.69693C13.7864 8.87462 12.6704 9.32911 11.7056 10.0229C10.7408 10.7167 9.95492 11.6299 9.41273 12.6872C8.87055 13.7444 8.58764 14.9154 8.58735 16.1035C8.61442 17.7069 9.1082 19.2677 10.0083 20.5951C9.41429 23.1772 9.52139 25.871 10.3185 28.3978C10.9827 30.4367 12.0923 32.3024 13.5669 33.8595C15.0415 35.4167 16.8442 36.6264 18.8443 37.401C21.5795 38.4363 24.5602 38.6382 27.4101 37.9812C28.2147 38.5052 29.0911 38.9095 30.0119 39.1816C31.1988 39.4971 32.4449 39.5165 33.6411 39.2382C34.8372 38.96 35.9467 38.3926 36.8724 37.5857C37.798 36.7789 38.5114 35.7573 38.9501 34.6106C39.3887 33.4639 39.5392 32.2271 39.3883 31.0088C39.2084 29.7251 38.7434 28.498 38.0273 27.4175C38.6284 24.7934 38.5074 22.0556 37.6771 19.4947C36.9724 17.4189 35.8056 15.5301 34.2646 13.9706C32.7236 12.411 30.8487 11.2215 28.7811 10.4915C26.1565 9.5615 23.3225 9.39158 20.6055 10.0013C19.9299 9.59154 19.2119 9.25613 18.4641 9.001ZM29.0212 14.9331C30.0224 15.4127 30.8356 16.2115 31.3328 17.2039C31.4992 17.54 31.5677 17.9162 31.5306 18.2894C31.4934 18.6626 31.3521 19.0179 31.1227 19.3146C30.8243 19.6018 30.4536 19.8027 30.0501 19.8961C29.6466 19.9894 29.2253 19.9717 28.8311 19.8448C27.9405 19.4647 27.4902 18.5244 26.7297 17.9742C25.7374 17.2429 24.5172 16.8883 23.2873 16.9738C22.3834 16.9549 21.504 17.2681 20.8157 17.8541C20.4996 18.1688 20.3035 18.584 20.2615 19.028C20.2194 19.472 20.3341 19.9166 20.5855 20.285C21.1843 20.8494 21.936 21.2251 22.747 21.3654C24.228 21.7355 25.749 22.0356 27.2 22.3657C28.7855 22.6505 30.2318 23.4526 31.3128 24.6465C32.152 25.8123 32.5322 27.2462 32.3809 28.6745C32.2295 30.1027 31.5571 31.4252 30.4922 32.3892C28.6565 33.8053 26.3732 34.5152 24.0579 34.39C21.5869 34.4963 19.1582 33.7236 17.2032 32.2092C16.6925 31.8129 16.2925 31.2918 16.0419 30.696C15.7912 30.1003 15.6984 29.45 15.7722 28.808C15.8697 28.5073 16.0371 28.234 16.2606 28.0105C16.4841 27.787 16.7573 27.6196 17.058 27.522C17.3587 27.4244 17.6783 27.3994 17.9905 27.449C18.3027 27.4987 18.5988 27.6216 18.8543 27.8076C19.6148 28.4279 20.0351 29.3582 20.7756 29.9984C21.6686 30.7837 22.8295 31.1955 24.0178 31.1488C24.6014 31.1844 25.186 31.0958 25.7328 30.8889C26.2796 30.682 26.7763 30.3614 27.19 29.9484C27.4774 29.6566 27.6747 29.2882 27.7581 28.8872C27.8415 28.4862 27.8075 28.0698 27.6603 27.6876C27.4894 27.3537 27.2447 27.0631 26.9448 26.8377C26.6448 26.6124 26.2975 26.4583 25.9291 26.3871C24.6383 26.047 23.3274 25.7369 22.0265 25.3868C20.5643 25.1368 19.1603 24.6215 17.8837 23.8662C16.9255 23.2277 16.2541 22.2408 16.0124 21.1153C15.7787 20.2202 15.764 19.2821 15.9695 18.3801C16.175 17.4782 16.5947 16.639 17.1932 15.9334C18.4441 14.6987 20.078 13.9261 21.8263 13.7427C24.2903 13.3536 26.8141 13.7712 29.0212 14.9331Z" fill="black"/>
</svg>
