<svg width="48" height="48" viewBox="0 0 48 48" fill="none" xmlns="http://www.w3.org/2000/svg">
<path fill-rule="evenodd" clip-rule="evenodd" d="M7.73 24.33C7.87005 24.33 8.00871 24.3577 8.13797 24.4116C8.26723 24.4655 8.38453 24.5445 8.48309 24.644C8.58165 24.7435 8.65952 24.8615 8.7122 24.9913C8.76488 25.121 8.79132 25.26 8.79 25.4V28.06C8.79 28.3411 8.67832 28.6107 8.47953 28.8095C8.28074 29.0083 8.01113 29.12 7.73 29.12C7.44887 29.12 7.17926 29.0083 6.98047 28.8095C6.78168 28.6107 6.67 28.3411 6.67 28.06V25.4C6.66868 25.26 6.69512 25.121 6.7478 24.9913C6.80048 24.8615 6.87835 24.7435 6.97691 24.644C7.07547 24.5445 7.19277 24.4655 7.32203 24.4116C7.45129 24.3577 7.58995 24.33 7.73 24.33ZM10.4 27C10.6121 27 10.8193 27.063 10.9955 27.181C11.1717 27.2991 11.3088 27.4668 11.3895 27.6629C11.4702 27.859 11.4908 28.0746 11.4486 28.2825C11.4065 28.4903 11.3036 28.6809 11.153 28.8301C11.0024 28.9794 10.8108 29.0805 10.6025 29.1206C10.3943 29.1608 10.1789 29.1382 9.98355 29.0557C9.78822 28.9731 9.62181 28.8344 9.50545 28.6572C9.38908 28.4799 9.32802 28.272 9.33 28.06V27H10.4ZM27.51 21.66C27.8279 21.6473 28.1445 21.7074 28.4356 21.8357C28.7267 21.9639 28.9848 22.1569 29.19 22.4V22.47V21.78H31V27.58H29.23V26.9C29.0319 27.1653 28.7711 27.3773 28.4709 27.5169C28.1707 27.6565 27.8405 27.7194 27.51 27.7C26.7547 27.6586 26.0466 27.3198 25.5405 26.7575C25.0345 26.1953 24.7718 25.4555 24.81 24.7C24.7843 24.3224 24.8341 23.9434 24.9564 23.5852C25.0787 23.227 25.2712 22.8968 25.5225 22.6138C25.7739 22.3308 26.0791 22.1007 26.4203 21.937C26.7615 21.7732 27.132 21.679 27.51 21.66ZM19.29 21.66C20.0761 21.6309 20.8497 21.863 21.49 22.32L21 23.5C20.4556 23.1485 19.8274 22.9483 19.18 22.92C18.75 22.92 18.47 23.13 18.47 23.38C18.47 24.22 21.62 23.76 21.66 25.81C21.66 26.92 20.66 27.7 19.36 27.7C18.4549 27.7364 17.5607 27.4919 16.8 27L17.3 25.84C17.8839 26.2528 18.5851 26.4667 19.3 26.45C19.83 26.45 20.16 26.25 20.16 25.94C20.16 25.09 17.02 25.76 17 23.62C17.0162 23.339 17.089 23.0641 17.214 22.8119C17.339 22.5597 17.5137 22.3353 17.7275 22.1522C17.9414 21.9692 18.19 21.8312 18.4585 21.7467C18.727 21.6621 19.0098 21.6326 19.29 21.66ZM34.71 21.66C35.2297 21.6591 35.7407 21.7931 36.1929 22.0491C36.6452 22.305 37.0232 22.674 37.29 23.12L37.34 23.21L36 24C35.8722 23.7787 35.6886 23.5948 35.4675 23.4667C35.2464 23.3386 34.9955 23.2708 34.74 23.27C34.4902 23.2699 34.2447 23.3348 34.0275 23.4584C33.8104 23.5819 33.6291 23.7598 33.5015 23.9745C33.3739 24.1893 33.3044 24.4336 33.2998 24.6834C33.2952 24.9331 33.3556 25.1798 33.4752 25.3991C33.5947 25.6185 33.7693 25.803 33.9817 25.9344C34.1941 26.0659 34.4371 26.1399 34.6867 26.149C34.9364 26.1582 35.1841 26.1023 35.4056 25.9867C35.6271 25.8712 35.8147 25.7 35.95 25.49V25.42L37.32 26.19C37.0573 26.6449 36.6799 27.0228 36.2253 27.286C35.7708 27.5492 35.2551 27.6884 34.7299 27.6898C34.2046 27.6912 33.6882 27.5546 33.2323 27.2938C32.7764 27.033 32.397 26.6571 32.1319 26.2036C31.8669 25.7501 31.7256 25.235 31.7221 24.7098C31.7186 24.1845 31.8531 23.6676 32.112 23.2106C32.371 22.7537 32.7454 22.3727 33.1978 22.1059C33.6502 21.839 34.1648 21.6956 34.69 21.69L34.71 21.66ZM24.1 19.15V27.59H22.38V19.15H24.1ZM39.75 19.15V24.15L41.75 21.82H43.86L41.4 24.58L44 27.58H41.79L39.79 25.05V27.59H38V19.15H39.75ZM13.07 24.33C13.3347 24.3557 13.5803 24.479 13.759 24.6759C13.9377 24.8727 14.0367 25.1291 14.0367 25.395C14.0367 25.6609 13.9377 25.9173 13.759 26.1141C13.5803 26.311 13.3347 26.4343 13.07 26.46H10.4C10.2515 26.4744 10.1016 26.4576 9.95993 26.4106C9.81828 26.3637 9.68803 26.2876 9.57753 26.1873C9.46704 26.087 9.37874 25.9647 9.31832 25.8283C9.25789 25.6918 9.22668 25.5442 9.22668 25.395C9.22668 25.2458 9.25789 25.0982 9.31832 24.9617C9.37874 24.8253 9.46704 24.703 9.57753 24.6027C9.68803 24.5024 9.81828 24.4263 9.95993 24.3794C10.1016 24.3324 10.2515 24.3156 10.4 24.33H13.07ZM6.14 24.33V25.4C6.14001 25.54 6.11226 25.6787 6.05837 25.808C6.00447 25.9372 5.9255 26.0545 5.82601 26.1531C5.72651 26.2517 5.60848 26.3295 5.47872 26.3822C5.34895 26.4349 5.21004 26.4613 5.07 26.46C4.80535 26.4343 4.55974 26.311 4.38103 26.1141C4.20232 25.9173 4.10332 25.6609 4.10332 25.395C4.10332 25.1291 4.20232 24.8727 4.38103 24.6759C4.55974 24.479 4.80535 24.3557 5.07 24.33H6.14ZM27.88 23.24C27.4981 23.24 27.1318 23.3917 26.8618 23.6618C26.5917 23.9318 26.44 24.2981 26.44 24.68C26.44 25.0619 26.5917 25.4282 26.8618 25.6982C27.1318 25.9683 27.4981 26.12 27.88 26.12C28.1343 26.1236 28.3858 26.0665 28.6136 25.9534C28.8414 25.8404 29.039 25.6747 29.19 25.47V24C29.0514 23.775 28.8592 23.5878 28.6306 23.4552C28.402 23.3226 28.1441 23.2486 27.88 23.24ZM7.73 21.67C8.01113 21.67 8.28074 21.7817 8.47953 21.9805C8.67832 22.1793 8.79 22.4489 8.79 22.73C8.79 23.0111 8.67832 23.2807 8.47953 23.4795C8.28074 23.6783 8.01113 23.79 7.73 23.79H5.06C4.77887 23.79 4.50926 23.6783 4.31047 23.4795C4.11168 23.2807 4 23.0111 4 22.73C4 22.4489 4.11168 22.1793 4.31047 21.9805C4.50926 21.7817 4.77887 21.67 5.06 21.67H7.73ZM13.06 21.67C13.3411 21.67 13.6107 21.7817 13.8095 21.9805C14.0083 22.1793 14.12 22.4489 14.12 22.73C14.12 23.0111 14.0083 23.2807 13.8095 23.4795C13.6107 23.6783 13.3411 23.79 13.06 23.79H12V22.73C12 22.4489 12.1117 22.1793 12.3105 21.9805C12.5093 21.7817 12.7789 21.67 13.06 21.67ZM10.4 19C10.6811 19 10.9507 19.1117 11.1495 19.3105C11.3483 19.5093 11.46 19.7789 11.46 20.06V22.73C11.4343 22.9947 11.311 23.2403 11.1141 23.419C10.9173 23.5977 10.6609 23.6967 10.395 23.6967C10.1291 23.6967 9.87274 23.5977 9.67585 23.419C9.47897 23.2403 9.35567 22.9947 9.33 22.73V20.06C9.33264 19.778 9.44653 19.5084 9.64691 19.3099C9.84729 19.1113 10.1179 19 10.4 19ZM7.73 19C8.01113 19 8.28074 19.1117 8.47953 19.3105C8.67832 19.5093 8.79 19.7789 8.79 20.06V21.13H7.73C7.46535 21.1043 7.21974 20.981 7.04103 20.7841C6.86232 20.5873 6.76332 20.3309 6.76332 20.065C6.76332 19.7991 6.86232 19.5427 7.04103 19.3459C7.21974 19.149 7.46535 19.0257 7.73 19Z" fill="black"/>
</svg>
