<svg width="48" height="48" viewBox="0 0 48 48" fill="none" xmlns="http://www.w3.org/2000/svg">
<path fill-rule="evenodd" clip-rule="evenodd" d="M19.25 24.9842C20.2413 24.9946 21.1891 25.3927 21.8901 26.0932C22.5912 26.7936 22.9896 27.7406 23 28.7311V38.1933C23 39.195 22.6018 40.1556 21.8929 40.8639C21.184 41.5722 20.2225 41.9701 19.22 41.9701C18.2175 41.9701 17.256 41.5722 16.5471 40.8639C15.8383 40.1556 15.44 39.195 15.44 38.1933V28.7311C15.4506 27.7303 15.8573 26.7743 16.5712 26.0722C17.2852 25.37 18.2483 24.9789 19.25 24.9842ZM28.75 34.4464C29.5001 34.4405 30.2351 34.6577 30.8613 35.0704C31.4875 35.4831 31.9766 36.0727 32.2664 36.764C32.5562 37.4554 32.6336 38.2172 32.4887 38.9526C32.3438 39.6881 31.9832 40.3638 31.4527 40.8938C30.9223 41.4238 30.246 41.7841 29.51 41.9289C28.774 42.0737 28.0115 41.9963 27.3195 41.7068C26.6276 41.4172 26.0376 40.9285 25.6245 40.3028C25.2115 39.6771 24.9941 38.9428 25 38.1933V34.4164L28.75 34.4464ZM13.56 24.9842V28.7611C13.56 29.5081 13.3383 30.2383 12.923 30.8594C12.5076 31.4805 11.9173 31.9646 11.2265 32.2505C10.5358 32.5363 9.77581 32.6111 9.04256 32.4654C8.30931 32.3197 7.63578 31.96 7.10714 31.4318C6.5785 30.9035 6.21849 30.2306 6.07263 29.4979C5.92678 28.7653 6.00164 28.0059 6.28774 27.3158C6.57384 26.6256 7.05833 26.0358 7.67995 25.6208C8.30156 25.2057 9.03239 24.9842 9.78 24.9842H13.56ZM38.22 24.9842C39.2225 24.9842 40.184 25.3822 40.8929 26.0905C41.6018 26.7988 42 27.7594 42 28.7611C42 29.7628 41.6018 30.7235 40.8929 31.4318C40.184 32.1401 39.2225 32.538 38.22 32.538H28.75C27.7475 32.538 26.786 32.1401 26.0771 31.4318C25.3683 30.7235 24.97 29.7628 24.97 28.7611C24.97 27.7594 25.3683 26.7988 26.0771 26.0905C26.786 25.3822 27.7475 24.9842 28.75 24.9842H38.22ZM19.22 15.4921C20.2225 15.4921 21.184 15.89 21.8929 16.5983C22.6018 17.3066 23 18.2673 23 19.269C23 20.2707 22.6018 21.2313 21.8929 21.9396C21.184 22.6479 20.2225 23.0458 19.22 23.0458H9.78C8.77748 23.0458 7.81603 22.6479 7.10714 21.9396C6.39825 21.2313 6 20.2707 6 19.269C6 18.2673 6.39825 17.3066 7.10714 16.5983C7.81603 15.89 8.77748 15.4921 9.78 15.4921H19.22ZM38.22 15.4921C39.2225 15.4921 40.184 15.89 40.8929 16.5983C41.6018 17.3066 42 18.2673 42 19.269C42 20.2707 41.6018 21.2313 40.8929 21.9396C40.184 22.6479 39.2225 23.0458 38.22 23.0458H34.44V19.239C34.4426 18.2381 34.8417 17.279 35.5501 16.5713C36.2584 15.8635 37.2183 15.4648 38.22 15.4621V15.4921ZM28.75 6C29.7517 6.00264 30.7116 6.4014 31.42 7.10913C32.1283 7.81686 32.5274 8.77599 32.53 9.77686V19.239C32.53 20.2407 32.1318 21.2014 31.4229 21.9097C30.714 22.618 29.7525 23.0159 28.75 23.0159C27.7475 23.0159 26.786 22.618 26.0771 21.9097C25.3683 21.2014 24.97 20.2407 24.97 19.239V9.77686C24.9726 8.77599 25.3717 7.81686 26.0801 7.10913C26.7884 6.4014 27.7483 6.00264 28.75 6ZM19.25 6C20.2465 6.01051 21.1988 6.41274 21.9006 7.11962C22.6025 7.8265 22.9974 8.78115 23 9.77686V13.5537H19.25C18.2475 13.5537 17.286 13.1558 16.5771 12.4475C15.8683 11.7392 15.47 10.7786 15.47 9.77686C15.47 8.77518 15.8683 7.81452 16.5771 7.10622C17.286 6.39792 18.2475 6 19.25 6Z" fill="black"/>
</svg>
