<svg width="48" height="48" viewBox="0 0 48 48" fill="none" xmlns="http://www.w3.org/2000/svg">
<path d="M11.8232 43.9999C11.3459 44.003 10.877 43.8743 10.468 43.6282C10.059 43.3821 9.72578 43.028 9.50491 42.6048C9.28404 42.1817 9.18409 41.7058 9.21603 41.2296C9.24797 40.7533 9.41057 40.295 9.68596 39.9052L34.0149 5.15946C34.2079 4.8704 34.4567 4.62284 34.7468 4.43135C35.0368 4.23986 35.3622 4.1083 35.7038 4.04442C36.0454 3.98053 36.3964 3.98561 36.736 4.05934C37.0757 4.13308 37.3971 4.27399 37.6815 4.47379C37.9659 4.67358 38.2074 4.92823 38.3919 5.22275C38.5765 5.51727 38.7002 5.84571 38.7559 6.18876C38.8116 6.53181 38.7982 6.88254 38.7164 7.22032C38.6346 7.5581 38.486 7.87611 38.2795 8.15564L13.9605 42.8914C13.719 43.2338 13.3989 43.5132 13.027 43.7061C12.655 43.899 12.2422 43.9998 11.8232 43.9999Z" fill="black"/>
</svg>
