<svg width="48" height="48" viewBox="0 0 48 48" fill="none" xmlns="http://www.w3.org/2000/svg">
<path d="M10.9792 43.9991C10.6963 43.9993 10.4203 43.912 10.1891 43.7491C10.0308 43.6439 9.89565 43.5077 9.79172 43.3487C9.68779 43.1897 9.61731 43.0112 9.58456 42.8241C9.55181 42.6369 9.55749 42.4451 9.60123 42.2602C9.64498 42.0754 9.72589 41.9013 9.83903 41.7487L35.9032 4.5928C36.1154 4.2904 36.439 4.08469 36.8029 4.02092C37.1668 3.95714 37.5411 4.04053 37.8435 4.25274C38.1459 4.46495 38.3516 4.78859 38.4154 5.15247C38.4792 5.51635 38.3958 5.89066 38.1836 6.19305L12.1794 43.399C12.0456 43.5915 11.8656 43.7473 11.6559 43.8522C11.4462 43.957 11.2135 44.0075 10.9792 43.9991Z" fill="black"/>
</svg>
