<svg width="48" height="48" viewBox="0 0 48 48" fill="none" xmlns="http://www.w3.org/2000/svg">
<path fill-rule="evenodd" clip-rule="evenodd" d="M36.54 30.72C36.3537 31.0615 36.0472 31.3216 35.68 31.45C34.892 31.7714 34.0647 31.9867 33.22 32.09C33.1589 32.2667 33.1088 32.4471 33.07 32.63C33.07 32.83 32.98 33.02 32.93 33.22C32.8953 33.3644 32.8115 33.4923 32.6929 33.5817C32.5744 33.671 32.4284 33.7164 32.28 33.71C32.0845 33.7023 31.8903 33.6755 31.7 33.63C31.2657 33.5401 30.8235 33.4932 30.38 33.49C30.045 33.4896 29.7106 33.5163 29.38 33.57C28.7318 33.7408 28.1303 34.0552 27.62 34.49C26.6462 35.3221 25.42 35.8013 24.14 35.85H23.83C22.5508 35.7975 21.3259 35.3187 20.35 34.49C19.8397 34.0552 19.2382 33.7408 18.59 33.57C18.2759 33.519 17.9583 33.4922 17.64 33.49C17.1962 33.4967 16.754 33.5469 16.32 33.64C16.1304 33.6907 15.936 33.7209 15.74 33.73C15.5865 33.743 15.4336 33.6993 15.3101 33.6071C15.1867 33.515 15.1012 33.3808 15.07 33.23C15.0083 33.0365 14.9582 32.8395 14.92 32.64C14.8852 32.4561 14.835 32.2755 14.77 32.1C13.9247 31.9941 13.0973 31.7755 12.31 31.45C11.9428 31.3216 11.6363 31.0615 11.45 30.72C11.4195 30.6361 11.3994 30.5488 11.39 30.46C11.3831 30.316 11.4291 30.1745 11.5193 30.0621C11.6096 29.9497 11.7379 29.8743 11.88 29.85C12.6369 29.7131 13.3582 29.424 14 29C14.5755 28.6223 15.094 28.1643 15.54 27.64C16.0545 27.0378 16.4789 26.3641 16.8 25.64C16.879 25.513 16.9305 25.3708 16.9512 25.2227C16.9718 25.0746 16.9612 24.9238 16.92 24.78C16.73 24.35 16.03 24.13 15.56 23.98C15.4336 23.9459 15.3099 23.9024 15.19 23.85C14.8492 23.7271 14.5315 23.548 14.25 23.32C14.1413 23.2038 14.062 23.0633 14.0185 22.9103C13.975 22.7572 13.9687 22.596 14 22.44C14.0331 22.2934 14.0988 22.1561 14.1923 22.0383C14.2858 21.9206 14.4047 21.8255 14.54 21.76C14.7658 21.6208 15.0248 21.5448 15.29 21.54C15.4382 21.5378 15.5851 21.5685 15.72 21.63C16.0674 21.8093 16.4494 21.9117 16.84 21.93C16.983 21.9313 17.1251 21.9076 17.26 21.86C17.26 21.67 17.26 21.48 17.26 21.29C17.15 19.58 17.02 17.46 17.58 16.19C17.9088 15.3759 18.3909 14.6324 19 14C19.5357 13.4869 20.1588 13.0737 20.84 12.78C21.7486 12.3832 22.7285 12.1756 23.72 12.17H24.21C25.2015 12.1756 26.1814 12.3832 27.09 12.78C27.7942 13.0698 28.441 13.4829 29 14C29.6504 14.631 30.1733 15.3813 30.54 16.21C31.1 17.47 30.97 19.6 30.86 21.31V21.39C30.8504 21.5499 30.8504 21.7101 30.86 21.87C30.9661 21.9214 31.0822 21.9487 31.2 21.95C31.5671 21.9243 31.9247 21.8221 32.25 21.65C32.4118 21.5837 32.5851 21.5497 32.76 21.55C32.9482 21.5455 33.1354 21.5795 33.31 21.65C33.5239 21.707 33.7157 21.8272 33.8602 21.9949C34.0047 22.1626 34.0953 22.37 34.12 22.59C34.111 22.8517 33.9997 23.0995 33.81 23.28C33.4075 23.6136 32.9414 23.862 32.44 24.01C31.97 24.16 31.27 24.38 31.08 24.81C31.0388 24.9538 31.0282 25.1046 31.0488 25.2527C31.0695 25.4008 31.121 25.543 31.2 25.67C31.26 25.82 32.78 29.28 36.15 29.84C36.2931 29.8622 36.4227 29.9371 36.5134 30.0499C36.604 30.1628 36.6492 30.3055 36.64 30.45C36.6186 30.544 36.585 30.6348 36.54 30.72ZM40 6H8C7.46957 6 6.96086 6.21071 6.58579 6.58579C6.21071 6.96086 6 7.46957 6 8V40C6 40.5304 6.21071 41.0391 6.58579 41.4142C6.96086 41.7893 7.46957 42 8 42H40C40.5304 42 41.0391 41.7893 41.4142 41.4142C41.7893 41.0391 42 40.5304 42 40V8C42 7.46957 41.7893 6.96086 41.4142 6.58579C41.0391 6.21071 40.5304 6 40 6Z" fill="black"/>
</svg>
