<svg width="48" height="48" viewBox="0 0 48 48" fill="none" xmlns="http://www.w3.org/2000/svg">
<path fill-rule="evenodd" clip-rule="evenodd" d="M41.3242 32.36C36.5056 31.5686 34.3116 26.6197 34.2415 26.4093C34.115 26.2258 34.0299 26.017 33.9918 25.7974C33.9538 25.5777 33.9638 25.3525 34.0211 25.1371C34.2916 24.516 35.3034 24.1954 35.9646 23.985L36.4955 23.8047C37.0296 23.6242 37.5183 23.3303 37.9281 22.9431C38.0673 22.8161 38.1785 22.6613 38.2544 22.4888C38.3303 22.3163 38.3693 22.1298 38.3689 21.9413C38.3363 21.6269 38.2086 21.3299 38.0027 21.09C37.7969 20.8502 37.5227 20.6788 37.2168 20.5989C36.9655 20.4974 36.6965 20.4463 36.4254 20.4487C36.174 20.4489 35.9253 20.5 35.6941 20.5989C35.2253 20.8372 34.7152 20.9834 34.1914 21.0297C34.0219 21.0274 33.8548 20.9899 33.7005 20.9195C33.7005 20.6891 33.7005 20.4587 33.7005 20.2183V20.1181C33.8508 17.6637 34.0412 14.6182 33.2397 12.815C32.7233 11.6235 31.974 10.5472 31.0358 9.64934C30.2872 8.92812 29.4196 8.34178 28.4712 7.91624C27.1728 7.34703 25.7715 7.05039 24.3538 7.04468H23.6425C22.2217 7.051 20.8172 7.34759 19.5151 7.91624C18.5454 8.34428 17.6573 8.93747 16.8904 9.66938C15.9548 10.5655 15.2057 11.638 14.6865 12.825C13.8851 14.6383 14.0754 17.6737 14.2257 20.1281C14.2257 20.3886 14.2257 20.659 14.2257 20.9295C14.0558 21.0099 13.8723 21.0575 13.6847 21.0698C13.1254 21.0445 12.5784 20.8975 12.0818 20.639C11.8887 20.557 11.6806 20.516 11.4707 20.5188C11.0895 20.5191 10.7156 20.623 10.3888 20.8193C10.1954 20.9191 10.0266 21.0609 9.89489 21.2342C9.76318 21.4075 9.67181 21.608 9.62745 21.8211C9.59416 22.0564 9.62392 22.2963 9.71368 22.5163C9.80344 22.7363 9.94999 22.9285 10.1384 23.0734C10.5375 23.4067 10.9918 23.6677 11.4808 23.8448L12.0117 24.0251C12.6729 24.2355 13.6847 24.556 13.9552 25.1771C14.0139 25.3831 14.0291 25.599 13.9997 25.8112C13.9704 26.0233 13.8972 26.227 13.7849 26.4093C13.3164 27.4263 12.7096 28.3736 11.9817 29.2244C11.3454 29.9722 10.6068 30.6264 9.78773 31.1679C8.85399 31.7716 7.8079 32.1805 6.71223 32.37C6.50702 32.4019 6.32086 32.5086 6.18955 32.6695C6.05824 32.8304 5.99107 33.0341 6.00095 33.2416C6.01074 33.3692 6.04119 33.4944 6.09112 33.6122C6.3518 34.104 6.78816 34.4796 7.3133 34.6641C8.44235 35.1273 9.62832 35.4373 10.8396 35.5858C10.9376 35.8379 11.0081 36.0999 11.05 36.3672C11.1101 36.6377 11.1702 36.9182 11.2604 37.2087C11.3127 37.4286 11.4431 37.622 11.6274 37.7528C11.8117 37.8837 12.0373 37.9431 12.2622 37.92C12.5053 37.8984 12.7464 37.8582 12.9835 37.7997C13.606 37.6667 14.2403 37.5962 14.8768 37.5894C15.3298 37.5916 15.7819 37.6284 16.2293 37.6996C17.1611 37.9432 18.027 38.3916 18.7638 39.0119C20.1656 40.2077 21.9314 40.8928 23.7728 40.9554H24.2136C26.055 40.8928 27.8208 40.2077 29.2225 39.0119C29.9545 38.39 30.8175 37.9414 31.747 37.6996C32.1944 37.6284 32.6465 37.5916 33.0995 37.5894C33.7359 37.5901 34.3704 37.6572 34.9929 37.7897C35.2629 37.8491 35.5379 37.8826 35.8143 37.8899C36.024 37.8984 36.2303 37.8343 36.3982 37.7083C36.5661 37.5824 36.6854 37.4024 36.736 37.1987C36.8261 36.9081 36.8862 36.6276 36.9464 36.3572C36.9906 36.0937 37.0611 35.8352 37.1567 35.5858C38.3671 35.4325 39.5524 35.1227 40.683 34.6641C41.1984 34.4894 41.6328 34.1334 41.9052 33.6623C41.9552 33.541 41.9856 33.4125 41.9954 33.2816C42.0173 33.0722 41.9608 32.8621 41.8368 32.6919C41.7129 32.5217 41.5302 32.4034 41.3242 32.36Z" fill="black"/>
</svg>
