<svg width="48" height="48" viewBox="0 0 48 48" fill="none" xmlns="http://www.w3.org/2000/svg">
<path d="M7.2741 8.76846H40.5636C40.9112 8.73897 41.2349 8.58036 41.4709 8.32402C41.7068 8.06768 41.8378 7.7323 41.8378 7.38423C41.8378 7.03616 41.7068 6.70078 41.4709 6.44444C41.2349 6.18811 40.9112 6.0295 40.5636 6H7.2741C6.92658 6.0295 6.60281 6.18811 6.36687 6.44444C6.13093 6.70078 6 7.03616 6 7.38423C6 7.7323 6.13093 8.06768 6.36687 8.32402C6.60281 8.58036 6.92658 8.73897 7.2741 8.76846Z" fill="black"/>
<path d="M7.2741 19.8423H23.9189C24.2664 19.8128 24.5902 19.6542 24.8261 19.3979C25.0621 19.1415 25.193 18.8061 25.193 18.4581C25.193 18.11 25.0621 17.7746 24.8261 17.5183C24.5902 17.262 24.2664 17.1033 23.9189 17.0738H7.2741C6.92658 17.1033 6.60281 17.262 6.36687 17.5183C6.13093 17.7746 6 18.11 6 18.4581C6 18.8061 6.13093 19.1415 6.36687 19.3979C6.60281 19.6542 6.92658 19.8128 7.2741 19.8423Z" fill="black"/>
<path d="M20.2234 28.1377H7.2741C6.92658 28.1672 6.60281 28.3258 6.36687 28.5821C6.13093 28.8385 6 29.1739 6 29.5219C6 29.87 6.13093 30.2054 6.36687 30.4617C6.60281 30.7181 6.92658 30.8767 7.2741 30.9062H20.2234C20.5709 30.8767 20.8947 30.7181 21.1306 30.4617C21.3666 30.2054 21.4975 29.87 21.4975 29.5219C21.4975 29.1739 21.3666 28.8385 21.1306 28.5821C20.8947 28.3258 20.5709 28.1672 20.2234 28.1377Z" fill="black"/>
<path d="M16.5279 39.2115H7.2741C6.92658 39.241 6.60281 39.3997 6.36687 39.656C6.13093 39.9123 6 40.2477 6 40.5958C6 40.9438 6.13093 41.2792 6.36687 41.5356C6.60281 41.7919 6.92658 41.9505 7.2741 41.98H16.5279C16.8754 41.9505 17.1992 41.7919 17.4351 41.5356C17.6711 41.2792 17.802 40.9438 17.802 40.5958C17.802 40.2477 17.6711 39.9123 17.4351 39.656C17.1992 39.3997 16.8754 39.241 16.5279 39.2115Z" fill="black"/>
<path d="M33.0525 15.8845C32.6948 15.5329 32.2293 15.3112 31.7305 15.2549C31.5457 15.2148 31.3545 15.2148 31.1697 15.2549C30.6708 15.3112 30.2053 15.5329 29.8477 15.8845L21.3651 24.3598C21.2336 24.4878 21.1286 24.6403 21.0561 24.8088C20.9837 24.9772 20.9452 25.1583 20.9429 25.3416C20.9406 25.5249 20.9745 25.7068 21.0426 25.8771C21.1107 26.0473 21.2118 26.2025 21.34 26.3337C21.4683 26.465 21.6211 26.5697 21.7899 26.642C21.9587 26.7143 22.1402 26.7527 22.3238 26.755C22.5075 26.7573 22.6898 26.7235 22.8604 26.6555C23.031 26.5875 23.1865 26.4867 23.318 26.3587L30.068 19.6324V40.6208C30.068 40.9866 30.2136 41.3374 30.4728 41.596C30.732 41.8547 31.0835 42 31.4501 42C31.8166 42 32.1682 41.8547 32.4273 41.596C32.6865 41.3374 32.8321 40.9866 32.8321 40.6208V19.6324L39.5822 26.3587C39.8478 26.6238 40.208 26.7727 40.5837 26.7727C40.9593 26.7727 41.3196 26.6238 41.5852 26.3587C41.8508 26.0936 42 25.7341 42 25.3592C42 24.9844 41.8508 24.6249 41.5852 24.3598L33.0525 15.8845Z" fill="black"/>
</svg>
