<svg width="48" height="48" viewBox="0 0 48 48" fill="none" xmlns="http://www.w3.org/2000/svg">
<path d="M39.43 11.14H8.57C7.88839 11.14 7.2347 10.8692 6.75274 10.3873C6.27077 9.9053 6 9.25161 6 8.57C6 7.88839 6.27077 7.2347 6.75274 6.75274C7.2347 6.27077 7.88839 6 8.57 6H39.43C40.1116 6 40.7653 6.27077 41.2473 6.75274C41.7292 7.2347 42 7.88839 42 8.57C42 9.25161 41.7292 9.9053 41.2473 10.3873C40.7653 10.8692 40.1116 11.14 39.43 11.14Z" fill="black"/>
<path d="M24 21.43H8.57C7.88839 21.43 7.2347 21.1592 6.75274 20.6773C6.27077 20.1953 6 19.5416 6 18.86C6 18.1784 6.27077 17.5247 6.75274 17.0427C7.2347 16.5608 7.88839 16.29 8.57 16.29H24C24.6816 16.29 25.3353 16.5608 25.8173 17.0427C26.2992 17.5247 26.57 18.1784 26.57 18.86C26.57 19.5416 26.2992 20.1953 25.8173 20.6773C25.3353 21.1592 24.6816 21.43 24 21.43Z" fill="black"/>
<path d="M17.14 42H8.57C7.88839 42 7.2347 41.7292 6.75274 41.2473C6.27077 40.7653 6 40.1116 6 39.43C6 38.7484 6.27077 38.0947 6.75274 37.6127C7.2347 37.1308 7.88839 36.86 8.57 36.86H17.14C17.8216 36.86 18.4753 37.1308 18.9573 37.6127C19.4392 38.0947 19.71 38.7484 19.71 39.43C19.71 40.1116 19.4392 40.7653 18.9573 41.2473C18.4753 41.7292 17.8216 42 17.14 42Z" fill="black"/>
<path d="M19.51 28.29C20.2027 27.5983 21.1153 27.1703 22.09 27.08C21.652 26.7497 21.1186 26.5707 20.57 26.57H8.57C7.88839 26.57 7.2347 26.8408 6.75274 27.3227C6.27077 27.8047 6 28.4584 6 29.14C6 29.8216 6.27077 30.4753 6.75274 30.9573C7.2347 31.4392 7.88839 31.71 8.57 31.71H18.29C18.2288 31.0853 18.3065 30.4547 18.5174 29.8635C18.7283 29.2723 19.0672 28.735 19.51 28.29Z" fill="black"/>
<path d="M41.25 29.5C40.7665 29.0188 40.1121 28.7487 39.43 28.7487C38.7479 28.7487 38.0935 29.0188 37.61 29.5L33.55 33.56V17.14C33.55 16.4584 33.2792 15.8047 32.7973 15.3227C32.3153 14.8408 31.6616 14.57 30.98 14.57C30.2984 14.57 29.6447 14.8408 29.1627 15.3227C28.6808 15.8047 28.41 16.4584 28.41 17.14V33.56L24.35 29.5C24.111 29.2617 23.8274 29.0727 23.5154 28.944C23.2033 28.8152 22.869 28.7492 22.5315 28.7497C22.1939 28.7501 21.8598 28.8171 21.5481 28.9467C21.2364 29.0763 20.9534 29.266 20.715 29.505C20.4767 29.744 20.2877 30.0276 20.159 30.3396C20.0302 30.6517 19.9642 30.986 19.9647 31.3235C19.9651 31.6611 20.0321 31.9952 20.1617 32.3069C20.2913 32.6186 20.481 32.9016 20.72 33.14L28.59 41C29.2256 41.6345 30.0869 41.9908 30.985 41.9908C31.8831 41.9908 32.7444 41.6345 33.38 41L41.25 33.13C41.7282 32.6469 41.9964 31.9947 41.9964 31.315C41.9964 30.6353 41.7282 29.9831 41.25 29.5Z" fill="black"/>
</svg>
