<svg width="48" height="48" viewBox="0 0 48 48" fill="none" xmlns="http://www.w3.org/2000/svg">
<path d="M7.27588 8.76846H40.6118C40.9598 8.73897 41.284 8.58036 41.5203 8.32402C41.7566 8.06768 41.8877 7.7323 41.8877 7.38423C41.8877 7.03616 41.7566 6.70078 41.5203 6.44444C41.284 6.18811 40.9598 6.0295 40.6118 6H7.27588C6.92787 6.0295 6.60365 6.18811 6.36738 6.44444C6.13111 6.70078 6 7.03616 6 7.38423C6 7.7323 6.13111 8.06768 6.36738 8.32402C6.60365 8.58036 6.92787 8.73897 7.27588 8.76846Z" fill="black"/>
<path d="M7.27588 19.8423H23.9438C24.2918 19.8128 24.6161 19.6542 24.8523 19.3979C25.0886 19.1415 25.2197 18.8061 25.2197 18.4581C25.2197 18.11 25.0886 17.7746 24.8523 17.5183C24.6161 17.262 24.2918 17.1033 23.9438 17.0738H7.27588C6.92787 17.1033 6.60365 17.262 6.36738 17.5183C6.13111 17.7746 6 18.11 6 18.4581C6 18.8061 6.13111 19.1415 6.36738 19.3979C6.60365 19.6542 6.92787 19.8128 7.27588 19.8423Z" fill="black"/>
<path d="M21.6272 29.5269C21.6285 29.345 21.5937 29.1645 21.5247 28.996C21.4558 28.8276 21.354 28.6743 21.2254 28.5452C21.0967 28.4161 20.9437 28.3136 20.7751 28.2436C20.6066 28.1737 20.4258 28.1377 20.2432 28.1377H7.27588C6.92787 28.1672 6.60365 28.3258 6.36738 28.5821C6.13111 28.8385 6 29.1739 6 29.5219C6 29.87 6.13111 30.2054 6.36738 30.4617C6.60365 30.7181 6.92787 30.8767 7.27588 30.9062H20.2432C20.6102 30.9062 20.9623 30.7609 21.2218 30.5022C21.4814 30.2435 21.6272 29.8927 21.6272 29.5269Z" fill="black"/>
<path d="M16.5425 39.2115H7.27588C6.92787 39.241 6.60365 39.3997 6.36738 39.656C6.13111 39.9123 6 40.2477 6 40.5958C6 40.9438 6.13111 41.2792 6.36738 41.5356C6.60365 41.7919 6.92787 41.9505 7.27588 41.98H16.5425C16.8905 41.9505 17.2148 41.7919 17.451 41.5356C17.6873 41.2792 17.8184 40.9438 17.8184 40.5958C17.8184 40.2477 17.6873 39.9123 17.451 39.656C17.2148 39.3997 16.8905 39.241 16.5425 39.2115Z" fill="black"/>
<path d="M39.629 30.8862L32.8695 37.6224V16.6341C32.8695 16.453 32.8337 16.2736 32.7642 16.1063C32.6946 15.9389 32.5927 15.7869 32.4642 15.6588C32.3356 15.5308 32.1831 15.4292 32.0152 15.3598C31.8472 15.2905 31.6673 15.2549 31.4855 15.2549C31.3038 15.2549 31.1238 15.2905 30.9559 15.3598C30.788 15.4292 30.6354 15.5308 30.5069 15.6588C30.3784 15.7869 30.2765 15.9389 30.2069 16.1063C30.1374 16.2736 30.1016 16.453 30.1016 16.6341V37.6224L23.3421 30.8862C23.2104 30.7582 23.0547 30.6573 22.8839 30.5893C22.7131 30.5213 22.5305 30.4875 22.3466 30.4899C22.1626 30.4922 21.981 30.5306 21.8119 30.6029C21.6429 30.6752 21.4898 30.7799 21.3614 30.9112C21.233 31.0424 21.1318 31.1976 21.0636 31.3678C20.9953 31.538 20.9614 31.72 20.9637 31.9033C20.9661 32.0866 21.0046 32.2676 21.0771 32.4361C21.1497 32.6045 21.2548 32.7571 21.3865 32.8851L29.8809 41.3604C30.266 41.7448 30.7807 41.9727 31.3251 42H31.646C32.1903 41.9727 32.7051 41.7448 33.0902 41.3604L41.5846 32.8851C41.8506 32.62 42 32.2605 42 31.8856C42 31.5108 41.8506 31.1512 41.5846 30.8862C41.3186 30.6211 40.9579 30.4722 40.5817 30.4722C40.2056 30.4722 39.8448 30.6211 39.5788 30.8862H39.629Z" fill="black"/>
</svg>
