<svg width="48" height="48" viewBox="0 0 48 48" fill="none" xmlns="http://www.w3.org/2000/svg">
<path d="M39.43 11.14H8.57C7.88839 11.14 7.2347 10.8692 6.75274 10.3873C6.27077 9.9053 6 9.25161 6 8.57C6 7.88839 6.27077 7.2347 6.75274 6.75274C7.2347 6.27077 7.88839 6 8.57 6H39.43C40.1116 6 40.7653 6.27077 41.2473 6.75274C41.7292 7.2347 42 7.88839 42 8.57C42 9.25161 41.7292 9.9053 41.2473 10.3873C40.7653 10.8692 40.1116 11.14 39.43 11.14Z" fill="black"/>
<path d="M17.14 42H8.57C7.88839 42 7.2347 41.7292 6.75274 41.2473C6.27077 40.7653 6 40.1116 6 39.43C6 38.7484 6.27077 38.0947 6.75274 37.6127C7.2347 37.1308 7.88839 36.86 8.57 36.86H17.14C17.8216 36.86 18.4753 37.1308 18.9573 37.6127C19.4392 38.0947 19.71 38.7484 19.71 39.43C19.71 40.1116 19.4392 40.7653 18.9573 41.2473C18.4753 41.7292 17.8216 42 17.14 42Z" fill="black"/>
<path d="M19.51 28.28C19.0419 27.8003 18.6986 27.2132 18.51 26.57H8.57C7.88839 26.57 7.2347 26.8408 6.75274 27.3227C6.27077 27.8047 6 28.4584 6 29.14C6 29.8216 6.27077 30.4753 6.75274 30.9573C7.2347 31.4392 7.88839 31.71 8.57 31.71H20.57C21.192 31.7103 21.7929 31.4842 22.2603 31.0738C22.7278 30.6634 23.0298 30.0968 23.11 29.48C22.458 29.5734 21.7931 29.5135 21.1683 29.3052C20.5434 29.0969 19.9756 28.7459 19.51 28.28Z" fill="black"/>
<path d="M25.16 16.57C24.7997 16.3897 24.4029 16.2939 24 16.29H8.57C7.88839 16.29 7.2347 16.5608 6.75274 17.0427C6.27077 17.5247 6 18.1784 6 18.86C6 19.5416 6.27077 20.1953 6.75274 20.6773C7.2347 21.1592 7.88839 21.43 8.57 21.43H20.3L25.16 16.57Z" fill="black"/>
<path d="M41.25 23.43L33.38 15.56C32.7444 14.9255 31.8831 14.5692 30.985 14.5692C30.0869 14.5692 29.2256 14.9255 28.59 15.56L20.72 23.43C20.2373 23.9114 19.9656 24.5648 19.9647 25.2465C19.9637 25.9282 20.2336 26.5823 20.715 27.065C21.1964 27.5477 21.8498 27.8194 22.5315 27.8203C23.2132 27.8213 23.8673 27.5514 24.35 27.07L28.41 23V39.43C28.41 40.1116 28.6808 40.7653 29.1627 41.2473C29.6447 41.7292 30.2984 42 30.98 42C31.6616 42 32.3153 41.7292 32.7973 41.2473C33.2792 40.7653 33.55 40.1116 33.55 39.43V23L37.61 27.06C38.0927 27.5427 38.7474 27.8139 39.43 27.8139C40.1126 27.8139 40.7673 27.5427 41.25 27.06C41.7327 26.5773 42.0039 25.9226 42.0039 25.24C42.0039 24.5574 41.7327 23.9027 41.25 23.42V23.43Z" fill="black"/>
</svg>
