<svg width="48" height="48" viewBox="0 0 48 48" fill="none" xmlns="http://www.w3.org/2000/svg">
<path fill-rule="evenodd" clip-rule="evenodd" d="M12.8573 23.6434C13.8577 23.8935 14.4079 24.2136 14.4079 25.064C14.4079 25.9143 13.9177 26.4345 12.7473 26.4345C12.1592 26.4732 11.5716 26.3522 11.0466 26.0844V25.4041C11.5892 25.667 12.1843 25.8038 12.7873 25.8043C13.4976 25.8043 13.7877 25.5242 13.7877 25.104C13.7877 24.6838 13.5276 24.4737 12.6272 24.2537C11.5668 23.9936 11.0966 23.6334 11.0966 22.8531C11.0966 22.0728 11.6368 21.5826 12.7273 21.5826C13.2292 21.5652 13.7267 21.6827 14.1678 21.9227V22.573C13.722 22.3243 13.2176 22.2 12.7072 22.2128C12.087 22.2128 11.7068 22.4229 11.7068 22.8531C11.7068 23.2833 11.987 23.4333 12.8573 23.6434ZM16.6489 25.8643C17.4192 25.8643 17.7393 25.2441 17.7393 24.5638C17.7393 23.8835 17.4092 23.2833 16.6489 23.2833C15.8885 23.2833 15.5484 23.8835 15.5484 24.5638C15.5484 25.2441 15.8885 25.8643 16.6489 25.8643ZM16.6489 22.703C16.8877 22.6972 17.125 22.7426 17.3448 22.8363C17.5646 22.93 17.7618 23.0697 17.923 23.2461C18.0842 23.4225 18.2056 23.6313 18.2792 23.8587C18.3528 24.086 18.3768 24.3264 18.3495 24.5638C18.3755 24.8026 18.3508 25.0442 18.2772 25.2729C18.2036 25.5016 18.0826 25.7122 17.9221 25.891C17.7617 26.0698 17.5654 26.2128 17.346 26.3107C17.1266 26.4086 16.8891 26.4592 16.6489 26.4592C16.4086 26.4592 16.1711 26.4086 15.9517 26.3107C15.7323 26.2128 15.536 26.0698 15.3756 25.891C15.2151 25.7122 15.0941 25.5016 15.0205 25.2729C14.9469 25.0442 14.9222 24.8026 14.9482 24.5638C14.9226 24.3267 14.9477 24.087 15.0219 23.8604C15.0961 23.6338 15.2177 23.4256 15.3786 23.2496C15.5394 23.0736 15.7359 22.9338 15.9549 22.8396C16.1739 22.7454 16.4105 22.6988 16.6489 22.703ZM21.4208 24.7739V22.7731H22.041V26.3645H21.4208V25.7743C21.3127 25.9788 21.1495 26.149 20.9498 26.2657C20.75 26.3824 20.5216 26.4408 20.2903 26.4345C19.47 26.4345 18.9898 25.8643 18.9898 24.8739V22.7731H19.6101V24.9439C19.6101 25.5842 19.8702 25.8743 20.4504 25.8743C21.0306 25.8743 21.4208 25.4942 21.4208 24.7739ZM23.5717 23.4033C23.68 23.1666 23.8628 22.9719 24.0923 22.8491C24.3218 22.7262 24.5852 22.6819 24.8422 22.723V23.3333C24.0519 23.2432 23.5717 23.4833 23.5717 24.2437V26.3645H22.9914V22.7731H23.5917L23.5717 23.4033ZM26.9931 25.8443C27.2715 25.8543 27.5495 25.8136 27.8134 25.7243V26.2645C27.5366 26.387 27.2356 26.4452 26.933 26.4345C26.6803 26.4597 26.4251 26.4283 26.186 26.3425C25.9469 26.2567 25.7299 26.1188 25.5508 25.9387C25.3716 25.7586 25.2349 25.5409 25.1504 25.3013C25.0659 25.0618 25.0358 24.8064 25.0623 24.5538C25.035 24.297 25.0669 24.0374 25.1555 23.7949C25.2442 23.5524 25.3872 23.3334 25.5736 23.1547C25.76 22.976 25.9848 22.8424 26.2309 22.7641C26.477 22.6858 26.7377 22.6649 26.9931 22.703C27.2889 22.6954 27.5827 22.7535 27.8534 22.8731V23.4433C27.5831 23.3234 27.2884 23.2686 26.9931 23.2833C26.8199 23.2666 26.6451 23.2881 26.4811 23.3463C26.3172 23.4045 26.1679 23.4979 26.0439 23.62C25.92 23.7421 25.8242 23.8898 25.7635 24.0529C25.7028 24.216 25.6786 24.3903 25.6925 24.5638C25.6786 24.7372 25.7028 24.9116 25.7635 25.0747C25.8242 25.2377 25.92 25.3855 26.0439 25.5076C26.1679 25.6297 26.3172 25.7231 26.4811 25.7813C26.6451 25.8394 26.8199 25.861 26.9931 25.8443ZM28.9139 24.3137H30.9147C30.9147 23.6534 30.5745 23.3133 29.9143 23.3133C29.254 23.3133 28.9139 23.7334 28.9139 24.3137ZM29.9943 22.703C31.0947 22.703 31.5449 23.4733 31.5449 24.5638V24.8439H28.9939C29.0839 25.4441 29.4741 25.8443 30.3244 25.8443C30.6963 25.8462 31.0656 25.7818 31.4149 25.6542V26.2245C31.0603 26.3725 30.6785 26.4441 30.2944 26.4345C30.0387 26.4676 29.7788 26.4423 29.5342 26.3607C29.2896 26.2792 29.0666 26.1433 28.8819 25.9634C28.6971 25.7835 28.5555 25.5642 28.4675 25.3218C28.3795 25.0794 28.3474 24.8203 28.3736 24.5638C28.3456 24.3328 28.3663 24.0986 28.4346 23.8762C28.5029 23.6538 28.6171 23.4482 28.7699 23.2728C28.9227 23.0973 29.1106 22.956 29.3216 22.8578C29.5325 22.7597 29.7617 22.7069 29.9943 22.703ZM33.1256 25.2341C33.1221 25.3081 33.1349 25.382 33.1629 25.4506C33.1909 25.5192 33.2335 25.5809 33.2878 25.6313C33.3421 25.6818 33.4067 25.7198 33.4771 25.7428C33.5476 25.7657 33.6222 25.7731 33.6958 25.7643H34.076V26.3545C33.943 26.3948 33.8047 26.415 33.6658 26.4145C33.5125 26.4376 33.3559 26.4247 33.2084 26.3768C33.0609 26.329 32.9266 26.2475 32.816 26.1389C32.7054 26.0302 32.6216 25.8973 32.5711 25.7507C32.5207 25.6041 32.505 25.4478 32.5253 25.2941V23.3533H31.9951V22.7831H32.5753V22.0228H33.1756V22.7731H34.176V23.3433H33.1756L33.1256 25.2341ZM35.4665 23.4033C35.5748 23.1666 35.7577 22.9719 35.9871 22.8491C36.2166 22.7262 36.48 22.6819 36.737 22.723V23.3333C35.9467 23.2432 35.4665 23.4833 35.4665 24.2437V26.3645H34.8663V22.7731H35.4665V23.4033ZM37.5974 24.3137H39.5982C39.5982 23.6534 39.2581 23.3133 38.6478 23.3133C38.0376 23.3133 37.6474 23.7334 37.5974 24.3137ZM38.6978 22.703C39.7983 22.703 40.2385 23.4733 40.2385 24.5638V24.8439H37.6274C37.7074 25.4441 38.1076 25.8443 38.9479 25.8443C39.3061 25.8385 39.6609 25.7743 39.9984 25.6542V26.2245C39.6476 26.3735 39.2689 26.4451 38.8879 26.4345C38.6349 26.4608 38.3792 26.4306 38.1393 26.3461C37.8993 26.2617 37.6811 26.1251 37.5002 25.9462C37.3194 25.7673 37.1805 25.5505 37.0935 25.3115C37.0065 25.0724 36.9736 24.8171 36.9971 24.5638C36.9682 24.3261 36.991 24.085 37.0639 23.8569C37.1369 23.6288 37.2583 23.4193 37.4198 23.2425C37.5814 23.0658 37.7792 22.9261 37.9998 22.8329C38.2204 22.7398 38.4585 22.6955 38.6978 22.703ZM41.3789 24.3137H43.3797C43.3797 23.6534 43.0396 23.3133 42.3793 23.3133C41.7191 23.3133 41.3789 23.7334 41.3789 24.3137ZM44 24.5638V24.8439H41.3889C41.469 25.4441 41.8691 25.8443 42.7095 25.8443C43.0809 25.8413 43.4493 25.7771 43.7999 25.6542V26.2245C43.4486 26.3717 43.0703 26.4433 42.6895 26.4345C42.4333 26.4672 42.1731 26.4419 41.9281 26.3603C41.6831 26.2788 41.4596 26.1432 41.2742 25.9635C41.0888 25.7838 40.9461 25.5647 40.8569 25.3224C40.7677 25.0801 40.7341 24.8208 40.7587 24.5638C40.7299 24.327 40.7524 24.0867 40.8248 23.8594C40.8972 23.632 41.0177 23.423 41.1781 23.2464C41.3385 23.0698 41.5351 22.9299 41.7545 22.8361C41.9739 22.7424 42.2109 22.697 42.4494 22.703C43.5598 22.703 44 23.4733 44 24.5638ZM6.30464 24.1836C6.49764 24.1618 6.67585 24.0697 6.80525 23.9248C6.93466 23.78 7.00618 23.5925 7.00618 23.3983C7.00618 23.2041 6.93466 23.0166 6.80525 22.8718C6.67585 22.7269 6.49764 22.6348 6.30464 22.613C6.11163 22.6348 5.93342 22.7269 5.80402 22.8718C5.67462 23.0166 5.60309 23.2041 5.60309 23.3983C5.60309 23.5925 5.67462 23.78 5.80402 23.9248C5.93342 24.0697 6.11163 24.1618 6.30464 24.1836ZM8.47552 22.613V22.683C8.66468 23.2681 8.61396 23.9043 8.33449 24.452C8.05502 24.9996 7.56964 25.4141 6.98491 25.6042V26.7647C6.98491 26.8071 6.96805 26.8478 6.93803 26.8779C6.90801 26.9079 6.8673 26.9247 6.82485 26.9247H5.75441C5.71099 26.9248 5.66918 26.9083 5.63756 26.8785C5.60594 26.8488 5.5869 26.808 5.58434 26.7647V25.6042C5.06328 25.4298 4.62099 25.0762 4.33617 24.6063C4.05135 24.1365 3.94247 23.5808 4.0289 23.0382C4.11534 22.4955 4.39148 22.0012 4.8082 21.643C5.22492 21.2849 5.75518 21.0862 6.30464 21.0824C6.41446 21.0725 6.52495 21.0725 6.63477 21.0824H6.7148L6.98491 21.1924H7.04494L7.28504 21.2925H7.35507C7.44181 21.3308 7.52265 21.3814 7.59516 21.4425L7.6852 21.5125L7.98532 21.8127L8.11538 21.9727C8.14876 22.0065 8.1789 22.0434 8.20541 22.0828C8.25787 22.1523 8.3047 22.2259 8.34547 22.3029V22.4129C8.39353 22.4764 8.437 22.5433 8.47552 22.613Z" fill="black"/>
</svg>
