<svg width="48" height="48" viewBox="0 0 48 48" fill="none" xmlns="http://www.w3.org/2000/svg">
<path fill-rule="evenodd" clip-rule="evenodd" d="M23.8447 25.1776C23.119 25.209 22.3945 25.0931 21.7149 24.837C21.0352 24.5809 20.4143 24.1899 19.8898 23.6875C19.3652 23.1851 18.9478 22.5817 18.6626 21.9137C18.3774 21.2457 18.2304 20.5269 18.2304 19.8006C18.2304 19.0742 18.3774 18.3554 18.6626 17.6874C18.9478 17.0194 19.3652 16.416 19.8898 15.9136C20.4143 15.4112 21.0352 15.0202 21.7149 14.7641C22.3945 14.508 23.119 14.3921 23.8447 14.4235C25.2695 14.4235 26.6359 14.9894 27.6433 15.9969C28.6508 17.0044 29.2168 18.3708 29.2168 19.7955C29.2168 21.2203 28.6508 22.5867 27.6433 23.5942C26.6359 24.6016 25.2695 25.1676 23.8447 25.1676V25.1776ZM38.9988 14.9346C38.1752 12.3784 36.7174 10.0726 34.7615 8.23235C32.8055 6.39208 30.4152 5.07737 27.8136 4.41092C27.3025 4.28063 26.8114 4.17038 26.2702 4.0902L25.5285 4H23.8447C20.1104 4.06896 16.5197 5.45065 13.7024 7.90267C10.8851 10.3547 9.02122 13.7204 8.43768 17.4095C7.85413 21.0985 8.58821 24.8752 10.5111 28.0771C12.4341 31.2789 15.423 33.7014 18.9537 34.9196V42.8775C18.9536 43.1701 19.0677 43.4511 19.2718 43.6608C19.4758 43.8704 19.7537 43.9922 20.0462 44H27.5931C27.8891 43.9974 28.1721 43.8779 28.3804 43.6677C28.5888 43.4575 28.7057 43.1735 28.7056 42.8775V34.9196H28.7558C32.7601 33.6218 36.0867 30.7896 38.0066 27.0435C39.9266 23.2975 40.2834 18.9432 38.9988 14.9346Z" fill="black"/>
</svg>
