<svg width="48" height="48" viewBox="0 0 48 48" fill="none" xmlns="http://www.w3.org/2000/svg">
<path d="M40.6196 42H33.2296C32.617 42 32.0294 41.7566 31.5962 41.3234C31.163 40.8902 30.9196 40.3027 30.9196 39.69V8.31C30.9223 7.69816 31.1665 7.11213 31.5991 6.67949C32.0318 6.24685 32.6178 6.00263 33.2296 6H40.6196C40.9666 6.02951 41.2899 6.18821 41.5255 6.44469C41.7611 6.70117 41.8918 7.03674 41.8918 7.385C41.8918 7.73326 41.7611 8.06883 41.5255 8.32531C41.2899 8.58179 40.9666 8.74049 40.6196 8.77H33.6896V39.23H40.6196C40.9666 39.2595 41.2899 39.4182 41.5255 39.6747C41.7611 39.9312 41.8918 40.2667 41.8918 40.615C41.8918 40.9633 41.7611 41.2988 41.5255 41.5553C41.2899 41.8118 40.9666 41.9705 40.6196 42Z" fill="black"/>
<path d="M14.7696 42H7.37963C7.03262 41.9705 6.70934 41.8118 6.47374 41.5553C6.23815 41.2988 6.10742 40.9633 6.10742 40.615C6.10742 40.2667 6.23815 39.9312 6.47374 39.6747C6.70934 39.4182 7.03262 39.2595 7.37963 39.23H14.3096V8.77H7.37963C7.03262 8.74049 6.70934 8.58179 6.47374 8.32531C6.23815 8.06883 6.10742 7.73326 6.10742 7.385C6.10742 7.03674 6.23815 6.70117 6.47374 6.44469C6.70934 6.18821 7.03262 6.02951 7.37963 6H14.7696C15.3815 6.00263 15.9675 6.24685 16.4001 6.67949C16.8328 7.11213 17.077 7.69816 17.0796 8.31V39.69C17.0796 39.9934 17.0199 40.2937 16.9038 40.574C16.7877 40.8543 16.6175 41.1089 16.403 41.3234C16.1885 41.5379 15.9339 41.7081 15.6536 41.8242C15.3734 41.9403 15.073 42 14.7696 42Z" fill="black"/>
<path d="M23.9996 40.15C23.6336 40.15 23.2826 40.0046 23.0238 39.7458C22.765 39.487 22.6196 39.136 22.6196 38.77V9.23C22.6196 8.864 22.765 8.51299 23.0238 8.25419C23.2826 7.99539 23.6336 7.85 23.9996 7.85C24.3656 7.85 24.7166 7.99539 24.9754 8.25419C25.2342 8.51299 25.3796 8.864 25.3796 9.23V38.77C25.3796 38.9512 25.3439 39.1307 25.2746 39.2981C25.2052 39.4655 25.1036 39.6177 24.9754 39.7458C24.8473 39.874 24.6952 39.9756 24.5277 40.045C24.3603 40.1143 24.1809 40.15 23.9996 40.15Z" fill="black"/>
</svg>
