<svg width="48" height="48" viewBox="0 0 48 48" fill="none" xmlns="http://www.w3.org/2000/svg">
<path d="M40.62 42C40.4379 42.0013 40.2574 41.9666 40.0888 41.8978C39.9202 41.8291 39.7669 41.7276 39.6377 41.5994C39.5085 41.4711 39.406 41.3185 39.336 41.1504C39.266 40.9823 39.23 40.8021 39.23 40.62V33.69H8.77V40.62C8.74049 40.967 8.58179 41.2903 8.32531 41.5259C8.06883 41.7615 7.73326 41.8922 7.385 41.8922C7.03674 41.8922 6.70117 41.7615 6.44469 41.5259C6.18821 41.2903 6.02951 40.967 6 40.62V33.23C6 32.6173 6.24337 32.0298 6.67658 31.5966C7.10979 31.1634 7.69735 30.92 8.31 30.92H39.69C39.9934 30.92 40.2937 30.9797 40.574 31.0958C40.8543 31.2119 41.1089 31.3821 41.3234 31.5966C41.5379 31.8111 41.7081 32.0657 41.8242 32.346C41.9403 32.6263 42 32.9266 42 33.23V40.62C42 40.986 41.8546 41.337 41.5958 41.5958C41.337 41.8546 40.986 42 40.62 42Z" fill="black"/>
<path d="M39.69 17.08H8.31C7.69735 17.08 7.10979 16.8366 6.67658 16.4034C6.24337 15.9702 6 15.3826 6 14.77V7.38C6.02951 7.03299 6.18821 6.7097 6.44469 6.47411C6.70117 6.23852 7.03674 6.10779 7.385 6.10779C7.73326 6.10779 8.06883 6.23852 8.32531 6.47411C8.58179 6.7097 8.74049 7.03299 8.77 7.38V14.31H39.23V7.38C39.2595 7.03299 39.4182 6.7097 39.6747 6.47411C39.9312 6.23852 40.2667 6.10779 40.615 6.10779C40.9633 6.10779 41.2988 6.23852 41.5553 6.47411C41.8118 6.7097 41.9705 7.03299 42 7.38V14.77C42 15.0733 41.9403 15.3737 41.8242 15.654C41.7081 15.9343 41.5379 16.1889 41.3234 16.4034C41.1089 16.6179 40.8543 16.7881 40.574 16.9042C40.2937 17.0202 39.9934 17.08 39.69 17.08Z" fill="black"/>
<path d="M38.77 25.38H9.23C8.864 25.38 8.51299 25.2346 8.25419 24.9758C7.99539 24.717 7.85 24.366 7.85 24C7.85 23.634 7.99539 23.283 8.25419 23.0242C8.51299 22.7654 8.864 22.62 9.23 22.62H38.77C39.136 22.62 39.487 22.7654 39.7458 23.0242C40.0046 23.283 40.15 23.634 40.15 24C40.15 24.366 40.0046 24.717 39.7458 24.9758C39.487 25.2346 39.136 25.38 38.77 25.38Z" fill="black"/>
</svg>
