<svg width="48" height="48" viewBox="0 0 48 48" fill="none" xmlns="http://www.w3.org/2000/svg">
<path d="M39.43 42H32.57C31.6611 41.9974 30.7902 41.6351 30.1475 40.9925C29.5049 40.3498 29.1426 39.4789 29.14 38.57V9.43C29.1426 8.52112 29.5049 7.65022 30.1475 7.00754C30.7902 6.36486 31.6611 6.00264 32.57 6H39.43C40.1116 6 40.7653 6.27077 41.2473 6.75274C41.7292 7.2347 42 7.88839 42 8.57C42 9.25161 41.7292 9.9053 41.2473 10.3873C40.7653 10.8692 40.1116 11.14 39.43 11.14H34.29V36.86H39.43C40.1116 36.86 40.7653 37.1308 41.2473 37.6127C41.7292 38.0947 42 38.7484 42 39.43C42 40.1116 41.7292 40.7653 41.2473 41.2473C40.7653 41.7292 40.1116 42 39.43 42Z" fill="black"/>
<path d="M15.43 42H8.57C7.88839 42 7.2347 41.7292 6.75274 41.2473C6.27077 40.7653 6 40.1116 6 39.43C6 38.7484 6.27077 38.0947 6.75274 37.6127C7.2347 37.1308 7.88839 36.86 8.57 36.86H13.71V11.14H8.57C7.88839 11.14 7.2347 10.8692 6.75274 10.3873C6.27077 9.9053 6 9.25161 6 8.57C6 7.88839 6.27077 7.2347 6.75274 6.75274C7.2347 6.27077 7.88839 6 8.57 6H15.43C16.3389 6.00264 17.2098 6.36486 17.8525 7.00754C18.4951 7.65022 18.8574 8.52112 18.86 9.43V38.57C18.8574 39.4789 18.4951 40.3498 17.8525 40.9925C17.2098 41.6351 16.3389 41.9974 15.43 42Z" fill="black"/>
<path d="M24 40.29C23.3175 40.2874 22.6638 40.0144 22.1821 39.5308C21.7004 39.0472 21.43 38.3925 21.43 37.71V10.29C21.43 9.9525 21.4965 9.61831 21.6256 9.3065C21.7548 8.9947 21.9441 8.71138 22.1827 8.47273C22.4214 8.23409 22.7047 8.04478 23.0165 7.91563C23.3283 7.78647 23.6625 7.72 24 7.72C24.3375 7.72 24.6717 7.78647 24.9835 7.91563C25.2953 8.04478 25.5786 8.23409 25.8173 8.47273C26.0559 8.71138 26.2452 8.9947 26.3744 9.3065C26.5035 9.61831 26.57 9.9525 26.57 10.29V37.71C26.57 38.3925 26.2996 39.0472 25.8179 39.5308C25.3362 40.0144 24.6825 40.2874 24 40.29Z" fill="black"/>
</svg>
