<svg width="48" height="48" viewBox="0 0 48 48" fill="none" xmlns="http://www.w3.org/2000/svg">
<path d="M39.43 42C38.7484 42 38.0947 41.7292 37.6127 41.2473C37.1308 40.7653 36.86 40.1116 36.86 39.43V34.29H11.14V39.43C11.14 40.1116 10.8692 40.7653 10.3873 41.2473C9.9053 41.7292 9.25161 42 8.57 42C7.88839 42 7.2347 41.7292 6.75274 41.2473C6.27077 40.7653 6 40.1116 6 39.43V32.57C6.00264 31.6611 6.36486 30.7902 7.00754 30.1475C7.65022 29.5049 8.52112 29.1426 9.43 29.14H38.57C39.4789 29.1426 40.3498 29.5049 40.9925 30.1475C41.6351 30.7902 41.9974 31.6611 42 32.57V39.43C42 40.1116 41.7292 40.7653 41.2473 41.2473C40.7653 41.7292 40.1116 42 39.43 42Z" fill="black"/>
<path d="M38.57 18.86H9.43C8.52112 18.8574 7.65022 18.4951 7.00754 17.8525C6.36486 17.2098 6.00264 16.3389 6 15.43V8.57C6 7.88839 6.27077 7.2347 6.75274 6.75274C7.2347 6.27077 7.88839 6 8.57 6C9.25161 6 9.9053 6.27077 10.3873 6.75274C10.8692 7.2347 11.14 7.88839 11.14 8.57V13.71H36.86V8.57C36.86 7.88839 37.1308 7.2347 37.6127 6.75274C38.0947 6.27077 38.7484 6 39.43 6C40.1116 6 40.7653 6.27077 41.2473 6.75274C41.7292 7.2347 42 7.88839 42 8.57V15.43C41.9974 16.3389 41.6351 17.2098 40.9925 17.8525C40.3498 18.4951 39.4789 18.8574 38.57 18.86Z" fill="black"/>
<path d="M37.71 26.57H10.29C9.9525 26.57 9.61831 26.5035 9.3065 26.3744C8.9947 26.2452 8.71138 26.0559 8.47273 25.8173C8.23409 25.5786 8.04478 25.2953 7.91563 24.9835C7.78647 24.6717 7.72 24.3375 7.72 24C7.72 23.6625 7.78647 23.3283 7.91563 23.0165C8.04478 22.7047 8.23409 22.4214 8.47273 22.1827C8.71138 21.9441 8.9947 21.7548 9.3065 21.6256C9.61831 21.4965 9.9525 21.43 10.29 21.43H37.71C38.0475 21.43 38.3817 21.4965 38.6935 21.6256C39.0053 21.7548 39.2886 21.9441 39.5273 22.1827C39.7659 22.4214 39.9552 22.7047 40.0844 23.0165C40.2135 23.3283 40.28 23.6625 40.28 24C40.28 24.3375 40.2135 24.6717 40.0844 24.9835C39.9552 25.2953 39.7659 25.5786 39.5273 25.8173C39.2886 26.0559 39.0053 26.2452 38.6935 26.3744C38.3817 26.5035 38.0475 26.57 37.71 26.57Z" fill="black"/>
</svg>
