<svg width="48" height="48" viewBox="0 0 48 48" fill="none" xmlns="http://www.w3.org/2000/svg">
<path d="M5.47874 24.18L7.7394 21.9294C7.81386 21.8538 7.90262 21.7937 8.00051 21.7527C8.09839 21.7118 8.20345 21.6907 8.30957 21.6907C8.41569 21.6907 8.52075 21.7118 8.61863 21.7527C8.71652 21.7937 8.80528 21.8538 8.87974 21.9294L9.05979 22.1294L9.40989 21.7493L9.22984 21.5793C8.9842 21.3343 8.65146 21.1968 8.30457 21.1968C7.95768 21.1968 7.62494 21.3343 7.3793 21.5793L5.12864 23.8299L5.47874 24.18Z" fill="black"/>
<path d="M8.48962 22.6696L8.13952 22.3195L5.87886 24.5802C5.72487 24.724 5.52089 24.8022 5.3102 24.7982C5.0995 24.7942 4.89867 24.7082 4.75031 24.5585C4.60195 24.4089 4.51774 24.2073 4.51554 23.9966C4.51334 23.7858 4.59332 23.5825 4.73853 23.4298L6.6791 21.4793L6.32899 21.1292L4.37842 23.1297C4.13589 23.3766 4 23.7089 4 24.055C4 24.4011 4.13589 24.7334 4.37842 24.9803C4.62533 25.2228 4.95759 25.3587 5.30369 25.3587C5.64979 25.3587 5.98206 25.2228 6.22896 24.9803L8.48962 22.6696ZM10.7403 23.1297C10.4929 22.8842 10.1585 22.7464 9.81001 22.7464C9.46148 22.7464 9.12708 22.8842 8.87974 23.1297L6.62908 25.3304L6.98919 25.6805L9.23984 23.4298C9.3143 23.3542 9.40306 23.2942 9.50095 23.2532C9.59883 23.2122 9.70389 23.1911 9.81001 23.1911C9.91613 23.1911 10.0212 23.2122 10.1191 23.2532C10.217 23.2942 10.3057 23.3542 10.3802 23.4298C10.4561 23.5051 10.5163 23.5947 10.5575 23.6935C10.5986 23.7922 10.6197 23.8981 10.6197 24.005C10.6197 24.1119 10.5986 24.2178 10.5575 24.3165C10.5163 24.4152 10.4561 24.5048 10.3802 24.5802L8.43961 26.5207L8.78971 26.8708L10.7903 24.9303C11.0137 24.6806 11.133 24.3549 11.1237 24.02C11.1144 23.6852 10.9772 23.3666 10.7403 23.1297Z" fill="black"/>
<path d="M9.63996 23.8199L7.3793 26.1306C7.22758 26.2809 7.02267 26.3652 6.80913 26.3652C6.59559 26.3652 6.39068 26.2809 6.23897 26.1306L6.05891 25.9506L5.70881 26.3007L5.87886 26.4807C6.1262 26.7263 6.4606 26.8641 6.80913 26.8641C7.15767 26.8641 7.49206 26.7263 7.7394 26.4807L9.99006 24.13L9.63996 23.8199Z" fill="black"/>
<path d="M13.181 24.6102C13.2047 24.7411 13.276 24.8586 13.3811 24.9403C13.5078 25.0265 13.6579 25.0719 13.8112 25.0703C13.9535 25.0707 14.0927 25.0289 14.2113 24.9503C14.2557 24.9097 14.2912 24.8602 14.3153 24.8051C14.3394 24.7499 14.3517 24.6904 14.3513 24.6302C14.3649 24.5777 14.3649 24.5226 14.3513 24.4701C14.3226 24.4263 14.2852 24.3888 14.2413 24.3601L14.0813 24.2801L13.8612 24.2101L13.6011 24.13C13.4846 24.0955 13.3709 24.052 13.261 24C13.1647 23.9665 13.0738 23.9194 12.9909 23.8599C12.9232 23.7943 12.8689 23.7162 12.8309 23.6299C12.8117 23.5308 12.8117 23.4289 12.8309 23.3298C12.8289 23.2159 12.8528 23.103 12.9009 22.9997C12.9503 22.901 13.0182 22.8127 13.101 22.7396C13.1999 22.6694 13.3075 22.6123 13.4211 22.5696C13.5576 22.53 13.699 22.5098 13.8412 22.5096C14.0921 22.4944 14.3403 22.5688 14.5414 22.7196C14.6262 22.7883 14.6964 22.8733 14.7479 22.9695C14.7994 23.0656 14.8312 23.1711 14.8415 23.2798H14.3613C14.3409 23.1687 14.2804 23.069 14.1913 22.9997C14.0819 22.9275 13.9521 22.8924 13.8212 22.8997C13.7002 22.8974 13.5815 22.9323 13.4811 22.9997C13.4434 23.0317 13.4131 23.0716 13.3923 23.1165C13.3716 23.1614 13.3609 23.2103 13.361 23.2598C13.3505 23.3126 13.3505 23.367 13.361 23.4198C13.3901 23.4607 13.4277 23.4948 13.4711 23.5198C13.5189 23.5563 13.5732 23.5835 13.6311 23.5999L13.8512 23.6799L14.0613 23.7399C14.1774 23.7755 14.2911 23.8189 14.4014 23.87C14.4957 23.9097 14.5834 23.9637 14.6614 24.03C14.7341 24.0872 14.7895 24.1633 14.8215 24.2501C14.8663 24.347 14.8869 24.4535 14.8815 24.5602C14.8861 24.6851 14.8585 24.809 14.8015 24.9203C14.7513 25.0297 14.6759 25.1257 14.5814 25.2003C14.4794 25.2797 14.3643 25.3406 14.2413 25.3804C14.0997 25.4287 13.9508 25.4524 13.8012 25.4504C13.542 25.4565 13.2872 25.3832 13.071 25.2404C12.9703 25.1653 12.8857 25.0709 12.8222 24.9627C12.7586 24.8545 12.7174 24.7346 12.7009 24.6102H13.181ZM16.9021 22.5196C17.101 22.5155 17.2986 22.553 17.4823 22.6296C17.6551 22.696 17.8119 22.7983 17.9424 22.9297C18.0634 23.07 18.1613 23.2287 18.2325 23.3998C18.3006 23.596 18.3344 23.8024 18.3325 24.01C18.3357 24.2153 18.2983 24.4193 18.2225 24.6102C18.1504 24.7884 18.0452 24.9513 17.9124 25.0903L18.2925 25.5304V25.6705H17.8123L17.5423 25.3404C17.4488 25.3929 17.3475 25.4301 17.2422 25.4504C17.1293 25.4657 17.0149 25.4657 16.9021 25.4504C16.6992 25.4513 16.4983 25.4104 16.3119 25.3304C16.1395 25.264 15.9852 25.1577 15.8618 25.0203C15.7322 24.8903 15.6332 24.7331 15.5717 24.5602C15.503 24.3676 15.4691 24.1644 15.4717 23.96C15.4707 23.7557 15.5045 23.5527 15.5717 23.3598C15.6332 23.1869 15.7322 23.0297 15.8618 22.8997C15.9871 22.7644 16.1408 22.6585 16.3119 22.5896C16.5021 22.5274 16.7027 22.5036 16.9021 22.5196ZM16.9021 22.9497C16.7709 22.9463 16.6407 22.9737 16.522 23.0297C16.4111 23.0823 16.3124 23.1572 16.2319 23.2498C16.1527 23.3482 16.0917 23.46 16.0518 23.5799C16.0123 23.7164 15.9921 23.8578 15.9918 24C15.9906 24.143 16.0142 24.2852 16.0618 24.4201C16.1016 24.5431 16.1625 24.6582 16.2419 24.7602C16.3165 24.8547 16.4125 24.9301 16.522 24.9803C16.6438 25.0375 16.7775 25.0649 16.9121 25.0603C17.0433 25.0637 17.1735 25.0363 17.2922 24.9803C17.4051 24.9312 17.5046 24.8557 17.5823 24.7602C17.6626 24.6626 17.7237 24.5505 17.7623 24.4301C17.8026 24.2903 17.8228 24.1455 17.8224 24C17.8228 23.8578 17.8025 23.7163 17.7623 23.5799C17.7249 23.4559 17.6637 23.3404 17.5823 23.2398C17.499 23.1502 17.4009 23.0758 17.2922 23.0197C17.165 22.9692 17.0288 22.9454 16.8921 22.9497H16.9021ZM20.2231 25.1303C20.312 25.1343 20.4007 25.1195 20.4835 25.0867C20.5662 25.054 20.6411 25.0041 20.7032 24.9403C20.829 24.7742 20.8896 24.5678 20.8732 24.3601V22.5796H21.3734V24.3301C21.372 24.5097 21.3451 24.6882 21.2934 24.8602C21.2435 24.9954 21.165 25.1183 21.0633 25.2203C20.9618 25.3182 20.8383 25.3902 20.7032 25.4304C20.3769 25.5283 20.0291 25.5283 19.7029 25.4304C19.5668 25.3926 19.4427 25.3202 19.3428 25.2203C19.2411 25.1183 19.1626 24.9954 19.1127 24.8602C19.061 24.6882 19.0341 24.5097 19.0327 24.3301V22.5796H19.5329V24.3101C19.5165 24.5178 19.5771 24.7242 19.7029 24.8902C19.7645 24.9685 19.8437 25.0311 19.9341 25.0728C20.0245 25.1145 20.1236 25.1342 20.2231 25.1303ZM21.8635 25.3404L22.8638 22.6296H23.614L24.6143 25.3404V25.4304H24.1242L23.8341 24.6102H22.6238L22.3337 25.4304H21.8635V25.3404ZM22.7738 24.2401H23.7141L23.404 23.3498C23.404 23.2398 23.344 23.1397 23.314 23.0597H23.1839V23.1898L23.1239 23.3398L22.9939 23.4798L22.9038 23.7299L22.7738 24.2401ZM27.4252 25.4304H26.995L26.1248 24.3101H25.8047V25.4304H25.3145V22.5796H26.2448C26.3811 22.5646 26.5186 22.5646 26.6549 22.5796C26.7834 22.6005 26.9061 22.6482 27.015 22.7196C27.1249 22.7923 27.2141 22.8923 27.2737 23.0097C27.3333 23.1272 27.3614 23.2582 27.3551 23.3898C27.355 23.5058 27.3347 23.6209 27.2951 23.7299C27.2574 23.8223 27.2032 23.9071 27.1351 23.98C27.0749 24.0495 26.9996 24.1042 26.915 24.14C26.8347 24.188 26.7467 24.2218 26.6549 24.2401L27.4752 25.2404L27.4252 25.4304ZM25.7547 23.88H26.1948C26.3524 23.8879 26.5088 23.8496 26.6449 23.7699C26.6995 23.7327 26.7432 23.6815 26.7713 23.6217C26.7995 23.5619 26.8111 23.4956 26.805 23.4298C26.8049 23.3694 26.7893 23.31 26.7595 23.2574C26.7297 23.2048 26.6868 23.1608 26.6349 23.1297C26.4978 23.0633 26.3472 23.0291 26.1948 23.0297H25.7547V23.88ZM28.0653 22.5796H29.9159V23.0097H28.5555V23.7599H29.8159V24.19H28.5555V24.9903H29.9359V25.4304H28.0653V22.5796ZM31.0662 24.5802C31.076 24.6457 31.0988 24.7086 31.1331 24.7653C31.1675 24.822 31.2127 24.8712 31.2663 24.9103C31.393 24.9965 31.5431 25.0419 31.6964 25.0403C31.8387 25.0407 31.9779 24.9989 32.0965 24.9203C32.141 24.8797 32.1764 24.8302 32.2005 24.7751C32.2246 24.7199 32.2369 24.6603 32.2366 24.6002C32.2501 24.5477 32.2501 24.4926 32.2366 24.4401C32.2079 24.3962 32.1704 24.3588 32.1265 24.3301L31.9665 24.2501L31.7464 24.18L31.4663 24.13C31.3496 24.1003 31.2358 24.0602 31.1262 24.01C31.0324 23.9651 30.9449 23.9079 30.8662 23.8399C30.8007 23.7724 30.7467 23.6947 30.7061 23.6099C30.664 23.5102 30.6423 23.403 30.6423 23.2948C30.6423 23.1865 30.664 23.0794 30.7061 22.9797C30.7487 22.8769 30.8177 22.7871 30.9062 22.7196C31.0002 22.6418 31.1091 22.584 31.2263 22.5496C31.3627 22.5093 31.5042 22.4891 31.6464 22.4895C31.8971 22.4761 32.1447 22.5503 32.3466 22.6996C32.4314 22.7683 32.5016 22.8533 32.5531 22.9494C32.6046 23.0456 32.6364 23.1511 32.6467 23.2598H32.1665C32.1339 23.1706 32.0745 23.0938 31.9965 23.0397C31.8871 22.9675 31.7573 22.9324 31.6264 22.9397C31.5048 22.9322 31.3844 22.9676 31.2863 23.0397C31.2475 23.0708 31.2164 23.1104 31.1956 23.1556C31.1747 23.2007 31.1647 23.2501 31.1662 23.2998C31.156 23.3493 31.156 23.4003 31.1662 23.4498C31.1922 23.4958 31.2303 23.5339 31.2763 23.5599C31.3241 23.5963 31.3784 23.6235 31.4363 23.6399L31.6564 23.7199L31.8565 23.7799C31.9764 23.8139 32.0935 23.8574 32.2066 23.91C32.3009 23.9497 32.3886 24.0037 32.4666 24.07C32.5338 24.1283 32.5883 24.1998 32.6267 24.2801C32.6666 24.382 32.687 24.4906 32.6867 24.6002C32.6852 24.7244 32.6579 24.847 32.6067 24.9603C32.5565 25.0697 32.4811 25.1657 32.3866 25.2404C32.2846 25.3197 32.1695 25.3806 32.0465 25.4204C31.9033 25.4606 31.7552 25.4808 31.6064 25.4804C31.3482 25.4901 31.0933 25.4203 30.8762 25.2804C30.7738 25.207 30.688 25.1131 30.6243 25.0045C30.5605 24.896 30.5203 24.7753 30.5061 24.6502L31.0662 24.5802ZM33.4669 22.5796H34.4672C34.6329 22.5693 34.7991 22.5896 34.9574 22.6396C35.0775 22.6769 35.1872 22.742 35.2775 22.8296C35.3582 22.9061 35.417 23.0028 35.4475 23.1097C35.4882 23.2219 35.5086 23.3405 35.5075 23.4598C35.5059 23.5905 35.4788 23.7197 35.4275 23.8399C35.3819 23.9494 35.3097 24.0457 35.2174 24.12C35.1145 24.1932 34.9993 24.2474 34.8773 24.2801C34.7295 24.3126 34.5786 24.3294 34.4272 24.3301H33.9971V25.4304H33.4969L33.4669 22.5796ZM33.9971 23.9H34.4672C34.5469 23.9096 34.6276 23.9096 34.7073 23.9C34.7745 23.8888 34.839 23.8651 34.8973 23.8299C34.9447 23.7868 34.9793 23.7314 34.9974 23.6699C35.0111 23.6005 35.0111 23.5292 34.9974 23.4598C35.0125 23.3873 35.0125 23.3123 34.9974 23.2398C34.9617 23.191 34.9132 23.1529 34.8573 23.1297C34.7995 23.0934 34.7348 23.0696 34.6673 23.0597C34.5875 23.0501 34.5069 23.0501 34.4272 23.0597H33.9371L33.9971 23.9ZM35.7076 25.2904L36.7079 22.5796H37.4581L38.4584 25.2904V25.4304H37.9682L37.6782 24.6102H36.4078L36.1277 25.4304H35.6576L35.7076 25.2904ZM36.6178 24.19H37.5581L37.248 23.2998L37.158 23.0097H36.998V23.1397C37.0022 23.1897 37.0022 23.2399 36.998 23.2898C36.998 23.3498 36.998 23.4098 36.9279 23.4798C36.9053 23.5657 36.8752 23.6493 36.8379 23.7299L36.6178 24.19ZM41.4993 24.6702C41.4566 24.7838 41.3994 24.8913 41.3292 24.9903C41.2518 25.0863 41.1608 25.1705 41.0591 25.2404C40.9499 25.3199 40.8282 25.3807 40.699 25.4204C40.5524 25.4607 40.401 25.4809 40.2489 25.4804C40.0496 25.4894 39.8509 25.4518 39.6687 25.3704C39.4994 25.3036 39.3485 25.1973 39.2286 25.0603C39.0967 24.9283 38.9973 24.7673 38.9385 24.5902C38.8698 24.4046 38.8359 24.2079 38.8385 24.01C38.8351 23.8088 38.869 23.6087 38.9385 23.4198C38.9997 23.2408 39.0986 23.0771 39.2286 22.9397C39.3511 22.8056 39.5012 22.6998 39.6687 22.6296C39.8574 22.5584 40.0572 22.5212 40.2589 22.5196C40.5353 22.5119 40.8075 22.5887 41.0391 22.7396C41.247 22.8802 41.4047 23.0835 41.4893 23.3198L40.9791 23.4198C40.9173 23.2781 40.8168 23.1568 40.689 23.0697C40.5583 22.985 40.4045 22.943 40.2489 22.9497C40.1177 22.9463 39.9875 22.9737 39.8688 23.0297C39.7609 23.0825 39.6655 23.1575 39.5887 23.2498C39.5163 23.3545 39.459 23.4691 39.4187 23.5899C39.3784 23.7228 39.3582 23.8611 39.3586 24C39.3575 24.1422 39.3777 24.2839 39.4187 24.4201C39.4573 24.5405 39.5184 24.6525 39.5987 24.7502C39.6764 24.8457 39.7759 24.9212 39.8888 24.9703C40.0075 25.0263 40.1377 25.0537 40.2689 25.0503C40.4322 25.0569 40.5933 25.0113 40.729 24.9203C40.8418 24.8309 40.9339 24.7183 40.9991 24.5902L41.4993 24.6702ZM42.1795 22.5796H44V23.0097H42.6096V23.7599H43.88V24.19H42.6096V24.9903H44V25.4304H42.1295L42.1795 22.5796Z" fill="black"/>
</svg>
