<svg width="48" height="48" viewBox="0 0 48 48" fill="none" xmlns="http://www.w3.org/2000/svg">
<path d="M13.6061 24.9175L24.9562 13.5276C25.724 12.7656 26.7619 12.3381 27.8436 12.3381C28.9253 12.3381 29.9631 12.7656 30.7309 13.5276L31.6186 14.4152L33.3839 12.6399L32.5062 11.7522C31.894 11.1398 31.1671 10.6539 30.3671 10.3224C29.5671 9.99091 28.7095 9.82029 27.8436 9.82029C26.9776 9.82029 26.12 9.99091 25.32 10.3224C24.52 10.6539 23.7931 11.1398 23.1809 11.7522L11.8308 23.1422L13.6061 24.9175Z" fill="black"/>
<path d="M28.7661 17.3076L27.0407 15.5223L15.6308 26.8923C15.2558 27.2927 14.8041 27.6135 14.3025 27.8357C13.801 28.0579 13.2599 28.1769 12.7114 28.1857C12.1629 28.1944 11.6182 28.0927 11.1098 27.8866C10.6015 27.6805 10.1397 27.3742 9.75219 26.986C9.36463 26.5978 9.05914 26.1355 8.85392 25.6268C8.64869 25.118 8.54793 24.5732 8.55762 24.0247C8.56731 23.4763 8.68726 22.9353 8.91032 22.4342C9.13339 21.933 9.45501 21.4818 9.85604 21.1075L19.6502 11.3034L17.8848 9.53809L8.0907 19.3422C7.44912 19.9419 6.93383 20.6638 6.57509 21.4654C6.21635 22.267 6.02139 23.1322 6.00165 24.0102C5.98191 24.8882 6.1378 25.7613 6.46016 26.5782C6.78252 27.3951 7.26485 28.1394 7.87883 28.7674C8.49281 29.3953 9.22607 29.8942 10.0355 30.2349C10.845 30.5755 11.7144 30.751 12.5926 30.751C13.4708 30.751 14.3402 30.5755 15.1497 30.2348C15.9591 29.8942 16.6924 29.3953 17.3064 28.7673L17.4161 28.6676L28.7661 17.3076ZM40.0763 19.3023C39.464 18.6898 38.7372 18.204 37.9371 17.8725C37.1371 17.541 36.2796 17.3704 35.4136 17.3704C34.5476 17.3704 33.6901 17.541 32.89 17.8725C32.09 18.204 31.3631 18.6898 30.7509 19.3023L19.3909 30.7022L21.1562 32.4775L32.5162 21.1075C33.0899 20.5401 33.8184 20.1547 34.6102 19.9995C35.4021 19.8443 36.2221 19.9262 36.9676 20.2351C37.7131 20.5439 38.3508 21.0659 38.8009 21.7356C39.251 22.4053 39.4934 23.193 39.4978 23.9999C39.5023 24.5385 39.3977 25.0725 39.1903 25.5696C38.9829 26.0667 38.677 26.5166 38.291 26.8923L28.4968 36.6964L30.2721 38.4617L40.0763 28.6676C41.3084 27.4286 42 25.7522 42 24.0049C42 22.2575 41.3084 20.5812 40.0763 19.3422V19.3023Z" fill="black"/>
<path d="M34.5508 23.0923L23.1908 34.4723C22.4213 35.2348 21.3818 35.6626 20.2985 35.6626C19.2151 35.6626 18.1756 35.2348 17.4061 34.4723L16.5185 33.5846L14.7531 35.33L15.6308 36.2177C16.243 36.8301 16.9699 37.316 17.7699 37.6475C18.57 37.979 19.4275 38.1496 20.2935 38.1496C21.1595 38.1496 22.017 37.979 22.817 37.6475C23.6171 37.316 24.344 36.8301 24.9562 36.2177L36.3162 24.8477L34.5508 23.0923Z" fill="black"/>
</svg>
