<svg width="48" height="48" viewBox="0 0 48 48" fill="none" xmlns="http://www.w3.org/2000/svg">
<path d="M15 24.07L15.39 23.68H14.6V22.75H14.19V25.75C14.1798 25.8489 14.1911 25.9488 14.2231 26.043C14.2551 26.1371 14.3071 26.2232 14.3754 26.2954C14.4438 26.3675 14.527 26.4241 14.6193 26.4611C14.7115 26.4982 14.8107 26.5148 14.91 26.51H15.21V26.1H15C14.73 26.1 14.61 25.94 14.61 25.68V24.07H15ZM36.5 25.57V22.35H35.8V25.61C35.7941 25.724 35.8124 25.838 35.8537 25.9445C35.895 26.0509 35.9583 26.1474 36.0395 26.2277C36.1207 26.308 36.218 26.3702 36.3249 26.4102C36.4319 26.4502 36.546 26.4672 36.66 26.46H37.08V25.83H36.8C36.61 25.83 36.54 25.74 36.54 25.57H36.5ZM43.22 23.5L42.75 25.33L42.14 23.5H41.6L41 25.33L40.52 23.5H39.74L40.65 26.5H41.25L41.87 24.64L42.49 26.5H43.1L44 23.5H43.22ZM38.83 25.7C38.7381 25.7863 38.616 25.833 38.49 25.83C38.4275 25.8326 38.3651 25.8224 38.3066 25.8001C38.2481 25.7777 38.1948 25.7437 38.15 25.7C38.0153 25.4932 37.9619 25.2438 38 25C37.9625 24.7471 38.0234 24.4894 38.17 24.28C38.2148 24.2363 38.2681 24.2023 38.3266 24.1799C38.3851 24.1576 38.4475 24.1474 38.51 24.15C38.636 24.147 38.7581 24.1937 38.85 24.28C38.9896 24.4922 39.0433 24.7497 39 25C39.0323 25.2463 38.9717 25.4959 38.83 25.7ZM38.49 23.47C38.3201 23.4632 38.1506 23.4916 37.9923 23.5536C37.8339 23.6155 37.6901 23.7097 37.57 23.83C37.438 23.9921 37.3406 24.1796 37.2838 24.3808C37.2271 24.5821 37.2121 24.7928 37.24 25C37.2149 25.204 37.2312 25.411 37.2879 25.6086C37.3446 25.8062 37.4406 25.9903 37.57 26.15C37.8182 26.382 38.1453 26.511 38.485 26.511C38.8247 26.511 39.1518 26.382 39.4 26.15C39.5332 25.9923 39.6323 25.8087 39.6908 25.6107C39.7493 25.4127 39.7661 25.2048 39.74 25C39.7661 24.7952 39.7493 24.5872 39.6908 24.3893C39.6323 24.1913 39.5332 24.0077 39.4 23.85C39.2831 23.7268 39.1418 23.6294 38.9851 23.564C38.8284 23.4985 38.6598 23.4665 38.49 23.47ZM34.17 23.19V26.45H34.91V24.12H35.45V23.56H34.91V23.24C34.9099 23.2067 34.9167 23.1738 34.93 23.1433C34.9433 23.1128 34.9628 23.0854 34.9872 23.0628C35.0117 23.0402 35.0405 23.023 35.072 23.0122C35.1035 23.0014 35.1368 22.9972 35.17 23H35.45V22.35H35C34.889 22.3457 34.7783 22.3645 34.675 22.4054C34.5717 22.4462 34.478 22.5081 34.3999 22.5871C34.3218 22.6661 34.2611 22.7605 34.2215 22.8643C34.1819 22.9681 34.1644 23.0791 34.17 23.19ZM32.5 23.79V23.5H31.78V26.5H32.52V24.68C32.5116 24.6116 32.5176 24.5423 32.5378 24.4764C32.558 24.4105 32.5918 24.3497 32.6371 24.2978C32.6824 24.2459 32.7382 24.2041 32.8007 24.1752C32.8632 24.1463 32.9311 24.1309 33 24.13C33.0746 24.1269 33.1489 24.1415 33.2168 24.1728C33.2846 24.2041 33.344 24.2512 33.39 24.31L33.95 23.75C33.8618 23.6538 33.7531 23.5787 33.6319 23.5302C33.5107 23.4818 33.3802 23.4612 33.25 23.47C33.1112 23.4691 32.9737 23.497 32.8463 23.5521C32.7189 23.6072 32.6044 23.6882 32.51 23.79H32.5ZM29.56 24.7C29.5618 24.593 29.5856 24.4874 29.63 24.39C29.6705 24.2947 29.7391 24.214 29.8267 24.1586C29.9142 24.1032 30.0165 24.0758 30.12 24.08C30.2249 24.0751 30.3288 24.1022 30.4181 24.1575C30.5073 24.2128 30.5777 24.2939 30.62 24.39C30.6609 24.4882 30.6813 24.5937 30.68 24.7H29.56ZM30.12 23.47C29.36 23.47 28.84 24.01 28.84 24.98C28.84 26.17 29.5 26.49 30.2 26.49C30.4132 26.4991 30.6256 26.4598 30.8213 26.3749C31.0171 26.29 31.191 26.1618 31.33 26L30.88 25.56C30.7973 25.655 30.6939 25.7296 30.5777 25.7782C30.4615 25.8268 30.3357 25.8479 30.21 25.84C30.1222 25.8461 30.0341 25.8331 29.9518 25.8019C29.8695 25.7708 29.795 25.7222 29.7332 25.6595C29.6715 25.5968 29.624 25.5215 29.5941 25.4387C29.5642 25.3559 29.5526 25.2677 29.56 25.18H31.41V24.88C31.43 24.7002 31.4113 24.5181 31.3552 24.3461C31.2991 24.174 31.2069 24.0159 31.0848 23.8824C30.9626 23.7489 30.8134 23.6431 30.647 23.5719C30.4806 23.5008 30.3009 23.466 30.12 23.47ZM28.12 23.47L27.5 25.33L26.89 23.5H26.12L27.21 26.5H27.79L28.87 23.5L28.12 23.47ZM25.22 25.7C25.1733 25.7439 25.1183 25.7781 25.0582 25.8004C24.998 25.8228 24.9341 25.8328 24.87 25.83C24.7442 25.8319 24.6224 25.7854 24.53 25.7C24.3883 25.4959 24.3277 25.2463 24.36 25C24.3225 24.7471 24.3834 24.4894 24.53 24.28C24.6224 24.1946 24.7442 24.1481 24.87 24.15C24.9341 24.1472 24.998 24.1572 25.0582 24.1796C25.1183 24.2019 25.1733 24.2361 25.22 24.28C25.3666 24.4894 25.4275 24.7471 25.39 25C25.4223 25.2463 25.3617 25.4959 25.22 25.7ZM24.87 23.47C24.7017 23.4639 24.5339 23.4928 24.3773 23.5548C24.2207 23.6167 24.0786 23.7104 23.96 23.83C23.8258 23.9909 23.7271 24.1782 23.6703 24.3798C23.6134 24.5814 23.5997 24.7927 23.63 25C23.6108 25.2037 23.6337 25.4091 23.6974 25.6035C23.7611 25.7979 23.8641 25.9771 24 26.13C24.2482 26.362 24.5753 26.491 24.915 26.491C25.2547 26.491 25.5818 26.362 25.83 26.13C25.9536 25.9716 26.0439 25.7898 26.0955 25.5957C26.147 25.4015 26.1588 25.1988 26.13 25C26.1561 24.7952 26.1393 24.5872 26.0808 24.3893C26.0223 24.1913 25.9232 24.0077 25.79 23.85C25.6716 23.7261 25.5286 23.6282 25.3702 23.5628C25.2117 23.4973 25.0414 23.4657 24.87 23.47ZM22.92 23.62H22.41L21.12 24.87V22.35H20.71V26.46H21.12V25.46L21.62 24.96L22.62 26.5H23.13L21.91 24.63L22.92 23.62ZM19.37 24C19.496 23.9976 19.6208 24.0254 19.7338 24.0811C19.8469 24.1368 19.945 24.2187 20.02 24.32L20.3 24C20.1873 23.8644 20.0446 23.7568 19.8832 23.6856C19.7218 23.6145 19.5462 23.5817 19.37 23.59C18.65 23.59 18.11 24.07 18.11 25.04C18.11 26.01 18.65 26.49 19.37 26.49C19.5474 26.5003 19.7247 26.4675 19.8866 26.3944C20.0486 26.3212 20.1904 26.2099 20.3 26.07L20 25.8C19.9262 25.9026 19.8283 25.9854 19.715 26.0412C19.6016 26.097 19.4763 26.1241 19.35 26.12C19.2222 26.1249 19.0951 26.0982 18.98 26.0424C18.8649 25.9866 18.7653 25.9034 18.69 25.8C18.5464 25.5596 18.4899 25.2771 18.53 25C18.5051 24.7338 18.5683 24.4668 18.71 24.24C18.7926 24.1499 18.8957 24.081 19.0106 24.0392C19.1255 23.9974 19.2488 23.984 19.37 24ZM17.37 25.5C17.3801 25.5876 17.372 25.6763 17.3462 25.7607C17.3204 25.845 17.2774 25.9231 17.22 25.99C17.1345 26.0645 17.0341 26.12 16.9254 26.1528C16.8168 26.1855 16.7025 26.1948 16.59 26.18C16.14 26.18 15.94 26.03 15.94 25.7C15.94 25.37 16.15 25.2 16.57 25.2H17.37V25.5ZM16.65 23.64C16.4632 23.6182 16.2739 23.6433 16.0993 23.7132C15.9247 23.783 15.7702 23.8954 15.65 24.04L15.93 24.32C16.0048 24.2032 16.1113 24.1102 16.237 24.0518C16.3628 23.9933 16.5025 23.9719 16.64 23.99C17.16 23.99 17.37 24.2 17.37 24.62V24.89H16.51C15.88 24.89 15.51 25.21 15.51 25.71C15.5061 25.9214 15.5851 26.126 15.73 26.28C15.8365 26.3788 15.9632 26.4533 16.1013 26.4982C16.2395 26.5431 16.3858 26.5574 16.53 26.54C16.6805 26.5553 16.8324 26.5362 16.9745 26.4842C17.1165 26.4323 17.2449 26.3488 17.35 26.24V26.51H17.76V24.53C17.76 23.91 17.39 23.59 16.63 23.59L16.65 23.64ZM13.06 24.86H12.6C12.24 24.86 12.11 24.69 12.11 24.44C12.11 24.19 12.32 23.98 12.74 23.98C13.0102 23.9712 13.2763 24.0482 13.5 24.2L13.77 23.93C13.4796 23.721 13.1275 23.6154 12.77 23.63C12.16 23.63 11.77 23.94 11.77 24.46C11.77 24.98 12.07 25.17 12.62 25.22H13.09C13.42 25.22 13.56 25.38 13.56 25.63C13.56 25.88 13.27 26.13 12.8 26.13C12.6392 26.1395 12.4782 26.1161 12.3269 26.061C12.1756 26.006 12.0371 25.9206 11.92 25.81L11.65 26.08C11.8051 26.2239 11.9881 26.3345 12.1876 26.405C12.3871 26.4755 12.5989 26.5045 12.81 26.49C13.5 26.49 13.96 26.17 13.96 25.63C13.96 25.09 13.62 24.91 13.13 24.86" fill="black"/>
<path d="M9.6 27.16V25.05H10.3V27.86H4V25.05H4.7V27.16H9.6Z" fill="black"/>
<path d="M5.4 26.45H8.91V25.75H5.4V26.45ZM8.54 20L8 20.42L10.07 23.23L10.64 22.81L8.54 20ZM6.81 21.66L9.5 23.9L10 23.36L7.25 21.12L6.81 21.66ZM5.93 23.22L9.1 24.7L9.4 24.06L6.22 22.58L5.93 23.22ZM5.47 24.86L8.9 25.58L9.05 24.89L5.62 24.17L5.47 24.86Z" fill="black"/>
</svg>
