<svg width="48" height="48" viewBox="0 0 48 48" fill="none" xmlns="http://www.w3.org/2000/svg">
<path d="M14.88 20.84C19.0181 18.9435 23.5286 17.9986 28.0799 18.0748C32.6313 18.1509 37.1077 19.2462 41.18 21.28C41.2846 21.3452 41.4027 21.3857 41.5253 21.3984C41.6479 21.4111 41.7718 21.3956 41.8875 21.3532C42.0032 21.3108 42.1078 21.2425 42.1931 21.1536C42.2785 21.0646 42.3424 20.9574 42.38 20.84L43.92 16.13C43.9705 16.0079 43.9964 15.8771 43.9961 15.745C43.9957 15.6129 43.9692 15.4821 43.9181 15.3603C43.867 15.2385 43.7922 15.1281 43.6981 15.0353C43.604 14.9426 43.4925 14.8694 43.37 14.82C37.1761 11.7756 30.2584 10.5113 23.388 11.1682C16.5177 11.825 9.96484 14.3771 4.46 18.54C4.23444 18.6998 4.07662 18.938 4.01744 19.2081C3.95826 19.4781 4.00196 19.7605 4.14 20L7.75 28C7.85956 28.271 8.06905 28.4896 8.33519 28.6106C8.60132 28.7316 8.90376 28.7457 9.18 28.65C14.4732 26.592 20.1846 25.8408 25.83 26.46C22.1066 27.1051 18.5378 28.4451 15.31 30.41C15.1002 30.566 14.9535 30.7922 14.8966 31.0474C14.8397 31.3025 14.8764 31.5696 15 31.8L17.19 36.8C17.2339 36.8998 17.3011 36.9876 17.386 37.0559C17.471 37.1243 17.5711 37.1712 17.6779 37.1928C17.7848 37.2144 17.8953 37.2099 18 37.1798C18.1048 37.1498 18.2008 37.095 18.28 37.02C19.0328 36.2503 19.8795 35.5784 20.8 35.02C25.3248 32.5587 30.4635 31.4546 35.6 31.84C35.8401 31.8512 36.0771 31.7827 36.2742 31.6453C36.4713 31.5079 36.6175 31.3091 36.69 31.08L38.34 26.14C38.4494 25.907 38.4646 25.6408 38.3827 25.3968C38.3007 25.1528 38.1278 24.9498 37.9 24.83C30.9238 20.7533 22.7089 19.3362 14.77 20.84H14.88Z" fill="black"/>
</svg>
