<svg width="48" height="48" viewBox="0 0 48 48" fill="none" xmlns="http://www.w3.org/2000/svg">
<path d="M7.15781 23.0473C8.34708 22.5094 9.64196 22.2453 10.9469 22.2747C12.2518 22.3041 13.5335 22.6261 14.6974 23.217C14.7293 23.2312 14.7639 23.238 14.7988 23.2368C14.8336 23.2355 14.8677 23.2264 14.8985 23.21C14.9293 23.1937 14.956 23.1705 14.9765 23.1423C14.997 23.1141 15.0109 23.0816 15.0169 23.0473L15.4563 21.6892C15.4708 21.6545 15.4782 21.6172 15.4779 21.5797C15.4777 21.5421 15.4699 21.505 15.455 21.4705C15.44 21.436 15.4183 21.4048 15.3911 21.3789C15.3639 21.353 15.3317 21.3329 15.2966 21.3197C13.5234 20.4505 11.5438 20.0902 9.5781 20.2788C7.61236 20.4674 5.73748 21.1976 4.16195 22.3882C4.09155 22.4264 4.03869 22.4904 4.01448 22.5667C3.99027 22.6431 3.9966 22.7258 4.03213 22.7976L5.03075 25.0945C5.06192 25.172 5.12225 25.2343 5.19879 25.2679C5.27533 25.3015 5.36199 25.3037 5.44018 25.2742C6.9575 24.6834 8.59501 24.4676 10.2136 24.6451C9.15429 24.8401 8.13921 25.2258 7.21773 25.7835C7.158 25.8372 7.12149 25.912 7.1159 25.9921C7.11031 26.0723 7.13608 26.1514 7.18777 26.2129L7.8169 27.6609C7.83067 27.688 7.85045 27.7116 7.87474 27.73C7.89902 27.7483 7.92717 27.7608 7.95703 27.7666C7.98689 27.7724 8.01768 27.7712 8.04704 27.7633C8.07641 27.7554 8.10357 27.7408 8.12647 27.7208C8.34501 27.5017 8.58988 27.3105 8.85546 27.1516C10.15 26.436 11.624 26.11 13.0996 26.2129C13.1686 26.2177 13.2372 26.1984 13.2936 26.1583C13.3501 26.1183 13.3909 26.0599 13.4092 25.9932L13.8785 24.5752C13.9012 24.5104 13.9017 24.44 13.88 24.3749C13.8583 24.3099 13.8157 24.2538 13.7587 24.2157C11.7599 23.034 9.39992 22.6188 7.11786 23.0473H7.15781Z" fill="black"/>
<path d="M25.0032 26.5025H24.374C24.3254 26.5026 24.2786 26.484 24.2433 26.4505C24.208 26.4171 24.1868 26.3713 24.1843 26.3228V22.5779H22.6264C22.6015 22.5779 22.5768 22.573 22.5538 22.5635C22.5308 22.554 22.5099 22.54 22.4923 22.5224C22.4747 22.5047 22.4607 22.4838 22.4511 22.4608C22.4416 22.4378 22.4367 22.4131 22.4367 22.3882V21.819C22.4352 21.7937 22.4392 21.7684 22.4482 21.7447C22.4572 21.721 22.4711 21.6995 22.489 21.6816C22.507 21.6637 22.5285 21.6498 22.5521 21.6407C22.5758 21.6317 22.6011 21.6278 22.6264 21.6292H26.7707C26.7989 21.6209 26.8287 21.6197 26.8575 21.6256C26.8864 21.6315 26.9133 21.6444 26.936 21.6631C26.9586 21.6818 26.9764 21.7058 26.9876 21.733C26.9988 21.7602 27.0032 21.7897 27.0004 21.819V22.3882C26.998 22.4377 26.9772 22.4846 26.9421 22.5197C26.9071 22.5547 26.8602 22.5755 26.8107 22.5779H25.2029V26.2828C25.2043 26.3081 25.2004 26.3334 25.1914 26.3571C25.1824 26.3808 25.1684 26.4023 25.1505 26.4202C25.1326 26.4381 25.1111 26.452 25.0874 26.4611C25.0638 26.4701 25.0384 26.474 25.0131 26.4725L25.0032 26.5025ZM18.0128 26.5025C17.9882 26.5001 17.9643 26.4927 17.9427 26.4806C17.921 26.4686 17.9021 26.4522 17.8871 26.4325C17.8721 26.4128 17.8614 26.3903 17.8555 26.3662C17.8496 26.3422 17.8488 26.3172 17.853 26.2928V25.7236C17.8503 25.7005 17.8523 25.6771 17.8589 25.6548C17.8656 25.6325 17.8768 25.6118 17.8917 25.594C17.9067 25.5762 17.9252 25.5617 17.946 25.5514C17.9668 25.541 17.9896 25.535 18.0128 25.5338H21.0087C21.0539 25.5395 21.0998 25.5355 21.1433 25.522C21.1868 25.5085 21.2269 25.4859 21.2609 25.4556C21.295 25.4254 21.3222 25.3882 21.3407 25.3466C21.3591 25.3049 21.3685 25.2598 21.3682 25.2143V24.8049C21.3657 24.7606 21.3543 24.7174 21.3347 24.6777C21.3151 24.6379 21.2877 24.6026 21.2542 24.5737C21.2206 24.5448 21.1816 24.523 21.1394 24.5095C21.0972 24.496 21.0528 24.4912 21.0087 24.4953H19.0114C18.6102 24.5497 18.2033 24.4497 17.873 24.2157C17.7489 24.0695 17.6572 23.8987 17.6038 23.7146C17.5504 23.5304 17.5367 23.337 17.5634 23.1471V23.0473C17.5424 22.8684 17.559 22.6872 17.6124 22.5152C17.6657 22.3431 17.7545 22.1842 17.873 22.0487C18.0245 21.907 18.2043 21.7991 18.4005 21.7319C18.5967 21.6648 18.8049 21.64 19.0114 21.6592H21.7477C21.7733 21.6559 21.7994 21.6586 21.8239 21.667C21.8484 21.6754 21.8707 21.6893 21.889 21.7076C21.9073 21.7259 21.9212 21.7481 21.9296 21.7726C21.938 21.7971 21.9406 21.8232 21.9374 21.8489V22.4181C21.9374 22.4685 21.9174 22.5167 21.8818 22.5523C21.8462 22.5879 21.798 22.6079 21.7477 22.6079H18.8517C18.7686 22.6078 18.6888 22.6401 18.6291 22.6979C18.5695 22.7557 18.5347 22.8344 18.5321 22.9175V23.2969C18.5321 23.3817 18.5658 23.463 18.6257 23.5229C18.6856 23.5828 18.7669 23.6165 18.8517 23.6165H20.8489C21.0549 23.5914 21.2639 23.6086 21.463 23.667C21.6622 23.7254 21.8474 23.8237 22.0073 23.956C22.2376 24.2353 22.3488 24.594 22.3169 24.9546V25.0845C22.3472 25.2837 22.3354 25.4872 22.282 25.6816C22.2287 25.876 22.1351 26.057 22.0073 26.2129C21.8448 26.3352 21.6595 26.4238 21.4623 26.4735C21.2651 26.5232 21.0599 26.5331 20.8589 26.5025H18.0128ZM35.988 22.2184C35.7575 22.0147 35.4885 21.8594 35.1969 21.7616C34.9053 21.6638 34.597 21.6256 34.2903 21.6492H32.0934C32.0677 21.646 32.0416 21.6486 32.0171 21.657C31.9926 21.6654 31.9703 21.6793 31.952 21.6976C31.9337 21.7159 31.9198 21.7382 31.9114 21.7627C31.903 21.7872 31.9004 21.8133 31.9036 21.8389V26.3128C31.9021 26.3341 31.9053 26.3556 31.9128 26.3756C31.9203 26.3957 31.932 26.4139 31.9471 26.429C31.9623 26.4442 31.9805 26.4559 32.0005 26.4634C32.0206 26.4709 32.042 26.474 32.0634 26.4725H34.2903C34.597 26.4962 34.9053 26.458 35.1969 26.3602C35.4885 26.2624 35.7575 26.107 35.988 25.9033C36.2131 25.6625 36.3812 25.3741 36.4798 25.0595C36.5783 24.7449 36.6048 24.4121 36.5572 24.0858C36.6067 23.7518 36.5813 23.411 36.4829 23.088C36.3844 22.7651 36.2154 22.468 35.988 22.2184ZM35.5486 24.1058C35.5486 24.7349 35.5486 25.0146 35.269 25.2642C35.1332 25.383 34.9746 25.4726 34.8028 25.5276C34.631 25.5825 34.4498 25.6017 34.2703 25.5838H32.9122V22.5879H34.2903C34.47 22.5642 34.6528 22.5805 34.8254 22.6358C34.9981 22.691 35.1564 22.7838 35.2889 22.9075C35.5386 23.1272 35.5985 23.4467 35.5985 24.0659L35.5486 24.1058ZM37.9852 26.5025H37.3561C37.3316 26.5039 37.3072 26.5002 37.2842 26.4918C37.2612 26.4834 37.2402 26.4704 37.2225 26.4535C37.2047 26.4367 37.1906 26.4164 37.1809 26.3939C37.1713 26.3714 37.1663 26.3472 37.1663 26.3228V21.819C37.1649 21.7937 37.1688 21.7684 37.1778 21.7447C37.1869 21.721 37.2008 21.6995 37.2187 21.6816C37.2366 21.6637 37.2581 21.6498 37.2818 21.6407C37.3055 21.6317 37.3308 21.6278 37.3561 21.6292H37.9852C38.0109 21.626 38.037 21.6287 38.0615 21.637C38.086 21.6454 38.1083 21.6593 38.1266 21.6776C38.1449 21.6959 38.1588 21.7182 38.1671 21.7427C38.1755 21.7672 38.1782 21.7933 38.1749 21.819V26.2828C38.1749 26.4126 38.105 26.4725 38.0152 26.4725L37.9852 26.5025ZM31.4642 26.2129L29.3871 21.9488C29.34 21.8366 29.2609 21.7408 29.1597 21.6733C29.0584 21.6058 28.9395 21.5696 28.8179 21.5693C28.6998 21.5683 28.5837 21.6005 28.4831 21.6623C28.3824 21.7241 28.3012 21.813 28.2487 21.9188L26.1815 26.2129C26.164 26.2382 26.1542 26.2679 26.1532 26.2986C26.1522 26.3294 26.1601 26.3597 26.1759 26.3861C26.1917 26.4124 26.2148 26.4336 26.2423 26.4472C26.2699 26.4608 26.3008 26.4661 26.3313 26.4626H27.0004C27.0451 26.4617 27.0888 26.4492 27.1273 26.4265C27.1658 26.4038 27.1977 26.3715 27.2201 26.3327L27.5297 25.6437H30.0462L30.3657 26.3327C30.3864 26.3729 30.418 26.4064 30.4569 26.4293C30.4957 26.4523 30.5403 26.4638 30.5854 26.4626H31.2745C31.3069 26.4711 31.3412 26.4698 31.3729 26.4588C31.4046 26.4479 31.4324 26.4278 31.4527 26.4011C31.473 26.3744 31.4849 26.3422 31.487 26.3087C31.489 26.2752 31.4811 26.2419 31.4642 26.2129ZM28.8179 22.8575L29.6667 24.7749H27.999L28.8179 22.8575ZM43.9769 26.2129L41.8998 21.9188C41.8516 21.8051 41.7709 21.7081 41.6679 21.6399C41.5649 21.5717 41.4441 21.5353 41.3206 21.5353C41.1971 21.5353 41.0763 21.5717 40.9733 21.6399C40.8703 21.7081 40.7896 21.8051 40.7414 21.9188L38.6643 26.2129C38.6044 26.3327 38.6643 26.4626 38.854 26.4626H39.5131C39.5578 26.4617 39.6015 26.4492 39.64 26.4265C39.6785 26.4038 39.7105 26.3715 39.7328 26.3327L40.0424 25.6437H42.5589L42.8785 26.3327C42.9063 26.3732 42.9436 26.4061 42.9871 26.4288C43.0306 26.4514 43.079 26.463 43.1281 26.4626H43.7872C43.8197 26.4711 43.8539 26.4698 43.8856 26.4588C43.9173 26.4479 43.9451 26.4278 43.9654 26.4011C43.9857 26.3744 43.9976 26.3422 43.9997 26.3087C44.0017 26.2752 43.9938 26.2419 43.9769 26.2129ZM41.3006 22.8276L42.1495 24.7449H40.4518L41.3006 22.8276Z" fill="black"/>
</svg>
