<svg width="48" height="48" viewBox="0 0 48 48" fill="none" xmlns="http://www.w3.org/2000/svg">
<path d="M41.8769 19.7395C41.7205 19.2558 41.4313 18.8257 41.0422 18.4985C40.653 18.1713 40.1798 17.9601 39.6763 17.8891L30.5342 16.5388L26.4433 8.25683C26.2209 7.79928 25.8739 7.41382 25.4421 7.14484C25.0103 6.87587 24.5114 6.73431 24.0027 6.73647C23.494 6.73431 22.995 6.87587 22.5632 7.14484C22.1315 7.41382 21.7844 7.79928 21.5621 8.25683L17.4712 16.5388L8.33901 17.8691C7.83151 17.9371 7.35426 18.1496 6.96411 18.4812C6.57397 18.8128 6.28738 19.2496 6.1385 19.7395C5.97788 20.2216 5.95649 20.7391 6.07681 21.2328C6.19712 21.7264 6.45425 22.1761 6.81866 22.5302L13.4402 28.9817L11.8798 38.0838C11.7943 38.5835 11.8501 39.0971 12.0409 39.5667C12.2317 40.0364 12.5499 40.4434 12.9596 40.7419C13.3694 41.0404 13.8544 41.2184 14.3599 41.256C14.8654 41.2935 15.3714 41.1891 15.8208 40.9545L24.0027 36.6335L32.1746 40.9345C32.6185 41.1652 33.1174 41.2694 33.6165 41.2359C34.1157 41.2024 34.5961 41.0324 35.0053 40.7444C35.4173 40.4474 35.7372 40.0402 35.9283 39.5696C36.1194 39.099 36.1739 38.584 36.0855 38.0838L34.5251 28.9817L41.1267 22.5402C41.5041 22.1923 41.7749 21.7444 41.9077 21.2486C42.0405 20.7528 42.0298 20.2295 41.8769 19.7395Z" fill="black"/>
</svg>
