<svg width="48" height="48" viewBox="0 0 48 48" fill="none" xmlns="http://www.w3.org/2000/svg">
<path d="M41.8788 19.7395C41.7225 19.2558 41.4332 18.8257 41.0441 18.4985C40.655 18.1713 40.1817 17.9601 39.6783 17.8891L30.5362 16.5388L26.4452 8.25683C26.2229 7.79928 25.8759 7.41382 25.4441 7.14484C25.0123 6.87587 24.5133 6.73431 24.0046 6.73647C23.4959 6.73431 22.997 6.87587 22.5652 7.14484C22.1334 7.41382 21.7864 7.79928 21.5641 8.25683L17.4731 16.5388L8.34097 17.8691C7.83346 17.9371 7.35621 18.1496 6.96607 18.4812C6.57592 18.8128 6.28934 19.2496 6.14045 19.7395C5.97983 20.2216 5.95845 20.7391 6.07876 21.2328C6.19908 21.7264 6.45621 22.1761 6.82061 22.5302L13.4422 28.9817L11.8818 38.0838C11.7963 38.5835 11.852 39.0971 12.0428 39.5667C12.2336 40.0364 12.5518 40.4434 12.9616 40.7419C13.3713 41.0404 13.8563 41.2184 14.3618 41.256C14.8674 41.2935 15.3734 41.1891 15.8227 40.9545L24.0046 36.6335L32.1765 40.9345C32.6205 41.1652 33.1193 41.2694 33.6185 41.2359C34.1177 41.2024 34.5981 41.0324 35.0072 40.7444C35.4193 40.4474 35.7392 40.0402 35.9303 39.5696C36.1213 39.099 36.1758 38.584 36.0875 38.0838L34.5271 28.9817L41.1286 22.5402C41.506 22.1923 41.7768 21.7444 41.9096 21.2486C42.0424 20.7528 42.0318 20.2295 41.8788 19.7395ZM30.066 26.161C29.7516 26.4704 29.5165 26.8511 29.3807 27.2707C29.2448 27.6904 29.2123 28.1367 29.2859 28.5716L30.2361 34.0929L25.2349 31.4823C25.0162 31.3727 24.7842 31.292 24.5448 31.2422V16.0687L26.4652 19.9496C26.6597 20.3463 26.9481 20.6894 27.3055 20.9492C27.6629 21.2089 28.0783 21.3774 28.5157 21.4399L34.057 22.2501L30.066 26.161Z" fill="black"/>
</svg>
