<svg width="48" height="48" viewBox="0 0 48 48" fill="none" xmlns="http://www.w3.org/2000/svg">
<path d="M41.9195 19.9999C41.8236 19.7361 41.6574 19.5034 41.4389 19.3272C41.2203 19.1509 40.9577 19.0378 40.6795 18.9999L30.1095 17.4299L25.3895 7.85995C25.261 7.60133 25.0627 7.38379 24.8171 7.23183C24.5715 7.07988 24.2883 6.99956 23.9995 6.99995C23.7102 6.99721 23.4261 7.07655 23.1801 7.22877C22.934 7.38099 22.7362 7.59985 22.6095 7.85995L17.8895 17.4299L7.31954 18.9999C7.04132 19.0378 6.77875 19.1509 6.56019 19.3272C6.34164 19.5034 6.17543 19.7361 6.07954 19.9999C5.9881 20.2732 5.97622 20.5668 6.04527 20.8465C6.11432 21.1263 6.26146 21.3806 6.46954 21.5799L14.1095 29.0299L12.3095 39.5799C12.2587 39.8644 12.289 40.1574 12.3968 40.4255C12.5047 40.6936 12.6858 40.9259 12.9194 41.096C13.1531 41.266 13.4299 41.3668 13.7181 41.387C14.0064 41.4072 14.2945 41.3458 14.5495 41.2099L23.9995 36.2099L33.4495 41.2099C33.7054 41.3438 33.9936 41.4035 34.2816 41.3822C34.5696 41.361 34.846 41.2598 35.0795 41.0899C35.3131 40.9212 35.4942 40.69 35.6021 40.4229C35.71 40.1557 35.7403 39.8635 35.6895 39.5799L33.8895 29.0599L41.5295 21.6099C41.7433 21.4081 41.8939 21.1485 41.9631 20.8627C42.0324 20.577 42.0172 20.2773 41.9195 19.9999Z" fill="black"/>
</svg>
