<svg width="48" height="48" viewBox="0 0 48 48" fill="none" xmlns="http://www.w3.org/2000/svg">
<path d="M13.8347 41.1916C13.6099 41.1904 13.388 41.1403 13.1845 41.0448C12.9809 40.9493 12.8006 40.8107 12.656 40.6385C12.5114 40.4663 12.406 40.2647 12.3471 40.0478C12.2883 39.8308 12.2773 39.6036 12.315 39.3819L14.1146 28.8641L6.47623 21.4156C6.26251 21.2138 6.11192 20.9543 6.04272 20.6686C5.97351 20.3829 5.98865 20.0833 6.08631 19.806C6.18218 19.5421 6.34836 19.3095 6.56686 19.1333C6.78537 18.9571 7.0479 18.844 7.32605 18.8062L17.8939 17.2665L22.6129 7.66848C22.7395 7.40844 22.9373 7.18963 23.1833 7.03744C23.4293 6.88525 23.7134 6.80593 24.0026 6.80866C24.2914 6.80828 24.5745 6.88858 24.82 7.0405C25.0656 7.19242 25.2638 7.40993 25.3923 7.66848L30.1113 17.2365L40.6792 18.8062C40.9573 18.844 41.2198 18.9571 41.4384 19.1333C41.6569 19.3095 41.823 19.5421 41.9189 19.806C42.0124 20.0805 42.0253 20.3761 41.9562 20.6578C41.8872 20.9395 41.7389 21.1955 41.529 21.3957L33.8906 28.8441L35.6902 39.3619C35.741 39.6455 35.7107 39.9376 35.6028 40.2047C35.4949 40.4718 35.3138 40.7029 35.0803 40.8716C34.8468 41.0415 34.5705 41.1427 34.2826 41.1639C33.9946 41.1851 33.7065 41.1254 33.4507 40.9916L24.0026 35.9926L14.5546 40.9916C14.3347 41.1163 14.0874 41.185 13.8347 41.1916ZM24.0026 33.1132C24.2583 33.112 24.5098 33.1775 24.7325 33.3032L32.5408 37.4123L31.0512 28.6941C31.0073 28.4441 31.0264 28.187 31.1066 27.9461C31.1869 27.7053 31.3259 27.4882 31.5111 27.3144L37.8198 21.1557L29.0816 19.886C28.8319 19.8509 28.5947 19.7551 28.3907 19.6069C28.1868 19.4587 28.0223 19.2627 27.9118 19.0361L24.0026 11.1178L20.0934 19.0461C19.9826 19.2696 19.8191 19.4628 19.6171 19.6091C19.4151 19.7554 19.1805 19.8504 18.9337 19.886L10.1855 21.1557L16.5142 27.3244C16.7017 27.4952 16.8444 27.7094 16.9298 27.9482C17.0152 28.187 17.0407 28.4432 17.0041 28.6941L15.4644 37.4123L23.2828 33.2932C23.504 33.1743 23.7514 33.1124 24.0026 33.1132Z" fill="black"/>
</svg>
