<svg width="48" height="48" viewBox="0 0 48 48" fill="none" xmlns="http://www.w3.org/2000/svg">
<path d="M14.5545 41.2394C14.1584 41.2393 13.7671 41.1527 13.408 40.9856C13.0489 40.8186 12.7306 40.5751 12.4754 40.2723C12.2202 39.9694 12.0341 39.6145 11.9303 39.2323C11.8265 38.85 11.8075 38.4498 11.8745 38.0594L13.4345 28.9594L6.81445 22.5094C6.45383 22.1572 6.19901 21.7111 6.07883 21.2215C5.95865 20.732 5.97792 20.2186 6.13445 19.7394C6.28652 19.2533 6.57444 18.8209 6.96425 18.4931C7.35406 18.1653 7.82949 17.9558 8.33445 17.8894L17.4645 16.5394L21.5545 8.2594C21.7767 7.80196 22.1237 7.41659 22.5553 7.14768C22.987 6.87876 23.4859 6.73724 23.9944 6.7394C24.5013 6.73912 24.9981 6.88153 25.4278 7.15034C25.8575 7.41914 26.2029 7.80349 26.4244 8.2594L30.5245 16.5394L39.6644 17.8694C40.1696 17.94 40.6445 18.1517 41.0347 18.4802C41.4249 18.8087 41.7145 19.2406 41.8701 19.7264C42.0257 20.2121 42.0411 20.7319 41.9145 21.226C41.7879 21.72 41.5245 22.1684 41.1544 22.5194L34.5544 28.9594L36.1145 38.0594C36.2026 38.5664 36.144 39.088 35.9455 39.5628C35.7471 40.0376 35.4171 40.4459 34.9944 40.7394C34.5831 41.0382 34.0964 41.2162 33.5894 41.2533C33.0823 41.2904 32.5749 41.1851 32.1244 40.9494L23.9944 36.6294L15.8145 40.9294C15.4259 41.1336 14.9934 41.24 14.5545 41.2394ZM23.9944 31.1694C24.4298 31.1723 24.8582 31.2786 25.2444 31.4794L30.2444 34.0894L29.2944 28.5694C29.2209 28.1346 29.2534 27.6884 29.3892 27.2689C29.525 26.8493 29.7601 26.4687 30.0744 26.1594L34.0744 22.2494L28.5345 21.4394C28.0972 21.3769 27.6818 21.2085 27.3245 20.9488C26.9673 20.6891 26.6789 20.346 26.4844 19.9494L23.9944 14.9294L21.5145 19.9294C21.3154 20.3265 21.0231 20.6694 20.6626 20.9289C20.3021 21.1884 19.8842 21.3567 19.4445 21.4194L13.9244 22.2194L17.9245 26.1294C18.2431 26.4357 18.4811 26.816 18.6172 27.2364C18.7532 27.6569 18.7832 28.1045 18.7045 28.5394L17.7045 34.0594L22.7044 31.4594C23.1045 31.2593 23.5473 31.1597 23.9944 31.1694Z" fill="black"/>
</svg>
