<svg width="48" height="48" viewBox="0 0 48 48" fill="none" xmlns="http://www.w3.org/2000/svg">
<path d="M28.4297 23.1687C28.2016 23.3456 27.9174 23.4344 27.6291 23.4189C27.4256 23.4196 27.2231 23.3892 27.0288 23.3288C26.8491 23.2653 26.6876 23.1588 26.5584 23.0186L26.9387 22.6384C27.0248 22.7286 27.1311 22.7972 27.2489 22.8385C27.3817 22.8795 27.5201 22.8998 27.6592 22.8986C28.0194 22.8986 28.1895 22.7685 28.1895 22.5183C28.1932 22.4749 28.188 22.4313 28.1742 22.39C28.1605 22.3487 28.1384 22.3106 28.1095 22.2782C28.0338 22.2053 27.9342 22.1626 27.8293 22.1581H27.469C27.2536 22.1396 27.05 22.0518 26.8887 21.9079C26.8124 21.8306 26.7534 21.738 26.7155 21.6363C26.6775 21.5345 26.6615 21.4259 26.6685 21.3175C26.6656 21.1939 26.6891 21.071 26.7374 20.9571C26.7857 20.8432 26.8578 20.741 26.9487 20.6571C27.1676 20.4847 27.4408 20.396 27.7192 20.4069C27.9066 20.4035 28.0931 20.434 28.2696 20.497C28.4266 20.5528 28.5699 20.6415 28.6898 20.7572L28.2996 21.1074C28.2284 21.0208 28.135 20.9551 28.0294 20.9173C27.9188 20.8852 27.8043 20.8684 27.6892 20.8672C27.5661 20.8608 27.4449 20.9 27.349 20.9773C27.3099 21.0104 27.2788 21.0519 27.258 21.0987C27.2372 21.1454 27.2273 21.1963 27.2289 21.2475C27.2289 21.2868 27.2369 21.3257 27.2523 21.3618C27.2678 21.3979 27.2905 21.4305 27.3189 21.4576C27.3905 21.532 27.4864 21.5781 27.5891 21.5877H27.9494C28.0656 21.6003 28.1799 21.6272 28.2896 21.6678C28.3748 21.7034 28.4528 21.7543 28.5197 21.8179C28.6022 21.9015 28.6655 22.0022 28.7053 22.1127C28.745 22.2233 28.7602 22.3412 28.7499 22.4583C28.7634 22.5944 28.741 22.7316 28.6848 22.8563C28.6286 22.981 28.5406 23.0888 28.4297 23.1687ZM30.9513 20.9073V23.3889H30.3609V20.9073H29.5804V20.3869H31.7418V20.9073H30.9513ZM32.9526 23.3889V20.3869H34.9539V20.9073H33.563V21.6177H34.7538V22.108H33.563V22.8385H34.9539V23.3589L32.9526 23.3889ZM37.9559 23.3889L37.7758 22.8585H36.7551L36.575 23.3889H35.9546L37.0553 20.3869H37.5156L38.6063 23.3889H37.9559ZM37.2555 21.2675L36.8752 22.3582H37.6257L37.2555 21.2675ZM41.7484 23.3889V21.6377L41.178 22.7785H40.7778L40.2074 21.6377V23.3889H39.617V20.3869H40.1974L41.0379 22.008L41.8184 20.3869H42.3988V23.3889H41.7484ZM43.6096 20.2869C43.6617 20.2868 43.7133 20.2973 43.7613 20.3175C43.8093 20.3377 43.8528 20.3674 43.8892 20.4047C43.9255 20.442 43.9541 20.4862 43.9731 20.5347C43.9921 20.5832 44.0012 20.635 43.9999 20.6871C43.9999 20.7906 43.9588 20.8899 43.8856 20.9631C43.8124 21.0363 43.7131 21.0774 43.6096 21.0774C43.5061 21.0774 43.4068 21.0363 43.3337 20.9631C43.2605 20.8899 43.2194 20.7906 43.2194 20.6871C43.2176 20.6315 43.2278 20.5761 43.2493 20.5248C43.2707 20.4734 43.3029 20.4272 43.3436 20.3893C43.3844 20.3514 43.4328 20.3226 43.4855 20.305C43.5383 20.2873 43.5943 20.2811 43.6496 20.2869H43.6096ZM43.6096 20.3569C43.5676 20.3582 43.5262 20.3678 43.4878 20.3851C43.4495 20.4024 43.4149 20.427 43.3861 20.4577C43.3573 20.4884 43.3348 20.5244 43.3199 20.5638C43.305 20.6032 43.2981 20.6451 43.2994 20.6871C43.2912 20.7332 43.2931 20.7805 43.3052 20.8258C43.3172 20.8711 43.339 20.9131 43.3691 20.949C43.3991 20.9849 43.4367 21.0138 43.4791 21.0336C43.5215 21.0534 43.5678 21.0637 43.6146 21.0637C43.6614 21.0637 43.7077 21.0534 43.7501 21.0336C43.7925 21.0138 43.8301 20.9849 43.8602 20.949C43.8902 20.9131 43.912 20.8711 43.9241 20.8258C43.9361 20.7805 43.9381 20.7332 43.9298 20.6871C43.9329 20.607 43.9059 20.5286 43.854 20.4675C43.8021 20.4063 43.7292 20.3669 43.6496 20.3569H43.6096ZM43.5396 20.9173H43.4695V20.477H43.5896C43.6353 20.4631 43.684 20.4631 43.7297 20.477C43.7404 20.506 43.7404 20.538 43.7297 20.567C43.7284 20.5926 43.7189 20.617 43.7027 20.6368C43.6865 20.6566 43.6644 20.6707 43.6396 20.6771C43.6396 20.6771 43.7097 20.6771 43.7097 20.7872C43.7129 20.8238 43.7129 20.8606 43.7097 20.8973H43.6396C43.6348 20.8574 43.6348 20.8171 43.6396 20.7772C43.6384 20.7666 43.6351 20.7564 43.6299 20.7472C43.6247 20.7379 43.6176 20.7298 43.6093 20.7233C43.6009 20.7168 43.5913 20.712 43.581 20.7092C43.5708 20.7064 43.5601 20.7057 43.5496 20.7071H43.4995L43.5396 20.9173ZM43.5396 20.6671H43.5896C43.6496 20.6671 43.6897 20.6671 43.6897 20.5971C43.6897 20.527 43.6897 20.517 43.5896 20.517H43.5396V20.6671Z" fill="black"/>
<path d="M22.3657 19.1061C21.6067 19.1061 20.8787 19.4076 20.342 19.9443C19.8053 20.481 19.5038 21.2089 19.5038 21.968L17.6726 24.6697C17.3677 24.6587 17.064 24.7133 16.782 24.8298C16.6604 24.8798 16.5432 24.9401 16.4318 25.0099L8.13637 21.5777C8.06095 21.2255 7.89585 20.8988 7.65706 20.6291C7.41828 20.3595 7.1139 20.1561 6.77341 20.0386C6.43293 19.9212 6.06788 19.8936 5.71363 19.9587C5.35938 20.0237 5.02793 20.1792 4.7514 20.4099C4.47486 20.6407 4.26261 20.939 4.13521 21.2759C4.00781 21.6128 3.96957 21.9768 4.0242 22.3329C4.07883 22.6889 4.22447 23.0247 4.44703 23.3079C4.66959 23.5911 4.9615 23.812 5.29451 23.9493C5.8075 24.1594 6.38257 24.1594 6.89556 23.9493C7.01399 23.8992 7.12783 23.8389 7.23578 23.7691L15.5412 27.2114C15.6288 27.6561 15.8585 28.0604 16.1957 28.3633C16.5329 28.6662 16.9594 28.8513 17.4109 28.8908C17.8625 28.9303 18.3146 28.8221 18.6993 28.5823C19.084 28.3426 19.3804 27.9844 19.5438 27.5616C19.6601 27.2901 19.7147 26.9962 19.704 26.7011L22.3357 24.8198H22.4057C22.7951 24.8429 23.1851 24.7861 23.5518 24.6529C23.9184 24.5198 24.254 24.3131 24.5378 24.0455C24.8217 23.778 25.0478 23.4552 25.2024 23.0971C25.357 22.739 25.4368 22.353 25.4368 21.9629C25.4368 21.5729 25.357 21.1869 25.2024 20.8288C25.0478 20.4707 24.8217 20.1479 24.5378 19.8804C24.254 19.6128 23.9184 19.4061 23.5518 19.273C23.1851 19.1398 22.7951 19.083 22.4057 19.1061H22.3657ZM5.48464 23.509C5.18871 23.3878 4.93552 23.1813 4.75733 22.9158C4.57913 22.6503 4.48397 22.3378 4.48398 22.018C4.48736 21.8048 4.53152 21.5942 4.61407 21.3976C4.77975 21.0058 5.09368 20.6954 5.48737 20.5341C5.88105 20.3729 6.32252 20.374 6.71544 20.537C7.08755 20.6868 7.38828 20.9732 7.55599 21.3375L6.55534 20.9473C6.28739 20.9031 6.01239 20.9519 5.77596 21.0855C5.53952 21.2191 5.35585 21.4294 5.2554 21.6817C5.15494 21.934 5.14374 22.2131 5.22366 22.4726C5.30357 22.7322 5.4698 22.9566 5.69477 23.1087L6.69543 23.499C6.32213 23.6442 5.90797 23.6442 5.53467 23.499L5.48464 23.509ZM19.0235 27.3715C18.8597 27.7651 18.5466 28.0778 18.1527 28.241C17.7588 28.4041 17.3163 28.4045 16.9221 28.2421C16.5592 28.087 16.2644 27.8063 16.0916 27.4515L17.0222 27.8318C17.1654 27.8975 17.3202 27.9343 17.4777 27.9402C17.6352 27.9461 17.7922 27.9209 17.94 27.8661C18.0877 27.8113 18.2232 27.7279 18.3387 27.6207C18.4543 27.5135 18.5475 27.3846 18.6132 27.2414C18.6789 27.0982 18.7158 26.9434 18.7217 26.7859C18.7276 26.6284 18.7024 26.4714 18.6476 26.3236C18.5927 26.1759 18.5094 26.0404 18.4022 25.9249C18.295 25.8093 18.1661 25.7161 18.0229 25.6504L17.0222 25.2501C17.4049 25.1 17.8302 25.1 18.213 25.2501C18.607 25.4136 18.9201 25.7267 19.0835 26.1207C19.1653 26.3155 19.2074 26.5248 19.2074 26.7361C19.2074 26.9474 19.1653 27.1566 19.0835 27.3515L19.0235 27.3715ZM22.3857 23.8492C22.0069 23.8512 21.636 23.7405 21.3201 23.5313C21.0043 23.322 20.7578 23.0236 20.6119 22.674C20.466 22.3243 20.4273 21.9392 20.5007 21.5675C20.5741 21.1959 20.7564 20.8544 21.0243 20.5865C21.2922 20.3186 21.6336 20.1364 22.0053 20.0629C22.377 19.9895 22.7621 20.0282 23.1117 20.1741C23.4614 20.32 23.7598 20.5665 23.969 20.8824C24.1783 21.1982 24.2889 21.5691 24.287 21.9479C24.2843 22.4514 24.0832 22.9334 23.7272 23.2894C23.3712 23.6454 22.8891 23.8466 22.3857 23.8492ZM22.3857 23.3689C22.1027 23.3689 21.826 23.2849 21.5907 23.1277C21.3554 22.9705 21.172 22.747 21.0637 22.4855C20.9554 22.2241 20.9271 21.9363 20.9823 21.6588C21.0375 21.3812 21.1738 21.1262 21.3739 20.9261C21.574 20.726 21.829 20.5897 22.1065 20.5345C22.3841 20.4793 22.6718 20.5076 22.9333 20.6159C23.1948 20.7242 23.4183 20.9076 23.5755 21.1429C23.7327 21.3783 23.8166 21.6549 23.8166 21.9379C23.8166 22.3174 23.6659 22.6814 23.3975 22.9498C23.1292 23.2181 22.7652 23.3689 22.3857 23.3689Z" fill="black"/>
</svg>
