<svg width="48" height="48" viewBox="0 0 48 48" fill="none" xmlns="http://www.w3.org/2000/svg">
<path d="M16.43 34.63L13.95 33.63C14.4387 34.6246 15.294 35.3908 16.3361 35.7676C17.3782 36.1444 18.5258 36.1023 19.5375 35.6502C20.5492 35.1981 21.3461 34.3712 21.7606 33.3436C22.1751 32.3159 22.1749 31.1676 21.76 30.14C21.3415 29.1063 20.5335 28.2785 19.5102 27.8352C18.4869 27.3918 17.3304 27.3684 16.29 27.7701L18.85 28.83C19.6218 29.151 20.2345 29.7653 20.5533 30.538C20.8721 31.3106 20.8709 32.1783 20.55 32.9501C20.2291 33.7218 19.6147 34.3345 18.8421 34.6533C18.0694 34.9721 17.2018 34.971 16.43 34.65V34.63Z" fill="black"/>
<path d="M24 4.00005C18.9183 3.9888 14.0228 5.91241 10.3081 9.38011C6.59333 12.8478 4.33792 17.5995 4 22.67L14.75 27.1C15.0422 26.9022 15.3538 26.7347 15.68 26.6C16.4149 26.299 17.2067 26.1624 18 26.2001L22.9 19.09V19C22.902 17.4969 23.3496 16.0281 24.1864 14.7794C25.0231 13.5307 26.2114 12.5581 27.6008 11.9847C28.9903 11.4114 30.5186 11.2629 31.9925 11.558C33.4664 11.8532 34.8196 12.5788 35.8811 13.6431C36.9426 14.7074 37.6646 16.0625 37.9559 17.5372C38.2472 19.0118 38.0947 20.5397 37.5176 21.9277C36.9406 23.3156 35.9649 24.5013 34.714 25.3348C33.4631 26.1682 31.9931 26.612 30.49 26.6101H30.32L23.32 31.6101C23.3266 32.9654 22.8371 34.2763 21.9437 35.2955C21.0503 36.3148 19.8148 36.9719 18.4702 37.1428C17.1257 37.3138 15.7651 36.9869 14.645 36.2237C13.5249 35.4606 12.7228 34.3139 12.39 33L4.82 29.83C5.89914 33.3713 7.93996 36.5434 10.7152 38.9935C13.4905 41.4435 16.8913 43.0751 20.539 43.7067C24.1867 44.3384 27.9381 43.9452 31.3756 42.571C34.8131 41.1968 37.8017 38.8954 40.0087 35.9233C42.2156 32.9511 43.5544 29.4247 43.8759 25.7367C44.1973 22.0487 43.4889 18.3438 41.8294 15.0346C40.1699 11.7254 37.6245 8.94177 34.4767 6.99356C31.3288 5.04534 27.702 4.00905 24 4.00005Z" fill="black"/>
<path d="M35.59 19C35.59 17.9973 35.2926 17.0171 34.7355 16.1833C34.1785 15.3496 33.3866 14.6997 32.4602 14.316C31.5338 13.9322 30.5144 13.8318 29.5309 14.0275C28.5474 14.2231 27.644 14.706 26.935 15.415C26.2259 16.1241 25.743 17.0275 25.5474 18.0109C25.3518 18.9944 25.4522 20.0138 25.8359 20.9403C26.2197 21.8667 26.8695 22.6585 27.7033 23.2156C28.537 23.7727 29.5173 24.07 30.52 24.07C31.8638 24.0674 33.1519 23.5324 34.1021 22.5822C35.0523 21.6319 35.5874 20.3439 35.59 19ZM26.73 19C26.732 18.2489 26.9565 17.5152 27.3753 16.8916C27.794 16.268 28.3882 15.7825 29.0827 15.4964C29.7772 15.2104 30.541 15.1365 31.2775 15.2843C32.0139 15.432 32.6901 15.7947 33.2205 16.3266C33.751 16.8584 34.1119 17.5355 34.2577 18.2724C34.4035 19.0092 34.3277 19.7728 34.0398 20.4665C33.7519 21.1603 33.2648 21.7532 32.6401 22.1703C32.0154 22.5874 31.2811 22.81 30.53 22.81C29.5213 22.8074 28.5547 22.4048 27.8424 21.6906C27.13 20.9764 26.73 20.0088 26.73 19Z" fill="black"/>
</svg>
