<svg width="48" height="48" viewBox="0 0 48 48" fill="none" xmlns="http://www.w3.org/2000/svg">
<path d="M42 31.32V8.86C42 8.10148 41.6987 7.37403 41.1623 6.83767C40.626 6.30132 39.8985 6 39.14 6H8.86C8.10148 6 7.37403 6.30132 6.83767 6.83767C6.30132 7.37403 6 8.10148 6 8.86L6 39.14C6 39.8985 6.30132 40.626 6.83767 41.1623C7.37403 41.6987 8.10148 42 8.86 42H31.32C31.4913 41.9967 31.6606 41.9628 31.82 41.9C31.99 41.8239 32.1456 41.719 32.28 41.59L41.57 32.29C41.7011 32.1612 41.8063 32.0084 41.88 31.84C41.952 31.6757 41.9927 31.4993 42 31.32ZM8.77 39.14V8.86C8.77 8.83613 8.77948 8.81324 8.79636 8.79636C8.81324 8.77948 8.83613 8.77 8.86 8.77H39.14C39.1639 8.77 39.1868 8.77948 39.2036 8.79636C39.2205 8.81324 39.23 8.83613 39.23 8.86V29.93H31.73C31.2534 29.9326 30.7971 30.1231 30.4601 30.4601C30.1231 30.7971 29.9326 31.2534 29.93 31.73V39.23H8.86C8.83613 39.23 8.81324 39.2205 8.79636 39.2036C8.77948 39.1868 8.77 39.1639 8.77 39.14ZM37.27 32.7L32.7 37.27V32.7H37.27Z" fill="black"/>
</svg>
