<svg width="48" height="48" viewBox="0 0 48 48" fill="none" xmlns="http://www.w3.org/2000/svg">
<path d="M29.33 31.54C29.33 30.9539 29.5628 30.3918 29.9773 29.9773C30.3918 29.5628 30.9539 29.33 31.54 29.33H42V9.24C42 8.3807 41.6586 7.55659 41.051 6.94897C40.4434 6.34136 39.6193 6 38.76 6H9.24C8.3807 6 7.55659 6.34136 6.94897 6.94897C6.34136 7.55659 6 8.3807 6 9.24V38.76C6 39.6193 6.34136 40.4434 6.94897 41.051C7.55659 41.6586 8.3807 42 9.24 42H29.33V31.54Z" fill="black"/>
<path d="M40.95 32.93H32.93V40.95L40.95 32.93Z" fill="black"/>
</svg>
