<svg width="48" height="48" viewBox="0 0 48 48" fill="none" xmlns="http://www.w3.org/2000/svg">
<path d="M36.3383 18.6732L37.7581 17.2834C38.0049 17.0411 38.2016 16.7526 38.337 16.4343C38.4723 16.1161 38.5437 15.7742 38.5469 15.4284C38.5502 15.0825 38.4853 14.7394 38.3559 14.4187C38.2266 14.0979 38.0353 13.8058 37.793 13.5589C37.5508 13.3121 37.2623 13.1153 36.944 12.98C36.6257 12.8446 36.2839 12.7733 35.9381 12.7701C35.2396 12.7635 34.5671 13.0347 34.0686 13.5239L32.5888 15.0037C30.7875 13.7711 28.7411 12.9423 26.5897 12.5741V11.2742H28.0594C28.7301 11.2329 29.3598 10.9373 29.8201 10.4478C30.2804 9.95825 30.5367 9.31158 30.5367 8.63962C30.5367 7.96766 30.2804 7.32099 29.8201 6.83145C29.3598 6.3419 28.7301 6.04634 28.0594 6.005H19.9306C19.571 5.98283 19.2106 6.03453 18.8717 6.15691C18.5328 6.27929 18.2226 6.46975 17.9601 6.71657C17.6976 6.9634 17.4884 7.26135 17.3454 7.59207C17.2024 7.9228 17.1286 8.2793 17.1286 8.63962C17.1286 8.99994 17.2024 9.35644 17.3454 9.68717C17.4884 10.0179 17.6976 10.3158 17.9601 10.5627C18.2226 10.8095 18.5328 11 18.8717 11.1223C19.2106 11.2447 19.571 11.2964 19.9306 11.2742H21.3904V12.5541C17.9282 13.1367 14.7819 14.9202 12.5037 17.5915C10.2256 20.2628 8.96105 23.6512 8.93219 27.162C8.97441 31.124 10.5828 34.9083 13.406 37.6885C16.2292 40.4686 20.0378 42.0185 24 41.9998C27.9622 42.0185 31.7709 40.4686 34.5941 37.6885C37.4173 34.9083 39.0256 31.124 39.0679 27.162C39.0643 24.1171 38.11 21.1494 36.3383 18.6732ZM32.3888 24.4823L24.15 29.0817L17.6909 26.702C17.2534 26.5376 16.8991 26.2061 16.7059 25.7805C16.5128 25.3548 16.4967 24.8699 16.6611 24.4324C16.8255 23.9948 17.157 23.6405 17.5826 23.4474C18.0083 23.2542 18.4932 23.2381 18.9308 23.4025L23.88 25.2322L30.7091 21.4128C31.1134 21.2173 31.5772 21.1838 32.0054 21.3191C32.4336 21.4545 32.7939 21.7484 33.0124 22.1408C33.231 22.5331 33.2912 22.9942 33.1809 23.4295C33.0705 23.8648 32.7979 24.2415 32.4188 24.4823H32.3888Z" fill="black"/>
</svg>
