<svg width="48" height="48" viewBox="0 0 48 48" fill="none" xmlns="http://www.w3.org/2000/svg">
<path d="M39.14 42H8.86C8.10148 42 7.37403 41.6987 6.83767 41.1623C6.30132 40.626 6 39.8985 6 39.14V8.86C6 8.10148 6.30132 7.37403 6.83767 6.83767C7.37403 6.30132 8.10148 6 8.86 6H39.14C39.8985 6 40.626 6.30132 41.1623 6.83767C41.6987 7.37403 42 8.10148 42 8.86V39.14C42 39.8985 41.6987 40.626 41.1623 41.1623C40.626 41.6987 39.8985 42 39.14 42ZM8.86 8.77C8.83613 8.77 8.81324 8.77948 8.79636 8.79636C8.77948 8.81324 8.77 8.83613 8.77 8.86V39.14C8.77 39.1639 8.77948 39.1868 8.79636 39.2036C8.81324 39.2205 8.83613 39.23 8.86 39.23H39.14C39.1639 39.23 39.1868 39.2205 39.2036 39.2036C39.2205 39.1868 39.23 39.1639 39.23 39.14V8.86C39.23 8.83613 39.2205 8.81324 39.2036 8.79636C39.1868 8.77948 39.1639 8.77 39.14 8.77H8.86Z" fill="black"/>
</svg>
