<svg width="48" height="48" viewBox="0 0 48 48" fill="none" xmlns="http://www.w3.org/2000/svg">
<path d="M24.125 27.6118L17.196 25.0622C17.0253 24.9965 16.8692 24.8979 16.7367 24.7719C16.6041 24.646 16.4976 24.4951 16.4234 24.328C16.3491 24.1609 16.3084 23.9807 16.3038 23.7979C16.2991 23.6151 16.3305 23.4331 16.3961 23.2625C16.4618 23.0918 16.5604 22.9357 16.6864 22.8031C16.8124 22.6705 16.9632 22.564 17.1304 22.4898C17.2975 22.4155 17.4776 22.3749 17.6604 22.3702C17.8432 22.3655 18.0252 22.3969 18.1959 22.4626L23.845 24.5723L31.6539 20.2129C31.9716 20.0677 32.3324 20.0474 32.6644 20.1562C32.9963 20.265 33.2752 20.4948 33.4454 20.7998C33.6156 21.1049 33.6646 21.4629 33.5828 21.8025C33.5009 22.1421 33.2942 22.4385 33.0037 22.6325L24.125 27.6118Z" fill="black"/>
<path d="M36.3432 15.8535L38.1929 14.0038C38.4581 13.7466 38.6102 13.3946 38.6159 13.0252C38.6215 12.6558 38.4801 12.2993 38.2229 12.0341C37.9657 11.7689 37.6137 11.6168 37.2443 11.6112C36.8749 11.6055 36.5184 11.7469 36.2532 12.0041L34.3735 13.9138C31.8173 11.8049 28.6774 10.528 25.3748 10.2544V8.77459H28.5444C28.7361 8.7909 28.9291 8.76721 29.1113 8.70502C29.2934 8.64283 29.4606 8.5435 29.6023 8.41332C29.744 8.28314 29.8572 8.12495 29.9346 7.94876C30.012 7.77257 30.0519 7.58223 30.0519 7.38979C30.0519 7.19736 30.012 7.00702 29.9346 6.83083C29.8572 6.65464 29.744 6.49645 29.6023 6.36627C29.4606 6.23609 29.2934 6.13676 29.1113 6.07457C28.9291 6.01238 28.7361 5.98869 28.5444 6.005H19.4557C19.264 5.98869 19.0709 6.01238 18.8888 6.07457C18.7067 6.13676 18.5395 6.23609 18.3978 6.36627C18.256 6.49645 18.1429 6.65464 18.0655 6.83083C17.9881 7.00702 17.9481 7.19736 17.9481 7.38979C17.9481 7.58223 17.9881 7.77257 18.0655 7.94876C18.1429 8.12495 18.256 8.28314 18.3978 8.41332C18.5395 8.5435 18.7067 8.64283 18.8888 8.70502C19.0709 8.76721 19.264 8.7909 19.4557 8.77459H22.6152V10.2544C18.6165 10.5626 14.8794 12.3615 12.1443 15.2947C9.40924 18.228 7.87566 22.0816 7.84741 26.092C7.88703 30.3421 9.61002 34.4031 12.6387 37.385C15.6675 40.3669 19.7548 42.0263 24.005 41.9997C28.2543 42.0263 32.3406 40.3665 35.3677 37.3844C38.3949 34.4022 40.1157 30.3412 40.1526 26.092C40.1496 22.3332 38.7979 18.7002 36.3432 15.8535ZM24.005 39.2301C20.4878 39.2621 17.1018 37.8961 14.5913 35.4325C12.0808 32.9689 10.6513 29.6092 10.617 26.092C10.6671 22.5844 12.1032 19.2391 14.6117 16.7868C17.1201 14.3345 20.4971 12.9746 24.005 13.004C27.5112 12.9772 30.8856 14.3383 33.3919 16.7903C35.8983 19.2423 37.333 22.5861 37.383 26.092C37.3487 29.6075 35.9206 32.9656 33.4123 35.429C30.904 37.8923 27.5205 39.2594 24.005 39.2301Z" fill="black"/>
</svg>
