<svg width="48" height="48" viewBox="0 0 48 48" fill="none" xmlns="http://www.w3.org/2000/svg">
<path d="M41.9963 17.6C42.0012 17.5468 42.0012 17.4932 41.9963 17.44C41.9963 17.44 41.9963 17.36 41.9963 17.32C41.9963 17.28 41.9963 17.24 41.9963 17.2C41.9963 17.16 41.9963 17.1 41.9963 17.06L37.4809 7.75C37.2325 7.22727 36.8404 6.78543 36.3503 6.4757C35.8601 6.16596 35.2919 6.00102 34.7115 6L13.1584 6C12.578 6.00102 12.0098 6.16596 11.5196 6.4757C11.0295 6.78543 10.6374 7.22727 10.389 7.75L6.00407 17C6.00407 17 6.00407 17.09 6.00407 17.14V17.26C6.00407 17.26 6.00407 17.34 6.00407 17.38C5.99856 17.4332 5.99856 17.4868 6.00407 17.54V39.78C6.00065 40.3476 6.21653 40.8948 6.60696 41.3081C6.9974 41.7215 7.53244 41.9692 8.10119 42H39.7788C40.0708 42 40.36 41.9425 40.6297 41.8308C40.8994 41.7191 41.1443 41.5555 41.3503 41.3492C41.5564 41.1429 41.7195 40.8981 41.8304 40.6288C41.9412 40.3595 41.9976 40.0711 41.9963 39.78V17.6ZM8.65306 21C8.8805 21.049 9.11273 21.0725 9.34541 21.07C10.1003 21.0671 10.8334 20.8177 11.4325 20.36C12.0285 20.8198 12.7609 21.0692 13.5146 21.0692C14.2683 21.0692 15.0006 20.8198 15.5966 20.36C16.1942 20.8206 16.9283 21.0705 17.6837 21.0705C18.4392 21.0705 19.1732 20.8206 19.7708 20.36C20.3668 20.8198 21.0992 21.0692 21.8529 21.0692C22.6066 21.0692 23.3389 20.8198 23.935 20.36C24.531 20.8198 25.2633 21.0692 26.017 21.0692C26.7707 21.0692 27.5031 20.8198 28.0991 20.36C28.6967 20.8206 29.4307 21.0705 30.1862 21.0705C30.9416 21.0705 31.6757 20.8206 32.2733 20.36C32.8693 20.8198 33.6016 21.0692 34.3553 21.0692C35.109 21.0692 35.8414 20.8198 36.4374 20.36C37.0365 20.8177 37.7696 21.0671 38.5245 21.07C38.7572 21.0725 38.9894 21.049 39.2168 21V31.6H8.65306V21ZM12.8975 8.93C12.9179 8.88101 12.9529 8.83942 12.9977 8.81082C13.0426 8.78222 13.0951 8.76798 13.1483 8.77H34.7115C34.7647 8.76798 34.8173 8.78222 34.8621 8.81082C34.907 8.83942 34.942 8.88101 34.9624 8.93L39.1767 17.84C39.1294 17.9755 39.0415 18.0933 38.9248 18.1773C38.8082 18.2614 38.6684 18.3077 38.5245 18.31C38.3409 18.31 38.1648 18.2373 38.0349 18.1079C37.9051 17.9785 37.8321 17.803 37.8321 17.62C37.8025 17.273 37.6433 16.9497 37.3859 16.7141C37.1286 16.4785 36.7919 16.3478 36.4424 16.3478C36.093 16.3478 35.7563 16.4785 35.4989 16.7141C35.2416 16.9497 35.0823 17.273 35.0527 17.62C35.0322 17.79 34.9499 17.9466 34.8214 18.0602C34.6929 18.1738 34.5271 18.2365 34.3553 18.2365C34.1836 18.2365 34.0177 18.1738 33.8892 18.0602C33.7607 17.9466 33.6785 17.79 33.658 17.62C33.6284 17.273 33.4691 16.9497 33.2118 16.7141C32.9544 16.4785 32.6177 16.3478 32.2682 16.3478C31.9188 16.3478 31.5821 16.4785 31.3247 16.7141C31.0674 16.9497 30.9081 17.273 30.8785 17.62C30.8785 17.803 30.8056 17.9785 30.6757 18.1079C30.5459 18.2373 30.3698 18.31 30.1862 18.31C30.0026 18.31 29.8265 18.2373 29.6966 18.1079C29.5668 17.9785 29.4938 17.803 29.4938 17.62C29.4642 17.273 29.305 16.9497 29.0476 16.7141C28.7903 16.4785 28.4536 16.3478 28.1041 16.3478C27.7547 16.3478 27.4179 16.4785 27.1606 16.7141C26.9032 16.9497 26.744 17.273 26.7144 17.62C26.7144 17.803 26.6414 17.9785 26.5116 18.1079C26.3818 18.2373 26.2057 18.31 26.022 18.31C25.8375 18.31 25.6603 18.2376 25.5289 18.1085C25.3975 17.9794 25.3223 17.8039 25.3197 17.62C25.3197 17.254 25.1738 16.903 24.9141 16.6442C24.6544 16.3854 24.3022 16.24 23.935 16.24C23.5677 16.24 23.2155 16.3854 22.9558 16.6442C22.6961 16.903 22.5503 17.254 22.5503 17.62C22.5476 17.8039 22.4725 17.9794 22.341 18.1085C22.2096 18.2376 22.0324 18.31 21.8479 18.31C21.6642 18.31 21.4881 18.2373 21.3583 18.1079C21.2285 17.9785 21.1555 17.803 21.1555 17.62C21.1259 17.273 20.9667 16.9497 20.7093 16.7141C20.452 16.4785 20.1152 16.3478 19.7658 16.3478C19.4163 16.3478 19.0796 16.4785 18.8223 16.7141C18.5649 16.9497 18.4057 17.273 18.3761 17.62C18.3761 17.803 18.3031 17.9785 18.1733 18.1079C18.0435 18.2373 17.8673 18.31 17.6837 18.31C17.5001 18.31 17.324 18.2373 17.1942 18.1079C17.0643 17.9785 16.9914 17.803 16.9914 17.62C16.9618 17.273 16.8025 16.9497 16.5452 16.7141C16.2878 16.4785 15.9511 16.3478 15.6017 16.3478C15.2522 16.3478 14.9155 16.4785 14.6581 16.7141C14.4008 16.9497 14.2415 17.273 14.2119 17.62C14.1914 17.79 14.1092 17.9466 13.9807 18.0602C13.8522 18.1738 13.6863 18.2365 13.5146 18.2365C13.3428 18.2365 13.177 18.1738 13.0485 18.0602C12.92 17.9466 12.8377 17.79 12.8172 17.62C12.7876 17.273 12.6283 16.9497 12.371 16.7141C12.1136 16.4785 11.7769 16.3478 11.4275 16.3478C11.078 16.3478 10.7413 16.4785 10.484 16.7141C10.2266 16.9497 10.0674 17.273 10.0378 17.62C10.0378 17.803 9.96482 17.9785 9.83498 18.1079C9.70514 18.2373 9.52903 18.31 9.34541 18.31C9.20147 18.3077 9.06171 18.2614 8.94506 18.1773C8.8284 18.0933 8.74048 17.9755 8.6932 17.84L12.8975 8.93ZM8.65306 39.23V34.38H39.2168V39.23H8.65306Z" fill="black"/>
</svg>
