<svg width="48" height="48" viewBox="0 0 48 48" fill="none" xmlns="http://www.w3.org/2000/svg">
<path d="M42 21.59C41.3591 21.5519 40.739 21.3487 40.2 21C39.5971 21.3912 38.8937 21.5995 38.175 21.5995C37.4563 21.5995 36.7529 21.3912 36.15 21C35.5525 21.381 34.8586 21.5834 34.15 21.5834C33.4414 21.5834 32.7475 21.381 32.15 21C31.5471 21.3912 30.8437 21.5995 30.125 21.5995C29.4063 21.5995 28.7029 21.3912 28.1 21C27.4918 21.4017 26.7789 21.6158 26.05 21.6158C25.3211 21.6158 24.6082 21.4017 24 21C23.4025 21.381 22.7086 21.5834 22 21.5834C21.2914 21.5834 20.5975 21.381 20 21C19.4025 21.381 18.7086 21.5834 18 21.5834C17.2914 21.5834 16.5975 21.381 16 21C15.3971 21.3912 14.6937 21.5995 13.975 21.5995C13.2563 21.5995 12.5529 21.3912 11.95 21C11.3524 21.3828 10.6596 21.5907 9.95 21.6C9.24047 21.5901 8.54778 21.3823 7.95 21C7.40998 21.3452 6.78994 21.545 6.15 21.58V31H42V21.59Z" fill="black"/>
<path d="M7.8 16C8.27658 16.0026 8.73289 16.1931 9.06989 16.5301C9.40689 16.8671 9.59737 17.3234 9.6 17.8C9.6 18.05 10.05 18.05 10.05 17.8C10.05 17.3226 10.2396 16.8648 10.5772 16.5272C10.9148 16.1896 11.3726 16 11.85 16C12.3274 16 12.7852 16.1896 13.1228 16.5272C13.4604 16.8648 13.65 17.3226 13.65 17.8C13.65 18.05 14.1 18.05 14.1 17.8C14.1 17.3226 14.2896 16.8648 14.6272 16.5272C14.9648 16.1896 15.4226 16 15.9 16C16.3774 16 16.8352 16.1896 17.1728 16.5272C17.5104 16.8648 17.7 17.3226 17.7 17.8C17.7 18.05 18.15 18.05 18.15 17.8C18.15 17.3226 18.3396 16.8648 18.6772 16.5272C19.0148 16.1896 19.4726 16 19.95 16C20.4274 16 20.8852 16.1896 21.2228 16.5272C21.5604 16.8648 21.75 17.3226 21.75 17.8C21.75 18.05 22.2 18.05 22.2 17.8C22.2 17.3226 22.3896 16.8648 22.7272 16.5272C23.0648 16.1896 23.5226 16 24 16C24.4774 16 24.9352 16.1896 25.2728 16.5272C25.6104 16.8648 25.8 17.3226 25.8 17.8C25.8 18.05 26.25 18.05 26.25 17.8C26.25 17.3226 26.4396 16.8648 26.7772 16.5272C27.1148 16.1896 27.5726 16 28.05 16C28.5274 16 28.9852 16.1896 29.3228 16.5272C29.6604 16.8648 29.85 17.3226 29.85 17.8C29.85 18.05 30.3 18.05 30.3 17.8C30.3 17.3226 30.4896 16.8648 30.8272 16.5272C31.1648 16.1896 31.6226 16 32.1 16C32.5774 16 33.0352 16.1896 33.3728 16.5272C33.7104 16.8648 33.9 17.3226 33.9 17.8C33.9 18.05 34.35 18.05 34.35 17.8C34.35 17.3226 34.5396 16.8648 34.8772 16.5272C35.2148 16.1896 35.6726 16 36.15 16C36.6274 16 37.0852 16.1896 37.4228 16.5272C37.7604 16.8648 37.95 17.3226 37.95 17.8C37.95 18.05 38.4 18.05 38.4 17.8C38.4027 17.3895 38.5456 16.9923 38.805 16.6742C39.0644 16.3561 39.4248 16.1362 39.8263 16.051C40.2278 15.9658 40.6464 16.0204 41.0127 16.2057C41.3789 16.3911 41.6708 16.696 41.84 17.07L37.57 8C37.2973 7.4082 36.862 6.90603 36.315 6.55196C35.768 6.19789 35.1316 6.00647 34.48 6H13.48C12.8353 6.01396 12.2074 6.20888 11.6681 6.56251C11.1288 6.91615 10.6998 7.41425 10.43 8L6.17 17C6.3203 16.697 6.55293 16.4425 6.84122 16.2656C7.12951 16.0888 7.4618 15.9967 7.8 16Z" fill="black"/>
<path d="M6 34.57V39.39C6 40.0822 6.27498 40.7461 6.76445 41.2355C7.25392 41.725 7.91778 42 8.61 42H39.39C40.0822 42 40.7461 41.725 41.2355 41.2355C41.725 40.7461 42 40.0822 42 39.39V34.57H6Z" fill="black"/>
</svg>
