<svg width="48" height="48" viewBox="0 0 48 48" fill="none" xmlns="http://www.w3.org/2000/svg">
<path d="M13.7 24C13.7 26.0371 14.3041 28.0285 15.4359 29.7224C16.5676 31.4162 18.1763 32.7364 20.0584 33.516C21.9404 34.2955 24.0114 34.4995 26.0094 34.1021C28.0074 33.7047 29.8427 32.7237 31.2832 31.2832C32.7237 29.8427 33.7047 28.0074 34.1021 26.0094C34.4995 24.0114 34.2955 21.9404 33.516 20.0584C32.7364 18.1763 31.4162 16.5676 29.7224 15.4359C28.0285 14.3041 26.0371 13.7 24 13.7C21.2691 13.7026 18.6508 14.7887 16.7197 16.7197C14.7887 18.6508 13.7026 21.2691 13.7 24Z" fill="black"/>
<path d="M24 4L20.11 13.33H27.89L24 4Z" fill="black"/>
<path d="M24 44L27.89 34.67H20.11L24 44Z" fill="black"/>
<path d="M18.98 13.49L9.63 9.64L13.49 18.98L18.98 13.49Z" fill="black"/>
<path d="M29.02 34.51L38.36 38.37L34.51 29.02L29.02 34.51Z" fill="black"/>
<path d="M13.33 20.11L4 24L13.33 27.89V20.11Z" fill="black"/>
<path d="M34.67 27.89L44 24L34.67 20.11V27.89Z" fill="black"/>
<path d="M9.63 38.37L18.98 34.52L13.48 29.02L9.63 38.37Z" fill="black"/>
<path d="M38.36 9.64L29.02 13.49L34.51 18.98L38.36 9.64Z" fill="black"/>
</svg>
