<svg width="48" height="48" viewBox="0 0 48 48" fill="none" xmlns="http://www.w3.org/2000/svg">
<path d="M24 13.1C21.8442 13.1 19.7368 13.7393 17.9443 14.937C16.1518 16.1347 14.7547 17.837 13.9297 19.8288C13.1047 21.8205 12.8889 24.0121 13.3094 26.1265C13.73 28.2409 14.7681 30.1831 16.2925 31.7075C17.8169 33.2319 19.7591 34.27 21.8735 34.6906C23.9879 35.1111 26.1795 34.8953 28.1712 34.0703C30.163 33.2453 31.8653 31.8482 33.063 30.0557C34.2607 28.2632 34.9 26.1558 34.9 24C34.8974 21.11 33.7481 18.339 31.7045 16.2955C29.661 14.2519 26.89 13.1026 24 13.1ZM24 32.39C22.3406 32.39 20.7185 31.8979 19.3388 30.976C17.959 30.0541 16.8837 28.7438 16.2487 27.2107C15.6136 25.6776 15.4475 23.9907 15.7712 22.3632C16.0949 20.7357 16.894 19.2407 18.0674 18.0674C19.2407 16.894 20.7357 16.0949 22.3632 15.7712C23.9907 15.4475 25.6776 15.6136 27.2107 16.2487C28.7438 16.8837 30.0541 17.959 30.976 19.3388C31.8979 20.7185 32.39 22.3406 32.39 24C32.39 26.2252 31.5061 28.3592 29.9326 29.9326C28.3592 31.5061 26.2252 32.39 24 32.39Z" fill="black"/>
<path d="M24 4L20.45 12.52H27.55L24 4Z" fill="black"/>
<path d="M24 44L27.55 35.48H20.45L24 44Z" fill="black"/>
<path d="M18.39 13.37L9.86 9.86L13.37 18.39L18.39 13.37Z" fill="black"/>
<path d="M29.61 34.63L38.14 38.14L34.63 29.61L29.61 34.63Z" fill="black"/>
<path d="M12.52 20.45L4 24L12.52 27.55V20.45Z" fill="black"/>
<path d="M35.48 27.55L44 24L35.48 20.45V27.55Z" fill="black"/>
<path d="M9.86 38.14L18.39 34.63L13.37 29.61L9.86 38.14Z" fill="black"/>
<path d="M38.14 9.86L29.61 13.37L34.63 18.39L38.14 9.86Z" fill="black"/>
</svg>
