<svg width="48" height="48" viewBox="0 0 48 48" fill="none" xmlns="http://www.w3.org/2000/svg">
<path d="M16.4782 41.7228C16.1346 41.7245 15.7941 41.6582 15.4762 41.5276C15.1584 41.397 14.8695 41.2048 14.6264 40.962C14.1416 40.4696 13.8699 39.8062 13.8699 39.1152C13.8699 38.4241 14.1416 37.7608 14.6264 37.2683L27.8796 23.9851L14.6264 10.6918C14.1561 10.198 13.8975 9.53993 13.9058 8.8581C13.9142 8.17628 14.1887 7.52472 14.6709 7.04256C15.153 6.5604 15.8046 6.28585 16.4864 6.27754C17.1682 6.26922 17.8263 6.52781 18.3201 6.99806L33.3351 22.0131C33.8443 22.5251 34.1301 23.2179 34.1301 23.94C34.1301 24.6621 33.8443 25.3549 33.3351 25.8669L18.3201 40.8819C18.0855 41.1389 17.8015 41.3459 17.485 41.4904C17.1685 41.6349 16.826 41.7139 16.4782 41.7228Z" fill="black"/>
</svg>
