<svg width="48" height="48" viewBox="0 0 48 48" fill="none" xmlns="http://www.w3.org/2000/svg">
<path d="M15.3649 42.7815C15.1796 42.7828 14.9958 42.7473 14.8244 42.677C14.6529 42.6067 14.4971 42.503 14.3661 42.372C14.2307 42.2432 14.1229 42.0883 14.0493 41.9166C13.9756 41.7449 13.9376 41.56 13.9376 41.3732C13.9376 41.1864 13.9756 41.0015 14.0493 40.8298C14.1229 40.6581 14.2307 40.5032 14.3661 40.3744L30.746 23.9945L14.3761 7.64453C14.2407 7.51578 14.1329 7.36085 14.0592 7.18916C13.9856 7.01746 13.9476 6.83259 13.9476 6.64576C13.9476 6.45893 13.9856 6.27405 14.0592 6.10235C14.1329 5.93066 14.2407 5.77573 14.3761 5.64698C14.5048 5.5116 14.6598 5.4038 14.8315 5.33015C15.0032 5.25649 15.188 5.21851 15.3749 5.21851C15.5617 5.21851 15.7466 5.25649 15.9183 5.33015C16.09 5.4038 16.2449 5.5116 16.3736 5.64698L33.6125 22.9458C33.755 23.0869 33.8682 23.2549 33.9454 23.4401C34.0226 23.6252 34.0624 23.8239 34.0624 24.0245C34.0624 24.2251 34.0226 24.4237 33.9454 24.6088C33.8682 24.794 33.755 24.962 33.6125 25.1031L16.3437 42.372C16.0839 42.6318 15.7323 42.7789 15.3649 42.7815Z" fill="black"/>
</svg>
