<svg width="48" height="48" viewBox="0 0 48 48" fill="none" xmlns="http://www.w3.org/2000/svg">
<path d="M14.3135 39.4454C13.9699 39.4472 13.6294 39.3808 13.3115 39.2502C12.9937 39.1197 12.7049 38.9275 12.4617 38.6847C11.9769 38.1922 11.7052 37.5289 11.7052 36.8378C11.7052 36.1468 11.9769 35.4835 12.4617 34.991L25.7149 21.7077L12.4617 8.41441C11.9914 7.92064 11.7328 7.26258 11.7412 6.58076C11.7495 5.89893 12.024 5.24738 12.5062 4.76522C12.9883 4.28306 13.6399 4.00851 14.3217 4.00019C15.0036 3.99188 15.6616 4.25046 16.1554 4.72072L31.1704 19.7357C31.6796 20.2478 31.9654 20.9405 31.9654 21.6627C31.9654 22.3848 31.6796 23.0775 31.1704 23.5896L16.1554 38.6046C15.9208 38.8616 15.6368 39.0685 15.3203 39.213C15.0038 39.3575 14.6614 39.4366 14.3135 39.4454Z" fill="black"/>
<path d="M18.8681 44C18.3521 43.9998 17.8478 43.8468 17.4186 43.5603C16.9895 43.2739 16.6548 42.8667 16.4567 42.3903C16.2587 41.9139 16.2061 41.3895 16.3057 40.8832C16.4052 40.3769 16.6525 39.9115 17.0162 39.5455L32.0313 24.5305C32.5309 24.1232 33.1635 23.9149 33.8075 23.9458C34.4514 23.9767 35.0612 24.2446 35.5195 24.698C35.9778 25.1513 36.2524 25.7582 36.2903 26.4017C36.3282 27.0453 36.1269 27.6801 35.725 28.1842L20.7099 43.1992C20.472 43.4489 20.1864 43.6484 19.87 43.786C19.5537 43.9235 19.213 43.9963 18.8681 44Z" fill="black"/>
</svg>
