<svg width="48" height="48" viewBox="0 0 48 48" fill="none" xmlns="http://www.w3.org/2000/svg">
<path d="M14.1494 41.563C13.9641 41.5643 13.7804 41.5288 13.6089 41.4585C13.4375 41.3882 13.2817 41.2845 13.1506 41.1535C13.0153 41.0247 12.9075 40.8698 12.8338 40.6981C12.7602 40.5264 12.7222 40.3415 12.7222 40.1547C12.7222 39.9679 12.7602 39.783 12.8338 39.6113C12.9075 39.4396 13.0153 39.2847 13.1506 39.1559L29.5306 22.776L13.1606 6.42603C13.0252 6.29728 12.9175 6.14235 12.8438 5.97065C12.7701 5.79896 12.7322 5.61408 12.7322 5.42725C12.7322 5.24042 12.7701 5.05554 12.8438 4.88385C12.9175 4.71215 13.0252 4.55722 13.1606 4.42848C13.2894 4.29309 13.4443 4.1853 13.616 4.11164C13.7877 4.03798 13.9726 4 14.1594 4C14.3462 4 14.5311 4.03798 14.7028 4.11164C14.8745 4.1853 15.0294 4.29309 15.1582 4.42848L32.3971 21.7273C32.5396 21.8684 32.6527 22.0364 32.7299 22.2216C32.8072 22.4067 32.8469 22.6053 32.8469 22.8059C32.8469 23.0066 32.8072 23.2052 32.7299 23.3903C32.6527 23.5755 32.5396 23.7435 32.3971 23.8846L15.1282 41.1535C14.8684 41.4132 14.5168 41.5603 14.1494 41.563Z" fill="black"/>
<path d="M16.5864 44C16.4011 44.0013 16.2174 43.9658 16.0459 43.8955C15.8745 43.8252 15.7187 43.7215 15.5877 43.5905C15.4523 43.4617 15.3445 43.3068 15.2708 43.1351C15.1972 42.9634 15.1592 42.7785 15.1592 42.5917C15.1592 42.4049 15.1972 42.22 15.2708 42.0483C15.3445 41.8766 15.4523 41.7217 15.5877 41.5929L32.8665 24.354C32.9976 24.2229 33.1533 24.1188 33.3247 24.0479C33.4961 23.9769 33.6798 23.9403 33.8652 23.9403C34.0507 23.9403 34.2344 23.9769 34.4058 24.0479C34.5772 24.1188 34.7329 24.2229 34.864 24.354C34.9952 24.4852 35.0992 24.6409 35.1702 24.8123C35.2412 24.9837 35.2777 25.1673 35.2777 25.3528C35.2777 25.5383 35.2412 25.722 35.1702 25.8934C35.0992 26.0647 34.9952 26.2204 34.864 26.3516L17.5652 43.5905C17.3054 43.8503 16.9538 43.9974 16.5864 44Z" fill="black"/>
</svg>
