<svg width="48" height="48" viewBox="0 0 48 48" fill="none" xmlns="http://www.w3.org/2000/svg">
<path d="M39.5598 27.5077C39.3811 27.4581 39.1943 27.4447 39.0104 27.4683C38.8265 27.492 38.6491 27.5522 38.4888 27.6454C38.3285 27.7386 38.1884 27.8629 38.0769 28.0111C37.9653 28.1592 37.8846 28.3282 37.8393 28.508C36.9488 31.6749 34.9969 34.4394 32.3107 36.3383C29.6245 38.2373 26.3672 39.1552 23.0847 38.9384C19.8023 38.7215 16.6941 37.3829 14.2811 35.1471C11.868 32.9112 10.2968 29.9139 9.83077 26.6575L10.1509 26.9776C10.4172 27.2408 10.7767 27.3882 11.1512 27.3877C11.427 27.3877 11.6967 27.3063 11.9264 27.1537C12.1561 27.0011 12.3356 26.784 12.4425 26.5297C12.5493 26.2755 12.5787 25.9953 12.5269 25.7244C12.4751 25.4535 12.3445 25.2039 12.1515 25.007L9.46066 22.3262C9.33686 22.1885 9.18735 22.0764 9.02053 21.9961L8.9305 21.946C8.78984 21.8884 8.6416 21.8513 8.49037 21.836C8.37416 21.8208 8.25647 21.8208 8.14026 21.836C7.76245 21.8645 7.40746 22.0278 7.13995 22.2962L4.42913 24.967C4.29354 25.0959 4.18558 25.2511 4.11181 25.423C4.03804 25.595 4 25.7802 4 25.9673C4 26.1544 4.03804 26.3395 4.11181 26.5115C4.18558 26.6835 4.29354 26.8386 4.42913 26.9676C4.55808 27.1032 4.71324 27.2111 4.8852 27.2849C5.05716 27.3587 5.24232 27.3967 5.42943 27.3967C5.61655 27.3967 5.80171 27.3587 5.97367 27.2849C6.14563 27.2111 6.30079 27.1032 6.42974 26.9676L7.01992 26.3274C7.44758 30.2746 9.2327 33.9509 12.0702 36.7279C14.9078 39.505 18.6216 41.2105 22.5772 41.553C26.5327 41.8955 30.4845 40.8538 33.7571 38.6059C37.0298 36.3579 39.4203 33.0432 40.5201 29.2283C40.5704 29.0522 40.5855 28.868 40.5644 28.6862C40.5433 28.5043 40.4865 28.3284 40.3973 28.1685C40.3081 28.0087 40.1882 27.868 40.0445 27.7546C39.9007 27.6412 39.736 27.5573 39.5598 27.5077Z" fill="black"/>
<path d="M43.621 21.0958C43.4921 20.9602 43.3369 20.8522 43.165 20.7785C42.993 20.7047 42.8079 20.6667 42.6207 20.6667C42.4336 20.6667 42.2485 20.7047 42.0765 20.7785C41.9045 20.8522 41.7494 20.9602 41.6204 21.0958L41.0403 21.676C40.6131 17.7254 38.8261 14.046 35.9852 11.2677C33.1443 8.48932 29.4261 6.78468 25.467 6.4455C21.5079 6.10631 17.5539 7.15366 14.2818 9.40831C11.0098 11.663 8.62303 14.9847 7.53007 18.8051C7.48016 18.9811 7.4654 19.1652 7.48664 19.347C7.50789 19.5287 7.56472 19.7045 7.65389 19.8642C7.74306 20.024 7.86283 20.1646 8.00635 20.2781C8.14987 20.3916 8.31434 20.4757 8.49037 20.5256C8.66639 20.5755 8.85052 20.5903 9.03225 20.569C9.21398 20.5478 9.38974 20.491 9.54951 20.4018C9.87217 20.2217 10.1101 19.9208 10.2109 19.5653C11.1014 16.3985 13.0532 13.634 15.7395 11.735C18.4257 9.83608 21.6829 8.91813 24.9654 9.13501C28.2479 9.35189 31.3561 10.6904 33.7691 12.9263C36.1821 15.1621 37.7533 18.1594 38.2194 21.4159L37.8993 21.0958C37.7679 20.9644 37.612 20.8602 37.4404 20.7891C37.2687 20.718 37.0848 20.6814 36.899 20.6814C36.7132 20.6814 36.5293 20.718 36.3576 20.7891C36.186 20.8602 36.0301 20.9644 35.8987 21.0958C35.7673 21.2271 35.6631 21.3831 35.592 21.5547C35.5209 21.7264 35.4844 21.9103 35.4844 22.0961C35.4844 22.2819 35.5209 22.4658 35.592 22.6375C35.6631 22.8091 35.7673 22.965 35.8987 23.0964L38.5695 25.7672C38.7575 25.9526 38.9874 26.0898 39.2397 26.1673H39.7599C40.2009 26.1674 40.6245 25.9951 40.9402 25.6872L43.611 23.0064C43.8588 22.7507 43.9981 22.4091 44 22.0531C44.0018 21.6971 43.8661 21.3541 43.621 21.0958Z" fill="black"/>
</svg>
