<svg width="48" height="48" viewBox="0 0 48 48" fill="none" xmlns="http://www.w3.org/2000/svg">
<path d="M38.0986 29.6296C37.8022 29.4572 37.4746 29.3451 37.1348 29.2997C36.7949 29.2542 36.4494 29.2763 36.1182 29.3647C35.7869 29.4531 35.4763 29.6061 35.2043 29.8148C34.9323 30.0236 34.7042 30.284 34.533 30.5811C33.3713 32.6163 31.6443 34.271 29.5613 35.3448C27.4784 36.4186 25.1288 36.8655 22.797 36.6313C20.4653 36.397 18.2515 35.4918 16.4237 34.0251C14.596 32.5584 13.2327 30.5933 12.4989 28.3676C12.9886 28.2645 13.4375 28.0209 13.7909 27.6666C14.2784 27.1751 14.5519 26.5109 14.5519 25.8187C14.5519 25.1265 14.2784 24.4623 13.7909 23.9708L11.3271 21.477C11.1105 21.2637 10.86 21.0877 10.5859 20.9562L10.2554 20.826L10.005 20.7258L9.7246 20.6757H9.00348C8.34187 20.7386 7.7225 21.0289 7.25077 21.497L4.75691 23.9708C4.27186 24.4636 4 25.1273 4 25.8187C4 26.5101 4.27186 27.1738 4.75691 27.6666C5.06183 27.9737 5.43876 28.1997 5.85335 28.3239C6.26794 28.4481 6.70702 28.4666 7.13058 28.3777C7.9057 31.7751 9.68666 34.8601 12.2412 37.2304C14.7957 39.6006 18.0052 41.1459 21.4511 41.6649C24.897 42.1839 28.4193 41.6524 31.5587 40.1398C34.698 38.6271 37.3086 36.2035 39.05 33.1851C39.395 32.5874 39.4885 31.8771 39.3101 31.2105C39.1317 30.5438 38.6959 29.9752 38.0986 29.6296Z" fill="black"/>
<path d="M43.2966 20.3552C42.9901 20.0504 42.6131 19.8259 42.199 19.7019C41.7849 19.5778 41.3465 19.558 40.9229 19.6441C40.1399 16.1913 38.3184 13.061 35.7035 10.6741C33.0886 8.28719 29.8056 6.75809 26.2959 6.29238C22.7862 5.82667 19.218 6.44668 16.0711 8.06906C12.9242 9.69144 10.3494 12.2384 8.693 15.3675C8.53188 15.6707 8.43206 16.0026 8.39922 16.3444C8.36638 16.6861 8.40118 17.031 8.50162 17.3593C8.60206 17.6876 8.76619 17.9929 8.98462 18.2577C9.20305 18.5226 9.47151 18.7419 9.77468 18.903C10.0778 19.0641 10.4098 19.1639 10.7515 19.1968C11.0933 19.2296 11.4381 19.1948 11.7664 19.0944C12.0947 18.9939 12.4 18.8298 12.6649 18.6114C12.9298 18.3929 13.149 18.1245 13.3102 17.8213C14.4203 15.725 16.1213 14.0005 18.2023 12.8618C20.2833 11.7231 22.6527 11.2201 25.0168 11.4152C27.3809 11.6104 29.6358 12.4951 31.5018 13.9596C33.3679 15.4241 34.7631 17.4041 35.5146 19.6541C35.0249 19.7573 34.5759 20.0009 34.2226 20.3552C33.7375 20.848 33.4656 21.5117 33.4656 22.2031C33.4656 22.8945 33.7375 23.5582 34.2226 24.051L36.7364 26.5548C36.9448 26.7592 37.185 26.9283 37.4476 27.0556L37.5377 27.1057L37.8281 27.2259L38.0986 27.306H38.7596C39.5096 27.2979 40.2274 27 40.7627 26.4747L43.2666 23.9708C43.732 23.4858 43.9943 22.8412 43.9999 22.169C44.0055 21.4968 43.7539 20.8479 43.2966 20.3552Z" fill="black"/>
</svg>
