<svg width="48" height="48" viewBox="0 0 48 48" fill="none" xmlns="http://www.w3.org/2000/svg">
<path d="M36 6H12C10.4087 6 8.88258 6.63214 7.75736 7.75736C6.63214 8.88258 6 10.4087 6 12L6 36C6 37.5913 6.63214 39.1174 7.75736 40.2426C8.88258 41.3679 10.4087 42 12 42H36C37.5913 42 39.1174 41.3679 40.2426 40.2426C41.3679 39.1174 42 37.5913 42 36V12C42 10.4087 41.3679 8.88258 40.2426 7.75736C39.1174 6.63214 37.5913 6 36 6V6ZM16.77 33.69V29.08H39.23V33.69H16.77ZM14 14.31V18.92H8.77V14.31H14ZM16.77 21.69H39.23V26.31H16.77V21.69ZM14 26.31H8.77V21.69H14V26.31ZM16.77 18.92V14.31H39.23V18.92H16.77ZM8.77 29.08H14V33.69H8.77V29.08ZM39.18 11.54H16.77V8.77H36C36.7746 8.77202 37.5225 9.0532 38.1066 9.56197C38.6906 10.0707 39.0718 10.773 39.18 11.54ZM12 8.77H14V11.54H8.82C8.92825 10.773 9.30935 10.0707 9.89343 9.56197C10.4775 9.0532 11.2254 8.77202 12 8.77ZM8.82 36.46H14V39.23H12C11.2254 39.228 10.4775 38.9468 9.89343 38.438C9.30935 37.9293 8.92825 37.227 8.82 36.46ZM36 39.23H16.77V36.46H39.18C39.0718 37.227 38.6906 37.9293 38.1066 38.438C37.5225 38.9468 36.7746 39.228 36 39.23Z" fill="black"/>
</svg>
