<svg width="48" height="48" viewBox="0 0 48 48" fill="none" xmlns="http://www.w3.org/2000/svg">
<path d="M42 15H17.4V18.6H42V15Z" fill="black"/>
<path d="M13.8 22.2H6V25.8H13.8V22.2Z" fill="black"/>
<path d="M42 22.2H17.4V25.8H42V22.2Z" fill="black"/>
<path d="M13.8 15H6V18.6H13.8V15Z" fill="black"/>
<path d="M42 29.4H17.4V33H42V29.4Z" fill="black"/>
<path d="M13.8 36.6H6.07C6.28629 38.0985 7.03497 39.4689 8.17903 40.4606C9.32309 41.4522 10.786 41.9987 12.3 42H13.8V36.6Z" fill="black"/>
<path d="M17.4 36.6V42H35.7C37.214 41.9987 38.6769 41.4522 39.821 40.4606C40.965 39.4689 41.7137 38.0985 41.93 36.6H17.4Z" fill="black"/>
<path d="M17.4 11.4H41.93C41.7137 9.90152 40.965 8.53105 39.821 7.53941C38.6769 6.54777 37.214 6.00129 35.7 6H17.4V11.4Z" fill="black"/>
<path d="M13.8 29.4H6V33H13.8V29.4Z" fill="black"/>
<path d="M13.8 11.4V6H12.3C10.786 6.00129 9.32309 6.54777 8.17903 7.53941C7.03497 8.53105 6.28629 9.90152 6.07 11.4H13.8Z" fill="black"/>
</svg>
