<svg width="48" height="48" viewBox="0 0 48 48" fill="none" xmlns="http://www.w3.org/2000/svg">
<path d="M24 4C20.0444 4 16.1776 5.17298 12.8886 7.37061C9.59962 9.56824 7.03617 12.6918 5.52242 16.3463C4.00867 20.0009 3.6126 24.0222 4.3843 27.9018C5.15601 31.7814 7.06082 35.3451 9.85787 38.1421C12.6549 40.9392 16.2186 42.844 20.0982 43.6157C23.9778 44.3874 27.9992 43.9913 31.6537 42.4776C35.3082 40.9638 38.4318 38.4004 40.6294 35.1114C42.827 31.8224 44 27.9556 44 24C44 18.6957 41.8929 13.6086 38.1421 9.85786C34.3914 6.10714 29.3043 4 24 4ZM33.83 17.71L30.55 33.17C30.32 34.27 29.65 34.53 28.73 34.02L20.67 28.07L30 19.7C30.4 19.34 29.91 19.16 29.37 19.49L17.87 26.71L12.93 25.17C11.86 24.84 11.85 24.11 13.17 23.58L32.43 16.15C33.31 15.75 34.16 16.36 33.83 17.71Z" fill="black"/>
</svg>
