<svg width="48" height="48" viewBox="0 0 48 48" fill="none" xmlns="http://www.w3.org/2000/svg">
<path d="M25.3825 18.0732V30.0618C26.1773 30.3831 26.8357 30.9708 27.2446 31.7243C27.6536 32.4778 27.7878 33.35 27.6241 34.1915C27.4605 35.0331 27.0092 35.7915 26.3477 36.3367C25.6862 36.882 24.8556 37.1802 23.9983 37.1802C23.141 37.1802 22.3104 36.882 21.6488 36.3367C20.9873 35.7915 20.536 35.0331 20.3724 34.1915C20.2087 33.35 20.3429 32.4778 20.7519 31.7243C21.1609 30.9708 21.8192 30.3831 22.614 30.0618V18.0732C22.6085 17.888 22.6403 17.7036 22.7074 17.5309C22.7745 17.3582 22.8756 17.2007 23.0047 17.0677C23.1338 16.9348 23.2882 16.8291 23.4589 16.7569C23.6296 16.6848 23.813 16.6476 23.9983 16.6476C24.1835 16.6476 24.367 16.6848 24.5376 16.7569C24.7083 16.8291 24.8627 16.9348 24.9918 17.0677C25.1209 17.2007 25.222 17.3582 25.2891 17.5309C25.3562 17.7036 25.388 17.888 25.3825 18.0732Z" fill="black"/>
<path fill-rule="evenodd" clip-rule="evenodd" d="M30.6016 12.6057V27.6665C31.9519 29.2352 32.6934 31.237 32.6909 33.3068C32.6913 34.7072 32.3533 36.0869 31.7056 37.3285C31.058 38.5701 30.1199 39.6368 28.9712 40.4378C27.8226 41.2388 26.4974 41.7504 25.1085 41.929C23.7195 42.1076 22.308 41.948 20.9941 41.4636C19.6802 40.9792 18.5027 40.1846 17.562 39.1472C16.6214 38.1098 15.9453 36.8605 15.5913 35.5056C15.2374 34.1507 15.2162 32.7304 15.5294 31.3655C15.8425 30.0006 16.4809 28.7316 17.3901 27.6665V12.6057C17.3901 11.7383 17.561 10.8793 17.8929 10.0778C18.2249 9.27639 18.7115 8.54817 19.3249 7.93478C19.9383 7.32138 20.6665 6.8348 21.4679 6.50283C22.2694 6.17086 23.1284 6 23.9958 6C24.8633 6 25.7223 6.17086 26.5237 6.50283C27.3252 6.8348 28.0534 7.32138 28.6668 7.93478C29.2802 8.54817 29.7668 9.27639 30.0988 10.0778C30.4307 10.8793 30.6016 11.7383 30.6016 12.6057ZM20.7203 38.2436C21.6928 38.8889 22.8342 39.2325 24.0012 39.2315L23.9964 39.2279C25.163 39.2281 26.3037 38.8838 27.2753 38.2383C28.247 37.5927 29.0064 36.6746 29.4584 35.5992C29.9103 34.5237 30.0346 33.3387 29.8157 32.1929C29.5968 31.047 29.0444 29.9913 28.2279 29.1582C28.2195 29.1534 28.2195 29.1438 28.2195 29.1438C28.098 29.0174 28.0015 28.8692 27.935 28.707C27.9242 28.6938 27.9242 28.6818 27.9242 28.6698C27.8654 28.5165 27.8345 28.3539 27.8331 28.1897V12.6057C27.8331 11.5873 27.4284 10.6105 26.7083 9.89031C25.9881 9.17013 25.0113 8.76554 23.9929 8.76554C22.9744 8.76554 21.9976 9.17013 21.2774 9.89031C20.5572 10.6105 20.1527 11.5873 20.1527 12.6057V28.1945C20.1512 28.3587 20.1203 28.5213 20.0615 28.6746C20.0603 28.678 20.0588 28.6815 20.0573 28.6851C20.054 28.6928 20.0506 28.7008 20.0506 28.7082C19.9849 28.8731 19.8874 29.0235 19.7638 29.151C19.7636 29.1542 19.7636 29.1574 19.7638 29.1606C18.9471 29.9942 18.3948 31.0506 18.1761 32.197C17.9575 33.3434 18.0824 34.5288 18.535 35.6046C18.9876 36.6803 19.7478 37.5984 20.7203 38.2436Z" fill="black"/>
</svg>
