<svg width="48" height="48" viewBox="0 0 48 48" fill="none" xmlns="http://www.w3.org/2000/svg">
<path d="M30.929 27.4169V12.909C30.929 11.0766 30.2011 9.31929 28.9054 8.0236C27.6097 6.72791 25.8524 6 24.02 6C22.1876 6 20.4303 6.72791 19.1346 8.0236C17.8389 9.31929 17.111 11.0766 17.111 12.909V27.4169C16.0376 28.7224 15.3572 30.3061 15.1491 31.9834C14.9411 33.6607 15.2139 35.3626 15.9358 36.8908C16.6578 38.419 17.7991 39.7106 19.2268 40.6152C20.6545 41.5197 22.3099 42 24 42C25.6902 42 27.3455 41.5197 28.7733 40.6152C30.201 39.7106 31.3423 38.419 32.0642 36.8908C32.7861 35.3626 33.059 33.6607 32.8509 31.9834C32.6428 30.3061 31.9625 28.7224 30.889 27.4169H30.929ZM24.04 36.8556C23.2491 36.857 22.4799 36.5972 21.8518 36.1166C21.2237 35.6359 20.772 34.9612 20.5668 34.1974C20.3616 33.4336 20.4144 32.6234 20.717 31.8926C21.0196 31.1619 21.5551 30.5516 22.2403 30.1565V18.2382C22.2403 17.7609 22.4299 17.3031 22.7674 16.9656C23.1049 16.6281 23.5627 16.4385 24.04 16.4385C24.5173 16.4385 24.9751 16.6281 25.3126 16.9656C25.6501 17.3031 25.8398 17.7609 25.8398 18.2382V30.1565C26.5249 30.5516 27.0604 31.1619 27.363 31.8926C27.6657 32.6234 27.7185 33.4336 27.5133 34.1974C27.3081 34.9612 26.8563 35.6359 26.2282 36.1166C25.6002 36.5972 24.8309 36.857 24.04 36.8556Z" fill="black"/>
</svg>
