<svg width="48" height="48" viewBox="0 0 48 48" fill="none" xmlns="http://www.w3.org/2000/svg">
<path d="M7.41181 40.8561C7.13533 40.8618 6.86348 40.7846 6.63136 40.6343C6.39923 40.484 6.21749 40.2675 6.1096 40.0129C6.00171 39.7583 5.97263 39.4772 6.02611 39.2059C6.07958 38.9346 6.21317 38.6855 6.40961 38.4909L20.8413 24.0792C20.8552 24.0603 20.8626 24.0375 20.8626 24.0141C20.8626 23.9906 20.8552 23.9678 20.8413 23.9489L6.43967 9.53726C6.30905 9.41024 6.20523 9.25832 6.13433 9.09049C6.06344 8.92265 6.02691 8.74231 6.02691 8.56011C6.02691 8.37792 6.06344 8.19757 6.13433 8.02974C6.20523 7.8619 6.30905 7.70998 6.43967 7.58297C6.56731 7.44449 6.72227 7.33396 6.89476 7.25836C7.06725 7.18277 7.25354 7.14374 7.44187 7.14374C7.6302 7.14374 7.81649 7.18277 7.98899 7.25836C8.16148 7.33396 8.31643 7.44449 8.44407 7.58297L22.8056 21.9846C23.3296 22.5202 23.623 23.2397 23.623 23.989C23.623 24.7383 23.3296 25.4578 22.8056 25.9934L8.39396 40.4552C8.26502 40.5838 8.11178 40.6855 7.94317 40.7543C7.77455 40.8231 7.59392 40.8577 7.41181 40.8561Z" fill="black"/>
<path d="M40.725 40.8561H22.2544C21.9066 40.8265 21.5826 40.6674 21.3465 40.4104C21.1104 40.1533 20.9794 39.817 20.9794 39.468C20.9794 39.119 21.1104 38.7827 21.3465 38.5256C21.5826 38.2686 21.9066 38.1095 22.2544 38.08H40.725C41.0728 38.1095 41.3968 38.2686 41.6329 38.5256C41.869 38.7827 42 39.119 42 39.468C42 39.817 41.869 40.1533 41.6329 40.4104C41.3968 40.6674 41.0728 40.8265 40.725 40.8561Z" fill="black"/>
</svg>
