<svg width="48" height="48" viewBox="0 0 48 48" fill="none" xmlns="http://www.w3.org/2000/svg">
<path d="M8.57509 40.8894C8.06607 40.8905 7.5682 40.7403 7.14462 40.4581C6.72105 40.1758 6.39085 39.7741 6.19591 39.3039C6.00097 38.8337 5.95007 38.3161 6.04968 37.817C6.14928 37.3178 6.39489 36.8594 6.75537 36.5L19.2535 24.002L6.75537 11.5039C6.27275 11.0212 6.00161 10.3667 6.00161 9.68413C6.00161 9.0016 6.27275 8.34703 6.75537 7.86441C7.23799 7.38179 7.89256 7.11066 8.57509 7.11066C9.25762 7.11066 9.91219 7.38179 10.3948 7.86441L23.7428 21.2124C24.4696 21.9591 24.8763 22.9599 24.8763 24.002C24.8763 25.044 24.4696 26.0448 23.7428 26.7915L10.3948 40.1095C10.1581 40.3534 9.87543 40.5479 9.56308 40.6817C9.25072 40.8156 8.91491 40.8862 8.57509 40.8894Z" fill="black"/>
<path d="M39.4304 40.8894H22.323C21.6415 40.8894 20.9879 40.6187 20.506 40.1368C20.0241 39.6549 19.7534 39.0013 19.7534 38.3198C19.7534 37.6383 20.0241 36.9847 20.506 36.5028C20.9879 36.0209 21.6415 35.7502 22.323 35.7502H39.4304C40.1119 35.7502 40.7655 36.0209 41.2474 36.5028C41.7293 36.9847 42 37.6383 42 38.3198C42 39.0013 41.7293 39.6549 41.2474 40.1368C40.7655 40.6187 40.1119 40.8894 39.4304 40.8894Z" fill="black"/>
</svg>
