<svg width="48" height="48" viewBox="0 0 48 48" fill="none" xmlns="http://www.w3.org/2000/svg">
<path fill-rule="evenodd" clip-rule="evenodd" d="M38.4 6H9.6C8.64522 6 7.72955 6.37928 7.05442 7.05442C6.37928 7.72955 6 8.64522 6 9.6V38.4C6 39.3548 6.37928 40.2705 7.05442 40.9456C7.72955 41.6207 8.64522 42 9.6 42H38.4C39.3548 42 40.2705 41.6207 40.9456 40.9456C41.6207 40.2705 42 39.3548 42 38.4V9.6C42 8.64522 41.6207 7.72955 40.9456 7.05442C40.2705 6.37928 39.3548 6 38.4 6ZM21.4 18.22C21.7143 18.2197 22.0283 18.2398 22.34 18.28V22.06C22.0323 21.964 21.7123 21.9135 21.39 21.91C20.6892 21.9164 20.0108 22.1578 19.4634 22.5955C18.9161 23.0333 18.5315 23.6421 18.3713 24.3244C18.2111 25.0067 18.2846 25.723 18.5799 26.3587C18.8752 26.9943 19.3752 27.5124 20 27.83C20.4364 28.0536 20.9197 28.1701 21.41 28.17C22.2384 28.17 23.033 27.8416 23.6197 27.2568C24.2064 26.672 24.5374 25.8784 24.54 25.05V10.28H29.34V11.66C29.4507 12.7785 29.9208 13.8311 30.68 14.66C31.4021 15.4556 32.3579 16.0018 33.41 16.22V19.13C31.5645 19.1324 29.7643 18.5591 28.26 17.49V25.03C28.26 25.9278 28.083 26.8167 27.7391 27.646C27.3953 28.4753 26.8913 29.2287 26.256 29.8631C25.6207 30.4974 24.8666 31.0003 24.0368 31.343C23.207 31.6856 22.3178 31.8613 21.42 31.86C20.0668 31.8657 18.743 31.465 17.62 30.71C16.4008 29.8959 15.4759 28.711 14.9821 27.3307C14.4883 25.9503 14.4517 24.4477 14.8778 23.0449C15.3039 21.6421 16.17 20.4137 17.3482 19.5412C18.5263 18.6687 19.954 18.1985 21.42 18.2L21.4 18.22ZM16.47 35.32H15.47V39.09H14.37V35.29H13.2V34.29H16.81L16.47 35.32ZM18.15 39.09H17V35.83H18.14L18.15 39.09ZM17.58 35.43C17.4296 35.4274 17.2861 35.3666 17.1798 35.2602C17.0735 35.1539 17.0126 35.0104 17.01 34.86C17.0126 34.7106 17.0738 34.5681 17.1804 34.4634C17.2871 34.3587 17.4305 34.3 17.58 34.3C17.6544 34.2987 17.7283 34.3122 17.7974 34.3397C17.8665 34.3673 17.9294 34.4083 17.9825 34.4604C18.0355 34.5126 18.0777 34.5748 18.1064 34.6434C18.1352 34.712 18.15 34.7856 18.15 34.86C18.1501 35.0078 18.0928 35.1498 17.9902 35.2561C17.8876 35.3625 17.7477 35.4248 17.6 35.43H17.58ZM21.25 39.12L20.14 37.53L19.78 37.85V39.09H18.66V34.3H19.8V36.53L20.94 35.4H22.33L20.89 36.8L22.49 39.12H21.25ZM25.08 35.32V39.09H23.93V35.29H22.76V34.29H26.38L26.05 35.29L25.08 35.32ZM28.29 39.12C28.0009 39.1748 27.7033 39.1651 27.4184 39.0917C27.1335 39.0183 26.8683 38.883 26.6418 38.6953C26.4152 38.5076 26.2328 38.2723 26.1076 38.006C25.9824 37.7398 25.9175 37.4492 25.9175 37.155C25.9175 36.8608 25.9824 36.5702 26.1076 36.304C26.2328 36.0377 26.4152 35.8024 26.6418 35.6147C26.8683 35.427 27.1335 35.2917 27.4184 35.2183C27.7033 35.1448 28.0009 35.1352 28.29 35.19C28.5791 35.1352 28.8767 35.1448 29.1616 35.2183C29.4465 35.2917 29.7117 35.427 29.9382 35.6147C30.1648 35.8024 30.3472 36.0377 30.4724 36.304C30.5976 36.5702 30.6625 36.8608 30.6625 37.155C30.6625 37.4492 30.5976 37.7398 30.4724 38.006C30.3472 38.2723 30.1648 38.5076 29.9382 38.6953C29.7117 38.883 29.4465 39.0183 29.1616 39.0917C28.8767 39.1651 28.5791 39.1748 28.29 39.12ZM33.56 39.12L32.44 37.53L32.09 37.85V39.09H31V34.3H32.14V36.53L33.28 35.4H34.67L33.2 36.8L34.8 39.12H33.56Z" fill="black"/>
<path fill-rule="evenodd" clip-rule="evenodd" d="M28.29 36.2C28.1403 36.1535 27.9819 36.1429 27.8273 36.1689C27.6728 36.1949 27.5265 36.2569 27.4004 36.3498C27.2742 36.4428 27.1716 36.5641 27.1009 36.7039C27.0302 36.8438 26.9934 36.9983 26.9934 37.155C26.9934 37.3117 27.0302 37.4662 27.1009 37.6061C27.1716 37.7459 27.2742 37.8672 27.4004 37.9602C27.5265 38.0531 27.6728 38.1151 27.8273 38.1411C27.9819 38.1671 28.1403 38.1565 28.29 38.11C28.4397 38.1565 28.5981 38.1671 28.7527 38.1411C28.9072 38.1151 29.0535 38.0531 29.1796 37.9602C29.3058 37.8672 29.4084 37.7459 29.4791 37.6061C29.5498 37.4662 29.5866 37.3117 29.5866 37.155C29.5866 36.9983 29.5498 36.8438 29.4791 36.7039C29.4084 36.5641 29.3058 36.4428 29.1796 36.3498C29.0535 36.2569 28.9072 36.1949 28.7527 36.1689C28.5981 36.1429 28.4397 36.1535 28.29 36.2Z" fill="black"/>
</svg>
