<svg width="48" height="48" viewBox="0 0 48 48" fill="none" xmlns="http://www.w3.org/2000/svg">
<path d="M34.82 13.32C33.5519 11.9408 32.7688 10.1851 32.59 8.32V6H24.59V30.61C24.5847 31.9883 24.0335 33.3084 23.057 34.2811C22.0805 35.2538 20.7583 35.8 19.38 35.8C18.5546 35.8052 17.7395 35.6168 17 35.25C15.7476 34.7039 14.7599 33.6876 14.2496 32.4202C13.7393 31.1528 13.7473 29.7356 14.2719 28.474C14.7965 27.2125 15.7956 26.2074 17.0541 25.6755C18.3125 25.1435 19.7296 25.1272 21 25.63V19.33C20.4831 19.2586 19.9619 19.2218 19.44 19.22C16.9941 19.21 14.6099 19.9876 12.6403 21.4378C10.6706 22.888 9.22009 24.9338 8.50338 27.2724C7.78666 29.611 7.8418 32.1182 8.66064 34.423C9.47947 36.7278 11.0185 38.7078 13.05 40.07C14.7645 41.2214 16.7598 41.8849 18.8223 41.9897C20.8849 42.0944 22.9371 41.6364 24.7594 40.6646C26.5817 39.6929 28.1056 38.2439 29.1678 36.4729C30.2301 34.7018 30.7908 32.6752 30.79 30.61V18C33.2963 19.7894 36.3006 20.7477 39.38 20.74V15.93C37.625 15.557 36.0305 14.6444 34.82 13.32Z" fill="black"/>
</svg>
