<svg width="48" height="48" viewBox="0 0 48 48" fill="none" xmlns="http://www.w3.org/2000/svg">
<path d="M41.448 8.07869C41.4339 7.99916 41.4103 7.92161 41.3777 7.84773C41.3589 7.7628 41.3355 7.67899 41.3074 7.59668C41.3074 7.5063 41.217 7.42596 41.1668 7.33559C41.1372 7.27326 41.1036 7.21289 41.0664 7.15483C40.8782 6.86622 40.632 6.61998 40.3434 6.43181C40.2898 6.39573 40.2326 6.36544 40.1726 6.34143C40.0877 6.28472 39.9968 6.23757 39.9015 6.20084C39.8185 6.16229 39.7307 6.13526 39.6404 6.1205L39.4195 6.05021C39.2525 6.03485 39.0844 6.03485 38.9174 6.05021H34.6194C34.0733 6.0514 33.5416 6.22579 33.1009 6.54831C32.6602 6.87082 32.3332 7.32483 32.1668 7.84501C32.0005 8.36518 32.0035 8.92471 32.1753 9.44309C32.3472 9.96147 32.679 10.412 33.1232 10.7298L28.4838 15.3591C27.1108 14.6013 25.5682 14.2039 24 14.2039C22.4318 14.2039 20.8892 14.6013 19.5163 15.3591L18.7029 14.5457C19.0684 14.0506 19.2441 13.4407 19.1981 12.827C19.1522 12.2133 18.8876 11.6364 18.4524 11.2012C18.0172 10.766 17.4403 10.5014 16.8266 10.4554C16.2128 10.4094 15.603 10.5852 15.1078 10.9507L14.8367 10.6796C15.2808 10.3618 15.6127 9.91126 15.7845 9.39288C15.9564 8.8745 15.9593 8.31497 15.793 7.7948C15.6267 7.27462 15.2996 6.82061 14.8589 6.4981C14.4182 6.17558 13.8865 6.00119 13.3404 6H9.08262C8.91407 6.00127 8.74599 6.01807 8.58052 6.05021L8.34956 6.1205C8.26271 6.13614 8.1783 6.16315 8.09851 6.20084C8.0042 6.2397 7.91348 6.28674 7.82737 6.34143C7.76847 6.3676 7.71143 6.3978 7.65666 6.43181C7.36805 6.61998 7.12181 6.86622 6.93364 7.15483C6.89636 7.21289 6.86282 7.27326 6.83322 7.33559C6.78177 7.41842 6.73807 7.50582 6.70267 7.59668C6.66538 7.68012 6.63841 7.7678 6.62233 7.85777C6.59295 7.92938 6.56944 8.00327 6.55204 8.07869C6.53668 8.24571 6.53668 8.41378 6.55204 8.58079H6.50183V12.8386C6.50302 13.3847 6.67741 13.9164 6.99993 14.3571C7.32245 14.7978 7.77645 15.1249 8.29663 15.2912C8.81681 15.4575 9.37633 15.4545 9.89471 15.2827C10.4131 15.1108 10.8636 14.779 11.1814 14.3349L11.4525 14.606C11.087 15.1011 10.9113 15.711 10.9572 16.3247C11.0032 16.9385 11.2678 17.5153 11.703 17.9505C12.1382 18.3857 12.7151 18.6504 13.3288 18.6963C13.9426 18.7423 14.5524 18.5665 15.0476 18.201L15.861 19.0144C15.1883 20.2349 14.799 21.5912 14.7217 22.9826C14.6444 24.3741 14.8812 25.765 15.4145 27.0525C15.9478 28.34 16.764 29.491 17.8026 30.4203C18.8412 31.3495 20.0755 32.0331 21.4142 32.4205V33.9167H20.9523C20.5991 33.8947 20.2452 33.9453 19.9124 34.0653C19.5796 34.1853 19.2748 34.3721 19.017 34.6144C18.7591 34.8567 18.5536 35.1492 18.4131 35.4739C18.2727 35.7987 18.2002 36.1487 18.2002 36.5026C18.2002 36.8564 18.2727 37.2064 18.4131 37.5312C18.5536 37.8559 18.7591 38.1484 19.017 38.3907C19.2748 38.633 19.5796 38.8199 19.9124 38.9398C20.2452 39.0598 20.5991 39.1104 20.9523 39.0884H21.4142V39.5704C21.4552 40.2283 21.7455 40.8459 22.2259 41.2973C22.7064 41.7487 23.3408 42 24 42C24.6592 42 25.2937 41.7487 25.7741 41.2973C26.2545 40.8459 26.5448 40.2283 26.5858 39.5704V39.1386H27.0478C27.4009 39.1606 27.7548 39.1101 28.0876 38.9901C28.4205 38.8701 28.7252 38.6832 28.9831 38.4409C29.2409 38.1986 29.4464 37.9061 29.5869 37.5814C29.7273 37.2566 29.7998 36.9066 29.7998 36.5528C29.7998 36.199 29.7273 35.8489 29.5869 35.5242C29.4464 35.1994 29.2409 34.9069 28.9831 34.6646C28.7252 34.4224 28.4205 34.2355 28.0876 34.1155C27.7548 33.9955 27.4009 33.9449 27.0478 33.967H26.5858V32.4205C27.9189 32.0317 29.1478 31.3489 30.1821 30.4225C31.2165 29.496 32.0299 28.3495 32.5627 27.0672C33.0955 25.7849 33.334 24.3994 33.2607 23.0128C33.1873 21.6261 32.8041 20.2736 32.139 19.0546L36.8186 14.3349C37.1364 14.779 37.5869 15.1108 38.1053 15.2827C38.6237 15.4545 39.1832 15.4575 39.7034 15.2912C40.2236 15.1249 40.6776 14.7978 41.0001 14.3571C41.3226 13.9164 41.497 13.3847 41.4982 12.8386V8.58079C41.4969 8.41224 41.4801 8.24416 41.448 8.07869Z" fill="black"/>
</svg>
