<svg width="48" height="48" viewBox="0 0 48 48" fill="none" xmlns="http://www.w3.org/2000/svg">
<path d="M39.9381 6.88852C39.797 6.53707 39.5227 6.2556 39.1751 6.10542C39.0118 6.04139 38.8384 6.00738 38.663 6.00502H33.6833C33.3349 6.03465 33.0103 6.19398 32.7738 6.45148C32.5373 6.70898 32.406 7.04589 32.406 7.39554C32.406 7.74518 32.5373 8.08209 32.7738 8.33959C33.0103 8.59709 33.3349 8.75642 33.6833 8.78605H35.2897L30.1593 13.9164C28.3914 12.5624 26.2267 11.8287 23.9999 11.8287C21.7731 11.8287 19.6083 12.5624 17.8404 13.9164L16.5754 12.6514L17.3786 11.8482C17.6382 11.5819 17.7814 11.2234 17.7767 10.8516C17.772 10.4797 17.6198 10.1249 17.3535 9.86533C17.0872 9.60572 16.7287 9.46251 16.3569 9.46722C15.985 9.47192 15.6303 9.62416 15.3706 9.89043L14.5675 10.6936L12.7101 8.78605H14.3064C14.499 8.80243 14.6928 8.77864 14.8757 8.71619C15.0585 8.65375 15.2264 8.55401 15.3687 8.42329C15.511 8.29257 15.6247 8.13372 15.7024 7.95681C15.7801 7.77989 15.8202 7.58877 15.8202 7.39554C15.8202 7.2023 15.7801 7.01118 15.7024 6.83426C15.6247 6.65735 15.511 6.4985 15.3687 6.36778C15.2264 6.23706 15.0585 6.13732 14.8757 6.07488C14.6928 6.01243 14.499 5.98865 14.3064 6.00502H9.34675C9.17478 6.00836 9.00479 6.04236 8.84476 6.10542C8.49624 6.25099 8.21623 6.52382 8.06166 6.86844C7.99859 7.02847 7.9646 7.19847 7.96126 7.37044V12.3502C7.94488 12.5427 7.96867 12.7366 8.03112 12.9194C8.09356 13.1023 8.1933 13.2702 8.32402 13.4125C8.45474 13.5548 8.61358 13.6684 8.7905 13.7461C8.96741 13.8239 9.15854 13.864 9.35177 13.864C9.54501 13.864 9.73613 13.8239 9.91305 13.7461C10.09 13.6684 10.2488 13.5548 10.3795 13.4125C10.5102 13.2702 10.61 13.1023 10.6724 12.9194C10.7349 12.7366 10.7587 12.5427 10.7423 12.3502V10.7539L12.6499 12.6514L11.8467 13.4546C11.7148 13.5864 11.6102 13.7429 11.5389 13.9152C11.4675 14.0875 11.4308 14.2721 11.4308 14.4586C11.4308 14.645 11.4675 14.8296 11.5389 15.0019C11.6102 15.1742 11.7148 15.3307 11.8467 15.4625C11.9785 15.5944 12.135 15.699 12.3073 15.7703C12.4796 15.8417 12.6642 15.8784 12.8507 15.8784C13.0371 15.8784 13.2217 15.8417 13.394 15.7703C13.5663 15.699 13.7228 15.5944 13.8546 15.4625L14.6578 14.6593L15.8726 15.8842C14.8048 17.3019 14.1258 18.9739 13.9028 20.7346C13.6797 22.4954 13.9204 24.2839 14.601 25.923C15.2816 27.5621 16.3786 28.9951 17.7832 30.08C19.1878 31.1649 20.8514 31.8642 22.6094 32.1086V35.753H20.4408C20.0924 35.7826 19.7678 35.942 19.5313 36.1995C19.2947 36.457 19.1635 36.7939 19.1635 37.1435C19.1635 37.4932 19.2947 37.8301 19.5313 38.0876C19.7678 38.3451 20.0924 38.5044 20.4408 38.534H22.6094V40.7227C22.639 41.0711 22.7983 41.3957 23.0558 41.6322C23.3133 41.8687 23.6502 42 23.9999 42C24.3495 42 24.6864 41.8687 24.9439 41.6322C25.2014 41.3957 25.3608 41.0711 25.3904 40.7227V38.5742H27.549C27.7415 38.5906 27.9353 38.5668 28.1182 38.5043C28.3011 38.4419 28.469 38.3422 28.6113 38.2114C28.7536 38.0807 28.8672 37.9219 28.9449 37.745C29.0226 37.568 29.0627 37.3769 29.0627 37.1837C29.0627 36.9905 29.0226 36.7993 28.9449 36.6224C28.8672 36.4455 28.7536 36.2867 28.6113 36.1559C28.469 36.0252 28.3011 35.9255 28.1182 35.863C27.9353 35.8006 27.7415 35.7768 27.549 35.7932H25.3904V32.1086C27.1551 31.8681 28.8261 31.1694 30.2366 30.082C31.6472 28.9946 32.7481 27.5565 33.4296 25.911C34.1112 24.2655 34.3496 22.4701 34.121 20.7038C33.8925 18.9375 33.205 17.2619 32.1271 15.844L37.2575 10.7137V12.3502C37.2411 12.5427 37.2649 12.7366 37.3273 12.9194C37.3898 13.1023 37.4895 13.2702 37.6202 13.4125C37.7509 13.5548 37.9098 13.6684 38.0867 13.7461C38.2636 13.8239 38.4547 13.864 38.648 13.864C38.8412 13.864 39.0323 13.8239 39.2092 13.7461C39.3862 13.6684 39.545 13.5548 39.6757 13.4125C39.8064 13.2702 39.9062 13.1023 39.9686 12.9194C40.0311 12.7366 40.0549 12.5427 40.0385 12.3502V7.39052C40.0352 7.21855 40.0012 7.04855 39.9381 6.88852ZM24.025 29.4681C22.5556 29.4681 21.1192 29.0324 19.8974 28.216C18.6756 27.3996 17.7234 26.2393 17.161 24.8818C16.5987 23.5242 16.4516 22.0304 16.7383 20.5892C17.0249 19.148 17.7325 17.8242 18.7715 16.7852C19.8106 15.7462 21.1344 15.0386 22.5756 14.7519C24.0167 14.4652 25.5106 14.6124 26.8681 15.1747C28.2257 15.737 29.386 16.6893 30.2024 17.911C31.0187 19.1328 31.4544 20.5692 31.4544 22.0386C31.4518 24.0082 30.6682 25.8964 29.2755 27.2891C27.8827 28.6818 25.9946 29.4654 24.025 29.4681Z" fill="black"/>
</svg>
