<svg width="48" height="48" viewBox="0 0 48 48" fill="none" xmlns="http://www.w3.org/2000/svg">
<path d="M24.4352 18.38C24.7425 18.4613 25.0228 18.6225 25.2476 18.8474C25.4723 19.0722 25.6336 19.3526 25.7148 19.66L26.8445 20.79V20.11C26.8445 19.6326 27.0341 19.1747 27.3716 18.8372C27.7091 18.4996 28.1668 18.31 28.6441 18.31C29.1213 18.31 29.5791 18.4996 29.9165 18.8372C30.254 19.1747 30.4436 19.6326 30.4436 20.11V24.39L36.582 30.53L37.4418 15.09H38.4415C39.1574 15.09 39.844 14.8055 40.3502 14.2991C40.8564 13.7928 41.1408 13.106 41.1408 12.39C41.1408 11.6739 40.8564 10.9871 40.3502 10.4808C39.844 9.97442 39.1574 9.68996 38.4415 9.68996H30.1737C30.0958 8.68716 29.643 7.75053 28.9056 7.06668C28.1682 6.38283 27.2003 6.00197 26.1947 5.99996H21.7659C20.7616 5.99633 19.7928 6.37077 19.0519 7.04887C18.311 7.72697 17.8523 8.65909 17.7669 9.65996H15.7674L24.4352 18.38Z" fill="black"/>
<path d="M6.87973 13C7.00693 13.5001 7.27376 13.9537 7.64905 14.3079C8.02434 14.662 8.49261 14.9021 8.99918 15L6.87973 13Z" fill="black"/>
<path d="M29.084 35.16C28.9398 35.1953 28.7924 35.2154 28.6441 35.22C28.1676 35.2173 27.7114 35.0268 27.3745 34.6899C27.0376 34.3529 26.8472 33.8965 26.8445 33.42V32.91L25.7748 31.84V33.42C25.7748 33.8974 25.5852 34.3552 25.2478 34.6928C24.9103 35.0303 24.4526 35.22 23.9753 35.22C23.498 35.22 23.0403 35.0303 22.7028 34.6928C22.3654 34.3552 22.1758 33.8974 22.1758 33.42V28.24L21.106 27.18V33.42C21.106 33.6563 21.0595 33.8904 20.9691 34.1088C20.8786 34.3272 20.7461 34.5256 20.579 34.6928C20.4119 34.8599 20.2135 34.9925 19.9952 35.0829C19.7768 35.1734 19.5428 35.22 19.3065 35.22C19.0702 35.22 18.8362 35.1734 18.6179 35.0829C18.3995 34.9925 18.2011 34.8599 18.034 34.6928C17.8669 34.5256 17.7344 34.3272 17.644 34.1088C17.5535 33.8904 17.507 33.6563 17.507 33.42V23.58L10.5988 16.66L11.8384 38.77C11.8944 39.6463 12.2824 40.4683 12.9232 41.0685C13.5641 41.6686 14.4097 42.0017 15.2875 42H32.673C33.5314 42 34.3587 41.679 34.9924 41.1L29.084 35.16Z" fill="black"/>
<path d="M39.4213 42C39.0836 42.0007 38.7491 41.9348 38.4369 41.8061C38.1247 41.6774 37.8409 41.4884 37.6018 41.25L6.74977 10.39C6.2672 9.90727 5.99609 9.25259 5.99609 8.56996C5.99609 7.88733 6.2672 7.23266 6.74977 6.74996C7.23234 6.26727 7.88684 5.99609 8.56929 5.99609C9.25175 5.99609 9.90625 6.26727 10.3888 6.74996L41.2408 37.61C41.6012 37.9694 41.8468 38.4278 41.9464 38.9271C42.046 39.4263 41.9951 39.9439 41.8002 40.4142C41.6053 40.8845 41.2751 41.2863 40.8516 41.5686C40.4281 41.8509 39.9302 42.001 39.4213 42Z" fill="black"/>
</svg>
