<svg width="48" height="48" viewBox="0 0 48 48" fill="none" xmlns="http://www.w3.org/2000/svg">
<path d="M30.1517 26.272V20.017C30.1679 19.8254 30.1443 19.6325 30.0821 19.4505C30.02 19.2685 29.9207 19.1014 29.7906 18.9597C29.6605 18.8181 29.5025 18.705 29.3264 18.6277C29.1503 18.5503 28.9601 18.5104 28.7678 18.5104C28.5755 18.5104 28.3853 18.5503 28.2092 18.6277C28.0332 18.705 27.8751 18.8181 27.745 18.9597C27.6149 19.1014 27.5156 19.2685 27.4535 19.4505C27.3913 19.6325 27.3677 19.8254 27.384 20.017V23.5242L30.1517 26.272Z" fill="black"/>
<path d="M27.384 31.3279V33.626C27.3758 33.9625 27.491 34.2903 27.7078 34.5477C27.9247 34.8051 28.2281 34.9743 28.5611 35.0235C28.894 35.0726 29.2334 34.9983 29.5154 34.8145C29.7973 34.6307 30.0023 34.3502 30.0917 34.0257L27.384 31.3279Z" fill="black"/>
<path d="M22.608 26.5417V33.626C22.608 33.9917 22.7532 34.3425 23.0118 34.6011C23.2704 34.8597 23.6211 35.0049 23.9868 35.0049C24.3525 35.0049 24.7032 34.8597 24.9618 34.6011C25.2204 34.3425 25.3657 33.9917 25.3657 33.626V29.3095L22.608 26.5417Z" fill="black"/>
<path d="M25.3657 21.4858V20.017C25.3696 19.8334 25.3369 19.6509 25.2694 19.4801C25.2019 19.3093 25.101 19.1538 24.9726 19.0225C24.8441 18.8913 24.6908 18.787 24.5215 18.7159C24.3522 18.6447 24.1704 18.6081 23.9868 18.6081C23.7972 18.6151 23.611 18.6603 23.4393 18.741C23.2676 18.8217 23.114 18.9362 22.9876 19.0777L25.3657 21.4858Z" fill="black"/>
<path d="M17.822 21.7556V33.626C17.8057 33.8177 17.8293 34.0106 17.8915 34.1926C17.9536 34.3746 18.0529 34.5417 18.183 34.6833C18.3131 34.8249 18.4712 34.938 18.6472 35.0153C18.8233 35.0927 19.0135 35.1326 19.2058 35.1326C19.3981 35.1326 19.5883 35.0927 19.7644 35.0153C19.9405 34.938 20.0985 34.8249 20.2286 34.6833C20.3587 34.5417 20.458 34.3746 20.5201 34.1926C20.5823 34.0106 20.6059 33.8177 20.5897 33.626V24.5234L17.822 21.7556Z" fill="black"/>
<path d="M7.83033 11.7636C7.81568 11.8697 7.81568 11.9773 7.83033 12.0834C7.83018 12.4423 7.96995 12.7871 8.21995 13.0445C8.46995 13.302 8.81048 13.4519 9.16921 13.4623H9.5289L7.83033 11.7636Z" fill="black"/>
<path d="M33.299 37.2431L33.2091 38.9418C33.2018 39.0196 33.1663 39.092 33.1092 39.1454C33.0521 39.1988 32.9775 39.2294 32.8994 39.2315H15.0743C14.9961 39.2294 14.9215 39.1988 14.8644 39.1454C14.8074 39.092 14.7718 39.0196 14.7645 38.9418L13.5655 17.509L10.628 14.5714L11.9968 39.0916C12.0403 39.8781 12.3836 40.6179 12.9561 41.1588C13.5286 41.6997 14.2867 42.0005 15.0743 41.9993H32.8994C33.5644 41.9977 34.2109 41.7807 34.7423 41.3808C35.2737 40.9809 35.6612 40.4197 35.8469 39.7811L33.299 37.2431Z" fill="black"/>
<path d="M17.3524 13.4623H34.6379L33.7187 29.8291L36.3365 32.457L37.4056 13.4723H38.8044C39.1511 13.4428 39.4741 13.2842 39.7095 13.0279C39.9449 12.7716 40.0756 12.4363 40.0756 12.0884C40.0756 11.7404 39.9449 11.4051 39.7095 11.1488C39.4741 10.8925 39.1511 10.734 38.8044 10.7045H29.9118V9.70528C29.9145 9.22335 29.8218 8.74565 29.6392 8.29965C29.4566 7.85365 29.1877 7.44813 28.8478 7.10642C28.508 6.76471 28.104 6.49355 27.659 6.30852C27.214 6.12348 26.7368 6.02823 26.2549 6.02824H21.7187C20.7488 6.02824 19.8187 6.41354 19.1329 7.09937C18.447 7.7852 18.0618 8.71539 18.0618 9.6853V10.6845H14.5847L17.3524 13.4623ZM20.8294 9.6853C20.8294 9.44945 20.9231 9.22325 21.0899 9.05648C21.2567 8.88971 21.4829 8.79601 21.7187 8.79601H26.2549C26.4908 8.79601 26.7169 8.88971 26.8837 9.05648C27.0505 9.22325 27.1442 9.44945 27.1442 9.6853V10.6845H20.8294V9.6853Z" fill="black"/>
<path d="M40.5929 41.9993C40.4074 42.0018 40.2232 41.9668 40.0516 41.8964C39.8799 41.826 39.7242 41.7216 39.5938 41.5896L6.41151 8.38634C6.28129 8.2597 6.17778 8.10824 6.1071 7.94091C6.03642 7.77358 6 7.59377 6 7.41213C6 7.23048 6.03642 7.05067 6.1071 6.88334C6.17778 6.71601 6.28129 6.56455 6.41151 6.43791C6.53877 6.29985 6.69325 6.18965 6.86522 6.11428C7.03719 6.03891 7.22292 6 7.41068 6C7.59844 6 7.78416 6.03891 7.95613 6.11428C8.1281 6.18965 8.28259 6.29985 8.40984 6.43791L41.5621 39.6412C41.7002 39.7685 41.8104 39.923 41.8857 40.0949C41.9611 40.2669 42 40.4526 42 40.6404C42 40.8282 41.9611 41.0139 41.8857 41.1859C41.8104 41.3578 41.7002 41.5123 41.5621 41.6396C41.2985 41.8816 40.9506 42.0107 40.5929 41.9993Z" fill="black"/>
</svg>
