<svg width="48" height="48" viewBox="0 0 48 48" fill="none" xmlns="http://www.w3.org/2000/svg">
<path d="M19.2302 18.59C19.0431 18.5845 18.8568 18.6172 18.6827 18.686C18.5086 18.7548 18.3503 18.8583 18.2175 18.9902C18.0847 19.1221 17.98 19.2796 17.91 19.4532C17.84 19.6268 17.806 19.8129 17.8102 20V33.62C17.7939 33.8118 17.8176 34.0048 17.8798 34.187C17.942 34.3691 18.0413 34.5364 18.1715 34.6781C18.3017 34.8198 18.4599 34.933 18.6361 35.0104C18.8123 35.0878 19.0027 35.1278 19.1952 35.1278C19.3876 35.1278 19.578 35.0878 19.7542 35.0104C19.9304 34.933 20.0887 34.8198 20.2189 34.6781C20.3491 34.5364 20.4484 34.3691 20.5106 34.187C20.5728 34.0048 20.5965 33.8118 20.5802 33.62V20C20.5856 19.6347 20.447 19.282 20.1943 19.0181C19.9417 18.7543 19.5953 18.6005 19.2302 18.59Z" fill="black"/>
<path d="M24.0202 18.59C23.8364 18.59 23.6545 18.6266 23.4851 18.6978C23.3156 18.7691 23.1622 18.8734 23.0336 19.0047C22.9051 19.1361 22.804 19.2918 22.7365 19.4627C22.6689 19.6336 22.6362 19.8163 22.6402 20V33.62C22.6239 33.8118 22.6476 34.0048 22.7098 34.187C22.772 34.3691 22.8713 34.5364 23.0015 34.6781C23.1317 34.8198 23.2899 34.933 23.4661 35.0104C23.6423 35.0878 23.8327 35.1278 24.0252 35.1278C24.2176 35.1278 24.408 35.0878 24.5842 35.0104C24.7604 34.933 24.9187 34.8198 25.0489 34.6781C25.1791 34.5364 25.2784 34.3691 25.3406 34.187C25.4028 34.0048 25.4265 33.8118 25.4102 33.62V20C25.4128 19.8158 25.3788 19.6329 25.3102 19.4619C25.2415 19.291 25.1395 19.1354 25.0102 19.0042C24.8809 18.873 24.7267 18.7688 24.5568 18.6977C24.3868 18.6266 24.2044 18.59 24.0202 18.59Z" fill="black"/>
<path d="M28.8102 18.59C28.6264 18.59 28.4445 18.6266 28.2751 18.6978C28.1056 18.7691 27.9522 18.8734 27.8236 19.0047C27.6951 19.1361 27.594 19.2918 27.5265 19.4627C27.4589 19.6336 27.4262 19.8163 27.4302 20V33.62C27.4302 33.986 27.5756 34.337 27.8344 34.5958C28.0932 34.8546 28.4442 35 28.8102 35C29.1762 35 29.5272 34.8546 29.786 34.5958C30.0448 34.337 30.1902 33.986 30.1902 33.62V20C30.1942 19.8163 30.1614 19.6336 30.0939 19.4627C30.0263 19.2918 29.9253 19.1361 29.7967 19.0047C29.6682 18.8734 29.5147 18.7691 29.3453 18.6978C29.1759 18.6266 28.994 18.59 28.8102 18.59Z" fill="black"/>
<path d="M38.8102 10.67H29.9102V9.67C29.9129 8.70618 29.5353 7.78019 28.8594 7.09306C28.1836 6.40594 27.2639 6.01316 26.3002 6H21.7502C20.7795 6 19.8485 6.38561 19.1622 7.07199C18.4758 7.75837 18.0902 8.68931 18.0902 9.66V10.66H9.19018C8.84317 10.6895 8.51988 10.8482 8.28429 11.1047C8.0487 11.3612 7.91797 11.6967 7.91797 12.045C7.91797 12.3933 8.0487 12.7288 8.28429 12.9853C8.51988 13.2418 8.84317 13.4005 9.19018 13.43H10.5902L12.0302 39.09C12.0737 39.877 12.4173 40.6175 12.9903 41.1588C13.5632 41.7001 14.3219 42.0012 15.1102 42H32.9402C33.7267 41.9986 34.4829 41.6964 35.0537 41.1554C35.6246 40.6143 35.9668 39.8753 36.0102 39.09L37.4502 13.44H38.8102C39.1572 13.4105 39.4805 13.2518 39.7161 12.9953C39.9517 12.7388 40.0824 12.4033 40.0824 12.055C40.0824 11.7067 39.9517 11.3712 39.7161 11.1147C39.4805 10.8582 39.1572 10.6995 38.8102 10.67ZM20.8102 9.67C20.8102 9.43396 20.9039 9.20758 21.0709 9.04067C21.2378 8.87377 21.4641 8.78 21.7002 8.78H26.2502C26.4862 8.78 26.7126 8.87377 26.8795 9.04067C27.0464 9.20758 27.1402 9.43396 27.1402 9.67V10.67H20.8602L20.8102 9.67ZM33.2502 38.94C33.2429 39.0179 33.2073 39.0904 33.1502 39.1438C33.0931 39.1972 33.0184 39.2279 32.9402 39.23H15.1102C15.0323 39.23 14.9575 39.1998 14.9015 39.1457C14.8455 39.0916 14.8128 39.0178 14.8102 38.94L13.3702 13.44H34.6802L33.2502 38.94Z" fill="black"/>
</svg>
