<svg width="48" height="48" viewBox="0 0 48 48" fill="none" xmlns="http://www.w3.org/2000/svg">
<path d="M38.61 9.66003H30.36C30.2746 8.65915 29.8158 7.72704 29.0747 7.04893C28.3336 6.37083 27.3645 5.99639 26.36 6.00003H21.94C20.9355 5.99639 19.9664 6.37083 19.2253 7.04893C18.4842 7.72704 18.0254 8.65915 17.94 9.66003H9.7C8.98392 9.66003 8.29716 9.94449 7.79081 10.4508C7.28446 10.9572 7 11.6439 7 12.36C7 13.0761 7.28446 13.7629 7.79081 14.2692C8.29716 14.7756 8.98392 15.06 9.7 15.06H10.7L12 38.74C12.0487 39.6234 12.435 40.4544 13.0789 41.0611C13.7228 41.6678 14.5753 42.0039 15.46 42H32.85C33.733 42.0014 34.5829 41.6641 35.2247 41.0576C35.8665 40.4512 36.2514 39.6217 36.3 38.74L37.62 15.06H38.62C39.3361 15.06 40.0228 14.7756 40.5292 14.2692C41.0355 13.7629 41.32 13.0761 41.32 12.36C41.32 11.6439 41.0355 10.9572 40.5292 10.4508C40.0228 9.94449 39.3361 9.66003 38.62 9.66003H38.61ZM30.83 30.41C31.0806 30.6617 31.2512 30.982 31.3201 31.3304C31.3891 31.6788 31.3535 32.0399 31.2177 32.3681C31.0819 32.6963 30.8521 32.977 30.5571 33.1749C30.2621 33.3728 29.9152 33.4789 29.56 33.48C29.0875 33.4903 28.6292 33.3185 28.28 33L24.16 28.87L20 33C19.6636 33.3379 19.2068 33.5285 18.73 33.53C18.261 33.5192 17.8139 33.3296 17.48 33C17.1441 32.6627 16.9556 32.206 16.9556 31.73C16.9556 31.254 17.1441 30.7974 17.48 30.46L21.61 26.33L17.48 22.2C17.3099 22.0346 17.1741 21.8372 17.0803 21.6193C16.9865 21.4013 16.9366 21.167 16.9333 20.9298C16.9301 20.6925 16.9736 20.457 17.0614 20.2365C17.1492 20.0161 17.2795 19.8151 17.445 19.645C17.6105 19.475 17.8078 19.3392 18.0258 19.2454C18.2437 19.1516 18.478 19.1016 18.7153 19.0984C18.9525 19.0951 19.1881 19.1386 19.4085 19.2264C19.629 19.3142 19.8299 19.4446 20 19.61L24.13 23.73L28.25 19.61C28.5892 19.2837 29.0428 19.1032 29.5136 19.1073C29.9843 19.1114 30.4347 19.2997 30.7682 19.6319C31.1017 19.9642 31.2918 20.4138 31.2978 20.8845C31.3037 21.3552 31.125 21.8095 30.8 22.15L26.7 26.28L30.83 30.41Z" fill="black"/>
</svg>
