<svg width="48" height="48" viewBox="0 0 48 48" fill="none" xmlns="http://www.w3.org/2000/svg">
<path d="M38.8102 10.67H29.9102V9.67C29.9129 8.70618 29.5353 7.78019 28.8594 7.09306C28.1836 6.40594 27.2639 6.01316 26.3002 6H21.7502C20.7795 6 19.8485 6.38561 19.1622 7.07199C18.4758 7.75837 18.0902 8.68931 18.0902 9.66V10.66H9.19018C8.84317 10.6895 8.51988 10.8482 8.28429 11.1047C8.0487 11.3612 7.91797 11.6967 7.91797 12.045C7.91797 12.3933 8.0487 12.7288 8.28429 12.9853C8.51988 13.2418 8.84317 13.4005 9.19018 13.43H10.5902L12.0302 39.09C12.0737 39.877 12.4173 40.6175 12.9903 41.1588C13.5632 41.7001 14.3219 42.0012 15.1102 42H32.9402C33.7267 41.9986 34.4829 41.6964 35.0537 41.1554C35.6246 40.6143 35.9668 39.8753 36.0102 39.09L37.4502 13.44H38.8102C39.1572 13.4105 39.4805 13.2518 39.7161 12.9953C39.9517 12.7388 40.0824 12.4033 40.0824 12.055C40.0824 11.7067 39.9517 11.3712 39.7161 11.1147C39.4805 10.8582 39.1572 10.6995 38.8102 10.67ZM20.8102 9.67C20.8102 9.43396 20.9039 9.20758 21.0709 9.04067C21.2378 8.87377 21.4641 8.78 21.7002 8.78H26.2502C26.4862 8.78 26.7126 8.87377 26.8795 9.04067C27.0464 9.20758 27.1402 9.43396 27.1402 9.67V10.67H20.8602L20.8102 9.67ZM33.2502 38.94C33.2429 39.0179 33.2073 39.0904 33.1502 39.1438C33.0931 39.1972 33.0184 39.2279 32.9402 39.23H15.1102C15.0323 39.23 14.9575 39.1998 14.9015 39.1457C14.8455 39.0916 14.8128 39.0178 14.8102 38.94L13.3702 13.44H34.6802L33.2502 38.94Z" fill="black"/>
<path d="M24.0202 24.38L19.4602 19.82C19.195 19.5548 18.8352 19.4058 18.4602 19.4058C18.0851 19.4058 17.7254 19.5548 17.4602 19.82C17.195 20.0852 17.046 20.4449 17.046 20.82C17.046 21.1951 17.195 21.5548 17.4602 21.82L22.0202 26.38L17.5002 30.9C17.3646 31.0289 17.2567 31.184 17.183 31.3559C17.1092 31.5278 17.0712 31.7129 17.0712 31.9C17.0712 32.0871 17.1092 32.2722 17.183 32.4441C17.2567 32.616 17.3646 32.7711 17.5002 32.9C17.6314 33.0312 17.7873 33.135 17.959 33.2054C18.1307 33.2758 18.3146 33.3113 18.5002 33.31C18.6859 33.3125 18.8702 33.2774 19.042 33.207C19.2138 33.1365 19.3697 33.0321 19.5002 32.9L24.0602 28.34L28.6202 32.9C28.7491 33.0356 28.9042 33.1435 29.0761 33.2172C29.248 33.291 29.4331 33.329 29.6202 33.329C29.8072 33.329 29.9923 33.291 30.1642 33.2172C30.3362 33.1435 30.4913 33.0356 30.6202 32.9C30.7557 32.7711 30.8637 32.616 30.9374 32.4441C31.0111 32.2722 31.0492 32.0871 31.0492 31.9C31.0492 31.7129 31.0111 31.5278 30.9374 31.3559C30.8637 31.184 30.7557 31.0289 30.6202 30.9L26.0602 26.34L30.6202 21.78C30.8854 21.5148 31.0344 21.1551 31.0344 20.78C31.0344 20.4049 30.8854 20.0452 30.6202 19.78C30.355 19.5148 29.9952 19.3658 29.6202 19.3658C29.2451 19.3658 28.8854 19.5148 28.6202 19.78L24.0202 24.38Z" fill="black"/>
</svg>
