<svg width="48" height="48" viewBox="0 0 48 48" fill="none" xmlns="http://www.w3.org/2000/svg">
<path d="M38.61 9.66003H30.36C30.2746 8.65915 29.8158 7.72704 29.0747 7.04893C28.3336 6.37083 27.3645 5.99639 26.36 6.00003H21.94C20.9355 5.99639 19.9664 6.37083 19.2253 7.04893C18.4842 7.72704 18.0254 8.65915 17.94 9.66003H9.7C8.98392 9.66003 8.29716 9.94449 7.79081 10.4508C7.28446 10.9572 7 11.6439 7 12.36C7 13.0761 7.28446 13.7629 7.79081 14.2692C8.29716 14.7756 8.98392 15.06 9.7 15.06H10.7L12 38.74C12.0487 39.6234 12.435 40.4544 13.0789 41.0611C13.7228 41.6678 14.5753 42.0039 15.46 42H32.85C33.733 42.0014 34.5829 41.6641 35.2247 41.0576C35.8665 40.4512 36.2514 39.6217 36.3 38.74L37.62 15.06H38.62C39.3361 15.06 40.0228 14.7756 40.5292 14.2692C41.0355 13.7629 41.32 13.0761 41.32 12.36C41.32 11.6439 41.0355 10.9572 40.5292 10.4508C40.0228 9.94449 39.3361 9.66003 38.62 9.66003H38.61ZM21.29 33.38C21.29 33.8574 21.1004 34.3153 20.7628 34.6528C20.4252 34.9904 19.9674 35.18 19.49 35.18C19.0126 35.18 18.5548 34.9904 18.2172 34.6528C17.8796 34.3153 17.69 33.8574 17.69 33.38V20.08C17.69 19.6026 17.8796 19.1448 18.2172 18.8072C18.5548 18.4697 19.0126 18.28 19.49 18.28C19.9674 18.28 20.4252 18.4697 20.7628 18.8072C21.1004 19.1448 21.29 19.6026 21.29 20.08V33.38ZM25.96 33.38C25.96 33.8574 25.7704 34.3153 25.4328 34.6528C25.0952 34.9904 24.6374 35.18 24.16 35.18C23.6826 35.18 23.2248 34.9904 22.8872 34.6528C22.5496 34.3153 22.36 33.8574 22.36 33.38V20.08C22.36 19.6026 22.5496 19.1448 22.8872 18.8072C23.2248 18.4697 23.6826 18.28 24.16 18.28C24.6374 18.28 25.0952 18.4697 25.4328 18.8072C25.7704 19.1448 25.96 19.6026 25.96 20.08V33.38ZM30.62 33.38C30.62 33.6164 30.5734 33.8505 30.483 34.0689C30.3925 34.2872 30.2599 34.4857 30.0928 34.6528C29.9256 34.82 29.7272 34.9526 29.5088 35.043C29.2904 35.1335 29.0564 35.18 28.82 35.18C28.5836 35.18 28.3496 35.1335 28.1312 35.043C27.9128 34.9526 27.7144 34.82 27.5472 34.6528C27.3801 34.4857 27.2475 34.2872 27.157 34.0689C27.0666 33.8505 27.02 33.6164 27.02 33.38V20.08C27.02 19.8436 27.0666 19.6096 27.157 19.3912C27.2475 19.1728 27.3801 18.9744 27.5472 18.8072C27.7144 18.6401 27.9128 18.5075 28.1312 18.417C28.3496 18.3266 28.5836 18.28 28.82 18.28C29.0564 18.28 29.2904 18.3266 29.5088 18.417C29.7272 18.5075 29.9256 18.6401 30.0928 18.8072C30.2599 18.9744 30.3925 19.1728 30.483 19.3912C30.5734 19.6096 30.62 19.8436 30.62 20.08V33.38Z" fill="black"/>
</svg>
