<svg width="48" height="48" viewBox="0 0 48 48" fill="none" xmlns="http://www.w3.org/2000/svg">
<path fill-rule="evenodd" clip-rule="evenodd" d="M15.8345 20.2218H21.7418V21.2213H19.133V28.1081H18.0535V21.2613H15.8345V20.2218ZM23.2711 23.1604C23.4532 22.7643 23.7598 22.4386 24.1441 22.2329C24.5285 22.0272 24.9695 21.9527 25.4001 22.0209V23.0205C24.0807 22.8805 23.2711 23.2903 23.2711 24.5598V28.1081H22.2716V22.1109H23.2711V23.1604ZM26.8394 24.6797H30.1879C30.1279 23.5702 29.6182 22.9305 28.5886 22.9305C27.5591 22.9305 26.9894 23.6002 26.8394 24.6797ZM28.6386 21.981C30.4878 21.981 31.2274 23.2704 31.2274 25.0895V25.5993H26.8494C26.9994 26.5988 27.6591 27.2785 29.0684 27.2785C29.692 27.278 30.3108 27.1697 30.8976 26.9587V27.9082C30.3115 28.1624 29.677 28.2852 29.0384 28.268C28.6092 28.3227 28.1733 28.28 27.7629 28.1429C27.3525 28.0059 26.9783 27.7781 26.6681 27.4765C26.3579 27.175 26.1196 26.8073 25.971 26.401C25.8225 25.9947 25.7674 25.5601 25.8099 25.1295C25.8099 23.2804 26.8095 21.981 28.6386 21.981ZM33.4864 26.4489C33.4864 26.9986 33.8462 27.1885 34.286 27.1885H34.5859V28.0981C34.4132 28.1179 34.2388 28.1179 34.0661 28.0981C33.8572 28.1287 33.6441 28.1119 33.4425 28.049C33.2409 27.9861 33.0561 27.8787 32.9016 27.7348C32.7471 27.5908 32.6269 27.414 32.5499 27.2174C32.473 27.0208 32.4412 26.8094 32.4569 26.5988V19.6021H33.4564L33.4864 26.4489ZM36.6149 26.4489C36.6149 26.9986 36.9748 27.1885 37.4246 27.1885H37.7244V28.0981C37.5484 28.1176 37.3707 28.1176 37.1947 28.0981C36.9857 28.1287 36.7726 28.1119 36.5711 28.049C36.3695 27.9861 36.1846 27.8787 36.0301 27.7348C35.8757 27.5908 35.7555 27.414 35.6785 27.2174C35.6015 27.0208 35.5697 26.8094 35.5854 26.5988V19.6021H36.5849L36.6149 26.4489ZM41.1528 27.2685C42.4322 27.2685 42.972 26.269 42.972 25.0995C42.972 23.9301 42.4322 22.9505 41.1528 22.9505C39.8734 22.9505 39.3037 23.95 39.3037 25.0995C39.3037 26.239 39.8634 27.2685 41.1528 27.2685ZM41.1528 21.9909C41.5509 21.9826 41.9462 22.0596 42.3121 22.2168C42.6779 22.374 43.0059 22.6077 43.2739 22.9022C43.5419 23.1967 43.7437 23.5452 43.8657 23.9242C43.9878 24.3032 44.0273 24.704 43.9815 25.0995C44.0224 25.4975 43.9794 25.8996 43.8551 26.2799C43.7308 26.6602 43.5281 27.0101 43.2601 27.3071C42.9921 27.6041 42.6647 27.8416 42.2991 28.0041C41.9335 28.1666 41.5379 28.2506 41.1378 28.2506C40.7378 28.2506 40.3422 28.1666 39.9766 28.0041C39.611 27.8416 39.2836 27.6041 39.0156 27.3071C38.7476 27.0101 38.5448 26.6602 38.4206 26.2799C38.2963 25.8996 38.2532 25.4975 38.2942 25.0995C38.253 24.7024 38.2967 24.301 38.4224 23.922C38.5481 23.543 38.7528 23.195 39.0231 22.9011C39.2934 22.6072 39.623 22.3741 39.9902 22.2172C40.3573 22.0603 40.7536 21.9832 41.1528 21.9909ZM11.4765 24.1699V21.4412C11.4769 21.31 11.4277 21.1835 11.3387 21.0871C11.2497 20.9907 11.1276 20.9315 10.9968 20.9214H9.36752C9.23222 20.9265 9.10401 20.9832 9.00921 21.0799C8.91441 21.1765 8.86021 21.3058 8.85776 21.4412V24.1699C8.85776 24.3051 8.91146 24.4348 9.00706 24.5304C9.10266 24.626 9.23232 24.6797 9.36752 24.6797H10.9968C11.1267 24.672 11.2488 24.615 11.338 24.5202C11.4272 24.4254 11.4768 24.3001 11.4765 24.1699ZM7.73827 26.3189V21.4412C7.73827 21.3034 7.68351 21.1711 7.58604 21.0737C7.48856 20.9762 7.35636 20.9214 7.21851 20.9214H5.62925C5.49314 20.9241 5.36349 20.98 5.26817 21.0772C5.17284 21.1744 5.11946 21.3051 5.11948 21.4412V26.3189C5.11947 26.3867 5.13298 26.4539 5.15922 26.5164C5.18546 26.5789 5.22391 26.6355 5.27231 26.683C5.32071 26.7305 5.37809 26.7678 5.44109 26.7928C5.5041 26.8178 5.57146 26.83 5.63924 26.8287H7.21851C7.28629 26.83 7.35366 26.8178 7.41666 26.7928C7.47967 26.7678 7.53705 26.7305 7.58545 26.683C7.63385 26.6355 7.6723 26.5789 7.69854 26.5164C7.72478 26.4539 7.73829 26.3867 7.73827 26.3189ZM11.5165 19.812C11.8002 19.812 12.0722 19.9246 12.2728 20.1252C12.4734 20.3258 12.586 20.5978 12.586 20.8815V27.3285C12.586 27.6121 12.4734 27.8842 12.2728 28.0847C12.0722 28.2853 11.8002 28.398 11.5165 28.398H5.06951C4.92906 28.398 4.78998 28.3703 4.66022 28.3166C4.53047 28.2628 4.41256 28.184 4.31325 28.0847C4.21394 27.9854 4.13516 27.8675 4.08141 27.7378C4.02766 27.608 4 27.4689 4 27.3285V20.8815C4 20.5978 4.11268 20.3258 4.31325 20.1252C4.51382 19.9246 4.78586 19.812 5.06951 19.812H11.5165Z" fill="black"/>
</svg>
