<svg width="48" height="48" viewBox="0 0 48 48" fill="none" xmlns="http://www.w3.org/2000/svg">
<path fill-rule="evenodd" clip-rule="evenodd" d="M37.34 24.27C37.34 24.8429 37.1124 25.3923 36.7073 25.7973C36.3023 26.2024 35.7529 26.43 35.18 26.43H28.51C27.9371 26.43 27.3877 26.2024 26.9826 25.7973C26.5776 25.3923 26.35 24.8429 26.35 24.27V12.85C26.35 12.2762 26.5772 11.7258 26.982 11.3191C27.3868 10.9124 27.9362 10.6826 28.51 10.68H35.18C35.7529 10.68 36.3023 10.9076 36.7073 11.3126C37.1124 11.7177 37.34 12.2671 37.34 12.84V24.27ZM21.67 33.27C21.6621 33.8377 21.4311 34.3794 21.0268 34.778C20.6226 35.1766 20.0777 35.4001 19.51 35.4H12.86C12.5777 35.4026 12.2976 35.3496 12.0357 35.244C11.7738 35.1384 11.5353 34.9822 11.3338 34.7844C11.1323 34.5867 10.9718 34.3511 10.8613 34.0913C10.7508 33.8314 10.6926 33.5523 10.69 33.27V12.84C10.69 12.2671 10.9176 11.7177 11.3226 11.3126C11.7277 10.9076 12.2771 10.68 12.85 10.68H19.51C20.0829 10.68 20.6323 10.9076 21.0374 11.3126C21.4424 11.7177 21.67 12.2671 21.67 12.84V33.27ZM37.52 6H10.5C9.30653 6 8.16193 6.47411 7.31802 7.31802C6.47411 8.16193 6 9.30653 6 10.5V37.5C6 38.6935 6.47411 39.8381 7.31802 40.682C8.16193 41.5259 9.30653 42 10.5 42H37.5C38.6935 42 39.8381 41.5259 40.682 40.682C41.5259 39.8381 42 38.6935 42 37.5V10.5C42 9.30998 41.5287 8.16841 40.6891 7.32507C39.8495 6.48173 38.71 6.00529 37.52 6Z" fill="black"/>
</svg>
