<svg width="48" height="48" viewBox="0 0 48 48" fill="none" xmlns="http://www.w3.org/2000/svg">
<path fill-rule="evenodd" clip-rule="evenodd" d="M34 18.86C34 19.08 34 19.3 34 19.53C34.0119 21.4617 33.6409 23.3766 32.9083 25.1641C32.1758 26.9515 31.0963 28.5761 29.7322 29.9439C28.3682 31.3117 26.7465 32.3956 24.9611 33.133C23.1756 33.8704 21.2617 34.2466 19.33 34.24C16.5187 34.2441 13.7658 33.4387 11.4 31.92C11.81 31.92 12.22 31.99 12.63 31.99C14.9584 31.991 17.2196 31.2091 19.05 29.77C17.9709 29.7506 16.925 29.394 16.0588 28.7502C15.1926 28.1064 14.5497 27.2077 14.22 26.18C14.9965 26.3304 15.7973 26.2996 16.56 26.09C15.384 25.8572 14.326 25.2215 13.5684 24.2923C12.8108 23.3632 12.4012 22.1988 12.41 21C13.1278 21.3983 13.9296 21.6211 14.75 21.65C13.6571 20.918 12.8835 19.7976 12.5864 18.5162C12.2892 17.2348 12.4907 15.8883 13.15 14.75C14.4493 16.3468 16.0697 17.6526 17.9061 18.5829C19.7425 19.5132 21.754 20.0471 23.81 20.15C23.5559 19.0425 23.6731 17.8822 24.1434 16.8478C24.6137 15.8134 25.411 14.9624 26.4126 14.4258C27.4142 13.8892 28.5644 13.6968 29.6861 13.8782C30.8078 14.0597 31.8387 14.605 32.62 15.43C33.779 15.1905 34.8884 14.7542 35.9 14.14C35.5147 15.3368 34.7081 16.3531 33.63 17C34.6662 16.8822 35.678 16.6057 36.63 16.18C35.9225 17.2249 35.0314 18.133 34 18.86ZM40 6H8C7.46957 6 6.96086 6.21071 6.58579 6.58579C6.21071 6.96086 6 7.46957 6 8V40C6 40.5304 6.21071 41.0391 6.58579 41.4142C6.96086 41.7893 7.46957 42 8 42H40C40.5304 42 41.0391 41.7893 41.4142 41.4142C41.7893 41.0391 42 40.5304 42 40V8C42 7.46957 41.7893 6.96086 41.4142 6.58579C41.0391 6.21071 40.5304 6 40 6Z" fill="black"/>
</svg>
