<svg width="48" height="48" viewBox="0 0 48 48" fill="none" xmlns="http://www.w3.org/2000/svg">
<path fill-rule="evenodd" clip-rule="evenodd" d="M17.32 38.25C30.91 38.25 38.32 27 38.32 17.25C38.32 16.93 38.32 16.61 38.32 16.25C39.7628 15.2161 41.009 13.9326 42 12.46C40.6533 13.0584 39.2238 13.4495 37.76 13.62C39.2964 12.695 40.447 11.2461 41 9.54001C39.5461 10.3987 37.9568 11.004 36.3 11.33C35.1856 10.153 33.7152 9.375 32.1152 9.11584C30.5152 8.85668 28.8744 9.13073 27.4455 9.89578C26.0166 10.6608 24.8788 11.8744 24.2074 13.3497C23.536 14.825 23.3683 16.48 23.73 18.06C20.794 17.9152 17.9214 17.1538 15.2992 15.8254C12.6769 14.497 10.3636 12.6314 8.51 10.35C7.5668 11.9757 7.27757 13.8995 7.70101 15.7307C8.12446 17.5619 9.22885 19.1634 10.79 20.21C9.61491 20.1732 8.46593 19.8542 7.44 19.28V19.38C7.44289 21.0853 8.03464 22.7372 9.11517 24.0565C10.1957 25.3757 11.6987 26.2813 13.37 26.62C12.2709 26.9192 11.1176 26.9603 10 26.74C10.4726 28.2072 11.3915 29.4903 12.6285 30.4099C13.8655 31.3296 15.3589 31.8401 16.9 31.87C14.2889 33.9057 11.0709 35.0077 7.76 35C7.17246 35.0118 6.58474 34.9885 6 34.93C9.3786 37.0956 13.307 38.2477 17.32 38.25Z" fill="black"/>
</svg>
