<svg width="48" height="48" viewBox="0 0 48 48" fill="none" xmlns="http://www.w3.org/2000/svg">
<path d="M23.9976 4C19.9536 3.99775 16.005 5.22921 12.679 7.53L12.869 6.05C12.9173 5.6828 12.8182 5.31141 12.5933 5.01715C12.3684 4.72289 12.0361 4.52975 11.6692 4.48C11.3014 4.43718 10.9315 4.53972 10.6382 4.76575C10.345 4.99178 10.1516 5.32343 10.0994 5.69L9.51942 10.12C9.46012 10.5717 9.58238 11.0284 9.85938 11.39C9.85938 11.45 9.96937 11.5 10.0194 11.55V11.61H10.0794L10.3693 11.81C10.4381 11.8502 10.5121 11.8805 10.5893 11.9C10.7187 11.9678 10.8566 12.0183 10.9992 12.05L15.4387 12.63H15.6187C15.9653 12.6175 16.295 12.4767 16.5438 12.2349C16.7926 11.9931 16.9427 11.6676 16.9651 11.3214C16.9876 10.9752 16.8806 10.6329 16.6651 10.3611C16.4496 10.0892 16.1408 9.9071 15.7986 9.85L14.4588 9.68C17.6494 7.55619 21.4578 6.55913 25.2796 6.8471C29.1014 7.13507 32.7176 8.69157 35.5539 11.2695C38.3903 13.8475 40.2844 17.2991 40.9355 21.0765C41.5866 24.8539 40.9574 28.7406 39.1478 32.1195C37.3382 35.4985 34.4519 38.1761 30.9471 39.7272C27.4423 41.2784 23.5199 41.6142 19.8025 40.6814C16.085 39.7486 12.7857 37.6006 10.4282 34.5785C8.07067 31.5563 6.7901 27.8331 6.78977 24C6.80613 23.8069 6.78222 23.6125 6.71956 23.4291C6.65689 23.2457 6.55683 23.0773 6.42571 22.9346C6.29459 22.7918 6.13527 22.6779 5.95784 22.6C5.78041 22.522 5.58873 22.4818 5.39494 22.4818C5.20115 22.4818 5.00947 22.522 4.83204 22.6C4.65461 22.6779 4.49529 22.7918 4.36417 22.9346C4.23306 23.0773 4.133 23.2457 4.07033 23.4291C4.00766 23.6125 3.98375 23.8069 4.00012 24C4.00012 27.9556 5.17295 31.8224 7.3703 35.1114C9.56766 38.4004 12.6908 40.9638 16.3449 42.4776C19.999 43.9913 24.0198 44.3874 27.8989 43.6157C31.7781 42.844 35.3413 40.9392 38.138 38.1421C40.9347 35.3451 42.8393 31.7814 43.6109 27.9018C44.3825 24.0222 43.9865 20.0009 42.4729 16.3463C40.9593 12.6918 38.3962 9.56824 35.1076 7.37061C31.8191 5.17298 27.9527 4 23.9976 4Z" fill="black"/>
</svg>
