<svg width="48" height="48" viewBox="0 0 48 48" fill="none" xmlns="http://www.w3.org/2000/svg">
<path d="M24 4.00003C20.7901 3.99468 17.6266 4.76667 14.78 6.25003C14.6017 5.684 14.2352 5.19599 13.7412 4.86706C13.2473 4.53812 12.6557 4.38806 12.0647 4.44179C11.4737 4.49551 10.9189 4.7498 10.4923 5.16241C10.0658 5.57503 9.79329 6.12113 9.72 6.71003L9.17 10.85C9.12024 11.2289 9.14587 11.6139 9.24541 11.9829C9.34494 12.3519 9.51643 12.6976 9.75 13L9.9 13.17L10 13.32L10.11 13.41C10.3786 13.6534 10.6955 13.8374 11.04 13.95H11.13C11.2276 13.9828 11.328 14.0062 11.43 14.02H11.63L15.77 14.56H16.12C16.752 14.5581 17.3618 14.327 17.8363 13.9096C18.3108 13.4921 18.6177 12.9166 18.7 12.29C18.7482 11.9346 18.7215 11.5731 18.6216 11.2287C18.5218 10.8842 18.3509 10.5645 18.12 10.29C21.0328 9.02715 24.2748 8.73575 27.3662 9.45898C30.4575 10.1822 33.2338 11.8816 35.284 14.3056C37.3343 16.7296 38.5495 19.7494 38.7498 22.9179C38.9501 26.0863 38.1248 29.2351 36.3962 31.898C34.6675 34.5609 32.1274 36.5964 29.1517 37.7032C26.1761 38.8099 22.9232 38.9292 19.8745 38.0432C16.8259 37.1572 14.1435 35.313 12.2246 32.7838C10.3057 30.2546 9.25215 27.1747 9.22 24C9.22 23.3078 8.94502 22.6439 8.45555 22.1545C7.96608 21.665 7.30221 21.39 6.61 21.39C5.91778 21.39 5.25392 21.665 4.76445 22.1545C4.27498 22.6439 4 23.3078 4 24C4 27.9557 5.17298 31.8224 7.37061 35.1114C9.56824 38.4004 12.6918 40.9639 16.3463 42.4776C20.0009 43.9914 24.0222 44.3874 27.9018 43.6157C31.7814 42.844 35.3451 40.9392 38.1421 38.1422C40.9392 35.3451 42.844 31.7815 43.6157 27.9018C44.3874 24.0222 43.9913 20.0009 42.4776 16.3464C40.9638 12.6918 38.4004 9.56826 35.1114 7.37064C31.8224 5.17301 27.9556 4.00003 24 4.00003Z" fill="black"/>
</svg>
