<svg width="48" height="48" viewBox="0 0 48 48" fill="none" xmlns="http://www.w3.org/2000/svg">
<path d="M16.0301 28.3508L13.4637 23.9698L16.0301 19.5889L17.2832 23.9698L16.0301 28.3508ZM10.2256 27.9297L7.00752 24.7317H12.2206L14.8271 29.1127L10.2256 27.9297ZM10.2256 19.9999L14.7569 18.8671L12.1905 23.248H7.00752L10.2256 19.9999ZM16.9223 16.7117L11.0175 18.2455L10.1253 19.7192H8.34085L4 23.9698L8.34085 28.1904H10.1253L11.0175 29.7443L16.9323 31.2881L18.5263 25.5337L17.6341 24.03L18.5263 22.5362L16.9223 16.7117ZM30.3759 20.9723C30.0244 20.966 29.6778 21.0561 29.3738 21.2328C29.0698 21.4095 28.8201 21.6662 28.6516 21.9748V21.1327H27.2281V26.9372H28.6516V23.649C28.6335 23.4829 28.6502 23.3149 28.7005 23.1556C28.7509 22.9964 28.8339 22.8493 28.9443 22.7239C29.0546 22.5984 29.1899 22.4974 29.3414 22.4271C29.493 22.3568 29.6575 22.3189 29.8246 22.3157C29.9712 22.2976 30.1199 22.3122 30.2603 22.3583C30.4006 22.4044 30.529 22.481 30.6363 22.5825C30.7435 22.6841 30.8271 22.8081 30.8808 22.9456C30.9346 23.0832 30.9573 23.231 30.9474 23.3783V26.9473H32.3609V23.1578C32.3859 22.8814 32.3532 22.6028 32.265 22.3397C32.1767 22.0766 32.0348 21.8347 31.8482 21.6293C31.6617 21.4238 31.4345 21.2594 31.181 21.1463C30.9276 21.0332 30.6534 20.974 30.3759 20.9723ZM25.0526 24.4911C25.0725 24.6557 25.0572 24.8226 25.0078 24.9808C24.9585 25.139 24.8761 25.285 24.7663 25.4091C24.6564 25.5331 24.5215 25.6325 24.3704 25.7007C24.2193 25.7688 24.0555 25.8042 23.8897 25.8044C23.7486 25.8104 23.6078 25.7865 23.4766 25.7343C23.3454 25.6821 23.2267 25.6028 23.1282 25.5015C23.0298 25.4003 22.9539 25.2793 22.9054 25.1467C22.857 25.014 22.8371 24.8726 22.8471 24.7317V21.1327H21.4336V25.0124C21.4038 25.2871 21.4344 25.565 21.5233 25.8266C21.6122 26.0882 21.7573 26.3272 21.9483 26.5268C22.1394 26.7264 22.3717 26.8818 22.6292 26.9822C22.8866 27.0825 23.1629 27.1254 23.4386 27.1077C23.7646 27.1292 24.0903 27.0623 24.3815 26.9141C24.6726 26.7659 24.9184 26.5418 25.0927 26.2656V26.9473H26.4561V21.1327H25.0526V24.4911ZM33.0727 21.1327H34.4962V26.9372H33.1228L33.0727 21.1327ZM33.0727 19.3282H34.4962V20.4911H33.1228L33.0727 19.3282ZM42.5263 21.1327L41.7343 23.7292C41.5974 24.1428 41.4869 24.5647 41.4035 24.9924C41.4035 24.9924 41.213 24.2605 41.0226 23.7292L40.0902 21.1327H38.5163L40.0902 25.263C40.3245 25.7628 40.4736 26.2981 40.5313 26.847C40.5313 27.3282 40.2707 27.629 39.6692 27.629H39.0877V28.852H39.99C41.1729 28.852 41.584 28.3808 41.995 27.0976L44 21.1528H42.5764L42.5263 21.1327ZM37.1429 25.243V22.1653H38.0852V21.1628H37.183V19.3282H35.7694V21.1327H34.9674V22.1352H35.7694V25.5438C35.7694 26.6365 36.6015 26.9272 37.3534 26.9272C38.1053 26.9272 38.1253 26.9272 38.1253 26.9272V25.8044H37.7644C37.6876 25.8159 37.6091 25.8095 37.5352 25.7855C37.4613 25.7615 37.394 25.7207 37.3386 25.6663C37.2832 25.6118 37.2412 25.5453 37.2159 25.4718C37.1907 25.3983 37.1828 25.32 37.193 25.243H37.1429Z" fill="black"/>
</svg>
