<svg width="48" height="48" viewBox="0 0 48 48" fill="none" xmlns="http://www.w3.org/2000/svg">
<path d="M24.4242 30.3287L16.9254 37.8327C16.0286 38.729 14.813 39.2325 13.5455 39.2325C12.278 39.2325 11.0624 38.729 10.1656 37.8327C9.27233 36.934 8.77089 35.7179 8.77089 34.4504C8.77089 33.1828 9.27233 31.9668 10.1656 31.0681L17.6643 23.5641L15.6673 21.5657L8.20854 29.1097C6.83143 30.534 6.06883 32.4428 6.08516 34.4246C6.1015 36.4064 6.89546 38.3023 8.29586 39.7037C9.69625 41.1051 11.5909 41.8996 13.5713 41.9159C15.5517 41.9323 17.4592 41.1692 18.8825 39.7911L26.3812 32.2871L24.4242 30.3287Z" fill="black"/>
<path d="M23.5255 17.6989L31.0242 10.1949C31.9308 9.34863 33.1302 8.88769 34.3698 8.90922C35.6093 8.93076 36.7921 9.4331 37.6687 10.3103C38.5453 11.1876 39.0473 12.3712 39.0688 13.6116C39.0904 14.852 38.6297 16.0523 37.7841 16.9594L30.2854 24.4634L32.2823 26.4618L39.7811 18.9578C41.2018 17.5361 42 15.6078 42 13.5972C42 11.5865 41.2018 9.65821 39.7811 8.23646C38.3603 6.81472 36.4334 6.01599 34.4241 6.01599C32.4149 6.01599 30.4879 6.81472 29.0672 8.23646L21.5685 15.7404L23.5255 17.6989Z" fill="black"/>
<path d="M40.5699 41.9993C40.3845 42.0018 40.2005 41.9668 40.0289 41.8964C39.8573 41.826 39.7017 41.7216 39.5714 41.5896L6.41124 8.38634C6.2811 8.2597 6.17766 8.10824 6.10703 7.94091C6.03639 7.77358 6 7.59377 6 7.41213C6 7.23048 6.03639 7.05067 6.10703 6.88334C6.17766 6.71601 6.2811 6.56455 6.41124 6.43791C6.53841 6.29985 6.69279 6.18965 6.86465 6.11428C7.0365 6.03891 7.2221 6 7.40974 6C7.59737 6 7.78297 6.03891 7.95483 6.11428C8.12668 6.18965 8.28107 6.29985 8.40824 6.43791L41.5384 39.6412C41.6764 39.7685 41.7865 39.923 41.8618 40.0949C41.9372 40.2669 41.976 40.4526 41.976 40.6404C41.976 40.8282 41.9372 41.0139 41.8618 41.1859C41.7865 41.3578 41.6764 41.5123 41.5384 41.6396C41.275 41.8816 40.9273 42.0107 40.5699 41.9993Z" fill="black"/>
</svg>
