<svg width="48" height="48" viewBox="0 0 48 48" fill="none" xmlns="http://www.w3.org/2000/svg">
<path d="M25.3949 18.13L31.4633 12.07C32.0629 11.4943 32.8617 11.1728 33.6928 11.1728C34.5238 11.1728 35.3227 11.4943 35.9222 12.07C36.2169 12.3627 36.4508 12.7109 36.6104 13.0945C36.77 13.4781 36.8522 13.8895 36.8522 14.305C36.8522 14.7204 36.77 15.1318 36.6104 15.5154C36.4508 15.899 36.2169 16.2472 35.9222 16.54L29.8638 22.6L33.5028 26.23L39.5612 20.17C40.3321 19.3992 40.9435 18.4841 41.3607 17.4769C41.7779 16.4697 41.9926 15.3902 41.9926 14.3C41.9926 13.2097 41.7779 12.1302 41.3607 11.123C40.9435 10.1158 40.3321 9.20073 39.5612 8.42996C38.7907 7.65893 37.8758 7.0473 36.8689 6.63001C35.8619 6.21272 34.7827 5.99793 33.6928 5.99793C32.6028 5.99793 31.5236 6.21272 30.5167 6.63001C29.5097 7.0473 28.5949 7.65893 27.8243 8.42996L21.7659 14.49L25.3949 18.13Z" fill="black"/>
<path d="M22.5957 29.87L16.5372 35.93C15.936 36.5063 15.1355 36.8281 14.3028 36.8281C13.4701 36.8281 12.6696 36.5063 12.0684 35.93C11.7737 35.6372 11.5398 35.289 11.3802 34.9054C11.2205 34.5218 11.1384 34.1104 11.1384 33.695C11.1384 33.2795 11.2205 32.8681 11.3802 32.4845C11.5398 32.1009 11.7737 31.7527 12.0684 31.46L18.1268 25.4L14.4878 21.77L8.42933 27.83C7.26845 28.9907 6.47783 30.4698 6.15749 32.0802C5.83714 33.6905 6.00147 35.3596 6.62968 36.8765C7.25789 38.3934 8.32176 39.6898 9.68671 40.6018C11.0517 41.5138 12.6564 42.0004 14.2978 42C15.3881 42.0035 16.4682 41.7906 17.4756 41.3734C18.483 40.9563 19.3975 40.3433 20.1663 39.57L26.2247 33.51L22.5957 29.87Z" fill="black"/>
<path d="M39.4213 42C39.0836 42.0007 38.7491 41.9348 38.4369 41.8061C38.1247 41.6774 37.8409 41.4884 37.6018 41.25L6.74977 10.39C6.2672 9.90727 5.99609 9.25259 5.99609 8.56996C5.99609 7.88733 6.2672 7.23266 6.74977 6.74996C7.23234 6.26727 7.88684 5.99609 8.56929 5.99609C9.25175 5.99609 9.90625 6.26727 10.3888 6.74996L41.2408 37.61C41.6012 37.9694 41.8468 38.4278 41.9464 38.9271C42.046 39.4263 41.9951 39.9439 41.8002 40.4142C41.6053 40.8845 41.2751 41.2863 40.8516 41.5686C40.4281 41.8509 39.9302 42.001 39.4213 42Z" fill="black"/>
</svg>
