<svg width="48" height="48" viewBox="0 0 48 48" fill="none" xmlns="http://www.w3.org/2000/svg">
<path d="M11.6384 22.8353V27.0844H4V22.8353H6.40949V24.9549H9.2289V22.8353H11.6384ZM17.3672 25.0049C17.3672 25.3019 17.2492 25.5867 17.0392 25.7967C16.8292 26.0067 16.5444 26.1246 16.2474 26.1246C15.9504 26.1246 15.6656 26.0067 15.4556 25.7967C15.2456 25.5867 15.1277 25.3019 15.1277 25.0049V21.5756H14.0579V24.9949C14.0438 25.2871 14.0906 25.579 14.1954 25.8521C14.3002 26.1252 14.4606 26.3736 14.6665 26.5814C14.8724 26.7891 15.1193 26.9518 15.3915 27.0591C15.6636 27.1664 15.9551 27.2158 16.2474 27.2044C16.5405 27.2173 16.8331 27.1688 17.1065 27.0622C17.3798 26.9556 17.6279 26.7931 17.8349 26.5852C18.0419 26.3772 18.2033 26.1284 18.3087 25.8546C18.414 25.5807 18.4611 25.2879 18.447 24.9949V21.5756H17.3772V25.0049H17.3672ZM21.1964 23.1653C20.9781 23.1577 20.7616 23.2061 20.5673 23.3058C20.3731 23.4056 20.2076 23.5534 20.0866 23.7351V23.2652H19.0868V27.0844H20.0866V24.8849C20.0753 24.7839 20.0855 24.6816 20.1166 24.5848C20.1477 24.488 20.1989 24.3989 20.2669 24.3233C20.3349 24.2478 20.4182 24.1875 20.5112 24.1464C20.6042 24.1053 20.7048 24.0844 20.8065 24.0851C20.9063 24.0798 21.0061 24.0965 21.0988 24.1342C21.1914 24.1719 21.2746 24.2296 21.3424 24.3031C21.4102 24.3766 21.4609 24.4642 21.491 24.5596C21.521 24.655 21.5297 24.7558 21.5163 24.8549V27.0844H22.5161V24.6749C22.5369 24.4875 22.5186 24.2978 22.4622 24.1179C22.4058 23.9379 22.3125 23.7717 22.1884 23.6297C22.0643 23.4877 21.912 23.3731 21.7412 23.2932C21.5705 23.2132 21.3849 23.1697 21.1964 23.1653ZM24.9956 24.7749L24.4357 24.6549C24.2157 24.6549 24.0858 24.505 24.0858 24.315C24.0858 24.1251 24.2757 23.9451 24.5457 23.9451C24.8156 23.9451 25.0756 24.1351 25.1156 24.365H25.9954C25.9844 24.1899 25.9378 24.0189 25.8584 23.8625C25.779 23.7061 25.6686 23.5674 25.5338 23.4551C25.3991 23.3428 25.2428 23.2592 25.0746 23.2094C24.9064 23.1595 24.7299 23.1445 24.5557 23.1653C24.3762 23.1503 24.1955 23.1719 24.0246 23.2288C23.8537 23.2858 23.6961 23.3768 23.5615 23.4965C23.4269 23.6162 23.318 23.762 23.2414 23.925C23.1648 24.0881 23.1221 24.265 23.116 24.445C23.1223 24.7335 23.2351 25.0094 23.4325 25.2198C23.63 25.4302 23.8983 25.5602 24.1857 25.5848L24.7056 25.6947C25.0056 25.7547 25.1156 25.8947 25.1156 26.0746C25.1156 26.2546 24.9356 26.4446 24.5957 26.4446C24.4379 26.4601 24.2801 26.4165 24.1526 26.3223C24.0252 26.2282 23.9372 26.09 23.9058 25.9347H22.996C23.0146 26.1273 23.0716 26.3143 23.1636 26.4846C23.2556 26.6549 23.3807 26.805 23.5317 26.9262C23.6826 27.0473 23.8563 27.137 24.0425 27.1899C24.2287 27.2429 24.4235 27.258 24.6157 27.2344C24.798 27.2566 24.9829 27.241 25.159 27.1887C25.3351 27.1364 25.4985 27.0485 25.6392 26.9303C25.7798 26.8122 25.8946 26.6664 25.9766 26.502C26.0585 26.3376 26.1057 26.1581 26.1153 25.9747C26.1153 25.4148 25.7454 24.9749 24.9856 24.8049L24.9956 24.7749ZM30.5144 25.1948C30.5379 25.4465 30.509 25.7003 30.4295 25.9402C30.3501 26.1801 30.2217 26.401 30.0527 26.5889C29.8836 26.7767 29.6774 26.9275 29.4471 27.0318C29.2169 27.136 28.9675 27.1914 28.7148 27.1944C28.5086 27.2063 28.3024 27.1711 28.1118 27.0914C27.9213 27.0117 27.7514 26.8897 27.615 26.7345V28.5541H26.6152V23.2652H27.615V23.7351C27.7495 23.551 27.9279 23.4033 28.1339 23.3056C28.3399 23.2078 28.5671 23.163 28.7948 23.1753C29.0465 23.1762 29.2952 23.2305 29.5244 23.3346C29.7536 23.4387 29.9581 23.5902 30.1244 23.7792C30.2907 23.9682 30.415 24.1903 30.4892 24.4309C30.5633 24.6715 30.5855 24.925 30.5544 25.1748L30.5144 25.1948ZM29.5546 25.1748C29.604 25.0247 29.617 24.865 29.5927 24.7088C29.5684 24.5526 29.5074 24.4044 29.4147 24.2764C29.322 24.1483 29.2002 24.0441 29.0595 23.9722C28.9187 23.9003 28.7629 23.8629 28.6048 23.8629C28.4468 23.8629 28.2909 23.9003 28.1502 23.9722C28.0094 24.0441 27.8877 24.1483 27.795 24.2764C27.7023 24.4044 27.6413 24.5526 27.6169 24.7088C27.5926 24.865 27.6057 25.0247 27.655 25.1748C27.6441 25.3086 27.6603 25.4432 27.7025 25.5705C27.7447 25.6979 27.8122 25.8155 27.9008 25.9162C27.9895 26.017 28.0975 26.0989 28.2184 26.157C28.3394 26.2152 28.4708 26.2483 28.6048 26.2546C28.7389 26.2483 28.8703 26.2152 28.9912 26.157C29.1122 26.0989 29.2202 26.017 29.3088 25.9162C29.3974 25.8155 29.4649 25.6979 29.5071 25.5705C29.5493 25.4432 29.5655 25.3086 29.5546 25.1748ZM35.5034 23.2652H36.5032V27.0844H35.5034V26.6145C35.3849 26.7958 35.221 26.9428 35.0281 27.041C34.8351 27.1393 34.6198 27.1853 34.4036 27.1744C34.1509 27.1714 33.9015 27.116 33.6712 27.0118C33.441 26.9075 33.2348 26.7568 33.0657 26.5689C32.8966 26.381 32.7683 26.1602 32.6888 25.9202C32.6094 25.6803 32.5805 25.4265 32.604 25.1748C32.5713 24.9256 32.5921 24.6722 32.665 24.4316C32.7379 24.1911 32.8613 23.9688 33.0268 23.7796C33.1924 23.5904 33.3963 23.4386 33.6251 23.3344C33.8539 23.2302 34.1022 23.176 34.3536 23.1753C34.5811 23.1648 34.8076 23.2104 35.0133 23.308C35.2191 23.4056 35.3976 23.5523 35.5334 23.7351V23.2652H35.5034ZM35.5034 25.1748C35.5527 25.0247 35.5658 24.865 35.5414 24.7088C35.5171 24.5526 35.4561 24.4044 35.3634 24.2764C35.2707 24.1483 35.149 24.0441 35.0082 23.9722C34.8674 23.9003 34.7116 23.8629 34.5536 23.8629C34.3955 23.8629 34.2397 23.9003 34.0989 23.9722C33.9581 24.0441 33.8364 24.1483 33.7437 24.2764C33.651 24.4044 33.59 24.5526 33.5657 24.7088C33.5414 24.865 33.5544 25.0247 33.6038 25.1748C33.5929 25.3078 33.6087 25.4416 33.6503 25.5683C33.6919 25.6951 33.7585 25.8122 33.8461 25.9128C33.9337 26.0134 34.0405 26.0955 34.1603 26.1542C34.2801 26.2129 34.4104 26.2471 34.5436 26.2546C34.6819 26.2551 34.8188 26.2268 34.9456 26.1716C35.0724 26.1165 35.1864 26.0356 35.2804 25.9341C35.3743 25.8326 35.4462 25.7127 35.4915 25.582C35.5368 25.4514 35.5544 25.3127 35.5434 25.1748H35.5034ZM30.9943 27.0844H31.9941V21.5756H30.9943V27.0844ZM42.5619 23.1653C42.3752 23.1623 42.19 23.1981 42.018 23.2704C41.8459 23.3427 41.6906 23.4499 41.5621 23.5852V21.5856H40.5623V27.0844H41.5621V24.8449C41.558 24.7479 41.5737 24.651 41.608 24.5602C41.6424 24.4694 41.6948 24.3864 41.762 24.3164C41.8293 24.2463 41.91 24.1906 41.9994 24.1526C42.0887 24.1145 42.1848 24.095 42.2819 24.0951C42.3813 24.0882 42.481 24.1035 42.5736 24.14C42.6663 24.1765 42.7497 24.2332 42.8177 24.306C42.8857 24.3788 42.9366 24.4659 42.9667 24.5608C42.9968 24.6558 43.0054 24.7562 42.9918 24.8549V27.0844H43.9916V24.6849C44.0135 24.4877 43.9924 24.2881 43.9296 24.0998C43.8668 23.9116 43.7639 23.7392 43.6279 23.5947C43.4919 23.4502 43.3262 23.3369 43.1421 23.2628C42.958 23.1886 42.7601 23.1554 42.5619 23.1653ZM38.8927 24.7749L38.3228 24.6549C38.1028 24.6549 37.9728 24.505 37.9728 24.315C37.9728 24.1251 38.1628 23.9451 38.4427 23.9451C38.7227 23.9451 38.9726 24.1351 39.0026 24.365H39.9024C39.8901 24.1895 39.8423 24.0183 39.7619 23.8618C39.6815 23.7053 39.5701 23.5668 39.4346 23.4546C39.299 23.3425 39.1421 23.259 38.9733 23.2092C38.8046 23.1595 38.6275 23.1445 38.4527 23.1653C38.2716 23.1474 38.0888 23.1669 37.9156 23.2225C37.7423 23.2781 37.5823 23.3687 37.4455 23.4887C37.3086 23.6086 37.1979 23.7554 37.1201 23.9199C37.0422 24.0844 36.999 24.2631 36.993 24.445C37.0073 24.733 37.1275 25.0056 37.3305 25.2104C37.5335 25.4152 37.8049 25.5379 38.0928 25.5548L38.6227 25.6647C38.9226 25.7247 39.0326 25.8647 39.0326 26.0447C39.0326 26.2246 38.8527 26.4146 38.5127 26.4146C38.3538 26.4304 38.1946 26.3872 38.0655 26.2932C37.9364 26.1991 37.8465 26.0608 37.8129 25.9047H36.9031C36.9204 26.0969 36.9762 26.2837 37.0671 26.4539C37.1581 26.6242 37.2823 26.7744 37.4325 26.8956C37.5827 27.0169 37.7557 27.1067 37.9412 27.1597C38.1268 27.2128 38.3212 27.228 38.5127 27.2044C38.6932 27.2222 38.8755 27.2035 39.0486 27.1493C39.2217 27.0951 39.3821 27.0065 39.5202 26.8889C39.6583 26.7713 39.7713 26.6271 39.8525 26.4649C39.9336 26.3026 39.9812 26.1257 39.9924 25.9447C39.9924 25.3848 39.6125 24.9449 38.8627 24.7749H38.8927ZM9.2389 19.446H6.40949V21.5756H9.2289V19.446H9.2389Z" fill="black"/>
</svg>
