<svg width="48" height="48" viewBox="0 0 48 48" fill="none" xmlns="http://www.w3.org/2000/svg">
<path d="M39.43 6H8.57C7.88839 6 7.2347 6.27077 6.75274 6.75274C6.27077 7.2347 6 7.88839 6 8.57C6 9.25161 6.27077 9.9053 6.75274 10.3873C7.2347 10.8692 7.88839 11.14 8.57 11.14H39.43C40.1116 11.14 40.7653 10.8692 41.2473 10.3873C41.7292 9.9053 42 9.25161 42 8.57C42 7.88839 41.7292 7.2347 41.2473 6.75274C40.7653 6.27077 40.1116 6 39.43 6Z" fill="black"/>
<path d="M26.45 13.37C26.1293 13.0465 25.7476 12.7897 25.3271 12.6145C24.9066 12.4392 24.4556 12.349 24 12.349C23.5444 12.349 23.0934 12.4392 22.6729 12.6145C22.2524 12.7897 21.8707 13.0465 21.55 13.37L12.89 22C12.4073 22.4827 12.1361 23.1374 12.1361 23.82C12.1361 24.5026 12.4073 25.1573 12.89 25.64C13.3727 26.1227 14.0274 26.3939 14.71 26.3939C15.3926 26.3939 16.0473 26.1227 16.53 25.64L21.43 20.74V39.43C21.43 39.7675 21.4965 40.1017 21.6256 40.4135C21.7548 40.7253 21.9441 41.0086 22.1827 41.2473C22.4214 41.4859 22.7047 41.6752 23.0165 41.8044C23.3283 41.9335 23.6625 42 24 42C24.3375 42 24.6717 41.9335 24.9835 41.8044C25.2953 41.6752 25.5786 41.4859 25.8173 41.2473C26.0559 41.0086 26.2452 40.7253 26.3744 40.4135C26.5035 40.1017 26.57 39.7675 26.57 39.43V20.76L31.47 25.66C31.9553 26.1414 32.612 26.4102 33.2956 26.4074C33.9792 26.4046 34.6336 26.1303 35.115 25.645C35.5964 25.1597 35.8652 24.503 35.8624 23.8194C35.8596 23.1358 35.5853 22.4814 35.1 22L26.45 13.37Z" fill="black"/>
</svg>
