<svg width="48" height="48" viewBox="0 0 48 48" fill="none" xmlns="http://www.w3.org/2000/svg">
<path d="M7.38012 6H40.6201C40.9671 6.02951 41.2904 6.18821 41.526 6.44469C41.7616 6.70117 41.8923 7.03674 41.8923 7.385C41.8923 7.73326 41.7616 8.06883 41.526 8.32531C41.2904 8.58179 40.9671 8.74049 40.6201 8.77H7.38012C7.03311 8.74049 6.70982 8.58179 6.47423 8.32531C6.23864 8.06883 6.10791 7.73326 6.10791 7.385C6.10791 7.03674 6.23864 6.70117 6.47423 6.44469C6.70982 6.18821 7.03311 6.02951 7.38012 6Z" fill="black"/>
<path d="M35.0001 22.85L25.6601 13.53C25.2611 13.1334 24.7316 12.8953 24.1701 12.86H23.8201C23.2622 12.8977 22.7366 13.1356 22.3401 13.53L13.0001 22.85C12.7349 23.1152 12.5859 23.4749 12.5859 23.85C12.5859 24.2251 12.7349 24.5848 13.0001 24.85C13.2653 25.1152 13.625 25.2642 14.0001 25.2642C14.3752 25.2642 14.7349 25.1152 15.0001 24.85L22.6401 17.21V40.62C22.6401 40.986 22.7855 41.337 23.0443 41.5958C23.3031 41.8546 23.6541 42 24.0201 42C24.3861 42 24.7371 41.8546 24.9959 41.5958C25.2547 41.337 25.4001 40.986 25.4001 40.62V17.17L33.0001 24.81C33.2653 25.0752 33.625 25.2242 34.0001 25.2242C34.3752 25.2242 34.7349 25.0752 35.0001 24.81C35.2653 24.5448 35.4143 24.1851 35.4143 23.81C35.4143 23.4349 35.2653 23.0752 35.0001 22.81V22.85Z" fill="black"/>
</svg>
