<svg width="48" height="48" viewBox="0 0 48 48" fill="none" xmlns="http://www.w3.org/2000/svg">
<path fill-rule="evenodd" clip-rule="evenodd" d="M44 23.98L39.5619 21.4111V23.2404H16.8513L21.2795 18.5723C21.6729 18.27 22.1528 18.1018 22.6489 18.0925H26.3673C26.5096 18.4716 26.7529 18.8046 27.0709 19.0554C27.3889 19.3061 27.7695 19.465 28.1713 19.515C28.5732 19.5649 28.9811 19.5039 29.3508 19.3386C29.7204 19.1733 30.0378 18.91 30.2686 18.5772C30.4993 18.2444 30.6346 17.8548 30.6597 17.4507C30.6849 17.0465 30.599 16.6431 30.4113 16.2843C30.2236 15.9255 29.9413 15.6248 29.5949 15.415C29.2486 15.2051 28.8514 15.094 28.4465 15.0938C27.9879 15.0942 27.5409 15.2381 27.1681 15.5051C26.7953 15.7722 26.5153 16.1491 26.3673 16.5831H22.6989C21.6896 16.6389 20.7346 17.0579 20.01 17.7626L15.3219 22.7606C14.9336 23.0772 14.4532 23.2596 13.9525 23.2803H11.3636C11.1814 22.3762 10.6697 21.5721 9.92784 21.0241C9.18601 20.4761 8.267 20.2234 7.34928 20.315C6.43156 20.4065 5.58061 20.8359 4.96168 21.5196C4.34274 22.2034 4 23.0928 4 24.015C4 24.9373 4.34274 25.8267 4.96168 26.5104C5.58061 27.1942 6.43156 27.6235 7.34928 27.7151C8.267 27.8067 9.18601 27.5539 9.92784 27.0059C10.6697 26.4579 11.1814 25.6538 11.3636 24.7497H19.4902C19.9916 24.7754 20.4715 24.9611 20.8596 25.2795C20.8596 25.2795 25.5277 30.2174 25.5477 30.2274C26.2723 30.9396 27.232 31.3626 28.2466 31.4169H31.7851V32.9063H36.2232V28.4182H31.7851V29.9076H28.2066C27.7028 29.8875 27.2189 29.7052 26.8272 29.3878L22.409 24.7097H39.5619V26.549L44 23.98Z" fill="black"/>
</svg>
