<svg width="48" height="48" viewBox="0 0 48 48" fill="none" xmlns="http://www.w3.org/2000/svg">
<path d="M33.0789 26.6033C31.925 25.3458 30.5345 24.3283 28.9868 23.609C30.7494 22.5227 32.1094 20.891 32.8604 18.9615C33.6113 17.032 33.7122 14.9102 33.1477 12.9182C32.5831 10.9262 31.384 9.17277 29.7324 7.92418C28.0808 6.67558 26.0669 6 23.9964 6C21.9259 6 19.912 6.67558 18.2604 7.92418C16.6088 9.17277 15.4097 10.9262 14.8452 12.9182C14.2806 14.9102 14.3815 17.032 15.1324 18.9615C15.8834 20.891 17.2434 22.5227 19.006 23.609C16.6175 24.7548 14.6093 26.5641 13.2217 28.8207C11.8341 31.0774 11.1257 33.6859 11.1811 36.3345C11.1811 39.9375 15.8122 41.9936 23.8467 41.9936H24.0164C26.8366 42.0541 29.6498 41.6873 32.3603 40.9057C36.0532 39.698 36.8217 37.7018 36.8217 36.2347C36.8286 32.668 35.4924 29.2294 33.0789 26.6033Z" fill="black"/>
</svg>
