<svg width="48" height="48" viewBox="0 0 48 48" fill="none" xmlns="http://www.w3.org/2000/svg">
<path d="M23.3337 23.6841C25.2295 22.7654 26.7576 21.2308 27.6681 19.331C28.5787 17.4313 28.8179 15.2789 28.3466 13.2256C27.8753 11.1723 26.7214 9.33962 25.0735 8.02714C23.4256 6.71465 21.3813 6 19.2746 6C17.1679 6 15.1235 6.71465 13.4757 8.02714C11.8278 9.33962 10.6739 11.1723 10.2026 13.2256C9.73129 15.2789 9.97047 17.4313 10.881 19.331C11.7916 21.2308 13.3197 22.7654 15.2155 23.6841C13.3021 24.3735 11.5861 25.5198 10.2166 27.0234C7.83235 29.6546 6.53221 33.0907 6.57744 36.6412C6.57744 40.0504 11.1564 42 19.1246 42H19.3046C27.3828 42 32.0017 40.0005 31.9917 36.5512C32.0034 33.0129 30.6745 29.6015 28.2726 27.0034C26.9152 25.5181 25.2216 24.3799 23.3337 23.6841ZM12.7261 15.316C12.7261 14.0208 13.1101 12.7547 13.8297 11.6778C14.5492 10.6009 15.572 9.76159 16.7686 9.26595C17.9652 8.77031 19.2818 8.64063 20.5521 8.8933C21.8224 9.14598 22.9893 9.76967 23.9051 10.6855C24.8209 11.6013 25.4446 12.7682 25.6973 14.0384C25.95 15.3087 25.8203 16.6254 25.3246 17.822C24.829 19.0186 23.9896 20.0413 22.9127 20.7609C21.8358 21.4805 20.5698 21.8645 19.2746 21.8645C17.5386 21.8619 15.8745 21.1711 14.647 19.9436C13.4195 18.7161 12.7287 17.052 12.7261 15.316ZM19.2946 39.2306C12.4761 39.2306 9.29682 37.731 9.29682 36.6312C9.277 33.7729 10.3376 31.0126 12.2662 28.9029C13.1481 27.9177 14.2263 27.1278 15.4315 26.5837C16.6367 26.0396 17.9423 25.7535 19.2646 25.7437C20.5835 25.7447 21.8876 26.0219 23.093 26.5574C24.2983 27.093 25.3781 27.8749 26.263 28.853C28.2004 30.9514 29.2719 33.7052 29.2623 36.5612C29.2323 37.651 26.153 39.2106 19.2946 39.2306Z" fill="black"/>
<path d="M37.7904 15.316L40.9697 12.1467C41.2349 11.8816 41.3838 11.5219 41.3838 11.1469C41.3838 10.772 41.2349 10.4123 40.9697 10.1472C40.7046 9.88201 40.3449 9.73304 39.9699 9.73304C39.5949 9.73304 39.2353 9.88201 38.9702 10.1472L35.8409 13.3664L32.6616 10.1872C32.3964 9.922 32.0368 9.77303 31.6618 9.77303C31.2868 9.77303 30.9272 9.922 30.662 10.1872C30.3969 10.4523 30.2479 10.8119 30.2479 11.1869C30.2479 11.5619 30.3969 11.9215 30.662 12.1867L33.8413 15.356L30.662 18.5353C30.4661 18.7294 30.3328 18.9779 30.2795 19.2485C30.2261 19.5192 30.2551 19.7996 30.3628 20.0536C30.4704 20.3076 30.6517 20.5235 30.8832 20.6735C31.1148 20.8234 31.386 20.9005 31.6618 20.8947C31.8468 20.8991 32.0308 20.8659 32.2026 20.7972C32.3745 20.7284 32.5306 20.6256 32.6616 20.4948L35.8409 17.3156L39.0101 20.4948C39.1414 20.6261 39.2973 20.7303 39.4688 20.8013C39.6404 20.8724 39.8242 20.909 40.0099 20.909C40.1956 20.909 40.3795 20.8724 40.551 20.8013C40.7225 20.7303 40.8784 20.6261 41.0097 20.4948C41.141 20.3635 41.2451 20.2077 41.3162 20.0361C41.3872 19.8646 41.4238 19.6807 41.4238 19.4951C41.4238 19.3094 41.3872 19.1255 41.3162 18.954C41.2451 18.7824 41.141 18.6266 41.0097 18.4953L37.7904 15.316Z" fill="black"/>
</svg>
