<svg width="48" height="48" viewBox="0 0 48 48" fill="none" xmlns="http://www.w3.org/2000/svg">
<path d="M11.92 34.22C11.9049 32.3206 12.3062 30.4408 13.0958 28.7131C13.8853 26.9854 15.0439 25.4518 16.49 24.22C15.6383 23.1347 15.0324 21.8775 14.7142 20.5351C14.396 19.1927 14.373 17.7972 14.6469 16.4451C14.9207 15.093 15.4849 13.8164 16.3003 12.7037C17.1158 11.5909 18.1631 10.6684 19.37 10C18.5925 9.31598 17.6854 8.79533 16.7026 8.46907C15.7197 8.14281 14.6813 8.01762 13.6491 8.10095C12.6169 8.18428 11.612 8.47442 10.6943 8.95411C9.77651 9.43381 8.96464 10.0932 8.30698 10.8932C7.64933 11.6931 7.15933 12.6171 6.86616 13.6103C6.57299 14.6035 6.48263 15.6456 6.60047 16.6744C6.71831 17.7032 7.04194 18.6978 7.55209 19.599C8.06224 20.5002 8.74848 21.2895 9.56997 21.92C8.58206 22.4601 7.69007 23.1595 6.92997 23.99C5.0283 26.0823 3.98249 28.8128 3.99997 31.64C3.99997 32.64 4.49997 34.57 7.73997 35.64C9.24256 36.0837 10.7944 36.339 12.36 36.4C12.0636 35.7118 11.9138 34.9694 11.92 34.22Z" fill="black"/>
<path d="M38.41 21.8701C39.2749 21.2553 40.0038 20.4689 40.5512 19.5599C41.0986 18.6509 41.4527 17.6388 41.5914 16.5868C41.7302 15.5348 41.6505 14.4655 41.3575 13.4457C41.0645 12.4258 40.5644 11.4773 39.8885 10.6594C39.2125 9.84148 38.3751 9.17169 37.4287 8.69185C36.4823 8.21201 35.4471 7.93243 34.3878 7.87056C33.3286 7.80868 32.2679 7.96585 31.272 8.33224C30.2762 8.69864 29.3666 9.26639 28.6 10.0001C29.8115 10.6663 30.8635 11.5882 31.6831 12.7018C32.5026 13.8154 33.07 15.094 33.346 16.4488C33.6219 17.8037 33.5997 19.2023 33.2809 20.5477C32.9621 21.8931 32.3544 23.153 31.5 24.2401C32.9479 25.4708 34.1083 27.0041 34.8997 28.7318C35.691 30.4596 36.0939 32.3398 36.08 34.2401C36.0879 35.0045 35.931 35.7617 35.62 36.4601C41.05 36.1401 44.01 34.4601 44 31.6601C44.0316 29.6769 43.5294 27.7218 42.546 25.9994C41.5625 24.277 40.134 22.8507 38.41 21.8701Z" fill="black"/>
<path d="M28.67 24.4501C29.9576 23.4705 30.9055 22.1116 31.38 20.5649C31.8545 19.0182 31.8318 17.3615 31.3149 15.8284C30.7981 14.2953 29.8132 12.963 28.4991 12.0192C27.185 11.0754 25.6079 10.5678 23.99 10.5678C22.3721 10.5678 20.795 11.0754 19.4808 12.0192C18.1667 12.963 17.1819 14.2953 16.665 15.8284C16.1482 17.3615 16.1254 19.0182 16.5999 20.5649C17.0744 22.1116 18.0223 23.4705 19.31 24.4501C17.5916 25.4312 16.1676 26.855 15.1862 28.5733C14.2048 30.2916 13.702 32.2415 13.73 34.22C13.75 37.3 17.35 39 23.88 39H24C30.62 39 34.26 37.25 34.24 34.14C34.262 32.1745 33.757 30.2391 32.7774 28.5349C31.7978 26.8308 30.3795 25.4202 28.67 24.4501Z" fill="black"/>
</svg>
