<svg width="48" height="48" viewBox="0 0 48 48" fill="none" xmlns="http://www.w3.org/2000/svg">
<path d="M40.36 12.5499H28.66C28.66 11.314 28.169 10.1287 27.2951 9.25478C26.4212 8.38086 25.2359 7.88989 24 7.88989C22.7641 7.88989 21.5788 8.38086 20.7049 9.25478C19.831 10.1287 19.34 11.314 19.34 12.5499H7.64C6.67542 12.5525 5.75111 12.9369 5.06905 13.6189C4.38699 14.301 4.00264 15.2253 4 16.1899V36.5199C4 37.4853 4.3835 38.4111 5.06613 39.0938C5.74876 39.7764 6.67461 40.1599 7.64 40.1599H40.36C41.3254 40.1599 42.2512 39.7764 42.9339 39.0938C43.6165 38.4111 44 37.4853 44 36.5199V16.1899C43.9974 15.2253 43.613 14.301 42.931 13.6189C42.2489 12.9369 41.3246 12.5525 40.36 12.5499ZM27.47 33.4099C26.3459 33.7342 25.1798 33.8892 24.01 33.8699H23.94C22.7916 33.8966 21.6456 33.7517 20.54 33.4399C18.85 32.8999 18.59 31.9199 18.59 31.3799C18.5743 29.8792 19.1282 28.4283 20.14 27.3199C20.5583 26.8513 21.0602 26.4647 21.62 26.1799C20.9236 25.6776 20.4044 24.9676 20.137 24.1517C19.8695 23.3358 19.8676 22.4561 20.1315 21.6391C20.3954 20.8221 20.9116 20.1098 21.6057 19.6045C22.2999 19.0992 23.1364 18.827 23.995 18.827C24.8536 18.827 25.6901 19.0992 26.3843 19.6045C27.0784 20.1098 27.5946 20.8221 27.8585 21.6391C28.1224 22.4561 28.1205 23.3358 27.853 24.1517C27.5856 24.9676 27.0664 25.6776 26.37 26.1799C27.2893 26.689 28.0536 27.4375 28.5818 28.346C29.11 29.2545 29.3824 30.2891 29.37 31.3399C29.41 31.8799 29.16 32.8599 27.47 33.4099Z" fill="black"/>
</svg>
