<svg width="48" height="48" viewBox="0 0 48 48" fill="none" xmlns="http://www.w3.org/2000/svg">
<path d="M23.6257 23.6841C25.5215 22.7654 27.0496 21.2308 27.9602 19.331C28.8707 17.4313 29.1099 15.2789 28.6386 13.2256C28.1673 11.1723 27.0134 9.33962 25.3656 8.02714C23.7177 6.71465 21.6733 6 19.5666 6C17.46 6 15.4156 6.71465 13.7677 8.02714C12.1198 9.33962 10.9659 11.1723 10.4946 13.2256C10.0233 15.2789 10.2625 17.4313 11.1731 19.331C12.0837 21.2308 13.6117 22.7654 15.5075 23.6841C13.5942 24.3735 11.8782 25.5198 10.5087 27.0234C8.1244 29.6546 6.82426 33.0907 6.86949 36.6412C6.86949 40.0504 11.4485 42 19.4167 42H19.5966C27.6748 42 32.2938 40.0005 32.2838 36.5512C32.2954 33.0129 30.9666 29.6015 28.5646 27.0034C27.2073 25.5181 25.5136 24.3799 23.6257 23.6841ZM13.0181 15.316C13.0181 14.0208 13.4022 12.7547 14.1217 11.6778C14.8413 10.6009 15.864 9.76159 17.0606 9.26595C18.2572 8.77031 19.5739 8.64063 20.8442 8.8933C22.1145 9.14598 23.2813 9.76967 24.1971 10.6855C25.113 11.6013 25.7367 12.7682 25.9893 14.0384C26.242 15.3087 26.1123 16.6254 25.6167 17.822C25.121 19.0186 24.2817 20.0413 23.2048 20.7609C22.1279 21.4805 20.8618 21.8645 19.5666 21.8645C17.8307 21.8619 16.1666 21.1711 14.939 19.9436C13.7115 18.7161 13.0208 17.052 13.0181 15.316ZM19.5866 39.2306C12.7482 39.2306 9.58888 37.731 9.58888 36.6312C9.56905 33.7729 10.6296 31.0126 12.5582 28.9029C13.4402 27.9177 14.5183 27.1278 15.7235 26.5837C16.9287 26.0396 18.2344 25.7535 19.5566 25.7437C20.8756 25.7447 22.1797 26.0219 23.385 26.5574C24.5903 27.093 25.6702 27.8749 26.5551 28.853C28.4924 30.9514 29.564 33.7052 29.5544 36.5612C29.5244 37.651 26.4451 39.2106 19.5866 39.2306Z" fill="black"/>
<path d="M39.7921 12.8965C39.6548 12.0234 39.2103 11.2279 38.5385 10.6534C37.8667 10.079 37.0118 9.76334 36.1279 9.76334C35.244 9.76334 34.3891 10.079 33.7174 10.6534C33.0456 11.2279 32.601 12.0234 32.4637 12.8965C32.0799 13.0083 31.7422 13.2408 31.5009 13.5596C31.2596 13.8783 31.1274 14.2664 31.124 14.6661V19.0052C31.124 19.2476 31.1719 19.4876 31.265 19.7115C31.3581 19.9353 31.4945 20.1386 31.6664 20.3095C31.8383 20.4805 32.0422 20.6158 32.2666 20.7076C32.4909 20.7995 32.7312 20.8461 32.9736 20.8448H39.2822C39.5246 20.8461 39.7649 20.7995 39.9893 20.7076C40.2136 20.6158 40.4176 20.4805 40.5895 20.3095C40.7613 20.1386 40.8977 19.9353 40.9908 19.7115C41.0839 19.4876 41.1318 19.2476 41.1318 19.0052V14.6661C41.1284 14.2664 40.9962 13.8783 40.7549 13.5596C40.5136 13.2408 40.176 13.0083 39.7921 12.8965ZM36.7928 12.8166H35.4731C35.6548 12.659 35.8873 12.5722 36.1279 12.5722C36.3685 12.5722 36.601 12.659 36.7828 12.8166H36.7928ZM38.3724 18.0854H33.8634V15.5859H38.3624L38.3724 18.0854Z" fill="black"/>
</svg>
