<svg width="48" height="48" viewBox="0 0 48 48" fill="none" xmlns="http://www.w3.org/2000/svg">
<path d="M25.125 23.6366C26.8904 22.5486 28.2526 20.9143 29.0047 18.9818C29.7568 17.0493 29.8579 14.9242 29.2925 12.929C28.727 10.9339 27.5261 9.17774 25.8718 7.92719C24.2176 6.67664 22.2006 6 20.1269 6C18.0531 6 16.0361 6.67664 14.3819 7.92719C12.7277 9.17774 11.5267 10.9339 10.9613 12.929C10.3958 14.9242 10.4969 17.0493 11.249 18.9818C12.0011 20.9143 13.3633 22.5486 15.1287 23.6366C13.5604 24.3459 12.1525 25.3661 10.9902 26.6356C8.5769 29.2839 7.25859 32.7494 7.30149 36.332C7.30149 39.9407 11.9398 42 19.9869 42H20.1568C28.2939 42 32.9922 39.8708 32.9822 36.2321C32.9892 32.6598 31.6508 29.2158 29.2336 26.5856C28.0723 25.3408 26.6759 24.3386 25.125 23.6366Z" fill="black"/>
<path d="M39.4399 13.5603C39.3944 12.7519 39.0413 11.9916 38.4529 11.4354C37.8646 10.8792 37.0857 10.5693 36.276 10.5693C35.4664 10.5693 34.6875 10.8792 34.0991 11.4354C33.5108 11.9916 33.1576 12.7519 33.1122 13.5603C32.77 13.5806 32.4484 13.7303 32.2126 13.9791C31.9768 14.2279 31.8446 14.557 31.8426 14.8998V19.1383C31.8426 19.3155 31.8775 19.491 31.9453 19.6547C32.0132 19.8184 32.1126 19.9672 32.2379 20.0925C32.3632 20.2178 32.512 20.3172 32.6757 20.385C32.8394 20.4529 33.0149 20.4878 33.1921 20.4878H39.3499C39.5275 20.4891 39.7036 20.4551 39.8679 20.3878C40.0322 20.3204 40.1815 20.2211 40.3071 20.0955C40.4327 19.9699 40.5321 19.8206 40.5994 19.6563C40.6668 19.4919 40.7008 19.3159 40.6994 19.1383V14.8998C40.6977 14.5587 40.5668 14.2309 40.3331 13.9823C40.0994 13.7338 39.7803 13.583 39.4399 13.5603ZM36.291 12.3907C36.619 12.3929 36.9358 12.5102 37.1861 12.7221C37.4364 12.934 37.6043 13.2272 37.6605 13.5503H34.9115C34.9662 13.2246 35.135 12.929 35.3878 12.7165C35.6406 12.504 35.9608 12.3885 36.291 12.3907Z" fill="black"/>
</svg>
