<svg width="48" height="48" viewBox="0 0 48 48" fill="none" xmlns="http://www.w3.org/2000/svg">
<path d="M29.3839 23.3355C30.5302 22.5434 31.4884 21.5091 32.1908 20.3057C32.8931 19.1023 33.3223 17.7593 33.4481 16.3716C33.5738 14.984 33.3931 13.5857 32.9186 12.2756C32.4441 10.9656 31.6874 9.77583 30.7022 8.79059C29.717 7.80536 28.5272 7.04871 27.2172 6.57421C25.9071 6.0997 24.5088 5.91894 23.1211 6.04471C21.7335 6.17049 20.3904 6.59972 19.1871 7.30203C17.9837 8.00434 16.9494 8.96257 16.1573 10.1089L29.3839 23.3355Z" fill="black"/>
<path d="M18.0568 24.1053C15.9238 25.3434 14.1599 27.1285 12.9473 29.2761C11.7346 31.4237 11.1171 33.8561 11.1586 36.3221C11.1686 39.9311 15.7874 41.9906 23.8453 41.9906H23.9953C26.8203 42.0513 29.6381 41.6839 32.3531 40.9009C32.9558 40.7072 33.541 40.4631 34.1027 40.1711L18.0568 24.1053Z" fill="black"/>
<path d="M30.4936 24.4452L34.6225 28.5741C34.173 27.8609 33.6575 27.1915 33.0829 26.5746C32.315 25.7564 31.4447 25.0407 30.4936 24.4452Z" fill="black"/>
<path d="M39.4213 41.9906C39.0836 41.9913 38.7491 41.9255 38.4369 41.7968C38.1247 41.6682 37.8409 41.4792 37.6018 41.2408L6.74977 10.3888C6.2672 9.90625 5.99609 9.25175 5.99609 8.56929C5.99609 7.88684 6.2672 7.23234 6.74977 6.74977C7.23234 6.2672 7.88684 5.99609 8.56929 5.99609C9.25175 5.99609 9.90625 6.2672 10.3888 6.74977L41.2408 37.6018C41.6012 37.9611 41.8468 38.4194 41.9464 38.9185C42.046 39.4176 41.9951 39.9351 41.8002 40.4053C41.6053 40.8754 41.2751 41.2771 40.8516 41.5594C40.4281 41.8416 39.9302 41.9917 39.4213 41.9906Z" fill="black"/>
</svg>
