<svg width="48" height="48" viewBox="0 0 48 48" fill="none" xmlns="http://www.w3.org/2000/svg">
<path d="M25.165 23.6366C26.9304 22.5486 28.2926 20.9143 29.0447 18.9818C29.7968 17.0493 29.8979 14.9242 29.3324 12.929C28.767 10.9339 27.566 9.17774 25.9118 7.92719C24.2576 6.67664 22.2405 6 20.1668 6C18.0931 6 16.076 6.67664 14.4218 7.92719C12.7676 9.17774 11.5667 10.9339 11.0012 12.929C10.4358 14.9242 10.5368 17.0493 11.289 18.9818C12.0411 20.9143 13.4033 22.5486 15.1686 23.6366C13.6004 24.3459 12.1925 25.3661 11.0301 26.6356C8.61688 29.2839 7.29857 32.7494 7.34147 36.332C7.34147 39.9407 11.9798 42 20.0269 42H20.1968C28.3339 42 33.0322 39.8708 33.0222 36.2321C33.0508 33.6018 32.3261 31.0182 30.9339 28.7864C29.5417 26.5545 27.5399 24.7676 25.165 23.6366Z" fill="black"/>
<path d="M39.4199 11.691C39.007 11.8561 38.5509 11.879 38.1237 11.7558C37.6964 11.6327 37.3224 11.3707 37.0607 11.0112L36.331 9.8916L35.5713 11.0112C35.3138 11.3759 34.9416 11.644 34.514 11.7726C34.0864 11.9012 33.6281 11.8831 33.2121 11.7209L31.9626 11.1911V14.8798C31.9591 16.1217 32.3531 17.3321 33.087 18.3339C33.8208 19.3358 34.856 20.0765 36.0411 20.4478L36.311 20.5378L36.5909 20.4478C37.775 20.0761 38.8088 19.335 39.541 18.333C40.2732 17.331 40.6651 16.1208 40.6594 14.8798V11.1611L39.4199 11.691Z" fill="black"/>
</svg>
