<svg width="48" height="48" viewBox="0 0 48 48" fill="none" xmlns="http://www.w3.org/2000/svg">
<path d="M31.1647 23.06C32.9841 22.1561 34.4442 20.6632 35.3074 18.8241C36.1706 16.9851 36.3862 14.9081 35.9192 12.9309C35.4521 10.9538 34.3299 9.19279 32.735 7.93441C31.1401 6.67603 29.1663 5.99427 27.1347 6.00004C26.1548 6.00004 25.1817 6.16223 24.2547 6.48004C25.6914 6.9824 27.0016 7.79108 28.0947 8.85004C29.3551 9.04281 30.526 9.61766 31.4493 10.497C32.3726 11.3763 33.0038 12.5177 33.2579 13.7672C33.5119 15.0166 33.3765 16.3139 32.8698 17.484C32.3632 18.654 31.5098 19.6404 30.4247 20.31C29.7974 21.779 28.8432 23.0855 27.6347 24.13C28.243 24.5049 28.8214 24.9261 29.3647 25.39C31.512 26.0371 33.3877 27.3704 34.7045 29.1857C36.0213 31.001 36.7063 33.198 36.6547 35.44C36.6547 35.92 35.9547 36.52 34.5047 37.01C34.4324 38.238 33.8962 39.3925 33.0047 40.24C37.1447 39.47 39.4347 37.81 39.4247 35.43C39.4604 32.7747 38.69 30.171 37.2153 27.9626C35.7406 25.7541 33.631 24.0448 31.1647 23.06Z" fill="black"/>
<path d="M29.5747 27.45C28.2874 26.0592 26.6911 24.9904 24.9147 24.33C26.7261 23.4215 28.1779 21.9283 29.035 20.092C29.8922 18.2557 30.1045 16.1839 29.6377 14.212C29.1709 12.24 28.0522 10.4833 26.4628 9.22622C24.8734 7.96914 22.9062 7.28524 20.8797 7.28524C18.8533 7.28524 16.8861 7.96914 15.2967 9.22622C13.7073 10.4833 12.5886 12.24 12.1218 14.212C11.655 16.1839 11.8673 18.2557 12.7245 20.092C13.5816 21.9283 15.0334 23.4215 16.8447 24.33C15.0437 25.0043 13.4292 26.0978 12.1347 27.52C9.82036 30.0498 8.54859 33.3614 8.57474 36.79C8.57474 40.11 13.0047 42 20.7047 42H20.8747C28.6747 42 33.1447 40 33.1247 36.7C33.1535 33.2788 31.8851 29.9736 29.5747 27.45ZM14.5747 16.28C14.5767 15.0463 14.9444 13.8409 15.6312 12.816C16.3181 11.7912 17.2933 10.9929 18.4337 10.5222C19.5741 10.0514 20.8284 9.92926 22.0382 10.1712C23.248 10.4131 24.3589 11.0081 25.2306 11.8812C26.1023 12.7543 26.6956 13.8662 26.9356 15.0763C27.1755 16.2865 27.0514 17.5407 26.5788 18.6803C26.1062 19.8199 25.3064 20.7939 24.2805 21.4791C23.2545 22.1643 22.0485 22.53 20.8147 22.53C19.1589 22.5274 17.5717 21.8677 16.4018 20.6959C15.2318 19.5241 14.5747 17.9359 14.5747 16.28ZM20.6847 39.23C14.3047 39.23 11.3247 37.78 11.3247 36.78C11.2892 34.0529 12.2858 31.4132 14.1147 29.39C14.9581 28.4527 15.9879 27.7017 17.1381 27.1851C18.2884 26.6685 19.5338 26.3977 20.7947 26.39C22.0537 26.4009 23.2966 26.6732 24.4448 27.1896C25.5929 27.7061 26.6213 28.4553 27.4647 29.39C29.3082 31.4006 30.3259 34.0323 30.3147 36.76C30.3647 37.71 27.3447 39.21 20.8647 39.23H20.6847Z" fill="black"/>
</svg>
