<svg width="48" height="48" viewBox="0 0 48 48" fill="none" xmlns="http://www.w3.org/2000/svg">
<path d="M24.8843 23.6366C26.6497 22.5486 28.0119 20.9143 28.764 18.9818C29.5161 17.0493 29.6172 14.9242 29.0517 12.929C28.4863 10.9339 27.2853 9.17774 25.6311 7.92719C23.9769 6.67664 21.9598 6 19.8861 6C17.8124 6 15.7953 6.67664 14.1411 7.92719C12.4869 9.17774 11.286 10.9339 10.7205 12.929C10.1551 14.9242 10.2561 17.0493 11.0083 18.9818C11.7604 20.9143 13.1226 22.5486 14.8879 23.6366C13.3197 24.3459 11.9118 25.3661 10.7494 26.6356C8.33618 29.2839 7.01787 32.7494 7.06077 36.332C7.06077 39.9407 11.6991 42 19.7462 42H19.9161C28.0532 42 32.7515 39.8708 32.7415 36.2321C32.7701 33.6018 32.0454 31.0182 30.6532 28.7864C29.261 26.5545 27.2592 24.7676 24.8843 23.6366Z" fill="black"/>
<path d="M37.5897 17.7188C37.3555 17.9523 37.067 18.124 36.75 18.2186L36.4002 18.3286V18.6884H35.0507C34.9542 18.6975 34.8572 18.6975 34.7608 18.6884C34.6279 18.7037 34.4937 18.7037 34.3609 18.6884H32.8614V17.179C32.8215 16.9374 32.8215 16.6908 32.8614 16.4492V15.1797H33.2213L33.3313 14.8098C33.4402 14.5066 33.6182 14.2328 33.8511 14.0101L34.4509 13.4103H32.4516C32.273 13.405 32.0952 13.4349 31.9282 13.4984C31.7612 13.5618 31.6084 13.6575 31.4784 13.7801C31.3484 13.9026 31.2439 14.0496 31.1707 14.2125C31.0976 14.3755 31.0573 14.5513 31.0521 14.7299V19.1383C31.0521 19.4962 31.1943 19.8394 31.4474 20.0925C31.7004 20.3456 32.0437 20.4878 32.4016 20.4878H36.85C37.0276 20.4891 37.2037 20.4551 37.368 20.3878C37.5323 20.3204 37.6816 20.2211 37.8072 20.0955C37.9328 19.9699 38.0322 19.8206 38.0995 19.6563C38.1668 19.4919 38.2008 19.3159 38.1995 19.1383V17.139L37.5897 17.7188Z" fill="black"/>
<path d="M40.6786 11.8909L39.679 10.8912C39.5854 10.7898 39.4718 10.7088 39.3453 10.6534C39.2189 10.598 39.0823 10.5694 38.9442 10.5694C38.8062 10.5694 38.6696 10.598 38.5432 10.6534C38.4167 10.7088 38.3031 10.7898 38.2095 10.8912L34.4909 14.6199C34.3573 14.7447 34.2605 14.9037 34.211 15.0797L33.7811 16.4892C33.7293 16.6637 33.7262 16.849 33.772 17.0252C33.8178 17.2014 33.9108 17.3617 34.041 17.4889C34.1726 17.6123 34.3331 17.7007 34.5077 17.7461C34.6824 17.7915 34.8656 17.7924 35.0407 17.7488L36.4501 17.3189C36.628 17.2671 36.7897 17.1707 36.92 17.039L40.6386 13.3204C40.8247 13.1313 40.9323 12.8787 40.9397 12.6135C40.9472 12.3483 40.8539 12.0901 40.6786 11.8909Z" fill="black"/>
</svg>
