<svg width="48" height="48" viewBox="0 0 48 48" fill="none" xmlns="http://www.w3.org/2000/svg">
<path d="M24.3919 23.6366C26.1573 22.5486 27.5194 20.9143 28.2716 18.9818C29.0237 17.0493 29.1247 14.9242 28.5593 12.929C27.9939 10.9339 26.7929 9.17774 25.1387 7.92719C23.4845 6.67664 21.4674 6 19.3937 6C17.32 6 15.3029 6.67664 13.6487 7.92719C11.9945 9.17774 10.7935 10.9339 10.2281 12.929C9.66268 14.9242 9.76371 17.0493 10.5158 18.9818C11.268 20.9143 12.6301 22.5486 14.3955 23.6366C12.8273 24.3459 11.4193 25.3661 10.257 26.6356C7.84375 29.2839 6.52544 32.7494 6.56834 36.332C6.56834 39.9407 11.2067 42 19.2538 42H19.4237C27.5608 42 32.2591 39.8708 32.2491 36.2321C32.2776 33.6018 31.553 31.0182 30.1608 28.7864C28.7685 26.5545 26.7668 24.7676 24.3919 23.6366Z" fill="black"/>
<path d="M40.696 10.8613C40.5097 10.7152 40.2965 10.6074 40.0684 10.544C39.8404 10.4805 39.6021 10.4626 39.3672 10.4914C39.1322 10.5202 38.9053 10.5951 38.6993 10.7117C38.4934 10.8283 38.3124 10.9845 38.1669 11.1711L34.1684 16.2993L32.7689 14.8998C32.6015 14.7324 32.4028 14.5996 32.1841 14.5091C31.9654 14.4185 31.731 14.3719 31.4943 14.3719C31.0163 14.3719 30.5578 14.5618 30.2198 14.8998C30.0524 15.0672 29.9196 15.2659 29.8291 15.4846C29.7385 15.7032 29.6919 15.9376 29.6919 16.1743C29.6919 16.6524 29.8818 17.1108 30.2198 17.4489L32.7289 20.0079C33.147 20.4213 33.7104 20.6546 34.2983 20.6577H34.4283C34.7415 20.6436 35.048 20.5612 35.326 20.4161C35.604 20.2711 35.8469 20.0669 36.0377 19.818L41.0359 13.4403C41.1882 13.2508 41.3005 13.0324 41.366 12.7983C41.4315 12.5642 41.449 12.3192 41.4172 12.0781C41.3854 11.8371 41.3051 11.605 41.1812 11.3959C41.0572 11.1867 40.8922 11.0048 40.696 10.8613Z" fill="black"/>
</svg>
