<svg width="48" height="48" viewBox="0 0 48 48" fill="none" xmlns="http://www.w3.org/2000/svg">
<path d="M17.6322 13.7525C17.9125 12.6305 18.4855 11.603 19.2928 10.7749C20.1 9.94675 21.1126 9.3477 22.2271 9.03889C23.3416 8.73008 24.518 8.72257 25.6364 9.01714C26.7547 9.3117 27.7748 9.89778 28.5926 10.7155C29.4103 11.5333 29.9964 12.5534 30.291 13.6717C30.5856 14.7901 30.578 15.9666 30.2692 17.081C29.9604 18.1955 29.3614 19.2081 28.5333 20.0153C27.7051 20.8226 26.6776 21.3956 25.5556 21.6759L35.9769 32.0672C35.363 30.1598 34.3249 28.4164 32.9404 26.9679C31.556 25.5194 29.8613 24.4036 27.9836 23.7042C29.3394 23.0588 30.5189 22.0947 31.4211 20.8944C32.3234 19.6941 32.9217 18.2932 33.1648 16.8114C33.408 15.3296 33.2888 13.811 32.8175 12.3853C32.3462 10.9595 31.5367 9.66911 30.4583 8.62422C29.3798 7.57934 28.0644 6.81107 26.6245 6.38505C25.1846 5.95902 23.663 5.88792 22.1896 6.1778C20.7162 6.46768 19.335 7.10994 18.1638 8.0497C16.9926 8.98946 16.0663 10.1988 15.4641 11.5743L17.6322 13.7525Z" fill="black"/>
<path d="M19.5506 23.4844L15.8138 19.7475C16.6738 21.3268 17.9713 22.6244 19.5506 23.4844Z" fill="black"/>
<path d="M33.419 37.3628C32.31 38.282 29.2825 39.2112 23.9969 39.2312H23.8371C17.0927 39.2312 14.0552 37.7225 14.0552 36.6334C13.9953 31.3678 17.4724 27.0114 21.9886 26.0123L19.7705 23.8041C17.2088 24.8326 15.0212 26.6168 13.4986 28.9193C11.9761 31.2219 11.1909 33.9335 11.2476 36.6933C11.2975 40.0505 15.8637 41.9989 23.8271 41.9989H23.9869C29.5423 41.9989 33.459 40.9997 35.3674 39.3211L33.419 37.3628Z" fill="black"/>
<path d="M40.593 41.9989C40.4075 42.0013 40.2234 41.9663 40.0517 41.8959C39.88 41.8255 39.7243 41.7212 39.5939 41.5892L6.41163 8.387C6.28141 8.26036 6.1779 8.10891 6.10722 7.94158C6.03654 7.77425 6.00012 7.59446 6.00012 7.41281C6.00012 7.23117 6.03654 7.05137 6.10722 6.88405C6.1779 6.71672 6.28141 6.56526 6.41163 6.43863C6.53889 6.30057 6.69337 6.19038 6.86534 6.11501C7.03731 6.03964 7.22304 6.00073 7.4108 6.00073C7.59856 6.00073 7.78428 6.03964 7.95625 6.11501C8.12822 6.19038 8.28271 6.30057 8.40996 6.43863L41.5622 39.6408C41.7003 39.7681 41.8105 39.9226 41.8858 40.0946C41.9612 40.2665 42.0001 40.4523 42.0001 40.64C42.0001 40.8278 41.9612 41.0135 41.8858 41.1855C41.8105 41.3574 41.7003 41.5119 41.5622 41.6392C41.2986 41.8811 40.9507 42.0103 40.593 41.9989Z" fill="black"/>
</svg>
