<svg width="48" height="48" viewBox="0 0 48 48" fill="none" xmlns="http://www.w3.org/2000/svg">
<path d="M23.3416 23.6841C25.2374 22.7654 26.7655 21.2308 27.6761 19.331C28.5866 17.4313 28.8258 15.2789 28.3545 13.2256C27.8832 11.1723 26.7293 9.33962 25.0814 8.02714C23.4336 6.71465 21.3892 6 19.2825 6C17.1758 6 15.1315 6.71465 13.4836 8.02714C11.8357 9.33962 10.6818 11.1723 10.2105 13.2256C9.73922 15.2789 9.97841 17.4313 10.889 19.331C11.7995 21.2308 13.3276 22.7654 15.2234 23.6841C13.3101 24.3735 11.5941 25.5198 10.2246 27.0234C7.84028 29.6546 6.54014 33.0907 6.58537 36.6412C6.58537 40.0504 11.1643 42 19.1325 42H19.3125C27.3907 42 32.0097 40.0005 31.9997 36.5512C32.0113 33.0129 30.6825 29.6015 28.2805 27.0034C26.9232 25.5181 25.2295 24.3799 23.3416 23.6841ZM12.734 15.316C12.734 14.0208 13.1181 12.7547 13.8376 11.6778C14.5572 10.6009 15.5799 9.76159 16.7765 9.26595C17.9731 8.77031 19.2898 8.64063 20.5601 8.8933C21.8304 9.14598 22.9972 9.76967 23.913 10.6855C24.8289 11.6013 25.4525 12.7682 25.7052 14.0384C25.9579 15.3087 25.8282 16.6254 25.3326 17.822C24.8369 19.0186 23.9976 20.0413 22.9207 20.7609C21.8438 21.4805 20.5777 21.8645 19.2825 21.8645C17.5465 21.8619 15.8824 21.1711 14.6549 19.9436C13.4274 18.7161 12.7366 17.052 12.734 15.316ZM19.3025 39.2306C12.484 39.2306 9.30476 37.731 9.30476 36.6312C9.28494 33.7729 10.3455 31.0126 12.2741 28.9029C13.1561 27.9177 14.2342 27.1278 15.4394 26.5837C16.6446 26.0396 17.9502 25.7535 19.2725 25.7437C20.5915 25.7447 21.8956 26.0219 23.1009 26.5574C24.3062 27.093 25.3861 27.8749 26.2709 28.853C28.2083 30.9514 29.2798 33.7052 29.2703 36.5612C29.2403 37.651 26.161 39.2106 19.3025 39.2306Z" fill="black"/>
<path d="M36.8686 18.9452L35.4089 19.3951C35.1325 19.474 34.8465 19.5144 34.5591 19.5151C34.1764 19.5184 33.7969 19.445 33.4431 19.299C33.0894 19.153 32.7685 18.9375 32.4995 18.6652C32.127 18.2931 31.8617 17.8274 31.7315 17.3172C31.6013 16.8069 31.6111 16.2711 31.7597 15.7659L32.2096 14.3062C32.3498 13.8358 32.6079 13.4091 32.9594 13.0665L33.3793 12.6466H32.1496C31.6617 12.6466 31.1938 12.8404 30.8488 13.1854C30.5039 13.5304 30.31 13.9983 30.31 14.4862V19.0052C30.31 19.4931 30.5039 19.961 30.8488 20.306C31.1938 20.6509 31.6617 20.8448 32.1496 20.8448H36.6786C36.9252 20.8528 37.1709 20.8112 37.401 20.7223C37.6312 20.6335 37.8411 20.4993 38.0183 20.3276C38.1956 20.156 38.3365 19.9505 38.4326 19.7233C38.5288 19.4961 38.5783 19.2519 38.5782 19.0052V17.7754L38.1483 18.2054C37.7881 18.5522 37.3489 18.8061 36.8686 18.9452Z" fill="black"/>
<path d="M40.9376 11.2469L39.9379 10.2471C39.6482 9.9632 39.2587 9.80416 38.8531 9.80416C38.4475 9.80416 38.058 9.9632 37.7684 10.2471L33.9292 14.0063C33.7581 14.2081 33.6381 14.4482 33.5793 14.7061L33.1294 16.1658C33.0572 16.3964 33.0403 16.6407 33.0801 16.879C33.1198 17.1173 33.2151 17.3429 33.3582 17.5375C33.5012 17.7322 33.6881 17.8905 33.9037 17.9995C34.1193 18.1086 34.3575 18.1654 34.5991 18.1654C34.7486 18.1673 34.8974 18.1437 35.039 18.0954L36.4986 17.6555C36.7471 17.5762 36.9732 17.4392 37.1585 17.2556L40.9776 13.4464C41.1201 13.2998 41.2322 13.1263 41.3074 12.9362C41.3826 12.746 41.4193 12.5428 41.4156 12.3383C41.4119 12.1339 41.3678 11.9322 41.2857 11.7449C41.2037 11.5575 41.0854 11.3883 40.9376 11.2469Z" fill="black"/>
</svg>
