<svg width="48" height="48" viewBox="0 0 48 48" fill="none" xmlns="http://www.w3.org/2000/svg">
<path d="M24.9076 23.6366C26.673 22.5486 28.0352 20.9143 28.7873 18.9818C29.5394 17.0493 29.6405 14.9242 29.075 12.929C28.5096 10.9339 27.3086 9.17774 25.6544 7.92719C24.0002 6.67664 21.9832 6 19.9094 6C17.8357 6 15.8187 6.67664 14.1645 7.92719C12.5103 9.17774 11.3093 10.9339 10.7438 12.929C10.1784 14.9242 10.2795 17.0493 11.0316 18.9818C11.7837 20.9143 13.1459 22.5486 14.9113 23.6366C13.343 24.3459 11.9351 25.3661 10.7728 26.6356C8.3595 29.2839 7.04119 32.7494 7.08408 36.332C7.08408 39.9407 11.7224 42 19.7695 42H19.9394C28.0765 42 32.7748 39.8708 32.7648 36.2321C32.7934 33.6018 32.0688 31.0182 30.6765 28.7864C29.2843 26.5545 27.2826 24.7676 24.9076 23.6366Z" fill="black"/>
<path d="M40.422 15.1097C40.6184 14.906 40.7447 14.6449 40.7825 14.3644C40.8202 14.0839 40.7675 13.7987 40.632 13.5503L40.2821 12.9005C40.1497 12.6437 39.9384 12.4362 39.6793 12.3084C39.4202 12.1806 39.1269 12.1394 38.8426 12.1908C38.8326 11.9027 38.73 11.6254 38.5499 11.4003C38.3698 11.1752 38.1219 11.0142 37.843 10.9412L37.0732 10.6413C36.802 10.5686 36.5151 10.5803 36.2507 10.675C35.9863 10.7697 35.7572 10.9427 35.5938 11.1711C35.3863 10.9941 35.1301 10.884 34.8589 10.8554C34.5876 10.8269 34.3141 10.8812 34.0743 11.0112L33.4146 11.3611C33.1588 11.4946 32.9522 11.7061 32.8246 11.9649C32.697 12.2237 32.6551 12.5163 32.7048 12.8006C32.4163 12.8089 32.1383 12.911 31.9128 13.0913C31.6874 13.2717 31.5268 13.5205 31.4553 13.8002L31.2254 14.5499C31.1494 14.8114 31.1525 15.0895 31.2344 15.3493C31.3162 15.609 31.4731 15.8387 31.6852 16.0094C31.4874 16.2123 31.3602 16.4735 31.3224 16.7544C31.2845 17.0352 31.3382 17.3208 31.4753 17.5688L31.8151 18.2186C31.945 18.4776 32.1559 18.6871 32.4157 18.8152C32.6756 18.9433 32.9701 18.983 33.2546 18.9283C33.2646 19.2165 33.3673 19.4937 33.5474 19.7188C33.7274 19.9439 33.9754 20.1049 34.2543 20.1779L34.984 20.3978H35.074C35.1737 20.407 35.2741 20.407 35.3739 20.3978C35.5904 20.3972 35.8035 20.3442 35.995 20.2432C36.1865 20.1422 36.3507 19.9963 36.4735 19.818C36.6796 20.0139 36.9423 20.1396 37.2242 20.1773C37.506 20.215 37.7925 20.1628 38.0429 20.0279L38.7326 19.6581C38.9755 19.5203 39.1701 19.3112 39.2899 19.059C39.4097 18.8068 39.449 18.5239 39.4024 18.2486C39.6902 18.2414 39.9675 18.1395 40.1916 17.9588C40.4156 17.7781 40.5739 17.5286 40.642 17.2489L40.8619 16.5292C40.9369 16.2756 40.9351 16.0055 40.8569 15.7529C40.7786 15.5003 40.6273 15.2765 40.422 15.1097ZM36.9333 17.159C36.6135 17.333 36.2493 17.4081 35.8867 17.375C35.5242 17.3418 35.1796 17.2018 34.8967 16.9727C34.6138 16.7436 34.4052 16.4356 34.2974 16.0879C34.1896 15.7402 34.1875 15.3683 34.2912 15.0193C34.3949 14.6703 34.5998 14.36 34.88 14.1276C35.1602 13.8951 35.5031 13.7511 35.8652 13.7137C36.2274 13.6763 36.5925 13.7472 36.9143 13.9174C37.2361 14.0876 37.5002 14.3495 37.673 14.6699C37.9041 15.0982 37.9561 15.6007 37.8174 16.0673C37.6788 16.5338 37.3608 16.9264 36.9333 17.159Z" fill="black"/>
</svg>
