<svg width="48" height="48" viewBox="0 0 48 48" fill="none" xmlns="http://www.w3.org/2000/svg">
<path d="M12.61 33.9392C8.50003 33.7592 6.79003 32.7692 6.79003 32.3192C6.79003 27.9392 10.01 24.3192 14.01 24.3192C15.1252 24.3215 16.222 24.6035 17.2 25.1392L17.63 24.8092C16.4592 23.6129 15.6544 22.1072 15.31 20.4692C14.89 20.6052 14.4516 20.676 14.01 20.6792C13.2375 20.6838 12.4759 20.4963 11.7938 20.1336C11.1118 19.7708 10.5306 19.2441 10.1026 18.601C9.67455 17.9578 9.41315 17.2184 9.34189 16.4491C9.27063 15.6799 9.39173 14.9049 9.69431 14.1941C9.99689 13.4833 10.4714 12.8588 11.0753 12.3769C11.6791 11.8951 12.3933 11.5708 13.1535 11.4335C13.9138 11.2961 14.6962 11.35 15.4305 11.5901C16.1648 11.8302 16.8279 12.2492 17.36 12.8092C17.9809 12.1076 18.7101 11.51 19.52 11.0392C18.8027 10.2488 17.9238 9.622 16.9428 9.20135C15.9618 8.78071 14.9019 8.57605 13.8348 8.60128C12.7678 8.6265 11.7186 8.88102 10.7586 9.34756C9.79866 9.81409 8.95029 10.4817 8.27113 11.3051C7.59198 12.1285 7.09794 13.0884 6.82255 14.1196C6.54716 15.1508 6.49688 16.2292 6.67511 17.2816C6.85334 18.3339 7.25591 19.3356 7.85549 20.2186C8.45507 21.1016 9.23763 21.8453 10.15 22.3992C8.27846 23.2875 6.70281 24.6968 5.61199 26.4581C4.52118 28.2193 3.96149 30.2578 4.00003 32.3292C4.00003 34.9992 7.25003 36.6092 12.94 36.7392C12.696 36.1845 12.57 35.5851 12.57 34.9792C12.57 34.6092 12.58 34.2792 12.61 33.9392Z" fill="black"/>
<path d="M41.07 24.7192C40.162 23.7365 39.0674 22.9444 37.85 22.3892C38.763 21.8333 39.5455 21.0872 40.1442 20.2017C40.7429 19.3162 41.1437 18.3121 41.3195 17.2578C41.4952 16.2034 41.4417 15.1236 41.1626 14.0918C40.8835 13.06 40.3854 12.1004 39.7021 11.2785C39.0188 10.4565 38.1664 9.7914 37.203 9.32847C36.2396 8.86553 35.1877 8.61563 34.119 8.59577C33.0503 8.57591 31.9898 8.78655 31.0099 9.21337C30.0299 9.64019 29.1534 10.2732 28.44 11.0692C29.25 11.54 29.9792 12.1376 30.6 12.8392C31.1311 12.286 31.7906 11.8728 32.52 11.6362C33.2494 11.3996 34.026 11.3471 34.7806 11.4833C35.5352 11.6196 36.2444 11.9403 36.845 12.4169C37.4457 12.8935 37.9191 13.5113 38.2232 14.2152C38.5273 14.9191 38.6526 15.6873 38.588 16.4514C38.5233 17.2155 38.2708 17.9517 37.8527 18.5945C37.4347 19.2373 36.8642 19.7668 36.192 20.1357C35.5198 20.5047 34.7668 20.7017 34 20.7092C33.5552 20.7061 33.1135 20.6353 32.69 20.4992C32.3549 22.1333 31.5564 23.6365 30.39 24.8292L30.82 25.1692C31.7878 24.6347 32.8745 24.3527 33.98 24.3492C34.9268 24.3629 35.8607 24.5706 36.7241 24.9593C37.5875 25.348 38.3621 25.9095 39 26.6092C40.4132 28.1502 41.1919 30.1683 41.18 32.2592C41.18 32.4392 40.76 32.8792 39.62 33.2592C38.2332 33.6578 36.8023 33.8828 35.36 33.9292C35.36 34.2492 35.36 34.5692 35.36 34.9292C35.3685 35.566 35.2388 36.1972 34.98 36.7792C36.8325 36.7505 38.6725 36.4713 40.45 35.9492C43.4 34.9592 44 33.3992 44 32.2592C44.0165 29.4649 42.9689 26.7691 41.07 24.7192Z" fill="black"/>
<path d="M27.89 25.0292C29.2766 24.1803 30.3479 22.9018 30.941 21.388C31.534 19.8743 31.6164 18.2082 31.1754 16.6434C30.7345 15.0786 29.7944 13.7006 28.4982 12.7192C27.2021 11.7378 25.6208 11.2067 23.995 11.2067C22.3693 11.2067 20.788 11.7378 19.4918 12.7192C18.1957 13.7006 17.2556 15.0786 16.8147 16.6434C16.3737 18.2082 16.456 19.8743 17.0491 21.388C17.6421 22.9018 18.7135 24.1803 20.1 25.0292C18.8629 25.5927 17.7536 26.4025 16.84 27.4092C14.9691 29.478 13.954 32.1802 14 34.9692C14 36.1092 14.62 37.6692 17.51 38.5992C19.5989 39.1808 21.7623 39.4503 23.93 39.3992H24C30.38 39.3992 34 37.7292 34 34.8992C34.011 32.1029 32.9644 29.406 31.07 27.3492C30.176 26.3708 29.0946 25.5819 27.89 25.0292ZM19.33 18.6892C19.33 17.7679 19.6031 16.8674 20.1147 16.1013C20.6263 15.3351 21.3535 14.7379 22.2044 14.3849C23.0553 14.0319 23.9918 13.939 24.8955 14.118C25.7992 14.297 26.6295 14.7398 27.2816 15.3905C27.9337 16.0412 28.3783 16.8706 28.5593 17.7739C28.7402 18.6772 28.6493 19.6139 28.2982 20.4656C27.947 21.3172 27.3513 22.0457 26.5863 22.559C25.8212 23.0722 24.9213 23.3472 24 23.3492C23.3872 23.3505 22.7802 23.2309 22.2137 22.9973C21.6471 22.7637 21.1322 22.4207 20.6985 21.9878C20.2647 21.555 19.9205 21.0408 19.6857 20.4748C19.4509 19.9088 19.33 19.302 19.33 18.6892ZM24 36.6092H23.88C22.0008 36.6556 20.1247 36.43 18.31 35.9392C17.17 35.5692 16.74 35.1392 16.74 34.9392C16.7112 32.8466 17.4758 30.8208 18.88 29.2692C19.5253 28.5506 20.3147 27.9762 21.197 27.5833C22.0792 27.1904 23.0343 26.988 24 26.9892C24.9564 26.9949 25.9011 27.1998 26.7739 27.5906C27.6468 27.9814 28.4288 28.5496 29.07 29.2592C30.4849 30.7991 31.2639 32.8179 31.25 34.9092C31.25 35.3992 29.17 36.6092 24 36.6092Z" fill="black"/>
</svg>
