<svg width="48" height="48" viewBox="0 0 48 48" fill="none" xmlns="http://www.w3.org/2000/svg">
<path d="M40.7399 12.66H28.3099V12.31C28.3099 11.1669 27.8559 10.0707 27.0476 9.26237C26.2393 8.45409 25.143 8 23.9999 8C22.8569 8 21.7606 8.45409 20.9523 9.26237C20.144 10.0707 19.6899 11.1669 19.6899 12.31V12.66H7.25994C6.39533 12.66 5.56614 13.0035 4.95477 13.6148C4.3434 14.2262 3.99994 15.0554 3.99994 15.92V36.72C3.9973 37.1498 4.07968 37.5759 4.24233 37.9737C4.40498 38.3715 4.64469 38.7333 4.94767 39.0381C5.25065 39.3429 5.61092 39.5849 6.00775 39.7499C6.40458 39.915 6.83014 40 7.25994 40H40.7399C41.1697 40 41.5953 39.915 41.9921 39.7499C42.389 39.5849 42.7492 39.3429 43.0522 39.0381C43.3552 38.7333 43.5949 38.3715 43.7575 37.9737C43.9202 37.5759 44.0026 37.1498 43.9999 36.72V15.92C43.9999 15.0554 43.6565 14.2262 43.0451 13.6148C42.4337 13.0035 41.6045 12.66 40.7399 12.66ZM22.4799 12.31C22.4443 12.0925 22.4564 11.8698 22.5154 11.6575C22.5744 11.4451 22.6788 11.2481 22.8215 11.0802C22.9642 10.9122 23.1417 10.7772 23.3417 10.6847C23.5418 10.5922 23.7595 10.5442 23.9799 10.5442C24.2003 10.5442 24.4181 10.5922 24.6181 10.6847C24.8182 10.7772 24.9957 10.9122 25.1384 11.0802C25.2811 11.2481 25.3855 11.4451 25.4445 11.6575C25.5035 11.8698 25.5156 12.0925 25.4799 12.31V12.66H22.4799V12.31ZM41.2099 36.72C41.21 36.7813 41.1977 36.8419 41.174 36.8984C41.1503 36.9548 41.1155 37.006 41.0717 37.0489C41.0279 37.0917 40.976 37.1254 40.919 37.1479C40.8621 37.1704 40.8012 37.1813 40.7399 37.18H7.25994C7.19869 37.1813 7.1378 37.1704 7.08083 37.1479C7.02386 37.1254 6.97197 37.0917 6.92819 37.0489C6.88441 37.006 6.84963 36.9548 6.82589 36.8984C6.80215 36.8419 6.78992 36.7813 6.78994 36.72V15.92C6.78994 15.7953 6.83946 15.6758 6.9276 15.5877C7.01574 15.4995 7.13529 15.45 7.25994 15.45H40.7399C40.8646 15.45 40.9841 15.4995 41.0723 15.5877C41.1604 15.6758 41.2099 15.7953 41.2099 15.92V36.72Z" fill="black"/>
<path d="M27.2299 26.08C27.885 25.4375 28.3339 24.6145 28.5195 23.7159C28.705 22.8173 28.6188 21.8838 28.2718 21.0344C27.9248 20.1849 27.3327 19.4581 26.571 18.9465C25.8093 18.4349 24.9125 18.1616 23.9949 18.1616C23.0774 18.1616 22.1806 18.4349 21.4189 18.9465C20.6572 19.4581 20.0651 20.1849 19.7181 21.0344C19.3711 21.8838 19.2848 22.8173 19.4704 23.7159C19.6559 24.6145 20.1049 25.4375 20.7599 26.08C20.3743 26.3473 20.0189 26.6558 19.6999 27C18.595 28.2215 17.9884 29.813 17.9999 31.46C17.9999 32.13 18.3099 33.36 20.3199 34.01C21.4986 34.3349 22.7175 34.4898 23.9399 34.47H23.9999C25.2496 34.4953 26.4963 34.3369 27.6999 34C29.6999 33.34 29.9999 32.11 29.9999 31.43C30.0085 30.3801 29.7607 29.3441 29.278 28.4117C28.7952 27.4794 28.0922 26.679 27.2299 26.08ZM23.9999 21C24.3623 20.998 24.7171 21.1037 25.0193 21.3035C25.3216 21.5034 25.5577 21.7885 25.6978 22.1227C25.8378 22.4569 25.8755 22.8252 25.806 23.1808C25.7365 23.5365 25.563 23.8635 25.3075 24.1204C25.052 24.3774 24.7259 24.5526 24.3706 24.6241C24.0154 24.6955 23.6469 24.6598 23.312 24.5216C22.977 24.3834 22.6906 24.1489 22.4891 23.8477C22.2875 23.5466 22.1799 23.1924 22.1799 22.83C22.1799 22.3464 22.3714 21.8824 22.7124 21.5395C23.0534 21.1966 23.5163 21.0026 23.9999 21ZM23.9999 31.72H23.9299C22.864 31.7916 21.7954 31.6277 20.7999 31.24C20.8551 30.3714 21.2083 29.5484 21.7999 28.91C22.0807 28.5962 22.4243 28.3449 22.8085 28.1726C23.1927 28.0003 23.6089 27.9109 24.0299 27.91C24.8845 27.9555 25.6901 28.3234 26.284 28.9396C26.8779 29.5558 27.216 30.3743 27.2299 31.23C26.1985 31.612 25.0965 31.7655 23.9999 31.68V31.72Z" fill="black"/>
</svg>
