<svg width="48" height="48" viewBox="0 0 48 48" fill="none" xmlns="http://www.w3.org/2000/svg">
<path d="M28.0383 23.7022C29.9381 22.7856 31.4705 21.2512 32.3847 19.3502C33.2989 17.4492 33.5407 15.2942 33.0705 13.2379C32.6004 11.1816 31.4461 9.34577 29.7967 8.0309C28.1473 6.71603 26.1004 6 23.991 6C21.8816 6 19.8347 6.71603 18.1853 8.0309C16.5359 9.34577 15.3817 11.1816 14.9115 13.2379C14.4414 15.2942 14.6832 17.4492 15.5974 19.3502C16.5115 21.2512 18.0439 22.7856 19.9437 23.7022C17.3503 24.7134 15.1302 26.4972 13.5841 28.8119C12.0379 31.1266 11.2404 33.8606 11.2995 36.6436C11.2995 40.0513 15.8764 42 23.8411 42H24.021C32.0956 42 36.7125 40.0013 36.7025 36.5536C36.7401 33.7838 35.9304 31.0686 34.3819 28.7718C32.8334 26.475 30.6201 24.7061 28.0383 23.7022ZM17.4454 15.3278C17.4454 14.0332 17.8293 12.7677 18.5485 11.6913C19.2678 10.6148 20.2901 9.77586 21.4861 9.28044C22.6822 8.78501 23.9983 8.65539 25.268 8.90795C26.5377 9.16052 27.7041 9.78393 28.6195 10.6994C29.5349 11.6148 30.1583 12.7811 30.4109 14.0508C30.6634 15.3205 30.5338 16.6367 30.0384 17.8327C29.543 19.0288 28.704 20.0511 27.6276 20.7703C26.5512 21.4895 25.2856 21.8734 23.991 21.8734C22.2558 21.8708 20.5925 21.1803 19.3655 19.9534C18.1385 18.7264 17.448 17.063 17.4454 15.3278ZM24.011 39.2318H23.8511C17.1056 39.2318 14.0676 37.7229 14.0676 36.6336C14.0676 30.6376 18.4847 25.7708 23.961 25.7509C29.4274 25.7509 33.8844 30.5976 33.9544 36.5636C33.9444 37.6529 30.8664 39.2119 24.011 39.2318Z" fill="black"/>
</svg>
