<svg width="48" height="48" viewBox="0 0 48 48" fill="none" xmlns="http://www.w3.org/2000/svg">
<path d="M40.7399 7.73999H7.25988C6.39527 7.73999 5.56608 8.08345 4.95471 8.69482C4.34334 9.30619 3.99988 10.1354 3.99988 11V37C3.99988 37.8646 4.34334 38.6938 4.95471 39.3052C5.56608 39.9165 6.39527 40.26 7.25988 40.26H40.7399C41.5976 40.2601 42.4208 39.9221 43.031 39.3193C43.6413 38.7166 43.9894 37.8976 43.9999 37.04V11.04C44.0052 10.6085 43.9248 10.1803 43.7633 9.78015C43.6018 9.38001 43.3626 9.01589 43.0593 8.70892C42.7561 8.40195 42.3949 8.15824 41.9967 7.99191C41.5986 7.82559 41.1714 7.73996 40.7399 7.73999ZM41.2099 37.04C41.2099 37.1646 41.1604 37.2842 41.0722 37.3723C40.9841 37.4605 40.8645 37.51 40.7399 37.51H7.25988C7.13523 37.51 7.01568 37.4605 6.92754 37.3723C6.8394 37.2842 6.78988 37.1646 6.78988 37.04V11.04C6.78988 10.9153 6.8394 10.7958 6.92754 10.7076C7.01568 10.6195 7.13523 10.57 7.25988 10.57H40.7399C40.8645 10.57 40.9841 10.6195 41.0722 10.7076C41.1604 10.7958 41.2099 10.9153 41.2099 11.04V37.04Z" fill="black"/>
<path d="M18.9999 23.74C19.6502 23.0975 20.0948 22.2762 20.2772 21.3804C20.4596 20.4847 20.3715 19.5549 20.0243 18.7093C19.677 17.8637 19.0862 17.1404 18.3268 16.6314C17.5675 16.1224 16.674 15.8506 15.7599 15.8506C14.8457 15.8506 13.9522 16.1224 13.1929 16.6314C12.4336 17.1404 11.8428 17.8637 11.4955 18.7093C11.1482 19.5549 11.0602 20.4847 11.2426 21.3804C11.425 22.2762 11.8696 23.0975 12.5199 23.74C12.1533 24.0047 11.8179 24.3099 11.5199 24.65C10.4064 25.871 9.79563 27.4676 9.80988 29.12C9.80988 30.25 10.5999 32.12 15.7399 32.12H15.8199C17.0672 32.1378 18.3104 31.9727 19.5099 31.63C21.5099 30.97 21.8099 29.74 21.8099 29.07C21.7858 27.424 21.1391 25.8483 19.9999 24.66C19.702 24.3169 19.3665 24.0083 18.9999 23.74ZM15.7599 18.63C16.1232 18.6161 16.4824 18.7108 16.7917 18.902C17.101 19.0931 17.3463 19.372 17.4964 19.7032C17.6465 20.0343 17.6945 20.4027 17.6344 20.7612C17.5743 21.1198 17.4087 21.4524 17.1589 21.7164C16.909 21.9805 16.5861 22.1642 16.2314 22.244C15.8767 22.3238 15.5062 22.2962 15.1673 22.1646C14.8284 22.033 14.5363 21.8035 14.3284 21.5052C14.1205 21.2069 14.0061 20.8535 13.9999 20.49C13.9997 20.0132 14.1856 19.5551 14.5181 19.2133C14.8505 18.8716 15.3032 18.673 15.7799 18.66L15.7599 18.63ZM15.7599 29.35C14.6711 29.4231 13.5793 29.2594 12.5599 28.87C12.6132 28.0039 12.9668 27.1835 13.5599 26.55C13.8406 26.2361 14.1842 25.9849 14.5684 25.8126C14.9526 25.6403 15.3688 25.5508 15.7899 25.55C16.2093 25.5522 16.6235 25.6424 17.0059 25.8146C17.3883 25.9869 17.7303 26.2374 18.0099 26.55C18.6015 27.1844 18.9549 28.0043 19.0099 28.87C17.983 29.2723 16.8808 29.4464 15.7799 29.38L15.7599 29.35Z" fill="black"/>
<path d="M36.8199 22.62H25.9999C25.8068 22.6036 25.6123 22.6275 25.4289 22.6902C25.2455 22.7529 25.0771 22.853 24.9344 22.9841C24.7917 23.1152 24.6778 23.2746 24.5998 23.452C24.5219 23.6295 24.4817 23.8212 24.4817 24.015C24.4817 24.2088 24.5219 24.4005 24.5998 24.578C24.6778 24.7554 24.7917 24.9148 24.9344 25.0459C25.0771 25.177 25.2455 25.2771 25.4289 25.3398C25.6123 25.4024 25.8068 25.4264 25.9999 25.41H36.8199C37.013 25.4264 37.2074 25.4024 37.3908 25.3398C37.5742 25.2771 37.7426 25.177 37.8853 25.0459C38.028 24.9148 38.142 24.7554 38.2199 24.578C38.2979 24.4005 38.3381 24.2088 38.3381 24.015C38.3381 23.8212 38.2979 23.6295 38.2199 23.452C38.142 23.2746 38.028 23.1152 37.8853 22.9841C37.7426 22.853 37.5742 22.7529 37.3908 22.6902C37.2074 22.6275 37.013 22.6036 36.8199 22.62Z" fill="black"/>
<path d="M36.8199 18.53H25.9999C25.8068 18.5136 25.6123 18.5375 25.4289 18.6002C25.2455 18.6629 25.0771 18.763 24.9344 18.8941C24.7917 19.0252 24.6778 19.1846 24.5998 19.362C24.5219 19.5395 24.4817 19.7312 24.4817 19.925C24.4817 20.1188 24.5219 20.3105 24.5998 20.488C24.6778 20.6654 24.7917 20.8248 24.9344 20.9559C25.0771 21.087 25.2455 21.1871 25.4289 21.2498C25.6123 21.3124 25.8068 21.3364 25.9999 21.32H36.8199C37.013 21.3364 37.2074 21.3124 37.3908 21.2498C37.5742 21.1871 37.7426 21.087 37.8853 20.9559C38.028 20.8248 38.142 20.6654 38.2199 20.488C38.2979 20.3105 38.3381 20.1188 38.3381 19.925C38.3381 19.7312 38.2979 19.5395 38.2199 19.362C38.142 19.1846 38.028 19.0252 37.8853 18.8941C37.7426 18.763 37.5742 18.6629 37.3908 18.6002C37.2074 18.5375 37.013 18.5136 36.8199 18.53Z" fill="black"/>
<path d="M36.8199 26.74H25.9999C25.8068 26.7236 25.6123 26.7475 25.4289 26.8102C25.2455 26.8729 25.0771 26.973 24.9344 27.1041C24.7917 27.2352 24.6778 27.3946 24.5998 27.572C24.5219 27.7495 24.4817 27.9412 24.4817 28.135C24.4817 28.3288 24.5219 28.5205 24.5998 28.698C24.6778 28.8754 24.7917 29.0348 24.9344 29.1659C25.0771 29.297 25.2455 29.3971 25.4289 29.4598C25.6123 29.5224 25.8068 29.5464 25.9999 29.53H36.8199C37.013 29.5464 37.2074 29.5224 37.3908 29.4598C37.5742 29.3971 37.7426 29.297 37.8853 29.1659C38.028 29.0348 38.142 28.8754 38.2199 28.698C38.2979 28.5205 38.3381 28.3288 38.3381 28.135C38.3381 27.9412 38.2979 27.7495 38.2199 27.572C38.142 27.3946 38.028 27.2352 37.8853 27.1041C37.7426 26.973 37.5742 26.8729 37.3908 26.8102C37.2074 26.7475 37.013 26.7236 36.8199 26.74Z" fill="black"/>
</svg>
