<svg width="48" height="48" viewBox="0 0 48 48" fill="none" xmlns="http://www.w3.org/2000/svg">
<path d="M23.3608 23.6841C25.2566 22.7654 26.7847 21.2308 27.6952 19.331C28.6058 17.4313 28.845 15.2789 28.3737 13.2256C27.9024 11.1723 26.7485 9.33962 25.1006 8.02714C23.4527 6.71465 21.4084 6 19.3017 6C17.195 6 15.1506 6.71465 13.5028 8.02714C11.8549 9.33962 10.701 11.1723 10.2297 13.2256C9.75839 15.2789 9.99757 17.4313 10.9081 19.331C11.8187 21.2308 13.3468 22.7654 15.2426 23.6841C13.3292 24.3735 11.6132 25.5198 10.2437 27.0234C7.85945 29.6546 6.55931 33.0907 6.60454 36.6412C6.60454 40.0504 11.1835 42 19.1517 42H19.3317C27.4099 42 32.0288 40.0005 32.0188 36.5512C32.0305 33.0129 30.7016 29.6015 28.2997 27.0034C26.9423 25.5181 25.2487 24.3799 23.3608 23.6841ZM12.7532 15.316C12.7532 14.0208 13.1372 12.7547 13.8568 11.6778C14.5763 10.6009 15.5991 9.76159 16.7957 9.26595C17.9923 8.77031 19.3089 8.64063 20.5792 8.8933C21.8495 9.14598 23.0164 9.76967 23.9322 10.6855C24.848 11.6013 25.4717 12.7682 25.7244 14.0384C25.9771 15.3087 25.8474 16.6254 25.3517 17.822C24.8561 19.0186 24.0167 20.0413 22.9398 20.7609C21.8629 21.4805 20.5969 21.8645 19.3017 21.8645C17.5657 21.8619 15.9016 21.1711 14.6741 19.9436C13.4466 18.7161 12.7558 17.052 12.7532 15.316ZM19.3217 39.2306C12.5032 39.2306 9.32392 37.731 9.32392 36.6312C9.3041 33.7729 10.3647 31.0126 12.2933 28.9029C13.1752 27.9177 14.2534 27.1278 15.4586 26.5837C16.6638 26.0396 17.9694 25.7535 19.2917 25.7437C20.6106 25.7447 21.9147 26.0219 23.1201 26.5574C24.3254 27.093 25.4052 27.8749 26.2901 28.853C28.2275 30.9514 29.299 33.7052 29.2894 36.5612C29.2594 37.651 26.1801 39.2106 19.3217 39.2306Z" fill="black"/>
<path d="M35.868 9.78725C34.7716 9.78527 33.6994 10.1087 32.787 10.7165C31.8747 11.3244 31.1632 12.1893 30.7427 13.2018C30.3223 14.2143 30.2118 15.3288 30.4252 16.4041C30.6385 17.4794 31.1663 18.4673 31.9415 19.2425C32.7167 20.0177 33.7045 20.5454 34.7799 20.7588C35.8552 20.9722 36.9697 20.8617 37.9822 20.4412C38.9947 20.0208 39.8596 19.3093 40.4674 18.3969C41.0753 17.4846 41.3987 16.4123 41.3967 15.316C41.3941 13.8505 40.8107 12.4458 39.7745 11.4095C38.7382 10.3732 37.3335 9.78989 35.868 9.78725ZM37.2576 12.9365L35.748 13.7963L34.5982 13.3564C34.4221 13.2926 34.2357 13.2621 34.0484 13.2665C34.4828 12.8736 35.0312 12.6298 35.6139 12.5704C36.1966 12.5111 36.783 12.6393 37.2876 12.9365H37.2576ZM35.868 18.0854C35.1933 18.0853 34.542 17.8381 34.0373 17.3905C33.5325 16.9428 33.2092 16.3257 33.1286 15.6559C33.2632 15.7844 33.4233 15.8832 33.5985 15.9459L35.9879 16.8457L38.5973 15.346C38.5921 16.0692 38.3032 16.7614 37.7928 17.2738C37.2823 17.7861 36.5911 18.0775 35.868 18.0854Z" fill="black"/>
</svg>
