<svg width="48" height="48" viewBox="0 0 48 48" fill="none" xmlns="http://www.w3.org/2000/svg">
<path d="M28.3569 26.9909C26.9951 25.5153 25.3004 24.3866 23.4139 23.6989C25.3113 22.7794 26.8406 21.2435 27.752 19.3422C28.6633 17.4408 28.9027 15.2866 28.431 13.2316C27.9593 11.1766 26.8044 9.34241 25.1552 8.02883C23.5059 6.71525 21.4598 6 19.3514 6C17.243 6 15.1969 6.71525 13.5476 8.02883C11.8984 9.34241 10.7435 11.1766 10.2719 13.2316C9.80016 15.2866 10.0395 17.4408 10.9509 19.3422C11.8622 21.2435 13.3916 22.7794 15.2889 23.6989C13.374 24.3888 11.6565 25.5361 10.2859 27.0409C7.90673 29.6667 6.60601 33.0936 6.64368 36.6367C6.64368 40.0488 11.2265 42 19.2013 42H19.3814C27.4663 42 32.0892 39.9988 32.0792 36.5467C32.0908 33.0054 30.7609 29.5912 28.3569 26.9909ZM12.7974 15.2938C12.7974 13.9975 13.1818 12.7303 13.902 11.6526C14.6221 10.5748 15.6457 9.73471 16.8433 9.23866C18.0409 8.7426 19.3587 8.61281 20.63 8.8657C21.9014 9.11858 23.0692 9.74279 23.9858 10.6594C24.9024 11.576 25.5266 12.7438 25.7795 14.0151C26.0324 15.2865 25.9026 16.6043 25.4065 17.8019C24.9104 18.9994 24.0704 20.023 22.9926 20.7432C21.9148 21.4634 20.6477 21.8477 19.3514 21.8477C17.614 21.8451 15.9485 21.1537 14.72 19.9252C13.4914 18.6967 12.8001 17.0312 12.7974 15.2938ZM19.3714 39.2283C12.5473 39.2283 9.36534 37.7274 9.36534 36.6267C9.3455 33.7661 10.4069 31.0035 12.3371 28.892C13.2198 27.906 14.2989 27.1154 15.5051 26.5708C16.7113 26.0263 18.018 25.74 19.3414 25.7301C20.6614 25.7312 21.9666 26.0086 23.173 26.5446C24.3793 27.0805 25.4601 27.8631 26.3457 28.842C28.2847 30.9422 29.3571 33.6983 29.3475 36.5567C29.3175 37.6474 26.2356 39.2083 19.3714 39.2283Z" fill="black"/>
<path d="M40.084 16.6846H31.769C31.4217 16.6551 31.0983 16.4963 30.8625 16.2396C30.6268 15.983 30.496 15.6472 30.496 15.2988C30.496 14.9503 30.6268 14.6145 30.8625 14.3579C31.0983 14.1012 31.4217 13.9424 31.769 13.9129H40.084C40.4312 13.9424 40.7547 14.1012 40.9905 14.3579C41.2262 14.6145 41.357 14.9503 41.357 15.2988C41.357 15.6472 41.2262 15.983 40.9905 16.2396C40.7547 16.4963 40.4312 16.6551 40.084 16.6846Z" fill="black"/>
</svg>
