<svg width="48" height="48" viewBox="0 0 48 48" fill="none" xmlns="http://www.w3.org/2000/svg">
<path d="M28.6082 26.9909C27.2464 25.5153 25.5516 24.3866 23.6652 23.6989C25.5626 22.7794 27.0919 21.2435 28.0032 19.3422C28.9146 17.4408 29.1539 15.2866 28.6823 13.2316C28.2106 11.1766 27.0557 9.34241 25.4065 8.02883C23.7572 6.71525 21.7111 6 19.6027 6C17.4943 6 15.4482 6.71525 13.7989 8.02883C12.1497 9.34241 10.9948 11.1766 10.5231 13.2316C10.0514 15.2866 10.2908 17.4408 11.2022 19.3422C12.1135 21.2435 13.6428 22.7794 15.5402 23.6989C13.6253 24.3888 11.9078 25.5361 10.5372 27.0409C8.15801 29.6667 6.85729 33.0936 6.89496 36.6367C6.89496 40.0488 11.4777 42 19.4526 42H19.6327C27.7176 42 32.3404 39.9988 32.3304 36.5467C32.3421 33.0054 31.0122 29.5912 28.6082 26.9909ZM13.0487 15.2938C13.0487 13.9975 13.4331 12.7303 14.1533 11.6526C14.8734 10.5748 15.897 9.73471 17.0946 9.23866C18.2922 8.7426 19.61 8.61281 20.8813 8.8657C22.1527 9.11858 23.3205 9.74279 24.2371 10.6594C25.1537 11.576 25.7779 12.7438 26.0307 14.0151C26.2836 15.2865 26.1538 16.6043 25.6578 17.8019C25.1617 18.9994 24.3217 20.023 23.2439 20.7432C22.1661 21.4634 20.8989 21.8477 19.6027 21.8477C17.8653 21.8451 16.1998 21.1537 14.9712 19.9252C13.7427 18.6967 13.0514 17.0312 13.0487 15.2938ZM19.6227 39.2283C12.7986 39.2283 9.61662 37.7274 9.61662 36.6267C9.59678 33.7661 10.6582 31.0035 12.5884 28.892C13.4711 27.906 14.5502 27.1154 15.7564 26.5708C16.9626 26.0263 18.2693 25.74 19.5927 25.7301C20.9127 25.7312 22.2179 26.0086 23.4242 26.5446C24.6306 27.0805 25.7113 27.8631 26.5969 28.842C28.5359 30.9422 29.6084 33.6983 29.5988 36.5567C29.5688 37.6474 26.4869 39.2083 19.6227 39.2283Z" fill="black"/>
<path d="M36.1828 20.9072L35.7625 20.7771C34.453 20.3657 33.309 19.5469 32.4973 18.44C31.6856 17.3332 31.2485 15.996 31.2498 14.6233V10.1106L33.1709 10.9111C33.4977 11.0429 33.8595 11.0602 34.1974 10.9603C34.5354 10.8604 34.8295 10.6491 35.0321 10.3607L36.1828 8.67973L37.3235 10.3607C37.526 10.6491 37.8202 10.8604 38.1581 10.9603C38.496 11.0602 38.8578 11.0429 39.1846 10.9111L41.1058 10.1106V14.6233C41.1071 15.996 40.67 17.3332 39.8583 18.44C39.0465 19.5469 37.9026 20.3657 36.593 20.7771L36.1828 20.9072ZM34.0215 13.7928V14.6233C34.0173 15.3329 34.2193 16.0283 34.603 16.6252C34.9867 17.2221 35.5356 17.6946 36.1828 17.9854C36.8258 17.6928 37.3708 17.2209 37.7524 16.6264C38.1339 16.0318 38.3359 15.3398 38.3341 14.6333V13.7928C37.5634 13.752 36.819 13.4992 36.1828 13.0624C35.5421 13.4977 34.7949 13.7503 34.0215 13.7928Z" fill="black"/>
</svg>
