<svg width="48" height="48" viewBox="0 0 48 48" fill="none" xmlns="http://www.w3.org/2000/svg">
<path d="M24.4303 23.6366C26.1957 22.5486 27.5578 20.9143 28.31 18.9818C29.0621 17.0493 29.1631 14.9242 28.5977 12.929C28.0323 10.9339 26.8313 9.17774 25.1771 7.92719C23.5229 6.67664 21.5058 6 19.4321 6C17.3584 6 15.3413 6.67664 13.6871 7.92719C12.0329 9.17774 10.8319 10.9339 10.2665 12.929C9.70108 14.9242 9.8021 17.0493 10.5542 18.9818C11.3064 20.9143 12.6685 22.5486 14.4339 23.6366C12.8656 24.3459 11.4577 25.3661 10.2954 26.6356C7.88214 29.2839 6.56383 32.7494 6.60673 36.332C6.60673 39.9407 11.2451 42 19.2921 42H19.4621C27.5991 42 32.2974 39.8708 32.2874 36.2321C32.316 33.6018 31.5914 31.0182 30.1992 28.7864C28.8069 26.5545 26.8052 24.7676 24.4303 23.6366Z" fill="black"/>
<path d="M39.5948 13.7402H37.3756V11.491C37.3756 11.0138 37.186 10.5561 36.8486 10.2187C36.5111 9.88125 36.0535 9.69167 35.5763 9.69167C35.099 9.69167 34.6414 9.88125 34.3039 10.2187C33.9665 10.5561 33.7769 11.0138 33.7769 11.491V13.7402H31.5277C31.0505 13.7402 30.5928 13.9298 30.2554 14.2672C29.9179 14.6047 29.7284 15.0623 29.7284 15.5396C29.7284 16.0168 29.9179 16.4745 30.2554 16.8119C30.5928 17.1493 31.0505 17.3389 31.5277 17.3389H33.7769V19.5881C33.7769 20.0653 33.9665 20.523 34.3039 20.8604C34.6414 21.1979 35.099 21.3874 35.5763 21.3874C36.0535 21.3874 36.5111 21.1979 36.8486 20.8604C37.186 20.523 37.3756 20.0653 37.3756 19.5881V17.3389H39.5948C40.072 17.3389 40.5297 17.1493 40.8671 16.8119C41.2046 16.4745 41.3942 16.0168 41.3942 15.5396C41.3942 15.0623 41.2046 14.6047 40.8671 14.2672C40.5297 13.9298 40.072 13.7402 39.5948 13.7402Z" fill="black"/>
</svg>
