<svg width="48" height="48" viewBox="0 0 48 48" fill="none" xmlns="http://www.w3.org/2000/svg">
<path d="M23.3686 23.6841C25.2644 22.7654 26.7925 21.2308 27.703 19.331C28.6136 17.4313 28.8528 15.2789 28.3815 13.2256C27.9102 11.1723 26.7563 9.33962 25.1084 8.02714C23.4605 6.71465 21.4162 6 19.3095 6C17.2028 6 15.1584 6.71465 13.5106 8.02714C11.8627 9.33962 10.7088 11.1723 10.2375 13.2256C9.7662 15.2789 10.0054 17.4313 10.9159 19.331C11.8265 21.2308 13.3546 22.7654 15.2504 23.6841C13.337 24.3735 11.621 25.5198 10.2515 27.0234C7.86726 29.6546 6.56712 33.0907 6.61235 36.6412C6.61235 40.0504 11.1913 42 19.1595 42H19.3395C27.4177 42 32.0366 40.0005 32.0266 36.5512C32.0383 33.0129 30.7094 29.6015 28.3075 27.0034C26.9501 25.5181 25.2565 24.3799 23.3686 23.6841ZM12.761 15.316C12.761 14.0208 13.145 12.7547 13.8646 11.6778C14.5842 10.6009 15.6069 9.76159 16.8035 9.26595C18.0001 8.77031 19.3168 8.64063 20.587 8.8933C21.8573 9.14598 23.0242 9.76967 23.94 10.6855C24.8558 11.6013 25.4795 12.7682 25.7322 14.0384C25.9849 15.3087 25.8552 16.6254 25.3595 17.822C24.8639 19.0186 24.0246 20.0413 22.9477 20.7609C21.8708 21.4805 20.6047 21.8645 19.3095 21.8645C17.5735 21.8619 15.9094 21.1711 14.6819 19.9436C13.4544 18.7161 12.7636 17.052 12.761 15.316ZM19.3295 39.2306C12.511 39.2306 9.33174 37.731 9.33174 36.6312C9.31191 33.7729 10.3725 31.0126 12.3011 28.9029C13.183 27.9177 14.2612 27.1278 15.4664 26.5837C16.6716 26.0396 17.9772 25.7535 19.2995 25.7437C20.6184 25.7447 21.9225 26.0219 23.1279 26.5574C24.3332 27.093 25.413 27.8749 26.2979 28.853C28.2353 30.9514 29.3068 33.7052 29.2972 36.5612C29.2673 37.651 26.1879 39.2106 19.3295 39.2306Z" fill="black"/>
<path d="M40.8746 10.877C40.7317 10.7651 40.568 10.6826 40.393 10.6341C40.2181 10.5856 40.0352 10.5721 39.8551 10.5944C39.6749 10.6166 39.5009 10.6743 39.343 10.764C39.1851 10.8536 39.0465 10.9736 38.9351 11.1169L34.5061 16.7957L32.6965 15.0061C32.438 14.7409 32.0847 14.5893 31.7144 14.5846C31.3441 14.5799 30.9871 14.7225 30.7219 14.9811C30.4568 15.2396 30.3052 15.5929 30.3005 15.9632C30.2958 16.3335 30.4384 16.6905 30.6969 16.9556L33.2764 19.5351C33.4444 19.7031 33.6439 19.8364 33.8635 19.9273C34.0831 20.0182 34.3184 20.065 34.5561 20.0649H34.666C34.9214 20.0476 35.1702 19.9762 35.396 19.8555C35.6218 19.7349 35.8194 19.5677 35.9757 19.3651L41.0746 12.8366C41.1905 12.6949 41.2773 12.5318 41.3301 12.3565C41.3828 12.1813 41.4003 11.9973 41.3818 11.8152C41.3632 11.6332 41.3088 11.4565 41.2218 11.2955C41.1348 11.1345 41.0168 10.9923 40.8746 10.877Z" fill="black"/>
</svg>
