<svg width="48" height="48" viewBox="0 0 48 48" fill="none" xmlns="http://www.w3.org/2000/svg">
<path d="M24.3993 23.6366C26.1647 22.5486 27.5268 20.9143 28.2789 18.9818C29.0311 17.0493 29.1321 14.9242 28.5667 12.929C28.0013 10.9339 26.8003 9.17774 25.1461 7.92719C23.4919 6.67664 21.4748 6 19.4011 6C17.3274 6 15.3103 6.67664 13.6561 7.92719C12.0019 9.17774 10.8009 10.9339 10.2355 12.929C9.67007 14.9242 9.7711 17.0493 10.5232 18.9818C11.2754 20.9143 12.6375 22.5486 14.4029 23.6366C12.8346 24.3459 11.4267 25.3661 10.2644 26.6356C7.85113 29.2839 6.53282 32.7494 6.57572 36.332C6.57572 39.9407 11.214 42 19.2611 42H19.4311C27.5681 42 32.2664 39.8708 32.2564 36.2321C32.285 33.6018 31.5604 31.0182 30.1682 28.7864C28.7759 26.5545 26.7742 24.7676 24.3993 23.6366Z" fill="black"/>
<path d="M38.0943 15.5396L40.8733 12.7606C41.0459 12.5945 41.1837 12.3957 41.2784 12.1757C41.3732 11.9557 41.4231 11.719 41.4252 11.4795C41.4272 11.24 41.3815 11.0024 41.2906 10.7808C41.1997 10.5592 41.0654 10.358 40.8957 10.189C40.726 10.02 40.5243 9.8865 40.3023 9.79646C40.0804 9.70642 39.8427 9.66159 39.6031 9.66462C39.3636 9.66764 39.1272 9.71846 38.9075 9.81408C38.6879 9.90971 38.4896 10.0482 38.3242 10.2215L35.5652 13.0105L32.7763 10.2215C32.4371 9.89525 31.9837 9.71485 31.5131 9.71894C31.0426 9.72304 30.5924 9.91131 30.259 10.2434C29.9256 10.5755 29.7355 11.025 29.7296 11.4955C29.7237 11.966 29.9023 12.4202 30.2272 12.7606L33.0062 15.5396L30.2272 18.3186C29.8914 18.6558 29.7029 19.1122 29.7029 19.5881C29.7029 20.0639 29.8914 20.5204 30.2272 20.8576C30.392 21.0272 30.5895 21.1615 30.8077 21.2526C31.0259 21.3436 31.2603 21.3895 31.4967 21.3874C31.7345 21.3886 31.9701 21.3423 32.1898 21.2514C32.4095 21.1604 32.6089 21.0265 32.7763 20.8576L35.5652 18.0886L38.3442 20.8576C38.5091 21.0272 38.7065 21.1615 38.9248 21.2526C39.143 21.3436 39.3773 21.3895 39.6138 21.3874C39.9697 21.3883 40.3179 21.2836 40.6143 21.0866C40.9107 20.8896 41.142 20.6091 41.279 20.2805C41.416 19.952 41.4524 19.5903 41.3838 19.241C41.3151 18.8918 41.1444 18.5708 40.8933 18.3186L38.0943 15.5396Z" fill="black"/>
</svg>
