<svg width="48" height="48" viewBox="0 0 48 48" fill="none" xmlns="http://www.w3.org/2000/svg">
<path d="M24 31.71C25.7659 31.7628 27.4703 32.371 28.8706 33.4482C30.271 34.5254 31.296 36.0167 31.8 37.71C32.6376 37.2317 33.4307 36.6795 34.17 36.06C33.0344 33.2128 30.8153 30.9326 28 29.72C29.5807 28.8397 30.8245 27.4596 31.5363 25.7961C32.2481 24.1327 32.3875 22.28 31.9328 20.5288C31.478 18.7775 30.4548 17.2268 29.0236 16.1198C27.5925 15.0128 25.8343 14.4122 24.025 14.4122C22.2157 14.4122 20.4575 15.0128 19.0264 16.1198C17.5952 17.2268 16.572 18.7775 16.1173 20.5288C15.6625 22.28 15.802 24.1327 16.5137 25.7961C17.2255 27.4596 18.4693 28.8397 20.05 29.72C18.6463 30.323 17.3753 31.1969 16.3097 32.2917C15.2441 33.3864 14.4049 34.6805 13.84 36.1C14.5793 36.7195 15.3724 37.2717 16.21 37.75C16.7064 36.0508 17.7269 34.5519 19.1259 33.4672C20.5249 32.3825 22.2307 31.7675 24 31.71ZM18.62 22.6C18.6259 21.5396 18.9457 20.5048 19.5389 19.6259C20.1321 18.7469 20.9722 18.0633 21.9534 17.6612C22.9346 17.259 24.0128 17.1564 25.0522 17.3661C26.0917 17.5759 27.0457 18.0887 27.7941 18.8399C28.5425 19.5911 29.0518 20.547 29.2577 21.5872C29.4636 22.6274 29.357 23.7053 28.9512 24.685C28.5454 25.6646 27.8587 26.5022 26.9776 27.0922C26.0964 27.6821 25.0604 27.998 24 28C23.2918 28 22.5906 27.8602 21.9365 27.5886C21.2825 27.317 20.6885 26.9189 20.1887 26.4172C19.6888 25.9155 19.293 25.32 19.0238 24.665C18.7546 24.0099 18.6174 23.3082 18.62 22.6Z" fill="black"/>
<path d="M24 44C20.0444 44 16.1776 42.827 12.8886 40.6294C9.59962 38.4318 7.03617 35.3082 5.52242 31.6537C4.00867 27.9992 3.6126 23.9778 4.3843 20.0982C5.15601 16.2186 7.06082 12.6549 9.85787 9.85787C12.6549 7.06082 16.2186 5.15601 20.0982 4.3843C23.9778 3.6126 27.9992 4.00867 31.6537 5.52242C35.3082 7.03617 38.4318 9.59962 40.6294 12.8886C42.827 16.1776 44 20.0444 44 24C44 29.3043 41.8929 34.3914 38.1421 38.1421C34.3914 41.8929 29.3043 44 24 44ZM24 6.79001C20.5962 6.79001 17.2688 7.79936 14.4386 9.69042C11.6085 11.5815 9.40263 14.2693 8.10004 17.414C6.79746 20.5587 6.45664 24.0191 7.12069 27.3575C7.78475 30.6959 9.42384 33.7625 11.8307 36.1693C14.2376 38.5762 17.3041 40.2153 20.6425 40.8793C23.9809 41.5434 27.4413 41.2026 30.586 39.9C33.7307 38.5974 36.4185 36.3915 38.3096 33.5614C40.2007 30.7312 41.21 27.4038 41.21 24C41.2047 19.4373 39.3898 15.0629 36.1635 11.8365C32.9371 8.61019 28.5628 6.7953 24 6.79001Z" fill="black"/>
</svg>
