<svg width="48" height="48" viewBox="0 0 48 48" fill="none" xmlns="http://www.w3.org/2000/svg">
<path d="M24.855 23.6366C26.6204 22.5486 27.9826 20.9143 28.7347 18.9818C29.4868 17.0493 29.5879 14.9242 29.0224 12.929C28.457 10.9339 27.256 9.17774 25.6018 7.92719C23.9476 6.67664 21.9305 6 19.8568 6C17.7831 6 15.766 6.67664 14.1118 7.92719C12.4576 9.17774 11.2567 10.9339 10.6912 12.929C10.1258 14.9242 10.2268 17.0493 10.979 18.9818C11.7311 20.9143 13.0933 22.5486 14.8586 23.6366C13.2904 24.3459 11.8825 25.3661 10.7201 26.6356C8.30688 29.2839 6.98857 32.7494 7.03147 36.332C7.03147 39.9407 11.6698 42 19.7169 42H19.8868C28.0239 42 32.7222 39.8708 32.7122 36.2321C32.7408 33.6018 32.0161 31.0182 30.6239 28.7864C29.2317 26.5545 27.2299 24.7676 24.855 23.6366Z" fill="black"/>
<path d="M36.021 10.5913C35.0283 10.5815 34.0551 10.8675 33.2255 11.4128C32.3959 11.9582 31.7476 12.7383 31.3631 13.6536C30.9786 14.5689 30.8754 15.578 31.0667 16.5522C31.258 17.5264 31.735 18.4215 32.437 19.1236C33.139 19.8256 34.0342 20.3026 35.0084 20.4939C35.9825 20.6851 36.9916 20.5819 37.9069 20.1975C38.8223 19.813 39.6023 19.1646 40.1477 18.3351C40.6931 17.5055 40.9791 16.5323 40.9692 15.5396C40.9562 14.2312 40.4307 12.9802 39.5055 12.055C38.5804 11.1299 37.3293 10.6044 36.021 10.5913ZM38.74 15.0098L36.081 16.5192L33.9517 15.7195C33.8395 15.6775 33.7366 15.6138 33.649 15.532C33.5614 15.4503 33.4907 15.352 33.4411 15.243C33.3914 15.1339 33.3637 15.0161 33.3596 14.8963C33.3554 14.7766 33.3749 14.6572 33.4169 14.5449C33.4589 14.4327 33.5226 14.3298 33.6044 14.2422C33.6862 14.1546 33.7844 14.0839 33.8935 14.0343C34.0025 13.9846 34.1203 13.9569 34.2401 13.9528C34.3599 13.9486 34.4793 13.9681 34.5915 14.0101L35.931 14.5099L37.8503 13.4203C37.9547 13.3619 38.0695 13.3246 38.1883 13.3106C38.3071 13.2966 38.4275 13.3061 38.5426 13.3385C38.6577 13.371 38.7653 13.4259 38.8592 13.4999C38.9531 13.574 39.0315 13.6658 39.0899 13.7702C39.1483 13.8746 39.1856 13.9894 39.1996 14.1082C39.2137 14.227 39.2042 14.3473 39.1717 14.4624C39.1392 14.5775 39.0843 14.6851 39.0103 14.779C38.9362 14.8729 38.8444 14.9513 38.74 15.0098Z" fill="black"/>
</svg>
