<svg width="48" height="48" viewBox="0 0 48 48" fill="none" xmlns="http://www.w3.org/2000/svg">
<path d="M23.3602 23.6841C25.256 22.7654 26.784 21.2308 27.6946 19.331C28.6052 17.4313 28.8444 15.2789 28.3731 13.2256C27.9018 11.1723 26.7479 9.33962 25.1 8.02714C23.4521 6.71465 21.4077 6 19.3011 6C17.1944 6 15.15 6.71465 13.5021 8.02714C11.8543 9.33962 10.7004 11.1723 10.2291 13.2256C9.75778 15.2789 9.99696 17.4313 10.9075 19.331C11.8181 21.2308 13.3462 22.7654 15.242 23.6841C13.3286 24.3735 11.6126 25.5198 10.2431 27.0234C7.85884 29.6546 6.5587 33.0907 6.60392 36.6412C6.60392 40.0504 11.1829 42 19.1511 42H19.3311C27.4092 42 32.0282 40.0005 32.0182 36.5512C32.0299 33.0129 30.701 29.6015 28.299 27.0034C26.9417 25.5181 25.2481 24.3799 23.3602 23.6841ZM12.7525 15.316C12.7525 14.0208 13.1366 12.7547 13.8562 11.6778C14.5757 10.6009 15.5985 9.76159 16.7951 9.26595C17.9916 8.77031 19.3083 8.64063 20.5786 8.8933C21.8489 9.14598 23.0157 9.76967 23.9316 10.6855C24.8474 11.6013 25.4711 12.7682 25.7238 14.0384C25.9764 15.3087 25.8468 16.6254 25.3511 17.822C24.8555 19.0186 24.0161 20.0413 22.9392 20.7609C21.8623 21.4805 20.5962 21.8645 19.3011 21.8645C17.5651 21.8619 15.901 21.1711 14.6735 19.9436C13.446 18.7161 12.7552 17.052 12.7525 15.316ZM19.3211 39.2306C12.5026 39.2306 9.32331 37.731 9.32331 36.6312C9.30349 33.7729 10.364 31.0126 12.2926 28.9029C13.1746 27.9177 14.2528 27.1278 15.458 26.5837C16.6632 26.0396 17.9688 25.7535 19.2911 25.7437C20.61 25.7447 21.9141 26.0219 23.1194 26.5574C24.3248 27.093 25.4046 27.8749 26.2895 28.853C28.2269 30.9514 29.2984 33.7052 29.2888 36.5612C29.2588 37.651 26.1795 39.2106 19.3211 39.2306Z" fill="black"/>
<path d="M40.9462 14.7961C41.0986 14.5243 41.1786 14.2179 41.1786 13.9063C41.1786 13.5947 41.0986 13.2883 40.9462 13.0165L40.5963 12.3667C40.453 12.0793 40.2357 11.8352 39.9669 11.6595C39.6981 11.4838 39.3874 11.3828 39.0666 11.3669C38.9853 11.0645 38.8276 10.788 38.6088 10.5639C38.39 10.3398 38.1173 10.1757 37.8169 10.0872L37.0571 9.85723C36.7593 9.77124 36.4446 9.76189 36.1422 9.83006C35.8398 9.89823 35.5596 10.0417 35.3275 10.2471C35.0548 10.092 34.7464 10.0104 34.4327 10.0104C34.1189 10.0104 33.8106 10.092 33.5379 10.2471L32.888 10.5971C32.6019 10.742 32.359 10.9597 32.1835 11.2281C32.008 11.4966 31.9062 11.8065 31.8882 12.1267C31.5853 12.1994 31.3068 12.3502 31.0805 12.5643C30.8541 12.7783 30.6879 13.048 30.5985 13.3464L30.3686 14.1163C30.2825 14.4125 30.2731 14.7257 30.3413 15.0265C30.4095 15.3273 30.5531 15.6058 30.7585 15.8359C30.6034 16.1086 30.5218 16.4169 30.5218 16.7307C30.5218 17.0444 30.6034 17.3528 30.7585 17.6255L31.1084 18.2753C31.2558 18.5616 31.4754 18.8044 31.7455 18.9797C32.0155 19.1551 32.3266 19.2569 32.6481 19.2751C32.7277 19.5768 32.8835 19.853 33.1006 20.0771C33.3177 20.3012 33.5888 20.4657 33.8878 20.5548L34.6376 20.7748H34.7776C34.9073 20.7857 35.0378 20.7857 35.1675 20.7748C35.6158 20.771 36.0481 20.608 36.3872 20.3149C36.6599 20.4645 36.966 20.543 37.277 20.543C37.5881 20.543 37.8941 20.4645 38.1668 20.3149L38.8967 20.0049C39.1593 19.8514 39.381 19.6367 39.5429 19.3791C39.7048 19.1214 39.802 18.8286 39.8265 18.5253C40.1257 18.4496 40.4001 18.2973 40.6227 18.0834C40.8453 17.8696 41.0085 17.6015 41.0962 17.3056L41.3061 16.5857C41.4051 16.2816 41.4239 15.9572 41.3609 15.6437C41.2978 15.3302 41.155 15.0383 40.9462 14.7961ZM35.3775 15.176C35.4135 15.056 35.4916 14.9531 35.5974 14.8861C35.6751 14.8473 35.7606 14.8268 35.8474 14.8261C35.8935 14.8164 35.9412 14.8164 35.9873 14.8261C36.0518 14.8417 36.1122 14.8708 36.1646 14.9115C36.217 14.9522 36.2602 15.0034 36.2914 15.062C36.3226 15.1205 36.341 15.185 36.3454 15.2512C36.3499 15.3174 36.3403 15.3838 36.3172 15.446C36.3011 15.5076 36.2723 15.5652 36.2327 15.6151C36.1931 15.665 36.1436 15.7061 36.0873 15.7359C35.9719 15.8007 35.8356 15.817 35.7081 15.7814C35.5807 15.7458 35.4726 15.6611 35.4075 15.5459C35.3541 15.4301 35.3434 15.299 35.3775 15.176Z" fill="black"/>
</svg>
