<svg width="48" height="48" viewBox="0 0 48 48" fill="none" xmlns="http://www.w3.org/2000/svg">
<path d="M32.5001 22.9999C34.3273 21.8309 35.6839 20.055 36.3312 17.9845C36.9784 15.9141 36.875 13.6818 36.0389 11.6801C35.2029 9.6784 33.6879 8.0356 31.7603 7.04058C29.8327 6.04557 27.616 5.76207 25.5001 6.23994C27.1673 6.90241 28.6473 7.96262 29.8109 9.32816C30.9745 10.6937 31.7864 12.3231 32.1759 14.0744C32.5654 15.8257 32.5207 17.6457 32.0456 19.3757C31.5704 21.1057 30.6794 22.6932 29.4501 23.9999C31.3792 25.4346 32.9445 27.3023 34.0196 29.4527C35.0948 31.603 35.6499 33.9758 35.6401 36.3799C35.6443 37.7429 35.154 39.0611 34.2601 40.0899C34.7501 39.9799 35.2101 39.8499 35.6401 39.7099C39.2401 38.5299 39.9801 36.5799 39.9801 35.1499C40.0102 32.6246 39.3234 30.1425 37.9994 27.9918C36.6753 25.8412 34.7684 24.1102 32.5001 22.9999Z" fill="black"/>
<path d="M26.3601 24.2599C28.0486 23.1872 29.3434 21.5953 30.0498 19.7237C30.7562 17.852 30.8361 15.8017 30.2775 13.8807C29.7189 11.9598 28.5519 10.272 26.952 9.07108C25.3521 7.87013 23.4056 7.22087 21.4051 7.22087C19.4045 7.22087 17.458 7.87013 15.8581 9.07108C14.2582 10.272 13.0912 11.9598 12.5326 13.8807C11.974 15.8017 12.0539 17.852 12.7603 19.7237C13.4667 21.5953 14.7615 23.1872 16.4501 24.2599C14.978 24.9483 13.6561 25.9202 12.5601 27.1199C10.2348 29.6789 8.96305 33.0225 9.00005 36.4799C9.00005 38.5499 10.6201 41.9999 21.2601 41.9999H21.4401C24.1619 42.0772 26.8796 41.74 29.5001 40.9999C33.1001 39.8199 33.8501 37.8699 33.8401 36.4399C33.8759 33.9095 33.1918 31.421 31.8674 29.2646C30.5431 27.1081 28.6331 25.3724 26.3601 24.2599Z" fill="black"/>
</svg>
