<svg width="48" height="48" viewBox="0 0 48 48" fill="none" xmlns="http://www.w3.org/2000/svg">
<path d="M40.36 8H7.64C6.67461 8 5.74876 8.3835 5.06613 9.06613C4.3835 9.74876 4 10.6746 4 11.64L4 37.09C4 38.0554 4.3835 38.9812 5.06613 39.6639C5.74876 40.3465 6.67461 40.73 7.64 40.73H40.36C41.3254 40.73 42.2512 40.3465 42.9339 39.6639C43.6165 38.9812 44 38.0554 44 37.09V11.64C44 10.6746 43.6165 9.74876 42.9339 9.06613C42.2512 8.3835 41.3254 8 40.36 8V8ZM19.44 31.42C18.3163 31.7454 17.1495 31.8972 15.98 31.87H15.91C14.7621 31.8995 13.6162 31.7579 12.51 31.45C10.82 30.9 10.56 29.92 10.56 29.39C10.5406 27.8905 11.091 26.4394 12.1 25.33C12.5225 24.866 13.0235 24.4801 13.58 24.19C13.0128 23.7848 12.5595 23.2404 12.2637 22.6093C11.968 21.9781 11.8396 21.2814 11.8912 20.5863C11.9427 19.8911 12.1723 19.221 12.558 18.6403C12.9436 18.0597 13.4722 17.5881 14.0929 17.2709C14.7136 16.9538 15.4055 16.8018 16.102 16.8296C16.7985 16.8575 17.4761 17.0641 18.0696 17.4297C18.663 17.7953 19.1524 18.3075 19.4905 18.9171C19.8286 19.5266 20.004 20.213 20 20.91C20.0018 21.5497 19.8502 22.1805 19.5579 22.7494C19.2656 23.3184 18.8411 23.809 18.32 24.18C19.2394 24.6916 20.0035 25.4421 20.5316 26.3521C21.0596 27.2621 21.332 28.2979 21.32 29.35C21.38 29.88 21.13 30.87 19.44 31.42ZM36.53 30.18H25.92C25.6703 30.1985 25.4195 30.1654 25.1832 30.0826C24.947 29.9998 24.7303 29.8691 24.5468 29.6987C24.3634 29.5284 24.217 29.322 24.1169 29.0925C24.0168 28.863 23.9652 28.6154 23.9652 28.365C23.9652 28.1146 24.0168 27.867 24.1169 27.6375C24.217 27.408 24.3634 27.2016 24.5468 27.0313C24.7303 26.8609 24.947 26.7302 25.1832 26.6474C25.4195 26.5646 25.6703 26.5315 25.92 26.55H36.53C36.7797 26.5315 37.0305 26.5646 37.2668 26.6474C37.503 26.7302 37.7197 26.8609 37.9032 27.0313C38.0866 27.2016 38.233 27.408 38.3331 27.6375C38.4332 27.867 38.4848 28.1146 38.4848 28.365C38.4848 28.6154 38.4332 28.863 38.3331 29.0925C38.233 29.322 38.0866 29.5284 37.9032 29.6987C37.7197 29.8691 37.503 29.9998 37.2668 30.0826C37.0305 30.1654 36.7797 30.1985 36.53 30.18ZM36.53 26.18H25.92C25.6703 26.1985 25.4195 26.1654 25.1832 26.0826C24.947 25.9998 24.7303 25.8691 24.5468 25.6987C24.3634 25.5284 24.217 25.322 24.1169 25.0925C24.0168 24.863 23.9652 24.6154 23.9652 24.365C23.9652 24.1146 24.0168 23.867 24.1169 23.6375C24.217 23.408 24.3634 23.2016 24.5468 23.0313C24.7303 22.8609 24.947 22.7302 25.1832 22.6474C25.4195 22.5646 25.6703 22.5315 25.92 22.55H36.53C36.7797 22.5315 37.0305 22.5646 37.2668 22.6474C37.503 22.7302 37.7197 22.8609 37.9032 23.0313C38.0866 23.2016 38.233 23.408 38.3331 23.6375C38.4332 23.867 38.4848 24.1146 38.4848 24.365C38.4848 24.6154 38.4332 24.863 38.3331 25.0925C38.233 25.322 38.0866 25.5284 37.9032 25.6987C37.7197 25.8691 37.503 25.9998 37.2668 26.0826C37.0305 26.1654 36.7797 26.1985 36.53 26.18ZM36.53 22.18H25.92C25.6703 22.1985 25.4195 22.1654 25.1832 22.0826C24.947 21.9998 24.7303 21.8691 24.5468 21.6987C24.3634 21.5284 24.217 21.322 24.1169 21.0925C24.0168 20.863 23.9652 20.6154 23.9652 20.365C23.9652 20.1146 24.0168 19.867 24.1169 19.6375C24.217 19.408 24.3634 19.2016 24.5468 19.0313C24.7303 18.8609 24.947 18.7302 25.1832 18.6474C25.4195 18.5646 25.6703 18.5315 25.92 18.55H36.53C36.7797 18.5315 37.0305 18.5646 37.2668 18.6474C37.503 18.7302 37.7197 18.8609 37.9032 19.0313C38.0866 19.2016 38.233 19.408 38.3331 19.6375C38.4332 19.867 38.4848 20.1146 38.4848 20.365C38.4848 20.6154 38.4332 20.863 38.3331 21.0925C38.233 21.322 38.0866 21.5284 37.9032 21.6987C37.7197 21.8691 37.503 21.9998 37.2668 22.0826C37.0305 22.1654 36.7797 22.1985 36.53 22.18Z" fill="black"/>
</svg>
