<svg width="48" height="48" viewBox="0 0 48 48" fill="none" xmlns="http://www.w3.org/2000/svg">
<path d="M24 4C20.0444 4 16.1776 5.17298 12.8886 7.37061C9.59962 9.56824 7.03617 12.6918 5.52242 16.3463C4.00867 20.0009 3.6126 24.0222 4.3843 27.9018C5.15601 31.7814 7.06082 35.3451 9.85787 38.1421C12.6549 40.9392 16.2186 42.844 20.0982 43.6157C23.9778 44.3874 27.9992 43.9913 31.6537 42.4776C35.3082 40.9638 38.4318 38.4004 40.6294 35.1114C42.827 31.8224 44 27.9556 44 24C44 18.6957 41.8929 13.6086 38.1421 9.85786C34.3914 6.10714 29.3043 4 24 4V4ZM24 38.55C20.3292 38.5508 16.7961 37.1526 14.12 34.64C15.2297 32.4545 16.9956 30.6712 19.17 29.54C17.699 28.5133 16.5939 27.044 16.0154 25.346C15.4369 23.648 15.4151 21.8097 15.9533 20.0984C16.4915 18.3871 17.5615 16.8922 19.0077 15.8309C20.454 14.7696 22.2011 14.1974 23.995 14.1974C25.7889 14.1974 27.536 14.7696 28.9823 15.8309C30.4285 16.8922 31.4986 18.3871 32.0367 20.0984C32.5749 21.8097 32.5531 23.648 31.9746 25.346C31.3961 27.044 30.291 28.5133 28.82 29.54C30.9981 30.6743 32.7672 32.4609 33.88 34.65C31.2012 37.1572 27.669 38.5515 24 38.55Z" fill="black"/>
</svg>
