<svg width="48" height="48" viewBox="0 0 48 48" fill="none" xmlns="http://www.w3.org/2000/svg">
<path d="M42.73 16.6C42.3407 16.3399 41.8928 16.1809 41.4266 16.1373C40.9605 16.0936 40.4908 16.1667 40.06 16.35L35.53 18.28V11C35.53 10.26 35.2361 9.55036 34.7128 9.02713C34.1896 8.50391 33.48 8.20996 32.74 8.20996H6.79C6.05005 8.20996 5.3404 8.50391 4.81717 9.02713C4.29395 9.55036 4 10.26 4 11L4 37C4 37.7399 4.29395 38.4496 4.81717 38.9728C5.3404 39.496 6.05005 39.79 6.79 39.79H32.79C33.53 39.79 34.2396 39.496 34.7628 38.9728C35.2861 38.4496 35.58 37.7399 35.58 37V29.67L40.11 31.59C40.4592 31.7455 40.8378 31.8239 41.22 31.82C41.9636 31.8068 42.6721 31.5015 43.1924 30.97C43.7126 30.4386 44.0027 29.7237 44 28.98V18.98C44.0022 18.5091 43.8873 18.045 43.6656 17.6295C43.4439 17.2141 43.1224 16.8603 42.73 16.6ZM6.79 36.95V11H32.79V20.38V36.95H6.79ZM41.15 29.03L35.53 26.64V21.32L41.21 18.96L41.15 29.03Z" fill="black"/>
</svg>
