<svg width="48" height="48" viewBox="0 0 48 48" fill="none" xmlns="http://www.w3.org/2000/svg">
<path d="M42.6159 16.6807C42.0441 16.3281 41.3656 16.1902 40.7015 16.2918C40.8324 16.1615 40.9353 16.0059 41.0038 15.8344C41.0724 15.663 41.1053 15.4793 41.1003 15.2948V13.8789H42.4863C42.6788 13.8953 42.8727 13.8714 43.0555 13.8089C43.2384 13.7464 43.4063 13.6467 43.5486 13.5159C43.6909 13.3852 43.8045 13.2263 43.8822 13.0494C43.9599 12.8724 44 12.6813 44 12.488C44 12.2948 43.9599 12.1037 43.8822 11.9267C43.8045 11.7498 43.6909 11.5909 43.5486 11.4602C43.4063 11.3294 43.2384 11.2297 43.0555 11.1672C42.8727 11.1047 42.6788 11.0808 42.4863 11.0972H41.1003V9.71125C41.1167 9.5187 41.0928 9.32485 41.0303 9.14199C40.9678 8.95913 40.8681 8.79124 40.7373 8.64894C40.6066 8.50665 40.4477 8.39305 40.2708 8.31534C40.0938 8.23763 39.9027 8.19751 39.7095 8.19751C39.5162 8.19751 39.3251 8.23763 39.1482 8.31534C38.9712 8.39305 38.8124 8.50665 38.6816 8.64894C38.5509 8.79124 38.4511 8.95913 38.3886 9.14199C38.3261 9.32485 38.3023 9.5187 38.3186 9.71125V11.0972H36.9028C36.5542 11.1267 36.2294 11.286 35.9928 11.5436C35.7561 11.8012 35.6248 12.1382 35.6248 12.488C35.6248 12.8379 35.7561 13.1749 35.9928 13.4325C36.2294 13.6901 36.5542 13.8494 36.9028 13.8789H38.2986V15.2948C38.2988 15.6224 38.4151 15.9394 38.6269 16.1895C38.8386 16.4395 39.1321 16.6065 39.4552 16.6607L35.467 18.3756V11.0972C35.467 10.7293 35.3941 10.3651 35.2524 10.0257C35.1108 9.6862 34.9032 9.3782 34.6417 9.11949C34.3802 8.86078 34.07 8.65651 33.729 8.51848C33.3881 8.38045 33.0231 8.31142 32.6553 8.31538H6.78178C6.044 8.31538 5.33645 8.60846 4.81476 9.13014C4.29308 9.65183 4 10.3594 4 11.0972L4 37.0205C4 37.7583 4.29308 38.4659 4.81476 38.9876C5.33645 39.5092 6.044 39.8023 6.78178 39.8023H32.7052C33.4429 39.8023 34.1505 39.5092 34.6722 38.9876C35.1939 38.4659 35.4869 37.7583 35.4869 37.0205V29.7121L40.0036 31.6265C40.3517 31.7816 40.7292 31.8598 41.1103 31.8558C41.8517 31.8427 42.5582 31.5383 43.0769 31.0084C43.5956 30.4785 43.8849 29.7657 43.8821 29.0242V19.0536C43.8843 18.5841 43.7698 18.1214 43.5487 17.7072C43.3277 17.293 43.0071 16.9402 42.6159 16.6807ZM6.78178 36.9707V11.0972H32.7052V20.4495V36.9707H6.78178ZM41.0405 29.074L35.4371 26.6911V21.3867L41.1003 19.0337L41.0405 29.074Z" fill="black"/>
</svg>
