<svg width="48" height="48" viewBox="0 0 48 48" fill="none" xmlns="http://www.w3.org/2000/svg">
<path d="M43.566 14.2355L41.7671 12.4366L43.566 10.6277C43.7014 10.4989 43.8093 10.3439 43.883 10.1721C43.9567 10.0003 43.9947 9.81527 43.9947 9.62833C43.9947 9.44138 43.9567 9.25639 43.883 9.08459C43.8093 8.91279 43.7014 8.75776 43.566 8.62894C43.4372 8.49347 43.2821 8.38561 43.1103 8.3119C42.9385 8.2382 42.7535 8.2002 42.5666 8.2002C42.3796 8.2002 42.1947 8.2382 42.0229 8.3119C41.851 8.38561 41.696 8.49347 41.5672 8.62894L39.7583 10.4278L37.9794 8.64892C37.8505 8.51346 37.6955 8.4056 37.5237 8.33189C37.3519 8.25819 37.1669 8.22018 36.98 8.22018C36.793 8.22018 36.608 8.25819 36.4362 8.33189C36.2644 8.4056 36.1094 8.51346 35.9806 8.64892C35.8451 8.77775 35.7373 8.93278 35.6636 9.10458C35.5898 9.27638 35.5518 9.46137 35.5518 9.64832C35.5518 9.83526 35.5898 10.0203 35.6636 10.1921C35.7373 10.3639 35.8451 10.5189 35.9806 10.6477L37.7795 12.4566L35.9806 14.2355C35.8451 14.3644 35.7373 14.5194 35.6636 14.6912C35.5898 14.863 35.5518 15.048 35.5518 15.2349C35.5518 15.4219 35.5898 15.6069 35.6636 15.7787C35.7373 15.9505 35.8451 16.1055 35.9806 16.2343C36.1101 16.3685 36.2654 16.4752 36.4371 16.5481C36.6088 16.621 36.7934 16.6586 36.98 16.6586C37.1665 16.6586 37.3511 16.621 37.5228 16.5481C37.6945 16.4752 37.8498 16.3685 37.9794 16.2343L39.7783 14.4354L41.5972 16.2343C41.0663 16.1369 40.5187 16.1924 40.0181 16.3942L35.4909 18.3231V11.0275C35.4909 10.2914 35.1999 9.58522 34.6813 9.06288C34.1627 8.54054 33.4586 8.24445 32.7226 8.23917H6.78831C6.0488 8.23917 5.33959 8.53294 4.81668 9.05585C4.29377 9.57876 4 10.288 4 11.0275L4 37.0117C4 37.7512 4.29377 38.4604 4.81668 38.9833C5.33959 39.5062 6.0488 39.8 6.78831 39.8H32.7725C33.512 39.8 34.2213 39.5062 34.7442 38.9833C35.2671 38.4604 35.5608 37.7512 35.5608 37.0117V29.6862L40.0881 31.605C40.4371 31.7604 40.8154 31.8388 41.1974 31.8348C41.9406 31.8217 42.6487 31.5166 43.1686 30.9854C43.6885 30.4543 43.9785 29.7398 43.9757 28.9966V19.0026C43.9746 18.5354 43.8582 18.0757 43.6368 17.6642C43.4154 17.2528 43.0958 16.9024 42.7065 16.6441H42.6465C42.9919 16.629 43.3194 16.4866 43.566 16.2443C43.703 16.1154 43.8122 15.9597 43.8869 15.787C43.9615 15.6143 44 15.4281 44 15.2399C44 15.0518 43.9615 14.8656 43.8869 14.6928C43.8122 14.5201 43.703 14.3645 43.566 14.2355ZM6.78831 36.9617V11.0275H32.7725V20.4018V36.9617H6.78831ZM41.1275 29.0465L35.5109 26.658V21.3412L41.1874 18.9826L41.1275 29.0465Z" fill="black"/>
</svg>
