<svg width="48" height="48" viewBox="0 0 48 48" fill="none" xmlns="http://www.w3.org/2000/svg">
<path d="M42.5359 16.3869C42.0794 16.079 41.5529 15.8908 41.0047 15.8396C40.4564 15.7885 39.9042 15.876 39.3986 16.0941L35.7699 17.6418V11.451C35.7699 10.569 35.4195 9.72317 34.7959 9.09952C34.1722 8.47587 33.3264 8.1255 32.4444 8.1255H7.3464C6.90832 8.12413 6.47425 8.20905 6.06899 8.37543C5.66373 8.54181 5.29521 8.78638 4.98446 9.09518C4.67372 9.40398 4.42685 9.77096 4.25793 10.1752C4.08902 10.5794 4.00137 11.0129 4 11.451V36.549C4 37.431 4.35036 38.2768 4.97401 38.9005C5.59766 39.5241 6.44351 39.8745 7.32548 39.8745H32.4235C33.3054 39.8745 34.1513 39.5241 34.7749 38.9005C35.3986 38.2768 35.749 37.431 35.749 36.549V30.3791L39.4091 31.9268C39.8154 32.1013 40.2532 32.1903 40.6954 32.1882C41.3425 32.192 41.976 32.0027 42.515 31.6444C42.9709 31.3448 43.3452 30.9366 43.6044 30.4566C43.8636 29.9765 43.9995 29.4396 43.9999 28.8941V19.1372C44.0037 18.5933 43.8718 18.0569 43.6161 17.5767C43.3605 17.0965 42.9892 16.6876 42.5359 16.3869Z" fill="black"/>
</svg>
