<svg width="48" height="48" viewBox="0 0 48 48" fill="none" xmlns="http://www.w3.org/2000/svg">
<path d="M40.7805 17.6299C40.3449 17.336 39.8423 17.1564 39.3191 17.1075C38.7958 17.0587 38.2687 17.1422 37.7862 17.3504L34.2928 18.8376V12.9188C34.2928 12.0821 33.9625 11.2793 33.3738 10.6849C32.785 10.0905 31.9853 9.75265 31.1487 9.74476H7.19397C6.77584 9.74344 6.36155 9.8245 5.97475 9.9833C5.58795 10.1421 5.23621 10.3755 4.93962 10.6703C4.64303 10.965 4.4074 11.3153 4.24618 11.7011C4.08496 12.0869 4.00131 12.5006 4 12.9188V36.8735C4 37.7162 4.33408 38.5246 4.92904 39.1214C5.52399 39.7183 6.33129 40.0549 7.17401 40.0575H31.1288C31.5464 40.0575 31.96 39.9751 32.3457 39.815C32.7315 39.6548 33.0818 39.4201 33.3767 39.1243C33.6715 38.8286 33.9051 38.4775 34.064 38.0912C34.223 37.705 34.3041 37.2912 34.3028 36.8735V30.9747L37.7962 32.4519C38.1833 32.6216 38.6012 32.7099 39.0239 32.7114C39.8587 32.7062 40.658 32.3722 41.2483 31.7818C41.8387 31.1914 42.1727 30.3922 42.1779 29.5573V20.2549C42.1815 19.7357 42.0556 19.2238 41.8116 18.7655C41.5676 18.3071 41.2133 17.9168 40.7805 17.6299Z" fill="black"/>
<path d="M42.0881 12.4297L43.3956 11.1122C43.5795 10.9474 43.7279 10.7468 43.8317 10.5228C43.9355 10.2987 43.9925 10.0558 43.9993 9.809C44.0061 9.56215 43.9625 9.31651 43.8711 9.0871C43.7797 8.85768 43.6426 8.6493 43.4679 8.47469C43.2933 8.30008 43.0849 8.1629 42.8555 8.07153C42.6261 7.98017 42.3805 7.93654 42.1336 7.94331C41.8868 7.95008 41.6439 8.00711 41.4198 8.11091C41.1958 8.21471 40.9952 8.3631 40.8305 8.54702L39.5129 9.85455L38.2054 8.54702C38.0406 8.3631 37.8401 8.21471 37.616 8.11091C37.3919 8.00711 37.1491 7.95008 36.9022 7.94331C36.6554 7.93654 36.4097 7.98017 36.1803 8.07153C35.9509 8.1629 35.7425 8.30008 35.5679 8.47469C35.3933 8.6493 35.2561 8.85768 35.1648 9.0871C35.0734 9.31651 35.0298 9.56215 35.0365 9.809C35.0433 10.0558 35.1003 10.2987 35.2041 10.5228C35.3079 10.7468 35.4563 10.9474 35.6403 11.1122L36.9378 12.4297L35.6403 13.7372C35.3008 14.0777 35.1101 14.539 35.1101 15.0198C35.1101 15.5006 35.3008 15.9619 35.6403 16.3024C35.9859 16.6433 36.4524 16.8335 36.9378 16.8314C37.4167 16.8304 37.8759 16.6402 38.2154 16.3024L39.5129 15.0048L40.8305 16.3024C41.1699 16.6402 41.6291 16.8304 42.108 16.8314C42.59 16.8308 43.0525 16.6408 43.3956 16.3024C43.7351 15.9619 43.9257 15.5006 43.9257 15.0198C43.9257 14.539 43.7351 14.0777 43.3956 13.7372L42.0881 12.4297Z" fill="black"/>
</svg>
