<svg width="48" height="48" viewBox="0 0 48 48" fill="none" xmlns="http://www.w3.org/2000/svg">
<path d="M40.7262 17.6687C40.2912 17.3752 39.7894 17.1958 39.2669 17.1471C38.7444 17.0983 38.2181 17.1817 37.7363 17.3896L34.2481 18.8746V12.9645C34.2481 12.1291 33.9183 11.3275 33.3304 10.734C32.7425 10.1405 31.944 9.80308 31.1086 9.7952H7.18925C6.77174 9.79389 6.35806 9.87482 5.97183 10.0334C5.5856 10.192 5.23438 10.425 4.93823 10.7193C4.64208 11.0136 4.4068 11.3634 4.24582 11.7486C4.08484 12.1338 4.00131 12.547 4 12.9645V36.8839C4 37.7254 4.33359 38.5325 4.92766 39.1285C5.52174 39.7244 6.32785 40.0605 7.16932 40.0632H31.0887C31.5057 40.0632 31.9187 39.9809 32.3039 39.821C32.689 39.6611 33.0388 39.4267 33.3333 39.1314C33.6277 38.836 33.8609 38.4855 34.0196 38.0998C34.1783 37.7141 34.2593 37.3009 34.258 36.8839V30.9937L37.7463 32.4688C38.1328 32.6382 38.5501 32.7264 38.9721 32.7279C39.8058 32.7227 40.6038 32.3892 41.1933 31.7997C41.7828 31.2102 42.1163 30.4122 42.1215 29.5785V20.2898C42.1251 19.7714 41.9994 19.2602 41.7557 18.8026C41.5121 18.3449 41.1583 17.9552 40.7262 17.6687Z" fill="black"/>
<path d="M42.0518 10.6623H41.2744V9.88489C41.2929 9.63606 41.2598 9.38608 41.1773 9.1506C41.0947 8.91512 40.9645 8.6992 40.7947 8.51634C40.625 8.33348 40.4193 8.18762 40.1906 8.08787C39.9618 7.98813 39.715 7.93665 39.4655 7.93665C39.2159 7.93665 38.9691 7.98813 38.7404 8.08787C38.5117 8.18762 38.306 8.33348 38.1362 8.51634C37.9664 8.6992 37.8362 8.91512 37.7537 9.1506C37.6711 9.38608 37.6381 9.63606 37.6566 9.88489V10.6623H36.8891C36.6403 10.6438 36.3903 10.6768 36.1549 10.7594C35.9194 10.8419 35.7035 10.9721 35.5206 11.1419C35.3377 11.3117 35.1919 11.5174 35.0921 11.7461C34.9924 11.9748 34.9409 12.2217 34.9409 12.4712C34.9409 12.7207 34.9924 12.9675 35.0921 13.1963C35.1919 13.425 35.3377 13.6307 35.5206 13.8004C35.7035 13.9702 35.9194 14.1004 36.1549 14.183C36.3903 14.2655 36.6403 14.2986 36.8891 14.2801H37.6665V15.0475C37.6399 15.3003 37.6667 15.5559 37.7453 15.7977C37.8238 16.0395 37.9523 16.2621 38.1224 16.451C38.2925 16.6399 38.5004 16.791 38.7326 16.8944C38.9648 16.9978 39.2162 17.0513 39.4705 17.0513C39.7247 17.0513 39.9761 16.9978 40.2083 16.8944C40.4405 16.791 40.6484 16.6399 40.8185 16.451C40.9886 16.2621 41.1171 16.0395 41.1956 15.7977C41.2742 15.5559 41.301 15.3003 41.2744 15.0475V14.2801H42.0518C42.3006 14.2986 42.5506 14.2655 42.786 14.183C43.0215 14.1004 43.2374 13.9702 43.4203 13.8004C43.6032 13.6307 43.749 13.425 43.8488 13.1963C43.9485 12.9675 44 12.7207 44 12.4712C44 12.2217 43.9485 11.9748 43.8488 11.7461C43.749 11.5174 43.6032 11.3117 43.4203 11.1419C43.2374 10.9721 43.0215 10.8419 42.786 10.7594C42.5506 10.6768 42.3006 10.6438 42.0518 10.6623Z" fill="black"/>
</svg>
