<svg width="48" height="48" viewBox="0 0 48 48" fill="none" xmlns="http://www.w3.org/2000/svg">
<path d="M39.3 6H8.7C7.20883 6 6 7.20883 6 8.7V11.4C6 12.8912 7.20883 14.1 8.7 14.1H39.3C40.7912 14.1 42 12.8912 42 11.4V8.7C42 7.20883 40.7912 6 39.3 6Z" fill="black"/>
<path d="M39.3 15.3H8.7C7.20883 15.3 6 16.5088 6 18V20.7C6 22.1912 7.20883 23.4 8.7 23.4H39.3C40.7912 23.4 42 22.1912 42 20.7V18C42 16.5088 40.7912 15.3 39.3 15.3Z" fill="black"/>
<path d="M39.3 24.6H8.7C7.20883 24.6 6 25.8088 6 27.3V30C6 31.4912 7.20883 32.7 8.7 32.7H39.3C40.7912 32.7 42 31.4912 42 30V27.3C42 25.8088 40.7912 24.6 39.3 24.6Z" fill="black"/>
<path d="M39.3 33.9H8.7C7.20883 33.9 6 35.1088 6 36.6V39.3C6 40.7912 7.20883 42 8.7 42H39.3C40.7912 42 42 40.7912 42 39.3V36.6C42 35.1088 40.7912 33.9 39.3 33.9Z" fill="black"/>
</svg>
