<svg width="48" height="48" viewBox="0 0 48 48" fill="none" xmlns="http://www.w3.org/2000/svg">
<path d="M13.85 42H8.31002C8.0063 42.0013 7.70532 41.9425 7.42446 41.8269C7.1436 41.7112 6.88842 41.5411 6.67365 41.3264C6.45889 41.1116 6.28878 40.8564 6.17316 40.5756C6.05754 40.2947 5.9987 39.9937 6.00002 39.69V8.31C6.00002 7.69735 6.2434 7.10979 6.67661 6.67658C7.10981 6.24337 7.69737 6 8.31002 6H13.85C14.4609 6.00264 15.0459 6.24719 15.477 6.68011C15.908 7.11303 16.15 7.69908 16.15 8.31V39.69C16.1513 39.9929 16.0928 40.293 15.9778 40.5732C15.8628 40.8534 15.6936 41.1082 15.4799 41.3228C15.2662 41.5374 15.0122 41.7078 14.7325 41.824C14.4528 41.9402 14.1529 42 13.85 42ZM8.77002 39.23H13.38V8.77H8.77002V39.23Z" fill="black"/>
<path d="M26.77 42H21.23C20.9267 42 20.6263 41.9403 20.346 41.8242C20.0658 41.7081 19.8111 41.5379 19.5966 41.3234C19.3821 41.1089 19.2119 40.8543 19.0959 40.574C18.9798 40.2937 18.92 39.9934 18.92 39.69V8.31C18.9227 7.69816 19.1669 7.11213 19.5995 6.67949C20.0322 6.24685 20.6182 6.00263 21.23 6H26.77C27.3819 6.00263 27.9679 6.24685 28.4005 6.67949C28.8332 7.11213 29.0774 7.69816 29.08 8.31V39.69C29.08 40.3027 28.8366 40.8902 28.4034 41.3234C27.9702 41.7566 27.3827 42 26.77 42ZM21.69 39.23H26.31V8.77H21.69V39.23Z" fill="black"/>
<path d="M39.69 42H34.15C33.8471 42 33.5472 41.9402 33.2675 41.824C32.9878 41.7078 32.7338 41.5374 32.5201 41.3228C32.3064 41.1082 32.1372 40.8534 32.0222 40.5732C31.9072 40.293 31.8487 39.9929 31.85 39.69V8.31C31.85 7.69908 32.092 7.11303 32.5231 6.68011C32.9541 6.24719 33.5391 6.00264 34.15 6H39.69C39.9934 6 40.2938 6.05975 40.574 6.17584C40.8543 6.29193 41.1089 6.46208 41.3234 6.67658C41.5379 6.89109 41.7081 7.14574 41.8242 7.426C41.9403 7.70626 42 8.00665 42 8.31V39.69C42.0013 39.9937 41.9425 40.2947 41.8269 40.5756C41.7113 40.8564 41.5412 41.1116 41.3264 41.3264C41.1116 41.5411 40.8564 41.7112 40.5756 41.8269C40.2947 41.9425 39.9937 42.0013 39.69 42ZM34.62 39.23H39.23V8.77H34.62V39.23Z" fill="black"/>
</svg>
