<svg width="48" height="48" viewBox="0 0 48 48" fill="none" xmlns="http://www.w3.org/2000/svg">
<path d="M19.5 6H9.6C7.61177 6 6 7.61177 6 9.6V19.5C6 21.4882 7.61177 23.1 9.6 23.1H19.5C21.4882 23.1 23.1 21.4882 23.1 19.5V9.6C23.1 7.61177 21.4882 6 19.5 6Z" fill="black"/>
<path d="M38.4 6H28.5C26.5118 6 24.9 7.61177 24.9 9.6V19.5C24.9 21.4882 26.5118 23.1 28.5 23.1H38.4C40.3882 23.1 42 21.4882 42 19.5V9.6C42 7.61177 40.3882 6 38.4 6Z" fill="black"/>
<path d="M19.5 24.9H9.6C7.61177 24.9 6 26.5118 6 28.5V38.4C6 40.3882 7.61177 42 9.6 42H19.5C21.4882 42 23.1 40.3882 23.1 38.4V28.5C23.1 26.5118 21.4882 24.9 19.5 24.9Z" fill="black"/>
<path d="M38.4 24.9H28.5C26.5118 24.9 24.9 26.5118 24.9 28.5V38.4C24.9 40.3882 26.5118 42 28.5 42H38.4C40.3882 42 42 40.3882 42 38.4V28.5C42 26.5118 40.3882 24.9 38.4 24.9Z" fill="black"/>
</svg>
