<svg width="48" height="48" viewBox="0 0 48 48" fill="none" xmlns="http://www.w3.org/2000/svg">
<path d="M19.5 6H9.6C7.61177 6 6 7.61177 6 9.6V19.5C6 21.4882 7.61177 23.1 9.6 23.1H19.5C21.4882 23.1 23.1 21.4882 23.1 19.5V9.6C23.1 7.61177 21.4882 6 19.5 6Z" fill="black"/>
<path d="M38.4 6H28.5C26.5118 6 24.9 7.61177 24.9 9.6V19.5C24.9 21.4882 26.5118 23.1 28.5 23.1H38.4C40.3882 23.1 42 21.4882 42 19.5V9.6C42 7.61177 40.3882 6 38.4 6Z" fill="black"/>
<path d="M19.5 24.9H9.6C7.61177 24.9 6 26.5118 6 28.5V38.4C6 40.3882 7.61177 42 9.6 42H19.5C21.4882 42 23.1 40.3882 23.1 38.4V28.5C23.1 26.5118 21.4882 24.9 19.5 24.9Z" fill="black"/>
<path d="M39.56 31H35.89V27.34C35.89 27.0196 35.8269 26.7023 35.7043 26.4063C35.5816 26.1102 35.4019 25.8412 35.1753 25.6147C34.9488 25.3881 34.6798 25.2084 34.3837 25.0857C34.0877 24.9631 33.7704 24.9 33.45 24.9C33.1296 24.9 32.8123 24.9631 32.5163 25.0857C32.2202 25.2084 31.9512 25.3881 31.7247 25.6147C31.4981 25.8412 31.3184 26.1102 31.1957 26.4063C31.0731 26.7023 31.01 27.0196 31.01 27.34V31H27.34C26.6929 31 26.0722 31.2571 25.6147 31.7147C25.1571 32.1722 24.9 32.7929 24.9 33.44C24.9 34.0871 25.1571 34.7078 25.6147 35.1653C26.0722 35.6229 26.6929 35.88 27.34 35.88H31V39.55C31 40.1971 31.2571 40.8178 31.7147 41.2753C32.1722 41.7329 32.7929 41.99 33.44 41.99C34.0871 41.99 34.7078 41.7329 35.1653 41.2753C35.6229 40.8178 35.88 40.1971 35.88 39.55V35.89H39.55C40.1971 35.89 40.8178 35.6329 41.2753 35.1753C41.7329 34.7178 41.99 34.0971 41.99 33.45C41.99 32.8029 41.7329 32.1822 41.2753 31.7247C40.8178 31.2671 40.1971 31.01 39.55 31.01L39.56 31Z" fill="black"/>
</svg>
