<svg width="48" height="48" viewBox="0 0 48 48" fill="none" xmlns="http://www.w3.org/2000/svg">
<path d="M19.38 22.62H9.23C8.37243 22.6174 7.55089 22.2748 6.94544 21.6675C6.33998 21.0602 6 20.2376 6 19.38V9.23C6 8.37335 6.3403 7.55179 6.94605 6.94605C7.55179 6.3403 8.37335 6 9.23 6H19.38C20.2376 6 21.0602 6.33998 21.6675 6.94544C22.2748 7.55089 22.6174 8.37243 22.62 9.23V19.38C22.62 20.2393 22.2786 21.0634 21.671 21.671C21.0634 22.2786 20.2393 22.62 19.38 22.62ZM9.23 8.77C9.1088 8.77255 8.99328 8.82184 8.90756 8.90756C8.82184 8.99328 8.77255 9.1088 8.77 9.23V19.38C8.76997 19.5029 8.81811 19.621 8.90411 19.7089C8.9901 19.7967 9.10709 19.8474 9.23 19.85H19.38C19.5047 19.85 19.6242 19.8005 19.7123 19.7123C19.8005 19.6242 19.85 19.5047 19.85 19.38V9.23C19.8474 9.10709 19.7967 8.9901 19.7089 8.90411C19.621 8.81811 19.5029 8.76997 19.38 8.77H9.23Z" fill="black"/>
<path d="M38.77 22.62H28.62C27.7607 22.62 26.9366 22.2786 26.329 21.671C25.7214 21.0634 25.38 20.2393 25.38 19.38V9.23C25.3826 8.37243 25.7252 7.55089 26.3325 6.94544C26.9398 6.33998 27.7624 6 28.62 6H38.77C39.6266 6 40.4482 6.3403 41.054 6.94605C41.6597 7.55179 42 8.37335 42 9.23V19.38C42 20.2376 41.66 21.0602 41.0546 21.6675C40.4491 22.2748 39.6276 22.6174 38.77 22.62ZM28.62 8.77C28.4971 8.76997 28.379 8.81811 28.2911 8.90411C28.2033 8.9901 28.1526 9.10709 28.15 9.23V19.38C28.15 19.5047 28.1995 19.6242 28.2877 19.7123C28.3758 19.8005 28.4953 19.85 28.62 19.85H38.77C38.8929 19.8474 39.0099 19.7967 39.0959 19.7089C39.1819 19.621 39.23 19.5029 39.23 19.38V9.23C39.2274 9.1088 39.1782 8.99328 39.0924 8.90756C39.0067 8.82184 38.8912 8.77255 38.77 8.77H28.62Z" fill="black"/>
<path d="M19.38 42H9.23C8.37335 42 7.55179 41.6597 6.94605 41.054C6.3403 40.4482 6 39.6266 6 38.77V28.62C6 27.7624 6.33998 26.9398 6.94544 26.3325C7.55089 25.7252 8.37243 25.3826 9.23 25.38H19.38C20.2393 25.38 21.0634 25.7214 21.671 26.329C22.2786 26.9366 22.62 27.7607 22.62 28.62V38.77C22.6174 39.6276 22.2748 40.4491 21.6675 41.0546C21.0602 41.66 20.2376 42 19.38 42ZM9.23 28.15C9.10709 28.1526 8.9901 28.2033 8.90411 28.2911C8.81811 28.379 8.76997 28.4971 8.77 28.62V38.77C8.77255 38.8912 8.82184 39.0067 8.90756 39.0924C8.99328 39.1782 9.1088 39.2274 9.23 39.23H19.38C19.5029 39.23 19.621 39.1819 19.7089 39.0959C19.7967 39.0099 19.8474 38.8929 19.85 38.77V28.62C19.85 28.4953 19.8005 28.3758 19.7123 28.2877C19.6242 28.1995 19.5047 28.15 19.38 28.15H9.23Z" fill="black"/>
<path d="M38.77 42H28.62C27.7624 42 26.9398 41.66 26.3325 41.0546C25.7252 40.4491 25.3826 39.6276 25.38 38.77V28.62C25.38 27.7607 25.7214 26.9366 26.329 26.329C26.9366 25.7214 27.7607 25.38 28.62 25.38H38.77C39.6276 25.3826 40.4491 25.7252 41.0546 26.3325C41.66 26.9398 42 27.7624 42 28.62V38.77C42 39.6266 41.6597 40.4482 41.054 41.054C40.4482 41.6597 39.6266 42 38.77 42ZM28.62 28.15C28.4953 28.15 28.3758 28.1995 28.2877 28.2877C28.1995 28.3758 28.15 28.4953 28.15 28.62V38.77C28.1526 38.8929 28.2033 39.0099 28.2911 39.0959C28.379 39.1819 28.4971 39.23 28.62 39.23H38.77C38.8912 39.2274 39.0067 39.1782 39.0924 39.0924C39.1782 39.0067 39.2274 38.8912 39.23 38.77V28.62C39.23 28.4971 39.1819 28.379 39.0959 28.2911C39.0099 28.2033 38.8929 28.1526 38.77 28.15H28.62Z" fill="black"/>
</svg>
