<svg width="48" height="48" viewBox="0 0 48 48" fill="none" xmlns="http://www.w3.org/2000/svg">
<path d="M14.1 6H8.7C7.20883 6 6 7.20883 6 8.7V39.3C6 40.7912 7.20883 42 8.7 42H14.1C15.5912 42 16.8 40.7912 16.8 39.3V8.7C16.8 7.20883 15.5912 6 14.1 6Z" fill="black"/>
<path d="M26.7 6H21.3C19.8088 6 18.6 7.20883 18.6 8.7V39.3C18.6 40.7912 19.8088 42 21.3 42H26.7C28.1912 42 29.4 40.7912 29.4 39.3V8.7C29.4 7.20883 28.1912 6 26.7 6Z" fill="black"/>
<path d="M39.3 6H33.9C32.4088 6 31.2 7.20883 31.2 8.7V39.3C31.2 40.7912 32.4088 42 33.9 42H39.3C40.7912 42 42 40.7912 42 39.3V8.7C42 7.20883 40.7912 6 39.3 6Z" fill="black"/>
</svg>
