<svg width="48" height="48" viewBox="0 0 48 48" fill="none" xmlns="http://www.w3.org/2000/svg">
<path d="M39.69 13.38H8.31002C8.00714 13.3813 7.70698 13.3228 7.42678 13.2078C7.14657 13.0928 6.89184 12.9236 6.67721 12.7099C6.46257 12.4962 6.29226 12.2422 6.17605 11.9625C6.05984 11.6828 6.00002 11.3829 6.00002 11.08V8.31C6.00002 7.69735 6.2434 7.10979 6.6766 6.67658C7.10981 6.24337 7.69737 6 8.31002 6H39.69C39.9934 6 40.2938 6.05975 40.574 6.17584C40.8543 6.29193 41.1089 6.46208 41.3234 6.67658C41.5379 6.89109 41.7081 7.14574 41.8242 7.426C41.9403 7.70626 42 8.00665 42 8.31V11.08C42 11.3829 41.9402 11.6828 41.824 11.9625C41.7078 12.2422 41.5375 12.4962 41.3228 12.7099C41.1082 12.9236 40.8535 13.0928 40.5733 13.2078C40.2931 13.3228 39.9929 13.3813 39.69 13.38ZM8.77002 10.62H39.23V8.77H8.77002V10.62Z" fill="black"/>
<path d="M39.69 22.92H8.31002C8.00714 22.9213 7.70698 22.8628 7.42678 22.7478C7.14657 22.6328 6.89184 22.4636 6.67721 22.2499C6.46257 22.0362 6.29226 21.7822 6.17605 21.5025C6.05984 21.2228 6.00002 20.9229 6.00002 20.62V17.85C5.9987 17.5463 6.05754 17.2453 6.17316 16.9644C6.28878 16.6836 6.45889 16.4284 6.67365 16.2136C6.88842 15.9989 7.1436 15.8288 7.42446 15.7131C7.70532 15.5975 8.0063 15.5387 8.31002 15.54H39.69C39.9937 15.5387 40.2947 15.5975 40.5756 15.7131C40.8564 15.8288 41.1116 15.9989 41.3264 16.2136C41.5412 16.4284 41.7113 16.6836 41.8269 16.9644C41.9425 17.2453 42.0013 17.5463 42 17.85V20.62C42 20.9229 41.9402 21.2228 41.824 21.5025C41.7078 21.7822 41.5375 22.0362 41.3228 22.2499C41.1082 22.4636 40.8535 22.6328 40.5733 22.7478C40.2931 22.8628 39.9929 22.9213 39.69 22.92ZM8.77002 20.15H39.23V18.31H8.77002V20.15Z" fill="black"/>
<path d="M39.69 32.46H8.31002C8.0063 32.4613 7.70532 32.4025 7.42446 32.2869C7.1436 32.1712 6.88842 32.0011 6.67365 31.7864C6.45889 31.5716 6.28878 31.3164 6.17316 31.0356C6.05754 30.7547 5.9987 30.4537 6.00002 30.15V27.38C6.00002 27.0771 6.05984 26.7772 6.17605 26.4975C6.29226 26.2178 6.46257 25.9638 6.67721 25.7501C6.89184 25.5364 7.14657 25.3672 7.42678 25.2522C7.70698 25.1372 8.00714 25.0787 8.31002 25.08H39.69C39.9929 25.0787 40.2931 25.1372 40.5733 25.2522C40.8535 25.3672 41.1082 25.5364 41.3228 25.7501C41.5375 25.9638 41.7078 26.2178 41.824 26.4975C41.9402 26.7772 42 27.0771 42 27.38V30.15C42.0013 30.4537 41.9425 30.7547 41.8269 31.0356C41.7113 31.3164 41.5412 31.5716 41.3264 31.7864C41.1116 32.0011 40.8564 32.1712 40.5756 32.2869C40.2947 32.4025 39.9937 32.4613 39.69 32.46ZM8.77002 29.69H39.23V27.85H8.77002V29.69Z" fill="black"/>
<path d="M39.69 42H8.31002C8.0063 42.0013 7.70532 41.9425 7.42446 41.8269C7.1436 41.7112 6.88842 41.5411 6.67365 41.3264C6.45889 41.1116 6.28878 40.8564 6.17316 40.5756C6.05754 40.2947 5.9987 39.9937 6.00002 39.69V36.92C6.00002 36.6171 6.05984 36.3172 6.17605 36.0375C6.29226 35.7578 6.46257 35.5038 6.67721 35.2901C6.89184 35.0764 7.14657 34.9072 7.42678 34.7922C7.70698 34.6772 8.00714 34.6187 8.31002 34.62H39.69C39.9929 34.6187 40.2931 34.6772 40.5733 34.7922C40.8535 34.9072 41.1082 35.0764 41.3228 35.2901C41.5375 35.5038 41.7078 35.7578 41.824 36.0375C41.9402 36.3172 42 36.6171 42 36.92V39.69C42.0013 39.9937 41.9425 40.2947 41.8269 40.5756C41.7113 40.8564 41.5412 41.1116 41.3264 41.3264C41.1116 41.5411 40.8564 41.7112 40.5756 41.8269C40.2947 41.9425 39.9937 42.0013 39.69 42ZM8.77002 39.23H39.23V37.38H8.77002V39.23Z" fill="black"/>
</svg>
