<svg width="48" height="48" viewBox="0 0 48 48" fill="none" xmlns="http://www.w3.org/2000/svg">
<path fill-rule="evenodd" clip-rule="evenodd" d="M20.12 18.2301H23.36L21.36 30.7601H18.09L20.12 18.2301ZM29.89 23.2301C31.76 24.1301 32.63 25.2301 32.61 26.6501C32.61 29.2501 30.37 30.9301 26.97 30.9301C25.7359 30.9287 24.5124 30.7017 23.36 30.2601L23.81 27.4501L24.24 27.6501C25.1733 28.1055 26.2017 28.3317 27.24 28.3101C28.17 28.3101 29.17 27.9301 29.19 27.0901C29.19 26.5401 28.76 26.1401 27.51 25.5301C26.26 24.9201 24.68 24.0001 24.71 22.1501C24.72 19.7101 27 18.0001 30.17 18.0001C31.1644 17.9959 32.1509 18.1756 33.08 18.5301L32.64 21.2401L32.35 21.1101C31.5913 20.7651 30.7629 20.6008 29.93 20.6301C28.65 20.6301 28.08 21.1701 28.07 21.7101C28.06 22.2501 28.76 22.6801 29.89 23.2501V23.2301ZM37.39 26.3001H40.08L39.33 22.6701L39.11 21.5901C38.95 22.0601 38.67 22.8201 38.68 22.7901C38.69 22.7601 37.65 25.6001 37.39 26.3201V26.3001ZM41.39 18.2101L44 30.7601H41C41 30.7601 40.71 29.3201 40.61 28.8801H36.45L35.77 30.7601H32.37L37.19 19.2701C37.3191 18.9382 37.5558 18.6593 37.8622 18.478C38.1686 18.2967 38.527 18.2235 38.88 18.2701L41.39 18.2101ZM15.39 18.2101H18.81L13.72 30.7501H10.29L7.41 19.8601C6.34314 19.2435 5.19538 18.779 4 18.4801L4.05 18.2301H9.27C9.60062 18.1906 9.93404 18.2765 10.2044 18.4709C10.4747 18.6653 10.6623 18.9541 10.73 19.2801L11.87 25.0001L12.21 26.7301L15.39 18.2101Z" fill="black"/>
</svg>
