<svg width="48" height="48" viewBox="0 0 48 48" fill="none" xmlns="http://www.w3.org/2000/svg">
<path fill-rule="evenodd" clip-rule="evenodd" d="M40.67 28.79L38.42 18H36.26C35.9503 17.9596 35.6361 18.0269 35.3702 18.1908C35.1044 18.3547 34.903 18.6051 34.8 18.9L30.65 28.79H33.58C33.58 28.79 34.06 27.46 34.17 27.17H37.75L38.08 28.79H40.67ZM30.86 25.26C30.86 24.03 30.13 23.1 28.52 22.33C27.52 21.83 26.94 21.5 26.94 20.99C26.94 20.48 27.45 20.06 28.55 20.06C29.265 20.0429 29.975 20.1829 30.63 20.47L30.88 20.59L31.26 18.26C30.4626 17.9523 29.6147 17.7963 28.76 17.8C26 17.8 24.06 19.27 24.05 21.37C24.05 22.92 25.44 23.78 26.49 24.3C27.54 24.82 27.94 25.17 27.94 25.64C27.94 26.36 27.06 26.69 26.26 26.69C25.3566 26.7149 24.4607 26.5193 23.65 26.12L23.28 25.94L22.89 28.37C23.8813 28.7549 24.9366 28.9483 26 28.94C28.93 29 30.84 27.5 30.86 25.26ZM21.15 28.79L22.9 18H20.1L18.36 28.79H21.15ZM14.59 28.79L19 18H16L13.3 25.36L13 23.87L12 18.87C11.84 18.18 11.35 17.99 10.73 17.96H6.27V18.18C7.2837 18.446 8.25371 18.8569 9.15 19.4L11.64 28.78L14.59 28.79ZM44 11.33V35.78C44 36.6632 43.6492 37.5102 43.0247 38.1347C42.4002 38.7592 41.5532 39.11 40.67 39.11H7.33C6.44683 39.11 5.59983 38.7592 4.97533 38.1347C4.35084 37.5102 4 36.6632 4 35.78V11.33C4 10.4468 4.35084 9.59983 4.97533 8.97533C5.59983 8.35084 6.44683 8 7.33 8H40.67C41.5532 8 42.4002 8.35084 43.0247 8.97533C43.6492 9.59983 44 10.4468 44 11.33ZM36.65 21.84C36.65 21.84 37.17 24.42 37.29 24.97H35L36.11 21.97C36.11 21.97 36.34 21.34 36.48 20.97L36.65 21.84Z" fill="black"/>
</svg>
