<svg width="48" height="48" viewBox="0 0 48 48" fill="none" xmlns="http://www.w3.org/2000/svg">
<path d="M31.2497 40.5192C30.8096 40.5128 30.3838 40.3615 30.0382 40.0887L21.6877 33.4203H11.6151C10.8184 33.4203 10.0544 33.1039 9.49111 32.5405C8.9278 31.9772 8.61133 31.2132 8.61133 30.4166V17.6205C8.61379 16.82 8.92949 16.0522 9.49086 15.4814C10.0522 14.9107 10.8147 14.5824 11.6151 14.5667H21.6877L30.0382 7.90831C30.3245 7.67771 30.6706 7.53356 31.036 7.49277C31.4013 7.45198 31.7707 7.51624 32.1008 7.67802C32.4411 7.83706 32.727 8.0928 32.9229 8.41331C33.1187 8.73382 33.2159 9.10491 33.2022 9.48028V38.5167C33.2036 38.8832 33.1009 39.2425 32.9058 39.5527C32.7108 39.8629 32.4316 40.1113 32.1008 40.2689C31.8394 40.4149 31.5486 40.5005 31.2497 40.5192ZM11.6151 17.3602C11.5461 17.3602 11.4798 17.3876 11.431 17.4364C11.3822 17.4852 11.3548 17.5515 11.3548 17.6205V30.3365C11.3574 30.4037 11.3859 30.4674 11.4345 30.5141C11.483 30.5608 11.5478 30.5868 11.6151 30.5868H22.6289L30.3686 36.7645V11.1824L22.669 17.3602H11.6151Z" fill="black"/>
<path d="M35.7754 29.996C35.4861 29.9943 35.2045 29.903 34.9691 29.7348C34.7337 29.5667 34.5561 29.3298 34.4607 29.0567C34.3652 28.7835 34.3567 28.4876 34.4361 28.2094C34.5155 27.9312 34.6791 27.6844 34.9043 27.5029C35.4237 27.0784 35.8423 26.5438 36.1297 25.9378C36.4172 25.3317 36.5663 24.6693 36.5663 23.9985C36.5663 23.3277 36.4172 22.6653 36.1297 22.0592C35.8423 21.4532 35.4237 20.9186 34.9043 20.4941C34.7617 20.3797 34.6429 20.2383 34.5549 20.0781C34.4669 19.9178 34.4113 19.7417 34.3913 19.56C34.3713 19.3782 34.3873 19.1943 34.4384 19.0187C34.4895 18.8431 34.5747 18.6793 34.6891 18.5366C34.8035 18.394 34.9448 18.2752 35.1051 18.1872C35.2654 18.0992 35.4414 18.0436 35.6232 18.0236C35.805 18.0036 35.9889 18.0196 36.1645 18.0707C36.3401 18.1218 36.5039 18.207 36.6465 18.3214C37.5023 19.0061 38.1932 19.8746 38.668 20.8625C39.1427 21.8504 39.3893 22.9325 39.3893 24.0285C39.3893 25.1246 39.1427 26.2066 38.668 27.1945C38.1932 28.1824 37.5023 29.0509 36.6465 29.7357C36.3931 29.9168 36.0866 30.0084 35.7754 29.996Z" fill="black"/>
</svg>
