<svg width="48" height="48" viewBox="0 0 48 48" fill="none" xmlns="http://www.w3.org/2000/svg">
<path d="M31.3521 9.30442C30.9883 9.12642 30.5812 9.05631 30.1788 9.1024C29.7764 9.14848 29.3957 9.30883 29.0816 9.56448L21.8799 15.3258H13.1679C12.349 15.3285 11.5644 15.6549 10.9853 16.234C10.4063 16.813 10.0798 17.5976 10.0771 18.4165V29.5892C10.0798 30.4071 10.4066 31.1907 10.9859 31.7682C11.5653 32.3456 12.3499 32.6699 13.1679 32.6699H21.8799L29.0816 38.4412C29.4553 38.7437 29.9211 38.9096 30.4019 38.9113C30.7252 38.9142 31.0444 38.8387 31.3321 38.6913C31.6932 38.52 31.9979 38.2493 32.2105 37.9109C32.4231 37.5725 32.5348 37.1805 32.5324 36.7808V11.2149C32.5354 10.8176 32.4262 10.4276 32.2174 10.0896C32.0086 9.75167 31.7087 9.4795 31.3521 9.30442Z" fill="black"/>
<path d="M35.4231 18.6666C35.0821 18.43 34.664 18.3314 34.2533 18.3908C33.8425 18.4502 33.4695 18.663 33.2094 18.9865C32.9494 19.31 32.8216 19.72 32.8519 20.134C32.8822 20.5479 33.0682 20.935 33.3726 21.2172C33.788 21.5519 34.1231 21.9754 34.3534 22.4565C34.5836 22.9377 34.7031 23.4644 34.7031 23.9978C34.7031 24.5313 34.5836 25.058 34.3534 25.5391C34.1231 26.0203 33.788 26.4438 33.3726 26.7785C33.1997 26.9107 33.0549 27.076 32.9465 27.2648C32.8381 27.4536 32.7684 27.662 32.7414 27.878C32.7144 28.094 32.7307 28.3132 32.7892 28.5228C32.8478 28.7324 32.9475 28.9283 33.0825 29.099C33.2352 29.2917 33.43 29.4469 33.6519 29.5526C33.8738 29.6584 34.117 29.712 34.3628 29.7092C34.7277 29.7074 35.0808 29.5803 35.3631 29.3491C36.1619 28.709 36.8066 27.8976 37.2497 26.9748C37.6928 26.052 37.9228 25.0415 37.9228 24.0179C37.9228 22.9942 37.6928 21.9837 37.2497 21.0609C36.8066 20.1381 36.1619 19.3267 35.3631 18.6866L35.4231 18.6666Z" fill="black"/>
</svg>
