<svg width="48" height="48" viewBox="0 0 48 48" fill="none" xmlns="http://www.w3.org/2000/svg">
<path d="M27.275 9.30442C26.9112 9.12642 26.504 9.05631 26.1017 9.1024C25.6993 9.14848 25.3185 9.30883 25.0044 9.56448L17.8028 15.3258H9.09072C8.27182 15.3285 7.48722 15.6549 6.90816 16.234C6.32911 16.813 6.00264 17.5976 6 18.4165V29.5892C6.00265 30.4071 6.32944 31.1907 6.90878 31.7682C7.48812 32.3456 8.27274 32.6699 9.09072 32.6699H17.8028L25.0044 38.4412C25.3781 38.7437 25.8439 38.9096 26.3247 38.9113C26.648 38.9142 26.9672 38.8387 27.255 38.6913C27.616 38.52 27.9208 38.2493 28.1334 37.9109C28.346 37.5725 28.4576 37.1805 28.4552 36.7808V11.2149C28.4583 10.8176 28.3491 10.4276 28.1403 10.0896C27.9315 9.75167 27.6316 9.4795 27.275 9.30442Z" fill="black"/>
<path d="M31.3459 18.6666C31.0049 18.43 30.5869 18.3314 30.1761 18.3908C29.7653 18.4502 29.3923 18.663 29.1323 18.9865C28.8722 19.31 28.7445 19.72 28.7747 20.134C28.805 20.5479 28.9911 20.935 29.2954 21.2172C29.7108 21.5519 30.046 21.9754 30.2762 22.4565C30.5065 22.9377 30.626 23.4644 30.626 23.9978C30.626 24.5313 30.5065 25.058 30.2762 25.5391C30.046 26.0203 29.7108 26.4438 29.2954 26.7785C29.1225 26.9107 28.9777 27.076 28.8693 27.2648C28.761 27.4536 28.6913 27.662 28.6643 27.878C28.6373 28.094 28.6535 28.3132 28.7121 28.5228C28.7707 28.7324 28.8703 28.9283 29.0054 29.099C29.158 29.2917 29.3528 29.4469 29.5747 29.5526C29.7967 29.6584 30.0398 29.712 30.2857 29.7092C30.6505 29.7074 31.0037 29.5803 31.2859 29.3491C32.0847 28.709 32.7295 27.8976 33.1726 26.9748C33.6156 26.052 33.8457 25.0415 33.8457 24.0179C33.8457 22.9942 33.6156 21.9837 33.1726 21.0609C32.7295 20.1381 32.0847 19.3267 31.2859 18.6866L31.3459 18.6666Z" fill="black"/>
<path d="M38.1875 23.9978C38.1895 22.5844 37.8731 21.1887 37.2619 19.9142C36.6506 18.6398 35.7602 17.5193 34.6567 16.6361C34.317 16.3678 33.8856 16.2436 33.4553 16.2904C33.0249 16.3372 32.6302 16.5511 32.3562 16.8862C32.2208 17.0533 32.1198 17.2456 32.0591 17.452C31.9983 17.6583 31.979 17.8747 32.0023 18.0885C32.0255 18.3024 32.0908 18.5095 32.1945 18.698C32.2981 18.8865 32.4381 19.0526 32.6062 19.1867C33.3244 19.7661 33.9038 20.499 34.3019 21.3315C34.6999 22.164 34.9065 23.0751 34.9065 23.9978C34.9065 24.9206 34.6999 25.8317 34.3019 26.6642C33.9038 27.4967 33.3244 28.2296 32.6062 28.809C32.3464 29.021 32.1579 29.3077 32.066 29.6302C31.9741 29.9527 31.9832 30.2956 32.0922 30.6128C32.2012 30.93 32.4048 31.2061 32.6755 31.404C32.9463 31.6019 33.2712 31.7121 33.6064 31.7197C33.9714 31.7187 34.3249 31.5915 34.6067 31.3596C35.7199 30.4818 36.6203 29.3637 37.2404 28.0889C37.8605 26.8141 38.1843 25.4155 38.1875 23.9978Z" fill="black"/>
<path d="M37.0072 13.5954C36.6659 13.4044 36.2674 13.3416 35.8838 13.4184C35.5003 13.4953 35.1568 13.7067 34.9153 14.0145C34.6739 14.3223 34.5504 14.7063 34.5672 15.0972C34.584 15.488 34.7399 15.86 35.0068 16.146C36.1831 17.0888 37.1326 18.2839 37.7851 19.6429C38.4375 21.002 38.7763 22.4903 38.7763 23.9978C38.7763 25.5054 38.4375 26.9937 37.7851 28.3527C37.1326 29.7118 36.1831 30.9069 35.0068 31.8497C34.7431 32.0608 34.5511 32.3481 34.4568 32.6724C34.3626 32.9967 34.3707 33.3421 34.4801 33.6616C34.5896 33.9811 34.7949 34.2591 35.0682 34.4575C35.3415 34.656 35.6693 34.7652 36.007 34.7704C36.3732 34.7666 36.7268 34.6358 37.0072 34.4003C38.5654 33.151 39.823 31.5676 40.6872 29.7671C41.5513 27.9666 42 25.995 42 23.9978C42 22.0007 41.5513 20.0291 40.6872 18.2286C39.823 16.4281 38.5654 14.8447 37.0072 13.5954Z" fill="black"/>
</svg>
