<svg width="48" height="48" viewBox="0 0 48 48" fill="none" xmlns="http://www.w3.org/2000/svg">
<path d="M9.49209 32.6713H9.94219L28.8766 13.7469V11.2163C28.8778 10.817 28.7657 10.4254 28.5532 10.0873C28.3407 9.74908 28.0367 9.47814 27.6763 9.30589C27.3129 9.12892 26.9067 9.05848 26.5049 9.10273C26.1031 9.14699 25.722 9.30412 25.4058 9.55595L18.2041 15.3273H9.49209C8.67238 15.3273 7.88624 15.6529 7.30662 16.2325C6.727 16.8122 6.40137 17.5983 6.40137 18.418V29.5806C6.40137 30.4003 6.727 31.1865 7.30662 31.7661C7.88624 32.3457 8.67238 32.6713 9.49209 32.6713Z" fill="black"/>
<path d="M20.0445 34.1517L25.4058 38.4427C25.7804 38.7423 26.2464 38.9047 26.7261 38.9028C27.0479 38.9023 27.3656 38.8305 27.6563 38.6928C28.015 38.5273 28.3198 38.264 28.5356 37.9331C28.7515 37.6023 28.8697 37.2173 28.8766 36.8223V25.3196L20.0445 34.1517Z" fill="black"/>
<path d="M9.67213 41.1833C9.18823 41.1796 8.71616 41.0333 8.31498 40.7627C7.9138 40.4921 7.60132 40.1092 7.41664 39.6619C7.23196 39.2146 7.18327 38.7228 7.27667 38.2479C7.37006 37.7731 7.6014 37.3364 7.94173 36.9924L37.4086 7.53548C37.8689 7.07522 38.4931 6.81665 39.144 6.81665C39.7949 6.81665 40.4192 7.07522 40.8794 7.53548C41.3397 7.99574 41.5982 8.61998 41.5982 9.27088C41.5982 9.92179 41.3397 10.546 40.8794 11.0063L11.4025 40.4632C10.9439 40.923 10.3216 41.1821 9.67213 41.1833Z" fill="black"/>
</svg>
