<svg width="48" height="48" viewBox="0 0 48 48" fill="none" xmlns="http://www.w3.org/2000/svg">
<path d="M26.705 26.1322V36.7956L20.7775 32.0697L18.775 34.0722L26.3245 40.0798C26.6096 40.3126 26.9559 40.4582 27.3218 40.499C27.6877 40.5399 28.0576 40.4743 28.3871 40.31C28.7187 40.1534 28.9985 39.9053 29.1937 39.5948C29.3888 39.2843 29.4911 38.9245 29.4885 38.5578V23.3387L26.705 26.1322Z" fill="black"/>
<path d="M7.91137 33.4114H11.5259L14.3194 30.6179H7.91137C7.84403 30.6179 7.77929 30.5919 7.73074 30.5452C7.6822 30.4985 7.65364 30.4349 7.65105 30.3676V17.6516C7.65105 17.5826 7.67847 17.5163 7.72729 17.4675C7.77611 17.4187 7.84233 17.3913 7.91137 17.3913H18.9252L26.6649 11.2135V18.2223L29.4584 15.4288V9.42127C29.4567 9.05516 29.3521 8.69692 29.1565 8.38742C28.9609 8.07793 28.6823 7.82966 28.3523 7.67096C28.0224 7.51227 27.6545 7.44953 27.2906 7.48991C26.9267 7.5303 26.5815 7.67218 26.2944 7.89936L17.984 14.5978H7.91137C7.11954 14.6131 6.36442 14.9346 5.8044 15.4946C5.24439 16.0546 4.92298 16.8097 4.9076 17.6015V30.3175C4.89554 30.7195 4.96432 31.1198 5.10986 31.4947C5.2554 31.8696 5.47474 32.2114 5.75488 32.5C6.03502 32.7885 6.37024 33.0179 6.74068 33.1744C7.11111 33.331 7.50921 33.4116 7.91137 33.4114Z" fill="black"/>
<path d="M8.12164 42.1724C7.93587 42.1737 7.75169 42.1381 7.5798 42.0676C7.40791 41.9972 7.25174 41.8932 7.12038 41.7619C6.98466 41.6328 6.8766 41.4775 6.80276 41.3054C6.72892 41.1332 6.69084 40.9479 6.69084 40.7606C6.69084 40.5733 6.72892 40.388 6.80276 40.2159C6.8766 40.0437 6.98466 39.8884 7.12038 39.7593L40.6625 6.2573C40.7915 6.12158 40.9469 6.01352 41.119 5.93968C41.2911 5.86584 41.4764 5.82776 41.6637 5.82776C41.851 5.82776 42.0364 5.86584 42.2085 5.93968C42.3806 6.01352 42.5359 6.12158 42.665 6.2573C42.8007 6.38637 42.9088 6.54168 42.9826 6.7138C43.0565 6.88593 43.0945 7.07126 43.0945 7.25856C43.0945 7.44585 43.0565 7.63118 42.9826 7.80331C42.9088 7.97543 42.8007 8.13074 42.665 8.25981L9.10287 41.7619C8.84243 42.0223 8.48994 42.1698 8.12164 42.1724Z" fill="black"/>
</svg>
