<svg width="48" height="48" viewBox="0 0 48 48" fill="none" xmlns="http://www.w3.org/2000/svg">
<path d="M26.6384 40.5192C26.1982 40.5128 25.7724 40.3615 25.4269 40.0887L17.0764 33.4203H7.00377C6.20712 33.4203 5.4431 33.1039 4.87978 32.5405C4.31647 31.9772 4 31.2132 4 30.4166V17.6205C4.00246 16.82 4.31816 16.0522 4.87954 15.4814C5.44091 14.9107 6.20337 14.5824 7.00377 14.5667H17.0764L25.4269 7.90831C25.7132 7.67771 26.0593 7.53356 26.4246 7.49277C26.79 7.45198 27.1594 7.51624 27.4895 7.67802C27.8298 7.83706 28.1157 8.0928 28.3116 8.41331C28.5074 8.73382 28.6046 9.10491 28.5909 9.48028V38.5167C28.5923 38.8832 28.4895 39.2425 28.2945 39.5527C28.0995 39.8629 27.8203 40.1113 27.4895 40.2689C27.2281 40.4149 26.9373 40.5005 26.6384 40.5192ZM7.00377 17.3602C6.93473 17.3602 6.86851 17.3876 6.81969 17.4364C6.77087 17.4852 6.74344 17.5515 6.74344 17.6205V30.3365C6.74603 30.4037 6.7746 30.4674 6.82314 30.5141C6.87169 30.5608 6.93643 30.5868 7.00377 30.5868H18.0176L25.7573 36.7645V11.1824L18.0576 17.3602H7.00377Z" fill="black"/>
<path d="M31.1641 29.996C30.8748 29.9943 30.5931 29.903 30.3577 29.7348C30.1224 29.5667 29.9448 29.3298 29.8493 29.0567C29.7539 28.7835 29.7453 28.4876 29.8248 28.2094C29.9042 27.9312 30.0678 27.6844 30.293 27.5029C30.8124 27.0784 31.231 26.5438 31.5184 25.9378C31.8058 25.3317 31.955 24.6693 31.955 23.9985C31.955 23.3277 31.8058 22.6653 31.5184 22.0592C31.231 21.4532 30.8124 20.9186 30.293 20.4941C30.1503 20.3797 30.0316 20.2383 29.9436 20.0781C29.8556 19.9178 29.8 19.7417 29.78 19.56C29.76 19.3782 29.776 19.1943 29.8271 19.0187C29.8782 18.8431 29.9633 18.6793 30.0777 18.5366C30.1921 18.394 30.3335 18.2752 30.4938 18.1872C30.6541 18.0992 30.8301 18.0436 31.0119 18.0236C31.1936 18.0036 31.3776 18.0196 31.5531 18.0707C31.7287 18.1218 31.8925 18.207 32.0352 18.3214C32.891 19.0061 33.5819 19.8746 34.0567 20.8625C34.5314 21.8504 34.7779 22.9325 34.7779 24.0285C34.7779 25.1246 34.5314 26.2066 34.0567 27.1945C33.5819 28.1824 32.891 29.0509 32.0352 29.7357C31.7818 29.9168 31.4753 30.0084 31.1641 29.996Z" fill="black"/>
<path d="M34.9288 32.2989C34.7198 32.2977 34.5137 32.2504 34.325 32.1604C34.1364 32.0704 33.9699 31.9399 33.8375 31.7783C33.7175 31.6336 33.6279 31.4662 33.5739 31.2862C33.5199 31.1062 33.5027 30.9171 33.5232 30.7303C33.5438 30.5435 33.6017 30.3627 33.6935 30.1987C33.7853 30.0348 33.9092 29.8909 34.0577 29.7758C34.9292 29.0728 35.6323 28.1837 36.1153 27.1736C36.5983 26.1635 36.849 25.0581 36.849 23.9384C36.849 22.8188 36.5983 21.7134 36.1153 20.7033C35.6323 19.6932 34.9292 18.804 34.0577 18.1011C33.9024 17.9903 33.7714 17.849 33.6727 17.6857C33.5739 17.5225 33.5095 17.3409 33.4834 17.1519C33.4573 16.963 33.47 16.7706 33.5208 16.5868C33.5716 16.4029 33.6594 16.2313 33.7789 16.0826C33.8983 15.9338 34.0468 15.811 34.2153 15.7216C34.3839 15.6323 34.5689 15.5783 34.759 15.5629C34.9492 15.5475 35.1404 15.5711 35.3211 15.6322C35.5018 15.6934 35.6682 15.7907 35.8099 15.9184C37.0055 16.8831 37.9699 18.1033 38.6324 19.4893C39.295 20.8754 39.6389 22.3922 39.6389 23.9284C39.6389 25.4647 39.295 26.9814 38.6324 28.3675C37.9699 29.7535 37.0055 30.9737 35.8099 31.9385C35.5677 32.1585 35.2558 32.2861 34.9288 32.2989Z" fill="black"/>
<path d="M37.6222 35.7633C37.4131 35.7627 37.2067 35.7157 37.018 35.6257C36.8292 35.5357 36.6628 35.4048 36.5308 35.2426C36.4095 35.0985 36.3188 34.9313 36.264 34.7511C36.2092 34.5709 36.1916 34.3814 36.2122 34.1942C36.2328 34.007 36.2912 33.8259 36.3838 33.6619C36.4764 33.4979 36.6014 33.3544 36.7511 33.2401C38.1423 32.1216 39.2649 30.7054 40.0362 29.0956C40.8075 27.4858 41.2079 25.7235 41.2079 23.9384C41.2079 22.1534 40.8075 20.3911 40.0362 18.7813C39.2649 17.1715 38.1423 15.7552 36.7511 14.6368C36.5062 14.3939 36.3602 14.0688 36.3414 13.7245C36.3226 13.3801 36.4323 13.0411 36.6492 12.773C36.8662 12.5049 37.1749 12.3269 37.5157 12.2736C37.8564 12.2202 38.2047 12.2952 38.4933 12.484C40.212 13.8632 41.599 15.6107 42.5521 17.5975C43.5052 19.5844 44 21.7598 44 23.9635C44 26.1671 43.5052 28.3426 42.5521 30.3294C41.599 32.3162 40.212 34.0637 38.4933 35.4429C38.2498 35.6491 37.9413 35.7626 37.6222 35.7633Z" fill="black"/>
</svg>
