<svg width="48" height="48" viewBox="0 0 48 48" fill="none" xmlns="http://www.w3.org/2000/svg">
<path d="M34.3425 40.5192C33.9023 40.5128 33.4765 40.3615 33.131 40.0887L24.7805 33.4203H14.7079C13.9112 33.4203 13.1472 33.1039 12.5839 32.5405C12.0206 31.9772 11.7041 31.2132 11.7041 30.4166V17.6205C11.7066 16.82 12.0223 16.0522 12.5836 15.4814C13.145 14.9107 13.9075 14.5824 14.7079 14.5667H24.7805L33.131 7.90831C33.4173 7.67771 33.7634 7.53356 34.1287 7.49277C34.4941 7.45198 34.8635 7.51624 35.1936 7.67802C35.5339 7.83706 35.8198 8.0928 36.0157 8.41331C36.2115 8.73382 36.3087 9.10491 36.295 9.48028V38.5167C36.2964 38.8832 36.1936 39.2425 35.9986 39.5527C35.8036 39.8629 35.5244 40.1113 35.1936 40.2689C34.9322 40.4149 34.6414 40.5005 34.3425 40.5192ZM14.7079 17.3602C14.6388 17.3602 14.5726 17.3876 14.5238 17.4364C14.475 17.4852 14.4475 17.5515 14.4475 17.6205V30.3365C14.4501 30.4037 14.4787 30.4674 14.5272 30.5141C14.5758 30.5608 14.6405 30.5868 14.7079 30.5868H25.7217L33.4614 36.7645V11.1824L25.7617 17.3602H14.7079Z" fill="black"/>
</svg>
