<svg width="48" height="48" viewBox="0 0 48 48" fill="none" xmlns="http://www.w3.org/2000/svg">
<path d="M34.0474 9.30442C33.6836 9.12642 33.2765 9.05631 32.8741 9.1024C32.4718 9.14848 32.091 9.30883 31.7769 9.56448L24.5752 15.3258H15.8632C15.0443 15.3285 14.2597 15.6549 13.6806 16.234C13.1016 16.813 12.7751 17.5976 12.7725 18.4165V29.5892C12.7751 30.4071 13.1019 31.1907 13.6812 31.7682C14.2606 32.3456 15.0452 32.6699 15.8632 32.6699H24.5752L31.7769 38.4412C32.1506 38.7437 32.6164 38.9096 33.0972 38.9113C33.4205 38.9142 33.7397 38.8387 34.0274 38.6913C34.3885 38.52 34.6932 38.2493 34.9058 37.9109C35.1184 37.5725 35.2301 37.1805 35.2277 36.7808V11.2149C35.2307 10.8176 35.1215 10.4276 34.9127 10.0896C34.704 9.75167 34.404 9.4795 34.0474 9.30442Z" fill="black"/>
</svg>
