<svg width="48" height="48" viewBox="0 0 48 48" fill="none" xmlns="http://www.w3.org/2000/svg">
<path d="M40.28 13.1H37.17C36.9526 11.9794 36.3633 10.965 35.4977 10.2209C34.632 9.47682 33.5405 9.04664 32.4 9H9.58C6.5 9 4 11.8 4 15.24V31.83C4 35.27 6.5 38.07 9.58 38.07H40.28C41.3111 38.0181 42.28 37.5616 42.9765 36.7996C43.673 36.0376 44.0408 35.0316 44 34V17.19C44.0462 16.1551 43.6809 15.1439 42.9838 14.3775C42.2868 13.6111 41.3147 13.1518 40.28 13.1ZM41.21 34C41.21 34.7 40.78 35.29 40.28 35.29H9.58C8.04 35.29 6.79 33.74 6.79 31.84V15.24C6.79 13.34 8.04 11.79 9.58 11.79H32.4C32.7972 11.8146 33.1796 11.9504 33.5032 12.1821C33.8268 12.4138 34.0787 12.7319 34.23 13.1H9.34C9.14688 13.0836 8.95246 13.1075 8.76906 13.1702C8.58566 13.2329 8.41727 13.333 8.27455 13.4641C8.13184 13.5952 8.0179 13.7546 7.93996 13.932C7.86203 14.1095 7.82178 14.3012 7.82178 14.495C7.82178 14.6888 7.86203 14.8805 7.93996 15.058C8.0179 15.2354 8.13184 15.3948 8.27455 15.5259C8.41727 15.657 8.58566 15.7571 8.76906 15.8198C8.95246 15.8825 9.14688 15.9064 9.34 15.89H40.28C40.78 15.89 41.21 16.48 41.21 17.19V34Z" fill="black"/>
<path d="M38.3 22.88C37.7636 22.878 37.2387 23.0353 36.7917 23.3318C36.3447 23.6284 35.9958 24.051 35.7892 24.546C35.5825 25.041 35.5274 25.5862 35.6309 26.1125C35.7343 26.6389 35.9916 27.1227 36.3702 27.5027C36.7488 27.8827 37.2317 28.1418 37.7576 28.2472C38.2836 28.3526 38.829 28.2995 39.3247 28.0947C39.8205 27.8898 40.2444 27.5425 40.5426 27.0966C40.8408 26.6508 41 26.1264 41 25.59C40.9974 24.8738 40.7124 24.1875 40.2069 23.6802C39.7014 23.1728 39.0162 22.8853 38.3 22.88ZM38.21 25.59C38.21 25.5661 38.2195 25.5432 38.2364 25.5264C38.2532 25.5095 38.2761 25.5 38.3 25.5C38.3221 25.5025 38.3425 25.513 38.3573 25.5296C38.372 25.5463 38.3801 25.5678 38.38 25.59C38.38 25.68 38.21 25.68 38.21 25.59Z" fill="black"/>
</svg>
