<svg width="48" height="48" viewBox="0 0 48 48" fill="none" xmlns="http://www.w3.org/2000/svg">
<path d="M9.67 16.64C9.43099 16.64 9.19433 16.5929 8.97352 16.5015C8.7527 16.41 8.55207 16.2759 8.38307 16.1069C8.21406 15.9379 8.08 15.7373 7.98854 15.5165C7.89708 15.2957 7.85 15.059 7.85 14.82C7.85 14.581 7.89708 14.3443 7.98854 14.1235C8.08 13.9027 8.21406 13.7021 8.38307 13.5331C8.55207 13.3641 8.7527 13.23 8.97352 13.1385C9.19433 13.0471 9.43099 13 9.67 13H37.22C36.9265 11.8848 36.2819 10.8936 35.3814 10.1733C34.4809 9.45287 33.3724 9.04149 32.22 9H9.91C6.65 9 4 11.94 4 15.55V31.77C4 35.38 6.65 38.32 9.91 38.32H39.91C41.041 38.2681 42.1056 37.7711 42.8717 36.9376C43.6379 36.104 44.0434 35.0013 44 33.87V17.46C43.9986 17.1848 43.9719 16.9103 43.92 16.64H9.67ZM38.88 26.94C38.6264 26.942 38.378 26.8686 38.1662 26.7292C37.9544 26.5897 37.7887 26.3905 37.6903 26.1568C37.5919 25.9231 37.5651 25.6654 37.6134 25.4165C37.6616 25.1675 37.7828 24.9385 37.9614 24.7585C38.14 24.5785 38.368 24.4556 38.6166 24.4054C38.8652 24.3552 39.123 24.3799 39.3575 24.4765C39.592 24.5731 39.7925 24.7371 39.9336 24.9478C40.0747 25.1585 40.15 25.4064 40.15 25.66C40.15 25.9978 40.0165 26.3218 39.7786 26.5616C39.5408 26.8013 39.2177 26.9374 38.88 26.94Z" fill="black"/>
</svg>
