<svg width="48" height="48" viewBox="0 0 48 48" fill="none" xmlns="http://www.w3.org/2000/svg">
<path d="M8.25985 34.2639L7.04701 35.4758C6.35926 36.2101 5.9841 37.1828 6.00078 38.1883C6.01746 39.1939 6.42467 40.1536 7.13641 40.8648C7.84814 41.5759 8.80865 41.9828 9.81506 41.9995C10.8215 42.0161 11.7949 41.6413 12.5299 40.9541L13.7427 39.7423L8.25985 34.2639Z" fill="black"/>
<path d="M25.2196 27.8742L24.0168 23.9983L20.1377 22.7965L19.847 22.6863L10.8259 31.7L16.2987 37.1684L25.3199 28.1547C25.2898 28.0645 25.2497 27.9744 25.2196 27.8742Z" fill="black"/>
<path d="M41.4878 19.9422L38.4808 15.9361L40.0845 11.1989C40.241 10.7457 40.2672 10.2578 40.1601 9.79057C40.053 9.3233 39.817 8.89538 39.4788 8.55538C39.1406 8.21538 38.7138 7.97693 38.2468 7.86708C37.7798 7.75723 37.2914 7.78038 36.8369 7.93392L32.0958 9.53636L28.0864 6.53179C27.7018 6.23614 27.2411 6.05552 26.7579 6.01089C26.2747 5.96625 25.7888 6.05943 25.3564 6.27962C24.9241 6.4998 24.5631 6.83796 24.3153 7.25486C24.0676 7.67176 23.9432 8.15031 23.9567 8.63498L24.0168 13.6426L19.9473 16.527C19.5614 16.8125 19.263 17.2001 19.0859 17.6461C18.9088 18.0921 18.86 18.5786 18.9449 19.0508C19.0242 19.5168 19.2324 19.9513 19.5459 20.3053C19.8594 20.6593 20.2658 20.9186 20.7191 21.0539L25.5003 22.5461L26.9637 27.3434C27.0991 27.7963 27.3587 28.2023 27.7129 28.5156C28.0672 28.8289 28.5021 29.0369 28.9684 29.1161H29.3794C29.7907 29.1246 30.198 29.0334 30.5663 28.8503C30.9347 28.6671 31.2531 28.3975 31.4944 28.0645L34.3811 23.9783L39.3929 24.0384C39.8711 24.0365 40.3399 23.9051 40.7494 23.6582C41.1589 23.4113 41.4937 23.0581 41.7184 22.6363C41.9373 22.211 42.0318 21.7326 41.991 21.2561C41.9502 20.7796 41.7758 20.3242 41.4878 19.9422Z" fill="black"/>
</svg>
