<svg width="48" height="48" viewBox="0 0 48 48" fill="none" xmlns="http://www.w3.org/2000/svg">
<path d="M41.6051 20.0422L38.3961 15.7377L40.1155 10.6641C40.2448 10.2815 40.2645 9.87035 40.1723 9.47711C40.0802 9.08387 39.8799 8.72417 39.5941 8.43859C39.3082 8.15301 38.9482 7.95291 38.5546 7.86086C38.1609 7.76881 37.7494 7.78847 37.3664 7.91763L32.288 9.63545L27.9793 6.42952C27.6547 6.1897 27.2695 6.04516 26.8671 6.01215C26.4647 5.97915 26.0611 6.05899 25.7016 6.24269C25.3422 6.4264 25.0412 6.70667 24.8325 7.05198C24.6238 7.39729 24.5157 7.79394 24.5204 8.19727L24.5904 13.5605L20.2118 16.6565C19.8788 16.8875 19.6176 17.2074 19.458 17.5797C19.2985 17.952 19.247 18.3616 19.3096 18.7617C19.3722 19.1619 19.5463 19.5363 19.8119 19.8423C20.0775 20.1482 20.4239 20.3732 20.8116 20.4917L22.1612 20.9111L7.04591 35.962C6.71464 36.2882 6.45158 36.6769 6.27202 37.1055C6.09247 37.5342 6 37.9942 6 38.4589C6 38.9235 6.09247 39.3836 6.27202 39.8122C6.45158 40.2408 6.71464 40.6295 7.04591 40.9557C7.37169 41.2879 7.76054 41.5518 8.18968 41.7319C8.61882 41.9121 9.07964 42.0049 9.54513 42.0049C10.0106 42.0049 10.4714 41.9121 10.9006 41.7319C11.3297 41.5518 11.7186 41.2879 12.0443 40.9557L27.1096 25.8549L27.5295 27.2032C27.65 27.5905 27.877 27.9362 28.1845 28.201C28.492 28.4659 28.8677 28.6392 29.2689 28.7013H29.6088C29.9537 28.7027 30.2938 28.6208 30.6002 28.4625C30.9065 28.3043 31.17 28.0744 31.3683 27.7924L34.4673 23.408L39.8356 23.4779C40.2368 23.477 40.6299 23.3649 40.9711 23.1542C41.3124 22.9435 41.5885 22.6424 41.7687 22.2843C41.949 21.9263 42.0263 21.5253 41.9921 21.1259C41.9579 20.7266 41.8136 20.3446 41.5751 20.0223L41.6051 20.0422ZM9.04529 38.9582C8.92234 38.8209 8.85436 38.6431 8.85436 38.4589C8.85436 38.2746 8.92234 38.0968 9.04529 37.9595L10.6148 36.3915L11.6145 37.3902L10.045 38.9582C9.90561 39.0771 9.72838 39.1424 9.54513 39.1424C9.36188 39.1424 9.18464 39.0771 9.04529 38.9582ZM13.6139 35.4327L12.6142 34.434L25.2102 21.8499L26 22.0996L26.2499 22.8886L13.6139 35.4327ZM34.2074 20.6415C33.8626 20.6409 33.5228 20.7232 33.2166 20.8814C32.9104 21.0395 32.6468 21.269 32.4479 21.5503L29.8687 25.1957L28.4892 20.9811C28.3882 20.6377 28.2026 20.3252 27.9493 20.0722C27.6961 19.8192 27.3833 19.6338 27.0396 19.5329L22.781 18.2046L26.4398 15.6378C26.7276 15.4352 26.9618 15.1657 27.122 14.8525C27.2822 14.5393 27.3638 14.1918 27.3595 13.8401L27.2996 9.37578L30.8784 12.0424C31.1605 12.2541 31.4901 12.3938 31.8385 12.4495C32.1869 12.5052 32.5436 12.4752 32.8778 12.362L37.1065 10.9238L35.6669 15.1485C35.5536 15.4823 35.5235 15.8387 35.5793 16.1868C35.635 16.5348 35.7749 16.8641 35.9868 17.1459L38.656 20.7214L34.2074 20.6415Z" fill="black"/>
</svg>
