<svg width="48" height="48" viewBox="0 0 48 48" fill="none" xmlns="http://www.w3.org/2000/svg">
<path d="M24 4C20.0444 4 16.1776 5.17298 12.8886 7.37061C9.59962 9.56824 7.03617 12.6918 5.52242 16.3463C4.00867 20.0009 3.6126 24.0222 4.3843 27.9018C5.15601 31.7814 7.06082 35.3451 9.85787 38.1421C12.6549 40.9392 16.2186 42.844 20.0982 43.6157C23.9778 44.3874 27.9992 43.9913 31.6537 42.4776C35.3082 40.9638 38.4318 38.4004 40.6294 35.1114C42.827 31.8224 44 27.9556 44 24C44 18.6957 41.8929 13.6086 38.1421 9.85786C34.3914 6.10714 29.3043 4 24 4ZM24 38.78C21.0768 38.78 18.2192 37.9132 15.7887 36.2891C13.3581 34.6651 11.4637 32.3568 10.3451 29.6561C9.22641 26.9554 8.93371 23.9836 9.504 21.1166C10.0743 18.2495 11.4819 15.616 13.549 13.549C15.616 11.4819 18.2495 10.0743 21.1166 9.50399C23.9836 8.9337 26.9554 9.2264 29.6561 10.3451C32.3568 11.4637 34.6651 13.3581 36.2891 15.7887C37.9132 18.2192 38.78 21.0768 38.78 24C38.7747 27.9183 37.2158 31.6746 34.4452 34.4452C31.6746 37.2158 27.9183 38.7747 24 38.78Z" fill="black"/>
<path d="M26.71 30.78L26.87 10.59H21.13L21.29 30.78H26.71Z" fill="black"/>
<path d="M24 37.4C25.6845 37.4 27.05 36.0345 27.05 34.35C27.05 32.6655 25.6845 31.3 24 31.3C22.3155 31.3 20.95 32.6655 20.95 34.35C20.95 36.0345 22.3155 37.4 24 37.4Z" fill="black"/>
</svg>
