<svg width="48" height="48" viewBox="0 0 48 48" fill="none" xmlns="http://www.w3.org/2000/svg">
<path d="M24 4C20.0444 4 16.1776 5.17298 12.8886 7.37061C9.59962 9.56824 7.03617 12.6918 5.52242 16.3463C4.00867 20.0009 3.6126 24.0222 4.3843 27.9018C5.15601 31.7814 7.06082 35.3451 9.85787 38.1421C12.6549 40.9392 16.2186 42.844 20.0982 43.6157C23.9778 44.3874 27.9992 43.9913 31.6537 42.4776C35.3082 40.9638 38.4318 38.4004 40.6294 35.1114C42.827 31.8224 44 27.9556 44 24C44 18.6957 41.8929 13.6086 38.1421 9.85786C34.3914 6.10714 29.3043 4 24 4V4ZM26.87 10.59L26.71 30.78H21.29L21.13 10.59H26.87ZM24 37.41C23.3944 37.412 22.8018 37.2342 22.2972 36.8992C21.7927 36.5641 21.399 36.0869 21.1658 35.528C20.9327 34.969 20.8707 34.3534 20.9876 33.7592C21.1045 33.1649 21.3952 32.6188 21.8227 32.1898C22.2503 31.7609 22.7955 31.4684 23.3893 31.3495C23.9832 31.2307 24.599 31.2907 25.1587 31.522C25.7184 31.7533 26.1969 32.1455 26.5336 32.6489C26.8703 33.1523 27.05 33.7444 27.05 34.35C27.05 35.1598 26.729 35.9366 26.1573 36.5102C25.5856 37.0838 24.8098 37.4074 24 37.41Z" fill="black"/>
</svg>
