<svg width="48" height="48" viewBox="0 0 48 48" fill="none" xmlns="http://www.w3.org/2000/svg">
<path d="M41.53 34.91L27 9.72998C26.6992 9.20071 26.2625 8.76132 25.7352 8.45719C25.2078 8.15307 24.6088 7.99523 24 7.99998C23.3912 7.99523 22.7922 8.15307 22.2649 8.45719C21.7375 8.76132 21.3008 9.20071 21 9.72998L6.47001 34.91C6.16543 35.4355 6.00498 36.0321 6.00488 36.6394C6.00478 37.2468 6.16503 37.8435 6.46943 38.369C6.77382 38.8946 7.21158 39.3306 7.73845 39.6327C8.26533 39.9349 8.86264 40.0926 9.47001 40.09H38.54C39.1474 40.0926 39.7447 39.9349 40.2716 39.6327C40.7984 39.3306 41.2362 38.8946 41.5406 38.369C41.845 37.8435 42.0052 37.2468 42.0051 36.6394C42.005 36.0321 41.8446 35.4355 41.54 34.91H41.53ZM39.13 37C39.0723 37.1061 38.9871 37.1946 38.8832 37.2562C38.7793 37.3178 38.6608 37.3502 38.54 37.35H9.46001C9.34555 37.3431 9.23453 37.3083 9.1367 37.2484C9.03888 37.1886 8.95724 37.1057 8.89898 37.0069C8.84071 36.9082 8.8076 36.7966 8.80255 36.6821C8.79749 36.5675 8.82066 36.4535 8.87001 36.35L23.4 11.11C23.4606 11.005 23.5482 10.9181 23.6537 10.8583C23.7592 10.7985 23.8788 10.768 24 10.77C24.1212 10.768 24.2408 10.7985 24.3463 10.8583C24.4518 10.9181 24.5394 11.005 24.6 11.11L39.13 36.29C39.1954 36.3968 39.23 36.5197 39.23 36.645C39.23 36.7703 39.1954 36.8931 39.13 37Z" fill="black"/>
<path d="M25.46 31.11L25.58 16.91H22.42L22.54 31.11H25.46Z" fill="black"/>
<path d="M24 31.66C23.6598 31.66 23.3273 31.7609 23.0444 31.9499C22.7616 32.1389 22.5411 32.4075 22.4109 32.7218C22.2808 33.0361 22.2467 33.3819 22.3131 33.7155C22.3794 34.0492 22.5432 34.3557 22.7838 34.5962C23.0243 34.8368 23.3308 35.0006 23.6645 35.0669C23.9981 35.1333 24.3439 35.0992 24.6582 34.9691C24.9725 34.8389 25.2411 34.6184 25.4301 34.3356C25.6191 34.0527 25.72 33.7202 25.72 33.38C25.72 32.9238 25.5388 32.4863 25.2162 32.1638C24.8937 31.8412 24.4562 31.66 24 31.66Z" fill="black"/>
</svg>
