<svg width="48" height="48" viewBox="0 0 48 48" fill="none" xmlns="http://www.w3.org/2000/svg">
<path d="M43.3198 34.4701L28.3198 8.47005C27.8827 7.7129 27.2525 7.08531 26.4935 6.65137C25.7346 6.21742 24.874 5.99267 23.9998 6.00005C23.1209 5.9939 22.2563 6.22234 21.4952 6.6618C20.734 7.10126 20.1039 7.73583 19.6698 8.50005L4.66981 34.5001C4.22298 35.2574 3.9873 36.1207 3.9873 37.0001C3.9873 37.8794 4.22298 38.7427 4.66981 39.5001C5.10864 40.2601 5.73981 40.8913 6.49988 41.3301C7.25995 41.769 8.12214 42 8.99981 42.0001H38.9998C39.8766 41.9983 40.7376 41.766 41.4963 41.3264C42.2549 40.8868 42.8847 40.2555 43.3223 39.4957C43.76 38.7359 43.9901 37.8743 43.9897 36.9975C43.9892 36.1207 43.7582 35.2594 43.3198 34.5001V34.4701ZM23.9998 12.4301L26.8198 17.3201H21.1798L23.9998 12.4301ZM24.7598 36.2501C25.4653 36.0653 26.0793 35.6299 26.4871 35.0252C26.8948 34.4206 27.0684 33.6881 26.9752 32.9648C26.8821 32.2415 26.5287 31.5768 25.981 31.0952C25.4334 30.6136 24.7291 30.3479 23.9998 30.3479C23.2705 30.3479 22.5662 30.6136 22.0186 31.0952C21.4709 31.5768 21.1175 32.2415 21.0244 32.9648C20.9312 33.6881 21.1048 34.4206 21.5125 35.0252C21.9203 35.6299 22.5343 36.0653 23.2398 36.2501H10.2398L20.9998 17.5901L21.0998 29.2501H26.8598L26.9998 17.5901L37.7498 36.2501H24.7598Z" fill="black"/>
</svg>
