<svg width="48" height="48" viewBox="0 0 48 48" fill="none" xmlns="http://www.w3.org/2000/svg">
<path d="M43.3315 34.4701L28.3315 8.47005C27.8944 7.7129 27.2642 7.08531 26.5053 6.65137C25.7463 6.21742 24.8858 5.99267 24.0115 6.00005C23.1326 5.9939 22.268 6.22234 21.5069 6.6618C20.7457 7.10126 20.1156 7.73583 19.6815 8.50005L4.68152 34.5001C4.2347 35.2574 3.99902 36.1207 3.99902 37.0001C3.99902 37.8794 4.2347 38.7427 4.68152 39.5001C5.12036 40.2601 5.75152 40.8913 6.5116 41.3301C7.27167 41.769 8.13386 42 9.01152 42.0001H39.0115C39.8883 41.9983 40.7493 41.766 41.508 41.3264C42.2667 40.8868 42.8964 40.2555 43.3341 39.4957C43.7717 38.7359 44.0019 37.8743 44.0014 36.9975C44.001 36.1207 43.7699 35.2594 43.3315 34.5001V34.4701ZM27.0115 17.3201L26.9115 29.2501H21.1315L21.0115 17.3201H27.0115ZM24.0115 36.3201C23.4182 36.3201 22.8382 36.1441 22.3448 35.8145C21.8515 35.4848 21.4669 35.0163 21.2399 34.4681C21.0128 33.9199 20.9534 33.3167 21.0692 32.7348C21.1849 32.1528 21.4706 31.6183 21.8902 31.1987C22.3098 30.7792 22.8443 30.4935 23.4263 30.3777C24.0082 30.2619 24.6114 30.3214 25.1596 30.5484C25.7078 30.7755 26.1763 31.16 26.5059 31.6533C26.8356 32.1467 27.0115 32.7267 27.0115 33.3201C27.0168 33.7174 26.9431 34.1118 26.7947 34.4804C26.6464 34.849 26.4262 35.1845 26.1471 35.4673C25.868 35.7501 25.5355 35.9747 25.1689 36.1279C24.8023 36.2812 24.4089 36.3601 24.0115 36.3601V36.3201Z" fill="black"/>
</svg>
