<svg width="48" height="48" viewBox="0 0 48 48" fill="none" xmlns="http://www.w3.org/2000/svg">
<path d="M43.2501 17.06C40.7373 14.5051 37.7412 12.476 34.4362 11.0909C31.1312 9.70577 27.5836 8.99243 24.0001 8.99243C20.4166 8.99243 16.869 9.70577 13.564 11.0909C10.259 12.476 7.26283 14.5051 4.75009 17.06C4.50053 17.3022 4.3019 17.5919 4.16588 17.912C4.02986 18.2321 3.95919 18.5762 3.95802 18.924C3.95685 19.2718 4.02521 19.6163 4.15907 19.9373C4.29293 20.2583 4.4896 20.5493 4.73752 20.7932C4.98545 21.0372 5.27962 21.2291 5.60276 21.3577C5.9259 21.4863 6.27149 21.5491 6.61923 21.5423C6.96696 21.5354 7.30982 21.4592 7.62767 21.318C7.94551 21.1768 8.23193 20.9735 8.47009 20.72C10.4985 18.661 12.9161 17.0259 15.5822 15.9098C18.2483 14.7937 21.1098 14.219 24.0001 14.219C26.8904 14.219 29.7519 14.7937 32.418 15.9098C35.0841 17.0259 37.5017 18.661 39.5301 20.72C40.0193 21.1949 40.675 21.4595 41.3568 21.4572C42.0386 21.4549 42.6925 21.1859 43.1785 20.7077C43.6645 20.2295 43.9441 19.5801 43.9575 18.8984C43.9709 18.2167 43.717 17.5569 43.2501 17.06Z" fill="black"/>
<path d="M24.0001 15.11C21.2167 15.1002 18.4597 15.6502 15.8932 16.7273C13.3266 17.8044 11.0028 19.3867 9.06009 21.38C8.78435 21.6161 8.5609 21.9071 8.40402 22.2345C8.24713 22.5619 8.16026 22.9184 8.14895 23.2812C8.13765 23.644 8.20216 24.0052 8.33836 24.3417C8.47456 24.6782 8.67946 24.9826 8.93996 25.2354C9.20047 25.4883 9.51084 25.684 9.85126 25.81C10.1917 25.9361 10.5547 25.9898 10.917 25.9676C11.2793 25.9454 11.6331 25.8479 11.9556 25.6813C12.2781 25.5147 12.5623 25.2827 12.7901 25C14.2517 23.5093 15.996 22.3252 17.9208 21.5168C19.8457 20.7084 21.9124 20.2921 24.0001 20.2921C26.0878 20.2921 28.1545 20.7084 30.0793 21.5168C32.0042 22.3252 33.7484 23.5093 35.2101 25C35.451 25.2501 35.7399 25.4489 36.0595 25.5847C36.3791 25.7204 36.7229 25.7902 37.0701 25.79C37.5831 25.7871 38.084 25.6337 38.5107 25.3487C38.9373 25.0638 39.2709 24.6598 39.47 24.187C39.6692 23.7142 39.7251 23.1933 39.6309 22.6889C39.5367 22.1846 39.2965 21.719 38.9401 21.35C36.9948 19.3621 34.6699 17.7854 32.1035 16.7135C29.537 15.6416 26.7814 15.0963 24.0001 15.11Z" fill="black"/>
<path d="M24.0001 21.21C22.0164 21.2045 20.052 21.6004 18.2252 22.3737C16.3985 23.1471 14.747 24.2819 13.3701 25.71C13.1091 25.9506 12.9 26.2419 12.7554 26.5661C12.6109 26.8902 12.534 27.2405 12.5294 27.5954C12.5249 27.9503 12.5928 28.3024 12.7289 28.6302C12.8651 28.958 13.0667 29.2546 13.3214 29.5018C13.5761 29.749 13.8786 29.9417 14.2103 30.068C14.542 30.1943 14.896 30.2517 15.2506 30.2365C15.6052 30.2214 15.953 30.1341 16.2727 29.9799C16.5925 29.8258 16.8774 29.608 17.1101 29.34C18.0057 28.4189 19.0769 27.6867 20.2603 27.1868C21.4437 26.6868 22.7154 26.4292 24.0001 26.4292C25.2848 26.4292 26.5565 26.6868 27.7399 27.1868C28.9233 27.6867 29.9945 28.4189 30.8901 29.34C31.3711 29.8341 32.0282 30.1178 32.7177 30.129C33.4072 30.1403 34.0732 29.8782 34.5701 29.4C35.0673 28.9186 35.3529 28.2594 35.3641 27.5674C35.3754 26.8754 35.1114 26.2073 34.6301 25.71C33.2532 24.2819 31.6017 23.1471 29.7749 22.3737C27.9481 21.6004 25.9838 21.2045 24.0001 21.21Z" fill="black"/>
<path d="M24.0001 28.19C22.9317 28.185 21.8739 28.401 20.893 28.8243C19.9121 29.2476 19.0293 29.8692 18.3001 30.65L17.1401 31.88L24.0001 38.74L30.8601 31.88L29.7001 30.65C28.9709 29.8692 28.0881 29.2476 27.1072 28.8243C26.1263 28.401 25.0684 28.185 24.0001 28.19Z" fill="black"/>
</svg>
