<svg width="48" height="48" viewBox="0 0 48 48" fill="none" xmlns="http://www.w3.org/2000/svg">
<path d="M5.41961 19.7149C5.23462 19.7192 5.05068 19.686 4.87888 19.6173C4.70708 19.5486 4.55099 19.4458 4.42003 19.315C4.28704 19.1847 4.1814 19.0292 4.10927 18.8576C4.03715 18.6859 4 18.5016 4 18.3155C4 18.1293 4.03715 17.945 4.10927 17.7733C4.1814 17.6017 4.28704 17.4462 4.42003 17.3159C6.9787 14.718 10.0285 12.6549 13.392 11.2466C16.7555 9.83843 20.3654 9.11322 24.0118 9.11322C27.6581 9.11322 31.2681 9.83843 34.6316 11.2466C37.995 12.6549 41.0448 14.718 43.6035 17.3159C43.862 17.581 44.0046 17.9379 43.9999 18.3081C43.9952 18.6784 43.8436 19.0316 43.5785 19.29C43.3134 19.5485 42.9565 19.6911 42.5863 19.6864C42.216 19.6817 41.8628 19.5302 41.6044 19.2651C39.3053 16.9313 36.565 15.078 33.5431 13.813C30.5211 12.548 27.2778 11.8965 24.0018 11.8965C20.7257 11.8965 17.4824 12.548 14.4605 13.813C11.4385 15.078 8.6983 16.9313 6.39919 19.2651C6.27483 19.4024 6.1239 19.5131 5.95552 19.5904C5.78714 19.6677 5.60482 19.7101 5.41961 19.7149Z" fill="black"/>
<path d="M38.0059 24.3329C37.8195 24.3341 37.6349 24.2975 37.4631 24.2253C37.2913 24.1532 37.1359 24.047 37.0063 23.9131C35.3138 22.1819 33.2925 20.8063 31.061 19.8671C28.8295 18.9279 26.4328 18.4442 24.0118 18.4442C21.5907 18.4442 19.194 18.9279 16.9625 19.8671C14.731 20.8063 12.7097 22.1819 11.0172 23.9131C10.7588 24.1782 10.4056 24.3298 10.0353 24.3345C9.66511 24.3391 9.30818 24.1966 9.04308 23.9381C8.77798 23.6796 8.62641 23.3264 8.62172 22.9562C8.61703 22.5859 8.75961 22.229 9.01809 21.9639C10.9725 19.9692 13.3054 18.3845 15.88 17.3026C18.4545 16.2208 21.2191 15.6635 24.0118 15.6635C26.8044 15.6635 29.569 16.2208 32.1436 17.3026C34.7182 18.3845 37.051 19.9692 39.0055 21.9639C39.1397 22.0935 39.2464 22.2488 39.3193 22.4205C39.3923 22.5923 39.4298 22.7769 39.4298 22.9635C39.4298 23.1501 39.3923 23.3347 39.3193 23.5065C39.2464 23.6782 39.1397 23.8335 39.0055 23.9631C38.8723 24.0889 38.7152 24.1865 38.5434 24.25C38.3717 24.3136 38.1888 24.3418 38.0059 24.3329Z" fill="black"/>
<path d="M33.3778 28.951C33.1905 28.9526 33.0049 28.9153 32.8328 28.8413C32.6607 28.7673 32.5059 28.6583 32.3783 28.5212C31.2911 27.4022 29.9904 26.5126 28.5534 25.9052C27.1163 25.2978 25.572 24.9848 24.0118 24.9848C22.4516 24.9848 20.9073 25.2978 19.4702 25.9052C18.0331 26.5126 16.7325 27.4022 15.6453 28.5212C15.3881 28.7863 15.0362 28.9384 14.6669 28.944C14.2976 28.9496 13.9412 28.8083 13.6761 28.5511C13.411 28.294 13.2589 27.9421 13.2533 27.5728C13.2477 27.2035 13.389 26.8471 13.6461 26.582C14.9918 25.1933 16.6028 24.0892 18.3834 23.3351C20.1641 22.5811 22.0781 22.1925 24.0118 22.1925C25.9455 22.1925 27.8595 22.5811 29.6401 23.3351C31.4208 24.0892 33.0317 25.1933 34.3774 26.582C34.5116 26.7116 34.6184 26.8668 34.6913 27.0386C34.7642 27.2103 34.8018 27.395 34.8018 27.5816C34.8018 27.7681 34.7642 27.9528 34.6913 28.1245C34.6184 28.2963 34.5116 28.4515 34.3774 28.5811C34.2443 28.7069 34.0871 28.8045 33.9154 28.8681C33.7436 28.9317 33.5608 28.9598 33.3778 28.951Z" fill="black"/>
<path d="M29.7694 31.22C29.0301 30.4346 28.1379 29.8087 27.1478 29.3809C26.1576 28.9531 25.0904 28.7324 24.0118 28.7324C22.9332 28.7324 21.8659 28.9531 20.8758 29.3809C19.8856 29.8087 18.9935 30.4346 18.2542 31.22L17.3246 32.2196L24.0118 38.8868L30.699 32.1996L29.7694 31.22Z" fill="black"/>
</svg>
