<svg width="48" height="48" viewBox="0 0 48 48" fill="none" xmlns="http://www.w3.org/2000/svg">
<path fill-rule="evenodd" clip-rule="evenodd" d="M44 11.4301C43.9967 11.5701 43.9514 11.706 43.87 11.8201C43.8375 11.8714 43.7934 11.9143 43.7413 11.9456C43.6892 11.9768 43.6306 11.9955 43.57 12.0001C42.7819 12.0429 42.0284 12.3374 41.42 12.8401C40.6586 13.6266 40.0694 14.5632 39.69 15.5901L30.61 36.0001C30.55 36.1901 30.39 36.2901 30.11 36.2901C30.0084 36.2907 29.9084 36.2641 29.8205 36.2131C29.7326 36.1622 29.6599 36.0886 29.61 36.0001L24.52 25.4001L18.67 36.0001C18.6209 36.0893 18.5484 36.1635 18.4603 36.2146C18.3722 36.2657 18.2718 36.2918 18.17 36.2901C18.0641 36.3008 17.9574 36.2787 17.8644 36.2269C17.7714 36.175 17.6966 36.0958 17.65 36.0001L8.74 15.5901C8.36879 14.5831 7.77384 13.6736 7 12.9301C6.23977 12.3713 5.33227 12.0479 4.39 12.0001C4.33698 11.9963 4.28566 11.9798 4.24039 11.9519C4.19512 11.9241 4.15725 11.8857 4.13 11.8401C4.08682 11.7949 4.05307 11.7415 4.03075 11.6832C4.00843 11.6248 3.99798 11.5625 4 11.5001C4 11.1701 4.09 11.0001 4.28 11.0001C5.08 11.0001 5.91 11.0001 6.78 11.1101C7.65 11.2201 8.34 11.2101 9.06 11.2101C9.78 11.2101 10.64 11.2101 11.62 11.1101C12.6 11.0101 13.57 11.0001 14.36 11.0001C14.55 11.0001 14.65 11.1701 14.65 11.5001C14.65 11.8301 14.59 12.0001 14.47 12.0001C13.7992 12.0184 13.1474 12.2264 12.59 12.6001C12.3682 12.7576 12.1897 12.9684 12.0709 13.2131C11.952 13.4577 11.8967 13.7284 11.91 14.0001C11.9375 14.3484 12.0326 14.6881 12.19 15.0001L19.56 31.6401L23.74 23.7401L19.85 15.5901C19.4258 14.5646 18.8419 13.6128 18.12 12.7701C17.553 12.3058 16.8519 12.0358 16.12 12.0001C16.07 11.9948 16.0221 11.9776 15.9803 11.9497C15.9385 11.9218 15.904 11.8842 15.88 11.8401C15.7845 11.7518 15.7271 11.6299 15.72 11.5001C15.72 11.1701 15.8 11.0001 15.96 11.0001C16.6914 10.9982 17.4224 11.0349 18.15 11.1101C18.8144 11.1785 19.482 11.2119 20.15 11.2101C20.86 11.2101 21.61 11.2101 22.41 11.1101C23.21 11.0101 24.08 11.0001 24.88 11.0001C25.07 11.0001 25.16 11.1701 25.16 11.5001C25.16 11.8301 25.11 12.0001 25 12.0001C23.41 12.1001 22.61 12.5501 22.61 13.3501C22.6788 13.9319 22.8659 14.4934 23.16 15.0001L25.73 20.2401L28.3 15.4501C28.6036 14.9274 28.7848 14.3428 28.83 13.7401C28.83 12.6501 28.04 12.0701 26.45 12.0001C26.3 12.0001 26.23 11.8301 26.23 11.5001C26.2325 11.3784 26.2708 11.2601 26.34 11.1601C26.41 11.0501 26.48 11.0001 26.55 11.0001C27.12 11.0001 27.82 11.0001 28.65 11.1101C29.48 11.2201 30.1 11.2101 30.65 11.2101C31.2 11.2101 31.56 11.2101 32.27 11.1201C33.13 11.0001 33.89 11.0001 34.49 11.0001C34.64 11.0001 34.71 11.1401 34.71 11.4301C34.71 11.7201 34.58 12.0001 34.31 12.0001C33.5121 12.0494 32.742 12.3119 32.08 12.7601C31.2237 13.572 30.5193 14.5304 30 15.5901L26.58 21.9101L31.21 31.3401L38 15.4501C38.221 14.945 38.34 14.4013 38.35 13.8501C38.35 12.6901 37.56 12.0701 35.97 12.0001C35.83 12.0001 35.75 11.8301 35.75 11.5001C35.75 11.1701 35.86 11.0001 36.07 11.0001C36.66 11.0001 37.34 11.0001 38.14 11.1101C38.94 11.2201 39.49 11.2101 39.99 11.2101C40.598 11.2072 41.2054 11.1738 41.81 11.1101C42.54 11.0001 43.18 11.0001 43.75 11.0001C43.92 11.0001 44 11.1401 44 11.4301Z" fill="black"/>
</svg>
