<svg width="48" height="48" viewBox="0 0 48 48" fill="none" xmlns="http://www.w3.org/2000/svg">
<path d="M6.84001 24C6.83984 27.2219 7.7467 30.3787 9.45683 33.1092C11.167 35.8398 13.6113 38.0337 16.51 39.44L8.33001 17C7.34487 19.202 6.83707 21.5877 6.84001 24Z" fill="black"/>
<path d="M35.58 23.13C35.56 21.4527 35.0716 19.8145 34.17 18.4C33.3 16.99 32.48 15.79 32.48 14.4C32.4663 13.6161 32.76 12.858 33.2983 12.288C33.8366 11.7179 34.5766 11.3812 35.36 11.35H35.59C33.7583 9.67013 31.5834 8.40845 29.2158 7.65233C26.8483 6.8962 24.3447 6.6637 21.8783 6.97092C19.412 7.27814 17.042 8.11774 14.9323 9.43158C12.8226 10.7454 11.0236 12.5021 9.66001 14.58H10.77C12.56 14.58 15.34 14.36 15.34 14.36C15.5173 14.3621 15.6874 14.4305 15.8168 14.5516C15.9462 14.6728 16.0256 14.838 16.0394 15.0147C16.0532 15.1915 16.0004 15.367 15.8913 15.5068C15.7822 15.6465 15.6248 15.7404 15.45 15.77C15.45 15.77 14.52 15.88 13.45 15.94L19.7 34.52L23.45 23.26L20.82 16C19.89 16 19.02 15.84 19.02 15.84C18.8452 15.8104 18.6878 15.7165 18.5787 15.5768C18.4697 15.437 18.4168 15.2615 18.4306 15.0847C18.4444 14.908 18.5238 14.7428 18.6532 14.6216C18.7827 14.5005 18.9527 14.4321 19.13 14.43C19.13 14.43 21.96 14.65 23.65 14.65C25.34 14.65 28.22 14.43 28.22 14.43C28.3973 14.4321 28.5674 14.5005 28.6968 14.6216C28.8262 14.7428 28.9056 14.908 28.9194 15.0847C28.9332 15.2615 28.8804 15.437 28.7713 15.5768C28.6622 15.7165 28.5048 15.8104 28.33 15.84C28.33 15.84 27.4 15.95 26.33 16L32.53 34.45L34.25 28.73C34.9517 26.9343 35.3994 25.0495 35.58 23.13Z" fill="black"/>
<path d="M24.3 25.5L19.15 40.5C20.7252 40.9625 22.3583 41.1982 24 41.2C25.943 41.1927 27.8706 40.8546 29.7 40.2C29.6508 40.1268 29.6073 40.0499 29.57 39.97L24.3 25.5Z" fill="black"/>
<path d="M32.62 38.83C36.4907 36.587 39.3303 32.9189 40.5319 28.6097C41.7334 24.3005 41.2016 19.6922 39.05 15.77C39.1329 16.353 39.173 16.9412 39.17 17.53C39.1384 19.6458 38.6934 21.735 37.86 23.68L32.62 38.83Z" fill="black"/>
<path d="M24 4C20.0444 4 16.1776 5.17298 12.8886 7.37061C9.59962 9.56824 7.03617 12.6918 5.52242 16.3463C4.00867 20.0009 3.6126 24.0222 4.3843 27.9018C5.15601 31.7814 7.06082 35.3451 9.85787 38.1421C12.6549 40.9392 16.2186 42.844 20.0982 43.6157C23.9778 44.3874 27.9992 43.9913 31.6537 42.4776C35.3082 40.9638 38.4318 38.4004 40.6294 35.1114C42.827 31.8224 44 27.9556 44 24C44 18.6957 41.8929 13.6086 38.1421 9.85786C34.3914 6.10714 29.3043 4 24 4ZM24 43.08C20.2263 43.08 16.5374 41.961 13.3997 39.8644C10.262 37.7679 7.81651 34.788 6.37239 31.3016C4.92827 27.8152 4.55042 23.9788 5.28663 20.2777C6.02283 16.5765 7.84003 13.1768 10.5084 10.5084C13.1768 7.84002 16.5765 6.02282 20.2777 5.28662C23.9788 4.55041 27.8152 4.92826 31.3016 6.37238C34.788 7.8165 37.7679 10.262 39.8644 13.3997C41.961 16.5374 43.08 20.2263 43.08 24C43.0747 29.0587 41.0628 33.9087 37.4858 37.4857C33.9087 41.0628 29.0587 43.0747 24 43.08Z" fill="black"/>
</svg>
