<svg width="48" height="48" viewBox="0 0 48 48" fill="none" xmlns="http://www.w3.org/2000/svg">
<path d="M27.1942 23.0303H25.6146V23.2002C26.1145 23.2002 26.1945 23.3002 26.1945 23.9301V25.0598C26.1945 25.6796 26.1145 25.7896 25.6146 25.7896C25.2108 25.7144 24.8522 25.4849 24.6148 25.1498L24.2049 24.7099C24.4213 24.7005 24.6266 24.6117 24.7815 24.4605C24.9365 24.3092 25.0302 24.1061 25.0447 23.8901C25.0447 23.4002 24.6348 23.0303 23.855 23.0303H22.3254V23.2002C22.8253 23.2002 22.9053 23.3002 22.9053 23.9301V25.0598C22.9053 25.6796 22.8253 25.7896 22.3254 25.7896V25.9596H24.085V25.7896C23.5851 25.7896 23.5051 25.6796 23.5051 25.0598V24.7399H23.6551L24.6548 25.9596H27.1942C28.4539 25.9596 28.9938 25.2897 28.9938 24.4599C28.9938 23.6301 28.4539 23.0303 27.1942 23.0303ZM23.5051 24.4599V23.3002H23.865C23.9436 23.294 24.0226 23.3051 24.0965 23.3327C24.1703 23.3603 24.2372 23.4037 24.2925 23.4599C24.3478 23.5162 24.39 23.5838 24.4164 23.6581C24.4427 23.7324 24.4524 23.8116 24.4449 23.8901C24.4509 23.9678 24.44 24.0458 24.413 24.1189C24.386 24.192 24.3435 24.2583 24.2884 24.3134C24.2333 24.3685 24.1669 24.411 24.0938 24.438C24.0208 24.4651 23.9427 24.4759 23.865 24.4699L23.5051 24.4599ZM27.2242 25.6796H27.1542C26.8443 25.6796 26.7943 25.5996 26.7943 25.1997V23.3002H27.2242C28.134 23.3002 28.3039 23.9601 28.3039 24.4799C28.3039 24.9998 28.134 25.6896 27.2242 25.6896V25.6796Z" fill="black"/>
<path d="M19.2262 22.1505H17.5766V22.3305C18.1365 22.3305 18.2164 22.4804 18.0365 23.0003L17.4366 24.7898L16.5569 22.1505H16.3969L15.5071 24.7898L14.9173 23.0003C14.7273 22.4504 14.9173 22.3305 15.3872 22.3305V22.1505H13.3877V22.3305C13.8975 22.3305 14.0375 22.4604 14.2474 23.1003L15.2472 26.0995H15.3572L16.2769 23.3502L17.1767 26.0995H17.2867L18.2864 23.1003C18.5064 22.4604 18.6463 22.3305 19.1962 22.3305L19.2262 22.1505Z" fill="black"/>
<path d="M20.4259 22.9203C19.9901 22.8981 19.5627 23.0463 19.2342 23.3337C18.9058 23.6211 18.7021 24.025 18.6663 24.4599C18.7127 24.8943 18.9181 25.2961 19.2429 25.5881C19.5677 25.8801 19.9891 26.0417 20.4259 26.0417C20.8627 26.0417 21.284 25.8801 21.6089 25.5881C21.9337 25.2961 22.1391 24.8943 22.1855 24.4599C22.1472 24.026 21.9429 23.6235 21.615 23.3366C21.2871 23.0497 20.8611 22.9006 20.4259 22.9203ZM20.4259 25.7896C20.2636 25.7831 20.1045 25.7424 19.9591 25.67C19.8137 25.5976 19.6853 25.4952 19.5823 25.3696C19.4794 25.2439 19.4042 25.0979 19.3618 24.9411C19.3193 24.7843 19.3106 24.6203 19.3362 24.4599C19.3098 24.301 19.3183 24.1382 19.3612 23.9829C19.404 23.8276 19.4802 23.6835 19.5844 23.5606C19.6885 23.4377 19.8182 23.3389 19.9644 23.2712C20.1106 23.2035 20.2698 23.1684 20.4309 23.1684C20.592 23.1684 20.7512 23.2035 20.8974 23.2712C21.0436 23.3389 21.1733 23.4377 21.2774 23.5606C21.3816 23.6835 21.4578 23.8276 21.5006 23.9829C21.5435 24.1382 21.552 24.301 21.5256 24.4599C21.5496 24.6209 21.5394 24.7851 21.4958 24.9419C21.4521 25.0987 21.376 25.2446 21.2722 25.37C21.1685 25.4954 21.0395 25.5976 20.8937 25.6699C20.7479 25.7422 20.5885 25.783 20.4259 25.7896Z" fill="black"/>
<path d="M30.9933 22.1505H29.1537V22.3305C29.7436 22.3305 29.8535 22.4704 29.8535 23.3302V24.7599C29.8535 25.6396 29.7436 25.7596 29.1537 25.7596V25.9596H31.1532V25.7896C30.5634 25.7896 30.4534 25.6396 30.4534 24.7898V24.33H30.9933C31.903 24.33 32.4029 23.8501 32.4029 23.2402C32.4029 22.6304 31.883 22.1505 30.9933 22.1505ZM30.9933 24H30.4934V22.4604H30.9933C31.093 22.4571 31.1923 22.4751 31.2846 22.5133C31.3768 22.5515 31.4598 22.609 31.528 22.6819C31.5961 22.7548 31.6479 22.8415 31.6799 22.936C31.7118 23.0306 31.7231 23.1309 31.7131 23.2302C31.7248 23.3299 31.7147 23.4309 31.6834 23.5262C31.6521 23.6216 31.6004 23.7089 31.5319 23.7822C31.4633 23.8555 31.3796 23.913 31.2866 23.9506C31.1936 23.9882 31.0935 24.0051 30.9933 24Z" fill="black"/>
<path d="M38.4214 25.1298V25.2897C38.3414 25.5797 38.2414 25.6896 37.6216 25.6896H37.4916C37.0417 25.6896 36.9618 25.5797 36.9618 24.9598V24.5499C37.6416 24.5499 37.7016 24.6199 37.7016 25.0698H37.8615V23.7601H37.7016C37.7016 24.22 37.6416 24.28 36.9618 24.28V23.2802H37.4416C38.0715 23.2802 38.1615 23.3802 38.2414 23.6701V23.8401H38.3814L38.3214 23.0103H35.7421V23.1803C36.2319 23.1803 36.3119 23.2802 36.3119 23.9101V25.0598C36.3119 25.6296 36.2419 25.7696 35.862 25.7896C35.4602 25.7096 35.1032 25.4811 34.8623 25.1498L34.4524 24.7099C34.6687 24.7005 34.874 24.6117 35.0289 24.4605C35.1839 24.3092 35.2776 24.1061 35.2922 23.8901C35.2922 23.4002 34.8723 23.0303 34.1025 23.0303H32.5829V23.2002C33.0727 23.2002 33.1527 23.3002 33.1527 23.9301V25.0598C33.1527 25.6796 33.0727 25.7896 32.5829 25.7896V25.9596H34.3324V25.7896C33.8425 25.7896 33.7626 25.6796 33.7626 25.0598V24.7399H33.9125L34.9123 25.9596H38.5214L38.5714 25.1298H38.4214ZM33.7626 24.4599V23.3002H34.1225C34.2007 23.2938 34.2794 23.3048 34.3528 23.3324C34.4262 23.3601 34.4926 23.4037 34.5471 23.4601C34.6017 23.5166 34.643 23.5844 34.6681 23.6588C34.6932 23.7331 34.7015 23.8121 34.6923 23.8901C34.6982 23.9669 34.6875 24.044 34.6611 24.1163C34.6346 24.1886 34.593 24.2545 34.5391 24.3094C34.4851 24.3643 34.42 24.4071 34.3481 24.4347C34.2763 24.4624 34.1993 24.4744 34.1225 24.4699L33.7626 24.4599Z" fill="black"/>
<path d="M40.6908 24.34L40.2109 24.11C39.7911 23.9101 39.6011 23.7901 39.6011 23.5602C39.6011 23.3302 39.831 23.2002 40.081 23.2002C40.5409 23.2002 40.7708 23.5402 40.8308 23.9601H40.9908V22.9603H40.8208C40.8004 23.0468 40.763 23.1284 40.7108 23.2002C40.5148 23.0454 40.2707 22.9641 40.021 22.9703C39.908 22.9593 39.7939 22.9708 39.6854 23.0041C39.5769 23.0374 39.476 23.0919 39.3886 23.1644C39.3013 23.2369 39.2291 23.326 39.1763 23.4265C39.1236 23.527 39.0913 23.637 39.0812 23.7501C39.0892 23.9345 39.1513 24.1125 39.2597 24.2618C39.3682 24.4112 39.5182 24.5253 39.6911 24.5899L40.201 24.8298C40.5609 24.9998 40.7608 25.1698 40.7608 25.3997C40.7571 25.462 40.7408 25.5229 40.7128 25.5786C40.6849 25.6344 40.6459 25.6839 40.5982 25.7241C40.5505 25.7643 40.4951 25.7944 40.4354 25.8125C40.3757 25.8307 40.3129 25.8365 40.2509 25.8296C39.9975 25.8302 39.7532 25.7345 39.5676 25.5619C39.382 25.3893 39.2689 25.1527 39.2512 24.8998H39.0812V26.0795H39.2512C39.2624 25.9666 39.3118 25.8608 39.3912 25.7796C39.6144 25.9634 39.8919 26.0688 40.181 26.0795C40.318 26.0891 40.4556 26.0704 40.5851 26.0245C40.7146 25.9786 40.8332 25.9065 40.9336 25.8126C41.034 25.7188 41.1139 25.6053 41.1685 25.4792C41.223 25.3532 41.251 25.2172 41.2507 25.0798C41.2303 24.9182 41.1679 24.7649 41.0696 24.635C40.9714 24.5052 40.8408 24.4035 40.6908 24.34Z" fill="black"/>
<path d="M43.4001 24.34L42.9203 24.11C42.4904 23.9101 42.3104 23.7901 42.3104 23.5602C42.3104 23.3302 42.5404 23.2002 42.7903 23.2002C43.2502 23.2002 43.4801 23.5402 43.5401 23.9601H43.7301V22.9603H43.5601C43.5409 23.0491 43.4997 23.1316 43.4401 23.2002C43.2498 23.0421 43.0076 22.9602 42.7603 22.9703C42.6473 22.9593 42.5332 22.9708 42.4247 23.0041C42.3162 23.0374 42.2153 23.0919 42.1279 23.1644C42.0406 23.2369 41.9684 23.326 41.9157 23.4265C41.8629 23.527 41.8306 23.637 41.8205 23.7501C41.8285 23.9345 41.8906 24.1125 41.999 24.2618C42.1075 24.4112 42.2575 24.5253 42.4304 24.5899L42.9303 24.8298C43.3002 24.9998 43.5001 25.1698 43.5001 25.3997C43.4964 25.462 43.4801 25.5229 43.4522 25.5786C43.4242 25.6344 43.3852 25.6839 43.3375 25.7241C43.2898 25.7643 43.2344 25.7944 43.1747 25.8125C43.115 25.8307 43.0523 25.8365 42.9902 25.8296C42.7368 25.8302 42.4926 25.7345 42.307 25.5619C42.1214 25.3893 42.0082 25.1527 41.9905 24.8998H41.8205V26.0795H41.9905C42.0087 25.9666 42.061 25.8619 42.1405 25.7796C42.3638 25.9634 42.6412 26.0688 42.9303 26.0795C43.0673 26.0891 43.2049 26.0704 43.3344 26.0245C43.4639 25.9786 43.5825 25.9065 43.6829 25.8126C43.7833 25.7188 43.8632 25.6053 43.9178 25.4792C43.9724 25.3532 44.0003 25.2172 44 25.0798C43.976 24.9138 43.9076 24.7575 43.802 24.6272C43.6964 24.497 43.5575 24.3977 43.4001 24.34Z" fill="black"/>
<path d="M4.64984 24C4.65593 24.7234 4.86419 25.4307 5.25108 26.042C5.63798 26.6532 6.18809 27.1441 6.83929 27.4592L4.99975 22.4604C4.78196 22.9453 4.663 23.4687 4.64984 24Z" fill="black"/>
<path d="M11.1682 23.8001C11.1623 23.4194 11.0479 23.0483 10.8383 22.7304C10.6309 22.4637 10.4996 22.1459 10.4584 21.8106C10.4557 21.632 10.5234 21.4595 10.6469 21.3304C10.7703 21.2013 10.9397 21.126 11.1182 21.1208C10.7023 20.7416 10.2092 20.4569 9.67284 20.2864C9.13647 20.1158 8.56954 20.0634 8.01099 20.1328C7.45245 20.2021 6.91554 20.3916 6.43716 20.6881C5.95878 20.9846 5.55027 21.3812 5.23969 21.8506H5.48963C5.88953 21.8506 6.48938 21.8506 6.48938 21.8506C6.52622 21.8597 6.55894 21.8809 6.58233 21.9108C6.60571 21.9407 6.61842 21.9776 6.61842 22.0155C6.61842 22.0535 6.60571 22.0904 6.58233 22.1203C6.55894 22.1502 6.52622 22.1714 6.48938 22.1805H6.03949L7.56911 26.3894L8.4189 23.8301L7.81905 22.1705H7.40915C7.37231 22.1614 7.33959 22.1402 7.3162 22.1103C7.29281 22.0804 7.28011 22.0435 7.28011 22.0055C7.28011 21.9676 7.29281 21.9307 7.3162 21.9008C7.33959 21.8709 7.37231 21.8497 7.40915 21.8406C7.40915 21.8406 8.05899 21.8406 8.4089 21.8406C8.75881 21.8406 9.40865 21.8406 9.40865 21.8406C9.44549 21.8497 9.47821 21.8709 9.5016 21.9008C9.52498 21.9307 9.53769 21.9676 9.53769 22.0055C9.53769 22.0435 9.52498 22.0804 9.5016 22.1103C9.47821 22.1402 9.44549 22.1614 9.40865 22.1705H8.95876L10.4784 26.3595L10.8683 25.0598C11.0257 24.6557 11.1266 24.2318 11.1682 23.8001Z" fill="black"/>
<path d="M8.60885 24.34L7.43914 27.7291C7.79649 27.8334 8.16663 27.8872 8.53887 27.8891C8.97803 27.8884 9.41397 27.814 9.82855 27.6691V27.6191L8.60885 24.34Z" fill="black"/>
<path d="M10.4884 27.3592C11.078 27.0188 11.5677 26.5291 11.9082 25.9395C12.2486 25.3498 12.4279 24.6809 12.4279 24C12.4469 23.3504 12.2989 22.7067 11.998 22.1305C12.0087 22.2636 12.0087 22.3973 11.998 22.5304C11.9945 23.0093 11.8924 23.4823 11.6981 23.9201L10.4884 27.3592Z" fill="black"/>
<path d="M8.53887 19.4612C7.64116 19.4612 6.76362 19.7274 6.01721 20.2261C5.2708 20.7249 4.68904 21.4337 4.3455 22.2631C4.00197 23.0925 3.91208 24.0051 4.08722 24.8855C4.26235 25.766 4.69463 26.5747 5.3294 27.2095C5.96418 27.8443 6.77292 28.2766 7.65338 28.4517C8.53383 28.6268 9.44645 28.5369 10.2758 28.1934C11.1052 27.8499 11.8141 27.2681 12.3128 26.5217C12.8115 25.7753 13.0777 24.8977 13.0777 24C13.0751 22.7971 12.596 21.6441 11.7454 20.7935C10.8948 19.9429 9.74184 19.4638 8.53887 19.4612ZM8.53887 28.329C7.68269 28.329 6.84574 28.0751 6.13385 27.5994C5.42196 27.1237 4.86711 26.4477 4.53947 25.6567C4.21182 24.8656 4.1261 23.9952 4.29313 23.1555C4.46016 22.3158 4.87245 21.5444 5.47786 20.939C6.08327 20.3336 6.85461 19.9213 7.69434 19.7543C8.53407 19.5873 9.40447 19.673 10.1955 20.0006C10.9865 20.3283 11.6626 20.8831 12.1382 21.595C12.6139 22.3069 12.8678 23.1439 12.8678 24C12.8678 25.1481 12.4117 26.2492 11.5999 27.0611C10.788 27.8729 9.68697 28.329 8.53887 28.329Z" fill="black"/>
</svg>
