<svg width="48" height="48" viewBox="0 0 48 48" fill="none" xmlns="http://www.w3.org/2000/svg">
<path d="M22.0006 43.9613C18.8284 43.6331 15.7805 42.5519 13.1106 40.8078C10.8681 39.3462 10.3576 38.7355 10.3576 37.5341C10.3576 35.1214 12.9905 30.8867 17.5556 26.0213C20.1385 23.2882 23.7325 20.0746 24.1229 20.1647C24.8738 20.3349 30.9205 26.1714 33.183 29.0046C36.757 33.3895 38.3989 37.0135 37.5679 38.5853C36.9372 39.7967 32.9928 42.1793 30.0996 43.0903C27.475 43.8682 24.7284 44.15 22.0006 43.9213V43.9613ZM7.32418 35.0313C5.42687 32.1031 4.30392 28.7411 4.06054 25.2604C3.91592 23.6275 4.0308 21.982 4.40092 20.385C5.05862 16.6955 6.74519 13.2668 9.26635 10.4939C10.2675 9.49282 10.3576 9.42275 11.5789 9.84322C13.0706 10.3438 14.6524 11.435 17.1151 13.6575L18.5567 15.009L17.7658 16.0101C14.1318 20.4851 10.2875 26.8222 8.83587 30.7465C8.04499 32.8789 7.73464 35.0213 8.06501 35.9123C8.29527 36.4229 8.08503 36.2026 7.32418 35.0313ZM40.0908 35.5219C40.2142 34.0871 40.0123 32.643 39.5001 31.2972C38.3188 27.6831 34.3544 20.9656 30.7203 16.4005L29.579 14.9589L30.8204 13.8277C32.0303 12.6575 33.3513 11.608 34.7648 10.6942C35.6493 10.1257 36.6407 9.74408 37.6781 9.57291C38.0385 9.57291 39.3099 10.8944 40.341 12.336C41.9739 14.6715 43.1149 17.3146 43.6948 20.1047C44.0805 22.6012 44.1007 25.1407 43.7548 27.6431C43.4227 29.2701 42.9193 30.8573 42.2532 32.3784C41.6799 33.6009 41.0104 34.7759 40.2509 35.8923C40.0007 36.2127 40.0007 36.2127 40.1408 35.5219H40.0908ZM22.3309 8.88214C20.5192 7.98892 18.6067 7.31668 16.6346 6.87991C16.0045 6.79222 15.3684 6.75539 14.7325 6.76979C13.5511 6.82985 13.6112 6.76979 15.5033 5.87879C16.9856 5.16196 18.5534 4.63714 20.1685 4.31705C22.7309 3.8966 25.3447 3.8966 27.9072 4.31705C30.0101 4.76549 32.0346 5.52466 33.9139 6.56956L34.3343 6.81984H33.3332C30.6644 6.92033 28.0544 7.63277 25.7047 8.90217C25.1536 9.19633 24.5852 9.45709 24.0028 9.68304C23.9027 9.67303 23.1719 9.31262 22.3309 8.88214Z" fill="black"/>
</svg>
