<svg width="48" height="48" viewBox="0 0 48 48" fill="none" xmlns="http://www.w3.org/2000/svg">
<path fill-rule="evenodd" clip-rule="evenodd" d="M34.66 12.19L26.6 26.42L31.73 35.78C31.7792 35.8651 31.805 35.9617 31.805 36.06C31.805 36.1583 31.7792 36.2549 31.73 36.34C31.6767 36.4165 31.6044 36.4779 31.5203 36.5182C31.4362 36.5586 31.3431 36.5764 31.25 36.57H27.62C27.4049 36.5622 27.1965 36.4931 27.0194 36.3708C26.8422 36.2486 26.7037 36.0783 26.62 35.88C26.62 35.88 21.46 26.43 21.45 26.4L29.53 12.09C29.6071 11.8872 29.744 11.7125 29.9226 11.5893C30.1012 11.4661 30.313 11.4001 30.53 11.4H34.2C34.2945 11.3938 34.3889 11.4116 34.4746 11.4519C34.5603 11.4921 34.6344 11.5534 34.69 11.63C34.7319 11.7185 34.751 11.816 34.7458 11.9138C34.7406 12.0116 34.7111 12.1065 34.66 12.19ZM17.45 29.06H13.81C13.7164 29.0645 13.6233 29.0437 13.5406 28.9997C13.4578 28.9557 13.3885 28.8902 13.34 28.81C13.2908 28.7249 13.265 28.6283 13.265 28.53C13.265 28.4317 13.2908 28.3351 13.34 28.25L17.2 21.44L14.74 17.16C14.6936 17.074 14.6693 16.9777 14.6693 16.88C14.6693 16.7823 14.6936 16.686 14.74 16.6C14.7983 16.5244 14.8746 16.4646 14.9619 16.4262C15.0493 16.3878 15.1449 16.3719 15.24 16.38H18.88C19.0943 16.3858 19.3024 16.4529 19.4797 16.5734C19.6569 16.694 19.7959 16.8628 19.88 17.06C19.88 17.06 22.37 21.39 22.38 21.42L18.45 28.35C18.3738 28.555 18.2377 28.7324 18.0593 28.859C17.881 28.9856 17.6687 29.0556 17.45 29.06ZM40 6H8C7.46957 6 6.96086 6.21071 6.58579 6.58579C6.21071 6.96086 6 7.46957 6 8V40C6 40.5304 6.21071 41.0391 6.58579 41.4142C6.96086 41.7893 7.46957 42 8 42H40C40.5304 42 41.0391 41.7893 41.4142 41.4142C41.7893 41.0391 42 40.5304 42 40V8C42 7.46957 41.7893 6.96086 41.4142 6.58579C41.0391 6.21071 40.5304 6 40 6Z" fill="black"/>
</svg>
