<svg width="48" height="48" viewBox="0 0 48 48" fill="none" xmlns="http://www.w3.org/2000/svg">
<path fill-rule="evenodd" clip-rule="evenodd" d="M11.4408 13.117H16.6546C16.9676 13.1248 17.2715 13.2236 17.5291 13.4013C17.7868 13.579 17.9872 13.828 18.1057 14.1177L21.6583 20.3223L16.0542 30.2396C15.9399 30.5262 15.7447 30.7735 15.4924 30.9511C15.2401 31.1288 14.9415 31.2293 14.6331 31.2403H9.42929C9.29653 31.2466 9.16449 31.2174 9.04669 31.1559C8.92888 31.0943 8.82953 31.0026 8.75879 30.8901C8.68753 30.7687 8.64996 30.6305 8.64996 30.4898C8.64996 30.349 8.68753 30.2109 8.75879 30.0895L14.2829 20.3523L10.7603 14.2378C10.6946 14.1146 10.6602 13.9771 10.6602 13.8375C10.6602 13.6979 10.6946 13.5604 10.7603 13.4372C10.84 13.3334 10.9433 13.2502 11.0617 13.1945C11.1801 13.1388 11.31 13.1122 11.4408 13.117ZM33.2969 6.00172H38.5508C38.6845 5.99283 38.8184 6.01855 38.9393 6.07639C39.0602 6.13423 39.1642 6.22225 39.2413 6.33196C39.3126 6.45333 39.3501 6.59151 39.3501 6.73226C39.3501 6.873 39.3126 7.01118 39.2413 7.13255L27.7128 27.4776L35.0482 40.8675C35.1195 40.9888 35.157 41.127 35.157 41.2677C35.157 41.4085 35.1195 41.5467 35.0482 41.668C34.9711 41.7778 34.8671 41.8658 34.7462 41.9236C34.6253 41.9815 34.4915 42.0072 34.3577 41.9983H29.1739C28.8609 41.9905 28.557 41.8917 28.2993 41.714C28.0416 41.5362 27.8413 41.2873 27.7228 40.9975L20.3273 27.4976L31.9059 7.00245C32.0103 6.7152 32.1989 6.46608 32.4471 6.28757C32.6952 6.10906 32.9913 6.00945 33.2969 6.00172Z" fill="black"/>
</svg>
