<svg width="48" height="48" viewBox="0 0 48 48" fill="none" xmlns="http://www.w3.org/2000/svg">
<path fill-rule="evenodd" clip-rule="evenodd" d="M35.6521 18.2407H37.1997C37.2926 18.2432 37.383 18.2717 37.4606 18.3229C37.5382 18.374 37.6 18.4458 37.639 18.5302L38.6974 20.3874L37.0299 23.3828C36.9947 23.4679 36.9352 23.5407 36.8588 23.5922C36.7825 23.6437 36.6927 23.6716 36.6006 23.6724H35.053C35.0139 23.6741 34.9751 23.6658 34.9402 23.6484C34.9052 23.6309 34.8753 23.6048 34.8533 23.5725C34.8332 23.5358 34.8226 23.4946 34.8226 23.4527C34.8226 23.4108 34.8332 23.3696 34.8533 23.3329L36.5008 20.4273L35.4524 18.5801C35.4331 18.5431 35.4231 18.502 35.4231 18.4603C35.4231 18.4186 35.4331 18.3775 35.4524 18.3405C35.4756 18.3095 35.5058 18.2843 35.5404 18.267C35.5751 18.2497 35.6133 18.2407 35.6521 18.2407ZM28.8225 21.6355H29.2318C29.993 21.6043 30.7513 21.7478 31.4485 22.0548C31.6482 22.1547 31.7181 22.2246 31.7181 22.3644V23.5426C31.7204 23.5768 31.7144 23.611 31.7005 23.6424C31.6866 23.6737 31.6652 23.7012 31.6382 23.7223C31.6078 23.7398 31.5734 23.7491 31.5383 23.7491C31.5033 23.7491 31.4688 23.7398 31.4385 23.7223C30.7186 23.4749 29.9631 23.3467 29.2019 23.3429H28.9023C28.6255 23.3171 28.3465 23.357 28.088 23.4594C27.8295 23.5618 27.5988 23.7237 27.4146 23.932C27.0909 24.4135 26.9429 24.9917 26.9953 25.5695V28.1056C26.9953 29.4935 27.5245 30.1725 28.6128 30.1725C29.123 30.1697 29.6292 30.082 30.1105 29.9129V27.826H28.6727C28.6395 27.8275 28.6065 27.822 28.5755 27.8099C28.5446 27.7979 28.5165 27.7795 28.493 27.7561C28.4696 27.7326 28.4512 27.7045 28.4392 27.6736C28.4272 27.6427 28.4217 27.6096 28.4231 27.5764V26.3283C28.4217 26.2952 28.4272 26.2621 28.4392 26.2311C28.4512 26.2002 28.4696 26.1721 28.493 26.1487C28.5165 26.1252 28.5446 26.1069 28.5755 26.0948C28.6065 26.0828 28.6395 26.0773 28.6727 26.0787H31.738C31.772 26.0758 31.8062 26.0802 31.8383 26.0916C31.8704 26.103 31.8998 26.1211 31.9243 26.1447C31.9489 26.1684 31.9681 26.197 31.9808 26.2286C31.9934 26.2603 31.9992 26.2943 31.9976 26.3283V31.101C30.9156 31.6065 29.7371 31.8722 28.5429 31.8799C26.2564 31.8799 25.0982 30.6417 25.0982 28.2154V25.5695C25.0982 23.0333 26.4261 21.6355 28.8225 21.6355ZM4.35978 21.7653H6.07717C6.1545 21.7649 6.22978 21.7902 6.29121 21.8371C6.35265 21.8841 6.39676 21.9502 6.41665 22.0249L8.0242 25.0403L9.65171 22.0449C9.72161 21.8951 9.7915 21.7853 9.99119 21.7853H11.7485C11.7797 21.7844 11.8105 21.7913 11.8384 21.8052C11.8662 21.8191 11.8902 21.8397 11.9083 21.8651C11.9139 21.8982 11.9139 21.9319 11.9083 21.965C11.9129 21.9981 11.9129 22.0317 11.9083 22.0648L9.38212 26.6279L12.0181 31.4605C12.0274 31.4965 12.0274 31.5343 12.0181 31.5703C12.0273 31.5996 12.0273 31.6309 12.0181 31.6602C12.0025 31.6879 11.9789 31.7103 11.9504 31.7245C11.922 31.7388 11.8899 31.7442 11.8583 31.7401H10.1609C9.96124 31.7401 9.90133 31.6302 9.83144 31.4805L8.0242 28.2354L6.27686 31.4805C6.19698 31.6302 6.12709 31.7401 5.93738 31.7401H4.22C4.18416 31.7535 4.14453 31.7527 4.10925 31.7379C4.07396 31.723 4.04571 31.6952 4.03029 31.6602C4.01054 31.6306 4 31.5959 4 31.5603C4 31.5248 4.01054 31.49 4.03029 31.4605L6.68624 26.6478L4.20003 22.0449C4.18138 22.0171 4.17085 21.9846 4.16965 21.9512C4.16845 21.9177 4.17661 21.8846 4.19321 21.8555C4.20982 21.8265 4.23421 21.8026 4.26364 21.7867C4.29307 21.7707 4.32637 21.7633 4.35978 21.7653ZM14.704 21.7653C14.7376 21.7639 14.7712 21.7694 14.8026 21.7813C14.834 21.7933 14.8628 21.8115 14.887 21.8348C14.9113 21.8581 14.9305 21.8861 14.9437 21.917C14.9569 21.948 14.9636 21.9813 14.9636 22.0149V31.4904C14.9652 31.5245 14.9594 31.5585 14.9468 31.5901C14.9341 31.6218 14.9149 31.6504 14.8903 31.674C14.8657 31.6976 14.8364 31.7158 14.8043 31.7271C14.7722 31.7385 14.738 31.7429 14.704 31.7401H13.3261C13.2921 31.7429 13.258 31.7385 13.2258 31.7271C13.1937 31.7158 13.1644 31.6976 13.1398 31.674C13.1152 31.6504 13.096 31.6218 13.0833 31.5901C13.0707 31.5585 13.065 31.5245 13.0665 31.4904V22.0149C13.0665 21.9813 13.0732 21.948 13.0864 21.917C13.0996 21.8861 13.1189 21.8581 13.1431 21.8348C13.1674 21.8115 13.1961 21.7933 13.2275 21.7813C13.259 21.7694 13.2925 21.7639 13.3261 21.7653H14.704ZM16.9905 21.7653H18.4084C18.4857 21.7649 18.561 21.7902 18.6224 21.8371C18.6838 21.8841 18.728 21.9502 18.7478 22.0249L21.7433 27.7262V22.0149C21.7417 21.9809 21.7475 21.9469 21.7601 21.9152C21.7727 21.8835 21.792 21.855 21.8166 21.8313C21.8411 21.8077 21.8705 21.7896 21.9026 21.7782C21.9347 21.7668 21.9689 21.7624 22.0029 21.7653H23.3708C23.4039 21.7639 23.437 21.7694 23.468 21.7814C23.4989 21.7934 23.527 21.8118 23.5504 21.8353C23.5739 21.8587 23.5922 21.8868 23.6043 21.9177C23.6163 21.9487 23.6218 21.9817 23.6204 22.0149V31.4904C23.6218 31.5236 23.6163 31.5567 23.6043 31.5876C23.5922 31.6185 23.5739 31.6466 23.5504 31.6701C23.527 31.6936 23.4989 31.7119 23.468 31.7239C23.437 31.736 23.4039 31.7415 23.3708 31.7401H21.913C21.8369 31.7359 21.7638 31.7089 21.7032 31.6626C21.6427 31.6163 21.5975 31.5528 21.5735 31.4805L18.5781 25.7792V31.4904C18.5795 31.5236 18.574 31.5567 18.562 31.5876C18.5499 31.6185 18.5316 31.6466 18.5081 31.6701C18.4847 31.6936 18.4566 31.7119 18.4256 31.7239C18.3947 31.736 18.3616 31.7415 18.3285 31.7401H17.0105C16.9765 31.7429 16.9423 31.7385 16.9102 31.7271C16.8781 31.7158 16.8488 31.6976 16.8242 31.674C16.7996 31.6504 16.7804 31.6218 16.7677 31.5901C16.7551 31.5585 16.7493 31.5245 16.7509 31.4904V22.0149C16.7509 21.9813 16.7576 21.948 16.7708 21.917C16.784 21.8861 16.8032 21.8581 16.8275 21.8348C16.8517 21.8115 16.8804 21.7933 16.9119 21.7813C16.9433 21.7694 16.9769 21.7639 17.0105 21.7653H16.9905ZM42.1621 16.1239H43.7297C43.775 16.1158 43.8217 16.1208 43.8642 16.1386C43.9067 16.1563 43.9432 16.1858 43.9694 16.2237C43.9895 16.2605 44 16.3017 44 16.3436C44 16.3854 43.9895 16.4266 43.9694 16.4634L40.5047 22.5241L42.6913 26.518C42.7114 26.5548 42.722 26.596 42.722 26.6378C42.722 26.6797 42.7114 26.7209 42.6913 26.7577C42.6681 26.7881 42.6377 26.8122 42.6029 26.8279C42.568 26.8436 42.5298 26.8504 42.4916 26.8475H40.9739C40.8822 26.8455 40.7929 26.8171 40.7168 26.7657C40.6407 26.7144 40.5809 26.6423 40.5446 26.558L38.338 22.5641L41.7527 16.4234C41.7829 16.3381 41.8381 16.2638 41.9111 16.2104C41.9842 16.1569 42.0717 16.1268 42.1621 16.1239Z" fill="black"/>
</svg>
