<svg width="48" height="48" viewBox="0 0 48 48" fill="none" xmlns="http://www.w3.org/2000/svg">
<path fill-rule="evenodd" clip-rule="evenodd" d="M9.10003 26.37L12.42 24.46L9.10003 22.55V26.37ZM16.48 21.37C16.6717 22.3819 16.7621 23.4103 16.75 24.44C16.7565 25.4695 16.6661 26.4974 16.48 27.51C16.4084 27.7788 16.2672 28.0238 16.0705 28.2205C15.8739 28.4171 15.6288 28.5584 15.36 28.63C13.7006 28.8231 12.0305 28.91 10.36 28.89C8.68921 28.9111 7.01885 28.8209 5.36003 28.62C5.10025 28.5446 4.86349 28.4054 4.67135 28.215C4.47921 28.0246 4.3378 27.7891 4.26003 27.53C4.08062 26.5167 3.99359 25.4891 4.00003 24.46C3.99359 23.4342 4.08062 22.41 4.26003 21.4C4.3349 21.1291 4.47815 20.8819 4.67602 20.6823C4.8739 20.4827 5.11977 20.3373 5.39003 20.26C7.0494 20.0663 8.71951 19.9795 10.39 20C12.0608 19.9793 13.7312 20.0695 15.39 20.27C15.6544 20.347 15.8941 20.4918 16.0853 20.69C16.2765 20.8883 16.4126 21.133 16.48 21.4V21.37ZM24 26.35V24.61C24.0146 24.3132 23.9809 24.016 23.9 23.73C23.8771 23.6509 23.8291 23.5814 23.7633 23.5319C23.6975 23.4825 23.6174 23.4557 23.535 23.4557C23.4527 23.4557 23.3726 23.4825 23.3067 23.5319C23.2409 23.5814 23.1929 23.6509 23.17 23.73C23.0892 24.016 23.0554 24.3132 23.07 24.61V26.35C23.0534 26.6502 23.0872 26.951 23.17 27.24C23.1921 27.321 23.2404 27.3924 23.3073 27.443C23.3743 27.4937 23.4561 27.5208 23.54 27.52C23.6227 27.5203 23.703 27.4928 23.7683 27.4421C23.8335 27.3913 23.8799 27.3202 23.9 27.24C23.9829 26.951 24.0167 26.6502 24 26.35ZM24.55 22.84C24.8149 23.0383 25.0052 23.3202 25.09 23.64C25.2251 24.111 25.2858 24.6003 25.27 25.09V25.9C25.2872 26.3859 25.2299 26.8715 25.1 27.34C25.0182 27.6612 24.8273 27.944 24.56 28.14C24.2559 28.3134 23.91 28.3999 23.56 28.39C23.21 28.3901 22.8657 28.3006 22.56 28.13C22.2909 27.9358 22.0995 27.6523 22.02 27.33C21.908 26.8619 21.8576 26.3812 21.87 25.9V25.09C21.8449 24.603 21.8887 24.1148 22 23.64C22.1002 23.3196 22.2999 23.0393 22.57 22.84C22.8743 22.6671 23.2201 22.5806 23.57 22.59C23.9237 22.575 24.2742 22.6618 24.58 22.84H24.55ZM41.89 24.77V25.17H42.81V24.77C42.81 24.41 42.81 24.14 42.81 23.95C42.805 23.8102 42.7598 23.6749 42.68 23.56C42.6408 23.5207 42.5939 23.4898 42.5423 23.4692C42.4908 23.4486 42.4356 23.4386 42.38 23.44C42.3238 23.4293 42.2656 23.4349 42.2125 23.4562C42.1593 23.4774 42.1134 23.5135 42.08 23.56C41.9992 23.6743 41.954 23.81 41.95 23.95C41.9161 24.2222 41.8961 24.4958 41.89 24.77ZM41.89 25.89V26.19C41.8764 26.4598 41.8764 26.7302 41.89 27C41.8906 27.1422 41.94 27.2799 42.03 27.39C42.0683 27.434 42.1161 27.4686 42.1699 27.4912C42.2236 27.5137 42.2818 27.5236 42.34 27.52C42.4196 27.5264 42.4992 27.5089 42.5687 27.4697C42.6382 27.4305 42.6944 27.3714 42.73 27.3C42.8163 27.0631 42.857 26.812 42.85 26.56L44 26.62C44.0055 26.6866 44.0055 26.7535 44 26.82C44.0167 27.0377 43.985 27.2564 43.9072 27.4604C43.8294 27.6644 43.7074 27.8487 43.55 28C43.2115 28.272 42.7834 28.4075 42.35 28.38C42.1005 28.4052 41.8488 28.3639 41.6205 28.2603C41.3922 28.1566 41.1953 27.9944 41.05 27.79C40.7626 27.2391 40.6312 26.6202 40.67 26V25C40.6233 24.3621 40.7586 23.7241 41.06 23.16C41.2117 22.9581 41.4128 22.7987 41.644 22.6971C41.8752 22.5955 42.1287 22.5552 42.38 22.58C42.7294 22.5633 43.0763 22.6466 43.38 22.82C43.6233 23.0014 43.7936 23.2639 43.86 23.56C43.9687 24.0082 44.0158 24.4691 44 24.93V25.93L41.89 25.89ZM20.89 20.63H22.14L20.69 25.81V28.28H19.45V25.81L18 20.63H19.25L19.77 23C19.89 23.58 19.99 24.07 20.05 24.48C20.1 24.19 20.19 23.7 20.34 23.01L20.89 20.63ZM28.11 27.14V22.7H29.36V28.29H28.36L28.25 27.61C28.1474 27.853 27.9723 28.0583 27.7485 28.1979C27.5248 28.3375 27.2634 28.4046 27 28.39C26.8482 28.3929 26.6979 28.3589 26.5621 28.2909C26.4262 28.223 26.3089 28.1232 26.22 28C26.0342 27.6578 25.9575 27.267 26 26.88V22.7H27.26V26.8C27.2469 26.9846 27.2777 27.1697 27.35 27.34C27.3739 27.3906 27.4124 27.4329 27.4605 27.4614C27.5086 27.4899 27.5642 27.5034 27.62 27.5C27.7327 27.4889 27.8408 27.4502 27.935 27.3875C28.0292 27.3247 28.1064 27.2397 28.16 27.14H28.11ZM34.56 27.14V22.7H35.82V28.29H34.82L34.71 27.61C34.6098 27.8464 34.4409 28.0471 34.2251 28.1862C34.0093 28.3253 33.7567 28.3963 33.5 28.39C33.3406 28.3959 33.1821 28.3636 33.0377 28.2958C32.8933 28.2279 32.7672 28.1265 32.67 28C32.4669 27.6563 32.3761 27.2578 32.41 26.86V22.7H33.67V26.8C33.6596 26.9836 33.6869 27.1673 33.75 27.34C33.775 27.3855 33.811 27.4239 33.8546 27.4519C33.8983 27.4798 33.9483 27.4964 34 27.5C34.112 27.4952 34.22 27.4569 34.31 27.39C34.4221 27.3415 34.5115 27.2521 34.56 27.14ZM32.79 20.63V21.63H31.54V28.28H30.31V21.65H29.06V20.65L32.79 20.63ZM38.85 25.87V25.13C38.8586 24.7959 38.8418 24.4616 38.8 24.13C38.79 23.952 38.7422 23.7782 38.66 23.62C38.6249 23.5744 38.5793 23.5378 38.5271 23.5135C38.4749 23.4891 38.4176 23.4776 38.36 23.48C38.2367 23.4852 38.1195 23.5349 38.03 23.62C37.9231 23.724 37.847 23.8555 37.81 24V27.17C37.8584 27.2613 37.9311 27.3375 38.02 27.39C38.1047 27.4398 38.2019 27.4641 38.3 27.46C38.3588 27.4609 38.4171 27.4488 38.4706 27.4246C38.5242 27.4004 38.5718 27.3647 38.61 27.32C38.7105 27.1716 38.7692 26.9989 38.78 26.82C38.8233 26.4885 38.8433 26.1543 38.84 25.82L38.85 25.87ZM39.62 22.82C39.8211 23.0315 39.9506 23.3009 39.99 23.59C40.0672 24.0796 40.1074 24.5744 40.11 25.07V26C40.1446 26.6288 40.0387 27.2573 39.8 27.84C39.7198 28.0186 39.5889 28.1697 39.4236 28.2746C39.2582 28.3795 39.0658 28.4335 38.87 28.43C38.6428 28.4269 38.4197 28.3686 38.22 28.26C38.0304 28.1558 37.8743 27.9997 37.77 27.81L37.65 28.33H36.65V20.35H37.8V23.3C37.9025 23.0876 38.0617 22.9077 38.26 22.78C38.4524 22.651 38.6784 22.5814 38.91 22.58C39.1689 22.5649 39.4234 22.651 39.62 22.82Z" fill="black"/>
</svg>
