<svg width="48" height="48" viewBox="0 0 48 48" fill="none" xmlns="http://www.w3.org/2000/svg">
<path fill-rule="evenodd" clip-rule="evenodd" d="M21.49 27.78V20.22L28.05 24L21.49 27.78ZM36.6 24C36.6234 21.9613 36.4493 19.9251 36.08 17.92C35.9364 17.3881 35.6558 16.9033 35.2663 16.5137C34.8767 16.1242 34.3919 15.8436 33.86 15.7C31.86 15.16 24 15.16 24 15.16C24 15.16 16.11 15.16 14.14 15.68C13.6085 15.8308 13.1249 16.1162 12.7359 16.5086C12.347 16.901 12.066 17.3871 11.92 17.92C11.5603 19.9264 11.3862 21.9617 11.4 24C11.3868 26.0317 11.5608 28.0603 11.92 30.06C12.0636 30.5919 12.3442 31.0767 12.7337 31.4663C13.1233 31.8558 13.6081 32.1364 14.14 32.28C16.14 32.82 24 32.82 24 32.82C24 32.82 31.89 32.82 33.86 32.3C34.3919 32.1564 34.8767 31.8758 35.2663 31.4863C35.6558 31.0967 35.9364 30.6119 36.08 30.08C36.4397 28.0736 36.6138 26.0383 36.6 24ZM40 6C40.5304 6 41.0391 6.21071 41.4142 6.58579C41.7893 6.96086 42 7.46957 42 8V40C42 40.5304 41.7893 41.0391 41.4142 41.4142C41.0391 41.7893 40.5304 42 40 42H8C7.46957 42 6.96086 41.7893 6.58579 41.4142C6.21071 41.0391 6 40.5304 6 40V8C6 7.46957 6.21071 6.96086 6.58579 6.58579C6.96086 6.21071 7.46957 6 8 6H40Z" fill="black"/>
</svg>
