<svg width="48" height="48" viewBox="0 0 48 48" fill="none" xmlns="http://www.w3.org/2000/svg">
<path fill-rule="evenodd" clip-rule="evenodd" d="M20 30V18L30.42 24L20 30ZM43.18 14.38C42.9509 13.5358 42.5044 12.7664 41.885 12.1487C41.2655 11.531 40.4949 11.0867 39.65 10.86C36.52 10 24 10 24 10C24 10 11.48 10 8.35 10.82C7.50663 11.0627 6.73945 11.5173 6.12153 12.1404C5.50361 12.7636 5.05554 13.5346 4.82 14.38C4 17.51 4 24 4 24C4 24 4 30.53 4.82 33.62C5.04753 34.4661 5.49339 35.2375 6.11292 35.8571C6.73246 36.4766 7.50391 36.9225 8.35 37.15C11.51 38 24 38 24 38C24 38 36.52 38 39.65 37.17C40.4949 36.9433 41.2655 36.499 41.885 35.8813C42.5044 35.2636 42.9509 34.4942 43.18 33.65C44 30.53 44 24 44 24C44 24 44 17.51 43.18 14.38Z" fill="black"/>
</svg>
