<?xml version="1.0" encoding="utf-8"?>
<!-- Generator: Adobe Illustrator 22.1.0, SVG Export Plug-In . SVG Version: 6.00 Build 0)  -->
<svg version="1.1" id="Calque_1" xmlns="http://www.w3.org/2000/svg" xmlns:xlink="http://www.w3.org/1999/xlink" x="0px" y="0px"
	 viewBox="0 0 1000 167.3" style="enable-background:new 0 0 1000 167.3;" xml:space="preserve">
<style type="text/css">
	.st0{fill:#FFFFFF;}
</style>
<g>
	<g>
		<path class="st0" d="M0,135.2V1.7h93V29H34.3v24.6h54.9v27.3H34.3v54.3H0z"/>
		<path class="st0" d="M201.1,135.2l-11.9-27.6h-59.1l-11.9,27.6h-35L145.4,1.7H173l62.5,133.5H201.1z M141.2,81.4H178l-18.4-42.8
			L141.2,81.4z"/>
		<path class="st0" d="M234.6,109.4l15.5-0.9c4.7-0.3,8-1.4,10-3.4c2-2,3-5.2,3-9.7V1.7h35v93.1c0,13-3.5,22.9-10.4,29.8
			c-6.9,6.9-17.5,10.8-31.6,11.6l-19.5,0.9L234.6,109.4z"/>
		<path class="st0" d="M408.9,1.7h32.6v133.5h-25.7l-61-76.3v76.3h-32.4V1.7h25.4L408.9,78V1.7z"/>
		<path class="st0" d="M589,1.7l-56.4,74v59.4h-34.8V75.7l-56-74h39.2L515,48.1l34.5-46.4H589z"/>
		<path class="st0" d="M671.4,128.4c-10.3-5.7-18.2-13.7-23.7-24c-5.5-10.3-8.2-22.3-8.2-36c0-13.6,2.8-25.6,8.2-35.9
			c5.5-10.3,13.4-18.3,23.7-24C681.7,2.8,693.8,0,707.7,0c8.7,0,17.1,1.3,25.3,4c8.1,2.7,14.8,6.2,20,10.6l-10.8,24.6
			c-11-7.7-22.2-11.5-33.7-11.5c-10.9,0-19.2,3.4-24.9,10.2c-5.7,6.8-8.6,17-8.6,30.5s2.9,23.7,8.6,30.6c5.7,6.9,14,10.3,24.9,10.3
			c11.5,0,22.7-3.8,33.7-11.5l10.8,24.6c-5.2,4.4-11.8,8-20,10.6c-8.1,2.7-16.6,4-25.3,4C693.8,136.9,681.7,134,671.4,128.4z"/>
		<path class="st0" d="M787,132.9c-9.7-2.7-17.6-6.2-23.7-10.6l10.8-24.6c6.4,4,13.3,7.1,20.6,9.3c7.3,2.1,14.7,3.2,22.1,3.2
			c7.6,0,13.4-1,17.3-3.1c4-2.1,6-5,6-8.8c0-3.4-1.8-6.2-5.4-8.3c-3.6-2.1-10.4-4.3-20.5-6.4c-12.5-2.7-22.3-5.8-29.3-9.5
			c-7.1-3.7-12-8-14.9-12.9c-2.8-4.9-4.3-11-4.3-18.2c0-8.2,2.3-15.6,6.9-22.1c4.6-6.5,11.1-11.6,19.5-15.3c8.4-3.7,18-5.6,28.9-5.6
			c9.6,0,18.9,1.4,27.9,4.1c9,2.7,16.1,6.2,21.1,10.5l-10.6,24.6c-12.1-8.3-24.9-12.5-38.2-12.5c-6.4,0-11.6,1.2-15.5,3.7
			c-3.9,2.5-5.9,5.7-5.9,9.8c0,2.4,0.7,4.4,2.1,5.9c1.4,1.5,4,3,7.8,4.4c3.8,1.5,9.4,2.9,16.8,4.5c12.1,2.7,21.6,5.8,28.6,9.6
			s11.9,8,14.8,13s4.4,10.8,4.4,17.6c0,13.1-5,23.4-15.1,30.8c-10.1,7.4-24.3,11.1-42.6,11.1C806.6,136.9,796.7,135.6,787,132.9z"/>
		<path class="st0" d="M912.7,132.9c-9.7-2.7-17.6-6.2-23.7-10.6l10.8-24.6c6.4,4,13.3,7.1,20.6,9.3c7.3,2.1,14.7,3.2,22.1,3.2
			c7.6,0,13.4-1,17.3-3.1c4-2.1,6-5,6-8.8c0-3.4-1.8-6.2-5.4-8.3c-3.6-2.1-10.4-4.3-20.5-6.4c-12.5-2.7-22.3-5.8-29.3-9.5
			c-7.1-3.7-12-8-14.9-12.9c-2.8-4.9-4.3-11-4.3-18.2c0-8.2,2.3-15.6,6.9-22.1c4.6-6.5,11.1-11.6,19.5-15.3c8.4-3.7,18-5.6,28.9-5.6
			c9.6,0,18.9,1.4,27.9,4.1c9,2.7,16.1,6.2,21.1,10.5l-10.6,24.6c-12.1-8.3-24.9-12.5-38.2-12.5c-6.4,0-11.6,1.2-15.5,3.7
			c-3.9,2.5-5.9,5.7-5.9,9.8c0,2.4,0.7,4.4,2.1,5.9c1.4,1.5,4,3,7.8,4.4c3.8,1.5,9.4,2.9,16.8,4.5c12.1,2.7,21.6,5.8,28.6,9.6
			s11.9,8,14.8,13s4.4,10.8,4.4,17.6c0,13.1-5,23.4-15.1,30.8c-10.1,7.4-24.3,11.1-42.6,11.1C932.3,136.9,922.4,135.6,912.7,132.9z"
			/>
	</g>
	<rect x="640" y="157.3" class="st0" width="359.7" height="10"/>
</g>
</svg>
